<svg width="490" height="149" viewBox="0 0 490 149" fill="none" xmlns="http://www.w3.org/2000/svg">
<rect width="490" height="149" rx="44" fill="#B8D6FF"/>
<rect y="74" width="76" height="75" fill="#B8D6FF"/>
<rect x="414" width="76" height="75" fill="#B8D6FF"/>
<path d="M0 110H490C490 131.539 472.539 149 451 149H0V110Z" fill="#6697DC"/>
<path d="M0 110L3.8147e-06 149H39L0 110Z" fill="#307CE6"/>
<path d="M14.17 68.2C14.17 64.6067 14.73 61.34 15.85 58.4C17.0167 55.4133 18.65 52.8233 20.75 50.63C22.85 48.4367 25.37 46.7333 28.31 45.52C31.25 44.3067 34.4933 43.6533 38.04 43.56C41.6333 43.4667 45.46 44.0267 49.52 45.24C49.52 47.2 49.52 49.1833 49.52 51.19C49.52 53.15 49.52 55.11 49.52 57.07C46.7667 55.7633 44.0367 55.0167 41.33 54.83C38.6233 54.6433 36.1733 55.0167 33.98 55.95C31.7867 56.8833 30.0367 58.3767 28.73 60.43C27.4233 62.4367 26.77 65.0267 26.77 68.2C26.77 71.3733 27.4233 73.9867 28.73 76.04C30.0367 78.0467 31.7867 79.5167 33.98 80.45C36.1733 81.3833 38.6233 81.7567 41.33 81.57C44.0367 81.3833 46.7667 80.6367 49.52 79.33C49.52 81.29 49.52 83.2733 49.52 85.28C49.52 87.24 49.52 89.2 49.52 91.16C45.46 92.3733 41.6333 92.9333 38.04 92.84C34.4933 92.7467 31.25 92.0933 28.31 90.88C25.37 89.6667 22.85 87.9633 20.75 85.77C18.65 83.5767 17.0167 81.01 15.85 78.07C14.73 75.0833 14.17 71.7933 14.17 68.2ZM56.8656 92C56.8656 86.0267 56.8656 80.0067 56.8656 73.94C56.8656 67.8267 56.8656 61.7833 56.8656 55.81C58.779 55.81 60.7156 55.81 62.6756 55.81C64.6356 55.81 66.549 55.81 68.4156 55.81C68.4156 56.1367 68.4156 56.4633 68.4156 56.79C68.4156 57.1167 68.4156 57.4433 68.4156 57.77C69.8623 56.7433 71.4956 55.9733 73.3156 55.46C75.1356 54.9467 77.119 54.8067 79.2656 55.04C79.2656 56.9067 79.2656 58.7967 79.2656 60.71C79.2656 62.6233 79.2656 64.5133 79.2656 66.38C75.579 65.8667 72.849 66.1933 71.0756 67.36C69.3023 68.48 68.4156 70.3233 68.4156 72.89C68.4156 76.0167 68.4156 79.19 68.4156 82.41C68.4156 85.63 68.4156 88.8267 68.4156 92C66.549 92 64.6356 92 62.6756 92C60.7156 92 58.779 92 56.8656 92ZM115.291 90.32C112.071 91.6733 108.874 92.5133 105.701 92.84C102.528 93.1667 99.5177 92.98 96.671 92.28C93.871 91.6267 91.3743 90.4833 89.181 88.85C86.9877 87.2167 85.261 85.14 84.001 82.62C82.7877 80.1 82.181 77.1833 82.181 73.87C82.181 71.1167 82.6243 68.5967 83.511 66.31C84.4443 63.9767 85.751 61.9467 87.431 60.22C89.111 58.4467 91.0943 57.0933 93.381 56.16C95.6677 55.18 98.1643 54.69 100.871 54.69C103.298 54.69 105.491 55.0867 107.451 55.88C109.411 56.6733 111.114 57.7933 112.561 59.24C114.008 60.64 115.174 62.32 116.061 64.28C116.948 66.24 117.508 68.3867 117.741 70.72C117.974 73.0533 117.834 75.5267 117.321 78.14C113.494 78.14 109.644 78.14 105.771 78.14C101.898 78.14 98.0477 78.14 94.221 78.14C95.1077 79.9133 96.5777 81.1733 98.631 81.92C100.731 82.6667 103.204 82.9 106.051 82.62C108.944 82.34 112.024 81.5933 115.291 80.38C115.291 82.0133 115.291 83.67 115.291 85.35C115.291 87.03 115.291 88.6867 115.291 90.32ZM100.591 65.05C99.2377 65.05 97.9777 65.4233 96.811 66.17C95.691 66.9167 94.8277 68.06 94.221 69.6C96.321 69.6 98.421 69.6 100.521 69.6C102.668 69.6 104.791 69.6 106.891 69.6C106.331 68.0133 105.491 66.87 104.371 66.17C103.298 65.4233 102.038 65.05 100.591 65.05ZM148.008 92C148.008 91.6267 148.008 91.2767 148.008 90.95C148.008 90.5767 148.008 90.2267 148.008 89.9C146.841 90.88 145.511 91.6267 144.018 92.14C142.571 92.7 141.008 92.98 139.328 92.98C136.948 92.98 134.708 92.5367 132.608 91.65C130.508 90.7167 128.641 89.41 127.008 87.73C125.421 86.0033 124.161 83.9733 123.228 81.64C122.341 79.3067 121.898 76.7167 121.898 73.87C121.898 70.9767 122.341 68.3633 123.228 66.03C124.161 63.6967 125.421 61.7133 127.008 60.08C128.641 58.4 130.508 57.1167 132.608 56.23C134.708 55.2967 136.924 54.83 139.258 54.83C140.938 54.83 142.524 55.11 144.018 55.67C145.511 56.1833 146.841 56.9067 148.008 57.84C148.008 57.4667 148.008 57.1167 148.008 56.79C148.008 56.4633 148.008 56.1367 148.008 55.81C149.921 55.81 151.858 55.81 153.818 55.81C155.778 55.81 157.691 55.81 159.558 55.81C159.558 61.7833 159.558 67.8267 159.558 73.94C159.558 80.0067 159.558 86.0267 159.558 92C157.691 92 155.778 92 153.818 92C151.858 92 149.921 92 148.008 92ZM140.868 82.76C143.108 82.76 144.904 81.9433 146.258 80.31C147.611 78.6767 148.288 76.53 148.288 73.87C148.288 71.21 147.611 69.0867 146.258 67.5C144.904 65.8667 143.108 65.05 140.868 65.05C138.581 65.05 136.761 65.8433 135.408 67.43C134.101 69.0167 133.448 71.1633 133.448 73.87C133.448 76.5767 134.101 78.7467 135.408 80.38C136.761 81.9667 138.581 82.76 140.868 82.76ZM171.046 92C171.046 87.7067 171.046 83.39 171.046 79.05C171.046 74.71 171.046 70.4167 171.046 66.17C170.113 66.17 169.156 66.17 168.176 66.17C167.243 66.17 166.309 66.17 165.376 66.17C165.376 64.4433 165.376 62.7167 165.376 60.99C165.376 59.2633 165.376 57.5367 165.376 55.81C166.309 55.81 167.243 55.81 168.176 55.81C169.156 55.81 170.113 55.81 171.046 55.81C171.046 54.1767 171.046 52.5667 171.046 50.98C171.046 49.3467 171.046 47.7367 171.046 46.15C172.959 46.15 174.896 46.15 176.856 46.15C178.816 46.15 180.729 46.15 182.596 46.15C182.596 47.7367 182.596 49.3467 182.596 50.98C182.596 52.5667 182.596 54.1767 182.596 55.81C183.669 55.81 184.766 55.81 185.886 55.81C187.006 55.81 188.103 55.81 189.176 55.81C189.176 57.5367 189.176 59.2633 189.176 60.99C189.176 62.7167 189.176 64.4433 189.176 66.17C188.103 66.17 187.006 66.17 185.886 66.17C184.766 66.17 183.669 66.17 182.596 66.17C182.596 70.4167 182.596 74.71 182.596 79.05C182.596 83.39 182.596 87.7067 182.596 92C180.729 92 178.816 92 176.856 92C174.896 92 172.959 92 171.046 92ZM200.906 51.68C199.553 51.68 198.316 51.3533 197.196 50.7C196.123 50.0467 195.26 49.1833 194.606 48.11C193.953 47.0367 193.626 45.8467 193.626 44.54C193.626 43.2333 193.953 42.0667 194.606 41.04C195.26 39.9667 196.123 39.1033 197.196 38.45C198.316 37.7967 199.553 37.47 200.906 37.47C202.213 37.47 203.403 37.7967 204.476 38.45C205.596 39.1033 206.483 39.9667 207.136 41.04C207.79 42.0667 208.116 43.2333 208.116 44.54C208.116 45.8467 207.79 47.0367 207.136 48.11C206.483 49.1833 205.596 50.0467 204.476 50.7C203.403 51.3533 202.213 51.68 200.906 51.68ZM195.096 92C195.096 86.0267 195.096 80.0067 195.096 73.94C195.096 67.8267 195.096 61.7833 195.096 55.81C197.01 55.81 198.946 55.81 200.906 55.81C202.866 55.81 204.78 55.81 206.646 55.81C206.646 61.7833 206.646 67.8267 206.646 73.94C206.646 80.0067 206.646 86.0267 206.646 92C204.78 92 202.866 92 200.906 92C198.946 92 197.01 92 195.096 92ZM223.037 92C220.984 86.0267 218.884 80.0067 216.737 73.94C214.637 67.8267 212.561 61.7833 210.507 55.81C212.514 55.81 214.521 55.81 216.527 55.81C218.581 55.81 220.611 55.81 222.617 55.81C223.831 59.4967 225.044 63.2067 226.257 66.94C227.517 70.6267 228.731 74.3133 229.897 78C231.111 74.3133 232.324 70.6267 233.537 66.94C234.751 63.2067 235.941 59.4967 237.107 55.81C239.067 55.81 241.051 55.81 243.057 55.81C245.064 55.81 247.047 55.81 249.007 55.81C246.954 61.7833 244.854 67.8267 242.707 73.94C240.607 80.0067 238.531 86.0267 236.477 92C234.284 92 232.044 92 229.757 92C227.471 92 225.231 92 223.037 92ZM282.977 90.32C279.757 91.6733 276.56 92.5133 273.387 92.84C270.213 93.1667 267.203 92.98 264.357 92.28C261.557 91.6267 259.06 90.4833 256.867 88.85C254.673 87.2167 252.947 85.14 251.687 82.62C250.473 80.1 249.867 77.1833 249.867 73.87C249.867 71.1167 250.31 68.5967 251.197 66.31C252.13 63.9767 253.437 61.9467 255.117 60.22C256.797 58.4467 258.78 57.0933 261.067 56.16C263.353 55.18 265.85 54.69 268.557 54.69C270.983 54.69 273.177 55.0867 275.137 55.88C277.097 56.6733 278.8 57.7933 280.247 59.24C281.693 60.64 282.86 62.32 283.747 64.28C284.633 66.24 285.193 68.3867 285.427 70.72C285.66 73.0533 285.52 75.5267 285.007 78.14C281.18 78.14 277.33 78.14 273.457 78.14C269.583 78.14 265.733 78.14 261.907 78.14C262.793 79.9133 264.263 81.1733 266.317 81.92C268.417 82.6667 270.89 82.9 273.737 82.62C276.63 82.34 279.71 81.5933 282.977 80.38C282.977 82.0133 282.977 83.67 282.977 85.35C282.977 87.03 282.977 88.6867 282.977 90.32ZM268.277 65.05C266.923 65.05 265.663 65.4233 264.497 66.17C263.377 66.9167 262.513 68.06 261.907 69.6C264.007 69.6 266.107 69.6 268.207 69.6C270.353 69.6 272.477 69.6 274.577 69.6C274.017 68.0133 273.177 66.87 272.057 66.17C270.983 65.4233 269.723 65.05 268.277 65.05ZM307.291 92C307.291 84.16 307.291 76.2267 307.291 68.2C307.291 60.1733 307.291 52.24 307.291 44.4C309.344 44.4 311.397 44.4 313.451 44.4C315.504 44.4 317.534 44.4 319.541 44.4C319.541 52.24 319.541 60.1733 319.541 68.2C319.541 76.2267 319.541 84.16 319.541 92C317.534 92 315.504 92 313.451 92C311.397 92 309.344 92 307.291 92ZM328.321 92C328.321 86.0267 328.321 80.0067 328.321 73.94C328.321 67.8267 328.321 61.7833 328.321 55.81C330.234 55.81 332.171 55.81 334.131 55.81C336.091 55.81 338.004 55.81 339.871 55.81C339.871 56.1367 339.871 56.44 339.871 56.72C339.871 57 339.871 57.3033 339.871 57.63C341.131 56.7433 342.531 56.0667 344.071 55.6C345.657 55.0867 347.361 54.83 349.181 54.83C351.841 54.83 354.174 55.4367 356.181 56.65C358.234 57.8633 359.821 59.6133 360.941 61.9C362.107 64.14 362.691 66.8467 362.691 70.02C362.691 73.66 362.691 77.3233 362.691 81.01C362.691 84.6967 362.691 88.36 362.691 92C360.824 92 358.911 92 356.951 92C354.991 92 353.054 92 351.141 92C351.141 88.64 351.141 85.2333 351.141 81.78C351.141 78.3267 351.141 74.92 351.141 71.56C351.141 69.6933 350.697 68.2 349.811 67.08C348.971 65.9133 347.617 65.33 345.751 65.33C343.884 65.33 342.437 65.8667 341.411 66.94C340.384 68.0133 339.871 69.5533 339.871 71.56C339.871 74.92 339.871 78.3267 339.871 81.78C339.871 85.2333 339.871 88.64 339.871 92C338.004 92 336.091 92 334.131 92C332.171 92 330.234 92 328.321 92ZM381.365 103.2C379.498 103.2 377.585 103.2 375.625 103.2C373.665 103.2 371.728 103.2 369.815 103.2C369.815 95.4067 369.815 87.52 369.815 79.54C369.815 71.5133 369.815 63.6033 369.815 55.81C371.728 55.81 373.665 55.81 375.625 55.81C377.585 55.81 379.498 55.81 381.365 55.81C381.365 56.1367 381.365 56.4633 381.365 56.79C381.365 57.1167 381.365 57.4667 381.365 57.84C382.532 56.9067 383.862 56.1833 385.355 55.67C386.848 55.11 388.435 54.83 390.115 54.83C392.448 54.83 394.665 55.2967 396.765 56.23C398.865 57.1167 400.708 58.4 402.295 60.08C403.928 61.76 405.188 63.7667 406.075 66.1C407.008 68.4333 407.475 71.0233 407.475 73.87C407.475 76.67 407.008 79.2367 406.075 81.57C405.188 83.9033 403.928 85.9333 402.295 87.66C400.708 89.34 398.865 90.6467 396.765 91.58C394.665 92.5133 392.425 92.98 390.045 92.98C388.365 92.98 386.778 92.7 385.285 92.14C383.838 91.6267 382.532 90.88 381.365 89.9C381.365 92.0933 381.365 94.31 381.365 96.55C381.365 98.79 381.365 101.007 381.365 103.2ZM388.505 82.76C390.792 82.76 392.588 81.9667 393.895 80.38C395.248 78.7467 395.925 76.5767 395.925 73.87C395.925 71.1633 395.248 69.0167 393.895 67.43C392.588 65.8433 390.792 65.05 388.505 65.05C386.265 65.05 384.468 65.8667 383.115 67.5C381.762 69.0867 381.085 71.21 381.085 73.87C381.085 76.53 381.762 78.6767 383.115 80.31C384.468 81.9433 386.265 82.76 388.505 82.76ZM447.033 55.81C447.033 61.7833 447.033 67.8267 447.033 73.94C447.033 80.0067 447.033 86.0267 447.033 92C445.166 92 443.253 92 441.293 92C439.333 92 437.396 92 435.483 92C435.483 91.6733 435.483 91.37 435.483 91.09C435.483 90.81 435.483 90.5067 435.483 90.18C434.223 91.0667 432.8 91.7433 431.213 92.21C429.673 92.7233 427.993 92.98 426.173 92.98C423.513 92.98 421.156 92.3733 419.103 91.16C417.096 89.9467 415.51 88.1967 414.343 85.91C413.223 83.6233 412.663 80.9167 412.663 77.79C412.663 74.15 412.663 70.4867 412.663 66.8C412.663 63.1133 412.663 59.45 412.663 55.81C414.576 55.81 416.513 55.81 418.473 55.81C420.433 55.81 422.346 55.81 424.213 55.81C424.213 59.17 424.213 62.5767 424.213 66.03C424.213 69.4833 424.213 72.89 424.213 76.25C424.213 78.1167 424.633 79.6333 425.473 80.8C426.36 81.92 427.736 82.48 429.603 82.48C431.47 82.48 432.916 81.9433 433.943 80.87C434.97 79.7967 435.483 78.2567 435.483 76.25C435.483 72.89 435.483 69.4833 435.483 66.03C435.483 62.5767 435.483 59.17 435.483 55.81C437.396 55.81 439.333 55.81 441.293 55.81C443.253 55.81 445.166 55.81 447.033 55.81ZM458.497 92C458.497 87.7067 458.497 83.39 458.497 79.05C458.497 74.71 458.497 70.4167 458.497 66.17C457.564 66.17 456.607 66.17 455.627 66.17C454.694 66.17 453.761 66.17 452.827 66.17C452.827 64.4433 452.827 62.7167 452.827 60.99C452.827 59.2633 452.827 57.5367 452.827 55.81C453.761 55.81 454.694 55.81 455.627 55.81C456.607 55.81 457.564 55.81 458.497 55.81C458.497 54.1767 458.497 52.5667 458.497 50.98C458.497 49.3467 458.497 47.7367 458.497 46.15C460.411 46.15 462.347 46.15 464.307 46.15C466.267 46.15 468.181 46.15 470.047 46.15C470.047 47.7367 470.047 49.3467 470.047 50.98C470.047 52.5667 470.047 54.1767 470.047 55.81C471.121 55.81 472.217 55.81 473.337 55.81C474.457 55.81 475.554 55.81 476.627 55.81C476.627 57.5367 476.627 59.2633 476.627 60.99C476.627 62.7167 476.627 64.4433 476.627 66.17C475.554 66.17 474.457 66.17 473.337 66.17C472.217 66.17 471.121 66.17 470.047 66.17C470.047 70.4167 470.047 74.71 470.047 79.05C470.047 83.39 470.047 87.7067 470.047 92C468.181 92 466.267 92 464.307 92C462.347 92 460.411 92 458.497 92Z" fill="#696969"/>
</svg>
