<svg width="499" height="150" viewBox="0 0 499 150" fill="none" xmlns="http://www.w3.org/2000/svg">
<rect width="499" height="149" rx="44" fill="#B8D6FF"/>
<rect y="74" width="77.3959" height="75" fill="#B8D6FF"/>
<rect x="421.604" width="77.3959" height="75" fill="#B8D6FF"/>
<path d="M0 111H498C498 132.539 480.539 150 459 150H0V111Z" fill="#6697DC"/>
<path d="M0 111L3.8147e-06 150H39L0 111Z" fill="#307CE6"/>
<path d="M10.55 94C10.55 86.16 10.55 78.2267 10.55 70.2C10.55 62.1733 10.55 54.24 10.55 46.4C13.4433 46.4 16.36 46.4 19.3 46.4C22.24 46.4 25.1567 46.4 28.05 46.4C29.4033 51.16 30.7333 55.99 32.04 60.89C33.3933 65.7433 34.7233 70.55 36.03 75.31C37.3367 70.55 38.6433 65.7433 39.95 60.89C41.3033 55.99 42.6333 51.16 43.94 46.4C46.8333 46.4 49.7267 46.4 52.62 46.4C55.5133 46.4 58.3833 46.4 61.23 46.4C61.2767 54.24 61.3233 62.1733 61.37 70.2C61.4167 78.2267 61.4633 86.16 61.51 94C59.55 94 57.5667 94 55.56 94C53.6 94 51.64 94 49.68 94C49.68 88.68 49.68 83.3133 49.68 77.9C49.68 72.44 49.68 67.05 49.68 61.73C48.28 67.05 46.8567 72.44 45.41 77.9C43.9633 83.3133 42.54 88.68 41.14 94C39.4133 94 37.64 94 35.82 94C34.0467 94 32.2733 94 30.5 94C29.1 88.7733 27.7 83.5 26.3 78.18C24.9 72.8133 23.5 67.5167 22.1 62.29C22.1 67.5167 22.1 72.8133 22.1 78.18C22.1 83.5 22.1 88.7733 22.1 94C20.2333 94 18.32 94 16.36 94C14.4 94 12.4633 94 10.55 94ZM87.0879 95.12C84.3812 95.12 81.8612 94.6533 79.5279 93.72C77.1946 92.74 75.1646 91.3867 73.4379 89.66C71.7112 87.8867 70.3579 85.8333 69.3779 83.5C68.4446 81.1667 67.9779 78.6233 67.9779 75.87C67.9779 73.1167 68.4446 70.5733 69.3779 68.24C70.3579 65.9067 71.7112 63.8767 73.4379 62.15C75.1646 60.4233 77.1946 59.0933 79.5279 58.16C81.8612 57.18 84.3812 56.69 87.0879 56.69C89.8412 56.69 92.3612 57.18 94.6479 58.16C96.9812 59.0933 99.0112 60.4233 100.738 62.15C102.465 63.8767 103.795 65.9067 104.728 68.24C105.708 70.5733 106.198 73.1167 106.198 75.87C106.198 78.6233 105.708 81.1667 104.728 83.5C103.795 85.8333 102.465 87.8867 100.738 89.66C99.0112 91.3867 96.9812 92.74 94.6479 93.72C92.3612 94.6533 89.8412 95.12 87.0879 95.12ZM87.0879 84.69C89.3746 84.69 91.1946 83.8733 92.5479 82.24C93.9479 80.56 94.6479 78.4367 94.6479 75.87C94.6479 73.2567 93.9479 71.1567 92.5479 69.57C91.1946 67.9367 89.3746 67.12 87.0879 67.12C84.8012 67.12 82.9579 67.9367 81.5579 69.57C80.2046 71.1567 79.5279 73.2567 79.5279 75.87C79.5279 78.4367 80.2046 80.56 81.5579 82.24C82.9579 83.8733 84.8012 84.69 87.0879 84.69ZM129.061 95.12C126.354 95.12 123.834 94.6533 121.501 93.72C119.167 92.74 117.137 91.3867 115.411 89.66C113.684 87.8867 112.331 85.8333 111.351 83.5C110.417 81.1667 109.951 78.6233 109.951 75.87C109.951 73.1167 110.417 70.5733 111.351 68.24C112.331 65.9067 113.684 63.8767 115.411 62.15C117.137 60.4233 119.167 59.0933 121.501 58.16C123.834 57.18 126.354 56.69 129.061 56.69C131.814 56.69 134.334 57.18 136.621 58.16C138.954 59.0933 140.984 60.4233 142.711 62.15C144.437 63.8767 145.767 65.9067 146.701 68.24C147.681 70.5733 148.171 73.1167 148.171 75.87C148.171 78.6233 147.681 81.1667 146.701 83.5C145.767 85.8333 144.437 87.8867 142.711 89.66C140.984 91.3867 138.954 92.74 136.621 93.72C134.334 94.6533 131.814 95.12 129.061 95.12ZM129.061 84.69C131.347 84.69 133.167 83.8733 134.521 82.24C135.921 80.56 136.621 78.4367 136.621 75.87C136.621 73.2567 135.921 71.1567 134.521 69.57C133.167 67.9367 131.347 67.12 129.061 67.12C126.774 67.12 124.931 67.9367 123.531 69.57C122.177 71.1567 121.501 73.2567 121.501 75.87C121.501 78.4367 122.177 80.56 123.531 82.24C124.931 83.8733 126.774 84.69 129.061 84.69ZM178.033 94C178.033 93.6267 178.033 93.2767 178.033 92.95C178.033 92.5767 178.033 92.2267 178.033 91.9C176.867 92.88 175.537 93.6267 174.043 94.14C172.597 94.7 171.033 94.98 169.353 94.98C166.973 94.98 164.733 94.5133 162.633 93.58C160.533 92.6467 158.667 91.34 157.033 89.66C155.447 87.9333 154.187 85.9033 153.253 83.57C152.367 81.2367 151.923 78.67 151.923 75.87C151.923 73.0233 152.367 70.4333 153.253 68.1C154.187 65.7667 155.447 63.76 157.033 62.08C158.667 60.4 160.533 59.1167 162.633 58.23C164.733 57.2967 166.95 56.83 169.283 56.83C170.963 56.83 172.55 57.11 174.043 57.67C175.537 58.1833 176.867 58.9067 178.033 59.84C178.033 57.04 178.033 54.2167 178.033 51.37C178.033 48.5233 178.033 45.7 178.033 42.9C179.947 42.9 181.883 42.9 183.843 42.9C185.803 42.9 187.717 42.9 189.583 42.9C189.583 51.3467 189.583 59.8633 189.583 68.45C189.583 77.0367 189.583 85.5533 189.583 94C187.717 94 185.803 94 183.843 94C181.883 94 179.947 94 178.033 94ZM170.893 84.76C173.133 84.76 174.93 83.9433 176.283 82.31C177.637 80.6767 178.313 78.53 178.313 75.87C178.313 73.21 177.637 71.0867 176.283 69.5C174.93 67.8667 173.133 67.05 170.893 67.05C168.607 67.05 166.787 67.8433 165.433 69.43C164.127 71.0167 163.473 73.1633 163.473 75.87C163.473 78.5767 164.127 80.7467 165.433 82.38C166.787 83.9667 168.607 84.76 170.893 84.76ZM247.26 79.93C247.26 83.0567 246.467 85.7633 244.88 88.05C243.34 90.3367 241.194 92.11 238.44 93.37C235.687 94.5833 232.49 95.19 228.85 95.19C225.444 95.19 222.41 94.6533 219.75 93.58C217.137 92.46 215.06 90.8733 213.52 88.82C212.027 86.72 211.28 84.2467 211.28 81.4C211.28 79.0667 211.794 76.92 212.82 74.96C213.894 73 215.504 71.32 217.65 69.92C215.924 68.6133 214.64 67.0967 213.8 65.37C213.007 63.5967 212.61 61.66 212.61 59.56C212.61 56.48 213.427 53.9133 215.06 51.86C216.74 49.8067 218.98 48.2667 221.78 47.24C224.58 46.2133 227.684 45.6767 231.09 45.63C234.497 45.5367 237.95 45.9333 241.45 46.82C241.45 48.6867 241.45 50.5767 241.45 52.49C241.45 54.4033 241.45 56.3167 241.45 58.23C239.49 57.67 237.507 57.2733 235.5 57.04C233.54 56.8067 231.744 56.7833 230.11 56.97C228.477 57.1567 227.147 57.5533 226.12 58.16C225.14 58.7667 224.65 59.63 224.65 60.75C224.65 62.1967 225.63 63.2 227.59 63.76C229.55 64.2733 232.257 64.53 235.71 64.53C235.71 63.69 235.71 62.85 235.71 62.01C235.71 61.1233 235.71 60.26 235.71 59.42C237.624 59.42 239.56 59.42 241.52 59.42C243.48 59.42 245.394 59.42 247.26 59.42C247.26 60.26 247.26 61.1233 247.26 62.01C247.26 62.85 247.26 63.69 247.26 64.53C247.96 64.53 248.684 64.53 249.43 64.53C250.177 64.53 250.9 64.53 251.6 64.53C251.6 66.2567 251.6 67.9833 251.6 69.71C251.6 71.4367 251.6 73.1633 251.6 74.89C250.9 74.89 250.177 74.89 249.43 74.89C248.684 74.89 247.96 74.89 247.26 74.89C247.26 75.73 247.26 76.57 247.26 77.41C247.26 78.25 247.26 79.09 247.26 79.93ZM223.53 79.65C223.53 81.0033 224.02 82.1467 225 83.08C226.027 83.9667 227.45 84.41 229.27 84.41C231.23 84.41 232.794 83.9433 233.96 83.01C235.127 82.03 235.71 80.6767 235.71 78.95C235.71 78.2967 235.71 77.62 235.71 76.92C235.71 76.22 235.71 75.5433 235.71 74.89C231.884 74.89 228.897 75.17 226.75 75.73C224.604 76.29 223.53 77.5967 223.53 79.65ZM272.093 94C272.093 86.16 272.093 78.2267 272.093 70.2C272.093 62.1733 272.093 54.24 272.093 46.4C276.806 46.4 281.566 46.4 286.373 46.4C291.18 46.4 295.94 46.4 300.653 46.4C300.653 48.1733 300.653 49.9933 300.653 51.86C300.653 53.7267 300.653 55.5467 300.653 57.32C297.946 57.32 295.216 57.32 292.463 57.32C289.756 57.32 287.05 57.32 284.343 57.32C284.343 58.4867 284.343 59.6533 284.343 60.82C284.343 61.94 284.343 63.0833 284.343 64.25C286.816 64.25 289.313 64.25 291.833 64.25C294.353 64.25 296.826 64.25 299.253 64.25C299.253 65.9767 299.253 67.7267 299.253 69.5C299.253 71.2733 299.253 73.0467 299.253 74.82C296.826 74.82 294.353 74.82 291.833 74.82C289.313 74.82 286.816 74.82 284.343 74.82C284.343 76.1733 284.343 77.55 284.343 78.95C284.343 80.35 284.343 81.7267 284.343 83.08C287.05 83.08 289.756 83.08 292.463 83.08C295.216 83.08 297.946 83.08 300.653 83.08C300.653 84.8533 300.653 86.6733 300.653 88.54C300.653 90.4067 300.653 92.2267 300.653 94C295.94 94 291.18 94 286.373 94C281.566 94 276.806 94 272.093 94ZM308.375 94C308.375 88.0267 308.375 82.0067 308.375 75.94C308.375 69.8267 308.375 63.7833 308.375 57.81C310.289 57.81 312.225 57.81 314.185 57.81C316.145 57.81 318.059 57.81 319.925 57.81C319.925 58.1367 319.925 58.44 319.925 58.72C319.925 59 319.925 59.3033 319.925 59.63C321.185 58.7433 322.585 58.0667 324.125 57.6C325.712 57.0867 327.415 56.83 329.235 56.83C331.895 56.83 334.229 57.4367 336.235 58.65C338.289 59.8633 339.875 61.6133 340.995 63.9C342.162 66.14 342.745 68.8467 342.745 72.02C342.745 75.66 342.745 79.3233 342.745 83.01C342.745 86.6967 342.745 90.36 342.745 94C340.879 94 338.965 94 337.005 94C335.045 94 333.109 94 331.195 94C331.195 90.64 331.195 87.2333 331.195 83.78C331.195 80.3267 331.195 76.92 331.195 73.56C331.195 71.6933 330.752 70.2 329.865 69.08C329.025 67.9133 327.672 67.33 325.805 67.33C323.939 67.33 322.492 67.8667 321.465 68.94C320.439 70.0133 319.925 71.5533 319.925 73.56C319.925 76.92 319.925 80.3267 319.925 83.78C319.925 87.2333 319.925 90.64 319.925 94C318.059 94 316.145 94 314.185 94C312.225 94 310.289 94 308.375 94ZM381.02 92.32C377.8 93.6733 374.603 94.5133 371.43 94.84C368.256 95.1667 365.246 94.98 362.4 94.28C359.6 93.6267 357.103 92.4833 354.91 90.85C352.716 89.2167 350.99 87.14 349.73 84.62C348.516 82.1 347.91 79.1833 347.91 75.87C347.91 73.1167 348.353 70.5967 349.24 68.31C350.173 65.9767 351.48 63.9467 353.16 62.22C354.84 60.4467 356.823 59.0933 359.11 58.16C361.396 57.18 363.893 56.69 366.6 56.69C369.026 56.69 371.22 57.0867 373.18 57.88C375.14 58.6733 376.843 59.7933 378.29 61.24C379.736 62.64 380.903 64.32 381.79 66.28C382.676 68.24 383.236 70.3867 383.47 72.72C383.703 75.0533 383.563 77.5267 383.05 80.14C379.223 80.14 375.373 80.14 371.5 80.14C367.626 80.14 363.776 80.14 359.95 80.14C360.836 81.9133 362.306 83.1733 364.36 83.92C366.46 84.6667 368.933 84.9 371.78 84.62C374.673 84.34 377.753 83.5933 381.02 82.38C381.02 84.0133 381.02 85.67 381.02 87.35C381.02 89.03 381.02 90.6867 381.02 92.32ZM366.32 67.05C364.966 67.05 363.706 67.4233 362.54 68.17C361.42 68.9167 360.556 70.06 359.95 71.6C362.05 71.6 364.15 71.6 366.25 71.6C368.396 71.6 370.52 71.6 372.62 71.6C372.06 70.0133 371.22 68.87 370.1 68.17C369.026 67.4233 367.766 67.05 366.32 67.05ZM389.586 94C389.586 88.0267 389.586 82.0067 389.586 75.94C389.586 69.8267 389.586 63.7833 389.586 57.81C391.5 57.81 393.436 57.81 395.396 57.81C397.356 57.81 399.27 57.81 401.136 57.81C401.136 58.1367 401.136 58.4633 401.136 58.79C401.136 59.1167 401.136 59.4433 401.136 59.77C402.583 58.7433 404.216 57.9733 406.036 57.46C407.856 56.9467 409.84 56.8067 411.986 57.04C411.986 58.9067 411.986 60.7967 411.986 62.71C411.986 64.6233 411.986 66.5133 411.986 68.38C408.3 67.8667 405.57 68.1933 403.796 69.36C402.023 70.48 401.136 72.3233 401.136 74.89C401.136 78.0167 401.136 81.19 401.136 84.41C401.136 87.63 401.136 90.8267 401.136 94C399.27 94 397.356 94 395.396 94C393.436 94 391.5 94 389.586 94ZM450.882 88.12C450.882 92.0867 450.018 95.4 448.292 98.06C446.612 100.72 444.302 102.703 441.362 104.01C438.422 105.363 435.062 106.063 431.282 106.11C427.548 106.157 423.605 105.597 419.452 104.43C419.452 102.61 419.452 100.767 419.452 98.9C419.452 97.08 419.452 95.26 419.452 93.44C423.138 94.8867 426.475 95.61 429.462 95.61C432.448 95.6567 434.805 95.0967 436.532 93.93C438.305 92.7167 439.192 91.06 439.192 88.96C439.192 88.7267 439.192 88.5167 439.192 88.33C439.192 88.0967 439.192 87.8867 439.192 87.7C438.025 88.5867 436.672 89.2867 435.132 89.8C433.592 90.3133 431.935 90.57 430.162 90.57C427.222 90.57 424.585 89.8933 422.252 88.54C419.965 87.14 418.168 85.2267 416.862 82.8C415.555 80.3267 414.902 77.4567 414.902 74.19C414.902 71.67 415.322 69.36 416.162 67.26C417.002 65.16 418.168 63.34 419.662 61.8C421.155 60.26 422.858 59.0933 424.772 58.3C426.685 57.46 428.692 57.04 430.792 57.04C432.472 57.04 434.035 57.2733 435.482 57.74C436.928 58.2067 438.212 58.8367 439.332 59.63C439.332 59.3033 439.332 59 439.332 58.72C439.332 58.44 439.332 58.1367 439.332 57.81C441.245 57.81 443.182 57.81 445.142 57.81C447.102 57.81 449.015 57.81 450.882 57.81C450.882 62.8033 450.882 67.8667 450.882 73C450.882 78.0867 450.882 83.1267 450.882 88.12ZM433.032 80.56C434.992 80.56 436.555 79.9533 437.722 78.74C438.935 77.48 439.542 75.87 439.542 73.91C439.542 71.9033 438.935 70.27 437.722 69.01C436.555 67.75 434.992 67.12 433.032 67.12C430.978 67.12 429.345 67.75 428.132 69.01C426.918 70.2233 426.312 71.8567 426.312 73.91C426.312 75.9167 426.918 77.5267 428.132 78.74C429.345 79.9533 430.978 80.56 433.032 80.56ZM461.921 105.2C462.854 102.727 463.811 100.23 464.791 97.71C465.818 95.2367 466.798 92.7867 467.731 90.36C465.538 84.9933 463.298 79.58 461.011 74.12C458.771 68.6133 456.554 63.1767 454.361 57.81C456.414 57.81 458.468 57.81 460.521 57.81C462.574 57.81 464.604 57.81 466.611 57.81C467.824 60.7967 469.038 63.83 470.251 66.91C471.511 69.99 472.748 73.0467 473.961 76.08C475.081 73.0467 476.224 69.99 477.391 66.91C478.558 63.83 479.701 60.7967 480.821 57.81C482.828 57.81 484.834 57.81 486.841 57.81C488.848 57.81 490.854 57.81 492.861 57.81C489.734 65.6033 486.584 73.5133 483.411 81.54C480.284 89.52 477.158 97.4067 474.031 105.2C472.024 105.2 469.994 105.2 467.941 105.2C465.934 105.2 463.928 105.2 461.921 105.2Z" fill="#696969"/>
</svg>
