<svg width="490" height="149" viewBox="0 0 490 149" fill="none" xmlns="http://www.w3.org/2000/svg">
<rect width="490" height="149" rx="44" fill="#B8D6FF"/>
<rect y="74" width="76" height="75" fill="#B8D6FF"/>
<rect x="414" width="76" height="75" fill="#B8D6FF"/>
<path d="M0 110H490C490 131.539 472.539 149 451 149H0V110Z" fill="#80B4FC"/>
<path d="M0 110L3.8147e-06 149H39L0 110Z" fill="#6697DC"/>
<path d="M20.55 93C20.55 85.16 20.55 77.2267 20.55 69.2C20.55 61.1733 20.55 53.24 20.55 45.4C23.4433 45.4 26.36 45.4 29.3 45.4C32.24 45.4 35.1567 45.4 38.05 45.4C39.4033 50.16 40.7333 54.99 42.04 59.89C43.3933 64.7433 44.7233 69.55 46.03 74.31C47.3367 69.55 48.6433 64.7433 49.95 59.89C51.3033 54.99 52.6333 50.16 53.94 45.4C56.8333 45.4 59.7267 45.4 62.62 45.4C65.5133 45.4 68.3833 45.4 71.23 45.4C71.2767 53.24 71.3233 61.1733 71.37 69.2C71.4167 77.2267 71.4633 85.16 71.51 93C69.55 93 67.5667 93 65.56 93C63.6 93 61.64 93 59.68 93C59.68 87.68 59.68 82.3133 59.68 76.9C59.68 71.44 59.68 66.05 59.68 60.73C58.28 66.05 56.8567 71.44 55.41 76.9C53.9633 82.3133 52.54 87.68 51.14 93C49.4133 93 47.64 93 45.82 93C44.0467 93 42.2733 93 40.5 93C39.1 87.7733 37.7 82.5 36.3 77.18C34.9 71.8133 33.5 66.5167 32.1 61.29C32.1 66.5167 32.1 71.8133 32.1 77.18C32.1 82.5 32.1 87.7733 32.1 93C30.2333 93 28.32 93 26.36 93C24.4 93 22.4633 93 20.55 93ZM97.0879 94.12C94.3812 94.12 91.8612 93.6533 89.5279 92.72C87.1946 91.74 85.1646 90.3867 83.4379 88.66C81.7112 86.8867 80.3579 84.8333 79.3779 82.5C78.4446 80.1667 77.9779 77.6233 77.9779 74.87C77.9779 72.1167 78.4446 69.5733 79.3779 67.24C80.3579 64.9067 81.7112 62.8767 83.4379 61.15C85.1646 59.4233 87.1946 58.0933 89.5279 57.16C91.8612 56.18 94.3812 55.69 97.0879 55.69C99.8412 55.69 102.361 56.18 104.648 57.16C106.981 58.0933 109.011 59.4233 110.738 61.15C112.465 62.8767 113.795 64.9067 114.728 67.24C115.708 69.5733 116.198 72.1167 116.198 74.87C116.198 77.6233 115.708 80.1667 114.728 82.5C113.795 84.8333 112.465 86.8867 110.738 88.66C109.011 90.3867 106.981 91.74 104.648 92.72C102.361 93.6533 99.8412 94.12 97.0879 94.12ZM97.0879 83.69C99.3746 83.69 101.195 82.8733 102.548 81.24C103.948 79.56 104.648 77.4367 104.648 74.87C104.648 72.2567 103.948 70.1567 102.548 68.57C101.195 66.9367 99.3746 66.12 97.0879 66.12C94.8012 66.12 92.9579 66.9367 91.5579 68.57C90.2046 70.1567 89.5279 72.2567 89.5279 74.87C89.5279 77.4367 90.2046 79.56 91.5579 81.24C92.9579 82.8733 94.8012 83.69 97.0879 83.69ZM139.061 94.12C136.354 94.12 133.834 93.6533 131.501 92.72C129.167 91.74 127.137 90.3867 125.411 88.66C123.684 86.8867 122.331 84.8333 121.351 82.5C120.417 80.1667 119.951 77.6233 119.951 74.87C119.951 72.1167 120.417 69.5733 121.351 67.24C122.331 64.9067 123.684 62.8767 125.411 61.15C127.137 59.4233 129.167 58.0933 131.501 57.16C133.834 56.18 136.354 55.69 139.061 55.69C141.814 55.69 144.334 56.18 146.621 57.16C148.954 58.0933 150.984 59.4233 152.711 61.15C154.437 62.8767 155.767 64.9067 156.701 67.24C157.681 69.5733 158.171 72.1167 158.171 74.87C158.171 77.6233 157.681 80.1667 156.701 82.5C155.767 84.8333 154.437 86.8867 152.711 88.66C150.984 90.3867 148.954 91.74 146.621 92.72C144.334 93.6533 141.814 94.12 139.061 94.12ZM139.061 83.69C141.347 83.69 143.167 82.8733 144.521 81.24C145.921 79.56 146.621 77.4367 146.621 74.87C146.621 72.2567 145.921 70.1567 144.521 68.57C143.167 66.9367 141.347 66.12 139.061 66.12C136.774 66.12 134.931 66.9367 133.531 68.57C132.177 70.1567 131.501 72.2567 131.501 74.87C131.501 77.4367 132.177 79.56 133.531 81.24C134.931 82.8733 136.774 83.69 139.061 83.69ZM188.033 93C188.033 92.6267 188.033 92.2767 188.033 91.95C188.033 91.5767 188.033 91.2267 188.033 90.9C186.867 91.88 185.537 92.6267 184.043 93.14C182.597 93.7 181.033 93.98 179.353 93.98C176.973 93.98 174.733 93.5133 172.633 92.58C170.533 91.6467 168.667 90.34 167.033 88.66C165.447 86.9333 164.187 84.9033 163.253 82.57C162.367 80.2367 161.923 77.67 161.923 74.87C161.923 72.0233 162.367 69.4333 163.253 67.1C164.187 64.7667 165.447 62.76 167.033 61.08C168.667 59.4 170.533 58.1167 172.633 57.23C174.733 56.2967 176.95 55.83 179.283 55.83C180.963 55.83 182.55 56.11 184.043 56.67C185.537 57.1833 186.867 57.9067 188.033 58.84C188.033 56.04 188.033 53.2167 188.033 50.37C188.033 47.5233 188.033 44.7 188.033 41.9C189.947 41.9 191.883 41.9 193.843 41.9C195.803 41.9 197.717 41.9 199.583 41.9C199.583 50.3467 199.583 58.8633 199.583 67.45C199.583 76.0367 199.583 84.5533 199.583 93C197.717 93 195.803 93 193.843 93C191.883 93 189.947 93 188.033 93ZM180.893 83.76C183.133 83.76 184.93 82.9433 186.283 81.31C187.637 79.6767 188.313 77.53 188.313 74.87C188.313 72.21 187.637 70.0867 186.283 68.5C184.93 66.8667 183.133 66.05 180.893 66.05C178.607 66.05 176.787 66.8433 175.433 68.43C174.127 70.0167 173.473 72.1633 173.473 74.87C173.473 77.5767 174.127 79.7467 175.433 81.38C176.787 82.9667 178.607 83.76 180.893 83.76ZM257.26 78.93C257.26 82.0567 256.467 84.7633 254.88 87.05C253.34 89.3367 251.194 91.11 248.44 92.37C245.687 93.5833 242.49 94.19 238.85 94.19C235.444 94.19 232.41 93.6533 229.75 92.58C227.137 91.46 225.06 89.8733 223.52 87.82C222.027 85.72 221.28 83.2467 221.28 80.4C221.28 78.0667 221.794 75.92 222.82 73.96C223.894 72 225.504 70.32 227.65 68.92C225.924 67.6133 224.64 66.0967 223.8 64.37C223.007 62.5967 222.61 60.66 222.61 58.56C222.61 55.48 223.427 52.9133 225.06 50.86C226.74 48.8067 228.98 47.2667 231.78 46.24C234.58 45.2133 237.684 44.6767 241.09 44.63C244.497 44.5367 247.95 44.9333 251.45 45.82C251.45 47.6867 251.45 49.5767 251.45 51.49C251.45 53.4033 251.45 55.3167 251.45 57.23C249.49 56.67 247.507 56.2733 245.5 56.04C243.54 55.8067 241.744 55.7833 240.11 55.97C238.477 56.1567 237.147 56.5533 236.12 57.16C235.14 57.7667 234.65 58.63 234.65 59.75C234.65 61.1967 235.63 62.2 237.59 62.76C239.55 63.2733 242.257 63.53 245.71 63.53C245.71 62.69 245.71 61.85 245.71 61.01C245.71 60.1233 245.71 59.26 245.71 58.42C247.624 58.42 249.56 58.42 251.52 58.42C253.48 58.42 255.394 58.42 257.26 58.42C257.26 59.26 257.26 60.1233 257.26 61.01C257.26 61.85 257.26 62.69 257.26 63.53C257.96 63.53 258.684 63.53 259.43 63.53C260.177 63.53 260.9 63.53 261.6 63.53C261.6 65.2567 261.6 66.9833 261.6 68.71C261.6 70.4367 261.6 72.1633 261.6 73.89C260.9 73.89 260.177 73.89 259.43 73.89C258.684 73.89 257.96 73.89 257.26 73.89C257.26 74.73 257.26 75.57 257.26 76.41C257.26 77.25 257.26 78.09 257.26 78.93ZM233.53 78.65C233.53 80.0033 234.02 81.1467 235 82.08C236.027 82.9667 237.45 83.41 239.27 83.41C241.23 83.41 242.794 82.9433 243.96 82.01C245.127 81.03 245.71 79.6767 245.71 77.95C245.71 77.2967 245.71 76.62 245.71 75.92C245.71 75.22 245.71 74.5433 245.71 73.89C241.884 73.89 238.897 74.17 236.75 74.73C234.604 75.29 233.53 76.5967 233.53 78.65ZM320.523 90.48C315.67 92.44 311.143 93.56 306.943 93.84C302.79 94.1667 299.033 93.7933 295.673 92.72C292.313 91.6 289.443 89.92 287.063 87.68C284.683 85.44 282.863 82.78 281.603 79.7C280.343 76.62 279.713 73.26 279.713 69.62C279.713 66.0267 280.296 62.7133 281.463 59.68C282.63 56.6 284.333 53.94 286.573 51.7C288.86 49.46 291.613 47.71 294.833 46.45C298.053 45.19 301.716 44.5833 305.823 44.63C309.93 44.63 314.433 45.3767 319.333 46.87C319.333 48.83 319.333 50.8133 319.333 52.82C319.333 54.78 319.333 56.74 319.333 58.7C315.46 57.16 311.866 56.2733 308.553 56.04C305.286 55.8067 302.416 56.1567 299.943 57.09C297.516 58.0233 295.603 59.5167 294.203 61.57C292.85 63.5767 292.173 66.0967 292.173 69.13C292.173 71.79 292.663 74.1467 293.643 76.2C294.67 78.2533 296.093 79.8633 297.913 81.03C299.733 82.1967 301.81 82.78 304.143 82.78C304.936 82.78 305.73 82.7567 306.523 82.71C307.316 82.6167 308.086 82.4767 308.833 82.29C308.833 81.0767 308.833 79.84 308.833 78.58C308.833 77.32 308.833 76.0833 308.833 74.87C307.526 74.87 306.22 74.87 304.913 74.87C303.606 74.87 302.3 74.87 300.993 74.87C300.993 73.1433 300.993 71.4167 300.993 69.69C300.993 67.9167 300.993 66.1667 300.993 64.44C304.213 64.44 307.456 64.44 310.723 64.44C314.036 64.44 317.303 64.44 320.523 64.44C320.523 68.7333 320.523 73.0733 320.523 77.46C320.523 81.8467 320.523 86.1867 320.523 90.48ZM359.848 91.32C356.628 92.6733 353.431 93.5133 350.258 93.84C347.084 94.1667 344.074 93.98 341.228 93.28C338.428 92.6267 335.931 91.4833 333.738 89.85C331.544 88.2167 329.818 86.14 328.558 83.62C327.344 81.1 326.738 78.1833 326.738 74.87C326.738 72.1167 327.181 69.5967 328.068 67.31C329.001 64.9767 330.308 62.9467 331.988 61.22C333.668 59.4467 335.651 58.0933 337.938 57.16C340.224 56.18 342.721 55.69 345.428 55.69C347.854 55.69 350.048 56.0867 352.008 56.88C353.968 57.6733 355.671 58.7933 357.118 60.24C358.564 61.64 359.731 63.32 360.618 65.28C361.504 67.24 362.064 69.3867 362.298 71.72C362.531 74.0533 362.391 76.5267 361.878 79.14C358.051 79.14 354.201 79.14 350.328 79.14C346.454 79.14 342.604 79.14 338.778 79.14C339.664 80.9133 341.134 82.1733 343.188 82.92C345.288 83.6667 347.761 83.9 350.608 83.62C353.501 83.34 356.581 82.5933 359.848 81.38C359.848 83.0133 359.848 84.67 359.848 86.35C359.848 88.03 359.848 89.6867 359.848 91.32ZM345.148 66.05C343.794 66.05 342.534 66.4233 341.368 67.17C340.248 67.9167 339.384 69.06 338.778 70.6C340.878 70.6 342.978 70.6 345.078 70.6C347.224 70.6 349.348 70.6 351.448 70.6C350.888 69.0133 350.048 67.87 348.928 67.17C347.854 66.4233 346.594 66.05 345.148 66.05ZM368.414 93C368.414 87.0267 368.414 81.0067 368.414 74.94C368.414 68.8267 368.414 62.7833 368.414 56.81C370.328 56.81 372.264 56.81 374.224 56.81C376.184 56.81 378.098 56.81 379.964 56.81C379.964 57.1367 379.964 57.44 379.964 57.72C379.964 58 379.964 58.3033 379.964 58.63C381.224 57.7433 382.624 57.0667 384.164 56.6C385.751 56.0867 387.454 55.83 389.274 55.83C391.934 55.83 394.268 56.4367 396.274 57.65C398.328 58.8633 399.914 60.6133 401.034 62.9C402.201 65.14 402.784 67.8467 402.784 71.02C402.784 74.66 402.784 78.3233 402.784 82.01C402.784 85.6967 402.784 89.36 402.784 93C400.918 93 399.004 93 397.044 93C395.084 93 393.148 93 391.234 93C391.234 89.64 391.234 86.2333 391.234 82.78C391.234 79.3267 391.234 75.92 391.234 72.56C391.234 70.6933 390.791 69.2 389.904 68.08C389.064 66.9133 387.711 66.33 385.844 66.33C383.978 66.33 382.531 66.8667 381.504 67.94C380.478 69.0133 379.964 70.5533 379.964 72.56C379.964 75.92 379.964 79.3267 379.964 82.78C379.964 86.2333 379.964 89.64 379.964 93C378.098 93 376.184 93 374.224 93C372.264 93 370.328 93 368.414 93ZM409.909 93C409.909 87.0267 409.909 81.0067 409.909 74.94C409.909 68.8267 409.909 62.7833 409.909 56.81C411.822 56.81 413.759 56.81 415.719 56.81C417.679 56.81 419.592 56.81 421.459 56.81C421.459 57.1367 421.459 57.4633 421.459 57.79C421.459 58.1167 421.459 58.4433 421.459 58.77C422.905 57.7433 424.539 56.9733 426.359 56.46C428.179 55.9467 430.162 55.8067 432.309 56.04C432.309 57.9067 432.309 59.7967 432.309 61.71C432.309 63.6233 432.309 65.5133 432.309 67.38C428.622 66.8667 425.892 67.1933 424.119 68.36C422.345 69.48 421.459 71.3233 421.459 73.89C421.459 77.0167 421.459 80.19 421.459 83.41C421.459 86.63 421.459 89.8267 421.459 93C419.592 93 417.679 93 415.719 93C413.759 93 411.822 93 409.909 93ZM468.334 91.32C465.114 92.6733 461.917 93.5133 458.744 93.84C455.571 94.1667 452.561 93.98 449.714 93.28C446.914 92.6267 444.417 91.4833 442.224 89.85C440.031 88.2167 438.304 86.14 437.044 83.62C435.831 81.1 435.224 78.1833 435.224 74.87C435.224 72.1167 435.667 69.5967 436.554 67.31C437.487 64.9767 438.794 62.9467 440.474 61.22C442.154 59.4467 444.137 58.0933 446.424 57.16C448.711 56.18 451.207 55.69 453.914 55.69C456.341 55.69 458.534 56.0867 460.494 56.88C462.454 57.6733 464.157 58.7933 465.604 60.24C467.051 61.64 468.217 63.32 469.104 65.28C469.991 67.24 470.551 69.3867 470.784 71.72C471.017 74.0533 470.877 76.5267 470.364 79.14C466.537 79.14 462.687 79.14 458.814 79.14C454.941 79.14 451.091 79.14 447.264 79.14C448.151 80.9133 449.621 82.1733 451.674 82.92C453.774 83.6667 456.247 83.9 459.094 83.62C461.987 83.34 465.067 82.5933 468.334 81.38C468.334 83.0133 468.334 84.67 468.334 86.35C468.334 88.03 468.334 89.6867 468.334 91.32ZM453.634 66.05C452.281 66.05 451.021 66.4233 449.854 67.17C448.734 67.9167 447.871 69.06 447.264 70.6C449.364 70.6 451.464 70.6 453.564 70.6C455.711 70.6 457.834 70.6 459.934 70.6C459.374 69.0133 458.534 67.87 457.414 67.17C456.341 66.4233 455.081 66.05 453.634 66.05Z" fill="#696969"/>
</svg>
