<svg width="490" height="149" viewBox="0 0 490 149" fill="none" xmlns="http://www.w3.org/2000/svg">
<rect width="490" height="149" rx="44" fill="#B8D6FF"/>
<rect y="74" width="76" height="75" fill="#B8D6FF"/>
<rect x="414" width="76" height="75" fill="#B8D6FF"/>
<path d="M0 109H490C490 130.539 472.539 148 451 148H0V109Z" fill="#80B4FC"/>
<path d="M0 109L3.8147e-06 148H39L0 109Z" fill="#6697DC"/>
<path d="M70.84 77.65C70.84 81.1967 69.9067 84.09 68.04 86.33C66.22 88.5233 63.7467 90.11 60.62 91.09C57.54 92.07 54.0867 92.49 50.26 92.35C46.4333 92.2567 42.5367 91.6733 38.57 90.6C38.57 88.5933 38.57 86.5867 38.57 84.58C38.57 82.5733 38.57 80.5667 38.57 78.56C42.21 79.8667 45.5233 80.6833 48.51 81.01C51.4967 81.3367 53.8767 81.22 55.65 80.66C57.4233 80.0533 58.31 79.05 58.31 77.65C58.31 76.67 57.82 75.8767 56.84 75.27C55.86 74.6167 54.5767 74.0333 52.99 73.52C51.45 73.0067 49.8167 72.4233 48.09 71.77C46.3633 71.07 44.7067 70.2067 43.12 69.18C41.58 68.1067 40.32 66.73 39.34 65.05C38.36 63.3233 37.87 61.1767 37.87 58.61C37.87 55.4367 38.71 52.7533 40.39 50.56C42.07 48.3667 44.3333 46.71 47.18 45.59C50.0733 44.47 53.34 43.91 56.98 43.91C60.6667 43.91 64.47 44.47 68.39 45.59C68.39 47.5967 68.39 49.6033 68.39 51.61C68.39 53.6167 68.39 55.6233 68.39 57.63C65.1233 56.23 62.1133 55.39 59.36 55.11C56.6533 54.7833 54.4833 54.9233 52.85 55.53C51.2167 56.09 50.4 57.0233 50.4 58.33C50.4 59.2633 50.89 60.0333 51.87 60.64C52.85 61.2467 54.11 61.8067 55.65 62.32C57.2367 62.7867 58.8933 63.37 60.62 64.07C62.3467 64.7233 63.98 65.61 65.52 66.73C67.1067 67.8033 68.39 69.2267 69.37 71C70.35 72.7267 70.84 74.9433 70.84 77.65ZM93.666 93.12C90.9593 93.12 88.4393 92.6533 86.106 91.72C83.7727 90.74 81.7427 89.3867 80.016 87.66C78.2893 85.8867 76.936 83.8333 75.956 81.5C75.0227 79.1667 74.556 76.6233 74.556 73.87C74.556 71.1167 75.0227 68.5733 75.956 66.24C76.936 63.9067 78.2893 61.8767 80.016 60.15C81.7427 58.4233 83.7727 57.0933 86.106 56.16C88.4393 55.18 90.9593 54.69 93.666 54.69C96.4194 54.69 98.9394 55.18 101.226 56.16C103.559 57.0933 105.589 58.4233 107.316 60.15C109.043 61.8767 110.373 63.9067 111.306 66.24C112.286 68.5733 112.776 71.1167 112.776 73.87C112.776 76.6233 112.286 79.1667 111.306 81.5C110.373 83.8333 109.043 85.8867 107.316 87.66C105.589 89.3867 103.559 90.74 101.226 91.72C98.9394 92.6533 96.4194 93.12 93.666 93.12ZM93.666 82.69C95.9527 82.69 97.7727 81.8733 99.126 80.24C100.526 78.56 101.226 76.4367 101.226 73.87C101.226 71.2567 100.526 69.1567 99.126 67.57C97.7727 65.9367 95.9527 65.12 93.666 65.12C91.3794 65.12 89.536 65.9367 88.136 67.57C86.7827 69.1567 86.106 71.2567 86.106 73.87C86.106 76.4367 86.7827 78.56 88.136 80.24C89.536 81.8733 91.3794 82.69 93.666 82.69ZM116.529 73.87C116.529 70.3233 117.252 67.22 118.699 64.56C120.145 61.8533 122.152 59.6833 124.719 58.05C127.285 56.4167 130.272 55.4367 133.679 55.11C137.085 54.7367 140.725 55.1333 144.599 56.3C144.599 58.0733 144.599 59.87 144.599 61.69C144.599 63.51 144.599 65.3067 144.599 67.08C141.892 65.7733 139.302 65.1667 136.829 65.26C134.355 65.3533 132.325 66.1233 130.739 67.57C129.152 68.97 128.359 71.07 128.359 73.87C128.359 76.67 129.152 78.7933 130.739 80.24C132.325 81.64 134.355 82.3867 136.829 82.48C139.302 82.5267 141.892 81.92 144.599 80.66C144.599 82.4333 144.599 84.23 144.599 86.05C144.599 87.87 144.599 89.6667 144.599 91.44C140.725 92.6067 137.085 93.0033 133.679 92.63C130.272 92.3033 127.285 91.3233 124.719 89.69C122.152 88.0567 120.145 85.91 118.699 83.25C117.252 80.5433 116.529 77.4167 116.529 73.87ZM157.94 51.68C156.586 51.68 155.35 51.3533 154.23 50.7C153.156 50.0467 152.293 49.1833 151.64 48.11C150.986 47.0367 150.66 45.8467 150.66 44.54C150.66 43.2333 150.986 42.0667 151.64 41.04C152.293 39.9667 153.156 39.1033 154.23 38.45C155.35 37.7967 156.586 37.47 157.94 37.47C159.246 37.47 160.436 37.7967 161.51 38.45C162.63 39.1033 163.516 39.9667 164.17 41.04C164.823 42.0667 165.15 43.2333 165.15 44.54C165.15 45.8467 164.823 47.0367 164.17 48.11C163.516 49.1833 162.63 50.0467 161.51 50.7C160.436 51.3533 159.246 51.68 157.94 51.68ZM152.13 92C152.13 86.0267 152.13 80.0067 152.13 73.94C152.13 67.8267 152.13 61.7833 152.13 55.81C154.043 55.81 155.98 55.81 157.94 55.81C159.9 55.81 161.813 55.81 163.68 55.81C163.68 61.7833 163.68 67.8267 163.68 73.94C163.68 80.0067 163.68 86.0267 163.68 92C161.813 92 159.9 92 157.94 92C155.98 92 154.043 92 152.13 92ZM195.891 92C195.891 91.6267 195.891 91.2767 195.891 90.95C195.891 90.5767 195.891 90.2267 195.891 89.9C194.724 90.88 193.394 91.6267 191.901 92.14C190.454 92.7 188.891 92.98 187.211 92.98C184.831 92.98 182.591 92.5367 180.491 91.65C178.391 90.7167 176.524 89.41 174.891 87.73C173.304 86.0033 172.044 83.9733 171.111 81.64C170.224 79.3067 169.781 76.7167 169.781 73.87C169.781 70.9767 170.224 68.3633 171.111 66.03C172.044 63.6967 173.304 61.7133 174.891 60.08C176.524 58.4 178.391 57.1167 180.491 56.23C182.591 55.2967 184.807 54.83 187.141 54.83C188.821 54.83 190.407 55.11 191.901 55.67C193.394 56.1833 194.724 56.9067 195.891 57.84C195.891 57.4667 195.891 57.1167 195.891 56.79C195.891 56.4633 195.891 56.1367 195.891 55.81C197.804 55.81 199.741 55.81 201.701 55.81C203.661 55.81 205.574 55.81 207.441 55.81C207.441 61.7833 207.441 67.8267 207.441 73.94C207.441 80.0067 207.441 86.0267 207.441 92C205.574 92 203.661 92 201.701 92C199.741 92 197.804 92 195.891 92ZM188.751 82.76C190.991 82.76 192.787 81.9433 194.141 80.31C195.494 78.6767 196.171 76.53 196.171 73.87C196.171 71.21 195.494 69.0867 194.141 67.5C192.787 65.8667 190.991 65.05 188.751 65.05C186.464 65.05 184.644 65.8433 183.291 67.43C181.984 69.0167 181.331 71.1633 181.331 73.87C181.331 76.5767 181.984 78.7467 183.291 80.38C184.644 81.9667 186.464 82.76 188.751 82.76ZM215.499 92C215.499 83.5533 215.499 75.0367 215.499 66.45C215.499 57.8633 215.499 49.3467 215.499 40.9C217.412 40.9 219.349 40.9 221.309 40.9C223.269 40.9 225.182 40.9 227.049 40.9C227.049 49.3467 227.049 57.8633 227.049 66.45C227.049 75.0367 227.049 83.5533 227.049 92C225.182 92 223.269 92 221.309 92C219.349 92 217.412 92 215.499 92ZM281.797 77.65C281.797 81.1967 280.864 84.09 278.997 86.33C277.177 88.5233 274.704 90.11 271.577 91.09C268.497 92.07 265.044 92.49 261.217 92.35C257.39 92.2567 253.494 91.6733 249.527 90.6C249.527 88.5933 249.527 86.5867 249.527 84.58C249.527 82.5733 249.527 80.5667 249.527 78.56C253.167 79.8667 256.48 80.6833 259.467 81.01C262.454 81.3367 264.834 81.22 266.607 80.66C268.38 80.0533 269.267 79.05 269.267 77.65C269.267 76.67 268.777 75.8767 267.797 75.27C266.817 74.6167 265.534 74.0333 263.947 73.52C262.407 73.0067 260.774 72.4233 259.047 71.77C257.32 71.07 255.664 70.2067 254.077 69.18C252.537 68.1067 251.277 66.73 250.297 65.05C249.317 63.3233 248.827 61.1767 248.827 58.61C248.827 55.4367 249.667 52.7533 251.347 50.56C253.027 48.3667 255.29 46.71 258.137 45.59C261.03 44.47 264.297 43.91 267.937 43.91C271.624 43.91 275.427 44.47 279.347 45.59C279.347 47.5967 279.347 49.6033 279.347 51.61C279.347 53.6167 279.347 55.6233 279.347 57.63C276.08 56.23 273.07 55.39 270.317 55.11C267.61 54.7833 265.44 54.9233 263.807 55.53C262.174 56.09 261.357 57.0233 261.357 58.33C261.357 59.2633 261.847 60.0333 262.827 60.64C263.807 61.2467 265.067 61.8067 266.607 62.32C268.194 62.7867 269.85 63.37 271.577 64.07C273.304 64.7233 274.937 65.61 276.477 66.73C278.064 67.8033 279.347 69.2267 280.327 71C281.307 72.7267 281.797 74.9433 281.797 77.65ZM290.569 92C290.569 87.7067 290.569 83.39 290.569 79.05C290.569 74.71 290.569 70.4167 290.569 66.17C289.636 66.17 288.679 66.17 287.699 66.17C286.766 66.17 285.833 66.17 284.899 66.17C284.899 64.4433 284.899 62.7167 284.899 60.99C284.899 59.2633 284.899 57.5367 284.899 55.81C285.833 55.81 286.766 55.81 287.699 55.81C288.679 55.81 289.636 55.81 290.569 55.81C290.569 54.1767 290.569 52.5667 290.569 50.98C290.569 49.3467 290.569 47.7367 290.569 46.15C292.483 46.15 294.419 46.15 296.379 46.15C298.339 46.15 300.253 46.15 302.119 46.15C302.119 47.7367 302.119 49.3467 302.119 50.98C302.119 52.5667 302.119 54.1767 302.119 55.81C303.193 55.81 304.289 55.81 305.409 55.81C306.529 55.81 307.626 55.81 308.699 55.81C308.699 57.5367 308.699 59.2633 308.699 60.99C308.699 62.7167 308.699 64.4433 308.699 66.17C307.626 66.17 306.529 66.17 305.409 66.17C304.289 66.17 303.193 66.17 302.119 66.17C302.119 70.4167 302.119 74.71 302.119 79.05C302.119 83.39 302.119 87.7067 302.119 92C300.253 92 298.339 92 296.379 92C294.419 92 292.483 92 290.569 92ZM338.078 92C338.078 91.6267 338.078 91.2767 338.078 90.95C338.078 90.5767 338.078 90.2267 338.078 89.9C336.911 90.88 335.581 91.6267 334.088 92.14C332.641 92.7 331.078 92.98 329.398 92.98C327.018 92.98 324.778 92.5367 322.678 91.65C320.578 90.7167 318.711 89.41 317.078 87.73C315.491 86.0033 314.231 83.9733 313.298 81.64C312.411 79.3067 311.968 76.7167 311.968 73.87C311.968 70.9767 312.411 68.3633 313.298 66.03C314.231 63.6967 315.491 61.7133 317.078 60.08C318.711 58.4 320.578 57.1167 322.678 56.23C324.778 55.2967 326.995 54.83 329.328 54.83C331.008 54.83 332.595 55.11 334.088 55.67C335.581 56.1833 336.911 56.9067 338.078 57.84C338.078 57.4667 338.078 57.1167 338.078 56.79C338.078 56.4633 338.078 56.1367 338.078 55.81C339.991 55.81 341.928 55.81 343.888 55.81C345.848 55.81 347.761 55.81 349.628 55.81C349.628 61.7833 349.628 67.8267 349.628 73.94C349.628 80.0067 349.628 86.0267 349.628 92C347.761 92 345.848 92 343.888 92C341.928 92 339.991 92 338.078 92ZM330.938 82.76C333.178 82.76 334.975 81.9433 336.328 80.31C337.681 78.6767 338.358 76.53 338.358 73.87C338.358 71.21 337.681 69.0867 336.328 67.5C334.975 65.8667 333.178 65.05 330.938 65.05C328.651 65.05 326.831 65.8433 325.478 67.43C324.171 69.0167 323.518 71.1633 323.518 73.87C323.518 76.5767 324.171 78.7467 325.478 80.38C326.831 81.9667 328.651 82.76 330.938 82.76ZM361.116 92C361.116 87.7067 361.116 83.39 361.116 79.05C361.116 74.71 361.116 70.4167 361.116 66.17C360.183 66.17 359.226 66.17 358.246 66.17C357.313 66.17 356.38 66.17 355.446 66.17C355.446 64.4433 355.446 62.7167 355.446 60.99C355.446 59.2633 355.446 57.5367 355.446 55.81C356.38 55.81 357.313 55.81 358.246 55.81C359.226 55.81 360.183 55.81 361.116 55.81C361.116 54.1767 361.116 52.5667 361.116 50.98C361.116 49.3467 361.116 47.7367 361.116 46.15C363.03 46.15 364.966 46.15 366.926 46.15C368.886 46.15 370.8 46.15 372.666 46.15C372.666 47.7367 372.666 49.3467 372.666 50.98C372.666 52.5667 372.666 54.1767 372.666 55.81C373.74 55.81 374.836 55.81 375.956 55.81C377.076 55.81 378.173 55.81 379.246 55.81C379.246 57.5367 379.246 59.2633 379.246 60.99C379.246 62.7167 379.246 64.4433 379.246 66.17C378.173 66.17 377.076 66.17 375.956 66.17C374.836 66.17 373.74 66.17 372.666 66.17C372.666 70.4167 372.666 74.71 372.666 79.05C372.666 83.39 372.666 87.7067 372.666 92C370.8 92 368.886 92 366.926 92C364.966 92 363.03 92 361.116 92ZM418.627 55.81C418.627 61.7833 418.627 67.8267 418.627 73.94C418.627 80.0067 418.627 86.0267 418.627 92C416.76 92 414.847 92 412.887 92C410.927 92 408.99 92 407.077 92C407.077 91.6733 407.077 91.37 407.077 91.09C407.077 90.81 407.077 90.5067 407.077 90.18C405.817 91.0667 404.393 91.7433 402.807 92.21C401.267 92.7233 399.587 92.98 397.767 92.98C395.107 92.98 392.75 92.3733 390.697 91.16C388.69 89.9467 387.103 88.1967 385.937 85.91C384.817 83.6233 384.257 80.9167 384.257 77.79C384.257 74.15 384.257 70.4867 384.257 66.8C384.257 63.1133 384.257 59.45 384.257 55.81C386.17 55.81 388.107 55.81 390.067 55.81C392.027 55.81 393.94 55.81 395.807 55.81C395.807 59.17 395.807 62.5767 395.807 66.03C395.807 69.4833 395.807 72.89 395.807 76.25C395.807 78.1167 396.227 79.6333 397.067 80.8C397.953 81.92 399.33 82.48 401.197 82.48C403.063 82.48 404.51 81.9433 405.537 80.87C406.563 79.7967 407.077 78.2567 407.077 76.25C407.077 72.89 407.077 69.4833 407.077 66.03C407.077 62.5767 407.077 59.17 407.077 55.81C408.99 55.81 410.927 55.81 412.887 55.81C414.847 55.81 416.76 55.81 418.627 55.81ZM453.961 80.8C453.961 83.6933 453.144 86.0733 451.511 87.94C449.924 89.76 447.778 91.09 445.071 91.93C442.364 92.77 439.331 93.12 435.971 92.98C432.658 92.8867 429.274 92.35 425.821 91.37C425.821 89.5967 425.821 87.7767 425.821 85.91C425.821 84.0433 425.821 82.2233 425.821 80.45C427.781 81.3367 429.741 82.0367 431.701 82.55C433.661 83.0167 435.434 83.2967 437.021 83.39C438.608 83.4833 439.891 83.3667 440.871 83.04C441.851 82.6667 442.341 82.06 442.341 81.22C442.341 80.5667 441.921 80.0533 441.081 79.68C440.288 79.3067 439.238 78.98 437.931 78.7C436.624 78.3733 435.224 78 433.731 77.58C432.284 77.1133 430.908 76.4833 429.601 75.69C428.294 74.85 427.221 73.7533 426.381 72.4C425.588 71 425.191 69.2033 425.191 67.01C425.191 64.3967 425.938 62.18 427.431 60.36C428.971 58.4933 431.024 57.0933 433.591 56.16C436.158 55.18 439.028 54.69 442.201 54.69C445.374 54.69 448.618 55.2267 451.931 56.3C451.931 58.0733 451.931 59.8933 451.931 61.76C451.931 63.6267 451.931 65.4467 451.931 67.22C449.318 65.96 446.868 65.12 444.581 64.7C442.294 64.28 440.451 64.2333 439.051 64.56C437.651 64.84 436.951 65.47 436.951 66.45C436.951 67.1033 437.348 67.6167 438.141 67.99C438.981 68.3167 440.031 68.62 441.291 68.9C442.598 69.18 443.974 69.5533 445.421 70.02C446.914 70.4867 448.291 71.14 449.551 71.98C450.858 72.7733 451.908 73.8933 452.701 75.34C453.541 76.74 453.961 78.56 453.961 80.8Z" fill="#696969"/>
</svg>
