<svg width="565" height="355" viewBox="0 0 565 355" fill="none" xmlns="http://www.w3.org/2000/svg">
<path d="M322.703 343.502V307.086C322.703 224.495 322.703 183.199 338.776 151.653C352.915 123.904 375.475 101.344 403.224 87.2054C434.77 71.1321 476.066 71.1316 558.657 71.1316H564.934L322.703 343.502Z" fill="#036F62"/>
<path d="M564.934 81.5413V117.957C564.934 200.548 564.934 241.844 548.861 273.39C534.722 301.138 512.162 323.699 484.413 337.838C452.867 353.911 411.571 353.911 328.98 353.911H322.703L564.934 81.5413Z" fill="#6CBDAA"/>
<path d="M242.232 343.501V307.086C242.232 224.494 242.231 183.199 226.158 151.653C212.02 123.904 189.459 101.344 161.711 87.2051C130.165 71.1319 88.869 71.1313 6.27744 71.1313H7.62939e-05L242.232 343.501Z" fill="#6CBDAA"/>
<path d="M0 81.541V117.957C0 200.548 0.000507958 241.844 16.0738 273.39C30.2124 301.138 52.7729 323.699 80.5215 337.837C112.067 353.911 153.363 353.911 235.955 353.911H242.232L0 81.541Z" fill="#036F62"/>
<path d="M280.196 354.799V0" stroke="#404040" stroke-width="13.8797"/>
</svg>
