<svg width="689" height="478" viewBox="0 0 689 478" fill="none" xmlns="http://www.w3.org/2000/svg">
<circle cx="477.603" cy="238.801" r="194.434" fill="#4C4C4C"/>
<circle cx="479.559" cy="238.148" r="200.958" stroke="#3C3C3C" stroke-width="16.964"/>
<rect width="477.602" height="477.602" rx="66.5511" fill="#FBF6F2"/>
<circle cx="477.601" cy="238.8" r="100.479" fill="#4C4C4C"/>
<circle cx="477.601" cy="238.801" r="90.0398" fill="#F4E3D5"/>
<circle cx="477.602" cy="238.801" r="30.0133" fill="#E94812"/>
<mask id="mask0_115_277" style="mask-type:alpha" maskUnits="userSpaceOnUse" x="0" y="0" width="478" height="478">
<rect width="477.602" height="477.602" rx="66.5511" transform="matrix(-1 0 0 1 477.603 0)" fill="#2F4ECD"/>
</mask>
<g mask="url(#mask0_115_277)">
<rect width="55.49" height="363.299" transform="matrix(-0.626116 -0.77973 -0.77973 0.626116 249.944 -25.1646)" fill="#F4E3D5"/>
<path d="M34.5886 126.087C32.0469 122.957 29.475 119.79 26.8728 116.586C24.2706 113.381 21.6987 110.214 19.157 107.084C20.2749 106.176 21.3927 105.268 22.5106 104.361C23.6471 103.438 24.7743 102.522 25.8921 101.615C27.3081 100.465 28.7664 99.729 30.2671 99.4069C31.7527 99.0663 33.1776 99.1458 34.5419 99.6456C35.9097 100.112 37.1155 100.987 38.1594 102.273C39.052 103.372 39.6227 104.532 39.8715 105.752C40.1203 106.972 40.0821 108.163 39.757 109.323C41.5159 109.966 43.2899 110.628 45.079 111.308C46.8717 111.955 48.6474 112.6 50.4063 113.243C49.4934 113.984 48.5805 114.726 47.6675 115.467C46.7546 116.208 45.8417 116.95 44.9288 117.691C43.504 117.117 42.0548 116.531 40.5811 115.935C39.1261 115.323 37.6768 114.738 36.2334 114.178C35.9167 114.436 35.5906 114.7 35.2553 114.973C34.9386 115.23 34.6218 115.487 34.3051 115.744C35.1523 116.788 36.0147 117.85 36.8922 118.93C37.7696 120.011 38.632 121.073 39.4792 122.116C38.6781 122.767 37.8676 123.425 37.0479 124.09C36.2281 124.756 35.4083 125.422 34.5886 126.087ZM29.4777 106.03C29.1796 106.272 28.8722 106.522 28.5555 106.779C28.2574 107.021 27.95 107.271 27.6332 107.528C28.193 108.217 28.7528 108.907 29.3125 109.596C29.8723 110.285 30.4321 110.975 30.9919 111.664C31.3458 111.377 31.6998 111.089 32.0538 110.802C32.4078 110.514 32.7618 110.227 33.1158 109.939C33.6747 109.486 33.9723 108.919 34.0086 108.241C34.0298 107.543 33.8058 106.906 33.3368 106.328C32.8527 105.732 32.2562 105.397 31.5472 105.324C30.8569 105.235 30.1671 105.47 29.4777 106.03ZM63.2852 101.672C62.4384 103.256 61.4344 104.628 60.2734 105.787C59.1124 106.946 57.8502 107.848 56.4868 108.491C55.1571 109.138 53.7897 109.491 52.3845 109.55C50.9794 109.609 49.6168 109.339 48.2968 108.742C46.9954 108.129 45.8076 107.161 44.7335 105.839C43.8409 104.739 43.2009 103.59 42.8136 102.389C42.4298 101.155 42.2933 99.9209 42.4043 98.687C42.5001 97.4343 42.8532 96.2511 43.4635 95.1371C44.0587 94.0045 44.8966 92.9995 45.9772 92.122C46.946 91.3353 47.9503 90.7826 48.99 90.464C50.0297 90.1453 51.0728 90.0402 52.1194 90.1488C53.1508 90.2387 54.1612 90.5312 55.1506 91.0262C56.14 91.5213 57.0595 92.1968 57.9091 93.0527C58.7587 93.9086 59.5047 94.9414 60.1469 96.1512C58.6192 97.3917 57.0821 98.6399 55.5358 99.8956C53.9894 101.151 52.4523 102.399 50.9246 103.64C51.8535 104.061 52.8488 104.087 53.9107 103.719C54.9911 103.337 56.0542 102.628 57.0999 101.593C58.1643 100.544 59.1519 99.247 60.0627 97.7036C60.5922 98.3557 61.1293 99.0171 61.6739 99.6878C62.2186 100.358 62.7556 101.02 63.2852 101.672ZM49.2241 96.3489C48.6838 96.7876 48.3017 97.3452 48.078 98.0215C47.873 98.6827 47.8989 99.419 48.156 100.231C48.9944 99.5497 49.8328 98.8689 50.6712 98.1881C51.5282 97.4922 52.3759 96.8038 53.2143 96.123C52.4764 95.6711 51.7703 95.487 51.0963 95.5706C50.4257 95.6205 49.8016 95.8799 49.2241 96.3489ZM76.8915 91.7362C76.7705 91.5871 76.657 91.4474 76.5511 91.317C76.4301 91.1679 76.3166 91.0282 76.2107 90.8978C76.0626 91.6672 75.7737 92.3965 75.344 93.0856C74.9479 93.7782 74.4146 94.3968 73.7439 94.9414C72.7937 95.713 71.7481 96.2529 70.6071 96.561C69.4661 96.8692 68.2973 96.9527 67.1006 96.8115C65.9073 96.6366 64.7462 96.2346 63.6171 95.6056C62.5067 94.9615 61.4976 94.0805 60.5899 92.9627C59.667 91.8262 59.0043 90.6484 58.6019 89.4294C58.2181 88.1953 58.0705 86.9857 58.1594 85.8006C58.2668 84.6004 58.596 83.4828 59.1469 82.4481C59.6828 81.3946 60.4164 80.4897 61.348 79.7332C62.0187 79.1886 62.7429 78.786 63.5207 78.5254C64.2833 78.2463 65.0488 78.1039 65.8171 78.0983C64.9094 76.9804 63.9941 75.8532 63.0712 74.7167C62.1484 73.5802 61.233 72.4531 60.3253 71.3352C61.0892 70.7149 61.8624 70.0871 62.6449 69.4517C63.4274 68.8162 64.1912 68.196 64.9365 67.5908C67.6748 70.963 70.4359 74.3632 73.2196 77.7913C76.0033 81.2194 78.7644 84.6195 81.5027 87.9918C80.7575 88.5969 79.9936 89.2172 79.2111 89.8526C78.4286 90.488 77.6554 91.1159 76.8915 91.7362ZM71.0454 90.362C71.9397 89.6358 72.3923 88.7273 72.4031 87.6364C72.4138 86.5456 71.9881 85.4692 71.1257 84.4072C70.2634 83.3453 69.3048 82.7169 68.2502 82.5222C67.1803 82.3089 66.1983 82.5653 65.304 83.2915C64.3911 84.0328 63.9217 84.9396 63.8957 86.0118C63.8885 87.0688 64.3236 88.1377 65.201 89.2183C66.0785 90.2989 67.0429 90.9534 68.094 91.1819C69.1487 91.3766 70.1325 91.1033 71.0454 90.362ZM90.8637 80.3903C88.322 77.2603 85.7501 74.0931 83.1479 70.8885C80.5457 67.684 77.9738 64.5167 75.4322 61.3867C76.55 60.479 77.6679 59.5712 78.7857 58.6635C79.9222 57.7406 81.0494 56.8253 82.1673 55.9176C83.5832 54.7678 85.0416 54.0319 86.5423 53.7098C88.0278 53.3691 89.4528 53.4487 90.817 53.9485C92.1848 54.4146 93.3906 55.2904 94.4345 56.5759C95.3271 57.6751 95.8978 58.8348 96.1466 60.0549C96.3954 61.275 96.3572 62.4654 96.0321 63.626C97.791 64.2691 99.565 64.9309 101.354 65.6112C103.147 66.2579 104.923 66.9027 106.681 67.5459C105.768 68.2872 104.856 69.0285 103.943 69.7698C103.03 70.5111 102.117 71.2524 101.204 71.9938C99.7791 71.4194 98.3299 70.834 96.8562 70.2376C95.4012 69.626 93.952 69.0405 92.5085 68.4813C92.1918 68.7385 91.8658 69.0033 91.5304 69.2756C91.2137 69.5328 90.897 69.79 90.5802 70.0472C91.4274 71.0905 92.2898 72.1525 93.1673 73.2331C94.0448 74.3137 94.9071 75.3757 95.7543 76.419C94.9532 77.0695 94.1427 77.7276 93.323 78.3933C92.5032 79.059 91.6835 79.7247 90.8637 80.3903ZM85.7528 60.3331C85.4547 60.5752 85.1473 60.8248 84.8306 61.082C84.5325 61.3241 84.2251 61.5737 83.9084 61.8309C84.4681 62.5203 85.0279 63.2096 85.5877 63.8989C86.1474 64.5883 86.7072 65.2776 87.267 65.967C87.621 65.6795 87.975 65.3921 88.329 65.1046C88.6829 64.8172 89.0369 64.5297 89.3909 64.2423C89.9499 63.7884 90.2475 63.2221 90.2837 62.5434C90.3049 61.8461 90.081 61.2087 89.612 60.6311C89.1278 60.0349 88.5313 59.7 87.8223 59.6265C87.132 59.5378 86.4422 59.7734 85.7528 60.3331ZM114.879 61.6314C113.798 62.5089 112.641 63.1395 111.407 63.5234C110.157 63.8885 108.908 64.0064 107.659 63.8768C106.395 63.7286 105.189 63.3476 104.041 62.7337C102.912 62.1047 101.901 61.2406 101.009 60.1414C100.116 59.0422 99.4778 57.8755 99.094 56.6414C98.7288 55.3921 98.611 54.1429 98.7405 52.8938C98.8701 51.6447 99.2494 50.4556 99.8784 49.3265C100.492 48.1788 101.339 47.1662 102.42 46.2888C103.519 45.3961 104.684 44.7748 105.915 44.4247C107.149 44.0409 108.391 43.9138 109.64 44.0434C110.889 44.1729 112.078 44.5522 113.207 45.1812C114.355 45.795 115.375 46.6516 116.267 47.7508C117.16 48.85 117.789 50.0243 118.154 51.2735C118.538 52.5077 118.673 53.7586 118.558 55.0263C118.429 56.2755 118.057 57.4739 117.443 58.6216C116.833 59.7355 115.978 60.7388 114.879 61.6314ZM111.497 57.4674C112.41 56.726 112.872 55.81 112.883 54.7191C112.897 53.5946 112.488 52.5199 111.656 51.4952C110.809 50.4519 109.849 49.8404 108.775 49.6608C107.706 49.4475 106.714 49.7115 105.801 50.4528C104.888 51.1941 104.417 52.1177 104.388 53.2237C104.362 54.2959 104.773 55.3537 105.62 56.397C106.452 57.4217 107.41 58.05 108.495 58.282C109.584 58.4802 110.584 58.2087 111.497 57.4674ZM131.834 39.7016C132.772 40.8567 133.217 42.0717 133.17 43.3464C133.127 44.5874 132.701 45.8143 131.893 47.0272C131.084 48.24 129.987 49.3631 128.6 50.3965C127.247 51.4334 125.722 52.316 124.026 53.0443C123.451 52.3363 122.861 51.6097 122.256 50.8644C121.651 50.1192 121.061 49.3926 120.486 48.6846C121.556 48.4032 122.565 48.0472 123.514 47.6168C124.448 47.1677 125.247 46.7045 125.91 46.2274C126.574 45.7503 127.048 45.2877 127.334 44.8396C127.604 44.3728 127.603 43.9717 127.331 43.6364C127.119 43.3755 126.785 43.3068 126.328 43.43C125.891 43.5382 125.366 43.7482 124.753 44.06C124.126 44.3532 123.446 44.658 122.713 44.9745C121.984 45.2571 121.23 45.4519 120.452 45.5588C119.658 45.6471 118.874 45.5572 118.099 45.2892C117.329 44.9875 116.588 44.3988 115.877 43.5231C115.03 42.4798 114.609 41.3528 114.615 40.142C114.625 38.8975 114.991 37.6729 115.713 36.4682C116.42 35.2449 117.407 34.1188 118.674 33.09C119.941 32.0613 121.41 31.2241 123.08 30.5784C123.655 31.2864 124.245 32.013 124.851 32.7582C125.456 33.5035 126.046 34.2301 126.621 34.9381C125.169 35.2823 123.918 35.7412 122.869 36.3148C121.82 36.8885 121.069 37.4674 120.616 38.0517C120.148 38.6174 120.073 39.0958 120.39 39.4871C120.602 39.7479 120.927 39.8242 121.365 39.7161C121.806 39.5742 122.324 39.3549 122.917 39.0582C123.53 38.7464 124.201 38.4491 124.929 38.1664C125.677 37.8686 126.438 37.6831 127.214 37.61C127.992 37.5031 128.775 37.6099 129.561 37.9302C130.35 38.2169 131.107 38.8073 131.834 39.7016ZM149.581 31.5971C148.734 33.1813 147.73 34.553 146.569 35.7122C145.408 36.8714 144.146 37.7727 142.783 38.4161C141.453 39.063 140.086 39.4159 138.68 39.4749C137.275 39.5339 135.913 39.2646 134.593 38.667C133.291 38.0543 132.103 37.0865 131.029 35.7637C130.137 34.6645 129.497 33.5147 129.109 32.3143C128.726 31.0802 128.589 29.8461 128.7 28.6121C128.796 27.3595 129.149 26.1762 129.759 25.0623C130.355 23.9297 131.192 22.9247 132.273 22.0472C133.242 21.2605 134.246 20.7078 135.286 20.3891C136.325 20.0704 137.369 19.9654 138.415 20.0739C139.447 20.1639 140.457 20.4563 141.446 20.9514C142.436 21.4464 143.355 22.1219 144.205 22.9778C145.055 23.8337 145.8 24.8666 146.443 26.0763C144.915 27.3169 143.378 28.565 141.832 29.8207C140.285 31.0764 138.748 32.3246 137.22 33.5652C138.149 33.9857 139.145 34.0122 140.206 33.6446C141.287 33.2619 142.35 32.5532 143.396 31.5185C144.46 30.4688 145.448 29.1722 146.358 27.6287C146.888 28.2808 147.425 28.9422 147.97 29.6129C148.514 30.2836 149.051 30.945 149.581 31.5971ZM135.52 26.2741C134.98 26.7128 134.598 27.2703 134.374 27.9466C134.169 28.6078 134.195 29.3442 134.452 30.1557C135.29 29.4749 136.129 28.7941 136.967 28.1133C137.824 27.4173 138.672 26.729 139.51 26.0482C138.772 25.5963 138.066 25.4121 137.392 25.4958C136.721 25.5456 136.097 25.8051 135.52 26.2741Z" fill="#FBF6F2"/>
</g>
<path d="M233.051 425.613V408.208C233.051 368.731 233.051 348.993 240.734 333.914C247.492 320.651 258.275 309.868 271.538 303.11C286.616 295.427 306.354 295.427 345.831 295.427H348.831L233.051 425.613Z" fill="#6CBDAA"/>
<path d="M348.832 300.403V317.808C348.832 357.285 348.832 377.023 341.149 392.102C334.391 405.365 323.608 416.148 310.345 422.906C295.267 430.589 275.529 430.589 236.052 430.589H233.052L348.832 300.403Z" fill="#036F62"/>
<path d="M226.999 478V108.283C226.999 55.3315 288.999 53.8184 288.999 108.283V145.349" stroke="#036F62" stroke-width="3.28782"/>
<path d="M232.999 478V104.528C232.999 67.3135 279.968 60.4783 282.999 104.527V144.021" stroke="#6CBDAA" stroke-width="3.28782"/>
<path d="M202.999 216.374L222.67 205.648V227.1L202.999 216.374Z" fill="#036F62"/>
<path d="M202.999 299.37L222.67 288.644V310.096L202.999 299.37Z" fill="#036F62"/>
<path d="M202.999 377.374L222.67 366.648V388.1L202.999 377.374Z" fill="#036F62"/>
<path d="M202.999 143.386L222.67 132.66V154.112L202.999 143.386Z" fill="#036F62"/>
<path d="M202.999 440.79L222.67 430.064V451.516L202.999 440.79Z" fill="#036F62"/>
<path d="M258.282 258.653L238.611 247.927V269.379L258.282 258.653Z" fill="#6CBDAA"/>
<path d="M257.282 458.276L237.611 447.55V469.002L257.282 458.276Z" fill="#6CBDAA"/>
<path d="M257.822 254.07C257.822 255.758 259.175 257.118 260.857 256.971C281.002 255.206 323.002 236.852 329.781 198.923C329.812 198.75 329.827 198.575 329.827 198.4C329.827 173.227 329.827 136.837 329.827 119.559C329.827 118.111 328.813 116.866 327.38 116.653C302.638 112.969 267.308 128.768 257.939 161.072C257.861 161.341 257.822 161.62 257.822 161.9C257.822 192.376 257.823 232.235 257.822 254.07Z" fill="#E94812"/>
<path d="M269.995 260.437C269.995 261.536 270.873 262.428 271.972 262.406C286.419 262.117 316.998 258.233 321.87 225.42C321.884 225.325 321.891 225.227 321.891 225.131C321.891 203.185 321.891 171.274 321.891 156.635C321.891 155.721 321.271 154.923 320.372 154.755C302.502 151.412 276.786 165.049 270.049 193.055C270.013 193.205 269.995 193.362 269.995 193.516C269.995 219.955 269.995 242.632 269.995 260.437Z" fill="#D13B09"/>
<path d="M295.942 145.506C295.942 144.407 296.822 143.522 297.916 143.618C312.216 144.875 342.44 159.077 347.273 188.567C347.29 188.671 347.299 188.777 347.299 188.882C347.299 208.511 347.299 236.989 347.299 250.222C347.299 251.153 346.656 251.954 345.741 252.122C328.07 255.37 302.687 247.971 296.008 222.889C295.965 222.726 295.942 222.558 295.942 222.389C295.942 198.595 295.943 162.685 295.942 145.506Z" fill="#E94812"/>
<path d="M251.522 198.624C251.522 199.723 252.401 200.609 253.497 200.526C267.647 199.457 297.502 187.5 302.313 162.689C302.337 162.568 302.349 162.445 302.349 162.322C302.349 145.925 302.349 122.238 302.349 110.969C302.349 110.014 301.672 109.198 300.727 109.065C283.262 106.609 258.245 116.899 251.61 137.985C251.551 138.173 251.521 138.368 251.521 138.565C251.522 158.429 251.522 184.397 251.522 198.624Z" fill="#E94812"/>
<path d="M367.999 246.085C367.999 247.773 366.644 249.127 364.97 248.908C344.828 246.266 302.818 219.223 296.04 181.25C296.009 181.077 295.994 180.901 295.994 180.726C295.994 155.649 295.994 128.021 295.994 111.574C295.994 110.126 297.009 108.879 298.435 108.629C323.176 104.279 358.51 109.818 367.881 142.034C367.959 142.303 367.999 142.582 367.999 142.862C367.999 173.463 367.999 223.364 367.999 246.085Z" fill="#D13B09"/>
<path d="M348.531 244.9C332.615 237.781 299.257 214.013 295.193 178.088C295.193 140.301 295.701 114.562 295.701 107.442" stroke="#FBF6F2" stroke-width="2.73985"/>
<path d="M317.544 250.377C302.813 240.519 296.717 233.948 294.685 220.804C294.685 183.017 294.685 187.946 294.685 180.827" stroke="#FBF6F2" stroke-width="2.73985"/>
<path d="M252.015 201.637C261.159 201.637 280.97 196.708 295.193 180.279" stroke="#FBF6F2" stroke-width="2.73985"/>
<path d="M268.778 197.803V261.33" stroke="#FBF6F2" stroke-width="2.73985"/>
<rect x="153.999" y="321" width="3" height="157" fill="#6CBDAA"/>
<rect x="148.999" y="321" width="3" height="157" fill="#036F62"/>
<path d="M192.999 211.782C192.999 210.242 191.757 208.996 190.223 209.132C173.884 210.589 140.513 224.113 135.049 251.858C135.016 252.029 134.999 252.203 134.999 252.377C134.999 270.714 134.999 297.073 134.999 309.987C134.999 311.327 135.947 312.483 137.275 312.653C157.161 315.207 185.317 303.587 192.873 279.947C192.957 279.682 192.999 279.406 192.999 279.128C192.999 256.909 192.999 227.973 192.999 211.782Z" fill="#E94812"/>
<path d="M146.458 438.913V426.968C146.458 399.875 146.458 386.329 141.185 375.981C136.547 366.879 129.147 359.478 120.045 354.84C109.697 349.568 96.1503 349.567 69.0577 349.567H66.9986L146.458 438.913Z" fill="#6CBDAA"/>
<path d="M66.9985 352.982V364.927C66.9985 392.02 66.9987 405.566 72.2712 415.914C76.9091 425.017 84.3097 432.417 93.412 437.055C103.76 442.327 117.306 442.328 144.399 442.328H146.458L66.9985 352.982Z" fill="#036F62"/>
<path d="M182.999 206.813C182.999 205.81 182.195 204.998 181.192 205.019C169.687 205.269 145.86 208.271 142.022 232.335C142.007 232.428 142 232.523 142 232.616C142 248.705 142 272.012 142 282.956C142 283.801 142.58 284.532 143.414 284.669C157.51 287.002 177.627 276.933 182.943 256.358C182.981 256.213 183 256.061 183 255.911C182.999 236.549 182.999 219.917 182.999 206.813Z" fill="#D13B09"/>
<path d="M161.999 291.195C161.999 292.198 161.194 293.003 160.195 292.912C148.696 291.861 124.881 281.345 121.027 259.664C121.009 259.562 121 259.458 121 259.355C121 244.956 121 224.156 121 214.236C121 213.376 121.601 212.639 122.449 212.499C136.532 210.182 156.599 215.688 161.93 234.136C161.976 234.295 162 234.46 162 234.625C161.999 252.102 161.999 278.352 161.999 291.195Z" fill="#E94812"/>
<path d="M197.999 252.812C197.999 251.809 197.194 250.997 196.194 251.074C184.705 251.958 160.925 260.795 157.037 279.01C157.012 279.131 156.999 279.252 156.999 279.375C156.999 291.356 156.999 308.568 156.999 317.015C156.999 317.896 157.63 318.654 158.505 318.761C172.563 320.48 192.541 312.889 197.904 297.405C197.968 297.221 197.999 297.028 197.999 296.833C197.999 282.304 197.999 263.392 197.999 252.812Z" fill="#E94812"/>
<path d="M105 217.777C105 216.237 106.246 214.996 107.771 215.206C123.845 217.424 156.592 237.33 161.952 265.202C161.984 265.37 162 265.541 162 265.712C162 284.032 162 304.181 162 316.398C162 317.733 161.058 318.885 159.74 319.095C140.197 322.213 112.542 318.04 105.122 294.396C105.04 294.136 105 293.866 105 293.593C105 271.159 105 234.814 105 217.777Z" fill="#D13B09"/>
<path d="M132.999 339.5L146.499 332.139V346.861L132.999 339.5Z" fill="#036F62"/>
<path d="M132.999 454.5L146.499 447.139V461.861L132.999 454.5Z" fill="#036F62"/>
<path d="M172.999 329.5L159.499 322.139V336.861L172.999 329.5Z" fill="#6CBDAA"/>
<path d="M172.999 427.5L159.499 420.139V434.861L172.999 427.5Z" fill="#6CBDAA"/>
<path d="M172.999 466.5L159.499 459.139V473.861L172.999 466.5Z" fill="#6CBDAA"/>
<path d="M120 218C132.831 223.283 159.723 240.92 163 267.578C163 295.618 162.59 314.717 162.59 320" stroke="#FBF6F2" stroke-width="2.5"/>
<path d="M145 214C156.6 221.229 161.4 226.048 163 235.685C163 263.394 163 259.78 163 265" stroke="#FBF6F2" stroke-width="2.5"/>
<path d="M197 250C189.8 250 174.2 253.692 163 266" stroke="#FBF6F2" stroke-width="2.5"/>
<path d="M184 253V206" stroke="#FBF6F2" stroke-width="2.5"/>
</svg>
