<svg width="689" height="482" viewBox="0 0 689 482" fill="none" xmlns="http://www.w3.org/2000/svg">
<circle cx="477.603" cy="241.093" r="194.434" fill="#4C4C4C"/>
<circle cx="479.559" cy="240.44" r="200.958" stroke="#3C3C3C" stroke-width="16.964"/>
<rect y="2.29199" width="477.602" height="477.602" rx="66.5511" fill="#E94812"/>
<circle cx="477.163" cy="242.493" r="100.479" fill="#4C4C4C"/>
<circle cx="477.602" cy="241.093" r="90.0398" fill="#FE9973"/>
<circle cx="477.602" cy="241.093" r="30.0133" fill="#FFB1B1"/>
<mask id="mask0_69_493" style="mask-type:alpha" maskUnits="userSpaceOnUse" x="0" y="2" width="478" height="478">
<rect width="477.602" height="477.602" rx="66.5511" transform="matrix(-1 0 0 1 477.603 2.29199)" fill="#2F4ECD"/>
</mask>
<g mask="url(#mask0_69_493)">
<rect width="55.49" height="363.299" transform="matrix(-0.626116 -0.77973 -0.77973 0.626116 249.945 -22.8726)" fill="#FE9973"/>
<path d="M19.9885 146.799C17.4468 143.669 14.8749 140.502 12.2727 137.298C9.67052 134.093 7.09859 130.926 4.55693 127.796C5.71205 126.858 6.87649 125.912 8.05025 124.959C9.224 124.006 10.3884 123.06 11.5436 122.122C13.627 123.584 15.7238 125.081 17.8341 126.614C19.9478 128.113 22.037 129.6 24.1019 131.077C23.0804 128.753 22.0438 126.411 20.992 124.049C19.9438 121.654 18.9089 119.295 17.8874 116.971C19.0425 116.033 20.1977 115.095 21.3528 114.157C22.5079 113.219 23.6537 112.289 24.7902 111.366C27.3505 114.481 29.9411 117.633 32.5619 120.822C35.1827 124.012 37.7732 127.164 40.3335 130.279C39.551 130.914 38.7592 131.557 37.9581 132.208C37.1756 132.843 36.3931 133.478 35.6106 134.114C33.8859 131.99 32.146 129.847 30.3911 127.686C28.621 125.506 26.8736 123.354 25.1489 121.23C26.3147 123.808 27.4938 126.422 28.6863 129.07C29.8637 131.701 31.0353 134.305 32.2011 136.882C31.5117 137.442 30.8038 138.017 30.0772 138.607C29.3692 139.182 28.6612 139.757 27.9532 140.332C25.6999 138.699 23.4313 137.048 21.1477 135.377C18.849 133.689 16.5729 132.028 14.3195 130.395C16.014 132.482 17.7311 134.596 19.4709 136.739C21.1956 138.863 22.9052 140.968 24.5996 143.055C23.8544 143.66 23.0905 144.28 22.308 144.916C21.5255 145.551 20.7523 146.179 19.9885 146.799ZM53.3398 119.717C53.2188 119.568 53.1053 119.428 52.9994 119.298C52.8784 119.149 52.7649 119.009 52.659 118.879C52.5109 119.648 52.222 120.377 51.7922 121.066C51.3962 121.759 50.8629 122.378 50.1921 122.922C49.242 123.694 48.2039 124.243 47.0781 124.57C45.9371 124.878 44.7683 124.962 43.5715 124.82C42.3783 124.645 41.2172 124.243 40.0881 123.614C38.9777 122.97 37.961 122.08 37.0381 120.944C36.1002 119.788 35.4299 118.601 35.0275 117.382C34.6436 116.148 34.5037 114.948 34.6076 113.781C34.7151 112.581 35.0443 111.464 35.5952 110.429C36.131 109.376 36.8647 108.471 37.7963 107.714C38.467 107.17 39.1912 106.767 39.969 106.506C40.7316 106.227 41.4971 106.085 42.2654 106.079C42.1444 105.93 42.0309 105.79 41.925 105.66C41.8191 105.53 41.7132 105.399 41.6073 105.269C42.3712 104.648 43.1444 104.021 43.9269 103.385C44.7094 102.75 45.4732 102.129 46.2185 101.524C48.155 103.909 50.1142 106.322 52.0961 108.762C54.0628 111.184 56.0145 113.588 57.951 115.973C57.2057 116.578 56.4419 117.198 55.6594 117.834C54.8769 118.469 54.1037 119.097 53.3398 119.717ZM47.4937 118.343C48.388 117.617 48.8405 116.708 48.8513 115.617C48.8621 114.527 48.4363 113.45 47.574 112.388C46.7116 111.326 45.7531 110.698 44.6984 110.503C43.6286 110.29 42.6466 110.546 41.7523 111.272C40.8394 112.014 40.3699 112.92 40.344 113.993C40.3367 115.05 40.7718 116.119 41.6493 117.199C42.5268 118.28 43.4911 118.934 44.5423 119.163C45.597 119.357 46.5808 119.084 47.4937 118.343ZM61.0284 113.474C59.0919 111.089 57.1402 108.686 55.1735 106.264C53.1916 103.823 51.2324 101.41 49.2959 99.0254C50.0597 98.4051 50.8329 97.7772 51.6154 97.1418C52.3979 96.5064 53.1618 95.8861 53.907 95.281C54.0129 95.4114 54.1188 95.5418 54.2247 95.6722C54.3307 95.8026 54.4366 95.933 54.5425 96.0635C54.7872 95.1846 55.1896 94.3476 55.7498 93.5527C56.31 92.7577 57.0565 92.0588 57.9891 91.4561C58.5943 92.2013 59.207 92.9559 59.8273 93.7197C60.4476 94.4836 61.0603 95.2382 61.6655 95.9834C60.0272 96.9736 59.0432 97.9891 58.7134 99.0298C58.3685 100.052 58.6121 101.075 59.4442 102.1C60.4579 103.348 61.4866 104.615 62.5305 105.901C63.5744 107.186 64.6108 108.462 65.6395 109.729C64.8943 110.334 64.1304 110.955 63.3479 111.59C62.5654 112.226 61.7922 112.853 61.0284 113.474ZM83.5934 91.2547C84.8794 92.8384 85.6089 94.4411 85.7819 96.0628C85.9735 97.6694 85.6943 99.2101 84.9441 100.685C84.2091 102.178 83.0946 103.547 81.6006 104.791C80.1253 106.02 78.3694 107.075 76.333 107.956C75.743 107.229 75.1454 106.493 74.5402 105.748C73.9502 105.021 73.3602 104.295 72.7702 103.568C74.711 102.95 76.2776 102.157 77.47 101.189C78.6775 100.24 79.4368 99.252 79.748 98.2265C80.0626 97.1672 79.8795 96.2183 79.1987 95.3799C79.1231 95.2867 79.055 95.2029 78.9945 95.1284C78.9188 95.0352 78.8507 94.9514 78.7902 94.8769C78.6119 95.6091 78.2985 96.3273 77.8501 97.0315C77.4017 97.7357 76.8235 98.3752 76.1155 98.9501C74.9418 99.9033 73.6698 100.488 72.2995 100.704C70.9327 100.886 69.5951 100.705 68.2867 100.16C66.9632 99.596 65.772 98.662 64.7129 97.3578C63.896 96.3517 63.3148 95.2933 62.9693 94.1826C62.6239 93.0719 62.4996 91.9671 62.5966 90.8681C62.6935 89.7692 62.9953 88.7512 63.502 87.8142C63.9935 86.8585 64.6585 86.0403 65.4969 85.3595C66.1676 84.8149 66.8674 84.4012 67.5963 84.1185C68.3251 83.8358 69.0417 83.6713 69.746 83.6249C69.6401 83.4945 69.5418 83.3734 69.451 83.2616C69.3603 83.1498 69.2619 83.0287 69.156 82.8983C69.9199 82.278 70.6931 81.6502 71.4756 81.0148C72.2581 80.3793 73.022 79.7591 73.7672 79.1539C75.386 81.1474 77.0275 83.1689 78.6917 85.2183C80.3407 87.2491 81.9747 89.2612 83.5934 91.2547ZM74.0162 94.0233C74.7987 93.3879 75.2262 92.6389 75.2986 91.7763C75.3745 90.8799 75.0948 90.0404 74.4593 89.2579C73.8088 88.4568 73.0371 88.0014 72.1442 87.8917C71.2699 87.7669 70.4416 88.0222 69.6591 88.6576C68.8393 89.3233 68.3914 90.1043 68.3155 91.0007C68.2245 91.8785 68.5118 92.7272 69.1775 93.547C69.828 94.3481 70.5921 94.7942 71.4699 94.8853C72.3477 94.9763 73.1964 94.689 74.0162 94.0233ZM90.3312 65.7034C92.2677 68.0882 94.2269 70.5009 96.2088 72.9416C98.1755 75.3636 100.127 77.767 102.064 80.1518C101.318 80.7569 100.555 81.3772 99.7721 82.0126C98.9896 82.6481 98.2164 83.2759 97.4525 83.8962C97.3466 83.7658 97.2483 83.6447 97.1575 83.5329C97.0667 83.4211 96.9684 83.3 96.8625 83.1696C96.6469 83.9321 96.298 84.6636 95.8159 85.3643C95.3674 86.0685 94.7799 86.7156 94.0533 87.3057C92.9914 88.168 91.8538 88.6898 90.6407 88.8711C89.4462 89.0372 88.2454 88.853 87.0383 88.3183C85.8499 87.7684 84.7488 86.8694 83.7352 85.6211C82.5551 84.1679 81.3675 82.7054 80.1723 81.2335C78.9771 79.7617 77.7895 78.2991 76.6094 76.8459C77.3733 76.2256 78.1465 75.5978 78.929 74.9624C79.7115 74.3269 80.4754 73.7066 81.2206 73.1015C82.3099 74.4429 83.4143 75.803 84.5339 77.1817C85.6534 78.5604 86.7578 79.9204 87.8471 81.2619C88.4523 82.0071 89.1116 82.4765 89.8252 82.6699C90.5423 82.8296 91.2735 82.6069 92.0187 82.0017C92.7639 81.3966 93.1675 80.7133 93.2294 79.952C93.2913 79.1906 92.997 78.4094 92.3465 77.6082C91.2572 76.2668 90.1528 74.9067 89.0332 73.528C87.9137 72.1493 86.8093 70.7893 85.72 69.4478C86.4839 68.8276 87.2571 68.1997 88.0396 67.5643C88.8221 66.9289 89.5859 66.3086 90.3312 65.7034ZM117.023 66.8914C116.176 68.4755 115.172 69.8472 114.011 71.0064C112.85 72.1656 111.588 73.0669 110.225 73.7103C108.895 74.3572 107.528 74.7101 106.122 74.7691C104.717 74.8281 103.355 74.5588 102.035 73.9612C100.733 73.3485 99.5455 72.3807 98.4714 71.0579C97.5788 69.9587 96.9388 68.8089 96.5515 67.6085C96.1676 66.3744 96.0312 65.1403 96.1421 63.9063C96.238 62.6537 96.591 61.4704 97.2014 60.3565C97.7966 59.2239 98.6345 58.2189 99.7151 57.3414C100.684 56.5547 101.688 56.002 102.728 55.6833C103.768 55.3646 104.811 55.2596 105.857 55.3681C106.889 55.4581 107.899 55.7506 108.888 56.2456C109.878 56.7407 110.797 57.4161 111.647 58.2721C112.497 59.128 113.243 60.1608 113.885 61.3705C112.357 62.6111 110.82 63.8593 109.274 65.115C107.727 66.3707 106.19 67.6188 104.662 68.8594C105.591 69.2799 106.587 69.3064 107.649 68.9388C108.729 68.5561 109.792 67.8474 110.838 66.8128C111.902 65.763 112.89 64.4664 113.801 62.9229C114.33 63.575 114.867 64.2364 115.412 64.9071C115.956 65.5779 116.494 66.2393 117.023 66.8914ZM102.962 61.5683C102.422 62.007 102.04 62.5645 101.816 63.2409C101.611 63.9021 101.637 64.6384 101.894 65.4499C102.732 64.7691 103.571 64.0883 104.409 63.4075C105.266 62.7116 106.114 62.0232 106.952 61.3424C106.214 60.8905 105.508 60.7063 104.834 60.79C104.164 60.8398 103.539 61.0993 102.962 61.5683ZM120.988 64.7848C119.051 62.4 117.1 59.9966 115.133 57.5746C113.151 55.1339 111.192 52.7212 109.255 50.3364C110.019 49.7161 110.792 49.0883 111.575 48.4529C112.357 47.8175 113.121 47.1972 113.867 46.592C113.972 46.7224 114.078 46.8528 114.184 46.9833C114.29 47.1137 114.396 47.2441 114.502 47.3745C114.747 46.4956 115.149 45.6587 115.709 44.8637C116.27 44.0688 117.016 43.3699 117.949 42.7671C118.554 43.5124 119.166 44.2669 119.787 45.0308C120.407 45.7947 121.02 46.5492 121.625 47.2945C119.987 48.2847 119.003 49.3002 118.673 50.3408C118.328 51.3629 118.572 52.3863 119.404 53.411C120.417 54.6592 121.446 55.9261 122.49 57.2117C123.534 58.4972 124.57 59.7735 125.599 61.0404C124.854 61.6455 124.09 62.2658 123.307 62.9012C122.525 63.5366 121.752 64.1645 120.988 64.7848ZM121.402 37.7373C120.861 38.176 120.262 38.4465 119.603 38.5488C118.962 38.6359 118.338 38.5711 117.729 38.3544C117.12 38.1377 116.604 37.7685 116.18 37.2469C115.757 36.7252 115.509 36.1535 115.437 35.5318C115.35 34.8915 115.415 34.267 115.631 33.6582C115.867 33.0342 116.254 32.5029 116.795 32.0641C117.316 31.6405 117.897 31.3852 118.538 31.298C119.197 31.1958 119.831 31.253 120.439 31.4697C121.033 31.6678 121.542 32.0277 121.965 32.5493C122.389 33.071 122.644 33.652 122.731 34.2923C122.819 34.9326 122.744 35.5647 122.509 36.1887C122.292 36.7975 121.923 37.3137 121.402 37.7373ZM132.153 55.718C130.217 53.3333 128.265 50.9299 126.298 48.5078C124.317 46.0672 122.357 43.6545 120.421 41.2697C121.185 40.6494 121.958 40.0216 122.74 39.3861C123.523 38.7507 124.287 38.1304 125.032 37.5253C126.969 39.91 128.928 42.3228 130.91 44.7634C132.876 47.1855 134.828 49.5889 136.765 51.9736C136.019 52.5788 135.255 53.1991 134.473 53.8345C133.69 54.4699 132.917 55.0978 132.153 55.718ZM141.492 48.1349C140.1 46.4208 138.701 44.6975 137.294 42.9648C135.887 41.2321 134.495 39.518 133.118 37.8226C132.745 38.1252 132.363 38.4353 131.972 38.7531C131.6 39.0556 131.227 39.3582 130.854 39.6608C130.295 38.9714 129.735 38.2821 129.175 37.5928C128.615 36.9034 128.055 36.2141 127.496 35.5247C127.868 35.2221 128.241 34.9195 128.614 34.617C129.005 34.2993 129.387 33.9891 129.759 33.6865C129.23 33.0345 128.708 32.3917 128.194 31.7582C127.664 31.1061 127.142 30.4634 126.628 29.8299C127.392 29.2096 128.165 28.5818 128.947 27.9464C129.73 27.3109 130.494 26.6907 131.239 26.0855C131.753 26.719 132.275 27.3617 132.805 28.0138C133.319 28.6473 133.841 29.29 134.371 29.9421C134.799 29.5942 135.237 29.2386 135.684 28.8755C136.131 28.5124 136.569 28.1569 136.998 27.8089C137.557 28.4983 138.117 29.1876 138.677 29.877C139.237 30.5663 139.796 31.2557 140.356 31.945C139.928 32.293 139.49 32.6485 139.043 33.0116C138.596 33.3747 138.158 33.7302 137.729 34.0782C139.106 35.7736 140.498 37.4877 141.905 39.2204C143.312 40.9531 144.711 42.6764 146.103 44.3905C145.358 44.9956 144.594 45.6159 143.811 46.2513C143.029 46.8868 142.256 47.5146 141.492 48.1349ZM162.709 29.7929C161.862 31.3771 160.858 32.7488 159.697 33.908C158.536 35.0672 157.274 35.9685 155.911 36.6119C154.581 37.2588 153.214 37.6117 151.808 37.6707C150.403 37.7297 149.041 37.4603 147.721 36.8628C146.419 36.25 145.232 35.2823 144.157 33.9595C143.265 32.8602 142.625 31.7104 142.237 30.5101C141.854 29.2759 141.717 28.0419 141.828 26.8079C141.924 25.5553 142.277 24.372 142.887 23.258C143.483 22.1255 144.321 21.1204 145.401 20.243C146.37 19.4563 147.374 18.9036 148.414 18.5849C149.454 18.2662 150.497 18.1611 151.543 18.2697C152.575 18.3596 153.585 18.6521 154.575 19.1472C155.564 19.6422 156.483 20.3177 157.333 21.1736C158.183 22.0295 158.929 23.0623 159.571 24.2721C158.043 25.5127 156.506 26.7608 154.96 28.0165C153.413 29.2722 151.876 30.5204 150.348 31.7609C151.277 32.1815 152.273 32.2079 153.335 31.8404C154.415 31.4577 155.478 30.749 156.524 29.7143C157.588 28.6645 158.576 27.3679 159.487 25.8245C160.016 26.4766 160.553 27.138 161.098 27.8087C161.642 28.4794 162.18 29.1408 162.709 29.7929ZM148.648 24.4698C148.108 24.9086 147.726 25.4661 147.502 26.1424C147.297 26.8036 147.323 27.54 147.58 28.3515C148.418 27.6707 149.257 26.9899 150.095 26.309C150.952 25.6131 151.8 24.9247 152.638 24.2439C151.9 23.792 151.194 23.6079 150.52 23.6915C149.85 23.7414 149.226 24.0008 148.648 24.4698Z" fill="#E94812"/>
</g>
<path d="M143.152 246.283H147.152V479.894H143.152V246.283Z" fill="#036F62"/>
<path d="M149.151 246.281H153.151V479.893H149.151V246.281Z" fill="#6CBDAA"/>
<path d="M156.28 384.345V371.61C156.28 342.728 156.28 328.287 161.901 317.255C166.846 307.552 174.735 299.662 184.439 294.718C195.47 289.097 209.911 289.097 238.793 289.097H240.989L156.28 384.345Z" fill="#036F62"/>
<path d="M240.989 292.737V305.472C240.989 334.354 240.989 348.795 235.368 359.827C230.424 369.53 222.535 377.42 212.831 382.364C201.799 387.985 187.358 387.985 158.476 387.985H156.281L240.989 292.737Z" fill="#6CBDAA"/>
<path d="M140.227 434.99V423.749C140.227 398.255 140.226 385.509 135.265 375.771C130.901 367.206 123.937 360.242 115.372 355.878C105.634 350.917 92.8876 350.917 67.3938 350.917H65.4562L140.227 434.99Z" fill="#6CBDAA"/>
<path d="M65.4561 354.129V365.37C65.4561 390.864 65.4562 403.611 70.4176 413.348C74.7818 421.913 81.7456 428.877 90.3108 433.241C100.048 438.202 112.795 438.203 138.289 438.203H140.226L65.4561 354.129Z" fill="#036F62"/>
<path d="M143.213 180C145.997 178.392 149.428 178.392 152.212 180L173.427 192.248C176.212 193.856 177.927 196.827 177.927 200.043V224.54C177.927 227.755 176.212 230.726 173.427 232.334L152.212 244.582C149.428 246.19 145.997 246.19 143.212 244.582L121.998 232.334C119.213 230.726 117.498 227.755 117.498 224.54V200.043C117.498 196.827 119.213 193.856 121.998 192.248L143.213 180Z" fill="#FE9973"/>
<path d="M179.335 192.091C171.508 187.662 182.049 193.626 172.762 188.372C163.475 183.118 165.804 184.435 165.804 184.435C165.804 184.435 193.03 136.313 204.318 116.359C213.605 121.613 200.606 154.493 179.335 192.091Z" fill="#FFCECE"/>
<path d="M148.923 175.606C156.751 180.035 146.538 174.257 155.825 179.511C165.111 184.765 162.783 183.448 162.783 183.448C162.783 183.448 190.008 135.325 201.297 115.372C192.01 110.118 170.194 138.009 148.923 175.606Z" fill="#FFB1B1"/>
<path d="M181.168 228.768C181.187 219.774 181.162 231.885 181.184 221.215C181.207 210.545 181.201 213.221 181.201 213.221C181.201 213.221 236.491 213.337 259.416 213.386C259.394 224.055 224.365 228.859 181.168 228.768Z" fill="#FFCECE"/>
<path d="M181.738 194.805C181.719 203.798 181.743 192.065 181.721 202.734C181.698 213.404 181.704 210.729 181.704 210.729C181.704 210.729 236.994 210.845 259.92 210.893C259.942 200.223 224.935 194.895 181.738 194.805Z" fill="#FFB1B1"/>
<path d="M150.698 250.079C158.45 245.519 148.011 251.66 157.208 246.25C166.404 240.84 164.098 242.197 164.098 242.197C164.098 242.197 192.132 289.853 203.755 309.613C194.559 315.023 172.6 287.313 150.698 250.079Z" fill="#FFCECE"/>
<path d="M180.226 233.288C172.474 237.848 182.587 231.898 173.391 237.308C164.194 242.718 166.5 241.361 166.5 241.361C166.5 241.361 194.534 289.018 206.158 308.778C215.354 303.368 202.128 270.521 180.226 233.288Z" fill="#FFB1B1"/>
<path d="M116.2 232.492C123.925 237.097 113.522 230.896 122.687 236.359C131.852 241.822 129.554 240.452 129.554 240.452C129.554 240.452 101.246 287.946 89.5082 307.638C80.3429 302.175 94.0829 269.598 116.2 232.492Z" fill="#FFCECE"/>
<path d="M145.12 250.309C137.395 245.705 147.474 251.712 138.309 246.249C129.144 240.786 131.442 242.156 131.442 242.156C131.442 242.156 103.134 289.65 91.3961 309.343C100.561 314.806 123.004 287.415 145.12 250.309Z" fill="#FFB1B1"/>
<path d="M113.75 196.488C113.958 205.479 113.678 193.372 113.925 204.039C114.172 214.706 114.11 212.031 114.11 212.031C114.11 212.031 58.8341 213.31 35.915 213.841C35.6681 203.174 70.5641 197.488 113.75 196.488Z" fill="#FFCECE"/>
<path d="M113.93 231.204C113.855 222.21 113.952 233.944 113.864 223.274C113.775 212.605 113.797 215.28 113.797 215.28C113.797 215.28 58.509 215.739 35.5845 215.93C35.6731 226.599 70.7339 231.562 113.93 231.204Z" fill="#FFB1B1"/>
<path d="M145.103 174.205C137.508 179.021 147.736 172.536 138.725 178.25C129.714 183.964 131.974 182.531 131.974 182.531C131.974 182.531 101.967 135.211 89.5256 115.59C98.5365 109.876 121.66 137.235 145.103 174.205Z" fill="#FFCECE"/>
<path d="M115.737 192.09C123.403 187.387 113.401 193.523 122.496 187.944C131.59 182.364 129.31 183.763 129.31 183.763C129.31 183.763 100.397 136.635 88.4086 117.095C79.3139 122.674 93.1475 155.27 115.737 192.09Z" fill="#FFB1B1"/>
<path d="M274.967 247.96H278.967V481.572H274.967V247.96Z" fill="#036F62"/>
<path d="M280.966 247.958H284.966V481.57H280.966V247.958Z" fill="#6CBDAA"/>
<path d="M324.604 0.00292969H328.604V477.602H324.604V0.00292969Z" fill="#036F62"/>
<path d="M330.603 0H334.603V477.599H330.603V0Z" fill="#6CBDAA"/>
<path d="M289.667 473.894V457.471C289.667 420.223 289.667 401.599 296.916 387.371C303.293 374.857 313.467 364.682 325.982 358.306C340.209 351.057 358.833 351.057 396.081 351.057H398.913L289.667 473.894Z" fill="#036F62"/>
<path d="M398.913 355.751V372.174C398.913 409.423 398.913 428.047 391.664 442.274C385.287 454.789 375.113 464.963 362.598 471.34C348.371 478.589 329.747 478.589 292.499 478.589H289.668L398.913 355.751Z" fill="#6CBDAA"/>
<path d="M347.135 149.169V132.746C347.135 95.4976 347.135 76.8734 354.384 62.6464C360.76 50.1319 370.935 39.9572 383.45 33.5808C397.677 26.3318 416.301 26.3315 453.549 26.3315H456.38L347.135 149.169Z" fill="#036F62"/>
<path d="M456.381 31.026V47.4493C456.381 84.6977 456.381 103.322 449.132 117.549C442.755 130.063 432.581 140.238 420.066 146.615C405.839 153.864 387.215 153.864 349.966 153.864H347.135L456.381 31.026Z" fill="#6CBDAA"/>
<path d="M269.4 246.41C270.098 245.163 271.408 244.383 272.837 244.365L287.682 244.171C289.111 244.152 290.441 244.898 291.172 246.126L298.761 258.884C299.492 260.113 299.512 261.637 298.814 262.884L291.559 275.837C290.861 277.083 289.55 277.863 288.121 277.882L273.277 278.075C271.848 278.094 270.518 277.349 269.787 276.121L262.197 263.362C261.467 262.134 261.447 260.609 262.145 259.362L269.4 246.41Z" fill="#FE9973"/>
<path d="M289.88 242.418C284.864 242.528 291.619 242.38 285.668 242.51C279.717 242.64 281.209 242.607 281.209 242.607C281.209 242.607 280.537 211.768 280.258 198.982C286.209 198.852 289.355 218.325 289.88 242.418Z" fill="#FFCECE"/>
<path d="M270.597 243.189C275.613 243.08 269.069 243.223 275.02 243.093C280.971 242.963 279.478 242.996 279.478 242.996C279.478 242.996 278.806 212.157 278.528 199.37C272.577 199.5 270.072 219.096 270.597 243.189Z" fill="#FFB1B1"/>
<path d="M301.22 259.481C298.664 255.163 302.106 260.977 299.074 255.855C296.041 250.733 296.802 252.018 296.802 252.018C296.802 252.018 323.345 236.303 334.35 229.787C337.383 234.91 321.958 247.204 301.22 259.481Z" fill="#FFCECE"/>
<path d="M291.806 243.035C294.363 247.352 291.028 241.719 294.06 246.841C297.093 251.964 296.332 250.679 296.332 250.679C296.332 250.679 322.875 234.965 333.881 228.449C330.848 223.327 312.544 230.757 291.806 243.035Z" fill="#FFB1B1"/>
<path d="M292.69 278.39C295.106 273.992 291.853 279.914 294.719 274.697C297.586 269.48 296.867 270.788 296.867 270.788C296.867 270.788 323.901 285.642 335.11 291.801C332.244 297.018 313.811 289.995 292.69 278.39Z" fill="#FFCECE"/>
<path d="M302.058 261.917C299.642 266.314 302.794 260.577 299.928 265.794C297.061 271.011 297.78 269.703 297.78 269.703C297.78 269.703 324.814 284.556 336.024 290.715C338.89 285.498 323.179 273.522 302.058 261.917Z" fill="#FFB1B1"/>
<path d="M271.132 279.798C276.15 279.802 269.393 279.796 275.346 279.801C281.298 279.806 279.805 279.805 279.805 279.805C279.805 279.805 279.779 310.651 279.768 323.441C273.815 323.436 271.111 303.897 271.132 279.798Z" fill="#FFCECE"/>
<path d="M290.081 280.092C285.064 280.087 291.61 280.093 285.657 280.088C279.704 280.083 281.197 280.084 281.197 280.084C281.197 280.084 281.171 310.93 281.16 323.72C287.112 323.725 290.06 304.191 290.081 280.092Z" fill="#FFB1B1"/>
<path d="M259.688 263.233C262.352 267.485 258.764 261.759 261.925 266.803C265.086 271.847 264.293 270.583 264.293 270.583C264.293 270.583 238.155 286.962 227.318 293.753C224.157 288.709 239.267 276.03 259.688 263.233Z" fill="#FFCECE"/>
<path d="M269.676 279.827C267.075 275.536 270.468 281.134 267.382 276.044C264.297 270.953 265.071 272.23 265.071 272.23C265.071 272.23 238.693 288.22 227.755 294.849C230.841 299.94 249.067 292.319 269.676 279.827Z" fill="#FFB1B1"/>
<path d="M268.366 243.607C266.098 248.082 269.152 242.056 266.462 247.365C263.771 252.675 264.446 251.344 264.446 251.344C264.446 251.344 236.562 237.214 225 231.355C227.691 226.045 246.581 232.567 268.366 243.607Z" fill="#FFCECE"/>
<path d="M259.387 260.558C261.721 256.117 258.676 261.911 261.445 256.642C264.214 251.373 263.52 252.694 263.52 252.694C263.52 252.694 236.215 238.345 224.893 232.395C222.124 237.664 238.054 249.347 259.387 260.558Z" fill="#FFB1B1"/>
</svg>
