<svg width="701" height="513" viewBox="0 0 701 513" fill="none" xmlns="http://www.w3.org/2000/svg">
<circle cx="489.169" cy="238.801" r="194.434" fill="#4C4C4C"/>
<circle cx="491.126" cy="238.148" r="200.958" stroke="#3C3C3C" stroke-width="16.964"/>
<rect x="11.5664" width="477.602" height="477.602" rx="66.5511" fill="#FFB1B1"/>
<circle cx="489.169" cy="238.8" r="100.479" fill="#4C4C4C"/>
<circle cx="489.169" cy="238.801" r="90.0398" fill="#F4E3D5"/>
<circle cx="489.169" cy="238.801" r="30.0133" fill="#6697DC"/>
<mask id="mask0_69_214" style="mask-type:alpha" maskUnits="userSpaceOnUse" x="11" y="0" width="479" height="478">
<rect width="477.602" height="477.602" rx="66.5511" transform="matrix(-1 0 0 1 489.169 0)" fill="#2F4ECD"/>
</mask>
<g mask="url(#mask0_69_214)">
<rect width="55.49" height="363.299" transform="matrix(-0.626116 -0.77973 -0.77973 0.626116 261.512 -25.1646)" fill="#F4E3D5"/>
<path d="M40.5549 137.507C38.0132 134.377 35.4413 131.21 32.8391 128.006C30.2369 124.801 27.665 121.634 25.1233 118.504C26.2785 117.566 27.4429 116.62 28.6167 115.667C29.7904 114.714 30.9548 113.768 32.11 112.83C34.1934 114.292 36.2903 115.789 38.4005 117.322C40.5142 118.821 42.6034 120.309 44.6683 121.785C43.6468 119.461 42.6102 117.119 41.5584 114.757C40.5102 112.362 39.4753 110.003 38.4538 107.679C39.609 106.741 40.7641 105.803 41.9192 104.865C43.0743 103.927 44.2201 102.997 45.3566 102.074C47.9169 105.189 50.5075 108.341 53.1283 111.53C55.7491 114.72 58.3396 117.872 60.8999 120.987C60.1174 121.622 59.3256 122.265 58.5245 122.916C57.742 123.551 56.9595 124.186 56.177 124.822C54.4523 122.698 52.7124 120.555 50.9575 118.394C49.1874 116.214 47.44 114.062 45.7153 111.938C46.8811 114.516 48.0602 117.13 49.2528 119.778C50.4301 122.409 51.6017 125.013 52.7675 127.59C52.0782 128.15 51.3702 128.725 50.6436 129.315C49.9356 129.89 49.2276 130.465 48.5196 131.04C46.2663 129.407 43.9978 127.756 41.7141 126.085C39.4154 124.397 37.1393 122.736 34.8859 121.103C36.5804 123.19 38.2975 125.304 40.0373 127.447C41.762 129.571 43.4716 131.676 45.166 133.763C44.4208 134.368 43.6569 134.988 42.8744 135.624C42.0919 136.259 41.3187 136.887 40.5549 137.507ZM73.9062 110.425C73.7852 110.276 73.6717 110.136 73.5658 110.006C73.4448 109.857 73.3313 109.717 73.2254 109.587C73.0773 110.356 72.7884 111.085 72.3586 111.775C71.9626 112.467 71.4293 113.086 70.7585 113.63C69.8084 114.402 68.7704 114.951 67.6445 115.278C66.5035 115.586 65.3347 115.67 64.138 115.528C62.9447 115.353 61.7836 114.951 60.6545 114.322C59.5441 113.678 58.5274 112.788 57.6046 111.652C56.6666 110.496 55.9963 109.309 55.5939 108.09C55.21 106.856 55.0701 105.656 55.174 104.489C55.2815 103.289 55.6107 102.172 56.1616 101.137C56.6974 100.084 57.4311 99.1786 58.3627 98.4222C59.0334 97.8775 59.7576 97.4749 60.5354 97.2144C61.298 96.9352 62.0635 96.7928 62.8318 96.7872C62.7108 96.6381 62.5973 96.4984 62.4914 96.368C62.3855 96.2376 62.2796 96.1071 62.1737 95.9767C62.9376 95.3564 63.7108 94.7286 64.4933 94.0932C65.2758 93.4578 66.0396 92.8375 66.7849 92.2323C68.7214 94.6171 70.6806 97.0298 72.6625 99.4705C74.6292 101.892 76.5809 104.296 78.5174 106.681C77.7721 107.286 77.0083 107.906 76.2258 108.542C75.4433 109.177 74.6701 109.805 73.9062 110.425ZM68.0601 109.051C68.9544 108.325 69.407 107.416 69.4177 106.325C69.4285 105.235 69.0027 104.158 68.1404 103.096C67.278 102.034 66.3195 101.406 65.2648 101.211C64.195 100.998 63.213 101.254 62.3187 101.98C61.4058 102.722 60.9364 103.628 60.9104 104.701C60.9032 105.758 61.3383 106.827 62.2157 107.907C63.0932 108.988 64.0575 109.642 65.1087 109.871C66.1634 110.065 67.1472 109.792 68.0601 109.051ZM86.5672 107.564C86.1379 106.274 85.7105 104.967 85.2848 103.643C84.8928 102.323 84.4898 101.027 84.0757 99.7557C81.4602 98.3242 78.811 96.8892 76.128 95.4506C73.4485 93.9784 70.801 92.5265 68.1855 91.095C69.0052 90.4293 69.825 89.7636 70.6448 89.098C71.4645 88.4323 72.275 87.7742 73.0761 87.1236C74.5288 87.9227 75.9966 88.7403 77.4795 89.5766C78.981 90.3978 80.4657 91.2172 81.9335 92.0349C81.3973 90.4608 80.8628 88.8698 80.33 87.2619C79.7973 85.654 79.2704 84.0723 78.7493 82.5169C79.5504 81.8663 80.3515 81.2158 81.1527 80.5652C81.9538 79.9147 82.7549 79.2641 83.5561 78.6136C84.8343 82.7386 86.1411 86.9178 87.4764 91.1511C88.8151 95.3506 90.1236 99.5129 91.4019 103.638C90.6008 104.288 89.7903 104.947 88.9706 105.612C88.1694 106.263 87.3683 106.913 86.5672 107.564ZM102.834 86.9347C100.292 83.8047 97.7205 80.6374 95.1184 77.4329C92.5162 74.2284 89.9443 71.0611 87.4026 67.9311C88.5577 66.9931 89.7128 66.0551 90.868 65.1171C92.0417 64.164 93.1968 63.226 94.3333 62.3031C95.6189 61.2592 96.9352 60.5768 98.2822 60.2559C99.6141 59.9163 100.883 59.937 102.089 60.3181C103.28 60.6805 104.322 61.4113 105.214 62.5105C105.85 63.293 106.275 64.122 106.492 64.9975C106.708 65.873 106.692 66.7671 106.444 67.6798C107.605 67.5101 108.692 67.6315 109.708 68.0439C110.707 68.4377 111.57 69.0817 112.297 69.976C113.204 71.0939 113.71 72.3065 113.813 73.6139C113.935 74.9061 113.673 76.2012 113.026 77.4991C112.398 78.7818 111.404 79.9754 110.044 81.0798C108.852 82.0481 107.65 83.0239 106.439 84.0073C105.228 84.9906 104.027 85.9665 102.834 86.9347ZM100.709 66.9569C100.316 66.4725 99.8492 66.2023 99.3091 66.1463C98.7538 66.0716 98.2339 66.231 97.7495 66.6243C97.4142 66.8966 97.0695 67.1765 96.7155 67.464C96.3802 67.7363 96.0448 68.0086 95.7094 68.2809C96.1331 68.8026 96.5718 69.3429 97.0257 69.9018C97.4644 70.4421 97.9031 70.9824 98.3419 71.5227C98.6772 71.2504 99.0126 70.9781 99.348 70.7058C99.7019 70.4183 100.047 70.1384 100.382 69.8661C100.866 69.4728 101.144 69.0153 101.215 68.4938C101.271 67.9536 101.103 67.4413 100.709 66.9569ZM107.043 73.5002C106.619 72.9785 106.109 72.7124 105.513 72.7017C104.921 72.6573 104.326 72.8772 103.73 73.3613C103.339 73.679 102.948 73.9967 102.557 74.3144C102.165 74.6322 101.774 74.9499 101.383 75.2676C101.852 75.8451 102.321 76.4227 102.79 77.0003C103.259 77.5778 103.728 78.1554 104.197 78.7329C104.588 78.4152 104.979 78.0975 105.371 77.7798C105.762 77.4621 106.153 77.1444 106.544 76.8267C107.14 76.3426 107.478 75.806 107.556 75.2169C107.653 74.6127 107.482 74.0405 107.043 73.5002ZM131.094 62.8738C130.247 64.458 129.243 65.8297 128.082 66.9889C126.921 68.1481 125.659 69.0494 124.296 69.6928C122.966 70.3397 121.599 70.6926 120.193 70.7516C118.788 70.8106 117.426 70.5412 116.106 69.9437C114.804 69.3309 113.617 68.3632 112.542 67.0404C111.65 65.9411 111.01 64.7913 110.622 63.591C110.239 62.3568 110.102 61.1228 110.213 59.8888C110.309 58.6362 110.662 57.4529 111.272 56.339C111.868 55.2064 112.706 54.2014 113.786 53.3239C114.755 52.5372 115.759 51.9845 116.799 51.6658C117.839 51.3471 118.882 51.242 119.928 51.3506C120.96 51.4405 121.97 51.733 122.96 52.2281C123.949 52.7231 124.868 53.3986 125.718 54.2545C126.568 55.1104 127.314 56.1432 127.956 57.353C126.428 58.5936 124.891 59.8417 123.345 61.0974C121.798 62.3531 120.261 63.6013 118.733 64.8418C119.662 65.2624 120.658 65.2888 121.72 64.9213C122.8 64.5386 123.863 63.8299 124.909 62.7952C125.973 61.7454 126.961 60.4488 127.872 58.9054C128.401 59.5575 128.938 60.2189 129.483 60.8896C130.027 61.5603 130.565 62.2217 131.094 62.8738ZM117.033 57.5507C116.493 57.9895 116.111 58.547 115.887 59.2233C115.682 59.8845 115.708 60.6209 115.965 61.4324C116.803 60.7516 117.642 60.0708 118.48 59.39C119.337 58.694 120.185 58.0057 121.023 57.3248C120.285 56.8729 119.579 56.6888 118.905 56.7724C118.235 56.8223 117.611 57.0817 117.033 57.5507ZM135.199 60.6538C132.46 57.2816 129.699 53.8814 126.916 50.4533C124.132 47.0252 121.371 43.625 118.632 40.2528C119.396 39.6325 120.169 39.0047 120.952 38.3693C121.734 37.7338 122.498 37.1136 123.244 36.5084C125.982 39.8806 128.743 43.2808 131.527 46.7089C134.31 50.137 137.071 53.5371 139.81 56.9094C139.065 57.5145 138.301 58.1348 137.518 58.7702C136.736 59.4056 135.962 60.0335 135.199 60.6538ZM143.168 54.1826C140.429 50.8104 137.668 47.4102 134.885 43.9821C132.101 40.554 129.34 37.1538 126.602 33.7816C127.365 33.1613 128.139 32.5335 128.921 31.8981C129.704 31.2627 130.467 30.6424 131.213 30.0372C133.951 33.4094 136.712 36.8096 139.496 40.2377C142.28 43.6658 145.041 47.066 147.779 50.4382C147.034 51.0433 146.27 51.6636 145.487 52.299C144.705 52.9345 143.932 53.5623 143.168 54.1826ZM158.405 34.3895C159.343 35.5447 159.789 36.7596 159.742 38.0344C159.698 39.2753 159.272 40.5023 158.464 41.7151C157.656 42.9279 156.558 44.0511 155.171 45.0844C153.818 46.1213 152.294 47.0039 150.597 47.7322C150.022 47.0242 149.432 46.2976 148.827 45.5524C148.222 44.8072 147.632 44.0805 147.057 43.3726C148.127 43.0911 149.136 42.7352 150.085 42.3047C151.019 41.8556 151.818 41.3925 152.482 40.9154C153.145 40.4382 153.62 39.9756 153.905 39.5275C154.175 39.0607 154.174 38.6597 153.902 38.3243C153.69 38.0635 153.356 37.9947 152.9 38.118C152.462 38.2261 151.937 38.4361 151.324 38.7479C150.697 39.0411 150.017 39.346 149.285 39.6624C148.556 39.9451 147.802 40.1399 147.023 40.2468C146.229 40.335 145.445 40.2451 144.671 39.9772C143.9 39.6754 143.159 39.0867 142.448 38.2111C141.601 37.1677 141.181 36.0407 141.187 34.83C141.197 33.5855 141.562 32.3609 142.285 31.1562C142.992 29.9328 143.978 28.8068 145.245 27.778C146.512 26.7492 147.981 25.912 149.652 25.2664C150.227 25.9743 150.817 26.701 151.422 27.4462C152.027 28.1914 152.617 28.918 153.192 29.626C151.74 29.9702 150.49 30.4291 149.441 31.0028C148.392 31.5764 147.641 32.1554 147.188 32.7396C146.719 33.3053 146.644 33.7838 146.962 34.175C147.174 34.4358 147.498 34.5122 147.936 34.404C148.377 34.2621 148.895 34.0428 149.489 33.7461C150.101 33.4343 150.772 33.1371 151.501 32.8544C152.248 32.5566 153.01 32.3711 153.785 32.298C154.564 32.1911 155.346 32.2978 156.132 32.6182C156.921 32.9048 157.679 33.4953 158.405 34.3895Z" fill="#FFB1B1"/>
</g>
<path d="M82.9665 451.829L90.5561 439.944C107.769 412.988 116.376 399.51 117.704 385.864C118.873 373.861 116.212 361.796 110.102 351.398C103.156 339.577 89.6784 330.971 62.7225 313.757L60.6737 312.449L82.9665 451.829Z" fill="#036F62"/>
<path d="M56.7659 316.687L49.1764 328.572C31.9631 355.528 23.3566 369.006 22.0279 382.652C20.8592 394.655 23.5205 406.72 29.6303 417.118C36.5762 428.938 50.054 437.545 77.0099 454.758L79.0587 456.067L56.7659 316.687Z" fill="#6CBDAA"/>
<path d="M140.965 415.156L153.43 395.636C181.701 351.364 195.836 329.228 215.25 317.821C232.327 307.786 252.143 303.415 271.857 305.335C294.268 307.517 316.404 321.652 360.676 349.923L364.041 352.071L140.965 415.156Z" fill="#036F62"/>
<path d="M360.478 357.651L348.014 377.171C319.743 421.443 305.607 443.579 286.193 454.987C269.116 465.021 249.301 469.392 229.587 467.473C207.175 465.29 185.039 451.155 140.767 422.884L137.402 420.736L360.478 357.651Z" fill="#6CBDAA"/>
<path d="M81.2591 276.928C91.2023 261.356 112.176 256.979 128.105 267.151C144.034 277.323 148.886 298.192 138.943 313.763C129 329.334 108.026 333.711 92.0973 323.539C76.1682 313.367 71.3158 292.499 81.2591 276.928Z" fill="#6697DC"/>
<path d="M114.868 345.653L106.423 308.964L140.503 311.353L114.868 345.653Z" fill="#6697DC"/>
<path d="M62.5117 312.22L102.804 303.915L82.8444 274.534L62.5117 312.22Z" fill="#6697DC"/>
<path d="M110.83 328.656C104.635 328.632 98.3101 326.974 92.5469 323.549L128.429 267.358C143.129 277.423 148.173 296.345 140.387 311.24L140.546 311.252L139.953 312.044C139.65 312.586 139.329 313.124 138.99 313.654C137.759 315.582 136.353 317.335 134.804 318.906L114.915 345.41L110.83 328.656Z" fill="#6697DC"/>
<path d="M106.169 301.502L62.6856 312.056L114.887 345.39L106.169 301.502Z" fill="#2F4ECD" stroke="#FFB1B1" stroke-width="3"/>
<path d="M88.7857 328.725L82.1732 308.763L109.677 326.326L88.7857 328.725Z" fill="#6697DC" stroke="#FFB1B1" stroke-width="2"/>
<path d="M130.525 264.075L106.494 301.708" stroke="#FFB1B1" stroke-width="3"/>
<path d="M155.352 163.76C165.295 148.188 186.269 143.812 202.198 153.983C218.127 164.155 222.979 185.024 213.036 200.595C203.093 216.166 182.119 220.543 166.19 210.371C150.261 200.199 145.409 179.331 155.352 163.76Z" fill="#6697DC"/>
<path d="M188.961 232.485L180.516 195.796L214.596 198.185L188.961 232.485Z" fill="#6697DC"/>
<path d="M136.605 199.052L176.896 190.748L156.937 161.366L136.605 199.052Z" fill="#6697DC"/>
<path d="M184.922 215.488C178.727 215.464 172.402 213.806 166.639 210.381L202.52 154.19C217.221 164.255 222.265 183.177 214.479 198.072L214.638 198.084L214.045 198.876C213.741 199.418 213.421 199.956 213.082 200.487C211.851 202.414 210.445 204.167 208.895 205.738L189.007 232.242L184.922 215.488Z" fill="#6697DC"/>
<path d="M179.617 188.074L136.134 198.628L188.335 231.963L179.617 188.074Z" fill="#2F4ECD" stroke="#FFB1B1" stroke-width="3"/>
<path d="M162.877 215.556L156.265 195.594L183.769 213.157L162.877 215.556Z" fill="#6697DC" stroke="#FFB1B1" stroke-width="2"/>
<path d="M202.975 151.496L178.943 189.129" stroke="#FFB1B1" stroke-width="3"/>
<path d="M337.088 282.282C347.031 266.711 342.179 245.842 326.25 235.67C310.32 225.498 289.347 229.875 279.404 245.446C269.46 261.017 274.313 281.886 290.242 292.058C306.171 302.23 327.144 297.853 337.088 282.282Z" fill="#6697DC"/>
<path d="M260.601 280.703L297.438 272.93L280.933 243.017L260.601 280.703Z" fill="#6697DC"/>
<path d="M312.957 314.136L303.541 274.09L338.592 279.836L312.957 314.136Z" fill="#6697DC"/>
<path d="M277.719 277.217C280.347 282.827 284.512 287.868 290.044 291.655L325.926 235.464C310.611 226.362 291.322 229.746 281.085 243.076L281.007 242.937L280.539 243.808C280.174 244.312 279.821 244.828 279.482 245.359C278.251 247.287 277.253 249.3 276.48 251.366L260.802 280.559L277.719 277.217Z" fill="#6697DC"/>
<path d="M304.821 270.496L313.539 314.384L261.337 281.05L304.821 270.496Z" fill="#2F4ECD" stroke="#FFB1B1" stroke-width="3"/>
<path d="M286.931 297.244L307.822 294.845L280.319 277.282L286.931 297.244Z" fill="#6697DC" stroke="#FFB1B1" stroke-width="2"/>
<path d="M328.179 233.918L304.148 271.551" stroke="#FFB1B1" stroke-width="3"/>
<path d="M226.774 52.0921C236.717 36.521 257.691 32.144 273.62 42.3159C289.549 52.4877 294.401 73.3565 284.458 88.9276C274.515 104.499 253.541 108.876 237.612 98.7038C221.683 88.5319 216.83 67.6632 226.774 52.0921Z" fill="#6697DC"/>
<path d="M260.383 120.818L251.938 84.1286L286.018 86.518L260.383 120.818Z" fill="#6697DC"/>
<path d="M208.026 87.3843L248.318 79.08L228.359 49.6985L208.026 87.3843Z" fill="#6697DC"/>
<path d="M256.344 103.821C250.15 103.796 243.825 102.139 238.062 98.7135L273.943 42.5229C288.644 52.5875 293.688 71.5095 285.902 86.4042L286.061 86.4167L285.468 87.2082C285.164 87.751 284.844 88.2885 284.505 88.819C283.274 90.7469 281.868 92.4992 280.318 94.0702L260.43 120.574L256.344 103.821Z" fill="#6697DC"/>
<path d="M251.684 76.6656L208.2 87.2203L260.401 120.554L251.684 76.6656Z" fill="#2F4ECD" stroke="#FFB1B1" stroke-width="3"/>
<path d="M234.3 103.889L227.688 83.9268L255.192 101.49L234.3 103.889Z" fill="#6697DC" stroke="#FFB1B1" stroke-width="2"/>
<path d="M273.858 42.4692L249.827 80.1019" stroke="#FFB1B1" stroke-width="3"/>
<path d="M405.309 175.963C415.253 160.392 410.4 139.523 394.471 129.352C378.542 119.18 357.568 123.557 347.625 139.128C337.682 154.699 342.534 175.568 358.463 185.739C374.393 195.911 395.366 191.534 405.309 175.963Z" fill="#6697DC"/>
<path d="M328.822 174.384L365.66 166.612L349.155 136.699L328.822 174.384Z" fill="#6697DC"/>
<path d="M381.179 207.818L371.762 167.771L406.814 173.518L381.179 207.818Z" fill="#6697DC"/>
<path d="M345.941 170.897C348.569 176.507 352.734 181.548 358.266 185.335L394.147 129.145C378.832 120.042 359.544 123.426 349.307 136.756L349.229 136.617L348.76 137.488C348.396 137.992 348.043 138.509 347.704 139.039C346.473 140.967 345.475 142.98 344.701 145.046L329.024 174.239L345.941 170.897Z" fill="#6697DC"/>
<path d="M372.537 163.702L381.254 207.59L329.053 174.256L372.537 163.702Z" fill="#2F4ECD" stroke="#FFB1B1" stroke-width="3"/>
<path d="M355.153 190.925L376.044 188.526L348.54 170.963L355.153 190.925Z" fill="#6697DC" stroke="#FFB1B1" stroke-width="2"/>
<path d="M394.231 129.199L370.2 166.832" stroke="#FFB1B1" stroke-width="3"/>
<path d="M329.338 237.731C351.964 197.231 325.885 167.214 294.969 174.403" stroke="#036F62" stroke-width="3.28782"/>
<path d="M83.6002 471.86L329.976 86.0277C365.451 30.4753 301.84 -7.31521 265.352 49.8246" stroke="#036F62" stroke-width="3.28782"/>
<path d="M90.6059 473.098L331.897 95.111C367.02 40.1071 429.852 78.0168 393.724 134.592" stroke="#036F62" stroke-width="3.28782"/>
<path d="M199.268 152.438C224.37 113.129 264.783 125.171 271.671 154.915" stroke="#036F62" stroke-width="3.28782"/>
<path d="M125.49 265.273C152.161 223.506 195.477 233.324 199.008 268.136" stroke="#036F62" stroke-width="3.28782"/>
<path d="M77.9978 469.882L326.961 80.0068C351.769 41.1582 309.106 1.18391 273.695 48.5422" stroke="#6CBDAA" stroke-width="3.28782"/>
<path d="M97.4687 472.727L339.875 93.3609C364.682 54.5124 418.895 76.4 390.828 128.448" stroke="#6CBDAA" stroke-width="3.28782"/>
<path d="M204.646 155.546C233.249 117.292 267.35 135.683 265.832 165.282" stroke="#6CBDAA" stroke-width="3.28782"/>
<path d="M324.464 234.981C347.135 192.939 315.35 169.445 289.136 183.274" stroke="#6CBDAA" stroke-width="3.28782"/>
<path d="M130.342 267.906C161.43 226.001 196.197 244.884 193.848 276.786" stroke="#6CBDAA" stroke-width="3.28782"/>
</svg>
