<svg width="689" height="478" viewBox="0 0 689 478" fill="none" xmlns="http://www.w3.org/2000/svg">
<circle cx="477.602" cy="238.801" r="194.434" fill="#4C4C4C"/>
<circle cx="479.56" cy="238.148" r="200.958" stroke="#3C3C3C" stroke-width="16.964"/>
<rect width="477.602" height="477.602" rx="66.5511" fill="#2F4ECD"/>
<circle cx="477.602" cy="238.8" r="100.479" fill="#4C4C4C"/>
<circle cx="477.602" cy="238.801" r="90.0398" fill="#6697DC"/>
<circle cx="477.602" cy="238.801" r="30.0133" fill="white"/>
<mask id="mask0_63_580" style="mask-type:alpha" maskUnits="userSpaceOnUse" x="0" y="0" width="478" height="478">
<rect width="477.602" height="477.602" rx="66.5511" transform="matrix(-1 0 0 1 477.602 0)" fill="#2F4ECD"/>
</mask>
<g mask="url(#mask0_63_580)">
<rect width="55.49" height="363.299" transform="matrix(-0.626116 -0.77973 -0.77973 0.626116 249.945 -25.1646)" fill="#6697DC"/>
<path d="M7.99435 122.712C9.98115 124.283 11.9906 125.882 14.0228 127.509C16.055 129.136 18.0627 130.752 20.046 132.357C18.9011 130.071 17.7411 127.767 16.566 125.444C15.4094 123.106 14.257 120.811 13.1086 118.56C13.8352 117.97 14.5711 117.372 15.3163 116.767C16.0616 116.162 16.7975 115.564 17.5241 114.974C19.5295 116.53 21.5501 118.104 23.5858 119.698C25.6215 121.291 27.6496 122.875 29.6701 124.449C28.5252 122.164 27.3635 119.876 26.1848 117.587C25.0248 115.283 23.8706 113.005 22.7222 110.753C23.4674 110.148 24.2127 109.543 24.9579 108.938C25.7218 108.317 26.4763 107.705 27.2216 107.099C29.0739 110.789 30.9565 114.516 32.8693 118.281C34.7821 122.045 36.6647 125.772 38.517 129.462C37.6041 130.203 36.6725 130.959 35.7224 131.731C34.7908 132.487 33.8593 133.244 32.9277 134C31.1295 132.585 29.3143 131.169 27.4823 129.75C25.6352 128.313 23.8125 126.887 22.0143 125.472C23.0486 127.507 24.0888 129.569 25.1348 131.656C26.1657 133.725 27.1983 135.778 28.2327 137.813C27.3198 138.554 26.3975 139.303 25.466 140.059C24.5531 140.801 23.6401 141.542 22.7272 142.283C19.4962 139.713 16.2349 137.106 12.9434 134.461C9.65189 131.816 6.39062 129.209 3.1596 126.638C3.96074 125.988 4.76187 125.337 5.563 124.687C6.38277 124.021 7.19322 123.363 7.99435 122.712ZM44.7386 124.41C42.0003 121.037 39.2392 117.637 36.4555 114.209C33.6718 110.781 30.9107 107.381 28.1724 104.009C28.9363 103.388 29.7095 102.76 30.492 102.125C31.2745 101.49 32.0383 100.869 32.7836 100.264C33.6762 101.363 34.5839 102.481 35.5068 103.618C36.4145 104.736 37.3147 105.844 38.2073 106.943C38.4229 106.181 38.7625 105.457 39.226 104.771C39.693 104.052 40.2898 103.397 41.0165 102.807C42.0784 101.945 43.2066 101.431 44.4011 101.265C45.6143 101.083 46.815 101.268 48.0035 101.817C49.1955 102.333 50.3058 103.225 51.3346 104.492C52.5147 105.945 53.7023 107.408 54.8975 108.879C56.0927 110.351 57.2803 111.814 58.4603 113.267C57.7151 113.872 56.9512 114.492 56.1687 115.128C55.3862 115.763 54.613 116.391 53.8492 117.011C52.7599 115.67 51.6555 114.31 50.5359 112.931C49.4164 111.553 48.312 110.193 47.2227 108.851C46.6175 108.106 45.9564 107.653 45.2393 107.494C44.5257 107.3 43.7963 107.506 43.0511 108.111C42.3058 108.716 41.9023 109.4 41.8404 110.161C41.7784 110.922 42.0728 111.704 42.7233 112.505C43.8126 113.846 44.917 115.206 46.0365 116.585C47.1561 117.964 48.2605 119.324 49.3498 120.665C48.6045 121.27 47.8407 121.891 47.0582 122.526C46.2757 123.161 45.5025 123.789 44.7386 124.41ZM50.7165 92.8437C50.1762 93.2825 49.5765 93.553 48.9176 93.6552C48.2773 93.7424 47.6527 93.6776 47.0439 93.4609C46.4351 93.2442 45.9189 92.875 45.4953 92.3533C45.0717 91.8316 44.8239 91.26 44.7519 90.6383C44.6647 89.998 44.7295 89.3734 44.9462 88.7646C45.1816 88.1407 45.5694 87.6093 46.1097 87.1706C46.6314 86.747 47.2123 86.4916 47.8527 86.4045C48.5116 86.3022 49.1455 86.3594 49.7543 86.5761C50.348 86.7742 50.8566 87.1341 51.2802 87.6558C51.7038 88.1774 51.9592 88.7584 52.0463 89.3987C52.1335 90.0391 52.0594 90.6712 51.824 91.2951C51.6073 91.9039 51.2381 92.4201 50.7165 92.8437ZM61.4683 110.824C59.5318 108.44 57.5802 106.036 55.6134 103.614C53.6315 101.174 51.6723 98.7609 49.7358 96.3761C50.4997 95.7558 51.2729 95.128 52.0554 94.4926C52.8379 93.8572 53.6017 93.2369 54.347 92.6317C56.2835 95.0165 58.2427 97.4292 60.2246 99.8699C62.1913 102.292 64.143 104.695 66.0795 107.08C65.3342 107.685 64.5704 108.306 63.7879 108.941C63.0054 109.576 62.2322 110.204 61.4683 110.824ZM70.8068 103.241C69.4149 101.527 68.0155 99.8039 66.6085 98.0712C65.2015 96.3385 63.8097 94.6245 62.4329 92.9291C62.0603 93.2316 61.6784 93.5418 61.2871 93.8595C60.9145 94.1621 60.5419 94.4647 60.1693 94.7672C59.6095 94.0779 59.0497 93.3885 58.49 92.6992C57.9302 92.0098 57.3704 91.3205 56.8106 90.6311C57.1833 90.3286 57.5559 90.026 57.9285 89.7234C58.3198 89.4057 58.7017 89.0956 59.0743 88.793C58.5448 88.1409 58.0228 87.4981 57.5085 86.8647C56.9789 86.2126 56.457 85.5698 55.9426 84.9364C56.7065 84.3161 57.4797 83.6882 58.2622 83.0528C59.0447 82.4174 59.8085 81.7971 60.5538 81.1919C61.0682 81.8254 61.5901 82.4682 62.1196 83.1203C62.634 83.7537 63.156 84.3965 63.6855 85.0486C64.114 84.7006 64.5518 84.3451 64.999 83.982C65.4461 83.6189 65.8839 83.2633 66.3125 82.9154C66.8722 83.6047 67.432 84.2941 67.9918 84.9834C68.5515 85.6728 69.1113 86.3621 69.6711 87.0515C69.2426 87.3994 68.8047 87.755 68.3576 88.1181C67.9105 88.4812 67.4726 88.8367 67.0441 89.1846C68.4208 90.8801 69.8127 92.5941 71.2197 94.3268C72.6267 96.0595 74.0261 97.7829 75.418 99.4969C74.6727 100.102 73.9089 100.722 73.1264 101.358C72.3439 101.993 71.5707 102.621 70.8068 103.241ZM92.024 84.8993C91.1772 86.4835 90.1733 87.8552 89.0123 89.0144C87.8513 90.1736 86.5891 91.0749 85.2256 91.7183C83.896 92.3652 82.5286 92.7181 81.1234 92.7771C79.7182 92.8361 78.3556 92.5668 77.0356 91.9692C75.7343 91.3565 74.5465 90.3887 73.4723 89.0659C72.5797 87.9667 71.9398 86.8169 71.5524 85.6165C71.1686 84.3824 71.0322 83.1483 71.1431 81.9143C71.2389 80.6617 71.592 79.4784 72.2023 78.3645C72.7976 77.2319 73.6355 76.2269 74.7161 75.3494C75.6849 74.5627 76.6891 74.01 77.7288 73.6913C78.7685 73.3726 79.8116 73.2676 80.8582 73.3761C81.8896 73.4661 82.9 73.7586 83.8895 74.2536C84.8789 74.7487 85.7984 75.4241 86.648 76.28C87.4976 77.136 88.2435 78.1688 88.8858 79.3785C87.358 80.6191 85.821 81.8673 84.2746 83.123C82.7282 84.3787 81.1912 85.6268 79.6634 86.8674C80.5923 87.2879 81.5877 87.3144 82.6495 86.9468C83.73 86.5641 84.7931 85.8554 85.8388 84.8208C86.9031 83.771 87.8907 82.4744 88.8015 80.9309C89.331 81.583 89.8681 82.2444 90.4128 82.9151C90.9574 83.5859 91.4945 84.2473 92.024 84.8993ZM77.9629 79.5763C77.4226 80.015 77.0406 80.5725 76.8169 81.2489C76.6118 81.9101 76.6378 82.6464 76.8948 83.4579C77.7332 82.7771 78.5716 82.0963 79.41 81.4155C80.267 80.7196 81.1148 80.0312 81.9532 79.3504C81.2152 78.8985 80.5092 78.7143 79.8351 78.798C79.1645 78.8478 78.5405 79.1073 77.9629 79.5763ZM102.136 77.8011C99.5943 74.6711 97.0224 71.5038 94.4202 68.2993C91.818 65.0948 89.2461 61.9275 86.7044 58.7975C87.8223 57.8897 88.9495 56.9744 90.0859 56.0516C91.2224 55.1287 92.3496 54.2134 93.4675 53.3057C94.8462 52.1861 96.3098 51.3996 97.8582 50.946C99.3916 50.4737 100.935 50.3182 102.488 50.4793C104.041 50.6404 105.519 51.1094 106.923 51.8863C108.33 52.6294 109.586 53.681 110.69 55.0411C111.795 56.4011 112.574 57.8554 113.027 59.4039C113.5 60.9372 113.663 62.4897 113.517 64.0613C113.356 65.6142 112.894 67.1019 112.132 68.5243C111.356 69.9281 110.278 71.1898 108.899 72.3093C107.781 73.217 106.654 74.1323 105.517 75.0552C104.381 75.9781 103.254 76.8934 102.136 77.8011ZM97.053 57.7212C96.7549 57.9633 96.4475 58.2129 96.1308 58.4701C95.8141 58.7273 95.4974 58.9845 95.1806 59.2417C96.5422 60.9185 97.919 62.6139 99.3108 64.3279C100.703 66.042 102.079 67.7374 103.441 69.4142C103.758 69.157 104.074 68.8998 104.391 68.6426C104.708 68.3854 105.015 68.1358 105.313 67.8937C106.245 67.1373 106.874 66.2556 107.2 65.2487C107.526 64.2418 107.566 63.2051 107.318 62.1386C107.055 61.0536 106.53 60.0266 105.744 59.0578C104.957 58.089 104.067 57.3739 103.074 56.9126C102.081 56.4514 101.066 56.2863 100.029 56.4176C98.9766 56.5302 97.9846 56.9648 97.053 57.7212ZM130.466 54.7965C130.345 54.6475 130.231 54.5077 130.125 54.3773C130.004 54.2283 129.891 54.0885 129.785 53.9581C129.637 54.7276 129.348 55.4569 128.918 56.1459C128.522 56.8385 127.989 57.4571 127.318 58.0018C126.368 58.7733 125.33 59.3225 124.204 59.6493C123.063 59.9575 121.894 60.041 120.697 59.8998C119.504 59.7249 118.343 59.3229 117.214 58.6939C116.104 58.0498 115.087 57.1595 114.164 56.023C113.226 54.8679 112.556 53.6808 112.153 52.4618C111.769 51.2277 111.63 50.0274 111.733 48.8609C111.841 47.6607 112.17 46.5432 112.721 45.5084C113.257 44.455 113.991 43.55 114.922 42.7936C115.593 42.249 116.317 41.8464 117.095 41.5858C117.857 41.3066 118.623 41.1642 119.391 41.1586C119.27 41.0096 119.157 40.8698 119.051 40.7394C118.945 40.609 118.839 40.4786 118.733 40.3482C119.497 39.7279 120.27 39.1 121.053 38.4646C121.835 37.8292 122.599 37.2089 123.344 36.6038C125.281 38.9885 127.24 41.4012 129.222 43.8419C131.189 46.2639 133.14 48.6673 135.077 51.0521C134.332 51.6573 133.568 52.2776 132.785 52.913C132.003 53.5484 131.23 54.1762 130.466 54.7965ZM124.62 53.4223C125.514 52.6961 125.966 51.7876 125.977 50.6968C125.988 49.606 125.562 48.5296 124.7 47.4676C123.837 46.4056 122.879 45.7773 121.824 45.5826C120.754 45.3692 119.772 45.6257 118.878 46.3518C117.965 47.0932 117.496 47.9999 117.47 49.0721C117.463 50.1292 117.898 51.198 118.775 52.2786C119.653 53.3592 120.617 54.0137 121.668 54.2422C122.723 54.4369 123.707 54.1636 124.62 53.4223ZM127.542 30.4589C127.002 30.8977 126.402 31.1682 125.743 31.2705C125.103 31.3576 124.478 31.2928 123.87 31.0761C123.261 30.8594 122.745 30.4902 122.321 29.9685C121.897 29.4469 121.65 28.8752 121.578 28.2535C121.49 27.6132 121.555 26.9886 121.772 26.3798C122.007 25.7559 122.395 25.2245 122.935 24.7858C123.457 24.3622 124.038 24.1068 124.678 24.0197C125.337 23.9174 125.971 23.9747 126.58 24.1914C127.174 24.3894 127.682 24.7493 128.106 25.271C128.529 25.7926 128.785 26.3736 128.872 27.014C128.959 27.6543 128.885 28.2864 128.65 28.9103C128.433 29.5191 128.064 30.0353 127.542 30.4589ZM138.294 48.4397C136.357 46.0549 134.406 43.6515 132.439 41.2295C130.457 38.7888 128.498 36.3761 126.561 33.9913C127.325 33.3711 128.099 32.7432 128.881 32.1078C129.664 31.4724 130.427 30.8521 131.173 30.2469C133.109 32.6317 135.068 35.0444 137.05 37.4851C139.017 39.9071 140.969 42.3105 142.905 44.6953C142.16 45.3004 141.396 45.9207 140.614 46.5561C139.831 47.1916 139.058 47.8194 138.294 48.4397ZM153.531 28.6466C154.469 29.8018 154.915 31.0167 154.868 32.2915C154.824 33.5325 154.399 34.7594 153.59 35.9722C152.782 37.185 151.684 38.3082 150.298 39.3416C148.945 40.3784 147.42 41.261 145.723 41.9893C145.149 41.2814 144.559 40.5547 143.953 39.8095C143.348 39.0643 142.758 38.3377 142.183 37.6297C143.253 37.3482 144.263 36.9923 145.212 36.5618C146.145 36.1127 146.944 35.6496 147.608 35.1725C148.272 34.6954 148.746 34.2327 149.031 33.7846C149.302 33.3178 149.301 32.9168 149.028 32.5814C148.817 32.3206 148.482 32.2518 148.026 32.3751C147.588 32.4832 147.063 32.6932 146.451 33.005C145.823 33.2982 145.143 33.6031 144.411 33.9195C143.682 34.2022 142.928 34.397 142.149 34.5039C141.355 34.5921 140.571 34.5023 139.797 34.2343C139.027 33.9325 138.286 33.3438 137.575 32.4682C136.727 31.4248 136.307 30.2978 136.313 29.0871C136.323 27.8426 136.689 26.618 137.411 25.4133C138.118 24.1899 139.105 23.0639 140.372 22.0351C141.639 21.0063 143.107 20.1691 144.778 19.5235C145.353 20.2314 145.943 20.9581 146.548 21.7033C147.153 22.4485 147.743 23.1751 148.318 23.8831C146.866 24.2273 145.616 24.6862 144.567 25.2599C143.518 25.8335 142.767 26.4125 142.314 26.9968C141.846 27.5624 141.77 28.0409 142.088 28.4321C142.3 28.6929 142.625 28.7693 143.062 28.6611C143.504 28.5192 144.021 28.2999 144.615 28.0032C145.228 27.6914 145.898 27.3942 146.627 27.1115C147.374 26.8137 148.136 26.6282 148.911 26.5551C149.69 26.4482 150.472 26.5549 151.258 26.8753C152.047 27.1619 152.805 27.7524 153.531 28.6466ZM164.359 34.6936C163.93 33.4036 163.503 32.0967 163.077 30.7729C162.685 29.4526 162.282 28.1568 161.868 26.8854C159.252 25.4539 156.603 24.0189 153.92 22.5804C151.241 21.1081 148.593 19.6562 145.978 18.2247C146.797 17.5591 147.617 16.8934 148.437 16.2277C149.257 15.562 150.067 14.9039 150.868 14.2534C152.321 15.0524 153.789 15.8701 155.272 16.7064C156.773 17.5275 158.258 18.3469 159.726 19.1646C159.19 17.5905 158.655 15.9995 158.122 14.3916C157.59 12.7838 157.063 11.2021 156.542 9.64661C157.343 8.99607 158.144 8.34552 158.945 7.69498C159.746 7.04443 160.547 6.39389 161.348 5.74334C162.627 9.86836 163.933 14.0475 165.269 18.2808C166.607 22.4804 167.916 26.6427 169.194 30.7677C168.393 31.4182 167.583 32.0763 166.763 32.742C165.962 33.3925 165.161 34.0431 164.359 34.6936Z" fill="#2F4ECD"/>
</g>
<path d="M269 163H273V478H269V163Z" fill="#036F62"/>
<path d="M275 163H279V478H275V163Z" fill="#6CBDAA"/>
<path d="M279 458.625V439.824C279 397.182 279 375.861 287.299 359.573C294.599 345.247 306.247 333.599 320.573 326.299C336.86 318 358.181 318 400.824 318H404.065L279 458.625Z" fill="#036F62"/>
<path d="M404.064 323.374V342.176C404.064 384.818 404.064 406.139 395.766 422.426C388.466 436.753 376.818 448.401 362.491 455.701C346.204 463.999 324.883 464 282.241 464H279L404.064 323.374Z" fill="#6CBDAA"/>
<path d="M269.36 169.395C279.163 164.597 265.963 171.058 277.592 165.366C289.221 159.673 286.305 161.1 286.305 161.1C286.305 161.1 307.364 204.119 316.096 221.957C304.467 227.649 285.813 203.005 269.36 169.395Z" fill="white"/>
<path d="M305.134 151.883C295.332 156.681 308.12 150.421 296.491 156.114C284.862 161.807 287.778 160.379 287.778 160.379C287.778 160.379 308.837 203.398 317.569 221.235C329.198 215.542 321.587 185.493 305.134 151.883Z" fill="#F4E3D5"/>
<path d="M304.979 151.304C300.181 141.501 306.642 154.701 300.949 143.072C295.257 131.443 296.684 134.359 296.684 134.359C296.684 134.359 339.703 113.3 357.54 104.568C363.233 116.197 338.589 134.851 304.979 151.304Z" fill="white"/>
<path d="M287.467 115.53C292.266 125.332 286.005 112.543 291.698 124.172C297.391 135.802 295.963 132.885 295.963 132.885C295.963 132.885 338.982 111.826 356.819 103.094C351.127 91.4653 321.077 99.0765 287.467 115.53Z" fill="#F4E3D5"/>
<path d="M251.848 133.621C256.646 143.424 250.185 130.224 255.877 141.853C261.57 153.482 260.143 150.566 260.143 150.566C260.143 150.566 217.124 171.625 199.286 180.357C193.594 168.728 218.238 150.074 251.848 133.621Z" fill="white"/>
<path d="M269.36 169.395C264.562 159.592 270.822 172.381 265.129 160.752C259.436 149.123 260.864 152.039 260.864 152.039C260.864 152.039 217.845 173.098 200.008 181.83C205.701 193.459 235.75 185.848 269.36 169.395Z" fill="#F4E3D5"/>
<rect x="303.138" y="150.889" width="36.6398" height="36.6398" transform="rotate(153.917 303.138 150.889)" fill="#FECC73"/>
<path d="M287.009 115.899C277.207 120.698 290.407 114.236 278.778 119.929C267.149 125.622 270.065 124.194 270.065 124.194C270.065 124.194 249.006 81.175 240.274 63.3378C251.903 57.6449 270.556 82.2892 287.009 115.899Z" fill="white"/>
<path d="M251.236 133.412C261.038 128.613 248.249 134.873 259.878 129.181C271.508 123.488 268.591 124.915 268.591 124.915C268.591 124.915 247.532 81.8963 238.8 64.0592C227.171 69.752 234.783 99.8016 251.236 133.412Z" fill="#F4E3D5"/>
<path d="M161.001 260.002H165.001V478.002H161.001V260.002Z" fill="#036F62"/>
<path d="M167 260H171V478H167V260Z" fill="#6CBDAA"/>
<path d="M174.129 382.452V369.717C174.129 340.835 174.129 326.394 179.75 315.362C184.694 305.659 192.583 297.769 202.287 292.825C213.319 287.204 227.76 287.204 256.642 287.204H258.837L174.129 382.452Z" fill="#036F62"/>
<path d="M258.837 290.844V303.579C258.837 332.461 258.837 346.902 253.216 357.934C248.272 367.637 240.382 375.527 230.679 380.471C219.647 386.092 205.206 386.092 176.324 386.092H174.129L258.837 290.844Z" fill="#6CBDAA"/>
<path d="M158.075 433.097V421.857C158.075 396.363 158.075 383.616 153.113 373.879C148.749 365.313 141.785 358.35 133.22 353.985C123.483 349.024 110.736 349.024 85.2423 349.024H83.3046L158.075 433.097Z" fill="#6CBDAA"/>
<path d="M83.3047 352.237V363.477C83.3047 388.971 83.3049 401.718 88.2663 411.455C92.6305 420.021 99.5943 426.984 108.16 431.349C117.897 436.31 130.644 436.31 156.137 436.31H158.075L83.3047 352.237Z" fill="#036F62"/>
<path d="M166.109 257.95C173.177 246.452 163.66 261.935 172.045 248.294C180.43 234.653 178.327 238.074 178.327 238.074C178.327 238.074 228.788 269.092 249.71 281.953C241.325 295.594 205.533 282.184 166.109 257.95Z" fill="white"/>
<path d="M191.903 215.988C184.835 227.486 194.056 212.485 185.671 226.126C177.286 239.767 179.389 236.346 179.389 236.346C179.389 236.346 229.85 267.364 250.772 280.225C259.157 266.584 231.327 240.221 191.903 215.988Z" fill="#F4E3D5"/>
<path d="M191.358 215.485C179.86 208.417 195.343 217.935 181.702 209.55C168.061 201.165 171.482 203.267 171.482 203.267C171.482 203.267 202.5 152.807 215.361 131.884C229.002 140.269 215.592 176.061 191.358 215.485Z" fill="white"/>
<path d="M149.396 189.691C160.894 196.759 145.893 187.538 159.534 195.923C173.175 204.308 169.754 202.205 169.754 202.205C169.754 202.205 200.772 151.744 213.633 130.821C199.992 122.437 173.63 150.267 149.396 189.691Z" fill="#F4E3D5"/>
<path d="M124.147 232.156C135.645 239.224 120.162 229.706 133.803 238.091C147.443 246.476 144.023 244.374 144.023 244.374C144.023 244.374 113.005 294.834 100.144 315.757C86.5029 307.372 99.9132 271.58 124.147 232.156Z" fill="white"/>
<path d="M166.109 257.95C154.611 250.882 169.612 260.103 155.971 251.718C142.33 243.333 145.751 245.436 145.751 245.436C145.751 245.436 114.733 295.896 101.872 316.819C115.513 325.204 141.875 297.374 166.109 257.95Z" fill="#F4E3D5"/>
<rect x="189.16" y="216.27" width="45.3105" height="45.3105" transform="rotate(121.579 189.16 216.27)" fill="#FECC73"/>
<path d="M149.163 190.38C142.095 201.878 151.613 186.395 143.228 200.035C134.843 213.676 136.945 210.256 136.945 210.256C136.945 210.256 86.4846 179.238 65.5619 166.377C73.9469 152.736 109.739 166.146 149.163 190.38Z" fill="white"/>
<path d="M123.369 232.342C130.436 220.844 121.216 235.845 129.6 222.204C137.985 208.563 135.883 211.984 135.883 211.984C135.883 211.984 85.422 180.966 64.4992 168.105C56.1142 181.746 83.9447 208.108 123.369 232.342Z" fill="#F4E3D5"/>
</svg>
