<svg width="689" height="478" viewBox="0 0 689 478" fill="none" xmlns="http://www.w3.org/2000/svg">
<circle cx="477.603" cy="238.801" r="194.434" fill="#4C4C4C"/>
<circle cx="479.559" cy="238.148" r="200.958" stroke="#3C3C3C" stroke-width="16.964"/>
<rect width="477.602" height="477.602" rx="66.5511" fill="#FBF6F2"/>
<circle cx="477.602" cy="238.8" r="100.479" fill="#4C4C4C"/>
<circle cx="477.602" cy="238.801" r="90.0398" fill="#F4E3D5"/>
<circle cx="477.602" cy="238.801" r="30.0133" fill="#FE9973"/>
<mask id="mask0_69_492" style="mask-type:alpha" maskUnits="userSpaceOnUse" x="0" y="0" width="478" height="478">
<rect width="477.602" height="477.602" rx="66.5511" transform="matrix(-1 0 0 1 477.603 0)" fill="#2F4ECD"/>
</mask>
<g mask="url(#mask0_69_492)">
<rect width="55.49" height="363.299" transform="matrix(-0.626116 -0.77973 -0.77973 0.626116 249.945 -25.1646)" fill="#F4E3D5"/>
<path d="M50.092 116.553C47.5503 113.423 44.9784 110.256 42.3762 107.051C39.774 103.846 37.2021 100.679 34.6604 97.5492C35.8156 96.6112 36.9707 95.6732 38.1258 94.7352C39.2996 93.7821 40.4547 92.8441 41.5912 91.9212C43.0258 90.7563 44.501 90.0221 46.0168 89.7187C47.5175 89.3966 48.9669 89.4873 50.3649 89.9906C51.7629 90.4939 52.999 91.4069 54.0732 92.7297C55.1322 94.0339 55.7646 95.4218 55.9702 96.8934C56.1945 98.3498 56.0136 99.7642 55.4277 101.137C54.8603 102.494 53.9339 103.694 52.6483 104.738C52.2385 105.071 51.8286 105.404 51.4187 105.737C51.0275 106.055 50.6269 106.38 50.217 106.713C51.0037 107.681 51.798 108.66 52.5998 109.647C53.4016 110.635 54.1959 111.613 54.9826 112.581C54.1815 113.232 53.371 113.89 52.5513 114.556C51.7315 115.221 50.9117 115.887 50.092 116.553ZM45.1541 96.3088C44.8187 96.5811 44.474 96.861 44.12 97.1485C43.7847 97.4208 43.4493 97.6931 43.114 97.9654C43.7191 98.7107 44.3318 99.4652 44.9521 100.229C45.5573 100.974 46.1624 101.72 46.7676 102.465C47.1402 102.162 47.5222 101.852 47.9134 101.534C48.3233 101.202 48.7145 100.884 49.0872 100.581C49.6647 100.112 49.9565 99.5198 49.9625 98.8038C49.9872 98.0727 49.7423 97.3904 49.2279 96.757C48.6984 96.1049 48.0641 95.7235 47.3248 95.6127C46.5856 95.5019 45.862 95.7339 45.1541 96.3088ZM75.6106 95.8309C75.4896 95.6818 75.3762 95.5421 75.2702 95.4117C75.1492 95.2626 75.0357 95.1229 74.9298 94.9925C74.7818 95.7619 74.4929 96.4912 74.0631 97.1803C73.6671 97.8728 73.1337 98.4915 72.463 99.0361C71.5128 99.8077 70.4748 100.357 69.3489 100.684C68.208 100.992 67.0391 101.075 65.8424 100.934C64.6492 100.759 63.488 100.357 62.359 99.7283C61.2485 99.0842 60.2319 98.1939 59.309 97.0574C58.371 95.9022 57.7008 94.7152 57.2983 93.4962C56.9145 92.262 56.7745 91.0617 56.8785 89.8953C56.9859 88.695 57.3151 87.5775 57.8661 86.5427C58.4019 85.4893 59.1356 84.5844 60.0671 83.8279C60.7378 83.2833 61.4621 82.8807 62.2398 82.6201C63.0024 82.341 63.7679 82.1986 64.5363 82.193C64.4152 82.0439 64.3018 81.9042 64.1959 81.7738C64.0899 81.6433 63.984 81.5129 63.8781 81.3825C64.642 80.7622 65.4152 80.1344 66.1977 79.499C66.9802 78.8635 67.7441 78.2432 68.4893 77.6381C70.4258 80.0229 72.385 82.4356 74.3669 84.8762C76.3337 87.2983 78.2853 89.7017 80.2218 92.0864C79.4766 92.6916 78.7127 93.3119 77.9302 93.9473C77.1477 94.5827 76.3745 95.2106 75.6106 95.8309ZM69.7646 94.4566C70.6589 93.7305 71.1114 92.822 71.1222 91.7311C71.133 90.6403 70.7072 89.5639 69.8448 88.5019C68.9825 87.44 68.024 86.8116 66.9693 86.6169C65.8995 86.4036 64.9174 86.66 64.0231 87.3862C63.1102 88.1275 62.6408 89.0343 62.6149 90.1064C62.6076 91.1635 63.0427 92.2323 63.9202 93.3129C64.7977 94.3935 65.762 95.0481 66.8132 95.2766C67.8678 95.4713 68.8517 95.198 69.7646 94.4566ZM83.2992 89.5875C81.3627 87.2027 79.4111 84.7993 77.4443 82.3773C75.4624 79.9366 73.5032 77.5239 71.5667 75.1392C72.3306 74.5189 73.1038 73.891 73.8863 73.2556C74.6688 72.6202 75.4326 71.9999 76.1779 71.3947C76.2838 71.5252 76.3821 71.6463 76.4729 71.758C76.5637 71.8698 76.662 71.9909 76.7679 72.1213C76.9835 71.3589 77.3231 70.6349 77.7866 69.9493C78.2536 69.23 78.8505 68.5753 79.5771 67.9853C80.639 67.1229 81.7673 66.6087 82.9617 66.4425C84.1749 66.2613 85.3757 66.4455 86.5641 66.9954C87.7561 67.5114 88.8665 68.4029 89.8952 69.6698C91.0753 71.123 92.2629 72.5856 93.4581 74.0574C94.6533 75.5293 95.8409 76.9918 97.021 78.445C96.2757 79.0502 95.5118 79.6705 94.7293 80.3059C93.9468 80.9413 93.1737 81.5692 92.4098 82.1894C91.3205 80.848 90.2161 79.4879 89.0965 78.1093C87.977 76.7306 86.8726 75.3705 85.7833 74.0291C85.1781 73.2838 84.517 72.8314 83.7999 72.6717C83.0864 72.4782 82.3569 72.6841 81.6117 73.2892C80.8665 73.8944 80.4629 74.5776 80.401 75.339C80.3391 76.1003 80.6334 76.8816 81.2839 77.6827C82.3732 79.0241 83.4776 80.3842 84.5972 81.7629C85.7167 83.1416 86.8211 84.5017 87.9104 85.8431C87.1652 86.4482 86.4013 87.0685 85.6188 87.704C84.8363 88.3394 84.0631 88.9672 83.2992 89.5875ZM107.273 62.7001C108.211 63.8552 108.657 65.0702 108.61 66.3449C108.566 67.5859 108.14 68.8128 107.332 70.0257C106.524 71.2385 105.426 72.3616 104.04 73.395C102.686 74.4319 101.162 75.3145 99.4653 76.0428C98.8904 75.3348 98.3004 74.6082 97.6952 73.8629C97.0901 73.1177 96.5 72.3911 95.9251 71.6831C96.9951 71.4017 98.0045 71.0457 98.9534 70.6153C99.8872 70.1662 100.686 69.703 101.35 69.2259C102.013 68.7488 102.488 68.2862 102.773 67.8381C103.044 67.3713 103.042 66.9702 102.77 66.6349C102.558 66.374 102.224 66.3053 101.768 66.4285C101.33 66.5367 100.805 66.7467 100.193 67.0585C99.565 67.3517 98.885 67.6565 98.1527 67.973C97.4238 68.2556 96.6699 68.4504 95.8911 68.5573C95.0971 68.6456 94.3131 68.5557 93.539 68.2877C92.7684 67.986 92.0275 67.3973 91.3165 66.5216C90.4693 65.4783 90.0487 64.3513 90.0549 63.1405C90.0645 61.896 90.4304 60.6714 91.1526 59.4667C91.8596 58.2434 92.8465 57.1173 94.1134 56.0885C95.3803 55.0598 96.8492 54.2226 98.5199 53.5769C99.0948 54.2849 99.6849 55.0115 100.29 55.7567C100.895 56.502 101.485 57.2286 102.06 57.9366C100.608 58.2808 99.3579 58.7397 98.3088 59.3133C97.2597 59.887 96.5086 60.4659 96.0556 61.0502C95.5875 61.6159 95.5122 62.0943 95.8299 62.4856C96.0417 62.7464 96.3665 62.8227 96.8043 62.7146C97.2455 62.5727 97.7631 62.3534 98.3569 62.0567C98.9693 61.7449 99.64 61.4476 100.369 61.1649C101.116 60.8671 101.878 60.6816 102.653 60.6085C103.432 60.5016 104.214 60.6084 105 60.9287C105.789 61.2154 106.547 61.8058 107.273 62.7001ZM118.101 68.7471C117.672 67.4571 117.245 66.1502 116.819 64.8264C116.427 63.5061 116.024 62.2103 115.61 60.9389C112.994 59.5074 110.345 58.0724 107.662 56.6338C104.983 55.1616 102.335 53.7097 99.7196 52.2782C100.539 51.6125 101.359 50.9468 102.179 50.2812C102.999 49.6155 103.809 48.9574 104.61 48.3068C106.063 49.1059 107.531 49.9235 109.014 50.7598C110.515 51.581 112 52.4004 113.468 53.2181C112.931 51.6439 112.397 50.053 111.864 48.4451C111.331 46.8372 110.804 45.2555 110.283 43.7001C111.084 43.0495 111.886 42.399 112.687 41.7484C113.488 41.0979 114.289 40.4473 115.09 39.7968C116.368 43.9218 117.675 48.101 119.01 52.3343C120.349 56.5338 121.658 60.6961 122.936 64.8211C122.135 65.4717 121.324 66.1298 120.505 66.7954C119.704 67.446 118.902 68.0965 118.101 68.7471Z" fill="#FBF6F2"/>
</g>
<path d="M211.18 440.159V271.806C211.18 198.706 115.028 196.617 115.028 271.806" stroke="#036F62" stroke-width="4"/>
<path d="M204.059 152.913L204.059 306.944C204.059 380.045 300.21 382.134 300.21 306.944" stroke="#036F62" stroke-width="4"/>
<path d="M203.574 437.198V267.963C203.574 212.816 126.626 202.687 121.66 267.962" stroke="#6CBDAA" stroke-width="4"/>
<path d="M211.664 151.318V310.788C211.664 365.935 288.613 376.063 293.579 310.788" stroke="#6CBDAA" stroke-width="4"/>
<path d="M204.059 173.319V477.65" stroke="#6CBDAA" stroke-width="4"/>
<path d="M211.047 177.393L211.047 477.353" stroke="#036F62" stroke-width="4"/>
<path d="M207.381 229.148V363.368" stroke="#FBF6F2" stroke-width="3"/>
<path d="M157.893 137.252C151.258 145.613 152.657 157.77 161.018 164.406C169.379 171.041 181.536 169.641 188.172 161.28C181.899 156.302 181.394 155.901 173.032 149.266C164.671 142.631 164.602 142.576 157.893 137.252Z" fill="#FE9973"/>
<path d="M201.939 47.3008C197.598 37.5494 186.173 33.1635 176.422 37.5047C166.67 41.8459 162.285 53.2702 166.626 63.0216C173.941 59.7649 174.531 59.5028 184.282 55.1616C194.034 50.8204 194.114 50.7842 201.939 47.3008Z" fill="#FE9973"/>
<path d="M257.825 135.516C268.238 137.862 278.581 131.323 280.927 120.91C283.273 110.497 276.734 100.153 266.321 97.8072C264.561 105.619 264.418 106.249 262.072 116.662C259.726 127.075 259.707 127.161 257.825 135.516Z" fill="#FE9973"/>
<path d="M148.918 97.3732C138.452 99.4696 131.667 109.654 133.764 120.12C135.86 130.586 146.044 137.371 156.51 135.275C154.938 127.423 154.811 126.79 152.715 116.324C150.618 105.858 150.601 105.771 148.918 97.3732Z" fill="#F88256"/>
<path d="M241.443 57.8007C244.428 47.5526 238.541 36.8248 228.292 33.8395C218.044 30.8541 207.317 36.7417 204.331 46.9898C212.019 49.2294 212.639 49.4103 222.887 52.3957C233.135 55.381 233.22 55.4052 241.443 57.8007Z" fill="#F88256"/>
<path d="M225.799 160.917C232.233 169.434 244.353 171.124 252.87 164.69C261.388 158.257 263.077 146.137 256.644 137.619C250.254 142.446 249.739 142.834 241.221 149.268C232.704 155.701 232.634 155.755 225.799 160.917Z" fill="#F88256"/>
<path d="M205.674 108.134L157.883 137.276L188.152 161.296L205.674 108.134Z" fill="#FE9973"/>
<path d="M205.638 103.132L201.923 47.2803L166.621 62.996L205.638 103.132Z" fill="#FE9973"/>
<path d="M210.847 105.12L257.85 135.515L266.343 97.8179L210.847 105.12Z" fill="#FE9973"/>
<path d="M204.201 106.011L148.895 97.3845L156.485 135.274L204.201 106.011Z" fill="#F88256"/>
<path d="M208.201 102.809L241.444 57.7747L204.344 46.9673L208.201 102.809Z" fill="#F88256"/>
<path d="M209.573 107.368L225.818 160.934L256.653 137.644L209.573 107.368Z" fill="#F88256"/>
<path d="M204.349 106.861L186.271 117.946L186.304 118.234L185.402 118.415C180.774 119.342 176.27 116.342 175.343 111.715C174.416 107.087 177.417 102.583 182.045 101.656L182.97 101.471L183.044 101.754L203.981 105.021L206.668 105.44L204.349 106.861Z" fill="#6697DC" stroke="#FBF6F2" stroke-width="2"/>
<path d="M207.38 102.545L205.92 81.3894L205.649 81.2855L205.907 80.4021C207.227 75.871 211.97 73.2667 216.501 74.5867C221.033 75.9068 223.636 80.6513 222.316 85.1826L222.052 86.0879L221.767 86.0227L209.182 103.071L207.567 105.258L207.38 102.545Z" fill="#6697DC" stroke="#FBF6F2" stroke-width="2"/>
<path d="M210.275 106.866L228.111 118.338L228.356 118.183L228.911 118.917C231.755 122.683 231.009 128.042 227.243 130.887C223.476 133.732 218.116 132.984 215.272 129.218L214.704 128.466L214.927 128.276L208.777 107.997L207.988 105.395L210.275 106.866Z" fill="#6697DC" stroke="#FBF6F2" stroke-width="2"/>
<path d="M206.54 108.433L200.025 128.556L200.266 128.747L199.652 129.53C196.738 133.242 191.366 133.889 187.653 130.975C183.941 128.061 183.293 122.689 186.207 118.976L186.692 118.359L186.926 118.465L205.063 107.274L207.377 105.847L206.54 108.433Z" fill="#6697DC" stroke="#FBF6F2" stroke-width="2"/>
<path d="M204.972 103.761L190.149 88.673L189.868 88.7981L189.458 87.8914C187.516 83.59 189.429 78.5282 193.73 76.5858C198.031 74.6436 203.094 76.5555 205.036 80.8568L205.359 81.5724L205.156 81.7312L206.682 102.988L206.877 105.7L204.972 103.761Z" fill="#6697DC" stroke="#FBF6F2" stroke-width="2"/>
<path d="M210.741 104.209L231.696 101.339L231.764 101.039L232.736 101.252C237.345 102.265 240.261 106.824 239.248 111.433C238.235 116.043 233.677 118.96 229.068 117.947L228.301 117.778L228.295 117.52L210.339 106.042L208.048 104.578L210.741 104.209Z" fill="#6697DC" stroke="#FBF6F2" stroke-width="2"/>
<path d="M104.082 418.946C106.328 429.191 116.454 435.675 126.698 433.43C136.943 431.184 143.428 421.058 141.182 410.813C133.496 412.498 132.877 412.633 122.632 414.879C112.387 417.125 112.303 417.144 104.082 418.946Z" fill="#FE9973"/>
<path d="M62.943 329.545C52.8219 326.795 42.3875 332.77 39.6371 342.891C36.8867 353.012 42.8619 363.447 52.983 366.197C55.0463 358.604 55.213 357.993 57.9634 347.871C60.7138 337.75 60.7361 337.667 62.943 329.545Z" fill="#FE9973"/>
<path d="M164.821 341.776C173.074 335.304 174.518 323.367 168.046 315.114C161.574 306.86 149.637 305.416 141.384 311.888C146.239 318.08 146.63 318.579 153.102 326.832C159.574 335.086 159.628 335.153 164.821 341.776Z" fill="#FE9973"/>
<path d="M68.1433 401.014C63.2398 410.285 66.7806 421.776 76.0519 426.679C85.3231 431.583 96.8141 428.042 101.718 418.771C94.7623 415.092 94.2019 414.795 84.9306 409.892C75.6593 404.988 75.5827 404.948 68.1433 401.014Z" fill="#F88256"/>
<path d="M95.4714 305.987C89.5221 297.349 77.6972 295.17 69.0596 301.119C60.4221 307.068 58.2428 318.893 64.1921 327.531C70.672 323.068 71.1945 322.708 79.832 316.759C88.4696 310.81 88.5405 310.76 95.4714 305.987Z" fill="#F88256"/>
<path d="M164.273 381.937C174.754 382.328 183.567 374.149 183.958 363.668C184.349 353.187 176.17 344.373 165.689 343.982C165.396 351.845 165.372 352.479 164.98 362.96C164.589 373.441 164.587 373.527 164.273 381.937Z" fill="#F88256"/>
<path d="M111.583 364.481L104.093 418.969L141.181 410.838L111.583 364.481Z" fill="#FE9973"/>
<path d="M107.751 361.402L62.9169 329.545L52.9601 366.185L107.751 361.402Z" fill="#FE9973"/>
<path d="M112.501 358.67L164.835 341.756L141.406 311.879L112.501 358.67Z" fill="#FE9973"/>
<path d="M109.053 364.283L68.1375 401.038L101.701 418.79L109.053 364.283Z" fill="#F88256"/>
<path d="M109.098 359.249L95.4522 305.969L64.183 327.507L109.098 359.249Z" fill="#F88256"/>
<path d="M113.422 361.037L164.298 381.932L165.713 343.99L113.422 361.037Z" fill="#F88256"/>
<path d="M109.808 364.702L107.024 385.341L107.268 385.497L106.837 386.31C104.665 390.418 99.5727 391.988 95.4646 389.815C91.3567 387.642 89.7881 382.55 91.9606 378.442L92.4017 377.609L92.6683 377.73L108.149 363.824L110.172 362.007L109.808 364.702Z" fill="#6697DC" stroke="#FBF6F2" stroke-width="2"/>
<path d="M108.377 359.726L91.3709 347.706L91.1193 347.85L90.5976 347.092C87.9617 343.265 88.9266 338.025 92.7539 335.389C96.5811 332.753 101.821 333.719 104.457 337.546L104.992 338.323L104.761 338.503L109.924 358.662L110.598 361.296L108.377 359.726Z" fill="#6697DC" stroke="#FBF6F2" stroke-width="2"/>
<path d="M113.47 360.173L133.271 353.719L133.306 353.431L134.225 353.466C138.869 353.639 142.494 357.545 142.321 362.189C142.147 366.832 138.241 370.457 133.598 370.284L132.655 370.248L132.649 369.955L113.4 362.049L110.885 361.016L113.47 360.173Z" fill="#6697DC" stroke="#FBF6F2" stroke-width="2"/>
<path d="M112.364 363.998L123.634 381.445L123.934 381.379L124.153 382.35C125.172 386.884 122.321 391.386 117.788 392.405C113.254 393.424 108.751 390.575 107.732 386.041L107.56 385.275L107.791 385.16L110.532 364.41L110.889 361.714L112.364 363.998Z" fill="#6697DC" stroke="#FBF6F2" stroke-width="2"/>
<path d="M107.82 362.317L87.1377 364.233L87.057 364.53L86.0952 364.274C81.6045 363.079 78.9326 358.469 80.1274 353.978C81.3225 349.487 85.9321 346.815 90.4229 348.01L91.1816 348.212L91.1764 348.47L108.302 360.503L110.526 362.067L107.82 362.317Z" fill="#6697DC" stroke="#FBF6F2" stroke-width="2"/>
<path d="M111.727 358.177L122.549 340.448L122.359 340.206L123.139 339.587C126.78 336.701 132.074 337.313 134.961 340.955C137.847 344.597 137.236 349.889 133.594 352.776L132.979 353.264L132.775 353.106L112.893 359.647L110.31 360.496L111.727 358.177Z" fill="#6697DC" stroke="#FBF6F2" stroke-width="2"/>
<path d="M300.915 172.381C304.417 162.504 315.263 157.335 325.14 160.836C335.018 164.338 340.187 175.183 336.686 185.061C329.275 182.434 328.678 182.223 318.8 178.722C308.923 175.22 308.841 175.191 300.915 172.381Z" fill="#FE9973"/>
<path d="M249.005 255.899C238.629 257.366 229.027 250.144 227.56 239.767C226.092 229.39 233.314 219.789 243.691 218.321C244.792 226.106 244.881 226.733 246.349 237.11C247.816 247.487 247.828 247.572 249.005 255.899Z" fill="#FE9973"/>
<path d="M351.532 256.449C358.91 263.892 358.856 275.907 351.413 283.284C343.969 290.661 331.955 290.608 324.577 283.164C330.161 277.63 330.611 277.184 338.055 269.806C345.498 262.429 345.56 262.369 351.532 256.449Z" fill="#FE9973"/>
<path d="M263.052 185.689C259.344 175.887 264.285 164.935 274.087 161.227C283.889 157.519 294.841 162.459 298.549 172.261C291.195 175.043 290.603 175.268 280.801 178.976C270.999 182.683 270.918 182.714 263.052 185.689Z" fill="#F88256"/>
<path d="M278.323 283.303C271.35 291.126 259.355 291.815 251.531 284.842C243.708 277.869 243.019 265.874 249.992 258.051C255.861 263.282 256.334 263.704 264.158 270.677C271.981 277.65 272.045 277.708 278.323 283.303Z" fill="#F88256"/>
<path d="M355.985 216.563C366.425 217.48 374.145 226.686 373.229 237.126C372.312 247.565 363.106 255.286 352.666 254.369C353.354 246.537 353.409 245.906 354.325 235.466C355.242 225.026 355.25 224.94 355.985 216.563Z" fill="#F88256"/>
<path d="M301.575 227.314L300.929 172.361L336.688 185.036L301.575 227.314Z" fill="#FE9973"/>
<path d="M297.393 229.89L248.979 255.896L243.666 218.331L297.393 229.89Z" fill="#FE9973"/>
<path d="M301.763 233.189L351.544 256.47L324.598 283.177L301.763 233.189Z" fill="#FE9973"/>
<path d="M299.041 227.195L263.049 185.664L298.534 172.24L299.041 227.195Z" fill="#F88256"/>
<path d="M298.461 232.192L278.302 283.318L249.981 258.074L298.461 232.192Z" fill="#F88256"/>
<path d="M302.97 230.958L356.01 216.571L352.693 254.365L302.97 230.958Z" fill="#F88256"/>
<path d="M299.845 226.874L299.651 206.066L299.913 205.941L299.588 205.081C297.945 200.737 293.091 198.547 288.747 200.191C284.404 201.834 282.215 206.687 283.858 211.031L284.192 211.913L284.472 211.825L298.089 227.539L299.869 229.593L299.845 226.874Z" fill="#6697DC" stroke="#FBF6F2" stroke-width="2"/>
<path d="M297.804 231.628L279.448 241.43L279.217 241.255L278.604 241.942C275.515 245.408 275.82 250.725 279.287 253.815C282.753 256.905 288.069 256.598 291.158 253.132L291.786 252.428L291.579 252.22L299.206 232.877L300.204 230.348L297.804 231.628Z" fill="#6697DC" stroke="#FBF6F2" stroke-width="2"/>
<path d="M302.91 231.821L321.738 240.682L321.737 240.972L322.653 241.053C327.279 241.459 331.36 238.038 331.766 233.411C332.172 228.785 328.75 224.706 324.124 224.3L323.185 224.218L323.142 224.508L303.074 229.951L300.45 230.662L302.91 231.821Z" fill="#6697DC" stroke="#FBF6F2" stroke-width="2"/>
<path d="M302.29 227.891L315.634 211.996L315.924 212.098L316.262 211.162C317.836 206.794 315.57 201.975 311.201 200.4C306.833 198.826 302.014 201.091 300.439 205.459L300.173 206.198L300.388 206.341L300.525 227.254L300.542 229.973L302.29 227.891Z" fill="#6697DC" stroke="#FBF6F2" stroke-width="2"/>
<path d="M297.575 228.989L277.309 224.517L277.266 224.213L276.28 224.346C271.678 224.972 268.455 229.211 269.081 233.813C269.707 238.414 273.945 241.637 278.547 241.011L279.325 240.905L279.352 240.649L297.827 230.849L300.229 229.575L297.575 228.989Z" fill="#6697DC" stroke="#FBF6F2" stroke-width="2"/>
<path d="M300.932 233.583L309.456 252.505L309.238 252.722L309.934 253.432C313.185 256.748 318.51 256.799 321.826 253.548C325.141 250.296 325.193 244.972 321.942 241.656L321.392 241.096L321.17 241.228L302.272 232.269L299.816 231.104L300.932 233.583Z" fill="#6697DC" stroke="#FBF6F2" stroke-width="2"/>
<circle cx="6.7522" cy="6.7522" r="6.7522" transform="matrix(-0.0102822 0.999947 0.999947 0.0102822 194.127 147.3)" fill="#6CBDAA"/>
<circle cx="214.407" cy="154.262" r="6.7522" transform="rotate(90.5891 214.407 154.262)" fill="#6CBDAA"/>
<rect width="23.079" height="13.5021" transform="matrix(-0.0102822 0.999947 0.999947 0.0102822 194.066 153.462)" fill="#6CBDAA"/>
<rect x="221.163" y="153.741" width="23.079" height="13.5021" transform="rotate(90.5891 221.163 153.741)" fill="#6CBDAA"/>
<path d="M207.243 189.763C207.321 182.237 207.244 189.693 207.321 182.237C207.397 174.78 207.314 182.939 207.382 176.262C199.926 176.185 199.514 176.181 193.881 176.123C193.804 183.58 199.787 189.687 207.243 189.763Z" fill="#036F62"/>
<path d="M207.243 189.763C207.32 182.237 207.243 189.694 207.32 182.237C207.397 174.78 207.313 182.939 207.381 176.262C214.838 176.339 215.25 176.343 220.883 176.401C220.806 183.857 214.699 189.84 207.243 189.763Z" fill="#036F62"/>
<path d="M194.026 157.43C193.949 164.956 194.025 157.5 193.949 164.956C193.872 172.413 193.956 164.254 193.887 170.931C201.344 171.008 201.755 171.012 207.389 171.07C207.465 163.614 201.483 157.507 194.026 157.43Z" fill="#036F62"/>
<path d="M221.123 157.709C221.045 165.235 221.122 157.779 221.045 165.235C220.969 172.692 221.052 164.533 220.984 171.21C213.527 171.133 213.116 171.129 207.482 171.071C207.559 163.615 213.666 157.632 221.123 157.709Z" fill="#036F62"/>
<rect width="5.19164" height="13.5021" transform="matrix(-0.0102822 0.999947 0.999947 0.0102822 193.887 170.931)" fill="#036F62"/>
<rect x="220.983" y="171.21" width="5.19164" height="13.5021" transform="rotate(90.5891 220.983 171.21)" fill="#036F62"/>
<path d="M207.53 175.957L207.987 149.46" stroke="#FBF6F2" stroke-width="3"/>
<circle cx="6.63458" cy="6.63458" r="6.63458" transform="matrix(0.0102822 -0.999947 -0.999947 -0.0102822 131.538 309.104)" fill="#6CBDAA"/>
<circle cx="111.612" cy="302.264" r="6.63458" transform="rotate(-89.4109 111.612 302.264)" fill="#6CBDAA"/>
<rect width="22.677" height="13.2669" transform="matrix(0.0102822 -0.999947 -0.999947 -0.0102822 131.599 303.049)" fill="#6CBDAA"/>
<rect x="104.974" y="302.775" width="22.677" height="13.2669" transform="rotate(-89.4109 104.974 302.775)" fill="#6CBDAA"/>
<path d="M118.65 267.381C118.574 274.776 118.65 267.449 118.574 274.776C118.499 282.103 118.582 274.086 118.514 280.647C125.841 280.722 126.245 280.726 131.78 280.783C131.856 273.456 125.977 267.456 118.65 267.381Z" fill="#036F62"/>
<path d="M118.652 267.38C118.576 274.776 118.651 267.449 118.576 274.776C118.5 282.102 118.583 274.086 118.515 280.647C111.188 280.571 110.784 280.567 105.249 280.51C105.324 273.184 111.325 267.305 118.652 267.38Z" fill="#036F62"/>
<path d="M131.638 299.151C131.714 291.755 131.638 299.082 131.714 291.755C131.789 284.429 131.707 292.445 131.774 285.884C124.447 285.809 124.043 285.805 118.508 285.748C118.432 293.075 124.311 299.075 131.638 299.151Z" fill="#036F62"/>
<path d="M105.013 298.876C105.089 291.481 105.014 298.808 105.089 291.481C105.165 284.154 105.082 292.171 105.15 285.61C112.477 285.686 112.881 285.69 118.416 285.747C118.341 293.073 112.34 298.952 105.013 298.876Z" fill="#036F62"/>
<rect width="5.10121" height="13.2669" transform="matrix(0.0102822 -0.999947 -0.999947 -0.0102822 131.774 285.885)" fill="#036F62"/>
<rect x="105.15" y="285.61" width="5.10121" height="13.2669" transform="rotate(-89.4109 105.15 285.61)" fill="#036F62"/>
<path d="M118.369 280.946L117.921 306.982" stroke="#FBF6F2" stroke-width="3"/>
<circle cx="6.62938" cy="6.62938" r="6.62938" transform="matrix(-0.0102822 0.999947 0.999947 0.0102822 285.78 272.452)" fill="#6CBDAA"/>
<circle cx="305.692" cy="279.286" r="6.62938" transform="rotate(90.5891 305.692 279.286)" fill="#6CBDAA"/>
<rect width="22.6592" height="13.2565" transform="matrix(-0.0102822 0.999947 0.999947 0.0102822 285.721 278.501)" fill="#6CBDAA"/>
<rect x="312.324" y="278.776" width="22.6592" height="13.2565" transform="rotate(90.5891 312.324 278.776)" fill="#6CBDAA"/>
<path d="M298.659 314.143C298.735 306.753 298.659 314.074 298.735 306.753C298.81 299.432 298.727 307.442 298.795 300.887C291.474 300.812 291.07 300.807 285.539 300.75C285.464 308.071 291.338 314.067 298.659 314.143Z" fill="#036F62"/>
<path d="M298.658 314.142C298.734 306.753 298.658 314.074 298.734 306.753C298.809 299.432 298.727 307.442 298.794 300.887C306.115 300.962 306.519 300.966 312.05 301.023C311.975 308.344 305.979 314.218 298.658 314.142Z" fill="#036F62"/>
<path d="M285.681 282.397C285.605 289.787 285.681 282.466 285.605 289.787C285.53 297.108 285.612 289.098 285.545 295.653C292.866 295.729 293.27 295.733 298.801 295.79C298.876 288.469 293.002 282.473 285.681 282.397Z" fill="#036F62"/>
<path d="M312.285 282.671C312.209 290.061 312.284 282.74 312.209 290.061C312.133 297.381 312.216 289.371 312.148 295.927C304.827 295.852 304.423 295.847 298.893 295.791C298.968 288.47 304.964 282.596 312.285 282.671Z" fill="#036F62"/>
<rect width="5.09721" height="13.2565" transform="matrix(-0.0102822 0.999947 0.999947 0.0102822 285.545 295.653)" fill="#036F62"/>
<rect x="312.147" y="295.927" width="5.09721" height="13.2565" transform="rotate(90.5891 312.147 295.927)" fill="#036F62"/>
<path d="M298.939 300.587L299.387 274.572" stroke="#FBF6F2" stroke-width="3"/>
</svg>
