<svg width="208" height="167" viewBox="0 0 208 167" fill="none" xmlns="http://www.w3.org/2000/svg">
<circle cx="6.7522" cy="6.7522" r="6.7522" transform="matrix(-0.0102822 0.999947 0.999947 0.0102822 89.2178 0)" fill="#6CBDAA"/>
<circle cx="109.498" cy="6.96171" r="6.7522" transform="rotate(90.5891 109.498 6.96171)" fill="#6CBDAA"/>
<rect width="23.079" height="13.5021" transform="matrix(-0.0102822 0.999947 0.999947 0.0102822 89.1572 6.16211)" fill="#6CBDAA"/>
<rect x="116.254" y="6.44141" width="23.079" height="13.5021" transform="rotate(90.5891 116.254 6.44141)" fill="#6CBDAA"/>
<path d="M102.334 42.4634C102.412 34.9371 102.335 42.3937 102.412 34.9371C102.488 27.4805 102.404 35.6391 102.473 28.9621C95.0164 28.8854 94.6049 28.8812 88.9717 28.8232C88.895 36.2798 94.8776 42.3868 102.334 42.4634Z" fill="#036F62"/>
<path d="M102.333 42.4636C102.411 34.9372 102.334 42.3938 102.411 34.9372C102.488 27.4806 102.404 35.6393 102.472 28.9622C109.929 29.0389 110.34 29.0432 115.974 29.1011C115.897 36.5577 109.79 42.5403 102.333 42.4636Z" fill="#036F62"/>
<path d="M89.117 10.1303C89.0396 17.6567 89.1162 10.2001 89.0396 17.6567C88.9629 25.1133 89.0468 16.9546 88.9781 23.6317C96.4347 23.7084 96.8463 23.7125 102.479 23.7705C102.556 16.3139 96.5736 10.207 89.117 10.1303Z" fill="#036F62"/>
<path d="M116.213 10.409C116.136 17.9353 116.213 10.4787 116.136 17.9353C116.059 25.3919 116.143 17.2332 116.075 23.9103C108.618 23.8336 108.206 23.8294 102.573 23.7715C102.65 16.3149 108.757 10.3323 116.213 10.409Z" fill="#036F62"/>
<rect width="5.19164" height="13.5021" transform="matrix(-0.0102822 0.999947 0.999947 0.0102822 88.9775 23.6313)" fill="#036F62"/>
<rect x="116.074" y="23.9106" width="5.19164" height="13.5021" transform="rotate(90.5891 116.074 23.9106)" fill="#036F62"/>
<path d="M102.621 28.6572L103.077 2.15978" stroke="#FBF6F2" stroke-width="3"/>
<circle cx="6.63458" cy="6.63458" r="6.63458" transform="matrix(0.0102822 -0.999947 -0.999947 -0.0102822 26.6289 161.804)" fill="#6CBDAA"/>
<circle cx="6.70245" cy="154.964" r="6.63458" transform="rotate(-89.4109 6.70245 154.964)" fill="#6CBDAA"/>
<rect width="22.677" height="13.2669" transform="matrix(0.0102822 -0.999947 -0.999947 -0.0102822 26.6895 155.75)" fill="#6CBDAA"/>
<rect x="0.0644531" y="155.475" width="22.677" height="13.2669" transform="rotate(-89.4109 0.0644531 155.475)" fill="#6CBDAA"/>
<path d="M13.7413 120.081C13.6653 127.476 13.7406 120.149 13.6653 127.476C13.5899 134.803 13.6724 126.786 13.6049 133.347C20.9316 133.422 21.336 133.426 26.8711 133.483C26.9464 126.157 21.068 120.156 13.7413 120.081Z" fill="#036F62"/>
<path d="M13.7424 120.081C13.6664 127.476 13.7417 120.149 13.6664 127.476C13.5911 134.803 13.6735 126.786 13.606 133.347C6.27932 133.272 5.87493 133.267 0.339844 133.21C0.415182 125.884 6.41573 120.005 13.7424 120.081Z" fill="#036F62"/>
<path d="M26.7284 151.851C26.8045 144.456 26.7291 151.782 26.8045 144.456C26.8798 137.129 26.7974 145.145 26.8648 138.585C19.5381 138.509 19.1337 138.505 13.5986 138.448C13.5233 145.775 19.4017 151.776 26.7284 151.851Z" fill="#036F62"/>
<path d="M0.104232 151.577C0.180276 144.181 0.104937 151.508 0.180276 144.181C0.255615 136.855 0.173182 144.871 0.240645 138.31C7.56736 138.386 7.97175 138.39 13.5068 138.447C13.4315 145.773 7.43095 151.652 0.104232 151.577Z" fill="#036F62"/>
<rect width="5.10121" height="13.2669" transform="matrix(0.0102822 -0.999947 -0.999947 -0.0102822 26.8652 138.585)" fill="#036F62"/>
<rect x="0.241211" y="138.31" width="5.10121" height="13.2669" transform="rotate(-89.4109 0.241211 138.31)" fill="#036F62"/>
<path d="M13.46 133.646L13.0117 159.682" stroke="#FBF6F2" stroke-width="3"/>
<circle cx="6.62938" cy="6.62938" r="6.62938" transform="matrix(-0.0102822 0.999947 0.999947 0.0102822 180.871 125.152)" fill="#6CBDAA"/>
<circle cx="200.783" cy="131.987" r="6.62938" transform="rotate(90.5891 200.783 131.987)" fill="#6CBDAA"/>
<rect width="22.6592" height="13.2565" transform="matrix(-0.0102822 0.999947 0.999947 0.0102822 180.812 131.202)" fill="#6CBDAA"/>
<rect x="207.415" y="131.476" width="22.6592" height="13.2565" transform="rotate(90.5891 207.415 131.476)" fill="#6CBDAA"/>
<path d="M193.749 166.843C193.825 159.453 193.75 166.774 193.825 159.453C193.901 152.132 193.818 160.143 193.886 153.587C186.565 153.512 186.161 153.508 180.63 153.451C180.555 160.772 186.428 166.767 193.749 166.843Z" fill="#036F62"/>
<path d="M193.749 166.843C193.825 159.453 193.749 166.774 193.825 159.453C193.9 152.132 193.817 160.142 193.885 153.587C201.206 153.662 201.61 153.666 207.141 153.723C207.065 161.044 201.07 166.918 193.749 166.843Z" fill="#036F62"/>
<path d="M180.772 135.098C180.696 142.487 180.771 135.166 180.696 142.487C180.621 149.808 180.703 141.798 180.636 148.353C187.957 148.429 188.361 148.433 193.892 148.49C193.967 141.169 188.093 135.173 180.772 135.098Z" fill="#036F62"/>
<path d="M207.375 135.371C207.3 142.761 207.375 135.44 207.3 142.761C207.224 150.082 207.307 142.071 207.239 148.627C199.918 148.552 199.514 148.548 193.983 148.491C194.059 141.17 200.055 135.296 207.375 135.371Z" fill="#036F62"/>
<rect width="5.09721" height="13.2565" transform="matrix(-0.0102822 0.999947 0.999947 0.0102822 180.636 148.353)" fill="#036F62"/>
<rect x="207.238" y="148.627" width="5.09721" height="13.2565" transform="rotate(90.5891 207.238 148.627)" fill="#036F62"/>
<path d="M194.03 153.288L194.478 127.272" stroke="#FBF6F2" stroke-width="3"/>
</svg>
