<svg width="689" height="478" viewBox="0 0 689 478" fill="none" xmlns="http://www.w3.org/2000/svg">
<circle cx="477.603" cy="238.801" r="194.434" fill="#4C4C4C"/>
<circle cx="479.559" cy="238.148" r="200.958" stroke="#3C3C3C" stroke-width="16.964"/>
<rect width="477.602" height="477.602" rx="66.5511" fill="#FBF6F2"/>
<circle cx="477.602" cy="238.8" r="100.479" fill="#4C4C4C"/>
<circle cx="477.602" cy="238.801" r="90.0398" fill="#F4E3D5"/>
<circle cx="477.602" cy="238.801" r="30.0133" fill="#FE9973"/>
<mask id="mask0_69_193" style="mask-type:alpha" maskUnits="userSpaceOnUse" x="0" y="0" width="478" height="478">
<rect width="477.602" height="477.602" rx="66.5511" transform="matrix(-1 0 0 1 477.603 0)" fill="#2F4ECD"/>
</mask>
<g mask="url(#mask0_69_193)">
<rect width="55.49" height="363.299" transform="matrix(-0.626116 -0.77973 -0.77973 0.626116 249.945 -25.1646)" fill="#F4E3D5"/>
<path d="M50.092 116.553C47.5503 113.423 44.9784 110.256 42.3762 107.051C39.774 103.846 37.2021 100.679 34.6604 97.5492C35.8156 96.6112 36.9707 95.6732 38.1258 94.7352C39.2996 93.7821 40.4547 92.8441 41.5912 91.9212C43.0258 90.7563 44.501 90.0221 46.0168 89.7187C47.5175 89.3966 48.9669 89.4873 50.3649 89.9906C51.7629 90.4939 52.999 91.4069 54.0732 92.7297C55.1322 94.0339 55.7646 95.4218 55.9702 96.8934C56.1945 98.3498 56.0136 99.7642 55.4277 101.137C54.8603 102.494 53.9339 103.694 52.6483 104.738C52.2385 105.071 51.8286 105.404 51.4187 105.737C51.0275 106.055 50.6269 106.38 50.217 106.713C51.0037 107.681 51.798 108.66 52.5998 109.647C53.4016 110.635 54.1959 111.613 54.9826 112.581C54.1815 113.232 53.371 113.89 52.5513 114.556C51.7315 115.221 50.9117 115.887 50.092 116.553ZM45.1541 96.3088C44.8187 96.5811 44.474 96.861 44.12 97.1485C43.7847 97.4208 43.4493 97.6931 43.114 97.9654C43.7191 98.7107 44.3318 99.4652 44.9521 100.229C45.5573 100.974 46.1624 101.72 46.7676 102.465C47.1402 102.162 47.5222 101.852 47.9134 101.534C48.3233 101.202 48.7145 100.884 49.0872 100.581C49.6647 100.112 49.9565 99.5198 49.9625 98.8038C49.9872 98.0727 49.7423 97.3904 49.2279 96.757C48.6984 96.1049 48.0641 95.7235 47.3248 95.6127C46.5856 95.5019 45.862 95.7339 45.1541 96.3088ZM75.6106 95.8309C75.4896 95.6818 75.3762 95.5421 75.2702 95.4117C75.1492 95.2626 75.0357 95.1229 74.9298 94.9925C74.7818 95.7619 74.4929 96.4912 74.0631 97.1803C73.6671 97.8728 73.1337 98.4915 72.463 99.0361C71.5128 99.8077 70.4748 100.357 69.3489 100.684C68.208 100.992 67.0391 101.075 65.8424 100.934C64.6492 100.759 63.488 100.357 62.359 99.7283C61.2485 99.0842 60.2319 98.1939 59.309 97.0574C58.371 95.9022 57.7008 94.7152 57.2983 93.4962C56.9145 92.262 56.7745 91.0617 56.8785 89.8953C56.9859 88.695 57.3151 87.5775 57.8661 86.5427C58.4019 85.4893 59.1356 84.5844 60.0671 83.8279C60.7378 83.2833 61.4621 82.8807 62.2398 82.6201C63.0024 82.341 63.7679 82.1986 64.5363 82.193C64.4152 82.0439 64.3018 81.9042 64.1959 81.7738C64.0899 81.6433 63.984 81.5129 63.8781 81.3825C64.642 80.7622 65.4152 80.1344 66.1977 79.499C66.9802 78.8635 67.7441 78.2432 68.4893 77.6381C70.4258 80.0229 72.385 82.4356 74.3669 84.8762C76.3337 87.2983 78.2853 89.7017 80.2218 92.0864C79.4766 92.6916 78.7127 93.3119 77.9302 93.9473C77.1477 94.5827 76.3745 95.2106 75.6106 95.8309ZM69.7646 94.4566C70.6589 93.7305 71.1114 92.822 71.1222 91.7311C71.133 90.6403 70.7072 89.5639 69.8448 88.5019C68.9825 87.44 68.024 86.8116 66.9693 86.6169C65.8995 86.4036 64.9174 86.66 64.0231 87.3862C63.1102 88.1275 62.6408 89.0343 62.6149 90.1064C62.6076 91.1635 63.0427 92.2323 63.9202 93.3129C64.7977 94.3935 65.762 95.0481 66.8132 95.2766C67.8678 95.4713 68.8517 95.198 69.7646 94.4566ZM83.2992 89.5875C81.3627 87.2027 79.4111 84.7993 77.4443 82.3773C75.4624 79.9366 73.5032 77.5239 71.5667 75.1392C72.3306 74.5189 73.1038 73.891 73.8863 73.2556C74.6688 72.6202 75.4326 71.9999 76.1779 71.3947C76.2838 71.5252 76.3821 71.6463 76.4729 71.758C76.5637 71.8698 76.662 71.9909 76.7679 72.1213C76.9835 71.3589 77.3231 70.6349 77.7866 69.9493C78.2536 69.23 78.8505 68.5753 79.5771 67.9853C80.639 67.1229 81.7673 66.6087 82.9617 66.4425C84.1749 66.2613 85.3757 66.4455 86.5641 66.9954C87.7561 67.5114 88.8665 68.4029 89.8952 69.6698C91.0753 71.123 92.2629 72.5856 93.4581 74.0574C94.6533 75.5293 95.8409 76.9918 97.021 78.445C96.2757 79.0502 95.5118 79.6705 94.7293 80.3059C93.9468 80.9413 93.1737 81.5692 92.4098 82.1894C91.3205 80.848 90.2161 79.4879 89.0965 78.1093C87.977 76.7306 86.8726 75.3705 85.7833 74.0291C85.1781 73.2838 84.517 72.8314 83.7999 72.6717C83.0864 72.4782 82.3569 72.6841 81.6117 73.2892C80.8665 73.8944 80.4629 74.5776 80.401 75.339C80.3391 76.1003 80.6334 76.8816 81.2839 77.6827C82.3732 79.0241 83.4776 80.3842 84.5972 81.7629C85.7167 83.1416 86.8211 84.5017 87.9104 85.8431C87.1652 86.4482 86.4013 87.0685 85.6188 87.704C84.8363 88.3394 84.0631 88.9672 83.2992 89.5875ZM107.273 62.7001C108.211 63.8552 108.657 65.0702 108.61 66.3449C108.566 67.5859 108.14 68.8128 107.332 70.0257C106.524 71.2385 105.426 72.3616 104.04 73.395C102.686 74.4319 101.162 75.3145 99.4653 76.0428C98.8904 75.3348 98.3004 74.6082 97.6952 73.8629C97.0901 73.1177 96.5 72.3911 95.9251 71.6831C96.9951 71.4017 98.0045 71.0457 98.9534 70.6153C99.8872 70.1662 100.686 69.703 101.35 69.2259C102.013 68.7488 102.488 68.2862 102.773 67.8381C103.044 67.3713 103.042 66.9702 102.77 66.6349C102.558 66.374 102.224 66.3053 101.768 66.4285C101.33 66.5367 100.805 66.7467 100.193 67.0585C99.565 67.3517 98.885 67.6565 98.1527 67.973C97.4238 68.2556 96.6699 68.4504 95.8911 68.5573C95.0971 68.6456 94.3131 68.5557 93.539 68.2877C92.7684 67.986 92.0275 67.3973 91.3165 66.5216C90.4693 65.4783 90.0487 64.3513 90.0549 63.1405C90.0645 61.896 90.4304 60.6714 91.1526 59.4667C91.8596 58.2434 92.8465 57.1173 94.1134 56.0885C95.3803 55.0598 96.8492 54.2226 98.5199 53.5769C99.0948 54.2849 99.6849 55.0115 100.29 55.7567C100.895 56.502 101.485 57.2286 102.06 57.9366C100.608 58.2808 99.3579 58.7397 98.3088 59.3133C97.2597 59.887 96.5086 60.4659 96.0556 61.0502C95.5875 61.6159 95.5122 62.0943 95.8299 62.4856C96.0417 62.7464 96.3665 62.8227 96.8043 62.7146C97.2455 62.5727 97.7631 62.3534 98.3569 62.0567C98.9693 61.7449 99.64 61.4476 100.369 61.1649C101.116 60.8671 101.878 60.6816 102.653 60.6085C103.432 60.5016 104.214 60.6084 105 60.9287C105.789 61.2154 106.547 61.8058 107.273 62.7001ZM118.101 68.7471C117.672 67.4571 117.245 66.1502 116.819 64.8264C116.427 63.5061 116.024 62.2103 115.61 60.9389C112.994 59.5074 110.345 58.0724 107.662 56.6338C104.983 55.1616 102.335 53.7097 99.7196 52.2782C100.539 51.6125 101.359 50.9468 102.179 50.2812C102.999 49.6155 103.809 48.9574 104.61 48.3068C106.063 49.1059 107.531 49.9235 109.014 50.7598C110.515 51.581 112 52.4004 113.468 53.2181C112.931 51.6439 112.397 50.053 111.864 48.4451C111.331 46.8372 110.804 45.2555 110.283 43.7001C111.084 43.0495 111.886 42.399 112.687 41.7484C113.488 41.0979 114.289 40.4473 115.09 39.7968C116.368 43.9218 117.675 48.101 119.01 52.3343C120.349 56.5338 121.658 60.6961 122.936 64.8211C122.135 65.4717 121.324 66.1298 120.505 66.7954C119.704 67.446 118.902 68.0965 118.101 68.7471Z" fill="#FBF6F2"/>
</g>
</svg>
