<svg width="88" height="412" viewBox="0 0 88 412" fill="none" xmlns="http://www.w3.org/2000/svg">
<path d="M24 411.644V41.9273C24 -11.0245 86 -12.5376 86 41.9273V78.9935" stroke="#036F62" stroke-width="3.28782"/>
<path d="M30 411.644V38.1715C30.0001 0.957513 76.9689 -5.87766 80 38.171V77.6647" stroke="#6CBDAA" stroke-width="3.28782"/>
<path d="M0 150.018L19.6709 139.292V160.744L0 150.018Z" fill="#036F62"/>
<path d="M0 233.014L19.6709 222.288V243.74L0 233.014Z" fill="#036F62"/>
<path d="M0 311.018L19.6709 300.292V321.744L0 311.018Z" fill="#036F62"/>
<path d="M0 77.0296L19.6709 66.3036V87.7557L0 77.0296Z" fill="#036F62"/>
<path d="M0 374.434L19.6709 363.708V385.16L0 374.434Z" fill="#036F62"/>
<path d="M55.2832 192.297L35.6123 181.571V203.023L55.2832 192.297Z" fill="#6CBDAA"/>
<path d="M54.2832 391.92L34.6123 381.194V402.646L54.2832 391.92Z" fill="#6CBDAA"/>
</svg>
