<svg width="689" height="478" viewBox="0 0 689 478" fill="none" xmlns="http://www.w3.org/2000/svg">
<circle cx="477.603" cy="238.801" r="194.434" fill="#4C4C4C"/>
<circle cx="479.56" cy="238.148" r="200.958" stroke="#3C3C3C" stroke-width="16.964"/>
<rect x="0.000488281" width="477.602" height="477.602" rx="66.5511" fill="#FBF6F2"/>
<circle cx="477.602" cy="238.8" r="100.479" fill="#4C4C4C"/>
<circle cx="477.602" cy="238.801" r="90.0398" fill="#F4E3D5"/>
<circle cx="477.603" cy="238.801" r="30.0133" fill="#E94812"/>
<mask id="mask0_63_837" style="mask-type:alpha" maskUnits="userSpaceOnUse" x="0" y="0" width="478" height="478">
<rect width="477.602" height="477.602" rx="66.5511" transform="matrix(-1 0 0 1 477.603 0)" fill="#2F4ECD"/>
</mask>
<g mask="url(#mask0_63_837)">
<rect width="55.49" height="363.299" transform="matrix(-0.626116 -0.77973 -0.77973 0.626116 249.945 -25.1646)" fill="#F4E3D5"/>
<path d="M34.5891 126.087C32.0474 122.957 29.4755 119.79 26.8733 116.586C24.2711 113.381 21.6992 110.214 19.1575 107.084C20.2754 106.176 21.3932 105.268 22.5111 104.361C23.6476 103.438 24.7748 102.522 25.8926 101.615C27.3086 100.465 28.7669 99.729 30.2676 99.4069C31.7532 99.0663 33.1781 99.1458 34.5424 99.6456C35.9102 100.112 37.116 100.987 38.1599 102.273C39.0525 103.372 39.6232 104.532 39.872 105.752C40.1208 106.972 40.0826 108.163 39.7575 109.323C41.5164 109.966 43.2904 110.628 45.0795 111.308C46.8721 111.955 48.6479 112.6 50.4068 113.243C49.4939 113.984 48.5809 114.726 47.668 115.467C46.7551 116.208 45.8422 116.95 44.9293 117.691C43.5045 117.117 42.0553 116.531 40.5816 115.935C39.1265 115.323 37.6773 114.738 36.2339 114.178C35.9172 114.436 35.5911 114.7 35.2558 114.973C34.939 115.23 34.6223 115.487 34.3056 115.744C35.1528 116.788 36.0152 117.85 36.8926 118.93C37.7701 120.011 38.6325 121.073 39.4797 122.116C38.6786 122.767 37.8681 123.425 37.0483 124.09C36.2286 124.756 35.4088 125.422 34.5891 126.087ZM29.4782 106.03C29.1801 106.272 28.8727 106.522 28.556 106.779C28.2579 107.021 27.9504 107.271 27.6337 107.528C28.1935 108.217 28.7533 108.907 29.313 109.596C29.8728 110.285 30.4326 110.975 30.9923 111.664C31.3463 111.377 31.7003 111.089 32.0543 110.802C32.4083 110.514 32.7623 110.227 33.1163 109.939C33.6752 109.486 33.9728 108.919 34.0091 108.241C34.0303 107.543 33.8063 106.906 33.3373 106.328C32.8532 105.732 32.2567 105.397 31.5477 105.324C30.8574 105.235 30.1675 105.47 29.4782 106.03ZM63.2856 101.672C62.4388 103.256 61.4349 104.628 60.2739 105.787C59.1129 106.946 57.8507 107.848 56.4873 108.491C55.1576 109.138 53.7902 109.491 52.385 109.55C50.9799 109.609 49.6173 109.339 48.2973 108.742C46.9959 108.129 45.8081 107.161 44.734 105.839C43.8414 104.739 43.2014 103.59 42.8141 102.389C42.4302 101.155 42.2938 99.9209 42.4047 98.687C42.5006 97.4343 42.8536 96.2511 43.464 95.1371C44.0592 94.0045 44.8971 92.9995 45.9777 92.122C46.9465 91.3353 47.9508 90.7826 48.9905 90.464C50.0302 90.1453 51.0733 90.0402 52.1198 90.1488C53.1513 90.2387 54.1617 90.5312 55.1511 91.0262C56.1405 91.5213 57.06 92.1968 57.9096 93.0527C58.7592 93.9086 59.5052 94.9414 60.1474 96.1512C58.6197 97.3917 57.0826 98.6399 55.5363 99.8956C53.9899 101.151 52.4528 102.399 50.9251 103.64C51.854 104.061 52.8493 104.087 53.9112 103.719C54.9916 103.337 56.0547 102.628 57.1004 101.593C58.1648 100.544 59.1524 99.247 60.0632 97.7036C60.5927 98.3557 61.1298 99.0171 61.6744 99.6878C62.219 100.358 62.7561 101.02 63.2856 101.672ZM49.2245 96.3489C48.6842 96.7876 48.3022 97.3452 48.0785 98.0215C47.8734 98.6827 47.8994 99.419 48.1565 100.231C48.9949 99.5497 49.8333 98.8689 50.6717 98.1881C51.5287 97.4922 52.3764 96.8038 53.2148 96.123C52.4768 95.6711 51.7708 95.487 51.0967 95.5706C50.4262 95.6205 49.8021 95.8799 49.2245 96.3489ZM76.892 91.7362C76.771 91.5871 76.6575 91.4474 76.5516 91.317C76.4306 91.1679 76.3171 91.0282 76.2112 90.8978C76.0631 91.6672 75.7742 92.3965 75.3444 93.0856C74.9484 93.7782 74.4151 94.3968 73.7443 94.9414C72.7942 95.713 71.7486 96.2529 70.6076 96.561C69.4666 96.8692 68.2978 96.9527 67.1011 96.8115C65.9078 96.6366 64.7467 96.2346 63.6176 95.6056C62.5072 94.9615 61.4981 94.0805 60.5904 92.9627C59.6675 91.8262 59.0048 90.6484 58.6024 89.4294C58.2185 88.1953 58.071 86.9857 58.1598 85.8006C58.2673 84.6004 58.5965 83.4828 59.1474 82.4481C59.6832 81.3946 60.4169 80.4897 61.3485 79.7332C62.0192 79.1886 62.7434 78.786 63.5212 78.5254C64.2838 78.2463 65.0493 78.1039 65.8176 78.0983C64.9099 76.9804 63.9946 75.8532 63.0717 74.7167C62.1488 73.5802 61.2335 72.4531 60.3258 71.3352C61.0897 70.7149 61.8629 70.0871 62.6454 69.4517C63.4279 68.8162 64.1917 68.196 64.937 67.5908C67.6753 70.963 70.4364 74.3632 73.2201 77.7913C76.0038 81.2194 78.7648 84.6195 81.5032 87.9918C80.7579 88.5969 79.9941 89.2172 79.2116 89.8526C78.4291 90.488 77.6559 91.1159 76.892 91.7362ZM71.0459 90.362C71.9402 89.6358 72.3928 88.7273 72.4035 87.6364C72.4143 86.5456 71.9885 85.4692 71.1262 84.4072C70.2638 83.3453 69.3053 82.7169 68.2506 82.5222C67.1808 82.3089 66.1988 82.5653 65.3045 83.2915C64.3916 84.0328 63.9222 84.9396 63.8962 86.0118C63.889 87.0688 64.3241 88.1377 65.2015 89.2183C66.079 90.2989 67.0433 90.9534 68.0945 91.1819C69.1492 91.3766 70.133 91.1033 71.0459 90.362ZM90.8642 80.3903C88.3225 77.2603 85.7506 74.0931 83.1484 70.8885C80.5462 67.684 77.9743 64.5167 75.4326 61.3867C76.5505 60.479 77.6684 59.5712 78.7862 58.6635C79.9227 57.7406 81.0499 56.8253 82.1678 55.9176C83.5837 54.7678 85.042 54.0319 86.5427 53.7098C88.0283 53.3691 89.4533 53.4487 90.8175 53.9485C92.1853 54.4146 93.3911 55.2904 94.435 56.5759C95.3276 57.6751 95.8983 58.8348 96.1471 60.0549C96.3959 61.275 96.3577 62.4654 96.0326 63.626C97.7915 64.2691 99.5655 64.9309 101.355 65.6112C103.147 66.2579 104.923 66.9027 106.682 67.5459C105.769 68.2872 104.856 69.0285 103.943 69.7698C103.03 70.5111 102.117 71.2524 101.204 71.9938C99.7796 71.4194 98.3304 70.834 96.8567 70.2376C95.4017 69.626 93.9524 69.0405 92.509 68.4813C92.1923 68.7385 91.8663 69.0033 91.5309 69.2756C91.2142 69.5328 90.8974 69.79 90.5807 70.0472C91.4279 71.0905 92.2903 72.1525 93.1678 73.2331C94.0452 74.3137 94.9076 75.3757 95.7548 76.419C94.9537 77.0695 94.1432 77.7276 93.3235 78.3933C92.5037 79.059 91.6839 79.7247 90.8642 80.3903ZM85.7533 60.3331C85.4552 60.5752 85.1478 60.8248 84.8311 61.082C84.533 61.3241 84.2256 61.5737 83.9088 61.8309C84.4686 62.5203 85.0284 63.2096 85.5882 63.8989C86.1479 64.5883 86.7077 65.2776 87.2675 65.967C87.6215 65.6795 87.9755 65.3921 88.3294 65.1046C88.6834 64.8172 89.0374 64.5297 89.3914 64.2423C89.9503 63.7884 90.2479 63.2221 90.2842 62.5434C90.3054 61.8461 90.0815 61.2087 89.6125 60.6311C89.1283 60.0349 88.5318 59.7 87.8228 59.6265C87.1325 59.5378 86.4427 59.7734 85.7533 60.3331ZM114.879 61.6314C113.799 62.5089 112.641 63.1395 111.407 63.5234C110.158 63.8885 108.909 64.0064 107.66 63.8768C106.395 63.7286 105.189 63.3476 104.042 62.7337C102.913 62.1047 101.902 61.2406 101.009 60.1414C100.116 59.0422 99.4783 57.8755 99.0944 56.6414C98.7293 55.3921 98.6114 54.1429 98.741 52.8938C98.8706 51.6447 99.2499 50.4556 99.8788 49.3265C100.493 48.1788 101.34 47.1662 102.421 46.2888C103.52 45.3961 104.685 44.7748 105.915 44.4247C107.149 44.0409 108.391 43.9138 109.64 44.0434C110.889 44.1729 112.078 44.5522 113.207 45.1812C114.355 45.795 115.375 46.6516 116.268 47.7508C117.161 48.85 117.789 50.0243 118.155 51.2735C118.538 52.5077 118.673 53.7586 118.559 55.0263C118.429 56.2755 118.057 57.4739 117.444 58.6216C116.833 59.7355 115.978 60.7388 114.879 61.6314ZM111.498 57.4674C112.411 56.726 112.873 55.81 112.883 54.7191C112.898 53.5946 112.489 52.5199 111.657 51.4952C110.81 50.4519 109.849 49.8404 108.776 49.6608C107.706 49.4475 106.715 49.7115 105.802 50.4528C104.889 51.1941 104.418 52.1177 104.388 53.2237C104.362 54.2959 104.773 55.3537 105.62 56.397C106.452 57.4217 107.411 58.05 108.496 58.282C109.584 58.4802 110.585 58.2087 111.498 57.4674ZM131.834 39.7016C132.772 40.8567 133.218 42.0717 133.171 43.3464C133.127 44.5874 132.701 45.8143 131.893 47.0272C131.085 48.24 129.987 49.3631 128.601 50.3965C127.247 51.4334 125.723 52.316 124.026 53.0443C123.451 52.3363 122.861 51.6097 122.256 50.8644C121.651 50.1192 121.061 49.3926 120.486 48.6846C121.556 48.4032 122.566 48.0472 123.514 47.6168C124.448 47.1677 125.247 46.7045 125.911 46.2274C126.574 45.7503 127.049 45.2877 127.334 44.8396C127.605 44.3728 127.603 43.9717 127.331 43.6364C127.119 43.3755 126.785 43.3068 126.329 43.43C125.891 43.5382 125.366 43.7482 124.754 44.06C124.126 44.3532 123.446 44.658 122.714 44.9745C121.985 45.2571 121.231 45.4519 120.452 45.5588C119.658 45.6471 118.874 45.5572 118.1 45.2892C117.329 44.9875 116.589 44.3988 115.878 43.5231C115.03 42.4798 114.61 41.3528 114.616 40.142C114.626 38.8975 114.991 37.6729 115.714 36.4682C116.421 35.2449 117.408 34.1188 118.674 33.09C119.941 32.0613 121.41 31.2241 123.081 30.5784C123.656 31.2864 124.246 32.013 124.851 32.7582C125.456 33.5035 126.046 34.2301 126.621 34.9381C125.169 35.2823 123.919 35.7412 122.87 36.3148C121.821 36.8885 121.07 37.4674 120.617 38.0517C120.148 38.6174 120.073 39.0958 120.391 39.4871C120.603 39.7479 120.928 39.8242 121.365 39.7161C121.807 39.5742 122.324 39.3549 122.918 39.0582C123.53 38.7464 124.201 38.4491 124.93 38.1664C125.677 37.8686 126.439 37.6831 127.214 37.61C127.993 37.5031 128.775 37.6099 129.561 37.9302C130.35 38.2169 131.108 38.8073 131.834 39.7016ZM149.581 31.5971C148.735 33.1813 147.731 34.553 146.57 35.7122C145.409 36.8714 144.147 37.7727 142.783 38.4161C141.453 39.063 140.086 39.4159 138.681 39.4749C137.276 39.5339 135.913 39.2646 134.593 38.667C133.292 38.0543 132.104 37.0865 131.03 35.7637C130.137 34.6645 129.497 33.5147 129.11 32.3143C128.726 31.0802 128.59 29.8461 128.701 28.6121C128.796 27.3595 129.149 26.1762 129.76 25.0623C130.355 23.9297 131.193 22.9247 132.273 22.0472C133.242 21.2605 134.247 20.7078 135.286 20.3891C136.326 20.0704 137.369 19.9654 138.416 20.0739C139.447 20.1639 140.457 20.4563 141.447 20.9514C142.436 21.4464 143.356 22.1219 144.205 22.9778C145.055 23.8337 145.801 24.8666 146.443 26.0763C144.915 27.3169 143.378 28.565 141.832 29.8207C140.286 31.0764 138.749 32.3246 137.221 33.5652C138.15 33.9857 139.145 34.0122 140.207 33.6446C141.287 33.2619 142.351 32.5532 143.396 31.5185C144.461 30.4688 145.448 29.1722 146.359 27.6287C146.888 28.2808 147.426 28.9422 147.97 29.6129C148.515 30.2836 149.052 30.945 149.581 31.5971ZM135.52 26.2741C134.98 26.7128 134.598 27.2703 134.374 27.9466C134.169 28.6078 134.195 29.3442 134.452 30.1557C135.291 29.4749 136.129 28.7941 136.967 28.1133C137.824 27.4173 138.672 26.729 139.511 26.0482C138.773 25.5963 138.067 25.4121 137.393 25.4958C136.722 25.5456 136.098 25.8051 135.52 26.2741Z" fill="#FBF6F2"/>
</g>
</svg>
