<svg width="117" height="156" viewBox="0 0 117 156" fill="none" xmlns="http://www.w3.org/2000/svg">
<path d="M6.30085 146.734C6.30082 148.422 7.65389 149.782 9.33554 149.635C29.4803 147.87 71.4807 129.516 78.2595 91.5876C78.2904 91.4147 78.3058 91.24 78.3058 91.0644C78.3058 65.8913 78.3058 29.5019 78.3058 12.2235C78.3058 10.7753 77.2912 9.53072 75.8588 9.31747C51.1167 5.63391 15.7865 21.433 6.41786 53.7363C6.33973 54.0057 6.30078 54.2844 6.30078 54.5649C6.30092 85.041 6.30127 124.899 6.30085 146.734Z" fill="#E94812"/>
<path d="M18.4737 153.102C18.4737 154.201 19.3518 155.092 20.4508 155.07C34.8974 154.782 65.4767 150.897 70.3484 118.084C70.3625 117.989 70.3699 117.892 70.3699 117.796C70.3699 95.8495 70.3699 63.939 70.3699 49.3C70.3699 48.3856 69.749 47.5879 68.8502 47.4198C50.9804 44.077 25.2649 57.7135 18.5279 85.7198C18.4919 85.8696 18.4736 86.0263 18.4736 86.1804C18.4737 112.62 18.474 135.297 18.4737 153.102Z" fill="#D13B09"/>
<path d="M44.4209 38.1707C44.4209 37.0714 45.3 36.1865 46.395 36.2828C60.6941 37.5399 90.9186 51.7417 95.7517 81.2318C95.7688 81.336 95.7774 81.4412 95.7774 81.5468C95.7774 101.175 95.7774 129.653 95.7774 142.887C95.7774 143.817 95.1346 144.618 94.2195 144.787C76.5484 148.035 51.1651 140.635 44.4866 115.554C44.4431 115.391 44.4209 115.222 44.4209 115.053C44.421 91.2593 44.4213 55.3497 44.4209 38.1707Z" fill="#E94812"/>
<path d="M4.74362e-05 91.2887C2.42828e-05 92.3879 0.87904 93.2733 1.97514 93.1905C16.1259 92.1211 45.98 80.165 50.7918 55.3539C50.8154 55.2325 50.8271 55.1097 50.8271 54.9861C50.8271 38.5898 50.8271 14.9024 50.8271 3.63349C50.8271 2.67904 50.1505 1.86296 49.2054 1.73003C31.7406 -0.726448 6.72393 9.56395 0.0885162 30.6499C0.0293794 30.8378 4.66689e-07 31.033 1.42643e-06 31.23C9.81914e-05 51.0932 0.000347103 77.0618 4.74362e-05 91.2887Z" fill="#E94812"/>
<path d="M116.477 138.75C116.478 140.438 115.123 141.792 113.449 141.572C93.3063 138.93 51.2969 111.888 44.5185 73.9141C44.4876 73.7412 44.4725 73.5657 44.4725 73.3901C44.4725 48.314 44.4725 20.6858 44.4725 4.23834C44.4725 2.79019 45.4872 1.54382 46.9135 1.29309C71.6549 -3.05649 106.988 2.48218 116.359 34.6987C116.438 34.968 116.478 35.2463 116.478 35.5268C116.477 66.1272 116.477 116.028 116.477 138.75Z" fill="#D13B09"/>
<path d="M97.0098 137.564C81.0931 130.445 47.7358 106.678 43.6719 70.7525C43.6719 32.9654 44.1799 7.22634 44.1799 0.107031" stroke="#FBF6F2" stroke-width="2.73985"/>
<path d="M66.0225 143.042C51.2911 133.184 45.1953 126.612 43.1634 113.469C43.1634 75.6818 43.1634 80.6107 43.1634 73.4914" stroke="#FBF6F2" stroke-width="2.73985"/>
<path d="M0.493616 94.3013C9.63725 94.3013 29.4484 89.3725 43.6719 72.9433" stroke="#FBF6F2" stroke-width="2.73985"/>
<path d="M17.2568 90.468L17.2568 153.994" stroke="#FBF6F2" stroke-width="2.73985"/>
</svg>
