<svg width="131" height="273" viewBox="0 0 131 273" fill="none" xmlns="http://www.w3.org/2000/svg">
<rect x="87" y="116" width="3" height="157" fill="#6CBDAA"/>
<rect x="82" y="116" width="3" height="157" fill="#036F62"/>
<path d="M126 6.78232C126 5.242 124.758 3.99557 123.224 4.13235C106.886 5.58903 73.5144 19.1131 68.0508 46.8579C68.0171 47.0293 68.0005 47.2028 68.0005 47.3775C68.0005 65.7135 68.0005 92.0732 68.0005 104.987C68.0005 106.327 68.9484 107.483 70.2766 107.653C90.1623 110.207 118.318 98.5872 125.874 74.9469C125.959 74.6819 126 74.4061 126 74.1279C126 51.9087 126 22.9734 126 6.78232Z" fill="#E94812"/>
<path d="M79.4595 233.913V221.968C79.4595 194.875 79.4593 181.329 74.1868 170.981C69.5489 161.879 62.1484 154.478 53.046 149.84C42.698 144.568 29.1517 144.567 2.0592 144.567H2.28882e-05L79.4595 233.913Z" fill="#6CBDAA"/>
<path d="M0 147.982V159.927C0 187.02 0.000166626 200.566 5.27269 210.914C9.91059 220.017 17.3111 227.417 26.4135 232.055C36.7615 237.327 50.3077 237.328 77.4003 237.328H79.4594L0 147.982Z" fill="#036F62"/>
<path d="M116.001 1.8133C116.001 0.810306 115.197 -0.00244855 114.194 0.0193482C102.689 0.26943 78.8618 3.27055 75.0233 27.3355C75.0086 27.4279 75.001 27.5226 75.001 27.6161C75.001 43.705 75.001 67.0118 75.001 77.9562C75.001 78.8008 75.5819 79.5316 76.4151 79.6694C90.5115 82.0017 110.628 71.9326 115.945 51.3583C115.982 51.2133 116.001 51.0611 116.001 50.9113C116.001 31.549 116.001 14.9175 116.001 1.8133Z" fill="#D13B09"/>
<path d="M95.0009 86.1948C95.001 87.1978 94.1956 88.0035 93.1967 87.9122C81.6977 86.8613 57.8821 76.3449 54.0282 54.6637C54.01 54.5615 54.001 54.4584 54.001 54.3547C54.001 39.9559 54.001 19.1556 54.001 9.23605C54.001 8.37647 54.6021 7.63854 55.4503 7.49902C69.5336 5.18245 89.6005 10.6882 94.9318 29.1361C94.9778 29.2952 95.001 29.4597 95.001 29.6254C95.0009 47.1016 95.0007 73.3524 95.0009 86.1948Z" fill="#E94812"/>
<path d="M131 47.8116C131 46.8086 130.195 45.997 129.195 46.074C117.707 46.9582 93.9263 55.7949 90.0386 74.0105C90.013 74.1305 90.0005 74.2522 90.0005 74.375C90.0005 86.356 90.0005 103.568 90.0005 112.015C90.0005 112.896 90.6315 113.654 91.5064 113.761C105.564 115.48 125.543 107.889 130.905 92.405C130.969 92.2207 131 92.028 131 91.833C131 77.3042 131 58.3918 131 47.8116Z" fill="#E94812"/>
<path d="M38.001 12.777C38.001 11.2367 39.247 9.99564 40.7728 10.2061C56.8466 12.4235 89.5932 32.3301 94.953 60.2019C94.9854 60.37 95.001 60.5407 95.001 60.7118C95.001 79.0324 95.001 99.1807 95.001 111.398C95.001 112.733 94.0592 113.885 92.741 114.095C73.198 117.213 45.5439 113.04 38.1235 89.3963C38.0419 89.1361 38.001 88.8661 38.001 88.5934C38.0011 66.1589 38.0014 29.8138 38.001 12.777Z" fill="#D13B09"/>
<path d="M66 134.5L79.5 127.139V141.861L66 134.5Z" fill="#036F62"/>
<path d="M66 249.5L79.5 242.139V256.861L66 249.5Z" fill="#036F62"/>
<path d="M106 124.5L92.5 117.139V131.861L106 124.5Z" fill="#6CBDAA"/>
<path d="M106 222.5L92.5 215.139V229.861L106 222.5Z" fill="#6CBDAA"/>
<path d="M106 261.5L92.5 254.139V268.861L106 261.5Z" fill="#6CBDAA"/>
<path d="M53.001 13C65.8327 18.2829 92.7248 35.9195 96.001 62.5777C96.001 90.6175 95.5915 109.717 95.5915 115" stroke="#FBF6F2" stroke-width="2.5"/>
<path d="M78.001 9C89.601 16.2287 94.401 21.0476 96.001 30.6853C96.001 58.3938 96.001 54.7796 96.001 60" stroke="#FBF6F2" stroke-width="2.5"/>
<path d="M130.001 45C122.801 45 107.201 48.6923 96.001 61" stroke="#FBF6F2" stroke-width="2.5"/>
<path d="M117.001 48V1" stroke="#FBF6F2" stroke-width="2.5"/>
</svg>
