<svg width="260" height="482" viewBox="0 0 260 482" fill="none" xmlns="http://www.w3.org/2000/svg">
<path d="M78.2188 247.96H82.2188V481.572H78.2188V247.96Z" fill="#036F62"/>
<path d="M84.2178 247.958H88.2178V481.57H84.2178V247.958Z" fill="#6CBDAA"/>
<path d="M127.855 0.00292969H131.855V477.602H127.855V0.00292969Z" fill="#036F62"/>
<path d="M133.854 0H137.854V477.599H133.854V0Z" fill="#6CBDAA"/>
<path d="M92.9189 473.894V457.471C92.9189 420.223 92.9192 401.599 100.168 387.371C106.545 374.857 116.719 364.682 129.234 358.306C143.461 351.057 162.085 351.057 199.333 351.057H202.164L92.9189 473.894Z" fill="#036F62"/>
<path d="M202.165 355.751V372.174C202.165 409.423 202.165 428.047 194.916 442.274C188.539 454.789 178.365 464.963 165.85 471.34C151.623 478.589 132.999 478.589 95.7506 478.589H92.9195L202.165 355.751Z" fill="#6CBDAA"/>
<path d="M150.387 149.169V132.746C150.387 95.4976 150.387 76.8734 157.636 62.6464C164.012 50.1319 174.187 39.9572 186.702 33.5808C200.929 26.3318 219.553 26.3315 256.801 26.3315H259.632L150.387 149.169Z" fill="#036F62"/>
<path d="M259.633 31.026V47.4493C259.633 84.6977 259.633 103.322 252.384 117.549C246.007 130.063 235.832 140.238 223.318 146.615C209.091 153.864 190.467 153.864 153.218 153.864H150.387L259.633 31.026Z" fill="#6CBDAA"/>
<path d="M72.6515 246.41C73.3498 245.163 74.6603 244.383 76.0892 244.365L90.9336 244.171C92.3625 244.152 93.6928 244.898 94.4235 246.126L102.013 258.884C102.744 260.113 102.764 261.637 102.066 262.884L94.8111 275.837C94.1128 277.083 92.8023 277.863 91.3734 277.882L76.529 278.075C75.1001 278.094 73.7698 277.349 73.0391 276.121L65.4493 263.362C64.7186 262.134 64.6987 260.609 65.3971 259.362L72.6515 246.41Z" fill="#FE9973"/>
<path d="M93.1322 242.418C88.1159 242.528 94.8708 242.38 88.9197 242.51C82.9685 242.64 84.4609 242.607 84.4609 242.607C84.4609 242.607 83.7889 211.768 83.5103 198.982C89.4614 198.852 92.6072 218.325 93.1322 242.418Z" fill="#FFCECE"/>
<path d="M73.8487 243.189C78.8649 243.08 72.3205 243.223 78.2716 243.093C84.2228 242.963 82.7304 242.996 82.7304 242.996C82.7304 242.996 82.0584 212.157 81.7797 199.37C75.8286 199.5 73.3237 219.096 73.8487 243.189Z" fill="#FFB1B1"/>
<path d="M104.472 259.481C101.916 255.163 105.358 260.977 102.326 255.855C99.2933 250.733 100.054 252.018 100.054 252.018C100.054 252.018 126.597 236.303 137.602 229.787C140.635 234.91 125.21 247.204 104.472 259.481Z" fill="#FFCECE"/>
<path d="M95.0584 243.035C97.6146 247.352 94.2797 241.719 97.3122 246.841C100.345 251.964 99.5843 250.679 99.5843 250.679C99.5843 250.679 126.127 234.965 137.133 228.449C134.1 223.327 115.796 230.757 95.0584 243.035Z" fill="#FFB1B1"/>
<path d="M95.9423 278.39C98.3584 273.992 95.1048 279.914 97.9713 274.697C100.838 269.48 100.119 270.788 100.119 270.788C100.119 270.788 127.153 285.642 138.362 291.801C135.496 297.018 117.063 289.995 95.9423 278.39Z" fill="#FFCECE"/>
<path d="M105.31 261.917C102.894 266.314 106.046 260.577 103.18 265.794C100.313 271.011 101.032 269.703 101.032 269.703C101.032 269.703 128.066 284.556 139.276 290.715C142.142 285.498 126.431 273.522 105.31 261.917Z" fill="#FFB1B1"/>
<path d="M74.3841 279.798C79.4015 279.802 72.645 279.796 78.5976 279.801C84.5501 279.806 83.0574 279.805 83.0574 279.805C83.0574 279.805 83.031 310.651 83.0199 323.441C77.0674 323.436 74.3634 303.897 74.3841 279.798Z" fill="#FFCECE"/>
<path d="M93.333 280.092C88.3155 280.087 94.8615 280.093 88.909 280.088C82.9564 280.083 84.4491 280.084 84.4491 280.084C84.4491 280.084 84.4226 310.93 84.4117 323.72C90.3643 323.725 93.3123 304.191 93.333 280.092Z" fill="#FFB1B1"/>
<path d="M62.9397 263.233C65.604 267.485 62.0162 261.759 65.1771 266.803C68.338 271.847 67.5453 270.583 67.5453 270.583C67.5453 270.583 41.4074 286.962 30.5697 293.753C27.4089 288.709 42.5187 276.03 62.9397 263.233Z" fill="#FFCECE"/>
<path d="M72.9277 279.827C70.3268 275.536 73.7201 281.134 70.6344 276.044C67.5487 270.953 68.3225 272.23 68.3225 272.23C68.3225 272.23 41.9445 288.22 31.0073 294.849C34.0929 299.94 52.319 292.319 72.9277 279.827Z" fill="#FFB1B1"/>
<path d="M71.6181 243.607C69.3502 248.082 72.4042 242.056 69.7136 247.365C67.0229 252.675 67.6976 251.344 67.6976 251.344C67.6976 251.344 39.8137 237.214 28.2521 231.355C30.9427 226.045 49.8329 232.567 71.6181 243.607Z" fill="#FFCECE"/>
<path d="M62.6387 260.558C64.9728 256.117 61.9276 261.911 64.6967 256.642C67.4659 251.373 66.7715 252.694 66.7715 252.694C66.7715 252.694 39.4667 238.345 28.1452 232.395C25.376 237.664 41.306 249.347 62.6387 260.558Z" fill="#FFB1B1"/>
</svg>
