<svg width="176" height="150" viewBox="0 0 176 150" fill="none" xmlns="http://www.w3.org/2000/svg">
<path d="M90.8242 95.2476V82.5131C90.8242 53.6309 90.8244 39.1899 96.4452 28.1583C101.389 18.4546 109.279 10.5653 118.983 5.62099C130.014 0.000177633 144.455 0 173.337 0H175.533L90.8242 95.2476Z" fill="#036F62"/>
<path d="M175.533 3.64009V16.3746C175.533 45.2568 175.533 59.6978 169.912 70.7294C164.968 80.4331 157.079 88.3224 147.375 93.2667C136.343 98.8875 121.902 98.8877 93.0201 98.8877H90.8249L175.533 3.64009Z" fill="#6CBDAA"/>
<path d="M74.7705 145.893V134.652C74.7705 109.158 74.7704 96.4115 69.809 86.6741C65.4448 78.1089 58.481 71.1451 49.9157 66.7809C40.1784 61.8195 27.4315 61.8193 1.93776 61.8193H0.000106812L74.7705 145.893Z" fill="#6CBDAA"/>
<path d="M0 65.0322V76.2727C0 101.766 0.000156793 114.513 4.96154 124.251C9.32574 132.816 16.2896 139.78 24.8548 144.144C34.5921 149.105 47.339 149.105 72.8327 149.105H74.7704L0 65.0322Z" fill="#036F62"/>
</svg>
