<svg width="225" height="211" viewBox="0 0 225 211" fill="none" xmlns="http://www.w3.org/2000/svg">
<path d="M107.657 72.7353C110.441 71.1276 113.872 71.1276 116.657 72.7353L137.872 84.9838C140.656 86.5915 142.372 89.5626 142.372 92.778V117.275C142.372 120.49 140.656 123.461 137.872 125.069L116.657 137.318C113.872 138.925 110.441 138.925 107.657 137.318L86.4418 125.069C83.6572 123.461 81.9419 120.49 81.9419 117.275V92.778C81.9419 89.5626 83.6572 86.5915 86.4419 84.9838L107.657 72.7353Z" fill="#FE9973"/>
<path d="M143.78 84.8261C135.952 80.3975 146.493 86.361 137.206 81.1071C127.92 75.8532 130.249 77.1707 130.249 77.1707C130.249 77.1707 157.474 29.048 168.763 9.09479C178.049 14.3487 165.051 47.2288 143.78 84.8261Z" fill="#FFCECE"/>
<path d="M113.367 68.3417C121.195 72.7703 110.983 66.9926 120.269 72.2465C129.556 77.5004 127.227 76.1829 127.227 76.1829C127.227 76.1829 154.453 28.0602 165.741 8.10687C156.455 2.85296 134.638 30.7444 113.367 68.3417Z" fill="#FFB1B1"/>
<path d="M145.613 121.503C145.631 112.509 145.606 124.62 145.628 113.951C145.651 103.281 145.645 105.956 145.645 105.956C145.645 105.956 200.935 106.073 223.861 106.121C223.838 116.791 188.81 121.594 145.613 121.503Z" fill="#FFCECE"/>
<path d="M146.182 87.5399C146.163 96.5335 146.188 84.8 146.165 95.4697C146.143 106.139 146.148 103.464 146.148 103.464C146.148 103.464 201.439 103.58 224.364 103.628C224.386 92.9584 189.379 87.6307 146.182 87.5399Z" fill="#FFB1B1"/>
<path d="M115.142 142.815C122.894 138.255 112.455 144.395 121.652 138.985C130.848 133.576 128.542 134.932 128.542 134.932C128.542 134.932 156.576 182.589 168.2 202.349C159.003 207.759 137.044 180.048 115.142 142.815Z" fill="#FFCECE"/>
<path d="M144.67 126.023C136.918 130.583 147.032 124.634 137.835 130.044C128.638 135.453 130.945 134.097 130.945 134.097C130.945 134.097 158.978 181.753 170.602 201.513C179.799 196.103 166.572 163.256 144.67 126.023Z" fill="#FFB1B1"/>
<path d="M80.6439 125.227C88.3694 129.832 77.9663 123.631 87.1315 129.094C96.2967 134.557 93.9984 133.187 93.9984 133.187C93.9984 133.187 65.6902 180.681 53.9525 200.373C44.7873 194.911 58.5272 162.333 80.6439 125.227Z" fill="#FFCECE"/>
<path d="M109.565 143.045C101.839 138.44 111.918 144.448 102.753 138.985C93.5879 133.522 95.8862 134.892 95.8862 134.892C95.8862 134.892 67.578 182.386 55.8405 202.078C65.0057 207.541 87.4481 180.151 109.565 143.045Z" fill="#FFB1B1"/>
<path d="M78.1942 89.2235C78.4023 98.2147 78.1221 86.1071 78.369 96.774C78.6159 107.441 78.554 104.766 78.554 104.766C78.554 104.766 23.2784 106.046 0.359301 106.576C0.112386 95.9091 35.0085 90.2231 78.1942 89.2235Z" fill="#FFCECE"/>
<path d="M78.374 123.939C78.2993 114.946 78.3968 126.679 78.3082 116.01C78.2196 105.34 78.2418 108.016 78.2418 108.016C78.2418 108.016 22.9533 108.475 0.0288469 108.665C0.117453 119.335 35.1782 124.298 78.374 123.939Z" fill="#FFB1B1"/>
<path d="M109.547 66.9406C101.952 71.7568 112.18 65.2712 103.169 70.9851C94.1583 76.699 96.4179 75.2662 96.4179 75.2662C96.4179 75.2662 66.4115 27.946 53.9699 8.32544C62.9808 2.61155 86.104 29.9702 109.547 66.9406Z" fill="#FFCECE"/>
<path d="M80.1809 84.8256C87.8469 80.1226 77.8455 86.2584 86.9401 80.6789C96.0348 75.0993 93.7542 76.4985 93.7542 76.4985C93.7542 76.4985 64.8413 29.3707 52.8529 9.82998C43.7583 15.4095 57.5918 48.0056 80.1809 84.8256Z" fill="#FFB1B1"/>
</svg>
