<svg width="1948" height="289" viewBox="0 0 1948 289" fill="none" xmlns="http://www.w3.org/2000/svg">
<path d="M1222 0H1343V265C1343 273.284 1336.28 280 1328 280H1237C1228.72 280 1222 273.284 1222 265V0Z" fill="#FBF6F2"/>
<path d="M1353 0H1474V265C1474 273.284 1467.28 280 1459 280H1368C1359.72 280 1353 273.284 1353 265V0Z" fill="#FBF6F2"/>
<path d="M1484 0H1605V265C1605 273.284 1598.28 280 1590 280H1499C1490.72 280 1484 273.284 1484 265V0Z" fill="#FBF6F2"/>
<path d="M1615 0H1736V265C1736 273.284 1729.28 280 1721 280H1630C1621.72 280 1615 273.284 1615 265V0Z" fill="#FBF6F2"/>
<path d="M1746 0H1948V280H1761C1752.72 280 1746 273.284 1746 265V0Z" fill="#FBF6F2"/>
<rect width="1217" height="280" fill="#FBF6F2"/>
<path d="M1348 103.5V289" stroke="#FFCECE" stroke-width="11"/>
<path d="M1217 103.5V289" stroke="#FFCECE" stroke-width="11"/>
<path d="M1741 125V280" stroke="#FFCECE" stroke-width="11"/>
<path d="M1610 125V280" stroke="#FFCECE" stroke-width="11"/>
<path d="M1479 0V280" stroke="#FFCECE" stroke-width="11"/>
<path d="M6.10352e-05 140L7.62939e-05 280H140L6.10352e-05 140Z" fill="#FFE7E7"/>
</svg>
