<svg width="1948" height="714" viewBox="0 0 1948 714" fill="none" xmlns="http://www.w3.org/2000/svg">
<path d="M974 0C1044.84 0.000189109 1103.31 81.1232 1112.02 186.054C1174.27 85.8645 1274.76 22.3328 1342.58 42.1553L1343.42 42.4033L1344.25 42.6602C1414.47 64.782 1421.88 170.051 1360.63 278.423C1358.93 281.429 1357.2 284.404 1355.42 287.35C1358.4 285.072 1361.42 282.807 1364.5 280.554C1477.67 197.609 1613.2 162.341 1667.96 201.427L1668.6 201.89L1669.23 202.359C1721.01 241.328 1677.15 336.104 1570.96 417.502C1710.6 380.083 1841.05 387.809 1868.86 437.016C1898.06 488.681 1803.13 566.648 1656.47 611.864C1656.67 611.864 1656.87 611.863 1657.06 611.863C1817.74 611.863 1948 657.52 1948 713.841H1320.58L1227.6 713.85H1190.14H732.871H698.453L617.455 713.841H0C0 658.573 125.435 613.574 281.962 611.912C278.606 610.946 275.247 609.955 271.887 608.935C123.439 563.869 26.9382 485.155 56.346 433.122C85.6111 381.342 228.531 375.499 376.212 419.854C267.356 337.61 222.21 240.934 275.483 201.89L276.123 201.427C329.856 163.074 461.35 196.313 573.187 275.935C518.145 171.018 527.618 71.5284 596.269 50.6875L597.103 50.4395C667.633 29.8261 773.487 99.3527 834.927 206.504C837.243 91.8531 898.621 0 974 0Z" fill="#FBF6F2"/>
</svg>
