<svg width="248" height="342" viewBox="0 0 248 342" fill="none" xmlns="http://www.w3.org/2000/svg">
<path d="M45.0521 91.5123L39.1254 101.884C25.6834 125.406 18.9626 137.168 18.4062 148.768C17.9168 158.972 20.6704 169.07 26.2723 177.613C32.6409 187.325 44.4021 194.046 67.9249 207.488L69.7127 208.509L45.0521 91.5123Z" fill="#6CBDAA"/>
<path d="M72.1168 202.623L78.0435 192.252C91.4856 168.729 98.2064 156.967 98.7628 145.367C99.2521 135.163 96.4985 125.066 90.8966 116.523C84.5281 106.811 72.7668 100.09 49.2441 86.6476L47.4562 85.6259L72.1168 202.623Z" fill="#036F62"/>
<path d="M178.637 48.536L173.435 58.4036C161.635 80.7835 155.735 91.9734 155.584 102.818C155.451 112.357 158.341 121.693 163.84 129.489C170.092 138.351 181.281 144.251 203.661 156.05L205.362 156.947L178.637 48.536Z" fill="#6CBDAA"/>
<path d="M208.711 154.187L213.913 144.319C225.713 121.939 231.613 110.749 231.764 99.9049C231.897 90.3659 229.007 81.0295 223.508 73.234C217.257 64.3718 206.067 58.4719 183.687 46.6723L181.986 45.7754L208.711 154.187Z" fill="#036F62"/>
<path d="M236.41 20.5976L233.847 25.7878C228.034 37.5594 225.127 43.4452 220.616 46.81C216.647 49.7698 211.844 51.3973 206.894 51.4593C201.266 51.5298 195.38 48.6232 183.609 42.8098L182.714 42.3679L236.41 20.5976Z" fill="#6CBDAA"/>
<path d="M183.505 38.8204L186.068 33.6301C191.881 21.8585 194.788 15.9728 199.3 12.608C203.268 9.64818 208.071 8.02065 213.021 7.95865C218.649 7.88818 224.535 10.7948 236.306 16.6082L237.201 17.05L183.505 38.8204Z" fill="#036F62"/>
<path d="M38.0966 311.044L41.9529 303.84C50.6992 287.5 55.0724 279.331 61.5928 274.792C67.3283 270.8 74.1806 268.726 81.1673 268.868C89.1102 269.028 97.2797 273.401 113.619 282.148L114.861 282.812L38.0966 311.044Z" fill="#6CBDAA"/>
<path d="M113.759 287.386L109.903 294.59C101.156 310.929 96.7831 319.098 90.2627 323.637C84.5271 327.629 77.6749 329.703 70.6882 329.562C62.7453 329.401 54.5757 325.028 38.2367 316.282L36.9948 315.617L113.759 287.386Z" fill="#036F62"/>
</svg>
