<svg width="689" height="478" viewBox="0 0 689 478" fill="none" xmlns="http://www.w3.org/2000/svg">
<circle cx="477.603" cy="238.801" r="194.434" fill="#4C4C4C"/>
<circle cx="479.56" cy="238.148" r="200.958" stroke="#3C3C3C" stroke-width="16.964"/>
<rect x="0.000488281" width="477.602" height="477.602" rx="66.5511" fill="#E94812"/>
<circle cx="477.602" cy="238.8" r="100.479" fill="#4C4C4C"/>
<circle cx="477.602" cy="238.801" r="90.0398" fill="#FE9973"/>
<circle cx="477.602" cy="238.801" r="30.0133" fill="#CDD993"/>
<mask id="mask0_68_454" style="mask-type:alpha" maskUnits="userSpaceOnUse" x="0" y="0" width="478" height="478">
<rect width="477.602" height="477.602" rx="66.5511" transform="matrix(-1 0 0 1 477.603 0)" fill="#2F4ECD"/>
</mask>
<g mask="url(#mask0_68_454)">
<rect width="55.49" height="363.299" transform="matrix(-0.626116 -0.77973 -0.77973 0.626116 249.945 -25.1646)" fill="#FE9973"/>
<path d="M43.5788 121.179C41.0371 118.049 38.4652 114.882 35.863 111.677C33.2608 108.473 30.6889 105.306 28.1473 102.176C29.2651 101.268 30.3923 100.353 31.5288 99.4297C32.6653 98.5069 33.7925 97.5916 34.9103 96.6838C36.289 95.5643 37.7526 94.7777 39.3011 94.3241C40.8344 93.8519 42.3776 93.6963 43.9305 93.8574C45.4835 94.0185 46.9619 94.4875 48.3656 95.2644C49.7729 96.0076 51.0287 97.0592 52.1332 98.4192C53.2376 99.7793 54.0166 101.234 54.4702 102.782C54.9424 104.315 55.1055 105.868 54.9595 107.439C54.7984 108.992 54.337 110.48 53.5752 111.902C52.7983 113.306 51.7206 114.568 50.3419 115.687C49.224 116.595 48.0968 117.51 46.9603 118.433C45.8238 119.356 44.6967 120.272 43.5788 121.179ZM38.4959 101.099C38.1978 101.341 37.8904 101.591 37.5736 101.848C37.2569 102.105 36.9402 102.363 36.6235 102.62C37.9851 104.297 39.3618 105.992 40.7537 107.706C42.1455 109.42 43.5223 111.116 44.8839 112.792C45.2006 112.535 45.5173 112.278 45.8341 112.021C46.1508 111.764 46.4582 111.514 46.7563 111.272C47.6878 110.515 48.3167 109.634 48.643 108.627C48.9693 107.62 49.0085 106.583 48.7609 105.517C48.4981 104.432 47.9733 103.405 47.1866 102.436C46.3999 101.467 45.5101 100.752 44.5172 100.291C43.5243 99.8295 42.5092 99.6645 41.4719 99.7958C40.4194 99.9084 39.4274 100.343 38.4959 101.099ZM69.4769 100.891C68.3963 101.769 67.239 102.399 66.0048 102.783C64.7556 103.148 63.5064 103.266 62.2573 103.137C60.993 102.988 59.7871 102.607 58.6394 101.993C57.5103 101.365 56.4994 100.5 55.6068 99.4012C54.7142 98.302 54.076 97.1353 53.6922 95.9011C53.327 94.6519 53.2092 93.4027 53.3388 92.1536C53.4683 90.9045 53.8476 89.7154 54.4766 88.5863C55.0904 87.4386 55.9376 86.426 57.0182 85.5485C58.1175 84.6559 59.2824 84.0346 60.513 83.6845C61.7472 83.3007 62.9888 83.1736 64.2379 83.3031C65.487 83.4327 66.6761 83.812 67.8052 84.441C68.9529 85.0548 69.973 85.9113 70.8656 87.0106C71.7582 88.1098 72.3872 89.284 72.7523 90.5333C73.1362 91.7674 73.2709 93.0184 73.1564 94.2861C73.0268 95.5352 72.6551 96.7337 72.0413 97.8814C71.431 98.9953 70.5762 99.9986 69.4769 100.891ZM66.0956 96.7271C67.0085 95.9858 67.4704 95.0697 67.4812 93.9789C67.4955 92.8543 67.0866 91.7797 66.2545 90.755C65.4072 89.7117 64.447 89.1002 63.3737 88.9206C62.3038 88.7073 61.3125 88.9712 60.3996 89.7126C59.4866 90.4539 59.0155 91.3775 58.9861 92.4835C58.9601 93.5557 59.3708 94.6134 60.218 95.6568C61.0501 96.6815 62.0086 97.3098 63.0936 97.5418C64.182 97.74 65.1827 97.4685 66.0956 96.7271ZM88.6655 84.5675C88.5445 84.4184 88.431 84.2787 88.3251 84.1483C88.2041 83.9992 88.0906 83.8595 87.9847 83.7291C87.8366 84.4986 87.5477 85.2278 87.1179 85.9169C86.7219 86.6095 86.1885 87.2281 85.5178 87.7727C84.5676 88.5443 83.5221 89.0842 82.3811 89.3924C81.2401 89.7005 80.0713 89.784 78.8745 89.6428C77.6813 89.4679 76.5202 89.0659 75.3911 88.4369C74.2807 87.7928 73.2716 86.9119 72.3638 85.794C71.441 84.6575 70.7783 83.4798 70.3758 82.2608C69.992 81.0266 69.8445 79.817 69.9333 78.6319C70.0408 77.4317 70.37 76.3142 70.9209 75.2794C71.4567 74.2259 72.1904 73.321 73.122 72.5646C73.7927 72.0199 74.5169 71.6173 75.2946 71.3568C76.0573 71.0776 76.8227 70.9352 77.5911 70.9296C76.6834 69.8117 75.7681 68.6845 74.8452 67.5481C73.9223 66.4116 73.007 65.2844 72.0993 64.1665C72.8632 63.5462 73.6363 62.9184 74.4188 62.283C75.2013 61.6476 75.9652 61.0273 76.7105 60.4221C79.4488 63.7943 82.2098 67.1945 84.9936 70.6226C87.7773 74.0507 90.5383 77.4509 93.2767 80.8231C92.5314 81.4282 91.7676 82.0485 90.9851 82.6839C90.2025 83.3193 89.4294 83.9472 88.6655 84.5675ZM82.8194 83.1933C83.7137 82.4671 84.1662 81.5586 84.177 80.4678C84.1878 79.3769 83.762 78.3005 82.8997 77.2386C82.0373 76.1766 81.0788 75.5483 80.0241 75.3535C78.9543 75.1402 77.9723 75.3966 77.078 76.1228C76.1651 76.8641 75.6956 77.7709 75.6697 78.8431C75.6624 79.9001 76.0975 80.969 76.975 82.0496C77.8525 83.1302 78.8168 83.7847 79.868 84.0132C80.9227 84.2079 81.9065 83.9346 82.8194 83.1933ZM106.132 70.3841C106.011 70.235 105.898 70.0953 105.792 69.9649C105.671 69.8158 105.557 69.6761 105.451 69.5457C105.303 70.3152 105.014 71.0444 104.585 71.7335C104.188 72.4261 103.655 73.0447 102.984 73.5893C102.034 74.3609 100.989 74.9008 99.8477 75.209C98.7067 75.5172 97.5378 75.6006 96.3411 75.4594C95.1479 75.2845 93.9867 74.8825 92.8577 74.2535C91.7472 73.6094 90.7381 72.7285 89.8304 71.6106C88.9075 70.4741 88.2449 69.2964 87.8424 68.0774C87.4586 66.8432 87.3111 65.6336 87.3999 64.4485C87.5073 63.2483 87.8365 62.1308 88.3875 61.096C88.9233 60.0426 89.657 59.1376 90.5885 58.3812C91.2593 57.8365 91.9835 57.4339 92.7612 57.1734C93.5238 56.8942 94.2893 56.7518 95.0577 56.7462C94.1499 55.6283 93.2346 54.5012 92.3118 53.3647C91.3889 52.2282 90.4736 51.101 89.5659 49.9831C90.3297 49.3628 91.1029 48.735 91.8854 48.0996C92.6679 47.4642 93.4318 46.8439 94.177 46.2387C96.9154 49.6109 99.6764 53.0111 102.46 56.4392C105.244 59.8673 108.005 63.2675 110.743 66.6397C109.998 67.2448 109.234 67.8651 108.452 68.5005C107.669 69.136 106.896 69.7638 106.132 70.3841ZM100.286 69.0099C101.18 68.2837 101.633 67.3752 101.644 66.2844C101.654 65.1935 101.229 64.1171 100.366 63.0552C99.5039 61.9932 98.5454 61.3649 97.4907 61.1701C96.4209 60.9568 95.4388 61.2132 94.5445 61.9394C93.6316 62.6807 93.1622 63.5875 93.1363 64.6597C93.129 65.7167 93.5641 66.7856 94.4416 67.8662C95.3191 68.9468 96.2834 69.6013 97.3346 69.8298C98.3893 70.0245 99.3731 69.7512 100.286 69.0099ZM125.849 53.2606C125.002 54.8448 123.998 56.2165 122.837 57.3757C121.676 58.5349 120.414 59.4362 119.05 60.0796C117.721 60.7265 116.353 61.0794 114.948 61.1384C113.543 61.1974 112.18 60.9281 110.86 60.3305C109.559 59.7178 108.371 58.75 107.297 57.4272C106.404 56.328 105.764 55.1782 105.377 53.9778C104.993 52.7437 104.857 51.5096 104.968 50.2756C105.064 49.023 105.417 47.8397 106.027 46.7258C106.622 45.5932 107.46 44.5882 108.541 43.7107C109.51 42.924 110.514 42.3713 111.553 42.0526C112.593 41.7339 113.636 41.6289 114.683 41.7374C115.714 41.8274 116.725 42.1198 117.714 42.6149C118.704 43.11 119.623 43.7854 120.473 44.6413C121.322 45.4972 122.068 46.5301 122.71 47.7398C121.183 48.9804 119.646 50.2285 118.099 51.4842C116.553 52.74 115.016 53.9881 113.488 55.2287C114.417 55.6492 115.412 55.6757 116.474 55.3081C117.555 54.9254 118.618 54.2167 119.663 53.1821C120.728 52.1323 121.715 50.8357 122.626 49.2922C123.156 49.9443 123.693 50.6057 124.237 51.2764C124.782 51.9471 125.319 52.6086 125.849 53.2606ZM111.788 47.9376C111.247 48.3763 110.865 48.9338 110.642 49.6102C110.436 50.2713 110.462 51.0077 110.719 51.8192C111.558 51.1384 112.396 50.4576 113.235 49.7768C114.092 49.0808 114.939 48.3925 115.778 47.7117C115.04 47.2598 114.334 47.0756 113.66 47.1593C112.989 47.2091 112.365 47.4686 111.788 47.9376ZM129.813 51.1541C127.877 48.7693 125.925 46.3659 123.959 43.9439C121.977 41.5032 120.017 39.0905 118.081 36.7057C118.845 36.0854 119.618 35.4576 120.401 34.8222C121.183 34.1867 121.947 33.5665 122.692 32.9613C122.798 33.0917 122.904 33.2221 123.01 33.3525C123.116 33.483 123.222 33.6134 123.328 33.7438C123.572 32.8649 123.975 32.028 124.535 31.233C125.095 30.4381 125.842 29.7392 126.774 29.1364C127.379 29.8816 127.992 30.6362 128.612 31.4001C129.233 32.1639 129.845 32.9185 130.451 33.6637C128.812 34.654 127.828 35.6694 127.499 36.7101C127.154 37.7322 127.397 38.7555 128.229 39.7802C129.243 41.0285 130.272 42.2954 131.316 43.581C132.36 44.8665 133.396 46.1427 134.425 47.4096C133.679 48.0148 132.916 48.6351 132.133 49.2705C131.351 49.9059 130.577 50.5338 129.813 51.1541Z" fill="#E94812"/>
</g>
</svg>
