<svg width="236" height="397" viewBox="0 0 236 397" fill="none" xmlns="http://www.w3.org/2000/svg">
<path d="M150.078 351.315C160.534 347.862 146.454 352.512 158.859 348.415C171.263 344.318 168.152 345.345 168.152 345.345C168.152 345.345 176.055 369.271 179.331 379.191C166.927 383.288 156.252 370.008 150.078 351.315Z" fill="#F4E3D5"/>
<path d="M188.944 337.994C178.489 341.447 192.129 336.942 179.725 341.039C167.321 345.136 170.432 344.108 170.432 344.108C170.432 344.108 178.334 368.034 181.611 377.954C194.015 373.857 195.118 356.686 188.944 337.994Z" fill="#CDD993"/>
<path d="M189.656 336.76C186.202 326.304 190.853 340.384 186.756 327.98C182.659 315.575 183.686 318.686 183.686 318.686C183.686 318.686 207.613 310.783 217.534 307.506C221.631 319.91 208.349 330.585 189.656 336.76Z" fill="#F4E3D5"/>
<path d="M176.741 297.232C180.195 307.688 175.689 294.047 179.786 306.451C183.883 318.855 182.856 315.745 182.856 315.745C182.856 315.745 206.783 307.842 216.704 304.565C212.607 292.161 195.435 291.058 176.741 297.232Z" fill="#CDD993"/>
<path d="M134.943 311.483C138.397 321.938 133.746 307.859 137.843 320.263C141.94 332.667 140.913 329.556 140.913 329.556C140.913 329.556 116.987 337.459 107.067 340.735C102.97 328.331 116.251 317.657 134.943 311.483Z" fill="#F4E3D5"/>
<path d="M147.858 351.01C144.405 340.554 148.91 354.195 144.813 341.791C140.716 329.387 141.744 332.498 141.744 332.498C141.744 332.498 117.818 340.4 107.898 343.677C111.995 356.081 129.166 357.184 147.858 351.01Z" fill="#CDD993"/>
<path d="M160.444 322.377L143.826 327.866L138.491 311.714L155.109 306.225L160.444 322.377Z" fill="#CDD993"/>
<path d="M167.078 342.569L150.233 348.133L144.607 331.102L161.453 325.538L167.078 342.569Z" fill="#F4E3D5"/>
<path d="M179.663 316.028L163.203 321.465L157.751 304.958L174.211 299.521L179.663 316.028Z" fill="#F4E3D5"/>
<path d="M186.028 335.584L169.569 341.021L164.173 324.686L180.633 319.25L186.028 335.584Z" fill="#CDD993"/>
<path d="M174.491 296.932C164.035 300.385 178.114 295.735 165.71 299.832C153.306 303.929 156.417 302.902 156.417 302.902C156.417 302.902 148.514 278.976 145.238 269.056C157.642 264.959 168.317 278.239 174.491 296.932Z" fill="#F4E3D5"/>
<path d="M135.624 310.254C146.079 306.8 132.438 311.306 144.843 307.209C157.247 303.112 154.136 304.139 154.136 304.139C154.136 304.139 146.234 280.214 142.957 270.293C130.553 274.39 129.45 291.561 135.624 310.254Z" fill="#CDD993"/>
<path d="M85.1737 45.6561C74.7182 49.1095 88.7976 44.4591 76.3934 48.5561C63.9893 52.6532 67.0998 51.6258 67.0998 51.6258C67.0998 51.6258 59.1974 27.7003 55.9209 17.7799C68.325 13.6829 78.9997 26.9635 85.1737 45.6561Z" fill="#F4E3D5"/>
<path d="M46.3079 58.9774C56.7634 55.524 43.1226 60.0295 55.5267 55.9324C67.9309 51.8354 64.8203 52.8628 64.8203 52.8628C64.8203 52.8628 56.9179 28.9373 53.6411 19.017C41.237 23.114 40.1338 40.2848 46.3079 58.9774Z" fill="#CDD993"/>
<path d="M45.5962 60.2113C49.0496 70.6669 44.3992 56.5875 48.4962 68.9916C52.5932 81.3957 51.5659 78.2852 51.5659 78.2852C51.5659 78.2852 27.6389 86.1882 17.7179 89.4649C13.6208 77.0607 26.9025 66.3858 45.5962 60.2113Z" fill="#F4E3D5"/>
<path d="M58.5107 99.7388C55.0573 89.2832 59.5628 102.924 55.4658 90.5199C51.3688 78.1158 52.3962 81.2263 52.3962 81.2263C52.3962 81.2263 28.4692 89.1293 18.5483 92.4062C22.6453 104.81 39.817 105.913 58.5107 99.7388Z" fill="#CDD993"/>
<path d="M100.309 85.4886C96.8554 75.0331 101.506 89.1125 97.4087 76.7084C93.3117 64.3043 94.3391 67.4148 94.3391 67.4148C94.3391 67.4148 118.265 59.5123 128.185 56.2358C132.282 68.6399 119.001 79.3146 100.309 85.4886Z" fill="#F4E3D5"/>
<path d="M87.3937 45.9612C90.8471 56.4167 86.3416 42.7759 90.4387 55.18C94.5357 67.5842 93.5083 64.4737 93.5083 64.4737C93.5083 64.4737 117.434 56.5712 127.354 53.2945C123.257 40.8903 106.086 39.7872 87.3937 45.9612Z" fill="#CDD993"/>
<path d="M74.8081 74.5938L91.4256 69.1051L96.7607 85.2575L80.1431 90.7462L74.8081 74.5938Z" fill="#CDD993"/>
<path d="M68.1738 54.4019L85.0192 48.8379L90.6445 65.8692L73.7992 71.4331L68.1738 54.4019Z" fill="#F4E3D5"/>
<path d="M55.5889 80.9429L72.0486 75.5063L77.5009 92.0135L61.0411 97.4501L55.5889 80.9429Z" fill="#F4E3D5"/>
<path d="M49.2236 61.3872L65.6834 55.9506L71.0785 72.2847L54.6187 77.7213L49.2236 61.3872Z" fill="#CDD993"/>
<path d="M60.7614 100.039C71.2169 96.5859 57.1375 101.236 69.5416 97.1392C81.9458 93.0422 78.8352 94.0696 78.8352 94.0696C78.8352 94.0696 86.7377 117.995 90.0142 127.915C77.6101 132.012 66.9354 118.732 60.7614 100.039Z" fill="#F4E3D5"/>
<path d="M99.6282 86.7175C89.1726 90.1709 102.813 85.6654 90.4093 89.7624C78.0052 93.8594 81.1157 92.832 81.1157 92.832C81.1157 92.832 89.0181 116.758 92.2949 126.678C104.699 122.581 105.802 105.41 99.6282 86.7175Z" fill="#CDD993"/>
</svg>
