<svg width="470" height="594" viewBox="0 0 470 594" fill="none" xmlns="http://www.w3.org/2000/svg">
<path d="M310.737 163.337L137.59 486.833C112.792 533.165 53.8369 503.313 79.344 455.657L96.703 423.225" stroke="#036F62" stroke-width="4"/>
<path d="M59.9254 386.723L7.83691 484.03" stroke="#036F62" stroke-width="4"/>
<path d="M467.593 115.417L411.257 220.659" stroke="#036F62" stroke-width="4"/>
<path d="M412.352 218.272L403.484 234.84C378.686 281.172 319.731 251.321 345.238 203.665L362.597 171.232" stroke="#036F62" stroke-width="4"/>
<path d="M43.0441 400.767L51.9122 384.199C76.7108 337.867 135.666 367.718 110.158 415.374L92.7994 447.807" stroke="#6CBDAA" stroke-width="4"/>
<path d="M303.368 159.393L129.158 484.875C111.799 517.307 67.5748 501.299 85.4734 461.494L103.896 427.075" stroke="#6CBDAA" stroke-width="4"/>
<path d="M54.2479 380.213L1.77441 481.058" stroke="#6CBDAA" stroke-width="4"/>
<path d="M461.347 109.08L401.84 220.247" stroke="#6CBDAA" stroke-width="4"/>
<path d="M302.43 161.147L311.298 144.578C336.097 98.2463 395.051 128.098 369.544 175.754L352.185 208.186" stroke="#6CBDAA" stroke-width="4"/>
<path d="M404.957 214.588L395.14 232.929C377.781 265.361 333.557 249.354 351.455 209.548L369.878 175.13" stroke="#6CBDAA" stroke-width="4"/>
<path d="M50.5277 404.498L60.3446 386.157C77.7035 353.725 121.928 369.732 104.03 409.538L85.6073 443.957" stroke="#036F62" stroke-width="4"/>
<path d="M309.825 164.83L319.642 146.489C337 114.056 381.225 130.064 363.326 169.87L344.904 204.288" stroke="#036F62" stroke-width="4"/>
</svg>
