<svg width="90" height="259" viewBox="0 0 90 259" fill="none" xmlns="http://www.w3.org/2000/svg">
<circle cx="9.15516" cy="9.15516" r="9.15516" transform="matrix(-0.883263 -0.468879 -0.468879 0.883263 69.4438 224.642)" fill="#6CBDAA"/>
<circle cx="48.4186" cy="244.721" r="9.15516" transform="rotate(-152.038 48.4186 244.721)" fill="#6CBDAA"/>
<path d="M10.1699 213.904C19.184 218.689 10.2535 213.948 19.184 218.689C28.1144 223.429 18.3431 218.242 26.34 222.487C31.0807 213.557 31.3423 213.064 34.9238 206.317C25.9934 201.577 14.9107 204.973 10.1699 213.904Z" fill="#6CBDAA"/>
<path d="M10.1384 213.962C19.1524 218.747 10.222 214.006 19.1524 218.747C28.0829 223.488 18.3116 218.301 26.3085 222.546C21.5677 231.476 21.306 231.969 17.7246 238.716C8.79414 233.975 5.39767 222.892 10.1384 213.962Z" fill="#6CBDAA"/>
<rect width="31.2923" height="18.3072" transform="matrix(-0.883263 -0.468879 -0.468879 0.883263 62.062 220.727)" fill="#6CBDAA"/>
<rect x="44.8335" y="253.179" width="31.2923" height="18.3072" transform="rotate(-152.038 44.8335 253.179)" fill="#6CBDAA"/>
<path d="M10.1387 213.963C19.1527 218.748 10.2223 214.008 19.1527 218.748C28.0832 223.489 18.3119 218.302 26.3087 222.547C31.0495 213.617 31.3111 213.124 34.8926 206.377C25.9621 201.636 14.8794 205.033 10.1387 213.963Z" fill="#036F62"/>
<path d="M10.1384 213.962C19.1524 218.747 10.222 214.006 19.1524 218.747C28.0829 223.488 18.3116 218.301 26.3085 222.546C21.5677 231.476 21.306 231.969 17.7246 238.716C8.79414 233.975 5.39767 222.892 10.1384 213.962Z" fill="#036F62"/>
<path d="M57.3091 218.205C48.295 213.42 57.2255 218.16 48.295 213.42C39.3646 208.679 49.1359 213.866 41.139 209.621C36.3983 218.551 36.1367 219.044 32.5552 225.791C41.4856 230.532 52.5683 227.135 57.3091 218.205Z" fill="#036F62"/>
<path d="M40.0818 250.657C31.0678 245.872 39.9982 250.612 31.0678 245.872C22.1373 241.131 31.9086 246.318 23.9118 242.073C28.6525 233.142 28.9142 232.65 32.4956 225.903C41.4261 230.644 44.8225 241.726 40.0818 250.657Z" fill="#036F62"/>
<rect width="7.03923" height="18.3072" transform="matrix(-0.883263 -0.468879 -0.468879 0.883263 41.1401 209.621)" fill="#036F62"/>
<rect x="23.9116" y="242.072" width="7.03923" height="18.3072" transform="rotate(-152.038 23.9116 242.072)" fill="#036F62"/>
<path d="M26.5825 222.915L58.2029 239.982" stroke="#E94812" stroke-width="3"/>
<circle cx="9.15516" cy="9.15516" r="9.15516" transform="matrix(0.883263 0.468879 0.468879 -0.883263 20.0474 33.4507)" fill="#6CBDAA"/>
<circle cx="41.0726" cy="13.3717" r="9.15516" transform="rotate(27.9615 41.0726 13.3717)" fill="#6CBDAA"/>
<path d="M79.3213 44.1887C70.3073 39.4036 79.2377 44.1443 70.3072 39.4036C61.3768 34.6629 71.1481 39.85 63.1512 35.6049C58.4105 44.5353 58.1489 45.0283 54.5674 51.7749C63.4979 56.5156 74.5806 53.1192 79.3213 44.1887Z" fill="#6CBDAA"/>
<path d="M79.3528 44.1304C70.3388 39.3453 79.2692 44.086 70.3388 39.3453C61.4083 34.6045 71.1796 39.7916 63.1828 35.5465C67.9235 26.616 68.1852 26.1232 71.7666 19.3765C80.6971 24.1172 84.0935 35.1999 79.3528 44.1304Z" fill="#6CBDAA"/>
<rect width="31.2923" height="18.3072" transform="matrix(0.883263 0.468879 0.468879 -0.883263 27.4292 37.3657)" fill="#6CBDAA"/>
<rect x="44.6577" y="4.91357" width="31.2923" height="18.3072" transform="rotate(27.9615 44.6577 4.91357)" fill="#6CBDAA"/>
<path d="M79.352 44.1291C70.338 39.344 79.2685 44.0848 70.338 39.344C61.4075 34.6033 71.1788 39.7904 63.182 35.5453C58.4413 44.4758 58.1797 44.9687 54.5981 51.7153C63.5286 56.4561 74.6113 53.0596 79.352 44.1291Z" fill="#036F62"/>
<path d="M79.3528 44.1304C70.3388 39.3453 79.2692 44.086 70.3388 39.3453C61.4083 34.6045 71.1796 39.7916 63.1828 35.5465C67.9235 26.616 68.1852 26.1232 71.7666 19.3765C80.6971 24.1172 84.0935 35.1999 79.3528 44.1304Z" fill="#036F62"/>
<path d="M32.1821 39.8875C41.1962 44.6726 32.2657 39.9318 41.1962 44.6726C50.1267 49.4133 40.3553 44.2262 48.3522 48.4713C53.0929 39.5408 53.3545 39.0479 56.936 32.3013C48.0056 27.5605 36.9229 30.957 32.1821 39.8875Z" fill="#036F62"/>
<path d="M49.4094 7.43556C58.4234 12.2206 49.493 7.47992 58.4234 12.2206C67.3539 16.9614 57.5826 11.7743 65.5795 16.0194C60.8387 24.9499 60.577 25.4428 56.9956 32.1895C48.0651 27.4487 44.6687 16.366 49.4094 7.43556Z" fill="#036F62"/>
<rect width="7.03923" height="18.3072" transform="matrix(0.883263 0.468879 0.468879 -0.883263 48.3511 48.4717)" fill="#036F62"/>
<rect x="65.5791" y="16.02" width="7.03923" height="18.3072" transform="rotate(27.9615 65.5791 16.02)" fill="#036F62"/>
<path d="M62.9087 35.1777L31.2883 18.11" stroke="#E94812" stroke-width="3"/>
</svg>
