<svg width="693" height="594" viewBox="0 0 693 594" fill="none" xmlns="http://www.w3.org/2000/svg">
<circle cx="480.914" cy="318.38" r="194.434" fill="#4C4C4C"/>
<circle cx="482.872" cy="317.727" r="200.958" stroke="#3C3C3C" stroke-width="16.964"/>
<rect x="3.31201" y="79.5786" width="477.602" height="477.602" rx="66.5511" fill="#E94812"/>
<circle cx="480.914" cy="318.379" r="100.479" fill="#4C4C4C"/>
<circle cx="480.914" cy="318.38" r="90.0398" fill="#FE9973"/>
<circle cx="480.914" cy="318.379" r="30.0133" fill="#CDD993"/>
<mask id="mask0_68_556" style="mask-type:alpha" maskUnits="userSpaceOnUse" x="3" y="79" width="478" height="479">
<rect width="477.602" height="477.602" rx="66.5511" transform="matrix(-1 0 0 1 480.914 79.5786)" fill="#2F4ECD"/>
</mask>
<g mask="url(#mask0_68_556)">
<rect width="55.49" height="363.299" transform="matrix(-0.626116 -0.77973 -0.77973 0.626116 253.257 54.4141)" fill="#FE9973"/>
<path d="M46.8903 200.758C44.3487 197.628 41.7767 194.461 39.1746 191.256C36.5724 188.052 34.0005 184.884 31.4588 181.754C32.5766 180.847 33.7038 179.931 34.8403 179.008C35.9768 178.085 37.104 177.17 38.2218 176.262C39.6005 175.143 41.0641 174.356 42.6126 173.903C44.1459 173.431 45.6891 173.275 47.2421 173.436C48.795 173.597 50.2734 174.066 51.6772 174.843C53.0844 175.586 54.3403 176.638 55.4447 177.998C56.5491 179.358 57.3281 180.812 57.7817 182.361C58.2539 183.894 58.417 185.446 58.2711 187.018C58.11 188.571 57.6485 190.059 56.8868 191.481C56.1099 192.885 55.0321 194.147 53.6534 195.266C52.5355 196.174 51.4083 197.089 50.2719 198.012C49.1354 198.935 48.0082 199.85 46.8903 200.758ZM41.8074 180.678C41.5093 180.92 41.2019 181.17 40.8852 181.427C40.5684 181.684 40.2517 181.941 39.935 182.198C41.2966 183.875 42.6733 185.571 44.0652 187.285C45.4571 188.999 46.8338 190.694 48.1954 192.371C48.5121 192.114 48.8289 191.857 49.1456 191.599C49.4623 191.342 49.7697 191.093 50.0678 190.851C50.9994 190.094 51.6283 189.212 51.9545 188.205C52.2808 187.199 52.3201 186.162 52.0724 185.095C51.8096 184.01 51.2849 182.983 50.4981 182.015C49.7114 181.046 48.8216 180.331 47.8287 179.869C46.8358 179.408 45.8207 179.243 44.7834 179.374C43.731 179.487 42.739 179.922 41.8074 180.678ZM72.7885 180.47C71.7079 181.347 70.5505 181.978 69.3164 182.362C68.0671 182.727 66.8179 182.845 65.5688 182.715C64.3046 182.567 63.0986 182.186 61.9509 181.572C60.8218 180.943 59.811 180.079 58.9184 178.98C58.0258 177.881 57.3875 176.714 57.0037 175.48C56.6385 174.231 56.5207 172.981 56.6503 171.732C56.7799 170.483 57.1591 169.294 57.7881 168.165C58.4019 167.017 59.2492 166.005 60.3298 165.127C61.429 164.235 62.5939 163.613 63.8245 163.263C65.0587 162.879 66.3003 162.752 67.5494 162.882C68.7985 163.011 69.9876 163.391 71.1167 164.02C72.2644 164.633 73.2846 165.49 74.1772 166.589C75.0698 167.688 75.6987 168.863 76.0639 170.112C76.4477 171.346 76.5824 172.597 76.4679 173.865C76.3384 175.114 75.9667 176.312 75.3528 177.46C74.7425 178.574 73.8877 179.577 72.7885 180.47ZM69.4071 176.306C70.3201 175.564 70.7819 174.648 70.7927 173.558C70.807 172.433 70.3981 171.358 69.566 170.334C68.7188 169.29 67.7585 168.679 66.6852 168.499C65.6154 168.286 64.624 168.55 63.7111 169.291C62.7982 170.032 62.327 170.956 62.2976 172.062C62.2717 173.134 62.6823 174.192 63.5295 175.235C64.3616 176.26 65.3201 176.888 66.4051 177.12C67.4935 177.319 68.4942 177.047 69.4071 176.306ZM91.977 164.146C91.856 163.997 91.7425 163.857 91.6366 163.727C91.5156 163.578 91.4021 163.438 91.2962 163.308C91.1481 164.077 90.8592 164.806 90.4294 165.496C90.0334 166.188 89.5001 166.807 88.8294 167.351C87.8792 168.123 86.8336 168.663 85.6926 168.971C84.5516 169.279 83.3828 169.363 82.1861 169.221C80.9928 169.046 79.8317 168.645 78.7026 168.016C77.5922 167.371 76.5831 166.49 75.6754 165.373C74.7525 164.236 74.0898 163.058 73.6874 161.839C73.3035 160.605 73.156 159.396 73.2448 158.211C73.3523 157.01 73.6815 155.893 74.2324 154.858C74.7682 153.805 75.5019 152.9 76.4335 152.143C77.1042 151.599 77.8284 151.196 78.6062 150.935C79.3688 150.656 80.1343 150.514 80.9026 150.508C79.9949 149.39 79.0796 148.263 78.1567 147.127C77.2338 145.99 76.3185 144.863 75.4108 143.745C76.1747 143.125 76.9479 142.497 77.7304 141.862C78.5129 141.226 79.2767 140.606 80.022 140.001C82.7603 143.373 85.5214 146.773 88.3051 150.201C91.0888 153.629 93.8498 157.029 96.5882 160.402C95.8429 161.007 95.0791 161.627 94.2966 162.263C93.5141 162.898 92.7409 163.526 91.977 164.146ZM86.1309 162.772C87.0252 162.046 87.4778 161.137 87.4885 160.046C87.4993 158.956 87.0735 157.879 86.2112 156.817C85.3488 155.755 84.3903 155.127 83.3356 154.932C82.2658 154.719 81.2838 154.975 80.3895 155.701C79.4766 156.443 79.0072 157.349 78.9812 158.422C78.974 159.479 79.4091 160.548 80.2865 161.628C81.164 162.709 82.1283 163.363 83.1795 163.592C84.2342 163.787 85.218 163.513 86.1309 162.772ZM109.444 149.963C109.323 149.814 109.209 149.674 109.103 149.544C108.982 149.394 108.869 149.255 108.763 149.124C108.615 149.894 108.326 150.623 107.896 151.312C107.5 152.005 106.967 152.623 106.296 153.168C105.346 153.94 104.3 154.479 103.159 154.788C102.018 155.096 100.849 155.179 99.6526 155.038C98.4594 154.863 97.2983 154.461 96.1692 153.832C95.0588 153.188 94.0497 152.307 93.1419 151.189C92.2191 150.053 91.5564 148.875 91.1539 147.656C90.7701 146.422 90.6226 145.212 90.7114 144.027C90.8189 142.827 91.1481 141.709 91.699 140.675C92.2348 139.621 92.9685 138.716 93.9001 137.96C94.5708 137.415 95.295 137.013 96.0727 136.752C96.8354 136.473 97.6008 136.33 98.3692 136.325C97.4615 135.207 96.5462 134.08 95.6233 132.943C94.7004 131.807 93.7851 130.68 92.8774 129.562C93.6413 128.941 94.4144 128.314 95.1969 127.678C95.9794 127.043 96.7433 126.422 97.4886 125.817C100.227 129.19 102.988 132.59 105.772 136.018C108.555 139.446 111.316 142.846 114.055 146.218C113.31 146.823 112.546 147.444 111.763 148.079C110.981 148.715 110.207 149.342 109.444 149.963ZM103.598 148.588C104.492 147.862 104.944 146.954 104.955 145.863C104.966 144.772 104.54 143.696 103.678 142.634C102.815 141.572 101.857 140.943 100.802 140.749C99.7324 140.535 98.7504 140.792 97.8561 141.518C96.9432 142.259 96.4737 143.166 96.4478 144.238C96.4405 145.295 96.8756 146.364 97.7531 147.445C98.6306 148.525 99.5949 149.18 100.646 149.408C101.701 149.603 102.685 149.33 103.598 148.588ZM129.16 132.839C128.313 134.423 127.309 135.795 126.148 136.954C124.987 138.114 123.725 139.015 122.362 139.658C121.032 140.305 119.665 140.658 118.26 140.717C116.854 140.776 115.492 140.507 114.172 139.909C112.87 139.296 111.683 138.329 110.609 137.006C109.716 135.907 109.076 134.757 108.689 133.556C108.305 132.322 108.168 131.088 108.279 129.854C108.375 128.602 108.728 127.418 109.339 126.304C109.934 125.172 110.772 124.167 111.852 123.289C112.821 122.503 113.825 121.95 114.865 121.631C115.905 121.313 116.948 121.207 117.994 121.316C119.026 121.406 120.036 121.698 121.026 122.194C122.015 122.689 122.935 123.364 123.784 124.22C124.634 125.076 125.38 126.109 126.022 127.318C124.494 128.559 122.957 129.807 121.411 131.063C119.864 132.319 118.327 133.567 116.8 134.807C117.729 135.228 118.724 135.254 119.786 134.887C120.866 134.504 121.929 133.795 122.975 132.761C124.039 131.711 125.027 130.414 125.938 128.871C126.467 129.523 127.004 130.184 127.549 130.855C128.094 131.526 128.631 132.187 129.16 132.839ZM115.099 127.516C114.559 127.955 114.177 128.512 113.953 129.189C113.748 129.85 113.774 130.586 114.031 131.398C114.869 130.717 115.708 130.036 116.546 129.355C117.403 128.659 118.251 127.971 119.089 127.29C118.351 126.838 117.645 126.654 116.971 126.738C116.301 126.788 115.677 127.047 115.099 127.516ZM133.125 130.733C131.188 128.348 129.237 125.945 127.27 123.522C125.288 121.082 123.329 118.669 121.392 116.284C122.156 115.664 122.93 115.036 123.712 114.401C124.495 113.765 125.258 113.145 126.004 112.54C126.11 112.67 126.215 112.801 126.321 112.931C126.427 113.062 126.533 113.192 126.639 113.322C126.884 112.444 127.286 111.607 127.846 110.812C128.407 110.017 129.153 109.318 130.086 108.715C130.691 109.46 131.304 110.215 131.924 110.979C132.544 111.743 133.157 112.497 133.762 113.242C132.124 114.233 131.14 115.248 130.81 116.289C130.465 117.311 130.709 118.334 131.541 119.359C132.554 120.607 133.583 121.874 134.627 123.16C135.671 124.445 136.707 125.721 137.736 126.988C136.991 127.593 136.227 128.214 135.445 128.849C134.662 129.485 133.889 130.112 133.125 130.733Z" fill="#E94812"/>
</g>
<path d="M310.737 163.337L137.59 486.833C112.792 533.165 53.8369 503.313 79.344 455.657L96.703 423.225" stroke="#036F62" stroke-width="4"/>
<path d="M59.9254 386.723L7.83691 484.03" stroke="#036F62" stroke-width="4"/>
<path d="M467.593 115.417L411.257 220.659" stroke="#036F62" stroke-width="4"/>
<path d="M412.352 218.272L403.484 234.84C378.686 281.172 319.731 251.321 345.238 203.665L362.597 171.232" stroke="#036F62" stroke-width="4"/>
<path d="M43.0441 400.767L51.9122 384.199C76.7108 337.867 135.666 367.718 110.158 415.374L92.7994 447.807" stroke="#6CBDAA" stroke-width="4"/>
<path d="M303.368 159.393L129.158 484.875C111.799 517.307 67.5748 501.299 85.4734 461.494L103.896 427.075" stroke="#6CBDAA" stroke-width="4"/>
<path d="M54.2479 380.213L1.77441 481.058" stroke="#6CBDAA" stroke-width="4"/>
<path d="M461.347 109.08L401.84 220.247" stroke="#6CBDAA" stroke-width="4"/>
<path d="M302.43 161.147L311.298 144.578C336.097 98.2463 395.051 128.098 369.544 175.754L352.185 208.186" stroke="#6CBDAA" stroke-width="4"/>
<path d="M404.957 214.588L395.14 232.929C377.781 265.361 333.557 249.354 351.455 209.548L369.878 175.13" stroke="#6CBDAA" stroke-width="4"/>
<path d="M50.5277 404.498L60.3446 386.157C77.7035 353.725 121.928 369.732 104.03 409.538L85.6073 443.957" stroke="#036F62" stroke-width="4"/>
<path d="M309.825 164.83L319.642 146.489C337 114.056 381.225 130.064 363.326 169.87L344.904 204.288" stroke="#036F62" stroke-width="4"/>
<path d="M145.744 277.585L139.817 287.956C126.375 311.479 119.654 323.241 119.098 334.841C118.609 345.045 121.362 355.142 126.964 363.685C133.333 373.397 145.094 380.118 168.617 393.56L170.405 394.582L145.744 277.585Z" fill="#6CBDAA"/>
<path d="M172.809 388.696L178.735 378.324C192.177 354.802 198.898 343.04 199.455 331.44C199.944 321.236 197.19 311.138 191.588 302.595C185.22 292.883 173.459 286.162 149.936 272.72L148.148 271.699L172.809 388.696Z" fill="#036F62"/>
<path d="M279.329 234.609L274.127 244.476C262.327 266.856 256.427 278.046 256.276 288.891C256.143 298.43 259.033 307.766 264.532 315.561C270.784 324.424 281.973 330.324 304.353 342.123L306.054 343.02L279.329 234.609Z" fill="#6CBDAA"/>
<path d="M309.403 340.259L314.605 330.392C326.405 308.012 332.305 296.822 332.456 285.978C332.589 276.439 329.699 267.102 324.2 259.307C317.948 250.445 306.759 244.545 284.379 232.745L282.678 231.848L309.403 340.259Z" fill="#036F62"/>
<path d="M337.102 206.67L334.539 211.861C328.725 223.632 325.819 229.518 321.307 232.883C317.339 235.843 312.536 237.47 307.586 237.532C301.958 237.603 296.072 234.696 284.301 228.883L283.406 228.441L337.102 206.67Z" fill="#6CBDAA"/>
<path d="M284.197 224.893L286.76 219.703C292.573 207.931 295.48 202.046 299.991 198.681C303.96 195.721 308.763 194.093 313.713 194.031C319.341 193.961 325.227 196.868 336.998 202.681L337.893 203.123L284.197 224.893Z" fill="#036F62"/>
<path d="M138.788 497.116L142.645 489.912C151.391 473.573 155.764 465.404 162.285 460.865C168.02 456.873 174.872 454.799 181.859 454.94C189.802 455.101 197.972 459.474 214.311 468.22L215.553 468.885L138.788 497.116Z" fill="#6CBDAA"/>
<path d="M214.451 473.458L210.594 480.662C201.848 497.002 197.475 505.171 190.955 509.71C185.219 513.702 178.367 515.776 171.38 515.634C163.437 515.474 155.268 511.101 138.929 502.354L137.687 501.69L214.451 473.458Z" fill="#036F62"/>
<circle cx="9.15516" cy="9.15516" r="9.15516" transform="matrix(-0.883263 -0.468879 -0.468879 0.883263 255.051 402.368)" fill="#6CBDAA"/>
<circle cx="234.026" cy="422.447" r="9.15516" transform="rotate(-152.038 234.026 422.447)" fill="#6CBDAA"/>
<path d="M195.777 391.63C204.791 396.415 195.861 391.674 204.791 396.415C213.722 401.155 203.951 395.968 211.947 400.214C216.688 391.283 216.95 390.79 220.531 384.043C211.601 379.303 200.518 382.699 195.777 391.63Z" fill="#6CBDAA"/>
<path d="M195.746 391.688C204.76 396.473 195.829 391.732 204.76 396.473C213.69 401.214 203.919 396.027 211.916 400.272C207.175 409.202 206.913 409.695 203.332 416.442C194.402 411.701 191.005 400.618 195.746 391.688Z" fill="#6CBDAA"/>
<rect width="31.2923" height="18.3072" transform="matrix(-0.883263 -0.468879 -0.468879 0.883263 247.669 398.453)" fill="#6CBDAA"/>
<rect x="230.441" y="430.905" width="31.2923" height="18.3072" transform="rotate(-152.038 230.441 430.905)" fill="#6CBDAA"/>
<path d="M195.746 391.689C204.76 396.474 195.83 391.734 204.76 396.474C213.691 401.215 203.919 396.028 211.916 400.273C216.657 391.343 216.918 390.85 220.5 384.103C211.57 379.362 200.487 382.759 195.746 391.689Z" fill="#036F62"/>
<path d="M195.746 391.688C204.76 396.473 195.829 391.732 204.76 396.473C213.69 401.214 203.919 396.027 211.916 400.272C207.175 409.202 206.913 409.695 203.332 416.442C194.402 411.701 191.005 400.618 195.746 391.688Z" fill="#036F62"/>
<path d="M242.916 395.931C233.902 391.146 242.833 395.887 233.902 391.146C224.972 386.405 234.743 391.592 226.746 387.347C222.006 396.278 221.744 396.77 218.163 403.517C227.093 408.258 238.176 404.861 242.916 395.931Z" fill="#036F62"/>
<path d="M225.689 428.383C216.675 423.598 225.606 428.338 216.675 423.598C207.745 418.857 217.516 424.044 209.519 419.799C214.26 410.868 214.522 410.376 218.103 403.629C227.034 408.37 230.43 419.452 225.689 428.383Z" fill="#036F62"/>
<rect width="7.03923" height="18.3072" transform="matrix(-0.883263 -0.468879 -0.468879 0.883263 226.748 387.347)" fill="#036F62"/>
<rect x="209.519" y="419.798" width="7.03923" height="18.3072" transform="rotate(-152.038 209.519 419.798)" fill="#036F62"/>
<path d="M212.19 400.641L243.81 417.708" stroke="#E94812" stroke-width="3"/>
<circle cx="9.15516" cy="9.15516" r="9.15516" transform="matrix(0.883263 0.468879 0.468879 -0.883263 205.655 211.177)" fill="#6CBDAA"/>
<circle cx="226.68" cy="191.098" r="9.15516" transform="rotate(27.9615 226.68 191.098)" fill="#6CBDAA"/>
<path d="M264.929 221.915C255.915 217.13 264.845 221.87 255.915 217.13C246.984 212.389 256.756 217.576 248.759 213.331C244.018 222.261 243.756 222.754 240.175 229.501C249.105 234.242 260.188 230.845 264.929 221.915Z" fill="#6CBDAA"/>
<path d="M264.96 221.856C255.946 217.071 264.877 221.812 255.946 217.071C247.016 212.331 256.787 217.518 248.79 213.273C253.531 204.342 253.793 203.849 257.374 197.103C266.304 201.843 269.701 212.926 264.96 221.856Z" fill="#6CBDAA"/>
<rect width="31.2923" height="18.3072" transform="matrix(0.883263 0.468879 0.468879 -0.883263 213.037 215.092)" fill="#6CBDAA"/>
<rect x="230.265" y="182.64" width="31.2923" height="18.3072" transform="rotate(27.9615 230.265 182.64)" fill="#6CBDAA"/>
<path d="M264.959 221.855C255.945 217.07 264.876 221.811 255.945 217.07C247.015 212.329 256.786 217.516 248.789 213.271C244.049 222.202 243.787 222.695 240.206 229.441C249.136 234.182 260.219 230.786 264.959 221.855Z" fill="#036F62"/>
<path d="M264.96 221.856C255.946 217.071 264.877 221.812 255.946 217.071C247.016 212.331 256.787 217.518 248.79 213.273C253.531 204.342 253.793 203.849 257.374 197.103C266.304 201.843 269.701 212.926 264.96 221.856Z" fill="#036F62"/>
<path d="M217.79 217.614C226.804 222.399 217.873 217.658 226.804 222.399C235.734 227.139 225.963 221.952 233.96 226.197C238.7 217.267 238.962 216.774 242.543 210.027C233.613 205.287 222.53 208.683 217.79 217.614Z" fill="#036F62"/>
<path d="M235.017 185.162C244.031 189.947 235.1 185.206 244.031 189.947C252.961 194.687 243.19 189.5 251.187 193.745C246.446 202.676 246.184 203.169 242.603 209.916C233.673 205.175 230.276 194.092 235.017 185.162Z" fill="#036F62"/>
<rect width="7.03923" height="18.3072" transform="matrix(0.883263 0.468879 0.468879 -0.883263 233.958 226.198)" fill="#036F62"/>
<rect x="251.187" y="193.746" width="7.03923" height="18.3072" transform="rotate(27.9615 251.187 193.746)" fill="#036F62"/>
<path d="M248.516 212.904L216.896 195.836" stroke="#E94812" stroke-width="3"/>
<path d="M262.805 459.602C273.261 456.148 259.181 460.799 271.586 456.702C283.99 452.605 280.879 453.632 280.879 453.632C280.879 453.632 288.782 477.558 292.058 487.478C279.654 491.575 268.979 478.294 262.805 459.602Z" fill="#F4E3D5"/>
<path d="M301.671 446.28C291.216 449.734 304.856 445.228 292.452 449.325C280.048 453.422 283.159 452.395 283.159 452.395C283.159 452.395 291.061 476.321 294.338 486.241C306.742 482.144 307.845 464.973 301.671 446.28Z" fill="#CDD993"/>
<path d="M302.383 445.046C298.929 434.591 303.58 448.67 299.483 436.266C295.386 423.862 296.413 426.973 296.413 426.973C296.413 426.973 320.34 419.07 330.261 415.793C334.358 428.197 321.077 438.872 302.383 445.046Z" fill="#F4E3D5"/>
<path d="M289.468 405.519C292.922 415.975 288.416 402.334 292.513 414.738C296.61 427.142 295.583 424.031 295.583 424.031C295.583 424.031 319.51 416.129 329.431 412.852C325.334 400.447 308.162 399.345 289.468 405.519Z" fill="#CDD993"/>
<path d="M247.67 419.769C251.124 430.225 246.473 416.145 250.57 428.549C254.667 440.954 253.64 437.843 253.64 437.843C253.64 437.843 229.714 445.746 219.794 449.022C215.697 436.618 228.978 425.943 247.67 419.769Z" fill="#F4E3D5"/>
<path d="M260.585 459.297C257.132 448.841 261.637 462.482 257.54 450.078C253.443 437.674 254.471 440.784 254.471 440.784C254.471 440.784 230.545 448.687 220.625 451.963C224.722 464.367 241.893 465.471 260.585 459.297Z" fill="#CDD993"/>
<path d="M273.171 430.664L256.553 436.153L251.218 420L267.836 414.512L273.171 430.664Z" fill="#CDD993"/>
<path d="M279.805 450.856L262.96 456.42L257.334 439.389L274.18 433.825L279.805 450.856Z" fill="#F4E3D5"/>
<path d="M292.39 424.315L275.93 429.752L270.478 413.244L286.938 407.808L292.39 424.315Z" fill="#F4E3D5"/>
<path d="M298.755 443.871L282.296 449.307L276.901 432.973L293.36 427.537L298.755 443.871Z" fill="#CDD993"/>
<path d="M287.218 405.219C276.762 408.672 290.842 404.022 278.437 408.119C266.033 412.216 269.144 411.188 269.144 411.188C269.144 411.188 261.241 387.263 257.965 377.342C270.369 373.245 281.044 386.526 287.218 405.219Z" fill="#F4E3D5"/>
<path d="M248.351 418.54C258.806 415.087 245.166 419.592 257.57 415.495C269.974 411.398 266.863 412.426 266.863 412.426C266.863 412.426 258.961 388.5 255.684 378.58C243.28 382.677 242.177 399.848 248.351 418.54Z" fill="#CDD993"/>
<path d="M197.901 153.943C187.445 157.396 201.525 152.746 189.121 156.843C176.716 160.94 179.827 159.912 179.827 159.912C179.827 159.912 171.924 135.987 168.648 126.066C181.052 121.969 191.727 135.25 197.901 153.943Z" fill="#F4E3D5"/>
<path d="M159.035 167.264C169.49 163.811 155.85 168.316 168.254 164.219C180.658 160.122 177.547 161.149 177.547 161.149C177.547 161.149 169.645 137.224 166.368 127.304C153.964 131.401 152.861 148.571 159.035 167.264Z" fill="#CDD993"/>
<path d="M158.323 168.498C161.777 178.954 157.126 164.874 161.223 177.278C165.32 189.682 164.293 186.572 164.293 186.572C164.293 186.572 140.366 194.475 130.445 197.751C126.348 185.347 139.63 174.672 158.323 168.498Z" fill="#F4E3D5"/>
<path d="M171.238 208.025C167.784 197.57 172.29 211.211 168.193 198.807C164.096 186.402 165.123 189.513 165.123 189.513C165.123 189.513 141.196 197.416 131.275 200.693C135.372 213.097 152.544 214.2 171.238 208.025Z" fill="#CDD993"/>
<path d="M213.036 193.775C209.582 183.32 214.233 197.399 210.136 184.995C206.039 172.591 207.066 175.701 207.066 175.701C207.066 175.701 230.992 167.799 240.912 164.522C245.009 176.927 231.728 187.601 213.036 193.775Z" fill="#F4E3D5"/>
<path d="M200.121 154.248C203.574 164.703 199.069 151.063 203.166 163.467C207.263 175.871 206.235 172.76 206.235 172.76C206.235 172.76 230.161 164.858 240.081 161.581C235.984 149.177 218.813 148.074 200.121 154.248Z" fill="#CDD993"/>
<path d="M187.535 182.88L204.153 177.392L209.488 193.544L192.87 199.033L187.535 182.88Z" fill="#CDD993"/>
<path d="M180.901 162.688L197.746 157.125L203.372 174.156L186.526 179.72L180.901 162.688Z" fill="#F4E3D5"/>
<path d="M168.316 189.229L184.776 183.793L190.228 200.3L173.768 205.737L168.316 189.229Z" fill="#F4E3D5"/>
<path d="M161.951 169.674L178.41 164.237L183.806 180.571L167.346 186.008L161.951 169.674Z" fill="#CDD993"/>
<path d="M173.488 208.326C183.944 204.872 169.865 209.523 182.269 205.426C194.673 201.329 191.562 202.356 191.562 202.356C191.562 202.356 199.465 226.282 202.741 236.202C190.337 240.299 179.662 227.018 173.488 208.326Z" fill="#F4E3D5"/>
<path d="M212.355 195.004C201.9 198.458 215.541 193.952 203.136 198.049C190.732 202.146 193.843 201.119 193.843 201.119C193.843 201.119 201.745 225.044 205.022 234.964C217.426 230.867 218.529 213.697 212.355 195.004Z" fill="#CDD993"/>
</svg>
