<svg width="689" height="478" viewBox="0 0 689 478" fill="none" xmlns="http://www.w3.org/2000/svg">
<circle cx="477.603" cy="238.801" r="194.434" fill="#4C4C4C"/>
<circle cx="479.559" cy="238.148" r="200.958" stroke="#3C3C3C" stroke-width="16.964"/>
<rect width="477.602" height="477.602" rx="66.5511" fill="#FE9973"/>
<circle cx="477.602" cy="238.8" r="100.479" fill="#4C4C4C"/>
<circle cx="477.602" cy="238.801" r="90.0398" fill="#FECC73"/>
<circle cx="477.602" cy="238.801" r="30.0133" fill="#FDF082"/>
<mask id="mask0_68_620" style="mask-type:alpha" maskUnits="userSpaceOnUse" x="0" y="0" width="478" height="478">
<rect width="477.602" height="477.602" rx="66.5511" transform="matrix(-1 0 0 1 477.603 0)" fill="#2F4ECD"/>
</mask>
<g mask="url(#mask0_68_620)">
<rect width="55.49" height="363.299" transform="matrix(-0.626116 -0.77973 -0.77973 0.626116 249.945 -25.1646)" fill="#FECC73"/>
<path d="M58.1276 111.445C56.1759 109.042 54.2092 106.62 52.2273 104.179C50.2303 101.72 48.2559 99.2883 46.3043 96.8849C45.5963 97.4598 44.879 98.0423 44.1524 98.6323C43.4258 99.2223 42.7085 99.8048 42.0005 100.38C41.4105 99.6531 40.8129 98.9172 40.2078 98.1719C39.5875 97.4081 38.9823 96.6628 38.3923 95.9362C40.6094 94.1359 42.8544 92.3128 45.1274 90.4671C47.4004 88.6214 49.6454 86.7983 51.8625 84.998C52.4525 85.7246 53.0577 86.4698 53.678 87.2337C54.2831 87.9789 54.8807 88.7149 55.4708 89.4415C54.7814 90.0012 54.0734 90.5761 53.3468 91.1662C52.6202 91.7562 51.9029 92.3387 51.1949 92.9136C53.1466 95.317 55.1209 97.7483 57.1179 100.208C59.0998 102.648 61.0666 105.07 63.0182 107.474C62.2171 108.124 61.4066 108.782 60.5869 109.448C59.7671 110.114 58.9473 110.779 58.1276 111.445ZM70.5889 77.3506C72.5254 79.7353 74.4846 82.1481 76.4665 84.5887C78.4333 87.0108 80.3849 89.4142 82.3214 91.7989C81.5762 92.4041 80.8123 93.0244 80.0298 93.6598C79.2473 94.2952 78.4741 94.9231 77.7102 95.5433C77.6043 95.4129 77.506 95.2918 77.4152 95.18C77.3244 95.0683 77.2261 94.9471 77.1202 94.8167C76.9046 95.5792 76.5557 96.3108 76.0736 97.0115C75.6252 97.7157 75.0377 98.3628 74.3111 98.9528C73.2491 99.8152 72.1115 100.337 70.8984 100.518C69.7039 100.684 68.5031 100.5 67.2961 99.9654C66.1076 99.4156 65.0065 98.5165 63.9929 97.2683C62.8128 95.815 61.6252 94.3525 60.43 92.8807C59.2348 91.4088 58.0472 89.9463 56.8672 88.493C57.631 87.8728 58.4042 87.2449 59.1867 86.6095C59.9692 85.9741 60.7331 85.3538 61.4783 84.7486C62.5676 86.0901 63.672 87.4501 64.7916 88.8288C65.9111 90.2075 67.0155 91.5676 68.1048 92.909C68.71 93.6543 69.3693 94.1236 70.0829 94.3171C70.8 94.4768 71.5312 94.254 72.2764 93.6489C73.0217 93.0437 73.4252 92.3605 73.4872 91.5991C73.5491 90.8377 73.2548 90.0565 72.6042 89.2554C71.5149 87.9139 70.4105 86.5539 69.291 85.1752C68.1714 83.7965 67.067 82.4364 65.9777 81.095C66.7416 80.4747 67.5148 79.8469 68.2973 79.2114C69.0798 78.576 69.8437 77.9557 70.5889 77.3506ZM85.5289 89.1943C82.7906 85.8221 80.0295 82.4219 77.2458 78.9938C74.4621 75.5657 71.7011 72.1656 68.9627 68.7934C69.7266 68.1731 70.4998 67.5452 71.2823 66.9098C72.0648 66.2744 72.8287 65.6541 73.5739 65.0489C76.3122 68.4212 79.0733 71.8213 81.857 75.2494C84.6407 78.6775 87.4018 82.0777 90.1401 85.4499C89.3949 86.0551 88.631 86.6754 87.8485 87.3108C87.066 87.9462 86.2928 88.574 85.5289 89.1943ZM82.7462 64.7424C82.2059 65.1811 81.6063 65.4516 80.9473 65.5539C80.307 65.641 79.6824 65.5762 79.0736 65.3595C78.4648 65.1428 77.9486 64.7736 77.525 64.252C77.1014 63.7303 76.8536 63.1586 76.7816 62.5369C76.6945 61.8966 76.7593 61.2721 76.976 60.6633C77.2113 60.0393 77.5991 59.508 78.1394 59.0693C78.6611 58.6456 79.2421 58.3903 79.8824 58.3031C80.5414 58.2009 81.1752 58.2581 81.784 58.4748C82.3777 58.6729 82.8863 59.0328 83.31 59.5544C83.7336 60.0761 83.9889 60.6571 84.0761 61.2974C84.1632 61.9377 84.0891 62.5698 83.8538 63.1938C83.637 63.8026 83.2679 64.3188 82.7462 64.7424ZM93.498 82.7231C91.5615 80.3384 89.6099 77.935 87.6431 75.5129C85.6612 73.0723 83.702 70.6596 81.7655 68.2748C82.5294 67.6545 83.3026 67.0267 84.0851 66.3912C84.8676 65.7558 85.6315 65.1355 86.3767 64.5304C88.3132 66.9151 90.2724 69.3279 92.2543 71.7685C94.2211 74.1906 96.1727 76.594 98.1092 78.9787C97.364 79.5839 96.6001 80.2042 95.8176 80.8396C95.0351 81.475 94.2619 82.1029 93.498 82.7231ZM109.57 77.0925C108.824 77.6976 108.06 78.3179 107.278 78.9533C106.495 79.5887 105.722 80.2166 104.958 80.8369C102.432 77.7255 99.8751 74.5769 97.288 71.391C94.6858 68.1864 92.1215 65.0285 89.5949 61.9171C90.3588 61.2968 91.132 60.6689 91.9145 60.0335C92.697 59.3981 93.4609 58.7778 94.2061 58.1727C94.312 58.3031 94.4179 58.4335 94.5238 58.5639C94.6297 58.6943 94.7432 58.8341 94.8642 58.9831C95.0274 58.2323 95.3239 57.5123 95.7537 56.8233C96.1683 56.1156 96.711 55.4894 97.3817 54.9447C98.3133 54.1883 99.3495 53.656 100.491 53.3478C101.616 53.021 102.768 52.9357 103.946 53.0921C105.143 53.2333 106.297 53.6259 107.407 54.27C108.536 54.899 109.562 55.7817 110.485 56.9182C111.393 58.0361 112.039 59.2121 112.422 60.4462C112.825 61.6652 112.98 62.8841 112.888 64.103C112.799 65.2881 112.487 66.4074 111.951 67.4608C111.415 68.5142 110.672 69.4267 109.722 70.1983C109.051 70.7429 108.327 71.1455 107.549 71.4061C106.805 71.6701 106.041 71.7957 105.258 71.7826C105.969 72.6583 106.688 73.5433 107.414 74.4375C108.14 75.3318 108.859 76.2168 109.57 77.0925ZM105.794 66.6174C106.707 65.876 107.167 64.9768 107.174 63.9198C107.185 62.8289 106.751 61.7432 105.874 60.6626C104.996 59.582 104.03 58.9444 102.976 58.7497C101.94 58.5398 100.965 58.8056 100.052 59.5469C99.1579 60.2731 98.7054 61.1816 98.6946 62.2724C98.6687 63.3446 99.0869 64.4117 99.9492 65.4736C100.812 66.5356 101.778 67.1733 102.847 67.3866C103.917 67.6 104.899 67.3435 105.794 66.6174Z" fill="#FE9973"/>
</g>
</svg>
