<svg width="289" height="168" viewBox="0 0 289 168" fill="none" xmlns="http://www.w3.org/2000/svg">
<path d="M177.594 125.045V108.327C177.594 70.4091 177.594 51.4502 184.973 36.9675C191.464 24.2281 201.822 13.8705 214.561 7.37949C229.044 0.000233204 248.003 0 285.921 0H288.803L177.594 125.045Z" fill="#036F62"/>
<path d="M288.803 4.77889V21.4973C288.803 59.4151 288.803 78.374 281.423 92.8568C274.932 105.596 264.575 115.954 251.835 122.445C237.353 129.824 218.394 129.824 180.476 129.824H177.594L288.803 4.77889Z" fill="#6CBDAA"/>
<path d="M93.0225 147.928V142.894C93.0225 131.479 93.0225 125.771 95.2441 121.411C97.1982 117.576 100.316 114.458 104.152 112.504C108.512 110.282 114.219 110.282 125.635 110.282H126.502L93.0225 147.928Z" fill="#036F62"/>
<path d="M127.383 113.244V118.277C127.383 129.692 127.383 135.4 125.161 139.76C123.207 143.595 120.089 146.713 116.254 148.668C111.894 150.889 106.186 150.889 94.7706 150.889H93.903L127.383 113.244Z" fill="#6CBDAA"/>
<path d="M74.7705 164.454V153.213C74.7705 127.719 74.7704 114.973 69.809 105.235C65.4448 96.6699 58.481 89.7061 49.9157 85.3419C40.1784 80.3805 27.4315 80.3804 1.93776 80.3804H0.000106812L74.7705 164.454Z" fill="#6CBDAA"/>
<path d="M0 83.5933V94.8337C0 120.328 0.000156793 133.074 4.96154 142.812C9.32574 151.377 16.2896 158.341 24.8548 162.705C34.5921 167.666 47.339 167.667 72.8327 167.667H74.7704L0 83.5933Z" fill="#036F62"/>
</svg>
