<svg width="206" height="294" viewBox="0 0 206 294" fill="none" xmlns="http://www.w3.org/2000/svg">
<ellipse cx="60.5665" cy="220.559" rx="38.7511" ry="70.3261" fill="#E3D03B"/>
<path d="M40.8424 212.543C51.8277 173.997 71.4944 147.442 94.53 151.408L69.1932 290.76C31.8142 293.01 28.6042 255.485 40.8424 212.543Z" fill="#E4EB33"/>
<path d="M94.4341 151.935C116.017 157.521 124.678 188.062 122.177 227.513C119.951 262.622 105.564 289.776 69.1932 290.76L94.4341 151.935Z" fill="#F7FFB9"/>
<path d="M81.8479 212.816C70.8626 174.27 51.1959 147.715 28.1603 151.681L53.4971 291.033C90.8761 293.283 94.0861 255.758 81.8479 212.816Z" fill="#FDF082"/>
<path d="M28.1603 151.681C6.57752 157.267 -2.08313 187.808 0.417854 227.259C2.64359 262.368 17.03 289.522 53.4013 290.506L28.1603 151.681Z" fill="#F8CB27"/>
<path d="M28.6602 150.1L53.2131 290.227" stroke="#FE9973" stroke-width="4"/>
<path d="M46.4971 152.241C77.7566 183.596 79.2232 199.362 86.3419 224.254C90.9559 252.159 96.0889 280.574 58.8503 291.366" stroke="#FE9973" stroke-width="4"/>
<path d="M94.6957 150.411L83.6533 212.984" stroke="#FE9973" stroke-width="4"/>
<path d="M60.5664 167.127C64.8199 160.529 75.6738 150.441 80.6814 150.44" stroke="#FE9973" stroke-width="4"/>
<ellipse cx="143.539" cy="72.1181" rx="38.7511" ry="70.3261" fill="#E3D03B"/>
<path d="M123.815 64.1025C134.8 25.5565 154.467 -0.998463 177.503 2.96742L152.166 142.32C114.787 144.57 111.577 107.045 123.815 64.1025Z" fill="#E4EB33"/>
<path d="M177.407 3.49441C198.99 9.08048 207.65 39.6216 205.149 79.0726C202.923 114.181 188.537 141.336 152.166 142.32L177.407 3.49441Z" fill="#F7FFB9"/>
<path d="M164.821 64.3754C153.835 25.8295 134.169 -0.725514 111.133 3.24037L136.47 142.592C173.849 144.843 177.059 107.318 164.821 64.3754Z" fill="#FDF082"/>
<path d="M111.133 3.24037C89.5502 8.82643 80.8895 39.3677 83.3905 78.8186C85.6162 113.928 100.003 141.082 136.374 142.066L111.133 3.24037Z" fill="#F8CB27"/>
<path d="M111.633 1.79199L136.186 141.919" stroke="#FE9973" stroke-width="4"/>
<path d="M129.47 3.80078C160.729 35.156 162.196 50.9217 169.315 75.8137C173.929 103.719 179.062 132.134 141.823 142.926" stroke="#FE9973" stroke-width="4"/>
<path d="M177.668 1.9707L166.626 64.5431" stroke="#FE9973" stroke-width="4"/>
<path d="M143.539 18.6862C147.793 12.0889 158.646 2.00011 163.654 2" stroke="#FE9973" stroke-width="4"/>
</svg>
