<svg width="372" height="334" viewBox="0 0 372 334" fill="none" xmlns="http://www.w3.org/2000/svg">
<path d="M28.4046 253.857C38.3478 238.286 59.3215 233.909 75.2505 244.081C91.1795 254.253 96.032 275.122 86.0887 290.693C76.1455 306.264 55.1718 310.641 39.2428 300.469C23.3137 290.297 18.4613 269.428 28.4046 253.857Z" fill="#6697DC"/>
<path d="M62.0137 322.583L53.5685 285.894L87.649 288.283L62.0137 322.583Z" fill="#6697DC"/>
<path d="M9.65724 289.149L49.9491 280.845L29.9899 251.464L9.65724 289.149Z" fill="#6697DC"/>
<path d="M57.9753 305.586C51.7805 305.562 45.4556 303.904 39.6925 300.479L75.5742 244.288C90.2748 254.353 95.3189 273.275 87.5329 288.169L87.6917 288.182L87.0988 288.973C86.795 289.516 86.4746 290.054 86.1358 290.584C84.9047 292.512 83.4986 294.264 81.9492 295.835L62.0604 322.339L57.9753 305.586Z" fill="#6697DC"/>
<path d="M53.3148 278.431L9.83115 288.986L62.0323 322.32L53.3148 278.431Z" fill="#2F4ECD" stroke="#FFB1B1" stroke-width="3"/>
<path d="M35.9312 305.655L29.3187 285.693L56.8226 303.256L35.9312 305.655Z" fill="#6697DC" stroke="#FFB1B1" stroke-width="2"/>
<path d="M77.6709 241.005L53.6397 278.638" stroke="#FFB1B1" stroke-width="3"/>
<path d="M102.497 140.689C112.441 125.118 133.414 120.741 149.343 130.913C165.272 141.085 170.125 161.954 160.182 177.525C150.238 193.096 129.265 197.473 113.336 187.301C97.4065 177.129 92.5541 156.26 102.497 140.689Z" fill="#6697DC"/>
<path d="M136.106 209.415L127.661 172.726L161.742 175.115L136.106 209.415Z" fill="#6697DC"/>
<path d="M83.75 175.981L124.042 167.677L104.083 138.296L83.75 175.981Z" fill="#6697DC"/>
<path d="M132.067 192.418C125.872 192.394 119.547 190.736 113.784 187.311L149.666 131.12C164.367 141.185 169.411 160.107 161.625 175.001L161.784 175.014L161.191 175.805C160.887 176.348 160.566 176.886 160.228 177.416C158.997 179.344 157.59 181.096 156.041 182.667L136.152 209.171L132.067 192.418Z" fill="#6697DC"/>
<path d="M126.763 165.004L83.2794 175.558L135.481 208.892L126.763 165.004Z" fill="#2F4ECD" stroke="#FFB1B1" stroke-width="3"/>
<path d="M110.023 192.486L103.411 172.524L130.914 190.087L110.023 192.486Z" fill="#6697DC" stroke="#FFB1B1" stroke-width="2"/>
<path d="M150.12 128.426L126.089 166.058" stroke="#FFB1B1" stroke-width="3"/>
<path d="M284.233 259.211C294.176 243.64 289.324 222.771 273.395 212.6C257.466 202.428 236.492 206.805 226.549 222.376C216.606 237.947 221.458 258.816 237.387 268.988C253.316 279.159 274.29 274.782 284.233 259.211Z" fill="#6697DC"/>
<path d="M207.746 257.633L244.583 249.86L228.079 219.947L207.746 257.633Z" fill="#6697DC"/>
<path d="M260.103 291.066L250.686 251.019L285.738 256.766L260.103 291.066Z" fill="#6697DC"/>
<path d="M224.865 254.147C227.493 259.757 231.657 264.797 237.189 268.585L273.071 212.394C257.756 203.292 238.468 206.676 228.231 220.005L228.153 219.866L227.684 220.737C227.319 221.241 226.967 221.758 226.628 222.289C225.397 224.216 224.399 226.229 223.625 228.296L207.947 257.489L224.865 254.147Z" fill="#6697DC"/>
<path d="M251.966 247.425L260.684 291.314L208.483 257.98L251.966 247.425Z" fill="#2F4ECD" stroke="#FFB1B1" stroke-width="3"/>
<path d="M234.077 274.173L254.968 271.775L227.464 254.211L234.077 274.173Z" fill="#6697DC" stroke="#FFB1B1" stroke-width="2"/>
<path d="M275.324 210.848L251.293 248.48" stroke="#FFB1B1" stroke-width="3"/>
<path d="M173.919 29.0218C183.862 13.4507 204.836 9.07373 220.765 19.2456C236.694 29.4174 241.547 50.2862 231.603 65.8573C221.66 81.4283 200.686 85.8053 184.757 75.6335C168.828 65.4616 163.976 44.5929 173.919 29.0218Z" fill="#6697DC"/>
<path d="M207.528 97.7474L199.083 61.0583L233.164 63.4477L207.528 97.7474Z" fill="#6697DC"/>
<path d="M155.172 64.314L195.464 56.0097L175.505 26.6282L155.172 64.314Z" fill="#6697DC"/>
<path d="M203.49 80.7502C197.295 80.7261 190.97 79.0685 185.207 75.6431L221.089 19.4525C235.789 29.5172 240.834 48.4392 233.048 63.3338L233.206 63.3464L232.613 64.1379C232.31 64.6807 231.989 65.2182 231.65 65.7487C230.419 67.6766 229.013 69.4289 227.464 70.9999L207.575 97.5038L203.49 80.7502Z" fill="#6697DC"/>
<path d="M198.829 53.5953L155.346 64.15L207.547 97.4842L198.829 53.5953Z" fill="#2F4ECD" stroke="#FFB1B1" stroke-width="3"/>
<path d="M181.446 80.8184L174.833 60.8564L202.337 78.4196L181.446 80.8184Z" fill="#6697DC" stroke="#FFB1B1" stroke-width="2"/>
<path d="M221.004 19.3989L196.973 57.0316" stroke="#FFB1B1" stroke-width="3"/>
<path d="M352.455 152.893C362.398 137.322 357.546 116.453 341.617 106.281C325.688 96.1094 304.714 100.486 294.771 116.057C284.827 131.629 289.68 152.497 305.609 162.669C321.538 172.841 342.512 168.464 352.455 152.893Z" fill="#6697DC"/>
<path d="M275.968 151.314L312.805 143.541L296.3 113.628L275.968 151.314Z" fill="#6697DC"/>
<path d="M328.324 184.748L318.908 144.701L353.959 150.448L328.324 184.748Z" fill="#6697DC"/>
<path d="M293.087 147.827C295.715 153.437 299.879 158.478 305.411 162.265L341.293 106.074C325.978 96.9718 306.69 100.356 296.453 113.685L296.374 113.547L295.906 114.418C295.541 114.921 295.188 115.438 294.85 115.969C293.618 117.897 292.62 119.909 291.847 121.976L276.169 151.169L293.087 147.827Z" fill="#6697DC"/>
<path d="M319.682 140.631L328.4 184.52L276.199 151.186L319.682 140.631Z" fill="#2F4ECD" stroke="#FFB1B1" stroke-width="3"/>
<path d="M302.298 167.854L323.19 165.456L295.686 147.893L302.298 167.854Z" fill="#6697DC" stroke="#FFB1B1" stroke-width="2"/>
<path d="M341.377 106.129L317.346 143.762" stroke="#FFB1B1" stroke-width="3"/>
</svg>
