<svg width="365" height="235" viewBox="0 0 365 235" fill="none" xmlns="http://www.w3.org/2000/svg">
<path d="M82.9665 182.672L90.5561 170.787C107.769 143.831 116.376 130.353 117.704 116.708C118.873 104.704 116.212 92.6393 110.102 82.2416C103.156 70.421 89.6784 61.8143 62.7225 44.601L60.6737 43.2927L82.9665 182.672Z" fill="#036F62"/>
<path d="M56.7659 47.5307L49.1764 59.4159C31.9631 86.3718 23.3566 99.8498 22.0279 113.496C20.8592 125.499 23.5205 137.564 29.6303 147.962C36.5762 159.782 50.054 168.389 77.0099 185.602L79.0587 186.91L56.7659 47.5307Z" fill="#6CBDAA"/>
<path d="M140.965 146L153.43 126.48C181.701 82.2079 195.836 60.0722 215.25 48.6643C232.327 38.6297 252.143 34.2589 271.857 36.1783C294.268 38.3605 316.404 52.4956 360.676 80.7664L364.041 82.9152L140.965 146Z" fill="#036F62"/>
<path d="M360.478 88.4948L348.014 108.015C319.743 152.287 305.607 174.422 286.193 185.83C269.116 195.865 249.301 200.236 229.587 198.316C207.175 196.134 185.039 181.999 140.767 153.728L137.402 151.579L360.478 88.4948Z" fill="#6CBDAA"/>
</svg>
