<svg width="689" height="478" viewBox="0 0 689 478" fill="none" xmlns="http://www.w3.org/2000/svg">
<circle cx="477.603" cy="238.801" r="194.434" fill="#4C4C4C"/>
<circle cx="479.559" cy="238.148" r="200.958" stroke="#3C3C3C" stroke-width="16.964"/>
<rect width="477.602" height="477.602" rx="66.5511" fill="#FFB1B1"/>
<circle cx="477.602" cy="238.8" r="100.479" fill="#4C4C4C"/>
<circle cx="477.602" cy="238.801" r="90.0398" fill="#F4E3D5"/>
<circle cx="477.602" cy="238.801" r="30.0133" fill="#6697DC"/>
<mask id="mask0_69_57" style="mask-type:alpha" maskUnits="userSpaceOnUse" x="0" y="0" width="478" height="478">
<rect width="477.602" height="477.602" rx="66.5511" transform="matrix(-1 0 0 1 477.603 0)" fill="#2F4ECD"/>
</mask>
<g mask="url(#mask0_69_57)">
<rect width="55.49" height="363.299" transform="matrix(-0.626116 -0.77973 -0.77973 0.626116 249.945 -25.1646)" fill="#F4E3D5"/>
<path d="M28.9885 137.507C26.4468 134.377 23.8749 131.21 21.2727 128.006C18.6705 124.801 16.0986 121.634 13.5569 118.504C14.7121 117.566 15.8765 116.62 17.0502 115.667C18.224 114.714 19.3884 113.768 20.5436 112.83C22.627 114.292 24.7238 115.789 26.8341 117.322C28.9478 118.821 31.037 120.309 33.1019 121.785C32.0804 119.461 31.0438 117.119 29.992 114.757C28.9438 112.362 27.9089 110.003 26.8874 107.679C28.0425 106.741 29.1977 105.803 30.3528 104.865C31.5079 103.927 32.6537 102.997 33.7902 102.074C36.3505 105.189 38.9411 108.341 41.5619 111.53C44.1827 114.72 46.7732 117.872 49.3335 120.987C48.551 121.622 47.7592 122.265 46.9581 122.916C46.1756 123.551 45.3931 124.186 44.6106 124.822C42.8859 122.698 41.146 120.555 39.3911 118.394C37.621 116.214 35.8736 114.062 34.1489 111.938C35.3147 114.516 36.4938 117.13 37.6863 119.778C38.8637 122.409 40.0353 125.013 41.2011 127.59C40.5117 128.15 39.8038 128.725 39.0772 129.315C38.3692 129.89 37.6612 130.465 36.9532 131.04C34.6999 129.407 32.4313 127.756 30.1477 126.085C27.849 124.397 25.5729 122.736 23.3195 121.103C25.014 123.19 26.7311 125.304 28.4709 127.447C30.1956 129.571 31.9052 131.676 33.5996 133.763C32.8544 134.368 32.0905 134.988 31.308 135.624C30.5255 136.259 29.7523 136.887 28.9885 137.507ZM62.3398 110.425C62.2188 110.276 62.1053 110.136 61.9994 110.006C61.8784 109.857 61.7649 109.717 61.659 109.587C61.5109 110.356 61.222 111.085 60.7922 111.775C60.3962 112.467 59.8629 113.086 59.1921 113.63C58.242 114.402 57.2039 114.951 56.0781 115.278C54.9371 115.586 53.7683 115.67 52.5715 115.528C51.3783 115.353 50.2172 114.951 49.0881 114.322C47.9777 113.678 46.961 112.788 46.0381 111.652C45.1002 110.496 44.4299 109.309 44.0275 108.09C43.6436 106.856 43.5037 105.656 43.6076 104.489C43.7151 103.289 44.0443 102.172 44.5952 101.137C45.131 100.084 45.8647 99.1786 46.7963 98.4222C47.467 97.8775 48.1912 97.4749 48.969 97.2144C49.7316 96.9352 50.4971 96.7928 51.2654 96.7872C51.1444 96.6381 51.0309 96.4984 50.925 96.368C50.8191 96.2376 50.7132 96.1071 50.6073 95.9767C51.3712 95.3564 52.1444 94.7286 52.9269 94.0932C53.7094 93.4578 54.4732 92.8375 55.2185 92.2323C57.155 94.6171 59.1142 97.0298 61.0961 99.4705C63.0628 101.892 65.0145 104.296 66.951 106.681C66.2057 107.286 65.4419 107.906 64.6594 108.542C63.8769 109.177 63.1037 109.805 62.3398 110.425ZM56.4937 109.051C57.388 108.325 57.8405 107.416 57.8513 106.325C57.8621 105.235 57.4363 104.158 56.574 103.096C55.7116 102.034 54.7531 101.406 53.6984 101.211C52.6286 100.998 51.6466 101.254 50.7523 101.98C49.8394 102.722 49.3699 103.628 49.344 104.701C49.3367 105.758 49.7718 106.827 50.6493 107.907C51.5268 108.988 52.4911 109.642 53.5423 109.871C54.597 110.065 55.5808 109.792 56.4937 109.051ZM75.0008 107.564C74.5715 106.274 74.1441 104.967 73.7184 103.643C73.3264 102.323 72.9234 101.027 72.5093 99.7557C69.8938 98.3242 67.2446 96.8892 64.5616 95.4506C61.8821 93.9784 59.2346 92.5265 56.6191 91.095C57.4388 90.4293 58.2586 89.7636 59.0784 89.098C59.8981 88.4323 60.7086 87.7742 61.5097 87.1236C62.9624 87.9227 64.4302 88.7403 65.9131 89.5766C67.4146 90.3978 68.8993 91.2172 70.3671 92.0349C69.8308 90.4608 69.2964 88.8698 68.7636 87.2619C68.2309 85.654 67.704 84.0723 67.1829 82.5169C67.984 81.8663 68.7851 81.2158 69.5863 80.5652C70.3874 79.9147 71.1885 79.2641 71.9897 78.6136C73.2679 82.7386 74.5747 86.9178 75.91 91.1511C77.2487 95.3506 78.5572 99.5129 79.8355 103.638C79.0344 104.288 78.2239 104.947 77.4042 105.612C76.603 106.263 75.8019 106.913 75.0008 107.564ZM91.2677 86.9347C88.7261 83.8047 86.1541 80.6374 83.552 77.4329C80.9498 74.2284 78.3779 71.0611 75.8362 67.9311C76.9913 66.9931 78.1464 66.0551 79.3016 65.1171C80.4753 64.164 81.6304 63.226 82.7669 62.3031C84.0525 61.2592 85.3688 60.5768 86.7158 60.2559C88.0477 59.9163 89.3166 59.937 90.5226 60.3181C91.7135 60.6805 92.7552 61.4113 93.6478 62.5105C94.2832 63.293 94.7091 64.122 94.9254 64.9975C95.1416 65.873 95.1257 66.7671 94.8774 67.6798C96.0382 67.5101 97.1261 67.6315 98.1411 68.0439C99.141 68.4377 100.004 69.0817 100.73 69.976C101.638 71.0939 102.143 72.3065 102.247 73.6139C102.369 74.9061 102.106 76.2012 101.46 77.4991C100.832 78.7818 99.838 79.9754 98.4779 81.0798C97.2855 82.0481 96.0838 83.0239 94.8728 84.0073C93.6618 84.9906 92.4601 85.9665 91.2677 86.9347ZM89.1429 66.9569C88.7496 66.4725 88.2828 66.2023 87.7427 66.1463C87.1874 66.0716 86.6675 66.231 86.1831 66.6243C85.8478 66.8966 85.5031 67.1765 85.1491 67.464C84.8138 67.7363 84.4784 68.0086 84.143 68.2809C84.5666 68.8026 85.0054 69.3429 85.4593 69.9018C85.898 70.4421 86.3367 70.9824 86.7755 71.5227C87.1108 71.2504 87.4462 70.9781 87.7815 70.7058C88.1355 70.4183 88.4802 70.1384 88.8156 69.8661C89.3 69.4728 89.5778 69.0153 89.6489 68.4938C89.705 67.9536 89.5363 67.4413 89.1429 66.9569ZM95.4765 73.5002C95.0529 72.9785 94.5431 72.7124 93.947 72.7017C93.3545 72.6573 92.7601 72.8772 92.1639 73.3613C91.7726 73.679 91.3814 73.9967 90.9901 74.3144C90.5989 74.6322 90.2076 74.9499 89.8164 75.2676C90.2854 75.8451 90.7544 76.4227 91.2234 77.0003C91.6924 77.5778 92.1614 78.1554 92.6304 78.7329C93.0216 78.4152 93.4129 78.0975 93.8041 77.7798C94.1954 77.4621 94.5866 77.1444 94.9779 76.8267C95.5741 76.3426 95.9113 75.806 95.9894 75.2169C96.0862 74.6127 95.9153 74.0405 95.4765 73.5002ZM119.528 62.8738C118.681 64.458 117.677 65.8297 116.516 66.9889C115.355 68.1481 114.093 69.0494 112.729 69.6928C111.4 70.3397 110.032 70.6926 108.627 70.7516C107.222 70.8106 105.859 70.5412 104.539 69.9437C103.238 69.3309 102.05 68.3632 100.976 67.0404C100.083 65.9411 99.4434 64.7913 99.0561 63.591C98.6723 62.3568 98.5358 61.1228 98.6468 59.8888C98.7426 58.6362 99.0957 57.4529 99.706 56.339C100.301 55.2064 101.139 54.2014 102.22 53.3239C103.189 52.5372 104.193 51.9845 105.232 51.6658C106.272 51.3471 107.315 51.242 108.362 51.3506C109.393 51.4405 110.404 51.733 111.393 52.2281C112.383 52.7231 113.302 53.3986 114.152 54.2545C115.001 55.1104 115.747 56.1432 116.389 57.353C114.862 58.5936 113.325 59.8417 111.778 61.0974C110.232 62.3531 108.695 63.6013 107.167 64.8418C108.096 65.2624 109.091 65.2888 110.153 64.9213C111.234 64.5386 112.297 63.8299 113.342 62.7952C114.407 61.7454 115.394 60.4488 116.305 58.9054C116.835 59.5575 117.372 60.2189 117.916 60.8896C118.461 61.5603 118.998 62.2217 119.528 62.8738ZM105.467 57.5507C104.926 57.9895 104.544 58.547 104.321 59.2233C104.115 59.8845 104.141 60.6209 104.398 61.4324C105.237 60.7516 106.075 60.0708 106.914 59.39C107.771 58.694 108.618 58.0057 109.457 57.3248C108.719 56.8729 108.013 56.6888 107.339 56.7724C106.668 56.8223 106.044 57.0817 105.467 57.5507ZM123.632 60.6538C120.894 57.2816 118.133 53.8814 115.349 50.4533C112.565 47.0252 109.804 43.625 107.066 40.2528C107.83 39.6325 108.603 39.0047 109.386 38.3693C110.168 37.7338 110.932 37.1136 111.677 36.5084C114.416 39.8806 117.177 43.2808 119.96 46.7089C122.744 50.137 125.505 53.5371 128.243 56.9094C127.498 57.5145 126.734 58.1348 125.952 58.7702C125.169 59.4056 124.396 60.0335 123.632 60.6538ZM131.601 54.1826C128.863 50.8104 126.102 47.4102 123.318 43.9821C120.534 40.554 117.773 37.1538 115.035 33.7816C115.799 33.1613 116.572 32.5335 117.355 31.8981C118.137 31.2627 118.901 30.6424 119.646 30.0372C122.385 33.4094 125.146 36.8096 127.929 40.2377C130.713 43.6658 133.474 47.066 136.213 50.4382C135.467 51.0433 134.703 51.6636 133.921 52.299C133.138 52.9345 132.365 53.5623 131.601 54.1826ZM146.839 34.3895C147.777 35.5447 148.222 36.7596 148.175 38.0344C148.132 39.2753 147.706 40.5023 146.898 41.7151C146.089 42.9279 144.992 44.0511 143.605 45.0844C142.252 46.1213 140.727 47.0039 139.031 47.7322C138.456 47.0242 137.866 46.2976 137.261 45.5524C136.656 44.8072 136.066 44.0805 135.491 43.3726C136.561 43.0911 137.57 42.7352 138.519 42.3047C139.453 41.8556 140.252 41.3925 140.915 40.9154C141.579 40.4382 142.053 39.9756 142.339 39.5275C142.609 39.0607 142.608 38.6597 142.336 38.3243C142.124 38.0635 141.79 37.9947 141.333 38.118C140.896 38.2261 140.371 38.4361 139.758 38.7479C139.131 39.0411 138.451 39.346 137.718 39.6624C136.989 39.9451 136.235 40.1399 135.457 40.2468C134.663 40.335 133.879 40.2451 133.105 39.9772C132.334 39.6754 131.593 39.0867 130.882 38.2111C130.035 37.1677 129.614 36.0407 129.62 34.83C129.63 33.5855 129.996 32.3609 130.718 31.1562C131.425 29.9328 132.412 28.8068 133.679 27.778C134.946 26.7492 136.415 25.912 138.085 25.2664C138.66 25.9743 139.25 26.701 139.856 27.4462C140.461 28.1914 141.051 28.918 141.626 29.626C140.174 29.9702 138.923 30.4291 137.874 31.0028C136.825 31.5764 136.074 32.1554 135.621 32.7396C135.153 33.3053 135.078 33.7838 135.395 34.175C135.607 34.4358 135.932 34.5122 136.37 34.404C136.811 34.2621 137.329 34.0428 137.922 33.7461C138.535 33.4343 139.206 33.1371 139.934 32.8544C140.682 32.5566 141.443 32.3711 142.219 32.298C142.998 32.1911 143.78 32.2978 144.566 32.6182C145.355 32.9048 146.112 33.4953 146.839 34.3895Z" fill="#FFB1B1"/>
</g>
</svg>
