<svg width="400" height="507" viewBox="0 0 400 507" fill="none" xmlns="http://www.w3.org/2000/svg">
<path d="M308.069 231.991C330.694 191.491 304.615 161.474 273.699 168.663" stroke="#036F62" stroke-width="3.28782"/>
<path d="M62.3307 466.119L308.707 80.2875C344.181 24.7351 280.57 -13.0554 244.082 44.0844" stroke="#036F62" stroke-width="3.28782"/>
<path d="M69.3364 467.358L310.627 89.3708C345.751 34.3669 408.582 72.2765 372.455 128.852" stroke="#036F62" stroke-width="3.28782"/>
<path d="M177.999 146.698C203.101 107.389 243.513 119.431 250.402 149.175" stroke="#036F62" stroke-width="3.28782"/>
<path d="M104.22 259.533C130.892 217.765 174.207 227.584 177.739 262.395" stroke="#036F62" stroke-width="3.28782"/>
<path d="M56.7283 464.142L305.692 74.2665C330.499 35.418 287.836 -4.55633 252.425 42.8019" stroke="#6CBDAA" stroke-width="3.28782"/>
<path d="M76.1992 466.987L318.605 87.6206C343.413 48.7722 397.625 70.6597 369.558 122.708" stroke="#6CBDAA" stroke-width="3.28782"/>
<path d="M183.377 149.806C211.98 111.552 246.08 129.943 244.562 159.541" stroke="#6CBDAA" stroke-width="3.28782"/>
<path d="M303.194 229.241C325.865 187.199 294.081 163.705 267.867 177.534" stroke="#6CBDAA" stroke-width="3.28782"/>
<path d="M109.072 262.166C140.161 220.261 174.928 239.144 172.579 271.045" stroke="#6CBDAA" stroke-width="3.28782"/>
</svg>
