<svg width="299" height="299" viewBox="0 0 299 299" fill="none" xmlns="http://www.w3.org/2000/svg">
<path d="M157.707 183.436C164.775 171.938 155.257 187.422 163.642 173.781C172.027 160.14 169.924 163.561 169.924 163.561C169.924 163.561 220.385 194.578 241.308 207.44C232.923 221.08 197.131 207.67 157.707 183.436Z" fill="white"/>
<path d="M183.5 141.474C176.433 152.972 185.653 137.971 177.269 151.612C168.884 165.253 170.986 161.832 170.986 161.832C170.986 161.832 221.447 192.85 242.37 205.711C250.755 192.07 222.924 165.708 183.5 141.474Z" fill="#F4E3D5"/>
<path d="M182.955 140.972C171.457 133.904 186.941 143.421 173.3 135.036C159.659 126.651 163.08 128.754 163.08 128.754C163.08 128.754 194.097 78.2933 206.959 57.3706C220.599 65.7556 207.189 101.548 182.955 140.972Z" fill="white"/>
<path d="M140.993 115.178C152.491 122.245 137.491 113.024 151.131 121.409C164.772 129.794 161.352 127.692 161.352 127.692C161.352 127.692 192.369 77.2309 205.23 56.308C191.59 47.9231 165.227 75.7536 140.993 115.178Z" fill="#F4E3D5"/>
<path d="M115.744 157.643C127.242 164.71 111.759 155.193 125.4 163.578C139.041 171.963 135.62 169.86 135.62 169.86C135.62 169.86 104.602 220.321 91.7412 241.244C78.1003 232.859 91.5107 197.067 115.744 157.643Z" fill="white"/>
<path d="M157.706 183.436C146.208 176.368 161.209 185.589 147.568 177.204C133.928 168.819 137.348 170.922 137.348 170.922C137.348 170.922 106.33 221.383 93.4694 242.306C107.11 250.691 133.473 222.86 157.706 183.436Z" fill="#F4E3D5"/>
<rect x="180.757" y="141.756" width="45.3105" height="45.3105" transform="rotate(121.579 180.757 141.756)" fill="#FECC73"/>
<path d="M140.76 115.866C133.693 127.364 143.21 111.881 134.825 125.522C126.44 139.163 128.543 135.742 128.543 135.742C128.543 135.742 78.082 104.724 57.1594 91.8631C65.5443 78.2223 101.336 91.6326 140.76 115.866Z" fill="white"/>
<path d="M114.966 157.828C122.034 146.33 112.813 161.331 121.198 147.69C129.583 134.05 127.48 137.47 127.48 137.47C127.48 137.47 77.0195 106.452 56.0966 93.5915C47.7117 107.232 75.5422 133.595 114.966 157.828Z" fill="#F4E3D5"/>
</svg>
