<svg width="176" height="150" viewBox="0 0 176 150" fill="none" xmlns="http://www.w3.org/2000/svg">
<path d="M90.8241 95.2476V82.5131C90.8241 53.6309 90.8243 39.1899 96.4451 28.1583C101.389 18.4546 109.279 10.5653 118.982 5.62099C130.014 0.000177633 144.455 0 173.337 0H175.532L90.8241 95.2476Z" fill="#036F62"/>
<path d="M175.532 3.64009V16.3746C175.532 45.2568 175.532 59.6978 169.911 70.7294C164.967 80.4331 157.078 88.3224 147.374 93.2667C136.342 98.8875 121.901 98.8877 93.0192 98.8877H90.824L175.532 3.64009Z" fill="#6CBDAA"/>
<path d="M74.7704 145.893V134.653C74.7704 109.159 74.7702 96.412 69.8088 86.6746C65.4446 78.1094 58.4808 71.1456 49.9156 66.7814C40.1783 61.82 27.4314 61.8198 1.93764 61.8198H-1.52588e-05L74.7704 145.893Z" fill="#6CBDAA"/>
<path d="M0.00012207 65.0327V76.2732C0.00012207 101.767 0.000278863 114.514 4.96166 124.251C9.32587 132.816 16.2897 139.78 24.8549 144.144C34.5923 149.106 47.3391 149.106 72.8329 149.106H74.7705L0.00012207 65.0327Z" fill="#036F62"/>
</svg>
