<svg width="244" height="453" viewBox="0 0 244 453" fill="none" xmlns="http://www.w3.org/2000/svg">
<path d="M108 138H112V453H108V138Z" fill="#036F62"/>
<path d="M114 138H118V453H114V138Z" fill="#6CBDAA"/>
<path d="M118 433.625V414.824C118 372.182 118.001 350.861 126.299 334.573C133.599 320.247 145.247 308.599 159.574 301.299C175.861 293 197.182 293 239.824 293H243.065L118 433.625Z" fill="#036F62"/>
<path d="M243.065 298.374V317.176C243.065 359.818 243.065 381.139 234.766 397.426C227.466 411.753 215.818 423.401 201.491 430.701C185.204 438.999 163.883 439 121.241 439H118L243.065 298.374Z" fill="#6CBDAA"/>
<path d="M108.361 144.395C118.163 139.597 104.963 146.058 116.593 140.366C128.222 134.673 125.306 136.1 125.306 136.1C125.306 136.1 146.365 179.119 155.096 196.957C143.467 202.649 124.814 178.005 108.361 144.395Z" fill="white"/>
<path d="M144.134 126.883C134.332 131.681 147.121 125.421 135.492 131.114C123.862 136.807 126.779 135.379 126.779 135.379C126.779 135.379 147.838 178.398 156.57 196.235C168.199 190.542 160.587 160.493 144.134 126.883Z" fill="#F4E3D5"/>
<path d="M143.979 126.304C139.181 116.501 145.643 129.701 139.95 118.072C134.257 106.443 135.685 109.359 135.685 109.359C135.685 109.359 178.704 88.2998 196.541 79.5681C202.234 91.1973 177.589 109.851 143.979 126.304Z" fill="white"/>
<path d="M126.467 90.5296C131.266 100.332 125.006 87.5433 130.698 99.1725C136.391 110.802 134.964 107.885 134.964 107.885C134.964 107.885 177.983 86.8264 195.82 78.0945C190.127 66.4653 160.077 74.0765 126.467 90.5296Z" fill="#F4E3D5"/>
<path d="M90.8483 108.621C95.6468 118.424 89.1851 105.224 94.8779 116.853C100.571 128.482 99.1432 125.566 99.1432 125.566C99.1432 125.566 56.1241 146.625 38.2868 155.357C32.594 143.728 57.2383 125.074 90.8483 108.621Z" fill="white"/>
<path d="M108.361 144.395C103.562 134.592 109.822 147.381 104.13 135.752C98.4368 124.123 99.8643 127.039 99.8643 127.039C99.8643 127.039 56.8453 148.098 39.0081 156.83C44.7009 168.459 74.7505 160.848 108.361 144.395Z" fill="#F4E3D5"/>
<rect x="142.138" y="125.889" width="36.6398" height="36.6398" transform="rotate(153.917 142.138 125.889)" fill="#FECC73"/>
<path d="M126.01 90.8992C116.208 95.6977 129.407 89.236 117.778 94.9288C106.149 100.622 109.065 99.1941 109.065 99.1941C109.065 99.1941 88.0062 56.175 79.2745 38.3378C90.9037 32.6449 109.557 57.2892 126.01 90.8992Z" fill="white"/>
<path d="M90.236 108.412C100.038 103.613 87.2497 109.873 98.8789 104.181C110.508 98.4879 107.592 99.9154 107.592 99.9154C107.592 99.9154 86.5328 56.8963 77.8009 39.0592C66.1717 44.752 73.783 74.8016 90.236 108.412Z" fill="#F4E3D5"/>
</svg>
