<svg width="306" height="249" viewBox="0 0 306 249" fill="none" xmlns="http://www.w3.org/2000/svg">
<rect x="236.89" y="206.243" width="21.1844" height="8.11035" transform="rotate(90.1729 236.89 206.243)" fill="#6697DC"/>
<rect y="240.682" width="21.1844" height="8.11035" fill="#6697DC"/>
<rect x="35.6421" y="240.682" width="21.1844" height="8.11035" fill="#6697DC"/>
<rect x="71.6421" y="240.682" width="21.1844" height="8.11035" fill="#6697DC"/>
<rect x="110.642" y="240.682" width="21.1844" height="8.11035" fill="#6697DC"/>
<rect x="146.642" y="240.682" width="21.1844" height="8.11035" fill="#6697DC"/>
<rect x="182.642" y="240.682" width="21.1844" height="8.11035" fill="#6697DC"/>
<rect x="215.642" y="240.682" width="21.1844" height="8.11035" fill="#6697DC"/>
<rect x="236.816" y="171.779" width="21.1844" height="8.11035" transform="rotate(90.1729 236.816 171.779)" fill="#6697DC"/>
<rect x="236.954" y="138.135" width="21.1844" height="8.11035" transform="rotate(90.1729 236.954 138.135)" fill="#6697DC"/>
<rect x="236.885" y="103.35" width="21.1844" height="8.11035" transform="rotate(90.1729 236.885 103.35)" fill="#6697DC"/>
<rect x="236.752" y="68.7051" width="21.1844" height="8.11035" transform="rotate(90.1729 236.752 68.7051)" fill="#6697DC"/>
<rect x="236.688" y="34.2417" width="21.1844" height="8.11035" transform="rotate(90.1729 236.688 34.2417)" fill="#6697DC"/>
<rect x="236.688" y="0.0244141" width="21.1844" height="8.11035" transform="rotate(90.1729 236.688 0.0244141)" fill="#6697DC"/>
<rect x="249.973" width="21.1844" height="8.11035" fill="#6697DC"/>
<rect x="284.442" y="0.334473" width="21.1844" height="8.11035" fill="#6697DC"/>
</svg>
