<svg width="142" height="163" viewBox="0 0 142 163" fill="none" xmlns="http://www.w3.org/2000/svg">
<rect width="21.1844" height="8.11035" transform="matrix(1 0 0 -1 0 8.11035)" fill="#6697DC"/>
<rect width="21.1844" height="8.11035" transform="matrix(1 0 0 -1 36 8.11035)" fill="#6697DC"/>
<rect width="21.1844" height="8.11035" transform="matrix(1 0 0 -1 71 8.11035)" fill="#6697DC"/>
<rect width="21.1844" height="8.11035" transform="matrix(-0.00301799 -0.999995 -0.999995 0.00301799 92.2483 42.5488)" fill="#6697DC"/>
<rect width="21.1844" height="8.11035" transform="matrix(-0.00301799 -0.999995 -0.999995 0.00301799 92.1743 77.0127)" fill="#6697DC"/>
<rect width="21.1844" height="8.11035" transform="matrix(-0.00301799 -0.999995 -0.999995 0.00301799 92.3123 110.656)" fill="#6697DC"/>
<rect width="21.1844" height="8.11035" transform="matrix(-0.00301799 -0.999995 -0.999995 0.00301799 93.2434 144.301)" fill="#6697DC"/>
<rect width="21.1844" height="8.11035" transform="matrix(1 0 0 -1 85.0691 162.209)" fill="#6697DC"/>
<rect width="21.1844" height="8.11035" transform="matrix(1 0 0 -1 120.674 162.209)" fill="#6697DC"/>
</svg>
