<svg width="411" height="205" viewBox="0 0 411 205" fill="none" xmlns="http://www.w3.org/2000/svg">
<rect y="11.6699" width="410.93" height="193.205" rx="39.1559" fill="white"/>
<rect y="107.624" width="63.7361" height="97.2509" fill="white"/>
<rect x="347.194" y="11.6699" width="63.7361" height="97.2509" fill="white"/>
<path d="M410.93 101.08H0V37.3761C0 16.7339 16.7338 7.62939e-05 37.376 7.62939e-05H410.93V101.08Z" fill="#6697DC"/>
<path opacity="0.8" d="M38.7848 58.2007C38.7848 52.8247 38.7848 47.3847 38.7848 41.8807C38.7848 36.3767 38.7848 30.9367 38.7848 25.5607C40.7688 25.5607 42.7688 25.5607 44.7848 25.5607C46.8008 25.5607 48.8008 25.5607 50.7848 25.5607C51.7128 28.8247 52.6248 32.1367 53.5208 35.4967C54.4488 38.8247 55.3608 42.1207 56.2568 45.3847C57.1528 42.1207 58.0488 38.8247 58.9448 35.4967C59.8728 32.1367 60.7848 28.8247 61.6808 25.5607C63.6648 25.5607 65.6488 25.5607 67.6328 25.5607C69.6168 25.5607 71.5848 25.5607 73.5368 25.5607C73.5688 30.9367 73.6008 36.3767 73.6328 41.8807C73.6648 47.3847 73.6968 52.8247 73.7288 58.2007C72.3848 58.2007 71.0248 58.2007 69.6488 58.2007C68.3048 58.2007 66.9608 58.2007 65.6168 58.2007C65.6168 54.5527 65.6168 50.8727 65.6168 47.1607C65.6168 43.4167 65.6168 39.7207 65.6168 36.0727C64.6568 39.7207 63.6808 43.4167 62.6888 47.1607C61.6968 50.8727 60.7208 54.5527 59.7608 58.2007C58.5768 58.2007 57.3608 58.2007 56.1128 58.2007C54.8968 58.2007 53.6808 58.2007 52.4648 58.2007C51.5048 54.6167 50.5448 51.0007 49.5848 47.3527C48.6248 43.6727 47.6648 40.0407 46.7048 36.4567C46.7048 40.0407 46.7048 43.6727 46.7048 47.3527C46.7048 51.0007 46.7048 54.6167 46.7048 58.2007C45.4248 58.2007 44.1128 58.2007 42.7688 58.2007C41.4248 58.2007 40.0968 58.2007 38.7848 58.2007ZM91.2679 58.9687C89.4119 58.9687 87.6839 58.6487 86.0839 58.0087C84.4839 57.3367 83.0919 56.4087 81.9079 55.2247C80.7239 54.0087 79.7959 52.6007 79.1239 51.0007C78.4839 49.4007 78.1639 47.6567 78.1639 45.7687C78.1639 43.8807 78.4839 42.1367 79.1239 40.5367C79.7959 38.9367 80.7239 37.5447 81.9079 36.3607C83.0919 35.1767 84.4839 34.2647 86.0839 33.6247C87.6839 32.9527 89.4119 32.6167 91.2679 32.6167C93.1559 32.6167 94.8839 32.9527 96.4519 33.6247C98.0519 34.2647 99.4439 35.1767 100.628 36.3607C101.812 37.5447 102.724 38.9367 103.364 40.5367C104.036 42.1367 104.372 43.8807 104.372 45.7687C104.372 47.6567 104.036 49.4007 103.364 51.0007C102.724 52.6007 101.812 54.0087 100.628 55.2247C99.4439 56.4087 98.0519 57.3367 96.4519 58.0087C94.8839 58.6487 93.1559 58.9687 91.2679 58.9687ZM91.2679 51.8167C92.8359 51.8167 94.0839 51.2567 95.0119 50.1367C95.9719 48.9847 96.4519 47.5287 96.4519 45.7687C96.4519 43.9767 95.9719 42.5367 95.0119 41.4487C94.0839 40.3287 92.8359 39.7687 91.2679 39.7687C89.6999 39.7687 88.4359 40.3287 87.4759 41.4487C86.5479 42.5367 86.0839 43.9767 86.0839 45.7687C86.0839 47.5287 86.5479 48.9847 87.4759 50.1367C88.4359 51.2567 89.6999 51.8167 91.2679 51.8167ZM120.049 58.9687C118.193 58.9687 116.465 58.6487 114.865 58.0087C113.265 57.3367 111.873 56.4087 110.689 55.2247C109.505 54.0087 108.577 52.6007 107.905 51.0007C107.265 49.4007 106.945 47.6567 106.945 45.7687C106.945 43.8807 107.265 42.1367 107.905 40.5367C108.577 38.9367 109.505 37.5447 110.689 36.3607C111.873 35.1767 113.265 34.2647 114.865 33.6247C116.465 32.9527 118.193 32.6167 120.049 32.6167C121.937 32.6167 123.665 32.9527 125.233 33.6247C126.833 34.2647 128.225 35.1767 129.409 36.3607C130.593 37.5447 131.505 38.9367 132.145 40.5367C132.817 42.1367 133.153 43.8807 133.153 45.7687C133.153 47.6567 132.817 49.4007 132.145 51.0007C131.505 52.6007 130.593 54.0087 129.409 55.2247C128.225 56.4087 126.833 57.3367 125.233 58.0087C123.665 58.6487 121.937 58.9687 120.049 58.9687ZM120.049 51.8167C121.617 51.8167 122.865 51.2567 123.793 50.1367C124.753 48.9847 125.233 47.5287 125.233 45.7687C125.233 43.9767 124.753 42.5367 123.793 41.4487C122.865 40.3287 121.617 39.7687 120.049 39.7687C118.481 39.7687 117.217 40.3287 116.257 41.4487C115.329 42.5367 114.865 43.9767 114.865 45.7687C114.865 47.5287 115.329 48.9847 116.257 50.1367C117.217 51.2567 118.481 51.8167 120.049 51.8167ZM153.63 58.2007C153.63 57.9447 153.63 57.7047 153.63 57.4807C153.63 57.2247 153.63 56.9847 153.63 56.7607C152.83 57.4327 151.918 57.9447 150.894 58.2967C149.902 58.6807 148.83 58.8727 147.678 58.8727C146.046 58.8727 144.51 58.5527 143.07 57.9127C141.63 57.2727 140.35 56.3767 139.23 55.2247C138.142 54.0407 137.278 52.6487 136.638 51.0487C136.03 49.4487 135.726 47.6887 135.726 45.7687C135.726 43.8167 136.03 42.0407 136.638 40.4407C137.278 38.8407 138.142 37.4647 139.23 36.3127C140.35 35.1607 141.63 34.2807 143.07 33.6727C144.51 33.0327 146.03 32.7127 147.63 32.7127C148.782 32.7127 149.87 32.9047 150.894 33.2887C151.918 33.6407 152.83 34.1367 153.63 34.7767C153.63 32.8567 153.63 30.9207 153.63 28.9687C153.63 27.0167 153.63 25.0807 153.63 23.1607C154.942 23.1607 156.27 23.1607 157.614 23.1607C158.958 23.1607 160.27 23.1607 161.55 23.1607C161.55 28.9527 161.55 34.7927 161.55 40.6807C161.55 46.5687 161.55 52.4087 161.55 58.2007C160.27 58.2007 158.958 58.2007 157.614 58.2007C156.27 58.2007 154.942 58.2007 153.63 58.2007ZM148.734 51.8647C150.27 51.8647 151.502 51.3047 152.43 50.1847C153.358 49.0647 153.822 47.5927 153.822 45.7687C153.822 43.9447 153.358 42.4887 152.43 41.4007C151.502 40.2807 150.27 39.7207 148.734 39.7207C147.166 39.7207 145.918 40.2647 144.99 41.3527C144.094 42.4407 143.646 43.9127 143.646 45.7687C143.646 47.6247 144.094 49.1127 144.99 50.2327C145.918 51.3207 147.166 51.8647 148.734 51.8647ZM177.629 58.2007C177.629 52.8247 177.629 47.3847 177.629 41.8807C177.629 36.3767 177.629 30.9367 177.629 25.5607C180.861 25.5607 184.125 25.5607 187.421 25.5607C190.717 25.5607 193.981 25.5607 197.213 25.5607C197.213 26.7767 197.213 28.0247 197.213 29.3047C197.213 30.5847 197.213 31.8327 197.213 33.0487C195.357 33.0487 193.485 33.0487 191.597 33.0487C189.741 33.0487 187.885 33.0487 186.029 33.0487C186.029 33.8487 186.029 34.6487 186.029 35.4487C186.029 36.2167 186.029 37.0007 186.029 37.8007C187.725 37.8007 189.437 37.8007 191.165 37.8007C192.893 37.8007 194.589 37.8007 196.253 37.8007C196.253 38.9847 196.253 40.1847 196.253 41.4007C196.253 42.6167 196.253 43.8327 196.253 45.0487C194.589 45.0487 192.893 45.0487 191.165 45.0487C189.437 45.0487 187.725 45.0487 186.029 45.0487C186.029 45.9767 186.029 46.9207 186.029 47.8807C186.029 48.8407 186.029 49.7847 186.029 50.7127C187.885 50.7127 189.741 50.7127 191.597 50.7127C193.485 50.7127 195.357 50.7127 197.213 50.7127C197.213 51.9287 197.213 53.1767 197.213 54.4567C197.213 55.7367 197.213 56.9847 197.213 58.2007C193.981 58.2007 190.717 58.2007 187.421 58.2007C184.125 58.2007 180.861 58.2007 177.629 58.2007ZM202.508 58.2007C202.508 54.1047 202.508 49.9767 202.508 45.8167C202.508 41.6247 202.508 37.4807 202.508 33.3847C203.82 33.3847 205.148 33.3847 206.492 33.3847C207.836 33.3847 209.148 33.3847 210.428 33.3847C210.428 33.6087 210.428 33.8167 210.428 34.0087C210.428 34.2007 210.428 34.4087 210.428 34.6327C211.292 34.0247 212.252 33.5607 213.308 33.2407C214.396 32.8887 215.564 32.7127 216.812 32.7127C218.636 32.7127 220.236 33.1287 221.612 33.9607C223.02 34.7927 224.108 35.9927 224.876 37.5607C225.676 39.0967 226.076 40.9527 226.076 43.1287C226.076 45.6247 226.076 48.1367 226.076 50.6647C226.076 53.1927 226.076 55.7047 226.076 58.2007C224.796 58.2007 223.484 58.2007 222.14 58.2007C220.796 58.2007 219.468 58.2007 218.156 58.2007C218.156 55.8967 218.156 53.5607 218.156 51.1927C218.156 48.8247 218.156 46.4887 218.156 44.1847C218.156 42.9047 217.852 41.8807 217.244 41.1127C216.668 40.3127 215.74 39.9127 214.46 39.9127C213.18 39.9127 212.188 40.2807 211.484 41.0167C210.78 41.7527 210.428 42.8087 210.428 44.1847C210.428 46.4887 210.428 48.8247 210.428 51.1927C210.428 53.5607 210.428 55.8967 210.428 58.2007C209.148 58.2007 207.836 58.2007 206.492 58.2007C205.148 58.2007 203.82 58.2007 202.508 58.2007ZM252.321 57.0487C250.113 57.9767 247.921 58.5527 245.745 58.7767C243.569 59.0007 241.505 58.8727 239.553 58.3927C237.633 57.9447 235.921 57.1607 234.417 56.0407C232.913 54.9207 231.729 53.4967 230.865 51.7687C230.033 50.0407 229.617 48.0407 229.617 45.7687C229.617 43.8807 229.921 42.1527 230.529 40.5847C231.169 38.9847 232.065 37.5927 233.217 36.4087C234.369 35.1927 235.729 34.2647 237.297 33.6247C238.865 32.9527 240.577 32.6167 242.433 32.6167C244.097 32.6167 245.601 32.8887 246.945 33.4327C248.289 33.9767 249.457 34.7447 250.449 35.7367C251.441 36.6967 252.241 37.8487 252.849 39.1927C253.457 40.5367 253.841 42.0087 254.001 43.6087C254.161 45.2087 254.065 46.9047 253.713 48.6967C251.089 48.6967 248.449 48.6967 245.793 48.6967C243.137 48.6967 240.497 48.6967 237.873 48.6967C238.481 49.9127 239.489 50.7767 240.897 51.2887C242.337 51.8007 244.033 51.9607 245.985 51.7687C247.969 51.5767 250.081 51.0647 252.321 50.2327C252.321 51.3527 252.321 52.4887 252.321 53.6407C252.321 54.7927 252.321 55.9287 252.321 57.0487ZM242.241 39.7207C241.313 39.7207 240.449 39.9767 239.649 40.4887C238.881 41.0007 238.289 41.7847 237.873 42.8407C239.313 42.8407 240.753 42.8407 242.193 42.8407C243.665 42.8407 245.121 42.8407 246.561 42.8407C246.177 41.7527 245.601 40.9687 244.833 40.4887C244.097 39.9767 243.233 39.7207 242.241 39.7207ZM258.195 58.2007C258.195 54.1047 258.195 49.9767 258.195 45.8167C258.195 41.6247 258.195 37.4807 258.195 33.3847C259.507 33.3847 260.835 33.3847 262.179 33.3847C263.523 33.3847 264.835 33.3847 266.115 33.3847C266.115 33.6087 266.115 33.8327 266.115 34.0567C266.115 34.2807 266.115 34.5047 266.115 34.7287C267.107 34.0247 268.227 33.4967 269.475 33.1447C270.723 32.7927 272.083 32.6967 273.555 32.8567C273.555 34.1367 273.555 35.4327 273.555 36.7447C273.555 38.0567 273.555 39.3527 273.555 40.6327C271.027 40.2807 269.155 40.5047 267.939 41.3047C266.723 42.0727 266.115 43.3367 266.115 45.0967C266.115 47.2407 266.115 49.4167 266.115 51.6247C266.115 53.8327 266.115 56.0247 266.115 58.2007C264.835 58.2007 263.523 58.2007 262.179 58.2007C260.835 58.2007 259.507 58.2007 258.195 58.2007ZM300.227 54.1687C300.227 56.8887 299.635 59.1607 298.451 60.9847C297.299 62.8087 295.715 64.1687 293.699 65.0647C291.683 65.9927 289.379 66.4727 286.787 66.5047C284.227 66.5367 281.523 66.1527 278.675 65.3527C278.675 64.1047 278.675 62.8407 278.675 61.5607C278.675 60.3127 278.675 59.0647 278.675 57.8167C281.203 58.8087 283.491 59.3047 285.539 59.3047C287.587 59.3367 289.203 58.9527 290.387 58.1527C291.603 57.3207 292.211 56.1847 292.211 54.7447C292.211 54.5847 292.211 54.4407 292.211 54.3127C292.211 54.1527 292.211 54.0087 292.211 53.8807C291.411 54.4887 290.483 54.9687 289.427 55.3207C288.371 55.6727 287.235 55.8487 286.019 55.8487C284.003 55.8487 282.195 55.3847 280.595 54.4567C279.027 53.4967 277.795 52.1847 276.899 50.5207C276.003 48.8247 275.555 46.8567 275.555 44.6167C275.555 42.8887 275.843 41.3047 276.419 39.8647C276.995 38.4247 277.795 37.1767 278.819 36.1207C279.843 35.0647 281.011 34.2647 282.323 33.7207C283.635 33.1447 285.011 32.8567 286.451 32.8567C287.603 32.8567 288.675 33.0167 289.667 33.3367C290.659 33.6567 291.539 34.0887 292.307 34.6327C292.307 34.4087 292.307 34.2007 292.307 34.0087C292.307 33.8167 292.307 33.6087 292.307 33.3847C293.619 33.3847 294.947 33.3847 296.291 33.3847C297.635 33.3847 298.947 33.3847 300.227 33.3847C300.227 36.8087 300.227 40.2807 300.227 43.8007C300.227 47.2887 300.227 50.7447 300.227 54.1687ZM287.987 48.9847C289.331 48.9847 290.403 48.5687 291.203 47.7367C292.035 46.8727 292.451 45.7687 292.451 44.4247C292.451 43.0487 292.035 41.9287 291.203 41.0647C290.403 40.2007 289.331 39.7687 287.987 39.7687C286.579 39.7687 285.459 40.2007 284.627 41.0647C283.795 41.8967 283.379 43.0167 283.379 44.4247C283.379 45.8007 283.795 46.9047 284.627 47.7367C285.459 48.5687 286.579 48.9847 287.987 48.9847ZM307.796 65.8807C308.436 64.1847 309.092 62.4727 309.764 60.7447C310.468 59.0487 311.14 57.3687 311.78 55.7047C310.276 52.0247 308.74 48.3127 307.172 44.5687C305.636 40.7927 304.116 37.0647 302.612 33.3847C304.02 33.3847 305.428 33.3847 306.836 33.3847C308.244 33.3847 309.636 33.3847 311.012 33.3847C311.844 35.4327 312.676 37.5127 313.508 39.6247C314.372 41.7367 315.22 43.8327 316.052 45.9127C316.82 43.8327 317.604 41.7367 318.404 39.6247C319.204 37.5127 319.988 35.4327 320.756 33.3847C322.132 33.3847 323.508 33.3847 324.884 33.3847C326.26 33.3847 327.636 33.3847 329.012 33.3847C326.868 38.7287 324.708 44.1527 322.532 49.6567C320.388 55.1287 318.244 60.5367 316.1 65.8807C314.724 65.8807 313.332 65.8807 311.924 65.8807C310.548 65.8807 309.172 65.8807 307.796 65.8807Z" fill="white"/>
<path d="M38.123 86.9038C38.123 84.2158 38.123 81.4958 38.123 78.7438C38.123 75.9918 38.123 73.2718 38.123 70.5838C39.739 70.5838 41.371 70.5838 43.019 70.5838C44.667 70.5838 46.299 70.5838 47.915 70.5838C47.915 71.2078 47.915 71.8398 47.915 72.4798C47.915 73.1198 47.915 73.7518 47.915 74.3758C46.987 74.3758 46.051 74.3758 45.107 74.3758C44.179 74.3758 43.251 74.3758 42.323 74.3758C42.323 74.8398 42.323 75.3198 42.323 75.8158C42.323 76.2958 42.323 76.7678 42.323 77.2318C43.171 77.2318 44.027 77.2318 44.891 77.2318C45.755 77.2318 46.603 77.2318 47.435 77.2318C47.435 77.8238 47.435 78.4238 47.435 79.0318C47.435 79.6398 47.435 80.2478 47.435 80.8558C46.603 80.8558 45.755 80.8558 44.891 80.8558C44.027 80.8558 43.171 80.8558 42.323 80.8558C42.323 81.8478 42.323 82.8558 42.323 83.8798C42.323 84.9038 42.323 85.9118 42.323 86.9038C41.635 86.9038 40.939 86.9038 40.235 86.9038C39.531 86.9038 38.827 86.9038 38.123 86.9038ZM50.4249 86.9038C50.4249 84.0078 50.4249 81.0878 50.4249 78.1438C50.4249 75.1998 50.4249 72.2798 50.4249 69.3838C51.0809 69.3838 51.7449 69.3838 52.4169 69.3838C53.0889 69.3838 53.7449 69.3838 54.3849 69.3838C54.3849 72.2798 54.3849 75.1998 54.3849 78.1438C54.3849 81.0878 54.3849 84.0078 54.3849 86.9038C53.7449 86.9038 53.0889 86.9038 52.4169 86.9038C51.7449 86.9038 51.0809 86.9038 50.4249 86.9038ZM63.0286 87.2878C62.1006 87.2878 61.2366 87.1278 60.4366 86.8078C59.6366 86.4718 58.9406 86.0078 58.3486 85.4158C57.7566 84.8078 57.2926 84.1038 56.9566 83.3038C56.6366 82.5038 56.4766 81.6318 56.4766 80.6878C56.4766 79.7438 56.6366 78.8718 56.9566 78.0718C57.2926 77.2718 57.7566 76.5758 58.3486 75.9838C58.9406 75.3918 59.6366 74.9358 60.4366 74.6158C61.2366 74.2798 62.1006 74.1118 63.0286 74.1118C63.9726 74.1118 64.8366 74.2798 65.6206 74.6158C66.4206 74.9358 67.1166 75.3918 67.7086 75.9838C68.3006 76.5758 68.7566 77.2718 69.0766 78.0718C69.4126 78.8718 69.5806 79.7438 69.5806 80.6878C69.5806 81.6318 69.4126 82.5038 69.0766 83.3038C68.7566 84.1038 68.3006 84.8078 67.7086 85.4158C67.1166 86.0078 66.4206 86.4718 65.6206 86.8078C64.8366 87.1278 63.9726 87.2878 63.0286 87.2878ZM63.0286 83.7118C63.8126 83.7118 64.4366 83.4318 64.9006 82.8718C65.3806 82.2958 65.6206 81.5678 65.6206 80.6878C65.6206 79.7918 65.3806 79.0718 64.9006 78.5278C64.4366 77.9678 63.8126 77.6878 63.0286 77.6878C62.2446 77.6878 61.6126 77.9678 61.1326 78.5278C60.6686 79.0718 60.4366 79.7918 60.4366 80.6878C60.4366 81.5678 60.6686 82.2958 61.1326 82.8718C61.6126 83.4318 62.2446 83.7118 63.0286 83.7118ZM73.8249 86.9038C73.2009 84.8558 72.5689 82.7918 71.9289 80.7118C71.3049 78.6158 70.6809 76.5438 70.0569 74.4958C70.7129 74.4958 71.3769 74.4958 72.0489 74.4958C72.7369 74.4958 73.4089 74.4958 74.0649 74.4958C74.3849 75.6158 74.7049 76.7518 75.0249 77.9038C75.3609 79.0398 75.6809 80.1678 75.9849 81.2878C76.2569 80.1678 76.5289 79.0398 76.8009 77.9038C77.0889 76.7518 77.3609 75.6158 77.6169 74.4958C78.1769 74.4958 78.7369 74.4958 79.2969 74.4958C79.8729 74.4958 80.4409 74.4958 81.0009 74.4958C81.2729 75.6158 81.5449 76.7598 81.8169 77.9278C82.1049 79.0798 82.3769 80.2238 82.6329 81.3598C82.9529 80.2238 83.2729 79.0798 83.5929 77.9278C83.9289 76.7598 84.2489 75.6158 84.5529 74.4958C85.2089 74.4958 85.8649 74.4958 86.5209 74.4958C87.1929 74.4958 87.8489 74.4958 88.4889 74.4958C87.8649 76.5438 87.2329 78.6158 86.5929 80.7118C85.9689 82.7918 85.3449 84.8558 84.7209 86.9038C84.0809 86.9038 83.4329 86.9038 82.7769 86.9038C82.1209 86.9038 81.4729 86.9038 80.8329 86.9038C80.5769 85.9118 80.3129 84.9118 80.0409 83.9038C79.7849 82.8958 79.5289 81.9038 79.2729 80.9278C79.0169 81.9038 78.7529 82.8958 78.4809 83.9038C78.2249 84.9118 77.9689 85.9118 77.7129 86.9038C77.0729 86.9038 76.4249 86.9038 75.7689 86.9038C75.1129 86.9038 74.4649 86.9038 73.8249 86.9038ZM100.336 86.3278C99.2324 86.7918 98.1364 87.0798 97.0484 87.1918C95.9604 87.3038 94.9284 87.2398 93.9524 86.9998C92.9924 86.7758 92.1364 86.3838 91.3844 85.8238C90.6324 85.2638 90.0404 84.5518 89.6084 83.6878C89.1924 82.8238 88.9844 81.8238 88.9844 80.6878C88.9844 79.7438 89.1364 78.8798 89.4404 78.0958C89.7604 77.2958 90.2084 76.5998 90.7844 76.0078C91.3604 75.3998 92.0404 74.9358 92.8244 74.6158C93.6084 74.2798 94.4644 74.1118 95.3924 74.1118C96.2244 74.1118 96.9764 74.2478 97.6484 74.5198C98.3204 74.7918 98.9044 75.1758 99.4004 75.6718C99.8964 76.1518 100.296 76.7278 100.6 77.3998C100.904 78.0718 101.096 78.8078 101.176 79.6078C101.256 80.4078 101.208 81.2558 101.032 82.1518C99.7204 82.1518 98.4004 82.1518 97.0724 82.1518C95.7444 82.1518 94.4244 82.1518 93.1124 82.1518C93.4164 82.7598 93.9204 83.1918 94.6244 83.4478C95.3444 83.7038 96.1924 83.7838 97.1684 83.6878C98.1604 83.5918 99.2164 83.3358 100.336 82.9198C100.336 83.4798 100.336 84.0478 100.336 84.6238C100.336 85.1998 100.336 85.7678 100.336 86.3278ZM95.2964 77.6638C94.8324 77.6638 94.4004 77.7918 94.0004 78.0478C93.6164 78.3038 93.3204 78.6958 93.1124 79.2238C93.8324 79.2238 94.5524 79.2238 95.2724 79.2238C96.0084 79.2238 96.7364 79.2238 97.4564 79.2238C97.2644 78.6798 96.9764 78.2878 96.5924 78.0478C96.2244 77.7918 95.7924 77.6638 95.2964 77.6638ZM103.274 86.9038C103.274 84.8558 103.274 82.7918 103.274 80.7118C103.274 78.6158 103.274 76.5438 103.274 74.4958C103.93 74.4958 104.594 74.4958 105.266 74.4958C105.938 74.4958 106.594 74.4958 107.234 74.4958C107.234 74.6078 107.234 74.7198 107.234 74.8318C107.234 74.9438 107.234 75.0558 107.234 75.1678C107.73 74.8158 108.29 74.5518 108.914 74.3758C109.538 74.1998 110.218 74.1518 110.954 74.2318C110.954 74.8718 110.954 75.5198 110.954 76.1758C110.954 76.8318 110.954 77.4798 110.954 78.1198C109.69 77.9438 108.754 78.0558 108.146 78.4558C107.538 78.8398 107.234 79.4718 107.234 80.3518C107.234 81.4238 107.234 82.5118 107.234 83.6158C107.234 84.7198 107.234 85.8158 107.234 86.9038C106.594 86.9038 105.938 86.9038 105.266 86.9038C104.594 86.9038 103.93 86.9038 103.274 86.9038ZM120.637 86.9038C119.933 84.8558 119.213 82.7918 118.477 80.7118C117.757 78.6158 117.045 76.5438 116.341 74.4958C117.029 74.4958 117.717 74.4958 118.405 74.4958C119.109 74.4958 119.805 74.4958 120.493 74.4958C120.909 75.7598 121.325 77.0318 121.741 78.3118C122.173 79.5758 122.589 80.8398 122.989 82.1038C123.405 80.8398 123.821 79.5758 124.237 78.3118C124.653 77.0318 125.061 75.7598 125.461 74.4958C126.133 74.4958 126.813 74.4958 127.501 74.4958C128.189 74.4958 128.869 74.4958 129.541 74.4958C128.837 76.5438 128.117 78.6158 127.381 80.7118C126.661 82.7918 125.949 84.8558 125.245 86.9038C124.493 86.9038 123.725 86.9038 122.941 86.9038C122.157 86.9038 121.389 86.9038 120.637 86.9038ZM132.854 73.0798C132.39 73.0798 131.966 72.9678 131.582 72.7438C131.214 72.5198 130.918 72.2238 130.694 71.8558C130.47 71.4878 130.358 71.0798 130.358 70.6318C130.358 70.1838 130.47 69.7838 130.694 69.4318C130.918 69.0638 131.214 68.7678 131.582 68.5438C131.966 68.3198 132.39 68.2078 132.854 68.2078C133.302 68.2078 133.71 68.3198 134.078 68.5438C134.462 68.7678 134.766 69.0638 134.99 69.4318C135.214 69.7838 135.326 70.1838 135.326 70.6318C135.326 71.0798 135.214 71.4878 134.99 71.8558C134.766 72.2238 134.462 72.5198 134.078 72.7438C133.71 72.9678 133.302 73.0798 132.854 73.0798ZM130.862 86.9038C130.862 84.8558 130.862 82.7918 130.862 80.7118C130.862 78.6158 130.862 76.5438 130.862 74.4958C131.518 74.4958 132.182 74.4958 132.854 74.4958C133.526 74.4958 134.182 74.4958 134.822 74.4958C134.822 76.5438 134.822 78.6158 134.822 80.7118C134.822 82.7918 134.822 84.8558 134.822 86.9038C134.182 86.9038 133.526 86.9038 132.854 86.9038C132.182 86.9038 131.518 86.9038 130.862 86.9038ZM138.882 86.9038C138.882 85.4318 138.882 83.9518 138.882 82.4638C138.882 80.9758 138.882 79.5038 138.882 78.0478C138.562 78.0478 138.234 78.0478 137.898 78.0478C137.578 78.0478 137.258 78.0478 136.938 78.0478C136.938 77.4558 136.938 76.8638 136.938 76.2718C136.938 75.6798 136.938 75.0878 136.938 74.4958C137.258 74.4958 137.578 74.4958 137.898 74.4958C138.234 74.4958 138.562 74.4958 138.882 74.4958C138.882 73.9358 138.882 73.3838 138.882 72.8398C138.882 72.2798 138.882 71.7278 138.882 71.1838C139.538 71.1838 140.202 71.1838 140.874 71.1838C141.546 71.1838 142.202 71.1838 142.842 71.1838C142.842 71.7278 142.842 72.2798 142.842 72.8398C142.842 73.3838 142.842 73.9358 142.842 74.4958C143.21 74.4958 143.586 74.4958 143.97 74.4958C144.354 74.4958 144.73 74.4958 145.098 74.4958C145.098 75.0878 145.098 75.6798 145.098 76.2718C145.098 76.8638 145.098 77.4558 145.098 78.0478C144.73 78.0478 144.354 78.0478 143.97 78.0478C143.586 78.0478 143.21 78.0478 142.842 78.0478C142.842 79.5038 142.842 80.9758 142.842 82.4638C142.842 83.9518 142.842 85.4318 142.842 86.9038C142.202 86.9038 141.546 86.9038 140.874 86.9038C140.202 86.9038 139.538 86.9038 138.882 86.9038ZM155.171 86.9038C155.171 86.7758 155.171 86.6558 155.171 86.5438C155.171 86.4158 155.171 86.2958 155.171 86.1838C154.771 86.5198 154.315 86.7758 153.803 86.9518C153.307 87.1438 152.771 87.2398 152.195 87.2398C151.379 87.2398 150.611 87.0878 149.891 86.7838C149.171 86.4638 148.531 86.0158 147.971 85.4398C147.427 84.8478 146.995 84.1518 146.675 83.3518C146.371 82.5518 146.219 81.6638 146.219 80.6878C146.219 79.6958 146.371 78.7998 146.675 77.9998C146.995 77.1998 147.427 76.5198 147.971 75.9598C148.531 75.3838 149.171 74.9438 149.891 74.6398C150.611 74.3198 151.371 74.1598 152.171 74.1598C152.747 74.1598 153.291 74.2558 153.803 74.4478C154.315 74.6238 154.771 74.8718 155.171 75.1918C155.171 75.0638 155.171 74.9438 155.171 74.8318C155.171 74.7198 155.171 74.6078 155.171 74.4958C155.827 74.4958 156.491 74.4958 157.163 74.4958C157.835 74.4958 158.491 74.4958 159.131 74.4958C159.131 76.5438 159.131 78.6158 159.131 80.7118C159.131 82.7918 159.131 84.8558 159.131 86.9038C158.491 86.9038 157.835 86.9038 157.163 86.9038C156.491 86.9038 155.827 86.9038 155.171 86.9038ZM152.723 83.7358C153.491 83.7358 154.107 83.4558 154.571 82.8958C155.035 82.3358 155.267 81.5998 155.267 80.6878C155.267 79.7758 155.035 79.0478 154.571 78.5038C154.107 77.9438 153.491 77.6638 152.723 77.6638C151.939 77.6638 151.315 77.9358 150.851 78.4798C150.403 79.0238 150.179 79.7598 150.179 80.6878C150.179 81.6158 150.403 82.3598 150.851 82.9198C151.315 83.4638 151.939 83.7358 152.723 83.7358ZM161.894 86.9038C161.894 84.0078 161.894 81.0878 161.894 78.1438C161.894 75.1998 161.894 72.2798 161.894 69.3838C162.55 69.3838 163.214 69.3838 163.886 69.3838C164.558 69.3838 165.214 69.3838 165.854 69.3838C165.854 72.2798 165.854 75.1998 165.854 78.1438C165.854 81.0878 165.854 84.0078 165.854 86.9038C165.214 86.9038 164.558 86.9038 163.886 86.9038C163.214 86.9038 162.55 86.9038 161.894 86.9038ZM170.729 73.0798C170.265 73.0798 169.841 72.9678 169.457 72.7438C169.089 72.5198 168.793 72.2238 168.569 71.8558C168.345 71.4878 168.233 71.0798 168.233 70.6318C168.233 70.1838 168.345 69.7838 168.569 69.4318C168.793 69.0638 169.089 68.7678 169.457 68.5438C169.841 68.3198 170.265 68.2078 170.729 68.2078C171.177 68.2078 171.585 68.3198 171.953 68.5438C172.337 68.7678 172.641 69.0638 172.865 69.4318C173.089 69.7838 173.201 70.1838 173.201 70.6318C173.201 71.0798 173.089 71.4878 172.865 71.8558C172.641 72.2238 172.337 72.5198 171.953 72.7438C171.585 72.9678 171.177 73.0798 170.729 73.0798ZM168.737 86.9038C168.737 84.8558 168.737 82.7918 168.737 80.7118C168.737 78.6158 168.737 76.5438 168.737 74.4958C169.393 74.4958 170.057 74.4958 170.729 74.4958C171.401 74.4958 172.057 74.4958 172.697 74.4958C172.697 76.5438 172.697 78.6158 172.697 80.7118C172.697 82.7918 172.697 84.8558 172.697 86.9038C172.057 86.9038 171.401 86.9038 170.729 86.9038C170.057 86.9038 169.393 86.9038 168.737 86.9038ZM176.757 86.9038C176.757 85.4318 176.757 83.9518 176.757 82.4638C176.757 80.9758 176.757 79.5038 176.757 78.0478C176.437 78.0478 176.109 78.0478 175.773 78.0478C175.453 78.0478 175.133 78.0478 174.813 78.0478C174.813 77.4558 174.813 76.8638 174.813 76.2718C174.813 75.6798 174.813 75.0878 174.813 74.4958C175.133 74.4958 175.453 74.4958 175.773 74.4958C176.109 74.4958 176.437 74.4958 176.757 74.4958C176.757 73.9358 176.757 73.3838 176.757 72.8398C176.757 72.2798 176.757 71.7278 176.757 71.1838C177.413 71.1838 178.077 71.1838 178.749 71.1838C179.421 71.1838 180.077 71.1838 180.717 71.1838C180.717 71.7278 180.717 72.2798 180.717 72.8398C180.717 73.3838 180.717 73.9358 180.717 74.4958C181.085 74.4958 181.461 74.4958 181.845 74.4958C182.229 74.4958 182.605 74.4958 182.973 74.4958C182.973 75.0878 182.973 75.6798 182.973 76.2718C182.973 76.8638 182.973 77.4558 182.973 78.0478C182.605 78.0478 182.229 78.0478 181.845 78.0478C181.461 78.0478 181.085 78.0478 180.717 78.0478C180.717 79.5038 180.717 80.9758 180.717 82.4638C180.717 83.9518 180.717 85.4318 180.717 86.9038C180.077 86.9038 179.421 86.9038 178.749 86.9038C178.077 86.9038 177.413 86.9038 176.757 86.9038ZM186.035 90.7438C186.355 89.8958 186.683 89.0398 187.019 88.1758C187.371 87.3278 187.707 86.4878 188.027 85.6558C187.275 83.8158 186.507 81.9598 185.723 80.0878C184.955 78.1998 184.195 76.3358 183.443 74.4958C184.147 74.4958 184.851 74.4958 185.555 74.4958C186.259 74.4958 186.955 74.4958 187.643 74.4958C188.059 75.5198 188.475 76.5598 188.891 77.6158C189.323 78.6718 189.747 79.7198 190.163 80.7598C190.547 79.7198 190.939 78.6718 191.339 77.6158C191.739 76.5598 192.131 75.5198 192.515 74.4958C193.203 74.4958 193.891 74.4958 194.579 74.4958C195.267 74.4958 195.955 74.4958 196.643 74.4958C195.571 77.1678 194.491 79.8798 193.403 82.6318C192.331 85.3678 191.259 88.0718 190.187 90.7438C189.499 90.7438 188.803 90.7438 188.099 90.7438C187.411 90.7438 186.723 90.7438 186.035 90.7438Z" fill="#B8D6FF"/>
<rect x="18.825" y="113.749" width="111.977" height="78.0522" rx="26" fill="#B8D6FF"/>
<rect x="149.748" y="114.083" width="111.977" height="78.0522" rx="26" fill="#2F4ECD"/>
<rect x="280.605" y="114.083" width="111.977" height="78.0522" rx="26" fill="#B8D6FF"/>
<path d="M85.9257 159.144C79.8625 159.058 88.0272 159.174 80.834 159.072C73.6409 158.97 75.4446 158.996 75.4446 158.996C75.4446 158.996 75.8209 132.387 75.9769 121.353C83.1701 121.455 86.2196 138.355 85.9257 159.144Z" fill="white"/>
<path d="M62.8388 158.832C68.9019 158.918 60.9916 158.806 68.1848 158.908C75.3779 159.009 73.5741 158.984 73.5741 158.984C73.5741 158.984 73.9504 132.374 74.1063 121.341C66.9131 121.24 63.1327 138.043 62.8388 158.832Z" fill="#F4E3D5"/>
<path d="M74.7484 182.233C74.7698 175.424 74.7486 182.17 74.7698 175.424C74.791 168.678 74.7678 176.059 74.7868 170.018C68.041 169.997 67.6687 169.996 62.5725 169.98C62.5513 176.726 68.0026 182.211 74.7484 182.233Z" fill="#036F62"/>
<path d="M74.748 182.234C74.7694 175.425 74.7482 182.17 74.7694 175.425C74.7906 168.679 74.7674 176.06 74.7864 170.019C81.5322 170.04 81.9045 170.042 87.0007 170.058C86.9795 176.803 81.4938 182.255 74.748 182.234Z" fill="#6CBDAA"/>
<path d="M62.5836 153.07C62.5622 159.878 62.5834 153.133 62.5622 159.878C62.541 166.624 62.5642 159.243 62.5452 165.284C69.291 165.305 69.6633 165.306 74.7595 165.322C74.7807 158.576 69.3294 153.091 62.5836 153.07Z" fill="#036F62"/>
<path d="M87.0967 153.147C87.0753 159.956 87.0965 153.21 87.0753 159.956C87.0541 166.702 87.0773 159.321 87.0583 165.362C80.3125 165.34 79.9402 165.339 74.844 165.323C74.8652 158.577 80.3509 153.126 87.0967 153.147Z" fill="#6CBDAA"/>
<rect width="4.6965" height="12.2144" transform="matrix(-0.00314404 0.999995 0.999995 0.00314404 62.5444 165.284)" fill="#036F62"/>
<rect x="87.0576" y="165.361" width="4.6965" height="12.2144" transform="rotate(90.1801 87.0576 165.361)" fill="#6CBDAA"/>
<path d="M74.5459 182.522L74.5457 159.145" stroke="#6697DC" stroke-width="3"/>
<path d="M62.6626 152.263C65.8426 152.5 72.8492 155.039 74.4891 161.724" stroke="#6697DC" stroke-width="3"/>
<path d="M86.4749 152.322C83.2948 152.558 76.2883 155.097 74.6484 161.783" stroke="#6697DC" stroke-width="3"/>
<path d="M213.278 160.365C213.324 156.782 213.262 161.607 213.317 157.356C213.372 153.105 213.358 154.171 213.358 154.171C213.358 154.171 229.083 154.374 235.603 154.459C235.548 158.71 225.563 160.524 213.278 160.365Z" fill="white"/>
<path d="M213.447 146.082C213.401 149.665 213.461 144.99 213.406 149.241C213.351 153.492 213.365 152.426 213.365 152.426C213.365 152.426 229.09 152.629 235.61 152.714C235.665 148.463 225.733 146.241 213.447 146.082Z" fill="#F4E3D5"/>
<path d="M213.254 146.042C209.671 145.996 214.496 146.058 210.245 146.003C205.994 145.948 207.06 145.962 207.06 145.962C207.06 145.962 207.264 130.237 207.348 123.717C211.599 123.772 213.413 133.756 213.254 146.042Z" fill="white"/>
<path d="M198.972 145.872C202.555 145.919 197.88 145.858 202.131 145.913C206.382 145.968 205.316 145.954 205.316 145.954C205.316 145.954 205.519 130.229 205.604 123.709C201.353 123.654 199.131 133.587 198.972 145.872Z" fill="#F4E3D5"/>
<path d="M198.994 160.196C202.578 160.242 197.753 160.18 202.003 160.235C206.254 160.29 205.188 160.276 205.188 160.276C205.188 160.276 204.985 176.001 204.9 182.521C200.65 182.466 198.835 172.481 198.994 160.196Z" fill="white"/>
<path d="M213.277 160.365C209.694 160.318 214.369 160.379 210.118 160.324C205.867 160.269 206.933 160.282 206.933 160.282C206.933 160.282 206.729 176.007 206.645 182.527C210.896 182.582 213.118 172.65 213.277 160.365Z" fill="#F4E3D5"/>
<rect x="211.889" y="147.522" width="11.3419" height="11.3418" transform="rotate(90.7415 211.889 147.522)" fill="#FECC73"/>
<path d="M199.012 146.062C198.965 149.645 199.028 144.82 198.973 149.071C198.918 153.321 198.932 152.255 198.932 152.255C198.932 152.255 183.207 152.052 176.687 151.967C176.742 147.717 186.726 145.903 199.012 146.062Z" fill="white"/>
<path d="M198.842 160.344C198.889 156.761 198.828 161.435 198.883 157.184C198.938 152.934 198.924 154 198.924 154C198.924 154 183.2 153.796 176.68 153.712C176.625 157.963 186.557 160.185 198.842 160.344Z" fill="#F4E3D5"/>
<path d="M309.881 183.61C309.881 110.278 309.881 218.845 309.881 145.513C309.881 118.619 344.405 117.85 344.405 145.513V150.116" stroke="#036F62" stroke-width="2.22681"/>
<path d="M313.724 183.109C313.724 183.109 313.724 175.823 313.724 144.827C313.724 126.267 339.406 122.858 341.064 144.826V150.557" stroke="#6CBDAA" stroke-width="2.18663"/>
<path d="M358.673 163.478C358.712 160.398 358.659 164.546 358.706 160.892C358.753 157.238 358.741 158.154 358.741 158.154C358.741 158.154 372.258 158.329 377.863 158.402C377.815 162.056 369.233 163.615 358.673 163.478Z" fill="white"/>
<path d="M358.818 151.201C358.778 154.281 358.83 150.263 358.783 153.917C358.736 157.57 358.747 156.654 358.747 156.654C358.747 156.654 372.264 156.829 377.869 156.902C377.916 153.248 369.378 151.338 358.818 151.201Z" fill="#F4E3D5"/>
<path d="M358.652 151.167C355.572 151.127 359.719 151.18 356.065 151.133C352.411 151.086 353.328 151.098 353.328 151.098C353.328 151.098 353.503 137.581 353.575 131.976C357.229 132.024 358.788 140.606 358.652 151.167Z" fill="white"/>
<path d="M346.375 151.021C349.455 151.061 345.437 151.009 349.091 151.056C352.745 151.103 351.829 151.092 351.829 151.092C351.829 151.092 352.003 137.575 352.076 131.97C348.422 131.923 346.512 140.461 346.375 151.021Z" fill="#F4E3D5"/>
<path d="M346.395 163.333C349.475 163.373 345.327 163.319 348.981 163.366C352.635 163.414 351.719 163.402 351.719 163.402C351.719 163.402 351.544 176.919 351.471 182.523C347.818 182.476 346.258 173.893 346.395 163.333Z" fill="white"/>
<path d="M358.672 163.478C355.592 163.438 359.61 163.49 355.956 163.443C352.302 163.396 353.219 163.407 353.219 163.407C353.219 163.407 353.044 176.924 352.971 182.529C356.625 182.576 358.535 174.038 358.672 163.478Z" fill="#F4E3D5"/>
<rect x="357.478" y="152.439" width="9.74922" height="9.74922" transform="rotate(90.7415 357.478 152.439)" fill="#FECC73"/>
<path d="M346.41 151.183C346.37 154.263 346.424 150.116 346.376 153.77C346.329 157.424 346.341 156.508 346.341 156.508C346.341 156.508 332.824 156.333 327.22 156.26C327.267 152.606 335.849 151.047 346.41 151.183Z" fill="white"/>
<path d="M346.264 163.46C346.304 160.38 346.252 164.399 346.299 160.745C346.346 157.091 346.335 158.007 346.335 158.007C346.335 158.007 332.818 157.832 327.213 157.759C327.166 161.413 335.704 163.324 346.264 163.46Z" fill="#F4E3D5"/>
</svg>
