<svg width="440" height="205" viewBox="0 0 440 205" fill="none" xmlns="http://www.w3.org/2000/svg">
<rect y="11.6699" width="410.93" height="193.205" rx="39.1559" fill="white"/>
<rect y="107.624" width="63.7361" height="97.2509" fill="white"/>
<rect x="347.194" y="11.6699" width="63.7361" height="97.2509" fill="white"/>
<path d="M410.93 101.08H0V37.3761C0 16.7339 16.7338 7.62939e-05 37.376 7.62939e-05H410.93V101.08Z" fill="#6697DC"/>
<path opacity="0.8" d="M38.7848 58.2007C38.7848 52.8247 38.7848 47.3847 38.7848 41.8807C38.7848 36.3767 38.7848 30.9367 38.7848 25.5607C40.7688 25.5607 42.7688 25.5607 44.7848 25.5607C46.8008 25.5607 48.8008 25.5607 50.7848 25.5607C51.7128 28.8247 52.6248 32.1367 53.5208 35.4967C54.4488 38.8247 55.3608 42.1207 56.2568 45.3847C57.1528 42.1207 58.0488 38.8247 58.9448 35.4967C59.8728 32.1367 60.7848 28.8247 61.6808 25.5607C63.6648 25.5607 65.6488 25.5607 67.6328 25.5607C69.6168 25.5607 71.5848 25.5607 73.5368 25.5607C73.5688 30.9367 73.6008 36.3767 73.6328 41.8807C73.6648 47.3847 73.6968 52.8247 73.7288 58.2007C72.3848 58.2007 71.0248 58.2007 69.6488 58.2007C68.3048 58.2007 66.9608 58.2007 65.6168 58.2007C65.6168 54.5527 65.6168 50.8727 65.6168 47.1607C65.6168 43.4167 65.6168 39.7207 65.6168 36.0727C64.6568 39.7207 63.6808 43.4167 62.6888 47.1607C61.6968 50.8727 60.7208 54.5527 59.7608 58.2007C58.5768 58.2007 57.3608 58.2007 56.1128 58.2007C54.8968 58.2007 53.6808 58.2007 52.4648 58.2007C51.5048 54.6167 50.5448 51.0007 49.5848 47.3527C48.6248 43.6727 47.6648 40.0407 46.7048 36.4567C46.7048 40.0407 46.7048 43.6727 46.7048 47.3527C46.7048 51.0007 46.7048 54.6167 46.7048 58.2007C45.4248 58.2007 44.1128 58.2007 42.7688 58.2007C41.4248 58.2007 40.0968 58.2007 38.7848 58.2007ZM91.2679 58.9687C89.4119 58.9687 87.6839 58.6487 86.0839 58.0087C84.4839 57.3367 83.0919 56.4087 81.9079 55.2247C80.7239 54.0087 79.7959 52.6007 79.1239 51.0007C78.4839 49.4007 78.1639 47.6567 78.1639 45.7687C78.1639 43.8807 78.4839 42.1367 79.1239 40.5367C79.7959 38.9367 80.7239 37.5447 81.9079 36.3607C83.0919 35.1767 84.4839 34.2647 86.0839 33.6247C87.6839 32.9527 89.4119 32.6167 91.2679 32.6167C93.1559 32.6167 94.8839 32.9527 96.4519 33.6247C98.0519 34.2647 99.4439 35.1767 100.628 36.3607C101.812 37.5447 102.724 38.9367 103.364 40.5367C104.036 42.1367 104.372 43.8807 104.372 45.7687C104.372 47.6567 104.036 49.4007 103.364 51.0007C102.724 52.6007 101.812 54.0087 100.628 55.2247C99.4439 56.4087 98.0519 57.3367 96.4519 58.0087C94.8839 58.6487 93.1559 58.9687 91.2679 58.9687ZM91.2679 51.8167C92.8359 51.8167 94.0839 51.2567 95.0119 50.1367C95.9719 48.9847 96.4519 47.5287 96.4519 45.7687C96.4519 43.9767 95.9719 42.5367 95.0119 41.4487C94.0839 40.3287 92.8359 39.7687 91.2679 39.7687C89.6999 39.7687 88.4359 40.3287 87.4759 41.4487C86.5479 42.5367 86.0839 43.9767 86.0839 45.7687C86.0839 47.5287 86.5479 48.9847 87.4759 50.1367C88.4359 51.2567 89.6999 51.8167 91.2679 51.8167ZM120.049 58.9687C118.193 58.9687 116.465 58.6487 114.865 58.0087C113.265 57.3367 111.873 56.4087 110.689 55.2247C109.505 54.0087 108.577 52.6007 107.905 51.0007C107.265 49.4007 106.945 47.6567 106.945 45.7687C106.945 43.8807 107.265 42.1367 107.905 40.5367C108.577 38.9367 109.505 37.5447 110.689 36.3607C111.873 35.1767 113.265 34.2647 114.865 33.6247C116.465 32.9527 118.193 32.6167 120.049 32.6167C121.937 32.6167 123.665 32.9527 125.233 33.6247C126.833 34.2647 128.225 35.1767 129.409 36.3607C130.593 37.5447 131.505 38.9367 132.145 40.5367C132.817 42.1367 133.153 43.8807 133.153 45.7687C133.153 47.6567 132.817 49.4007 132.145 51.0007C131.505 52.6007 130.593 54.0087 129.409 55.2247C128.225 56.4087 126.833 57.3367 125.233 58.0087C123.665 58.6487 121.937 58.9687 120.049 58.9687ZM120.049 51.8167C121.617 51.8167 122.865 51.2567 123.793 50.1367C124.753 48.9847 125.233 47.5287 125.233 45.7687C125.233 43.9767 124.753 42.5367 123.793 41.4487C122.865 40.3287 121.617 39.7687 120.049 39.7687C118.481 39.7687 117.217 40.3287 116.257 41.4487C115.329 42.5367 114.865 43.9767 114.865 45.7687C114.865 47.5287 115.329 48.9847 116.257 50.1367C117.217 51.2567 118.481 51.8167 120.049 51.8167ZM153.63 58.2007C153.63 57.9447 153.63 57.7047 153.63 57.4807C153.63 57.2247 153.63 56.9847 153.63 56.7607C152.83 57.4327 151.918 57.9447 150.894 58.2967C149.902 58.6807 148.83 58.8727 147.678 58.8727C146.046 58.8727 144.51 58.5527 143.07 57.9127C141.63 57.2727 140.35 56.3767 139.23 55.2247C138.142 54.0407 137.278 52.6487 136.638 51.0487C136.03 49.4487 135.726 47.6887 135.726 45.7687C135.726 43.8167 136.03 42.0407 136.638 40.4407C137.278 38.8407 138.142 37.4647 139.23 36.3127C140.35 35.1607 141.63 34.2807 143.07 33.6727C144.51 33.0327 146.03 32.7127 147.63 32.7127C148.782 32.7127 149.87 32.9047 150.894 33.2887C151.918 33.6407 152.83 34.1367 153.63 34.7767C153.63 32.8567 153.63 30.9207 153.63 28.9687C153.63 27.0167 153.63 25.0807 153.63 23.1607C154.942 23.1607 156.27 23.1607 157.614 23.1607C158.958 23.1607 160.27 23.1607 161.55 23.1607C161.55 28.9527 161.55 34.7927 161.55 40.6807C161.55 46.5687 161.55 52.4087 161.55 58.2007C160.27 58.2007 158.958 58.2007 157.614 58.2007C156.27 58.2007 154.942 58.2007 153.63 58.2007ZM148.734 51.8647C150.27 51.8647 151.502 51.3047 152.43 50.1847C153.358 49.0647 153.822 47.5927 153.822 45.7687C153.822 43.9447 153.358 42.4887 152.43 41.4007C151.502 40.2807 150.27 39.7207 148.734 39.7207C147.166 39.7207 145.918 40.2647 144.99 41.3527C144.094 42.4407 143.646 43.9127 143.646 45.7687C143.646 47.6247 144.094 49.1127 144.99 50.2327C145.918 51.3207 147.166 51.8647 148.734 51.8647ZM203.981 56.4727C200.653 57.8167 197.549 58.5847 194.669 58.7767C191.821 59.0007 189.245 58.7447 186.941 58.0087C184.637 57.2407 182.669 56.0887 181.037 54.5527C179.405 53.0167 178.157 51.1927 177.293 49.0807C176.429 46.9687 175.997 44.6647 175.997 42.1687C175.997 39.7047 176.397 37.4327 177.197 35.3527C177.997 33.2407 179.165 31.4167 180.701 29.8807C182.269 28.3447 184.157 27.1447 186.365 26.2807C188.573 25.4167 191.085 25.0007 193.901 25.0327C196.717 25.0327 199.805 25.5447 203.165 26.5687C203.165 27.9127 203.165 29.2727 203.165 30.6487C203.165 31.9927 203.165 33.3367 203.165 34.6807C200.509 33.6247 198.045 33.0167 195.773 32.8567C193.533 32.6967 191.565 32.9367 189.869 33.5767C188.205 34.2167 186.893 35.2407 185.933 36.6487C185.005 38.0247 184.541 39.7527 184.541 41.8327C184.541 43.6567 184.877 45.2727 185.549 46.6807C186.253 48.0887 187.229 49.1927 188.477 49.9927C189.725 50.7927 191.149 51.1927 192.749 51.1927C193.293 51.1927 193.837 51.1767 194.381 51.1447C194.925 51.0807 195.453 50.9847 195.965 50.8567C195.965 50.0247 195.965 49.1767 195.965 48.3127C195.965 47.4487 195.965 46.6007 195.965 45.7687C195.069 45.7687 194.173 45.7687 193.277 45.7687C192.381 45.7687 191.485 45.7687 190.589 45.7687C190.589 44.5847 190.589 43.4007 190.589 42.2167C190.589 41.0007 190.589 39.8007 190.589 38.6167C192.797 38.6167 195.021 38.6167 197.261 38.6167C199.533 38.6167 201.773 38.6167 203.981 38.6167C203.981 41.5607 203.981 44.5367 203.981 47.5447C203.981 50.5527 203.981 53.5287 203.981 56.4727ZM230.946 57.0487C228.738 57.9767 226.546 58.5527 224.37 58.7767C222.194 59.0007 220.13 58.8727 218.178 58.3927C216.258 57.9447 214.546 57.1607 213.042 56.0407C211.538 54.9207 210.354 53.4967 209.49 51.7687C208.658 50.0407 208.242 48.0407 208.242 45.7687C208.242 43.8807 208.546 42.1527 209.154 40.5847C209.794 38.9847 210.69 37.5927 211.842 36.4087C212.994 35.1927 214.354 34.2647 215.922 33.6247C217.49 32.9527 219.202 32.6167 221.058 32.6167C222.722 32.6167 224.226 32.8887 225.57 33.4327C226.914 33.9767 228.082 34.7447 229.074 35.7367C230.066 36.6967 230.866 37.8487 231.474 39.1927C232.082 40.5367 232.466 42.0087 232.626 43.6087C232.786 45.2087 232.69 46.9047 232.338 48.6967C229.714 48.6967 227.074 48.6967 224.418 48.6967C221.762 48.6967 219.122 48.6967 216.498 48.6967C217.106 49.9127 218.114 50.7767 219.522 51.2887C220.962 51.8007 222.658 51.9607 224.61 51.7687C226.594 51.5767 228.706 51.0647 230.946 50.2327C230.946 51.3527 230.946 52.4887 230.946 53.6407C230.946 54.7927 230.946 55.9287 230.946 57.0487ZM220.866 39.7207C219.938 39.7207 219.074 39.9767 218.274 40.4887C217.506 41.0007 216.914 41.7847 216.498 42.8407C217.938 42.8407 219.378 42.8407 220.818 42.8407C222.29 42.8407 223.746 42.8407 225.186 42.8407C224.802 41.7527 224.226 40.9687 223.458 40.4887C222.722 39.9767 221.858 39.7207 220.866 39.7207ZM236.82 58.2007C236.82 54.1047 236.82 49.9767 236.82 45.8167C236.82 41.6247 236.82 37.4807 236.82 33.3847C238.132 33.3847 239.46 33.3847 240.804 33.3847C242.148 33.3847 243.46 33.3847 244.74 33.3847C244.74 33.6087 244.74 33.8167 244.74 34.0087C244.74 34.2007 244.74 34.4087 244.74 34.6327C245.604 34.0247 246.564 33.5607 247.62 33.2407C248.708 32.8887 249.876 32.7127 251.124 32.7127C252.948 32.7127 254.548 33.1287 255.924 33.9607C257.332 34.7927 258.42 35.9927 259.188 37.5607C259.988 39.0967 260.388 40.9527 260.388 43.1287C260.388 45.6247 260.388 48.1367 260.388 50.6647C260.388 53.1927 260.388 55.7047 260.388 58.2007C259.108 58.2007 257.796 58.2007 256.452 58.2007C255.108 58.2007 253.78 58.2007 252.468 58.2007C252.468 55.8967 252.468 53.5607 252.468 51.1927C252.468 48.8247 252.468 46.4887 252.468 44.1847C252.468 42.9047 252.164 41.8807 251.556 41.1127C250.98 40.3127 250.052 39.9127 248.772 39.9127C247.492 39.9127 246.5 40.2807 245.796 41.0167C245.092 41.7527 244.74 42.8087 244.74 44.1847C244.74 46.4887 244.74 48.8247 244.74 51.1927C244.74 53.5607 244.74 55.8967 244.74 58.2007C243.46 58.2007 242.148 58.2007 240.804 58.2007C239.46 58.2007 238.132 58.2007 236.82 58.2007ZM265.274 58.2007C265.274 54.1047 265.274 49.9767 265.274 45.8167C265.274 41.6247 265.274 37.4807 265.274 33.3847C266.586 33.3847 267.914 33.3847 269.258 33.3847C270.602 33.3847 271.914 33.3847 273.194 33.3847C273.194 33.6087 273.194 33.8327 273.194 34.0567C273.194 34.2807 273.194 34.5047 273.194 34.7287C274.186 34.0247 275.306 33.4967 276.554 33.1447C277.802 32.7927 279.162 32.6967 280.634 32.8567C280.634 34.1367 280.634 35.4327 280.634 36.7447C280.634 38.0567 280.634 39.3527 280.634 40.6327C278.106 40.2807 276.234 40.5047 275.018 41.3047C273.802 42.0727 273.194 43.3367 273.194 45.0967C273.194 47.2407 273.194 49.4167 273.194 51.6247C273.194 53.8327 273.194 56.0247 273.194 58.2007C271.914 58.2007 270.602 58.2007 269.258 58.2007C267.914 58.2007 266.586 58.2007 265.274 58.2007ZM305.337 57.0487C303.129 57.9767 300.937 58.5527 298.761 58.7767C296.585 59.0007 294.521 58.8727 292.569 58.3927C290.649 57.9447 288.937 57.1607 287.433 56.0407C285.929 54.9207 284.745 53.4967 283.881 51.7687C283.049 50.0407 282.633 48.0407 282.633 45.7687C282.633 43.8807 282.937 42.1527 283.545 40.5847C284.185 38.9847 285.081 37.5927 286.233 36.4087C287.385 35.1927 288.745 34.2647 290.313 33.6247C291.881 32.9527 293.593 32.6167 295.449 32.6167C297.113 32.6167 298.617 32.8887 299.961 33.4327C301.305 33.9767 302.473 34.7447 303.465 35.7367C304.457 36.6967 305.257 37.8487 305.865 39.1927C306.473 40.5367 306.857 42.0087 307.017 43.6087C307.177 45.2087 307.081 46.9047 306.729 48.6967C304.105 48.6967 301.465 48.6967 298.809 48.6967C296.153 48.6967 293.513 48.6967 290.889 48.6967C291.497 49.9127 292.505 50.7767 293.913 51.2887C295.353 51.8007 297.049 51.9607 299.001 51.7687C300.985 51.5767 303.097 51.0647 305.337 50.2327C305.337 51.3527 305.337 52.4887 305.337 53.6407C305.337 54.7927 305.337 55.9287 305.337 57.0487ZM295.257 39.7207C294.329 39.7207 293.465 39.9767 292.665 40.4887C291.897 41.0007 291.305 41.7847 290.889 42.8407C292.329 42.8407 293.769 42.8407 295.209 42.8407C296.681 42.8407 298.137 42.8407 299.577 42.8407C299.193 41.7527 298.617 40.9687 297.849 40.4887C297.113 39.9767 296.249 39.7207 295.257 39.7207Z" fill="white"/>
<path d="M38.123 86.9038C38.123 84.2158 38.123 81.4958 38.123 78.7438C38.123 75.9918 38.123 73.2718 38.123 70.5838C39.739 70.5838 41.371 70.5838 43.019 70.5838C44.667 70.5838 46.299 70.5838 47.915 70.5838C47.915 71.2078 47.915 71.8398 47.915 72.4798C47.915 73.1198 47.915 73.7518 47.915 74.3758C46.987 74.3758 46.051 74.3758 45.107 74.3758C44.179 74.3758 43.251 74.3758 42.323 74.3758C42.323 74.8398 42.323 75.3198 42.323 75.8158C42.323 76.2958 42.323 76.7678 42.323 77.2318C43.171 77.2318 44.027 77.2318 44.891 77.2318C45.755 77.2318 46.603 77.2318 47.435 77.2318C47.435 77.8238 47.435 78.4238 47.435 79.0318C47.435 79.6398 47.435 80.2478 47.435 80.8558C46.603 80.8558 45.755 80.8558 44.891 80.8558C44.027 80.8558 43.171 80.8558 42.323 80.8558C42.323 81.8478 42.323 82.8558 42.323 83.8798C42.323 84.9038 42.323 85.9118 42.323 86.9038C41.635 86.9038 40.939 86.9038 40.235 86.9038C39.531 86.9038 38.827 86.9038 38.123 86.9038ZM50.4249 86.9038C50.4249 84.0078 50.4249 81.0878 50.4249 78.1438C50.4249 75.1998 50.4249 72.2798 50.4249 69.3838C51.0809 69.3838 51.7449 69.3838 52.4169 69.3838C53.0889 69.3838 53.7449 69.3838 54.3849 69.3838C54.3849 72.2798 54.3849 75.1998 54.3849 78.1438C54.3849 81.0878 54.3849 84.0078 54.3849 86.9038C53.7449 86.9038 53.0889 86.9038 52.4169 86.9038C51.7449 86.9038 51.0809 86.9038 50.4249 86.9038ZM63.0286 87.2878C62.1006 87.2878 61.2366 87.1278 60.4366 86.8078C59.6366 86.4718 58.9406 86.0078 58.3486 85.4158C57.7566 84.8078 57.2926 84.1038 56.9566 83.3038C56.6366 82.5038 56.4766 81.6318 56.4766 80.6878C56.4766 79.7438 56.6366 78.8718 56.9566 78.0718C57.2926 77.2718 57.7566 76.5758 58.3486 75.9838C58.9406 75.3918 59.6366 74.9358 60.4366 74.6158C61.2366 74.2798 62.1006 74.1118 63.0286 74.1118C63.9726 74.1118 64.8366 74.2798 65.6206 74.6158C66.4206 74.9358 67.1166 75.3918 67.7086 75.9838C68.3006 76.5758 68.7566 77.2718 69.0766 78.0718C69.4126 78.8718 69.5806 79.7438 69.5806 80.6878C69.5806 81.6318 69.4126 82.5038 69.0766 83.3038C68.7566 84.1038 68.3006 84.8078 67.7086 85.4158C67.1166 86.0078 66.4206 86.4718 65.6206 86.8078C64.8366 87.1278 63.9726 87.2878 63.0286 87.2878ZM63.0286 83.7118C63.8126 83.7118 64.4366 83.4318 64.9006 82.8718C65.3806 82.2958 65.6206 81.5678 65.6206 80.6878C65.6206 79.7918 65.3806 79.0718 64.9006 78.5278C64.4366 77.9678 63.8126 77.6878 63.0286 77.6878C62.2446 77.6878 61.6126 77.9678 61.1326 78.5278C60.6686 79.0718 60.4366 79.7918 60.4366 80.6878C60.4366 81.5678 60.6686 82.2958 61.1326 82.8718C61.6126 83.4318 62.2446 83.7118 63.0286 83.7118ZM73.8249 86.9038C73.2009 84.8558 72.5689 82.7918 71.9289 80.7118C71.3049 78.6158 70.6809 76.5438 70.0569 74.4958C70.7129 74.4958 71.3769 74.4958 72.0489 74.4958C72.7369 74.4958 73.4089 74.4958 74.0649 74.4958C74.3849 75.6158 74.7049 76.7518 75.0249 77.9038C75.3609 79.0398 75.6809 80.1678 75.9849 81.2878C76.2569 80.1678 76.5289 79.0398 76.8009 77.9038C77.0889 76.7518 77.3609 75.6158 77.6169 74.4958C78.1769 74.4958 78.7369 74.4958 79.2969 74.4958C79.8729 74.4958 80.4409 74.4958 81.0009 74.4958C81.2729 75.6158 81.5449 76.7598 81.8169 77.9278C82.1049 79.0798 82.3769 80.2238 82.6329 81.3598C82.9529 80.2238 83.2729 79.0798 83.5929 77.9278C83.9289 76.7598 84.2489 75.6158 84.5529 74.4958C85.2089 74.4958 85.8649 74.4958 86.5209 74.4958C87.1929 74.4958 87.8489 74.4958 88.4889 74.4958C87.8649 76.5438 87.2329 78.6158 86.5929 80.7118C85.9689 82.7918 85.3449 84.8558 84.7209 86.9038C84.0809 86.9038 83.4329 86.9038 82.7769 86.9038C82.1209 86.9038 81.4729 86.9038 80.8329 86.9038C80.5769 85.9118 80.3129 84.9118 80.0409 83.9038C79.7849 82.8958 79.5289 81.9038 79.2729 80.9278C79.0169 81.9038 78.7529 82.8958 78.4809 83.9038C78.2249 84.9118 77.9689 85.9118 77.7129 86.9038C77.0729 86.9038 76.4249 86.9038 75.7689 86.9038C75.1129 86.9038 74.4649 86.9038 73.8249 86.9038ZM100.336 86.3278C99.2324 86.7918 98.1364 87.0798 97.0484 87.1918C95.9604 87.3038 94.9284 87.2398 93.9524 86.9998C92.9924 86.7758 92.1364 86.3838 91.3844 85.8238C90.6324 85.2638 90.0404 84.5518 89.6084 83.6878C89.1924 82.8238 88.9844 81.8238 88.9844 80.6878C88.9844 79.7438 89.1364 78.8798 89.4404 78.0958C89.7604 77.2958 90.2084 76.5998 90.7844 76.0078C91.3604 75.3998 92.0404 74.9358 92.8244 74.6158C93.6084 74.2798 94.4644 74.1118 95.3924 74.1118C96.2244 74.1118 96.9764 74.2478 97.6484 74.5198C98.3204 74.7918 98.9044 75.1758 99.4004 75.6718C99.8964 76.1518 100.296 76.7278 100.6 77.3998C100.904 78.0718 101.096 78.8078 101.176 79.6078C101.256 80.4078 101.208 81.2558 101.032 82.1518C99.7204 82.1518 98.4004 82.1518 97.0724 82.1518C95.7444 82.1518 94.4244 82.1518 93.1124 82.1518C93.4164 82.7598 93.9204 83.1918 94.6244 83.4478C95.3444 83.7038 96.1924 83.7838 97.1684 83.6878C98.1604 83.5918 99.2164 83.3358 100.336 82.9198C100.336 83.4798 100.336 84.0478 100.336 84.6238C100.336 85.1998 100.336 85.7678 100.336 86.3278ZM95.2964 77.6638C94.8324 77.6638 94.4004 77.7918 94.0004 78.0478C93.6164 78.3038 93.3204 78.6958 93.1124 79.2238C93.8324 79.2238 94.5524 79.2238 95.2724 79.2238C96.0084 79.2238 96.7364 79.2238 97.4564 79.2238C97.2644 78.6798 96.9764 78.2878 96.5924 78.0478C96.2244 77.7918 95.7924 77.6638 95.2964 77.6638ZM103.274 86.9038C103.274 84.8558 103.274 82.7918 103.274 80.7118C103.274 78.6158 103.274 76.5438 103.274 74.4958C103.93 74.4958 104.594 74.4958 105.266 74.4958C105.938 74.4958 106.594 74.4958 107.234 74.4958C107.234 74.6078 107.234 74.7198 107.234 74.8318C107.234 74.9438 107.234 75.0558 107.234 75.1678C107.73 74.8158 108.29 74.5518 108.914 74.3758C109.538 74.1998 110.218 74.1518 110.954 74.2318C110.954 74.8718 110.954 75.5198 110.954 76.1758C110.954 76.8318 110.954 77.4798 110.954 78.1198C109.69 77.9438 108.754 78.0558 108.146 78.4558C107.538 78.8398 107.234 79.4718 107.234 80.3518C107.234 81.4238 107.234 82.5118 107.234 83.6158C107.234 84.7198 107.234 85.8158 107.234 86.9038C106.594 86.9038 105.938 86.9038 105.266 86.9038C104.594 86.9038 103.93 86.9038 103.274 86.9038ZM118.021 86.9038C118.021 84.2158 118.021 81.4958 118.021 78.7438C118.021 75.9918 118.021 73.2718 118.021 70.5838C118.725 70.5838 119.429 70.5838 120.133 70.5838C120.837 70.5838 121.533 70.5838 122.221 70.5838C122.221 72.6478 122.221 74.7358 122.221 76.8478C122.221 78.9438 122.221 81.0238 122.221 83.0878C123.069 83.0878 123.925 83.0878 124.789 83.0878C125.653 83.0878 126.501 83.0878 127.333 83.0878C127.333 83.7118 127.333 84.3518 127.333 85.0078C127.333 85.6478 127.333 86.2798 127.333 86.9038C125.797 86.9038 124.245 86.9038 122.677 86.9038C121.109 86.9038 119.557 86.9038 118.021 86.9038ZM137.429 86.9038C137.429 86.7758 137.429 86.6558 137.429 86.5438C137.429 86.4158 137.429 86.2958 137.429 86.1838C137.029 86.5198 136.573 86.7758 136.061 86.9518C135.565 87.1438 135.029 87.2398 134.453 87.2398C133.637 87.2398 132.869 87.0878 132.149 86.7838C131.429 86.4638 130.789 86.0158 130.229 85.4398C129.685 84.8478 129.253 84.1518 128.933 83.3518C128.629 82.5518 128.477 81.6638 128.477 80.6878C128.477 79.6958 128.629 78.7998 128.933 77.9998C129.253 77.1998 129.685 76.5198 130.229 75.9598C130.789 75.3838 131.429 74.9438 132.149 74.6398C132.869 74.3198 133.629 74.1598 134.429 74.1598C135.005 74.1598 135.549 74.2558 136.061 74.4478C136.573 74.6238 137.029 74.8718 137.429 75.1918C137.429 75.0638 137.429 74.9438 137.429 74.8318C137.429 74.7198 137.429 74.6078 137.429 74.4958C138.085 74.4958 138.749 74.4958 139.421 74.4958C140.093 74.4958 140.749 74.4958 141.389 74.4958C141.389 76.5438 141.389 78.6158 141.389 80.7118C141.389 82.7918 141.389 84.8558 141.389 86.9038C140.749 86.9038 140.093 86.9038 139.421 86.9038C138.749 86.9038 138.085 86.9038 137.429 86.9038ZM134.981 83.7358C135.749 83.7358 136.365 83.4558 136.829 82.8958C137.293 82.3358 137.525 81.5998 137.525 80.6878C137.525 79.7758 137.293 79.0478 136.829 78.5038C136.365 77.9438 135.749 77.6638 134.981 77.6638C134.197 77.6638 133.573 77.9358 133.109 78.4798C132.661 79.0238 132.437 79.7598 132.437 80.6878C132.437 81.6158 132.661 82.3598 133.109 82.9198C133.573 83.4638 134.197 83.7358 134.981 83.7358ZM144.031 86.9038C144.031 84.8558 144.031 82.7918 144.031 80.7118C144.031 78.6158 144.031 76.5438 144.031 74.4958C144.687 74.4958 145.351 74.4958 146.023 74.4958C146.695 74.4958 147.351 74.4958 147.991 74.4958C147.991 74.6078 147.991 74.7118 147.991 74.8078C147.991 74.9038 147.991 75.0078 147.991 75.1198C148.423 74.8158 148.903 74.5838 149.431 74.4238C149.975 74.2478 150.559 74.1598 151.183 74.1598C152.095 74.1598 152.895 74.3678 153.583 74.7838C154.287 75.1998 154.831 75.7998 155.215 76.5838C155.615 77.3518 155.815 78.2798 155.815 79.3678C155.815 80.6158 155.815 81.8718 155.815 83.1358C155.815 84.3998 155.815 85.6558 155.815 86.9038C155.175 86.9038 154.519 86.9038 153.847 86.9038C153.175 86.9038 152.511 86.9038 151.855 86.9038C151.855 85.7518 151.855 84.5838 151.855 83.3998C151.855 82.2158 151.855 81.0478 151.855 79.8958C151.855 79.2558 151.703 78.7438 151.399 78.3598C151.111 77.9598 150.647 77.7598 150.007 77.7598C149.367 77.7598 148.871 77.9438 148.519 78.3118C148.167 78.6798 147.991 79.2078 147.991 79.8958C147.991 81.0478 147.991 82.2158 147.991 83.3998C147.991 84.5838 147.991 85.7518 147.991 86.9038C147.351 86.9038 146.695 86.9038 146.023 86.9038C145.351 86.9038 144.687 86.9038 144.031 86.9038ZM169.922 84.8878C169.922 86.2478 169.626 87.3838 169.034 88.2958C168.458 89.2078 167.666 89.8878 166.658 90.3358C165.65 90.7998 164.498 91.0398 163.202 91.0558C161.922 91.0718 160.57 90.8798 159.146 90.4798C159.146 89.8558 159.146 89.2238 159.146 88.5838C159.146 87.9598 159.146 87.3358 159.146 86.7118C160.41 87.2078 161.554 87.4558 162.578 87.4558C163.602 87.4718 164.41 87.2798 165.002 86.8798C165.61 86.4638 165.914 85.8958 165.914 85.1758C165.914 85.0958 165.914 85.0238 165.914 84.9598C165.914 84.8798 165.914 84.8078 165.914 84.7438C165.514 85.0478 165.05 85.2878 164.522 85.4638C163.994 85.6398 163.426 85.7278 162.818 85.7278C161.81 85.7278 160.906 85.4958 160.106 85.0318C159.322 84.5518 158.706 83.8958 158.258 83.0638C157.81 82.2158 157.586 81.2318 157.586 80.1118C157.586 79.2478 157.73 78.4558 158.018 77.7358C158.306 77.0158 158.706 76.3918 159.218 75.8638C159.73 75.3358 160.314 74.9358 160.97 74.6638C161.626 74.3758 162.314 74.2318 163.034 74.2318C163.61 74.2318 164.146 74.3118 164.642 74.4718C165.138 74.6318 165.578 74.8478 165.962 75.1198C165.962 75.0078 165.962 74.9038 165.962 74.8078C165.962 74.7118 165.962 74.6078 165.962 74.4958C166.618 74.4958 167.282 74.4958 167.954 74.4958C168.626 74.4958 169.282 74.4958 169.922 74.4958C169.922 76.2078 169.922 77.9438 169.922 79.7038C169.922 81.4478 169.922 83.1758 169.922 84.8878ZM163.802 82.2958C164.474 82.2958 165.01 82.0878 165.41 81.6718C165.826 81.2398 166.034 80.6878 166.034 80.0158C166.034 79.3278 165.826 78.7678 165.41 78.3358C165.01 77.9038 164.474 77.6878 163.802 77.6878C163.098 77.6878 162.538 77.9038 162.122 78.3358C161.706 78.7518 161.498 79.3118 161.498 80.0158C161.498 80.7038 161.706 81.2558 162.122 81.6718C162.538 82.0878 163.098 82.2958 163.802 82.2958ZM184.147 74.4958C184.147 76.5438 184.147 78.6158 184.147 80.7118C184.147 82.7918 184.147 84.8558 184.147 86.9038C183.507 86.9038 182.851 86.9038 182.179 86.9038C181.507 86.9038 180.843 86.9038 180.187 86.9038C180.187 86.7918 180.187 86.6878 180.187 86.5918C180.187 86.4958 180.187 86.3918 180.187 86.2798C179.755 86.5838 179.267 86.8158 178.723 86.9758C178.195 87.1518 177.619 87.2398 176.995 87.2398C176.083 87.2398 175.275 87.0318 174.571 86.6158C173.883 86.1998 173.339 85.5998 172.939 84.8158C172.555 84.0318 172.363 83.1038 172.363 82.0318C172.363 80.7838 172.363 79.5278 172.363 78.2638C172.363 76.9998 172.363 75.7438 172.363 74.4958C173.019 74.4958 173.683 74.4958 174.355 74.4958C175.027 74.4958 175.683 74.4958 176.323 74.4958C176.323 75.6478 176.323 76.8158 176.323 77.9998C176.323 79.1838 176.323 80.3518 176.323 81.5038C176.323 82.1438 176.467 82.6638 176.755 83.0638C177.059 83.4478 177.531 83.6398 178.171 83.6398C178.811 83.6398 179.307 83.4558 179.659 83.0878C180.011 82.7198 180.187 82.1918 180.187 81.5038C180.187 80.3518 180.187 79.1838 180.187 77.9998C180.187 76.8158 180.187 75.6478 180.187 74.4958C180.843 74.4958 181.507 74.4958 182.179 74.4958C182.851 74.4958 183.507 74.4958 184.147 74.4958ZM195.061 86.9038C195.061 86.7758 195.061 86.6558 195.061 86.5438C195.061 86.4158 195.061 86.2958 195.061 86.1838C194.661 86.5198 194.205 86.7758 193.693 86.9518C193.197 87.1438 192.661 87.2398 192.085 87.2398C191.269 87.2398 190.501 87.0878 189.781 86.7838C189.061 86.4638 188.421 86.0158 187.861 85.4398C187.317 84.8478 186.885 84.1518 186.565 83.3518C186.261 82.5518 186.109 81.6638 186.109 80.6878C186.109 79.6958 186.261 78.7998 186.565 77.9998C186.885 77.1998 187.317 76.5198 187.861 75.9598C188.421 75.3838 189.061 74.9438 189.781 74.6398C190.501 74.3198 191.261 74.1598 192.061 74.1598C192.637 74.1598 193.181 74.2558 193.693 74.4478C194.205 74.6238 194.661 74.8718 195.061 75.1918C195.061 75.0638 195.061 74.9438 195.061 74.8318C195.061 74.7198 195.061 74.6078 195.061 74.4958C195.717 74.4958 196.381 74.4958 197.053 74.4958C197.725 74.4958 198.381 74.4958 199.021 74.4958C199.021 76.5438 199.021 78.6158 199.021 80.7118C199.021 82.7918 199.021 84.8558 199.021 86.9038C198.381 86.9038 197.725 86.9038 197.053 86.9038C196.381 86.9038 195.717 86.9038 195.061 86.9038ZM192.613 83.7358C193.381 83.7358 193.997 83.4558 194.461 82.8958C194.925 82.3358 195.157 81.5998 195.157 80.6878C195.157 79.7758 194.925 79.0478 194.461 78.5038C193.997 77.9438 193.381 77.6638 192.613 77.6638C191.829 77.6638 191.205 77.9358 190.741 78.4798C190.293 79.0238 190.069 79.7598 190.069 80.6878C190.069 81.6158 190.293 82.3598 190.741 82.9198C191.205 83.4638 191.829 83.7358 192.613 83.7358ZM213.328 84.8878C213.328 86.2478 213.032 87.3838 212.44 88.2958C211.864 89.2078 211.072 89.8878 210.064 90.3358C209.056 90.7998 207.904 91.0398 206.608 91.0558C205.328 91.0718 203.976 90.8798 202.552 90.4798C202.552 89.8558 202.552 89.2238 202.552 88.5838C202.552 87.9598 202.552 87.3358 202.552 86.7118C203.816 87.2078 204.96 87.4558 205.984 87.4558C207.008 87.4718 207.816 87.2798 208.408 86.8798C209.016 86.4638 209.32 85.8958 209.32 85.1758C209.32 85.0958 209.32 85.0238 209.32 84.9598C209.32 84.8798 209.32 84.8078 209.32 84.7438C208.92 85.0478 208.456 85.2878 207.928 85.4638C207.4 85.6398 206.832 85.7278 206.224 85.7278C205.216 85.7278 204.312 85.4958 203.512 85.0318C202.728 84.5518 202.112 83.8958 201.664 83.0638C201.216 82.2158 200.992 81.2318 200.992 80.1118C200.992 79.2478 201.136 78.4558 201.424 77.7358C201.712 77.0158 202.112 76.3918 202.624 75.8638C203.136 75.3358 203.72 74.9358 204.376 74.6638C205.032 74.3758 205.72 74.2318 206.44 74.2318C207.016 74.2318 207.552 74.3118 208.048 74.4718C208.544 74.6318 208.984 74.8478 209.368 75.1198C209.368 75.0078 209.368 74.9038 209.368 74.8078C209.368 74.7118 209.368 74.6078 209.368 74.4958C210.024 74.4958 210.688 74.4958 211.36 74.4958C212.032 74.4958 212.688 74.4958 213.328 74.4958C213.328 76.2078 213.328 77.9438 213.328 79.7038C213.328 81.4478 213.328 83.1758 213.328 84.8878ZM207.208 82.2958C207.88 82.2958 208.416 82.0878 208.816 81.6718C209.232 81.2398 209.44 80.6878 209.44 80.0158C209.44 79.3278 209.232 78.7678 208.816 78.3358C208.416 77.9038 207.88 77.6878 207.208 77.6878C206.504 77.6878 205.944 77.9038 205.528 78.3358C205.112 78.7518 204.904 79.3118 204.904 80.0158C204.904 80.7038 205.112 81.2558 205.528 81.6718C205.944 82.0878 206.504 82.2958 207.208 82.2958ZM226.641 86.3278C225.537 86.7918 224.441 87.0798 223.353 87.1918C222.265 87.3038 221.233 87.2398 220.257 86.9998C219.297 86.7758 218.441 86.3838 217.689 85.8238C216.937 85.2638 216.345 84.5518 215.913 83.6878C215.497 82.8238 215.289 81.8238 215.289 80.6878C215.289 79.7438 215.441 78.8798 215.745 78.0958C216.065 77.2958 216.513 76.5998 217.089 76.0078C217.665 75.3998 218.345 74.9358 219.129 74.6158C219.913 74.2798 220.769 74.1118 221.697 74.1118C222.529 74.1118 223.281 74.2478 223.953 74.5198C224.625 74.7918 225.209 75.1758 225.705 75.6718C226.201 76.1518 226.601 76.7278 226.905 77.3998C227.209 78.0718 227.401 78.8078 227.481 79.6078C227.561 80.4078 227.513 81.2558 227.337 82.1518C226.025 82.1518 224.705 82.1518 223.377 82.1518C222.049 82.1518 220.729 82.1518 219.417 82.1518C219.721 82.7598 220.225 83.1918 220.929 83.4478C221.649 83.7038 222.497 83.7838 223.473 83.6878C224.465 83.5918 225.521 83.3358 226.641 82.9198C226.641 83.4798 226.641 84.0478 226.641 84.6238C226.641 85.1998 226.641 85.7678 226.641 86.3278ZM221.601 77.6638C221.137 77.6638 220.705 77.7918 220.305 78.0478C219.921 78.3038 219.625 78.6958 219.417 79.2238C220.137 79.2238 220.857 79.2238 221.577 79.2238C222.313 79.2238 223.041 79.2238 223.761 79.2238C223.569 78.6798 223.281 78.2878 222.897 78.0478C222.529 77.7918 222.097 77.6638 221.601 77.6638Z" fill="#B8D6FF"/>
<path d="M40.68 148.56C40.68 145.872 40.68 143.152 40.68 140.4C40.68 137.648 40.68 134.928 40.68 132.24C41.384 132.24 42.088 132.24 42.792 132.24C43.496 132.24 44.192 132.24 44.88 132.24C44.88 134.928 44.88 137.648 44.88 140.4C44.88 143.152 44.88 145.872 44.88 148.56C44.192 148.56 43.496 148.56 42.792 148.56C42.088 148.56 41.384 148.56 40.68 148.56ZM47.8903 148.56C47.8903 146.512 47.8903 144.448 47.8903 142.368C47.8903 140.272 47.8903 138.2 47.8903 136.152C48.5463 136.152 49.2103 136.152 49.8823 136.152C50.5543 136.152 51.2103 136.152 51.8503 136.152C51.8503 136.264 51.8503 136.368 51.8503 136.464C51.8503 136.56 51.8503 136.664 51.8503 136.776C52.2823 136.472 52.7623 136.24 53.2903 136.08C53.8343 135.904 54.4183 135.816 55.0423 135.816C55.9543 135.816 56.7543 136.024 57.4423 136.44C58.1463 136.856 58.6903 137.456 59.0743 138.24C59.4743 139.008 59.6743 139.936 59.6743 141.024C59.6743 142.272 59.6743 143.528 59.6743 144.792C59.6743 146.056 59.6743 147.312 59.6743 148.56C59.0343 148.56 58.3783 148.56 57.7063 148.56C57.0343 148.56 56.3703 148.56 55.7143 148.56C55.7143 147.408 55.7143 146.24 55.7143 145.056C55.7143 143.872 55.7143 142.704 55.7143 141.552C55.7143 140.912 55.5623 140.4 55.2583 140.016C54.9703 139.616 54.5063 139.416 53.8663 139.416C53.2263 139.416 52.7303 139.6 52.3783 139.968C52.0263 140.336 51.8503 140.864 51.8503 141.552C51.8503 142.704 51.8503 143.872 51.8503 145.056C51.8503 146.24 51.8503 147.408 51.8503 148.56C51.2103 148.56 50.5543 148.56 49.8823 148.56C49.2103 148.56 48.5463 148.56 47.8903 148.56ZM75.4359 148.56C75.4359 148.432 75.4359 148.312 75.4359 148.2C75.4359 148.072 75.4359 147.952 75.4359 147.84C75.0359 148.176 74.5799 148.432 74.0679 148.608C73.5719 148.8 73.0359 148.896 72.4599 148.896C71.6439 148.896 70.8759 148.736 70.1559 148.416C69.4359 148.096 68.7959 147.648 68.2359 147.072C67.6919 146.48 67.2599 145.784 66.9399 144.984C66.6359 144.184 66.4839 143.304 66.4839 142.344C66.4839 141.368 66.6359 140.48 66.9399 139.68C67.2599 138.88 67.6919 138.192 68.2359 137.616C68.7959 137.04 69.4359 136.6 70.1559 136.296C70.8759 135.976 71.6359 135.816 72.4359 135.816C73.0119 135.816 73.5559 135.912 74.0679 136.104C74.5799 136.28 75.0359 136.528 75.4359 136.848C75.4359 135.888 75.4359 134.92 75.4359 133.944C75.4359 132.968 75.4359 132 75.4359 131.04C76.0919 131.04 76.7559 131.04 77.4279 131.04C78.0999 131.04 78.7559 131.04 79.3959 131.04C79.3959 133.936 79.3959 136.856 79.3959 139.8C79.3959 142.744 79.3959 145.664 79.3959 148.56C78.7559 148.56 78.0999 148.56 77.4279 148.56C76.7559 148.56 76.0919 148.56 75.4359 148.56ZM72.9879 145.392C73.7559 145.392 74.3719 145.112 74.8359 144.552C75.2999 143.992 75.5319 143.256 75.5319 142.344C75.5319 141.432 75.2999 140.704 74.8359 140.16C74.3719 139.6 73.7559 139.32 72.9879 139.32C72.2039 139.32 71.5799 139.592 71.1159 140.136C70.6679 140.68 70.4439 141.416 70.4439 142.344C70.4439 143.272 70.6679 144.016 71.1159 144.576C71.5799 145.12 72.2039 145.392 72.9879 145.392ZM92.8359 147.984C91.7319 148.448 90.6359 148.736 89.5479 148.848C88.4599 148.96 87.4279 148.896 86.4519 148.656C85.4919 148.432 84.6359 148.04 83.8839 147.48C83.1319 146.92 82.5399 146.208 82.1079 145.344C81.6919 144.48 81.4839 143.48 81.4839 142.344C81.4839 141.4 81.6359 140.536 81.9399 139.752C82.2599 138.952 82.7079 138.256 83.2839 137.664C83.8599 137.056 84.5399 136.592 85.3239 136.272C86.1079 135.936 86.9639 135.768 87.8919 135.768C88.7239 135.768 89.4759 135.904 90.1479 136.176C90.8199 136.448 91.4039 136.832 91.8999 137.328C92.3959 137.808 92.7959 138.384 93.0999 139.056C93.4039 139.728 93.5959 140.464 93.6759 141.264C93.7559 142.064 93.7079 142.912 93.5319 143.808C92.2199 143.808 90.8999 143.808 89.5719 143.808C88.2439 143.808 86.9239 143.808 85.6119 143.808C85.9159 144.416 86.4199 144.848 87.1239 145.104C87.8439 145.36 88.6919 145.44 89.6679 145.344C90.6599 145.248 91.7159 144.992 92.8359 144.576C92.8359 145.136 92.8359 145.704 92.8359 146.28C92.8359 146.856 92.8359 147.424 92.8359 147.984ZM87.7959 139.32C87.3319 139.32 86.8999 139.448 86.4999 139.704C86.1159 139.96 85.8199 140.352 85.6119 140.88C86.3319 140.88 87.0519 140.88 87.7719 140.88C88.5079 140.88 89.2359 140.88 89.9559 140.88C89.7639 140.336 89.4759 139.944 89.0919 139.704C88.7239 139.448 88.2919 139.32 87.7959 139.32ZM95.0079 139.704C95.0079 139.112 95.0079 138.52 95.0079 137.928C95.0079 137.336 95.0079 136.744 95.0079 136.152C95.3279 136.152 95.6479 136.152 95.9679 136.152C96.3039 136.152 96.6319 136.152 96.9519 136.152C96.9519 136.072 96.9519 136 96.9519 135.936C96.9519 135.872 96.9519 135.808 96.9519 135.744C96.9519 134.672 97.1679 133.776 97.5999 133.056C98.0479 132.32 98.6319 131.76 99.3519 131.376C100.088 130.976 100.888 130.752 101.752 130.704C102.632 130.64 103.504 130.752 104.368 131.04C104.368 131.632 104.368 132.24 104.368 132.864C104.368 133.488 104.368 134.104 104.368 134.712C103.408 134.392 102.592 134.328 101.92 134.52C101.248 134.712 100.912 135.128 100.912 135.768C100.912 135.832 100.912 135.896 100.912 135.96C100.912 136.024 100.912 136.088 100.912 136.152C101.408 136.152 101.904 136.152 102.4 136.152C102.896 136.152 103.392 136.152 103.888 136.152C103.888 136.744 103.888 137.336 103.888 137.928C103.888 138.52 103.888 139.112 103.888 139.704C103.392 139.704 102.896 139.704 102.4 139.704C101.904 139.704 101.408 139.704 100.912 139.704C100.912 141.16 100.912 142.632 100.912 144.12C100.912 145.608 100.912 147.088 100.912 148.56C100.272 148.56 99.6159 148.56 98.9439 148.56C98.2719 148.56 97.6079 148.56 96.9519 148.56C96.9519 147.088 96.9519 145.608 96.9519 144.12C96.9519 142.632 96.9519 141.16 96.9519 139.704C96.6319 139.704 96.3039 139.704 95.9679 139.704C95.6479 139.704 95.3279 139.704 95.0079 139.704ZM116.367 147.984C115.263 148.448 114.167 148.736 113.079 148.848C111.991 148.96 110.959 148.896 109.983 148.656C109.023 148.432 108.167 148.04 107.415 147.48C106.663 146.92 106.071 146.208 105.639 145.344C105.223 144.48 105.015 143.48 105.015 142.344C105.015 141.4 105.167 140.536 105.471 139.752C105.791 138.952 106.239 138.256 106.815 137.664C107.391 137.056 108.071 136.592 108.855 136.272C109.639 135.936 110.495 135.768 111.423 135.768C112.255 135.768 113.007 135.904 113.679 136.176C114.351 136.448 114.935 136.832 115.431 137.328C115.927 137.808 116.327 138.384 116.631 139.056C116.935 139.728 117.127 140.464 117.207 141.264C117.287 142.064 117.239 142.912 117.063 143.808C115.751 143.808 114.431 143.808 113.103 143.808C111.775 143.808 110.455 143.808 109.143 143.808C109.447 144.416 109.951 144.848 110.655 145.104C111.375 145.36 112.223 145.44 113.199 145.344C114.191 145.248 115.247 144.992 116.367 144.576C116.367 145.136 116.367 145.704 116.367 146.28C116.367 146.856 116.367 147.424 116.367 147.984ZM111.327 139.32C110.863 139.32 110.431 139.448 110.031 139.704C109.647 139.96 109.351 140.352 109.143 140.88C109.863 140.88 110.583 140.88 111.303 140.88C112.039 140.88 112.767 140.88 113.487 140.88C113.295 140.336 113.007 139.944 112.623 139.704C112.255 139.448 111.823 139.32 111.327 139.32ZM119.304 148.56C119.304 146.512 119.304 144.448 119.304 142.368C119.304 140.272 119.304 138.2 119.304 136.152C119.96 136.152 120.624 136.152 121.296 136.152C121.968 136.152 122.624 136.152 123.264 136.152C123.264 136.264 123.264 136.368 123.264 136.464C123.264 136.56 123.264 136.664 123.264 136.776C123.696 136.472 124.176 136.24 124.704 136.08C125.248 135.904 125.832 135.816 126.456 135.816C127.368 135.816 128.168 136.024 128.856 136.44C129.56 136.856 130.104 137.456 130.488 138.24C130.888 139.008 131.088 139.936 131.088 141.024C131.088 142.272 131.088 143.528 131.088 144.792C131.088 146.056 131.088 147.312 131.088 148.56C130.448 148.56 129.792 148.56 129.12 148.56C128.448 148.56 127.784 148.56 127.128 148.56C127.128 147.408 127.128 146.24 127.128 145.056C127.128 143.872 127.128 142.704 127.128 141.552C127.128 140.912 126.976 140.4 126.672 140.016C126.384 139.616 125.92 139.416 125.28 139.416C124.64 139.416 124.144 139.6 123.792 139.968C123.44 140.336 123.264 140.864 123.264 141.552C123.264 142.704 123.264 143.872 123.264 145.056C123.264 146.24 123.264 147.408 123.264 148.56C122.624 148.56 121.968 148.56 121.296 148.56C120.624 148.56 119.96 148.56 119.304 148.56ZM143.011 144.72C143.011 145.712 142.731 146.528 142.171 147.168C141.627 147.792 140.891 148.248 139.963 148.536C139.035 148.824 137.995 148.944 136.843 148.896C135.707 148.864 134.547 148.68 133.363 148.344C133.363 147.736 133.363 147.112 133.363 146.472C133.363 145.832 133.363 145.208 133.363 144.6C134.035 144.904 134.707 145.144 135.379 145.32C136.051 145.48 136.659 145.576 137.203 145.608C137.747 145.64 138.187 145.6 138.523 145.488C138.859 145.36 139.027 145.152 139.027 144.864C139.027 144.64 138.883 144.464 138.595 144.336C138.323 144.208 137.963 144.096 137.515 144C137.067 143.888 136.587 143.76 136.075 143.616C135.579 143.456 135.107 143.24 134.659 142.968C134.211 142.68 133.843 142.304 133.555 141.84C133.283 141.36 133.147 140.744 133.147 139.992C133.147 139.096 133.403 138.336 133.915 137.712C134.443 137.072 135.147 136.592 136.027 136.272C136.907 135.936 137.891 135.768 138.979 135.768C140.067 135.768 141.179 135.952 142.315 136.32C142.315 136.928 142.315 137.552 142.315 138.192C142.315 138.832 142.315 139.456 142.315 140.064C141.419 139.632 140.579 139.344 139.795 139.2C139.011 139.056 138.379 139.04 137.899 139.152C137.419 139.248 137.179 139.464 137.179 139.8C137.179 140.024 137.315 140.2 137.587 140.328C137.875 140.44 138.235 140.544 138.667 140.64C139.115 140.736 139.587 140.864 140.083 141.024C140.595 141.184 141.067 141.408 141.499 141.696C141.947 141.968 142.307 142.352 142.579 142.848C142.867 143.328 143.011 143.952 143.011 144.72ZM155.602 147.984C154.498 148.448 153.402 148.736 152.314 148.848C151.226 148.96 150.194 148.896 149.218 148.656C148.258 148.432 147.402 148.04 146.65 147.48C145.898 146.92 145.306 146.208 144.874 145.344C144.458 144.48 144.25 143.48 144.25 142.344C144.25 141.4 144.402 140.536 144.706 139.752C145.026 138.952 145.474 138.256 146.05 137.664C146.626 137.056 147.306 136.592 148.09 136.272C148.874 135.936 149.73 135.768 150.658 135.768C151.49 135.768 152.242 135.904 152.914 136.176C153.586 136.448 154.17 136.832 154.666 137.328C155.162 137.808 155.562 138.384 155.866 139.056C156.17 139.728 156.362 140.464 156.442 141.264C156.522 142.064 156.474 142.912 156.298 143.808C154.986 143.808 153.666 143.808 152.338 143.808C151.01 143.808 149.69 143.808 148.378 143.808C148.682 144.416 149.186 144.848 149.89 145.104C150.61 145.36 151.458 145.44 152.434 145.344C153.426 145.248 154.482 144.992 155.602 144.576C155.602 145.136 155.602 145.704 155.602 146.28C155.602 146.856 155.602 147.424 155.602 147.984ZM150.562 139.32C150.098 139.32 149.666 139.448 149.266 139.704C148.882 139.96 148.586 140.352 148.378 140.88C149.098 140.88 149.818 140.88 150.538 140.88C151.274 140.88 152.002 140.88 152.722 140.88C152.53 140.336 152.242 139.944 151.858 139.704C151.49 139.448 151.058 139.32 150.562 139.32ZM158.659 148.56C158.659 145.664 158.659 142.744 158.659 139.8C158.659 136.856 158.659 133.936 158.659 131.04C159.315 131.04 159.979 131.04 160.651 131.04C161.323 131.04 161.979 131.04 162.619 131.04C162.619 133.936 162.619 136.856 162.619 139.8C162.619 142.744 162.619 145.664 162.619 148.56C161.979 148.56 161.323 148.56 160.651 148.56C159.979 148.56 159.315 148.56 158.659 148.56ZM176.062 147.984C174.959 148.448 173.863 148.736 172.775 148.848C171.687 148.96 170.655 148.896 169.679 148.656C168.719 148.432 167.863 148.04 167.111 147.48C166.359 146.92 165.767 146.208 165.335 145.344C164.919 144.48 164.711 143.48 164.711 142.344C164.711 141.4 164.863 140.536 165.167 139.752C165.487 138.952 165.935 138.256 166.511 137.664C167.087 137.056 167.767 136.592 168.551 136.272C169.335 135.936 170.191 135.768 171.118 135.768C171.951 135.768 172.703 135.904 173.375 136.176C174.047 136.448 174.631 136.832 175.127 137.328C175.623 137.808 176.023 138.384 176.327 139.056C176.631 139.728 176.823 140.464 176.903 141.264C176.983 142.064 176.935 142.912 176.759 143.808C175.447 143.808 174.127 143.808 172.799 143.808C171.471 143.808 170.151 143.808 168.839 143.808C169.143 144.416 169.647 144.848 170.351 145.104C171.071 145.36 171.919 145.44 172.895 145.344C173.887 145.248 174.943 144.992 176.062 144.576C176.062 145.136 176.062 145.704 176.062 146.28C176.062 146.856 176.062 147.424 176.062 147.984ZM171.023 139.32C170.559 139.32 170.127 139.448 169.727 139.704C169.343 139.96 169.047 140.352 168.839 140.88C169.559 140.88 170.279 140.88 170.999 140.88C171.735 140.88 172.463 140.88 173.183 140.88C172.991 140.336 172.703 139.944 172.319 139.704C171.951 139.448 171.519 139.32 171.023 139.32ZM188.48 144.72C188.48 145.712 188.2 146.528 187.64 147.168C187.096 147.792 186.36 148.248 185.432 148.536C184.504 148.824 183.464 148.944 182.312 148.896C181.176 148.864 180.016 148.68 178.832 148.344C178.832 147.736 178.832 147.112 178.832 146.472C178.832 145.832 178.832 145.208 178.832 144.6C179.504 144.904 180.176 145.144 180.848 145.32C181.52 145.48 182.128 145.576 182.672 145.608C183.216 145.64 183.656 145.6 183.992 145.488C184.328 145.36 184.496 145.152 184.496 144.864C184.496 144.64 184.352 144.464 184.064 144.336C183.792 144.208 183.432 144.096 182.984 144C182.536 143.888 182.056 143.76 181.544 143.616C181.048 143.456 180.576 143.24 180.128 142.968C179.68 142.68 179.312 142.304 179.024 141.84C178.752 141.36 178.616 140.744 178.616 139.992C178.616 139.096 178.872 138.336 179.384 137.712C179.912 137.072 180.616 136.592 181.496 136.272C182.376 135.936 183.36 135.768 184.448 135.768C185.536 135.768 186.648 135.952 187.784 136.32C187.784 136.928 187.784 137.552 187.784 138.192C187.784 138.832 187.784 139.456 187.784 140.064C186.888 139.632 186.048 139.344 185.264 139.2C184.48 139.056 183.848 139.04 183.368 139.152C182.888 139.248 182.648 139.464 182.648 139.8C182.648 140.024 182.784 140.2 183.056 140.328C183.344 140.44 183.704 140.544 184.136 140.64C184.584 140.736 185.056 140.864 185.552 141.024C186.064 141.184 186.536 141.408 186.968 141.696C187.416 141.968 187.776 142.352 188.048 142.848C188.336 143.328 188.48 143.952 188.48 144.72ZM199.753 144.72C199.753 145.712 199.473 146.528 198.913 147.168C198.369 147.792 197.633 148.248 196.705 148.536C195.777 148.824 194.737 148.944 193.585 148.896C192.449 148.864 191.289 148.68 190.105 148.344C190.105 147.736 190.105 147.112 190.105 146.472C190.105 145.832 190.105 145.208 190.105 144.6C190.777 144.904 191.449 145.144 192.121 145.32C192.793 145.48 193.401 145.576 193.945 145.608C194.489 145.64 194.929 145.6 195.265 145.488C195.601 145.36 195.769 145.152 195.769 144.864C195.769 144.64 195.625 144.464 195.337 144.336C195.065 144.208 194.705 144.096 194.257 144C193.809 143.888 193.329 143.76 192.817 143.616C192.321 143.456 191.849 143.24 191.401 142.968C190.953 142.68 190.585 142.304 190.297 141.84C190.025 141.36 189.889 140.744 189.889 139.992C189.889 139.096 190.145 138.336 190.657 137.712C191.185 137.072 191.889 136.592 192.769 136.272C193.649 135.936 194.633 135.768 195.721 135.768C196.809 135.768 197.921 135.952 199.057 136.32C199.057 136.928 199.057 137.552 199.057 138.192C199.057 138.832 199.057 139.456 199.057 140.064C198.161 139.632 197.321 139.344 196.537 139.2C195.753 139.056 195.121 139.04 194.641 139.152C194.161 139.248 193.921 139.464 193.921 139.8C193.921 140.024 194.057 140.2 194.329 140.328C194.617 140.44 194.977 140.544 195.409 140.64C195.857 140.736 196.329 140.864 196.825 141.024C197.337 141.184 197.809 141.408 198.241 141.696C198.689 141.968 199.049 142.352 199.321 142.848C199.609 143.328 199.753 143.952 199.753 144.72ZM208.815 134.736C208.351 134.736 207.927 134.624 207.543 134.4C207.175 134.176 206.879 133.88 206.655 133.512C206.431 133.144 206.319 132.736 206.319 132.288C206.319 131.84 206.431 131.44 206.655 131.088C206.879 130.72 207.175 130.424 207.543 130.2C207.927 129.976 208.351 129.864 208.815 129.864C209.263 129.864 209.671 129.976 210.039 130.2C210.423 130.424 210.727 130.72 210.951 131.088C211.175 131.44 211.287 131.84 211.287 132.288C211.287 132.736 211.175 133.144 210.951 133.512C210.727 133.88 210.423 134.176 210.039 134.4C209.671 134.624 209.263 134.736 208.815 134.736ZM206.823 148.56C206.823 146.512 206.823 144.448 206.823 142.368C206.823 140.272 206.823 138.2 206.823 136.152C207.479 136.152 208.143 136.152 208.815 136.152C209.487 136.152 210.143 136.152 210.783 136.152C210.783 138.2 210.783 140.272 210.783 142.368C210.783 144.448 210.783 146.512 210.783 148.56C210.143 148.56 209.487 148.56 208.815 148.56C208.143 148.56 207.479 148.56 206.823 148.56ZM213.547 148.56C213.547 146.512 213.547 144.448 213.547 142.368C213.547 140.272 213.547 138.2 213.547 136.152C214.203 136.152 214.867 136.152 215.539 136.152C216.211 136.152 216.867 136.152 217.507 136.152C217.507 136.264 217.507 136.368 217.507 136.464C217.507 136.56 217.507 136.664 217.507 136.776C217.939 136.472 218.419 136.24 218.947 136.08C219.491 135.904 220.075 135.816 220.699 135.816C221.611 135.816 222.411 136.024 223.099 136.44C223.803 136.856 224.347 137.456 224.731 138.24C225.131 139.008 225.331 139.936 225.331 141.024C225.331 142.272 225.331 143.528 225.331 144.792C225.331 146.056 225.331 147.312 225.331 148.56C224.691 148.56 224.035 148.56 223.363 148.56C222.691 148.56 222.027 148.56 221.371 148.56C221.371 147.408 221.371 146.24 221.371 145.056C221.371 143.872 221.371 142.704 221.371 141.552C221.371 140.912 221.219 140.4 220.915 140.016C220.627 139.616 220.163 139.416 219.523 139.416C218.883 139.416 218.387 139.6 218.035 139.968C217.683 140.336 217.507 140.864 217.507 141.552C217.507 142.704 217.507 143.872 217.507 145.056C217.507 146.24 217.507 147.408 217.507 148.56C216.867 148.56 216.211 148.56 215.539 148.56C214.867 148.56 214.203 148.56 213.547 148.56ZM227.773 148.56C227.773 146.512 227.773 144.448 227.773 142.368C227.773 140.272 227.773 138.2 227.773 136.152C228.429 136.152 229.093 136.152 229.765 136.152C230.437 136.152 231.093 136.152 231.733 136.152C231.733 136.264 231.733 136.368 231.733 136.464C231.733 136.56 231.733 136.664 231.733 136.776C232.165 136.472 232.645 136.24 233.173 136.08C233.717 135.904 234.301 135.816 234.925 135.816C235.837 135.816 236.637 136.024 237.325 136.44C238.029 136.856 238.573 137.456 238.957 138.24C239.357 139.008 239.557 139.936 239.557 141.024C239.557 142.272 239.557 143.528 239.557 144.792C239.557 146.056 239.557 147.312 239.557 148.56C238.917 148.56 238.261 148.56 237.589 148.56C236.917 148.56 236.253 148.56 235.597 148.56C235.597 147.408 235.597 146.24 235.597 145.056C235.597 143.872 235.597 142.704 235.597 141.552C235.597 140.912 235.445 140.4 235.141 140.016C234.853 139.616 234.389 139.416 233.749 139.416C233.109 139.416 232.613 139.6 232.261 139.968C231.909 140.336 231.733 140.864 231.733 141.552C231.733 142.704 231.733 143.872 231.733 145.056C231.733 146.24 231.733 147.408 231.733 148.56C231.093 148.56 230.437 148.56 229.765 148.56C229.093 148.56 228.429 148.56 227.773 148.56ZM247.88 148.944C246.952 148.944 246.088 148.784 245.288 148.464C244.488 148.128 243.792 147.664 243.2 147.072C242.608 146.464 242.144 145.76 241.808 144.96C241.488 144.16 241.328 143.288 241.328 142.344C241.328 141.4 241.488 140.528 241.808 139.728C242.144 138.928 242.608 138.232 243.2 137.64C243.792 137.048 244.488 136.592 245.288 136.272C246.088 135.936 246.952 135.768 247.88 135.768C248.824 135.768 249.688 135.936 250.472 136.272C251.272 136.592 251.968 137.048 252.56 137.64C253.152 138.232 253.608 138.928 253.928 139.728C254.264 140.528 254.432 141.4 254.432 142.344C254.432 143.288 254.264 144.16 253.928 144.96C253.608 145.76 253.152 146.464 252.56 147.072C251.968 147.664 251.272 148.128 250.472 148.464C249.688 148.784 248.824 148.944 247.88 148.944ZM247.88 145.368C248.664 145.368 249.288 145.088 249.752 144.528C250.232 143.952 250.472 143.224 250.472 142.344C250.472 141.448 250.232 140.728 249.752 140.184C249.288 139.624 248.664 139.344 247.88 139.344C247.096 139.344 246.464 139.624 245.984 140.184C245.52 140.728 245.288 141.448 245.288 142.344C245.288 143.224 245.52 143.952 245.984 144.528C246.464 145.088 247.096 145.368 247.88 145.368ZM255.718 142.344C255.718 141.128 255.966 140.064 256.462 139.152C256.958 138.224 257.646 137.48 258.526 136.92C259.406 136.36 260.43 136.024 261.598 135.912C262.766 135.784 264.014 135.92 265.342 136.32C265.342 136.928 265.342 137.544 265.342 138.168C265.342 138.792 265.342 139.408 265.342 140.016C264.414 139.568 263.526 139.36 262.678 139.392C261.83 139.424 261.134 139.688 260.59 140.184C260.046 140.664 259.774 141.384 259.774 142.344C259.774 143.304 260.046 144.032 260.59 144.528C261.134 145.008 261.83 145.264 262.678 145.296C263.526 145.312 264.414 145.104 265.342 144.672C265.342 145.28 265.342 145.896 265.342 146.52C265.342 147.144 265.342 147.76 265.342 148.368C264.014 148.768 262.766 148.904 261.598 148.776C260.43 148.664 259.406 148.328 258.526 147.768C257.646 147.208 256.958 146.472 256.462 145.56C255.966 144.632 255.718 143.56 255.718 142.344ZM278.367 147.984C277.263 148.448 276.167 148.736 275.079 148.848C273.991 148.96 272.959 148.896 271.983 148.656C271.023 148.432 270.167 148.04 269.415 147.48C268.663 146.92 268.071 146.208 267.639 145.344C267.223 144.48 267.015 143.48 267.015 142.344C267.015 141.4 267.167 140.536 267.471 139.752C267.791 138.952 268.239 138.256 268.815 137.664C269.391 137.056 270.071 136.592 270.855 136.272C271.639 135.936 272.495 135.768 273.423 135.768C274.255 135.768 275.007 135.904 275.679 136.176C276.351 136.448 276.935 136.832 277.431 137.328C277.927 137.808 278.327 138.384 278.631 139.056C278.935 139.728 279.127 140.464 279.207 141.264C279.287 142.064 279.239 142.912 279.063 143.808C277.751 143.808 276.431 143.808 275.103 143.808C273.775 143.808 272.455 143.808 271.143 143.808C271.447 144.416 271.951 144.848 272.655 145.104C273.375 145.36 274.223 145.44 275.199 145.344C276.191 145.248 277.247 144.992 278.367 144.576C278.367 145.136 278.367 145.704 278.367 146.28C278.367 146.856 278.367 147.424 278.367 147.984ZM273.327 139.32C272.863 139.32 272.431 139.448 272.031 139.704C271.647 139.96 271.351 140.352 271.143 140.88C271.863 140.88 272.583 140.88 273.303 140.88C274.039 140.88 274.767 140.88 275.487 140.88C275.295 140.336 275.007 139.944 274.623 139.704C274.255 139.448 273.823 139.32 273.327 139.32ZM281.304 148.56C281.304 146.512 281.304 144.448 281.304 142.368C281.304 140.272 281.304 138.2 281.304 136.152C281.96 136.152 282.624 136.152 283.296 136.152C283.968 136.152 284.624 136.152 285.264 136.152C285.264 136.264 285.264 136.368 285.264 136.464C285.264 136.56 285.264 136.664 285.264 136.776C285.696 136.472 286.176 136.24 286.704 136.08C287.248 135.904 287.832 135.816 288.456 135.816C289.368 135.816 290.168 136.024 290.856 136.44C291.56 136.856 292.104 137.456 292.488 138.24C292.888 139.008 293.088 139.936 293.088 141.024C293.088 142.272 293.088 143.528 293.088 144.792C293.088 146.056 293.088 147.312 293.088 148.56C292.448 148.56 291.792 148.56 291.12 148.56C290.448 148.56 289.784 148.56 289.128 148.56C289.128 147.408 289.128 146.24 289.128 145.056C289.128 143.872 289.128 142.704 289.128 141.552C289.128 140.912 288.976 140.4 288.672 140.016C288.384 139.616 287.92 139.416 287.28 139.416C286.64 139.416 286.144 139.6 285.792 139.968C285.44 140.336 285.264 140.864 285.264 141.552C285.264 142.704 285.264 143.872 285.264 145.056C285.264 146.24 285.264 147.408 285.264 148.56C284.624 148.56 283.968 148.56 283.296 148.56C282.624 148.56 281.96 148.56 281.304 148.56ZM294.859 142.344C294.859 141.128 295.107 140.064 295.603 139.152C296.099 138.224 296.787 137.48 297.667 136.92C298.547 136.36 299.571 136.024 300.739 135.912C301.907 135.784 303.155 135.92 304.483 136.32C304.483 136.928 304.483 137.544 304.483 138.168C304.483 138.792 304.483 139.408 304.483 140.016C303.555 139.568 302.667 139.36 301.819 139.392C300.971 139.424 300.275 139.688 299.731 140.184C299.187 140.664 298.915 141.384 298.915 142.344C298.915 143.304 299.187 144.032 299.731 144.528C300.275 145.008 300.971 145.264 301.819 145.296C302.667 145.312 303.555 145.104 304.483 144.672C304.483 145.28 304.483 145.896 304.483 146.52C304.483 147.144 304.483 147.76 304.483 148.368C303.155 148.768 301.907 148.904 300.739 148.776C299.571 148.664 298.547 148.328 297.667 147.768C296.787 147.208 296.099 146.472 295.603 145.56C295.107 144.632 294.859 143.56 294.859 142.344ZM317.508 147.984C316.404 148.448 315.308 148.736 314.22 148.848C313.132 148.96 312.1 148.896 311.124 148.656C310.164 148.432 309.308 148.04 308.556 147.48C307.804 146.92 307.212 146.208 306.78 145.344C306.364 144.48 306.156 143.48 306.156 142.344C306.156 141.4 306.308 140.536 306.612 139.752C306.932 138.952 307.38 138.256 307.956 137.664C308.532 137.056 309.212 136.592 309.996 136.272C310.78 135.936 311.636 135.768 312.564 135.768C313.396 135.768 314.148 135.904 314.82 136.176C315.492 136.448 316.076 136.832 316.572 137.328C317.068 137.808 317.468 138.384 317.772 139.056C318.076 139.728 318.268 140.464 318.348 141.264C318.428 142.064 318.38 142.912 318.204 143.808C316.892 143.808 315.572 143.808 314.244 143.808C312.916 143.808 311.596 143.808 310.284 143.808C310.588 144.416 311.092 144.848 311.796 145.104C312.516 145.36 313.364 145.44 314.34 145.344C315.332 145.248 316.388 144.992 317.508 144.576C317.508 145.136 317.508 145.704 317.508 146.28C317.508 146.856 317.508 147.424 317.508 147.984ZM312.468 139.32C312.004 139.32 311.572 139.448 311.172 139.704C310.788 139.96 310.492 140.352 310.284 140.88C311.004 140.88 311.724 140.88 312.444 140.88C313.18 140.88 313.908 140.88 314.628 140.88C314.436 140.336 314.148 139.944 313.764 139.704C313.396 139.448 312.964 139.32 312.468 139.32ZM319.563 150.984C319.755 149.864 319.947 148.736 320.139 147.6C320.347 146.464 320.547 145.336 320.739 144.216C321.411 144.216 322.083 144.216 322.755 144.216C323.443 144.216 324.123 144.216 324.795 144.216C324.507 145.336 324.211 146.464 323.907 147.6C323.603 148.736 323.307 149.864 323.019 150.984C322.443 150.984 321.867 150.984 321.291 150.984C320.715 150.984 320.139 150.984 319.563 150.984ZM333.671 148.56C333.671 147.088 333.671 145.608 333.671 144.12C333.671 142.632 333.671 141.16 333.671 139.704C333.351 139.704 333.023 139.704 332.687 139.704C332.367 139.704 332.047 139.704 331.727 139.704C331.727 139.112 331.727 138.52 331.727 137.928C331.727 137.336 331.727 136.744 331.727 136.152C332.047 136.152 332.367 136.152 332.687 136.152C333.023 136.152 333.351 136.152 333.671 136.152C333.671 135.592 333.671 135.04 333.671 134.496C333.671 133.936 333.671 133.384 333.671 132.84C334.327 132.84 334.991 132.84 335.663 132.84C336.335 132.84 336.991 132.84 337.631 132.84C337.631 133.384 337.631 133.936 337.631 134.496C337.631 135.04 337.631 135.592 337.631 136.152C337.999 136.152 338.375 136.152 338.759 136.152C339.143 136.152 339.519 136.152 339.887 136.152C339.887 136.744 339.887 137.336 339.887 137.928C339.887 138.52 339.887 139.112 339.887 139.704C339.519 139.704 339.143 139.704 338.759 139.704C338.375 139.704 337.999 139.704 337.631 139.704C337.631 141.16 337.631 142.632 337.631 144.12C337.631 145.608 337.631 147.088 337.631 148.56C336.991 148.56 336.335 148.56 335.663 148.56C334.991 148.56 334.327 148.56 333.671 148.56ZM341.917 148.56C341.917 145.664 341.917 142.744 341.917 139.8C341.917 136.856 341.917 133.936 341.917 131.04C342.573 131.04 343.237 131.04 343.909 131.04C344.581 131.04 345.237 131.04 345.877 131.04C345.877 131.984 345.877 132.944 345.877 133.92C345.877 134.88 345.877 135.832 345.877 136.776C346.309 136.472 346.789 136.24 347.317 136.08C347.861 135.904 348.445 135.816 349.069 135.816C349.981 135.816 350.781 136.024 351.469 136.44C352.173 136.856 352.717 137.456 353.101 138.24C353.501 139.008 353.701 139.936 353.701 141.024C353.701 142.272 353.701 143.528 353.701 144.792C353.701 146.056 353.701 147.312 353.701 148.56C353.061 148.56 352.405 148.56 351.733 148.56C351.061 148.56 350.397 148.56 349.741 148.56C349.741 147.408 349.741 146.24 349.741 145.056C349.741 143.872 349.741 142.704 349.741 141.552C349.741 140.912 349.589 140.4 349.285 140.016C348.997 139.616 348.533 139.416 347.893 139.416C347.253 139.416 346.757 139.6 346.405 139.968C346.053 140.336 345.877 140.864 345.877 141.552C345.877 142.704 345.877 143.872 345.877 145.056C345.877 146.24 345.877 147.408 345.877 148.56C345.237 148.56 344.581 148.56 343.909 148.56C343.237 148.56 342.573 148.56 341.917 148.56ZM366.844 147.984C365.74 148.448 364.644 148.736 363.556 148.848C362.468 148.96 361.436 148.896 360.46 148.656C359.5 148.432 358.644 148.04 357.892 147.48C357.14 146.92 356.548 146.208 356.116 145.344C355.7 144.48 355.492 143.48 355.492 142.344C355.492 141.4 355.644 140.536 355.948 139.752C356.268 138.952 356.716 138.256 357.292 137.664C357.868 137.056 358.548 136.592 359.332 136.272C360.116 135.936 360.972 135.768 361.9 135.768C362.732 135.768 363.484 135.904 364.156 136.176C364.828 136.448 365.412 136.832 365.908 137.328C366.404 137.808 366.804 138.384 367.108 139.056C367.412 139.728 367.604 140.464 367.684 141.264C367.764 142.064 367.716 142.912 367.54 143.808C366.228 143.808 364.908 143.808 363.58 143.808C362.252 143.808 360.932 143.808 359.62 143.808C359.924 144.416 360.428 144.848 361.132 145.104C361.852 145.36 362.7 145.44 363.676 145.344C364.668 145.248 365.724 144.992 366.844 144.576C366.844 145.136 366.844 145.704 366.844 146.28C366.844 146.856 366.844 147.424 366.844 147.984ZM361.804 139.32C361.34 139.32 360.908 139.448 360.508 139.704C360.124 139.96 359.828 140.352 359.62 140.88C360.34 140.88 361.06 140.88 361.78 140.88C362.516 140.88 363.244 140.88 363.964 140.88C363.772 140.336 363.484 139.944 363.1 139.704C362.732 139.448 362.3 139.32 361.804 139.32ZM44.28 182.4C43.64 182.4 42.984 182.4 42.312 182.4C41.64 182.4 40.976 182.4 40.32 182.4C40.32 179.728 40.32 177.024 40.32 174.288C40.32 171.536 40.32 168.824 40.32 166.152C40.976 166.152 41.64 166.152 42.312 166.152C42.984 166.152 43.64 166.152 44.28 166.152C44.28 166.264 44.28 166.376 44.28 166.488C44.28 166.6 44.28 166.72 44.28 166.848C44.68 166.528 45.136 166.28 45.648 166.104C46.16 165.912 46.704 165.816 47.28 165.816C48.08 165.816 48.84 165.976 49.56 166.296C50.28 166.6 50.912 167.04 51.456 167.616C52.016 168.192 52.448 168.88 52.752 169.68C53.072 170.48 53.232 171.368 53.232 172.344C53.232 173.304 53.072 174.184 52.752 174.984C52.448 175.784 52.016 176.48 51.456 177.072C50.912 177.648 50.28 178.096 49.56 178.416C48.84 178.736 48.072 178.896 47.256 178.896C46.68 178.896 46.136 178.8 45.624 178.608C45.128 178.432 44.68 178.176 44.28 177.84C44.28 178.592 44.28 179.352 44.28 180.12C44.28 180.888 44.28 181.648 44.28 182.4ZM46.728 175.392C47.512 175.392 48.128 175.12 48.576 174.576C49.04 174.016 49.272 173.272 49.272 172.344C49.272 171.416 49.04 170.68 48.576 170.136C48.128 169.592 47.512 169.32 46.728 169.32C45.96 169.32 45.344 169.6 44.88 170.16C44.416 170.704 44.184 171.432 44.184 172.344C44.184 173.256 44.416 173.992 44.88 174.552C45.344 175.112 45.96 175.392 46.728 175.392ZM66.7948 166.152C66.7948 168.2 66.7948 170.272 66.7948 172.368C66.7948 174.448 66.7948 176.512 66.7948 178.56C66.1548 178.56 65.4988 178.56 64.8268 178.56C64.1548 178.56 63.4908 178.56 62.8348 178.56C62.8348 178.448 62.8348 178.344 62.8348 178.248C62.8348 178.152 62.8348 178.048 62.8348 177.936C62.4028 178.24 61.9148 178.472 61.3708 178.632C60.8428 178.808 60.2668 178.896 59.6428 178.896C58.7308 178.896 57.9228 178.688 57.2188 178.272C56.5308 177.856 55.9868 177.256 55.5868 176.472C55.2028 175.688 55.0108 174.76 55.0108 173.688C55.0108 172.44 55.0108 171.184 55.0108 169.92C55.0108 168.656 55.0108 167.4 55.0108 166.152C55.6668 166.152 56.3308 166.152 57.0028 166.152C57.6748 166.152 58.3308 166.152 58.9708 166.152C58.9708 167.304 58.9708 168.472 58.9708 169.656C58.9708 170.84 58.9708 172.008 58.9708 173.16C58.9708 173.8 59.1148 174.32 59.4028 174.72C59.7068 175.104 60.1788 175.296 60.8188 175.296C61.4588 175.296 61.9548 175.112 62.3068 174.744C62.6588 174.376 62.8348 173.848 62.8348 173.16C62.8348 172.008 62.8348 170.84 62.8348 169.656C62.8348 168.472 62.8348 167.304 62.8348 166.152C63.4908 166.152 64.1548 166.152 64.8268 166.152C65.4988 166.152 66.1548 166.152 66.7948 166.152ZM69.4294 178.56C69.4294 176.512 69.4294 174.448 69.4294 172.368C69.4294 170.272 69.4294 168.2 69.4294 166.152C70.0854 166.152 70.7494 166.152 71.4214 166.152C72.0934 166.152 72.7494 166.152 73.3894 166.152C73.3894 166.264 73.3894 166.376 73.3894 166.488C73.3894 166.6 73.3894 166.712 73.3894 166.824C73.8854 166.472 74.4454 166.208 75.0694 166.032C75.6934 165.856 76.3734 165.808 77.1094 165.888C77.1094 166.528 77.1094 167.176 77.1094 167.832C77.1094 168.488 77.1094 169.136 77.1094 169.776C75.8454 169.6 74.9094 169.712 74.3014 170.112C73.6934 170.496 73.3894 171.128 73.3894 172.008C73.3894 173.08 73.3894 174.168 73.3894 175.272C73.3894 176.376 73.3894 177.472 73.3894 178.56C72.7494 178.56 72.0934 178.56 71.4214 178.56C70.7494 178.56 70.0854 178.56 69.4294 178.56ZM89.4609 177.984C88.3569 178.448 87.2609 178.736 86.1729 178.848C85.0849 178.96 84.0529 178.896 83.0769 178.656C82.1169 178.432 81.2609 178.04 80.5089 177.48C79.7569 176.92 79.1649 176.208 78.7329 175.344C78.3169 174.48 78.1089 173.48 78.1089 172.344C78.1089 171.4 78.2609 170.536 78.5649 169.752C78.8849 168.952 79.3329 168.256 79.9089 167.664C80.4849 167.056 81.1649 166.592 81.9489 166.272C82.7329 165.936 83.5889 165.768 84.5169 165.768C85.3489 165.768 86.1009 165.904 86.7729 166.176C87.4449 166.448 88.0289 166.832 88.5249 167.328C89.0209 167.808 89.4209 168.384 89.7249 169.056C90.0289 169.728 90.2209 170.464 90.3009 171.264C90.3809 172.064 90.3329 172.912 90.1569 173.808C88.8449 173.808 87.5249 173.808 86.1969 173.808C84.8689 173.808 83.5489 173.808 82.2369 173.808C82.5409 174.416 83.0449 174.848 83.7489 175.104C84.4689 175.36 85.3169 175.44 86.2929 175.344C87.2849 175.248 88.3409 174.992 89.4609 174.576C89.4609 175.136 89.4609 175.704 89.4609 176.28C89.4609 176.856 89.4609 177.424 89.4609 177.984ZM84.4209 169.32C83.9569 169.32 83.5249 169.448 83.1249 169.704C82.7409 169.96 82.4449 170.352 82.2369 170.88C82.9569 170.88 83.6769 170.88 84.3969 170.88C85.1329 170.88 85.8609 170.88 86.5809 170.88C86.3889 170.336 86.1009 169.944 85.7169 169.704C85.3489 169.448 84.9169 169.32 84.4209 169.32ZM101.878 174.72C101.878 175.712 101.598 176.528 101.038 177.168C100.494 177.792 99.7581 178.248 98.8301 178.536C97.9021 178.824 96.8621 178.944 95.7101 178.896C94.5741 178.864 93.4141 178.68 92.2301 178.344C92.2301 177.736 92.2301 177.112 92.2301 176.472C92.2301 175.832 92.2301 175.208 92.2301 174.6C92.9021 174.904 93.5741 175.144 94.2461 175.32C94.9181 175.48 95.5261 175.576 96.0701 175.608C96.6141 175.64 97.0541 175.6 97.3901 175.488C97.7261 175.36 97.8941 175.152 97.8941 174.864C97.8941 174.64 97.7501 174.464 97.4621 174.336C97.1901 174.208 96.8301 174.096 96.3821 174C95.9341 173.888 95.4541 173.76 94.9421 173.616C94.4461 173.456 93.9741 173.24 93.5261 172.968C93.0781 172.68 92.7101 172.304 92.4221 171.84C92.1501 171.36 92.0141 170.744 92.0141 169.992C92.0141 169.096 92.2701 168.336 92.7821 167.712C93.3101 167.072 94.0141 166.592 94.8941 166.272C95.7741 165.936 96.7581 165.768 97.8461 165.768C98.9341 165.768 100.046 165.952 101.182 166.32C101.182 166.928 101.182 167.552 101.182 168.192C101.182 168.832 101.182 169.456 101.182 170.064C100.286 169.632 99.4461 169.344 98.6621 169.2C97.8781 169.056 97.2461 169.04 96.7661 169.152C96.2861 169.248 96.0461 169.464 96.0461 169.8C96.0461 170.024 96.1821 170.2 96.4541 170.328C96.7421 170.44 97.1021 170.544 97.5341 170.64C97.9821 170.736 98.4541 170.864 98.9501 171.024C99.4621 171.184 99.9341 171.408 100.366 171.696C100.814 171.968 101.174 172.352 101.446 172.848C101.734 173.328 101.878 173.952 101.878 174.72ZM105.085 178.56C105.085 177.088 105.085 175.608 105.085 174.12C105.085 172.632 105.085 171.16 105.085 169.704C104.765 169.704 104.437 169.704 104.101 169.704C103.781 169.704 103.461 169.704 103.141 169.704C103.141 169.112 103.141 168.52 103.141 167.928C103.141 167.336 103.141 166.744 103.141 166.152C103.461 166.152 103.781 166.152 104.101 166.152C104.437 166.152 104.765 166.152 105.085 166.152C105.085 165.592 105.085 165.04 105.085 164.496C105.085 163.936 105.085 163.384 105.085 162.84C105.741 162.84 106.405 162.84 107.077 162.84C107.749 162.84 108.405 162.84 109.045 162.84C109.045 163.384 109.045 163.936 109.045 164.496C109.045 165.04 109.045 165.592 109.045 166.152C109.413 166.152 109.789 166.152 110.173 166.152C110.557 166.152 110.933 166.152 111.301 166.152C111.301 166.744 111.301 167.336 111.301 167.928C111.301 168.52 111.301 169.112 111.301 169.704C110.933 169.704 110.557 169.704 110.173 169.704C109.789 169.704 109.413 169.704 109.045 169.704C109.045 171.16 109.045 172.632 109.045 174.12C109.045 175.608 109.045 177.088 109.045 178.56C108.405 178.56 107.749 178.56 107.077 178.56C106.405 178.56 105.741 178.56 105.085 178.56ZM124.13 178.944C123.202 178.944 122.338 178.784 121.538 178.464C120.738 178.128 120.042 177.664 119.45 177.072C118.858 176.464 118.394 175.76 118.058 174.96C117.738 174.16 117.578 173.288 117.578 172.344C117.578 171.4 117.738 170.528 118.058 169.728C118.394 168.928 118.858 168.232 119.45 167.64C120.042 167.048 120.738 166.592 121.538 166.272C122.338 165.936 123.202 165.768 124.13 165.768C125.074 165.768 125.938 165.936 126.722 166.272C127.522 166.592 128.218 167.048 128.81 167.64C129.402 168.232 129.858 168.928 130.178 169.728C130.514 170.528 130.682 171.4 130.682 172.344C130.682 173.288 130.514 174.16 130.178 174.96C129.858 175.76 129.402 176.464 128.81 177.072C128.218 177.664 127.522 178.128 126.722 178.464C125.938 178.784 125.074 178.944 124.13 178.944ZM124.13 175.368C124.914 175.368 125.538 175.088 126.002 174.528C126.482 173.952 126.722 173.224 126.722 172.344C126.722 171.448 126.482 170.728 126.002 170.184C125.538 169.624 124.914 169.344 124.13 169.344C123.346 169.344 122.714 169.624 122.234 170.184C121.77 170.728 121.538 171.448 121.538 172.344C121.538 173.224 121.77 173.952 122.234 174.528C122.714 175.088 123.346 175.368 124.13 175.368ZM132.64 178.56C132.64 176.512 132.64 174.448 132.64 172.368C132.64 170.272 132.64 168.2 132.64 166.152C133.296 166.152 133.96 166.152 134.632 166.152C135.304 166.152 135.96 166.152 136.6 166.152C136.6 166.264 136.6 166.376 136.6 166.488C136.6 166.6 136.6 166.712 136.6 166.824C137.096 166.472 137.656 166.208 138.28 166.032C138.904 165.856 139.584 165.808 140.32 165.888C140.32 166.528 140.32 167.176 140.32 167.832C140.32 168.488 140.32 169.136 140.32 169.776C139.056 169.6 138.12 169.712 137.512 170.112C136.904 170.496 136.6 171.128 136.6 172.008C136.6 173.08 136.6 174.168 136.6 175.272C136.6 176.376 136.6 177.472 136.6 178.56C135.96 178.56 135.304 178.56 134.632 178.56C133.96 178.56 133.296 178.56 132.64 178.56ZM144.221 164.736C143.757 164.736 143.333 164.624 142.949 164.4C142.581 164.176 142.285 163.88 142.061 163.512C141.837 163.144 141.725 162.736 141.725 162.288C141.725 161.84 141.837 161.44 142.061 161.088C142.285 160.72 142.581 160.424 142.949 160.2C143.333 159.976 143.757 159.864 144.221 159.864C144.669 159.864 145.077 159.976 145.445 160.2C145.829 160.424 146.133 160.72 146.357 161.088C146.581 161.44 146.693 161.84 146.693 162.288C146.693 162.736 146.581 163.144 146.357 163.512C146.133 163.88 145.829 164.176 145.445 164.4C145.077 164.624 144.669 164.736 144.221 164.736ZM142.229 178.56C142.229 176.512 142.229 174.448 142.229 172.368C142.229 170.272 142.229 168.2 142.229 166.152C142.885 166.152 143.549 166.152 144.221 166.152C144.893 166.152 145.549 166.152 146.189 166.152C146.189 168.2 146.189 170.272 146.189 172.368C146.189 174.448 146.189 176.512 146.189 178.56C145.549 178.56 144.893 178.56 144.221 178.56C143.549 178.56 142.885 178.56 142.229 178.56ZM160.617 176.544C160.617 177.904 160.321 179.04 159.729 179.952C159.153 180.864 158.361 181.544 157.353 181.992C156.345 182.456 155.193 182.696 153.897 182.712C152.617 182.728 151.265 182.536 149.841 182.136C149.841 181.512 149.841 180.88 149.841 180.24C149.841 179.616 149.841 178.992 149.841 178.368C151.105 178.864 152.249 179.112 153.273 179.112C154.297 179.128 155.105 178.936 155.697 178.536C156.305 178.12 156.609 177.552 156.609 176.832C156.609 176.752 156.609 176.68 156.609 176.616C156.609 176.536 156.609 176.464 156.609 176.4C156.209 176.704 155.745 176.944 155.217 177.12C154.689 177.296 154.121 177.384 153.513 177.384C152.505 177.384 151.601 177.152 150.801 176.688C150.017 176.208 149.401 175.552 148.953 174.72C148.505 173.872 148.281 172.888 148.281 171.768C148.281 170.904 148.425 170.112 148.713 169.392C149.001 168.672 149.401 168.048 149.913 167.52C150.425 166.992 151.009 166.592 151.665 166.32C152.321 166.032 153.009 165.888 153.729 165.888C154.305 165.888 154.841 165.968 155.337 166.128C155.833 166.288 156.273 166.504 156.657 166.776C156.657 166.664 156.657 166.56 156.657 166.464C156.657 166.368 156.657 166.264 156.657 166.152C157.313 166.152 157.977 166.152 158.649 166.152C159.321 166.152 159.977 166.152 160.617 166.152C160.617 167.864 160.617 169.6 160.617 171.36C160.617 173.104 160.617 174.832 160.617 176.544ZM154.497 173.952C155.169 173.952 155.705 173.744 156.105 173.328C156.521 172.896 156.729 172.344 156.729 171.672C156.729 170.984 156.521 170.424 156.105 169.992C155.705 169.56 155.169 169.344 154.497 169.344C153.793 169.344 153.233 169.56 152.817 169.992C152.401 170.408 152.193 170.968 152.193 171.672C152.193 172.36 152.401 172.912 152.817 173.328C153.233 173.744 153.793 173.952 154.497 173.952ZM165.362 164.736C164.898 164.736 164.474 164.624 164.09 164.4C163.722 164.176 163.426 163.88 163.202 163.512C162.978 163.144 162.866 162.736 162.866 162.288C162.866 161.84 162.978 161.44 163.202 161.088C163.426 160.72 163.722 160.424 164.09 160.2C164.474 159.976 164.898 159.864 165.362 159.864C165.81 159.864 166.218 159.976 166.586 160.2C166.97 160.424 167.274 160.72 167.498 161.088C167.722 161.44 167.834 161.84 167.834 162.288C167.834 162.736 167.722 163.144 167.498 163.512C167.274 163.88 166.97 164.176 166.586 164.4C166.218 164.624 165.81 164.736 165.362 164.736ZM163.37 178.56C163.37 176.512 163.37 174.448 163.37 172.368C163.37 170.272 163.37 168.2 163.37 166.152C164.026 166.152 164.69 166.152 165.362 166.152C166.034 166.152 166.69 166.152 167.33 166.152C167.33 168.2 167.33 170.272 167.33 172.368C167.33 174.448 167.33 176.512 167.33 178.56C166.69 178.56 166.034 178.56 165.362 178.56C164.69 178.56 164.026 178.56 163.37 178.56ZM170.093 178.56C170.093 176.512 170.093 174.448 170.093 172.368C170.093 170.272 170.093 168.2 170.093 166.152C170.749 166.152 171.413 166.152 172.085 166.152C172.757 166.152 173.413 166.152 174.053 166.152C174.053 166.264 174.053 166.368 174.053 166.464C174.053 166.56 174.053 166.664 174.053 166.776C174.485 166.472 174.965 166.24 175.493 166.08C176.037 165.904 176.621 165.816 177.245 165.816C178.157 165.816 178.957 166.024 179.645 166.44C180.349 166.856 180.893 167.456 181.277 168.24C181.677 169.008 181.877 169.936 181.877 171.024C181.877 172.272 181.877 173.528 181.877 174.792C181.877 176.056 181.877 177.312 181.877 178.56C181.237 178.56 180.581 178.56 179.909 178.56C179.237 178.56 178.573 178.56 177.917 178.56C177.917 177.408 177.917 176.24 177.917 175.056C177.917 173.872 177.917 172.704 177.917 171.552C177.917 170.912 177.765 170.4 177.461 170.016C177.173 169.616 176.709 169.416 176.069 169.416C175.429 169.416 174.933 169.6 174.581 169.968C174.229 170.336 174.053 170.864 174.053 171.552C174.053 172.704 174.053 173.872 174.053 175.056C174.053 176.24 174.053 177.408 174.053 178.56C173.413 178.56 172.757 178.56 172.085 178.56C171.413 178.56 170.749 178.56 170.093 178.56ZM192.6 178.56C192.6 178.432 192.6 178.312 192.6 178.2C192.6 178.072 192.6 177.952 192.6 177.84C192.2 178.176 191.744 178.432 191.232 178.608C190.736 178.8 190.2 178.896 189.624 178.896C188.808 178.896 188.04 178.744 187.32 178.44C186.6 178.12 185.96 177.672 185.4 177.096C184.856 176.504 184.424 175.808 184.104 175.008C183.8 174.208 183.648 173.32 183.648 172.344C183.648 171.352 183.8 170.456 184.104 169.656C184.424 168.856 184.856 168.176 185.4 167.616C185.96 167.04 186.6 166.6 187.32 166.296C188.04 165.976 188.8 165.816 189.6 165.816C190.176 165.816 190.72 165.912 191.232 166.104C191.744 166.28 192.2 166.528 192.6 166.848C192.6 166.72 192.6 166.6 192.6 166.488C192.6 166.376 192.6 166.264 192.6 166.152C193.256 166.152 193.92 166.152 194.592 166.152C195.264 166.152 195.92 166.152 196.56 166.152C196.56 168.2 196.56 170.272 196.56 172.368C196.56 174.448 196.56 176.512 196.56 178.56C195.92 178.56 195.264 178.56 194.592 178.56C193.92 178.56 193.256 178.56 192.6 178.56ZM190.152 175.392C190.92 175.392 191.536 175.112 192 174.552C192.464 173.992 192.696 173.256 192.696 172.344C192.696 171.432 192.464 170.704 192 170.16C191.536 169.6 190.92 169.32 190.152 169.32C189.368 169.32 188.744 169.592 188.28 170.136C187.832 170.68 187.608 171.416 187.608 172.344C187.608 173.272 187.832 174.016 188.28 174.576C188.744 175.12 189.368 175.392 190.152 175.392ZM199.323 178.56C199.323 175.664 199.323 172.744 199.323 169.8C199.323 166.856 199.323 163.936 199.323 161.04C199.979 161.04 200.643 161.04 201.315 161.04C201.987 161.04 202.643 161.04 203.283 161.04C203.283 163.936 203.283 166.856 203.283 169.8C203.283 172.744 203.283 175.664 203.283 178.56C202.643 178.56 201.987 178.56 201.315 178.56C200.643 178.56 199.979 178.56 199.323 178.56ZM211.206 178.56C211.206 175.664 211.206 172.744 211.206 169.8C211.206 166.856 211.206 163.936 211.206 161.04C211.862 161.04 212.526 161.04 213.198 161.04C213.87 161.04 214.526 161.04 215.166 161.04C215.166 161.984 215.166 162.944 215.166 163.92C215.166 164.88 215.166 165.832 215.166 166.776C215.598 166.472 216.078 166.24 216.606 166.08C217.15 165.904 217.734 165.816 218.358 165.816C219.27 165.816 220.07 166.024 220.758 166.44C221.462 166.856 222.006 167.456 222.39 168.24C222.79 169.008 222.99 169.936 222.99 171.024C222.99 172.272 222.99 173.528 222.99 174.792C222.99 176.056 222.99 177.312 222.99 178.56C222.35 178.56 221.694 178.56 221.022 178.56C220.35 178.56 219.686 178.56 219.03 178.56C219.03 177.408 219.03 176.24 219.03 175.056C219.03 173.872 219.03 172.704 219.03 171.552C219.03 170.912 218.878 170.4 218.574 170.016C218.286 169.616 217.822 169.416 217.182 169.416C216.542 169.416 216.046 169.6 215.694 169.968C215.342 170.336 215.166 170.864 215.166 171.552C215.166 172.704 215.166 173.872 215.166 175.056C215.166 176.24 215.166 177.408 215.166 178.56C214.526 178.56 213.87 178.56 213.198 178.56C212.526 178.56 211.862 178.56 211.206 178.56ZM236.133 177.984C235.029 178.448 233.933 178.736 232.845 178.848C231.757 178.96 230.725 178.896 229.749 178.656C228.789 178.432 227.933 178.04 227.181 177.48C226.429 176.92 225.837 176.208 225.405 175.344C224.989 174.48 224.781 173.48 224.781 172.344C224.781 171.4 224.933 170.536 225.237 169.752C225.557 168.952 226.005 168.256 226.581 167.664C227.157 167.056 227.837 166.592 228.621 166.272C229.405 165.936 230.261 165.768 231.189 165.768C232.021 165.768 232.773 165.904 233.445 166.176C234.117 166.448 234.701 166.832 235.197 167.328C235.693 167.808 236.093 168.384 236.397 169.056C236.701 169.728 236.893 170.464 236.973 171.264C237.053 172.064 237.005 172.912 236.829 173.808C235.517 173.808 234.197 173.808 232.869 173.808C231.541 173.808 230.221 173.808 228.909 173.808C229.213 174.416 229.717 174.848 230.421 175.104C231.141 175.36 231.989 175.44 232.965 175.344C233.957 175.248 235.013 174.992 236.133 174.576C236.133 175.136 236.133 175.704 236.133 176.28C236.133 176.856 236.133 177.424 236.133 177.984ZM231.093 169.32C230.629 169.32 230.197 169.448 229.797 169.704C229.413 169.96 229.117 170.352 228.909 170.88C229.629 170.88 230.349 170.88 231.069 170.88C231.805 170.88 232.533 170.88 233.253 170.88C233.061 170.336 232.773 169.944 232.389 169.704C232.021 169.448 231.589 169.32 231.093 169.32ZM247.35 178.56C247.35 178.432 247.35 178.312 247.35 178.2C247.35 178.072 247.35 177.952 247.35 177.84C246.95 178.176 246.494 178.432 245.982 178.608C245.486 178.8 244.95 178.896 244.374 178.896C243.558 178.896 242.79 178.744 242.07 178.44C241.35 178.12 240.71 177.672 240.15 177.096C239.606 176.504 239.174 175.808 238.854 175.008C238.55 174.208 238.398 173.32 238.398 172.344C238.398 171.352 238.55 170.456 238.854 169.656C239.174 168.856 239.606 168.176 240.15 167.616C240.71 167.04 241.35 166.6 242.07 166.296C242.79 165.976 243.55 165.816 244.35 165.816C244.926 165.816 245.47 165.912 245.982 166.104C246.494 166.28 246.95 166.528 247.35 166.848C247.35 166.72 247.35 166.6 247.35 166.488C247.35 166.376 247.35 166.264 247.35 166.152C248.006 166.152 248.67 166.152 249.342 166.152C250.014 166.152 250.67 166.152 251.31 166.152C251.31 168.2 251.31 170.272 251.31 172.368C251.31 174.448 251.31 176.512 251.31 178.56C250.67 178.56 250.014 178.56 249.342 178.56C248.67 178.56 248.006 178.56 247.35 178.56ZM244.902 175.392C245.67 175.392 246.286 175.112 246.75 174.552C247.214 173.992 247.446 173.256 247.446 172.344C247.446 171.432 247.214 170.704 246.75 170.16C246.286 169.6 245.67 169.32 244.902 169.32C244.118 169.32 243.494 169.592 243.03 170.136C242.582 170.68 242.358 171.416 242.358 172.344C242.358 173.272 242.582 174.016 243.03 174.576C243.494 175.12 244.118 175.392 244.902 175.392ZM253.953 178.56C253.953 176.512 253.953 174.448 253.953 172.368C253.953 170.272 253.953 168.2 253.953 166.152C254.609 166.152 255.273 166.152 255.945 166.152C256.617 166.152 257.273 166.152 257.913 166.152C257.913 166.264 257.913 166.376 257.913 166.488C257.913 166.6 257.913 166.712 257.913 166.824C258.409 166.472 258.969 166.208 259.593 166.032C260.217 165.856 260.897 165.808 261.633 165.888C261.633 166.528 261.633 167.176 261.633 167.832C261.633 168.488 261.633 169.136 261.633 169.776C260.369 169.6 259.433 169.712 258.825 170.112C258.217 170.496 257.913 171.128 257.913 172.008C257.913 173.08 257.913 174.168 257.913 175.272C257.913 176.376 257.913 177.472 257.913 178.56C257.273 178.56 256.617 178.56 255.945 178.56C255.273 178.56 254.609 178.56 253.953 178.56ZM264.718 178.56C264.718 177.088 264.718 175.608 264.718 174.12C264.718 172.632 264.718 171.16 264.718 169.704C264.398 169.704 264.07 169.704 263.734 169.704C263.414 169.704 263.094 169.704 262.774 169.704C262.774 169.112 262.774 168.52 262.774 167.928C262.774 167.336 262.774 166.744 262.774 166.152C263.094 166.152 263.414 166.152 263.734 166.152C264.07 166.152 264.398 166.152 264.718 166.152C264.718 165.592 264.718 165.04 264.718 164.496C264.718 163.936 264.718 163.384 264.718 162.84C265.374 162.84 266.038 162.84 266.71 162.84C267.382 162.84 268.038 162.84 268.678 162.84C268.678 163.384 268.678 163.936 268.678 164.496C268.678 165.04 268.678 165.592 268.678 166.152C269.046 166.152 269.422 166.152 269.806 166.152C270.19 166.152 270.566 166.152 270.934 166.152C270.934 166.744 270.934 167.336 270.934 167.928C270.934 168.52 270.934 169.112 270.934 169.704C270.566 169.704 270.19 169.704 269.806 169.704C269.422 169.704 269.046 169.704 268.678 169.704C268.678 171.16 268.678 172.632 268.678 174.12C268.678 175.608 268.678 177.088 268.678 178.56C268.038 178.56 267.382 178.56 266.71 178.56C266.038 178.56 265.374 178.56 264.718 178.56ZM281.963 178.56C281.323 178.56 280.667 178.56 279.995 178.56C279.323 178.56 278.659 178.56 278.003 178.56C278.003 175.664 278.003 172.744 278.003 169.8C278.003 166.856 278.003 163.936 278.003 161.04C278.659 161.04 279.323 161.04 279.995 161.04C280.667 161.04 281.323 161.04 281.963 161.04C281.963 162 281.963 162.968 281.963 163.944C281.963 164.92 281.963 165.888 281.963 166.848C282.363 166.528 282.819 166.28 283.331 166.104C283.843 165.912 284.387 165.816 284.963 165.816C285.763 165.816 286.523 165.976 287.243 166.296C287.963 166.6 288.595 167.04 289.139 167.616C289.699 168.192 290.131 168.88 290.435 169.68C290.755 170.48 290.915 171.368 290.915 172.344C290.915 173.304 290.755 174.184 290.435 174.984C290.131 175.784 289.699 176.48 289.139 177.072C288.595 177.648 287.963 178.096 287.243 178.416C286.523 178.736 285.755 178.896 284.939 178.896C284.363 178.896 283.819 178.8 283.307 178.608C282.811 178.432 282.363 178.176 281.963 177.84C281.963 177.952 281.963 178.072 281.963 178.2C281.963 178.312 281.963 178.432 281.963 178.56ZM284.411 175.392C285.195 175.392 285.811 175.12 286.259 174.576C286.723 174.016 286.955 173.272 286.955 172.344C286.955 171.416 286.723 170.68 286.259 170.136C285.811 169.592 285.195 169.32 284.411 169.32C283.643 169.32 283.027 169.6 282.562 170.16C282.099 170.704 281.867 171.432 281.867 172.344C281.867 173.256 282.099 173.992 282.562 174.552C283.027 175.112 283.643 175.392 284.411 175.392ZM293.003 178.56C293.003 175.664 293.003 172.744 293.003 169.8C293.003 166.856 293.003 163.936 293.003 161.04C293.659 161.04 294.323 161.04 294.995 161.04C295.667 161.04 296.323 161.04 296.963 161.04C296.963 163.936 296.963 166.856 296.963 169.8C296.963 172.744 296.963 175.664 296.963 178.56C296.323 178.56 295.667 178.56 294.995 178.56C294.323 178.56 293.659 178.56 293.003 178.56ZM305.606 178.944C304.678 178.944 303.814 178.784 303.014 178.464C302.214 178.128 301.518 177.664 300.926 177.072C300.334 176.464 299.87 175.76 299.534 174.96C299.214 174.16 299.054 173.288 299.054 172.344C299.054 171.4 299.214 170.528 299.534 169.728C299.87 168.928 300.334 168.232 300.926 167.64C301.518 167.048 302.214 166.592 303.014 166.272C303.814 165.936 304.678 165.768 305.606 165.768C306.55 165.768 307.414 165.936 308.198 166.272C308.998 166.592 309.694 167.048 310.286 167.64C310.878 168.232 311.334 168.928 311.654 169.728C311.99 170.528 312.158 171.4 312.158 172.344C312.158 173.288 311.99 174.16 311.654 174.96C311.334 175.76 310.878 176.464 310.286 177.072C309.694 177.664 308.998 178.128 308.198 178.464C307.414 178.784 306.55 178.944 305.606 178.944ZM305.606 175.368C306.39 175.368 307.014 175.088 307.478 174.528C307.958 173.952 308.198 173.224 308.198 172.344C308.198 171.448 307.958 170.728 307.478 170.184C307.014 169.624 306.39 169.344 305.606 169.344C304.822 169.344 304.19 169.624 303.71 170.184C303.246 170.728 303.014 171.448 303.014 172.344C303.014 173.224 303.246 173.952 303.71 174.528C304.19 175.088 304.822 175.368 305.606 175.368ZM319.997 178.944C319.069 178.944 318.205 178.784 317.405 178.464C316.605 178.128 315.909 177.664 315.317 177.072C314.725 176.464 314.261 175.76 313.925 174.96C313.605 174.16 313.445 173.288 313.445 172.344C313.445 171.4 313.605 170.528 313.925 169.728C314.261 168.928 314.725 168.232 315.317 167.64C315.909 167.048 316.605 166.592 317.405 166.272C318.205 165.936 319.069 165.768 319.997 165.768C320.941 165.768 321.805 165.936 322.589 166.272C323.389 166.592 324.085 167.048 324.677 167.64C325.269 168.232 325.725 168.928 326.045 169.728C326.381 170.528 326.549 171.4 326.549 172.344C326.549 173.288 326.381 174.16 326.045 174.96C325.725 175.76 325.269 176.464 324.677 177.072C324.085 177.664 323.389 178.128 322.589 178.464C321.805 178.784 320.941 178.944 319.997 178.944ZM319.997 175.368C320.781 175.368 321.405 175.088 321.869 174.528C322.349 173.952 322.589 173.224 322.589 172.344C322.589 171.448 322.349 170.728 321.869 170.184C321.405 169.624 320.781 169.344 319.997 169.344C319.213 169.344 318.581 169.624 318.101 170.184C317.637 170.728 317.405 171.448 317.405 172.344C317.405 173.224 317.637 173.952 318.101 174.528C318.581 175.088 319.213 175.368 319.997 175.368ZM328.508 178.56C328.508 176.512 328.508 174.448 328.508 172.368C328.508 170.272 328.508 168.2 328.508 166.152C329.164 166.152 329.828 166.152 330.5 166.152C331.172 166.152 331.828 166.152 332.468 166.152C332.468 166.264 332.468 166.368 332.468 166.464C332.468 166.56 332.468 166.664 332.468 166.776C332.884 166.472 333.348 166.24 333.86 166.08C334.372 165.904 334.9 165.816 335.444 165.816C336.036 165.816 336.58 165.92 337.076 166.128C337.572 166.32 337.996 166.608 338.348 166.992C338.86 166.624 339.436 166.336 340.076 166.128C340.732 165.92 341.404 165.816 342.092 165.816C343.068 165.816 343.908 166.016 344.612 166.416C345.332 166.816 345.884 167.384 346.268 168.12C346.668 168.856 346.868 169.744 346.868 170.784C346.868 172.064 346.868 173.36 346.868 174.672C346.868 175.984 346.868 177.28 346.868 178.56C346.228 178.56 345.572 178.56 344.9 178.56C344.228 178.56 343.564 178.56 342.908 178.56C342.908 177.36 342.908 176.144 342.908 174.912C342.908 173.68 342.908 172.464 342.908 171.264C342.908 170.72 342.78 170.28 342.524 169.944C342.284 169.592 341.892 169.416 341.348 169.416C340.82 169.416 340.404 169.584 340.1 169.92C339.812 170.24 339.668 170.688 339.668 171.264C339.668 172.464 339.668 173.68 339.668 174.912C339.668 176.144 339.668 177.36 339.668 178.56C339.028 178.56 338.372 178.56 337.7 178.56C337.028 178.56 336.364 178.56 335.708 178.56C335.708 177.36 335.708 176.144 335.708 174.912C335.708 173.68 335.708 172.464 335.708 171.264C335.708 170.72 335.58 170.28 335.324 169.944C335.084 169.592 334.692 169.416 334.148 169.416C333.62 169.416 333.204 169.584 332.9 169.92C332.612 170.24 332.468 170.688 332.468 171.264C332.468 172.464 332.468 173.68 332.468 174.912C332.468 176.144 332.468 177.36 332.468 178.56C331.828 178.56 331.172 178.56 330.5 178.56C329.828 178.56 329.164 178.56 328.508 178.56ZM358.8 174.72C358.8 175.712 358.52 176.528 357.96 177.168C357.416 177.792 356.68 178.248 355.752 178.536C354.824 178.824 353.784 178.944 352.632 178.896C351.496 178.864 350.336 178.68 349.152 178.344C349.152 177.736 349.152 177.112 349.152 176.472C349.152 175.832 349.152 175.208 349.152 174.6C349.824 174.904 350.496 175.144 351.168 175.32C351.84 175.48 352.448 175.576 352.992 175.608C353.536 175.64 353.976 175.6 354.312 175.488C354.648 175.36 354.816 175.152 354.816 174.864C354.816 174.64 354.672 174.464 354.384 174.336C354.112 174.208 353.752 174.096 353.304 174C352.856 173.888 352.376 173.76 351.864 173.616C351.368 173.456 350.896 173.24 350.448 172.968C350 172.68 349.632 172.304 349.344 171.84C349.072 171.36 348.936 170.744 348.936 169.992C348.936 169.096 349.192 168.336 349.704 167.712C350.232 167.072 350.936 166.592 351.816 166.272C352.696 165.936 353.68 165.768 354.768 165.768C355.856 165.768 356.968 165.952 358.104 166.32C358.104 166.928 358.104 167.552 358.104 168.192C358.104 168.832 358.104 169.456 358.104 170.064C357.208 169.632 356.368 169.344 355.584 169.2C354.8 169.056 354.168 169.04 353.688 169.152C353.208 169.248 352.968 169.464 352.968 169.8C352.968 170.024 353.104 170.2 353.376 170.328C353.664 170.44 354.024 170.544 354.456 170.64C354.904 170.736 355.376 170.864 355.872 171.024C356.384 171.184 356.856 171.408 357.288 171.696C357.736 171.968 358.096 172.352 358.368 172.848C358.656 173.328 358.8 173.952 358.8 174.72Z" fill="#6697DC"/>
</svg>
