<svg width="399" height="205" viewBox="0 0 399 205" fill="none" xmlns="http://www.w3.org/2000/svg">
<rect width="381.266" height="193.205" rx="39.1559" transform="matrix(-1 0 0 1 381.266 11.6704)" fill="white"/>
<rect width="59.1352" height="97.2509" transform="matrix(-1 0 0 1 381.266 107.625)" fill="white"/>
<rect width="59.1352" height="97.2509" transform="matrix(-1 0 0 1 59.1353 11.6704)" fill="white"/>
<path d="M0.000244141 76.3506H381.267V37.3761C381.267 16.7339 364.533 7.62939e-05 343.89 7.62939e-05H0.000244141V76.3506Z" fill="#6697DC"/>
<path opacity="0.8" d="M27.0636 55.5405C27.0636 50.1645 27.0636 44.7245 27.0636 39.2205C27.0636 33.7165 27.0636 28.2765 27.0636 22.9005C29.0476 22.9005 31.0476 22.9005 33.0636 22.9005C35.0796 22.9005 37.0796 22.9005 39.0636 22.9005C39.9916 26.1645 40.9036 29.4765 41.7996 32.8365C42.7276 36.1645 43.6396 39.4605 44.5356 42.7245C45.4316 39.4605 46.3276 36.1645 47.2236 32.8365C48.1516 29.4765 49.0636 26.1645 49.9596 22.9005C51.9436 22.9005 53.9276 22.9005 55.9116 22.9005C57.8956 22.9005 59.8636 22.9005 61.8156 22.9005C61.8476 28.2765 61.8796 33.7165 61.9116 39.2205C61.9436 44.7245 61.9756 50.1645 62.0076 55.5405C60.6636 55.5405 59.3036 55.5405 57.9276 55.5405C56.5836 55.5405 55.2396 55.5405 53.8956 55.5405C53.8956 51.8925 53.8956 48.2125 53.8956 44.5005C53.8956 40.7565 53.8956 37.0605 53.8956 33.4125C52.9356 37.0605 51.9596 40.7565 50.9676 44.5005C49.9756 48.2125 48.9996 51.8925 48.0396 55.5405C46.8556 55.5405 45.6396 55.5405 44.3916 55.5405C43.1756 55.5405 41.9596 55.5405 40.7436 55.5405C39.7836 51.9565 38.8236 48.3405 37.8636 44.6925C36.9036 41.0125 35.9436 37.3805 34.9836 33.7965C34.9836 37.3805 34.9836 41.0125 34.9836 44.6925C34.9836 48.3405 34.9836 51.9565 34.9836 55.5405C33.7036 55.5405 32.3916 55.5405 31.0476 55.5405C29.7036 55.5405 28.3756 55.5405 27.0636 55.5405ZM90.9707 30.7245C90.9707 34.8205 90.9707 38.9645 90.9707 43.1565C90.9707 47.3165 90.9707 51.4445 90.9707 55.5405C89.6907 55.5405 88.3787 55.5405 87.0347 55.5405C85.6907 55.5405 84.3627 55.5405 83.0507 55.5405C83.0507 55.3165 83.0507 55.1085 83.0507 54.9165C83.0507 54.7245 83.0507 54.5165 83.0507 54.2925C82.1867 54.9005 81.2107 55.3645 80.1227 55.6845C79.0667 56.0365 77.9147 56.2125 76.6667 56.2125C74.8427 56.2125 73.2267 55.7965 71.8187 54.9645C70.4427 54.1325 69.3547 52.9325 68.5547 51.3645C67.7867 49.7965 67.4027 47.9405 67.4027 45.7965C67.4027 43.3005 67.4027 40.7885 67.4027 38.2605C67.4027 35.7325 67.4027 33.2205 67.4027 30.7245C68.7147 30.7245 70.0427 30.7245 71.3867 30.7245C72.7307 30.7245 74.0427 30.7245 75.3227 30.7245C75.3227 33.0285 75.3227 35.3645 75.3227 37.7325C75.3227 40.1005 75.3227 42.4365 75.3227 44.7405C75.3227 46.0205 75.6107 47.0605 76.1867 47.8605C76.7947 48.6285 77.7387 49.0125 79.0187 49.0125C80.2987 49.0125 81.2907 48.6445 81.9947 47.9085C82.6987 47.1725 83.0507 46.1165 83.0507 44.7405C83.0507 42.4365 83.0507 40.1005 83.0507 37.7325C83.0507 35.3645 83.0507 33.0285 83.0507 30.7245C84.3627 30.7245 85.6907 30.7245 87.0347 30.7245C88.3787 30.7245 89.6907 30.7245 90.9707 30.7245ZM115.2 47.8605C115.2 49.8445 114.64 51.4765 113.52 52.7565C112.432 54.0045 110.96 54.9165 109.104 55.4925C107.248 56.0685 105.168 56.3085 102.864 56.2125C100.592 56.1485 98.2719 55.7805 95.9039 55.1085C95.9039 53.8925 95.9039 52.6445 95.9039 51.3645C95.9039 50.0845 95.9039 48.8365 95.9039 47.6205C97.2479 48.2285 98.5919 48.7085 99.9359 49.0605C101.28 49.3805 102.496 49.5725 103.584 49.6365C104.672 49.7005 105.552 49.6205 106.224 49.3965C106.896 49.1405 107.232 48.7245 107.232 48.1485C107.232 47.7005 106.944 47.3485 106.368 47.0925C105.824 46.8365 105.104 46.6125 104.208 46.4205C103.312 46.1965 102.352 45.9405 101.328 45.6525C100.336 45.3325 99.3919 44.9005 98.4959 44.3565C97.5999 43.7805 96.8639 43.0285 96.2879 42.1005C95.7439 41.1405 95.4719 39.9085 95.4719 38.4045C95.4719 36.6125 95.9839 35.0925 97.0079 33.8445C98.0639 32.5645 99.4719 31.6045 101.232 30.9645C102.992 30.2925 104.96 29.9565 107.136 29.9565C109.312 29.9565 111.536 30.3245 113.808 31.0605C113.808 32.2765 113.808 33.5245 113.808 34.8045C113.808 36.0845 113.808 37.3325 113.808 38.5485C112.016 37.6845 110.336 37.1085 108.768 36.8205C107.2 36.5325 105.936 36.5005 104.976 36.7245C104.016 36.9165 103.536 37.3485 103.536 38.0205C103.536 38.4685 103.808 38.8205 104.352 39.0765C104.928 39.3005 105.648 39.5085 106.512 39.7005C107.408 39.8925 108.352 40.1485 109.344 40.4685C110.368 40.7885 111.312 41.2365 112.176 41.8125C113.072 42.3565 113.792 43.1245 114.336 44.1165C114.912 45.0765 115.2 46.3245 115.2 47.8605ZM123.245 27.8925C122.317 27.8925 121.469 27.6685 120.701 27.2205C119.965 26.7725 119.373 26.1805 118.925 25.4445C118.477 24.7085 118.253 23.8925 118.253 22.9965C118.253 22.1005 118.477 21.3005 118.925 20.5965C119.373 19.8605 119.965 19.2685 120.701 18.8205C121.469 18.3725 122.317 18.1485 123.245 18.1485C124.141 18.1485 124.957 18.3725 125.693 18.8205C126.461 19.2685 127.069 19.8605 127.517 20.5965C127.965 21.3005 128.189 22.1005 128.189 22.9965C128.189 23.8925 127.965 24.7085 127.517 25.4445C127.069 26.1805 126.461 26.7725 125.693 27.2205C124.957 27.6685 124.141 27.8925 123.245 27.8925ZM119.261 55.5405C119.261 51.4445 119.261 47.3165 119.261 43.1565C119.261 38.9645 119.261 34.8205 119.261 30.7245C120.573 30.7245 121.901 30.7245 123.245 30.7245C124.589 30.7245 125.901 30.7245 127.181 30.7245C127.181 34.8205 127.181 38.9645 127.181 43.1565C127.181 47.3165 127.181 51.4445 127.181 55.5405C125.901 55.5405 124.589 55.5405 123.245 55.5405C121.901 55.5405 120.573 55.5405 119.261 55.5405ZM131.365 43.1085C131.365 40.6765 131.861 38.5485 132.853 36.7245C133.845 34.8685 135.221 33.3805 136.981 32.2605C138.741 31.1405 140.789 30.4685 143.125 30.2445C145.461 29.9885 147.957 30.2605 150.613 31.0605C150.613 32.2765 150.613 33.5085 150.613 34.7565C150.613 36.0045 150.613 37.2365 150.613 38.4525C148.757 37.5565 146.981 37.1405 145.285 37.2045C143.589 37.2685 142.197 37.7965 141.109 38.7885C140.021 39.7485 139.477 41.1885 139.477 43.1085C139.477 45.0285 140.021 46.4845 141.109 47.4765C142.197 48.4365 143.589 48.9485 145.285 49.0125C146.981 49.0445 148.757 48.6285 150.613 47.7645C150.613 48.9805 150.613 50.2125 150.613 51.4605C150.613 52.7085 150.613 53.9405 150.613 55.1565C147.957 55.9565 145.461 56.2285 143.125 55.9725C140.789 55.7485 138.741 55.0765 136.981 53.9565C135.221 52.8365 133.845 51.3645 132.853 49.5405C131.861 47.6845 131.365 45.5405 131.365 43.1085ZM192.447 53.8125C189.119 55.1565 186.015 55.9245 183.135 56.1165C180.287 56.3405 177.711 56.0845 175.407 55.3485C173.103 54.5805 171.135 53.4285 169.503 51.8925C167.871 50.3565 166.623 48.5325 165.759 46.4205C164.895 44.3085 164.463 42.0045 164.463 39.5085C164.463 37.0445 164.863 34.7725 165.663 32.6925C166.463 30.5805 167.631 28.7565 169.167 27.2205C170.735 25.6845 172.623 24.4845 174.831 23.6205C177.039 22.7565 179.551 22.3405 182.367 22.3725C185.183 22.3725 188.271 22.8845 191.631 23.9085C191.631 25.2525 191.631 26.6125 191.631 27.9885C191.631 29.3325 191.631 30.6765 191.631 32.0205C188.975 30.9645 186.511 30.3565 184.239 30.1965C181.999 30.0365 180.031 30.2765 178.335 30.9165C176.671 31.5565 175.359 32.5805 174.399 33.9885C173.471 35.3645 173.007 37.0925 173.007 39.1725C173.007 40.9965 173.343 42.6125 174.015 44.0205C174.719 45.4285 175.695 46.5325 176.943 47.3325C178.191 48.1325 179.615 48.5325 181.215 48.5325C181.759 48.5325 182.303 48.5165 182.847 48.4845C183.391 48.4205 183.919 48.3245 184.431 48.1965C184.431 47.3645 184.431 46.5165 184.431 45.6525C184.431 44.7885 184.431 43.9405 184.431 43.1085C183.535 43.1085 182.639 43.1085 181.743 43.1085C180.847 43.1085 179.951 43.1085 179.055 43.1085C179.055 41.9245 179.055 40.7405 179.055 39.5565C179.055 38.3405 179.055 37.1405 179.055 35.9565C181.263 35.9565 183.487 35.9565 185.727 35.9565C187.999 35.9565 190.239 35.9565 192.447 35.9565C192.447 38.9005 192.447 41.8765 192.447 44.8845C192.447 47.8925 192.447 50.8685 192.447 53.8125ZM219.412 54.3885C217.204 55.3165 215.012 55.8925 212.836 56.1165C210.66 56.3405 208.596 56.2125 206.644 55.7325C204.724 55.2845 203.012 54.5005 201.508 53.3805C200.004 52.2605 198.82 50.8365 197.956 49.1085C197.124 47.3805 196.708 45.3805 196.708 43.1085C196.708 41.2205 197.012 39.4925 197.62 37.9245C198.26 36.3245 199.156 34.9325 200.308 33.7485C201.46 32.5325 202.82 31.6045 204.388 30.9645C205.956 30.2925 207.668 29.9565 209.524 29.9565C211.188 29.9565 212.692 30.2285 214.036 30.7725C215.38 31.3165 216.548 32.0845 217.54 33.0765C218.532 34.0365 219.332 35.1885 219.94 36.5325C220.548 37.8765 220.932 39.3485 221.092 40.9485C221.252 42.5485 221.156 44.2445 220.804 46.0365C218.18 46.0365 215.54 46.0365 212.884 46.0365C210.228 46.0365 207.588 46.0365 204.964 46.0365C205.572 47.2525 206.58 48.1165 207.988 48.6285C209.428 49.1405 211.124 49.3005 213.076 49.1085C215.06 48.9165 217.172 48.4045 219.412 47.5725C219.412 48.6925 219.412 49.8285 219.412 50.9805C219.412 52.1325 219.412 53.2685 219.412 54.3885ZM209.332 37.0605C208.404 37.0605 207.54 37.3165 206.74 37.8285C205.972 38.3405 205.38 39.1245 204.964 40.1805C206.404 40.1805 207.844 40.1805 209.284 40.1805C210.756 40.1805 212.212 40.1805 213.652 40.1805C213.268 39.0925 212.692 38.3085 211.924 37.8285C211.188 37.3165 210.324 37.0605 209.332 37.0605ZM225.287 55.5405C225.287 51.4445 225.287 47.3165 225.287 43.1565C225.287 38.9645 225.287 34.8205 225.287 30.7245C226.599 30.7245 227.927 30.7245 229.271 30.7245C230.615 30.7245 231.927 30.7245 233.207 30.7245C233.207 30.9485 233.207 31.1565 233.207 31.3485C233.207 31.5405 233.207 31.7485 233.207 31.9725C234.071 31.3645 235.031 30.9005 236.087 30.5805C237.175 30.2285 238.343 30.0525 239.591 30.0525C241.415 30.0525 243.015 30.4685 244.391 31.3005C245.799 32.1325 246.887 33.3325 247.655 34.9005C248.455 36.4365 248.855 38.2925 248.855 40.4685C248.855 42.9645 248.855 45.4765 248.855 48.0045C248.855 50.5325 248.855 53.0445 248.855 55.5405C247.575 55.5405 246.263 55.5405 244.919 55.5405C243.575 55.5405 242.247 55.5405 240.935 55.5405C240.935 53.2365 240.935 50.9005 240.935 48.5325C240.935 46.1645 240.935 43.8285 240.935 41.5245C240.935 40.2445 240.631 39.2205 240.023 38.4525C239.447 37.6525 238.519 37.2525 237.239 37.2525C235.959 37.2525 234.967 37.6205 234.263 38.3565C233.559 39.0925 233.207 40.1485 233.207 41.5245C233.207 43.8285 233.207 46.1645 233.207 48.5325C233.207 50.9005 233.207 53.2365 233.207 55.5405C231.927 55.5405 230.615 55.5405 229.271 55.5405C227.927 55.5405 226.599 55.5405 225.287 55.5405ZM253.74 55.5405C253.74 51.4445 253.74 47.3165 253.74 43.1565C253.74 38.9645 253.74 34.8205 253.74 30.7245C255.052 30.7245 256.38 30.7245 257.724 30.7245C259.068 30.7245 260.38 30.7245 261.66 30.7245C261.66 30.9485 261.66 31.1725 261.66 31.3965C261.66 31.6205 261.66 31.8445 261.66 32.0685C262.652 31.3645 263.772 30.8365 265.02 30.4845C266.268 30.1325 267.628 30.0365 269.1 30.1965C269.1 31.4765 269.1 32.7725 269.1 34.0845C269.1 35.3965 269.1 36.6925 269.1 37.9725C266.572 37.6205 264.7 37.8445 263.484 38.6445C262.268 39.4125 261.66 40.6765 261.66 42.4365C261.66 44.5805 261.66 46.7565 261.66 48.9645C261.66 51.1725 261.66 53.3645 261.66 55.5405C260.38 55.5405 259.068 55.5405 257.724 55.5405C256.38 55.5405 255.052 55.5405 253.74 55.5405ZM293.803 54.3885C291.595 55.3165 289.403 55.8925 287.227 56.1165C285.051 56.3405 282.987 56.2125 281.035 55.7325C279.115 55.2845 277.403 54.5005 275.899 53.3805C274.395 52.2605 273.211 50.8365 272.347 49.1085C271.515 47.3805 271.099 45.3805 271.099 43.1085C271.099 41.2205 271.403 39.4925 272.011 37.9245C272.651 36.3245 273.547 34.9325 274.699 33.7485C275.851 32.5325 277.211 31.6045 278.779 30.9645C280.347 30.2925 282.059 29.9565 283.915 29.9565C285.579 29.9565 287.083 30.2285 288.427 30.7725C289.771 31.3165 290.939 32.0845 291.931 33.0765C292.923 34.0365 293.723 35.1885 294.331 36.5325C294.939 37.8765 295.323 39.3485 295.483 40.9485C295.643 42.5485 295.547 44.2445 295.195 46.0365C292.571 46.0365 289.931 46.0365 287.275 46.0365C284.619 46.0365 281.979 46.0365 279.355 46.0365C279.963 47.2525 280.971 48.1165 282.379 48.6285C283.819 49.1405 285.515 49.3005 287.467 49.1085C289.451 48.9165 291.563 48.4045 293.803 47.5725C293.803 48.6925 293.803 49.8285 293.803 50.9805C293.803 52.1325 293.803 53.2685 293.803 54.3885ZM283.723 37.0605C282.795 37.0605 281.931 37.3165 281.131 37.8285C280.363 38.3405 279.771 39.1245 279.355 40.1805C280.795 40.1805 282.235 40.1805 283.675 40.1805C285.147 40.1805 286.603 40.1805 288.043 40.1805C287.659 39.0925 287.083 38.3085 286.315 37.8285C285.579 37.3165 284.715 37.0605 283.723 37.0605ZM318.637 47.8605C318.637 49.8445 318.077 51.4765 316.957 52.7565C315.869 54.0045 314.397 54.9165 312.541 55.4925C310.685 56.0685 308.605 56.3085 306.301 56.2125C304.029 56.1485 301.709 55.7805 299.341 55.1085C299.341 53.8925 299.341 52.6445 299.341 51.3645C299.341 50.0845 299.341 48.8365 299.341 47.6205C300.685 48.2285 302.029 48.7085 303.373 49.0605C304.717 49.3805 305.933 49.5725 307.021 49.6365C308.109 49.7005 308.989 49.6205 309.661 49.3965C310.333 49.1405 310.669 48.7245 310.669 48.1485C310.669 47.7005 310.381 47.3485 309.805 47.0925C309.261 46.8365 308.541 46.6125 307.645 46.4205C306.749 46.1965 305.789 45.9405 304.765 45.6525C303.773 45.3325 302.829 44.9005 301.933 44.3565C301.037 43.7805 300.301 43.0285 299.725 42.1005C299.181 41.1405 298.909 39.9085 298.909 38.4045C298.909 36.6125 299.421 35.0925 300.445 33.8445C301.501 32.5645 302.909 31.6045 304.669 30.9645C306.429 30.2925 308.397 29.9565 310.573 29.9565C312.749 29.9565 314.973 30.3245 317.245 31.0605C317.245 32.2765 317.245 33.5245 317.245 34.8045C317.245 36.0845 317.245 37.3325 317.245 38.5485C315.453 37.6845 313.773 37.1085 312.205 36.8205C310.637 36.5325 309.373 36.5005 308.413 36.7245C307.453 36.9165 306.973 37.3485 306.973 38.0205C306.973 38.4685 307.245 38.8205 307.789 39.0765C308.365 39.3005 309.085 39.5085 309.949 39.7005C310.845 39.8925 311.789 40.1485 312.781 40.4685C313.805 40.7885 314.749 41.2365 315.613 41.8125C316.509 42.3565 317.229 43.1245 317.773 44.1165C318.349 45.0765 318.637 46.3245 318.637 47.8605Z" fill="white"/>
<path d="M157.876 187.456C157.876 184.768 157.876 182.048 157.876 179.296C157.876 176.544 157.876 173.824 157.876 171.136C158.58 171.136 159.284 171.136 159.988 171.136C160.708 171.136 161.412 171.136 162.1 171.136C162.948 172.656 163.804 174.192 164.668 175.744C165.548 177.296 166.412 178.832 167.26 180.352C167.26 178.832 167.26 177.296 167.26 175.744C167.26 174.192 167.26 172.656 167.26 171.136C167.948 171.136 168.636 171.136 169.324 171.136C170.012 171.136 170.7 171.136 171.388 171.136C171.388 173.824 171.388 176.544 171.388 179.296C171.388 182.048 171.388 184.768 171.388 187.456C170.7 187.456 169.996 187.456 169.276 187.456C168.572 187.456 167.868 187.456 167.164 187.456C166.316 185.936 165.452 184.4 164.572 182.848C163.708 181.296 162.852 179.76 162.004 178.24C162.004 179.76 162.004 181.296 162.004 182.848C162.004 184.4 162.004 185.936 162.004 187.456C161.316 187.456 160.628 187.456 159.94 187.456C159.252 187.456 158.564 187.456 157.876 187.456ZM185.869 175.048C185.869 177.096 185.869 179.168 185.869 181.264C185.869 183.344 185.869 185.408 185.869 187.456C185.229 187.456 184.573 187.456 183.901 187.456C183.229 187.456 182.565 187.456 181.909 187.456C181.909 187.344 181.909 187.24 181.909 187.144C181.909 187.048 181.909 186.944 181.909 186.832C181.477 187.136 180.989 187.368 180.445 187.528C179.917 187.704 179.341 187.792 178.717 187.792C177.805 187.792 176.997 187.584 176.293 187.168C175.605 186.752 175.061 186.152 174.661 185.368C174.277 184.584 174.085 183.656 174.085 182.584C174.085 181.336 174.085 180.08 174.085 178.816C174.085 177.552 174.085 176.296 174.085 175.048C174.741 175.048 175.405 175.048 176.077 175.048C176.749 175.048 177.405 175.048 178.045 175.048C178.045 176.2 178.045 177.368 178.045 178.552C178.045 179.736 178.045 180.904 178.045 182.056C178.045 182.696 178.189 183.216 178.477 183.616C178.781 184 179.253 184.192 179.893 184.192C180.533 184.192 181.029 184.008 181.381 183.64C181.733 183.272 181.909 182.744 181.909 182.056C181.909 180.904 181.909 179.736 181.909 178.552C181.909 177.368 181.909 176.2 181.909 175.048C182.565 175.048 183.229 175.048 183.901 175.048C184.573 175.048 185.229 175.048 185.869 175.048ZM188.503 187.456C188.503 185.408 188.503 183.344 188.503 181.264C188.503 179.168 188.503 177.096 188.503 175.048C189.159 175.048 189.823 175.048 190.495 175.048C191.167 175.048 191.823 175.048 192.463 175.048C192.463 175.16 192.463 175.272 192.463 175.384C192.463 175.496 192.463 175.608 192.463 175.72C192.959 175.368 193.519 175.104 194.143 174.928C194.767 174.752 195.447 174.704 196.183 174.784C196.183 175.424 196.183 176.072 196.183 176.728C196.183 177.384 196.183 178.032 196.183 178.672C194.919 178.496 193.983 178.608 193.375 179.008C192.767 179.392 192.463 180.024 192.463 180.904C192.463 181.976 192.463 183.064 192.463 184.168C192.463 185.272 192.463 186.368 192.463 187.456C191.823 187.456 191.167 187.456 190.495 187.456C189.823 187.456 189.159 187.456 188.503 187.456ZM207.452 183.616C207.452 184.608 207.172 185.424 206.612 186.064C206.068 186.688 205.332 187.144 204.404 187.432C203.476 187.72 202.436 187.84 201.284 187.792C200.148 187.76 198.988 187.576 197.804 187.24C197.804 186.632 197.804 186.008 197.804 185.368C197.804 184.728 197.804 184.104 197.804 183.496C198.476 183.8 199.148 184.04 199.82 184.216C200.492 184.376 201.1 184.472 201.644 184.504C202.188 184.536 202.628 184.496 202.964 184.384C203.3 184.256 203.468 184.048 203.468 183.76C203.468 183.536 203.324 183.36 203.036 183.232C202.764 183.104 202.404 182.992 201.956 182.896C201.508 182.784 201.028 182.656 200.516 182.512C200.02 182.352 199.548 182.136 199.1 181.864C198.652 181.576 198.284 181.2 197.996 180.736C197.724 180.256 197.588 179.64 197.588 178.888C197.588 177.992 197.844 177.232 198.356 176.608C198.884 175.968 199.588 175.488 200.468 175.168C201.348 174.832 202.332 174.664 203.42 174.664C204.508 174.664 205.62 174.848 206.756 175.216C206.756 175.824 206.756 176.448 206.756 177.088C206.756 177.728 206.756 178.352 206.756 178.96C205.86 178.528 205.02 178.24 204.236 178.096C203.452 177.952 202.82 177.936 202.34 178.048C201.86 178.144 201.62 178.36 201.62 178.696C201.62 178.92 201.756 179.096 202.028 179.224C202.316 179.336 202.676 179.44 203.108 179.536C203.556 179.632 204.028 179.76 204.524 179.92C205.036 180.08 205.508 180.304 205.94 180.592C206.388 180.864 206.748 181.248 207.02 181.744C207.308 182.224 207.452 182.848 207.452 183.616ZM220.043 186.88C218.939 187.344 217.843 187.632 216.755 187.744C215.667 187.856 214.635 187.792 213.659 187.552C212.699 187.328 211.843 186.936 211.091 186.376C210.339 185.816 209.747 185.104 209.315 184.24C208.899 183.376 208.691 182.376 208.691 181.24C208.691 180.296 208.843 179.432 209.147 178.648C209.467 177.848 209.915 177.152 210.491 176.56C211.067 175.952 211.747 175.488 212.531 175.168C213.315 174.832 214.171 174.664 215.099 174.664C215.931 174.664 216.683 174.8 217.355 175.072C218.027 175.344 218.611 175.728 219.107 176.224C219.603 176.704 220.003 177.28 220.307 177.952C220.611 178.624 220.803 179.36 220.883 180.16C220.963 180.96 220.915 181.808 220.739 182.704C219.427 182.704 218.107 182.704 216.779 182.704C215.451 182.704 214.131 182.704 212.819 182.704C213.123 183.312 213.627 183.744 214.331 184C215.051 184.256 215.899 184.336 216.875 184.24C217.867 184.144 218.923 183.888 220.043 183.472C220.043 184.032 220.043 184.6 220.043 185.176C220.043 185.752 220.043 186.32 220.043 186.88ZM215.003 178.216C214.539 178.216 214.107 178.344 213.707 178.6C213.323 178.856 213.027 179.248 212.819 179.776C213.539 179.776 214.259 179.776 214.979 179.776C215.715 179.776 216.443 179.776 217.163 179.776C216.971 179.232 216.683 178.84 216.299 178.6C215.931 178.344 215.499 178.216 215.003 178.216ZM222.98 187.456C222.98 185.408 222.98 183.344 222.98 181.264C222.98 179.168 222.98 177.096 222.98 175.048C223.636 175.048 224.3 175.048 224.972 175.048C225.644 175.048 226.3 175.048 226.94 175.048C226.94 175.16 226.94 175.272 226.94 175.384C226.94 175.496 226.94 175.608 226.94 175.72C227.436 175.368 227.996 175.104 228.62 174.928C229.244 174.752 229.924 174.704 230.66 174.784C230.66 175.424 230.66 176.072 230.66 176.728C230.66 177.384 230.66 178.032 230.66 178.672C229.396 178.496 228.46 178.608 227.852 179.008C227.244 179.392 226.94 180.024 226.94 180.904C226.94 181.976 226.94 183.064 226.94 184.168C226.94 185.272 226.94 186.368 226.94 187.456C226.3 187.456 225.644 187.456 224.972 187.456C224.3 187.456 223.636 187.456 222.98 187.456ZM233.601 191.296C233.921 190.448 234.249 189.592 234.585 188.728C234.937 187.88 235.273 187.04 235.593 186.208C234.841 184.368 234.073 182.512 233.289 180.64C232.521 178.752 231.761 176.888 231.009 175.048C231.713 175.048 232.417 175.048 233.121 175.048C233.825 175.048 234.521 175.048 235.209 175.048C235.625 176.072 236.041 177.112 236.457 178.168C236.889 179.224 237.313 180.272 237.729 181.312C238.113 180.272 238.505 179.224 238.905 178.168C239.305 177.112 239.697 176.072 240.081 175.048C240.769 175.048 241.457 175.048 242.145 175.048C242.833 175.048 243.521 175.048 244.209 175.048C243.137 177.72 242.057 180.432 240.969 183.184C239.897 185.92 238.825 188.624 237.753 191.296C237.065 191.296 236.369 191.296 235.665 191.296C234.977 191.296 234.289 191.296 233.601 191.296ZM250.689 187.456C250.689 184.768 250.689 182.048 250.689 179.296C250.689 176.544 250.689 173.824 250.689 171.136C251.649 171.136 252.609 171.136 253.569 171.136C254.545 171.136 255.513 171.136 256.473 171.136C257.689 171.136 258.753 171.368 259.665 171.832C260.577 172.28 261.281 172.92 261.777 173.752C262.289 174.568 262.545 175.528 262.545 176.632C262.545 177.576 262.353 178.416 261.969 179.152C261.585 179.888 261.065 180.488 260.409 180.952C261.049 182.024 261.689 183.112 262.329 184.216C262.985 185.304 263.633 186.384 264.273 187.456C263.489 187.456 262.705 187.456 261.921 187.456C261.137 187.456 260.353 187.456 259.569 187.456C259.073 186.56 258.569 185.648 258.057 184.72C257.561 183.792 257.057 182.88 256.545 181.984C256.273 181.984 255.993 181.984 255.705 181.984C255.433 181.984 255.161 181.984 254.889 181.984C254.889 182.88 254.889 183.792 254.889 184.72C254.889 185.648 254.889 186.56 254.889 187.456C254.201 187.456 253.505 187.456 252.801 187.456C252.097 187.456 251.393 187.456 250.689 187.456ZM256.473 174.928C256.217 174.928 255.953 174.928 255.681 174.928C255.425 174.928 255.161 174.928 254.889 174.928C254.889 175.52 254.889 176.112 254.889 176.704C254.889 177.296 254.889 177.888 254.889 178.48C255.193 178.48 255.497 178.48 255.801 178.48C256.105 178.48 256.409 178.48 256.713 178.48C257.193 178.48 257.585 178.312 257.889 177.976C258.193 177.624 258.345 177.2 258.345 176.704C258.345 176.192 258.177 175.768 257.841 175.432C257.521 175.096 257.065 174.928 256.473 174.928ZM265.592 187.456C265.592 184.56 265.592 181.64 265.592 178.696C265.592 175.752 265.592 172.832 265.592 169.936C266.248 169.936 266.912 169.936 267.584 169.936C268.256 169.936 268.912 169.936 269.552 169.936C269.552 170.88 269.552 171.84 269.552 172.816C269.552 173.776 269.552 174.728 269.552 175.672C269.984 175.368 270.464 175.136 270.992 174.976C271.536 174.8 272.12 174.712 272.744 174.712C273.656 174.712 274.456 174.92 275.144 175.336C275.848 175.752 276.392 176.352 276.776 177.136C277.176 177.904 277.376 178.832 277.376 179.92C277.376 181.168 277.376 182.424 277.376 183.688C277.376 184.952 277.376 186.208 277.376 187.456C276.736 187.456 276.08 187.456 275.408 187.456C274.736 187.456 274.072 187.456 273.416 187.456C273.416 186.304 273.416 185.136 273.416 183.952C273.416 182.768 273.416 181.6 273.416 180.448C273.416 179.808 273.264 179.296 272.96 178.912C272.672 178.512 272.208 178.312 271.568 178.312C270.928 178.312 270.432 178.496 270.08 178.864C269.728 179.232 269.552 179.76 269.552 180.448C269.552 181.6 269.552 182.768 269.552 183.952C269.552 185.136 269.552 186.304 269.552 187.456C268.912 187.456 268.256 187.456 267.584 187.456C266.912 187.456 266.248 187.456 265.592 187.456ZM280.757 191.296C281.077 190.448 281.405 189.592 281.741 188.728C282.093 187.88 282.429 187.04 282.749 186.208C281.997 184.368 281.229 182.512 280.445 180.64C279.677 178.752 278.917 176.888 278.165 175.048C278.869 175.048 279.573 175.048 280.277 175.048C280.981 175.048 281.677 175.048 282.365 175.048C282.781 176.072 283.197 177.112 283.613 178.168C284.045 179.224 284.469 180.272 284.885 181.312C285.269 180.272 285.661 179.224 286.061 178.168C286.461 177.112 286.853 176.072 287.237 175.048C287.925 175.048 288.613 175.048 289.301 175.048C289.989 175.048 290.677 175.048 291.365 175.048C290.293 177.72 289.213 180.432 288.125 183.184C287.053 185.92 285.981 188.624 284.909 191.296C284.221 191.296 283.525 191.296 282.821 191.296C282.133 191.296 281.445 191.296 280.757 191.296ZM292.566 187.456C292.566 185.408 292.566 183.344 292.566 181.264C292.566 179.168 292.566 177.096 292.566 175.048C293.222 175.048 293.886 175.048 294.558 175.048C295.23 175.048 295.886 175.048 296.526 175.048C296.526 175.16 296.526 175.264 296.526 175.36C296.526 175.456 296.526 175.56 296.526 175.672C296.942 175.368 297.406 175.136 297.918 174.976C298.43 174.8 298.958 174.712 299.502 174.712C300.094 174.712 300.638 174.816 301.134 175.024C301.63 175.216 302.054 175.504 302.406 175.888C302.918 175.52 303.494 175.232 304.134 175.024C304.79 174.816 305.462 174.712 306.15 174.712C307.126 174.712 307.966 174.912 308.67 175.312C309.39 175.712 309.942 176.28 310.326 177.016C310.726 177.752 310.926 178.64 310.926 179.68C310.926 180.96 310.926 182.256 310.926 183.568C310.926 184.88 310.926 186.176 310.926 187.456C310.286 187.456 309.63 187.456 308.958 187.456C308.286 187.456 307.622 187.456 306.966 187.456C306.966 186.256 306.966 185.04 306.966 183.808C306.966 182.576 306.966 181.36 306.966 180.16C306.966 179.616 306.838 179.176 306.582 178.84C306.342 178.488 305.95 178.312 305.406 178.312C304.878 178.312 304.462 178.48 304.158 178.816C303.87 179.136 303.726 179.584 303.726 180.16C303.726 181.36 303.726 182.576 303.726 183.808C303.726 185.04 303.726 186.256 303.726 187.456C303.086 187.456 302.43 187.456 301.758 187.456C301.086 187.456 300.422 187.456 299.766 187.456C299.766 186.256 299.766 185.04 299.766 183.808C299.766 182.576 299.766 181.36 299.766 180.16C299.766 179.616 299.638 179.176 299.382 178.84C299.142 178.488 298.75 178.312 298.206 178.312C297.678 178.312 297.262 178.48 296.958 178.816C296.67 179.136 296.526 179.584 296.526 180.16C296.526 181.36 296.526 182.576 296.526 183.808C296.526 185.04 296.526 186.256 296.526 187.456C295.886 187.456 295.23 187.456 294.558 187.456C293.886 187.456 293.222 187.456 292.566 187.456ZM324.058 186.88C322.954 187.344 321.858 187.632 320.77 187.744C319.682 187.856 318.65 187.792 317.674 187.552C316.714 187.328 315.858 186.936 315.106 186.376C314.354 185.816 313.762 185.104 313.33 184.24C312.914 183.376 312.706 182.376 312.706 181.24C312.706 180.296 312.858 179.432 313.162 178.648C313.482 177.848 313.93 177.152 314.506 176.56C315.082 175.952 315.762 175.488 316.546 175.168C317.33 174.832 318.186 174.664 319.114 174.664C319.946 174.664 320.698 174.8 321.37 175.072C322.042 175.344 322.626 175.728 323.122 176.224C323.618 176.704 324.018 177.28 324.322 177.952C324.626 178.624 324.818 179.36 324.898 180.16C324.978 180.96 324.93 181.808 324.754 182.704C323.442 182.704 322.122 182.704 320.794 182.704C319.466 182.704 318.146 182.704 316.834 182.704C317.138 183.312 317.642 183.744 318.346 184C319.066 184.256 319.914 184.336 320.89 184.24C321.882 184.144 322.938 183.888 324.058 183.472C324.058 184.032 324.058 184.6 324.058 185.176C324.058 185.752 324.058 186.32 324.058 186.88ZM319.018 178.216C318.554 178.216 318.122 178.344 317.722 178.6C317.338 178.856 317.042 179.248 316.834 179.776C317.554 179.776 318.274 179.776 318.994 179.776C319.73 179.776 320.458 179.776 321.178 179.776C320.986 179.232 320.698 178.84 320.314 178.6C319.946 178.344 319.514 178.216 319.018 178.216ZM336.476 183.616C336.476 184.608 336.196 185.424 335.636 186.064C335.092 186.688 334.356 187.144 333.428 187.432C332.5 187.72 331.46 187.84 330.308 187.792C329.172 187.76 328.012 187.576 326.828 187.24C326.828 186.632 326.828 186.008 326.828 185.368C326.828 184.728 326.828 184.104 326.828 183.496C327.5 183.8 328.172 184.04 328.844 184.216C329.516 184.376 330.124 184.472 330.668 184.504C331.212 184.536 331.652 184.496 331.988 184.384C332.324 184.256 332.492 184.048 332.492 183.76C332.492 183.536 332.348 183.36 332.06 183.232C331.788 183.104 331.428 182.992 330.98 182.896C330.532 182.784 330.052 182.656 329.54 182.512C329.044 182.352 328.572 182.136 328.124 181.864C327.676 181.576 327.308 181.2 327.02 180.736C326.748 180.256 326.612 179.64 326.612 178.888C326.612 177.992 326.868 177.232 327.38 176.608C327.908 175.968 328.612 175.488 329.492 175.168C330.372 174.832 331.356 174.664 332.444 174.664C333.532 174.664 334.644 174.848 335.78 175.216C335.78 175.824 335.78 176.448 335.78 177.088C335.78 177.728 335.78 178.352 335.78 178.96C334.884 178.528 334.044 178.24 333.26 178.096C332.476 177.952 331.844 177.936 331.364 178.048C330.884 178.144 330.644 178.36 330.644 178.696C330.644 178.92 330.78 179.096 331.052 179.224C331.34 179.336 331.7 179.44 332.132 179.536C332.58 179.632 333.052 179.76 333.548 179.92C334.06 180.08 334.532 180.304 334.964 180.592C335.412 180.864 335.772 181.248 336.044 181.744C336.332 182.224 336.476 182.848 336.476 183.616Z" fill="#6697DC"/>
</svg>
