<svg width="111" height="102" viewBox="0 0 111 102" fill="none" xmlns="http://www.w3.org/2000/svg">
<mask id="path-1-inside-1_90_1005" fill="white">
<path d="M46.0127 0C55.1365 0 62.5329 7.39678 62.5332 16.5205C62.5332 17.8508 62.3741 19.1445 62.0771 20.3838C76.8318 22.7649 88.9429 33.0381 93.9385 46.7363C94.7388 46.5965 95.562 46.5234 96.4023 46.5234C104.257 46.5234 110.625 52.8913 110.625 60.7461C110.625 68.6009 104.257 74.9688 96.4023 74.9688C95.562 74.9687 94.7388 74.8947 93.9385 74.7549C88.2195 90.4378 73.1742 101.636 55.5127 101.636C37.8249 101.636 22.7611 90.4043 17.0615 74.6846C16.1442 74.8704 15.1948 74.9687 14.2227 74.9688C6.36784 74.9688 1.70097e-05 68.6009 0 60.7461C0 52.8913 6.36783 46.5234 14.2227 46.5234C15.1948 46.5235 16.1442 46.6208 17.0615 46.8066C22.4861 31.8464 36.3924 20.9548 52.9697 19.9375C53.4771 18.9067 53.7636 17.7471 53.7637 16.5205C53.7634 12.2402 50.2931 8.76953 46.0127 8.76953V0Z"/>
</mask>
<path d="M46.0127 0V-7.51694H38.4958V0H46.0127ZM62.5332 16.5205L70.0501 16.5206V16.5203L62.5332 16.5205ZM62.0771 20.3838L54.7671 18.6323L52.8788 26.5135L60.8795 27.8047L62.0771 20.3838ZM93.9385 46.7363L86.8765 49.3117L89.0326 55.2239L95.2318 54.1412L93.9385 46.7363ZM96.4023 46.5234V39.0065H96.4023L96.4023 46.5234ZM110.625 60.7461L118.142 60.7461V60.7461H110.625ZM96.4023 74.9688L96.4023 82.4857H96.4023V74.9688ZM93.9385 74.7549L95.2319 67.3501L89.0325 66.2672L86.8764 72.1796L93.9385 74.7549ZM55.5127 101.636L55.5127 109.153H55.5127V101.636ZM17.0615 74.6846L24.1283 72.1223L21.9196 66.0306L15.5688 67.3173L17.0615 74.6846ZM14.2227 74.9688V82.4857H14.2229L14.2227 74.9688ZM0 60.7461H-7.51694V60.7461L0 60.7461ZM14.2227 46.5234L14.2229 39.0065H14.2227V46.5234ZM17.0615 46.8066L15.5689 54.1739L21.9195 55.4605L24.1282 49.369L17.0615 46.8066ZM52.9697 19.9375L53.4302 27.4403L57.7867 27.173L59.7141 23.2568L52.9697 19.9375ZM53.7637 16.5205L61.2806 16.5207V16.5201L53.7637 16.5205ZM46.0127 8.76953H38.4958V16.2865H46.0127V8.76953ZM46.0127 0V7.51694C50.9848 7.51694 55.0161 11.5481 55.0163 16.5207L62.5332 16.5205L70.0501 16.5203C70.0498 3.24545 59.2882 -7.51694 46.0127 -7.51694V0ZM62.5332 16.5205L55.0163 16.5204C55.0163 17.2495 54.9293 17.9554 54.7671 18.6323L62.0771 20.3838L69.3872 22.1353C69.8189 20.3335 70.0501 18.4522 70.0501 16.5206L62.5332 16.5205ZM62.0771 20.3838L60.8795 27.8047C72.9009 29.7447 82.7981 38.1284 86.8765 49.3117L93.9385 46.7363L101 44.1609C95.0878 27.9478 80.7626 15.7851 63.2747 12.9629L62.0771 20.3838ZM93.9385 46.7363L95.2318 54.1412C95.6083 54.0754 95.9989 54.0404 96.4024 54.0404L96.4023 46.5234L96.4023 39.0065C95.1252 39.0065 93.8693 39.1177 92.6451 39.3315L93.9385 46.7363ZM96.4023 46.5234V54.0404C100.106 54.0404 103.108 57.0428 103.108 60.7461H110.625H118.142C118.142 48.7398 108.409 39.0065 96.4023 39.0065V46.5234ZM110.625 60.7461L103.108 60.7461C103.108 64.4494 100.106 67.4518 96.4023 67.4518V74.9688V82.4857C108.409 82.4857 118.142 72.7524 118.142 60.7461L110.625 60.7461ZM96.4023 74.9688L96.4024 67.4518C96.0047 67.4518 95.6142 67.4168 95.2319 67.3501L93.9385 74.7549L92.6451 82.1597C93.8634 82.3725 95.1193 82.4857 96.4023 82.4857L96.4023 74.9688ZM93.9385 74.7549L86.8764 72.1796C82.2047 84.9908 69.9152 94.1188 55.5127 94.1188V101.636V109.153C76.4331 109.153 94.2343 95.8848 101.001 77.3301L93.9385 74.7549ZM55.5127 101.636L55.5127 94.1188C41.0887 94.1187 28.7841 84.9634 24.1283 72.1223L17.0615 74.6846L9.99475 77.2468C16.738 95.8452 34.5611 109.153 55.5127 109.153L55.5127 101.636ZM17.0615 74.6846L15.5688 67.3173C15.1363 67.405 14.6868 67.4518 14.2224 67.4518L14.2227 74.9688L14.2229 82.4857C15.7029 82.4856 17.1521 82.3359 18.5542 82.0518L17.0615 74.6846ZM14.2227 74.9688V67.4518C10.5194 67.4518 7.51695 64.4494 7.51694 60.7461L0 60.7461L-7.51694 60.7461C-7.51691 72.7524 2.21634 82.4857 14.2227 82.4857V74.9688ZM0 60.7461H7.51694C7.51694 57.0428 10.5193 54.0404 14.2227 54.0404V46.5234V39.0065C2.21634 39.0065 -7.51694 48.7398 -7.51694 60.7461H0ZM14.2227 46.5234L14.2224 54.0404C14.6918 54.0404 15.1413 54.0873 15.5689 54.1739L17.0615 46.8066L18.5541 39.4394C17.1471 39.1543 15.6977 39.0065 14.2229 39.0065L14.2227 46.5234ZM17.0615 46.8066L24.1282 49.369C28.5584 37.1511 39.9199 28.2694 53.4302 27.4403L52.9697 19.9375L52.5093 12.4347C32.8648 13.6402 16.4137 26.5417 9.9948 44.2443L17.0615 46.8066ZM52.9697 19.9375L59.7141 23.2568C60.7152 21.2227 61.2805 18.9305 61.2806 16.5207L53.7637 16.5205L46.2467 16.5203C46.2467 16.5462 46.2439 16.5634 46.2411 16.5752C46.2382 16.5878 46.2333 16.602 46.2253 16.6182L52.9697 19.9375ZM53.7637 16.5205L61.2806 16.5201C61.2801 8.08904 54.445 1.25259 46.0127 1.25259V8.76953V16.2865C46.0586 16.2865 46.0835 16.2943 46.101 16.3017C46.1235 16.3112 46.1511 16.3283 46.1779 16.3551C46.2046 16.3819 46.2218 16.4095 46.2314 16.4322C46.2389 16.4499 46.2467 16.4749 46.2467 16.521L53.7637 16.5205ZM46.0127 8.76953H53.5296V0H46.0127H38.4958V8.76953H46.0127Z" fill="#2F4ECD" mask="url(#path-1-inside-1_90_1005)"/>
<ellipse cx="43.9295" cy="57.6219" rx="4.29037" ry="6.49688" fill="#2F4ECD"/>
<ellipse cx="67.4652" cy="57.3152" rx="4.29037" ry="6.49688" fill="#2F4ECD"/>
</svg>
