<svg width="201" height="187" viewBox="0 0 201 187" fill="none" xmlns="http://www.w3.org/2000/svg">
<rect width="200.744" height="186.17" rx="32" fill="#2F4ECD"/>
<path d="M43.2174 51.6242C43.9534 54.9202 44.6894 58.2642 45.4254 61.6562C46.1614 65.0482 46.8814 68.4082 47.5854 71.7362C48.3214 68.4082 49.0574 65.0482 49.7934 61.6562C50.5614 58.2642 51.2974 54.9202 52.0014 51.6242C53.2494 51.6242 54.5134 51.6242 55.7934 51.6242C57.0734 51.6242 58.3374 51.6242 59.5854 51.6242C60.3534 54.9202 61.1214 58.2482 61.8894 61.6082C62.6574 64.9682 63.4254 68.3122 64.1934 71.6402C64.9294 68.3122 65.6494 64.9682 66.3534 61.6082C67.0894 58.2482 67.8094 54.9202 68.5134 51.6242C69.7934 51.6242 71.0734 51.6242 72.3534 51.6242C73.6654 51.6242 74.9614 51.6242 76.2414 51.6242C75.0574 57.0002 73.8734 62.4402 72.6894 67.9442C71.5054 73.4482 70.3214 78.8882 69.1374 84.2642C67.5694 84.2642 65.9694 84.2642 64.3374 84.2642C62.7374 84.2642 61.1374 84.2642 59.5374 84.2642C58.8654 81.2882 58.1774 78.2962 57.4734 75.2882C56.7694 72.2482 56.0814 69.2402 55.4094 66.2642C54.7694 69.2402 54.1134 72.2482 53.4414 75.2882C52.7694 78.2962 52.1134 81.2882 51.4734 84.2642C49.9054 84.2642 48.3214 84.2642 46.7214 84.2642C45.1534 84.2642 43.5854 84.2642 42.0174 84.2642C40.8334 78.8882 39.6494 73.4482 38.4654 67.9442C37.2814 62.4402 36.0974 57.0002 34.9134 51.6242C36.2894 51.6242 37.6654 51.6242 39.0414 51.6242C40.4494 51.6242 41.8414 51.6242 43.2174 51.6242ZM79.8234 84.2642C79.8234 78.4722 79.8234 72.6322 79.8234 66.7442C79.8234 60.8562 79.8234 55.0162 79.8234 49.2242C81.1354 49.2242 82.4634 49.2242 83.8074 49.2242C85.1514 49.2242 86.4634 49.2242 87.7434 49.2242C87.7434 51.1122 87.7434 53.0322 87.7434 54.9842C87.7434 56.9042 87.7434 58.8082 87.7434 60.6962C88.6074 60.0882 89.5674 59.6242 90.6234 59.3042C91.7114 58.9522 92.8794 58.7762 94.1274 58.7762C95.9514 58.7762 97.5514 59.1922 98.9274 60.0242C100.335 60.8562 101.423 62.0562 102.191 63.6242C102.991 65.1602 103.391 67.0162 103.391 69.1922C103.391 71.6882 103.391 74.2002 103.391 76.7282C103.391 79.2562 103.391 81.7682 103.391 84.2642C102.111 84.2642 100.799 84.2642 99.4554 84.2642C98.1114 84.2642 96.7834 84.2642 95.4714 84.2642C95.4714 81.9602 95.4714 79.6242 95.4714 77.2562C95.4714 74.8882 95.4714 72.5522 95.4714 70.2482C95.4714 68.9682 95.1674 67.9442 94.5594 67.1762C93.9834 66.3762 93.0554 65.9762 91.7754 65.9762C90.4954 65.9762 89.5034 66.3442 88.7994 67.0802C88.0954 67.8162 87.7434 68.8722 87.7434 70.2482C87.7434 72.5522 87.7434 74.8882 87.7434 77.2562C87.7434 79.6242 87.7434 81.9602 87.7434 84.2642C86.4634 84.2642 85.1514 84.2642 83.8074 84.2642C82.4634 84.2642 81.1354 84.2642 79.8234 84.2642ZM112.542 56.6162C111.614 56.6162 110.766 56.3922 109.998 55.9442C109.262 55.4962 108.67 54.9042 108.222 54.1682C107.774 53.4322 107.55 52.6162 107.55 51.7202C107.55 50.8242 107.774 50.0242 108.222 49.3202C108.67 48.5842 109.262 47.9922 109.998 47.5442C110.766 47.0962 111.614 46.8722 112.542 46.8722C113.438 46.8722 114.254 47.0962 114.99 47.5442C115.758 47.9922 116.366 48.5842 116.814 49.3202C117.262 50.0242 117.486 50.8242 117.486 51.7202C117.486 52.6162 117.262 53.4322 116.814 54.1682C116.366 54.9042 115.758 55.4962 114.99 55.9442C114.254 56.3922 113.438 56.6162 112.542 56.6162ZM108.558 84.2642C108.558 80.1682 108.558 76.0402 108.558 71.8802C108.558 67.6882 108.558 63.5442 108.558 59.4482C109.87 59.4482 111.198 59.4482 112.542 59.4482C113.886 59.4482 115.198 59.4482 116.478 59.4482C116.478 63.5442 116.478 67.6882 116.478 71.8802C116.478 76.0402 116.478 80.1682 116.478 84.2642C115.198 84.2642 113.886 84.2642 112.542 84.2642C111.198 84.2642 109.87 84.2642 108.558 84.2642ZM124.597 84.2642C124.597 81.3202 124.597 78.3602 124.597 75.3842C124.597 72.4082 124.597 69.4642 124.597 66.5522C123.957 66.5522 123.301 66.5522 122.629 66.5522C121.989 66.5522 121.349 66.5522 120.709 66.5522C120.709 65.3682 120.709 64.1842 120.709 63.0002C120.709 61.8162 120.709 60.6322 120.709 59.4482C121.349 59.4482 121.989 59.4482 122.629 59.4482C123.301 59.4482 123.957 59.4482 124.597 59.4482C124.597 58.3282 124.597 57.2242 124.597 56.1362C124.597 55.0162 124.597 53.9122 124.597 52.8242C125.909 52.8242 127.237 52.8242 128.581 52.8242C129.925 52.8242 131.237 52.8242 132.517 52.8242C132.517 53.9122 132.517 55.0162 132.517 56.1362C132.517 57.2242 132.517 58.3282 132.517 59.4482C133.253 59.4482 134.005 59.4482 134.773 59.4482C135.541 59.4482 136.293 59.4482 137.029 59.4482C137.029 60.6322 137.029 61.8162 137.029 63.0002C137.029 64.1842 137.029 65.3682 137.029 66.5522C136.293 66.5522 135.541 66.5522 134.773 66.5522C134.005 66.5522 133.253 66.5522 132.517 66.5522C132.517 69.4642 132.517 72.4082 132.517 75.3842C132.517 78.3602 132.517 81.3202 132.517 84.2642C131.237 84.2642 129.925 84.2642 128.581 84.2642C127.237 84.2642 125.909 84.2642 124.597 84.2642ZM161.975 83.1122C159.767 84.0402 157.575 84.6162 155.399 84.8402C153.223 85.0642 151.159 84.9362 149.207 84.4562C147.287 84.0082 145.575 83.2242 144.071 82.1042C142.567 80.9842 141.383 79.5602 140.519 77.8322C139.687 76.1042 139.271 74.1042 139.271 71.8322C139.271 69.9442 139.575 68.2162 140.183 66.6482C140.823 65.0482 141.719 63.6562 142.871 62.4722C144.023 61.2562 145.383 60.3282 146.951 59.6882C148.519 59.0162 150.231 58.6802 152.087 58.6802C153.751 58.6802 155.255 58.9522 156.599 59.4962C157.943 60.0402 159.111 60.8082 160.103 61.8002C161.095 62.7602 161.895 63.9122 162.503 65.2562C163.111 66.6002 163.495 68.0722 163.655 69.6722C163.815 71.2722 163.719 72.9682 163.367 74.7602C160.743 74.7602 158.103 74.7602 155.447 74.7602C152.791 74.7602 150.151 74.7602 147.527 74.7602C148.135 75.9762 149.143 76.8402 150.551 77.3522C151.991 77.8642 153.687 78.0242 155.639 77.8322C157.623 77.6402 159.735 77.1282 161.975 76.2962C161.975 77.4162 161.975 78.5522 161.975 79.7042C161.975 80.8562 161.975 81.9922 161.975 83.1122ZM151.895 65.7842C150.967 65.7842 150.103 66.0402 149.303 66.5522C148.535 67.0642 147.943 67.8482 147.527 68.9042C148.967 68.9042 150.407 68.9042 151.847 68.9042C153.319 68.9042 154.775 68.9042 156.215 68.9042C155.831 67.8162 155.255 67.0322 154.487 66.5522C153.751 66.0402 152.887 65.7842 151.895 65.7842ZM37.3134 144.264C37.3134 138.888 37.3134 133.448 37.3134 127.944C37.3134 122.44 37.3134 117 37.3134 111.624C39.2334 111.624 41.1694 111.624 43.1214 111.624C45.0734 111.624 47.0094 111.624 48.9294 111.624C51.2974 111.624 53.4734 112.04 55.4574 112.872C57.4414 113.672 59.1694 114.808 60.6414 116.28C62.1134 117.752 63.2494 119.48 64.0494 121.464C64.8814 123.416 65.2974 125.56 65.2974 127.896C65.2974 130.232 64.8814 132.392 64.0494 134.376C63.2494 136.36 62.1134 138.104 60.6414 139.608C59.1694 141.08 57.4414 142.232 55.4574 143.064C53.4734 143.864 51.2974 144.264 48.9294 144.264C47.0094 144.264 45.0734 144.264 43.1214 144.264C41.1694 144.264 39.2334 144.264 37.3134 144.264ZM48.9294 119.208C48.4174 119.208 47.8894 119.208 47.3454 119.208C46.8014 119.208 46.2574 119.208 45.7134 119.208C45.7134 122.088 45.7134 125 45.7134 127.944C45.7134 130.888 45.7134 133.8 45.7134 136.68C46.2574 136.68 46.8014 136.68 47.3454 136.68C47.8894 136.68 48.4174 136.68 48.9294 136.68C50.5294 136.68 51.9214 136.296 53.1054 135.528C54.2894 134.76 55.2014 133.72 55.8414 132.408C56.4814 131.064 56.8014 129.56 56.8014 127.896C56.8014 126.232 56.4814 124.744 55.8414 123.432C55.2014 122.12 54.2894 121.096 53.1054 120.36C51.9214 119.592 50.5294 119.208 48.9294 119.208ZM85.9715 144.264C85.9715 144.008 85.9715 143.768 85.9715 143.544C85.9715 143.288 85.9715 143.048 85.9715 142.824C85.1715 143.496 84.2595 144.008 83.2355 144.36C82.2435 144.744 81.1715 144.936 80.0195 144.936C78.3875 144.936 76.8515 144.632 75.4115 144.024C73.9715 143.384 72.6915 142.488 71.5715 141.336C70.4835 140.152 69.6195 138.76 68.9795 137.16C68.3715 135.56 68.0675 133.784 68.0675 131.832C68.0675 129.848 68.3715 128.056 68.9795 126.456C69.6195 124.856 70.4835 123.496 71.5715 122.376C72.6915 121.224 73.9715 120.344 75.4115 119.736C76.8515 119.096 78.3715 118.776 79.9715 118.776C81.1235 118.776 82.2115 118.968 83.2355 119.352C84.2595 119.704 85.1715 120.2 85.9715 120.84C85.9715 120.584 85.9715 120.344 85.9715 120.12C85.9715 119.896 85.9715 119.672 85.9715 119.448C87.2835 119.448 88.6115 119.448 89.9555 119.448C91.2995 119.448 92.6115 119.448 93.8915 119.448C93.8915 123.544 93.8915 127.688 93.8915 131.88C93.8915 136.04 93.8915 140.168 93.8915 144.264C92.6115 144.264 91.2995 144.264 89.9555 144.264C88.6115 144.264 87.2835 144.264 85.9715 144.264ZM81.0755 137.928C82.6115 137.928 83.8435 137.368 84.7715 136.248C85.6995 135.128 86.1635 133.656 86.1635 131.832C86.1635 130.008 85.6995 128.552 84.7715 127.464C83.8435 126.344 82.6115 125.784 81.0755 125.784C79.5075 125.784 78.2595 126.328 77.3315 127.416C76.4355 128.504 75.9875 129.976 75.9875 131.832C75.9875 133.688 76.4355 135.176 77.3315 136.296C78.2595 137.384 79.5075 137.928 81.0755 137.928ZM103.401 116.616C102.473 116.616 101.625 116.392 100.857 115.944C100.121 115.496 99.5291 114.904 99.0811 114.168C98.6331 113.432 98.4091 112.616 98.4091 111.72C98.4091 110.824 98.6331 110.024 99.0811 109.32C99.5291 108.584 100.121 107.992 100.857 107.544C101.625 107.096 102.473 106.872 103.401 106.872C104.297 106.872 105.113 107.096 105.849 107.544C106.617 107.992 107.225 108.584 107.673 109.32C108.121 110.024 108.345 110.824 108.345 111.72C108.345 112.616 108.121 113.432 107.673 114.168C107.225 114.904 106.617 115.496 105.849 115.944C105.113 116.392 104.297 116.616 103.401 116.616ZM99.4171 144.264C99.4171 140.168 99.4171 136.04 99.4171 131.88C99.4171 127.688 99.4171 123.544 99.4171 119.448C100.729 119.448 102.057 119.448 103.401 119.448C104.745 119.448 106.057 119.448 107.337 119.448C107.337 123.544 107.337 127.688 107.337 131.88C107.337 136.04 107.337 140.168 107.337 144.264C106.057 144.264 104.745 144.264 103.401 144.264C102.057 144.264 100.729 144.264 99.4171 144.264ZM131.825 136.584C131.825 138.568 131.265 140.2 130.145 141.48C129.057 142.728 127.585 143.64 125.729 144.216C123.873 144.792 121.793 145.032 119.489 144.936C117.217 144.872 114.897 144.504 112.529 143.832C112.529 142.616 112.529 141.368 112.529 140.088C112.529 138.808 112.529 137.56 112.529 136.344C113.873 136.952 115.217 137.432 116.561 137.784C117.905 138.104 119.121 138.296 120.209 138.36C121.297 138.424 122.177 138.344 122.849 138.12C123.521 137.864 123.857 137.448 123.857 136.872C123.857 136.424 123.569 136.072 122.993 135.816C122.449 135.56 121.729 135.336 120.833 135.144C119.937 134.92 118.977 134.664 117.953 134.376C116.961 134.056 116.017 133.624 115.121 133.08C114.225 132.504 113.489 131.752 112.913 130.824C112.369 129.864 112.097 128.632 112.097 127.128C112.097 125.336 112.609 123.816 113.633 122.568C114.689 121.288 116.097 120.328 117.857 119.688C119.617 119.016 121.585 118.68 123.761 118.68C125.937 118.68 128.161 119.048 130.433 119.784C130.433 121 130.433 122.248 130.433 123.528C130.433 124.808 130.433 126.056 130.433 127.272C128.641 126.408 126.961 125.832 125.393 125.544C123.825 125.256 122.561 125.224 121.601 125.448C120.641 125.64 120.161 126.072 120.161 126.744C120.161 127.192 120.433 127.544 120.977 127.8C121.553 128.024 122.273 128.232 123.137 128.424C124.033 128.616 124.977 128.872 125.969 129.192C126.993 129.512 127.937 129.96 128.801 130.536C129.697 131.08 130.417 131.848 130.961 132.84C131.537 133.8 131.825 135.048 131.825 136.584ZM137.95 151.944C138.59 150.248 139.246 148.536 139.918 146.808C140.622 145.112 141.294 143.432 141.934 141.768C140.43 138.088 138.894 134.376 137.326 130.632C135.79 126.856 134.27 123.128 132.766 119.448C134.174 119.448 135.582 119.448 136.99 119.448C138.398 119.448 139.79 119.448 141.166 119.448C141.998 121.496 142.83 123.576 143.662 125.688C144.526 127.8 145.374 129.896 146.206 131.976C146.974 129.896 147.758 127.8 148.558 125.688C149.358 123.576 150.142 121.496 150.91 119.448C152.286 119.448 153.662 119.448 155.038 119.448C156.414 119.448 157.79 119.448 159.166 119.448C157.022 124.792 154.862 130.216 152.686 135.72C150.542 141.192 148.398 146.6 146.254 151.944C144.878 151.944 143.486 151.944 142.078 151.944C140.702 151.944 139.326 151.944 137.95 151.944Z" fill="#B8D6FF"/>
</svg>
