<svg width="212" height="73" viewBox="0 0 212 73" fill="none" xmlns="http://www.w3.org/2000/svg">
<rect width="212" height="73" rx="36.5" fill="#2F4ECD"/>
<circle cx="31" cy="37" r="10" fill="#B8D6FF"/>
<path d="M67.12 54C67.12 48.624 67.12 43.184 67.12 37.68C67.12 32.176 67.12 26.736 67.12 21.36C69.104 21.36 71.088 21.36 73.072 21.36C75.088 21.36 77.072 21.36 79.024 21.36C81.232 21.36 83.168 21.76 84.832 22.56C86.496 23.328 87.792 24.416 88.72 25.824C89.648 27.2 90.112 28.832 90.112 30.72C90.112 32.064 89.856 33.28 89.344 34.368C88.832 35.456 88.064 36.368 87.04 37.104C88.384 37.904 89.408 38.944 90.112 40.224C90.816 41.472 91.168 42.864 91.168 44.4C91.168 46.32 90.672 48 89.68 49.44C88.72 50.88 87.36 52 85.6 52.8C83.872 53.6 81.84 54 79.504 54C77.456 54 75.392 54 73.312 54C71.232 54 69.168 54 67.12 54ZM81.712 31.536C81.712 30.704 81.456 30.032 80.944 29.52C80.432 28.976 79.76 28.704 78.928 28.704C78.352 28.704 77.76 28.704 77.152 28.704C76.576 28.704 76 28.704 75.424 28.704C75.424 29.6 75.424 30.528 75.424 31.488C75.424 32.416 75.424 33.344 75.424 34.272C76 34.272 76.576 34.272 77.152 34.272C77.76 34.272 78.352 34.272 78.928 34.272C79.76 34.272 80.432 34.032 80.944 33.552C81.456 33.04 81.712 32.368 81.712 31.536ZM82.768 43.632C82.768 42.736 82.464 42.032 81.856 41.52C81.28 40.976 80.48 40.704 79.456 40.704C78.784 40.704 78.112 40.704 77.44 40.704C76.768 40.704 76.096 40.704 75.424 40.704C75.424 41.696 75.424 42.688 75.424 43.68C75.424 44.672 75.424 45.664 75.424 46.656C76.096 46.656 76.768 46.656 77.44 46.656C78.112 46.656 78.784 46.656 79.456 46.656C80.48 46.656 81.28 46.384 81.856 45.84C82.464 45.296 82.768 44.56 82.768 43.632ZM111.794 54C111.794 53.744 111.794 53.504 111.794 53.28C111.794 53.024 111.794 52.784 111.794 52.56C110.994 53.232 110.082 53.744 109.058 54.096C108.066 54.48 106.994 54.672 105.842 54.672C104.21 54.672 102.674 54.368 101.234 53.76C99.7938 53.12 98.5138 52.224 97.3938 51.072C96.3058 49.888 95.4418 48.496 94.8018 46.896C94.1938 45.296 93.8898 43.52 93.8898 41.568C93.8898 39.584 94.1938 37.792 94.8018 36.192C95.4418 34.592 96.3058 33.232 97.3938 32.112C98.5138 30.96 99.7938 30.08 101.234 29.472C102.674 28.832 104.194 28.512 105.794 28.512C106.946 28.512 108.034 28.704 109.058 29.088C110.082 29.44 110.994 29.936 111.794 30.576C111.794 30.32 111.794 30.08 111.794 29.856C111.794 29.632 111.794 29.408 111.794 29.184C113.106 29.184 114.434 29.184 115.778 29.184C117.122 29.184 118.434 29.184 119.714 29.184C119.714 33.28 119.714 37.424 119.714 41.616C119.714 45.776 119.714 49.904 119.714 54C118.434 54 117.122 54 115.778 54C114.434 54 113.106 54 111.794 54ZM106.898 47.664C108.434 47.664 109.666 47.104 110.594 45.984C111.522 44.864 111.986 43.392 111.986 41.568C111.986 39.744 111.522 38.288 110.594 37.2C109.666 36.08 108.434 35.52 106.898 35.52C105.33 35.52 104.082 36.064 103.154 37.152C102.258 38.24 101.81 39.712 101.81 41.568C101.81 43.424 102.258 44.912 103.154 46.032C104.082 47.12 105.33 47.664 106.898 47.664ZM123.655 41.568C123.655 39.136 124.151 37.008 125.143 35.184C126.135 33.328 127.511 31.84 129.271 30.72C131.031 29.6 133.079 28.928 135.415 28.704C137.751 28.448 140.247 28.72 142.903 29.52C142.903 30.736 142.903 31.968 142.903 33.216C142.903 34.464 142.903 35.696 142.903 36.912C141.047 36.016 139.271 35.6 137.575 35.664C135.879 35.728 134.487 36.256 133.399 37.248C132.311 38.208 131.767 39.648 131.767 41.568C131.767 43.488 132.311 44.944 133.399 45.936C134.487 46.896 135.879 47.408 137.575 47.472C139.271 47.504 141.047 47.088 142.903 46.224C142.903 47.44 142.903 48.672 142.903 49.92C142.903 51.168 142.903 52.4 142.903 53.616C140.247 54.416 137.751 54.688 135.415 54.432C133.079 54.208 131.031 53.536 129.271 52.416C127.511 51.296 126.135 49.824 125.143 48C124.151 46.144 123.655 44 123.655 41.568ZM148.068 54C148.068 48.208 148.068 42.368 148.068 36.48C148.068 30.592 148.068 24.752 148.068 18.96C149.38 18.96 150.708 18.96 152.052 18.96C153.396 18.96 154.708 18.96 155.988 18.96C155.988 22.096 155.988 25.28 155.988 28.512C155.988 31.744 155.988 34.928 155.988 38.064C157.14 36.592 158.292 35.12 159.444 33.648C160.596 32.144 161.748 30.656 162.9 29.184C164.436 29.184 165.972 29.184 167.508 29.184C169.076 29.184 170.628 29.184 172.164 29.184C170.66 31.072 169.124 32.976 167.556 34.896C166.02 36.816 164.5 38.72 162.996 40.608C164.596 42.816 166.196 45.056 167.796 47.328C169.428 49.568 171.028 51.792 172.596 54C171.028 54 169.46 54 167.892 54C166.324 54 164.756 54 163.188 54C162.004 52.304 160.804 50.592 159.588 48.864C158.372 47.104 157.172 45.376 155.988 43.68C155.988 45.376 155.988 47.104 155.988 48.864C155.988 50.592 155.988 52.304 155.988 54C154.708 54 153.396 54 152.052 54C150.708 54 149.38 54 148.068 54Z" fill="#B8D6FF"/>
</svg>
