<svg width="521" height="521" viewBox="0 0 521 521" fill="none" xmlns="http://www.w3.org/2000/svg">
<path d="M274.595 319.395C286.901 299.375 270.329 326.334 284.929 302.583C299.529 278.833 295.868 284.788 295.868 284.788C295.868 284.788 383.728 338.798 420.157 361.192C405.557 384.943 343.237 361.591 274.595 319.395Z" fill="white"/>
<path d="M319.507 246.333C307.2 266.353 323.256 240.234 308.656 263.985C294.056 287.736 297.717 281.78 297.717 281.78C297.717 281.78 385.576 335.789 422.006 358.183C436.606 334.432 388.149 288.53 319.507 246.333Z" fill="#F4E3D5"/>
<path d="M318.557 245.458C298.538 233.151 325.496 249.723 301.745 235.123C277.995 220.523 283.95 224.184 283.95 224.184C283.95 224.184 337.96 136.325 360.354 99.8952C384.105 114.495 360.754 176.815 318.557 245.458Z" fill="white"/>
<path d="M245.495 200.544C265.515 212.851 239.396 196.795 263.147 211.395C286.897 225.995 280.942 222.334 280.942 222.334C280.942 222.334 334.951 134.474 357.345 98.0448C333.594 83.4448 287.691 131.901 245.495 200.544Z" fill="#F4E3D5"/>
<path d="M201.531 274.482C221.551 286.789 194.593 270.217 218.343 284.817C242.094 299.417 236.138 295.756 236.138 295.756C236.138 295.756 182.129 383.615 159.735 420.044C135.984 405.444 159.335 343.125 201.531 274.482Z" fill="white"/>
<path d="M274.593 319.395C254.573 307.088 280.692 323.144 256.941 308.544C233.191 293.944 239.147 297.605 239.147 297.605C239.147 297.605 185.137 385.464 162.744 421.894C186.494 436.494 232.397 388.037 274.593 319.395Z" fill="#F4E3D5"/>
<rect x="314.73" y="246.824" width="78.8931" height="78.8931" transform="rotate(121.58 314.73 246.824)" fill="#FECC73"/>
<path d="M245.09 201.744C232.784 221.763 249.356 194.805 234.755 218.556C220.155 242.306 223.817 236.35 223.817 236.35C223.817 236.35 135.957 182.341 99.5278 159.947C114.128 136.196 176.447 159.547 245.09 201.744Z" fill="white"/>
<path d="M200.177 274.806C212.483 254.786 196.427 280.905 211.028 257.154C225.628 233.403 221.966 239.359 221.966 239.359C221.966 239.359 134.107 185.35 97.6774 162.956C83.0773 186.707 131.534 232.609 200.177 274.806Z" fill="#F4E3D5"/>
</svg>
