<svg width="306" height="260" viewBox="0 0 306 260" fill="none" xmlns="http://www.w3.org/2000/svg">
<path d="M158.14 165.842V143.669C158.14 93.3804 158.14 68.2361 167.927 49.0283C176.536 32.1326 190.272 18.3959 207.168 9.78709C226.376 0.000309288 251.52 0 301.809 0H305.631L158.14 165.842Z" fill="#036F62"/>
<path d="M305.631 6.33818V28.511C305.631 78.7998 305.631 103.944 295.844 123.152C287.235 140.048 273.498 153.784 256.603 162.393C237.395 172.18 212.25 172.18 161.962 172.18H158.14L305.631 6.33818Z" fill="#6CBDAA"/>
<path d="M130.188 254.024V234.453C130.188 190.064 130.187 167.869 121.549 150.915C113.95 136.002 101.825 123.876 86.9114 116.278C69.9571 107.639 47.7627 107.639 3.37376 107.639H-1.52588e-05L130.188 254.024Z" fill="#6CBDAA"/>
<path d="M0.000244141 113.233V132.804C0.000244141 177.193 0.000517143 199.387 8.63912 216.342C16.2379 231.255 28.3631 243.38 43.2766 250.979C60.2309 259.618 82.4253 259.618 126.814 259.618H130.188L0.000244141 113.233Z" fill="#036F62"/>
</svg>
