<svg width="242" height="57" viewBox="0 0 242 57" fill="none" xmlns="http://www.w3.org/2000/svg">
<rect y="16.6807" width="54.9404" height="22.6738" rx="11.3369" fill="white"/>
<rect x="43.9404" width="197.49" height="56.0352" rx="11" fill="white"/>
<path d="M197.32 0H230.172C236.247 0 241.172 4.92487 241.172 11V45.0352C241.172 51.1103 236.247 56.0352 230.172 56.0352H197.32V0Z" fill="#6697DC"/>
<circle cx="11.0734" cy="28.0178" r="5.2951" fill="#6697DC"/>
<path d="M71.4125 42.3545C71.4125 37.8745 71.4125 33.3412 71.4125 28.7545C71.4125 24.1678 71.4125 19.6345 71.4125 15.1545C72.5858 15.1545 73.7592 15.1545 74.9325 15.1545C76.1058 15.1545 77.2658 15.1545 78.4125 15.1545C78.4125 18.5945 78.4125 22.0745 78.4125 25.5945C78.4125 29.0878 78.4125 32.5545 78.4125 35.9945C79.8258 35.9945 81.2525 35.9945 82.6925 35.9945C84.1325 35.9945 85.5458 35.9945 86.9325 35.9945C86.9325 37.0345 86.9325 38.1012 86.9325 39.1945C86.9325 40.2612 86.9325 41.3145 86.9325 42.3545C84.3725 42.3545 81.7858 42.3545 79.1725 42.3545C76.5592 42.3545 73.9725 42.3545 71.4125 42.3545ZM103.758 42.3545C103.758 42.1412 103.758 41.9412 103.758 41.7545C103.758 41.5412 103.758 41.3412 103.758 41.1545C103.091 41.7145 102.331 42.1412 101.478 42.4345C100.651 42.7545 99.7578 42.9145 98.7978 42.9145C97.4378 42.9145 96.1578 42.6612 94.9578 42.1545C93.7578 41.6212 92.6911 40.8745 91.7578 39.9145C90.8511 38.9278 90.1311 37.7678 89.5978 36.4345C89.0911 35.1012 88.8378 33.6212 88.8378 31.9945C88.8378 30.3412 89.0911 28.8478 89.5978 27.5145C90.1311 26.1812 90.8511 25.0478 91.7578 24.1145C92.6911 23.1545 93.7578 22.4212 94.9578 21.9145C96.1578 21.3812 97.4245 21.1145 98.7578 21.1145C99.7178 21.1145 100.624 21.2745 101.478 21.5945C102.331 21.8878 103.091 22.3012 103.758 22.8345C103.758 22.6212 103.758 22.4212 103.758 22.2345C103.758 22.0478 103.758 21.8612 103.758 21.6745C104.851 21.6745 105.958 21.6745 107.078 21.6745C108.198 21.6745 109.291 21.6745 110.358 21.6745C110.358 25.0878 110.358 28.5412 110.358 32.0345C110.358 35.5012 110.358 38.9412 110.358 42.3545C109.291 42.3545 108.198 42.3545 107.078 42.3545C105.958 42.3545 104.851 42.3545 103.758 42.3545ZM99.6778 37.0745C100.958 37.0745 101.984 36.6078 102.758 35.6745C103.531 34.7412 103.918 33.5145 103.918 31.9945C103.918 30.4745 103.531 29.2612 102.758 28.3545C101.984 27.4212 100.958 26.9545 99.6778 26.9545C98.3711 26.9545 97.3311 27.4078 96.5578 28.3145C95.8111 29.2212 95.4378 30.4478 95.4378 31.9945C95.4378 33.5412 95.8111 34.7812 96.5578 35.7145C97.3311 36.6212 98.3711 37.0745 99.6778 37.0745ZM121.563 42.3545C120.496 42.3545 119.403 42.3545 118.283 42.3545C117.163 42.3545 116.056 42.3545 114.963 42.3545C114.963 37.5278 114.963 32.6612 114.963 27.7545C114.963 22.8478 114.963 17.9812 114.963 13.1545C116.056 13.1545 117.163 13.1545 118.283 13.1545C119.403 13.1545 120.496 13.1545 121.563 13.1545C121.563 14.7545 121.563 16.3678 121.563 17.9945C121.563 19.6212 121.563 21.2345 121.563 22.8345C122.229 22.3012 122.989 21.8878 123.843 21.5945C124.696 21.2745 125.603 21.1145 126.563 21.1145C127.896 21.1145 129.163 21.3812 130.363 21.9145C131.563 22.4212 132.616 23.1545 133.523 24.1145C134.456 25.0745 135.176 26.2212 135.683 27.5545C136.216 28.8878 136.483 30.3678 136.483 31.9945C136.483 33.5945 136.216 35.0612 135.683 36.3945C135.176 37.7278 134.456 38.8878 133.523 39.8745C132.616 40.8345 131.563 41.5812 130.363 42.1145C129.163 42.6478 127.883 42.9145 126.523 42.9145C125.563 42.9145 124.656 42.7545 123.803 42.4345C122.976 42.1412 122.229 41.7145 121.563 41.1545C121.563 41.3412 121.563 41.5412 121.563 41.7545C121.563 41.9412 121.563 42.1412 121.563 42.3545ZM125.643 37.0745C126.949 37.0745 127.976 36.6212 128.723 35.7145C129.496 34.7812 129.883 33.5412 129.883 31.9945C129.883 30.4478 129.496 29.2212 128.723 28.3145C127.976 27.4078 126.949 26.9545 125.643 26.9545C124.363 26.9545 123.336 27.4212 122.562 28.3545C121.789 29.2612 121.403 30.4745 121.403 31.9945C121.403 33.5145 121.789 34.7412 122.562 35.6745C123.336 36.6078 124.363 37.0745 125.643 37.0745ZM157.562 41.3945C155.723 42.1678 153.896 42.6478 152.083 42.8345C150.269 43.0212 148.549 42.9145 146.923 42.5145C145.323 42.1412 143.896 41.4878 142.643 40.5545C141.389 39.6212 140.403 38.4345 139.683 36.9945C138.989 35.5545 138.643 33.8878 138.643 31.9945C138.643 30.4212 138.896 28.9812 139.403 27.6745C139.936 26.3412 140.683 25.1812 141.643 24.1945C142.603 23.1812 143.736 22.4078 145.043 21.8745C146.349 21.3145 147.776 21.0345 149.322 21.0345C150.709 21.0345 151.963 21.2612 153.083 21.7145C154.203 22.1678 155.176 22.8078 156.003 23.6345C156.829 24.4345 157.496 25.3945 158.003 26.5145C158.509 27.6345 158.829 28.8612 158.963 30.1945C159.096 31.5278 159.016 32.9412 158.723 34.4345C156.536 34.4345 154.336 34.4345 152.123 34.4345C149.909 34.4345 147.709 34.4345 145.523 34.4345C146.029 35.4478 146.869 36.1678 148.043 36.5945C149.243 37.0212 150.656 37.1545 152.283 36.9945C153.936 36.8345 155.696 36.4078 157.562 35.7145C157.562 36.6478 157.562 37.5945 157.562 38.5545C157.562 39.5145 157.562 40.4612 157.562 41.3945ZM149.163 26.9545C148.389 26.9545 147.669 27.1678 147.003 27.5945C146.363 28.0212 145.869 28.6745 145.523 29.5545C146.723 29.5545 147.923 29.5545 149.123 29.5545C150.349 29.5545 151.563 29.5545 152.763 29.5545C152.443 28.6478 151.963 27.9945 151.323 27.5945C150.709 27.1678 149.989 26.9545 149.163 26.9545ZM162.658 42.3545C162.658 37.5278 162.658 32.6612 162.658 27.7545C162.658 22.8478 162.658 17.9812 162.658 13.1545C163.751 13.1545 164.858 13.1545 165.978 13.1545C167.098 13.1545 168.191 13.1545 169.258 13.1545C169.258 17.9812 169.258 22.8478 169.258 27.7545C169.258 32.6612 169.258 37.5278 169.258 42.3545C168.191 42.3545 167.098 42.3545 165.978 42.3545C164.858 42.3545 163.751 42.3545 162.658 42.3545Z" fill="#6697DC"/>
</svg>
