<svg width="116" height="116" viewBox="0 0 116 116" fill="none" xmlns="http://www.w3.org/2000/svg">
<rect x="22.5039" y="29.3794" width="6.01644" height="9.49469" transform="rotate(-4.51238 22.5039 29.3794)" fill="#35816F"/>
<rect x="45.5186" y="15.977" width="6.01644" height="9.49469" transform="rotate(-4.51238 45.5186 15.977)" fill="#35816F"/>
<rect x="15.186" y="39.1254" width="55.182" height="65.8048" rx="6.67449" transform="rotate(-30.1302 15.186 39.1254)" fill="#F4E3D5"/>
<rect x="22.5356" y="29.3169" width="6.01644" height="9.4947" transform="rotate(-30.1302 22.5356 29.3169)" fill="#6CBDAA"/>
<mask id="mask0_139_240" style="mask-type:alpha" maskUnits="userSpaceOnUse" x="41" y="54" width="66" height="51">
<rect x="41.7993" y="84.9809" width="61.4805" height="22.1856" transform="rotate(-30.1302 41.7993 84.9809)" fill="#6CBDAA"/>
</mask>
<g mask="url(#mask0_139_240)">
<path d="M18.5349 44.8971C16.6846 41.709 17.7691 37.6245 20.9572 35.7741L57.1381 14.7753C60.3263 12.9249 64.4108 14.0094 66.2612 17.1976L92.5923 62.5659C94.4426 65.7541 93.3581 69.8386 90.17 71.689L53.9891 92.6878C50.8009 94.5382 46.7164 93.4537 44.8661 90.2655L18.5349 44.8971Z" fill="#6CBDAA"/>
</g>
<rect x="45.5449" y="15.9614" width="6.01644" height="9.4947" transform="rotate(-30.1302 45.5449 15.9614)" fill="#6CBDAA"/>
<path d="M61.2419 28.7628C59.9396 28.0888 56.9928 28.3581 58.6078 28.9895C59.8553 29.4772 60.6671 29.1432 61.2419 28.7628Z" stroke="#404040" stroke-width="0.376027"/>
<path d="M62.4166 28.7796C62.8399 30.1811 62.0304 33.0212 61.7068 31.3208C61.4568 30.0074 61.9357 29.273 62.4166 28.7796Z" stroke="#404040" stroke-width="0.376027"/>
<path d="M27.7515 48.7905L61.2086 29.3725" stroke="#404040" stroke-width="0.376027"/>
<ellipse cx="61.7253" cy="26.9861" rx="0.587686" ry="1.10928" transform="rotate(-30.1302 61.7253 26.9861)" fill="white"/>
<ellipse cx="0.585762" cy="1.11295" rx="0.585762" ry="1.11295" transform="matrix(0.96735 0.253442 -0.259801 0.965662 62.7681 25.6372)" fill="white"/>
<ellipse cx="0.584009" cy="1.11627" rx="0.584009" ry="1.11627" transform="matrix(0.676562 0.736386 -0.738245 0.674532 61.8379 28.3374)" fill="white"/>
<ellipse cx="0.584692" cy="1.11498" rx="0.584692" ry="1.11498" transform="matrix(0.031837 0.999493 -0.999304 0.037307 62.021 27.6196)" fill="white"/>
<ellipse cx="0.587207" cy="1.1102" rx="0.587207" ry="1.1102" transform="matrix(-0.986078 0.166284 -0.161995 -0.986791 63.5537 30.9975)" fill="white"/>
<ellipse cx="0.585762" cy="1.11295" rx="0.585762" ry="1.11295" transform="matrix(-0.259801 0.965662 -0.96735 -0.253442 65.2769 28.7163)" fill="white"/>
<ellipse cx="64.0778" cy="27.645" rx="0.583832" ry="1.1166" transform="rotate(59.8698 64.0778 27.645)" fill="white"/>
<ellipse cx="62.5379" cy="28.3281" rx="0.993588" ry="0.987072" transform="rotate(-30.1302 62.5379 28.3281)" fill="#FECC73"/>
<path d="M64.9216 35.1016C63.6193 34.4277 60.6725 34.6969 62.2875 35.3283C63.535 35.8161 64.3468 35.4821 64.9216 35.1016Z" stroke="#404040" stroke-width="0.376027"/>
<path d="M66.0968 35.1195C66.52 36.521 65.7106 39.361 65.387 37.6607C65.137 36.3472 65.6159 35.6128 66.0968 35.1195Z" stroke="#404040" stroke-width="0.376027"/>
<path d="M31.4316 55.1303L64.8888 35.7123" stroke="#404040" stroke-width="0.376027"/>
<ellipse cx="65.4064" cy="33.325" rx="0.587686" ry="1.10928" transform="rotate(-30.1302 65.4064 33.325)" fill="white"/>
<ellipse cx="0.585762" cy="1.11295" rx="0.585762" ry="1.11295" transform="matrix(0.96735 0.253442 -0.259801 0.965662 66.4497 31.977)" fill="white"/>
<ellipse cx="0.584009" cy="1.11627" rx="0.584009" ry="1.11627" transform="matrix(0.676562 0.736386 -0.738245 0.674532 65.5195 34.6772)" fill="white"/>
<ellipse cx="0.584692" cy="1.11498" rx="0.584692" ry="1.11498" transform="matrix(0.031837 0.999493 -0.999304 0.037307 65.7017 33.9585)" fill="white"/>
<ellipse cx="0.587207" cy="1.1102" rx="0.587207" ry="1.1102" transform="matrix(-0.986078 0.166284 -0.161995 -0.986791 67.2339 37.3354)" fill="white"/>
<ellipse cx="0.585762" cy="1.11295" rx="0.585762" ry="1.11295" transform="matrix(-0.259801 0.965662 -0.96735 -0.253442 68.957 35.0551)" fill="white"/>
<ellipse cx="67.7585" cy="33.9829" rx="0.583832" ry="1.1166" transform="rotate(59.8698 67.7585 33.9829)" fill="white"/>
<ellipse cx="66.2191" cy="34.6669" rx="0.993588" ry="0.987072" transform="rotate(-30.1302 66.2191 34.6669)" fill="#FECC73"/>
<path d="M68.651 41.5264C67.3488 40.8525 64.402 41.1217 66.017 41.7532C67.2645 42.2409 68.0763 41.9069 68.651 41.5264Z" stroke="#404040" stroke-width="0.376027"/>
<path d="M69.8253 41.5433C70.2486 42.9448 69.4391 45.7849 69.1155 44.0845C68.8655 42.7711 69.3444 42.0367 69.8253 41.5433Z" stroke="#404040" stroke-width="0.376027"/>
<path d="M35.1602 61.5542L68.6173 42.1361" stroke="#404040" stroke-width="0.376027"/>
<ellipse cx="69.132" cy="39.7479" rx="0.587686" ry="1.10928" transform="rotate(-30.1302 69.132 39.7479)" fill="white"/>
<ellipse cx="0.585762" cy="1.11295" rx="0.585762" ry="1.11295" transform="matrix(0.96735 0.253442 -0.259801 0.965662 70.1753 38.3999)" fill="white"/>
<ellipse cx="0.584009" cy="1.11627" rx="0.584009" ry="1.11627" transform="matrix(0.676562 0.736386 -0.738245 0.674532 69.2451 41.1001)" fill="white"/>
<ellipse cx="0.584692" cy="1.11498" rx="0.584692" ry="1.11498" transform="matrix(0.031837 0.999493 -0.999304 0.037307 69.4282 40.3813)" fill="white"/>
<ellipse cx="0.587207" cy="1.1102" rx="0.587207" ry="1.1102" transform="matrix(-0.986078 0.166284 -0.161995 -0.986791 70.9609 43.7602)" fill="white"/>
<ellipse cx="0.585762" cy="1.11295" rx="0.585762" ry="1.11295" transform="matrix(-0.259801 0.965662 -0.96735 -0.253442 72.6841 41.4799)" fill="white"/>
<ellipse cx="71.4855" cy="40.4077" rx="0.583832" ry="1.1166" transform="rotate(59.8698 71.4855 40.4077)" fill="white"/>
<ellipse cx="69.9452" cy="41.0908" rx="0.993588" ry="0.987072" transform="rotate(-30.1302 69.9452 41.0908)" fill="#FECC73"/>
<path d="M72.3786 47.9493C71.0764 47.2753 68.1295 47.5446 69.7445 48.176C70.992 48.6638 71.8038 48.3297 72.3786 47.9493Z" stroke="#404040" stroke-width="0.376027"/>
<path d="M73.5533 47.9662C73.9766 49.3676 73.1672 52.2077 72.8435 50.5074C72.5935 49.1939 73.0724 48.4595 73.5533 47.9662Z" stroke="#404040" stroke-width="0.376027"/>
<path d="M38.8877 67.977L72.3448 48.559" stroke="#404040" stroke-width="0.376027"/>
<ellipse cx="72.862" cy="46.1736" rx="0.587686" ry="1.10928" transform="rotate(-30.1302 72.862 46.1736)" fill="white"/>
<ellipse cx="0.585762" cy="1.11295" rx="0.585762" ry="1.11295" transform="matrix(0.96735 0.253442 -0.259801 0.965662 73.9053 44.8247)" fill="white"/>
<ellipse cx="0.584009" cy="1.11627" rx="0.584009" ry="1.11627" transform="matrix(0.676562 0.736386 -0.738245 0.674532 72.9751 47.5249)" fill="white"/>
<ellipse cx="0.584692" cy="1.11498" rx="0.584692" ry="1.11498" transform="matrix(0.031837 0.999493 -0.999304 0.037307 73.1572 46.8071)" fill="white"/>
<ellipse cx="0.587207" cy="1.1102" rx="0.587207" ry="1.1102" transform="matrix(-0.986078 0.166284 -0.161995 -0.986791 74.6904 50.184)" fill="white"/>
<ellipse cx="0.585762" cy="1.11295" rx="0.585762" ry="1.11295" transform="matrix(-0.259801 0.965662 -0.96735 -0.253442 76.4141 47.9047)" fill="white"/>
<ellipse cx="75.215" cy="46.8325" rx="0.583832" ry="1.1166" transform="rotate(59.8698 75.215 46.8325)" fill="white"/>
<ellipse cx="73.6751" cy="47.5165" rx="0.993588" ry="0.987072" transform="rotate(-30.1302 73.6751 47.5165)" fill="#FECC73"/>
<path d="M76.1051 54.3731C74.8029 53.6992 71.8561 53.9684 73.4711 54.5998C74.7186 55.0876 75.5304 54.7536 76.1051 54.3731Z" stroke="#404040" stroke-width="0.376027"/>
<path d="M77.2799 54.391C77.7031 55.7924 76.8937 58.6325 76.5701 56.9322C76.3201 55.6187 76.799 54.8843 77.2799 54.391Z" stroke="#404040" stroke-width="0.376027"/>
<path d="M42.6138 74.4008L76.0709 54.9828" stroke="#404040" stroke-width="0.376027"/>
<ellipse cx="76.5866" cy="52.5945" rx="0.587686" ry="1.10928" transform="rotate(-30.1302 76.5866 52.5945)" fill="white"/>
<ellipse cx="0.585762" cy="1.11295" rx="0.585762" ry="1.11295" transform="matrix(0.96735 0.253442 -0.259801 0.965662 77.6304 51.2475)" fill="white"/>
<ellipse cx="0.584009" cy="1.11627" rx="0.584009" ry="1.11627" transform="matrix(0.676562 0.736386 -0.738245 0.674532 76.6997 53.9477)" fill="white"/>
<ellipse cx="0.584692" cy="1.11498" rx="0.584692" ry="1.11498" transform="matrix(0.031837 0.999493 -0.999304 0.037307 76.8818 53.229)" fill="white"/>
<ellipse cx="0.587207" cy="1.1102" rx="0.587207" ry="1.1102" transform="matrix(-0.986078 0.166284 -0.161995 -0.986791 78.4146 56.6079)" fill="white"/>
<ellipse cx="0.585762" cy="1.11295" rx="0.585762" ry="1.11295" transform="matrix(-0.259801 0.965662 -0.96735 -0.253442 80.1382 54.3266)" fill="white"/>
<ellipse cx="78.9401" cy="53.2544" rx="0.583832" ry="1.1166" transform="rotate(59.8698 78.9401 53.2544)" fill="white"/>
<ellipse cx="77.4007" cy="53.9394" rx="0.993588" ry="0.987072" transform="rotate(-30.1302 77.4007 53.9394)" fill="#FECC73"/>
<path d="M26.3462 46.3125C26.2505 46.1475 26.1891 45.9825 26.1622 45.8177C26.1362 45.6494 26.1421 45.487 26.1801 45.3303C26.2181 45.1736 26.2884 45.0282 26.3911 44.8941C26.4938 44.76 26.6253 44.6436 26.7857 44.5448C26.9482 44.4447 27.1388 44.3685 27.3576 44.316C27.4099 44.406 27.4627 44.4971 27.5162 44.5892C27.5684 44.6792 27.6207 44.7692 27.6729 44.8592C27.5117 44.8726 27.3664 44.9111 27.2371 44.9746C27.1079 45.0382 27.0053 45.1206 26.9294 45.222C26.8536 45.3233 26.813 45.4385 26.8078 45.5676C26.8012 45.6946 26.8403 45.8309 26.9248 45.9767C27.0094 46.1224 27.1091 46.225 27.2238 46.2845C27.3373 46.3418 27.4568 46.3626 27.5824 46.3471C27.708 46.3315 27.8305 46.2833 27.9498 46.2026C28.0691 46.1219 28.1746 46.0148 28.2662 45.8814C28.3184 45.9714 28.3713 46.0625 28.4248 46.1547C28.477 46.2447 28.5293 46.3347 28.5815 46.4247C28.4274 46.5886 28.2666 46.7163 28.0991 46.8078C27.9337 46.8981 27.7674 46.9545 27.6 46.9771C27.4327 46.9998 27.2716 46.9887 27.1167 46.944C26.9618 46.8992 26.8184 46.8249 26.6864 46.721C26.5554 46.6137 26.442 46.4775 26.3462 46.3125ZM28.9573 46.2582C28.7322 45.8703 28.5052 45.4792 28.2763 45.0849C28.0475 44.6905 27.8205 44.2994 27.5954 43.9116C27.6832 43.8606 27.7722 43.8089 27.8622 43.7567C27.9522 43.7045 28.04 43.6535 28.1257 43.6037C28.1991 43.7302 28.2738 43.8587 28.3496 43.9895C28.4243 44.1181 28.4983 44.2456 28.5716 44.372C28.6059 44.2977 28.6521 44.2293 28.7104 44.1668C28.7696 44.101 28.841 44.0438 28.9245 43.9953C29.0467 43.9244 29.17 43.8901 29.2945 43.8923C29.4211 43.8933 29.5406 43.9314 29.653 44.0065C29.7663 44.0783 29.8652 44.187 29.9498 44.3328C30.0468 44.4999 30.1445 44.6681 30.2427 44.8374C30.341 45.0067 30.4386 45.175 30.5356 45.3421C30.4499 45.3919 30.362 45.4429 30.272 45.4951C30.182 45.5473 30.0931 45.599 30.0052 45.65C29.9157 45.4957 29.8249 45.3392 29.7328 45.1806C29.6408 45.0221 29.55 44.8656 29.4604 44.7113C29.4107 44.6256 29.3505 44.5688 29.28 44.541C29.2103 44.5098 29.1326 44.5191 29.0469 44.5689C28.9612 44.6186 28.909 44.6818 28.8905 44.7585C28.872 44.8351 28.8894 44.9195 28.9429 45.0117C29.0325 45.166 29.1233 45.3224 29.2153 45.481C29.3073 45.6396 29.3981 45.796 29.4877 45.9503C29.402 46.0001 29.3141 46.0511 29.2241 46.1033C29.1341 46.1556 29.0452 46.2072 28.9573 46.2582ZM30.0738 43.1349C30.0116 43.171 29.9461 43.1889 29.8773 43.1888C29.8106 43.1874 29.7479 43.1707 29.6893 43.1389C29.6307 43.107 29.584 43.0611 29.5492 43.001C29.5144 42.941 29.4983 42.8788 29.5009 42.8142C29.5023 42.7475 29.5189 42.6848 29.5508 42.6262C29.5848 42.5664 29.6329 42.5184 29.6951 42.4824C29.7551 42.4475 29.8184 42.4308 29.8851 42.4322C29.954 42.4324 30.0177 42.4484 30.0763 42.4802C30.1337 42.51 30.1798 42.5548 30.2146 42.6149C30.2494 42.6749 30.2661 42.7382 30.2647 42.8049C30.2633 42.8716 30.2456 42.9349 30.2116 42.9947C30.1797 43.0534 30.1338 43.1001 30.0738 43.1349ZM30.8816 45.1413C30.7224 44.867 30.562 44.5906 30.4003 44.312C30.2373 44.0312 30.0763 43.7537 29.9171 43.4794C30.0049 43.4284 30.0939 43.3768 30.1839 43.3246C30.2739 43.2723 30.3617 43.2213 30.4475 43.1716C30.6067 43.4459 30.7677 43.7234 30.9307 44.0041C31.0924 44.2827 31.2528 44.5592 31.412 44.8335C31.3263 44.8832 31.2384 44.9342 31.1484 44.9865C31.0584 45.0387 30.9695 45.0903 30.8816 45.1413ZM31.7983 44.6093C31.5731 44.2214 31.3461 43.8303 31.1173 43.436C30.8884 43.0417 30.6614 42.6506 30.4363 42.2627C30.5242 42.2117 30.6131 42.1601 30.7031 42.1079C30.7931 42.0556 30.881 42.0046 30.9667 41.9549C31.1918 42.3428 31.4188 42.7339 31.6477 43.1282C31.8765 43.5225 32.1035 43.9136 32.3286 44.3015C32.2429 44.3512 32.1551 44.4022 32.0651 44.4545C31.9751 44.5067 31.8861 44.5583 31.7983 44.6093ZM33.8078 43.443C33.7979 43.4258 33.7886 43.4098 33.7798 43.3948C33.7699 43.3776 33.7606 43.3615 33.7519 43.3465C33.7244 43.4226 33.6832 43.4924 33.6283 43.5558C33.5768 43.62 33.5125 43.6746 33.4354 43.7193C33.3261 43.7828 33.2108 43.821 33.0894 43.8341C32.9681 43.8472 32.8476 43.837 32.7278 43.8034C32.6089 43.7664 32.497 43.7067 32.3919 43.6245C32.289 43.5409 32.2002 43.4349 32.1256 43.3063C32.0497 43.1756 32.0011 43.0448 31.9796 42.9141C31.9603 42.782 31.9646 42.6563 31.9927 42.5369C32.023 42.4162 32.0745 42.3075 32.1473 42.2108C32.2188 42.112 32.3082 42.0315 32.4154 41.9693C32.4925 41.9245 32.5728 41.8951 32.6563 41.881C32.7386 41.8648 32.8189 41.8625 32.8974 41.8743C32.8228 41.7457 32.7475 41.6161 32.6716 41.4853C32.5958 41.3546 32.5205 41.225 32.4459 41.0964C32.5338 41.0454 32.6227 40.9938 32.7127 40.9415C32.8027 40.8893 32.8906 40.8383 32.9763 40.7885C33.2014 41.1764 33.4284 41.5675 33.6573 41.9618C33.8861 42.3562 34.1131 42.7473 34.3382 43.1351C34.2525 43.1849 34.1646 43.2359 34.0746 43.2881C33.9846 43.3404 33.8957 43.392 33.8078 43.443ZM33.2337 43.209C33.3365 43.1493 33.3973 43.0639 33.4159 42.9528C33.4345 42.8417 33.4084 42.7251 33.3375 42.603C33.2666 42.4808 33.1789 42.4013 33.0745 42.3645C32.9688 42.3256 32.8645 42.336 32.7617 42.3957C32.6567 42.4566 32.5942 42.5416 32.5744 42.6505C32.5567 42.7582 32.5839 42.8742 32.656 42.9985C32.7281 43.1228 32.816 43.205 32.9195 43.2452C33.024 43.282 33.1287 43.2699 33.2337 43.209ZM34.724 42.9113C34.4989 42.5234 34.2719 42.1323 34.043 41.738C33.8142 41.3436 33.5872 40.9525 33.362 40.5647C33.4499 40.5137 33.5388 40.462 33.6288 40.4098C33.7189 40.3576 33.8067 40.3066 33.8924 40.2568C33.9658 40.3833 34.0404 40.5118 34.1163 40.6426C34.1909 40.7712 34.2649 40.8987 34.3383 41.0251C34.3726 40.9508 34.4188 40.8824 34.4771 40.8199C34.5363 40.7541 34.6077 40.6969 34.6912 40.6484C34.8134 40.5775 34.9367 40.5432 35.0612 40.5454C35.1878 40.5464 35.3073 40.5845 35.4197 40.6596C35.533 40.7314 35.6319 40.8401 35.7165 40.9859C35.8135 41.153 35.9111 41.3212 36.0094 41.4905C36.1077 41.6598 36.2053 41.8281 36.3023 41.9952C36.2166 42.045 36.1287 42.096 36.0387 42.1482C35.9487 42.2004 35.8598 42.2521 35.7719 42.3031C35.6824 42.1488 35.5916 41.9923 35.4995 41.8337C35.4075 41.6752 35.3167 41.5187 35.2271 41.3644C35.1774 41.2787 35.1172 41.2219 35.0467 41.1941C34.977 41.1629 34.8993 41.1722 34.8136 41.222C34.7279 41.2717 34.6757 41.3349 34.6572 41.4116C34.6386 41.4882 34.6561 41.5726 34.7096 41.6648C34.7992 41.8191 34.8899 41.9755 34.982 42.1341C35.074 42.2927 35.1648 42.4491 35.2544 42.6034C35.1687 42.6532 35.0808 42.7042 34.9908 42.7564C34.9008 42.8087 34.8118 42.8603 34.724 42.9113ZM37.4496 41.3981C37.3253 41.4702 37.1972 41.516 37.0652 41.5353C36.9319 41.5525 36.8026 41.5444 36.6773 41.5112C36.5507 41.4757 36.4339 41.4175 36.3267 41.3365C36.2216 41.2542 36.1324 41.1499 36.059 41.0234C35.9856 40.897 35.9393 40.7678 35.9199 40.6357C35.9028 40.5025 35.9108 40.3732 35.9441 40.2479C35.9773 40.1225 36.0351 40.0074 36.1174 39.9023C36.1984 39.7951 36.3011 39.7055 36.4254 39.6333C36.5518 39.5599 36.6806 39.5153 36.8117 39.4993C36.9438 39.48 37.0724 39.487 37.1977 39.5202C37.3231 39.5535 37.4382 39.6113 37.5433 39.6936C37.6505 39.7746 37.7408 39.8783 37.8141 40.0048C37.8875 40.1312 37.9328 40.2611 37.95 40.3943C37.9693 40.5264 37.963 40.6561 37.9309 40.7836C37.8977 40.9089 37.8405 41.0251 37.7595 41.1323C37.6794 41.2361 37.5761 41.3247 37.4496 41.3981ZM37.1717 40.9191C37.2767 40.8582 37.3385 40.7722 37.3571 40.6611C37.3766 40.5466 37.3522 40.4305 37.2837 40.3126C37.2141 40.1926 37.126 40.1148 37.0194 40.0793C36.9137 40.0403 36.8084 40.0513 36.7034 40.1123C36.5984 40.1732 36.5355 40.2599 36.5147 40.3722C36.4949 40.4811 36.5198 40.5956 36.5894 40.7156C36.6578 40.8335 36.7455 40.9129 36.8524 40.954C36.9602 40.9917 37.0666 40.9801 37.1717 40.9191ZM39.3771 40.2794C39.2528 40.3516 39.1246 40.3973 38.9926 40.4166C38.8593 40.4338 38.7301 40.4258 38.6047 40.3925C38.4782 40.3571 38.3613 40.2989 38.2541 40.2178C38.1491 40.1355 38.0599 40.0312 37.9865 39.9048C37.9131 39.7783 37.8667 39.6491 37.8474 39.5171C37.8302 39.3838 37.8383 39.2545 37.8715 39.1292C37.9048 39.0039 37.9626 38.8887 38.0449 38.7836C38.1259 38.6765 38.2286 38.5868 38.3528 38.5146C38.4793 38.4413 38.6081 38.3966 38.7392 38.3807C38.8712 38.3613 38.9999 38.3683 39.1252 38.4016C39.2505 38.4348 39.3657 38.4926 39.4707 38.5749C39.5779 38.6559 39.6682 38.7597 39.7416 38.8861C39.815 39.0125 39.8603 39.1424 39.8775 39.2757C39.8968 39.4077 39.8904 39.5374 39.8584 39.6649C39.8251 39.7902 39.768 39.9064 39.687 40.0136C39.6068 40.1174 39.5035 40.206 39.3771 40.2794ZM39.0991 39.8005C39.2041 39.7395 39.2659 39.6535 39.2845 39.5424C39.3041 39.428 39.2796 39.3118 39.2112 39.1939C39.1416 39.0739 39.0534 38.9961 38.9469 38.9606C38.8412 38.9217 38.7358 38.9327 38.6308 38.9936C38.5258 39.0546 38.4629 39.1412 38.4422 39.2535C38.4223 39.3624 38.4472 39.4769 38.5169 39.5969C38.5853 39.7148 38.6729 39.7943 38.7799 39.8353C38.8877 39.873 38.9941 39.8614 39.0991 39.8005ZM41.5962 38.9228C41.5862 38.9056 41.5769 38.8895 41.5682 38.8745C41.5582 38.8574 41.5489 38.8413 41.5402 38.8263C41.5127 38.9024 41.4716 38.9722 41.4167 39.0355C41.3652 39.0998 41.3008 39.1543 41.2237 39.1991C41.1144 39.2625 40.9991 39.3008 40.8778 39.3139C40.7565 39.327 40.6359 39.3168 40.5161 39.2832C40.3972 39.2461 40.2853 39.1865 40.1802 39.1042C40.0773 39.0207 39.9886 38.9147 39.9139 38.7861C39.8381 38.6554 39.7894 38.5246 39.7679 38.3938C39.7486 38.2618 39.753 38.1361 39.7811 38.0166C39.8113 37.8959 39.8628 37.7873 39.9356 37.6906C40.0072 37.5917 40.0965 37.5112 40.2037 37.449C40.2808 37.4043 40.3611 37.3748 40.4447 37.3608C40.5269 37.3445 40.6073 37.3423 40.6857 37.3541C40.6111 37.2255 40.5358 37.0958 40.46 36.9651C40.3841 36.8344 40.3089 36.7047 40.2342 36.5761C40.3221 36.5252 40.411 36.4735 40.501 36.4213C40.591 36.3691 40.6789 36.3181 40.7646 36.2683C40.9897 36.6562 41.2167 37.0473 41.4456 37.4416C41.6744 37.8359 41.9014 38.227 42.1266 38.6149C42.0408 38.6647 41.953 38.7157 41.863 38.7679C41.773 38.8201 41.684 38.8718 41.5962 38.9228ZM41.022 38.6887C41.1249 38.629 41.1856 38.5436 41.2042 38.4326C41.2228 38.3215 41.1967 38.2049 41.1258 38.0827C41.0549 37.9606 40.9672 37.8811 40.8628 37.8443C40.7571 37.8054 40.6529 37.8158 40.55 37.8755C40.445 37.9364 40.3826 38.0213 40.3627 38.1303C40.345 38.238 40.3722 38.354 40.4443 38.4782C40.5165 38.6025 40.6043 38.6848 40.7078 38.725C40.8123 38.7618 40.917 38.7497 41.022 38.6887ZM44.1424 36.7574C44.2195 36.8903 44.2454 37.0213 44.2202 37.1506C44.1958 37.2764 44.1327 37.3947 44.0308 37.5054C43.9289 37.6162 43.7989 37.7131 43.6409 37.7962C43.4862 37.8802 43.3166 37.9457 43.1319 37.9928C43.0846 37.9113 43.0361 37.8278 42.9863 37.742C42.9366 37.6563 42.8881 37.5727 42.8408 37.4913C42.9545 37.4798 43.0631 37.4597 43.1668 37.431C43.2693 37.4002 43.3581 37.3658 43.4335 37.3278C43.5088 37.2898 43.5647 37.2503 43.601 37.2091C43.636 37.1659 43.6424 37.125 43.62 37.0864C43.6026 37.0564 43.5696 37.044 43.5211 37.0492C43.4747 37.0532 43.4178 37.0662 43.3503 37.0882C43.2816 37.108 43.2073 37.1282 43.1276 37.1487C43.0487 37.1658 42.9687 37.1736 42.8875 37.172C42.8051 37.1682 42.7266 37.1465 42.652 37.1067C42.5782 37.0636 42.5121 36.9916 42.4537 36.8909C42.384 36.7709 42.3592 36.6492 42.3793 36.5258C42.4003 36.3991 42.4573 36.2801 42.5502 36.1688C42.642 36.0554 42.7607 35.9564 42.9065 35.8718C43.0522 35.7872 43.2154 35.7254 43.3962 35.6864C43.4434 35.7678 43.492 35.8514 43.5417 35.9371C43.5915 36.0229 43.64 36.1064 43.6872 36.1879C43.5336 36.1997 43.3987 36.2264 43.2825 36.268C43.1663 36.3097 43.0804 36.3567 43.0249 36.409C42.968 36.4592 42.9527 36.5068 42.9788 36.5518C42.9962 36.5818 43.0281 36.5948 43.0745 36.5908C43.1218 36.5834 43.1781 36.5693 43.2434 36.5486C43.3109 36.5266 43.384 36.5071 43.4629 36.49C43.5439 36.4716 43.6245 36.4649 43.7048 36.4699C43.7859 36.4715 43.864 36.4949 43.939 36.5402C44.0149 36.5821 44.0827 36.6545 44.1424 36.7574ZM44.8704 37.0224C44.756 36.8253 44.6409 36.6271 44.5252 36.4278C44.4096 36.2285 44.2951 36.0313 44.182 35.8363C44.1391 35.8612 44.0952 35.8867 44.0502 35.9128C44.0073 35.9376 43.9644 35.9625 43.9216 35.9874C43.8756 35.9081 43.8295 35.8288 43.7835 35.7495C43.7375 35.6702 43.6915 35.5909 43.6455 35.5116C43.6883 35.4868 43.7312 35.4619 43.774 35.437C43.819 35.4109 43.863 35.3854 43.9058 35.3605C43.8623 35.2855 43.8194 35.2116 43.7771 35.1387C43.7336 35.0637 43.6907 34.9898 43.6484 34.9169C43.7362 34.8659 43.8252 34.8143 43.9152 34.7621C44.0052 34.7098 44.093 34.6588 44.1788 34.6091C44.2211 34.682 44.264 34.7559 44.3075 34.8309C44.3498 34.9038 44.3927 34.9777 44.4362 35.0527C44.4855 35.0241 44.5359 34.9949 44.5873 34.965C44.6387 34.9352 44.6891 34.9059 44.7384 34.8773C44.7844 34.9566 44.8304 35.0359 44.8765 35.1152C44.9225 35.1945 44.9685 35.2738 45.0145 35.3531C44.9652 35.3817 44.9149 35.4109 44.8634 35.4408C44.812 35.4706 44.7616 35.4998 44.7124 35.5284C44.8255 35.7235 44.94 35.9206 45.0556 36.1199C45.1713 36.3192 45.2864 36.5174 45.4008 36.7146C45.3151 36.7644 45.2272 36.8154 45.1372 36.8676C45.0472 36.9198 44.9582 36.9714 44.8704 37.0224ZM47.0521 35.7562C47.0421 35.7391 47.0328 35.723 47.0241 35.708C47.0141 35.6909 47.0048 35.6748 46.9961 35.6598C46.9686 35.7359 46.9275 35.8056 46.8726 35.869C46.8211 35.9333 46.7567 35.9878 46.6796 36.0326C46.5703 36.096 46.4556 36.1353 46.3355 36.1506C46.2142 36.1637 46.0937 36.1535 45.9739 36.1198C45.855 36.0828 45.7431 36.0232 45.638 35.9409C45.5351 35.8574 45.4457 35.7503 45.3698 35.6196C45.2927 35.4867 45.2434 35.3549 45.222 35.2241C45.2026 35.0921 45.2076 34.9674 45.237 34.8501C45.2672 34.7294 45.3187 34.6207 45.3915 34.524C45.4631 34.4252 45.5524 34.3447 45.6596 34.2825C45.7367 34.2377 45.8171 34.2083 45.9006 34.1942C45.9828 34.178 46.0632 34.1758 46.1416 34.1875C46.1317 34.1704 46.1223 34.1543 46.1136 34.1393C46.1049 34.1243 46.0962 34.1093 46.0875 34.0943C46.1754 34.0433 46.2643 33.9917 46.3543 33.9395C46.4443 33.8872 46.5322 33.8362 46.6179 33.7865C46.7771 34.0608 46.9382 34.3383 47.1011 34.619C47.2628 34.8976 47.4233 35.1741 47.5825 35.4484C47.4967 35.4981 47.4089 35.5491 47.3189 35.6014C47.2289 35.6536 47.1399 35.7052 47.0521 35.7562ZM46.4779 35.5222C46.5808 35.4625 46.6415 35.3771 46.6601 35.266C46.6788 35.155 46.6526 35.0384 46.5817 34.9162C46.5108 34.794 46.4232 34.7146 46.3187 34.6778C46.213 34.6388 46.1088 34.6492 46.0059 34.7089C45.9009 34.7699 45.8385 34.8548 45.8186 34.9637C45.8009 35.0714 45.8281 35.1874 45.9002 35.3117C45.9724 35.436 46.0602 35.5183 46.1638 35.5584C46.2682 35.5952 46.3729 35.5831 46.4779 35.5222ZM49.342 34.0662C49.4477 34.2484 49.4964 34.4235 49.488 34.5917C49.4817 34.7586 49.4285 34.9113 49.3283 35.0496C49.2294 35.1901 49.0937 35.3118 48.9214 35.4147C48.7512 35.5164 48.5552 35.5958 48.3334 35.6529C48.2849 35.5693 48.2357 35.4847 48.186 35.3989C48.1375 35.3154 48.089 35.2318 48.0405 35.1482C48.2483 35.1164 48.4208 35.0607 48.558 34.9811C48.6964 34.9036 48.7897 34.8151 48.8379 34.7155C48.887 34.6125 48.8835 34.5128 48.8275 34.4164C48.8213 34.4056 48.8157 34.396 48.8108 34.3874C48.8045 34.3767 48.7989 34.3671 48.794 34.3585C48.764 34.4303 48.7205 34.4985 48.6635 34.5631C48.6065 34.6278 48.5372 34.6837 48.4558 34.731C48.3208 34.8093 48.1817 34.8485 48.0384 34.8486C47.8961 34.8452 47.7626 34.8052 47.6379 34.7286C47.512 34.6499 47.4055 34.5355 47.3185 34.3855C47.2513 34.2698 47.209 34.1525 47.1916 34.0337C47.1742 33.9148 47.1793 33.8002 47.2068 33.6896C47.2343 33.5791 47.2815 33.4801 47.3482 33.3927C47.4137 33.3031 47.4946 33.2304 47.5911 33.1744C47.6682 33.1296 47.7462 33.0987 47.8251 33.0816C47.904 33.0644 47.9797 33.0592 48.0523 33.0657C48.0436 33.0507 48.0355 33.0368 48.028 33.0239C48.0205 33.0111 48.0125 32.9972 48.0038 32.9822C48.0916 32.9312 48.1806 32.8795 48.2706 32.8273C48.3606 32.7751 48.4484 32.7241 48.5342 32.6743C48.6672 32.9036 48.8022 33.1361 48.939 33.3719C49.0746 33.6055 49.2089 33.8369 49.342 34.0662ZM48.3208 34.1948C48.4108 34.1426 48.4664 34.073 48.4877 33.9862C48.5098 33.896 48.4947 33.8059 48.4425 33.7159C48.389 33.6238 48.3176 33.5649 48.2283 33.5394C48.1412 33.5126 48.0526 33.5254 47.9626 33.5776C47.8683 33.6323 47.8101 33.7048 47.7879 33.795C47.7646 33.883 47.7802 33.9742 47.835 34.0685C47.8884 34.1607 47.9592 34.2184 48.0473 34.2418C48.1353 34.2652 48.2265 34.2495 48.3208 34.1948ZM51.237 33.2242C51.1252 33.3722 51.0008 33.4959 50.8638 33.5955C50.7268 33.6951 50.5836 33.7667 50.4342 33.8105C50.2882 33.8551 50.1431 33.8691 49.9988 33.8526C49.8546 33.836 49.7199 33.7867 49.5949 33.7046C49.472 33.6212 49.3664 33.5034 49.2781 33.3512C49.2047 33.2248 49.1579 33.0973 49.1377 32.9686C49.1184 32.8366 49.1243 32.7086 49.1554 32.5845C49.1853 32.4583 49.2403 32.3433 49.3204 32.2395C49.3993 32.1335 49.5009 32.0445 49.6252 31.9723C49.7367 31.9077 49.848 31.8674 49.9591 31.8516C50.0703 31.8358 50.1783 31.8418 50.2833 31.8697C50.3871 31.8954 50.4854 31.9415 50.5784 32.0079C50.6713 32.0742 50.7543 32.1579 50.8272 32.2588C50.9001 32.3598 50.9596 32.4771 51.0056 32.6108C50.8299 32.7128 50.6531 32.8154 50.4752 32.9186C50.2974 33.0218 50.1206 33.1244 49.9448 33.2264C50.0328 33.2842 50.1339 33.3029 50.2481 33.2825C50.3644 33.2608 50.4842 33.2056 50.6075 33.1169C50.7329 33.0269 50.8544 32.9105 50.9721 32.7677C51.0156 32.8427 51.0598 32.9188 51.1046 32.996C51.1493 33.0731 51.1935 33.1492 51.237 33.2242ZM49.8885 32.4555C49.8263 32.4916 49.7784 32.5423 49.7447 32.6077C49.7132 32.6719 49.704 32.7474 49.7172 32.8343C49.8137 32.7783 49.9101 32.7223 50.0065 32.6664C50.1051 32.6091 50.2026 32.5525 50.2991 32.4966C50.2311 32.4386 50.162 32.4085 50.0919 32.4062C50.0227 32.4005 49.9549 32.417 49.8885 32.4555Z" fill="#2F4ECD"/>
<path d="M30.7393 53.6584C30.5303 53.2984 30.3189 52.9341 30.1049 52.5655C29.891 52.1969 29.6796 51.8326 29.4706 51.4725C29.5649 51.4178 29.6592 51.3631 29.7535 51.3083C29.8478 51.2536 29.941 51.1995 30.0332 51.146C30.1936 51.4225 30.3559 51.7021 30.5201 51.985C30.683 52.2658 30.8447 52.5444 31.0052 52.8208C31.1187 52.7549 31.2334 52.6883 31.3491 52.6212C31.4648 52.554 31.5784 52.4881 31.6899 52.4234C31.7384 52.507 31.7881 52.5927 31.8391 52.6806C31.8889 52.7663 31.938 52.851 31.9865 52.9345C31.7808 53.0539 31.5729 53.1746 31.3629 53.2965C31.1529 53.4184 30.945 53.539 30.7393 53.6584ZM31.4693 50.7595C31.4071 50.7955 31.3416 50.8135 31.2728 50.8133C31.2061 50.8119 31.1434 50.7953 31.0848 50.7634C31.0262 50.7315 30.9795 50.6856 30.9447 50.6256C30.9098 50.5656 30.8937 50.5033 30.8964 50.4388C30.8978 50.3721 30.9144 50.3094 30.9463 50.2508C30.9803 50.1909 31.0284 50.143 31.0905 50.1069C31.1505 50.0721 31.2139 50.0554 31.2806 50.0568C31.3494 50.0569 31.4132 50.0729 31.4718 50.1048C31.5291 50.1345 31.5752 50.1794 31.6101 50.2394C31.6449 50.2994 31.6616 50.3628 31.6602 50.4295C31.6588 50.4962 31.6411 50.5595 31.6071 50.6193C31.5752 50.6779 31.5293 50.7246 31.4693 50.7595ZM32.2771 52.7659C32.1179 52.4916 31.9574 52.2151 31.7957 51.9365C31.6328 51.6558 31.4717 51.3783 31.3125 51.104C31.4004 51.053 31.4893 51.0014 31.5793 50.9491C31.6693 50.8969 31.7572 50.8459 31.8429 50.7961C32.0021 51.0704 32.1632 51.348 32.3261 51.6287C32.4878 51.9073 32.6483 52.1837 32.8075 52.458C32.7218 52.5078 32.6339 52.5588 32.5439 52.611C32.4539 52.6633 32.3649 52.7149 32.2771 52.7659ZM33.5602 52.0212C33.3067 51.8016 33.0498 51.5811 32.7895 51.3597C32.5302 51.135 32.2737 50.9128 32.0202 50.6932C32.1124 50.6397 32.2045 50.5863 32.2967 50.5328C32.391 50.4781 32.4842 50.4239 32.5763 50.3705C32.7303 50.5074 32.8849 50.6455 33.0401 50.7846C33.1963 50.9203 33.3502 51.0572 33.5021 51.1954C33.4595 50.9938 33.417 50.7922 33.3745 50.5905C33.3307 50.3868 33.2864 50.1847 33.2418 49.9843C33.3318 49.932 33.4228 49.8792 33.515 49.8257C33.6071 49.7722 33.6982 49.7193 33.7882 49.6671C33.8531 49.9961 33.9178 50.3296 33.9821 50.6676C34.0474 51.0021 34.1125 51.3339 34.1774 51.663C34.0767 51.7214 33.9738 51.7811 33.8688 51.8421C33.7638 51.903 33.6609 51.9627 33.5602 52.0212ZM36.2679 50.3465C36.1561 50.4945 36.0317 50.6183 35.8947 50.7178C35.7577 50.8174 35.6145 50.8891 35.4651 50.9328C35.3191 50.9774 35.174 50.9915 35.0297 50.9749C34.8855 50.9584 34.7508 50.909 34.6258 50.8269C34.5029 50.7435 34.3973 50.6257 34.309 50.4736C34.2356 50.3471 34.1888 50.2196 34.1686 50.0909C34.1493 49.9589 34.1552 49.8309 34.1863 49.7068C34.2162 49.5806 34.2712 49.4656 34.3513 49.3618C34.4302 49.2558 34.5318 49.1668 34.6561 49.0946C34.7675 49.03 34.8788 48.9897 34.99 48.9739C35.1011 48.9581 35.2092 48.9642 35.3142 48.992C35.4179 49.0178 35.5163 49.0638 35.6093 49.1302C35.7022 49.1966 35.7851 49.2802 35.858 49.3812C35.931 49.4821 35.9904 49.5994 36.0365 49.7331C35.8608 49.8351 35.684 49.9377 35.5061 50.0409C35.3283 50.1442 35.1515 50.2468 34.9757 50.3488C35.0637 50.4066 35.1648 50.4252 35.279 50.4048C35.3953 50.3831 35.5151 50.3279 35.6384 50.2392C35.7638 50.1492 35.8853 50.0328 36.003 49.8901C36.0465 49.9651 36.0907 50.0411 36.1355 50.1183C36.1802 50.1954 36.2244 50.2715 36.2679 50.3465ZM34.9194 49.5779C34.8572 49.6139 34.8093 49.6647 34.7756 49.73C34.7441 49.7942 34.7349 49.8697 34.7481 49.9566C34.8446 49.9006 34.941 49.8446 35.0374 49.7887C35.136 49.7315 35.2335 49.6749 35.3299 49.6189C35.2619 49.561 35.1929 49.5308 35.1228 49.5285C35.0536 49.5229 34.9858 49.5393 34.9194 49.5779ZM36.7222 50.186C36.4971 49.7981 36.2701 49.407 36.0412 49.0127C35.8124 48.6184 35.5854 48.2273 35.3602 47.8394C35.4481 47.7884 35.537 47.7368 35.627 47.6846C35.7171 47.6323 35.8049 47.5813 35.8906 47.5316C36.1158 47.9195 36.3428 48.3106 36.5716 48.7049C36.8005 49.0992 37.0274 49.4903 37.2526 49.8782C37.1669 49.9279 37.079 49.9789 36.989 50.0312C36.899 50.0834 36.81 50.135 36.7222 50.186ZM38.0755 50.0881C38.0525 49.9497 38.0299 49.8095 38.0077 49.6677C37.9889 49.5267 37.9687 49.3881 37.9468 49.2518C37.7031 49.0638 37.4559 48.8749 37.2054 48.6851C36.9558 48.4919 36.7091 48.3014 36.4653 48.1134C36.5596 48.0586 36.6539 48.0039 36.7482 47.9492C36.8425 47.8945 36.9357 47.8404 37.0279 47.7869C37.1632 47.8917 37.2998 47.9986 37.4376 48.1077C37.5775 48.2156 37.7158 48.323 37.8523 48.43C37.8229 48.2608 37.794 48.09 37.7654 47.9174C37.7369 47.7449 37.7086 47.5751 37.6804 47.4081C37.7726 47.3547 37.8647 47.3012 37.9569 47.2477C38.049 47.1942 38.1412 47.1407 38.2333 47.0872C38.2974 47.5285 38.3636 47.9757 38.4318 48.4288C38.5009 48.8786 38.5675 49.3241 38.6317 49.7653C38.5395 49.8188 38.4463 49.8729 38.352 49.9277C38.2598 49.9811 38.1677 50.0346 38.0755 50.0881ZM41.1427 47.6204C41.1327 47.6033 41.1234 47.5872 41.1147 47.5722C41.1047 47.5551 41.0954 47.539 41.0867 47.524C41.0592 47.6001 41.0181 47.6698 40.9632 47.7332C40.9117 47.7975 40.8473 47.852 40.7702 47.8968C40.6609 47.9602 40.5462 47.9996 40.4261 48.0148C40.3048 48.0279 40.1843 48.0177 40.0645 47.984C39.9456 47.947 39.8336 47.8874 39.7286 47.8051C39.6257 47.7216 39.5363 47.6145 39.4604 47.4838C39.3833 47.3509 39.334 47.2191 39.3126 47.0883C39.2932 46.9563 39.2982 46.8316 39.3276 46.7143C39.3578 46.5936 39.4093 46.4849 39.4821 46.3883C39.5537 46.2894 39.643 46.2089 39.7502 46.1467C39.8273 46.1019 39.9076 46.0725 39.9911 46.0584C40.0734 46.0422 40.1538 46.04 40.2322 46.0517C40.2223 46.0346 40.2129 46.0185 40.2042 46.0035C40.1955 45.9885 40.1868 45.9735 40.1781 45.9585C40.266 45.9075 40.3549 45.8559 40.4449 45.8037C40.5349 45.7514 40.6228 45.7004 40.7085 45.6507C40.8677 45.925 41.0288 46.2025 41.1917 46.4832C41.3534 46.7618 41.5138 47.0383 41.6731 47.3126C41.5873 47.3623 41.4995 47.4133 41.4095 47.4656C41.3195 47.5178 41.2305 47.5694 41.1427 47.6204ZM40.5685 47.3864C40.6714 47.3267 40.7321 47.2413 40.7507 47.1302C40.7693 47.0192 40.7432 46.9026 40.6723 46.7804C40.6014 46.6583 40.5137 46.5788 40.4093 46.542C40.3036 46.5031 40.1994 46.5134 40.0965 46.5731C39.9915 46.6341 39.9291 46.719 39.9092 46.828C39.8915 46.9356 39.9187 47.0516 39.9908 47.1759C40.063 47.3002 40.1508 47.3825 40.2543 47.4226C40.3588 47.4594 40.4635 47.4474 40.5685 47.3864ZM42.027 47.1072C41.8678 46.8328 41.7074 46.5564 41.5457 46.2778C41.3828 45.9971 41.2217 45.7196 41.0625 45.4452C41.1503 45.3942 41.2393 45.3426 41.3293 45.2904C41.4193 45.2382 41.5072 45.1872 41.5929 45.1374C41.6016 45.1524 41.6097 45.1663 41.6171 45.1792C41.6246 45.1921 41.6327 45.206 41.6414 45.221C41.6756 45.1467 41.7219 45.0783 41.7802 45.0158C41.8393 44.95 41.9107 44.8928 41.9943 44.8443C42.1164 44.7734 42.2398 44.739 42.3642 44.7413C42.4909 44.7423 42.6104 44.7804 42.7228 44.8555C42.836 44.9273 42.935 45.036 43.0195 45.1818C43.1166 45.3489 43.2142 45.5171 43.3125 45.6864C43.4107 45.8557 43.5083 46.024 43.6054 46.1911C43.5196 46.2409 43.4318 46.2919 43.3418 46.3441C43.2518 46.3963 43.1628 46.448 43.075 46.4989C42.9854 46.3447 42.8946 46.1882 42.8026 46.0296C42.7105 45.871 42.6197 45.7146 42.5302 45.5603C42.4804 45.4746 42.4203 45.4178 42.3497 45.39C42.28 45.3588 42.2023 45.3681 42.1166 45.4179C42.0309 45.4676 41.9788 45.5308 41.9602 45.6075C41.9417 45.6841 41.9592 45.7685 42.0127 45.8607C42.1022 46.015 42.193 46.1714 42.285 46.33C42.3771 46.4886 42.4679 46.645 42.5574 46.7993C42.4717 46.8491 42.3838 46.9001 42.2938 46.9523C42.2038 47.0045 42.1149 47.0562 42.027 47.1072ZM45.0415 45.3576C45.0316 45.3404 45.0222 45.3244 45.0135 45.3094C45.0036 45.2922 44.9943 45.2762 44.9856 45.2611C44.9581 45.3372 44.9169 45.407 44.862 45.4704C44.8105 45.5346 44.7462 45.5892 44.669 45.6339C44.5598 45.6974 44.4444 45.7356 44.3231 45.7487C44.2018 45.7619 44.0813 45.7516 43.9615 45.718C43.8426 45.681 43.7306 45.6213 43.6256 45.5391C43.5227 45.4555 43.4339 45.3495 43.3593 45.2209C43.2834 45.0902 43.2348 44.9594 43.2133 44.8287C43.194 44.6966 43.1983 44.5709 43.2264 44.4515C43.2567 44.3308 43.3082 44.2221 43.381 44.1254C43.4525 44.0266 43.5419 43.9461 43.649 43.8839C43.7262 43.8391 43.8065 43.8097 43.89 43.7956C43.9723 43.7794 44.0526 43.7771 44.1311 43.7889C44.0565 43.6603 43.9812 43.5307 43.9053 43.3999C43.8295 43.2692 43.7542 43.1396 43.6796 43.011C43.7675 42.96 43.8564 42.9084 43.9464 42.8561C44.0364 42.8039 44.1243 42.7529 44.21 42.7031C44.4351 43.091 44.6621 43.4821 44.891 43.8764C45.1198 44.2708 45.3468 44.6619 45.5719 45.0498C45.4862 45.0995 45.3983 45.1505 45.3083 45.2027C45.2183 45.255 45.1294 45.3066 45.0415 45.3576ZM44.4674 45.1236C44.5702 45.0639 44.631 44.9785 44.6496 44.8674C44.6682 44.7563 44.6421 44.6397 44.5712 44.5176C44.5003 44.3954 44.4126 44.3159 44.3082 44.2791C44.2025 44.2402 44.0982 44.2506 43.9954 44.3103C43.8904 44.3712 43.8279 44.4562 43.8081 44.5651C43.7903 44.6728 43.8176 44.7888 43.8897 44.9131C43.9618 45.0374 44.0497 45.1196 44.1532 45.1598C44.2576 45.1966 44.3624 45.1845 44.4674 45.1236ZM45.8248 42.4277C45.7626 42.4638 45.6971 42.4818 45.6283 42.4816C45.5616 42.4802 45.4989 42.4636 45.4403 42.4317C45.3817 42.3998 45.335 42.3539 45.3002 42.2939C45.2653 42.2339 45.2492 42.1716 45.2519 42.107C45.2533 42.0403 45.2699 41.9777 45.3018 41.9191C45.3358 41.8592 45.3839 41.8113 45.446 41.7752C45.506 41.7404 45.5694 41.7236 45.6361 41.725C45.705 41.7252 45.7687 41.7412 45.8273 41.7731C45.8847 41.8028 45.9307 41.8477 45.9656 41.9077C46.0004 41.9677 46.0171 42.031 46.0157 42.0978C46.0143 42.1645 45.9966 42.2277 45.9626 42.2876C45.9307 42.3462 45.8848 42.3929 45.8248 42.4277ZM46.6326 44.4342C46.4734 44.1598 46.3129 43.8834 46.1513 43.6048C45.9883 43.3241 45.8272 43.0465 45.668 42.7722C45.7559 42.7212 45.8448 42.6696 45.9348 42.6174C46.0249 42.5652 46.1127 42.5142 46.1984 42.4644C46.3576 42.7387 46.5187 43.0162 46.6816 43.297C46.8433 43.5756 47.0038 43.852 47.163 44.1263C47.0773 44.1761 46.9894 44.2271 46.8994 44.2793C46.8094 44.3315 46.7205 44.3832 46.6326 44.4342ZM47.5332 43.9115C47.374 43.6372 47.2135 43.3607 47.0518 43.0821C46.8889 42.8014 46.7278 42.5239 46.5686 42.2496C46.6565 42.1986 46.7454 42.147 46.8354 42.0947C46.9254 42.0425 47.0133 41.9915 47.099 41.9417C47.1077 41.9567 47.1158 41.9707 47.1233 41.9835C47.1307 41.9964 47.1388 42.0103 47.1475 42.0253C47.1817 41.951 47.228 41.8826 47.2863 41.8201C47.3455 41.7543 47.4168 41.6971 47.5004 41.6486C47.6226 41.5777 47.7459 41.5434 47.8704 41.5456C47.997 41.5466 48.1165 41.5847 48.2289 41.6598C48.3422 41.7316 48.4411 41.8403 48.5257 41.9861C48.6227 42.1532 48.7203 42.3215 48.8186 42.4908C48.9168 42.6601 49.0145 42.8283 49.1115 42.9954C49.0258 43.0452 48.9379 43.0962 48.8479 43.1484C48.7579 43.2007 48.669 43.2523 48.5811 43.3033C48.4915 43.149 48.4008 42.9925 48.3087 42.8339C48.2167 42.6754 48.1259 42.5189 48.0363 42.3646C47.9866 42.2789 47.9264 42.2221 47.8558 42.1943C47.7862 42.1632 47.7085 42.1724 47.6228 42.2222C47.537 42.2719 47.4849 42.3351 47.4664 42.4118C47.4478 42.4884 47.4653 42.5728 47.5188 42.665C47.6083 42.8193 47.6991 42.9757 47.7912 43.1343C47.8832 43.2929 47.974 43.4493 48.0636 43.6036C47.9778 43.6534 47.89 43.7044 47.8 43.7566C47.71 43.8089 47.621 43.8605 47.5332 43.9115ZM49.4386 42.8056C49.2794 42.5313 49.119 42.2548 48.9573 41.9762C48.7944 41.6955 48.6333 41.418 48.4741 41.1436C48.562 41.0927 48.6509 41.041 48.7409 40.9888C48.8309 40.9366 48.9188 40.8856 49.0045 40.8358C49.0132 40.8508 49.0213 40.8647 49.0288 40.8776C49.0362 40.8905 49.0443 40.9044 49.053 40.9194C49.0872 40.8451 49.1335 40.7767 49.1918 40.7142C49.251 40.6484 49.3223 40.5912 49.4059 40.5427C49.5281 40.4718 49.6514 40.4375 49.7759 40.4397C49.9025 40.4407 50.022 40.4788 50.1344 40.5539C50.2477 40.6257 50.3466 40.7344 50.4312 40.8802C50.5282 41.0473 50.6258 41.2155 50.7241 41.3848C50.8223 41.5541 50.92 41.7224 51.017 41.8895C50.9313 41.9393 50.8434 41.9903 50.7534 42.0425C50.6634 42.0947 50.5744 42.1464 50.4866 42.1974C50.397 42.0431 50.3062 41.8866 50.2142 41.728C50.1222 41.5694 50.0314 41.413 49.9418 41.2587C49.8921 41.173 49.8319 41.1162 49.7613 41.0884C49.6917 41.0572 49.614 41.0665 49.5282 41.1163C49.4425 41.166 49.3904 41.2292 49.3719 41.3059C49.3533 41.3825 49.3708 41.4669 49.4243 41.5591C49.5138 41.7134 49.6046 41.8698 49.6967 42.0284C49.7887 42.187 49.8795 42.3434 49.969 42.4977C49.8833 42.5475 49.7955 42.5985 49.7055 42.6507C49.6154 42.7029 49.5265 42.7546 49.4386 42.8056ZM52.1615 41.294C52.0373 41.3661 51.9091 41.4119 51.7771 41.4312C51.6438 41.4484 51.5145 41.4403 51.3892 41.4071C51.2626 41.3716 51.1458 41.3134 51.0386 41.2324C50.9335 41.1501 50.8443 41.0458 50.7709 40.9193C50.6975 40.7929 50.6512 40.6636 50.6319 40.5316C50.6147 40.3984 50.6227 40.2691 50.656 40.1438C50.6893 40.0184 50.747 39.9033 50.8293 39.7982C50.9103 39.691 51.013 39.6014 51.1373 39.5292C51.2637 39.4558 51.3925 39.4112 51.5236 39.3952C51.6557 39.3759 51.7843 39.3829 51.9097 39.4161C52.035 39.4494 52.1501 39.5072 52.2552 39.5895C52.3624 39.6705 52.4527 39.7742 52.5261 39.9007C52.5994 40.0271 52.6447 40.157 52.6619 40.2902C52.6812 40.4223 52.6749 40.552 52.6429 40.6795C52.6096 40.8048 52.5524 40.921 52.4714 41.0282C52.3913 41.132 52.288 41.2206 52.1615 41.294ZM51.8836 40.815C51.9886 40.7541 52.0504 40.6681 52.069 40.557C52.0885 40.4425 52.0641 40.3264 51.9957 40.2085C51.926 40.0885 51.8379 40.0107 51.7313 39.9752C51.6256 39.9362 51.5203 39.9472 51.4153 40.0082C51.3103 40.0691 51.2474 40.1558 51.2266 40.2681C51.2068 40.377 51.2317 40.4915 51.3013 40.6115C51.3697 40.7294 51.4574 40.8088 51.5643 40.8499C51.6721 40.8876 51.7786 40.876 51.8836 40.815ZM52.6984 39.8006C52.6039 39.6378 52.5544 39.476 52.5499 39.3153C52.5442 39.1524 52.5785 38.9993 52.6528 38.8559C52.7272 38.7125 52.8382 38.5879 52.9859 38.4821C53.1324 38.3741 53.3102 38.2953 53.5191 38.2457C53.5664 38.3271 53.6143 38.4096 53.6628 38.4932C53.7113 38.5768 53.7592 38.6593 53.8064 38.7407C53.6473 38.7528 53.5122 38.794 53.4011 38.8642C53.29 38.9344 53.2173 39.0239 53.183 39.1326C53.1475 39.2392 53.167 39.3568 53.2416 39.4854C53.3163 39.6139 53.4093 39.6903 53.5207 39.7144C53.6309 39.7364 53.744 39.7166 53.8601 39.655C53.9749 39.5912 54.0777 39.4943 54.1684 39.3643C54.2156 39.4458 54.2635 39.5283 54.312 39.6118C54.3605 39.6954 54.4084 39.7779 54.4557 39.8594C54.3089 40.0162 54.1523 40.1314 53.9859 40.2051C53.8208 40.2809 53.6575 40.3154 53.4961 40.3089C53.3347 40.3023 53.1854 40.2572 53.048 40.1736C52.9095 40.0878 52.7929 39.9635 52.6984 39.8006ZM56.1704 38.7954C56.0586 38.9434 55.9342 39.0672 55.7971 39.1668C55.6601 39.2663 55.5169 39.338 55.3675 39.3817C55.2216 39.4263 55.0764 39.4404 54.9322 39.4238C54.7879 39.4073 54.6533 39.3579 54.5283 39.2758C54.4054 39.1924 54.2998 39.0746 54.2115 38.9225C54.1381 38.796 54.0913 38.6685 54.0711 38.5399C54.0517 38.4078 54.0576 38.2798 54.0888 38.1557C54.1186 38.0295 54.1737 37.9145 54.2538 37.8107C54.3327 37.7047 54.4343 37.6157 54.5586 37.5436C54.67 37.4789 54.7813 37.4386 54.8924 37.4228C55.0036 37.407 55.1117 37.4131 55.2167 37.4409C55.3204 37.4667 55.4188 37.5127 55.5117 37.5791C55.6047 37.6455 55.6876 37.7291 55.7605 37.8301C55.8334 37.931 55.8929 38.0483 55.939 38.182C55.7632 38.284 55.5864 38.3866 55.4086 38.4898C55.2307 38.5931 55.0539 38.6957 54.8782 38.7977C54.9662 38.8555 55.0672 38.8742 55.1814 38.8537C55.2978 38.832 55.4176 38.7768 55.5408 38.6881C55.6662 38.5981 55.7878 38.4818 55.9055 38.339C55.949 38.414 55.9931 38.4901 56.0379 38.5672C56.0827 38.6443 56.1268 38.7204 56.1704 38.7954ZM54.8218 38.0268C54.7597 38.0628 54.7118 38.1136 54.6781 38.179C54.6466 38.2431 54.6374 38.3186 54.6506 38.4055C54.747 38.3495 54.8434 38.2936 54.9399 38.2376C55.0385 38.1804 55.136 38.1238 55.2324 38.0678C55.1644 38.0099 55.0953 37.9798 55.0253 37.9775C54.9561 37.9718 54.8883 37.9882 54.8218 38.0268ZM56.6086 38.6443C56.4494 38.3699 56.2889 38.0935 56.1272 37.8149C55.9643 37.5342 55.8032 37.2566 55.644 36.9823C55.7319 36.9313 55.8208 36.8797 55.9108 36.8275C56.0008 36.7753 56.0887 36.7243 56.1744 36.6745C56.1831 36.6895 56.1912 36.7034 56.1987 36.7163C56.2061 36.7292 56.2142 36.7431 56.2229 36.7581C56.2571 36.6838 56.3034 36.6154 56.3617 36.5529C56.4209 36.4871 56.4922 36.4299 56.5758 36.3814C56.698 36.3105 56.8213 36.2761 56.9458 36.2784C57.0724 36.2794 57.1919 36.3175 57.3043 36.3926C57.4176 36.4644 57.5165 36.5731 57.6011 36.7189C57.6981 36.886 57.7957 37.0542 57.894 37.2235C57.9922 37.3928 58.0899 37.5611 58.1869 37.7282C58.1012 37.778 58.0133 37.829 57.9233 37.8812C57.8333 37.9334 57.7444 37.9851 57.6565 38.036C57.5669 37.8818 57.4761 37.7253 57.3841 37.5667C57.2921 37.4081 57.2013 37.2517 57.1117 37.0974C57.062 37.0117 57.0018 36.9549 56.9312 36.9271C56.8616 36.8959 56.7839 36.9052 56.6982 36.955C56.6124 37.0047 56.5603 37.0679 56.5418 37.1446C56.5232 37.2212 56.5407 37.3056 56.5942 37.3978C56.6837 37.5521 56.7745 37.7085 56.8666 37.8671C56.9586 38.0257 57.0494 38.1821 57.139 38.3364C57.0532 38.3862 56.9654 38.4372 56.8754 38.4894C56.7854 38.5416 56.6964 38.5933 56.6086 38.6443ZM58.6876 37.4376C58.5732 37.2404 58.4581 37.0422 58.3425 36.8429C58.2268 36.6436 58.1124 36.4464 57.9992 36.2514C57.9563 36.2763 57.9124 36.3018 57.8674 36.3279C57.8245 36.3528 57.7817 36.3777 57.7388 36.4026C57.6928 36.3233 57.6468 36.244 57.6008 36.1647C57.5547 36.0854 57.5087 36.0061 57.4627 35.9268C57.5056 35.9019 57.5484 35.877 57.5913 35.8522C57.6363 35.8261 57.6802 35.8006 57.7231 35.7757C57.6795 35.7007 57.6366 35.6267 57.5943 35.5539C57.5508 35.4789 57.5079 35.4049 57.4656 35.3321C57.5535 35.2811 57.6424 35.2295 57.7324 35.1772C57.8224 35.125 57.9103 35.074 57.996 35.0242C58.0383 35.0971 58.0812 35.171 58.1247 35.246C58.167 35.3189 58.2099 35.3928 58.2535 35.4678C58.3028 35.4392 58.3531 35.41 58.4046 35.3802C58.456 35.3503 58.5064 35.3211 58.5556 35.2925C58.6017 35.3718 58.6477 35.4511 58.6937 35.5303C58.7397 35.6096 58.7857 35.6889 58.8318 35.7682C58.7825 35.7968 58.7321 35.8261 58.6807 35.8559C58.6292 35.8858 58.5789 35.915 58.5296 35.9436C58.6428 36.1386 58.7572 36.3358 58.8729 36.5351C58.9885 36.7344 59.1036 36.9326 59.218 37.1298C59.1323 37.1795 59.0444 37.2305 58.9544 37.2827C58.8644 37.335 58.7755 37.3866 58.6876 37.4376Z" fill="#2F4ECD"/>
<path d="M34.5147 60.0549C34.3057 59.6949 34.0943 59.3306 33.8803 58.962C33.6664 58.5934 33.455 58.229 33.246 57.869C33.3789 57.7919 33.5117 57.7148 33.6446 57.6377C33.7796 57.5593 33.9125 57.4822 34.0432 57.4063C34.2082 57.3106 34.3705 57.2594 34.5299 57.2528C34.6881 57.244 34.8345 57.2765 34.969 57.3503C35.1035 57.4241 35.2149 57.5371 35.3032 57.6892C35.3903 57.8392 35.4325 57.9909 35.4298 58.1443C35.4293 58.2964 35.3881 58.4378 35.3064 58.5683C35.2267 58.6976 35.1129 58.8052 34.9651 58.891C34.9179 58.9184 34.8708 58.9458 34.8236 58.9731C34.7786 58.9992 34.7326 59.026 34.6854 59.0533C34.7501 59.1648 34.8154 59.2773 34.8813 59.3909C34.9472 59.5045 35.0125 59.617 35.0772 59.7284C34.985 59.7819 34.8918 59.836 34.7975 59.8907C34.7032 59.9454 34.6089 60.0002 34.5147 60.0549ZM34.3361 57.911C34.2975 57.9334 34.2579 57.9564 34.2172 57.98C34.1786 58.0024 34.14 58.0248 34.1015 58.0472C34.1512 58.1329 34.2016 58.2197 34.2526 58.3076C34.3023 58.3933 34.3521 58.479 34.4018 58.5647C34.4447 58.5399 34.4886 58.5144 34.5336 58.4882C34.5808 58.4609 34.6258 58.4348 34.6686 58.4099C34.7351 58.3713 34.7743 58.3156 34.7864 58.2427C34.8007 58.1685 34.7867 58.095 34.7444 58.0221C34.7009 57.9471 34.6423 57.898 34.5687 57.8749C34.4951 57.8517 34.4175 57.8637 34.3361 57.911ZM36.9761 56.4046C37.1353 56.6789 37.2963 56.9564 37.4593 57.2372C37.621 57.5158 37.7814 57.7922 37.9406 58.0665C37.8549 58.1163 37.767 58.1673 37.677 58.2195C37.587 58.2717 37.4981 58.3234 37.4102 58.3744C37.4015 58.3593 37.3934 58.3454 37.386 58.3326C37.3785 58.3197 37.3704 58.3058 37.3617 58.2908C37.3275 58.3651 37.2801 58.4341 37.2197 58.4978C37.1627 58.5624 37.0924 58.619 37.0088 58.6675C36.8866 58.7384 36.7623 58.7733 36.6356 58.7723C36.5111 58.7701 36.3916 58.732 36.2771 58.6581C36.1647 58.583 36.0669 58.4736 35.9835 58.33C35.8865 58.1629 35.7889 57.9946 35.6906 57.8253C35.5924 57.656 35.4947 57.4878 35.3977 57.3206C35.4856 57.2697 35.5745 57.218 35.6645 57.1658C35.7545 57.1136 35.8424 57.0626 35.9281 57.0128C36.0177 57.1671 36.1085 57.3235 36.2005 57.4821C36.2926 57.6407 36.3833 57.7972 36.4729 57.9515C36.5227 58.0372 36.5824 58.0956 36.652 58.1268C36.7226 58.1546 36.8007 58.1436 36.8865 58.0939C36.9722 58.0441 37.0243 57.9809 37.0429 57.9043C37.0614 57.8276 37.0439 57.7432 36.9904 57.6511C36.9009 57.4968 36.8101 57.3403 36.7181 57.1818C36.626 57.0232 36.5352 56.8667 36.4457 56.7124C36.5335 56.6614 36.6225 56.6098 36.7125 56.5576C36.8025 56.5054 36.8903 56.4544 36.9761 56.4046ZM38.2935 57.8617C38.1343 57.5874 37.9738 57.311 37.8121 57.0324C37.6492 56.7516 37.4881 56.4741 37.3289 56.1998C37.4168 56.1488 37.5057 56.0972 37.5957 56.045C37.6857 55.9927 37.7736 55.9417 37.8593 55.892C37.868 55.907 37.8767 55.922 37.8854 55.937C37.8942 55.952 37.9029 55.967 37.9116 55.982C37.9506 55.8963 38.0051 55.8174 38.075 55.7453C38.1449 55.6732 38.2323 55.6139 38.3371 55.5674C38.3868 55.6532 38.4372 55.7399 38.4882 55.8278C38.5392 55.9157 38.5895 56.0025 38.6393 56.0882C38.4563 56.1629 38.3397 56.2506 38.2893 56.3515C38.2377 56.4502 38.2461 56.5584 38.3146 56.6763C38.3979 56.8199 38.4825 56.9656 38.5683 57.1135C38.6541 57.2614 38.7393 57.4082 38.8239 57.5539C38.7382 57.6036 38.6503 57.6546 38.5603 57.7069C38.4703 57.7591 38.3813 57.8107 38.2935 57.8617ZM40.9317 56.2274C40.8199 56.3754 40.6955 56.4991 40.5585 56.5987C40.4215 56.6983 40.2783 56.7699 40.1289 56.8137C39.9829 56.8583 39.8378 56.8723 39.6935 56.8558C39.5493 56.8392 39.4146 56.7899 39.2896 56.7077C39.1667 56.6244 39.0611 56.5066 38.9728 56.3544C38.8994 56.228 38.8526 56.1005 38.8324 55.9718C38.8131 55.8398 38.819 55.7117 38.8501 55.5877C38.88 55.4615 38.935 55.3465 39.0151 55.2427C39.094 55.1367 39.1956 55.0477 39.3199 54.9755C39.4313 54.9108 39.5426 54.8706 39.6538 54.8548C39.7649 54.839 39.873 54.845 39.978 54.8729C40.0817 54.8986 40.1801 54.9447 40.273 55.0111C40.366 55.0774 40.4489 55.1611 40.5218 55.262C40.5947 55.363 40.6542 55.4803 40.7003 55.614C40.5246 55.716 40.3478 55.8186 40.1699 55.9218C39.992 56.025 39.8152 56.1276 39.6395 56.2296C39.7275 56.2874 39.8286 56.3061 39.9428 56.2857C40.0591 56.264 40.1789 56.2088 40.3022 56.1201C40.4276 56.0301 40.5491 55.9137 40.6668 55.7709C40.7103 55.8459 40.7545 55.922 40.7992 55.9992C40.844 56.0763 40.8882 56.1524 40.9317 56.2274ZM39.5831 55.4587C39.521 55.4948 39.4731 55.5455 39.4394 55.6109C39.4079 55.6751 39.3987 55.7506 39.4119 55.8375C39.5083 55.7815 39.6048 55.7255 39.7012 55.6695C39.7998 55.6123 39.8973 55.5557 39.9937 55.4998C39.9257 55.4418 39.8567 55.4117 39.7866 55.4094C39.7174 55.4037 39.6496 55.4202 39.5831 55.4587ZM42.3823 55.4886C42.1396 55.2628 41.8945 55.0355 41.647 54.8066C41.4005 54.5744 41.1559 54.3454 40.9131 54.1196C41.001 54.0686 41.0899 54.017 41.1799 53.9648C41.2721 53.9113 41.3621 53.859 41.4499 53.808C41.5799 53.9332 41.711 54.0605 41.8434 54.1899C41.9767 54.3159 42.1073 54.4421 42.2351 54.5685C42.1844 54.3973 42.1332 54.2251 42.0813 54.0518C42.0303 53.8751 41.9785 53.7018 41.9257 53.5319C42.0007 53.4884 42.0757 53.4449 42.1507 53.4013C42.2278 53.3565 42.3039 53.3124 42.3789 53.2689C42.5024 53.3977 42.6278 53.5298 42.755 53.6651C42.8831 53.797 43.0085 53.9291 43.1311 54.0613C43.0857 53.8843 43.0396 53.7062 42.9929 53.527C42.9471 53.3445 42.901 53.1664 42.8547 52.9927C42.9425 52.9417 43.0304 52.8908 43.1183 52.8398C43.2083 52.7875 43.2961 52.7365 43.3819 52.6868C43.4575 53.0096 43.5339 53.3362 43.6111 53.6667C43.6892 53.9938 43.7661 54.3188 43.8417 54.6416C43.756 54.6913 43.6692 54.7417 43.5814 54.7927C43.4935 54.8437 43.4067 54.8941 43.321 54.9438C43.2096 54.8309 43.0965 54.7174 42.9817 54.6036C42.869 54.4885 42.7576 54.3755 42.6475 54.2647C42.6891 54.4153 42.7308 54.5687 42.7727 54.7248C42.8168 54.8798 42.8603 55.0336 42.9031 55.1864C42.8174 55.2361 42.7306 55.2865 42.6427 55.3375C42.5548 55.3885 42.4681 55.4389 42.3823 55.4886ZM44.5503 54.2304C44.3251 53.8425 44.0981 53.4514 43.8693 53.0571C43.6404 52.6628 43.4134 52.2717 43.1883 51.8838C43.2762 51.8328 43.3651 51.7812 43.4551 51.7289C43.5451 51.6767 43.633 51.6257 43.7187 51.5759C43.7921 51.7024 43.8667 51.831 43.9426 51.9617C44.0172 52.0903 44.0912 52.2178 44.1646 52.3442C44.1988 52.2699 44.2451 52.2015 44.3034 52.139C44.3626 52.0732 44.4339 52.016 44.5175 51.9675C44.6397 51.8966 44.763 51.8623 44.8875 51.8645C45.0141 51.8655 45.1336 51.9036 45.246 51.9787C45.3593 52.0505 45.4582 52.1592 45.5428 52.305C45.6398 52.4721 45.7374 52.6404 45.8357 52.8097C45.9339 52.979 46.0316 53.1472 46.1286 53.3143C46.0429 53.3641 45.955 53.4151 45.865 53.4673C45.775 53.5196 45.6861 53.5712 45.5982 53.6222C45.5086 53.4679 45.4178 53.3114 45.3258 53.1528C45.2338 52.9943 45.143 52.8378 45.0534 52.6835C45.0037 52.5978 44.9435 52.541 44.8729 52.5132C44.8033 52.4821 44.7256 52.4913 44.6399 52.5411C44.5541 52.5908 44.502 52.654 44.4835 52.7307C44.4649 52.8073 44.4824 52.8917 44.5359 52.9839C44.6254 53.1382 44.7162 53.2946 44.8083 53.4532C44.9003 53.6118 44.9911 53.7682 45.0807 53.9225C44.9949 53.9723 44.9071 54.0233 44.8171 54.0755C44.7271 54.1278 44.6381 54.1794 44.5503 54.2304ZM45.6668 51.1071C45.6046 51.1432 45.5391 51.1611 45.4703 51.161C45.4036 51.1596 45.3409 51.143 45.2823 51.1111C45.2237 51.0792 45.177 51.0333 45.1422 50.9733C45.1073 50.9133 45.0912 50.851 45.0939 50.7864C45.0953 50.7197 45.1119 50.6571 45.1438 50.5984C45.1778 50.5386 45.2259 50.4906 45.288 50.4546C45.348 50.4197 45.4114 50.403 45.4781 50.4044C45.5469 50.4046 45.6107 50.4206 45.6693 50.4525C45.7266 50.4822 45.7727 50.5271 45.8076 50.5871C45.8424 50.6471 45.8591 50.7104 45.8577 50.7771C45.8563 50.8438 45.8386 50.9071 45.8046 50.967C45.7727 51.0256 45.7268 51.0723 45.6668 51.1071ZM46.4746 53.1135C46.3154 52.8392 46.1549 52.5628 45.9932 52.2842C45.8303 52.0034 45.6692 51.7259 45.51 51.4516C45.5979 51.4006 45.6868 51.349 45.7768 51.2968C45.8668 51.2445 45.9547 51.1935 46.0404 51.1438C46.1996 51.4181 46.3607 51.6956 46.5236 51.9763C46.6853 52.2549 46.8458 52.5314 47.005 52.8057C46.9193 52.8554 46.8314 52.9064 46.7414 52.9587C46.6514 53.0109 46.5624 53.0625 46.4746 53.1135ZM47.5487 52.4901C47.4343 52.2929 47.3193 52.0947 47.2036 51.8954C47.0879 51.6961 46.9735 51.499 46.8603 51.3039C46.8174 51.3288 46.7735 51.3543 46.7285 51.3804C46.6856 51.4053 46.6428 51.4302 46.5999 51.4551C46.5539 51.3758 46.5079 51.2965 46.4619 51.2172C46.4158 51.1379 46.3698 51.0586 46.3238 50.9793C46.3667 50.9544 46.4095 50.9296 46.4524 50.9047C46.4974 50.8786 46.5413 50.8531 46.5842 50.8282C46.5407 50.7532 46.4977 50.6793 46.4555 50.6064C46.4119 50.5314 46.369 50.4574 46.3267 50.3846C46.4146 50.3336 46.5035 50.282 46.5935 50.2297C46.6835 50.1775 46.7714 50.1265 46.8571 50.0768C46.8994 50.1496 46.9423 50.2235 46.9859 50.2986C47.0281 50.3714 47.0711 50.4454 47.1146 50.5204C47.1639 50.4918 47.2142 50.4625 47.2657 50.4327C47.3171 50.4028 47.3675 50.3736 47.4167 50.345C47.4628 50.4243 47.5088 50.5036 47.5548 50.5829C47.6008 50.6622 47.6468 50.7414 47.6929 50.8207C47.6436 50.8493 47.5932 50.8786 47.5418 50.9084C47.4904 50.9383 47.44 50.9675 47.3907 50.9961C47.5039 51.1911 47.6183 51.3883 47.734 51.5876C47.8497 51.7869 47.9647 51.9851 48.0791 52.1823C47.9934 52.232 47.9055 52.283 47.8155 52.3353C47.7255 52.3875 47.6366 52.4391 47.5487 52.4901ZM50.0071 50.9602C49.8953 51.1081 49.7709 51.2319 49.6339 51.3315C49.4969 51.4311 49.3537 51.5027 49.2043 51.5464C49.0583 51.5911 48.9132 51.6051 48.7689 51.5886C48.6246 51.572 48.49 51.5227 48.365 51.4405C48.2421 51.3571 48.1365 51.2394 48.0482 51.0872C47.9748 50.9608 47.928 50.8332 47.9078 50.7046C47.8885 50.5726 47.8944 50.4445 47.9255 50.3205C47.9554 50.1942 48.0104 50.0792 48.0905 49.9754C48.1694 49.8695 48.271 49.7804 48.3953 49.7083C48.5067 49.6436 48.618 49.6034 48.7292 49.5876C48.8403 49.5718 48.9484 49.5778 49.0534 49.6057C49.1571 49.6314 49.2555 49.6775 49.3484 49.7438C49.4414 49.8102 49.5243 49.8939 49.5972 49.9948C49.6701 50.0957 49.7296 50.213 49.7757 50.3467C49.6 50.4487 49.4232 50.5513 49.2453 50.6546C49.0674 50.7578 48.8906 50.8604 48.7149 50.9624C48.8029 51.0202 48.904 51.0389 49.0182 51.0185C49.1345 50.9968 49.2543 50.9416 49.3776 50.8528C49.503 50.7629 49.6245 50.6465 49.7422 50.5037C49.7857 50.5787 49.8299 50.6548 49.8746 50.7319C49.9194 50.8091 49.9636 50.8852 50.0071 50.9602ZM48.6585 50.1915C48.5964 50.2276 48.5485 50.2783 48.5148 50.3437C48.4833 50.4078 48.4741 50.4833 48.4873 50.5702C48.5837 50.5143 48.6802 50.4583 48.7766 50.4023C48.8752 50.3451 48.9727 50.2885 49.0691 50.2325C49.0011 50.1746 48.9321 50.1445 48.862 50.1422C48.7928 50.1365 48.725 50.153 48.6585 50.1915Z" fill="#2F4ECD"/>
<path d="M37.9951 66.301C37.7862 65.941 37.5747 65.5766 37.3608 65.208C37.1469 64.8394 36.9354 64.4751 36.7265 64.1151C36.8208 64.0604 36.9151 64.0057 37.0093 63.9509C37.1058 63.895 37.2001 63.8402 37.2922 63.7867C37.524 63.9244 37.758 64.0636 37.9944 64.2043C38.2329 64.3438 38.468 64.4823 38.6998 64.62C38.5816 64.4164 38.4622 64.2107 38.3416 64.0028C38.2209 63.7949 38.1015 63.5892 37.9833 63.3856C38.0755 63.3321 38.1676 63.2787 38.2598 63.2252C38.3519 63.1717 38.4441 63.1182 38.5362 63.0647C38.7452 63.4248 38.9566 63.7891 39.1706 64.1577C39.3845 64.5263 39.5959 64.8906 39.8049 65.2506C39.7127 65.3041 39.6185 65.3588 39.522 65.4148C39.4277 65.4695 39.3334 65.5242 39.2391 65.579C39.0074 65.4413 38.7723 65.3027 38.5338 65.1633C38.2974 65.0226 38.0633 64.8834 37.8316 64.7457C37.9498 64.9493 38.0692 65.155 38.1898 65.3629C38.3105 65.5708 38.4299 65.7765 38.548 65.9801C38.4559 66.0336 38.3637 66.0871 38.2716 66.1405C38.1794 66.194 38.0873 66.2475 37.9951 66.301ZM40.7799 62.463C40.9391 62.7373 41.1001 63.0149 41.2631 63.2956C41.4248 63.5742 41.5852 63.8506 41.7444 64.1249C41.6587 64.1747 41.5708 64.2257 41.4808 64.2779C41.3908 64.3302 41.3019 64.3818 41.214 64.4328C41.2053 64.4178 41.1972 64.4039 41.1898 64.391C41.1823 64.3781 41.1742 64.3642 41.1655 64.3492C41.1313 64.4235 41.084 64.4925 41.0235 64.5562C40.9665 64.6209 40.8962 64.6774 40.8126 64.7259C40.6905 64.7968 40.5661 64.8318 40.4394 64.8308C40.3149 64.8285 40.1954 64.7905 40.0809 64.7166C39.9685 64.6414 39.8707 64.532 39.7874 64.3884C39.6903 64.2213 39.5927 64.0531 39.4944 63.8838C39.3962 63.7145 39.2985 63.5462 39.2015 63.3791C39.2894 63.3281 39.3783 63.2765 39.4683 63.2242C39.5583 63.172 39.6462 63.121 39.7319 63.0712C39.8215 63.2255 39.9123 63.382 40.0043 63.5406C40.0964 63.6991 40.1872 63.8556 40.2767 64.0099C40.3265 64.0956 40.3862 64.1541 40.4558 64.1852C40.5264 64.2131 40.6045 64.2021 40.6903 64.1523C40.776 64.1026 40.8281 64.0394 40.8467 63.9627C40.8652 63.8861 40.8477 63.8017 40.7942 63.7095C40.7047 63.5552 40.6139 63.3988 40.5219 63.2402C40.4298 63.0816 40.339 62.9252 40.2495 62.7709C40.3373 62.7199 40.4263 62.6683 40.5163 62.616C40.6063 62.5638 40.6941 62.5128 40.7799 62.463ZM42.0973 63.9201C41.9381 63.6458 41.7776 63.3694 41.6159 63.0908C41.453 62.8101 41.2919 62.5325 41.1327 62.2582C41.2206 62.2072 41.3095 62.1556 41.3995 62.1034C41.4895 62.0511 41.5774 62.0002 41.6631 61.9504C41.6718 61.9654 41.6805 61.9804 41.6893 61.9954C41.698 62.0104 41.7067 62.0254 41.7154 62.0404C41.7544 61.9547 41.8089 61.8758 41.8788 61.8037C41.9487 61.7317 42.0361 61.6724 42.1409 61.6259C42.1906 61.7116 42.241 61.7984 42.292 61.8862C42.343 61.9741 42.3933 62.0609 42.4431 62.1466C42.2601 62.2213 42.1435 62.3091 42.0931 62.4099C42.0415 62.5086 42.0499 62.6169 42.1184 62.7347C42.2017 62.8783 42.2863 63.0241 42.3721 63.1719C42.4579 63.3198 42.5431 63.4666 42.6277 63.6123C42.542 63.6621 42.4541 63.7131 42.3641 63.7653C42.2741 63.8175 42.1851 63.8692 42.0973 63.9201ZM44.3367 61.9328C44.4139 62.0657 44.4398 62.1968 44.4145 62.326C44.3902 62.4519 44.3271 62.5702 44.2251 62.6809C44.1232 62.7916 43.9933 62.8885 43.8352 62.9716C43.6806 63.0557 43.5109 63.1212 43.3262 63.1682C43.279 63.0868 43.2305 63.0032 43.1807 62.9175C43.131 62.8318 43.0824 62.7482 43.0352 62.6667C43.1488 62.6552 43.2575 62.6351 43.3612 62.6065C43.4636 62.5757 43.5525 62.5413 43.6279 62.5033C43.7032 62.4653 43.759 62.4257 43.7953 62.3846C43.8304 62.3413 43.8367 62.3004 43.8143 62.2618C43.7969 62.2318 43.7639 62.2194 43.7154 62.2247C43.669 62.2287 43.6121 62.2417 43.5447 62.2636C43.4759 62.2835 43.4017 62.3036 43.3219 62.3241C43.2431 62.3413 43.163 62.349 43.0819 62.3474C42.9995 62.3437 42.921 62.3219 42.8463 62.2822C42.7726 62.239 42.7065 62.1671 42.648 62.0664C42.5784 61.9463 42.5536 61.8246 42.5737 61.7013C42.5946 61.5745 42.6516 61.4555 42.7446 61.3442C42.8364 61.2308 42.9551 61.1318 43.1008 61.0472C43.2465 60.9627 43.4098 60.9009 43.5905 60.8618C43.6378 60.9433 43.6863 61.0269 43.7361 61.1126C43.7858 61.1983 43.8343 61.2819 43.8816 61.3633C43.728 61.3751 43.5931 61.4018 43.4769 61.4435C43.3607 61.4851 43.2748 61.5321 43.2192 61.5844C43.1624 61.6346 43.147 61.6822 43.1732 61.7272C43.1906 61.7572 43.2225 61.7702 43.2688 61.7662C43.3161 61.7588 43.3724 61.7448 43.4378 61.724C43.5052 61.7021 43.5784 61.6825 43.6573 61.6654C43.7383 61.647 43.8189 61.6403 43.8992 61.6453C43.9803 61.6469 44.0584 61.6704 44.1334 61.7157C44.2093 61.7576 44.277 61.83 44.3367 61.9328ZM46.2769 61.3913C46.1651 61.5392 46.0406 61.663 45.9036 61.7626C45.7666 61.8622 45.6234 61.9338 45.474 61.9775C45.328 62.0222 45.1829 62.0362 45.0387 62.0196C44.8944 62.0031 44.7598 61.9538 44.6347 61.8716C44.5119 61.7882 44.4063 61.6705 44.3179 61.5183C44.2446 61.3919 44.1978 61.2643 44.1775 61.1357C44.1582 61.0037 44.1641 60.8756 44.1952 60.7515C44.2251 60.6253 44.2801 60.5103 44.3603 60.4065C44.4391 60.3006 44.5407 60.2115 44.665 60.1394C44.7765 60.0747 44.8878 60.0345 44.9989 60.0187C45.1101 60.0029 45.2181 60.0089 45.3231 60.0368C45.4269 60.0625 45.5252 60.1086 45.6182 60.1749C45.7111 60.2413 45.7941 60.325 45.867 60.4259C45.9399 60.5268 45.9994 60.6441 46.0454 60.7778C45.8697 60.8798 45.6929 60.9824 45.5151 61.0857C45.3372 61.1889 45.1604 61.2915 44.9847 61.3935C45.0726 61.4513 45.1737 61.47 45.2879 61.4495C45.4043 61.4279 45.524 61.3727 45.6473 61.2839C45.7727 61.194 45.8943 61.0776 46.0119 60.9348C46.0555 61.0098 46.0996 61.0859 46.1444 61.163C46.1892 61.2402 46.2333 61.3162 46.2769 61.3913ZM44.9283 60.6226C44.8661 60.6587 44.8182 60.7094 44.7846 60.7748C44.753 60.8389 44.7439 60.9144 44.757 61.0013C44.8535 60.9453 44.9499 60.8894 45.0463 60.8334C45.1449 60.7762 45.2424 60.7196 45.3389 60.6636C45.2709 60.6057 45.2018 60.5756 45.1317 60.5733C45.0625 60.5676 44.9947 60.584 44.9283 60.6226ZM46.715 61.2401C46.5558 60.9658 46.3954 60.6893 46.2337 60.4107C46.0708 60.13 45.9097 59.8525 45.7505 59.5782C45.8383 59.5272 45.9273 59.4756 46.0173 59.4233C46.1073 59.3711 46.1952 59.3201 46.2809 59.2703C46.2896 59.2853 46.2983 59.3003 46.307 59.3153C46.3157 59.3303 46.3244 59.3453 46.3331 59.3603C46.3722 59.2746 46.4267 59.1957 46.4966 59.1237C46.5665 59.0516 46.6538 58.9923 46.7586 58.9458C46.8084 59.0315 46.8587 59.1183 46.9097 59.2062C46.9607 59.294 47.0111 59.3808 47.0608 59.4665C46.8779 59.5412 46.7612 59.629 46.7109 59.7298C46.6593 59.8285 46.6677 59.9368 46.7361 60.0547C46.8194 60.1983 46.904 60.344 46.9898 60.4919C47.0757 60.6397 47.1609 60.7865 47.2454 60.9322C47.1597 60.982 47.0718 61.033 46.9818 61.0852C46.8918 61.1375 46.8029 61.1891 46.715 61.2401ZM48.4361 60.9288C48.413 60.7903 48.3904 60.6502 48.3682 60.5083C48.3495 60.3674 48.3292 60.2288 48.3074 60.0925C48.0636 59.9045 47.8165 59.7156 47.5659 59.5258C47.3163 59.3326 47.0696 59.142 46.8258 58.954C46.9201 58.8993 47.0144 58.8446 47.1087 58.7899C47.203 58.7351 47.2962 58.681 47.3884 58.6276C47.5237 58.7324 47.6603 58.8393 47.7981 58.9484C47.938 59.0563 48.0763 59.1637 48.2128 59.2707C48.1834 59.1015 48.1545 58.9307 48.126 58.7581C48.0974 58.5856 48.0691 58.4158 48.0409 58.2488C48.1331 58.1953 48.2252 58.1419 48.3174 58.0884C48.4095 58.0349 48.5017 57.9814 48.5938 57.9279C48.658 58.3691 48.7241 58.8163 48.7923 59.2695C48.8614 59.7193 48.9281 60.1648 48.9922 60.606C48.9 60.6595 48.8068 60.7136 48.7125 60.7683C48.6204 60.8218 48.5282 60.8753 48.4361 60.9288ZM50.3942 59.1048C50.235 58.8305 50.0745 58.554 49.9128 58.2754C49.7499 57.9947 49.5888 57.7172 49.4296 57.4429C49.5175 57.3919 49.6064 57.3402 49.6964 57.288C49.7864 57.2358 49.8743 57.1848 49.96 57.135C49.9687 57.15 49.9774 57.165 49.9861 57.18C49.9948 57.195 50.0035 57.21 50.0122 57.225C50.0513 57.1393 50.1058 57.0604 50.1757 56.9884C50.2456 56.9163 50.3329 56.857 50.4377 56.8105C50.4875 56.8962 50.5379 56.983 50.5889 57.0709C50.6399 57.1587 50.6902 57.2455 50.74 57.3312C50.557 57.4059 50.4403 57.4937 50.39 57.5945C50.3384 57.6932 50.3468 57.8015 50.4152 57.9194C50.4986 58.0629 50.5831 58.2087 50.669 58.3565C50.7548 58.5044 50.84 58.6512 50.9246 58.7969C50.8388 58.8467 50.751 58.8977 50.661 58.9499C50.571 59.0022 50.482 59.0538 50.3942 59.1048ZM51.6785 58.3594C51.4533 57.9715 51.2264 57.5804 50.9975 57.1861C50.7686 56.7918 50.5417 56.4007 50.3165 56.0128C50.4044 55.9618 50.4933 55.9102 50.5833 55.8579C50.6733 55.8057 50.7612 55.7547 50.8469 55.7049C50.9203 55.8314 50.9949 55.96 51.0708 56.0907C51.1454 56.2193 51.2194 56.3468 51.2928 56.4732C51.327 56.3989 51.3733 56.3305 51.4316 56.268C51.4908 56.2022 51.5621 56.145 51.6457 56.0965C51.7679 56.0256 51.8912 55.9913 52.0157 55.9935C52.1423 55.9945 52.2618 56.0326 52.3742 56.1077C52.4875 56.1795 52.5864 56.2882 52.671 56.434C52.768 56.6011 52.8656 56.7694 52.9639 56.9387C53.0621 57.108 53.1598 57.2762 53.2568 57.4433C53.1711 57.4931 53.0832 57.5441 52.9932 57.5963C52.9032 57.6486 52.8143 57.7002 52.7264 57.7512C52.6368 57.5969 52.5461 57.4404 52.454 57.2818C52.362 57.1233 52.2712 56.9668 52.1816 56.8125C52.1319 56.7268 52.0717 56.67 52.0011 56.6422C51.9315 56.6111 51.8538 56.6203 51.7681 56.6701C51.6823 56.7198 51.6302 56.783 51.6117 56.8597C51.5931 56.9363 51.6106 57.0207 51.6641 57.1129C51.7536 57.2672 51.8444 57.4236 51.9365 57.5822C52.0285 57.7408 52.1193 57.8972 52.2089 58.0515C52.1231 58.1013 52.0353 58.1523 51.9453 58.2045C51.8553 58.2568 51.7663 58.3084 51.6785 58.3594ZM54.0081 57.6948C53.9851 57.5564 53.9625 57.4162 53.9403 57.2744C53.9215 57.1335 53.9012 56.9948 53.8794 56.8585C53.6357 56.6705 53.3885 56.4816 53.138 56.2919C52.8884 56.0987 52.6417 55.9081 52.3979 55.7201C52.4922 55.6654 52.5865 55.6107 52.6808 55.5559C52.7751 55.5012 52.8683 55.4471 52.9604 55.3936C53.0958 55.4984 53.2323 55.6054 53.3701 55.7145C53.5101 55.8223 53.6483 55.9298 53.7849 56.0367C53.7555 55.8676 53.7265 55.6967 53.698 55.5242C53.6695 55.3517 53.6412 55.1819 53.613 55.0149C53.7051 54.9614 53.7973 54.9079 53.8894 54.8544C53.9816 54.801 54.0737 54.7475 54.1659 54.694C54.23 55.1352 54.2962 55.5824 54.3644 56.0356C54.4335 56.4854 54.5001 56.9309 54.5642 57.3721C54.4721 57.4256 54.3789 57.4797 54.2846 57.5344C54.1924 57.5879 54.1003 57.6414 54.0081 57.6948ZM55.2913 56.2625C55.1321 55.9882 54.9716 55.7118 54.81 55.4332C54.647 55.1525 54.4859 54.8749 54.3267 54.6006C54.4146 54.5496 54.5035 54.498 54.5935 54.4458C54.6836 54.3935 54.7714 54.3425 54.8571 54.2928C54.8658 54.3078 54.8739 54.3217 54.8814 54.3346C54.8889 54.3474 54.8969 54.3614 54.9056 54.3764C54.9377 54.3033 54.9818 54.2362 55.038 54.1749C55.0929 54.1116 55.1568 54.0587 55.2296 54.0165C55.3089 53.9704 55.3899 53.9421 55.4725 53.9314C55.5538 53.9185 55.633 53.9242 55.71 53.9482C55.75 53.8591 55.8047 53.7758 55.8743 53.6982C55.946 53.6193 56.0279 53.5531 56.12 53.4997C56.2508 53.4238 56.3788 53.3853 56.5042 53.3841C56.6317 53.3817 56.7498 53.4149 56.8585 53.4836C56.9693 53.5511 57.0651 53.6545 57.1459 53.7938C57.2454 53.9652 57.3462 54.1388 57.4482 54.3146C57.5502 54.4903 57.6509 54.6639 57.7504 54.8353C57.6647 54.8851 57.5768 54.9361 57.4868 54.9883C57.3968 55.0405 57.3079 55.0922 57.22 55.1431C57.1267 54.9824 57.0322 54.8196 56.9364 54.6545C56.8407 54.4895 56.7461 54.3267 56.6528 54.1659C56.6106 54.0931 56.5592 54.0441 56.4988 54.019C56.4393 53.9905 56.3731 53.9974 56.3002 54.0397C56.2295 54.0807 56.1869 54.1356 56.1723 54.2042C56.1586 54.2694 56.1741 54.3406 56.2189 54.4178C56.3122 54.5785 56.4067 54.7414 56.5025 54.9064C56.5982 55.0714 56.6928 55.2343 56.786 55.395C56.7003 55.4448 56.6125 55.4958 56.5225 55.548C56.4324 55.6002 56.3435 55.6519 56.2557 55.7028C56.1624 55.5421 56.0678 55.3792 55.9721 55.2142C55.8763 55.0492 55.7818 54.8864 55.6885 54.7256C55.6462 54.6528 55.5949 54.6038 55.5344 54.5787C55.4749 54.5502 55.4088 54.5571 55.3359 54.5994C55.2652 54.6404 55.2225 54.6953 55.2079 54.7639C55.1942 54.8291 55.2098 54.9003 55.2545 54.9775C55.3478 55.1382 55.4423 55.3011 55.5381 55.4661C55.6339 55.6311 55.7284 55.794 55.8217 55.9547C55.736 56.0045 55.6481 56.0555 55.5581 56.1077C55.4681 56.1599 55.3792 56.2116 55.2913 56.2625ZM59.4646 53.7373C59.3528 53.8853 59.2284 54.009 59.0914 54.1086C58.9543 54.2082 58.8111 54.2798 58.6618 54.3236C58.5158 54.3682 58.3706 54.3822 58.2264 54.3657C58.0821 54.3491 57.9475 54.2998 57.8225 54.2176C57.6996 54.1343 57.594 54.0165 57.5057 53.8643C57.4323 53.7379 57.3855 53.6104 57.3653 53.4817C57.3459 53.3497 57.3518 53.2216 57.383 53.0976C57.4128 52.9714 57.4679 52.8564 57.548 52.7526C57.6269 52.6466 57.7285 52.5576 57.8528 52.4854C57.9642 52.4207 58.0755 52.3805 58.1866 52.3647C58.2978 52.3489 58.4059 52.3549 58.5109 52.3828C58.6146 52.4085 58.713 52.4546 58.8059 52.521C58.8989 52.5873 58.9818 52.671 59.0547 52.7719C59.1276 52.8729 59.1871 52.9902 59.2332 53.1239C59.0574 53.2259 58.8807 53.3285 58.7028 53.4317C58.5249 53.5349 58.3481 53.6375 58.1724 53.7395C58.2604 53.7973 58.3615 53.816 58.4756 53.7956C58.592 53.7739 58.7118 53.7187 58.835 53.63C58.9604 53.54 59.082 53.4236 59.1997 53.2808C59.2432 53.3558 59.2873 53.4319 59.3321 53.5091C59.3769 53.5862 59.421 53.6623 59.4646 53.7373ZM58.116 52.9686C58.0539 53.0047 58.006 53.0554 57.9723 53.1208C57.9408 53.185 57.9316 53.2605 57.9448 53.3474C58.0412 53.2914 58.1376 53.2354 58.2341 53.1794C58.3327 53.1222 58.4302 53.0656 58.5266 53.0097C58.4586 52.9517 58.3895 52.9216 58.3195 52.9193C58.2503 52.9136 58.1825 52.9301 58.116 52.9686ZM60.874 52.3349C60.9511 52.4677 60.977 52.5988 60.9518 52.728C60.9274 52.8539 60.8643 52.9722 60.7624 53.0829C60.6605 53.1936 60.5305 53.2905 60.3725 53.3737C60.2178 53.4577 60.0482 53.5232 59.8635 53.5702C59.8162 53.4888 59.7677 53.4052 59.7179 53.3195C59.6682 53.2338 59.6197 53.1502 59.5724 53.0688C59.6861 53.0573 59.7947 53.0372 59.8984 53.0085C60.0009 52.9777 60.0898 52.9433 60.1651 52.9053C60.2405 52.8673 60.2963 52.8277 60.3326 52.7866C60.3676 52.7433 60.374 52.7024 60.3516 52.6638C60.3342 52.6338 60.3012 52.6215 60.2527 52.6267C60.2063 52.6307 60.1494 52.6437 60.0819 52.6657C60.0132 52.6855 59.9389 52.7057 59.8592 52.7262C59.7803 52.7433 59.7003 52.7511 59.6191 52.7494C59.5368 52.7457 59.4582 52.7239 59.3836 52.6842C59.3098 52.641 59.2437 52.5691 59.1853 52.4684C59.1156 52.3484 59.0908 52.2267 59.1109 52.1033C59.1319 51.9765 59.1889 51.8575 59.2819 51.7462C59.3736 51.6328 59.4923 51.5338 59.6381 51.4493C59.7838 51.3647 59.947 51.3029 60.1278 51.2639C60.1751 51.3453 60.2236 51.4289 60.2733 51.5146C60.3231 51.6003 60.3716 51.6839 60.4188 51.7653C60.2652 51.7771 60.1303 51.8039 60.0141 51.8455C59.8979 51.8872 59.812 51.9342 59.7565 51.9865C59.6996 52.0366 59.6843 52.0842 59.7104 52.1292C59.7278 52.1592 59.7597 52.1722 59.8061 52.1682C59.8534 52.1608 59.9097 52.1468 59.975 52.1261C60.0425 52.1041 60.1156 52.0846 60.1945 52.0674C60.2755 52.0491 60.3562 52.0424 60.4364 52.0474C60.5176 52.049 60.5956 52.0724 60.6706 52.1177C60.7465 52.1596 60.8143 52.232 60.874 52.3349Z" fill="#2F4ECD"/>
<path d="M41.6724 72.5803C41.4634 72.2203 41.252 71.8559 41.038 71.4873C40.8241 71.1187 40.6127 70.7544 40.4037 70.3944C40.5366 70.3173 40.6705 70.2396 40.8055 70.1612C40.9405 70.0828 41.0745 70.0051 41.2073 69.928C41.3964 70.1105 41.5862 70.2969 41.7768 70.4871C41.9683 70.6739 42.1575 70.8591 42.3443 71.0429C42.2775 70.7895 42.2094 70.5339 42.14 70.2762C42.0716 70.0151 42.0039 69.7579 41.937 69.5045C42.0699 69.4274 42.2028 69.3503 42.3356 69.2731C42.4685 69.196 42.6003 69.1195 42.731 69.0437C42.9421 69.4024 43.1557 69.7655 43.3718 70.1329C43.5879 70.5002 43.8014 70.8633 44.0125 71.2221C43.9225 71.2743 43.8315 71.3272 43.7393 71.3807C43.6493 71.4329 43.5593 71.4851 43.4693 71.5374C43.3275 71.2931 43.1845 71.0466 43.0402 70.798C42.8947 70.5473 42.751 70.2998 42.6092 70.0555C42.6867 70.3371 42.765 70.6225 42.8441 70.9118C42.9219 71.199 42.9996 71.4834 43.0771 71.765C42.9978 71.811 42.9164 71.8583 42.8328 71.9068C42.7514 71.954 42.6699 72.0013 42.5885 72.0486C42.3849 71.8459 42.1801 71.641 41.974 71.434C41.7667 71.2249 41.5612 71.019 41.3576 70.8163C41.4969 71.0563 41.6381 71.2995 41.7811 71.546C41.9229 71.7903 42.0635 72.0324 42.2028 72.2724C42.117 72.3222 42.0292 72.3732 41.9392 72.4254C41.8492 72.4777 41.7602 72.5293 41.6724 72.5803ZM45.217 70.5918C45.0927 70.6639 44.9645 70.7097 44.8325 70.729C44.6992 70.7462 44.5699 70.7381 44.4446 70.7049C44.3181 70.6695 44.2012 70.6112 44.094 70.5302C43.989 70.4479 43.8997 70.3436 43.8264 70.2171C43.753 70.0907 43.7066 69.9615 43.6873 69.8294C43.6701 69.6962 43.6781 69.5669 43.7114 69.4416C43.7447 69.3162 43.8025 69.2011 43.8847 69.096C43.9658 68.9888 44.0684 68.8992 44.1927 68.827C44.3192 68.7536 44.4479 68.709 44.5791 68.693C44.7111 68.6737 44.8398 68.6807 44.9651 68.714C45.0904 68.7472 45.2056 68.805 45.3106 68.8873C45.4178 68.9683 45.5081 69.072 45.5815 69.1985C45.6549 69.3249 45.7002 69.4548 45.7173 69.588C45.7367 69.7201 45.7303 69.8498 45.6983 69.9773C45.665 70.1026 45.6079 70.2188 45.5268 70.326C45.4467 70.4298 45.3434 70.5184 45.217 70.5918ZM44.939 70.1128C45.044 70.0519 45.1058 69.9659 45.1244 69.8548C45.1439 69.7403 45.1195 69.6242 45.0511 69.5063C44.9814 69.3863 44.8933 69.3085 44.7867 69.273C44.6811 69.234 44.5757 69.245 44.4707 69.306C44.3657 69.3669 44.3028 69.4536 44.2821 69.5659C44.2622 69.6748 44.2871 69.7893 44.3567 69.9093C44.4252 70.0272 44.5128 70.1066 44.6197 70.1477C44.7276 70.1854 44.834 70.1738 44.939 70.1128ZM46.327 69.8788C46.1678 69.6045 46.0074 69.328 45.8457 69.0494C45.6828 68.7687 45.5217 68.4912 45.3625 68.2169C45.4503 68.1659 45.5393 68.1143 45.6293 68.062C45.7193 68.0098 45.8072 67.9588 45.8929 67.909C45.9016 67.924 45.9097 67.938 45.9171 67.9508C45.9246 67.9637 45.9327 67.9776 45.9414 67.9926C45.9756 67.9183 46.0219 67.8499 46.0802 67.7875C46.1393 67.7216 46.2107 67.6644 46.2943 67.6159C46.4164 67.545 46.5398 67.5107 46.6642 67.5129C46.7909 67.5139 46.9104 67.552 47.0228 67.6271C47.136 67.6989 47.235 67.8077 47.3195 67.9534C47.4166 68.1205 47.5142 68.2888 47.6125 68.4581C47.7107 68.6274 47.8083 68.7956 47.9054 68.9627C47.8196 69.0125 47.7318 69.0635 47.6418 69.1157C47.5518 69.168 47.4628 69.2196 47.375 69.2706C47.2854 69.1163 47.1946 68.9598 47.1026 68.8013C47.0105 68.6427 46.9197 68.4862 46.8302 68.3319C46.7804 68.2462 46.7203 68.1895 46.6497 68.1617C46.58 68.1305 46.5023 68.1397 46.4166 68.1895C46.3309 68.2393 46.2788 68.3025 46.2602 68.3791C46.2417 68.4558 46.2592 68.5402 46.3127 68.6323C46.4022 68.7866 46.493 68.943 46.585 69.1016C46.6771 69.2602 46.7679 69.4167 46.8574 69.571C46.7717 69.6207 46.6838 69.6717 46.5938 69.7239C46.5038 69.7762 46.4149 69.8278 46.327 69.8788ZM49.0499 68.3672C48.9256 68.4394 48.7975 68.4851 48.6654 68.5044C48.5322 68.5216 48.4029 68.5136 48.2776 68.4803C48.151 68.4449 48.0341 68.3866 47.9269 68.3056C47.8219 68.2233 47.7327 68.119 47.6593 67.9925C47.5859 67.8661 47.5396 67.7369 47.5202 67.6048C47.503 67.4716 47.5111 67.3423 47.5444 67.217C47.5776 67.0917 47.6354 66.9765 47.7177 66.8714C47.7987 66.7642 47.9014 66.6746 48.0257 66.6024C48.1521 66.5291 48.2809 66.4844 48.412 66.4685C48.5441 66.4491 48.6727 66.4561 48.798 66.4894C48.9233 66.5226 49.0385 66.5804 49.1436 66.6627C49.2508 66.7437 49.3411 66.8475 49.4144 66.9739C49.4878 67.1003 49.5331 67.2302 49.5503 67.3635C49.5696 67.4955 49.5633 67.6252 49.5312 67.7527C49.498 67.878 49.4408 67.9942 49.3598 68.1014C49.2796 68.2052 49.1764 68.2938 49.0499 68.3672ZM48.7719 67.8882C48.8769 67.8273 48.9388 67.7413 48.9574 67.6302C48.9769 67.5158 48.9524 67.3996 48.884 67.2817C48.8144 67.1617 48.7263 67.0839 48.6197 67.0484C48.514 67.0095 48.4087 67.0205 48.3037 67.0814C48.1987 67.1423 48.1358 67.229 48.115 67.3413C48.0952 67.4502 48.12 67.5647 48.1897 67.6847C48.2581 67.8026 48.3458 67.882 48.4527 67.9231C48.5605 67.9608 48.6669 67.9492 48.7719 67.8882ZM50.9889 67.8607C50.9032 67.9104 50.8153 67.9614 50.7253 68.0137C50.6353 68.0659 50.5463 68.1175 50.4585 68.1685C50.2508 67.8106 50.0406 67.4485 49.8279 67.082C49.614 66.7134 49.4031 66.3502 49.1954 65.9923C49.2833 65.9413 49.3722 65.8897 49.4622 65.8374C49.5522 65.7852 49.6401 65.7342 49.7258 65.6845C49.7345 65.6995 49.7432 65.7145 49.7519 65.7295C49.7607 65.7445 49.77 65.7605 49.7799 65.7777C49.8086 65.7037 49.8504 65.6351 49.9053 65.5717C49.959 65.5062 50.0244 65.451 50.1015 65.4062C50.2087 65.3441 50.3229 65.3064 50.4442 65.2933C50.5643 65.278 50.6831 65.2878 50.8008 65.3227C50.9206 65.3563 51.0319 65.4149 51.1348 65.4984C51.2399 65.5807 51.3303 65.6872 51.4062 65.8179C51.4808 65.9465 51.5278 66.0768 51.5471 66.2088C51.5686 66.3396 51.5648 66.4664 51.5358 66.5892C51.5078 66.7087 51.4579 66.8178 51.3864 66.9166C51.3148 67.0155 51.2244 67.0966 51.1151 67.16C51.0379 67.2048 50.9576 67.2342 50.8741 67.2483C50.794 67.2633 50.7141 67.2638 50.6344 67.2499C50.6929 67.3507 50.7519 67.4524 50.8116 67.5553C50.8713 67.6582 50.9304 67.76 50.9889 67.8607ZM50.772 66.7317C50.877 66.6708 50.9384 66.5865 50.9561 66.4788C50.9747 66.3677 50.9479 66.25 50.8758 66.1257C50.8037 66.0014 50.7154 65.9209 50.6109 65.8841C50.5086 65.8461 50.405 65.8575 50.3 65.9185C50.1971 65.9782 50.1364 66.0636 50.1178 66.1746C50.0979 66.2836 50.1234 66.3991 50.1943 66.5213C50.2652 66.6434 50.3535 66.724 50.4592 66.7629C50.5649 66.8018 50.6691 66.7914 50.772 66.7317ZM52.1694 66.4879C51.9443 66.1001 51.7173 65.709 51.4885 65.3146C51.2596 64.9203 51.0326 64.5292 50.8075 64.1413C50.8954 64.0903 50.9843 64.0387 51.0743 63.9865C51.1643 63.9342 51.2522 63.8833 51.3379 63.8335C51.4113 63.9599 51.4859 64.0885 51.5618 64.2192C51.6364 64.3478 51.7104 64.4753 51.7838 64.6018C51.818 64.5275 51.8643 64.4591 51.9226 64.3966C51.9817 64.3307 52.0531 64.2736 52.1367 64.2251C52.2588 64.1542 52.3822 64.1198 52.5067 64.1221C52.6333 64.1231 52.7528 64.1611 52.8652 64.2363C52.9784 64.3081 53.0774 64.4168 53.1619 64.5625C53.259 64.7297 53.3566 64.8979 53.4549 65.0672C53.5531 65.2365 53.6508 65.4047 53.7478 65.5719C53.662 65.6217 53.5742 65.6726 53.4842 65.7249C53.3942 65.7771 53.3052 65.8287 53.2174 65.8797C53.1278 65.7254 53.037 65.569 52.945 65.4104C52.8529 65.2518 52.7621 65.0954 52.6726 64.9411C52.6228 64.8554 52.5627 64.7986 52.4921 64.7708C52.4224 64.7396 52.3448 64.7489 52.259 64.7987C52.1733 64.8484 52.1212 64.9116 52.1026 64.9883C52.0841 65.0649 52.1016 65.1493 52.1551 65.2415C52.2446 65.3958 52.3354 65.5522 52.4274 65.7108C52.5195 65.8694 52.6103 66.0258 52.6998 66.1801C52.6141 66.2299 52.5262 66.2809 52.4362 66.3331C52.3462 66.3853 52.2573 66.4369 52.1694 66.4879ZM54.8951 64.9748C54.7708 65.0469 54.6426 65.0926 54.5106 65.112C54.3773 65.1292 54.248 65.1211 54.1227 65.0878C53.9962 65.0524 53.8793 64.9942 53.7721 64.9132C53.6671 64.8309 53.5779 64.7265 53.5045 64.6001C53.4311 64.4737 53.3847 64.3444 53.3654 64.2124C53.3482 64.0791 53.3563 63.9498 53.3895 63.8245C53.4228 63.6992 53.4806 63.584 53.5629 63.479C53.6439 63.3718 53.7465 63.2821 53.8708 63.21C53.9973 63.1366 54.1261 63.0919 54.2572 63.076C54.3892 63.0567 54.5179 63.0636 54.6432 63.0969C54.7685 63.1302 54.8837 63.188 54.9887 63.2702C55.0959 63.3513 55.1862 63.455 55.2596 63.5814C55.333 63.7079 55.3783 63.8377 55.3955 63.971C55.4148 64.103 55.4084 64.2328 55.3764 64.3602C55.3431 64.4855 55.286 64.6018 55.2049 64.709C55.1248 64.8128 55.0215 64.9014 54.8951 64.9748ZM54.6171 64.4958C54.7221 64.4349 54.7839 64.3488 54.8025 64.2378C54.8221 64.1233 54.7976 64.0071 54.7292 63.8893C54.6596 63.7693 54.5714 63.6915 54.4649 63.6559C54.3592 63.617 54.2538 63.628 54.1488 63.689C54.0438 63.7499 53.9809 63.8365 53.9602 63.9489C53.9403 64.0578 53.9652 64.1723 54.0349 64.2923C54.1033 64.4101 54.1909 64.4896 54.2979 64.5307C54.4057 64.5684 54.5121 64.5567 54.6171 64.4958ZM56.0051 64.2618C55.8459 63.9874 55.6855 63.711 55.5238 63.4324C55.3609 63.1517 55.1998 62.8741 55.0406 62.5998C55.1285 62.5488 55.2174 62.4972 55.3074 62.445C55.3974 62.3928 55.4853 62.3418 55.571 62.292C55.5797 62.307 55.5878 62.3209 55.5952 62.3338C55.6027 62.3467 55.6108 62.3606 55.6195 62.3756C55.6537 62.3013 55.7 62.2329 55.7583 62.1704C55.8175 62.1046 55.8888 62.0474 55.9724 61.9989C56.0946 61.928 56.2179 61.8936 56.3424 61.8959C56.469 61.8969 56.5885 61.9349 56.7009 62.0101C56.8142 62.0819 56.9131 62.1906 56.9977 62.3363C57.0947 62.5035 57.1923 62.6717 57.2906 62.841C57.3888 63.0103 57.4865 63.1786 57.5835 63.3457C57.4978 63.3955 57.4099 63.4465 57.3199 63.4987C57.2299 63.5509 57.1409 63.6025 57.0531 63.6535C56.9635 63.4992 56.8727 63.3428 56.7807 63.1842C56.6887 63.0256 56.5979 62.8692 56.5083 62.7149C56.4586 62.6292 56.3984 62.5724 56.3278 62.5446C56.2582 62.5134 56.1805 62.5227 56.0947 62.5725C56.009 62.6222 55.9569 62.6854 55.9384 62.7621C55.9198 62.8387 55.9373 62.9231 55.9908 63.0153C56.0803 63.1696 56.1711 63.326 56.2632 63.4846C56.3552 63.6432 56.446 63.7996 56.5355 63.9539C56.4498 64.0037 56.362 64.0547 56.272 64.1069C56.1819 64.1591 56.093 64.2108 56.0051 64.2618ZM57.1189 61.1401C57.0567 61.1762 56.9912 61.1941 56.9224 61.194C56.8557 61.1926 56.793 61.1759 56.7344 61.1441C56.6758 61.1122 56.6291 61.0662 56.5943 61.0062C56.5595 60.9462 56.5434 60.8839 56.546 60.8194C56.5474 60.7527 56.564 60.69 56.5959 60.6314C56.6299 60.5716 56.678 60.5236 56.7402 60.4875C56.8002 60.4527 56.8635 60.436 56.9302 60.4374C56.9991 60.4375 57.0628 60.4536 57.1214 60.4854C57.1788 60.5152 57.2249 60.56 57.2597 60.62C57.2945 60.68 57.3112 60.7434 57.3098 60.8101C57.3084 60.8768 57.2907 60.9401 57.2567 60.9999C57.2248 61.0585 57.1789 61.1053 57.1189 61.1401ZM57.9267 63.1465C57.7675 62.8722 57.6071 62.5958 57.4454 62.3172C57.2824 62.0364 57.1214 61.7589 56.9622 61.4846C57.05 61.4336 57.139 61.382 57.229 61.3297C57.319 61.2775 57.4068 61.2265 57.4926 61.1768C57.6518 61.4511 57.8128 61.7286 57.9758 62.0093C58.1375 62.2879 58.2979 62.5644 58.4571 62.8387C58.3714 62.8884 58.2835 62.9394 58.1935 62.9917C58.1035 63.0439 58.0146 63.0955 57.9267 63.1465ZM58.2541 61.8435C58.1595 61.6806 58.11 61.5188 58.1056 61.3581C58.0999 61.1953 58.1342 61.0422 58.2085 60.8987C58.2829 60.7553 58.3939 60.6307 58.5416 60.5249C58.6881 60.417 58.8658 60.3382 59.0748 60.2885C59.1221 60.37 59.17 60.4525 59.2185 60.536C59.267 60.6196 59.3149 60.7021 59.3621 60.7836C59.203 60.7957 59.0679 60.8369 58.9568 60.9071C58.8457 60.9773 58.773 61.0667 58.7387 61.1755C58.7032 61.282 58.7227 61.3996 58.7973 61.5282C58.8719 61.6568 58.965 61.7332 59.0764 61.7573C59.1866 61.7793 59.2997 61.7595 59.4158 61.6978C59.5306 61.6341 59.6333 61.5372 59.7241 61.4072C59.7713 61.4886 59.8192 61.5711 59.8677 61.6547C59.9162 61.7383 59.9641 61.8208 60.0114 61.9022C59.8646 62.059 59.708 62.1743 59.5416 62.2479C59.3765 62.3237 59.2132 62.3583 59.0518 62.3517C58.8904 62.3451 58.741 62.3 58.6037 62.2164C58.4651 62.1307 58.3486 62.0064 58.2541 61.8435ZM61.031 61.3448C60.8718 61.0705 60.7113 60.7941 60.5496 60.5155C60.3867 60.2347 60.2256 59.9572 60.0664 59.6829C60.1543 59.6319 60.2432 59.5803 60.3332 59.5281C60.4232 59.4758 60.5111 59.4248 60.5968 59.3751C60.6055 59.3901 60.6136 59.404 60.6211 59.4169C60.6285 59.4297 60.6366 59.4437 60.6453 59.4587C60.6774 59.3856 60.7215 59.3185 60.7777 59.2572C60.8326 59.1939 60.8965 59.141 60.9693 59.0987C61.0486 59.0527 61.1296 59.0244 61.2122 59.0137C61.2935 59.0008 61.3727 59.0064 61.4497 59.0305C61.4897 58.9414 61.5444 58.8581 61.614 58.7805C61.6857 58.7016 61.7676 58.6354 61.8597 58.5819C61.9905 58.5061 62.1185 58.4676 62.2439 58.4664C62.3714 58.464 62.4895 58.4972 62.5982 58.5659C62.709 58.6334 62.8048 58.7368 62.8856 58.8761C62.9851 59.0475 63.0859 59.2211 63.1879 59.3968C63.2899 59.5726 63.3906 59.7462 63.4901 59.9176C63.4044 59.9673 63.3165 60.0183 63.2265 60.0706C63.1365 60.1228 63.0476 60.1744 62.9597 60.2254C62.8664 60.0647 62.7719 59.9018 62.6761 59.7368C62.5803 59.5718 62.4858 59.4089 62.3925 59.2482C62.3503 59.1754 62.2989 59.1264 62.2385 59.1013C62.179 59.0728 62.1128 59.0797 62.0399 59.122C61.9692 59.163 61.9266 59.2178 61.912 59.2865C61.8983 59.3517 61.9138 59.4229 61.9586 59.5001C62.0519 59.6608 62.1464 59.8237 62.2422 59.9887C62.3379 60.1537 62.4325 60.3166 62.5257 60.4773C62.44 60.527 62.3522 60.578 62.2621 60.6303C62.1721 60.6825 62.0832 60.7341 61.9953 60.7851C61.9021 60.6244 61.8075 60.4615 61.7118 60.2965C61.616 60.1315 61.5215 59.9686 61.4282 59.8079C61.3859 59.735 61.3345 59.6861 61.2741 59.661C61.2146 59.6325 61.1484 59.6394 61.0756 59.6817C61.0049 59.7227 60.9622 59.7775 60.9476 59.8462C60.9339 59.9114 60.9494 59.9826 60.9942 60.0598C61.0875 60.2205 61.182 60.3834 61.2778 60.5484C61.3736 60.7134 61.4681 60.8763 61.5614 61.037C61.4757 61.0867 61.3878 61.1377 61.2978 61.19C61.2078 61.2422 61.1188 61.2938 61.031 61.3448ZM65.2043 58.8196C65.0925 58.9675 64.9681 59.0913 64.831 59.1909C64.694 59.2905 64.5508 59.3621 64.4014 59.4059C64.2555 59.4505 64.1103 59.4645 63.9661 59.448C63.8218 59.4314 63.6872 59.3821 63.5622 59.2999C63.4393 59.2165 63.3337 59.0988 63.2454 58.9466C63.172 58.8202 63.1252 58.6926 63.105 58.564C63.0856 58.432 63.0915 58.3039 63.1227 58.1799C63.1525 58.0537 63.2075 57.9386 63.2877 57.8348C63.3666 57.7289 63.4682 57.6398 63.5925 57.5677C63.7039 57.503 63.8152 57.4628 63.9263 57.447C64.0375 57.4312 64.1456 57.4372 64.2506 57.4651C64.3543 57.4908 64.4527 57.5369 64.5456 57.6033C64.6386 57.6696 64.7215 57.7533 64.7944 57.8542C64.8673 57.9551 64.9268 58.0725 64.9729 58.2061C64.7971 58.3081 64.6203 58.4107 64.4425 58.514C64.2646 58.6172 64.0878 58.7198 63.9121 58.8218C64.0001 58.8796 64.1011 58.8983 64.2153 58.8779C64.3317 58.8562 64.4515 58.801 64.5747 58.7122C64.7001 58.6223 64.8217 58.5059 64.9393 58.3631C64.9829 58.4381 65.027 58.5142 65.0718 58.5913C65.1166 58.6685 65.1607 58.7446 65.2043 58.8196ZM63.8557 58.0509C63.7936 58.087 63.7457 58.1377 63.712 58.2031C63.6805 58.2672 63.6713 58.3428 63.6845 58.4296C63.7809 58.3737 63.8773 58.3177 63.9738 58.2617C64.0724 58.2045 64.1699 58.1479 64.2663 58.092C64.1983 58.034 64.1292 58.0039 64.0592 58.0016C63.99 57.9959 63.9222 58.0124 63.8557 58.0509ZM65.6585 58.6591C65.4334 58.2712 65.2064 57.8801 64.9776 57.4858C64.7487 57.0915 64.5217 56.7004 64.2966 56.3125C64.3845 56.2615 64.4734 56.2099 64.5634 56.1576C64.6534 56.1054 64.7413 56.0544 64.827 56.0046C65.0521 56.3925 65.2791 56.7836 65.508 57.1779C65.7368 57.5723 65.9638 57.9634 66.1889 58.3512C66.1032 58.401 66.0153 58.452 65.9253 58.5042C65.8353 58.5565 65.7464 58.6081 65.6585 58.6591ZM67.3765 57.7307C67.2522 57.8029 67.124 57.8486 66.992 57.8679C66.8588 57.8851 66.7295 57.8771 66.6042 57.8438C66.4776 57.8084 66.3607 57.7502 66.2535 57.6691C66.1485 57.5869 66.0593 57.4825 65.9859 57.3561C65.9125 57.2296 65.8661 57.1004 65.8468 56.9684C65.8296 56.8351 65.8377 56.7058 65.8709 56.5805C65.9042 56.4552 65.962 56.34 66.0443 56.235C66.1253 56.1278 66.228 56.0381 66.3523 55.966C66.4787 55.8926 66.6075 55.8479 66.7386 55.832C66.8706 55.8126 66.9993 55.8196 67.1246 55.8529C67.2499 55.8862 67.3651 55.9439 67.4702 56.0262C67.5773 56.1072 67.6676 56.211 67.741 56.3374C67.8144 56.4639 67.8597 56.5937 67.8769 56.727C67.8962 56.859 67.8898 56.9887 67.8578 57.1162C67.8245 57.2415 67.7674 57.3578 67.6864 57.465C67.6062 57.5688 67.5029 57.6574 67.3765 57.7307ZM67.0985 57.2518C67.2035 57.1908 67.2653 57.1048 67.284 56.9937C67.3035 56.8793 67.279 56.7631 67.2106 56.6453C67.141 56.5252 67.0529 56.4475 66.9463 56.4119C66.8406 56.373 66.7352 56.384 66.6302 56.4449C66.5252 56.5059 66.4623 56.5925 66.4416 56.7048C66.4217 56.8138 66.4466 56.9282 66.5163 57.0482C66.5847 57.1661 66.6724 57.2456 66.7793 57.2867C66.8871 57.3243 66.9935 57.3127 67.0985 57.2518ZM69.5956 56.3741C69.5856 56.3569 69.5763 56.3409 69.5676 56.3259C69.5576 56.3087 69.5483 56.2926 69.5396 56.2776C69.5121 56.3537 69.471 56.4235 69.4161 56.4868C69.3646 56.5511 69.3002 56.6056 69.2231 56.6504C69.1138 56.7139 68.9985 56.7521 68.8772 56.7652C68.7559 56.7783 68.6353 56.7681 68.5155 56.7345C68.3967 56.6975 68.2847 56.6378 68.1796 56.5556C68.0767 56.472 67.988 56.366 67.9133 56.2374C67.8375 56.1067 67.7888 55.9759 67.7673 55.8451C67.748 55.7131 67.7524 55.5874 67.7805 55.4679C67.8107 55.3473 67.8622 55.2386 67.935 55.1419C68.0066 55.0431 68.0959 54.9626 68.2031 54.9004C68.2802 54.8556 68.3606 54.8262 68.4441 54.8121C68.5263 54.7958 68.6067 54.7936 68.6851 54.8054C68.6105 54.6768 68.5352 54.5471 68.4594 54.4164C68.3835 54.2857 68.3083 54.156 68.2336 54.0275C68.3215 53.9765 68.4104 53.9249 68.5004 53.8726C68.5904 53.8204 68.6783 53.7694 68.764 53.7196C68.9892 54.1075 69.2161 54.4986 69.445 54.8929C69.6739 55.2872 69.9008 55.6784 70.126 56.0662C70.0402 56.116 69.9524 56.167 69.8624 56.2192C69.7724 56.2715 69.6834 56.3231 69.5956 56.3741ZM69.0214 56.1401C69.1243 56.0804 69.185 55.995 69.2036 55.8839C69.2223 55.7728 69.1961 55.6562 69.1252 55.534C69.0543 55.4119 68.9667 55.3324 68.8622 55.2956C68.7565 55.2567 68.6523 55.2671 68.5494 55.3268C68.4444 55.3877 68.382 55.4727 68.3621 55.5816C68.3444 55.6893 68.3716 55.8053 68.4437 55.9296C68.5159 56.0539 68.6037 56.1361 68.7073 56.1763C68.8117 56.2131 68.9164 56.201 69.0214 56.1401ZM70.9484 56.2765C70.9254 56.138 70.9028 55.9979 70.8806 55.856C70.8618 55.7151 70.8415 55.5764 70.8197 55.4401C70.576 55.2521 70.3288 55.0632 70.0783 54.8735C69.8287 54.6803 69.582 54.4897 69.3382 54.3017C69.4325 54.247 69.5268 54.1923 69.6211 54.1375C69.7154 54.0828 69.8086 54.0287 69.9008 53.9752C70.0361 54.08 70.1726 54.187 70.3105 54.2961C70.4504 54.404 70.5887 54.5114 70.7252 54.6183C70.6958 54.4492 70.6668 54.2783 70.6383 54.1058C70.6098 53.9333 70.5815 53.7635 70.5533 53.5965C70.6455 53.543 70.7376 53.4895 70.8298 53.436C70.9219 53.3826 71.0141 53.3291 71.1062 53.2756C71.1703 53.7168 71.2365 54.164 71.3047 54.6172C71.3738 55.067 71.4404 55.5125 71.5046 55.9537C71.4124 56.0072 71.3192 56.0613 71.2249 56.116C71.1327 56.1695 71.0406 56.223 70.9484 56.2765Z" fill="#2F4ECD"/>
</svg>
