<svg width="112" height="103" viewBox="0 0 112 103" fill="none" xmlns="http://www.w3.org/2000/svg">
<rect x="12.6167" y="37.8222" width="6.01644" height="9.49469" transform="rotate(-25.8431 12.6167 37.8222)" fill="#C17457"/>
<rect x="29.1777" y="16.9648" width="6.01644" height="9.49469" transform="rotate(-25.8431 29.1777 16.9648)" fill="#C17457"/>
<rect x="9.34424" y="49.5615" width="55.182" height="65.8048" rx="6.67449" transform="rotate(-51.4609 9.34424 49.5615)" fill="#F4E3D5"/>
<rect x="12.6216" y="37.75" width="6.01644" height="9.49469" transform="rotate(-51.4609 12.6216 37.75)" fill="#FE9973"/>
<mask id="mask0_139_398" style="mask-type:alpha" maskUnits="userSpaceOnUse" x="50" y="34" width="57" height="63">
<rect x="50.8149" y="82.5957" width="61.4805" height="22.1856" transform="rotate(-51.4609 50.8149 82.5957)" fill="#6CBDAA"/>
</mask>
<g mask="url(#mask0_139_398)">
<path d="M14.5634 53.719C11.6801 51.4224 11.2046 47.2231 13.5013 44.3398L39.5653 11.6187C41.862 8.73543 46.0612 8.25989 48.9445 10.5566L89.9746 43.2391C92.8579 45.5358 93.3334 49.735 91.0368 52.6183L64.9727 85.3394C62.676 88.2227 58.4768 88.6983 55.5935 86.4016L14.5634 53.719Z" fill="#FE9973"/>
</g>
<rect x="29.1978" y="16.9414" width="6.01644" height="9.49469" transform="rotate(-51.4609 29.1978 16.9414)" fill="#FE9973"/>
<path d="M48.4744 23.155C47.0162 23.001 44.3692 24.3237 46.1032 24.3244C47.4427 24.3249 48.0774 23.7185 48.4744 23.155Z" stroke="#404040" stroke-width="0.376027"/>
<path d="M49.5748 22.7431C50.4789 23.8946 50.758 26.8346 49.838 25.3684C49.1274 24.2359 49.3064 23.3776 49.5748 22.7431Z" stroke="#404040" stroke-width="0.376027"/>
<path d="M24.5635 53.9931L48.6654 23.7353" stroke="#404040" stroke-width="0.376027"/>
<ellipse cx="48.2773" cy="21.3242" rx="0.587686" ry="1.10928" transform="rotate(-51.4609 48.2773 21.3242)" fill="#E94812"/>
<ellipse cx="0.585762" cy="1.11295" rx="0.585762" ry="1.11295" transform="matrix(0.993273 -0.115793 0.109256 0.994014 48.7583 19.6885)" fill="#E94812"/>
<ellipse cx="0.58401" cy="1.11627" rx="0.58401" ry="1.11627" transform="matrix(0.898075 0.439842 -0.442312 0.896861 48.875 22.5429)" fill="#E94812"/>
<ellipse cx="0.584692" cy="1.11498" rx="0.584692" ry="1.11498" transform="matrix(0.393222 0.919444 -0.917278 0.398248 48.7832 21.8066)" fill="#E94812"/>
<ellipse cx="0.587206" cy="1.1102" rx="0.587206" ry="1.1102" transform="matrix(-0.858042 0.513579 -0.509843 -0.860267 51.4399 24.3965)" fill="#E94812"/>
<ellipse cx="0.585762" cy="1.11295" rx="0.585762" ry="1.11295" transform="matrix(0.109256 0.994014 -0.993273 0.115793 52.2153 21.6435)" fill="#E94812"/>
<ellipse cx="50.7097" cy="21.0838" rx="0.583832" ry="1.1166" transform="rotate(38.5391 50.7097 21.0838)" fill="#E94812"/>
<ellipse cx="49.5234" cy="22.2792" rx="0.993588" ry="0.987072" transform="rotate(-51.4609 49.5234 22.2792)" fill="#FECC73"/>
<path d="M54.2112 27.7254C52.753 27.5713 50.106 28.894 51.84 28.8947C53.1795 28.8952 53.8142 28.2888 54.2112 27.7254Z" stroke="#404040" stroke-width="0.376027"/>
<path d="M55.3117 27.3134C56.2157 28.4649 56.4948 31.4049 55.5749 29.9387C54.8642 28.8062 55.0432 27.9479 55.3117 27.3134Z" stroke="#404040" stroke-width="0.376027"/>
<path d="M30.2988 58.5625L54.4007 28.3046" stroke="#404040" stroke-width="0.376027"/>
<ellipse cx="54.0131" cy="25.8945" rx="0.587686" ry="1.10928" transform="rotate(-51.4609 54.0131 25.8945)" fill="#E94812"/>
<ellipse cx="0.585762" cy="1.11295" rx="0.585762" ry="1.11295" transform="matrix(0.993273 -0.115793 0.109256 0.994014 54.4946 24.2588)" fill="#E94812"/>
<ellipse cx="0.58401" cy="1.11627" rx="0.58401" ry="1.11627" transform="matrix(0.898075 0.439842 -0.442312 0.896861 54.6104 27.1113)" fill="#E94812"/>
<ellipse cx="0.584692" cy="1.11498" rx="0.584692" ry="1.11498" transform="matrix(0.393222 0.919444 -0.917278 0.398248 54.5195 26.3769)" fill="#E94812"/>
<ellipse cx="0.587206" cy="1.1102" rx="0.587206" ry="1.1102" transform="matrix(-0.858042 0.513579 -0.509843 -0.860267 57.1763 28.9668)" fill="#E94812"/>
<ellipse cx="0.585762" cy="1.11295" rx="0.585762" ry="1.11295" transform="matrix(0.109256 0.994014 -0.993273 0.115793 57.9512 26.2138)" fill="#E94812"/>
<ellipse cx="56.446" cy="25.6531" rx="0.583832" ry="1.1166" transform="rotate(38.5391 56.446 25.6531)" fill="#E94812"/>
<ellipse cx="55.2593" cy="26.8495" rx="0.993588" ry="0.987072" transform="rotate(-51.4609 55.2593 26.8495)" fill="#FECC73"/>
<path d="M60.0173 32.3494C58.5592 32.1953 55.9121 33.518 57.6462 33.5187C58.9856 33.5193 59.6203 32.9129 60.0173 32.3494Z" stroke="#404040" stroke-width="0.376027"/>
<path d="M61.1183 31.9384C62.0224 33.0899 62.3015 36.0299 61.3815 34.5637C60.6708 33.4312 60.8498 32.5729 61.1183 31.9384Z" stroke="#404040" stroke-width="0.376027"/>
<path d="M36.1064 63.1885L60.2083 32.9306" stroke="#404040" stroke-width="0.376027"/>
<ellipse cx="59.8207" cy="30.5195" rx="0.587686" ry="1.10928" transform="rotate(-51.4609 59.8207 30.5195)" fill="#E94812"/>
<ellipse cx="0.585762" cy="1.11295" rx="0.585762" ry="1.11295" transform="matrix(0.993273 -0.115793 0.109256 0.994014 60.3027 28.8847)" fill="#E94812"/>
<ellipse cx="0.58401" cy="1.11627" rx="0.58401" ry="1.11627" transform="matrix(0.898075 0.439842 -0.442312 0.896861 60.418 31.7373)" fill="#E94812"/>
<ellipse cx="0.584692" cy="1.11498" rx="0.584692" ry="1.11498" transform="matrix(0.393222 0.919444 -0.917278 0.398248 60.3262 31.001)" fill="#E94812"/>
<ellipse cx="0.587206" cy="1.1102" rx="0.587206" ry="1.1102" transform="matrix(-0.858042 0.513579 -0.509843 -0.860267 62.9829 33.5908)" fill="#E94812"/>
<ellipse cx="0.585762" cy="1.11295" rx="0.585762" ry="1.11295" transform="matrix(0.109256 0.994014 -0.993273 0.115793 63.7588 30.8398)" fill="#E94812"/>
<ellipse cx="62.2527" cy="30.2772" rx="0.583832" ry="1.1166" transform="rotate(38.5391 62.2527 30.2772)" fill="#E94812"/>
<ellipse cx="61.0679" cy="31.4745" rx="0.993588" ry="0.987072" transform="rotate(-51.4609 61.0679 31.4745)" fill="#FECC73"/>
<path d="M65.8274 36.9773C64.3692 36.8232 61.7222 38.1459 63.4562 38.1466C64.7957 38.1472 65.4304 37.5408 65.8274 36.9773Z" stroke="#404040" stroke-width="0.376027"/>
<path d="M66.9274 36.5644C67.8315 37.7159 68.1106 40.6559 67.1906 39.1897C66.4799 38.0572 66.6589 37.1989 66.9274 36.5644Z" stroke="#404040" stroke-width="0.376027"/>
<path d="M41.915 67.8144L66.0169 37.5566" stroke="#404040" stroke-width="0.376027"/>
<ellipse cx="65.6298" cy="35.1445" rx="0.587686" ry="1.10928" transform="rotate(-51.4609 65.6298 35.1445)" fill="#E94812"/>
<ellipse cx="0.585762" cy="1.11295" rx="0.585762" ry="1.11295" transform="matrix(0.993273 -0.115793 0.109256 0.994014 66.1118 33.5097)" fill="#E94812"/>
<ellipse cx="0.58401" cy="1.11627" rx="0.58401" ry="1.11627" transform="matrix(0.898075 0.439842 -0.442312 0.896861 66.2266 36.3633)" fill="#E94812"/>
<ellipse cx="0.584692" cy="1.11498" rx="0.584692" ry="1.11498" transform="matrix(0.393222 0.919444 -0.917278 0.398248 66.1348 35.6269)" fill="#E94812"/>
<ellipse cx="0.587206" cy="1.1102" rx="0.587206" ry="1.1102" transform="matrix(-0.858042 0.513579 -0.509843 -0.860267 68.7915 38.2168)" fill="#E94812"/>
<ellipse cx="0.585762" cy="1.11295" rx="0.585762" ry="1.11295" transform="matrix(0.109256 0.994014 -0.993273 0.115793 69.5679 35.4658)" fill="#E94812"/>
<ellipse cx="68.0617" cy="34.9031" rx="0.583832" ry="1.1166" transform="rotate(38.5391 68.0617 34.9031)" fill="#E94812"/>
<ellipse cx="66.876" cy="36.1005" rx="0.993588" ry="0.987072" transform="rotate(-51.4609 66.876 36.1005)" fill="#FECC73"/>
<path d="M71.636 41.6043C70.1778 41.4502 67.5308 42.7729 69.2648 42.7736C70.6043 42.7741 71.239 42.1677 71.636 41.6043Z" stroke="#404040" stroke-width="0.376027"/>
<path d="M72.737 41.1923C73.641 42.3438 73.9201 45.2838 73.0001 43.8177C72.2895 42.6851 72.4685 41.8268 72.737 41.1923Z" stroke="#404040" stroke-width="0.376027"/>
<path d="M47.7261 72.4424L71.828 42.1845" stroke="#404040" stroke-width="0.376027"/>
<ellipse cx="71.4399" cy="39.7724" rx="0.587686" ry="1.10928" transform="rotate(-51.4609 71.4399 39.7724)" fill="#E94812"/>
<ellipse cx="0.585762" cy="1.11295" rx="0.585762" ry="1.11295" transform="matrix(0.993273 -0.115793 0.109256 0.994014 71.9209 38.1377)" fill="#E94812"/>
<ellipse cx="0.58401" cy="1.11627" rx="0.58401" ry="1.11627" transform="matrix(0.898075 0.439842 -0.442312 0.896861 72.0376 40.9912)" fill="#E94812"/>
<ellipse cx="0.584692" cy="1.11498" rx="0.584692" ry="1.11498" transform="matrix(0.393222 0.919444 -0.917278 0.398248 71.9458 40.2549)" fill="#E94812"/>
<ellipse cx="0.587206" cy="1.1102" rx="0.587206" ry="1.1102" transform="matrix(-0.858042 0.513579 -0.509843 -0.860267 74.6025 42.8447)" fill="#E94812"/>
<ellipse cx="0.585762" cy="1.11295" rx="0.585762" ry="1.11295" transform="matrix(0.109256 0.994014 -0.993273 0.115793 75.3784 40.0947)" fill="#E94812"/>
<ellipse cx="73.8723" cy="39.532" rx="0.583832" ry="1.1166" transform="rotate(38.5391 73.8723 39.532)" fill="#E94812"/>
<ellipse cx="72.6856" cy="40.7275" rx="0.993588" ry="0.987072" transform="rotate(-51.4609 72.6856 40.7275)" fill="#FECC73"/>
<path d="M23.4214 52.8852C23.0958 52.6259 22.7663 52.3634 22.433 52.0979C22.0996 51.8324 21.7701 51.5699 21.4445 51.3106C21.6005 51.1148 21.7579 50.9171 21.9169 50.7175C22.0759 50.5179 22.2334 50.3202 22.3893 50.1245C22.463 50.1831 22.5386 50.2433 22.6161 50.3051C22.6936 50.3668 22.7692 50.427 22.8428 50.4857C22.7533 50.5981 22.663 50.7115 22.5719 50.8258C22.4824 50.9382 22.3928 51.0507 22.3033 51.1631C22.3517 51.2017 22.4002 51.2403 22.4486 51.2788C22.4952 51.3159 22.5426 51.3537 22.5911 51.3923C22.6729 51.2896 22.7555 51.1859 22.8389 51.0813C22.9222 50.9766 23.0041 50.8739 23.0843 50.7731C23.156 50.8302 23.2287 50.8881 23.3024 50.9468C23.376 51.0054 23.4497 51.0641 23.5233 51.1228C23.443 51.2235 23.3612 51.3263 23.2779 51.4309C23.1945 51.5356 23.1119 51.6393 23.0301 51.742C23.0863 51.7868 23.1435 51.8323 23.2016 51.8786C23.2597 51.9249 23.3169 51.9705 23.3731 52.0152C23.4627 51.9028 23.5522 51.7904 23.6417 51.678C23.7328 51.5637 23.8231 51.4503 23.9127 51.3379C23.9863 51.3965 24.0619 51.4567 24.1394 51.5185C24.217 51.5802 24.2925 51.6405 24.3662 51.6991C24.2103 51.8949 24.0528 52.0926 23.8938 52.2922C23.7348 52.4918 23.5773 52.6895 23.4214 52.8852ZM24.6217 51.3784C24.3736 51.1808 24.1236 50.9816 23.8716 50.781C23.6177 50.5787 23.3667 50.3788 23.1187 50.1812C23.182 50.1017 23.246 50.0213 23.3109 49.9399C23.3757 49.8585 23.439 49.779 23.5007 49.7015C23.5143 49.7123 23.5269 49.7224 23.5385 49.7316C23.5502 49.7409 23.5628 49.7509 23.5763 49.7617C23.5812 49.6801 23.5994 49.5995 23.631 49.5201C23.6621 49.4373 23.7078 49.358 23.768 49.2824C23.856 49.172 23.9584 49.0951 24.0752 49.0519C24.1935 49.0068 24.3187 48.9988 24.4507 49.0279C24.5823 49.0536 24.714 49.1189 24.8458 49.2239C24.997 49.3443 25.1491 49.4655 25.3022 49.5874C25.4553 49.7094 25.6075 49.8306 25.7587 49.951C25.6969 50.0285 25.6336 50.108 25.5688 50.1894C25.5039 50.2708 25.4399 50.3512 25.3766 50.4307C25.237 50.3195 25.0955 50.2068 24.9521 50.0926C24.8087 49.9783 24.6672 49.8656 24.5277 49.7545C24.4502 49.6927 24.3735 49.6618 24.2976 49.6615C24.2214 49.6578 24.1524 49.6947 24.0906 49.7722C24.0289 49.8498 24.0033 49.9276 24.0139 50.0058C24.0245 50.0839 24.0715 50.1562 24.1549 50.2225C24.2944 50.3337 24.4359 50.4464 24.5793 50.5606C24.7227 50.6749 24.8642 50.7876 25.0037 50.8987C24.942 50.9762 24.8787 51.0557 24.8139 51.1371C24.749 51.2185 24.6849 51.2989 24.6217 51.3784ZM25.9946 49.6548C25.6438 49.3754 25.2901 49.0936 24.9335 48.8096C24.5769 48.5255 24.2232 48.2438 23.8724 47.9643C23.9357 47.8849 23.9997 47.8044 24.0646 47.723C24.1294 47.6416 24.1927 47.5622 24.2545 47.4847C24.6053 47.7641 24.959 48.0458 25.3156 48.3299C25.6722 48.6139 26.0259 48.8957 26.3767 49.1751C26.3149 49.2526 26.2516 49.3321 26.1868 49.4135C26.122 49.4949 26.0579 49.5753 25.9946 49.6548ZM25.1726 47.2507C25.1279 47.3069 25.0734 47.3474 25.0092 47.3723C24.9465 47.3953 24.8821 47.4026 24.8159 47.3942C24.7498 47.3858 24.6895 47.36 24.6353 47.3168C24.581 47.2736 24.5433 47.2214 24.5223 47.1603C24.4994 47.0977 24.4921 47.0333 24.5004 46.9671C24.5104 46.899 24.5377 46.8368 24.5825 46.7806C24.6257 46.7263 24.6786 46.6877 24.7413 46.6647C24.8055 46.6398 24.8706 46.6316 24.9368 46.6399C25.0011 46.6468 25.0603 46.6718 25.1146 46.715C25.1689 46.7583 25.2075 46.8112 25.2305 46.8738C25.2534 46.9365 25.2599 47.0019 25.25 47.07C25.2416 47.1362 25.2158 47.1964 25.1726 47.2507ZM26.6549 48.8258C26.4069 48.6282 26.1568 48.429 25.9049 48.2283C25.651 48.0261 25.4 47.8262 25.1519 47.6286C25.2152 47.5491 25.2793 47.4687 25.3441 47.3873C25.409 47.3059 25.4723 47.2264 25.534 47.1489C25.7821 47.3465 26.0331 47.5464 26.287 47.7487C26.5389 47.9494 26.7889 48.1485 27.037 48.3461C26.9753 48.4236 26.912 48.5031 26.8471 48.5845C26.7823 48.6659 26.7182 48.7463 26.6549 48.8258ZM28.1849 46.4039C28.3497 46.5352 28.4587 46.6806 28.512 46.8403C28.5669 46.9981 28.5729 47.1597 28.5299 47.325C28.4888 47.4919 28.4068 47.6546 28.2837 47.8131C28.1621 47.9697 28.0084 48.1149 27.8225 48.2488C27.7469 48.1886 27.6704 48.1276 27.5929 48.0659C27.5173 48.0057 27.4417 47.9455 27.3661 47.8852C27.5482 47.78 27.6886 47.6654 27.7874 47.5413C27.8881 47.4188 27.9428 47.3024 27.9515 47.1921C27.9598 47.0783 27.9203 46.9867 27.8331 46.9172C27.8234 46.9095 27.8147 46.9026 27.8069 46.8964C27.7972 46.8887 27.7885 46.8817 27.7808 46.8755C27.779 46.9533 27.7633 47.0327 27.7337 47.1136C27.704 47.1946 27.6599 47.2719 27.6012 47.3455C27.504 47.4676 27.3886 47.5547 27.2552 47.6069C27.1215 47.6555 26.9826 47.6668 26.8385 47.6408C26.6926 47.6133 26.5518 47.5455 26.4161 47.4374C26.3115 47.354 26.2294 47.2602 26.17 47.1558C26.1106 47.0515 26.0736 46.9428 26.059 46.8298C26.0445 46.7169 26.0524 46.6075 26.0827 46.5018C26.1111 46.3946 26.1601 46.2973 26.2295 46.2101C26.2851 46.1404 26.3465 46.0832 26.4138 46.0385C26.481 45.9939 26.5496 45.9614 26.6196 45.9411C26.606 45.9303 26.5935 45.9203 26.5818 45.911C26.5702 45.9018 26.5576 45.8917 26.544 45.8809C26.6073 45.8015 26.6714 45.721 26.7362 45.6396C26.8011 45.5582 26.8644 45.4788 26.9261 45.4013C27.1335 45.5664 27.3438 45.7339 27.557 45.9038C27.7682 46.072 27.9775 46.2388 28.1849 46.4039ZM27.2804 46.8952C27.3453 46.8138 27.3718 46.7288 27.36 46.6402C27.3478 46.5481 27.301 46.4697 27.2196 46.4048C27.1363 46.3384 27.0484 46.3096 26.9559 46.3183C26.865 46.3251 26.7871 46.3692 26.7223 46.4506C26.6543 46.5358 26.6265 46.6245 26.6387 46.7166C26.6489 46.8071 26.6967 46.8863 26.782 46.9543C26.8653 47.0207 26.9522 47.0487 27.0428 47.0385C27.1333 47.0282 27.2125 46.9805 27.2804 46.8952ZM28.6947 46.265C28.3439 45.9856 27.9902 45.7038 27.6336 45.4198C27.277 45.1357 26.9233 44.854 26.5725 44.5746C26.6358 44.4951 26.6999 44.4147 26.7647 44.3333C26.8296 44.2519 26.8929 44.1724 26.9546 44.0949C27.069 44.186 27.1852 44.2786 27.3035 44.3728C27.4197 44.4654 27.5351 44.5572 27.6494 44.6483C27.6543 44.5667 27.6725 44.4861 27.704 44.4067C27.7352 44.3239 27.7809 44.2446 27.8411 44.169C27.9291 44.0586 28.0315 43.9817 28.1483 43.9385C28.2666 43.8934 28.3918 43.8854 28.5238 43.9145C28.6554 43.9402 28.7871 44.0055 28.9189 44.1105C29.0701 44.2309 29.2222 44.3521 29.3753 44.474C29.5284 44.596 29.6806 44.7172 29.8317 44.8376C29.77 44.9151 29.7067 44.9946 29.6418 45.076C29.577 45.1574 29.5129 45.2378 29.4496 45.3173C29.3101 45.2061 29.1686 45.0934 29.0252 44.9792C28.8818 44.8649 28.7403 44.7523 28.6008 44.6411C28.5232 44.5793 28.4465 44.5484 28.3707 44.5481C28.2945 44.5444 28.2255 44.5813 28.1637 44.6589C28.102 44.7364 28.0764 44.8142 28.087 44.8924C28.0976 44.9705 28.1446 45.0428 28.2279 45.1091C28.3675 45.2203 28.509 45.333 28.6524 45.4472C28.7958 45.5615 28.9373 45.6742 29.0768 45.7853C29.0151 45.8629 28.9518 45.9423 28.8869 46.0237C28.8221 46.1051 28.758 46.1855 28.6947 46.265ZM30.1944 44.3822C30.0161 44.2402 29.8369 44.0974 29.6566 43.9538C29.4764 43.8103 29.2981 43.6682 29.1217 43.5278C29.0908 43.5665 29.0592 43.6063 29.0268 43.647C28.9959 43.6857 28.965 43.7245 28.9341 43.7632C28.8624 43.7061 28.7907 43.649 28.719 43.5919C28.6473 43.5348 28.5756 43.4776 28.5039 43.4205C28.5348 43.3818 28.5656 43.343 28.5965 43.3042C28.6289 43.2635 28.6606 43.2238 28.6915 43.185C28.6236 43.131 28.5568 43.0777 28.4909 43.0253C28.423 42.9712 28.3562 42.918 28.2903 42.8655C28.3536 42.786 28.4176 42.7056 28.4825 42.6242C28.5473 42.5428 28.6106 42.4633 28.6724 42.3858C28.7382 42.4383 28.8051 42.4915 28.8729 42.5456C28.9388 42.5981 29.0057 42.6513 29.0735 42.7054C29.109 42.6608 29.1453 42.6152 29.1824 42.5687C29.2194 42.5222 29.2557 42.4767 29.2912 42.4321C29.3629 42.4892 29.4346 42.5463 29.5063 42.6034C29.5781 42.6606 29.6498 42.7177 29.7215 42.7748C29.686 42.8194 29.6497 42.8649 29.6126 42.9114C29.5756 42.958 29.5393 43.0035 29.5038 43.0481C29.6802 43.1886 29.8585 43.3306 30.0387 43.4742C30.219 43.6177 30.3982 43.7605 30.5765 43.9026C30.5148 43.9801 30.4515 44.0596 30.3866 44.141C30.3218 44.2224 30.2577 44.3028 30.1944 44.3822ZM31.9279 42.0629C31.8776 42.2414 31.8067 42.4019 31.7153 42.5445C31.6239 42.6871 31.5166 42.806 31.3933 42.901C31.2736 42.9957 31.1435 43.0616 31.0031 43.0986C30.8627 43.1357 30.7193 43.1387 30.573 43.1077C30.4282 43.0747 30.287 43.0034 30.1494 42.8938C30.035 42.8027 29.945 42.7009 29.8794 42.5885C29.8134 42.4725 29.7723 42.3511 29.7562 42.2242C29.7381 42.0958 29.7475 41.9686 29.7844 41.8428C29.8193 41.7154 29.8816 41.5955 29.9711 41.4831C30.0514 41.3823 30.1404 41.3043 30.2382 41.2492C30.336 41.194 30.4389 41.1603 30.5468 41.1481C30.6528 41.1343 30.7612 41.1415 30.8719 41.1695C30.9826 41.1975 31.0903 41.2452 31.1949 41.3127C31.2996 41.3802 31.3976 41.4679 31.4892 41.5757C31.3626 41.7346 31.2352 41.8945 31.1071 42.0553C30.979 42.2162 30.8516 42.3761 30.725 42.535C30.828 42.5569 30.929 42.5375 31.0279 42.4769C31.1284 42.4144 31.2199 42.3194 31.3024 42.1919C31.3865 42.0625 31.4574 41.9099 31.5151 41.7341C31.5829 41.7881 31.6517 41.8429 31.7215 41.8985C31.7913 41.9541 31.8601 42.0089 31.9279 42.0629ZM30.3921 41.8374C30.3473 41.8936 30.3212 41.9583 30.3136 42.0315C30.3075 42.1027 30.3265 42.1764 30.3704 42.2525C30.4398 42.1653 30.5093 42.0781 30.5788 41.9909C30.6498 41.9017 30.72 41.8135 30.7895 41.7263C30.7051 41.6971 30.6298 41.6941 30.5637 41.7175C30.4972 41.7374 30.44 41.7773 30.3921 41.8374ZM32.2811 41.7627C32.033 41.5651 31.783 41.3659 31.531 41.1652C31.2771 40.963 31.0261 40.7631 30.7781 40.5655C30.8414 40.486 30.9054 40.4056 30.9703 40.3242C31.0351 40.2428 31.0984 40.1633 31.1602 40.0858C31.1737 40.0966 31.1863 40.1066 31.1979 40.1159C31.2096 40.1252 31.2222 40.1352 31.2357 40.146C31.2406 40.0643 31.2588 39.9838 31.2904 39.9044C31.3215 39.8215 31.3672 39.7423 31.4274 39.6667C31.5154 39.5563 31.6178 39.4794 31.7346 39.4362C31.8529 39.3911 31.9781 39.3831 32.1101 39.4122C32.2417 39.4379 32.3734 39.5032 32.5052 39.6081C32.6564 39.7286 32.8085 39.8498 32.9616 39.9717C33.1147 40.0937 33.2669 40.2149 33.4181 40.3353C33.3563 40.4128 33.293 40.4923 33.2282 40.5737C33.1633 40.6551 33.0993 40.7355 33.036 40.815C32.8964 40.7038 32.7549 40.5911 32.6115 40.4769C32.4681 40.3626 32.3266 40.2499 32.1871 40.1388C32.1096 40.077 32.0329 40.046 31.957 40.0458C31.8808 40.0421 31.8118 40.079 31.75 40.1565C31.6883 40.2341 31.6627 40.3119 31.6733 40.39C31.6839 40.4682 31.7309 40.5404 31.8143 40.6068C31.9538 40.718 32.0953 40.8307 32.2387 40.9449C32.3821 41.0592 32.5236 41.1719 32.6631 41.283C32.6014 41.3605 32.5381 41.44 32.4733 41.5214C32.4084 41.6028 32.3444 41.6832 32.2811 41.7627ZM33.6537 40.0394C33.4057 39.8418 33.1556 39.6427 32.9037 39.442C32.6498 39.2397 32.3988 39.0398 32.1507 38.8422C32.214 38.7627 32.2781 38.6823 32.3429 38.6009C32.4078 38.5195 32.4711 38.44 32.5328 38.3625C32.5464 38.3733 32.559 38.3834 32.5706 38.3926C32.5823 38.4019 32.5949 38.4119 32.6084 38.4227C32.6117 38.343 32.6284 38.2644 32.6584 38.187C32.6865 38.108 32.7268 38.0355 32.7793 37.9696C32.8364 37.8979 32.9015 37.842 32.9745 37.802C33.0457 37.7605 33.1214 37.7369 33.2019 37.7313C33.2067 37.6338 33.2274 37.5362 33.264 37.4386C33.3021 37.3391 33.3543 37.2477 33.4207 37.1643C33.5149 37.0461 33.6202 36.9637 33.7365 36.917C33.8545 36.8684 33.9765 36.8563 34.1027 36.8808C34.2305 36.9034 34.3573 36.9648 34.4833 37.0652C34.6384 37.1887 34.7954 37.3137 34.9543 37.4403C35.1132 37.5669 35.2702 37.6919 35.4252 37.8154C35.3635 37.893 35.3002 37.9724 35.2354 38.0538C35.1705 38.1352 35.1064 38.2157 35.0431 38.2951C34.8978 38.1793 34.7505 38.062 34.6013 37.9431C34.452 37.8243 34.3047 37.7069 34.1594 37.5911C34.0935 37.5387 34.0278 37.5117 33.9624 37.5103C33.8966 37.5054 33.8375 37.5359 33.785 37.6018C33.7341 37.6658 33.7143 37.7324 33.7256 37.8016C33.7366 37.8674 33.777 37.928 33.8468 37.9836C33.9921 38.0994 34.1394 38.2167 34.2886 38.3356C34.4379 38.4545 34.5852 38.5718 34.7305 38.6876C34.6688 38.7651 34.6055 38.8446 34.5406 38.926C34.4758 39.0074 34.4117 39.0878 34.3484 39.1673C34.2031 39.0515 34.0558 38.9341 33.9066 38.8153C33.7573 38.6964 33.61 38.5791 33.4647 38.4633C33.3988 38.4108 33.3331 38.3839 33.2677 38.3824C33.2019 38.3776 33.1428 38.4081 33.0903 38.4739C33.0394 38.5379 33.0196 38.6045 33.0309 38.6737C33.0419 38.7395 33.0823 38.8002 33.1521 38.8558C33.2974 38.9715 33.4447 39.0889 33.5939 39.2077C33.7432 39.3266 33.8905 39.4439 34.0358 39.5597C33.9741 39.6372 33.9108 39.7167 33.8459 39.7981C33.7811 39.8795 33.717 39.9599 33.6537 40.0394ZM36.6226 36.1691C36.5723 36.3476 36.5014 36.5082 36.41 36.6508C36.3186 36.7934 36.2113 36.9122 36.088 37.0072C35.9682 37.1019 35.8382 37.1678 35.6978 37.2048C35.5574 37.2419 35.414 37.2449 35.2677 37.2139C35.1229 37.1809 34.9817 37.1096 34.8441 37C34.7297 36.9089 34.6397 36.8071 34.5741 36.6947C34.5081 36.5787 34.467 36.4573 34.4509 36.3304C34.4328 36.202 34.4422 36.0748 34.4791 35.949C34.514 35.8216 34.5763 35.7017 34.6658 35.5893C34.7461 35.4885 34.8351 35.4105 34.9329 35.3554C35.0307 35.3002 35.1336 35.2665 35.2415 35.2543C35.3475 35.2406 35.4559 35.2477 35.5666 35.2757C35.6773 35.3037 35.785 35.3515 35.8896 35.419C35.9943 35.4865 36.0923 35.5741 36.1839 35.6819C36.0573 35.8408 35.9299 36.0007 35.8018 36.1616C35.6737 36.3224 35.5463 36.4823 35.4197 36.6412C35.5227 36.6631 35.6237 36.6437 35.7226 36.5831C35.8231 36.5206 35.9146 36.4256 35.9971 36.2981C36.0812 36.1687 36.1521 36.0161 36.2098 35.8403C36.2776 35.8943 36.3464 35.9491 36.4162 36.0047C36.4859 36.0603 36.5547 36.1151 36.6226 36.1691ZM35.0868 35.9436C35.042 35.9999 35.0159 36.0645 35.0083 36.1377C35.0022 36.2089 35.0212 36.2826 35.065 36.3587C35.1345 36.2715 35.204 36.1843 35.2735 36.0971C35.3445 36.0079 35.4147 35.9197 35.4842 35.8325C35.3998 35.8033 35.3245 35.8004 35.2584 35.8237C35.1919 35.8436 35.1347 35.8836 35.0868 35.9436ZM36.9758 35.8689C36.7277 35.6713 36.4777 35.4721 36.2257 35.2715C35.9718 35.0692 35.7208 34.8693 35.4728 34.6717C35.5361 34.5922 35.6001 34.5118 35.665 34.4304C35.7298 34.349 35.7931 34.2695 35.8548 34.192C35.8684 34.2028 35.881 34.2129 35.8926 34.2221C35.9043 34.2314 35.9169 34.2414 35.9304 34.2522C35.9353 34.1706 35.9535 34.09 35.9851 34.0106C36.0162 33.9278 36.0619 33.8485 36.1221 33.7729C36.2101 33.6625 36.3125 33.5856 36.4293 33.5424C36.5476 33.4973 36.6728 33.4893 36.8048 33.5184C36.9364 33.5441 37.0681 33.6094 37.1999 33.7144C37.3511 33.8348 37.5032 33.956 37.6563 34.0779C37.8094 34.1999 37.9616 34.3211 38.1128 34.4415C38.051 34.519 37.9877 34.5985 37.9229 34.6799C37.858 34.7613 37.794 34.8417 37.7307 34.9212C37.5911 34.81 37.4496 34.6973 37.3062 34.5831C37.1628 34.4688 37.0213 34.3561 36.8818 34.245C36.8043 34.1832 36.7276 34.1523 36.6517 34.152C36.5755 34.1483 36.5065 34.1852 36.4447 34.2627C36.383 34.3403 36.3574 34.4181 36.368 34.4962C36.3786 34.5744 36.4256 34.6467 36.509 34.713C36.6485 34.8242 36.79 34.9369 36.9334 35.0511C37.0768 35.1654 37.2183 35.2781 37.3578 35.3892C37.2961 35.4667 37.2328 35.5462 37.168 35.6276C37.1031 35.709 37.039 35.7894 36.9758 35.8689ZM38.4735 33.9886C38.2952 33.8466 38.1159 33.7038 37.9357 33.5602C37.7554 33.4167 37.5771 33.2746 37.4007 33.1341C37.3699 33.1729 37.3382 33.2126 37.3058 33.2533C37.2749 33.2921 37.244 33.3309 37.2132 33.3696C37.1415 33.3125 37.0698 33.2554 36.998 33.1983C36.9263 33.1411 36.8546 33.084 36.7829 33.0269C36.8138 32.9881 36.8447 32.9494 36.8755 32.9106C36.908 32.8699 36.9396 32.8302 36.9705 32.7914C36.9026 32.7374 36.8358 32.6841 36.7699 32.6316C36.7021 32.5776 36.6352 32.5244 36.5693 32.4719C36.6326 32.3924 36.6967 32.312 36.7615 32.2306C36.8263 32.1492 36.8896 32.0697 36.9514 31.9922C37.0173 32.0447 37.0841 32.0979 37.152 32.152C37.2179 32.2045 37.2847 32.2577 37.3526 32.3117C37.3881 32.2672 37.4244 32.2216 37.4614 32.1751C37.4985 32.1286 37.5347 32.0831 37.5702 32.0385C37.642 32.0956 37.7137 32.1527 37.7854 32.2098C37.8571 32.267 37.9288 32.3241 38.0005 32.3812C37.965 32.4258 37.9287 32.4713 37.8917 32.5178C37.8546 32.5643 37.8183 32.6099 37.7828 32.6545C37.9592 32.795 38.1375 32.937 38.3177 33.0806C38.498 33.2241 38.6773 33.3669 38.8556 33.509C38.7938 33.5865 38.7305 33.6659 38.6657 33.7473C38.6008 33.8287 38.5368 33.9092 38.4735 33.9886ZM40.1933 30.8751C40.3134 30.9708 40.3853 31.0835 40.4088 31.2131C40.4319 31.3392 40.4161 31.4723 40.3614 31.6125C40.3068 31.7527 40.221 31.8903 40.104 32.0252C39.9905 32.1597 39.8563 32.2825 39.7013 32.3935C39.6277 32.3348 39.5521 32.2746 39.4746 32.2128C39.3971 32.1511 39.3215 32.0909 39.2478 32.0322C39.3495 31.9801 39.4434 31.9219 39.5296 31.8575C39.6138 31.7915 39.6841 31.7271 39.7404 31.6643C39.7968 31.6015 39.8344 31.5444 39.8533 31.4929C39.8702 31.4398 39.8612 31.3994 39.8263 31.3716C39.7992 31.35 39.764 31.3505 39.7207 31.373C39.6789 31.3936 39.6306 31.4264 39.5758 31.4714C39.519 31.5148 39.4572 31.5606 39.3903 31.6088C39.3231 31.6534 39.2514 31.6897 39.1752 31.7178C39.0971 31.7442 39.016 31.7525 38.932 31.7427C38.8476 31.7293 38.7599 31.6863 38.6688 31.6138C38.5603 31.5273 38.4929 31.423 38.4667 31.3008C38.4402 31.175 38.4499 31.0435 38.4961 30.906C38.5403 30.767 38.6149 30.6316 38.7199 30.4998C38.8249 30.368 38.9544 30.251 39.1086 30.1489C39.1823 30.2076 39.2579 30.2678 39.3354 30.3296C39.4129 30.3913 39.4885 30.4515 39.5621 30.5102C39.4234 30.577 39.3074 30.651 39.2143 30.7321C39.1212 30.8131 39.0583 30.8882 39.0256 30.9571C38.9909 31.0245 38.9939 31.0744 39.0346 31.1068C39.0617 31.1285 39.0962 31.129 39.1379 31.1084C39.1793 31.0843 39.2266 31.0507 39.2799 31.0077C39.3348 30.9626 39.3958 30.9178 39.4631 30.8732C39.5318 30.8266 39.6045 30.791 39.6811 30.7665C39.7573 30.7385 39.8385 30.7319 39.9248 30.7468C40.0108 30.7583 40.1002 30.801 40.1933 30.8751ZM40.9678 30.8572C40.7895 30.7152 40.6102 30.5724 40.43 30.4288C40.2498 30.2852 40.0714 30.1432 39.8951 30.0027C39.8642 30.0415 39.8326 30.0812 39.8001 30.1219C39.7693 30.1607 39.7384 30.1994 39.7075 30.2382C39.6358 30.1811 39.5641 30.124 39.4924 30.0668C39.4207 30.0097 39.349 29.9526 39.2773 29.8955C39.3081 29.8567 39.339 29.818 39.3699 29.7792C39.4023 29.7385 39.4339 29.6988 39.4648 29.66C39.397 29.606 39.3301 29.5527 39.2642 29.5002C39.1964 29.4462 39.1295 29.3929 39.0636 29.3404C39.1269 29.261 39.191 29.1805 39.2558 29.0991C39.3207 29.0177 39.384 28.9383 39.4457 28.8608C39.5116 28.9132 39.5785 28.9665 39.6463 29.0205C39.7122 29.073 39.7791 29.1263 39.8469 29.1803C39.8824 29.1357 39.9187 29.0902 39.9557 29.0437C39.9928 28.9972 40.0291 28.9516 40.0646 28.9071C40.1363 28.9642 40.208 29.0213 40.2797 29.0784C40.3514 29.1355 40.4231 29.1927 40.4948 29.2498C40.4593 29.2943 40.4231 29.3399 40.386 29.3864C40.349 29.4329 40.3127 29.4785 40.2772 29.523C40.4535 29.6635 40.6318 29.8056 40.8121 29.9491C40.9923 30.0927 41.1716 30.2355 41.3499 30.3775C41.2882 30.4551 41.2249 30.5345 41.16 30.6159C41.0952 30.6973 41.0311 30.7778 40.9678 30.8572ZM42.5395 28.8841C42.524 28.8718 42.5094 28.8602 42.4959 28.8494C42.4803 28.8371 42.4658 28.8255 42.4522 28.8147C42.4544 28.8955 42.4414 28.9755 42.4133 29.0545C42.3887 29.1331 42.3486 29.2073 42.293 29.2771C42.2143 29.3759 42.1218 29.4543 42.0155 29.5121C41.9072 29.5685 41.7912 29.6028 41.6674 29.615C41.5432 29.6238 41.4172 29.609 41.2895 29.5706C41.1632 29.5302 41.041 29.4629 40.9228 29.3687C40.8026 29.273 40.7087 29.1682 40.6412 29.0542C40.5751 28.9382 40.5344 28.8203 40.5191 28.7003C40.5034 28.5769 40.5118 28.4569 40.5445 28.3404C40.5752 28.2223 40.6291 28.1148 40.7063 28.0179C40.7619 27.9481 40.826 27.8915 40.8987 27.848C40.9694 27.803 41.0434 27.7717 41.1208 27.7541C41.1053 27.7417 41.0907 27.7302 41.0772 27.7194C41.0636 27.7085 41.05 27.6977 41.0365 27.6869C41.0998 27.6075 41.1638 27.527 41.2287 27.4456C41.2935 27.3642 41.3568 27.2848 41.4186 27.2073C41.6666 27.4049 41.9176 27.6048 42.1715 27.807C42.4235 28.0077 42.6735 28.2069 42.9216 28.4045C42.8598 28.482 42.7965 28.5615 42.7317 28.6429C42.6668 28.7243 42.6028 28.8047 42.5395 28.8841ZM41.9195 28.875C41.9936 28.782 42.0191 28.6803 41.9961 28.5701C41.973 28.4599 41.9062 28.3608 41.7958 28.2728C41.6853 28.1848 41.5747 28.1426 41.4641 28.1463C41.3515 28.1485 41.2581 28.1961 41.184 28.2891C41.1084 28.3841 41.0811 28.4859 41.1022 28.5946C41.1249 28.7014 41.1924 28.7995 41.3048 28.8891C41.4173 28.9786 41.529 29.0233 41.6401 29.023C41.7507 29.0193 41.8439 28.97 41.9195 28.875ZM44.0578 26.477C44.2225 26.6082 44.3316 26.7536 44.3849 26.9133C44.4398 27.0711 44.4458 27.2327 44.4028 27.398C44.3617 27.5649 44.2796 27.7276 44.1565 27.8861C44.0349 28.0427 43.8812 28.1879 43.6954 28.3218C43.6198 28.2616 43.5433 28.2006 43.4657 28.1389C43.3901 28.0787 43.3146 28.0185 43.239 27.9583C43.421 27.853 43.5614 27.7384 43.6602 27.6143C43.761 27.4918 43.8157 27.3754 43.8243 27.2651C43.8326 27.1513 43.7932 27.0597 43.7059 26.9902C43.6962 26.9825 43.6875 26.9756 43.6798 26.9694C43.6701 26.9617 43.6614 26.9547 43.6536 26.9485C43.6518 27.0263 43.6361 27.1057 43.6065 27.1866C43.5769 27.2676 43.5327 27.3449 43.4741 27.4185C43.3768 27.5406 43.2615 27.6277 43.1281 27.6799C42.9943 27.7285 42.8554 27.7398 42.7114 27.7138C42.5655 27.6863 42.4247 27.6185 42.289 27.5104C42.1843 27.427 42.1023 27.3332 42.0429 27.2288C41.9834 27.1245 41.9464 27.0158 41.9319 26.9028C41.9173 26.7899 41.9252 26.6805 41.9556 26.5748C41.984 26.4676 42.0329 26.3704 42.1024 26.2831C42.158 26.2134 42.2194 26.1562 42.2866 26.1115C42.3539 26.0669 42.4225 26.0344 42.4925 26.0141C42.4789 26.0033 42.4663 25.9933 42.4547 25.984C42.4431 25.9748 42.4305 25.9647 42.4169 25.9539C42.4802 25.8745 42.5443 25.794 42.6091 25.7126C42.6739 25.6312 42.7372 25.5518 42.799 25.4743C43.0064 25.6394 43.2166 25.8069 43.4298 25.9768C43.6411 26.145 43.8504 26.3118 44.0578 26.477ZM43.1533 26.9682C43.2181 26.8868 43.2447 26.8018 43.2329 26.7132C43.2207 26.6211 43.1739 26.5427 43.0925 26.4778C43.0091 26.4114 42.9212 26.3826 42.8288 26.3913C42.7378 26.3981 42.66 26.4422 42.5951 26.5236C42.5272 26.6088 42.4993 26.6975 42.5115 26.7896C42.5218 26.8801 42.5695 26.9593 42.6548 27.0273C42.7382 27.0937 42.8251 27.1217 42.9156 27.1115C43.0061 27.1012 43.0854 27.0535 43.1533 26.9682ZM45.5167 25.0033C45.4664 25.1818 45.3955 25.3423 45.3041 25.4849C45.2127 25.6275 45.1054 25.7464 44.9821 25.8414C44.8624 25.9361 44.7323 26.002 44.5919 26.039C44.4515 26.0761 44.3082 26.0791 44.1618 26.0481C44.017 26.0151 43.8758 25.9438 43.7382 25.8342C43.6239 25.7431 43.5339 25.6413 43.4682 25.5289C43.4022 25.4129 43.3611 25.2915 43.345 25.1646C43.3269 25.0362 43.3363 24.909 43.3732 24.7832C43.4082 24.6558 43.4704 24.5359 43.56 24.4235C43.6402 24.3227 43.7293 24.2447 43.827 24.1896C43.9248 24.1344 44.0277 24.1007 44.1356 24.0885C44.2416 24.0747 44.35 24.0819 44.4607 24.1099C44.5715 24.1379 44.6791 24.1856 44.7838 24.2531C44.8884 24.3206 44.9865 24.4083 45.078 24.5161C44.9514 24.675 44.8241 24.8349 44.6959 24.9957C44.5678 25.1566 44.4404 25.3165 44.3139 25.4754C44.4168 25.4972 44.5178 25.4779 44.6167 25.4173C44.7172 25.3548 44.8087 25.2598 44.8913 25.1323C44.9753 25.0029 45.0462 24.8503 45.1039 24.6745C45.1717 24.7285 45.2405 24.7833 45.3103 24.8389C45.3801 24.8945 45.4489 24.9493 45.5167 25.0033ZM43.9809 24.7778C43.9362 24.834 43.91 24.8987 43.9024 24.9719C43.8964 25.0431 43.9153 25.1168 43.9592 25.1929C44.0287 25.1057 44.0981 25.0185 44.1676 24.9313C44.2386 24.8421 44.3089 24.7539 44.3783 24.6667C44.2939 24.6375 44.2186 24.6345 44.1525 24.6579C44.086 24.6778 44.0288 24.7177 43.9809 24.7778Z" fill="#2F4ECD"/>
<path d="M29.1177 57.4419C28.7921 57.1825 28.4626 56.9201 28.1292 56.6545C27.7959 56.389 27.4664 56.1266 27.1408 55.8672C27.2967 55.6715 27.4542 55.4738 27.6132 55.2742C27.7722 55.0745 27.9297 54.8768 28.0856 54.6811C28.1612 54.7413 28.2378 54.8023 28.3153 54.864C28.3928 54.9258 28.4694 54.9868 28.5449 55.047C28.4554 55.1594 28.3651 55.2728 28.274 55.3871C28.1845 55.4995 28.0949 55.6119 28.0054 55.7243C28.0616 55.7691 28.1197 55.8154 28.1798 55.8633C28.238 55.9096 28.2951 55.9551 28.3513 55.9999C28.4332 55.8972 28.5158 55.7935 28.5991 55.6888C28.6825 55.5842 28.7643 55.4815 28.8446 55.3807C28.9163 55.4378 28.989 55.4957 29.0626 55.5544C29.1363 55.613 29.2099 55.6717 29.2836 55.7304C29.2033 55.8311 29.1215 55.9339 29.0381 56.0385C28.9547 56.1432 28.8721 56.2469 28.7903 56.3496C28.9105 56.4453 29.0326 56.5425 29.1566 56.6413C29.2807 56.7402 29.4028 56.8374 29.5229 56.9331C29.4565 57.0165 29.3894 57.1008 29.3215 57.186C29.2535 57.2713 29.1856 57.3566 29.1177 57.4419ZM28.8223 54.3766C28.7776 54.4328 28.7231 54.4734 28.6589 54.4983C28.5963 54.5212 28.5318 54.5285 28.4657 54.5202C28.3995 54.5118 28.3392 54.486 28.285 54.4428C28.2307 54.3995 28.1931 54.3474 28.172 54.2863C28.1491 54.2236 28.1418 54.1592 28.1502 54.093C28.1601 54.0249 28.1874 53.9627 28.2322 53.9065C28.2754 53.8523 28.3283 53.8136 28.391 53.7907C28.4552 53.7658 28.5204 53.7575 28.5865 53.7659C28.6508 53.7727 28.7101 53.7977 28.7643 53.841C28.8186 53.8842 28.8572 53.9371 28.8802 53.9998C28.9031 54.0624 28.9096 54.1278 28.8997 54.1959C28.8914 54.2621 28.8656 54.3223 28.8223 54.3766ZM30.3046 55.9517C30.0566 55.7541 29.8066 55.555 29.5546 55.3543C29.3007 55.1521 29.0497 54.9521 28.8017 54.7545C28.8649 54.6751 28.929 54.5946 28.9939 54.5132C29.0587 54.4318 29.122 54.3524 29.1837 54.2748C29.4318 54.4725 29.6828 54.6724 29.9367 54.8746C30.1886 55.0753 30.4387 55.2745 30.6867 55.4721C30.625 55.5496 30.5617 55.629 30.4968 55.7104C30.432 55.7918 30.3679 55.8723 30.3046 55.9517ZM31.9141 53.788C31.8638 53.9665 31.7929 54.1271 31.7015 54.2697C31.6101 54.4123 31.5028 54.5311 31.3795 54.6262C31.2598 54.7208 31.1297 54.7867 30.9893 54.8238C30.8489 54.8608 30.7056 54.8638 30.5592 54.8328C30.4144 54.7998 30.2732 54.7285 30.1356 54.6189C30.0213 54.5278 29.9313 54.4261 29.8656 54.3136C29.7996 54.1976 29.7585 54.0762 29.7424 53.9493C29.7243 53.8209 29.7337 53.6938 29.7706 53.5679C29.8056 53.4405 29.8678 53.3206 29.9573 53.2082C30.0376 53.1074 30.1266 53.0295 30.2244 52.9743C30.3222 52.9192 30.4251 52.8855 30.533 52.8732C30.639 52.8595 30.7474 52.8666 30.8581 52.8946C30.9689 52.9226 31.0765 52.9704 31.1812 53.0379C31.2858 53.1054 31.3839 53.193 31.4754 53.3008C31.3488 53.4597 31.2215 53.6196 31.0933 53.7805C30.9652 53.9413 30.8378 54.1012 30.7112 54.2601C30.8142 54.282 30.9152 54.2626 31.0141 54.202C31.1146 54.1395 31.2061 54.0445 31.2887 53.917C31.3727 53.7876 31.4436 53.635 31.5013 53.4592C31.5691 53.5132 31.6379 53.568 31.7077 53.6236C31.7775 53.6792 31.8463 53.734 31.9141 53.788ZM30.3783 53.5626C30.3336 53.6188 30.3074 53.6834 30.2998 53.7566C30.2938 53.8278 30.3127 53.9015 30.3566 53.9776C30.426 53.8904 30.4955 53.8032 30.565 53.716C30.636 53.6268 30.7062 53.5387 30.7757 53.4514C30.6913 53.4222 30.616 53.4193 30.5499 53.4426C30.4834 53.4625 30.4262 53.5025 30.3783 53.5626ZM32.2673 53.4878C32.0192 53.2902 31.7692 53.0911 31.5172 52.8904C31.2633 52.6881 31.0124 52.4882 30.7643 52.2906C30.8276 52.2111 30.8916 52.1307 30.9565 52.0493C31.0213 51.9679 31.0846 51.8885 31.1464 51.8109C31.1599 51.8217 31.1735 51.8325 31.1871 51.8433C31.2006 51.8542 31.2142 51.865 31.2278 51.8758C31.233 51.7817 31.255 51.6884 31.2939 51.5959C31.3328 51.5033 31.3926 51.4163 31.4733 51.3348C31.5509 51.3966 31.6293 51.4591 31.7088 51.5224C31.7883 51.5857 31.8668 51.6482 31.9443 51.71C31.801 51.8461 31.7243 51.9703 31.7141 52.0825C31.7019 52.1932 31.7491 52.291 31.8557 52.376C31.9856 52.4794 32.1174 52.5844 32.2511 52.6909C32.3848 52.7974 32.5176 52.9032 32.6494 53.0081C32.5876 53.0857 32.5243 53.1651 32.4595 53.2465C32.3946 53.3279 32.3306 53.4084 32.2673 53.4878ZM33.7572 52.5718C33.6853 52.4512 33.6133 52.3289 33.5411 52.2049C33.4723 52.0804 33.403 51.9586 33.3331 51.8396C33.0376 51.7532 32.7387 51.6671 32.4363 51.5815C32.1335 51.4923 31.8344 51.4045 31.539 51.3181C31.6069 51.2328 31.6748 51.1475 31.7427 51.0622C31.8107 50.977 31.8778 50.8927 31.9442 50.8093C32.1084 50.8577 32.2745 50.9077 32.4425 50.9592C32.6121 51.0088 32.78 51.0585 32.9461 51.1085C32.8572 50.9616 32.7681 50.813 32.6787 50.6627C32.5894 50.5123 32.5013 50.3645 32.4143 50.2192C32.4807 50.1358 32.5471 50.0525 32.6134 49.9692C32.6798 49.8858 32.7462 49.8025 32.8126 49.7191C33.0328 50.1068 33.2571 50.4993 33.4855 50.8966C33.7135 51.2905 33.9376 51.6812 34.1578 52.0689C34.0914 52.1522 34.0243 52.2365 33.9563 52.3218C33.89 52.4052 33.8236 52.4885 33.7572 52.5718ZM35.494 50.3915C35.4221 50.2709 35.3501 50.1486 35.2778 50.0245C35.2091 49.9 35.1397 49.7783 35.0698 49.6592C34.7744 49.5728 34.4755 49.4868 34.1731 49.4011C33.8703 49.312 33.5712 49.2242 33.2757 49.1377C33.3436 49.0524 33.4116 48.9672 33.4795 48.8819C33.5474 48.7966 33.6146 48.7123 33.681 48.629C33.8451 48.6774 34.0113 48.7273 34.1793 48.7788C34.3489 48.8284 34.5168 48.8782 34.6829 48.9281C34.594 48.7813 34.5048 48.6327 34.4155 48.4823C34.3262 48.332 34.238 48.1841 34.1511 48.0388C34.2174 47.9555 34.2838 47.8721 34.3502 47.7888C34.4166 47.7055 34.483 47.6221 34.5493 47.5388C34.7696 47.9265 34.9939 48.3189 35.2223 48.7163C35.4502 49.1101 35.6743 49.5009 35.8946 49.8885C35.8282 49.9719 35.761 50.0562 35.6931 50.1415C35.6267 50.2248 35.5603 50.3081 35.494 50.3915ZM36.7595 47.9437C36.6699 48.0561 36.5672 48.1453 36.4512 48.2114C36.3333 48.2759 36.21 48.3154 36.0811 48.33C35.9504 48.343 35.8203 48.3313 35.691 48.2948C35.5632 48.2564 35.4422 48.1916 35.3278 48.1006C35.2135 48.0095 35.1233 47.906 35.0572 47.79C34.9928 47.6721 34.9532 47.5488 34.9386 47.4199C34.924 47.2911 34.936 47.1628 34.9744 47.035C35.0109 46.9057 35.0739 46.7848 35.1634 46.6724C35.2545 46.5581 35.3582 46.4696 35.4746 46.4071C35.5905 46.341 35.7129 46.3007 35.8418 46.2861C35.9706 46.2715 36.0989 46.2835 36.2267 46.3219C36.356 46.3584 36.4778 46.4222 36.5922 46.5133C36.7065 46.6043 36.7959 46.7088 36.8604 46.8267C36.9265 46.9427 36.9677 47.0658 36.9843 47.1962C36.9989 47.325 36.9879 47.4541 36.9514 47.5834C36.9145 47.7093 36.8505 47.8294 36.7595 47.9437ZM36.3263 47.5987C36.4019 47.5037 36.4282 47.4011 36.4052 47.2909C36.3817 47.1772 36.3167 47.0778 36.2101 46.9929C36.1016 46.9065 35.9912 46.8661 35.879 46.8717C35.7664 46.8739 35.6722 46.9225 35.5966 47.0174C35.521 47.1124 35.4939 47.216 35.5154 47.3282C35.5365 47.4369 35.6014 47.5344 35.7099 47.6209C35.8165 47.7058 35.9271 47.7479 36.0416 47.7473C36.1558 47.7432 36.2507 47.6936 36.3263 47.5987ZM37.1496 44.2744C37.3977 44.472 37.6487 44.6719 37.9025 44.8742C38.1545 45.0749 38.4045 45.274 38.6526 45.4716C38.5908 45.5491 38.5275 45.6286 38.4627 45.71C38.3979 45.7914 38.3338 45.8718 38.2705 45.9513C38.2569 45.9405 38.2443 45.9305 38.2327 45.9212C38.2211 45.9119 38.2085 45.9019 38.1949 45.8911C38.1901 45.9727 38.1711 46.0542 38.138 46.1356C38.1083 46.2165 38.0634 46.2948 38.0032 46.3704C37.9152 46.4808 37.8121 46.5586 37.6937 46.6038C37.577 46.647 37.4518 46.655 37.3182 46.6278C37.1862 46.5987 37.0553 46.5324 36.9254 46.4289C36.7743 46.3085 36.6221 46.1873 36.469 46.0654C36.3159 45.9434 36.1638 45.8222 36.0126 45.7018C36.0759 45.6224 36.14 45.5419 36.2048 45.4605C36.2696 45.3791 36.3329 45.2997 36.3947 45.2221C36.5342 45.3333 36.6757 45.446 36.8191 45.5602C36.9625 45.6745 37.104 45.7872 37.2436 45.8983C37.3211 45.9601 37.398 45.9928 37.4742 45.9965C37.5501 45.9967 37.6189 45.9581 37.6806 45.8806C37.7424 45.803 37.7679 45.7252 37.7573 45.6471C37.7467 45.5689 37.6997 45.4967 37.6164 45.4303C37.4768 45.3191 37.3354 45.2064 37.1919 45.0922C37.0485 44.9779 36.907 44.8652 36.7675 44.7541C36.8308 44.6746 36.8949 44.5942 36.9597 44.5128C37.0245 44.4314 37.0878 44.3519 37.1496 44.2744ZM39.0318 44.9955C38.8535 44.8535 38.6743 44.7107 38.494 44.5671C38.3138 44.4235 38.1355 44.2815 37.9591 44.141C37.9282 44.1798 37.8966 44.2195 37.8642 44.2602C37.8333 44.299 37.8024 44.3377 37.7715 44.3765C37.6998 44.3194 37.6281 44.2623 37.5564 44.2051C37.4847 44.148 37.413 44.0909 37.3413 44.0338C37.3721 43.995 37.403 43.9562 37.4339 43.9175C37.4663 43.8768 37.498 43.8371 37.5288 43.7983C37.461 43.7443 37.3941 43.691 37.3282 43.6385C37.2604 43.5845 37.1936 43.5312 37.1277 43.4787C37.191 43.3993 37.255 43.3188 37.3199 43.2374C37.3847 43.156 37.448 43.0766 37.5097 42.9991C37.5756 43.0515 37.6425 43.1048 37.7103 43.1588C37.7762 43.2113 37.8431 43.2646 37.9109 43.3186C37.9464 43.274 37.9827 43.2285 38.0198 43.182C38.0568 43.1355 38.0931 43.0899 38.1286 43.0453C38.2003 43.1025 38.272 43.1596 38.3437 43.2167C38.4154 43.2738 38.4872 43.3309 38.5589 43.3881C38.5234 43.4326 38.4871 43.4782 38.45 43.5247C38.413 43.5712 38.3767 43.6168 38.3412 43.6613C38.5176 43.8018 38.6959 43.9439 38.8761 44.0874C39.0563 44.231 39.2356 44.3738 39.4139 44.5158C39.3522 44.5933 39.2889 44.6728 39.224 44.7542C39.1592 44.8356 39.0951 44.916 39.0318 44.9955ZM39.8275 43.9967C39.4767 43.7172 39.123 43.4355 38.7663 43.1514C38.4097 42.8674 38.056 42.5856 37.7052 42.3062C37.7685 42.2268 37.8326 42.1463 37.8974 42.0649C37.9623 41.9835 38.0256 41.9041 38.0873 41.8265C38.2017 41.9176 38.318 42.0103 38.4362 42.1044C38.5525 42.1971 38.6678 42.2889 38.7821 42.38C38.787 42.2983 38.8052 42.2178 38.8368 42.1384C38.8679 42.0555 38.9136 41.9763 38.9738 41.9007C39.0618 41.7902 39.1642 41.7134 39.281 41.6702C39.3993 41.6251 39.5245 41.6171 39.6565 41.6462C39.7881 41.6718 39.9198 41.7372 40.0516 41.8421C40.2028 41.9626 40.3549 42.0837 40.508 42.2057C40.6611 42.3277 40.8133 42.4488 40.9645 42.5693C40.9027 42.6468 40.8394 42.7263 40.7746 42.8077C40.7097 42.8891 40.6457 42.9695 40.5824 43.0489C40.4428 42.9378 40.3013 42.8251 40.1579 42.7109C40.0145 42.5966 39.873 42.4839 39.7335 42.3728C39.656 42.311 39.5793 42.28 39.5034 42.2798C39.4272 42.2761 39.3582 42.313 39.2964 42.3905C39.2347 42.468 39.2091 42.5459 39.2197 42.624C39.2303 42.7022 39.2773 42.7744 39.3607 42.8408C39.5002 42.952 39.6417 43.0647 39.7851 43.1789C39.9285 43.2931 40.07 43.4058 40.2095 43.517C40.1478 43.5945 40.0845 43.674 40.0197 43.7554C39.9548 43.8368 39.8908 43.9172 39.8275 43.9967Z" fill="#2F4ECD"/>
<path d="M34.9614 62.0259C34.6358 61.7665 34.3063 61.5041 33.973 61.2385C33.6396 60.973 33.3102 60.7105 32.9846 60.4512C33.0803 60.331 33.176 60.2109 33.2717 60.0907C33.369 59.9686 33.4647 59.8484 33.5589 59.7302C33.6654 59.5965 33.783 59.4985 33.9117 59.4363C34.0385 59.3726 34.1669 59.3466 34.297 59.3583C34.4251 59.3685 34.5463 59.4191 34.6607 59.5102C34.7421 59.5751 34.8034 59.6492 34.8446 59.7327C34.8858 59.8162 34.9039 59.9067 34.8991 60.0043C35.0124 59.9615 35.1248 59.9496 35.2363 59.9687C35.3458 59.9863 35.4471 60.0321 35.5402 60.1062C35.6564 60.1989 35.7343 60.31 35.7736 60.4395C35.8145 60.5671 35.8167 60.7035 35.7803 60.8487C35.7454 60.992 35.6716 61.1343 35.5589 61.2758C35.4601 61.3999 35.3605 61.5249 35.2601 61.6508C35.1598 61.7768 35.0602 61.9018 34.9614 62.0259ZM34.3049 60.0583C34.2545 60.0182 34.2014 60.0013 34.1457 60.0076C34.0881 60.0124 34.0392 60.0399 33.999 60.0903C33.9712 60.1252 33.9427 60.1611 33.9133 60.1979C33.8856 60.2328 33.8578 60.2677 33.83 60.3026C33.8842 60.3458 33.9404 60.3906 33.9986 60.4369C34.0548 60.4816 34.111 60.5264 34.1672 60.5712C34.195 60.5363 34.2228 60.5014 34.2506 60.4665C34.2799 60.4297 34.3085 60.3938 34.3362 60.359C34.3764 60.3086 34.3943 60.2563 34.3899 60.2021C34.3836 60.1464 34.3552 60.0985 34.3049 60.0583ZM35.0884 60.5779C35.0341 60.5347 34.9768 60.5192 34.9165 60.5313C34.8557 60.5399 34.8007 60.5753 34.7513 60.6373C34.7189 60.678 34.6864 60.7187 34.654 60.7594C34.6216 60.8001 34.5892 60.8408 34.5568 60.8815C34.6168 60.9293 34.6769 60.9772 34.737 61.0251C34.7971 61.0729 34.8572 61.1208 34.9172 61.1686C34.9497 61.1279 34.9821 61.0872 35.0145 61.0465C35.0469 61.0058 35.0793 60.9651 35.1118 60.9244C35.1612 60.8624 35.1833 60.8008 35.1781 60.7397C35.1745 60.6766 35.1446 60.6227 35.0884 60.5779ZM36.3177 60.3231C36.0697 60.1255 35.8196 59.9264 35.5677 59.7257C35.3138 59.5235 35.0628 59.3235 34.8147 59.1259C34.878 59.0465 34.9421 58.966 35.0069 58.8846C35.0718 58.8032 35.1351 58.7238 35.1968 58.6462C35.2104 58.6571 35.224 58.6679 35.2375 58.6787C35.2511 58.6895 35.2647 58.7003 35.2782 58.7111C35.2834 58.617 35.3055 58.5237 35.3444 58.4312C35.3833 58.3386 35.4431 58.2516 35.5238 58.1702C35.6013 58.2319 35.6798 58.2944 35.7593 58.3577C35.8387 58.421 35.9172 58.4836 35.9947 58.5453C35.8515 58.6814 35.7747 58.8056 35.7645 58.9179C35.7523 59.0286 35.7996 59.1264 35.9062 59.2113C36.036 59.3147 36.1678 59.4197 36.3015 59.5262C36.4353 59.6327 36.568 59.7385 36.6998 59.8435C36.6381 59.921 36.5748 60.0004 36.5099 60.0818C36.4451 60.1632 36.381 60.2437 36.3177 60.3231ZM35.7606 57.5865C35.7158 57.6427 35.6614 57.6833 35.5972 57.7082C35.5345 57.7311 35.4701 57.7384 35.4039 57.7301C35.3377 57.7217 35.2775 57.6959 35.2232 57.6527C35.169 57.6094 35.1313 57.5573 35.1103 57.4962C35.0873 57.4335 35.0801 57.3691 35.0884 57.3029C35.0983 57.2348 35.1257 57.1726 35.1705 57.1164C35.2137 57.0622 35.2666 57.0235 35.3293 57.0006C35.3934 56.9757 35.4586 56.9674 35.5248 56.9758C35.5891 56.9826 35.6483 57.0077 35.7026 57.0509C35.7569 57.0941 35.7955 57.147 35.8184 57.2097C35.8414 57.2723 35.8479 57.3377 35.838 57.4058C35.8296 57.472 35.8038 57.5322 35.7606 57.5865ZM37.2429 59.1616C36.9948 58.964 36.7448 58.7649 36.4929 58.5642C36.239 58.362 35.988 58.162 35.7399 57.9644C35.8032 57.885 35.8673 57.8045 35.9321 57.7231C35.997 57.6417 36.0603 57.5623 36.122 57.4848C36.3701 57.6824 36.6211 57.8823 36.875 58.0845C37.1269 58.2852 37.3769 58.4844 37.625 58.682C37.5633 58.7595 37.5 58.8389 37.4351 58.9203C37.3703 59.0017 37.3062 59.0822 37.2429 59.1616ZM38.7729 56.7398C38.9376 56.871 39.0467 57.0165 39.1 57.1762C39.1549 57.334 39.1609 57.4955 39.1179 57.6608C39.0768 57.8277 38.9948 57.9904 38.8716 58.1489C38.7501 58.3055 38.5964 58.4508 38.4105 58.5847C38.3349 58.5245 38.2584 58.4635 38.1809 58.4017C38.1053 58.3415 38.0297 58.2813 37.9541 58.2211C38.1361 58.1158 38.2766 58.0012 38.3754 57.8772C38.4761 57.7547 38.5308 57.6383 38.5395 57.528C38.5477 57.4142 38.5083 57.3225 38.4211 57.2531C38.4114 57.2454 38.4027 57.2384 38.3949 57.2322C38.3852 57.2245 38.3765 57.2176 38.3687 57.2114C38.367 57.2892 38.3513 57.3685 38.3216 57.4495C38.292 57.5304 38.2479 57.6077 38.1892 57.6814C38.0919 57.8035 37.9766 57.8906 37.8432 57.9427C37.7094 57.9914 37.5705 58.0027 37.4265 57.9767C37.2806 57.9491 37.1398 57.8813 37.0041 57.7732C36.8995 57.6899 36.8174 57.596 36.758 57.4917C36.6986 57.3873 36.6616 57.2786 36.647 57.1657C36.6325 57.0527 36.6404 56.9434 36.6707 56.8377C36.6991 56.7304 36.7481 56.6332 36.8175 56.546C36.8731 56.4762 36.9345 56.419 37.0017 56.3744C37.069 56.3297 37.1376 56.2973 37.2076 56.277C37.194 56.2662 37.1814 56.2561 37.1698 56.2469C37.1582 56.2376 37.1456 56.2276 37.132 56.2168C37.1953 56.1373 37.2594 56.0569 37.3242 55.9755C37.3891 55.8941 37.4524 55.8146 37.5141 55.7371C37.7215 55.9023 37.9318 56.0698 38.145 56.2396C38.3562 56.4079 38.5655 56.5746 38.7729 56.7398ZM37.8684 57.231C37.9333 57.1496 37.9598 57.0646 37.948 56.976C37.9358 56.884 37.889 56.8055 37.8076 56.7407C37.7243 56.6743 37.6364 56.6454 37.5439 56.6542C37.453 56.6609 37.3751 56.705 37.3103 56.7864C37.2423 56.8717 37.2145 56.9604 37.2266 57.0524C37.2369 57.143 37.2847 57.2222 37.3699 57.2901C37.4533 57.3565 37.5402 57.3846 37.6307 57.3743C37.7213 57.3641 37.8005 57.3163 37.8684 57.231ZM39.2827 56.6009C38.9319 56.3214 38.5782 56.0397 38.2216 55.7556C37.865 55.4716 37.5113 55.1898 37.1605 54.9104C37.2238 54.8309 37.2879 54.7505 37.3527 54.6691C37.4175 54.5877 37.4808 54.5082 37.5426 54.4307C37.6569 54.5218 37.7732 54.6144 37.8914 54.7086C38.0077 54.8012 38.123 54.8931 38.2374 54.9842C38.2423 54.9025 38.2605 54.822 38.292 54.7426C38.3232 54.6597 38.3689 54.5805 38.4291 54.5049C38.5171 54.3944 38.6195 54.3176 38.7362 54.2744C38.8546 54.2293 38.9797 54.2212 39.1118 54.2504C39.2434 54.276 39.3751 54.3413 39.5069 54.4463C39.658 54.5667 39.8102 54.6879 39.9633 54.8099C40.1164 54.9318 40.2685 55.053 40.4197 55.1734C40.358 55.251 40.2947 55.3304 40.2298 55.4118C40.165 55.4932 40.1009 55.5737 40.0376 55.6531C39.8981 55.542 39.7566 55.4293 39.6132 55.315C39.4698 55.2008 39.3283 55.0881 39.1887 54.9769C39.1112 54.9152 39.0345 54.8842 38.9587 54.884C38.8824 54.8803 38.8134 54.9172 38.7517 54.9947C38.6899 55.0722 38.6644 55.1501 38.675 55.2282C38.6856 55.3063 38.7326 55.3786 38.8159 55.445C38.9555 55.5561 39.0969 55.6688 39.2404 55.7831C39.3838 55.8973 39.5253 56.01 39.6648 56.1212C39.6031 56.1987 39.5398 56.2782 39.4749 56.3596C39.4101 56.441 39.346 56.5214 39.2827 56.6009ZM40.7824 54.7181C40.6041 54.5761 40.4249 54.4333 40.2446 54.2897C40.0644 54.1461 39.8861 54.0041 39.7097 53.8636C39.6788 53.9024 39.6472 53.9421 39.6147 53.9828C39.5839 54.0216 39.553 54.0603 39.5221 54.0991C39.4504 54.042 39.3787 53.9848 39.307 53.9277C39.2353 53.8706 39.1636 53.8135 39.0919 53.7564C39.1227 53.7176 39.1536 53.6788 39.1845 53.6401C39.2169 53.5994 39.2486 53.5596 39.2794 53.5209C39.2116 53.4669 39.1447 53.4136 39.0788 53.3611C39.011 53.3071 38.9441 53.2538 38.8782 53.2013C38.9415 53.1219 39.0056 53.0414 39.0705 52.96C39.1353 52.8786 39.1986 52.7992 39.2603 52.7216C39.3262 52.7741 39.3931 52.8274 39.4609 52.8814C39.5268 52.9339 39.5937 52.9872 39.6615 53.0412C39.697 52.9966 39.7333 52.9511 39.7704 52.9046C39.8074 52.8581 39.8437 52.8125 39.8792 52.7679C39.9509 52.8251 40.0226 52.8822 40.0943 52.9393C40.166 52.9964 40.2377 53.0535 40.3095 53.1107C40.2739 53.1552 40.2377 53.2008 40.2006 53.2473C40.1636 53.2938 40.1273 53.3394 40.0918 53.3839C40.2681 53.5244 40.4465 53.6664 40.6267 53.81C40.8069 53.9536 40.9862 54.0964 41.1645 54.2384C41.1028 54.3159 41.0395 54.3954 40.9746 54.4768C40.9098 54.5582 40.8457 54.6386 40.7824 54.7181ZM42.0527 53.1234C41.8046 52.9258 41.5546 52.7267 41.3026 52.526C41.0487 52.3237 40.7978 52.1238 40.5497 51.9262C40.613 51.8467 40.677 51.7663 40.7419 51.6849C40.8067 51.6035 40.87 51.524 40.9318 51.4465C40.9453 51.4573 40.9589 51.4681 40.9725 51.4789C40.986 51.4897 40.9996 51.5006 41.0132 51.5114C41.0184 51.4173 41.0404 51.324 41.0793 51.2314C41.1182 51.1389 41.178 51.0519 41.2587 50.9704C41.3362 51.0322 41.4147 51.0947 41.4942 51.158C41.5737 51.2213 41.6522 51.2838 41.7297 51.3456C41.5864 51.4817 41.5097 51.6059 41.4994 51.7181C41.4873 51.8288 41.5345 51.9266 41.6411 52.0115C41.771 52.115 41.9028 52.22 42.0365 52.3265C42.1702 52.433 42.303 52.5388 42.4348 52.6437C42.373 52.7213 42.3097 52.8007 42.2449 52.8821C42.18 52.9635 42.116 53.0439 42.0527 53.1234ZM43.9157 50.6414C43.8654 50.8199 43.7945 50.9804 43.7031 51.123C43.6117 51.2656 43.5044 51.3845 43.3811 51.4795C43.2614 51.5742 43.1313 51.6401 42.9909 51.6771C42.8505 51.7142 42.7071 51.7172 42.5608 51.6862C42.416 51.6532 42.2748 51.5819 42.1372 51.4723C42.0228 51.3812 41.9328 51.2794 41.8672 51.167C41.8012 51.051 41.7601 50.9296 41.744 50.8027C41.7259 50.6743 41.7353 50.5471 41.7722 50.4213C41.8071 50.2939 41.8694 50.174 41.9589 50.0616C42.0392 49.9608 42.1282 49.8828 42.226 49.8277C42.3238 49.7725 42.4267 49.7388 42.5346 49.7266C42.6406 49.7128 42.749 49.72 42.8597 49.748C42.9704 49.776 43.0781 49.8238 43.1827 49.8912C43.2874 49.9587 43.3854 50.0464 43.477 50.1542C43.3504 50.3131 43.223 50.473 43.0949 50.6338C42.9668 50.7947 42.8394 50.9546 42.7128 51.1135C42.8158 51.1354 42.9168 51.116 43.0157 51.0554C43.1162 50.9929 43.2077 50.8979 43.2902 50.7704C43.3743 50.641 43.4452 50.4884 43.5029 50.3126C43.5707 50.3666 43.6395 50.4214 43.7093 50.477C43.7791 50.5326 43.8479 50.5874 43.9157 50.6414ZM42.3799 50.4159C42.3351 50.4721 42.309 50.5368 42.3014 50.61C42.2953 50.6812 42.3143 50.7549 42.3581 50.831C42.4276 50.7438 42.4971 50.6566 42.5666 50.5694C42.6376 50.4802 42.7078 50.392 42.7773 50.3048C42.6929 50.2756 42.6176 50.2726 42.5515 50.296C42.485 50.3159 42.4278 50.3558 42.3799 50.4159ZM45.0678 49.3382C45.0523 49.3259 45.0377 49.3143 45.0242 49.3035C45.0087 49.2911 44.9941 49.2796 44.9806 49.2687C44.9827 49.3496 44.9697 49.4296 44.9416 49.5086C44.917 49.5872 44.8769 49.6614 44.8213 49.7311C44.7426 49.83 44.6491 49.9076 44.5409 49.9639C44.4326 50.0202 44.3166 50.0545 44.1928 50.0668C44.0686 50.0756 43.9426 50.0607 43.8149 50.0223C43.6886 49.9819 43.5674 49.9154 43.4511 49.8228C43.3328 49.7286 43.2399 49.6246 43.1724 49.5105C43.1063 49.3946 43.0647 49.2759 43.0474 49.1544C43.0317 49.031 43.0401 48.911 43.0728 48.7945C43.1035 48.6764 43.1574 48.5689 43.2346 48.472C43.2902 48.4022 43.3543 48.3456 43.427 48.3021C43.4977 48.257 43.5717 48.2257 43.6491 48.2082C43.5328 48.1155 43.4155 48.0221 43.2973 47.928C43.1791 47.8338 43.0618 47.7404 42.9456 47.6478C43.0088 47.5683 43.0729 47.4879 43.1378 47.4065C43.2026 47.3251 43.2659 47.2456 43.3276 47.1681C43.6784 47.4475 44.0321 47.7293 44.3888 48.0133C44.7454 48.2974 45.0991 48.5791 45.4499 48.8585C45.3881 48.9361 45.3248 49.0155 45.26 49.0969C45.1951 49.1783 45.1311 49.2588 45.0678 49.3382ZM44.4478 49.3291C44.5219 49.236 44.5474 49.1344 44.5244 49.0242C44.5013 48.9139 44.4346 48.8148 44.3241 48.7268C44.2136 48.6388 44.103 48.5967 43.9924 48.6004C43.8798 48.6026 43.7864 48.6502 43.7123 48.7432C43.6367 48.8382 43.6094 48.94 43.6305 49.0487C43.6532 49.1555 43.7207 49.2536 43.8332 49.3431C43.9456 49.4327 44.0573 49.4773 44.1684 49.4771C44.279 49.4734 44.3722 49.424 44.4478 49.3291Z" fill="#2F4ECD"/>
<path d="M38.7836 64.6463C39.0187 64.7608 39.2567 64.8775 39.4977 64.9966C39.7386 65.1157 39.9769 65.2342 40.2124 65.3521C40.0463 65.1469 39.8783 64.9403 39.7084 64.732C39.54 64.5219 39.373 64.316 39.2073 64.1143C39.2675 64.0388 39.3285 63.9622 39.3903 63.8847C39.452 63.8072 39.513 63.7306 39.5732 63.655C39.8099 63.7675 40.0485 63.8815 40.289 63.9971C40.5296 64.1127 40.7692 64.2275 41.0078 64.3416C40.8417 64.1364 40.6739 63.9315 40.5044 63.7268C40.3364 63.5201 40.1696 63.3159 40.0039 63.1143C40.0657 63.0368 40.1274 62.9592 40.1892 62.8817C40.2525 62.8022 40.315 62.7238 40.3767 62.6462C40.6452 62.9773 40.9176 63.3115 41.1938 63.6487C41.47 63.9859 41.7424 64.3201 42.0109 64.6512C41.9352 64.7461 41.8581 64.843 41.7793 64.9419C41.7021 65.0388 41.6249 65.1357 41.5477 65.2326C41.3351 65.1297 41.1207 65.027 40.9045 64.9246C40.6865 64.8205 40.4711 64.7171 40.2584 64.6142C40.4078 64.7966 40.5583 64.9814 40.71 65.1688C40.8598 65.3546 41.0093 65.5387 41.1587 65.721C41.0831 65.816 41.0066 65.9119 40.9295 66.0088C40.8538 66.1038 40.7782 66.1987 40.7025 66.2937C40.3198 66.106 39.9332 65.9153 39.5427 65.7215C39.1523 65.5277 38.7657 65.3369 38.3829 65.1493C38.4493 65.0659 38.5157 64.9826 38.5821 64.8993C38.65 64.814 38.7172 64.7297 38.7836 64.6463ZM43.4054 62.7572C43.3551 62.9357 43.2843 63.0963 43.1929 63.2389C43.1014 63.3815 42.9941 63.5003 42.8709 63.5954C42.7511 63.6901 42.621 63.7559 42.4806 63.793C42.3402 63.83 42.1969 63.833 42.0505 63.802C41.9057 63.769 41.7645 63.6977 41.6269 63.5881C41.5126 63.4971 41.4226 63.3953 41.357 63.2828C41.2909 63.1669 41.2499 63.0454 41.2337 62.9185C41.2157 62.7901 41.2251 62.663 41.2619 62.5371C41.2969 62.4097 41.3591 62.2898 41.4487 62.1774C41.529 62.0766 41.618 61.9987 41.7158 61.9435C41.8136 61.8884 41.9164 61.8547 42.0244 61.8425C42.1304 61.8287 42.2387 61.8358 42.3495 61.8638C42.4602 61.8918 42.5679 61.9396 42.6725 62.0071C42.7771 62.0746 42.8752 62.1622 42.9668 62.27C42.8402 62.4289 42.7128 62.5888 42.5847 62.7497C42.4565 62.9105 42.3292 63.0704 42.2026 63.2294C42.3056 63.2512 42.4065 63.2318 42.5055 63.1713C42.6059 63.1087 42.6974 63.0137 42.78 62.8863C42.8641 62.7568 42.935 62.6042 42.9926 62.4284C43.0605 62.4824 43.1293 62.5373 43.199 62.5928C43.2688 62.6484 43.3376 62.7032 43.4054 62.7572ZM41.8697 62.5318C41.8249 62.588 41.7987 62.6527 41.7911 62.7258C41.7851 62.797 41.804 62.8707 41.8479 62.9469C41.9174 62.8596 41.9868 62.7724 42.0563 62.6852C42.1273 62.5961 42.1976 62.5079 42.267 62.4207C42.1826 62.3914 42.1074 62.3885 42.0412 62.4118C41.9747 62.4317 41.9175 62.4717 41.8697 62.5318ZM44.2082 60.9382C44.3283 61.0339 44.4002 61.1466 44.4236 61.2762C44.4467 61.4023 44.431 61.5354 44.3763 61.6756C44.3217 61.8158 44.2358 61.9534 44.1189 62.0883C44.0054 62.2228 43.8712 62.3455 43.7162 62.4565C43.6426 62.3979 43.567 62.3377 43.4895 62.2759C43.412 62.2142 43.3364 62.154 43.2627 62.0953C43.3644 62.0432 43.4583 61.985 43.5445 61.9206C43.6287 61.8546 43.699 61.7902 43.7553 61.7274C43.8117 61.6646 43.8493 61.6074 43.8682 61.5559C43.8851 61.5029 43.8761 61.4625 43.8412 61.4347C43.8141 61.4131 43.7789 61.4135 43.7356 61.4361C43.6938 61.4567 43.6455 61.4895 43.5907 61.5345C43.5339 61.5779 43.472 61.6237 43.4052 61.6718C43.338 61.7165 43.2663 61.7528 43.1901 61.7808C43.112 61.8073 43.0309 61.8156 42.9469 61.8057C42.8625 61.7924 42.7748 61.7494 42.6837 61.6769C42.5752 61.5904 42.5078 61.4861 42.4816 61.3638C42.4551 61.2381 42.4648 61.1065 42.511 60.9691C42.5552 60.83 42.6298 60.6946 42.7348 60.5629C42.8397 60.4311 42.9693 60.3141 43.1235 60.212C43.1972 60.2707 43.2727 60.3309 43.3503 60.3926C43.4278 60.4544 43.5034 60.5146 43.577 60.5733C43.4382 60.6401 43.3223 60.7141 43.2292 60.7952C43.1361 60.8762 43.0732 60.9512 43.0405 61.0202C43.0058 61.0876 43.0088 61.1375 43.0495 61.1699C43.0766 61.1915 43.1111 61.192 43.1528 61.1714C43.1942 61.1474 43.2415 61.1138 43.2948 61.0707C43.3497 61.0257 43.4107 60.9809 43.478 60.9363C43.5467 60.8897 43.6194 60.8541 43.696 60.8296C43.7722 60.8016 43.8534 60.795 43.9397 60.8099C44.0257 60.8213 44.1151 60.8641 44.2082 60.9382ZM44.9827 60.9203C44.8044 60.7783 44.6251 60.6355 44.4449 60.4919C44.2646 60.3483 44.0863 60.2063 43.91 60.0658C43.8791 60.1046 43.8474 60.1443 43.815 60.185C43.7842 60.2238 43.7533 60.2625 43.7224 60.3013C43.6507 60.2442 43.579 60.187 43.5073 60.1299C43.4356 60.0728 43.3639 60.0157 43.2921 59.9586C43.323 59.9198 43.3539 59.881 43.3848 59.8423C43.4172 59.8016 43.4488 59.7618 43.4797 59.7231C43.4119 59.669 43.345 59.6158 43.2791 59.5633C43.2113 59.5093 43.1444 59.456 43.0785 59.4035C43.1418 59.3241 43.2059 59.2436 43.2707 59.1622C43.3356 59.0808 43.3989 59.0014 43.4606 58.9238C43.5265 58.9763 43.5934 59.0296 43.6612 59.0836C43.7271 59.1361 43.794 59.1894 43.8618 59.2434C43.8973 59.1988 43.9336 59.1533 43.9706 59.1068C44.0077 59.0603 44.044 59.0147 44.0795 58.9701C44.1512 59.0273 44.2229 59.0844 44.2946 59.1415C44.3663 59.1986 44.438 59.2557 44.5097 59.3129C44.4742 59.3574 44.4379 59.403 44.4009 59.4495C44.3638 59.496 44.3276 59.5415 44.2921 59.5861C44.4684 59.7266 44.6467 59.8686 44.827 60.0122C45.0072 60.1558 45.1865 60.2986 45.3648 60.4406C45.303 60.5181 45.2397 60.5976 45.1749 60.679C45.1101 60.7604 45.046 60.8408 44.9827 60.9203ZM46.7162 58.6009C46.6658 58.7794 46.595 58.94 46.5036 59.0826C46.4121 59.2252 46.3048 59.344 46.1816 59.4391C46.0618 59.5337 45.9317 59.5996 45.7913 59.6367C45.651 59.6737 45.5076 59.6767 45.3613 59.6457C45.2165 59.6127 45.0753 59.5414 44.9377 59.4318C44.8233 59.3407 44.7333 59.239 44.6677 59.1265C44.6016 59.0105 44.5606 58.8891 44.5444 58.7622C44.5264 58.6338 44.5358 58.5067 44.5727 58.3808C44.6076 58.2534 44.6698 58.1335 44.7594 58.0211C44.8397 57.9203 44.9287 57.8424 45.0265 57.7872C45.1243 57.7321 45.2271 57.6984 45.3351 57.6861C45.4411 57.6724 45.5494 57.6795 45.6602 57.7075C45.7709 57.7355 45.8786 57.7833 45.9832 57.8508C46.0878 57.9183 46.1859 58.0059 46.2775 58.1137C46.1509 58.2726 46.0235 58.4325 45.8954 58.5934C45.7672 58.7542 45.6399 58.9141 45.5133 59.0731C45.6163 59.0949 45.7172 59.0755 45.8162 59.015C45.9166 58.9524 46.0082 58.8574 46.0907 58.73C46.1748 58.6005 46.2457 58.4479 46.3033 58.2721C46.3712 58.3261 46.44 58.3809 46.5097 58.4365C46.5795 58.4921 46.6483 58.5469 46.7162 58.6009ZM45.1804 58.3755C45.1356 58.4317 45.1094 58.4964 45.1018 58.5695C45.0958 58.6407 45.1147 58.7144 45.1586 58.7905C45.2281 58.7033 45.2976 58.6161 45.367 58.5289C45.438 58.4397 45.5083 58.3516 45.5778 58.2643C45.4933 58.2351 45.4181 58.2322 45.3519 58.2555C45.2854 58.2754 45.2282 58.3154 45.1804 58.3755ZM47.0693 58.3007C46.8212 58.1031 46.5712 57.904 46.3193 57.7033C46.0654 57.501 45.8144 57.3011 45.5663 57.1035C45.6296 57.0241 45.6937 56.9436 45.7585 56.8622C45.8234 56.7808 45.8867 56.7014 45.9484 56.6238C45.962 56.6346 45.9756 56.6455 45.9891 56.6563C46.0027 56.6671 46.0163 56.6779 46.0298 56.6887C46.035 56.5946 46.0571 56.5013 46.096 56.4088C46.1349 56.3162 46.1947 56.2292 46.2754 56.1478C46.3529 56.2095 46.4314 56.272 46.5108 56.3353C46.5903 56.3986 46.6688 56.4611 46.7463 56.5229C46.603 56.659 46.5263 56.7832 46.5161 56.8955C46.5039 57.0062 46.5512 57.104 46.6578 57.1889C46.7876 57.2923 46.9194 57.3973 47.0531 57.5038C47.1869 57.6103 47.3196 57.7161 47.4514 57.821C47.3897 57.8986 47.3264 57.978 47.2615 58.0594C47.1967 58.1408 47.1326 58.2213 47.0693 58.3007ZM47.9829 57.1538C47.7349 56.9562 47.4848 56.757 47.2329 56.5563C46.979 56.3541 46.728 56.1542 46.4799 55.9566C46.5432 55.8771 46.6073 55.7967 46.6721 55.7153C46.737 55.6339 46.8003 55.5544 46.862 55.4769C46.8756 55.4877 46.8882 55.4977 46.8998 55.507C46.9114 55.5162 46.924 55.5263 46.9376 55.5371C46.9425 55.4554 46.9607 55.3749 46.9922 55.2955C47.0234 55.2126 47.0691 55.1334 47.1293 55.0578C47.2173 54.9473 47.3197 54.8705 47.4365 54.8273C47.5548 54.7822 47.68 54.7742 47.812 54.8033C47.9436 54.8289 48.0753 54.8943 48.2071 54.9992C48.3583 55.1197 48.5104 55.2408 48.6635 55.3628C48.8166 55.4848 48.9688 55.6059 49.1199 55.7264C49.0582 55.8039 48.9949 55.8833 48.93 55.9647C48.8652 56.0461 48.8011 56.1266 48.7378 56.206C48.5983 56.0949 48.4568 55.9822 48.3134 55.8679C48.17 55.7537 48.0285 55.641 47.889 55.5299C47.8114 55.4681 47.7348 55.4371 47.6589 55.4369C47.5827 55.4332 47.5137 55.4701 47.4519 55.5476C47.3902 55.6251 47.3646 55.703 47.3752 55.7811C47.3858 55.8593 47.4328 55.9315 47.5161 55.9979C47.6557 56.1091 47.7972 56.2218 47.9406 56.336C48.084 56.4502 48.2255 56.5629 48.365 56.6741C48.3033 56.7516 48.24 56.8311 48.1751 56.9125C48.1103 56.9939 48.0462 57.0743 47.9829 57.1538ZM48.7066 54.0441C48.6348 53.987 48.5631 53.9299 48.4914 53.8727C48.4197 53.8156 48.348 53.7585 48.2763 53.7014C48.3072 53.6626 48.338 53.6239 48.3689 53.5851C48.4013 53.5444 48.433 53.5047 48.4639 53.4659C48.4542 53.4582 48.4455 53.4512 48.4377 53.4451C48.43 53.4389 48.4222 53.4327 48.4144 53.4265C48.2846 53.3231 48.1969 53.2105 48.1514 53.0887C48.1054 52.9634 48.094 52.8386 48.1169 52.7144C48.1395 52.5866 48.1895 52.4681 48.2671 52.3588C48.3442 52.246 48.4419 52.1512 48.5602 52.0744C48.6319 52.1315 48.7056 52.1901 48.7811 52.2504C48.8567 52.3106 48.9313 52.37 49.005 52.4287C48.8736 52.5141 48.7871 52.6067 48.7455 52.7067C48.7039 52.8066 48.7219 52.8874 48.7994 52.9492C48.8072 52.9554 48.8149 52.9615 48.8227 52.9677C48.8305 52.9739 48.8382 52.9801 48.846 52.9862C48.8938 52.9261 48.9417 52.8661 48.9895 52.806C49.0374 52.7459 49.0852 52.6858 49.1331 52.6257C49.2048 52.6829 49.2765 52.74 49.3482 52.7971C49.4199 52.8542 49.4916 52.9113 49.5634 52.9685C49.5155 53.0285 49.4676 53.0886 49.4198 53.1487C49.3719 53.2088 49.3241 53.2689 49.2762 53.329C49.4526 53.4694 49.6309 53.6115 49.8111 53.755C49.9914 53.8986 50.1706 54.0414 50.349 54.1834C50.2872 54.261 50.2239 54.3404 50.1591 54.4218C50.0942 54.5032 50.0302 54.5837 49.9669 54.6631C49.7886 54.5211 49.6093 54.3783 49.429 54.2347C49.2488 54.0911 49.0705 53.9491 48.8941 53.8086C48.8633 53.8474 48.8316 53.8871 48.7992 53.9278C48.7683 53.9666 48.7374 54.0053 48.7066 54.0441ZM49.3616 51.987C49.3168 52.0432 49.2623 52.0837 49.1981 52.1086C49.1355 52.1316 49.0711 52.1389 49.0049 52.1305C48.9387 52.1221 48.8785 52.0963 48.8242 52.0531C48.77 52.0099 48.7323 51.9577 48.7113 51.8966C48.6883 51.834 48.681 51.7696 48.6894 51.7034C48.6993 51.6352 48.7267 51.5731 48.7714 51.5169C48.8147 51.4626 48.8676 51.424 48.9302 51.401C48.9944 51.3761 49.0596 51.3679 49.1258 51.3762C49.19 51.3831 49.2493 51.4081 49.3036 51.4513C49.3578 51.4945 49.3964 51.5475 49.4194 51.6101C49.4424 51.6728 49.4489 51.7381 49.439 51.8063C49.4306 51.8725 49.4048 51.9327 49.3616 51.987ZM50.8439 53.5621C50.5958 53.3645 50.3458 53.1653 50.0938 52.9646C49.84 52.7624 49.589 52.5625 49.3409 52.3649C49.4042 52.2854 49.4683 52.205 49.5331 52.1236C49.5979 52.0422 49.6612 51.9627 49.723 51.8852C49.9711 52.0828 50.222 52.2827 50.4759 52.485C50.7279 52.6856 50.9779 52.8848 51.226 53.0824C51.1642 53.1599 51.1009 53.2394 51.0361 53.3208C50.9713 53.4022 50.9072 53.4826 50.8439 53.5621ZM52.4534 51.3984C52.403 51.5769 52.3322 51.7374 52.2408 51.88C52.1494 52.0226 52.042 52.1414 51.9188 52.2365C51.799 52.3312 51.6689 52.397 51.5286 52.4341C51.3882 52.4712 51.2448 52.4742 51.0985 52.4431C50.9537 52.4102 50.8125 52.3389 50.6749 52.2293C50.5605 52.1382 50.4705 52.0364 50.4049 51.9239C50.3389 51.808 50.2978 51.6866 50.2816 51.5597C50.2636 51.4312 50.273 51.3041 50.3099 51.1783C50.3448 51.0509 50.407 50.931 50.4966 50.8186C50.5769 50.7178 50.6659 50.6398 50.7637 50.5847C50.8615 50.5295 50.9643 50.4958 51.0723 50.4836C51.1783 50.4698 51.2866 50.4769 51.3974 50.505C51.5081 50.533 51.6158 50.5807 51.7204 50.6482C51.825 50.7157 51.9231 50.8034 52.0147 50.9111C51.8881 51.0701 51.7607 51.23 51.6326 51.3908C51.5044 51.5517 51.3771 51.7116 51.2505 51.8705C51.3535 51.8923 51.4544 51.873 51.5534 51.8124C51.6538 51.7499 51.7454 51.6549 51.8279 51.5274C51.912 51.398 51.9829 51.2453 52.0405 51.0695C52.1084 51.1236 52.1772 51.1784 52.2469 51.234C52.3167 51.2895 52.3855 51.3443 52.4534 51.3984ZM50.9176 51.1729C50.8728 51.2291 50.8466 51.2938 50.839 51.3669C50.833 51.4382 50.8519 51.5118 50.8958 51.588C50.9653 51.5008 51.0348 51.4136 51.1042 51.3263C51.1752 51.2372 51.2455 51.149 51.315 51.0618C51.2305 51.0326 51.1553 51.0296 51.0891 51.053C51.0226 51.0728 50.9654 51.1128 50.9176 51.1729ZM52.8065 51.0982C52.5585 50.9006 52.3084 50.7014 52.0565 50.5007C51.8026 50.2985 51.5516 50.0986 51.3035 49.901C51.3668 49.8215 51.4309 49.7411 51.4957 49.6597C51.5606 49.5783 51.6239 49.4988 51.6856 49.4213C51.6992 49.4321 51.7128 49.4429 51.7263 49.4537C51.7399 49.4645 51.7535 49.4753 51.767 49.4861C51.7722 49.3921 51.7943 49.2988 51.8332 49.2062C51.8721 49.1136 51.9319 49.0266 52.0126 48.9452C52.0901 49.0069 52.1686 49.0695 52.2481 49.1328C52.3275 49.1961 52.406 49.2586 52.4835 49.3203C52.3403 49.4565 52.2635 49.5806 52.2533 49.6929C52.2411 49.8036 52.2884 49.9014 52.395 49.9863C52.5248 50.0897 52.6566 50.1947 52.7903 50.3012C52.9241 50.4078 53.0568 50.5135 53.1886 50.6185C53.1269 50.696 53.0636 50.7755 52.9987 50.8569C52.9339 50.9383 52.8698 51.0187 52.8065 51.0982ZM54.2964 50.1822C54.2246 50.0616 54.1526 49.9393 54.0803 49.8152C54.0116 49.6907 53.9422 49.569 53.8723 49.45C53.5769 49.3635 53.278 49.2775 52.9756 49.1918C52.6728 49.1027 52.3736 49.0149 52.0782 48.9284C52.1461 48.8431 52.2141 48.7579 52.282 48.6726C52.3499 48.5873 52.4171 48.503 52.4834 48.4197C52.6476 48.4681 52.8137 48.518 52.9818 48.5695C53.1514 48.6191 53.3192 48.6689 53.4854 48.7188C53.3964 48.572 53.3073 48.4234 53.218 48.273C53.1287 48.1227 53.0405 47.9748 52.9535 47.8295C53.0199 47.7462 53.0863 47.6628 53.1527 47.5795C53.2191 47.4962 53.2854 47.4128 53.3518 47.3295C53.5721 47.7172 53.7964 48.1097 54.0247 48.507C54.2527 48.9008 54.4768 49.2916 54.697 49.6792C54.6307 49.7626 54.5635 49.8469 54.4956 49.9322C54.4292 50.0155 54.3628 50.0988 54.2964 50.1822ZM56.3041 47.6617C56.2424 47.7392 56.1791 47.8187 56.1142 47.9001C56.0494 47.9815 55.9853 48.0619 55.922 48.1414C55.5984 47.8835 55.2708 47.6226 54.9394 47.3587C54.6061 47.0931 54.2776 46.8314 53.9539 46.5736C54.0172 46.4942 54.0813 46.4137 54.1461 46.3323C54.211 46.2509 54.2742 46.1715 54.336 46.094C54.3496 46.1048 54.3631 46.1156 54.3767 46.1264C54.3903 46.1372 54.4048 46.1488 54.4203 46.1611C54.4201 46.0818 54.4341 46.0026 54.4622 45.9236C54.4883 45.8431 54.5292 45.7679 54.5848 45.6981C54.6619 45.6012 54.7547 45.5246 54.8629 45.4683C54.9692 45.4104 55.0835 45.3763 55.2057 45.366C55.3295 45.3537 55.4545 45.3678 55.5808 45.4081C55.7086 45.4466 55.8316 45.5129 55.9498 45.607C56.0661 45.6997 56.1572 45.804 56.2233 45.9199C56.2908 46.0339 56.3335 46.1534 56.3511 46.2784C56.3684 46.3998 56.3617 46.5196 56.331 46.6377C56.3003 46.7558 56.2456 46.8643 56.1668 46.9631C56.1113 47.0329 56.0471 47.0895 55.9745 47.133C55.9053 47.1761 55.8311 47.2057 55.7518 47.2217C55.8429 47.2943 55.9349 47.3676 56.028 47.4417C56.121 47.5158 56.213 47.5891 56.3041 47.6617ZM55.6914 46.689C55.7671 46.594 55.7936 46.4931 55.7709 46.3864C55.7478 46.2761 55.6801 46.1763 55.5677 46.0867C55.4553 45.9972 55.3438 45.9543 55.2331 45.958C55.124 45.9598 55.0316 46.0081 54.9559 46.1031C54.8818 46.1961 54.8563 46.2978 54.8794 46.408C54.9005 46.5167 54.9663 46.615 55.0768 46.703C55.1872 46.791 55.2988 46.8339 55.4114 46.8318C55.524 46.8296 55.6173 46.782 55.6914 46.689ZM57.5068 45.2929C57.4172 45.4053 57.3145 45.4945 57.1985 45.5605C57.0806 45.625 56.9573 45.6646 56.8284 45.6791C56.6977 45.6922 56.5676 45.6805 56.4383 45.644C56.3105 45.6056 56.1895 45.5408 56.0751 45.4497C55.9608 45.3586 55.8706 45.2551 55.8045 45.1392C55.7401 45.0213 55.7005 44.8979 55.6859 44.7691C55.6713 44.6403 55.6833 44.5119 55.7217 44.3842C55.7582 44.2548 55.8212 44.134 55.9107 44.0216C56.0018 43.9072 56.1055 43.8188 56.2219 43.7562C56.3378 43.6902 56.4602 43.6499 56.5891 43.6353C56.7179 43.6207 56.8462 43.6326 56.974 43.6711C57.1033 43.7075 57.2251 43.7713 57.3395 43.8624C57.4538 43.9535 57.5432 44.058 57.6077 44.1759C57.6738 44.2918 57.715 44.415 57.7316 44.5454C57.7461 44.6742 57.7352 44.8033 57.6987 44.9326C57.6618 45.0584 57.5978 45.1785 57.5068 45.2929ZM57.0736 44.9478C57.1492 44.8529 57.1755 44.7503 57.1525 44.64C57.129 44.5263 57.064 44.427 56.9574 44.3421C56.8489 44.2556 56.7385 44.2152 56.6263 44.2209C56.5137 44.2231 56.4195 44.2716 56.3439 44.3666C56.2683 44.4616 56.2412 44.5651 56.2627 44.6773C56.2838 44.786 56.3487 44.8836 56.4572 44.97C56.5638 45.0549 56.6744 45.0971 56.7889 45.0965C56.9031 45.0923 56.9979 45.0428 57.0736 44.9478ZM59.1286 44.1158C59.0669 44.1933 59.0036 44.2727 58.9388 44.3541C58.8739 44.4355 58.8098 44.516 58.7466 44.5954C58.4229 44.3376 58.0954 44.0767 57.7639 43.8127C57.4306 43.5472 57.1021 43.2855 56.7784 43.0277C56.8417 42.9483 56.9058 42.8678 56.9706 42.7864C57.0355 42.705 57.0988 42.6256 57.1605 42.548C57.1741 42.5588 57.1876 42.5696 57.2012 42.5805C57.2148 42.5913 57.2293 42.6028 57.2448 42.6152C57.2446 42.5359 57.2586 42.4567 57.2867 42.3777C57.3128 42.2972 57.3537 42.222 57.4093 42.1522C57.4865 42.0553 57.5792 41.9787 57.6874 41.9224C57.7937 41.8645 57.908 41.8304 58.0302 41.8201C58.154 41.8078 58.2791 41.8219 58.4053 41.8622C58.5331 41.9006 58.6561 41.9669 58.7743 42.0611C58.8906 42.1537 58.9817 42.258 59.0478 42.374C59.1153 42.488 59.158 42.6075 59.1756 42.7324C59.1929 42.8539 59.1862 42.9737 59.1555 43.0918C59.1248 43.2099 59.0701 43.3183 58.9913 43.4172C58.9358 43.487 58.8716 43.5436 58.799 43.5871C58.7298 43.6302 58.6556 43.6597 58.5763 43.6758C58.6674 43.7483 58.7594 43.8217 58.8525 43.8958C58.9455 43.9699 59.0375 44.0432 59.1286 44.1158ZM58.516 43.143C58.5916 43.0481 58.6181 42.9472 58.5954 42.8405C58.5724 42.7302 58.5046 42.6303 58.3922 42.5408C58.2798 42.4513 58.1683 42.4083 58.0576 42.4121C57.9485 42.4138 57.8561 42.4622 57.7804 42.5572C57.7063 42.6502 57.6808 42.7518 57.7039 42.8621C57.725 42.9708 57.7908 43.0691 57.9013 43.1571C58.0118 43.2451 58.1233 43.288 58.2359 43.2858C58.3485 43.2837 58.4419 43.2361 58.516 43.143Z" fill="#2F4ECD"/>
<path d="M46.6227 69.3161C46.77 69.4334 46.8593 69.5679 46.8906 69.7195C46.9215 69.8677 46.9056 70.0229 46.8428 70.1852C46.7816 70.3455 46.6848 70.5028 46.5524 70.6571C46.422 70.8129 46.2688 70.9555 46.093 71.0847C46.0097 71.0183 45.9264 70.9519 45.843 70.8856C45.7597 70.8192 45.6763 70.7528 45.593 70.6864C45.7677 70.5785 45.9112 70.4679 46.0236 70.3546C46.1359 70.2414 46.2098 70.1387 46.2452 70.0465C46.2787 69.9528 46.2664 69.8828 46.2082 69.8365C46.1675 69.8041 46.1184 69.7982 46.0608 69.8188C46.0012 69.8379 45.9345 69.8719 45.8607 69.9208C45.7885 69.9678 45.7102 70.0163 45.6259 70.0664C45.5398 70.115 45.4491 70.1552 45.354 70.1871C45.2584 70.2156 45.1596 70.2224 45.0574 70.2075C44.9533 70.1911 44.8479 70.1404 44.7413 70.0555C44.6095 69.9505 44.5259 69.8269 44.4904 69.6845C44.4548 69.5422 44.4609 69.3934 44.5086 69.2381C44.5578 69.0809 44.6426 68.9267 44.763 68.7756C44.885 68.6224 45.034 68.483 45.2102 68.3573C45.2936 68.4237 45.3769 68.49 45.4602 68.5564C45.5436 68.6228 45.6269 68.6892 45.7102 68.7556C45.544 68.8449 45.4096 68.9421 45.3069 69.0472C45.2038 69.1488 45.1378 69.2436 45.109 69.3315C45.0782 69.4178 45.0899 69.4826 45.1442 69.5259C45.1829 69.5567 45.2311 69.5619 45.2888 69.5412C45.3464 69.5206 45.4113 69.4868 45.4836 69.4398C45.5554 69.3894 45.6345 69.3399 45.7207 69.2913C45.8049 69.2412 45.8958 69.2027 45.9932 69.1758C46.0903 69.1454 46.1919 69.1392 46.2979 69.1572C46.4021 69.1736 46.5103 69.2266 46.6227 69.3161ZM47.9602 69.8144C47.8883 69.6939 47.8163 69.5715 47.744 69.4475C47.6753 69.323 47.6059 69.2013 47.536 69.0822C47.2406 68.9958 46.9417 68.9097 46.6393 68.8241C46.3365 68.7349 46.0374 68.6471 45.7419 68.5607C45.8099 68.4754 45.8778 68.3901 45.9457 68.3049C46.0136 68.2196 46.0808 68.1353 46.1472 68.0519C46.3113 68.1004 46.4775 68.1503 46.6455 68.2018C46.8151 68.2514 46.983 68.3011 47.1491 68.3511C47.0602 68.2042 46.971 68.0556 46.8817 67.9053C46.7924 67.7549 46.7042 67.6071 46.6173 67.4618C46.6836 67.3785 46.75 67.2951 46.8164 67.2118C46.8828 67.1284 46.9492 67.0451 47.0156 66.9618C47.2358 67.3494 47.4601 67.7419 47.6885 68.1393C47.9164 68.5331 48.1405 68.9238 48.3608 69.3115C48.2944 69.3949 48.2272 69.4792 48.1593 69.5644C48.0929 69.6478 48.0265 69.7311 47.9602 69.8144ZM48.6344 68.0135C48.3863 67.8159 48.1363 67.6168 47.8844 67.4161C47.6305 67.2138 47.3795 67.0139 47.1314 66.8163C47.1947 66.7368 47.2588 66.6564 47.3236 66.575C47.3885 66.4936 47.4518 66.4141 47.5135 66.3366C47.5271 66.3474 47.5397 66.3575 47.5513 66.3667C47.5629 66.376 47.5755 66.386 47.5891 66.3968C47.594 66.3152 47.6122 66.2346 47.6437 66.1552C47.6749 66.0724 47.7206 65.9931 47.7808 65.9176C47.8688 65.8071 47.9712 65.7302 48.088 65.687C48.2063 65.6419 48.3314 65.6339 48.4635 65.663C48.5951 65.6887 48.7268 65.754 48.8586 65.859C49.0098 65.9794 49.1619 66.1006 49.315 66.2225C49.4681 66.3445 49.6203 66.4657 49.7714 66.5861C49.7097 66.6636 49.6464 66.7431 49.5815 66.8245C49.5167 66.9059 49.4526 66.9863 49.3893 67.0658C49.2498 66.9546 49.1083 66.8419 48.9649 66.7277C48.8215 66.6134 48.68 66.5008 48.5404 66.3896C48.4629 66.3278 48.3862 66.2969 48.3104 66.2966C48.2342 66.2929 48.1652 66.3298 48.1034 66.4074C48.0417 66.4849 48.0161 66.5627 48.0267 66.6409C48.0373 66.719 48.0843 66.7913 48.1676 66.8577C48.3072 66.9688 48.4486 67.0815 48.5921 67.1957C48.7355 67.31 48.877 67.4227 49.0165 67.5338C48.9548 67.6114 48.8915 67.6908 48.8266 67.7722C48.7618 67.8536 48.6977 67.934 48.6344 68.0135ZM50.1321 66.1332C49.9538 65.9912 49.7746 65.8484 49.5943 65.7048C49.4141 65.5613 49.2358 65.4192 49.0594 65.2788C49.0285 65.3175 48.9969 65.3573 48.9645 65.398C48.9336 65.4367 48.9027 65.4755 48.8718 65.5142C48.8001 65.4571 48.7284 65.4 48.6567 65.3429C48.585 65.2858 48.5133 65.2286 48.4416 65.1715C48.4725 65.1328 48.5033 65.094 48.5342 65.0552C48.5666 65.0145 48.5983 64.9748 48.6292 64.936C48.5613 64.882 48.4945 64.8287 48.4286 64.7763C48.3607 64.7222 48.2939 64.669 48.228 64.6165C48.2913 64.537 48.3553 64.4566 48.4202 64.3752C48.485 64.2938 48.5483 64.2143 48.6101 64.1368C48.676 64.1893 48.7428 64.2425 48.8106 64.2966C48.8765 64.3491 48.9434 64.4023 49.0112 64.4564C49.0467 64.4118 49.083 64.3662 49.1201 64.3197C49.1571 64.2732 49.1934 64.2277 49.2289 64.1831C49.3006 64.2402 49.3723 64.2973 49.444 64.3544C49.5158 64.4116 49.5875 64.4687 49.6592 64.5258C49.6237 64.5704 49.5874 64.6159 49.5503 64.6624C49.5133 64.709 49.477 64.7545 49.4415 64.7991C49.6179 64.9396 49.7962 65.0816 49.9764 65.2252C50.1567 65.3687 50.3359 65.5115 50.5142 65.6536C50.4525 65.7311 50.3892 65.8106 50.3243 65.892C50.2595 65.9734 50.1954 66.0538 50.1321 66.1332ZM50.9278 65.1344C50.577 64.855 50.2233 64.5732 49.8667 64.2892C49.51 64.0051 49.1563 63.7234 48.8056 63.444C48.8688 63.3645 48.9329 63.2841 48.9978 63.2027C49.0626 63.1213 49.1259 63.0418 49.1876 62.9643C49.302 63.0554 49.4183 63.148 49.5365 63.2422C49.6528 63.3348 49.7681 63.4266 49.8824 63.5177C49.8873 63.4361 49.9055 63.3555 49.9371 63.2761C49.9683 63.1933 50.0139 63.114 50.0741 63.0385C50.1621 62.928 50.2645 62.8511 50.3813 62.8079C50.4996 62.7628 50.6248 62.7548 50.7568 62.7839C50.8884 62.8096 51.0201 62.8749 51.1519 62.9799C51.3031 63.1003 51.4552 63.2215 51.6083 63.3434C51.7615 63.4654 51.9136 63.5866 52.0648 63.707C52.003 63.7845 51.9397 63.864 51.8749 63.9454C51.81 64.0268 51.746 64.1072 51.6827 64.1867C51.5431 64.0755 51.4017 63.9628 51.2582 63.8486C51.1148 63.7344 50.9733 63.6217 50.8338 63.5105C50.7563 63.4488 50.6796 63.4178 50.6037 63.4175C50.5275 63.4138 50.4585 63.4507 50.3968 63.5283C50.335 63.6058 50.3094 63.6836 50.32 63.7618C50.3307 63.8399 50.3776 63.9122 50.461 63.9786C50.6005 64.0897 50.742 64.2024 50.8854 64.3166C51.0288 64.4309 51.1703 64.5436 51.3099 64.6547C51.2481 64.7323 51.1848 64.8117 51.12 64.8931C51.0551 64.9745 50.9911 65.055 50.9278 65.1344ZM53.2631 62.0594C53.2128 62.2379 53.142 62.3984 53.0506 62.541C52.9591 62.6836 52.8518 62.8025 52.7286 62.8975C52.6088 62.9922 52.4787 63.0581 52.3383 63.0951C52.198 63.1322 52.0546 63.1352 51.9082 63.1042C51.7634 63.0712 51.6222 62.9999 51.4846 62.8903C51.3703 62.7992 51.2803 62.6974 51.2147 62.5849C51.1486 62.469 51.1076 62.3476 51.0914 62.2207C51.0734 62.0922 51.0828 61.9651 51.1196 61.8393C51.1546 61.7119 51.2168 61.592 51.3064 61.4796C51.3867 61.3788 51.4757 61.3008 51.5735 61.2457C51.6713 61.1905 51.7741 61.1568 51.8821 61.1446C51.9881 61.1308 52.0964 61.138 52.2072 61.166C52.3179 61.194 52.4256 61.2417 52.5302 61.3092C52.6348 61.3767 52.7329 61.4644 52.8245 61.5721C52.6979 61.7311 52.5705 61.891 52.4424 62.0518C52.3142 62.2127 52.1869 62.3726 52.0603 62.5315C52.1633 62.5533 52.2642 62.534 52.3632 62.4734C52.4636 62.4109 52.5551 62.3159 52.6377 62.1884C52.7218 62.059 52.7927 61.9064 52.8503 61.7306C52.9182 61.7846 52.987 61.8394 53.0567 61.895C53.1265 61.9505 53.1953 62.0053 53.2631 62.0594ZM51.7274 61.8339C51.6826 61.8901 51.6564 61.9548 51.6488 62.028C51.6428 62.0992 51.6617 62.1728 51.7056 62.249C51.7751 62.1618 51.8445 62.0746 51.914 61.9873C51.985 61.8982 52.0553 61.81 52.1247 61.7228C52.0403 61.6936 51.9651 61.6906 51.8989 61.714C51.8324 61.7339 51.7752 61.7738 51.7274 61.8339ZM54.0659 60.2403C54.186 60.3361 54.2579 60.4487 54.2813 60.5783C54.3044 60.7044 54.2887 60.8375 54.234 60.9777C54.1794 61.1179 54.0935 61.2555 53.9766 61.3904C53.8631 61.5249 53.7289 61.6477 53.5739 61.7587C53.5003 61.7 53.4247 61.6398 53.3472 61.5781C53.2697 61.5163 53.1941 61.4561 53.1204 61.3974C53.2221 61.3454 53.316 61.2871 53.4022 61.2227C53.4864 61.1567 53.5567 61.0924 53.613 61.0296C53.6694 60.9667 53.707 60.9096 53.7259 60.8581C53.7428 60.805 53.7338 60.7646 53.6989 60.7368C53.6718 60.7152 53.6366 60.7157 53.5933 60.7382C53.5515 60.7588 53.5032 60.7916 53.4484 60.8366C53.3916 60.8801 53.3297 60.9259 53.2629 60.974C53.1957 61.0186 53.124 61.055 53.0478 61.083C52.9697 61.1095 52.8886 61.1178 52.8046 61.1079C52.7202 61.0945 52.6325 61.0515 52.5414 60.979C52.4329 60.8925 52.3655 60.7882 52.3393 60.666C52.3128 60.5403 52.3225 60.4087 52.3687 60.2712C52.4129 60.1322 52.4875 59.9968 52.5925 59.865C52.6974 59.7332 52.827 59.6163 52.9812 59.5142C53.0549 59.5728 53.1304 59.633 53.208 59.6948C53.2855 59.7565 53.3611 59.8167 53.4347 59.8754C53.2959 59.9423 53.18 60.0162 53.0869 60.0973C52.9938 60.1784 52.9309 60.2534 52.8982 60.3223C52.8635 60.3897 52.8665 60.4396 52.9072 60.4721C52.9343 60.4937 52.9688 60.4942 53.0105 60.4736C53.0519 60.4495 53.0992 60.4159 53.1525 60.3729C53.2074 60.3279 53.2684 60.283 53.3357 60.2384C53.4044 60.1918 53.4771 60.1563 53.5537 60.1317C53.6299 60.1037 53.7111 60.0971 53.7974 60.112C53.8834 60.1235 53.9728 60.1662 54.0659 60.2403ZM53.2446 58.7898C53.1999 58.846 53.1454 58.8865 53.0812 58.9114C53.0186 58.9344 52.9541 58.9417 52.888 58.9333C52.8218 58.9249 52.7615 58.8991 52.7073 58.8559C52.653 58.8127 52.6154 58.7605 52.5943 58.6994C52.5714 58.6368 52.5641 58.5724 52.5724 58.5062C52.5824 58.438 52.6097 58.3759 52.6545 58.3197C52.6977 58.2654 52.7506 58.2268 52.8133 58.2038C52.8775 58.1789 52.9426 58.1707 53.0088 58.179C53.0731 58.1859 53.1323 58.2109 53.1866 58.2541C53.2409 58.2973 53.2795 58.3503 53.3025 58.4129C53.3254 58.4756 53.3319 58.5409 53.322 58.6091C53.3137 58.6753 53.2879 58.7355 53.2446 58.7898ZM54.7269 60.3649C54.4789 60.1673 54.2288 59.9681 53.9769 59.7674C53.723 59.5652 53.472 59.3653 53.2239 59.1677C53.2872 59.0882 53.3513 59.0078 53.4161 58.9264C53.481 58.845 53.5443 58.7655 53.606 58.688C53.8541 58.8856 54.1051 59.0855 54.359 59.2878C54.6109 59.4884 54.861 59.6876 55.109 59.8852C55.0473 59.9627 54.984 60.0422 54.9191 60.1236C54.8543 60.205 54.7902 60.2854 54.7269 60.3649ZM55.341 59.594C55.2731 59.54 55.2043 59.4852 55.1346 59.4296C55.0648 59.374 54.996 59.3192 54.9281 59.2652C54.896 59.0749 54.8639 58.8846 54.8317 58.6942C54.7996 58.5039 54.7675 58.3136 54.7353 58.1233C54.6551 58.2241 54.5748 58.3248 54.4945 58.4256C54.4142 58.5264 54.334 58.6272 54.2537 58.728C54.1859 58.6739 54.1171 58.6191 54.0473 58.5636C53.9756 58.5064 53.9058 58.4509 53.838 58.3968C53.9939 58.2011 54.1521 58.0024 54.3127 57.8009C54.4732 57.5993 54.6315 57.4006 54.7874 57.2049C54.8552 57.2589 54.925 57.3145 54.9967 57.3716C55.0665 57.4272 55.1353 57.482 55.2031 57.536C55.2353 57.7264 55.2674 57.9167 55.2995 58.107C55.3316 58.2973 55.3638 58.4876 55.3959 58.678C55.4762 58.5772 55.5565 58.4764 55.6367 58.3756C55.717 58.2748 55.7973 58.1741 55.8776 58.0733C55.9454 58.1273 56.0142 58.1821 56.084 58.2377C56.1538 58.2933 56.2226 58.3481 56.2904 58.4021C56.1345 58.5979 55.9762 58.7965 55.8157 58.9981C55.6551 59.1996 55.4969 59.3983 55.341 59.594ZM57.4716 56.776C57.4213 56.9545 57.3505 57.115 57.259 57.2576C57.1676 57.4002 57.0603 57.5191 56.9371 57.6141C56.8173 57.7088 56.6872 57.7747 56.5468 57.8117C56.4064 57.8488 56.2631 57.8518 56.1167 57.8208C55.9719 57.7878 55.8307 57.7165 55.6931 57.6069C55.5788 57.5158 55.4888 57.414 55.4232 57.3016C55.3571 57.1856 55.316 57.0642 55.2999 56.9373C55.2818 56.8089 55.2913 56.6817 55.3281 56.5559C55.3631 56.4285 55.4253 56.3086 55.5149 56.1962C55.5951 56.0954 55.6842 56.0174 55.782 55.9623C55.8797 55.9071 55.9826 55.8734 56.0905 55.8612C56.1965 55.8474 56.3049 55.8546 56.4156 55.8826C56.5264 55.9106 56.6341 55.9583 56.7387 56.0258C56.8433 56.0933 56.9414 56.181 57.0329 56.2888C56.9064 56.4477 56.779 56.6076 56.6509 56.7684C56.5227 56.9293 56.3954 57.0892 56.2688 57.2481C56.3717 57.2699 56.4727 57.2506 56.5716 57.19C56.6721 57.1275 56.7636 57.0325 56.8462 56.905C56.9303 56.7756 57.0011 56.623 57.0588 56.4472C57.1267 56.5012 57.1955 56.556 57.2652 56.6116C57.335 56.6672 57.4038 56.722 57.4716 56.776ZM55.9359 56.5505C55.8911 56.6067 55.8649 56.6714 55.8573 56.7446C55.8513 56.8158 55.8702 56.8895 55.9141 56.9656C55.9836 56.8784 56.053 56.7912 56.1225 56.704C56.1935 56.6148 56.2638 56.5266 56.3332 56.4394C56.2488 56.4102 56.1735 56.4072 56.1074 56.4306C56.0409 56.4505 55.9837 56.4904 55.9359 56.5505ZM57.8248 56.4758C57.5767 56.2782 57.3267 56.079 57.0748 55.8783C56.8209 55.6761 56.5699 55.4762 56.3218 55.2786C56.3851 55.1991 56.4492 55.1187 56.514 55.0373C56.5789 54.9559 56.6421 54.8764 56.7039 54.7989C56.7175 54.8097 56.731 54.8205 56.7446 54.8313C56.7582 54.8421 56.7717 54.8529 56.7853 54.8637C56.7905 54.7697 56.8126 54.6764 56.8515 54.5838C56.8903 54.4912 56.9501 54.4042 57.0309 54.3228C57.1084 54.3846 57.1869 54.4471 57.2663 54.5104C57.3458 54.5737 57.4243 54.6362 57.5018 54.698C57.3585 54.8341 57.2818 54.9583 57.2716 55.0705C57.2594 55.1812 57.3066 55.279 57.4132 55.3639C57.5431 55.4674 57.6749 55.5723 57.8086 55.6789C57.9423 55.7854 58.0751 55.8911 58.2069 55.9961C58.1451 56.0736 58.0818 56.1531 58.017 56.2345C57.9522 56.3159 57.8881 56.3963 57.8248 56.4758Z" fill="#2F4ECD"/>
</svg>
