<svg width="117" height="112" viewBox="0 0 117 112" fill="none" xmlns="http://www.w3.org/2000/svg">
<rect x="18.1597" y="33.9415" width="6.01644" height="9.4947" transform="rotate(-14.554 18.1597 33.9415)" fill="#E19191"/>
<rect x="38.4844" y="16.7325" width="6.01644" height="9.4947" transform="rotate(-14.554 38.4844 16.7325)" fill="#E19191"/>
<rect x="12.6528" y="44.8136" width="55.1821" height="65.8048" rx="6.67449" transform="rotate(-40.1718 12.6528 44.8136)" fill="#F4E3D5"/>
<rect x="18.1787" y="33.8722" width="6.01644" height="9.4947" transform="rotate(-40.1718 18.1787 33.8722)" fill="#FFB1B1"/>
<mask id="mask0_139_319" style="mask-type:alpha" maskUnits="userSpaceOnUse" x="46" y="45" width="63" height="58">
<rect x="46.8545" y="85.3273" width="61.4805" height="22.1856" transform="rotate(-40.1718 46.8545 85.3273)" fill="#6CBDAA"/>
</mask>
<g mask="url(#mask0_139_319)">
<path d="M16.9579 49.9136C14.58 47.097 14.9357 42.8859 17.7524 40.508L49.7176 13.5222C52.5343 11.1443 56.7454 11.5 59.1233 14.3167L92.9616 54.3989C95.3395 57.2156 94.9838 61.4267 92.1671 63.8046L60.2019 90.7903C57.3852 93.1682 53.1742 92.8125 50.7963 89.9958L16.9579 49.9136Z" fill="#FFB1B1"/>
</g>
<rect x="38.5078" y="16.713" width="6.01644" height="9.4947" transform="rotate(-40.1718 38.5078 16.713)" fill="#FFB1B1"/>
<path d="M56.1935 26.576C54.7937 26.1395 51.939 26.9184 53.6393 27.2586C54.9528 27.5213 55.6939 27.0509 56.1935 26.576Z" stroke="#404040" stroke-width="0.376027"/>
<path d="M57.3538 26.3887C58.015 27.6949 57.7132 30.6326 57.098 29.0147C56.6228 27.765 56.9663 26.9583 57.3538 26.3887Z" stroke="#404040" stroke-width="0.376027"/>
<path d="M26.7095 52.1378L56.2683 27.1835" stroke="#404040" stroke-width="0.376027"/>
<ellipse cx="56.3599" cy="24.7421" rx="0.587686" ry="1.10928" transform="rotate(-40.1718 56.3599 24.7421)" fill="#FEFFA7"/>
<ellipse cx="0.585762" cy="1.11295" rx="0.585762" ry="1.11295" transform="matrix(0.996723 0.0808896 -0.0874451 0.996169 57.1528 23.2335)" fill="#FEFFA7"/>
<ellipse cx="0.584009" cy="1.11627" rx="0.584009" ry="1.11627" transform="matrix(0.794596 0.607138 -0.609323 0.792922 56.707 26.0538)" fill="#FEFFA7"/>
<ellipse cx="0.584692" cy="1.11498" rx="0.584692" ry="1.11498" transform="matrix(0.205624 0.978631 -0.977491 0.210977 56.7612 25.3146)" fill="#FEFFA7"/>
<ellipse cx="0.587207" cy="1.1102" rx="0.587207" ry="1.1102" transform="matrix(-0.941979 0.335672 -0.331574 -0.943429 58.8594 28.3731)" fill="#FEFFA7"/>
<ellipse cx="0.585762" cy="1.11295" rx="0.585762" ry="1.11295" transform="matrix(-0.0874451 0.996169 -0.996723 -0.0808896 60.1592 25.8273)" fill="#FEFFA7"/>
<ellipse cx="58.792" cy="24.9819" rx="0.583832" ry="1.1166" transform="rotate(49.8282 58.792 24.9819)" fill="#FEFFA7"/>
<ellipse cx="57.3945" cy="25.922" rx="0.993588" ry="0.987072" transform="rotate(-40.1718 57.3945 25.922)" fill="#FFB1B1"/>
<path d="M60.925 32.1815C59.5252 31.745 56.6704 32.5239 58.3708 32.864C59.6842 33.1268 60.4254 32.6564 60.925 32.1815Z" stroke="#404040" stroke-width="0.376027"/>
<path d="M62.0853 31.9932C62.7464 33.2994 62.4446 36.2371 61.8295 34.6192C61.3543 33.3695 61.6978 32.5628 62.0853 31.9932Z" stroke="#404040" stroke-width="0.376027"/>
<path d="M31.4404 57.7413L60.9993 32.7871" stroke="#404040" stroke-width="0.376027"/>
<ellipse cx="61.0914" cy="30.3495" rx="0.587686" ry="1.10928" transform="rotate(-40.1718 61.0914 30.3495)" fill="#FEFFA7"/>
<ellipse cx="0.585762" cy="1.11295" rx="0.585762" ry="1.11295" transform="matrix(0.996723 0.0808896 -0.0874451 0.996169 61.8823 28.839)" fill="#FEFFA7"/>
<ellipse cx="0.584009" cy="1.11627" rx="0.584009" ry="1.11627" transform="matrix(0.794596 0.607138 -0.609323 0.792922 61.438 31.6603)" fill="#FEFFA7"/>
<ellipse cx="0.584692" cy="1.11498" rx="0.584692" ry="1.11498" transform="matrix(0.205624 0.978631 -0.977491 0.210977 61.4927 30.921)" fill="#FEFFA7"/>
<ellipse cx="0.587207" cy="1.1102" rx="0.587207" ry="1.1102" transform="matrix(-0.941979 0.335672 -0.331574 -0.943429 63.5903 33.9796)" fill="#FEFFA7"/>
<ellipse cx="0.585762" cy="1.11295" rx="0.585762" ry="1.11295" transform="matrix(-0.0874451 0.996169 -0.996723 -0.0808896 64.8901 31.4337)" fill="#FEFFA7"/>
<ellipse cx="63.5224" cy="30.5874" rx="0.583832" ry="1.1166" transform="rotate(49.8282 63.5224 30.5874)" fill="#FEFFA7"/>
<ellipse cx="62.1255" cy="31.5284" rx="0.993588" ry="0.987072" transform="rotate(-40.1718 62.1255 31.5284)" fill="#FFB1B1"/>
<path d="M65.715 37.8544C64.3152 37.4178 61.4605 38.1967 63.1608 38.5369C64.4743 38.7997 65.2154 38.3292 65.715 37.8544Z" stroke="#404040" stroke-width="0.376027"/>
<path d="M66.8758 37.667C67.537 38.9732 67.2352 41.9109 66.62 40.293C66.1448 39.0433 66.4883 38.2366 66.8758 37.667Z" stroke="#404040" stroke-width="0.376027"/>
<path d="M36.23 63.4151L65.7888 38.4609" stroke="#404040" stroke-width="0.376027"/>
<ellipse cx="65.8814" cy="36.0213" rx="0.587686" ry="1.10928" transform="rotate(-40.1718 65.8814 36.0213)" fill="#FEFFA7"/>
<ellipse cx="0.585762" cy="1.11295" rx="0.585762" ry="1.11295" transform="matrix(0.996723 0.0808896 -0.0874451 0.996169 66.6738 34.5118)" fill="#FEFFA7"/>
<ellipse cx="0.584009" cy="1.11627" rx="0.584009" ry="1.11627" transform="matrix(0.794596 0.607138 -0.609323 0.792922 66.2295 37.3331)" fill="#FEFFA7"/>
<ellipse cx="0.584692" cy="1.11498" rx="0.584692" ry="1.11498" transform="matrix(0.205624 0.978631 -0.977491 0.210977 66.2822 36.5929)" fill="#FEFFA7"/>
<ellipse cx="0.587207" cy="1.1102" rx="0.587207" ry="1.1102" transform="matrix(-0.941979 0.335672 -0.331574 -0.943429 68.3809 39.6524)" fill="#FEFFA7"/>
<ellipse cx="0.585762" cy="1.11295" rx="0.585762" ry="1.11295" transform="matrix(-0.0874451 0.996169 -0.996723 -0.0808896 69.6807 37.1065)" fill="#FEFFA7"/>
<ellipse cx="68.3134" cy="36.2603" rx="0.583832" ry="1.1166" transform="rotate(49.8282 68.3134 36.2603)" fill="#FEFFA7"/>
<ellipse cx="66.9165" cy="37.2023" rx="0.993588" ry="0.987072" transform="rotate(-40.1718 66.9165 37.2023)" fill="#FFB1B1"/>
<path d="M70.507 43.5301C69.1072 43.0936 66.2525 43.8725 67.9528 44.2127C69.2663 44.4754 70.0074 44.005 70.507 43.5301Z" stroke="#404040" stroke-width="0.376027"/>
<path d="M71.6668 43.3418C72.328 44.648 72.0262 47.5857 71.411 45.9678C70.9358 44.7181 71.2793 43.9115 71.6668 43.3418Z" stroke="#404040" stroke-width="0.376027"/>
<path d="M41.0225 69.0909L70.5813 44.1367" stroke="#404040" stroke-width="0.376027"/>
<ellipse cx="70.6729" cy="41.6971" rx="0.587686" ry="1.10928" transform="rotate(-40.1718 70.6729 41.6971)" fill="#FEFFA7"/>
<ellipse cx="0.585762" cy="1.11295" rx="0.585762" ry="1.11295" transform="matrix(0.996723 0.0808896 -0.0874451 0.996169 71.4658 40.1876)" fill="#FEFFA7"/>
<ellipse cx="0.584009" cy="1.11627" rx="0.584009" ry="1.11627" transform="matrix(0.794596 0.607138 -0.609323 0.792922 71.021 43.0089)" fill="#FEFFA7"/>
<ellipse cx="0.584692" cy="1.11498" rx="0.584692" ry="1.11498" transform="matrix(0.205624 0.978631 -0.977491 0.210977 71.0742 42.2687)" fill="#FEFFA7"/>
<ellipse cx="0.587207" cy="1.1102" rx="0.587207" ry="1.1102" transform="matrix(-0.941979 0.335672 -0.331574 -0.943429 73.1729 45.3273)" fill="#FEFFA7"/>
<ellipse cx="0.585762" cy="1.11295" rx="0.585762" ry="1.11295" transform="matrix(-0.0874451 0.996169 -0.996723 -0.0808896 74.4717 42.7814)" fill="#FEFFA7"/>
<ellipse cx="73.1054" cy="41.936" rx="0.583832" ry="1.1166" transform="rotate(49.8282 73.1054 41.936)" fill="#FEFFA7"/>
<ellipse cx="71.7085" cy="42.8771" rx="0.993588" ry="0.987072" transform="rotate(-40.1718 71.7085 42.8771)" fill="#FFB1B1"/>
<path d="M75.297 49.2049C73.8973 48.7684 71.0425 49.5473 72.7429 49.8875C74.0563 50.1502 74.7974 49.6798 75.297 49.2049Z" stroke="#404040" stroke-width="0.376027"/>
<path d="M76.4578 49.0176C77.119 50.3238 76.8172 53.2615 76.202 51.6436C75.7268 50.3939 76.0703 49.5872 76.4578 49.0176Z" stroke="#404040" stroke-width="0.376027"/>
<path d="M45.8125 74.7657L75.3713 49.8115" stroke="#404040" stroke-width="0.376027"/>
<ellipse cx="75.4644" cy="47.3729" rx="0.587686" ry="1.10928" transform="rotate(-40.1718 75.4644 47.3729)" fill="#FEFFA7"/>
<ellipse cx="0.585762" cy="1.11295" rx="0.585762" ry="1.11295" transform="matrix(0.996723 0.0808896 -0.0874451 0.996169 76.2559 45.8634)" fill="#FEFFA7"/>
<ellipse cx="0.584009" cy="1.11627" rx="0.584009" ry="1.11627" transform="matrix(0.794596 0.607138 -0.609323 0.792922 75.8105 48.6837)" fill="#FEFFA7"/>
<ellipse cx="0.584692" cy="1.11498" rx="0.584692" ry="1.11498" transform="matrix(0.205624 0.978631 -0.977491 0.210977 75.8657 47.9454)" fill="#FEFFA7"/>
<ellipse cx="0.587207" cy="1.1102" rx="0.587207" ry="1.1102" transform="matrix(-0.941979 0.335672 -0.331574 -0.943429 77.9634 51.004)" fill="#FEFFA7"/>
<ellipse cx="0.585762" cy="1.11295" rx="0.585762" ry="1.11295" transform="matrix(-0.0874451 0.996169 -0.996723 -0.0808896 79.2637 48.4581)" fill="#FEFFA7"/>
<ellipse cx="77.8955" cy="47.6109" rx="0.583832" ry="1.1166" transform="rotate(49.8282 77.8955 47.6109)" fill="#FEFFA7"/>
<ellipse cx="76.499" cy="48.5528" rx="0.993588" ry="0.987072" transform="rotate(-40.1718 76.499 48.5528)" fill="#FFB1B1"/>
<path d="M27.2792 49.4105C27.1494 49.6562 27.0041 49.8567 26.8433 50.0119C26.686 50.1674 26.5208 50.281 26.3477 50.3525C26.1731 50.4221 25.9991 50.4523 25.8258 50.4429C25.6525 50.4336 25.4876 50.388 25.3309 50.3062C25.1743 50.2244 25.0337 50.1096 24.909 49.9619C24.7859 49.8162 24.6961 49.6618 24.6396 49.4987C24.5814 49.3338 24.5594 49.1675 24.5736 48.9999C24.5896 48.8307 24.6414 48.6654 24.7289 48.504C24.8163 48.3426 24.9442 48.1925 25.1124 48.0538C25.279 47.9131 25.4873 47.7892 25.7372 47.6819C25.8044 47.7614 25.8723 47.8419 25.941 47.9233C26.0082 48.0028 26.0753 48.0824 26.1424 48.1619C25.9325 48.2321 25.7564 48.3192 25.614 48.4232C25.4734 48.5256 25.369 48.6381 25.3006 48.7607C25.2341 48.8817 25.2076 49.0078 25.2212 49.139C25.235 49.2668 25.2939 49.3922 25.3978 49.5153C25.4889 49.6232 25.5895 49.702 25.6995 49.7518C25.8115 49.7999 25.9244 49.8165 26.0382 49.8015C26.152 49.7865 26.2563 49.739 26.3509 49.6591C26.3831 49.6319 26.4145 49.6038 26.4451 49.5747C26.4741 49.5438 26.5005 49.5117 26.5244 49.4786C26.4829 49.4294 26.4405 49.3792 26.3973 49.3281C26.3542 49.2769 26.3118 49.2268 26.2703 49.1776C26.2173 49.2223 26.1642 49.2671 26.1112 49.3118C26.0582 49.3566 26.0052 49.4013 25.9522 49.4461C25.8931 49.376 25.8339 49.306 25.7748 49.2359C25.714 49.164 25.6541 49.093 25.595 49.0229C25.7256 48.9126 25.8572 48.8015 25.9897 48.6897C26.1241 48.5762 26.2567 48.4643 26.3873 48.354C26.5344 48.5282 26.683 48.7043 26.8333 48.8822C26.9835 49.0602 27.1322 49.2363 27.2792 49.4105ZM27.6972 49.2327C27.4926 48.9904 27.2864 48.7461 27.0786 48.5C26.8692 48.252 26.6622 48.0068 26.4576 47.7644C26.5353 47.6989 26.6138 47.6326 26.6933 47.5654C26.7729 47.4983 26.8505 47.4328 26.9262 47.3688C26.9374 47.3821 26.9486 47.3954 26.9598 47.4086C26.971 47.4219 26.9822 47.4351 26.9934 47.4484C27.0169 47.3572 27.0568 47.27 27.113 47.1868C27.1693 47.1037 27.245 47.03 27.34 46.966C27.404 47.0417 27.4687 47.1184 27.5343 47.196C27.5998 47.2736 27.6645 47.3503 27.7285 47.4261C27.5613 47.5315 27.4617 47.6383 27.4297 47.7463C27.3962 47.8525 27.4233 47.9577 27.5112 48.0618C27.6183 48.1887 27.727 48.3174 27.8373 48.448C27.9476 48.5787 28.0571 48.7084 28.1658 48.8371C28.09 48.9011 28.0124 48.9666 27.9329 49.0337C27.8534 49.1009 27.7748 49.1672 27.6972 49.2327ZM29.5379 47.7565C29.4281 47.8492 29.3099 47.9166 29.1833 47.9587C29.055 47.9988 28.9263 48.0135 28.7971 48.0025C28.6663 47.9897 28.5411 47.9528 28.4214 47.8917C28.3036 47.829 28.1976 47.7418 28.1033 47.6301C28.009 47.5184 27.9408 47.3992 27.8987 47.2726C27.8586 47.1443 27.844 47.0156 27.8549 46.8864C27.8658 46.7572 27.9026 46.6337 27.9653 46.516C28.0264 46.3963 28.1118 46.2901 28.2217 46.1974C28.3334 46.1031 28.4524 46.0366 28.5787 45.9981C28.7054 45.956 28.8333 45.9405 28.9625 45.9514C29.0917 45.9623 29.2151 45.9991 29.3329 46.0618C29.4526 46.1229 29.5596 46.2093 29.6539 46.321C29.7482 46.4327 29.8154 46.5527 29.8556 46.6809C29.8977 46.8075 29.914 46.9364 29.9047 47.0675C29.8938 47.1967 29.8578 47.3211 29.7967 47.4408C29.7359 47.557 29.6496 47.6622 29.5379 47.7565ZM29.1807 47.3334C29.2735 47.2551 29.3193 47.1596 29.3183 47.047C29.3176 46.9309 29.2732 46.8207 29.1853 46.7166C29.0958 46.6106 28.9955 46.5494 28.8843 46.5329C28.7735 46.513 28.6717 46.5422 28.5789 46.6205C28.4861 46.6989 28.4393 46.7951 28.4385 46.9094C28.4379 47.0201 28.4824 47.1285 28.5719 47.2345C28.6598 47.3386 28.76 47.4016 28.8724 47.4234C28.9852 47.4417 29.0879 47.4117 29.1807 47.3334ZM30.7771 46.6326C30.4987 46.4526 30.2177 46.2715 29.9342 46.0893C29.651 45.9036 29.3701 45.7207 29.0917 45.5407C29.1693 45.4752 29.2479 45.4088 29.3274 45.3417C29.4088 45.273 29.4883 45.2058 29.566 45.1403C29.7157 45.2409 29.8671 45.3433 30.02 45.4477C30.1733 45.5485 30.3238 45.6501 30.4717 45.7522C30.392 45.5925 30.3115 45.4319 30.2302 45.2703C30.1492 45.1052 30.0679 44.9436 29.9863 44.7855C30.0526 44.7295 30.1188 44.6736 30.1851 44.6176C30.2532 44.5601 30.3205 44.5034 30.3867 44.4474C30.5308 44.5528 30.6773 44.661 30.8261 44.772C30.9753 44.8796 31.1218 44.9878 31.2656 45.0966C31.1899 44.9302 31.1135 44.7629 31.0363 44.5946C30.9594 44.4228 30.883 44.2555 30.807 44.0926C30.8847 44.027 30.9623 43.9615 31.0399 43.896C31.1194 43.8288 31.1971 43.7633 31.2728 43.6994C31.4036 44.004 31.5358 44.3124 31.6694 44.6243C31.8034 44.9328 31.9357 45.2394 32.0665 45.5441C31.9907 45.608 31.9141 45.6727 31.8364 45.7383C31.7588 45.8038 31.6821 45.8685 31.6064 45.9325C31.477 45.8407 31.3459 45.7487 31.213 45.6566C31.082 45.5629 30.9526 45.4711 30.8248 45.3812C30.892 45.5222 30.9599 45.666 31.0284 45.8124C31.0988 45.9573 31.1684 46.1012 31.2372 46.2442C31.1615 46.3081 31.0848 46.3728 31.0072 46.4384C30.9295 46.5039 30.8529 46.5686 30.7771 46.6326ZM32.8316 44.8981C32.6846 44.7239 32.5367 44.5488 32.3881 44.3727C32.2394 44.1966 32.0923 44.0225 31.9469 43.8502C31.909 43.8821 31.8702 43.9149 31.8305 43.9485C31.7926 43.9804 31.7547 44.0124 31.7169 44.0444C31.6577 43.9743 31.5986 43.9043 31.5394 43.8342C31.4803 43.7642 31.4212 43.6941 31.362 43.624C31.3999 43.5921 31.4377 43.5601 31.4756 43.5281C31.5154 43.4946 31.5542 43.4618 31.5921 43.4298C31.5361 43.3636 31.481 43.2983 31.4266 43.2339C31.3707 43.1676 31.3155 43.1023 31.2612 43.0379C31.3388 42.9724 31.4174 42.9061 31.4969 42.8389C31.5764 42.7718 31.6541 42.7063 31.7298 42.6423C31.7841 42.7067 31.8393 42.772 31.8952 42.8383C31.9496 42.9027 32.0047 42.968 32.0607 43.0342C32.1042 42.9975 32.1487 42.9599 32.1941 42.9216C32.2396 42.8832 32.2841 42.8456 32.3276 42.8089C32.3867 42.8789 32.4459 42.949 32.505 43.019C32.5642 43.0891 32.6233 43.1591 32.6825 43.2292C32.6389 43.266 32.5944 43.3035 32.549 43.3419C32.5035 43.3802 32.459 43.4178 32.4155 43.4546C32.5609 43.6269 32.708 43.801 32.8566 43.9771C33.0053 44.1532 33.1531 44.3283 33.3002 44.5025C33.2245 44.5665 33.1468 44.632 33.0673 44.6991C32.9878 44.7663 32.9092 44.8326 32.8316 44.8981ZM33.8074 44.0744C33.5181 43.7317 33.2263 43.3861 32.9322 43.0378C32.6381 42.6894 32.3464 42.3439 32.0571 42.0012C32.1348 41.9356 32.2133 41.8693 32.2928 41.8022C32.3724 41.735 32.45 41.6695 32.5257 41.6056C32.62 41.7173 32.7159 41.8309 32.8134 41.9464C32.9093 42.06 33.0044 42.1726 33.0987 42.2843C33.1195 42.2052 33.1531 42.1298 33.1996 42.0581C33.2464 41.9829 33.3067 41.9142 33.3806 41.8519C33.4885 41.7607 33.6039 41.7054 33.7269 41.6859C33.8518 41.6648 33.9761 41.6815 34.0998 41.7359C34.2239 41.7868 34.3403 41.8766 34.449 42.0054C34.5736 42.1531 34.6991 42.3017 34.8254 42.4513C34.9516 42.6008 35.0771 42.7495 35.2018 42.8972C35.1261 42.9611 35.0484 43.0266 34.9689 43.0938C34.8894 43.1609 34.8108 43.2272 34.7332 43.2928C34.6181 43.1564 34.5014 43.0182 34.3831 42.8781C34.2649 42.738 34.1482 42.5998 34.0331 42.4635C33.9692 42.3877 33.9 42.3423 33.8257 42.3273C33.7517 42.3087 33.6768 42.3314 33.601 42.3953C33.5253 42.4593 33.485 42.5306 33.4801 42.6093C33.4752 42.688 33.5071 42.7681 33.5759 42.8495C33.6909 42.9858 33.8076 43.124 33.9259 43.2641C34.0442 43.4042 34.1609 43.5424 34.276 43.6788C34.2002 43.7427 34.1226 43.8082 34.0431 43.8754C33.9636 43.9425 33.885 44.0088 33.8074 44.0744ZM36.8277 40.7462C36.9268 40.8636 36.9752 40.9882 36.9729 41.1198C36.9709 41.248 36.9293 41.3755 36.8483 41.5023C36.7672 41.6291 36.6562 41.7472 36.515 41.8566C36.3774 41.9663 36.2218 42.0604 36.0481 42.1389C35.9874 42.067 35.925 41.9931 35.8611 41.9174C35.7971 41.8417 35.7348 41.7678 35.6741 41.6959C35.784 41.6647 35.8875 41.626 35.9846 41.5797C36.0801 41.5315 36.1616 41.4821 36.2292 41.4315C36.2967 41.381 36.3448 41.3323 36.3734 41.2855C36.4004 41.2368 36.3995 41.1954 36.3707 41.1613C36.3483 41.1348 36.3137 41.1283 36.2668 41.142C36.2218 41.154 36.1681 41.1767 36.1054 41.2101C36.0412 41.2416 35.9717 41.2744 35.8967 41.3085C35.822 41.3391 35.7446 41.3607 35.6644 41.3733C35.5826 41.384 35.5015 41.3762 35.4211 41.3501C35.3409 41.3205 35.2633 41.2612 35.1882 41.1722C35.0987 41.0661 35.053 40.9506 35.0513 40.8256C35.0498 40.6972 35.0852 40.57 35.1573 40.4443C35.2279 40.3166 35.3276 40.1984 35.4563 40.0897C35.5851 39.981 35.735 39.8917 35.9062 39.8218C35.967 39.8937 36.0293 39.9676 36.0932 40.0433C36.1572 40.119 36.2195 40.1929 36.2802 40.2648C36.1311 40.3032 36.0029 40.353 35.8957 40.4143C35.7886 40.4756 35.7122 40.5368 35.6666 40.598C35.6194 40.6574 35.6125 40.7069 35.6461 40.7467C35.6685 40.7732 35.7022 40.7804 35.7471 40.7684C35.7924 40.7529 35.8454 40.7292 35.9061 40.6974C35.9687 40.664 36.0374 40.632 36.112 40.6014C36.1886 40.5692 36.2668 40.5485 36.3467 40.5394C36.4269 40.5269 36.5079 40.5364 36.5896 40.5679C36.6716 40.5959 36.751 40.6554 36.8277 40.7462ZM37.5908 40.8803C37.4437 40.7061 37.2959 40.531 37.1472 40.3549C36.9986 40.1788 36.8515 40.0046 36.7061 39.8323C36.6682 39.8643 36.6294 39.8971 36.5896 39.9306C36.5518 39.9626 36.5139 39.9946 36.476 40.0265C36.4169 39.9565 36.3578 39.8864 36.2986 39.8164C36.2395 39.7463 36.1803 39.6763 36.1212 39.6062C36.1591 39.5743 36.1969 39.5423 36.2348 39.5103C36.2746 39.4768 36.3134 39.444 36.3512 39.412C36.2953 39.3458 36.2402 39.2804 36.1858 39.2161C36.1299 39.1498 36.0747 39.0845 36.0204 39.0201C36.098 38.9546 36.1766 38.8882 36.2561 38.8211C36.3356 38.754 36.4132 38.6884 36.489 38.6245C36.5433 38.6889 36.5985 38.7542 36.6544 38.8205C36.7088 38.8848 36.7639 38.9502 36.8198 39.0164C36.8634 38.9797 36.9079 38.9421 36.9533 38.9037C36.9988 38.8654 37.0433 38.8278 37.0868 38.7911C37.1459 38.8611 37.2051 38.9312 37.2642 39.0012C37.3234 39.0713 37.3825 39.1413 37.4416 39.2114C37.3981 39.2481 37.3536 39.2857 37.3082 39.3241C37.2627 39.3624 37.2182 39.4 37.1747 39.4367C37.3201 39.609 37.4672 39.7832 37.6158 39.9593C37.7645 40.1354 37.9123 40.3105 38.0594 40.4847C37.9837 40.5486 37.906 40.6142 37.8265 40.6813C37.747 40.7484 37.6684 40.8148 37.5908 40.8803ZM39.5183 39.2531C39.5055 39.2379 39.4935 39.2237 39.4823 39.2105C39.4695 39.1953 39.4575 39.1811 39.4464 39.1679C39.4326 39.2476 39.4042 39.3234 39.3612 39.3954C39.3217 39.4677 39.2678 39.5326 39.1997 39.5901C39.1031 39.6716 38.9971 39.7304 38.8815 39.7663C38.7643 39.8004 38.6438 39.8113 38.52 39.7991C38.3965 39.7834 38.2759 39.7442 38.1581 39.6815C38.0422 39.6172 37.9355 39.5273 37.838 39.4118C37.7389 39.2944 37.6674 39.1732 37.6234 39.0482C37.5814 38.9215 37.5646 38.7979 37.573 38.6773C37.5817 38.5532 37.6135 38.4372 37.6683 38.3293C37.7216 38.2195 37.7955 38.1247 37.8902 38.0447C37.9583 37.9872 38.0323 37.9442 38.1121 37.9158C38.1902 37.8855 38.269 37.8693 38.3483 37.8672C38.3355 37.852 38.3235 37.8378 38.3123 37.8246C38.3011 37.8113 38.2899 37.7981 38.2787 37.7848C38.3564 37.7193 38.4349 37.6529 38.5144 37.5858C38.594 37.5187 38.6716 37.4531 38.7473 37.3892C38.9519 37.6315 39.1589 37.8767 39.3683 38.1248C39.5761 38.3709 39.7823 38.6151 39.9869 38.8575C39.9111 38.9214 39.8335 38.9869 39.754 39.0541C39.6745 39.1212 39.5959 39.1875 39.5183 39.2531ZM38.9121 39.1227C39.003 39.046 39.0479 38.9514 39.0469 38.8387C39.0458 38.7261 38.9998 38.6158 38.9087 38.5079C38.8176 38.4 38.7174 38.337 38.6081 38.319C38.4973 38.2991 38.3964 38.3275 38.3055 38.4042C38.2128 38.4826 38.1661 38.5771 38.1655 38.6878C38.1669 38.7969 38.2139 38.9064 38.3066 39.0162C38.3993 39.126 38.5001 39.1917 38.6091 39.2132C38.7183 39.2312 38.8193 39.2011 38.9121 39.1227ZM41.4784 37.1897C41.6143 37.3506 41.6928 37.5146 41.7138 37.6817C41.7368 37.8471 41.711 38.0067 41.6365 38.1604C41.5635 38.316 41.4512 38.4595 41.2994 38.5909C41.1496 38.7206 40.9704 38.833 40.7619 38.9279C40.6996 38.8541 40.6365 38.7793 40.5725 38.7035C40.5102 38.6297 40.4478 38.5559 40.3855 38.482C40.5846 38.4144 40.7448 38.3295 40.8659 38.2272C40.9887 38.1268 41.0652 38.0234 41.0952 37.9169C41.1256 37.8069 41.1049 37.7093 41.0329 37.6241C41.0249 37.6147 41.0178 37.6062 41.0114 37.5986C41.0034 37.5891 40.9962 37.5806 40.9898 37.573C40.9728 37.649 40.9419 37.7237 40.897 37.7973C40.8521 37.8709 40.7937 37.938 40.7217 37.9988C40.6024 38.0995 40.4723 38.1623 40.3313 38.1873C40.1906 38.2088 40.0521 38.1928 39.916 38.1391C39.7783 38.0835 39.6535 37.9894 39.5416 37.8569C39.4553 37.7546 39.3932 37.6465 39.3553 37.5326C39.3175 37.4186 39.3025 37.3048 39.3103 37.1912C39.3182 37.0775 39.3473 36.9719 39.3978 36.8741C39.4466 36.7745 39.5136 36.6888 39.5988 36.6168C39.667 36.5593 39.7384 36.5152 39.8131 36.4846C39.8878 36.454 39.9614 36.4356 40.034 36.4294C40.0228 36.4161 40.0125 36.4038 40.0029 36.3925C39.9933 36.3811 39.9829 36.3688 39.9717 36.3556C40.0493 36.29 40.1279 36.2237 40.2074 36.1566C40.2869 36.0894 40.3646 36.0239 40.4403 35.96C40.6113 36.1625 40.7847 36.368 40.9606 36.5762C41.1348 36.7826 41.3074 36.9871 41.4784 37.1897ZM40.4953 37.4943C40.5748 37.4272 40.6175 37.349 40.6233 37.2599C40.6293 37.1672 40.5988 37.0811 40.5317 37.0016C40.4629 36.9202 40.3824 36.8747 40.29 36.8651C40.1995 36.8539 40.1145 36.8819 40.035 36.9491C39.9517 37.0194 39.907 37.1009 39.9009 37.1936C39.8932 37.2844 39.9246 37.3714 39.9949 37.4547C40.0636 37.5361 40.1434 37.5807 40.2342 37.5883C40.325 37.596 40.412 37.5647 40.4953 37.4943ZM43.1976 36.0301C43.1134 36.1953 43.0124 36.3389 42.8949 36.4608C42.7773 36.5828 42.6488 36.6783 42.5093 36.7474C42.3734 36.8168 42.2329 36.8559 42.088 36.8648C41.9431 36.8736 41.8019 36.8485 41.6644 36.7894C41.5289 36.7288 41.4044 36.6312 41.2909 36.4968C41.1966 36.3851 41.1283 36.2677 41.0859 36.1445C41.0439 36.0179 41.0274 35.8908 41.0364 35.7632C41.0438 35.6337 41.0779 35.5108 41.1387 35.3947C41.1979 35.2766 41.2824 35.1712 41.3922 35.0785C41.4907 34.9954 41.5933 34.9363 41.7 34.9014C41.8067 34.8664 41.9141 34.8535 42.0224 34.8627C42.129 34.8699 42.2339 34.8981 42.337 34.9473C42.4401 34.9964 42.5363 35.0643 42.6257 35.151C42.7151 35.2377 42.7941 35.3428 42.8628 35.4664C42.7076 35.5975 42.5514 35.7294 42.3942 35.862C42.2371 35.9947 42.0809 36.1266 41.9256 36.2576C42.0223 36.2992 42.1251 36.3 42.234 36.26C42.3448 36.2183 42.4531 36.1431 42.559 36.0342C42.6668 35.9237 42.7662 35.788 42.8572 35.6268C42.9131 35.6931 42.9699 35.7603 43.0274 35.8285C43.085 35.8966 43.1417 35.9639 43.1976 36.0301ZM41.7357 35.5084C41.6808 35.5547 41.6425 35.613 41.6207 35.6833C41.6009 35.7519 41.605 35.8279 41.6331 35.9112C41.7183 35.8392 41.8035 35.7673 41.8887 35.6954C41.9758 35.6219 42.062 35.5491 42.1472 35.4772C42.0701 35.432 41.9969 35.4144 41.9274 35.4244C41.8583 35.4308 41.7944 35.4588 41.7357 35.5084Z" fill="#2F4ECD"/>
<path d="M29.5895 55.5279C29.4664 55.3821 29.3772 55.2304 29.322 55.0728C29.267 54.9116 29.2445 54.7506 29.2546 54.5897C29.2647 54.4288 29.3086 54.2734 29.3863 54.1234C29.464 53.9735 29.5732 53.8359 29.7139 53.7107C29.8565 53.5838 30.031 53.4755 30.2372 53.3856C30.3044 53.4651 30.3723 53.5456 30.441 53.627C30.5082 53.7065 30.5753 53.7861 30.6424 53.8656C30.486 53.9069 30.3496 53.9701 30.2334 54.0552C30.1172 54.1403 30.0306 54.2394 29.9736 54.3524C29.9166 54.4654 29.8967 54.5859 29.914 54.714C29.9298 54.8401 29.992 54.9676 30.1007 55.0963C30.2093 55.2251 30.3254 55.3087 30.4487 55.3473C30.5704 55.384 30.6918 55.3837 30.8127 55.3464C30.9337 55.3091 31.0459 55.2404 31.1493 55.1401C31.2527 55.0398 31.3379 54.916 31.4049 54.7687C31.472 54.8482 31.5399 54.9287 31.6087 55.0101C31.6758 55.0896 31.7429 55.1691 31.8101 55.2486C31.6869 55.4369 31.5508 55.5907 31.4018 55.71C31.2547 55.8277 31.1008 55.9123 30.9399 55.9638C30.7791 56.0152 30.6185 56.0324 30.4582 56.0154C30.2979 55.9983 30.1437 55.9501 29.9957 55.8708C29.8479 55.788 29.7125 55.6737 29.5895 55.5279ZM32.8433 54.5126C32.7335 54.6053 32.6152 54.6727 32.4886 54.7147C32.3604 54.7549 32.2317 54.7695 32.1025 54.7586C31.9717 54.7458 31.8464 54.7088 31.7268 54.6477C31.609 54.585 31.5029 54.4978 31.4086 54.3861C31.3143 54.2744 31.2461 54.1552 31.2041 54.0286C31.1639 53.9004 31.1493 53.7717 31.1602 53.6425C31.1711 53.5133 31.2079 53.3898 31.2706 53.272C31.3317 53.1523 31.4172 53.0461 31.527 52.9534C31.6387 52.8591 31.7577 52.7927 31.8841 52.7541C32.0107 52.7121 32.1386 52.6965 32.2678 52.7074C32.397 52.7183 32.5205 52.7551 32.6383 52.8178C32.758 52.8789 32.8649 52.9653 32.9593 53.077C33.0536 53.1888 33.1208 53.3087 33.1609 53.437C33.203 53.5636 33.2194 53.6924 33.2101 53.8235C33.1991 53.9527 33.1631 54.0772 33.102 54.1968C33.0412 54.313 32.955 54.4183 32.8433 54.5126ZM32.486 54.0894C32.5788 54.0111 32.6247 53.9156 32.6236 53.803C32.6229 53.6869 32.5786 53.5768 32.4907 53.4726C32.4011 53.3666 32.3008 53.3054 32.1897 53.289C32.0788 53.2691 31.977 53.2983 31.8842 53.3766C31.7915 53.4549 31.7447 53.5512 31.7438 53.6654C31.7432 53.7761 31.7877 53.8845 31.8772 53.9905C31.9651 54.0947 32.0653 54.1576 32.1778 54.1794C32.2905 54.1977 32.3933 54.1677 32.486 54.0894ZM33.812 53.6169C33.6074 53.3746 33.4012 53.1304 33.1934 52.8842C32.984 52.6362 32.777 52.391 32.5724 52.1487C32.6501 52.0831 32.7286 52.0168 32.8082 51.9497C32.8877 51.8825 32.9653 51.817 33.041 51.7531C33.0522 51.7663 33.0626 51.7786 33.0722 51.79C33.0818 51.8013 33.0922 51.8136 33.1034 51.8269C33.1241 51.7478 33.1578 51.6724 33.2042 51.6007C33.251 51.5255 33.3114 51.4568 33.3852 51.3944C33.4931 51.3033 33.6086 51.248 33.7315 51.2285C33.8564 51.2074 33.9807 51.2241 34.1045 51.2785C34.2285 51.3294 34.3449 51.4192 34.4536 51.548C34.5783 51.6956 34.7037 51.8443 34.83 51.9938C34.9563 52.1434 35.0818 52.292 35.2064 52.4397C35.1307 52.5037 35.0531 52.5692 34.9735 52.6363C34.894 52.7035 34.8155 52.7698 34.7378 52.8353C34.6227 52.699 34.5061 52.5608 34.3878 52.4207C34.2695 52.2806 34.1528 52.1424 34.0377 52.006C33.9738 51.9303 33.9047 51.8849 33.8303 51.8698C33.7563 51.8513 33.6814 51.874 33.6057 51.9379C33.5299 52.0018 33.4896 52.0732 33.4847 52.1519C33.4798 52.2306 33.5118 52.3106 33.5805 52.3921C33.6956 52.5284 33.8123 52.6666 33.9305 52.8067C34.0488 52.9468 34.1655 53.085 34.2806 53.2213C34.2049 53.2853 34.1272 53.3508 34.0477 53.4179C33.9682 53.4851 33.8896 53.5514 33.812 53.6169ZM34.5341 51.2125C34.4749 51.1424 34.4158 51.0724 34.3567 51.0023C34.2975 50.9323 34.2384 50.8622 34.1792 50.7922C34.2171 50.7602 34.255 50.7282 34.2928 50.6963C34.3326 50.6627 34.3714 50.6299 34.4093 50.598C34.4013 50.5885 34.3941 50.58 34.3877 50.5724C34.3813 50.5648 34.3749 50.5573 34.3685 50.5497C34.2614 50.4228 34.1975 50.2952 34.1767 50.1669C34.1561 50.035 34.1693 49.9104 34.2162 49.7931C34.2633 49.6722 34.3356 49.5658 34.433 49.4738C34.5308 49.3783 34.6451 49.3044 34.7761 49.2522C34.8353 49.3223 34.896 49.3942 34.9584 49.468C35.0207 49.5419 35.0822 49.6148 35.143 49.6867C34.9974 49.7448 34.8945 49.8187 34.8341 49.9086C34.7738 49.9984 34.7756 50.0812 34.8395 50.1569C34.8459 50.1645 34.8523 50.1721 34.8587 50.1797C34.8651 50.1872 34.8715 50.1948 34.8779 50.2024C34.9366 50.1528 34.9953 50.1033 35.0539 50.0537C35.1126 50.0042 35.1713 49.9546 35.23 49.9051C35.2892 49.9751 35.3483 50.0452 35.4074 50.1152C35.4666 50.1853 35.5257 50.2553 35.5849 50.3254C35.5262 50.3749 35.4675 50.4245 35.4088 50.474C35.3501 50.5236 35.2914 50.5731 35.2327 50.6227C35.3782 50.795 35.5252 50.9692 35.6739 51.1452C35.8225 51.3213 35.9704 51.4965 36.1174 51.6706C36.0417 51.7346 35.9641 51.8001 35.8845 51.8672C35.805 51.9344 35.7264 52.0007 35.6488 52.0662C35.5018 51.8921 35.3539 51.7169 35.2053 51.5408C35.0566 51.3648 34.9096 51.1906 34.7641 51.0183C34.7262 51.0503 34.6874 51.083 34.6477 51.1166C34.6098 51.1486 34.5719 51.1805 34.5341 51.2125ZM36.8424 48.5439C37.047 48.7862 37.254 49.0314 37.4634 49.2794C37.6711 49.5256 37.8773 49.7698 38.0819 50.0122C38.0062 50.0761 37.9286 50.1416 37.8491 50.2088C37.7695 50.2759 37.691 50.3422 37.6133 50.4078C37.6021 50.3945 37.5918 50.3822 37.5822 50.3708C37.5726 50.3595 37.5622 50.3472 37.551 50.3339C37.5302 50.413 37.4957 50.4893 37.4473 50.5625C37.4024 50.6361 37.343 50.7041 37.2692 50.7664C37.1613 50.8575 37.0449 50.9136 36.92 50.9347C36.797 50.9542 36.6727 50.9376 36.5471 50.8847C36.4233 50.8303 36.3079 50.7397 36.2008 50.6129C36.0761 50.4652 35.9506 50.3165 35.8244 50.167C35.6981 50.0174 35.5726 49.8688 35.448 49.7211C35.5256 49.6556 35.6041 49.5892 35.6837 49.5221C35.7632 49.455 35.8408 49.3894 35.9165 49.3255C36.0316 49.4618 36.1483 49.6 36.2666 49.7401C36.3849 49.8802 36.5016 50.0185 36.6166 50.1548C36.6806 50.2305 36.7496 50.2777 36.8236 50.2962C36.8979 50.3113 36.973 50.2869 37.0487 50.2229C37.1244 50.159 37.1647 50.0877 37.1696 50.0089C37.1745 49.9302 37.1426 49.8502 37.0739 49.7688C36.9588 49.6324 36.8421 49.4942 36.7238 49.3541C36.6056 49.214 36.4889 49.0758 36.3738 48.9395C36.4514 48.874 36.53 48.8076 36.6095 48.7405C36.689 48.6734 36.7666 48.6078 36.8424 48.5439ZM39.1319 48.3475C39.231 48.4649 39.2794 48.5894 39.277 48.7211C39.275 48.8493 39.2334 48.9768 39.1524 49.1036C39.0714 49.2304 38.9603 49.3485 38.8192 49.4579C38.6815 49.5676 38.5259 49.6617 38.3522 49.7402C38.2915 49.6682 38.2292 49.5944 38.1652 49.5187C38.1013 49.4429 38.0389 49.3691 37.9782 49.2971C38.0881 49.266 38.1916 49.2273 38.2887 49.181C38.3842 49.1328 38.4657 49.0834 38.5333 49.0328C38.6009 48.9823 38.6489 48.9336 38.6775 48.8867C38.7045 48.838 38.7036 48.7966 38.6748 48.7626C38.6524 48.7361 38.6178 48.7296 38.5709 48.7432C38.526 48.7553 38.4722 48.778 38.4096 48.8114C38.3454 48.8429 38.2758 48.8757 38.2008 48.9098C38.1261 48.9404 38.0487 48.962 37.9685 48.9746C37.8867 48.9852 37.8056 48.9775 37.7252 48.9514C37.6451 48.9217 37.5674 48.8624 37.4923 48.7735C37.4028 48.6674 37.3572 48.5519 37.3554 48.4269C37.354 48.2985 37.3893 48.1713 37.4615 48.0455C37.5321 47.9179 37.6317 47.7997 37.7605 47.691C37.8892 47.5823 38.0392 47.493 38.2104 47.4231C38.2711 47.495 38.3334 47.5688 38.3974 47.6446C38.4613 47.7203 38.5236 47.7941 38.5844 47.8661C38.4352 47.9045 38.307 47.9543 38.1999 48.0156C38.0927 48.0769 38.0163 48.1381 37.9707 48.1993C37.9235 48.2586 37.9167 48.3082 37.9502 48.3479C37.9726 48.3744 38.0063 48.3817 38.0513 48.3697C38.0965 48.3541 38.1495 48.3305 38.2102 48.2987C38.2728 48.2653 38.3415 48.2333 38.4162 48.2027C38.4927 48.1705 38.571 48.1498 38.6509 48.1407C38.731 48.1282 38.812 48.1376 38.8937 48.1692C38.9758 48.1972 39.0551 48.2566 39.1319 48.3475ZM40.9478 47.476C40.8635 47.6412 40.7626 47.7847 40.6451 47.9067C40.5275 48.0286 40.399 48.1241 40.2595 48.1932C40.1235 48.2626 39.9831 48.3018 39.8382 48.3106C39.6932 48.3195 39.552 48.2944 39.4146 48.2353C39.2791 48.1746 39.1546 48.0771 39.0411 47.9426C38.9468 47.8309 38.8784 47.7135 38.8361 47.5904C38.794 47.4637 38.7775 47.3366 38.7865 47.209C38.794 47.0795 38.8281 46.9567 38.8889 46.8405C38.9481 46.7224 39.0326 46.617 39.1424 46.5243C39.2409 46.4412 39.3434 46.3822 39.4501 46.3472C39.5568 46.3123 39.6643 46.2994 39.7725 46.3085C39.8792 46.3158 39.9841 46.344 40.0872 46.3931C40.1903 46.4423 40.2865 46.5102 40.3759 46.5969C40.4653 46.6835 40.5443 46.7887 40.613 46.9123C40.4577 47.0433 40.3015 47.1752 40.1444 47.3079C39.9873 47.4405 39.8311 47.5724 39.6758 47.7035C39.7725 47.7451 39.8753 47.7458 39.9842 47.7058C40.095 47.6642 40.2033 47.5889 40.3092 47.4801C40.417 47.3696 40.5164 47.2338 40.6074 47.0727C40.6633 47.139 40.7201 47.2062 40.7776 47.2743C40.8351 47.3425 40.8919 47.4097 40.9478 47.476ZM39.4859 46.9542C39.431 47.0006 39.3927 47.0589 39.3709 47.1291C39.351 47.1978 39.3552 47.2737 39.3833 47.357C39.4685 47.2851 39.5537 47.2131 39.6389 47.1412C39.726 47.0677 39.8121 46.995 39.8973 46.923C39.8203 46.8778 39.747 46.8602 39.6776 46.8702C39.6085 46.8767 39.5446 46.9047 39.4859 46.9542ZM42.3327 46.4235C42.3199 46.4084 42.3079 46.3942 42.2968 46.3809C42.284 46.3658 42.272 46.3516 42.2608 46.3383C42.247 46.4181 42.2186 46.4939 42.1756 46.5659C42.1361 46.6382 42.0823 46.7031 42.0141 46.7606C41.9176 46.8421 41.8107 46.8999 41.6935 46.934C41.5764 46.968 41.4559 46.979 41.3321 46.9667C41.2086 46.951 41.0879 46.9118 40.9701 46.8491C40.8542 46.7848 40.7483 46.6959 40.6524 46.5823C40.5549 46.4668 40.4842 46.3465 40.4403 46.2215C40.3982 46.0949 40.3806 45.9703 40.3874 45.8478C40.3962 45.7237 40.4279 45.6077 40.4828 45.4998C40.536 45.39 40.6099 45.2951 40.7046 45.2152C40.7728 45.1577 40.8467 45.1147 40.9265 45.0862C41.0047 45.0559 41.0834 45.0397 41.1627 45.0376C41.0668 44.924 40.9701 44.8095 40.8726 44.694C40.7751 44.5785 40.6784 44.464 40.5825 44.3504C40.6601 44.2848 40.7387 44.2185 40.8182 44.1514C40.8977 44.0842 40.9754 44.0187 41.0511 43.9548C41.3404 44.2974 41.6321 44.643 41.9262 44.9913C42.2203 45.3397 42.512 45.6852 42.8013 46.0279C42.7256 46.0919 42.648 46.1574 42.5684 46.2245C42.4889 46.2917 42.4103 46.358 42.3327 46.4235ZM41.7266 46.2932C41.8174 46.2165 41.8624 46.1218 41.8613 46.0092C41.8603 45.8966 41.8142 45.7863 41.7231 45.6784C41.632 45.5705 41.5318 45.5075 41.4226 45.4895C41.3117 45.4696 41.2109 45.498 41.12 45.5747C41.0272 45.653 40.9805 45.7475 40.98 45.8583C40.9813 45.9674 41.0283 46.0769 41.121 46.1867C41.2137 46.2965 41.3146 46.3622 41.4235 46.3837C41.5328 46.4017 41.6338 46.3715 41.7266 46.2932ZM44.704 44.4217C44.6912 44.4065 44.6792 44.3923 44.668 44.3791C44.6552 44.3639 44.6433 44.3497 44.6321 44.3365C44.6183 44.4162 44.5899 44.492 44.5469 44.564C44.5074 44.6363 44.4536 44.7012 44.3854 44.7587C44.2888 44.8402 44.1828 44.899 44.0672 44.9349C43.95 44.969 43.8296 44.9799 43.7058 44.9677C43.5822 44.952 43.4616 44.9128 43.3438 44.8501C43.2279 44.7858 43.1212 44.6959 43.0237 44.5804C42.9246 44.463 42.8531 44.3418 42.8091 44.2168C42.7671 44.0901 42.7503 43.9665 42.7587 43.8459C42.7674 43.7218 42.7992 43.6058 42.854 43.4979C42.9073 43.3881 42.9812 43.2932 43.0759 43.2133C43.144 43.1558 43.218 43.1128 43.2978 43.0844C43.3759 43.054 43.4547 43.0378 43.534 43.0357C43.5212 43.0206 43.5092 43.0064 43.498 42.9931C43.4868 42.9799 43.4756 42.9666 43.4644 42.9534C43.5421 42.8878 43.6206 42.8215 43.7002 42.7544C43.7797 42.6873 43.8573 42.6217 43.933 42.5578C44.1376 42.8001 44.3446 43.0453 44.554 43.2933C44.7618 43.5395 44.968 43.7837 45.1726 44.0261C45.0969 44.09 45.0192 44.1555 44.9397 44.2227C44.8602 44.2898 44.7816 44.3561 44.704 44.4217ZM44.0978 44.2913C44.1887 44.2146 44.2336 44.1199 44.2326 44.0073C44.2316 43.8947 44.1855 43.7844 44.0944 43.6765C44.0033 43.5686 43.9031 43.5056 43.7938 43.4876C43.683 43.4677 43.5821 43.4961 43.4913 43.5728C43.3985 43.6511 43.3518 43.7457 43.3513 43.8564C43.3526 43.9655 43.3996 44.075 43.4923 44.1848C43.585 44.2946 43.6858 44.3603 43.7948 44.3818C43.9041 44.3998 44.0051 44.3697 44.0978 44.2913ZM45.4853 43.762C45.2807 43.5197 45.0745 43.2755 44.8668 43.0293C44.6574 42.7813 44.4504 42.5361 44.2458 42.2938C44.3234 42.2282 44.402 42.1619 44.4815 42.0948C44.561 42.0276 44.6386 41.9621 44.7144 41.8982C44.7256 41.9114 44.736 41.9237 44.7455 41.9351C44.7551 41.9464 44.7655 41.9588 44.7767 41.972C44.7975 41.8929 44.8311 41.8175 44.8776 41.7458C44.9244 41.6706 44.9847 41.6019 45.0585 41.5395C45.1664 41.4484 45.2819 41.3931 45.4049 41.3736C45.5297 41.3525 45.654 41.3692 45.7778 41.4236C45.9019 41.4745 46.0182 41.5643 46.1269 41.6931C46.2516 41.8407 46.3771 41.9894 46.5033 42.1389C46.6296 42.2885 46.7551 42.4371 46.8798 42.5848C46.804 42.6488 46.7264 42.7143 46.6469 42.7814C46.5674 42.8486 46.4888 42.9149 46.4112 42.9804C46.2961 42.8441 46.1794 42.7059 46.0611 42.5658C45.9428 42.4257 45.8262 42.2875 45.7111 42.1512C45.6471 42.0754 45.578 42.03 45.5037 42.0149C45.4296 41.9964 45.3547 42.0191 45.279 42.083C45.2033 42.1469 45.163 42.2183 45.1581 42.297C45.1532 42.3757 45.1851 42.4557 45.2538 42.5372C45.3689 42.6735 45.4856 42.8117 45.6039 42.9518C45.7222 43.0919 45.8388 43.2301 45.9539 43.3664C45.8782 43.4304 45.8006 43.4959 45.721 43.563C45.6415 43.6302 45.563 43.6965 45.4853 43.762ZM48.1486 41.5137C48.1358 41.4985 48.1238 41.4843 48.1126 41.4711C48.0998 41.4559 48.0879 41.4417 48.0767 41.4285C48.0629 41.5082 48.0345 41.584 47.9915 41.656C47.952 41.7283 47.8982 41.7932 47.83 41.8507C47.7334 41.9322 47.6266 41.99 47.5094 42.0241C47.3922 42.0581 47.2718 42.0691 47.1479 42.0568C47.0244 42.0411 46.9038 42.0019 46.786 41.9392C46.6701 41.8749 46.5642 41.786 46.4683 41.6724C46.3708 41.5569 46.3001 41.4366 46.2561 41.3116C46.2141 41.185 46.1965 41.0604 46.2033 40.9379C46.212 40.8138 46.2438 40.6978 46.2986 40.5899C46.3519 40.4801 46.4258 40.3852 46.5205 40.3053C46.5886 40.2478 46.6626 40.2048 46.7424 40.1764C46.8205 40.146 46.8993 40.1298 46.9786 40.1277C46.8827 40.0141 46.786 39.8996 46.6885 39.7841C46.591 39.6686 46.4943 39.5541 46.3984 39.4405C46.476 39.3749 46.5546 39.3086 46.6341 39.2415C46.7136 39.1743 46.7912 39.1088 46.867 39.0449C47.1563 39.3876 47.448 39.7331 47.7421 40.0815C48.0362 40.4298 48.3279 40.7754 48.6172 41.1181C48.5415 41.182 48.4638 41.2475 48.3843 41.3147C48.3048 41.3818 48.2262 41.4481 48.1486 41.5137ZM47.5424 41.3833C47.6333 41.3066 47.6782 41.2119 47.6772 41.0993C47.6762 40.9867 47.6301 40.8764 47.539 40.7685C47.4479 40.6606 47.3477 40.5976 47.2384 40.5796C47.1276 40.5597 47.0267 40.5881 46.9358 40.6648C46.8431 40.7431 46.7964 40.8377 46.7958 40.9484C46.7972 41.0575 46.8442 41.167 46.9369 41.2768C47.0296 41.3866 47.1304 41.4523 47.2394 41.4738C47.3486 41.4918 47.4497 41.4616 47.5424 41.3833ZM48.5787 39.3557C48.5195 39.2857 48.4604 39.2156 48.4013 39.1456C48.3421 39.0755 48.283 39.0054 48.2238 38.9354C48.2617 38.9034 48.2996 38.8715 48.3374 38.8395C48.3772 38.8059 48.416 38.7732 48.4539 38.7412C48.4459 38.7317 48.4387 38.7232 48.4323 38.7156C48.4259 38.7081 48.4195 38.7005 48.4131 38.6929C48.306 38.5661 48.2421 38.4385 48.2213 38.3101C48.2008 38.1782 48.2139 38.0536 48.2608 37.9363C48.3079 37.8154 48.3802 37.709 48.4776 37.617C48.5754 37.5215 48.6897 37.4477 48.8208 37.3954C48.8799 37.4655 48.9406 37.5374 49.003 37.6113C49.0653 37.6851 49.1268 37.758 49.1876 37.8299C49.042 37.888 48.9391 37.9619 48.8787 38.0518C48.8184 38.1416 48.8202 38.2244 48.8841 38.3001C48.8905 38.3077 48.8969 38.3153 48.9033 38.3229C48.9097 38.3304 48.9161 38.338 48.9225 38.3456C48.9812 38.296 49.0399 38.2465 49.0986 38.1969C49.1572 38.1474 49.2159 38.0978 49.2746 38.0483C49.3338 38.1183 49.3929 38.1884 49.4521 38.2584C49.5112 38.3285 49.5703 38.3986 49.6295 38.4686C49.5708 38.5182 49.5121 38.5677 49.4534 38.6173C49.3947 38.6668 49.336 38.7164 49.2773 38.7659C49.4228 38.9382 49.5698 39.1124 49.7185 39.2885C49.8671 39.4645 50.015 39.6397 50.162 39.8139C50.0863 39.8778 50.0087 39.9433 49.9291 40.0105C49.8496 40.0776 49.7711 40.1439 49.6934 40.2095C49.5464 40.0353 49.3985 39.8601 49.2499 39.6841C49.1012 39.508 48.9542 39.3338 48.8087 39.1615C48.7709 39.1935 48.732 39.2262 48.6923 39.2598C48.6544 39.2918 48.6165 39.3237 48.5787 39.3557ZM51.4613 38.7949C51.3514 38.8876 51.2332 38.9549 51.1066 38.997C50.9784 39.0371 50.8496 39.0518 50.7204 39.0409C50.5897 39.0281 50.4644 38.9911 50.3447 38.93C50.227 38.8673 50.1209 38.7801 50.0266 38.6684C49.9323 38.5567 49.8641 38.4375 49.8221 38.3109C49.7819 38.1827 49.7673 38.0539 49.7782 37.9247C49.7891 37.7956 49.8259 37.6721 49.8886 37.5543C49.9497 37.4346 50.0352 37.3284 50.145 37.2357C50.2567 37.1414 50.3757 37.075 50.502 37.0364C50.6287 36.9943 50.7566 36.9788 50.8858 36.9897C51.015 37.0006 51.1385 37.0374 51.2563 37.1001C51.3759 37.1612 51.4829 37.2476 51.5772 37.3593C51.6715 37.471 51.7388 37.591 51.7789 37.7192C51.821 37.8459 51.8374 37.9747 51.828 38.1058C51.8171 38.235 51.7811 38.3594 51.72 38.4791C51.6592 38.5953 51.573 38.7005 51.4613 38.7949ZM51.104 38.3717C51.1968 38.2934 51.2427 38.1979 51.2416 38.0853C51.2409 37.9692 51.1965 37.859 51.1086 37.7549C51.0191 37.6489 50.9188 37.5877 50.8077 37.5712C50.6968 37.5513 50.595 37.5805 50.5022 37.6589C50.4094 37.7372 50.3626 37.8334 50.3618 37.9477C50.3612 38.0584 50.4057 38.1668 50.4952 38.2728C50.5831 38.3769 50.6833 38.4399 50.7957 38.4617C50.9085 38.48 51.0112 38.45 51.104 38.3717ZM52.4442 37.8872C52.1549 37.5445 51.8632 37.199 51.5691 36.8506C51.275 36.5023 50.9833 36.1567 50.6939 35.814C50.7716 35.7485 50.8501 35.6822 50.9297 35.615C51.0092 35.5479 51.0868 35.4824 51.1625 35.4184C51.4518 35.7611 51.7436 36.1067 52.0377 36.455C52.3318 36.8034 52.6235 37.1489 52.9128 37.4916C52.837 37.5556 52.7594 37.6211 52.6799 37.6882C52.6004 37.7554 52.5218 37.8217 52.4442 37.8872ZM53.254 37.2035C52.9647 36.8608 52.673 36.5153 52.3789 36.1669C52.0848 35.8186 51.7931 35.473 51.5038 35.1303C51.5814 35.0648 51.66 34.9985 51.7395 34.9313C51.819 34.8642 51.8966 34.7987 51.9724 34.7347C52.2617 35.0774 52.5534 35.423 52.8475 35.7713C53.1416 36.1197 53.4333 36.4652 53.7226 36.8079C53.6469 36.8719 53.5693 36.9374 53.4897 37.0045C53.4102 37.0717 53.3316 37.138 53.254 37.2035ZM54.7838 35.9899C54.674 36.0826 54.5558 36.15 54.4291 36.192C54.3009 36.2322 54.1722 36.2468 54.043 36.2359C53.9122 36.2231 53.787 36.1861 53.6673 36.125C53.5495 36.0623 53.4435 35.9751 53.3492 35.8634C53.2549 35.7517 53.1867 35.6325 53.1446 35.5059C53.1045 35.3777 53.0898 35.249 53.1008 35.1198C53.1117 34.9906 53.1485 34.8671 53.2112 34.7493C53.2723 34.6296 53.3577 34.5234 53.4675 34.4307C53.5792 34.3364 53.6983 34.27 53.8246 34.2314C53.9512 34.1894 54.0792 34.1738 54.2084 34.1847C54.3375 34.1956 54.461 34.2324 54.5788 34.2951C54.6985 34.3562 54.8055 34.4426 54.8998 34.5543C54.9941 34.666 55.0613 34.786 55.1015 34.9142C55.1435 35.0409 55.1599 35.1697 55.1506 35.3008C55.1397 35.43 55.1037 35.5544 55.0426 35.6741C54.9818 35.7903 54.8955 35.8956 54.7838 35.9899ZM54.4266 35.5667C54.5193 35.4884 54.5652 35.3929 54.5642 35.2803C54.5634 35.1642 54.5191 35.0541 54.4312 34.9499C54.3417 34.8439 54.2414 34.7827 54.1302 34.7663C54.0194 34.7463 53.9176 34.7756 53.8248 34.8539C53.732 34.9322 53.6852 35.0285 53.6843 35.1427C53.6838 35.2534 53.7283 35.3618 53.8178 35.4678C53.9057 35.5719 54.0059 35.6349 54.1183 35.6567C54.231 35.675 54.3338 35.645 54.4266 35.5667ZM56.023 34.8659C55.7446 34.6859 55.4636 34.5048 55.1801 34.3226C54.8968 34.1369 54.616 33.954 54.3376 33.774C54.4152 33.7085 54.4938 33.6422 54.5733 33.575C54.6547 33.5063 54.7342 33.4392 54.8119 33.3736C54.9616 33.4742 55.113 33.5767 55.2659 33.681C55.4192 33.7819 55.5697 33.8834 55.7176 33.9856C55.6379 33.8258 55.5574 33.6652 55.4761 33.5036C55.3951 33.3385 55.3138 33.1769 55.2322 33.0188C55.2984 32.9629 55.3647 32.9069 55.431 32.851C55.4991 32.7934 55.5663 32.7367 55.6326 32.6807C55.7767 32.7861 55.9232 32.8943 56.072 33.0053C56.2212 33.1129 56.3677 33.2211 56.5114 33.3299C56.4358 33.1636 56.3594 32.9962 56.2822 32.8279C56.2053 32.6561 56.1288 32.4888 56.0529 32.3259C56.1306 32.2604 56.2082 32.1948 56.2858 32.1293C56.3653 32.0622 56.4429 31.9966 56.5187 31.9327C56.6494 32.2374 56.7816 32.5457 56.9153 32.8577C57.0492 33.1661 57.1816 33.4727 57.3124 33.7774C57.2366 33.8413 57.1599 33.9061 57.0823 33.9716C57.0047 34.0371 56.928 34.1019 56.8523 34.1658C56.7229 34.074 56.5917 33.982 56.4589 33.8899C56.3279 33.7962 56.1985 33.7044 56.0707 33.6145C56.1379 33.7556 56.2057 33.8993 56.2743 34.0458C56.3447 34.1906 56.4143 34.3345 56.4831 34.4775C56.4073 34.5414 56.3307 34.6062 56.253 34.6717C56.1754 34.7372 56.0987 34.802 56.023 34.8659Z" fill="#2F4ECD"/>
<path d="M36.8075 60.6341C36.6778 60.8799 36.5325 61.0803 36.3717 61.2356C36.2143 61.3911 36.0491 61.5046 35.8761 61.5761C35.7014 61.6458 35.5274 61.6759 35.3541 61.6665C35.1808 61.6572 35.0159 61.6116 34.8593 61.5298C34.7027 61.448 34.562 61.3333 34.4373 61.1856C34.3143 61.0398 34.2244 60.8854 34.1679 60.7224C34.1097 60.5574 34.0877 60.3912 34.1019 60.2236C34.1179 60.0544 34.1697 59.8891 34.2572 59.7277C34.3447 59.5663 34.4725 59.4162 34.6407 59.2774C34.8073 59.1367 35.0156 59.0128 35.2656 58.9056C35.3327 58.9851 35.4006 59.0655 35.4693 59.147C35.5365 59.2265 35.6036 59.306 35.6707 59.3855C35.4609 59.4557 35.2847 59.5428 35.1423 59.6468C35.0018 59.7492 34.8973 59.8617 34.8289 59.9843C34.7624 60.1053 34.736 60.2314 34.7495 60.3627C34.7633 60.4904 34.8222 60.6159 34.9261 60.7389C35.0172 60.8468 35.1178 60.9257 35.2279 60.9754C35.3398 61.0236 35.4527 61.0401 35.5665 61.0251C35.6803 61.0101 35.7846 60.9627 35.8792 60.8827C35.9114 60.8556 35.9428 60.8274 35.9734 60.7984C36.0024 60.7674 36.0288 60.7354 36.0527 60.7022C36.0112 60.653 35.9688 60.6028 35.9257 60.5517C35.8825 60.5006 35.8401 60.4504 35.7986 60.4012C35.7456 60.4459 35.6926 60.4907 35.6396 60.5354C35.5865 60.5802 35.5335 60.625 35.4805 60.6697C35.4214 60.5997 35.3622 60.5296 35.3031 60.4596C35.2424 60.3876 35.1824 60.3166 35.1233 60.2466C35.2539 60.1363 35.3855 60.0252 35.518 59.9133C35.6525 59.7998 35.785 59.6879 35.9156 59.5776C36.0627 59.7518 36.2113 59.9279 36.3616 60.1059C36.5118 60.2838 36.6605 60.4599 36.8075 60.6341ZM37.2255 60.4564C37.0209 60.214 36.8147 59.9698 36.6069 59.7236C36.3975 59.4756 36.1905 59.2304 35.9859 58.9881C36.0636 58.9225 36.1421 58.8562 36.2217 58.7891C36.3012 58.7219 36.3788 58.6564 36.4545 58.5925C36.4657 58.6057 36.4769 58.619 36.4881 58.6322C36.4993 58.6455 36.5105 58.6587 36.5217 58.672C36.5452 58.5808 36.5851 58.4936 36.6414 58.4104C36.6976 58.3273 36.7733 58.2537 36.8684 58.1896C36.9323 58.2653 36.997 58.342 37.0626 58.4197C37.1281 58.4973 37.1928 58.574 37.2568 58.6497C37.0896 58.7551 36.9901 58.8619 36.9581 58.97C36.9245 59.0761 36.9516 59.1813 37.0396 59.2854C37.1466 59.4123 37.2553 59.541 37.3656 59.6717C37.4759 59.8023 37.5854 59.932 37.6941 60.0608C37.6184 60.1247 37.5407 60.1902 37.4612 60.2574C37.3817 60.3245 37.3031 60.3908 37.2255 60.4564ZM39.5383 58.3871C39.4541 58.5522 39.3531 58.6958 39.2356 58.8178C39.118 58.9397 38.9895 59.0352 38.85 59.1043C38.7141 59.1737 38.5736 59.2129 38.4287 59.2217C38.2838 59.2306 38.1426 59.2055 38.0051 59.1464C37.8696 59.0857 37.7451 58.9881 37.6316 58.8537C37.5373 58.742 37.469 58.6246 37.4266 58.5014C37.3846 58.3748 37.3681 58.2477 37.3771 58.1201C37.3845 57.9906 37.4186 57.8678 37.4794 57.7516C37.5386 57.6335 37.6231 57.5281 37.7329 57.4354C37.8314 57.3523 37.934 57.2933 38.0407 57.2583C38.1473 57.2234 38.2548 57.2105 38.3631 57.2196C38.4697 57.2269 38.5746 57.2551 38.6777 57.3042C38.7808 57.3534 38.877 57.4213 38.9664 57.5079C39.0558 57.5946 39.1348 57.6998 39.2035 57.8234C39.0483 57.9544 38.8921 58.0863 38.7349 58.219C38.5778 58.3516 38.4216 58.4835 38.2663 58.6146C38.363 58.6561 38.4658 58.6569 38.5747 58.6169C38.6855 58.5752 38.7938 58.5 38.8997 58.3911C39.0075 58.2807 39.1069 58.1449 39.1979 57.9838C39.2538 58.05 39.3106 58.1173 39.3681 58.1854C39.4257 58.2536 39.4824 58.3208 39.5383 58.3871ZM38.0764 57.8653C38.0215 57.9117 37.9832 57.97 37.9614 58.0402C37.9416 58.1089 37.9457 58.1848 37.9738 58.2681C38.059 58.1962 38.1442 58.1242 38.2294 58.0523C38.3165 57.9788 38.4027 57.9061 38.4879 57.8341C38.4108 57.7889 38.3376 57.7713 38.2681 57.7813C38.199 57.7878 38.1351 57.8158 38.0764 57.8653ZM41.1497 57.0267C41.0654 57.1919 40.9645 57.3355 40.8469 57.4574C40.7294 57.5794 40.6009 57.6749 40.4614 57.744C40.3254 57.8134 40.185 57.8525 40.04 57.8614C39.8951 57.8702 39.7539 57.8451 39.6165 57.786C39.481 57.7253 39.3564 57.6278 39.243 57.4934C39.1487 57.3817 39.0803 57.2642 39.038 57.1411C38.9959 57.0145 38.9794 56.8873 38.9884 56.7598C38.9958 56.6303 39.03 56.5074 39.0908 56.3912C39.15 56.2732 39.2345 56.1678 39.3443 56.0751C39.4427 55.9919 39.5453 55.9329 39.652 55.898C39.7587 55.863 39.8662 55.8501 39.9744 55.8593C40.0811 55.8665 40.1859 55.8947 40.289 55.9439C40.3921 55.993 40.4884 56.0609 40.5778 56.1476C40.6672 56.2343 40.7462 56.3394 40.8149 56.463C40.6596 56.5941 40.5034 56.726 40.3463 56.8586C40.1891 56.9913 40.0329 57.1232 39.8777 57.2542C39.9744 57.2958 40.0772 57.2966 40.1861 57.2565C40.2968 57.2149 40.4052 57.1397 40.5111 57.0308C40.6189 56.9203 40.7183 56.7845 40.8092 56.6234C40.8652 56.6897 40.9219 56.7569 40.9795 56.8251C41.037 56.8932 41.0938 56.9604 41.1497 57.0267ZM39.6878 56.505C39.6329 56.5513 39.5945 56.6096 39.5728 56.6799C39.5529 56.7485 39.557 56.8245 39.5852 56.9077C39.6704 56.8358 39.7556 56.7639 39.8408 56.692C39.9279 56.6184 40.014 56.5457 40.0992 56.4738C40.0222 56.4286 39.9489 56.411 39.8795 56.4209C39.8104 56.4274 39.7465 56.4554 39.6878 56.505ZM41.5548 56.8014C41.3502 56.5591 41.144 56.3149 40.9362 56.0687C40.7268 55.8207 40.5199 55.5755 40.3153 55.3332C40.3929 55.2676 40.4715 55.2013 40.551 55.1342C40.6305 55.067 40.7081 55.0015 40.7839 54.9376C40.795 54.9508 40.8054 54.9631 40.815 54.9745C40.8246 54.9859 40.835 54.9982 40.8462 55.0114C40.8669 54.9323 40.9006 54.8569 40.9471 54.7852C40.9939 54.71 41.0542 54.6413 41.128 54.5789C41.2359 54.4878 41.3514 54.4325 41.4743 54.413C41.5992 54.3919 41.7235 54.4086 41.8473 54.463C41.9713 54.5139 42.0877 54.6037 42.1964 54.7325C42.3211 54.8802 42.4465 55.0288 42.5728 55.1784C42.6991 55.3279 42.8246 55.4766 42.9492 55.6242C42.8735 55.6882 42.7959 55.7537 42.7164 55.8208C42.6368 55.888 42.5583 55.9543 42.4806 56.0198C42.3656 55.8835 42.2489 55.7453 42.1306 55.6052C42.0123 55.4651 41.8956 55.3269 41.7806 55.1906C41.7166 55.1148 41.6475 55.0694 41.5731 55.0544C41.4991 55.0358 41.4242 55.0585 41.3485 55.1224C41.2728 55.1863 41.2324 55.2577 41.2276 55.3364C41.2227 55.4151 41.2546 55.4952 41.3233 55.5766C41.4384 55.7129 41.5551 55.8511 41.6734 55.9912C41.7916 56.1313 41.9083 56.2695 42.0234 56.4058C41.9477 56.4698 41.87 56.5353 41.7905 56.6024C41.711 56.6696 41.6324 56.7359 41.5548 56.8014ZM42.6276 54.7721C42.5669 54.7002 42.5054 54.6273 42.443 54.5535C42.3791 54.4777 42.3167 54.4039 42.256 54.3319C42.3829 54.2248 42.5107 54.117 42.6394 54.0083C42.7682 53.8996 42.896 53.7917 43.0228 53.6846C43.0835 53.7565 43.1459 53.8304 43.2098 53.9061C43.2722 53.98 43.3337 54.0528 43.3944 54.1248C43.2676 54.2319 43.1398 54.3398 43.011 54.4485C42.8823 54.5572 42.7545 54.665 42.6276 54.7721ZM44.4462 54.3605C44.1677 54.1805 43.8867 53.9994 43.6032 53.8172C43.32 53.6315 43.0392 53.4487 42.7607 53.2687C42.8384 53.2031 42.9169 53.1368 42.9964 53.0697C43.0779 53.0009 43.1574 52.9338 43.235 52.8683C43.3848 52.9688 43.5361 53.0713 43.6891 53.1756C43.8423 53.2765 43.9929 53.378 44.1407 53.4802C44.061 53.3205 43.9805 53.1598 43.8992 52.9982C43.8182 52.8331 43.7369 52.6715 43.6553 52.5134C43.7216 52.4575 43.7879 52.4015 43.8541 52.3456C43.9223 52.288 43.9895 52.2313 44.0558 52.1754C44.1998 52.2807 44.3463 52.3889 44.4952 52.5C44.6443 52.6075 44.7908 52.7157 44.9346 52.8246C44.859 52.6582 44.7826 52.4908 44.7053 52.3225C44.6284 52.1508 44.552 51.9834 44.4761 51.8205C44.5537 51.755 44.6313 51.6894 44.709 51.6239C44.7885 51.5568 44.8661 51.4912 44.9418 51.4273C45.0726 51.732 45.2048 52.0403 45.3385 52.3523C45.4724 52.6607 45.6048 52.9673 45.7355 53.272C45.6598 53.3359 45.5831 53.4007 45.5055 53.4662C45.4278 53.5317 45.3512 53.5965 45.2754 53.6604C45.146 53.5686 45.0149 53.4766 44.882 53.3845C44.751 53.2908 44.6216 53.199 44.4938 53.1091C44.561 53.2502 44.6289 53.3939 44.6974 53.5404C44.7678 53.6852 44.8374 53.8291 44.9062 53.9721C44.8305 54.036 44.7538 54.1008 44.6762 54.1663C44.5986 54.2318 44.5219 54.2966 44.4462 54.3605ZM46.3615 52.7435C46.0722 52.4008 45.7805 52.0553 45.4864 51.7069C45.1923 51.3586 44.9006 51.013 44.6112 50.6704C44.6889 50.6048 44.7674 50.5385 44.847 50.4714C44.9265 50.4042 45.0041 50.3387 45.0798 50.2748C45.1742 50.3865 45.2701 50.5001 45.3676 50.6155C45.4635 50.7291 45.5586 50.8418 45.6529 50.9535C45.6736 50.8744 45.7072 50.799 45.7537 50.7273C45.8005 50.6521 45.8608 50.5834 45.9347 50.521C46.0426 50.4299 46.158 50.3746 46.281 50.3551C46.4059 50.334 46.5302 50.3507 46.654 50.4051C46.778 50.456 46.8944 50.5458 47.0031 50.6746C47.1277 50.8223 47.2532 50.9709 47.3795 51.1205C47.5058 51.27 47.6312 51.4187 47.7559 51.5663C47.6802 51.6303 47.6026 51.6958 47.523 51.7629C47.4435 51.8301 47.3649 51.8964 47.2873 51.9619C47.1722 51.8256 47.0556 51.6874 46.9373 51.5473C46.819 51.4072 46.7023 51.269 46.5872 51.1327C46.5233 51.0569 46.4542 51.0115 46.3798 50.9964C46.3058 50.9779 46.2309 51.0006 46.1552 51.0645C46.0794 51.1284 46.0391 51.1998 46.0342 51.2785C46.0293 51.3572 46.0613 51.4373 46.13 51.5187C46.2451 51.655 46.3618 51.7932 46.48 51.9333C46.5983 52.0734 46.715 52.2116 46.8301 52.3479C46.7543 52.4119 46.6767 52.4774 46.5972 52.5445C46.5177 52.6117 46.4391 52.678 46.3615 52.7435ZM46.9163 49.4734C46.8614 49.5198 46.8 49.5489 46.7322 49.5608C46.6663 49.571 46.6017 49.5656 46.5384 49.5444C46.4752 49.5232 46.4211 49.4861 46.3764 49.4331C46.3316 49.3801 46.3049 49.3216 46.2963 49.2575C46.286 49.1916 46.2915 49.127 46.3126 49.0638C46.3357 48.9989 46.3747 48.9433 46.4296 48.8969C46.4826 48.8522 46.5421 48.8247 46.608 48.8144C46.6758 48.8026 46.7414 48.8072 46.8046 48.8284C46.8663 48.8477 46.9195 48.8838 46.9643 48.9368C47.009 48.9898 47.0365 49.0493 47.0468 49.1152C47.057 49.1811 47.0506 49.2465 47.0276 49.3114C47.0064 49.3747 46.9693 49.4287 46.9163 49.4734ZM48.0616 51.3083C47.857 51.0659 47.6508 50.8217 47.443 50.5756C47.2336 50.3275 47.0266 50.0823 46.822 49.84C46.8997 49.7745 46.9782 49.7081 47.0578 49.641C47.1373 49.5739 47.2149 49.5083 47.2906 49.4444C47.4952 49.6867 47.7022 49.9319 47.9116 50.18C48.1194 50.4261 48.3256 50.6703 48.5302 50.9127C48.4545 50.9766 48.3768 51.0421 48.2973 51.1093C48.2178 51.1764 48.1392 51.2427 48.0616 51.3083ZM49.0106 50.5071C48.8635 50.3329 48.7157 50.1578 48.567 49.9817C48.4184 49.8056 48.2713 49.6314 48.1259 49.4592C48.088 49.4911 48.0492 49.5239 48.0094 49.5575C47.9716 49.5894 47.9337 49.6214 47.8958 49.6534C47.8367 49.5833 47.7776 49.5132 47.7184 49.4432C47.6593 49.3731 47.6001 49.3031 47.541 49.233C47.5789 49.2011 47.6167 49.1691 47.6546 49.1371C47.6944 49.1036 47.7332 49.0708 47.771 49.0388C47.7151 48.9726 47.66 48.9072 47.6056 48.8429C47.5497 48.7766 47.4945 48.7113 47.4402 48.6469C47.5178 48.5814 47.5964 48.515 47.6759 48.4479C47.7554 48.3808 47.833 48.3152 47.9088 48.2513C47.9631 48.3157 48.0183 48.381 48.0742 48.4473C48.1285 48.5116 48.1837 48.577 48.2396 48.6432C48.2832 48.6065 48.3277 48.5689 48.3731 48.5305C48.4186 48.4922 48.463 48.4546 48.5066 48.4179C48.5657 48.4879 48.6249 48.558 48.684 48.628C48.7432 48.6981 48.8023 48.7681 48.8614 48.8382C48.8179 48.8749 48.7734 48.9125 48.728 48.9509C48.6825 48.9892 48.638 49.0268 48.5945 49.0635C48.7399 49.2358 48.887 49.41 49.0356 49.5861C49.1843 49.7622 49.3321 49.9373 49.4792 50.1115C49.4035 50.1754 49.3258 50.241 49.2463 50.3081C49.1668 50.3752 49.0882 50.4416 49.0106 50.5071ZM51.1645 48.572C51.0802 48.7372 50.9793 48.8807 50.8618 49.0027C50.7442 49.1246 50.6157 49.2201 50.4762 49.2892C50.3402 49.3586 50.1998 49.3978 50.0549 49.4066C49.9099 49.4155 49.7688 49.3904 49.6313 49.3313C49.4958 49.2706 49.3713 49.173 49.2578 49.0386C49.1635 48.9269 49.0952 48.8095 49.0528 48.6863C49.0108 48.5597 48.9942 48.4326 49.0033 48.305C49.0107 48.1755 49.0448 48.0527 49.1056 47.9365C49.1648 47.8184 49.2493 47.713 49.3591 47.6203C49.4576 47.5372 49.5602 47.4782 49.6668 47.4432C49.7735 47.4083 49.881 47.3954 49.9892 47.4045C50.0959 47.4118 50.2008 47.44 50.3039 47.4891C50.407 47.5383 50.5032 47.6062 50.5926 47.6928C50.682 47.7795 50.761 47.8847 50.8297 48.0083C50.6745 48.1393 50.5183 48.2712 50.3611 48.4039C50.204 48.5365 50.0478 48.6684 49.8925 48.7995C49.9892 48.8411 50.092 48.8418 50.2009 48.8018C50.3117 48.7602 50.42 48.6849 50.5259 48.576C50.6337 48.4656 50.7331 48.3298 50.8241 48.1687C50.88 48.2349 50.9368 48.3022 50.9943 48.3703C51.0518 48.4385 51.1086 48.5057 51.1645 48.572ZM49.7026 48.0502C49.6477 48.0966 49.6094 48.1549 49.5876 48.2251C49.5677 48.2938 49.5719 48.3697 49.6 48.453C49.6852 48.3811 49.7704 48.3091 49.8556 48.2372C49.9427 48.1637 50.0288 48.091 50.114 48.019C50.037 47.9738 49.9637 47.9562 49.8943 47.9662C49.8252 47.9727 49.7613 48.0007 49.7026 48.0502Z" fill="#2F4ECD"/>
<path d="M39.6662 67.7504C39.4961 67.3493 39.3229 66.9443 39.1464 66.5355C38.9718 66.1251 38.7995 65.7194 38.6294 65.3182C38.7411 65.2239 38.8538 65.1288 38.9674 65.0329C39.0829 64.9354 39.1965 64.8394 39.3082 64.7451C39.6751 64.9801 40.0453 65.2189 40.4187 65.4614C40.794 65.7023 41.1651 65.9403 41.5321 66.1752C41.4507 66.244 41.3674 66.3143 41.2822 66.3862C41.1988 66.4566 41.1155 66.5269 41.0322 66.5972C40.9622 66.5526 40.893 66.5072 40.8248 66.461C40.755 66.4129 40.6851 66.3666 40.615 66.322C40.5071 66.4131 40.3982 66.505 40.2884 66.5977C40.1805 66.6888 40.0726 66.7799 39.9647 66.871C39.9969 66.9476 40.0308 67.0243 40.0666 67.1012C40.1007 67.1761 40.1338 67.2519 40.166 67.3285C40.0846 67.3972 40.0013 67.4675 39.9161 67.5395C39.8328 67.6098 39.7495 67.6801 39.6662 67.7504ZM39.7324 66.3424C39.7987 66.2864 39.8649 66.2305 39.9312 66.1745C39.9994 66.117 40.0666 66.0602 40.1328 66.0043C40.0063 65.9198 39.8781 65.8351 39.7481 65.7503C39.6181 65.6654 39.4899 65.5807 39.3634 65.4962C39.4255 65.6351 39.4865 65.7765 39.5465 65.9205C39.6083 66.0629 39.6703 66.2035 39.7324 66.3424ZM42.6687 65.2157C42.6559 65.2005 42.6439 65.1863 42.6327 65.1731C42.62 65.1579 42.608 65.1437 42.5968 65.1305C42.583 65.2102 42.5546 65.286 42.5116 65.358C42.4721 65.4303 42.4183 65.4952 42.3501 65.5527C42.2536 65.6342 42.1467 65.692 42.0295 65.7261C41.9124 65.7602 41.7919 65.7711 41.6681 65.7589C41.5446 65.7432 41.4239 65.7039 41.3061 65.6412C41.1902 65.577 41.0843 65.488 40.9884 65.3744C40.8909 65.2589 40.8202 65.1386 40.7763 65.0136C40.7342 64.887 40.7166 64.7624 40.7234 64.6399C40.7321 64.5158 40.7639 64.3998 40.8187 64.2919C40.872 64.1821 40.9459 64.0872 41.0406 64.0073C41.1088 63.9498 41.1827 63.9068 41.2625 63.8784C41.3407 63.8481 41.4194 63.8318 41.4987 63.8298C41.4028 63.7162 41.3061 63.6016 41.2086 63.4861C41.1111 63.3706 41.0144 63.2561 40.9185 63.1425C40.9961 63.0769 41.0747 63.0106 41.1542 62.9435C41.2337 62.8763 41.3113 62.8108 41.3871 62.7469C41.6764 63.0896 41.9681 63.4351 42.2622 63.7835C42.5563 64.1318 42.848 64.4774 43.1373 64.8201C43.0616 64.884 42.9839 64.9495 42.9044 65.0167C42.8249 65.0838 42.7463 65.1501 42.6687 65.2157ZM42.0626 65.0853C42.1534 65.0086 42.1984 64.9139 42.1973 64.8013C42.1963 64.6887 42.1502 64.5784 42.0591 64.4705C41.968 64.3626 41.8678 64.2996 41.7586 64.2816C41.6477 64.2617 41.5468 64.2901 41.456 64.3668C41.3632 64.4451 41.3165 64.5397 41.316 64.6504C41.3173 64.7595 41.3643 64.869 41.457 64.9788C41.5497 65.0886 41.6506 65.1543 41.7595 65.1758C41.8688 65.1938 41.9698 65.1637 42.0626 65.0853ZM44.4437 63.7172C44.4309 63.702 44.4189 63.6878 44.4077 63.6746C44.3949 63.6594 44.383 63.6452 44.3718 63.632C44.358 63.7117 44.3296 63.7875 44.2866 63.8595C44.2471 63.9318 44.1933 63.9967 44.1251 64.0542C44.0285 64.1358 43.9217 64.1935 43.8045 64.2276C43.6874 64.2617 43.5669 64.2726 43.4431 64.2604C43.3195 64.2447 43.1989 64.2055 43.0811 64.1428C42.9652 64.0785 42.8593 63.9895 42.7634 63.8759C42.6659 63.7604 42.5952 63.6402 42.5512 63.5151C42.5092 63.3885 42.4916 63.2639 42.4984 63.1414C42.5071 63.0173 42.5389 62.9013 42.5937 62.7934C42.647 62.6836 42.7209 62.5888 42.8156 62.5088C42.8837 62.4513 42.9577 62.4083 43.0375 62.3799C43.1156 62.3496 43.1944 62.3334 43.2737 62.3313C43.1778 62.2177 43.0811 62.1031 42.9836 61.9876C42.8861 61.8721 42.7894 61.7576 42.6935 61.644C42.7711 61.5785 42.8497 61.5121 42.9292 61.445C43.0087 61.3779 43.0863 61.3123 43.1621 61.2484C43.4514 61.5911 43.7431 61.9366 44.0372 62.285C44.3313 62.6334 44.623 62.9789 44.9123 63.3216C44.8366 63.3855 44.7589 63.451 44.6794 63.5182C44.5999 63.5853 44.5213 63.6516 44.4437 63.7172ZM43.8375 63.5869C43.9284 63.5101 43.9733 63.4155 43.9723 63.3028C43.9713 63.1902 43.9252 63.0799 43.8341 62.972C43.743 62.8641 43.6428 62.8011 43.5335 62.7831C43.4227 62.7632 43.3218 62.7916 43.231 62.8683C43.1382 62.9467 43.0915 63.0412 43.091 63.1519C43.0923 63.261 43.1393 63.3705 43.232 63.4803C43.3247 63.5901 43.4255 63.6558 43.5345 63.6773C43.6438 63.6953 43.7448 63.6652 43.8375 63.5869ZM44.1078 61.199C44.0529 61.2454 43.9915 61.2745 43.9237 61.2863C43.8578 61.2966 43.7932 61.2911 43.7299 61.27C43.6667 61.2488 43.6127 61.2117 43.5679 61.1587C43.5231 61.1057 43.4964 61.0472 43.4878 60.9831C43.4775 60.9172 43.483 60.8526 43.5041 60.7894C43.5272 60.7245 43.5662 60.6689 43.6211 60.6225C43.6741 60.5778 43.7336 60.5503 43.7995 60.54C43.8673 60.5281 43.9329 60.5328 43.9961 60.554C44.0578 60.5732 44.111 60.6094 44.1558 60.6624C44.2005 60.7154 44.228 60.7749 44.2383 60.8408C44.2485 60.9067 44.2421 60.9721 44.2191 61.037C44.1979 61.1003 44.1608 61.1543 44.1078 61.199ZM45.2531 63.0339C45.0485 62.7915 44.8423 62.5473 44.6345 62.3012C44.4251 62.0531 44.2181 61.8079 44.0135 61.5656C44.0912 61.5001 44.1697 61.4337 44.2493 61.3666C44.3288 61.2995 44.4064 61.2339 44.4821 61.17C44.6867 61.4123 44.8937 61.6575 45.1031 61.9055C45.3109 62.1517 45.5171 62.3959 45.7217 62.6383C45.646 62.7022 45.5683 62.7677 45.4888 62.8349C45.4093 62.902 45.3307 62.9683 45.2531 63.0339ZM45.3482 61.6937C45.2268 61.5499 45.1498 61.3992 45.1174 61.2417C45.0834 61.0823 45.0905 60.9256 45.1387 60.7714C45.1869 60.6172 45.2745 60.4752 45.4015 60.3452C45.5269 60.2134 45.6882 60.1048 45.8853 60.0195C45.946 60.0914 46.0076 60.1643 46.0699 60.2382C46.1322 60.312 46.1938 60.3849 46.2545 60.4568C46.0999 60.4965 45.9741 60.5606 45.8769 60.6491C45.7798 60.7376 45.7238 60.8384 45.709 60.9514C45.6926 61.0626 45.7323 61.175 45.8282 61.2886C45.9241 61.4022 46.029 61.4611 46.1429 61.4655C46.2553 61.4679 46.3632 61.4287 46.4667 61.3478C46.5687 61.2649 46.653 61.1516 46.7196 61.0078C46.7804 61.0797 46.8419 61.1526 46.9043 61.2265C46.9666 61.3003 47.0281 61.3732 47.0889 61.4452C46.9717 61.6252 46.8376 61.7659 46.6866 61.8675C46.5372 61.9709 46.3824 62.0334 46.2224 62.0551C46.0623 62.0767 45.9074 62.0583 45.7576 62C45.6062 61.9397 45.4697 61.8376 45.3482 61.6937ZM47.5528 61.0924C47.4057 60.9183 47.2578 60.7431 47.1092 60.567C46.9605 60.391 46.8135 60.2168 46.668 60.0445C46.6302 60.0765 46.5914 60.1092 46.5516 60.1428C46.5137 60.1748 46.4759 60.2067 46.438 60.2387C46.3789 60.1686 46.3197 60.0986 46.2606 60.0285C46.2014 59.9585 46.1423 59.8884 46.0832 59.8184C46.121 59.7864 46.1589 59.7544 46.1968 59.7225C46.2365 59.6889 46.2753 59.6561 46.3132 59.6242C46.2573 59.5579 46.2021 59.4926 46.1478 59.4282C46.0918 59.3619 46.0367 59.2966 45.9823 59.2323C46.06 59.1667 46.1385 59.1004 46.2181 59.0333C46.2976 58.9661 46.3752 58.9006 46.4509 58.8367C46.5053 58.901 46.5604 58.9663 46.6164 59.0326C46.6707 59.097 46.7259 59.1623 46.7818 59.2286C46.8253 59.1918 46.8698 59.1542 46.9153 59.1159C46.9607 59.0775 47.0052 59.04 47.0488 59.0032C47.1079 59.0733 47.167 59.1433 47.2262 59.2134C47.2853 59.2834 47.3445 59.3535 47.4036 59.4235C47.3601 59.4603 47.3156 59.4978 47.2701 59.5362C47.2247 59.5746 47.1802 59.6121 47.1366 59.6489C47.2821 59.8212 47.4291 59.9954 47.5778 60.1714C47.7264 60.3475 47.8743 60.5227 48.0213 60.6968C47.9456 60.7608 47.868 60.8263 47.7885 60.8934C47.709 60.9606 47.6304 61.0269 47.5528 61.0924ZM47.3832 58.4339C47.3283 58.4802 47.267 58.5093 47.1991 58.5212C47.1332 58.5314 47.0686 58.526 47.0053 58.5048C46.9421 58.4836 46.8881 58.4465 46.8433 58.3935C46.7986 58.3405 46.7718 58.282 46.7632 58.218C46.7529 58.152 46.7584 58.0874 46.7796 58.0242C46.8026 57.9593 46.8416 57.9037 46.8965 57.8573C46.9495 57.8126 47.009 57.7851 47.0749 57.7748C47.1427 57.763 47.2083 57.7676 47.2715 57.7888C47.3332 57.8081 47.3864 57.8442 47.4312 57.8972C47.4759 57.9502 47.5034 58.0097 47.5137 58.0756C47.524 58.1416 47.5176 58.207 47.4945 58.2718C47.4733 58.3351 47.4362 58.3891 47.3832 58.4339ZM48.5285 60.2687C48.3239 60.0263 48.1177 59.7821 47.9099 59.536C47.7005 59.2879 47.4936 59.0428 47.289 58.8004C47.3666 58.7349 47.4452 58.6685 47.5247 58.6014C47.6042 58.5343 47.6818 58.4688 47.7576 58.4048C47.9621 58.6472 48.1691 58.8923 48.3785 59.1404C48.5863 59.3865 48.7925 59.6307 48.9971 59.8731C48.9214 59.937 48.8437 60.0026 48.7642 60.0697C48.6847 60.1368 48.6061 60.2032 48.5285 60.2687ZM49.6621 59.3117C49.3742 59.1397 49.0828 58.9674 48.7879 58.7947C48.4933 58.6186 48.2021 58.4446 47.9142 58.2726C47.9956 58.2038 48.077 58.1351 48.1584 58.0664C48.2417 57.9961 48.3241 57.9265 48.4055 57.8578C48.581 57.9658 48.7573 58.0748 48.9344 58.1847C49.1118 58.2911 49.2873 58.3991 49.4609 58.5087C49.3839 58.3176 49.3068 58.1265 49.2298 57.9353C49.1511 57.7423 49.0723 57.551 48.9934 57.3615C49.0729 57.2944 49.1534 57.2264 49.2348 57.1577C49.3162 57.089 49.3967 57.021 49.4762 56.9539C49.5975 57.2666 49.7193 57.5837 49.8416 57.9052C49.9642 58.2233 50.0861 58.5387 50.2074 58.8513C50.1184 58.9265 50.0275 59.0032 49.9347 59.0815C49.842 59.1598 49.7511 59.2366 49.6621 59.3117ZM52.0364 57.1905C51.9521 57.3557 51.8512 57.4993 51.7336 57.6212C51.616 57.7432 51.4875 57.8387 51.3481 57.9078C51.2121 57.9772 51.0716 58.0163 50.9267 58.0252C50.7818 58.0341 50.6406 58.0089 50.5032 57.9499C50.3676 57.8892 50.2431 57.7916 50.1296 57.6572C50.0353 57.5455 49.967 57.4281 49.9246 57.3049C49.8826 57.1783 49.8661 57.0512 49.8751 56.9236C49.8825 56.7941 49.9166 56.6713 49.9774 56.5551C50.0366 56.437 50.1211 56.3316 50.231 56.2389C50.3294 56.1558 50.432 56.0967 50.5387 56.0618C50.6454 56.0268 50.7528 56.0139 50.8611 56.0231C50.9677 56.0303 51.0726 56.0585 51.1757 56.1077C51.2788 56.1568 51.3751 56.2247 51.4644 56.3114C51.5538 56.3981 51.6329 56.5032 51.7015 56.6268C51.5463 56.7579 51.3901 56.8898 51.2329 57.0224C51.0758 57.1551 50.9196 57.287 50.7644 57.418C50.8611 57.4596 50.9639 57.4604 51.0727 57.4204C51.1835 57.3787 51.2919 57.3035 51.3978 57.1946C51.5056 57.0842 51.6049 56.9484 51.6959 56.7873C51.7519 56.8535 51.8086 56.9207 51.8661 56.9889C51.9237 57.0571 51.9804 57.1243 52.0364 57.1905ZM50.5744 56.6688C50.5195 56.7151 50.4812 56.7734 50.4594 56.8437C50.4396 56.9124 50.4437 56.9883 50.4718 57.0716C50.557 56.9996 50.6422 56.9277 50.7274 56.8558C50.8145 56.7823 50.9007 56.7095 50.9859 56.6376C50.9088 56.5924 50.8356 56.5748 50.7662 56.5848C50.697 56.5912 50.6331 56.6192 50.5744 56.6688ZM54.0176 55.6347C54.0048 55.6196 53.9928 55.6054 53.9816 55.5921C53.9688 55.577 53.9568 55.5628 53.9456 55.5495C53.9319 55.6292 53.9035 55.7051 53.8605 55.7771C53.821 55.8493 53.7671 55.9142 53.699 55.9718C53.6024 56.0533 53.4955 56.1111 53.3784 56.1451C53.2612 56.1792 53.1407 56.1901 53.0169 56.1779C52.8934 56.1622 52.7727 56.123 52.655 56.0603C52.5391 55.996 52.4332 55.907 52.3373 55.7935C52.2398 55.678 52.169 55.5577 52.1251 55.4327C52.083 55.306 52.0654 55.1815 52.0723 55.0589C52.081 54.9348 52.1128 54.8188 52.1676 54.7109C52.2208 54.6012 52.2948 54.5063 52.3894 54.4264C52.4576 54.3688 52.5316 54.3258 52.6113 54.2974C52.6895 54.2671 52.7682 54.2509 52.8475 54.2488C52.7516 54.1352 52.6549 54.0207 52.5574 53.9052C52.4599 53.7897 52.3632 53.6751 52.2673 53.5615C52.3449 53.496 52.4235 53.4297 52.503 53.3625C52.5826 53.2954 52.6602 53.2299 52.7359 53.1659C53.0252 53.5086 53.3169 53.8541 53.611 54.2025C53.9051 54.5509 54.1968 54.8964 54.4862 55.2391C54.4104 55.303 54.3328 55.3686 54.2533 55.4357C54.1738 55.5028 54.0952 55.5692 54.0176 55.6347ZM53.4114 55.5044C53.5023 55.4277 53.5472 55.333 53.5462 55.2204C53.5451 55.1078 53.499 54.9975 53.4079 54.8896C53.3168 54.7816 53.2167 54.7187 53.1074 54.7007C52.9966 54.6807 52.8957 54.7091 52.8048 54.7859C52.712 54.8642 52.6654 54.9587 52.6648 55.0694C52.6661 55.1786 52.7132 55.288 52.8059 55.3978C52.8986 55.5077 52.9994 55.5733 53.1084 55.5948C53.2176 55.6129 53.3186 55.5827 53.4114 55.5044ZM55.7925 54.1362C55.7798 54.1211 55.7678 54.1069 55.7566 54.0936C55.7438 54.0785 55.7318 54.0643 55.7206 54.051C55.7068 54.1307 55.6785 54.2066 55.6355 54.2786C55.5959 54.3508 55.5421 54.4157 55.474 54.4733C55.3774 54.5548 55.2713 54.6135 55.1558 54.6495C55.0386 54.6835 54.9181 54.6945 54.7943 54.6823C54.6708 54.6665 54.5501 54.6273 54.4323 54.5646C54.3165 54.5004 54.2098 54.4105 54.1123 54.295C54.0132 54.1776 53.9416 54.0564 53.8977 53.9313C53.8556 53.8047 53.8388 53.6811 53.8473 53.5605C53.856 53.4364 53.8878 53.3204 53.9426 53.2125C53.9958 53.1027 54.0698 53.0078 54.1644 52.9279C54.2326 52.8703 54.3066 52.8274 54.3863 52.7989C54.4645 52.7686 54.5432 52.7524 54.6225 52.7503C54.6097 52.7352 54.5977 52.721 54.5866 52.7077C54.5754 52.6945 54.5642 52.6812 54.553 52.6679C54.6306 52.6024 54.7092 52.5361 54.7887 52.469C54.8682 52.4018 54.9459 52.3363 55.0216 52.2723C55.2262 52.5147 55.4332 52.7599 55.6426 53.0079C55.8504 53.254 56.0565 53.4983 56.2611 53.7406C56.1854 53.8046 56.1078 53.8701 56.0283 53.9372C55.9487 54.0044 55.8702 54.0707 55.7925 54.1362ZM55.1864 54.0059C55.2773 53.9292 55.3222 53.8345 55.3211 53.7219C55.3201 53.6093 55.274 53.499 55.1829 53.3911C55.0918 53.2832 54.9916 53.2202 54.8824 53.2022C54.7715 53.1823 54.6707 53.2107 54.5798 53.2874C54.487 53.3657 54.4404 53.4602 54.4398 53.571C54.4411 53.6801 54.4881 53.7895 54.5809 53.8994C54.6736 54.0092 54.7744 54.0748 54.8833 54.0963C54.9926 54.1144 55.0936 54.0842 55.1864 54.0059ZM56.5739 53.4766C56.3693 53.2343 56.1631 52.99 55.9553 52.7439C55.7459 52.4959 55.5389 52.2507 55.3343 52.0083C55.4119 51.9428 55.4905 51.8765 55.57 51.8093C55.6496 51.7422 55.7272 51.6767 55.8029 51.6127C55.8141 51.626 55.8245 51.6383 55.8341 51.6497C55.8437 51.661 55.8541 51.6733 55.8653 51.6866C55.886 51.6074 55.9196 51.532 55.9661 51.4604C56.0129 51.3852 56.0732 51.3164 56.1471 51.2541C56.255 51.163 56.3704 51.1077 56.4934 51.0882C56.6183 51.0671 56.7426 51.0837 56.8663 51.1381C56.9904 51.1891 57.1068 51.2789 57.2155 51.4076C57.3401 51.5553 57.4656 51.7039 57.5919 51.8535C57.7182 52.0031 57.8436 52.1517 57.9683 52.2994C57.8926 52.3633 57.8149 52.4289 57.7354 52.496C57.6559 52.5631 57.5773 52.6295 57.4997 52.695C57.3846 52.5587 57.2679 52.4205 57.1497 52.2804C57.0314 52.1403 56.9147 52.002 56.7996 51.8657C56.7357 51.79 56.6665 51.7446 56.5922 51.7295C56.5182 51.711 56.4433 51.7336 56.3676 51.7976C56.2918 51.8615 56.2515 51.9328 56.2466 52.0115C56.2417 52.0903 56.2736 52.1703 56.3424 52.2517C56.4575 52.388 56.5741 52.5263 56.6924 52.6664C56.8107 52.8065 56.9274 52.9447 57.0425 53.081C56.9667 53.1449 56.8891 53.2105 56.8096 53.2776C56.7301 53.3447 56.6515 53.4111 56.5739 53.4766ZM57.5568 51.387C57.4354 51.2431 57.3584 51.0924 57.326 50.9349C57.292 50.7756 57.2991 50.6188 57.3473 50.4646C57.3955 50.3104 57.4831 50.1684 57.6101 50.0384C57.7355 49.9066 57.8968 49.798 58.0939 49.7127C58.1546 49.7846 58.2162 49.8575 58.2785 49.9314C58.3408 50.0052 58.4024 50.0781 58.4631 50.1501C58.3085 50.1897 58.1827 50.2538 58.0855 50.3423C57.9884 50.4308 57.9324 50.5316 57.9176 50.6447C57.9012 50.7558 57.9409 50.8682 58.0368 50.9818C58.1327 51.0954 58.2376 51.1543 58.3515 51.1587C58.4639 51.1611 58.5718 51.1219 58.6753 51.041C58.7773 50.9582 58.8616 50.8448 58.9282 50.701C58.989 50.773 59.0505 50.8458 59.1129 50.9197C59.1752 50.9935 59.2367 51.0664 59.2975 51.1384C59.1803 51.3184 59.0462 51.4591 58.8952 51.5607C58.7458 51.6641 58.5911 51.7266 58.431 51.7483C58.2709 51.7699 58.116 51.7516 57.9662 51.6932C57.8148 51.6329 57.6783 51.5309 57.5568 51.387ZM60.8004 49.7918C60.7161 49.9569 60.6152 50.1005 60.4976 50.2225C60.3801 50.3444 60.2515 50.4399 60.1121 50.509C59.9761 50.5784 59.8356 50.6176 59.6907 50.6264C59.5458 50.6353 59.4046 50.6102 59.2672 50.5511C59.1316 50.4904 59.0071 50.3928 58.8936 50.2584C58.7993 50.1467 58.731 50.0293 58.6887 49.9061C58.6466 49.7795 58.6301 49.6524 58.6391 49.5248C58.6465 49.3953 58.6806 49.2725 58.7414 49.1563C58.8007 49.0382 58.8852 48.9328 58.995 48.8401C59.0934 48.757 59.196 48.698 59.3027 48.663C59.4094 48.6281 59.5169 48.6152 59.6251 48.6243C59.7317 48.6316 59.8366 48.6598 59.9397 48.7089C60.0428 48.7581 60.1391 48.826 60.2285 48.9126C60.3178 48.9993 60.3969 49.1045 60.4656 49.2281C60.3103 49.3591 60.1541 49.491 59.997 49.6237C59.8398 49.7563 59.6836 49.8882 59.5284 50.0193C59.6251 50.0608 59.7279 50.0616 59.8368 50.0216C59.9475 49.9799 60.0559 49.9047 60.1618 49.7958C60.2696 49.6854 60.3689 49.5496 60.4599 49.3885C60.5159 49.4547 60.5726 49.522 60.6302 49.5901C60.6877 49.6583 60.7444 49.7255 60.8004 49.7918ZM59.3385 49.27C59.2836 49.3164 59.2452 49.3747 59.2235 49.4449C59.2036 49.5136 59.2077 49.5895 59.2359 49.6728C59.3211 49.6009 59.4063 49.5289 59.4915 49.457C59.5786 49.3835 59.6647 49.3108 59.7499 49.2388C59.6728 49.1936 59.5996 49.176 59.5302 49.186C59.4611 49.1925 59.3971 49.2205 59.3385 49.27ZM61.8018 49.0631C61.5972 48.8207 61.391 48.5765 61.1832 48.3304C60.9738 48.0824 60.7668 47.8372 60.5622 47.5948C60.6399 47.5293 60.7184 47.463 60.7979 47.3958C60.8775 47.3287 60.9551 47.2632 61.0308 47.1992C61.042 47.2125 61.0524 47.2248 61.062 47.2361C61.0716 47.2475 61.082 47.2598 61.0932 47.2731C61.112 47.1955 61.1437 47.1217 61.1883 47.0516C61.2314 46.9797 61.285 46.9165 61.3494 46.8622C61.4195 46.803 61.4942 46.761 61.5737 46.736C61.6516 46.7092 61.7305 46.7009 61.8105 46.7112C61.8344 46.6165 61.8737 46.5249 61.9287 46.4363C61.9855 46.3462 62.0547 46.2668 62.1361 46.198C62.2516 46.1005 62.371 46.0403 62.4942 46.0173C62.6194 45.9927 62.7414 46.0048 62.8604 46.0535C62.9813 46.1006 63.0936 46.1857 63.1975 46.3088C63.3254 46.4603 63.4549 46.6136 63.586 46.7689C63.717 46.9241 63.8465 47.0775 63.9744 47.2289C63.8986 47.2929 63.821 47.3584 63.7415 47.4255C63.662 47.4927 63.5834 47.559 63.5058 47.6245C63.3859 47.4825 63.2644 47.3387 63.1413 47.1929C63.0183 47.0471 62.8968 46.9032 62.7769 46.7612C62.7226 46.6968 62.6635 46.6575 62.5996 46.6434C62.536 46.6257 62.4721 46.644 62.4077 46.6984C62.3452 46.7511 62.3128 46.8125 62.3104 46.8827C62.3082 46.9493 62.336 47.0167 62.3935 47.0849C62.5134 47.2269 62.6349 47.3708 62.7579 47.5165C62.881 47.6623 63.0025 47.8062 63.1224 47.9482C63.0466 48.0122 62.969 48.0777 62.8895 48.1448C62.81 48.212 62.7314 48.2783 62.6538 48.3438C62.5339 48.2018 62.4124 48.0579 62.2893 47.9121C62.1663 47.7664 62.0448 47.6225 61.9249 47.4805C61.8706 47.4161 61.8115 47.3768 61.7476 47.3626C61.684 47.3449 61.6201 47.3633 61.5557 47.4176C61.4932 47.4704 61.4608 47.5318 61.4584 47.6019C61.4562 47.6686 61.484 47.736 61.5415 47.8041C61.6614 47.9461 61.7829 48.09 61.9059 48.2358C62.029 48.3816 62.1505 48.5255 62.2704 48.6675C62.1946 48.7314 62.117 48.797 62.0375 48.8641C61.958 48.9312 61.8794 48.9976 61.8018 49.0631ZM64.3967 44.3576C64.6013 44.6 64.8083 44.8452 65.0177 45.0932C65.2255 45.3393 65.4317 45.5836 65.6363 45.8259C65.5606 45.8898 65.4829 45.9554 65.4034 46.0225C65.3239 46.0896 65.2453 46.156 65.1677 46.2215C65.1565 46.2083 65.1461 46.1959 65.1365 46.1846C65.1269 46.1732 65.1165 46.1609 65.1054 46.1477C65.0846 46.2268 65.05 46.303 65.0016 46.3763C64.9567 46.4499 64.8974 46.5178 64.8235 46.5801C64.7156 46.6713 64.5992 46.7274 64.4744 46.7485C64.3514 46.768 64.2271 46.7513 64.1014 46.6985C63.9777 46.6441 63.8622 46.5535 63.7551 46.4266C63.6305 46.2789 63.505 46.1303 63.3787 45.9807C63.2525 45.8312 63.127 45.6825 63.0023 45.5348C63.0799 45.4693 63.1585 45.403 63.238 45.3358C63.3175 45.2687 63.3952 45.2032 63.4709 45.1392C63.586 45.2756 63.7027 45.4138 63.8209 45.5539C63.9392 45.694 64.0559 45.8322 64.171 45.9685C64.2349 46.0443 64.3039 46.0914 64.378 46.11C64.4523 46.125 64.5273 46.1006 64.6031 46.0367C64.6788 45.9727 64.7191 45.9014 64.724 45.8227C64.7289 45.744 64.697 45.6639 64.6282 45.5825C64.5131 45.4462 64.3965 45.308 64.2782 45.1679C64.1599 45.0278 64.0432 44.8896 63.9281 44.7532C64.0058 44.6877 64.0843 44.6214 64.1639 44.5542C64.2434 44.4871 64.321 44.4216 64.3967 44.3576ZM66.6862 44.1613C66.7853 44.2787 66.8337 44.4032 66.8314 44.5349C66.8293 44.6631 66.7878 44.7905 66.7068 44.9173C66.6257 45.0441 66.5146 45.1622 66.3735 45.2716C66.2359 45.3813 66.0803 45.4754 65.9066 45.5539C65.8458 45.482 65.7835 45.4082 65.7196 45.3324C65.6556 45.2567 65.5933 45.1829 65.5326 45.1109C65.6424 45.0797 65.7459 45.041 65.843 44.9947C65.9385 44.9465 66.0201 44.8971 66.0877 44.8466C66.1552 44.796 66.2033 44.7473 66.2319 44.7005C66.2588 44.6518 66.2579 44.6104 66.2292 44.5763C66.2068 44.5498 66.1722 44.5434 66.1253 44.557C66.0803 44.569 66.0265 44.5917 65.9639 44.6251C65.8997 44.6566 65.8301 44.6894 65.7552 44.7235C65.6805 44.7542 65.6031 44.7757 65.5229 44.7883C65.4411 44.799 65.36 44.7913 65.2796 44.7651C65.1994 44.7355 65.1218 44.6762 65.0467 44.5872C64.9572 44.4812 64.9115 44.3657 64.9098 44.2407C64.9083 44.1122 64.9437 43.9851 65.0158 43.8593C65.0864 43.7316 65.1861 43.6134 65.3148 43.5048C65.4436 43.3961 65.5935 43.3068 65.7647 43.2368C65.8254 43.3088 65.8878 43.3826 65.9517 43.4583C66.0157 43.5341 66.078 43.6079 66.1387 43.6798C65.9895 43.7182 65.8614 43.7681 65.7542 43.8294C65.6471 43.8906 65.5707 43.9519 65.5251 44.0131C65.4779 44.0724 65.471 44.1219 65.5046 44.1617C65.527 44.1882 65.5607 44.1954 65.6056 44.1834C65.6509 44.1679 65.7039 44.1442 65.7646 44.1124C65.8272 44.079 65.8958 44.047 65.9705 44.0164C66.0471 43.9842 66.1253 43.9636 66.2052 43.9545C66.2854 43.9419 66.3664 43.9514 66.4481 43.9829C66.5301 44.0109 66.6095 44.0704 66.6862 44.1613ZM66.1648 42.578C66.1099 42.6243 66.0486 42.6534 65.9807 42.6653C65.9148 42.6756 65.8502 42.6701 65.787 42.6489C65.7237 42.6278 65.6697 42.5907 65.6249 42.5377C65.5802 42.4846 65.5535 42.4261 65.5448 42.3621C65.5345 42.2962 65.54 42.2316 65.5612 42.1683C65.5842 42.1034 65.6232 42.0478 65.6781 42.0015C65.7311 41.9567 65.7906 41.9292 65.8565 41.919C65.9243 41.9071 65.9899 41.9118 66.0532 41.9329C66.1148 41.9522 66.168 41.9883 66.2128 42.0414C66.2576 42.0944 66.2851 42.1538 66.2953 42.2198C66.3056 42.2857 66.2992 42.3511 66.2761 42.4159C66.2549 42.4792 66.2178 42.5332 66.1648 42.578ZM67.3101 44.4128C67.1055 44.1705 66.8993 43.9262 66.6915 43.6801C66.4822 43.4321 66.2752 43.1869 66.0706 42.9445C66.1482 42.879 66.2268 42.8127 66.3063 42.7455C66.3858 42.6784 66.4634 42.6129 66.5392 42.5489C66.7438 42.7913 66.9508 43.0365 67.1601 43.2845C67.3679 43.5306 67.5741 43.7749 67.7787 44.0172C67.703 44.0812 67.6254 44.1467 67.5458 44.2138C67.4663 44.2809 67.3877 44.3473 67.3101 44.4128ZM67.4053 43.0727C67.2838 42.9288 67.2068 42.7781 67.1744 42.6207C67.1404 42.4613 67.1475 42.3045 67.1957 42.1503C67.2439 41.9962 67.3315 41.8541 67.4585 41.7242C67.5839 41.5923 67.7452 41.4838 67.9423 41.3984C68.003 41.4704 68.0646 41.5433 68.1269 41.6171C68.1893 41.6909 68.2508 41.7638 68.3115 41.8358C68.157 41.8755 68.0311 41.9396 67.934 42.0281C67.8368 42.1166 67.7808 42.2174 67.766 42.3304C67.7496 42.4415 67.7893 42.5539 67.8852 42.6675C67.9811 42.7811 68.086 42.8401 68.2 42.8444C68.3123 42.8469 68.4202 42.8076 68.5238 42.7267C68.6257 42.6439 68.71 42.5306 68.7767 42.3867C68.8374 42.4587 68.8989 42.5316 68.9613 42.6054C69.0236 42.6793 69.0852 42.7522 69.1459 42.8241C69.0287 43.0041 68.8946 43.1449 68.7436 43.2464C68.5942 43.3498 68.4395 43.4124 68.2794 43.434C68.1193 43.4557 67.9644 43.4373 67.8146 43.3789C67.6632 43.3187 67.5267 43.2166 67.4053 43.0727Z" fill="#2F4ECD"/>
<path d="M44.5656 73.1376C44.2971 72.8195 44.0254 72.4976 43.7505 72.172C43.4755 71.8463 43.2038 71.5245 42.9353 71.2064C43.1265 71.0449 43.3196 70.8819 43.5146 70.7173C43.7097 70.5526 43.9028 70.3896 44.094 70.2282C44.1547 70.3001 44.2171 70.374 44.281 70.4497C44.345 70.5254 44.4073 70.5993 44.468 70.6712C44.3582 70.7639 44.2475 70.8574 44.1357 70.9517C44.0259 71.0444 43.9161 71.1371 43.8063 71.2298C43.8463 71.2772 43.8862 71.3245 43.9262 71.3718C43.9646 71.4173 44.0037 71.4637 44.0437 71.511C44.144 71.4263 44.2453 71.3408 44.3475 71.2545C44.4498 71.1682 44.5501 71.0834 44.6486 71.0003C44.7077 71.0704 44.7677 71.1414 44.8284 71.2133C44.8891 71.2853 44.9499 71.3572 45.0106 71.4292C44.9122 71.5123 44.8118 71.597 44.7096 71.6833C44.6073 71.7696 44.5061 71.8551 44.4057 71.9398C44.4521 71.9947 44.4992 72.0506 44.5472 72.1074C44.5951 72.1642 44.6423 72.2201 44.6886 72.275C44.7984 72.1823 44.9082 72.0895 45.0181 71.9968C45.1298 71.9025 45.2405 71.809 45.3503 71.7163C45.4111 71.7883 45.4734 71.8621 45.5373 71.9378C45.6013 72.0136 45.6636 72.0874 45.7244 72.1594C45.5331 72.3208 45.34 72.4838 45.145 72.6485C44.95 72.8131 44.7569 72.9761 44.5656 73.1376ZM46.0519 71.8829C45.7626 71.5402 45.4709 71.1947 45.1768 70.8463C44.8826 70.4979 44.5909 70.1524 44.3016 69.8097C44.3793 69.7442 44.4578 69.6778 44.5374 69.6107C44.6169 69.5436 44.6945 69.478 44.7702 69.4141C45.0595 69.7568 45.3512 70.1023 45.6453 70.4507C45.9395 70.799 46.2312 71.1446 46.5205 71.4873C46.4447 71.5512 46.3671 71.6167 46.2876 71.6839C46.2081 71.751 46.1295 71.8173 46.0519 71.8829ZM48.0538 70.0761C47.9695 70.2413 47.8686 70.3849 47.751 70.5068C47.6334 70.6287 47.5049 70.7243 47.3655 70.7934C47.2295 70.8628 47.089 70.9019 46.9441 70.9108C46.7992 70.9196 46.658 70.8945 46.5206 70.8354C46.385 70.7747 46.2605 70.6772 46.147 70.5428C46.0527 70.431 45.9844 70.3136 45.942 70.1905C45.9 70.0638 45.8835 69.9367 45.8925 69.8091C45.8999 69.6796 45.934 69.5568 45.9948 69.4406C46.054 69.3225 46.1385 69.2171 46.2484 69.1244C46.3468 69.0413 46.4494 68.9823 46.5561 68.9474C46.6628 68.9124 46.7702 68.8995 46.8785 68.9086C46.9851 68.9159 47.09 68.9441 47.1931 68.9932C47.2962 69.0424 47.3924 69.1103 47.4818 69.197C47.5712 69.2837 47.6503 69.3888 47.7189 69.5124C47.5637 69.6435 47.4075 69.7753 47.2503 69.908C47.0932 70.0407 46.937 70.1725 46.7817 70.3036C46.8785 70.3452 46.9813 70.346 47.0901 70.3059C47.2009 70.2643 47.3092 70.189 47.4151 70.0802C47.5229 69.9697 47.6223 69.8339 47.7133 69.6728C47.7692 69.7391 47.826 69.8063 47.8835 69.8745C47.9411 69.9426 47.9978 70.0098 48.0538 70.0761ZM46.5918 69.5544C46.5369 69.6007 46.4986 69.659 46.4768 69.7293C46.457 69.7979 46.4611 69.8739 46.4892 69.9571C46.5744 69.8852 46.6596 69.8133 46.7448 69.7413C46.8319 69.6678 46.9181 69.5951 47.0033 69.5232C46.9262 69.478 46.853 69.4604 46.7836 69.4703C46.7144 69.4768 46.6505 69.5048 46.5918 69.5544ZM47.7584 69.1824C47.6369 69.0385 47.5599 68.8878 47.5275 68.7304C47.4935 68.571 47.5006 68.4142 47.5488 68.2601C47.597 68.1059 47.6846 67.9638 47.8116 67.8339C47.937 67.7021 48.0983 67.5935 48.2954 67.5081C48.3562 67.5801 48.4177 67.653 48.48 67.7268C48.5424 67.8007 48.6039 67.8736 48.6646 67.9455C48.5101 67.9852 48.3842 68.0493 48.2871 68.1378C48.1899 68.2263 48.1339 68.3271 48.1191 68.4401C48.1027 68.5512 48.1424 68.6636 48.2383 68.7772C48.3342 68.8908 48.4391 68.9498 48.5531 68.9541C48.6654 68.9566 48.7733 68.9174 48.8769 68.8364C48.9788 68.7536 49.0631 68.6403 49.1298 68.4965C49.1905 68.5684 49.252 68.6413 49.3144 68.7151C49.3767 68.789 49.4383 68.8619 49.499 68.9338C49.3818 69.1138 49.2477 69.2546 49.0967 69.3561C48.9473 69.4595 48.7926 69.5221 48.6325 69.5437C48.4724 69.5654 48.3175 69.547 48.1677 69.4886C48.0163 69.4284 47.8798 69.3263 47.7584 69.1824ZM49.9629 68.5811C49.8158 68.4069 49.668 68.2318 49.5193 68.0557C49.3707 67.8796 49.2236 67.7054 49.0782 67.5332C49.0403 67.5651 49.0015 67.5979 48.9617 67.6315C48.9239 67.6634 48.886 67.6954 48.8481 67.7274C48.789 67.6573 48.7299 67.5872 48.6707 67.5172C48.6116 67.4471 48.5524 67.3771 48.4933 67.307C48.5312 67.2751 48.569 67.2431 48.6069 67.2111C48.6467 67.1776 48.6855 67.1448 48.7233 67.1128C48.6674 67.0466 48.6122 66.9812 48.5579 66.9169C48.502 66.8506 48.4468 66.7853 48.3925 66.7209C48.4701 66.6554 48.5487 66.589 48.6282 66.5219C48.7077 66.4548 48.7853 66.3893 48.8611 66.3253C48.9154 66.3897 48.9706 66.455 49.0265 66.5213C49.0808 66.5856 49.136 66.651 49.1919 66.7172C49.2355 66.6805 49.28 66.6429 49.3254 66.6045C49.3708 66.5662 49.4153 66.5286 49.4589 66.4919C49.518 66.5619 49.5772 66.632 49.6363 66.702C49.6954 66.7721 49.7546 66.8421 49.8137 66.9122C49.7702 66.9489 49.7257 66.9865 49.6803 67.0249C49.6348 67.0632 49.5903 67.1008 49.5468 67.1376C49.6922 67.3098 49.8393 67.484 49.9879 67.6601C50.1366 67.8362 50.2844 68.0113 50.4315 68.1855C50.3557 68.2494 50.2781 68.315 50.1986 68.3821C50.1191 68.4492 50.0405 68.5156 49.9629 68.5811ZM50.9244 67.7693C50.7198 67.527 50.5137 67.2828 50.3059 67.0366C50.0965 66.7886 49.8895 66.5434 49.6849 66.3011C49.7625 66.2355 49.8411 66.1692 49.9206 66.1021C50.0001 66.0349 50.0778 65.9694 50.1535 65.9055C50.1647 65.9187 50.1759 65.932 50.1871 65.9452C50.1982 65.9585 50.2094 65.9717 50.2206 65.985C50.2441 65.8938 50.284 65.8066 50.3403 65.7234C50.3966 65.6403 50.4722 65.5667 50.5673 65.5026C50.6312 65.5783 50.696 65.655 50.7615 65.7326C50.827 65.8103 50.8918 65.8869 50.9557 65.9627C50.7886 66.0681 50.689 66.1749 50.657 66.283C50.6234 66.3891 50.6506 66.4943 50.7385 66.5984C50.8456 66.7253 50.9543 66.854 51.0646 66.9847C51.1749 67.1153 51.2843 67.245 51.393 67.3737C51.3173 67.4377 51.2397 67.5032 51.1602 67.5703C51.0806 67.6375 51.0021 67.7038 50.9244 67.7693ZM52.7652 66.2932C52.6554 66.3859 52.5372 66.4532 52.4105 66.4953C52.2823 66.5355 52.1536 66.5501 52.0244 66.5392C51.8936 66.5264 51.7684 66.4894 51.6487 66.4283C51.5309 66.3656 51.4248 66.2784 51.3305 66.1667C51.2362 66.055 51.1681 65.9358 51.126 65.8092C51.0858 65.681 51.0712 65.5522 51.0821 65.4231C51.093 65.2939 51.1299 65.1704 51.1925 65.0526C51.2536 64.9329 51.3391 64.8267 51.4489 64.734C51.5606 64.6397 51.6796 64.5733 51.806 64.5347C51.9326 64.4927 52.0605 64.4771 52.1897 64.488C52.3189 64.4989 52.4424 64.5357 52.5602 64.5984C52.6799 64.6595 52.7869 64.7459 52.8812 64.8576C52.9755 64.9693 53.0427 65.0893 53.0829 65.2175C53.1249 65.3442 53.1413 65.473 53.132 65.6041C53.1211 65.7333 53.0851 65.8577 53.024 65.9774C52.9632 66.0936 52.8769 66.1989 52.7652 66.2932ZM52.408 65.87C52.5007 65.7917 52.5466 65.6962 52.5456 65.5836C52.5448 65.4675 52.5005 65.3574 52.4126 65.2532C52.3231 65.1472 52.2227 65.086 52.1116 65.0696C52.0007 65.0496 51.8989 65.0788 51.8062 65.1572C51.7134 65.2355 51.6666 65.3318 51.6657 65.446C51.6652 65.5567 51.7096 65.6651 51.7991 65.7711C51.887 65.8752 51.9872 65.9382 52.0997 65.96C52.2124 65.9783 52.3152 65.9483 52.408 65.87ZM53.7339 65.3975C53.5293 65.1552 53.3231 64.9109 53.1153 64.6648C52.9059 64.4168 52.699 64.1716 52.4944 63.9292C52.572 63.8637 52.6506 63.7974 52.7301 63.7302C52.8096 63.6631 52.8872 63.5976 52.963 63.5336C52.9742 63.5469 52.9845 63.5592 52.9941 63.5706C53.0037 63.5819 53.0141 63.5942 53.0253 63.6075C53.0461 63.5283 53.0797 63.4529 53.1262 63.3813C53.173 63.3061 53.2333 63.2373 53.3071 63.175C53.415 63.0839 53.5305 63.0286 53.6535 63.0091C53.7783 62.988 53.9026 63.0046 54.0264 63.059C54.1504 63.11 54.2668 63.1998 54.3755 63.3285C54.5002 63.4762 54.6257 63.6249 54.7519 63.7744C54.8782 63.924 55.0037 64.0726 55.1283 64.2203C55.0526 64.2842 54.975 64.3498 54.8955 64.4169C54.8159 64.484 54.7374 64.5504 54.6597 64.6159C54.5447 64.4796 54.428 64.3414 54.3097 64.2013C54.1914 64.0612 54.0747 63.9229 53.9597 63.7866C53.8957 63.7109 53.8266 63.6655 53.7523 63.6504C53.6782 63.6319 53.6033 63.6545 53.5276 63.7185C53.4519 63.7824 53.4115 63.8537 53.4067 63.9325C53.4018 64.0112 53.4337 64.0912 53.5024 64.1726C53.6175 64.309 53.7342 64.4472 53.8525 64.5873C53.9707 64.7274 54.0874 64.8656 54.2025 65.0019C54.1268 65.0658 54.0492 65.1314 53.9696 65.1985C53.8901 65.2656 53.8115 65.332 53.7339 65.3975ZM54.2863 62.1295C54.2314 62.1758 54.17 62.2049 54.1022 62.2168C54.0363 62.227 53.9717 62.2216 53.9084 62.2004C53.8451 62.1792 53.7911 62.1422 53.7464 62.0891C53.7016 62.0361 53.6749 61.9776 53.6663 61.9136C53.656 61.8477 53.6615 61.7831 53.6826 61.7198C53.7057 61.6549 53.7447 61.5993 53.7996 61.553C53.8526 61.5082 53.9121 61.4807 53.978 61.4704C54.0458 61.4586 54.1114 61.4632 54.1746 61.4844C54.2363 61.5037 54.2895 61.5398 54.3343 61.5928C54.379 61.6459 54.4065 61.7053 54.4168 61.7712C54.427 61.8372 54.4206 61.9026 54.3976 61.9674C54.3764 62.0307 54.3393 62.0847 54.2863 62.1295ZM55.4316 63.9643C55.227 63.722 55.0208 63.4777 54.813 63.2316C54.6036 62.9836 54.3966 62.7384 54.192 62.496C54.2697 62.4305 54.3482 62.3642 54.4278 62.297C54.5073 62.2299 54.5849 62.1644 54.6606 62.1004C54.8652 62.3428 55.0722 62.588 55.2816 62.836C55.4894 63.0821 55.6956 63.3264 55.9002 63.5687C55.8244 63.6326 55.7468 63.6982 55.6673 63.7653C55.5878 63.8324 55.5092 63.8988 55.4316 63.9643ZM55.5267 62.6242C55.4053 62.4803 55.3283 62.3296 55.2959 62.1721C55.2619 62.0128 55.269 61.856 55.3172 61.7018C55.3653 61.5477 55.4529 61.4056 55.58 61.2757C55.7054 61.1438 55.8667 61.0352 56.0638 60.9499C56.1245 61.0219 56.186 61.0948 56.2484 61.1686C56.3107 61.2424 56.3723 61.3153 56.433 61.3873C56.2784 61.427 56.1526 61.4911 56.0554 61.5796C55.9583 61.6681 55.9023 61.7688 55.8875 61.8819C55.871 61.993 55.9108 62.1054 56.0067 62.219C56.1026 62.3326 56.2075 62.3916 56.3214 62.3959C56.4337 62.3984 56.5417 62.3591 56.6452 62.2782C56.7472 62.1954 56.8315 62.0821 56.8981 61.9382C56.9589 62.0102 57.0204 62.0831 57.0827 62.1569C57.1451 62.2307 57.2066 62.3036 57.2674 62.3756C57.1502 62.5556 57.0161 62.6964 56.8651 62.7979C56.7157 62.9013 56.5609 62.9639 56.4009 62.9855C56.2408 63.0071 56.0858 62.9888 55.936 62.9304C55.7846 62.8702 55.6482 62.7681 55.5267 62.6242ZM59.154 60.8218C59.1412 60.8066 59.1292 60.7924 59.118 60.7792C59.1052 60.764 59.0932 60.7498 59.082 60.7366C59.0683 60.8163 59.0399 60.8922 58.9969 60.9641C58.9574 61.0364 58.9035 61.1013 58.8354 61.1588C58.7388 61.2404 58.6319 61.2982 58.5148 61.3322C58.3976 61.3663 58.2771 61.3772 58.1533 61.365C58.0298 61.3493 57.9092 61.3101 57.7914 61.2474C57.6755 61.1831 57.5696 61.0941 57.4737 60.9805C57.3762 60.865 57.3054 60.7448 57.2615 60.6197C57.2194 60.4931 57.2018 60.3685 57.2087 60.246C57.2174 60.1219 57.2492 60.0059 57.304 59.898C57.3572 59.7882 57.4312 59.6934 57.5258 59.6135C57.594 59.5559 57.668 59.5129 57.7477 59.4845C57.8259 59.4542 57.9046 59.438 57.9839 59.4359C57.888 59.3223 57.7913 59.2077 57.6938 59.0922C57.5963 58.9767 57.4996 58.8622 57.4037 58.7486C57.4814 58.6831 57.5599 58.6167 57.6394 58.5496C57.719 58.4825 57.7966 58.4169 57.8723 58.353C58.1616 58.6957 58.4533 59.0412 58.7474 59.3896C59.0415 59.738 59.3332 60.0835 59.6226 60.4262C59.5468 60.4901 59.4692 60.5557 59.3897 60.6228C59.3102 60.6899 59.2316 60.7563 59.154 60.8218ZM58.5478 60.6915C58.6387 60.6147 58.6836 60.5201 58.6826 60.4074C58.6815 60.2948 58.6355 60.1846 58.5443 60.0766C58.4532 59.9687 58.3531 59.9058 58.2438 59.8877C58.133 59.8678 58.0321 59.8962 57.9412 59.9729C57.8484 60.0513 57.8018 60.1458 57.8012 60.2565C57.8025 60.3656 57.8496 60.4751 57.9423 60.5849C58.035 60.6947 58.1358 60.7604 58.2448 60.7819C58.354 60.7999 58.455 60.7698 58.5478 60.6915ZM59.9492 60.1505C59.7446 59.9081 59.5384 59.6639 59.3306 59.4177C59.1212 59.1697 58.9142 58.9245 58.7096 58.6822C58.7872 58.6167 58.8658 58.5503 58.9453 58.4832C59.0248 58.4161 59.1025 58.3505 59.1782 58.2866C59.1894 58.2998 59.2006 58.3131 59.2118 58.3264C59.223 58.3396 59.2341 58.3529 59.2453 58.3661C59.2689 58.2749 59.3088 58.1877 59.365 58.1046C59.4213 58.0214 59.4969 57.9478 59.592 57.8837C59.656 57.9595 59.7207 58.0361 59.7862 58.1138C59.8518 58.1914 59.9165 58.2681 59.9804 58.3438C59.8133 58.4493 59.7137 58.556 59.6817 58.6641C59.6481 58.7703 59.6753 58.8754 59.7632 58.9795C59.8703 59.1064 59.979 59.2351 60.0893 59.3658C60.1996 59.4964 60.3091 59.6261 60.4178 59.7549C60.342 59.8188 60.2644 59.8843 60.1849 59.9515C60.1054 60.0186 60.0268 60.0849 59.9492 60.1505ZM61.2018 56.5782C61.4064 56.8206 61.6134 57.0658 61.8228 57.3138C62.0305 57.5599 62.2367 57.8042 62.4413 58.0465C62.3656 58.1104 62.288 58.176 62.2084 58.2431C62.1289 58.3102 62.0504 58.3766 61.9727 58.4421C61.9615 58.4289 61.9512 58.4166 61.9416 58.4052C61.932 58.3938 61.9216 58.3815 61.9104 58.3683C61.8896 58.4474 61.8551 58.5236 61.8067 58.5969C61.7618 58.6705 61.7024 58.7384 61.6286 58.8008C61.5207 58.8919 61.4043 58.948 61.2794 58.9691C61.1564 58.9886 61.0321 58.9719 60.9065 58.9191C60.7827 58.8647 60.6673 58.7741 60.5602 58.6472C60.4355 58.4995 60.31 58.3509 60.1838 58.2013C60.0575 58.0518 59.932 57.9031 59.8073 57.7555C59.885 57.6899 59.9635 57.6236 60.0431 57.5565C60.1226 57.4893 60.2002 57.4238 60.2759 57.3599C60.391 57.4962 60.5077 57.6344 60.626 57.7745C60.7443 57.9146 60.861 58.0528 60.976 58.1891C61.04 58.2649 61.109 58.312 61.183 58.3306C61.2573 58.3456 61.3324 58.3212 61.4081 58.2573C61.4838 58.1933 61.5241 58.122 61.529 58.0433C61.5339 57.9646 61.502 57.8845 61.4333 57.8031C61.3182 57.6668 61.2015 57.5286 61.0832 57.3885C60.9649 57.2484 60.8483 57.1102 60.7332 56.9738C60.8108 56.9083 60.8894 56.842 60.9689 56.7748C61.0484 56.7077 61.126 56.6422 61.2018 56.5782ZM62.7531 57.7833C62.5485 57.541 62.3423 57.2967 62.1345 57.0506C61.9251 56.8026 61.7181 56.5574 61.5135 56.315C61.5912 56.2495 61.6697 56.1832 61.7493 56.1161C61.8288 56.0489 61.9064 55.9834 61.9821 55.9194C61.9933 55.9327 62.0037 55.945 62.0133 55.9564C62.0229 55.9677 62.0333 55.98 62.0445 55.9933C62.0633 55.9158 62.0951 55.842 62.1397 55.7719C62.1827 55.6999 62.2364 55.6367 62.3007 55.5824C62.3708 55.5232 62.4455 55.4812 62.525 55.4563C62.6029 55.4294 62.6818 55.4212 62.7618 55.4314C62.7857 55.3367 62.8251 55.2451 62.88 55.1566C62.9369 55.0664 63.006 54.987 63.0874 54.9183C63.2029 54.8208 63.3223 54.7605 63.4455 54.7375C63.5707 54.7129 63.6928 54.725 63.8117 54.7737C63.9326 54.8209 64.045 54.906 64.1489 55.029C64.2767 55.1805 64.4062 55.3338 64.5373 55.4891C64.6683 55.6443 64.7978 55.7977 64.9257 55.9492C64.8499 56.0131 64.7723 56.0786 64.6928 56.1458C64.6133 56.2129 64.5347 56.2792 64.4571 56.3448C64.3372 56.2028 64.2157 56.0589 64.0926 55.9131C63.9696 55.7673 63.8481 55.6234 63.7282 55.4814C63.6739 55.417 63.6148 55.3778 63.5509 55.3636C63.4873 55.3459 63.4234 55.3642 63.359 55.4186C63.2965 55.4713 63.2641 55.5328 63.2617 55.6029C63.2596 55.6695 63.2873 55.7369 63.3448 55.8051C63.4647 55.9471 63.5862 56.091 63.7092 56.2368C63.8323 56.3826 63.9538 56.5264 64.0737 56.6684C63.9979 56.7324 63.9203 56.7979 63.8408 56.865C63.7613 56.9322 63.6827 56.9985 63.6051 57.064C63.4852 56.922 63.3637 56.7782 63.2406 56.6324C63.1176 56.4866 62.9961 56.3427 62.8762 56.2007C62.8219 56.1363 62.7628 56.097 62.6989 56.0829C62.6353 56.0652 62.5714 56.0835 62.507 56.1379C62.4445 56.1906 62.4121 56.252 62.4097 56.3222C62.4076 56.3888 62.4353 56.4562 62.4928 56.5244C62.6127 56.6664 62.7342 56.8103 62.8572 56.956C62.9803 57.1018 63.1018 57.2457 63.2217 57.3877C63.1459 57.4517 63.0683 57.5172 62.9888 57.5843C62.9093 57.6515 62.8307 57.7178 62.7531 57.7833ZM65.9541 54.3027C66.0532 54.4201 66.1015 54.5446 66.0992 54.6763C66.0972 54.8045 66.0556 54.932 65.9746 55.0588C65.8936 55.1856 65.7825 55.3037 65.6414 55.4131C65.5037 55.5228 65.3481 55.6169 65.1744 55.6954C65.1137 55.6234 65.0513 55.5496 64.9874 55.4739C64.9235 55.3981 64.8611 55.3243 64.8004 55.2524C64.9103 55.2212 65.0138 55.1825 65.1109 55.1362C65.2064 55.088 65.2879 55.0386 65.3555 54.988C65.4231 54.9375 65.4711 54.8888 65.4997 54.842C65.5267 54.7932 65.5258 54.7518 65.497 54.7178C65.4746 54.6913 65.44 54.6848 65.3931 54.6984C65.3482 54.7105 65.2944 54.7332 65.2318 54.7666C65.1676 54.7981 65.098 54.8309 65.023 54.865C64.9483 54.8956 64.8709 54.9172 64.7907 54.9298C64.7089 54.9404 64.6278 54.9327 64.5474 54.9066C64.4673 54.877 64.3896 54.8176 64.3145 54.7287C64.225 54.6226 64.1794 54.5071 64.1776 54.3821C64.1762 54.2537 64.2115 54.1265 64.2837 54.0008C64.3542 53.8731 64.4539 53.7549 64.5826 53.6462C64.7114 53.5375 64.8614 53.4482 65.0326 53.3783C65.0933 53.4502 65.1556 53.5241 65.2196 53.5998C65.2835 53.6755 65.3458 53.7494 65.4066 53.8213C65.2574 53.8597 65.1292 53.9095 65.0221 53.9708C64.9149 54.0321 64.8385 54.0933 64.7929 54.1545C64.7457 54.2138 64.7389 54.2634 64.7724 54.3031C64.7948 54.3297 64.8285 54.3369 64.8735 54.3249C64.9187 54.3093 64.9717 54.2857 65.0324 54.2539C65.095 54.2205 65.1637 54.1885 65.2384 54.1579C65.3149 54.1257 65.3932 54.105 65.473 54.0959C65.5532 54.0834 65.6342 54.0928 65.7159 54.1244C65.798 54.1524 65.8773 54.2118 65.9541 54.3027Z" fill="#2F4ECD"/>
</svg>
