<svg width="105" height="92" viewBox="0 0 105 92" fill="none" xmlns="http://www.w3.org/2000/svg">
<rect x="7.20752" y="40.0657" width="6.01644" height="9.49469" transform="rotate(-35.996 7.20752 40.0657)" fill="#DCA645"/>
<rect x="19.833" y="16.6155" width="6.01644" height="9.49469" transform="rotate(-35.996 19.833 16.6155)" fill="#DCA645"/>
<rect x="6.0542" y="52.1976" width="55.182" height="65.8048" rx="6.67449" transform="rotate(-61.6139 6.0542 52.1976)" fill="#F4E3D5"/>
<rect x="7.2002" y="39.9945" width="6.01644" height="9.49469" transform="rotate(-61.6139 7.2002 39.9945)" fill="#FECC73"/>
<mask id="mask0_139_478" style="mask-type:alpha" maskUnits="userSpaceOnUse" x="52" y="23" width="50" height="65">
<rect x="52.6997" y="77.4046" width="61.4805" height="22.1856" transform="rotate(-61.6139 52.6997 77.4046)" fill="#6CBDAA"/>
</mask>
<g mask="url(#mask0_139_478)">
<path d="M11.9267 55.3707C8.68366 53.6182 7.47534 49.5686 9.22781 46.3256L29.1157 9.52238C30.8682 6.27938 34.9178 5.07106 38.1608 6.82353L84.3096 31.7616C87.5526 33.5141 88.7609 37.5637 87.0084 40.8067L67.1205 77.6099C65.3681 80.8529 61.3184 82.0612 58.0754 80.3088L11.9267 55.3707Z" fill="#FECC73"/>
</g>
<rect x="19.8481" y="16.5892" width="6.01644" height="9.49469" transform="rotate(-61.6139 19.8481 16.5892)" fill="#FECC73"/>
<path d="M39.9184 19.3081C38.4559 19.4135 36.0835 21.1821 37.7905 20.8771C39.1091 20.6415 39.6269 19.9327 39.9184 19.3081Z" stroke="#404040" stroke-width="0.376027"/>
<path d="M40.9297 18.7092C42.0226 19.6833 42.8156 22.528 41.6515 21.247C40.7524 20.2575 40.7772 19.3811 40.9297 18.7092Z" stroke="#404040" stroke-width="0.376027"/>
<path d="M21.8169 53.8773L40.2076 19.8446" stroke="#404040" stroke-width="0.376027"/>
<ellipse cx="39.4028" cy="17.5409" rx="0.587686" ry="1.10928" transform="rotate(-61.6139 39.4028 17.5409)" fill="#FEFFA7"/>
<ellipse cx="0.585762" cy="1.11295" rx="0.585762" ry="1.11295" transform="matrix(0.957308 -0.289071 0.282767 0.959189 39.5879 15.847)" fill="#FEFFA7"/>
<ellipse cx="0.58401" cy="1.11627" rx="0.58401" ry="1.11627" transform="matrix(0.961546 0.274644 -0.27729 0.960786 40.2061 18.6351)" fill="#FEFFA7"/>
<ellipse cx="0.584692" cy="1.11498" rx="0.584692" ry="1.11498" transform="matrix(0.549141 0.83573 -0.832712 0.553707 39.9849 17.9271)" fill="#FEFFA7"/>
<ellipse cx="0.587207" cy="1.1102" rx="0.587207" ry="1.1102" transform="matrix(-0.754074 0.65679 -0.653505 -0.756922 43.0562 20.0071)" fill="#FEFFA7"/>
<ellipse cx="0.585762" cy="1.11295" rx="0.585762" ry="1.11295" transform="matrix(0.282767 0.959189 -0.957308 0.289071 43.3354 17.1624)" fill="#FEFFA7"/>
<ellipse cx="41.7538" cy="16.8735" rx="0.583832" ry="1.1166" transform="rotate(28.3861 41.7538 16.8735)" fill="#FEFFA7"/>
<ellipse cx="40.7978" cy="18.2605" rx="0.993588" ry="0.987072" transform="rotate(-61.6139 40.7978 18.2605)" fill="#FFB1B1"/>
<path d="M46.3686 22.7925C44.9061 22.8979 42.5337 24.6664 44.2407 24.3615C45.5593 24.1259 46.0771 23.4171 46.3686 22.7925Z" stroke="#404040" stroke-width="0.376027"/>
<path d="M47.3794 22.1936C48.4723 23.1677 49.2653 26.0124 48.1012 24.7314C47.2021 23.7419 47.2269 22.8655 47.3794 22.1936Z" stroke="#404040" stroke-width="0.376027"/>
<path d="M28.2676 57.3616L46.6583 23.329" stroke="#404040" stroke-width="0.376027"/>
<ellipse cx="45.853" cy="21.0253" rx="0.587686" ry="1.10928" transform="rotate(-61.6139 45.853 21.0253)" fill="#FEFFA7"/>
<ellipse cx="0.585762" cy="1.11295" rx="0.585762" ry="1.11295" transform="matrix(0.957308 -0.289071 0.282767 0.959189 46.0381 19.3304)" fill="#FEFFA7"/>
<ellipse cx="0.58401" cy="1.11627" rx="0.58401" ry="1.11627" transform="matrix(0.961546 0.274644 -0.27729 0.960786 46.6558 22.1195)" fill="#FEFFA7"/>
<ellipse cx="0.584692" cy="1.11498" rx="0.584692" ry="1.11498" transform="matrix(0.549141 0.83573 -0.832712 0.553707 46.4351 21.4105)" fill="#FEFFA7"/>
<ellipse cx="0.587207" cy="1.1102" rx="0.587207" ry="1.1102" transform="matrix(-0.754074 0.65679 -0.653505 -0.756922 49.5068 23.4915)" fill="#FEFFA7"/>
<ellipse cx="0.585762" cy="1.11295" rx="0.585762" ry="1.11295" transform="matrix(0.282767 0.959189 -0.957308 0.289071 49.7856 20.6468)" fill="#FEFFA7"/>
<ellipse cx="48.2035" cy="20.3579" rx="0.583832" ry="1.1166" transform="rotate(28.3861 48.2035 20.3579)" fill="#FEFFA7"/>
<ellipse cx="47.2485" cy="21.7458" rx="0.993588" ry="0.987072" transform="rotate(-61.6139 47.2485 21.7458)" fill="#FFB1B1"/>
<path d="M52.9027 26.3237C51.4403 26.4291 49.0678 28.1977 50.7749 27.8927C52.0935 27.6572 52.6113 26.9484 52.9027 26.3237Z" stroke="#404040" stroke-width="0.376027"/>
<path d="M53.9131 25.7258C55.006 26.6999 55.799 29.5446 54.6349 28.2636C53.7358 27.2741 53.7606 26.3977 53.9131 25.7258Z" stroke="#404040" stroke-width="0.376027"/>
<path d="M34.8022 60.8948L53.193 26.8622" stroke="#404040" stroke-width="0.376027"/>
<ellipse cx="52.3871" cy="24.5565" rx="0.587686" ry="1.10928" transform="rotate(-61.6139 52.3871 24.5565)" fill="#FEFFA7"/>
<ellipse cx="0.585762" cy="1.11295" rx="0.585762" ry="1.11295" transform="matrix(0.957308 -0.289071 0.282767 0.959189 52.5723 22.8616)" fill="#FEFFA7"/>
<ellipse cx="0.58401" cy="1.11627" rx="0.58401" ry="1.11627" transform="matrix(0.961546 0.274644 -0.27729 0.960786 53.189 25.6497)" fill="#FEFFA7"/>
<ellipse cx="0.584692" cy="1.11498" rx="0.584692" ry="1.11498" transform="matrix(0.549141 0.83573 -0.832712 0.553707 52.9702 24.9427)" fill="#FEFFA7"/>
<ellipse cx="0.587207" cy="1.1102" rx="0.587207" ry="1.1102" transform="matrix(-0.754074 0.65679 -0.653505 -0.756922 56.0405 27.0218)" fill="#FEFFA7"/>
<ellipse cx="0.585762" cy="1.11295" rx="0.585762" ry="1.11295" transform="matrix(0.282767 0.959189 -0.957308 0.289071 56.3193 24.1771)" fill="#FEFFA7"/>
<ellipse cx="54.7377" cy="23.8901" rx="0.583832" ry="1.1166" transform="rotate(28.3861 54.7377 23.8901)" fill="#FEFFA7"/>
<ellipse cx="53.7817" cy="25.2761" rx="0.993588" ry="0.987072" transform="rotate(-61.6139 53.7817 25.2761)" fill="#FFB1B1"/>
<path d="M59.4355 29.853C57.973 29.9584 55.6006 31.727 57.3076 31.422C58.6262 31.1865 59.144 30.4777 59.4355 29.853Z" stroke="#404040" stroke-width="0.376027"/>
<path d="M60.4458 29.2541C61.5387 30.2283 62.3317 33.073 61.1676 31.792C60.2685 30.8024 60.2934 29.926 60.4458 29.2541Z" stroke="#404040" stroke-width="0.376027"/>
<path d="M41.334 64.4232L59.7247 30.3905" stroke="#404040" stroke-width="0.376027"/>
<ellipse cx="58.9189" cy="28.0868" rx="0.587686" ry="1.10928" transform="rotate(-61.6139 58.9189 28.0868)" fill="#FEFFA7"/>
<ellipse cx="0.585762" cy="1.11295" rx="0.585762" ry="1.11295" transform="matrix(0.957308 -0.289071 0.282767 0.959189 59.105 26.3919)" fill="#FEFFA7"/>
<ellipse cx="0.58401" cy="1.11627" rx="0.58401" ry="1.11627" transform="matrix(0.961546 0.274644 -0.27729 0.960786 59.7207 29.179)" fill="#FEFFA7"/>
<ellipse cx="0.584692" cy="1.11498" rx="0.584692" ry="1.11498" transform="matrix(0.549141 0.83573 -0.832712 0.553707 59.502 28.472)" fill="#FEFFA7"/>
<ellipse cx="0.587207" cy="1.1102" rx="0.587207" ry="1.1102" transform="matrix(-0.754074 0.65679 -0.653505 -0.756922 62.5728 30.5521)" fill="#FEFFA7"/>
<ellipse cx="0.585762" cy="1.11295" rx="0.585762" ry="1.11295" transform="matrix(0.282767 0.959189 -0.957308 0.289071 62.8516 27.7064)" fill="#FEFFA7"/>
<ellipse cx="61.2699" cy="27.4194" rx="0.583832" ry="1.1166" transform="rotate(28.3861 61.2699 27.4194)" fill="#FEFFA7"/>
<ellipse cx="60.3139" cy="28.8064" rx="0.993588" ry="0.987072" transform="rotate(-61.6139 60.3139 28.8064)" fill="#FFB1B1"/>
<path d="M65.9706 33.3862C64.5081 33.4916 62.1357 35.2602 63.8427 34.9552C65.1613 34.7197 65.6792 34.0109 65.9706 33.3862Z" stroke="#404040" stroke-width="0.376027"/>
<path d="M66.9814 32.7873C68.0743 33.7615 68.8673 36.6062 67.7033 35.3252C66.8041 34.3356 66.829 33.4592 66.9814 32.7873Z" stroke="#404040" stroke-width="0.376027"/>
<path d="M47.8696 67.9564L66.2603 33.9237" stroke="#404040" stroke-width="0.376027"/>
<ellipse cx="65.4545" cy="31.619" rx="0.587686" ry="1.10928" transform="rotate(-61.6139 65.4545 31.619)" fill="#FEFFA7"/>
<ellipse cx="0.585762" cy="1.11295" rx="0.585762" ry="1.11295" transform="matrix(0.957308 -0.289071 0.282767 0.959189 65.6396 29.9241)" fill="#FEFFA7"/>
<ellipse cx="0.58401" cy="1.11627" rx="0.58401" ry="1.11627" transform="matrix(0.961546 0.274644 -0.27729 0.960786 66.2568 32.7132)" fill="#FEFFA7"/>
<ellipse cx="0.584692" cy="1.11498" rx="0.584692" ry="1.11498" transform="matrix(0.549141 0.83573 -0.832712 0.553707 66.0371 32.0052)" fill="#FEFFA7"/>
<ellipse cx="0.587207" cy="1.1102" rx="0.587207" ry="1.1102" transform="matrix(-0.754074 0.65679 -0.653505 -0.756922 69.1079 34.0843)" fill="#FEFFA7"/>
<ellipse cx="0.585762" cy="1.11295" rx="0.585762" ry="1.11295" transform="matrix(0.282767 0.959189 -0.957308 0.289071 69.3877 31.2405)" fill="#FEFFA7"/>
<ellipse cx="67.8046" cy="30.9516" rx="0.583832" ry="1.1166" transform="rotate(28.3861 67.8046 30.9516)" fill="#FEFFA7"/>
<ellipse cx="66.8486" cy="32.3386" rx="0.993588" ry="0.987072" transform="rotate(-61.6139 66.8486 32.3386)" fill="#FFB1B1"/>
<path d="M20.4978 52.9884C20.1316 52.7905 19.761 52.5903 19.3861 52.3877C19.0111 52.185 18.6405 51.9848 18.2743 51.7869C18.3933 51.5667 18.5134 51.3444 18.6348 51.1198C18.7561 50.8953 18.8763 50.673 18.9952 50.4528C19.0781 50.4976 19.1631 50.5435 19.2503 50.5906C19.3375 50.6377 19.4225 50.6837 19.5053 50.7284C19.437 50.8549 19.3681 50.9824 19.2986 51.111C19.2303 51.2374 19.162 51.3639 19.0936 51.4903C19.1481 51.5198 19.2026 51.5492 19.2571 51.5787C19.3094 51.6069 19.3628 51.6358 19.4173 51.6652C19.4798 51.5497 19.5428 51.4331 19.6064 51.3154C19.67 51.1977 19.7324 51.0821 19.7937 50.9688C19.8744 51.0124 19.9561 51.0565 20.0389 51.1013C20.1218 51.1461 20.2046 51.1908 20.2874 51.2356C20.2262 51.3489 20.1638 51.4645 20.1001 51.5822C20.0365 51.6999 19.9735 51.8165 19.9111 51.9321C19.9743 51.9662 20.0386 52.001 20.104 52.0363C20.1694 52.0716 20.2337 52.1064 20.2969 52.1406C20.3652 52.0141 20.4336 51.8877 20.5019 51.7613C20.5714 51.6326 20.6403 51.5051 20.7086 51.3787C20.7915 51.4234 20.8765 51.4694 20.9637 51.5165C21.0509 51.5636 21.1359 51.6096 21.2187 51.6543C21.0997 51.8745 20.9796 52.0968 20.8583 52.3214C20.7369 52.5459 20.6168 52.7683 20.4978 52.9884ZM19.6489 50.5174C19.7031 50.4171 19.7573 50.3169 19.8115 50.2166C19.8657 50.1163 19.9199 50.016 19.9741 49.9158C20.0607 49.9119 20.1489 49.9075 20.2389 49.9026C20.3267 49.8965 20.4139 49.8915 20.5005 49.8876C20.4574 49.8108 20.4144 49.7341 20.3714 49.6573C20.3262 49.5794 20.2821 49.5021 20.2391 49.4253C20.2921 49.3272 20.3457 49.228 20.3999 49.1277C20.4541 49.0275 20.5077 48.9283 20.5607 48.8302C20.6477 48.9871 20.7347 49.1467 20.8215 49.3091C20.9096 49.4693 20.9982 49.6285 21.0874 49.7865C21.2817 49.7761 21.4778 49.7651 21.6755 49.7537C21.8732 49.7422 22.0686 49.7324 22.2618 49.7241C22.2076 49.8244 22.1534 49.9246 22.0992 50.0249C22.045 50.1252 21.9909 50.2255 21.9367 50.3257C21.839 50.3293 21.7407 50.3339 21.6419 50.3396C21.542 50.342 21.4433 50.345 21.3456 50.3485C21.3961 50.4322 21.4466 50.5186 21.497 50.6078C21.5464 50.6936 21.5963 50.7783 21.6469 50.862C21.5939 50.9601 21.5403 51.0593 21.4861 51.1595C21.4319 51.2598 21.3783 51.359 21.3253 51.4571C21.2319 51.2912 21.1369 51.1229 21.0403 50.9525C20.9416 50.7808 20.8455 50.612 20.7521 50.4461C20.571 50.458 20.3872 50.4699 20.2005 50.4817C20.0139 50.4935 19.83 50.5054 19.6489 50.5174ZM23.1826 49.271C23.1355 49.3582 23.0872 49.4475 23.0377 49.5391C22.9882 49.6306 22.9393 49.7211 22.891 49.8105C22.527 49.6138 22.1586 49.4147 21.7858 49.2133C21.4109 49.0106 21.0414 48.811 20.6774 48.6143C20.7257 48.5249 20.7746 48.4344 20.824 48.3429C20.8735 48.2513 20.9218 48.1619 20.9689 48.0747C20.9842 48.083 20.9994 48.0912 21.0147 48.0995C21.03 48.1077 21.0463 48.1165 21.0638 48.126C21.0496 48.0479 21.0494 47.9675 21.0631 47.8848C21.0746 47.8009 21.1016 47.7197 21.144 47.6413C21.2029 47.5323 21.2807 47.4405 21.3773 47.366C21.4717 47.2903 21.5782 47.2365 21.6967 47.2048C21.8164 47.171 21.942 47.1627 22.0733 47.1802C22.2059 47.1955 22.3386 47.2391 22.4716 47.311C22.6024 47.3816 22.7105 47.4682 22.796 47.5707C22.8826 47.671 22.9456 47.7811 22.985 47.901C23.0234 48.0175 23.0379 48.1366 23.0285 48.2583C23.0191 48.3799 22.9844 48.4964 22.9243 48.6075C22.8819 48.686 22.8288 48.7531 22.7649 48.8087C22.7044 48.8633 22.6366 48.9055 22.5613 48.9352C22.6638 48.9906 22.7673 49.0466 22.872 49.1031C22.9766 49.1596 23.0801 49.2156 23.1826 49.271ZM22.408 48.4215C22.4658 48.3147 22.4741 48.2107 22.4329 48.1096C22.3908 48.0052 22.3065 47.9188 22.1801 47.8505C22.0536 47.7822 21.9363 47.7596 21.828 47.7827C21.7209 47.8037 21.6385 47.8676 21.5808 47.9744C21.5242 48.0791 21.517 48.1836 21.5592 48.2881C21.5991 48.3913 21.6812 48.4765 21.8055 48.5437C21.9297 48.6108 22.0471 48.6334 22.1575 48.6114C22.268 48.5894 22.3515 48.5261 22.408 48.4215ZM23.4724 47.4837C23.0779 47.2705 22.68 47.0556 22.2789 46.8388C21.8779 46.6221 21.48 46.4071 21.0855 46.1939C21.1338 46.1045 21.1826 46.014 21.2321 45.9225C21.2816 45.8309 21.3299 45.7415 21.377 45.6543C21.7716 45.8676 22.1694 46.0825 22.5705 46.2993C22.9716 46.516 23.3694 46.731 23.764 46.9442C23.7169 47.0314 23.6686 47.1208 23.6191 47.2124C23.5696 47.3039 23.5207 47.3944 23.4724 47.4837ZM24.4527 45.7949C24.3844 45.9213 24.299 46.0272 24.1965 46.1127C24.0918 46.1969 23.9773 46.2576 23.8531 46.2946C23.7267 46.3305 23.5966 46.3419 23.4629 46.3288C23.3303 46.3135 23.1997 46.2711 23.0711 46.2016C22.9425 46.1321 22.8355 46.0461 22.75 45.9436C22.6658 45.8389 22.6051 45.7245 22.568 45.6002C22.531 45.476 22.5201 45.3476 22.5354 45.215C22.5485 45.0813 22.5892 44.9512 22.6576 44.8248C22.7271 44.6962 22.8136 44.5908 22.917 44.5088C23.0195 44.4233 23.1329 44.3621 23.2572 44.325C23.3814 44.2879 23.5098 44.277 23.6423 44.2923C23.7761 44.3055 23.9072 44.3468 24.0359 44.4163C24.1645 44.4858 24.2709 44.5729 24.3552 44.6775C24.4406 44.78 24.5029 44.894 24.5422 45.0194C24.5793 45.1437 24.5912 45.2726 24.5781 45.4064C24.564 45.5367 24.5222 45.6662 24.4527 45.7949ZM23.9655 45.5316C24.0232 45.4248 24.031 45.3191 23.9889 45.2147C23.9457 45.1069 23.8642 45.0206 23.7443 44.9558C23.6222 44.8898 23.5065 44.8695 23.397 44.8949C23.2866 44.9169 23.2025 44.9813 23.1448 45.0881C23.087 45.1949 23.0787 45.3016 23.1196 45.4082C23.1596 45.5115 23.2406 45.5961 23.3627 45.6621C23.4825 45.7269 23.5988 45.7489 23.7114 45.728C23.8231 45.7039 23.9078 45.6384 23.9655 45.5316ZM25.0269 44.6071C24.7479 44.4563 24.4667 44.3043 24.1833 44.1512C23.8978 43.9969 23.6155 43.8443 23.3364 43.6936C23.3847 43.6042 23.4336 43.5137 23.4831 43.4222C23.5326 43.3306 23.5809 43.2412 23.628 43.154C23.6433 43.1623 23.6585 43.1705 23.6738 43.1788C23.689 43.187 23.7043 43.1953 23.7196 43.2035C23.7081 43.11 23.7134 43.0143 23.7353 42.9163C23.7573 42.8183 23.8008 42.7222 23.8659 42.6278C23.9531 42.6749 24.0414 42.7226 24.1308 42.7709C24.2201 42.8192 24.3084 42.8669 24.3956 42.914C24.2786 43.0733 24.2249 43.209 24.2347 43.3213C24.2422 43.4324 24.3059 43.5204 24.4258 43.5852C24.5719 43.6641 24.7201 43.7442 24.8705 43.8255C25.0209 43.9068 25.1703 43.9874 25.3185 44.0676C25.2714 44.1547 25.2231 44.2441 25.1736 44.3357C25.1241 44.4272 25.0752 44.5177 25.0269 44.6071ZM26.325 42.2049C26.3076 42.1955 26.2913 42.1866 26.276 42.1784C26.2586 42.169 26.2422 42.1601 26.2269 42.1519C26.2433 42.2311 26.2446 42.3121 26.2309 42.3948C26.2205 42.4765 26.1941 42.5566 26.1517 42.6351C26.0916 42.7463 26.0144 42.8397 25.92 42.9154C25.8234 42.99 25.7152 43.0442 25.5955 43.0781C25.4748 43.1086 25.3482 43.1162 25.2156 43.1009C25.0842 43.0834 24.9521 43.0388 24.8191 42.9669C24.6839 42.8939 24.573 42.8072 24.4864 42.7069C24.401 42.6044 24.3402 42.4955 24.3039 42.3801C24.2667 42.2614 24.2538 42.1418 24.2654 42.0213C24.2748 41.8997 24.309 41.7844 24.3679 41.6754C24.4103 41.5969 24.4634 41.5298 24.5273 41.4742C24.589 41.4174 24.6563 41.3736 24.7294 41.3426C24.7119 41.3332 24.6956 41.3244 24.6803 41.3161C24.6651 41.3079 24.6498 41.2996 24.6345 41.2914C24.6828 41.202 24.7317 41.1115 24.7812 41.02C24.8307 40.9284 24.879 40.8391 24.9261 40.7519C25.2051 40.9026 25.4874 41.0552 25.773 41.2095C26.0564 41.3626 26.3376 41.5146 26.6166 41.6654C26.5695 41.7526 26.5212 41.842 26.4717 41.9335C26.4222 42.0251 26.3733 42.1155 26.325 42.2049ZM25.7132 42.3052C25.7697 42.2005 25.7769 42.096 25.7348 41.9916C25.6927 41.8871 25.6095 41.8013 25.4852 41.7342C25.361 41.667 25.2447 41.645 25.1364 41.6682C25.026 41.6902 24.9425 41.7535 24.8859 41.8581C24.8282 41.965 24.8193 42.07 24.8593 42.1733C24.9004 42.2744 24.9842 42.3591 25.1106 42.4274C25.2371 42.4957 25.3549 42.52 25.4642 42.5002C25.5725 42.477 25.6555 42.412 25.7132 42.3052ZM26.9066 41.1287C26.706 41.0204 26.5044 40.9114 26.3017 40.8019C26.0989 40.6923 25.8984 40.5839 25.7 40.4767C25.6765 40.5203 25.6523 40.565 25.6276 40.6108C25.604 40.6544 25.5805 40.698 25.5569 40.7416C25.4762 40.698 25.3956 40.6544 25.3149 40.6108C25.2343 40.5673 25.1536 40.5237 25.073 40.4801C25.0965 40.4365 25.1201 40.3929 25.1436 40.3493C25.1684 40.3035 25.1925 40.2588 25.2161 40.2152C25.1398 40.174 25.0646 40.1334 24.9905 40.0933C24.9142 40.0521 24.839 40.0114 24.7648 39.9714C24.8131 39.882 24.862 39.7915 24.9115 39.7C24.961 39.6084 25.0093 39.5191 25.0564 39.4319C25.1305 39.4719 25.2057 39.5126 25.282 39.5538C25.3561 39.5938 25.4313 39.6345 25.5076 39.6757C25.5347 39.6256 25.5624 39.5743 25.5907 39.522C25.6189 39.4697 25.6466 39.4185 25.6737 39.3683C25.7544 39.4119 25.835 39.4555 25.9157 39.4991C25.9963 39.5427 26.077 39.5863 26.1577 39.6299C26.1306 39.68 26.1029 39.7312 26.0746 39.7835C26.0463 39.8359 26.0187 39.8871 25.9916 39.9372C26.1899 40.0444 26.3905 40.1528 26.5932 40.2623C26.7959 40.3719 26.9976 40.4809 27.1981 40.5892C27.151 40.6764 27.1027 40.7658 27.0532 40.8573C27.0038 40.9489 26.9549 41.0394 26.9066 41.1287ZM25.7769 38.7161C25.7427 38.7794 25.6963 38.8289 25.6375 38.8647C25.5799 38.8983 25.5178 38.9169 25.4511 38.9203C25.3845 38.9237 25.3207 38.909 25.2596 38.876C25.1986 38.843 25.1523 38.7983 25.1209 38.7418C25.0872 38.6842 25.0687 38.6221 25.0653 38.5555C25.063 38.4867 25.079 38.4207 25.1131 38.3574C25.1461 38.2964 25.1914 38.2491 25.249 38.2154C25.3078 38.1796 25.3705 38.16 25.4372 38.1565C25.5016 38.1519 25.5643 38.1661 25.6254 38.1991C25.6864 38.2321 25.7338 38.2774 25.7674 38.335C25.8011 38.3926 25.819 38.4558 25.8212 38.5246C25.8247 38.5913 25.8099 38.6551 25.7769 38.7161ZM27.5137 40.0053C27.2346 39.8545 26.9534 39.7026 26.6701 39.5494C26.3845 39.3951 26.1022 39.2426 25.8232 39.0918C25.8715 39.0024 25.9204 38.9119 25.9698 38.8204C26.0193 38.7288 26.0676 38.6395 26.1147 38.5523C26.3937 38.703 26.676 38.8556 26.9616 39.0099C27.245 39.163 27.5262 39.315 27.8052 39.4658C27.7581 39.553 27.7098 39.6424 27.6603 39.7339C27.6109 39.8255 27.562 39.9159 27.5137 40.0053ZM28.4939 38.3164C28.4256 38.4428 28.3402 38.5488 28.2377 38.6342C28.133 38.7185 28.0186 38.7791 27.8943 38.8162C27.7679 38.8521 27.6378 38.8635 27.5041 38.8504C27.3715 38.8351 27.2409 38.7927 27.1123 38.7232C26.9837 38.6537 26.8767 38.5677 26.7913 38.4652C26.707 38.3605 26.6463 38.246 26.6093 38.1218C26.5722 37.9975 26.5613 37.8691 26.5766 37.7366C26.5897 37.6029 26.6305 37.4728 26.6988 37.3463C26.7683 37.2177 26.8548 37.1124 26.9583 37.0303C27.0608 36.9449 27.1741 36.8836 27.2984 36.8466C27.4226 36.8095 27.551 36.7986 27.6836 36.8139C27.8173 36.827 27.9485 36.8683 28.0771 36.9378C28.2057 37.0073 28.3121 37.0944 28.3964 37.1991C28.4818 37.3016 28.5442 37.4156 28.5834 37.541C28.6205 37.6652 28.6325 37.7942 28.6194 37.9279C28.6052 38.0583 28.5634 38.1878 28.4939 38.3164ZM28.0067 38.0531C28.0644 37.9463 28.0722 37.8407 28.0301 37.7362C27.987 37.6284 27.9054 37.5421 27.7855 37.4774C27.6635 37.4114 27.5477 37.3911 27.4383 37.4164C27.3278 37.4384 27.2437 37.5028 27.186 37.6096C27.1283 37.7164 27.1199 37.8232 27.1608 37.9298C27.2008 38.0331 27.2818 38.1177 27.4039 38.1836C27.5238 38.2484 27.64 38.2704 27.7527 38.2496C27.8643 38.2254 27.949 38.1599 28.0067 38.0531ZM29.0682 37.1286C28.7892 36.9778 28.508 36.8259 28.2246 36.6728C27.939 36.5184 27.6567 36.3659 27.3777 36.2151C27.426 36.1257 27.4749 36.0353 27.5243 35.9437C27.5738 35.8522 27.6221 35.7628 27.6692 35.6756C27.6845 35.6838 27.6987 35.6915 27.7117 35.6986C27.7248 35.7056 27.739 35.7133 27.7542 35.7215C27.7446 35.6403 27.7484 35.5578 27.7654 35.4741C27.7815 35.387 27.8125 35.301 27.8585 35.216C27.9256 35.0917 28.0128 34.998 28.1202 34.9349C28.2287 34.8696 28.3505 34.8397 28.4856 34.8451C28.6196 34.8471 28.7608 34.8882 28.909 34.9683C29.0791 35.0602 29.2502 35.1527 29.4224 35.2457C29.5946 35.3388 29.7657 35.4313 29.9358 35.5231C29.8886 35.6103 29.8403 35.6997 29.7909 35.7913C29.7414 35.8828 29.6925 35.9733 29.6442 36.0627C29.4873 35.9779 29.3281 35.8919 29.1668 35.8047C29.0055 35.7175 28.8464 35.6315 28.6894 35.5467C28.6022 35.4996 28.5213 35.4826 28.4466 35.4958C28.3709 35.5055 28.3095 35.554 28.2624 35.6412C28.2152 35.7284 28.2038 35.8095 28.228 35.8846C28.2522 35.9596 28.3112 36.0225 28.4049 36.0732C28.5619 36.158 28.721 36.244 28.8823 36.3311C29.0436 36.4183 29.2028 36.5043 29.3597 36.5891C29.3126 36.6763 29.2643 36.7657 29.2148 36.8572C29.1654 36.9488 29.1165 37.0393 29.0682 37.1286ZM30.6614 32.9295C30.7965 33.0026 30.8871 33.1008 30.933 33.2242C30.978 33.3443 30.9859 33.4781 30.9569 33.6257C30.9278 33.7734 30.8676 33.9239 30.7762 34.0773C30.6882 34.2297 30.5777 34.3742 30.4448 34.5108C30.3619 34.4661 30.2769 34.4201 30.1897 34.373C30.1025 34.3259 30.0175 34.2799 29.9347 34.2352C30.0256 34.166 30.1078 34.0921 30.1812 34.0135C30.2525 33.9337 30.3103 33.858 30.3547 33.7862C30.3992 33.7144 30.4261 33.6516 30.4356 33.5975C30.4429 33.5423 30.4269 33.5041 30.3877 33.4829C30.3571 33.4664 30.3226 33.4731 30.2839 33.5029C30.2465 33.5305 30.2047 33.5713 30.1586 33.6253C30.1104 33.6781 30.0576 33.7341 30.0003 33.7932C29.942 33.849 29.8778 33.8974 29.8078 33.9384C29.7355 33.9783 29.6572 34.0007 29.5728 34.0058C29.4874 34.0075 29.3934 33.9807 29.291 33.9253C29.1689 33.8594 29.0842 33.7685 29.0369 33.6528C28.9886 33.5338 28.975 33.4025 28.9962 33.2591C29.0152 33.1145 29.0648 32.968 29.1449 32.8198C29.225 32.6716 29.3319 32.5336 29.4657 32.4059C29.5485 32.4507 29.6335 32.4966 29.7207 32.5437C29.8079 32.5909 29.8929 32.6368 29.9758 32.6816C29.8509 32.7718 29.7499 32.8651 29.6725 32.9613C29.5952 33.0575 29.5465 33.1424 29.5264 33.2161C29.5041 33.2885 29.5159 33.3371 29.5617 33.3619C29.5922 33.3784 29.6262 33.3728 29.6636 33.3452C29.7001 33.3142 29.7408 33.2728 29.7857 33.221C29.8317 33.167 29.8839 33.1121 29.9422 33.0563C30.0017 32.9984 30.067 32.9505 30.138 32.9129C30.2081 32.8719 30.2869 32.8511 30.3745 32.8506C30.4611 32.8467 30.5567 32.873 30.6614 32.9295ZM31.4206 32.7754C31.2201 32.667 31.0184 32.558 30.8157 32.4485C30.613 32.3389 30.4124 32.2306 30.2141 32.1234C30.1905 32.167 30.1663 32.2116 30.1416 32.2574C30.118 32.301 30.0945 32.3446 30.0709 32.3882C29.9903 32.3446 29.9096 32.301 29.829 32.2575C29.7483 32.2139 29.6676 32.1703 29.587 32.1267C29.6106 32.0831 29.6341 32.0395 29.6577 31.9959C29.6824 31.9501 29.7066 31.9054 29.7301 31.8619C29.6538 31.8206 29.5786 31.78 29.5045 31.7399C29.4282 31.6987 29.353 31.6581 29.2789 31.618C29.3272 31.5286 29.3761 31.4382 29.4255 31.3466C29.475 31.2551 29.5233 31.1657 29.5704 31.0785C29.6445 31.1185 29.7198 31.1592 29.796 31.2004C29.8702 31.2405 29.9454 31.2811 30.0217 31.3223C30.0488 31.2722 30.0764 31.221 30.1047 31.1686C30.133 31.1163 30.1607 31.0651 30.1878 31.015C30.2684 31.0586 30.3491 31.1021 30.4297 31.1457C30.5104 31.1893 30.591 31.2329 30.6717 31.2765C30.6446 31.3266 30.6169 31.3778 30.5886 31.4302C30.5604 31.4825 30.5327 31.5337 30.5056 31.5838C30.704 31.691 30.9045 31.7994 31.1072 31.909C31.31 32.0185 31.5116 32.1275 31.7122 32.2358C31.665 32.323 31.6167 32.4124 31.5673 32.504C31.5178 32.5955 31.4689 32.686 31.4206 32.7754ZM32.6198 30.5562C32.6024 30.5467 32.5861 30.5379 32.5708 30.5297C32.5534 30.5202 32.537 30.5114 32.5217 30.5031C32.5381 30.5824 32.5394 30.6634 32.5257 30.7461C32.5153 30.8278 32.4889 30.9079 32.4465 30.9864C32.3864 31.0975 32.3092 31.191 32.2148 31.2667C32.1182 31.3412 32.01 31.3954 31.8903 31.4293C31.7696 31.4598 31.643 31.4675 31.5104 31.4522C31.379 31.4347 31.2469 31.39 31.1139 31.3182C30.9787 31.2451 30.8678 31.1584 30.7812 31.0581C30.6958 30.9556 30.635 30.8467 30.5987 30.7314C30.5615 30.6127 30.5486 30.4931 30.5602 30.3726C30.5696 30.2509 30.6038 30.1356 30.6627 30.0266C30.7051 29.9482 30.7582 29.8811 30.8221 29.8255C30.8838 29.7687 30.9511 29.7248 31.0242 29.6939C31.0067 29.6845 30.9904 29.6756 30.9751 29.6674C30.9599 29.6591 30.9446 29.6509 30.9293 29.6426C30.9776 29.5533 31.0265 29.4628 31.076 29.3712C31.1255 29.2797 31.1738 29.1903 31.2209 29.1031C31.4999 29.2539 31.7822 29.4064 32.0678 29.5608C32.3512 29.7139 32.6324 29.8659 32.9114 30.0166C32.8643 30.1038 32.816 30.1932 32.7665 30.2848C32.717 30.3763 32.6681 30.4668 32.6198 30.5562ZM32.008 30.6564C32.0645 30.5518 32.0717 30.4473 32.0296 30.3428C31.9875 30.2384 31.9043 30.1526 31.78 30.0854C31.6558 30.0183 31.5395 29.9963 31.4312 30.0195C31.3208 30.0415 31.2373 30.1048 31.1807 30.2094C31.123 30.3162 31.1141 30.4213 31.1541 30.5245C31.1952 30.6256 31.279 30.7103 31.4054 30.7786C31.5319 30.847 31.6497 30.8712 31.759 30.8514C31.8673 30.8282 31.9503 30.7633 32.008 30.6564ZM33.69 27.919C33.8753 28.0191 34.0083 28.1431 34.089 28.2909C34.1708 28.4365 34.2052 28.5945 34.192 28.7648C34.181 28.9363 34.1289 29.1109 34.0356 29.2887C33.9436 29.4642 33.8179 29.6343 33.6585 29.7989C33.5735 29.7529 33.4874 29.7064 33.4002 29.6593C33.3152 29.6133 33.2302 29.5674 33.1452 29.5215C33.3058 29.3858 33.4238 29.2482 33.4992 29.1086C33.5768 28.9703 33.6101 28.8461 33.5992 28.736C33.5873 28.6225 33.5323 28.5393 33.4342 28.4863C33.4233 28.4804 33.4135 28.4751 33.4048 28.4704C33.3939 28.4645 33.3841 28.4592 33.3753 28.4545C33.3873 28.5313 33.3858 28.6122 33.371 28.6971C33.3561 28.782 33.3262 28.8659 33.2815 28.9487C33.2073 29.0861 33.1091 29.1921 32.987 29.267C32.8639 29.3384 32.7291 29.3741 32.5828 29.3739C32.4343 29.3725 32.2837 29.3305 32.1311 29.2481C32.0134 29.1845 31.9161 29.1065 31.8392 29.0143C31.7623 28.922 31.7068 28.8216 31.6725 28.713C31.6383 28.6043 31.6268 28.4953 31.638 28.3859C31.6471 28.2754 31.6781 28.171 31.7311 28.0729C31.7735 27.9944 31.8239 27.9273 31.8822 27.8715C31.9405 27.8157 32.0023 27.7717 32.0677 27.7394C32.0524 27.7311 32.0382 27.7235 32.0252 27.7164C32.0121 27.7093 31.9979 27.7017 31.9827 27.6934C32.031 27.6041 32.0798 27.5136 32.1293 27.422C32.1788 27.3305 32.2271 27.2411 32.2742 27.1539C32.5075 27.28 32.744 27.4078 32.9838 27.5373C33.2214 27.6657 33.4568 27.793 33.69 27.919ZM32.8863 28.562C32.9358 28.4704 32.9469 28.3821 32.9197 28.297C32.8915 28.2085 32.8316 28.1395 32.74 28.09C32.6463 28.0394 32.5547 28.0265 32.4652 28.0514C32.3769 28.074 32.308 28.1312 32.2585 28.2227C32.2067 28.3186 32.1949 28.4108 32.2231 28.4993C32.2492 28.5866 32.3102 28.6562 32.4061 28.708C32.4998 28.7587 32.5903 28.771 32.6776 28.7449C32.7649 28.7189 32.8345 28.6579 32.8863 28.562ZM34.8664 26.2112C34.8483 26.3958 34.8069 26.5663 34.742 26.7228C34.6772 26.8793 34.5925 27.0152 34.4879 27.1305C34.3867 27.2448 34.2703 27.3326 34.1386 27.3938C34.007 27.455 33.8664 27.4832 33.7169 27.4785C33.5685 27.4716 33.417 27.4263 33.2622 27.3426C33.1336 27.2731 33.0271 27.1888 32.9426 27.0897C32.8572 26.9872 32.7953 26.8749 32.7571 26.7528C32.7167 26.6296 32.7035 26.5028 32.7176 26.3724C32.7296 26.2409 32.7697 26.1119 32.838 25.9854C32.8993 25.8721 32.9732 25.7797 33.0597 25.7081C33.1463 25.6366 33.2416 25.5853 33.3457 25.5542C33.4476 25.522 33.5555 25.5099 33.6694 25.518C33.7834 25.526 33.8978 25.5541 34.0127 25.6021C34.1275 25.6501 34.2395 25.719 34.3487 25.809C34.2521 25.9877 34.1549 26.1676 34.0571 26.3485C33.9593 26.5294 33.8622 26.7093 33.7656 26.888C33.8708 26.8914 33.9667 26.8545 34.0535 26.7774C34.1413 26.6982 34.2147 26.5885 34.2735 26.4485C34.3334 26.3063 34.3763 26.1436 34.4021 25.9603C34.4784 26.0016 34.5557 26.0434 34.6342 26.0858C34.7127 26.1282 34.7901 26.17 34.8664 26.2112ZM33.3149 26.26C33.2807 26.3233 33.2664 26.3915 33.2718 26.4649C33.2784 26.536 33.31 26.6052 33.3666 26.6724C33.4197 26.5744 33.4727 26.4763 33.5257 26.3782C33.5799 26.2779 33.6335 26.1787 33.6865 26.0806C33.5982 26.0667 33.5236 26.0771 33.4626 26.1117C33.4007 26.143 33.3514 26.1925 33.3149 26.26Z" fill="#2F4ECD"/>
<path d="M27.1172 56.0798C26.836 55.9278 26.5527 55.7747 26.2671 55.6204C25.9793 55.4649 25.6949 55.3112 25.4137 55.1592C25.3689 55.242 25.3236 55.326 25.2776 55.411C25.2317 55.496 25.1863 55.5799 25.1416 55.6627C25.0565 55.6168 24.9704 55.5703 24.8832 55.5232C24.7939 55.4749 24.7067 55.4277 24.6217 55.3818C24.7618 55.1224 24.9038 54.8597 25.0475 54.5938C25.1912 54.3278 25.3331 54.0651 25.4733 53.8057C25.5583 53.8517 25.6455 53.8988 25.7349 53.9471C25.8221 53.9942 25.9082 54.0407 25.9932 54.0867C25.9496 54.1673 25.9049 54.2502 25.8589 54.3352C25.813 54.4202 25.7676 54.5041 25.7229 54.587C26.0041 54.7389 26.2886 54.8927 26.5763 55.0481C26.8619 55.2025 27.1453 55.3556 27.4265 55.5076C27.3758 55.6013 27.3246 55.6961 27.2727 55.792C27.2209 55.8879 27.1691 55.9839 27.1172 56.0798ZM27.8386 54.745C27.444 54.5317 27.0462 54.3168 26.6451 54.1C26.244 53.8833 25.8462 53.6683 25.4516 53.4551C25.4999 53.3657 25.5488 53.2752 25.5983 53.1837C25.6477 53.0921 25.696 53.0027 25.7431 52.9155C25.8718 52.985 26.0025 53.0557 26.1355 53.1276C26.2663 53.1983 26.396 53.2684 26.5246 53.3379C26.515 53.2566 26.5187 53.1741 26.5358 53.0904C26.5519 53.0033 26.5829 52.9173 26.6288 52.8323C26.696 52.708 26.7832 52.6144 26.8906 52.5512C26.9991 52.486 27.1209 52.456 27.2559 52.4614C27.39 52.4635 27.5312 52.5045 27.6794 52.5846C27.8494 52.6765 28.0206 52.769 28.1928 52.8621C28.365 52.9551 28.5361 53.0476 28.7061 53.1395C28.659 53.2267 28.6107 53.316 28.5613 53.4076C28.5118 53.4991 28.4629 53.5896 28.4146 53.679C28.2576 53.5942 28.0985 53.5082 27.9372 53.421C27.7759 53.3338 27.6168 53.2478 27.4598 53.163C27.3726 53.1159 27.2917 53.0989 27.217 53.1121C27.1413 53.1219 27.0799 53.1704 27.0327 53.2576C26.9856 53.3447 26.9742 53.4259 26.9984 53.5009C27.0226 53.576 27.0816 53.6388 27.1753 53.6895C27.3323 53.7743 27.4914 53.8603 27.6527 53.9475C27.814 54.0346 27.9732 54.1206 28.1301 54.2054C28.083 54.2926 28.0347 54.382 27.9852 54.4736C27.9357 54.5651 27.8869 54.6556 27.8386 54.745ZM27.1596 51.4984C27.1254 51.5616 27.0789 51.6111 27.0201 51.6469C26.9625 51.6806 26.9004 51.6991 26.8338 51.7025C26.7671 51.706 26.7033 51.6912 26.6423 51.6582C26.5812 51.6252 26.535 51.5805 26.5035 51.5241C26.4699 51.4665 26.4513 51.4043 26.4479 51.3377C26.4457 51.2689 26.4616 51.2029 26.4958 51.1397C26.5288 51.0786 26.5741 51.0313 26.6317 50.9976C26.6905 50.9618 26.7532 50.9422 26.8198 50.9388C26.8843 50.9342 26.947 50.9484 27.008 50.9813C27.0691 51.0143 27.1164 51.0596 27.1501 51.1172C27.1837 51.1748 27.2017 51.2381 27.2039 51.3069C27.2073 51.3735 27.1925 51.4373 27.1596 51.4984ZM28.8963 52.7875C28.6173 52.6367 28.3361 52.4848 28.0527 52.3317C27.7671 52.1773 27.4849 52.0248 27.2058 51.874C27.2541 51.7846 27.303 51.6942 27.3525 51.6026C27.402 51.5111 27.4503 51.4217 27.4974 51.3345C27.7764 51.4853 28.0587 51.6378 28.3443 51.7921C28.6276 51.9453 28.9089 52.0972 29.1879 52.248C29.1408 52.3352 29.0925 52.4246 29.043 52.5161C28.9935 52.6077 28.9446 52.6982 28.8963 52.7875ZM29.3914 51.8715C29.1123 51.7207 28.8311 51.5687 28.5477 51.4156C28.2622 51.2613 27.9799 51.1087 27.7009 50.9579C27.7492 50.8686 27.798 50.7781 27.8475 50.6866C27.897 50.595 27.9453 50.5056 27.9924 50.4184C28.0077 50.4267 28.0218 50.4343 28.0349 50.4414C28.048 50.4485 28.0622 50.4561 28.0774 50.4644C28.0678 50.3831 28.0715 50.3007 28.0886 50.2169C28.1047 50.1299 28.1357 50.0438 28.1816 49.9588C28.2488 49.8345 28.336 49.7409 28.4433 49.6778C28.5518 49.6125 28.6736 49.5825 28.8087 49.5879C28.9428 49.59 29.084 49.6311 29.2322 49.7112C29.4022 49.803 29.5734 49.8955 29.7456 49.9886C29.9178 50.0816 30.0889 50.1741 30.2589 50.266C30.2118 50.3532 30.1635 50.4426 30.114 50.5341C30.0646 50.6257 30.0157 50.7161 29.9674 50.8055C29.8104 50.7207 29.6513 50.6347 29.49 50.5475C29.3287 50.4604 29.1695 50.3744 29.0126 50.2896C28.9254 50.2424 28.8445 50.2254 28.7698 50.2386C28.6941 50.2484 28.6326 50.2969 28.5855 50.3841C28.5384 50.4713 28.527 50.5524 28.5512 50.6274C28.5754 50.7025 28.6344 50.7653 28.7281 50.816C28.8851 50.9008 29.0442 50.9868 29.2055 51.074C29.3668 51.1611 29.5259 51.2471 29.6829 51.3319C29.6358 51.4191 29.5875 51.5085 29.538 51.6001C29.4885 51.6916 29.4396 51.7821 29.3914 51.8715ZM30.439 49.9328C30.0444 49.7196 29.6466 49.5046 29.2455 49.2879C28.8444 49.0711 28.4466 48.8561 28.052 48.6429C28.1003 48.5536 28.1492 48.4631 28.1987 48.3715C28.2481 48.28 28.2964 48.1906 28.3435 48.1034C28.5572 48.2189 28.7741 48.3361 28.9942 48.455C29.2144 48.574 29.4313 48.6912 29.6449 48.8067C29.5871 48.674 29.5292 48.5413 29.4713 48.4087C29.4113 48.2748 29.3523 48.1416 29.2945 48.0089C29.351 47.9043 29.4075 47.7997 29.4641 47.695C29.5218 47.5882 29.5789 47.4825 29.6355 47.3778C29.7087 47.5498 29.7819 47.7245 29.855 47.902C29.9292 48.0773 30.003 48.251 30.0762 48.4229C30.2855 48.3952 30.497 48.3687 30.7107 48.3433C30.9234 48.3146 31.1338 48.2875 31.3419 48.2619C31.2842 48.3688 31.2264 48.4756 31.1687 48.5824C31.111 48.6892 31.0533 48.796 30.9956 48.9028C30.8364 48.921 30.6756 48.9398 30.5132 48.959C30.3485 48.977 30.1866 48.9952 30.0275 49.0134C30.143 49.0758 30.2608 49.1394 30.3806 49.2042C30.4984 49.2678 30.615 49.3309 30.7305 49.3933C30.6834 49.4805 30.6351 49.5699 30.5856 49.6614C30.5361 49.753 30.4873 49.8434 30.439 49.9328ZM29.7117 46.7756C29.6775 46.8389 29.631 46.8884 29.5722 46.9242C29.5146 46.9578 29.4525 46.9764 29.3859 46.9798C29.3192 46.9832 29.2554 46.9685 29.1944 46.9355C29.1333 46.9025 29.0871 46.8578 29.0556 46.8013C29.022 46.7437 29.0034 46.6816 29 46.615C28.9978 46.5462 29.0137 46.4802 29.0479 46.4169C29.0809 46.3559 29.1262 46.3086 29.1838 46.2749C29.2426 46.2391 29.3053 46.2195 29.3719 46.216C29.4363 46.2114 29.4991 46.2256 29.5601 46.2586C29.6212 46.2916 29.6685 46.3369 29.7022 46.3945C29.7358 46.4521 29.7537 46.5153 29.756 46.5841C29.7594 46.6508 29.7446 46.7146 29.7117 46.7756ZM31.4484 48.0648C31.1694 47.914 30.8882 47.7621 30.6048 47.6089C30.3192 47.4546 30.0369 47.3021 29.7579 47.1513C29.8062 47.0619 29.8551 46.9714 29.9046 46.8799C29.954 46.7883 30.0023 46.699 30.0495 46.6118C30.3285 46.7625 30.6108 46.9151 30.8963 47.0694C31.1797 47.2225 31.4609 47.3745 31.74 47.5253C31.6928 47.6125 31.6445 47.7019 31.5951 47.7934C31.5456 47.885 31.4967 47.9754 31.4484 48.0648ZM31.9434 47.1487C31.6644 46.998 31.3832 46.846 31.0998 46.6929C30.8143 46.5386 30.532 46.386 30.2529 46.2352C30.3012 46.1458 30.3501 46.0554 30.3996 45.9638C30.4491 45.8723 30.4974 45.7829 30.5445 45.6957C30.5597 45.7039 30.5739 45.7116 30.587 45.7187C30.6001 45.7257 30.6142 45.7334 30.6295 45.7416C30.6199 45.6604 30.6236 45.5779 30.6407 45.4942C30.6568 45.4071 30.6878 45.3211 30.7337 45.2361C30.8009 45.1118 30.8881 45.0181 30.9954 44.955C31.1039 44.8898 31.2257 44.8598 31.3608 44.8652C31.4949 44.8673 31.6361 44.9083 31.7843 44.9884C31.9543 45.0803 32.1254 45.1728 32.2977 45.2658C32.4699 45.3589 32.641 45.4514 32.811 45.5433C32.7639 45.6305 32.7156 45.7198 32.6661 45.8114C32.6167 45.9029 32.5678 45.9934 32.5195 46.0828C32.3625 45.998 32.2034 45.912 32.0421 45.8248C31.8808 45.7376 31.7216 45.6516 31.5647 45.5668C31.4775 45.5197 31.3965 45.5027 31.3218 45.5159C31.2461 45.5257 31.1847 45.5741 31.1376 45.6613C31.0905 45.7485 31.079 45.8297 31.1033 45.9047C31.1275 45.9798 31.1865 46.0426 31.2802 46.0933C31.4371 46.1781 31.5963 46.2641 31.7576 46.3512C31.9189 46.4384 32.078 46.5244 32.235 46.6092C32.1879 46.6964 32.1396 46.7858 32.0901 46.8773C32.0406 46.9689 31.9917 47.0594 31.9434 47.1487ZM33.5749 43.4729C33.7602 43.573 33.8932 43.697 33.9739 43.8448C34.0557 43.9904 34.09 44.1484 34.0769 44.3187C34.0659 44.4902 34.0138 44.6648 33.9205 44.8426C33.8285 45.0181 33.7028 45.1882 33.5434 45.3528C33.4584 45.3068 33.3723 45.2603 33.2851 45.2132C33.2001 45.1672 33.1151 45.1213 33.0301 45.0754C33.1907 44.9397 33.3087 44.8021 33.3841 44.6626C33.4617 44.5242 33.495 44.4 33.4841 44.2899C33.4722 44.1764 33.4172 44.0932 33.3191 44.0402C33.3082 44.0343 33.2984 44.029 33.2897 44.0243C33.2788 44.0184 33.2689 44.0131 33.2602 44.0084C33.2722 44.0853 33.2707 44.1661 33.2558 44.251C33.2409 44.3359 33.2111 44.4198 33.1663 44.5026C33.0921 44.64 32.994 44.746 32.8719 44.8209C32.7487 44.8924 32.614 44.928 32.4677 44.9278C32.3192 44.9264 32.1686 44.8844 32.016 44.802C31.8983 44.7384 31.801 44.6604 31.7241 44.5682C31.6472 44.476 31.5916 44.3755 31.5574 44.2669C31.5232 44.1583 31.5117 44.0492 31.5229 43.9398C31.532 43.8293 31.563 43.7249 31.616 43.6268C31.6584 43.5484 31.7088 43.4812 31.7671 43.4254C31.8254 43.3696 31.8872 43.3256 31.9526 43.2933C31.9373 43.285 31.9231 43.2774 31.9101 43.2703C31.897 43.2632 31.8828 43.2556 31.8675 43.2473C31.9158 43.158 31.9647 43.0675 32.0142 42.976C32.0637 42.8844 32.112 42.795 32.1591 42.7078C32.3923 42.8339 32.6289 42.9617 32.8686 43.0913C33.1062 43.2197 33.3417 43.3469 33.5749 43.4729ZM32.7712 44.1159C32.8207 44.0243 32.8318 43.936 32.8046 43.8509C32.7763 43.7624 32.7165 43.6934 32.6249 43.6439C32.5312 43.5933 32.4396 43.5804 32.3501 43.6053C32.2618 43.628 32.1929 43.6851 32.1434 43.7766C32.0916 43.8726 32.0798 43.9647 32.108 44.0532C32.134 44.1405 32.195 44.2101 32.2909 44.2619C32.3847 44.3126 32.4752 44.3249 32.5625 44.2988C32.6498 44.2728 32.7194 44.2118 32.7712 44.1159ZM34.6389 40.5893C34.785 40.6682 34.8914 40.7736 34.9581 40.9054C35.0261 41.0351 35.0547 41.1801 35.0441 41.3406C35.0312 41.4998 34.9789 41.6644 34.887 41.8345C34.801 41.9936 34.6994 42.1217 34.5821 42.2189C34.4638 42.3127 34.3373 42.3697 34.2025 42.3898C34.0667 42.4065 33.9323 42.379 33.7994 42.3071C33.6904 42.2482 33.603 42.17 33.5374 42.0726C33.4729 41.973 33.4351 41.8554 33.4239 41.7198C33.3193 41.7674 33.216 41.7891 33.1142 41.7847C33.0113 41.777 32.9108 41.7467 32.8127 41.6937C32.6689 41.6159 32.5696 41.513 32.5149 41.3849C32.4614 41.2546 32.446 41.1111 32.4687 40.9543C32.4914 40.7976 32.5447 40.6391 32.6285 40.4788C32.7102 40.3173 32.8159 40.166 32.9456 40.0249C33.0328 40.072 33.1211 40.1197 33.2105 40.168C33.2998 40.2163 33.3892 40.2646 33.4786 40.3129C33.403 40.3904 33.3344 40.473 33.2728 40.5608C33.2124 40.6465 33.166 40.7298 33.1335 40.8108C33.101 40.8918 33.0859 40.964 33.0884 41.0273C33.092 41.0884 33.1199 41.133 33.1722 41.1613C33.2398 41.1978 33.3114 41.1774 33.3871 41.1C33.4605 41.0214 33.5408 40.9014 33.628 40.7401C33.5888 40.7189 33.5495 40.6977 33.5103 40.6765C33.4689 40.6541 33.4285 40.6323 33.3893 40.6111C33.4376 40.5217 33.4865 40.4313 33.536 40.3397C33.5854 40.2481 33.6337 40.1588 33.6808 40.0716C33.7201 40.0928 33.7604 40.1146 33.8018 40.137C33.8411 40.1582 33.8803 40.1794 33.9195 40.2006C33.9372 40.1679 33.9555 40.1341 33.9743 40.0992C33.9932 40.0643 34.0114 40.0305 34.0291 39.9978C34.1097 40.0414 34.1904 40.085 34.2711 40.1286C34.3517 40.1722 34.4324 40.2158 34.513 40.2593C34.4954 40.292 34.4771 40.3258 34.4583 40.3607C34.4394 40.3956 34.4211 40.4294 34.4035 40.4621C34.4427 40.4833 34.482 40.5045 34.5212 40.5257C34.5604 40.5469 34.5997 40.5681 34.6389 40.5893ZM34.0268 41.6907C34.09 41.7249 34.1558 41.7308 34.2242 41.7086C34.2915 41.683 34.3481 41.6277 34.3941 41.5427C34.4435 41.4512 34.4612 41.3664 34.4471 41.2883C34.4307 41.2091 34.3822 41.1477 34.3016 41.1041C34.2711 41.0876 34.2395 41.0705 34.2068 41.0528C34.1741 41.0352 34.1424 41.0181 34.1119 41.0016C34.0153 41.1803 33.953 41.3269 33.925 41.4413C33.897 41.5557 33.9309 41.6389 34.0268 41.6907ZM36.0801 38.2429C36.2152 38.3159 36.3058 38.4142 36.3518 38.5376C36.3967 38.6576 36.4047 38.7915 36.3756 38.9391C36.3465 39.0867 36.2863 39.2373 36.1949 39.3907C36.1069 39.5431 35.9964 39.6876 35.8635 39.8242C35.7807 39.7794 35.6956 39.7335 35.6085 39.6863C35.5213 39.6392 35.4362 39.5933 35.3534 39.5485C35.4443 39.4794 35.5265 39.4055 35.5999 39.3269C35.6712 39.2471 35.729 39.1713 35.7735 39.0996C35.8179 39.0278 35.8448 38.9649 35.8543 38.9109C35.8616 38.8557 35.8456 38.8175 35.8064 38.7963C35.7759 38.7798 35.7413 38.7865 35.7026 38.8163C35.6652 38.8439 35.6234 38.8847 35.5773 38.9387C35.5291 38.9915 35.4763 39.0474 35.419 39.1066C35.3607 39.1624 35.2965 39.2108 35.2265 39.2518C35.1543 39.2916 35.0759 39.3141 34.9915 39.3192C34.9061 39.3209 34.8122 39.2941 34.7097 39.2387C34.5876 39.1727 34.5029 39.0819 34.4556 38.9662C34.4073 38.8471 34.3937 38.7159 34.4149 38.5724C34.4339 38.4278 34.4835 38.2814 34.5636 38.1331C34.6437 37.9849 34.7506 37.847 34.8844 37.7193C34.9672 37.764 35.0522 37.81 35.1394 37.8571C35.2266 37.9042 35.3117 37.9502 35.3945 37.9949C35.2697 38.0852 35.1686 38.1784 35.0912 38.2746C35.0139 38.3709 34.9652 38.4558 34.9451 38.5294C34.9229 38.6019 34.9346 38.6505 34.9804 38.6752C35.0109 38.6917 35.0449 38.6862 35.0824 38.6585C35.1188 38.6275 35.1595 38.5861 35.2044 38.5343C35.2504 38.4804 35.3026 38.4255 35.361 38.3697C35.4204 38.3117 35.4857 38.2639 35.5568 38.2263C35.6268 38.1852 35.7056 38.1645 35.7932 38.1639C35.8798 38.16 35.9754 38.1863 36.0801 38.2429ZM37.4517 36.7678C37.4337 36.9524 37.3922 37.1229 37.3274 37.2794C37.2625 37.4359 37.1778 37.5718 37.0733 37.6871C36.9721 37.8014 36.8557 37.8891 36.724 37.9504C36.5923 38.0116 36.4517 38.0398 36.3022 38.0351C36.1539 38.0281 36.0023 37.9828 35.8476 37.8992C35.7189 37.8297 35.6124 37.7454 35.528 37.6463C35.4426 37.5438 35.3807 37.4315 35.3425 37.3094C35.302 37.1862 35.2889 37.0594 35.303 36.929C35.3149 36.7974 35.3551 36.6685 35.4234 36.542C35.4847 36.4287 35.5586 36.3362 35.6451 36.2647C35.7316 36.1932 35.8269 36.1419 35.931 36.1108C36.0329 36.0786 36.1409 36.0665 36.2548 36.0745C36.3687 36.0826 36.4831 36.1106 36.598 36.1586C36.7129 36.2066 36.8249 36.2756 36.934 36.3655C36.8374 36.5443 36.7403 36.7241 36.6425 36.9051C36.5447 37.086 36.4475 37.2658 36.3509 37.4446C36.4561 37.4479 36.5521 37.4111 36.6388 37.334C36.7267 37.2548 36.8 37.1451 36.8588 37.0051C36.9188 36.8629 36.9616 36.7001 36.9874 36.5169C37.0637 36.5581 37.1411 36.6 37.2196 36.6424C37.2981 36.6848 37.3754 36.7266 37.4517 36.7678ZM35.9003 36.8166C35.8661 36.8798 35.8517 36.9481 35.8572 37.0215C35.8638 37.0926 35.8954 37.1618 35.952 37.229C36.005 37.1309 36.058 37.0328 36.111 36.9347C36.1652 36.8345 36.2188 36.7353 36.2718 36.6372C36.1836 36.6233 36.109 36.6337 36.048 36.6683C35.986 36.6996 35.9368 36.749 35.9003 36.8166ZM38.3561 35.282C38.3386 35.2725 38.3223 35.2637 38.307 35.2555C38.2896 35.246 38.2732 35.2372 38.258 35.229C38.2743 35.3082 38.2756 35.3892 38.2619 35.4719C38.2515 35.5536 38.2251 35.6337 38.1827 35.7122C38.1227 35.8233 38.0454 35.9168 37.951 35.9925C37.8544 36.067 37.7462 36.1212 37.6265 36.1551C37.5058 36.1857 37.3792 36.1933 37.2466 36.178C37.1152 36.1605 36.9831 36.1158 36.8501 36.044C36.7149 35.9709 36.6041 35.8843 36.5174 35.7839C36.432 35.6814 36.3712 35.5725 36.3349 35.4572C36.2977 35.3385 36.2849 35.2189 36.2964 35.0984C36.3059 34.9768 36.34 34.8614 36.3989 34.7524C36.4413 34.674 36.4944 34.6069 36.5583 34.5513C36.62 34.4945 36.6873 34.4506 36.7604 34.4197C36.7429 34.4103 36.7266 34.4014 36.7113 34.3932C36.6961 34.3849 36.6808 34.3767 36.6656 34.3684C36.7139 34.2791 36.7627 34.1886 36.8122 34.0971C36.8617 34.0055 36.91 33.9161 36.9571 33.8289C37.2361 33.9797 37.5184 34.1323 37.804 34.2866C38.0874 34.4397 38.3686 34.5917 38.6476 34.7424C38.6005 34.8296 38.5522 34.919 38.5027 35.0106C38.4532 35.1021 38.4044 35.1926 38.3561 35.282ZM37.7442 35.3823C37.8008 35.2776 37.808 35.1731 37.7658 35.0686C37.7237 34.9642 37.6405 34.8784 37.5162 34.8112C37.392 34.7441 37.2757 34.7221 37.1674 34.7453C37.057 34.7673 36.9735 34.8306 36.9169 34.9352C36.8592 35.042 36.8503 35.1471 36.8903 35.2503C36.9314 35.3514 37.0152 35.4361 37.1416 35.5044C37.2681 35.5728 37.3859 35.597 37.4952 35.5772C37.6035 35.5541 37.6865 35.4891 37.7442 35.3823ZM38.8422 34.3824C38.5632 34.2316 38.282 34.0796 37.9986 33.9265C37.713 33.7722 37.4307 33.6196 37.1517 33.4689C37.2 33.3795 37.2489 33.289 37.2983 33.1975C37.3478 33.1059 37.3961 33.0165 37.4432 32.9293C37.4585 32.9376 37.4737 32.9458 37.489 32.9541C37.5043 32.9623 37.5195 32.9706 37.5348 32.9788C37.5233 32.8853 37.5286 32.7896 37.5506 32.6916C37.5725 32.5936 37.6161 32.4975 37.6811 32.4031C37.7683 32.4502 37.8566 32.4979 37.946 32.5462C38.0354 32.5945 38.1237 32.6422 38.2109 32.6893C38.0938 32.8486 38.0402 32.9844 38.0499 33.0966C38.0575 33.2077 38.1212 33.2957 38.2411 33.3605C38.3871 33.4394 38.5354 33.5195 38.6858 33.6008C38.8362 33.6821 38.9855 33.7628 39.1337 33.8429C39.0866 33.9301 39.0383 34.0194 38.9888 34.111C38.9394 34.2025 38.8905 34.293 38.8422 34.3824ZM38.6343 32.7422C38.4686 32.6527 38.3419 32.5406 38.2542 32.4058C38.1643 32.2699 38.1136 32.1214 38.1021 31.9603C38.0906 31.7992 38.1202 31.6349 38.1909 31.4676C38.2595 31.299 38.3699 31.139 38.5221 30.9875C38.605 31.0323 38.6889 31.0776 38.7739 31.1236C38.8589 31.1695 38.9429 31.2149 39.0257 31.2596C38.8963 31.3531 38.8026 31.4587 38.7445 31.5766C38.6865 31.6945 38.6712 31.8088 38.6987 31.9194C38.7241 32.0289 38.8021 32.1189 38.9329 32.1896C39.0637 32.2603 39.1829 32.2768 39.2906 32.2392C39.396 32.2005 39.4821 32.1245 39.5489 32.0113C39.6135 31.8969 39.6506 31.7606 39.66 31.6024C39.7429 31.6472 39.8268 31.6925 39.9118 31.7385C39.9968 31.7844 40.0808 31.8298 40.1636 31.8745C40.1203 32.0849 40.047 32.2649 39.9435 32.4147C39.8423 32.5655 39.7211 32.6803 39.58 32.759C39.4389 32.8376 39.288 32.8772 39.1272 32.8776C38.9643 32.8769 38.8 32.8317 38.6343 32.7422ZM40.3799 31.5369C39.9853 31.3237 39.5875 31.1087 39.1864 30.8919C38.7853 30.6752 38.3874 30.4602 37.9929 30.247C38.0412 30.1576 38.0901 30.0671 38.1395 29.9756C38.189 29.884 38.2373 29.7947 38.2844 29.7075C38.413 29.777 38.5438 29.8476 38.6768 29.9195C38.8076 29.9902 38.9373 30.0603 39.0659 30.1298C39.0563 30.0485 39.06 29.9661 39.0771 29.8823C39.0932 29.7953 39.1242 29.7092 39.1701 29.6242C39.2373 29.5 39.3245 29.4063 39.4318 29.3432C39.5403 29.2779 39.6621 29.2479 39.7972 29.2533C39.9313 29.2554 40.0725 29.2965 40.2207 29.3766C40.3907 29.4684 40.5619 29.5609 40.7341 29.654C40.9063 29.747 41.0774 29.8395 41.2474 29.9314C41.2003 30.0186 41.152 30.108 41.1025 30.1995C41.0531 30.2911 41.0042 30.3815 40.9559 30.4709C40.7989 30.3861 40.6398 30.3001 40.4785 30.2129C40.3172 30.1258 40.158 30.0398 40.0011 29.955C39.9139 29.9078 39.833 29.8909 39.7583 29.904C39.6826 29.9138 39.6211 29.9623 39.574 30.0495C39.5269 30.1367 39.5155 30.2178 39.5397 30.2928C39.5639 30.3679 39.6229 30.4307 39.7166 30.4814C39.8736 30.5662 40.0327 30.6522 40.194 30.7394C40.3553 30.8265 40.5144 30.9125 40.6714 30.9974C40.6243 31.0845 40.576 31.1739 40.5265 31.2655C40.477 31.357 40.4281 31.4475 40.3799 31.5369ZM39.7009 28.2903C39.6667 28.3535 39.6202 28.403 39.5614 28.4388C39.5038 28.4725 39.4417 28.491 39.3751 28.4945C39.3084 28.4979 39.2446 28.4831 39.1836 28.4501C39.1225 28.4171 39.0763 28.3724 39.0448 28.316C39.0112 28.2584 38.9926 28.1963 38.9892 28.1296C38.987 28.0608 39.0029 27.9948 39.0371 27.9316C39.0701 27.8706 39.1154 27.8232 39.173 27.7896C39.2318 27.7537 39.2945 27.7341 39.3611 27.7307C39.4255 27.7261 39.4883 27.7403 39.5493 27.7733C39.6104 27.8062 39.6577 27.8515 39.6914 27.9092C39.725 27.9668 39.7429 28.03 39.7452 28.0988C39.7486 28.1654 39.7338 28.2292 39.7009 28.2903ZM41.4376 29.5794C41.1586 29.4287 40.8774 29.2767 40.594 29.1236C40.3084 28.9693 40.0261 28.8167 39.7471 28.6659C39.7954 28.5766 39.8443 28.4861 39.8938 28.3945C39.9432 28.303 39.9915 28.2136 40.0387 28.1264C40.3177 28.2772 40.6 28.4297 40.8855 28.5841C41.1689 28.7372 41.4501 28.8891 41.7292 29.0399C41.682 29.1271 41.6337 29.2165 41.5843 29.3081C41.5348 29.3996 41.4859 29.4901 41.4376 29.5794ZM41.9326 28.6634C41.6536 28.5126 41.3724 28.3606 41.089 28.2075C40.8035 28.0532 40.5212 27.9006 40.2421 27.7499C40.2904 27.6605 40.3393 27.57 40.3888 27.4785C40.4383 27.3869 40.4866 27.2975 40.5337 27.2103C40.5489 27.2186 40.5631 27.2262 40.5762 27.2333C40.5893 27.2404 40.6034 27.248 40.6187 27.2563C40.6091 27.175 40.6128 27.0926 40.6299 27.0089C40.646 26.9218 40.677 26.8357 40.7229 26.7507C40.7901 26.6265 40.8773 26.5328 40.9846 26.4697C41.0931 26.4044 41.2149 26.3745 41.35 26.3799C41.4841 26.3819 41.6253 26.423 41.7735 26.5031C41.9435 26.595 42.1146 26.6874 42.2869 26.7805C42.4591 26.8736 42.6302 26.966 42.8002 27.0579C42.7531 27.1451 42.7048 27.2345 42.6553 27.326C42.6059 27.4176 42.557 27.508 42.5087 27.5974C42.3517 27.5126 42.1926 27.4266 42.0313 27.3394C41.87 27.2523 41.7108 27.1663 41.5539 27.0815C41.4667 27.0344 41.3857 27.0174 41.311 27.0305C41.2353 27.0403 41.1739 27.0888 41.1268 27.176C41.0797 27.2632 41.0682 27.3443 41.0925 27.4194C41.1167 27.4944 41.1757 27.5573 41.2694 27.6079C41.4263 27.6927 41.5855 27.7787 41.7468 27.8659C41.9081 27.9531 42.0672 28.0391 42.2242 28.1239C42.1771 28.2111 42.1288 28.3004 42.0793 28.392C42.0298 28.4835 41.9809 28.574 41.9326 28.6634ZM43.5641 24.9876C43.7494 25.0877 43.8824 25.2117 43.9631 25.3595C44.0449 25.5051 44.0792 25.663 44.0661 25.8334C44.0551 26.0049 44.003 26.1795 43.9097 26.3572C43.8177 26.5328 43.692 26.7029 43.5326 26.8674C43.4476 26.8215 43.3615 26.7749 43.2743 26.7278C43.1893 26.6819 43.1043 26.6359 43.0193 26.59C43.1799 26.4543 43.2979 26.3167 43.3733 26.1772C43.4509 26.0389 43.4842 25.9146 43.4733 25.8045C43.4614 25.6911 43.4064 25.6078 43.3083 25.5548C43.2974 25.5489 43.2876 25.5436 43.2789 25.5389C43.268 25.533 43.2581 25.5277 43.2494 25.523C43.2614 25.5999 43.2599 25.6808 43.245 25.7657C43.2301 25.8506 43.2003 25.9344 43.1555 26.0173C43.0813 26.1546 42.9832 26.2607 42.8611 26.3355C42.7379 26.407 42.6032 26.4426 42.4569 26.4424C42.3084 26.441 42.1578 26.3991 42.0052 26.3166C41.8875 26.253 41.7902 26.1751 41.7133 26.0828C41.6364 25.9906 41.5808 25.8902 41.5466 25.7815C41.5124 25.6729 41.5009 25.5639 41.5121 25.4545C41.5212 25.3439 41.5522 25.2396 41.6052 25.1415C41.6476 25.063 41.698 24.9959 41.7563 24.9401C41.8146 24.8843 41.8764 24.8402 41.9418 24.8079C41.9265 24.7997 41.9123 24.792 41.8993 24.785C41.8862 24.7779 41.872 24.7702 41.8567 24.762C41.905 24.6726 41.9539 24.5821 42.0034 24.4906C42.0529 24.399 42.1012 24.3097 42.1483 24.2225C42.3815 24.3485 42.6181 24.4763 42.8578 24.6059C43.0954 24.7343 43.3309 24.8615 43.5641 24.9876ZM42.7604 25.6305C42.8099 25.539 42.821 25.4506 42.7938 25.3655C42.7655 25.277 42.7057 25.2081 42.6141 25.1586C42.5204 25.1079 42.4288 25.095 42.3393 25.1199C42.251 25.1426 42.1821 25.1997 42.1326 25.2913C42.0808 25.3872 42.069 25.4794 42.0972 25.5679C42.1232 25.6552 42.1842 25.7247 42.2801 25.7766C42.3739 25.8272 42.4644 25.8395 42.5517 25.8135C42.639 25.7874 42.7086 25.7265 42.7604 25.6305Z" fill="#2F4ECD"/>
<path d="M33.7287 59.4716C33.5958 59.3998 33.4617 59.3273 33.3265 59.2543C33.1914 59.1813 33.0573 59.1088 32.9244 59.0369C32.6287 59.0264 32.3285 59.0163 32.024 59.0067C31.7194 58.997 31.4193 58.9869 31.1236 58.9764C31.1778 58.8761 31.2326 58.7747 31.2879 58.6723C31.3433 58.5698 31.3981 58.4685 31.4522 58.3682C31.6194 58.3768 31.7882 58.385 31.9587 58.3926C32.1282 58.3969 32.2965 58.4033 32.4636 58.412C32.3648 58.2769 32.2666 58.1407 32.169 58.0035C32.0691 57.8651 31.9698 57.7283 31.871 57.5932C31.9252 57.493 31.9794 57.3927 32.0336 57.2924C32.0878 57.1921 32.1419 57.0919 32.1961 56.9916C32.3669 57.2332 32.5399 57.4787 32.7149 57.7282C32.8899 57.9776 33.0628 58.2232 33.2336 58.4647C33.3665 58.5366 33.5006 58.609 33.6358 58.6821C33.7709 58.7551 33.905 58.8275 34.0379 58.8994C33.9873 58.9931 33.9361 59.088 33.8842 59.1839C33.8324 59.2798 33.7806 59.3757 33.7287 59.4716ZM35.0927 56.76C35.0746 56.9446 35.0331 57.1151 34.9683 57.2716C34.9035 57.428 34.8188 57.5639 34.7142 57.6792C34.613 57.7935 34.4966 57.8813 34.3649 57.9425C34.2333 58.0038 34.0927 58.032 33.9432 58.0272C33.7948 58.0203 33.6433 57.975 33.4885 57.8914C33.3599 57.8219 33.2533 57.7376 33.1689 57.6384C33.0835 57.5359 33.0216 57.4236 32.9834 57.3016C32.943 57.1783 32.9298 57.0515 32.9439 56.9212C32.9559 56.7896 32.996 56.6606 33.0643 56.5342C33.1256 56.4208 33.1995 56.3284 33.286 56.2569C33.3725 56.1853 33.4679 56.134 33.5719 56.103C33.6739 56.0707 33.7818 56.0587 33.8957 56.0667C34.0097 56.0748 34.1241 56.1028 34.239 56.1508C34.3538 56.1988 34.4658 56.2678 34.575 56.3577C34.4784 56.5365 34.3812 56.7163 34.2834 56.8972C34.1856 57.0782 34.0885 57.258 33.9919 57.4368C34.0971 57.4401 34.193 57.4032 34.2797 57.3262C34.3676 57.2469 34.441 57.1373 34.4997 56.9972C34.5597 56.855 34.6026 56.6923 34.6283 56.5091C34.7046 56.5503 34.782 56.5921 34.8605 56.6345C34.939 56.6769 35.0164 56.7188 35.0927 56.76ZM33.5412 56.8088C33.507 56.872 33.4927 56.9403 33.4981 57.0136C33.5047 57.0848 33.5363 57.154 33.5929 57.2212C33.6459 57.1231 33.699 57.025 33.752 56.9269C33.8062 56.8266 33.8598 56.7274 33.9128 56.6294C33.8245 56.6155 33.7499 56.6258 33.6889 56.6605C33.627 56.6918 33.5777 56.7412 33.5412 56.8088ZM35.3962 56.3859C35.0017 56.1727 34.6038 55.9577 34.2027 55.7409C33.8016 55.5242 33.4038 55.3092 33.0092 55.096C33.0575 55.0066 33.1064 54.9162 33.1559 54.8246C33.2054 54.733 33.2537 54.6437 33.3008 54.5565C33.6954 54.7697 34.0932 54.9847 34.4943 55.2014C34.8954 55.4182 35.2932 55.6331 35.6878 55.8464C35.6406 55.9336 35.5924 56.0229 35.5429 56.1145C35.4934 56.206 35.4445 56.2965 35.3962 56.3859ZM35.9001 55.4535C35.5055 55.2403 35.1077 55.0253 34.7066 54.8085C34.3055 54.5918 33.9077 54.3768 33.5131 54.1636C33.5614 54.0742 33.6103 53.9837 33.6598 53.8922C33.7092 53.8006 33.7575 53.7113 33.8047 53.6241C34.1992 53.8373 34.597 54.0523 34.9981 54.269C35.3992 54.4858 35.7971 54.7007 36.1916 54.9139C36.1445 55.0011 36.0962 55.0905 36.0467 55.1821C35.9973 55.2736 35.9484 55.3641 35.9001 55.4535ZM36.8803 53.7646C36.812 53.891 36.7266 53.9969 36.6241 54.0824C36.5194 54.1666 36.405 54.2273 36.2807 54.2644C36.1543 54.3003 36.0242 54.3116 35.8905 54.2985C35.7579 54.2832 35.6274 54.2408 35.4987 54.1713C35.3701 54.1018 35.2631 54.0158 35.1777 53.9133C35.0934 53.8086 35.0328 53.6942 34.9957 53.57C34.9586 53.4457 34.9477 53.3173 34.963 53.1848C34.9761 53.051 35.0169 52.9209 35.0852 52.7945C35.1547 52.6659 35.2412 52.5606 35.3447 52.4785C35.4472 52.393 35.5606 52.3318 35.6848 52.2947C35.809 52.2576 35.9374 52.2468 36.07 52.2621C36.2037 52.2752 36.3349 52.3165 36.4635 52.386C36.5921 52.4555 36.6986 52.5426 36.7828 52.6473C36.8682 52.7498 36.9306 52.8637 36.9698 52.9891C37.0069 53.1134 37.0189 53.2424 37.0058 53.3761C36.9916 53.5065 36.9498 53.636 36.8803 53.7646ZM36.3931 53.5013C36.4508 53.3945 36.4586 53.2889 36.4165 53.1844C36.3734 53.0766 36.2919 52.9903 36.172 52.9255C36.0499 52.8596 35.9341 52.8392 35.8247 52.8646C35.7142 52.8866 35.6301 52.951 35.5724 53.0578C35.5147 53.1646 35.5063 53.2713 35.5473 53.3779C35.5872 53.4812 35.6682 53.5658 35.7903 53.6318C35.9102 53.6966 36.0265 53.7186 36.1391 53.6978C36.2507 53.6736 36.3354 53.6081 36.3931 53.5013ZM37.6229 52.2654C37.2979 52.1996 36.9702 52.1338 36.6397 52.0678C36.3082 51.9985 35.9799 51.931 35.655 51.8652C35.7033 51.7759 35.7521 51.6854 35.8016 51.5938C35.8523 51.5001 35.9017 51.4086 35.95 51.3192C36.1262 51.358 36.3045 51.3981 36.485 51.4393C36.6645 51.4771 36.8418 51.5166 37.0168 51.5576C36.8842 51.4381 36.7505 51.318 36.6158 51.1973C36.48 51.0733 36.3453 50.9526 36.2115 50.8352C36.2528 50.7589 36.294 50.6826 36.3352 50.6064C36.3776 50.5279 36.4195 50.4505 36.4607 50.3742C36.6333 50.4196 36.8092 50.4668 36.9884 50.5157C37.1665 50.5613 37.3424 50.6084 37.516 50.6572C37.3848 50.53 37.2525 50.4021 37.1191 50.2737C36.9847 50.142 36.8524 50.0141 36.7222 49.8903C36.7705 49.8009 36.8188 49.7115 36.8671 49.6221C36.9166 49.5306 36.9649 49.4412 37.012 49.354C37.2451 49.5898 37.4808 49.8285 37.7193 50.07C37.9567 50.3081 38.192 50.5451 38.4251 50.7809C38.3779 50.8681 38.3302 50.9564 38.2819 51.0457C38.2336 51.1351 38.1859 51.2234 38.1388 51.3106C37.9848 51.2724 37.8291 51.2348 37.6718 51.1976C37.5156 51.1583 37.3616 51.1201 37.2098 51.0832C37.3239 51.1899 37.4396 51.2989 37.5569 51.4102C37.6754 51.5193 37.7928 51.6278 37.9091 51.7357C37.862 51.8229 37.8143 51.9112 37.766 52.0005C37.7177 52.0899 37.67 52.1782 37.6229 52.2654Z" fill="#2F4ECD"/>
<path d="M39.6999 63.4611C39.3337 63.2632 38.9631 63.0629 38.5882 62.8603C38.2133 62.6577 37.8427 62.4574 37.4765 62.2595C37.5495 62.1244 37.6225 61.9892 37.6956 61.8541C37.7698 61.7168 37.8428 61.5816 37.9147 61.4486C38.0054 61.2808 38.117 61.1524 38.2495 61.0635C38.3799 60.9734 38.5217 60.9247 38.6749 60.9174C38.8282 60.91 38.9822 60.9482 39.1369 61.0318C39.2895 61.1143 39.4047 61.2216 39.4826 61.3538C39.5616 61.4838 39.6003 61.6258 39.5987 61.7799C39.5983 61.9318 39.5575 62.0829 39.4762 62.2333C39.4503 62.2813 39.4244 62.3292 39.3985 62.3772C39.3737 62.423 39.3484 62.4698 39.3225 62.5178C39.4359 62.579 39.5503 62.6409 39.6658 62.7033C39.7814 62.7658 39.8958 62.8276 40.0092 62.8889C39.9585 62.9826 39.9073 63.0774 39.8554 63.1733C39.8036 63.2692 39.7518 63.3652 39.6999 63.4611ZM38.428 61.726C38.4068 61.7653 38.385 61.8056 38.3627 61.847C38.3415 61.8863 38.3202 61.9255 38.299 61.9647C38.3862 62.0119 38.4745 62.0596 38.5639 62.1079C38.6511 62.155 38.7383 62.2021 38.8255 62.2492C38.849 62.2056 38.8732 62.1609 38.8979 62.1152C38.9238 62.0672 38.9486 62.0214 38.9721 61.9778C39.0087 61.9102 39.013 61.8422 38.9853 61.7737C38.9587 61.703 38.9084 61.6476 38.8342 61.6076C38.758 61.5663 38.6824 61.5551 38.6075 61.5738C38.5326 61.5924 38.4728 61.6432 38.428 61.726ZM41.189 60.8306C41.1207 60.957 41.0353 61.0629 40.9328 61.1484C40.8281 61.2326 40.7137 61.2933 40.5894 61.3304C40.463 61.3663 40.3329 61.3776 40.1992 61.3645C40.0666 61.3492 39.9361 61.3068 39.8074 61.2373C39.6788 61.1678 39.5718 61.0818 39.4864 60.9793C39.4021 60.8746 39.3414 60.7602 39.3044 60.6359C39.2673 60.5117 39.2564 60.3833 39.2717 60.2508C39.2848 60.117 39.3256 59.9869 39.3939 59.8605C39.4634 59.7319 39.5499 59.6266 39.6534 59.5445C39.7559 59.459 39.8693 59.3978 39.9935 59.3607C40.1177 59.3236 40.2461 59.3128 40.3787 59.3281C40.5124 59.3412 40.6436 59.3825 40.7722 59.452C40.9008 59.5215 41.0073 59.6086 41.0915 59.7133C41.1769 59.8158 41.2393 59.9297 41.2785 60.0551C41.3156 60.1794 41.3276 60.3084 41.3145 60.4421C41.3003 60.5725 41.2585 60.702 41.189 60.8306ZM40.7018 60.5673C40.7595 60.4605 40.7673 60.3549 40.7252 60.2504C40.6821 60.1426 40.6005 60.0563 40.4807 59.9915C40.3586 59.9256 40.2428 59.9052 40.1334 59.9306C40.0229 59.9526 39.9388 60.017 39.8811 60.1238C39.8234 60.2306 39.815 60.3373 39.8559 60.4439C39.8959 60.5472 39.9769 60.6318 40.099 60.6978C40.2189 60.7626 40.3351 60.7846 40.4478 60.7638C40.5594 60.7396 40.6441 60.6741 40.7018 60.5673ZM42.578 59.386C42.5309 59.4732 42.4826 59.5626 42.4331 59.6541C42.3836 59.7457 42.3348 59.8361 42.2865 59.9255C41.9224 59.7288 41.554 59.5297 41.1813 59.3283C40.8063 59.1257 40.4368 58.926 40.0728 58.7293C40.1211 58.6399 40.17 58.5494 40.2194 58.4579C40.2689 58.3663 40.3172 58.2769 40.3643 58.1898C40.3796 58.198 40.3949 58.2062 40.4101 58.2145C40.4254 58.2227 40.4417 58.2316 40.4592 58.241C40.445 58.1629 40.4448 58.0826 40.4585 57.9998C40.4701 57.9159 40.497 57.8348 40.5394 57.7563C40.5983 57.6473 40.6761 57.5555 40.7727 57.481C40.8671 57.4053 40.9736 57.3516 41.0921 57.3199C41.2118 57.286 41.3374 57.2778 41.4687 57.2952C41.6013 57.3105 41.7341 57.3541 41.867 57.426C41.9978 57.4967 42.1059 57.5832 42.1914 57.6857C42.278 57.7861 42.341 57.8962 42.3804 58.016C42.4189 58.1326 42.4334 58.2517 42.4239 58.3733C42.4145 58.495 42.3798 58.6114 42.3197 58.7225C42.2773 58.801 42.2242 58.8681 42.1603 58.9237C42.0998 58.9783 42.032 59.0205 41.9567 59.0503C42.0592 59.1056 42.1627 59.1616 42.2674 59.2181C42.372 59.2747 42.4756 59.3306 42.578 59.386ZM41.8034 58.5365C41.8612 58.4297 41.8695 58.3257 41.8283 58.2247C41.7862 58.1202 41.7019 58.0338 41.5755 57.9655C41.449 57.8972 41.3317 57.8746 41.2234 57.8978C41.1163 57.9188 41.0339 57.9827 40.9762 58.0895C40.9196 58.1941 40.9124 58.2986 40.9546 58.4031C40.9945 58.5064 41.0766 58.5916 41.2009 58.6587C41.3251 58.7259 41.4425 58.7484 41.5529 58.7264C41.6634 58.7045 41.7469 58.6411 41.8034 58.5365ZM43.5304 56.3727C43.4833 56.4599 43.435 56.5493 43.3855 56.6408C43.336 56.7324 43.2871 56.8229 43.2388 56.9122C42.8443 56.699 42.4465 56.484 42.0454 56.2673C41.6443 56.0505 41.2464 55.8356 40.8519 55.6224C40.9002 55.533 40.9491 55.4425 40.9985 55.351C41.048 55.2594 41.0963 55.17 41.1434 55.0828C41.2742 55.1535 41.4061 55.2248 41.5391 55.2966C41.672 55.3685 41.8039 55.4398 41.9347 55.5104C41.9206 55.4324 41.9203 55.352 41.9341 55.2693C41.9456 55.1854 41.9726 55.1042 42.015 55.0257C42.0739 54.9167 42.1516 54.825 42.2482 54.7504C42.3427 54.6747 42.4491 54.621 42.5677 54.5893C42.6874 54.5554 42.8129 54.5472 42.9443 54.5647C43.0768 54.58 43.2096 54.6236 43.3426 54.6954C43.4734 54.7661 43.5815 54.8527 43.6669 54.9552C43.7535 55.0555 43.8166 55.1656 43.856 55.2855C43.8944 55.402 43.9089 55.5211 43.8995 55.6427C43.8901 55.7644 43.8553 55.8808 43.7953 55.992C43.7529 56.0705 43.6997 56.1375 43.6359 56.1931C43.5754 56.2478 43.5075 56.2899 43.4323 56.3197C43.4476 56.3279 43.4639 56.3368 43.4813 56.3462C43.4966 56.3545 43.5129 56.3633 43.5304 56.3727ZM43.279 55.806C43.3367 55.6991 43.345 55.5952 43.3039 55.4941C43.2617 55.3897 43.1775 55.3033 43.051 55.2349C42.9246 55.1666 42.8072 55.144 42.699 55.1672C42.5919 55.1882 42.5095 55.2521 42.4517 55.3589C42.3952 55.4635 42.388 55.5681 42.4301 55.6725C42.4701 55.7758 42.5522 55.861 42.6764 55.9281C42.8007 55.9953 42.918 56.0179 43.0285 55.9959C43.139 55.9739 43.2225 55.9106 43.279 55.806ZM44.944 53.7569C44.9265 53.7474 44.9102 53.7386 44.8949 53.7303C44.8775 53.7209 44.8611 53.7121 44.8459 53.7038C44.8622 53.7831 44.8635 53.8641 44.8498 53.9468C44.8394 54.0285 44.813 54.1086 44.7706 54.187C44.7106 54.2982 44.6333 54.3917 44.5389 54.4674C44.4423 54.5419 44.3341 54.5961 44.2144 54.63C44.0937 54.6605 43.9671 54.6682 43.8345 54.6529C43.7031 54.6354 43.571 54.5907 43.438 54.5189C43.3028 54.4458 43.192 54.3591 43.1053 54.2588C43.0199 54.1563 42.9591 54.0474 42.9228 53.9321C42.8856 53.8134 42.8728 53.6938 42.8843 53.5733C42.8938 53.4516 42.9279 53.3363 42.9868 53.2273C43.0292 53.1488 43.0823 53.0818 43.1462 53.0262C43.2079 52.9694 43.2752 52.9255 43.3483 52.8946C43.3308 52.8852 43.3145 52.8763 43.2992 52.8681C43.284 52.8598 43.2687 52.8516 43.2535 52.8433C43.3018 52.754 43.3506 52.6635 43.4001 52.5719C43.4496 52.4804 43.4979 52.391 43.545 52.3038C43.824 52.4546 44.1063 52.6071 44.3919 52.7615C44.6753 52.9146 44.9565 53.0666 45.2355 53.2173C45.1884 53.3045 45.1401 53.3939 45.0906 53.4855C45.0411 53.577 44.9923 53.6675 44.944 53.7569ZM44.3321 53.8571C44.3887 53.7525 44.3959 53.648 44.3537 53.5435C44.3116 53.4391 44.2284 53.3533 44.1041 53.2861C43.9799 53.219 43.8636 53.197 43.7553 53.2202C43.6449 53.2422 43.5614 53.3055 43.5048 53.4101C43.4471 53.5169 43.4382 53.622 43.4782 53.7252C43.5193 53.8263 43.6031 53.911 43.7295 53.9793C43.856 54.0477 43.9738 54.0719 44.0831 54.0521C44.1914 54.0289 44.2744 53.964 44.3321 53.8571ZM45.4389 52.8409C45.0444 52.6277 44.6465 52.4127 44.2454 52.196C43.8443 51.9792 43.4465 51.7643 43.0519 51.551C43.1002 51.4617 43.1491 51.3712 43.1986 51.2796C43.2481 51.1881 43.2964 51.0987 43.3435 51.0115C43.738 51.2247 44.1359 51.4397 44.537 51.6565C44.9381 51.8732 45.3359 52.0882 45.7305 52.3014C45.6833 52.3886 45.635 52.478 45.5856 52.5695C45.5361 52.6611 45.4872 52.7515 45.4389 52.8409ZM45.9428 51.9085C45.5482 51.6953 45.1504 51.4803 44.7493 51.2636C44.3482 51.0468 43.9504 50.8318 43.5558 50.6186C43.6041 50.5293 43.653 50.4388 43.7025 50.3472C43.7519 50.2557 43.8002 50.1663 43.8474 50.0791C44.2419 50.2923 44.6397 50.5073 45.0408 50.724C45.4419 50.9408 45.8398 51.1558 46.2343 51.369C46.1872 51.4562 46.1389 51.5456 46.0894 51.6371C46.04 51.7287 45.9911 51.8191 45.9428 51.9085ZM47.0474 49.8644C47.03 49.8549 47.0136 49.8461 46.9984 49.8379C46.9809 49.8284 46.9646 49.8196 46.9493 49.8114C46.9656 49.8906 46.9669 49.9716 46.9532 50.0543C46.9429 50.136 46.9165 50.2161 46.8741 50.2946C46.814 50.4057 46.7367 50.4992 46.6423 50.5749C46.5457 50.6494 46.4376 50.7036 46.3179 50.7375C46.1971 50.7681 46.0705 50.7757 45.938 50.7604C45.8066 50.7429 45.6744 50.6982 45.5414 50.6264C45.4063 50.5533 45.2954 50.4666 45.2088 50.3663C45.1234 50.2638 45.0625 50.1549 45.0263 50.0396C44.989 49.9209 44.9762 49.8013 44.9878 49.6808C44.9972 49.5591 45.0314 49.4438 45.0903 49.3348C45.1327 49.2564 45.1858 49.1893 45.2496 49.1337C45.3113 49.0769 45.3787 49.033 45.4517 49.0021C45.4343 48.9927 45.4179 48.9838 45.4027 48.9756C45.3874 48.9673 45.3722 48.9591 45.3569 48.9508C45.4052 48.8615 45.4541 48.771 45.5036 48.6794C45.553 48.5879 45.6013 48.4985 45.6484 48.4113C45.9275 48.5621 46.2098 48.7146 46.4953 48.869C46.7787 49.0221 47.0599 49.1741 47.3389 49.3248C47.2918 49.412 47.2435 49.5014 47.1941 49.593C47.1446 49.6845 47.0957 49.775 47.0474 49.8644ZM46.4356 49.9646C46.4921 49.86 46.4993 49.7555 46.4572 49.651C46.415 49.5466 46.3318 49.4608 46.2076 49.3936C46.0833 49.3265 45.9671 49.3045 45.8588 49.3277C45.7483 49.3497 45.6648 49.413 45.6083 49.5176C45.5506 49.6244 45.5417 49.7295 45.5816 49.8327C45.6228 49.9338 45.7066 50.0185 45.833 50.0868C45.9594 50.1552 46.0773 50.1794 46.1866 50.1596C46.2948 50.1364 46.3778 50.0715 46.4356 49.9646ZM48.1431 47.8367C48.1257 47.8273 48.1093 47.8184 48.0941 47.8102C48.0766 47.8008 48.0603 47.7919 48.045 47.7837C48.0614 47.8629 48.0627 47.9439 48.0489 48.0266C48.0386 48.1083 48.0122 48.1884 47.9698 48.2669C47.9097 48.3781 47.8314 48.4709 47.7348 48.5454C47.6382 48.62 47.53 48.6742 47.4103 48.7081C47.2896 48.7386 47.163 48.7462 47.0304 48.7309C46.899 48.7134 46.768 48.6694 46.6372 48.5987C46.5042 48.5268 46.3944 48.4407 46.3078 48.3404C46.2223 48.2379 46.1604 48.1284 46.122 48.0119C46.0847 47.8932 46.0719 47.7736 46.0835 47.6531C46.0929 47.5315 46.1271 47.4162 46.186 47.3072C46.2284 47.2287 46.2815 47.1616 46.3454 47.106C46.407 47.0492 46.4744 47.0053 46.5474 46.9744C46.4167 46.9037 46.2848 46.8325 46.1518 46.7606C46.0188 46.6887 45.8869 46.6175 45.7562 46.5468C45.8044 46.4574 45.8533 46.367 45.9028 46.2754C45.9523 46.1839 46.0006 46.0945 46.0477 46.0073C46.4423 46.2205 46.8401 46.4355 47.2412 46.6522C47.6423 46.869 48.0401 47.084 48.4347 47.2972C48.3876 47.3844 48.3393 47.4737 48.2898 47.5653C48.2403 47.6568 48.1914 47.7473 48.1431 47.8367ZM47.5313 47.937C47.5878 47.8323 47.595 47.7278 47.5529 47.6233C47.5108 47.5189 47.4276 47.4331 47.3033 47.366C47.1791 47.2988 47.0628 47.2768 46.9545 47.3C46.8441 47.322 46.7606 47.3853 46.704 47.4899C46.6463 47.5967 46.6374 47.7018 46.6774 47.8051C46.7185 47.9061 46.8023 47.9908 46.9287 48.0592C47.0551 48.1275 47.173 48.1517 47.2823 48.1319C47.3906 48.1088 47.4736 48.0438 47.5313 47.937Z" fill="#2F4ECD"/>
<path d="M46.484 66.2091C46.1178 66.0112 45.7472 65.811 45.3723 65.6083C44.9973 65.4057 44.6268 65.2055 44.2605 65.0076C44.3312 64.8768 44.4025 64.7449 44.4743 64.6119C44.5462 64.479 44.6175 64.3471 44.6881 64.2163C44.7753 64.055 44.8838 63.9221 45.0135 63.8175C45.141 63.7118 45.282 63.6359 45.4365 63.5898C45.5909 63.5438 45.7505 63.53 45.9151 63.5485C46.0787 63.5637 46.24 63.6143 46.3992 63.7003C46.5583 63.7863 46.6901 63.8941 46.7946 64.0238C46.9003 64.1514 46.9773 64.2929 47.0256 64.4486C47.0717 64.603 47.0865 64.7632 47.0702 64.9289C47.0517 65.0935 46.9988 65.2565 46.9116 65.4178C46.841 65.5486 46.7697 65.6805 46.6978 65.8135C46.626 65.9464 46.5547 66.0783 46.484 66.2091ZM45.2048 64.4955C45.1859 64.5303 45.1665 64.5663 45.1465 64.6034C45.1264 64.6404 45.1064 64.6775 45.0864 64.7145C45.2826 64.8206 45.481 64.9278 45.6815 65.0361C45.8821 65.1445 46.0804 65.2517 46.2766 65.3577C46.2966 65.3207 46.3167 65.2836 46.3367 65.2465C46.3567 65.2095 46.3761 65.1735 46.395 65.1386C46.4539 65.0296 46.479 64.9207 46.4702 64.8118C46.4615 64.7028 46.4242 64.6024 46.3584 64.5105C46.2904 64.4174 46.1998 64.3403 46.0864 64.279C45.973 64.2178 45.8599 64.1848 45.747 64.1801C45.634 64.1754 45.5307 64.1998 45.437 64.2534C45.3411 64.3058 45.2637 64.3865 45.2048 64.4955ZM48.2736 64.1483C48.1816 64.0423 48.0891 63.9346 47.9962 63.8252C47.9066 63.7148 47.8168 63.6072 47.7271 63.5023C47.421 63.4693 47.1116 63.4373 46.7988 63.4063C46.4851 63.3719 46.1751 63.3382 45.8691 63.3052C45.9209 63.2093 45.9728 63.1134 46.0246 63.0175C46.0764 62.9216 46.1277 62.8267 46.1783 62.733C46.3485 62.7517 46.5208 62.7716 46.6953 62.7927C46.8709 62.8116 47.0449 62.8309 47.2173 62.8508C47.1038 62.722 46.9899 62.5914 46.8755 62.4591C46.7611 62.3269 46.6482 62.1969 46.537 62.0692C46.5877 61.9755 46.6383 61.8818 46.689 61.788C46.7396 61.6943 46.7903 61.6005 46.8409 61.5068C47.126 61.8496 47.416 62.1964 47.7109 62.5472C48.0047 62.8947 48.2942 63.2399 48.5793 63.5826C48.5286 63.6764 48.4774 63.7712 48.4256 63.8671C48.3749 63.9608 48.3242 64.0546 48.2736 64.1483ZM48.6198 62.2567C48.3408 62.1059 48.0596 61.954 47.7762 61.8008C47.4907 61.6465 47.2084 61.494 46.9293 61.3432C46.9776 61.2538 47.0265 61.1634 47.076 61.0718C47.1255 60.9802 47.1738 60.8909 47.2209 60.8037C47.2361 60.8119 47.2503 60.8196 47.2634 60.8266C47.2765 60.8337 47.2906 60.8414 47.3059 60.8496C47.2963 60.7684 47.3 60.6859 47.3171 60.6022C47.3332 60.5151 47.3642 60.4291 47.4101 60.344C47.4773 60.2198 47.5645 60.1261 47.6718 60.063C47.7803 59.9977 47.9021 59.9678 48.0372 59.9732C48.1713 59.9752 48.3125 60.0163 48.4607 60.0964C48.6307 60.1883 48.8018 60.2808 48.9741 60.3738C49.1463 60.4669 49.3174 60.5593 49.4874 60.6512C49.4403 60.7384 49.392 60.8278 49.3425 60.9194C49.2931 61.0109 49.2442 61.1014 49.1959 61.1908C49.0389 61.1059 48.8798 61.0199 48.7185 60.9328C48.5572 60.8456 48.398 60.7596 48.2411 60.6748C48.1539 60.6277 48.0729 60.6107 47.9982 60.6238C47.9225 60.6336 47.8611 60.6821 47.814 60.7693C47.7669 60.8565 47.7554 60.9376 47.7797 61.0127C47.8039 61.0877 47.8629 61.1506 47.9566 61.2012C48.1136 61.2861 48.2727 61.372 48.434 61.4592C48.5953 61.5464 48.7544 61.6324 48.9114 61.7172C48.8643 61.8044 48.816 61.8938 48.7665 61.9853C48.717 62.0769 48.6681 62.1673 48.6198 62.2567ZM50.2768 59.1904C50.2594 59.1809 50.2431 59.1721 50.2278 59.1639C50.2104 59.1544 50.194 59.1456 50.1788 59.1374C50.1951 59.2166 50.1964 59.2976 50.1827 59.3803C50.1723 59.462 50.1459 59.5421 50.1035 59.6206C50.0434 59.7317 49.9662 59.8252 49.8718 59.9009C49.7752 59.9754 49.667 60.0296 49.5473 60.0635C49.4266 60.0941 49.3 60.1017 49.1674 60.0864C49.036 60.0689 48.9039 60.0242 48.7709 59.9524C48.6357 59.8793 48.5249 59.7927 48.4382 59.6923C48.3528 59.5898 48.292 59.4809 48.2557 59.3656C48.2185 59.2469 48.2056 59.1273 48.2172 59.0068C48.2266 58.8851 48.2608 58.7698 48.3197 58.6608C48.3621 58.5824 48.4152 58.5153 48.4791 58.4597C48.5408 58.4029 48.6081 58.359 48.6812 58.3281C48.6637 58.3187 48.6474 58.3098 48.6321 58.3016C48.6169 58.2933 48.6016 58.2851 48.5863 58.2768C48.6346 58.1875 48.6835 58.097 48.733 58.0054C48.7825 57.9139 48.8308 57.8245 48.8779 57.7373C49.1569 57.8881 49.4392 58.0406 49.7248 58.195C50.0082 58.3481 50.2894 58.5001 50.5684 58.6508C50.5213 58.738 50.473 58.8274 50.4235 58.919C50.374 59.0105 50.3251 59.101 50.2768 59.1904ZM49.665 59.2906C49.7215 59.186 49.7287 59.0815 49.6866 58.977C49.6445 58.8726 49.5613 58.7868 49.437 58.7196C49.3128 58.6525 49.1965 58.6305 49.0882 58.6537C48.9778 58.6757 48.8943 58.739 48.8377 58.8436C48.78 58.9504 48.7711 59.0555 48.8111 59.1587C48.8522 59.2598 48.936 59.3445 49.0624 59.4128C49.1889 59.4812 49.3067 59.5054 49.416 59.4856C49.5243 59.4624 49.6073 59.3975 49.665 59.2906ZM50.763 58.2908C50.4839 58.14 50.2027 57.988 49.9194 57.8349C49.6338 57.6806 49.3515 57.528 49.0725 57.3773C49.1208 57.2879 49.1697 57.1974 49.2191 57.1059C49.2686 57.0143 49.3169 56.9249 49.364 56.8377C49.3793 56.846 49.3934 56.8536 49.4065 56.8607C49.4196 56.8678 49.4338 56.8754 49.449 56.8837C49.4382 56.8046 49.4408 56.7243 49.4567 56.6428C49.4704 56.5601 49.4973 56.4817 49.5373 56.4075C49.5809 56.3269 49.6352 56.2604 49.7 56.2082C49.7627 56.1547 49.8331 56.1182 49.9114 56.0985C49.8989 56.0016 49.9021 55.9019 49.9209 55.7994C49.9408 55.6947 49.9761 55.5955 50.0268 55.5018C50.0987 55.3688 50.1877 55.2691 50.2941 55.2026C50.4016 55.134 50.5196 55.1006 50.6481 55.1025C50.7779 55.1022 50.9136 55.1403 51.0553 55.2169C51.2297 55.3111 51.4062 55.4065 51.585 55.5031C51.7637 55.5997 51.9403 55.6951 52.1147 55.7894C52.0676 55.8766 52.0193 55.9659 51.9698 56.0575C51.9203 56.149 51.8714 56.2395 51.8231 56.3289C51.6597 56.2405 51.494 56.151 51.3261 56.0603C51.1583 55.9696 50.9926 55.8801 50.8291 55.7917C50.755 55.7517 50.6856 55.7367 50.621 55.7469C50.5554 55.7536 50.5025 55.7941 50.4625 55.8682C50.4236 55.9401 50.4159 56.0092 50.4393 56.0753C50.4617 56.1381 50.5121 56.1907 50.5906 56.2332C50.7541 56.3215 50.9197 56.411 51.0876 56.5017C51.2554 56.5924 51.4211 56.682 51.5846 56.7703C51.5375 56.8575 51.4892 56.9469 51.4397 57.0384C51.3902 57.13 51.3414 57.2205 51.2931 57.3098C51.1296 57.2215 50.9639 57.132 50.796 57.0412C50.6282 56.9505 50.4625 56.861 50.299 56.7727C50.2249 56.7326 50.1555 56.7177 50.0909 56.7278C50.0253 56.7346 49.9725 56.775 49.9324 56.8492C49.8935 56.9211 49.8858 56.9901 49.9092 57.0563C49.9316 57.1191 49.982 57.1717 50.0605 57.2141C50.224 57.3024 50.3897 57.392 50.5575 57.4827C50.7254 57.5734 50.891 57.6629 51.0545 57.7513C51.0074 57.8384 50.9591 57.9278 50.9096 58.0194C50.8602 58.1109 50.8113 58.2014 50.763 58.2908ZM50.5673 54.1497C50.5332 54.2129 50.4867 54.2624 50.4279 54.2983C50.3703 54.3319 50.3082 54.3505 50.2415 54.3539C50.1749 54.3573 50.1111 54.3425 50.05 54.3095C49.989 54.2766 49.9428 54.2318 49.9113 54.1754C49.8776 54.1178 49.8591 54.0557 49.8557 53.9891C49.8534 53.9202 49.8694 53.8542 49.9036 53.791C49.9365 53.73 49.9818 53.6826 50.0395 53.649C50.0982 53.6132 50.1609 53.5935 50.2276 53.5901C50.292 53.5855 50.3548 53.5997 50.4158 53.6327C50.4768 53.6657 50.5242 53.711 50.5578 53.7686C50.5915 53.8262 50.6094 53.8894 50.6117 53.9582C50.6151 54.0248 50.6003 54.0887 50.5673 54.1497ZM52.3041 55.4389C52.0251 55.2881 51.7439 55.1361 51.4605 54.983C51.1749 54.8287 50.8926 54.6761 50.6136 54.5254C50.6619 54.436 50.7108 54.3455 50.7603 54.254C50.8097 54.1624 50.858 54.073 50.9051 53.9858C51.1842 54.1366 51.4665 54.2892 51.752 54.4435C52.0354 54.5966 52.3166 54.7486 52.5956 54.8994C52.5485 54.9865 52.5002 55.0759 52.4507 55.1675C52.4013 55.259 52.3524 55.3495 52.3041 55.4389ZM51.9028 54.1567C51.7371 54.0672 51.6104 53.9551 51.5226 53.8204C51.4327 53.6845 51.382 53.5359 51.3705 53.3748C51.359 53.2137 51.3886 53.0495 51.4594 52.8821C51.5279 52.7135 51.6383 52.5535 51.7906 52.402C51.8734 52.4468 51.9573 52.4921 52.0424 52.5381C52.1274 52.584 52.2113 52.6294 52.2941 52.6741C52.1648 52.7676 52.0711 52.8733 52.013 52.9911C51.9549 53.109 51.9396 53.2233 51.9672 53.3339C51.9925 53.4434 52.0706 53.5334 52.2014 53.6041C52.3322 53.6748 52.4514 53.6913 52.559 53.6537C52.6645 53.615 52.7506 53.539 52.8174 53.4258C52.882 53.3115 52.919 53.1752 52.9285 53.0169C53.0113 53.0617 53.0952 53.107 53.1803 53.153C53.2653 53.1989 53.3492 53.2443 53.432 53.289C53.3888 53.4994 53.3154 53.6795 53.212 53.8292C53.1107 53.9801 52.9896 54.0948 52.8485 54.1735C52.7074 54.2522 52.5565 54.2917 52.3957 54.2921C52.2327 54.2914 52.0684 54.2463 51.9028 54.1567ZM53.8142 51.3934C53.9494 51.4665 54.0399 51.5647 54.0859 51.6881C54.1309 51.8082 54.1388 51.942 54.1097 52.0897C54.0807 52.2373 54.0204 52.3878 53.9291 52.5412C53.8411 52.6937 53.7306 52.8381 53.5977 52.9747C53.5148 52.93 53.4298 52.884 53.3426 52.8369C53.2554 52.7898 53.1704 52.7438 53.0876 52.6991C53.1785 52.6299 53.2606 52.556 53.3341 52.4774C53.4054 52.3976 53.4632 52.3219 53.5076 52.2501C53.552 52.1784 53.579 52.1155 53.5884 52.0614C53.5957 52.0062 53.5798 51.968 53.5405 51.9468C53.51 51.9303 53.4754 51.937 53.4368 51.9668C53.3993 51.9944 53.3576 52.0353 53.3115 52.0892C53.2633 52.142 53.2105 52.198 53.1532 52.2571C53.0949 52.3129 53.0307 52.3613 52.9606 52.4023C52.8884 52.4422 52.8101 52.4646 52.7257 52.4697C52.6403 52.4714 52.5463 52.4446 52.4439 52.3892C52.3218 52.3233 52.2371 52.2324 52.1898 52.1167C52.1414 51.9977 52.1279 51.8664 52.1491 51.723C52.1681 51.5784 52.2176 51.4319 52.2977 51.2837C52.3778 51.1355 52.4848 50.9975 52.6186 50.8698C52.7014 50.9146 52.7864 50.9605 52.8736 51.0076C52.9608 51.0548 53.0458 51.1007 53.1286 51.1455C53.0038 51.2357 52.9027 51.329 52.8254 51.4252C52.7481 51.5214 52.6994 51.6063 52.6793 51.68C52.657 51.7524 52.6688 51.801 52.7146 51.8258C52.7451 51.8423 52.7791 51.8367 52.8165 51.8091C52.853 51.7781 52.8937 51.7367 52.9385 51.6849C52.9846 51.6309 53.0368 51.576 53.0951 51.5202C53.1546 51.4623 53.2199 51.4145 53.2909 51.3768C53.361 51.3358 53.4398 51.315 53.5274 51.3145C53.614 51.3106 53.7096 51.3369 53.8142 51.3934Z" fill="#2F4ECD"/>
</svg>
