<svg width="111" height="101" viewBox="0 0 111 101" fill="none" xmlns="http://www.w3.org/2000/svg">
<rect x="14.6861" y="70.6752" width="6.01644" height="9.4947" transform="rotate(-69.8178 14.6861 70.6752)" fill="#926AE3"/>
<rect x="12.1236" y="44.1664" width="6.01644" height="9.4947" transform="rotate(-69.8178 12.1236 44.1664)" fill="#926AE3"/>
<rect x="20.4815" y="81.3949" width="55.182" height="65.8048" rx="6.67449" transform="rotate(-95.4357 20.4815 81.3949)" fill="#F4E3D5"/>
<rect x="14.6402" y="70.6186" width="6.01644" height="9.49469" transform="rotate(-95.4357 14.6402 70.6186)" fill="#BC9BFF"/>
<mask id="mask0_139_716" style="mask-type:alpha" maskUnits="userSpaceOnUse" x="67" y="13" width="29" height="64">
<rect x="73.2633" y="76.3725" width="61.4805" height="22.1856" transform="rotate(-95.4357 73.2633 76.3725)" fill="#6CBDAA"/>
</mask>
<g mask="url(#mask0_139_716)">
<path d="M27.125 80.7617C23.4554 81.1109 20.1975 78.4191 19.8483 74.7495L15.8855 33.1045C15.5363 29.4349 18.2281 26.177 21.8977 25.8278L74.1177 20.8588C77.7873 20.5096 81.0452 23.2013 81.3944 26.871L85.3572 68.5159C85.7064 72.1856 83.0146 75.4435 79.345 75.7926L27.125 80.7617Z" fill="#BC9BFF"/>
</g>
<rect x="12.1207" y="44.1361" width="6.01644" height="9.49469" transform="rotate(-95.4357 12.1207 44.1361)" fill="#BC9BFF"/>
<path d="M30.3061 35.2219C29.1498 36.1235 28.1633 38.9133 29.4116 37.7098C30.376 36.7802 30.4117 35.9031 30.3061 35.2219Z" stroke="#404040" stroke-width="0.376027"/>
<path d="M30.8132 34.1609C32.2634 34.3619 34.5056 36.2838 32.8255 35.8675C31.5277 35.5459 31.0606 34.804 30.8132 34.1609Z" stroke="#404040" stroke-width="0.376027"/>
<path d="M34.5103 74.016L30.8459 35.5061" stroke="#404040" stroke-width="0.376027"/>
<ellipse cx="28.8949" cy="34.0417" rx="0.587686" ry="1.10928" transform="rotate(-95.4357 28.8949 34.0417)" fill="#FFB1B1"/>
<ellipse cx="0.585762" cy="1.11295" rx="0.585762" ry="1.11295" transform="matrix(0.634405 -0.773001 0.768811 0.639476 28.1056 32.5297)" fill="#FFB1B1"/>
<ellipse cx="0.584009" cy="1.11627" rx="0.584009" ry="1.11627" transform="matrix(0.951696 -0.307041 0.30442 0.952538 30.1695 34.5024)" fill="#FFB1B1"/>
<ellipse cx="0.584692" cy="1.11498" rx="0.584692" ry="1.11498" transform="matrix(0.921388 0.388644 -0.383595 0.923501 29.5933 34.0365)" fill="#FFB1B1"/>
<ellipse cx="0.587207" cy="1.1102" rx="0.587207" ry="1.1102" transform="matrix(-0.260887 0.965369 -0.964226 -0.265082 33.3028 34.0561)" fill="#FFB1B1"/>
<ellipse cx="0.585762" cy="1.11295" rx="0.585762" ry="1.11295" transform="matrix(0.768811 0.639476 -0.634405 0.773001 31.9503 31.5365)" fill="#FFB1B1"/>
<ellipse cx="30.4761" cy="32.1788" rx="0.583832" ry="1.1166" transform="rotate(-5.43568 30.4761 32.1788)" fill="#FFB1B1"/>
<ellipse cx="30.4545" cy="33.8631" rx="0.993588" ry="0.987072" transform="rotate(-95.4357 30.4545 33.8631)" fill="#A46443"/>
<path d="M37.6064 34.5256C36.4501 35.4272 35.4635 38.217 36.7119 37.0135C37.6763 36.0839 37.712 35.2068 37.6064 34.5256Z" stroke="#404040" stroke-width="0.376027"/>
<path d="M38.1125 33.4656C39.5627 33.6666 41.8049 35.5885 40.1248 35.1722C38.827 34.8506 38.3599 34.1086 38.1125 33.4656Z" stroke="#404040" stroke-width="0.376027"/>
<path d="M41.8106 73.3207L38.1462 34.8108" stroke="#404040" stroke-width="0.376027"/>
<ellipse cx="36.1937" cy="33.3435" rx="0.587686" ry="1.10928" transform="rotate(-95.4357 36.1937 33.3435)" fill="#FFB1B1"/>
<ellipse cx="0.585762" cy="1.11295" rx="0.585762" ry="1.11295" transform="matrix(0.634405 -0.773001 0.768811 0.639476 35.4034 31.8315)" fill="#FFB1B1"/>
<ellipse cx="0.584009" cy="1.11627" rx="0.584009" ry="1.11627" transform="matrix(0.951696 -0.307041 0.30442 0.952538 37.4688 33.8051)" fill="#FFB1B1"/>
<ellipse cx="0.584692" cy="1.11498" rx="0.584692" ry="1.11498" transform="matrix(0.921388 0.388644 -0.383595 0.923501 36.8927 33.3393)" fill="#FFB1B1"/>
<ellipse cx="0.587207" cy="1.1102" rx="0.587207" ry="1.1102" transform="matrix(-0.260887 0.965369 -0.964226 -0.265082 40.6007 33.3578)" fill="#FFB1B1"/>
<ellipse cx="0.585762" cy="1.11295" rx="0.585762" ry="1.11295" transform="matrix(0.768811 0.639476 -0.634405 0.773001 39.2486 30.8393)" fill="#FFB1B1"/>
<ellipse cx="37.7759" cy="31.4805" rx="0.583832" ry="1.1166" transform="rotate(-5.43568 37.7759 31.4805)" fill="#FFB1B1"/>
<ellipse cx="37.7529" cy="33.1649" rx="0.993588" ry="0.987072" transform="rotate(-95.4357 37.7529 33.1649)" fill="#A46443"/>
<path d="M45.0009 33.8245C43.8446 34.7261 42.8581 37.5159 44.1065 36.3124C45.0708 35.3827 45.1065 34.5056 45.0009 33.8245Z" stroke="#404040" stroke-width="0.376027"/>
<path d="M45.5071 32.7644C46.9572 32.9654 49.1994 34.8873 47.5193 34.471C46.2216 34.1494 45.7544 33.4075 45.5071 32.7644Z" stroke="#404040" stroke-width="0.376027"/>
<path d="M49.2052 72.6186L45.5407 34.1087" stroke="#404040" stroke-width="0.376027"/>
<ellipse cx="43.5878" cy="32.6433" rx="0.587686" ry="1.10928" transform="rotate(-95.4357 43.5878 32.6433)" fill="#FFB1B1"/>
<ellipse cx="0.585762" cy="1.11295" rx="0.585762" ry="1.11295" transform="matrix(0.634405 -0.773001 0.768811 0.639476 42.7994 31.1322)" fill="#FFB1B1"/>
<ellipse cx="0.584009" cy="1.11627" rx="0.584009" ry="1.11627" transform="matrix(0.951696 -0.307041 0.30442 0.952538 44.8643 33.1059)" fill="#FFB1B1"/>
<ellipse cx="0.584692" cy="1.11498" rx="0.584692" ry="1.11498" transform="matrix(0.921388 0.388644 -0.383595 0.923501 44.2887 32.6401)" fill="#FFB1B1"/>
<ellipse cx="0.587207" cy="1.1102" rx="0.587207" ry="1.1102" transform="matrix(-0.260887 0.965369 -0.964226 -0.265082 47.9967 32.6586)" fill="#FFB1B1"/>
<ellipse cx="0.585762" cy="1.11295" rx="0.585762" ry="1.11295" transform="matrix(0.768811 0.639476 -0.634405 0.773001 46.6446 30.1401)" fill="#FFB1B1"/>
<ellipse cx="45.171" cy="30.7823" rx="0.583832" ry="1.1166" transform="rotate(-5.43568 45.171 30.7823)" fill="#FFB1B1"/>
<ellipse cx="45.1489" cy="32.4656" rx="0.993588" ry="0.987072" transform="rotate(-95.4357 45.1489 32.4656)" fill="#A46443"/>
<path d="M52.3916 33.1194C51.2352 34.021 50.2487 36.8108 51.4971 35.6073C52.4614 34.6776 52.4971 33.8005 52.3916 33.1194Z" stroke="#404040" stroke-width="0.376027"/>
<path d="M52.8982 32.0584C54.3483 32.2593 56.5905 34.1813 54.9105 33.7649C53.6127 33.4434 53.1455 32.7014 52.8982 32.0584Z" stroke="#404040" stroke-width="0.376027"/>
<path d="M56.5958 71.9145L52.9313 33.4046" stroke="#404040" stroke-width="0.376027"/>
<ellipse cx="50.9799" cy="31.9392" rx="0.587686" ry="1.10928" transform="rotate(-95.4357 50.9799 31.9392)" fill="#FFB1B1"/>
<ellipse cx="0.585762" cy="1.11295" rx="0.585762" ry="1.11295" transform="matrix(0.634405 -0.773001 0.768811 0.639476 50.191 30.4281)" fill="#FFB1B1"/>
<ellipse cx="0.584009" cy="1.11627" rx="0.584009" ry="1.11627" transform="matrix(0.951696 -0.307041 0.30442 0.952538 52.2559 32.4018)" fill="#FFB1B1"/>
<ellipse cx="0.584692" cy="1.11498" rx="0.584692" ry="1.11498" transform="matrix(0.921388 0.388644 -0.383595 0.923501 51.6798 31.936)" fill="#FFB1B1"/>
<ellipse cx="0.587207" cy="1.1102" rx="0.587207" ry="1.1102" transform="matrix(-0.260887 0.965369 -0.964226 -0.265082 55.3883 31.9545)" fill="#FFB1B1"/>
<ellipse cx="0.585762" cy="1.11295" rx="0.585762" ry="1.11295" transform="matrix(0.768811 0.639476 -0.634405 0.773001 54.0362 29.435)" fill="#FFB1B1"/>
<ellipse cx="52.5626" cy="30.0782" rx="0.583832" ry="1.1166" transform="rotate(-5.43568 52.5626 30.0782)" fill="#FFB1B1"/>
<ellipse cx="52.5405" cy="31.7615" rx="0.993588" ry="0.987072" transform="rotate(-95.4357 52.5405 31.7615)" fill="#A46443"/>
<path d="M59.7871 32.4163C58.6307 33.3178 57.6442 36.1077 58.8926 34.9042C59.8569 33.9745 59.8926 33.0974 59.7871 32.4163Z" stroke="#404040" stroke-width="0.376027"/>
<path d="M60.2922 31.3553C61.7424 31.5562 63.9846 33.4781 62.3045 33.0618C61.0067 32.7402 60.5396 31.9983 60.2922 31.3553Z" stroke="#404040" stroke-width="0.376027"/>
<path d="M63.9908 71.2104L60.3264 32.7005" stroke="#404040" stroke-width="0.376027"/>
<ellipse cx="58.3734" cy="31.2361" rx="0.587686" ry="1.10928" transform="rotate(-95.4357 58.3734 31.2361)" fill="#FFB1B1"/>
<ellipse cx="0.585762" cy="1.11295" rx="0.585762" ry="1.11295" transform="matrix(0.634405 -0.773001 0.768811 0.639476 57.585 29.725)" fill="#FFB1B1"/>
<ellipse cx="0.584009" cy="1.11627" rx="0.584009" ry="1.11627" transform="matrix(0.951696 -0.307041 0.30442 0.952538 59.6495 31.6977)" fill="#FFB1B1"/>
<ellipse cx="0.584692" cy="1.11498" rx="0.584692" ry="1.11498" transform="matrix(0.921388 0.388644 -0.383595 0.923501 59.0733 31.2319)" fill="#FFB1B1"/>
<ellipse cx="0.587207" cy="1.1102" rx="0.587207" ry="1.1102" transform="matrix(-0.260887 0.965369 -0.964226 -0.265082 62.7818 31.2504)" fill="#FFB1B1"/>
<ellipse cx="0.585762" cy="1.11295" rx="0.585762" ry="1.11295" transform="matrix(0.768811 0.639476 -0.634405 0.773001 61.4303 28.7319)" fill="#FFB1B1"/>
<ellipse cx="59.9561" cy="29.3741" rx="0.583832" ry="1.1166" transform="rotate(-5.43568 59.9561 29.3741)" fill="#FFB1B1"/>
<ellipse cx="59.934" cy="31.0574" rx="0.993588" ry="0.987072" transform="rotate(-95.4357 59.934 31.0574)" fill="#A46443"/>
<path d="M32.9203 74.0128C32.5059 74.0523 32.0865 74.0922 31.6623 74.1325C31.238 74.1729 30.8187 74.2128 30.4043 74.2522C30.3902 74.1042 30.3761 73.9562 30.362 73.8082C30.3477 73.6578 30.3335 73.5085 30.3194 73.3605C30.3016 73.1731 30.3217 73.0056 30.3799 72.8582C30.4356 72.7111 30.5239 72.5931 30.6449 72.5045C30.7632 72.4136 30.9074 72.36 31.0776 72.3438C31.2232 72.33 31.3555 72.3473 31.4746 72.3957C31.5937 72.4441 31.6938 72.5154 31.775 72.6097C31.9308 72.4954 32.0892 72.3807 32.25 72.2659C32.4081 72.1488 32.5651 72.033 32.721 71.9186C32.7325 72.0395 32.744 72.1604 32.7555 72.2812C32.767 72.4021 32.7785 72.523 32.79 72.6438C32.6591 72.7334 32.5259 72.8245 32.3904 72.9171C32.2546 73.0071 32.1214 73.0982 31.9907 73.1903C31.9947 73.2322 31.9988 73.2754 32.0031 73.3198C32.0071 73.3617 32.0111 73.4037 32.015 73.4456C32.1532 73.4325 32.2938 73.4191 32.4368 73.4055C32.5799 73.3919 32.7205 73.3785 32.8586 73.3653C32.8687 73.4714 32.8789 73.5787 32.8893 73.6872C32.8996 73.7958 32.9099 73.9043 32.9203 74.0128ZM30.904 73.3049C30.9078 73.3444 30.9116 73.3851 30.9156 73.427C30.9194 73.4665 30.9233 73.5072 30.9272 73.5491C31.0185 73.5404 31.1098 73.5317 31.201 73.5231C31.2923 73.5144 31.3836 73.5057 31.4748 73.497C31.4704 73.4501 31.4659 73.4033 31.4615 73.3564C31.457 73.3095 31.4525 73.2627 31.4481 73.2158C31.441 73.1418 31.4094 73.0838 31.3531 73.0419C31.2944 73.0002 31.2268 72.983 31.1503 72.9903C31.0714 72.9978 31.0085 73.0299 30.9616 73.0866C30.9145 73.1409 30.8953 73.2137 30.904 73.3049ZM32.4631 70.1499C32.5508 70.3133 32.6113 70.478 32.6445 70.6441C32.6777 70.8102 32.683 70.9702 32.6603 71.1242C32.6399 71.2755 32.592 71.4132 32.5167 71.5374C32.4414 71.6615 32.3403 71.7632 32.2134 71.8425C32.0863 71.9193 31.9352 71.966 31.7601 71.9827C31.6146 71.9966 31.4791 71.9858 31.3538 71.9504C31.2258 71.9128 31.1119 71.854 31.0122 71.7739C30.91 71.694 30.8285 71.596 30.7677 71.4798C30.7044 71.3638 30.6659 71.2343 30.6523 71.0913C30.6401 70.963 30.65 70.8451 30.6821 70.7375C30.7142 70.6299 30.7648 70.5342 30.834 70.4505C30.9007 70.367 30.9837 70.2969 31.0828 70.2401C31.1819 70.1834 31.2926 70.143 31.4147 70.119C31.5369 70.0949 31.6683 70.0898 31.8091 70.1038C31.8283 70.3061 31.8477 70.5096 31.8672 70.7143C31.8866 70.9191 31.906 71.1226 31.9252 71.3248C32.0145 71.269 32.0737 71.185 32.1029 71.0727C32.1318 70.958 32.1317 70.8261 32.1025 70.677C32.0732 70.5255 32.0182 70.3664 31.9377 70.1999C32.024 70.1917 32.1116 70.1833 32.2004 70.1749C32.2892 70.1664 32.3767 70.1581 32.4631 70.1499ZM31.2013 71.054C31.2081 71.1255 31.2342 71.1902 31.2795 71.2481C31.3246 71.3036 31.3894 71.3435 31.4738 71.3678C31.4633 71.2568 31.4527 71.1458 31.4422 71.0348C31.4314 70.9213 31.4207 70.8091 31.4101 70.6981C31.3291 70.7357 31.2729 70.7858 31.2415 70.8485C31.2074 70.909 31.194 70.9775 31.2013 71.054ZM32.507 69.6701C32.0606 69.7126 31.6104 69.7554 31.1565 69.7986C30.7027 69.8418 30.2525 69.8846 29.806 69.9271C29.7964 69.826 29.7867 69.7236 29.7768 69.62C29.7669 69.5164 29.7573 69.4153 29.7479 69.3166C30.1944 69.2741 30.6446 69.2313 31.0984 69.1881C31.5523 69.1449 32.0025 69.1021 32.4489 69.0596C32.4583 69.1583 32.4679 69.2594 32.4778 69.363C32.4877 69.4666 32.4974 69.569 32.507 69.6701ZM32.2869 67.357C32.2672 67.3589 32.2487 67.3607 32.2314 67.3623C32.2117 67.3642 32.1932 67.366 32.1759 67.3676C32.2336 67.4243 32.2797 67.4909 32.3144 67.5672C32.3513 67.6409 32.3739 67.7221 32.3824 67.8109C32.3943 67.9367 32.3822 68.0573 32.3459 68.1728C32.3071 68.2885 32.2474 68.3937 32.1668 68.4885C32.0836 68.5811 31.9826 68.6579 31.864 68.7189C31.7451 68.7775 31.6104 68.814 31.4599 68.8283C31.307 68.8429 31.1666 68.8326 31.0389 68.7975C30.9108 68.7599 30.7997 68.7032 30.7053 68.6276C30.6083 68.5497 30.5311 68.4575 30.4737 68.3509C30.4138 68.2446 30.378 68.1298 30.3662 68.0065C30.3578 67.9177 30.3646 67.8324 30.3867 67.7507C30.4063 67.6691 30.4379 67.5952 30.4813 67.5289C30.4616 67.5307 30.4431 67.5325 30.4258 67.5341C30.4086 67.5358 30.3913 67.5374 30.374 67.5391C30.3644 67.4379 30.3547 67.3356 30.3448 67.232C30.3349 67.1284 30.3253 67.0272 30.3159 66.9286C30.6317 66.8985 30.9511 66.8681 31.2742 66.8374C31.5949 66.8069 31.9131 66.7766 32.2288 66.7465C32.2382 66.8452 32.2478 66.9463 32.2577 67.0499C32.2676 67.1535 32.2773 67.2559 32.2869 67.357ZM31.8344 67.7809C31.8232 67.6625 31.771 67.5717 31.6778 67.5083C31.5847 67.445 31.4678 67.42 31.3272 67.4334C31.1866 67.4468 31.0778 67.4933 31.0007 67.5728C30.9212 67.6525 30.8871 67.7516 30.8983 67.87C30.9098 67.9909 30.9609 68.0831 31.0516 68.1466C31.142 68.2077 31.2588 68.2314 31.4018 68.2178C31.5449 68.2042 31.6563 68.1588 31.7361 68.0815C31.8131 68.002 31.8459 67.9018 31.8344 67.7809ZM30.2919 66.6765C30.2811 66.5631 30.2703 66.4496 30.2596 66.3361C30.2488 66.2227 30.238 66.1092 30.2272 65.9957C30.2969 65.9443 30.3678 65.8915 30.4398 65.8374C30.5094 65.7834 30.579 65.7308 30.6488 65.6793C30.5703 65.6395 30.4919 65.5997 30.4134 65.5599C30.3325 65.5203 30.2528 65.4806 30.1744 65.4407C30.1638 65.3297 30.1531 65.2175 30.1423 65.104C30.1315 64.9906 30.1208 64.8783 30.1103 64.7673C30.2699 64.8492 30.431 64.9334 30.5935 65.02C30.7559 65.1041 30.9181 65.187 31.0802 65.2687C31.2358 65.1518 31.3926 65.0336 31.5504 64.914C31.7083 64.7945 31.8652 64.6775 32.0211 64.5631C32.0319 64.6766 32.0426 64.79 32.0534 64.9035C32.0642 65.017 32.075 65.1304 32.0858 65.2439C32.0067 65.3012 31.9276 65.3598 31.8487 65.4195C31.767 65.4771 31.6866 65.5345 31.6075 65.5918C31.696 65.6332 31.786 65.6769 31.8775 65.7229C31.9663 65.7668 32.055 65.8094 32.1436 65.8507C32.1541 65.9617 32.1648 66.0739 32.1756 66.1874C32.1864 66.3009 32.1971 66.4131 32.2077 66.5241C32.0377 66.4382 31.8652 66.3514 31.69 66.2635C31.5124 66.1758 31.3387 66.0891 31.1687 66.0032C31.0249 66.114 30.8788 66.2262 30.7303 66.3399C30.5819 66.4536 30.4357 66.5658 30.2919 66.6765ZM31.8853 63.1367C31.8656 63.1386 31.8471 63.1404 31.8298 63.142C31.8101 63.1439 31.7916 63.1457 31.7743 63.1473C31.832 63.204 31.8782 63.2706 31.9128 63.3469C31.9497 63.4206 31.9723 63.5018 31.9808 63.5906C31.9928 63.7164 31.9806 63.837 31.9443 63.9525C31.9055 64.0682 31.8458 64.1734 31.7653 64.2682C31.682 64.3608 31.581 64.4376 31.4624 64.4986C31.3435 64.5572 31.2088 64.5937 31.0584 64.608C30.9054 64.6226 30.7651 64.6123 30.6373 64.5772C30.5092 64.5396 30.3981 64.4829 30.3038 64.4073C30.2067 64.3294 30.1295 64.2372 30.0721 64.1306C30.0122 64.0243 29.9764 63.9095 29.9646 63.7862C29.9562 63.6974 29.963 63.6121 29.9851 63.5304C30.0047 63.4488 30.0363 63.3749 30.0797 63.3085C30.06 63.3104 30.0415 63.3122 30.0242 63.3138C30.007 63.3155 29.9897 63.3171 29.9724 63.3188C29.9628 63.2176 29.9531 63.1153 29.9432 63.0117C29.9334 62.9081 29.9237 62.8069 29.9143 62.7083C30.2301 62.6782 30.5495 62.6478 30.8726 62.6171C31.1933 62.5866 31.5115 62.5563 31.8272 62.5262C31.8366 62.6249 31.8462 62.726 31.8561 62.8296C31.866 62.9332 31.8757 63.0356 31.8853 63.1367ZM31.4328 63.5606C31.4216 63.4422 31.3694 63.3513 31.2762 63.288C31.1831 63.2247 31.0662 63.1997 30.9256 63.2131C30.785 63.2265 30.6762 63.2729 30.5991 63.3525C30.5196 63.4322 30.4855 63.5313 30.4967 63.6497C30.5082 63.7705 30.5593 63.8628 30.65 63.9263C30.7404 63.9874 30.8572 64.0111 31.0003 63.9975C31.1433 63.9839 31.2547 63.9385 31.3345 63.8612C31.4116 63.7817 31.4443 63.6815 31.4328 63.5606ZM31.7695 61.919C31.5425 61.9406 31.3144 61.9623 31.085 61.9841C30.8556 62.006 30.6286 62.0276 30.4042 62.0489C30.4088 62.0983 30.4137 62.1488 30.4186 62.2006C30.4233 62.25 30.428 62.2993 30.4327 62.3486C30.3414 62.3573 30.2501 62.366 30.1589 62.3747C30.0676 62.3834 29.9763 62.392 29.8851 62.4007C29.8804 62.3514 29.8757 62.3021 29.871 62.2527C29.8661 62.2009 29.8613 62.1504 29.8566 62.101C29.7702 62.1092 29.6851 62.1173 29.6013 62.1253C29.5149 62.1335 29.4298 62.1416 29.346 62.1496C29.3363 62.0485 29.3266 61.9461 29.3167 61.8425C29.3069 61.7389 29.2973 61.6378 29.2879 61.5391C29.3717 61.5311 29.4568 61.523 29.5432 61.5148C29.627 61.5068 29.7121 61.4987 29.7985 61.4905C29.7931 61.4338 29.7875 61.3758 29.7819 61.3166C29.7763 61.2574 29.7708 61.1995 29.7654 61.1427C29.8566 61.134 29.9479 61.1254 30.0392 61.1167C30.1304 61.108 30.2217 61.0993 30.313 61.0906C30.3184 61.1474 30.3239 61.2053 30.3295 61.2645C30.3351 61.3237 30.3407 61.3817 30.3461 61.4384C30.5705 61.4171 30.7975 61.3955 31.0269 61.3736C31.2563 61.3518 31.4844 61.3301 31.7114 61.3085C31.7207 61.4072 31.7304 61.5083 31.7402 61.6119C31.7501 61.7155 31.7598 61.8179 31.7695 61.919ZM29.4881 60.5435C29.4949 60.615 29.4838 60.682 29.4549 60.7445C29.4258 60.8045 29.3845 60.8545 29.3311 60.8944C29.2776 60.9344 29.2164 60.9576 29.1473 60.9642C29.0782 60.9707 29.0149 60.9593 28.9574 60.93C28.8973 60.9008 28.8474 60.8596 28.8074 60.8061C28.7673 60.7502 28.7438 60.6865 28.737 60.6149C28.7304 60.5459 28.7417 60.4813 28.7708 60.4213C28.7997 60.3588 28.8409 60.3076 28.8943 60.2677C28.9453 60.228 29.0053 60.2048 29.0744 60.1983C29.1435 60.1917 29.208 60.203 29.268 60.2321C29.3281 60.2613 29.3781 60.3038 29.4183 60.3597C29.4582 60.4131 29.4815 60.4744 29.4881 60.5435ZM31.6485 60.6478C31.3328 60.6778 31.0146 60.7081 30.6939 60.7386C30.3708 60.7694 30.0513 60.7997 29.7356 60.8298C29.726 60.7287 29.7162 60.6263 29.7064 60.5227C29.6965 60.4191 29.6869 60.318 29.6775 60.2193C29.9932 60.1892 30.3127 60.1589 30.6358 60.1281C30.9565 60.0976 31.2747 60.0673 31.5904 60.0373C31.5998 60.1359 31.6094 60.2371 31.6193 60.3407C31.6291 60.4443 31.6389 60.5466 31.6485 60.6478ZM31.5228 58.6991C31.5364 58.8421 31.5244 58.9777 31.4868 59.1057C31.4468 59.234 31.3854 59.3481 31.3028 59.448C31.2178 59.5482 31.1161 59.6301 30.9977 59.6936C30.879 59.7547 30.7469 59.7921 30.6014 59.806C30.4559 59.8198 30.3191 59.808 30.1911 59.7704C30.0628 59.7303 29.9487 59.669 29.8487 59.5864C29.7488 59.5038 29.6683 59.4032 29.6072 59.2846C29.5437 59.1662 29.5051 59.0354 29.4915 58.8924C29.4776 58.7468 29.4909 58.6112 29.5312 58.4854C29.5688 58.3573 29.6289 58.2433 29.7114 58.1434C29.794 58.0434 29.8946 57.9629 30.0133 57.9019C30.1317 57.8383 30.2636 57.7996 30.4092 57.7858C30.5547 57.7719 30.6916 57.785 30.8199 57.8251C30.9479 57.8627 31.0631 57.9227 31.1655 58.005C31.2655 58.0876 31.3472 58.1881 31.4108 58.3065C31.4716 58.4227 31.5089 58.5535 31.5228 58.6991ZM30.9715 58.7515C30.96 58.6307 30.9077 58.5386 30.8145 58.4752C30.7187 58.4097 30.6029 58.3834 30.4673 58.3963C30.3291 58.4094 30.2217 58.457 30.1448 58.539C30.0653 58.6187 30.0313 58.719 30.0428 58.8399C30.0543 58.9608 30.1067 59.0541 30.2001 59.1199C30.2908 59.1834 30.4052 59.2086 30.5433 59.1955C30.679 59.1826 30.7878 59.1361 30.8698 59.0561C30.9491 58.9739 30.983 58.8724 30.9715 58.7515ZM31.3387 57.3926C31.023 57.4227 30.7048 57.453 30.3841 57.4835C30.061 57.5142 29.7416 57.5446 29.4258 57.5747C29.4162 57.4735 29.4065 57.3712 29.3966 57.2676C29.3868 57.164 29.3771 57.0628 29.3678 56.9642C29.385 56.9625 29.4011 56.961 29.4159 56.9596C29.4307 56.9582 29.4467 56.9567 29.464 56.955C29.4107 56.8929 29.3679 56.8223 29.3355 56.7432C29.3004 56.6619 29.2783 56.5732 29.2691 56.477C29.2557 56.3364 29.2761 56.21 29.3301 56.0978C29.3839 55.9832 29.4684 55.8905 29.5837 55.8198C29.6962 55.7469 29.8363 55.7025 30.0041 55.6865C30.1965 55.6682 30.3901 55.6498 30.585 55.6312C30.7798 55.6127 30.9735 55.5943 31.1659 55.5759C31.1753 55.6746 31.1849 55.7757 31.1947 55.8793C31.2046 55.9829 31.2143 56.0853 31.224 56.1864C31.0464 56.2033 30.8663 56.2205 30.6838 56.2378C30.5012 56.2552 30.3212 56.2724 30.1436 56.2893C30.0449 56.2986 29.9682 56.3296 29.9135 56.3821C29.856 56.4324 29.832 56.5068 29.8414 56.6055C29.8508 56.7042 29.8864 56.7779 29.9483 56.8268C30.0102 56.8757 30.0942 56.895 30.2003 56.885C30.3779 56.8681 30.5579 56.8509 30.7404 56.8335C30.923 56.8162 31.103 56.799 31.2806 56.7821C31.29 56.8808 31.2997 56.9819 31.3095 57.0855C31.3194 57.1891 31.3291 57.2915 31.3387 57.3926ZM30.325 53.0174C30.478 53.0028 30.6079 53.034 30.7148 53.111C30.8189 53.1857 30.9 53.2924 30.9581 53.4313C31.0161 53.5701 31.0498 53.7287 31.0593 53.907C31.0711 54.0826 31.0597 54.2641 31.0253 54.4516C30.9315 54.4605 30.8353 54.4697 30.7367 54.4791C30.638 54.4885 30.5418 54.4976 30.4481 54.5065C30.4851 54.3985 30.5122 54.2913 30.5295 54.1852C30.5443 54.0792 30.5502 53.9841 30.5472 53.8997C30.5441 53.8154 30.5315 53.7482 30.5093 53.698C30.4846 53.6481 30.4501 53.6252 30.4057 53.6295C30.3712 53.6327 30.3461 53.6575 30.3306 53.7038C30.3149 53.7476 30.3029 53.8048 30.2947 53.8752C30.284 53.9459 30.2713 54.0218 30.2566 54.1029C30.2392 54.1817 30.2128 54.2576 30.1775 54.3307C30.1396 54.404 30.0871 54.4662 30.0198 54.5174C29.9498 54.5664 29.8568 54.5964 29.7409 54.6074C29.6027 54.6206 29.4818 54.5923 29.3781 54.5225C29.2717 54.4505 29.1873 54.349 29.1251 54.218C29.0604 54.0873 29.0201 53.938 29.0041 53.7703C28.9881 53.6026 29.0002 53.4284 29.0403 53.2479C29.134 53.239 29.2302 53.2298 29.3289 53.2204C29.4275 53.211 29.5237 53.2019 29.6175 53.193C29.564 53.3374 29.5319 53.4712 29.5212 53.5941C29.5105 53.7171 29.5173 53.8148 29.5416 53.8871C29.5635 53.9597 29.6003 53.9936 29.6521 53.9886C29.6866 53.9854 29.7118 53.9618 29.7275 53.918C29.7406 53.872 29.7513 53.8149 29.7598 53.7469C29.768 53.6764 29.7808 53.6018 29.7982 53.523C29.8154 53.4417 29.843 53.3657 29.881 53.2948C29.9164 53.2218 29.9703 53.1606 30.0428 53.1114C30.1126 53.06 30.2066 53.0286 30.325 53.0174ZM30.87 52.4667C30.6431 52.4883 30.4149 52.51 30.1855 52.5318C29.9561 52.5536 29.7292 52.5752 29.5047 52.5966C29.5094 52.6459 29.5142 52.6965 29.5191 52.7483C29.5238 52.7976 29.5285 52.847 29.5332 52.8963C29.442 52.905 29.3507 52.9137 29.2594 52.9224C29.1682 52.931 29.0769 52.9397 28.9856 52.9484C28.9809 52.8991 28.9762 52.8497 28.9715 52.8004C28.9666 52.7486 28.9618 52.698 28.9571 52.6487C28.8708 52.6569 28.7857 52.665 28.7018 52.673C28.6155 52.6812 28.5304 52.6893 28.4465 52.6973C28.4369 52.5962 28.4271 52.4938 28.4173 52.3902C28.4074 52.2866 28.3978 52.1855 28.3884 52.0868C28.4723 52.0788 28.5574 52.0707 28.6437 52.0625C28.7276 52.0545 28.8127 52.0464 28.899 52.0382C28.8936 51.9815 28.8881 51.9235 28.8825 51.8643C28.8768 51.8051 28.8713 51.7471 28.8659 51.6904C28.9572 51.6817 29.0485 51.673 29.1397 51.6644C29.231 51.6557 29.3223 51.647 29.4135 51.6383C29.4189 51.695 29.4244 51.753 29.4301 51.8122C29.4357 51.8714 29.4412 51.9294 29.4466 51.9861C29.6711 51.9647 29.898 51.9431 30.1274 51.9213C30.3568 51.8995 30.585 51.8778 30.8119 51.8562C30.8213 51.9549 30.8309 52.056 30.8408 52.1596C30.8506 52.2632 30.8604 52.3655 30.87 52.4667ZM30.6311 49.9555C30.6113 49.9574 30.5928 49.9592 30.5756 49.9608C30.5558 49.9627 30.5373 49.9644 30.5201 49.9661C30.5777 50.0228 30.6239 50.0894 30.6585 50.1657C30.6954 50.2394 30.7181 50.3206 30.7265 50.4094C30.7385 50.5352 30.7263 50.6558 30.69 50.7713C30.6512 50.887 30.5916 50.9922 30.511 51.087C30.4277 51.1795 30.3267 51.2563 30.2081 51.3174C30.0892 51.376 29.9545 51.4125 29.8041 51.4268C29.6511 51.4414 29.5108 51.4311 29.383 51.3959C29.255 51.3583 29.1438 51.3017 29.0495 51.2261C28.9525 51.1482 28.8752 51.056 28.8178 50.9494C28.7579 50.8431 28.7221 50.7283 28.7104 50.605C28.7019 50.5162 28.7087 50.4309 28.7308 50.3491C28.7504 50.2676 28.782 50.1937 28.8255 50.1273C28.8057 50.1292 28.7872 50.131 28.77 50.1326C28.7527 50.1343 28.7354 50.1359 28.7182 50.1375C28.7085 50.0364 28.6988 49.934 28.6889 49.8304C28.6791 49.7268 28.6695 49.6257 28.6601 49.527C28.9758 49.497 29.2952 49.4666 29.6184 49.4359C29.939 49.4053 30.2572 49.3751 30.573 49.345C30.5823 49.4437 30.592 49.5448 30.6018 49.6484C30.6117 49.752 30.6214 49.8544 30.6311 49.9555ZM30.1786 50.3794C30.1673 50.261 30.1151 50.1701 30.022 50.1068C29.9288 50.0435 29.8119 50.0185 29.6713 50.0319C29.5307 50.0453 29.4219 50.0917 29.3449 50.1712C29.2653 50.251 29.2312 50.3501 29.2425 50.4685C29.254 50.5893 29.3051 50.6815 29.3957 50.7451C29.4862 50.8062 29.6029 50.8299 29.746 50.8163C29.8891 50.8027 30.0005 50.7572 30.0802 50.68C30.1573 50.6004 30.1901 50.5003 30.1786 50.3794ZM30.0523 47.169C30.2619 47.149 30.4414 47.178 30.5907 47.2559C30.7398 47.3313 30.8562 47.4434 30.9401 47.5922C31.0264 47.7408 31.0803 47.9149 31.1018 48.1145C31.123 48.3116 31.1132 48.5228 31.0725 48.7482C30.9763 48.7574 30.8788 48.7666 30.7802 48.776C30.684 48.7852 30.5878 48.7943 30.4916 48.8035C30.5495 48.6014 30.5709 48.4214 30.5559 48.2635C30.5434 48.1054 30.5019 47.9836 30.4316 47.8982C30.3585 47.8106 30.2665 47.7721 30.1555 47.7826C30.1431 47.7838 30.132 47.7849 30.1222 47.7858C30.1098 47.787 30.0987 47.788 30.0889 47.789C30.1416 47.8462 30.1854 47.9142 30.2203 47.993C30.2552 48.0718 30.2771 48.1581 30.286 48.2518C30.3008 48.4072 30.2783 48.55 30.2185 48.6801C30.156 48.8081 30.0639 48.9126 29.9422 48.9939C29.818 49.0754 29.6696 49.1244 29.497 49.1408C29.3638 49.1535 29.2395 49.1429 29.1243 49.1091C29.0091 49.0752 28.907 49.0227 28.8181 48.9515C28.7292 48.8804 28.659 48.7962 28.6074 48.699C28.5534 48.6021 28.5211 48.4982 28.5105 48.3872C28.5021 48.2984 28.5066 48.2146 28.5239 48.1358C28.5413 48.0569 28.5682 47.9859 28.6045 47.9228C28.5872 47.9244 28.5712 47.9259 28.5564 47.9273C28.5416 47.9287 28.5255 47.9303 28.5083 47.9319C28.4987 47.8308 28.4889 47.7284 28.4791 47.6248C28.4692 47.5212 28.4596 47.4201 28.4502 47.3214C28.7141 47.2963 28.9818 47.2708 29.2531 47.245C29.5219 47.2194 29.7883 47.1941 30.0523 47.169ZM29.7425 48.1505C29.7326 48.0469 29.6927 47.9673 29.6227 47.9117C29.55 47.8539 29.4618 47.83 29.3582 47.8398C29.2522 47.8499 29.1689 47.8902 29.1084 47.9607C29.0476 48.0287 29.0222 48.1145 29.0321 48.2181C29.0424 48.3266 29.0839 48.4098 29.1566 48.4676C29.2268 48.5256 29.3162 48.5495 29.4248 48.5391C29.5308 48.529 29.6129 48.4889 29.6709 48.4186C29.7289 48.3484 29.7528 48.259 29.7425 48.1505ZM30.079 45.0954C30.1667 45.2588 30.2272 45.4236 30.2604 45.5897C30.2936 45.7558 30.2989 45.9158 30.2762 46.0698C30.2558 46.2211 30.2079 46.3588 30.1326 46.4829C30.0573 46.6071 29.9562 46.7088 29.8294 46.7881C29.7023 46.8649 29.5512 46.9116 29.376 46.9283C29.2305 46.9421 29.0951 46.9314 28.9697 46.896C28.8417 46.8584 28.7278 46.7995 28.6281 46.7194C28.5259 46.6396 28.4444 46.5415 28.3836 46.4254C28.3203 46.3094 28.2818 46.1799 28.2682 46.0368C28.256 45.9086 28.2659 45.7907 28.298 45.6831C28.3301 45.5755 28.3807 45.4798 28.4499 45.3961C28.5166 45.3126 28.5996 45.2424 28.6987 45.1857C28.7979 45.129 28.9085 45.0886 29.0307 45.0645C29.1528 45.0405 29.2843 45.0354 29.425 45.0494C29.4442 45.2517 29.4636 45.4552 29.4831 45.6599C29.5025 45.8646 29.5219 46.0681 29.5412 46.2704C29.6304 46.2146 29.6896 46.1306 29.7188 46.0183C29.7477 45.9035 29.7476 45.7716 29.7185 45.6226C29.6891 45.471 29.6341 45.312 29.5536 45.1454C29.6399 45.1372 29.7275 45.1289 29.8163 45.1204C29.9051 45.112 29.9926 45.1037 30.079 45.0954ZM28.8172 45.9995C28.824 46.0711 28.8501 46.1358 28.8954 46.1937C28.9405 46.2492 29.0053 46.289 29.0898 46.3134C29.0792 46.2024 29.0686 46.0914 29.0581 45.9804C29.0473 45.8669 29.0366 45.7547 29.026 45.6437C28.945 45.6812 28.8888 45.7314 28.8574 45.7941C28.8233 45.8546 28.8099 45.9231 28.8172 45.9995Z" fill="#2F4ECD"/>
<path d="M40.1825 73.3351C39.7681 73.3745 39.3487 73.4144 38.9245 73.4548C38.5002 73.4952 38.0809 73.5351 37.6665 73.5745C37.6524 73.4265 37.6383 73.2785 37.6242 73.1305C37.6099 72.98 37.5957 72.8308 37.5816 72.6828C37.5638 72.4953 37.5839 72.3279 37.6421 72.1805C37.6978 72.0333 37.7861 71.9154 37.9071 71.8267C38.0254 71.7358 38.1696 71.6823 38.3398 71.6661C38.4854 71.6522 38.6177 71.6695 38.7368 71.7179C38.8559 71.7663 38.956 71.8377 39.0372 71.932C39.1931 71.8176 39.3514 71.703 39.5122 71.5881C39.6703 71.471 39.8273 71.3553 39.9832 71.2409C39.9947 71.3618 40.0062 71.4826 40.0177 71.6035C40.0292 71.7244 40.0407 71.8452 40.0522 71.9661C39.9213 72.0557 39.7881 72.1468 39.6526 72.2393C39.5168 72.3294 39.3836 72.4205 39.253 72.5126C39.2569 72.5545 39.2611 72.5977 39.2653 72.6421C39.2693 72.684 39.2733 72.7259 39.2772 72.7679C39.4154 72.7547 39.556 72.7413 39.699 72.7277C39.8421 72.7141 39.9827 72.7007 40.1208 72.6876C40.1309 72.7937 40.1412 72.901 40.1515 73.0095C40.1618 73.118 40.1721 73.2266 40.1825 73.3351ZM38.1662 72.6272C38.17 72.6666 38.1738 72.7073 38.1778 72.7493C38.1816 72.7887 38.1855 72.8294 38.1895 72.8714C38.2807 72.8627 38.372 72.854 38.4633 72.8453C38.5545 72.8366 38.6458 72.828 38.7371 72.8193C38.7326 72.7724 38.7281 72.7255 38.7237 72.6787C38.7192 72.6318 38.7148 72.5849 38.7103 72.5381C38.7033 72.4641 38.6716 72.4061 38.6153 72.3642C38.5566 72.3225 38.489 72.3053 38.4126 72.3125C38.3336 72.32 38.2707 72.3522 38.2238 72.4089C38.1767 72.4632 38.1575 72.5359 38.1662 72.6272ZM39.7253 69.4721C39.813 69.6355 39.8735 69.8003 39.9067 69.9664C39.9399 70.1325 39.9452 70.2925 39.9225 70.4465C39.9021 70.5978 39.8542 70.7355 39.7789 70.8596C39.7036 70.9838 39.6025 71.0855 39.4757 71.1648C39.3486 71.2416 39.1974 71.2883 39.0223 71.305C38.8768 71.3188 38.7413 71.3081 38.616 71.2727C38.488 71.2351 38.3741 71.1762 38.2744 71.0961C38.1722 71.0162 38.0907 70.9182 38.0299 70.8021C37.9666 70.6861 37.9281 70.5566 37.9145 70.4135C37.9023 70.2853 37.9122 70.1674 37.9443 70.0598C37.9764 69.9522 38.027 69.8565 38.0962 69.7728C38.1629 69.6893 38.2459 69.6191 38.345 69.5624C38.4441 69.5057 38.5548 69.4653 38.677 69.4412C38.7991 69.4172 38.9305 69.4121 39.0713 69.4261C39.0905 69.6284 39.1099 69.8319 39.1294 70.0366C39.1488 70.2413 39.1682 70.4448 39.1875 70.6471C39.2767 70.5913 39.3359 70.5073 39.3651 70.395C39.394 70.2802 39.3939 70.1483 39.3647 69.9993C39.3354 69.8477 39.2804 69.6887 39.1999 69.5221C39.2862 69.5139 39.3738 69.5056 39.4626 69.4971C39.5514 69.4887 39.6389 69.4804 39.7253 69.4721ZM38.4635 70.3762C38.4703 70.4478 38.4964 70.5125 38.5417 70.5704C38.5868 70.6258 38.6516 70.6657 38.7361 70.6901C38.7255 70.5791 38.7149 70.4681 38.7044 70.3571C38.6936 70.2436 38.6829 70.1314 38.6723 70.0204C38.5913 70.0579 38.5351 70.1081 38.5037 70.1708C38.4696 70.2313 38.4562 70.2998 38.4635 70.3762ZM39.7692 68.9924C39.3228 69.0349 38.8726 69.0777 38.4187 69.1209C37.9649 69.1641 37.5147 69.2069 37.0682 69.2494C37.0586 69.1483 37.0489 69.0459 37.039 68.9423C37.0292 68.8387 37.0195 68.7376 37.0101 68.6389C37.4566 68.5964 37.9068 68.5536 38.3606 68.5104C38.8145 68.4672 39.2647 68.4244 39.7111 68.3819C39.7205 68.4805 39.7301 68.5817 39.74 68.6853C39.7499 68.7889 39.7596 68.8912 39.7692 68.9924ZM39.5491 66.6793C39.5294 66.6812 39.5109 66.6829 39.4936 66.6846C39.4739 66.6865 39.4554 66.6882 39.4381 66.6899C39.4958 66.7466 39.5419 66.8131 39.5766 66.8895C39.6135 66.9631 39.6361 67.0444 39.6446 67.1332C39.6565 67.259 39.6444 67.3796 39.6081 67.4951C39.5693 67.6108 39.5096 67.716 39.429 67.8108C39.3458 67.9033 39.2448 67.9801 39.1262 68.0412C39.0073 68.0998 38.8726 68.1363 38.7221 68.1506C38.5692 68.1651 38.4289 68.1549 38.3011 68.1197C38.173 68.0821 38.0619 68.0255 37.9675 67.9498C37.8705 67.872 37.7933 67.7798 37.7359 67.6732C37.676 67.5669 37.6402 67.4521 37.6284 67.3288C37.62 67.24 37.6268 67.1547 37.6489 67.0729C37.6685 66.9914 37.7001 66.9175 37.7435 66.8511C37.7238 66.853 37.7053 66.8548 37.688 66.8564C37.6708 66.858 37.6535 66.8597 37.6362 66.8613C37.6266 66.7602 37.6169 66.6578 37.607 66.5542C37.5971 66.4506 37.5875 66.3495 37.5781 66.2508C37.8939 66.2208 38.2133 66.1904 38.5364 66.1596C38.8571 66.1291 39.1753 66.0988 39.491 66.0688C39.5004 66.1675 39.51 66.2686 39.5199 66.3722C39.5298 66.4758 39.5395 66.5782 39.5491 66.6793ZM39.0966 67.1032C39.0854 66.9848 39.0332 66.8939 38.94 66.8306C38.8469 66.7673 38.73 66.7423 38.5894 66.7557C38.4488 66.7691 38.34 66.8155 38.2629 66.895C38.1834 66.9748 38.1493 67.0739 38.1605 67.1923C38.172 67.3131 38.2231 67.4053 38.3138 67.4689C38.4042 67.53 38.521 67.5537 38.6641 67.5401C38.8071 67.5265 38.9185 67.481 38.9983 67.4037C39.0754 67.3242 39.1081 67.224 39.0966 67.1032ZM37.5542 65.9988C37.5434 65.8853 37.5326 65.7719 37.5218 65.6584C37.511 65.5449 37.5002 65.4315 37.4894 65.318C37.5591 65.2666 37.63 65.2138 37.702 65.1596C37.7716 65.1057 37.8412 65.053 37.911 65.0016C37.8326 64.9618 37.7541 64.9219 37.6756 64.8821C37.5947 64.8425 37.515 64.8028 37.4366 64.763C37.426 64.652 37.4153 64.5398 37.4045 64.4263C37.3937 64.3128 37.383 64.2006 37.3725 64.0896C37.5321 64.1715 37.6932 64.2557 37.8557 64.3423C38.0181 64.4264 38.1803 64.5093 38.3424 64.5909C38.498 64.4741 38.6548 64.3559 38.8126 64.2363C38.9705 64.1167 39.1274 63.9998 39.2833 63.8854C39.2941 63.9988 39.3049 64.1123 39.3157 64.2258C39.3265 64.3392 39.3372 64.4527 39.348 64.5662C39.2689 64.6235 39.1898 64.682 39.1109 64.7418C39.0292 64.7994 38.9488 64.8568 38.8697 64.9141C38.9582 64.9555 39.0483 64.9992 39.1398 65.0452C39.2285 65.089 39.3172 65.1316 39.4058 65.173C39.4163 65.284 39.427 65.3962 39.4378 65.5097C39.4486 65.6231 39.4593 65.7354 39.4699 65.8464C39.2999 65.7605 39.1274 65.6736 38.9522 65.5857C38.7747 65.4981 38.6009 65.4113 38.4309 65.3255C38.2871 65.4362 38.141 65.5484 37.9925 65.6621C37.8441 65.7758 37.6979 65.888 37.5542 65.9988ZM39.0235 62.0975C39.1113 62.2608 39.1717 62.4256 39.205 62.5917C39.2382 62.7578 39.2435 62.9178 39.2208 63.0718C39.2003 63.2231 39.1525 63.3608 39.0772 63.4849C39.0018 63.6091 38.9008 63.7108 38.7739 63.7901C38.6468 63.8669 38.4957 63.9136 38.3206 63.9303C38.175 63.9441 38.0396 63.9334 37.9143 63.898C37.7862 63.8604 37.6724 63.8016 37.5727 63.7214C37.4705 63.6416 37.389 63.5435 37.3281 63.4274C37.2648 63.3114 37.2264 63.1819 37.2128 63.0389C37.2006 62.9106 37.2105 62.7927 37.2426 62.6851C37.2746 62.5775 37.3253 62.4818 37.3945 62.3981C37.4612 62.3146 37.5441 62.2444 37.6433 62.1877C37.7424 62.131 37.853 62.0906 37.9752 62.0665C38.0974 62.0425 38.2288 62.0374 38.3695 62.0514C38.3888 62.2537 38.4081 62.4572 38.4276 62.6619C38.4471 62.8666 38.4665 63.0701 38.4857 63.2724C38.575 63.2166 38.6342 63.1326 38.6633 63.0203C38.6922 62.9055 38.6921 62.7736 38.663 62.6246C38.6336 62.4731 38.5787 62.314 38.4981 62.1474C38.5845 62.1392 38.672 62.1309 38.7608 62.1224C38.8496 62.114 38.9372 62.1057 39.0235 62.0975ZM37.7618 63.0015C37.7686 63.0731 37.7946 63.1378 37.84 63.1957C37.8851 63.2512 37.9499 63.291 38.0343 63.3154C38.0237 63.2044 38.0132 63.0934 38.0026 62.9824C37.9918 62.8689 37.9811 62.7567 37.9706 62.6457C37.8895 62.6832 37.8333 62.7334 37.802 62.7961C37.7679 62.8566 37.7545 62.9251 37.7618 63.0015ZM38.9478 60.3597C38.928 60.3616 38.9095 60.3633 38.8923 60.365C38.8725 60.3668 38.854 60.3686 38.8368 60.3703C38.8944 60.427 38.9406 60.4935 38.9752 60.5699C39.0121 60.6435 39.0348 60.7248 39.0432 60.8136C39.0552 60.9394 39.0418 61.0601 39.003 61.1758C38.9643 61.2915 38.9046 61.3967 38.824 61.4915C38.7407 61.5841 38.6397 61.6609 38.5211 61.7219C38.4022 61.7805 38.2688 61.8169 38.1208 61.831C37.9703 61.8453 37.8312 61.8349 37.7034 61.7998C37.5754 61.7622 37.463 61.7057 37.3662 61.6302C37.2692 61.5524 37.192 61.4601 37.1345 61.3536C37.0746 61.2473 37.0388 61.1325 37.0271 61.0091C37.0186 60.9203 37.0255 60.8351 37.0475 60.7533C37.0672 60.6718 37.0987 60.5979 37.1422 60.5315C36.9942 60.5456 36.8449 60.5598 36.6945 60.5741C36.544 60.5884 36.3948 60.6026 36.2468 60.6167C36.2372 60.5156 36.2274 60.4132 36.2176 60.3096C36.2077 60.206 36.1981 60.1049 36.1887 60.0062C36.6352 59.9637 37.0853 59.9209 37.5392 59.8777C37.993 59.8345 38.4432 59.7917 38.8897 59.7492C38.8991 59.8479 38.9087 59.949 38.9185 60.0526C38.9284 60.1562 38.9381 60.2586 38.9478 60.3597ZM38.4953 60.7836C38.484 60.6652 38.4318 60.5743 38.3387 60.511C38.2455 60.4477 38.1287 60.4227 37.9881 60.4361C37.8475 60.4495 37.7386 60.4959 37.6616 60.5754C37.5821 60.6552 37.5479 60.7542 37.5592 60.8726C37.5707 60.9935 37.6218 61.0857 37.7124 61.1493C37.8029 61.2104 37.9196 61.2341 38.0627 61.2205C38.2058 61.2069 38.3172 61.1614 38.3969 61.0841C38.474 61.0046 38.5068 60.9044 38.4953 60.7836ZM37.8559 56.7713C38.0211 56.7556 38.1682 56.7839 38.2971 56.8563C38.4257 56.9262 38.5302 57.0307 38.6106 57.1699C38.6886 57.3093 38.7368 57.4753 38.7551 57.6677C38.7722 57.8477 38.7591 58.0108 38.7157 58.1568C38.6697 58.3005 38.5963 58.4183 38.4955 58.51C38.392 58.5995 38.265 58.6514 38.1146 58.6657C37.9912 58.6774 37.8752 58.6611 37.7664 58.6167C37.6574 58.5698 37.5605 58.4932 37.4757 58.3868C37.4153 58.4846 37.3416 58.5601 37.2546 58.6131C37.1648 58.664 37.0645 58.6947 36.9535 58.7053C36.7907 58.7208 36.6509 58.6905 36.5341 58.6145C36.4172 58.536 36.3245 58.4254 36.2561 58.2825C36.1878 58.1397 36.1438 57.9784 36.1242 57.7985C36.1021 57.6189 36.1057 57.4344 36.135 57.2449C36.2337 57.2356 36.3336 57.226 36.4347 57.2164C36.5358 57.2068 36.637 57.1972 36.7381 57.1876C36.7184 57.294 36.7074 57.4008 36.7051 57.508C36.7027 57.6128 36.7105 57.7079 36.7285 57.7933C36.7466 57.8787 36.7743 57.947 36.8115 57.9982C36.8485 58.047 36.8966 58.0685 36.9558 58.0629C37.0323 58.0556 37.0804 57.9988 37.1001 57.8923C37.1174 57.7862 37.1173 57.6418 37.1 57.4593C37.0556 57.4635 37.0112 57.4677 36.9668 57.4719C36.9199 57.4764 36.8743 57.4807 36.8299 57.485C36.8203 57.3838 36.8105 57.2815 36.8007 57.1779C36.7908 57.0743 36.7812 56.9731 36.7718 56.8745C36.8162 56.8702 36.8618 56.8659 36.9087 56.8614C36.9531 56.8572 36.9975 56.853 37.0419 56.8488C37.0384 56.8118 37.0347 56.7735 37.031 56.7341C37.0272 56.6946 37.0236 56.6564 37.0201 56.6194C37.1113 56.6107 37.2026 56.602 37.2939 56.5933C37.3851 56.5846 37.4764 56.5759 37.5677 56.5673C37.5712 56.6043 37.5748 56.6425 37.5786 56.682C37.5823 56.7214 37.586 56.7597 37.5895 56.7967C37.6339 56.7924 37.6783 56.7882 37.7227 56.784C37.7671 56.7798 37.8115 56.7755 37.8559 56.7713ZM37.9604 58.027C38.032 58.0202 38.0899 57.9886 38.1343 57.9321C38.176 57.8733 38.1923 57.7959 38.1832 57.6997C38.1733 57.5961 38.1408 57.5158 38.0856 57.4588C38.0279 57.4021 37.9534 57.3781 37.8622 57.3867C37.8276 57.39 37.7919 57.3934 37.7549 57.3969C37.7179 57.4005 37.6821 57.4039 37.6476 57.4072C37.6668 57.6094 37.6966 57.7659 37.737 57.8765C37.7774 57.9872 37.8519 58.0373 37.9604 58.027ZM37.5298 55.6198C37.3423 55.6376 37.1746 55.615 37.0267 55.5519C36.8764 55.489 36.7516 55.3939 36.6524 55.2664C36.5531 55.139 36.4863 54.986 36.4519 54.8076C36.415 54.6294 36.4177 54.435 36.4599 54.2244C36.5536 54.2155 36.6486 54.2065 36.7448 54.1973C36.841 54.1882 36.9359 54.1791 37.0297 54.1702C36.9742 54.3199 36.9552 54.4598 36.9726 54.5901C36.9899 54.7203 37.0408 54.8238 37.1253 54.9003C37.2073 54.9772 37.3223 55.0085 37.4703 54.9945C37.6183 54.9804 37.7265 54.9278 37.795 54.8366C37.861 54.7457 37.8903 54.6347 37.8828 54.5035C37.8728 54.3725 37.8277 54.2386 37.7475 54.1019C37.8412 54.093 37.9362 54.084 38.0324 54.0748C38.1286 54.0656 38.2235 54.0566 38.3173 54.0477C38.3984 54.2466 38.4377 54.437 38.4351 54.6189C38.435 54.8006 38.3982 54.9634 38.3248 55.1073C38.2513 55.2512 38.148 55.368 38.0146 55.4579C37.8789 55.548 37.7172 55.6019 37.5298 55.6198ZM38.309 53.6468C37.8625 53.6893 37.4124 53.7321 36.9585 53.7753C36.5046 53.8185 36.0545 53.8613 35.608 53.9038C35.5984 53.8027 35.5886 53.7003 35.5788 53.5967C35.5689 53.4931 35.5593 53.392 35.5499 53.2933C35.6954 53.2795 35.8434 53.2654 35.9939 53.2511C36.1419 53.237 36.2887 53.223 36.4342 53.2092C36.381 53.147 36.3382 53.0764 36.3058 52.9974C36.2707 52.9161 36.2485 52.8274 36.2394 52.7312C36.226 52.5906 36.2463 52.4642 36.3004 52.352C36.3542 52.2374 36.4387 52.1447 36.5539 52.074C36.6665 52.0011 36.8066 51.9566 36.9743 51.9407C37.1667 51.9224 37.3604 51.9039 37.5552 51.8854C37.7501 51.8668 37.9437 51.8484 38.1361 51.8301C38.1455 51.9288 38.1551 52.0299 38.165 52.1335C38.1749 52.2371 38.1846 52.3395 38.1942 52.4406C38.0166 52.4575 37.8366 52.4746 37.654 52.492C37.4715 52.5094 37.2914 52.5265 37.1138 52.5434C37.0152 52.5528 36.9385 52.5837 36.8837 52.6362C36.8263 52.6865 36.8022 52.761 36.8116 52.8596C36.821 52.9583 36.8567 53.0321 36.9186 53.081C36.9805 53.1298 37.0644 53.1492 37.1705 53.1391C37.3481 53.1222 37.5282 53.1051 37.7107 53.0877C37.8932 53.0703 38.0733 53.0532 38.2509 53.0363C38.2603 53.135 38.2699 53.2361 38.2798 53.3397C38.2896 53.4433 38.2994 53.5457 38.309 53.6468ZM37.8545 49.8123C37.9422 49.9757 38.0027 50.1405 38.036 50.3065C38.0692 50.4726 38.0745 50.6327 38.0518 50.7867C38.0313 50.9379 37.9834 51.0757 37.9081 51.1998C37.8328 51.324 37.7318 51.4257 37.6049 51.5049C37.4778 51.5818 37.3267 51.6285 37.1516 51.6452C37.006 51.659 36.8706 51.6482 36.7453 51.6129C36.6172 51.5753 36.5034 51.5164 36.4037 51.4363C36.3015 51.3564 36.22 51.2584 36.1591 51.1422C36.0958 51.0263 36.0574 50.8968 36.0438 50.7537C36.0315 50.6255 36.0415 50.5075 36.0736 50.3999C36.1056 50.2924 36.1563 50.1967 36.2255 50.1129C36.2922 50.0294 36.3751 49.9593 36.4743 49.9026C36.5734 49.8459 36.684 49.8055 36.8062 49.7814C36.9284 49.7573 37.0598 49.7523 37.2005 49.7663C37.2198 49.9686 37.2391 50.1721 37.2586 50.3768C37.2781 50.5815 37.2975 50.785 37.3167 50.9873C37.406 50.9315 37.4652 50.8475 37.4943 50.7352C37.5232 50.6204 37.5231 50.4885 37.494 50.3395C37.4646 50.1879 37.4097 50.0289 37.3291 49.8623C37.4155 49.8541 37.503 49.8458 37.5918 49.8373C37.6806 49.8289 37.7682 49.8205 37.8545 49.8123ZM36.5928 50.7164C36.5996 50.788 36.6256 50.8527 36.671 50.9106C36.7161 50.966 36.7808 51.0059 36.8653 51.0302C36.8547 50.9192 36.8442 50.8082 36.8336 50.6972C36.8228 50.5838 36.8121 50.4715 36.8016 50.3605C36.7205 50.3981 36.6643 50.4483 36.6329 50.511C36.5989 50.5715 36.5855 50.64 36.5928 50.7164ZM37.6548 47.713C37.7425 47.8764 37.803 48.0411 37.8362 48.2072C37.8694 48.3733 37.8747 48.5334 37.852 48.6874C37.8316 48.8386 37.7837 48.9764 37.7084 49.1005C37.6331 49.2247 37.532 49.3264 37.4051 49.4056C37.278 49.4824 37.1269 49.5292 36.9518 49.5458C36.8063 49.5597 36.6708 49.5489 36.5455 49.5136C36.4175 49.476 36.3036 49.4171 36.2039 49.337C36.1017 49.2571 36.0202 49.1591 35.9594 49.0429C35.8961 48.927 35.8576 48.7975 35.844 48.6544C35.8318 48.5262 35.8417 48.4082 35.8738 48.3006C35.9059 48.193 35.9565 48.0974 36.0257 48.0136C36.0924 47.9301 36.1753 47.86 36.2745 47.8033C36.3736 47.7466 36.4843 47.7062 36.6064 47.6821C36.7286 47.658 36.86 47.653 37.0007 47.667C37.02 47.8692 37.0394 48.0727 37.0588 48.2775C37.0783 48.4822 37.0977 48.6857 37.1169 48.888C37.2062 48.8322 37.2654 48.7481 37.2946 48.6359C37.3235 48.5211 37.3234 48.3892 37.2942 48.2401C37.2649 48.0886 37.2099 47.9296 37.1294 47.763C37.2157 47.7548 37.3033 47.7465 37.3921 47.738C37.4809 47.7296 37.5684 47.7212 37.6548 47.713ZM36.393 48.6171C36.3998 48.6886 36.4259 48.7534 36.4712 48.8113C36.5163 48.8667 36.5811 48.9066 36.6655 48.9309C36.655 48.8199 36.6444 48.7089 36.6338 48.5979C36.6231 48.4845 36.6124 48.3722 36.6018 48.2612C36.5208 48.2988 36.4646 48.349 36.4332 48.4117C36.3991 48.4722 36.3857 48.5406 36.393 48.6171ZM37.7005 47.2517C37.3847 47.2818 37.0665 47.3121 36.7459 47.3426C36.4227 47.3733 36.1033 47.4037 35.7876 47.4338C35.778 47.3326 35.7682 47.2303 35.7584 47.1267C35.7485 47.0231 35.7389 46.9219 35.7295 46.8233C35.7467 46.8216 35.764 46.82 35.7813 46.8183C35.7985 46.8167 35.8158 46.8151 35.8331 46.8134C35.7715 46.7421 35.7226 46.6597 35.6863 46.566C35.65 46.4724 35.6327 46.3683 35.6342 46.2536C35.7329 46.2443 35.8328 46.2348 35.9339 46.2251C36.035 46.2155 36.1349 46.206 36.2336 46.1966C36.225 46.3941 36.256 46.5367 36.3266 46.6246C36.3947 46.7127 36.4966 46.7503 36.6323 46.7374C36.7975 46.7216 36.9653 46.7057 37.1355 46.6895C37.3057 46.6733 37.4746 46.6572 37.6424 46.6412C37.6518 46.7399 37.6614 46.841 37.6712 46.9446C37.6811 47.0482 37.6908 47.1506 37.7005 47.2517ZM36.2058 46.0218C36.1145 46.0305 36.0232 46.0392 35.932 46.0479C35.8407 46.0565 35.7494 46.0652 35.6582 46.0739C35.6535 46.0246 35.6488 45.9752 35.6441 45.9259C35.6392 45.8741 35.6344 45.8235 35.6297 45.7742C35.6173 45.7754 35.6062 45.7764 35.5964 45.7774C35.5865 45.7783 35.5766 45.7793 35.5668 45.7802C35.4015 45.7959 35.2602 45.7758 35.1429 45.7197C35.0228 45.6615 34.9279 45.5796 34.8582 45.4743C34.7857 45.3667 34.7394 45.2466 34.7193 45.1141C34.6966 44.9794 34.701 44.8433 34.7328 44.7059C34.824 44.6972 34.9178 44.6883 35.014 44.6791C35.1102 44.67 35.2051 44.661 35.2989 44.652C35.2636 44.8047 35.2657 44.9315 35.3052 45.0323C35.3446 45.133 35.4137 45.1787 35.5124 45.1693C35.5222 45.1684 35.5321 45.1675 35.542 45.1665C35.5518 45.1656 35.5617 45.1647 35.5716 45.1637C35.5643 45.0872 35.557 45.0108 35.5497 44.9343C35.5425 44.8578 35.5352 44.7814 35.5279 44.7049C35.6192 44.6962 35.7104 44.6875 35.8017 44.6789C35.893 44.6702 35.9842 44.6615 36.0755 44.6528C36.0828 44.7293 36.0901 44.8057 36.0973 44.8822C36.1046 44.9587 36.1119 45.0351 36.1192 45.1116C36.3436 45.0902 36.5706 45.0687 36.8 45.0468C37.0294 45.025 37.2575 45.0033 37.4845 44.9817C37.4938 45.0804 37.5035 45.1815 37.5133 45.2851C37.5232 45.3887 37.5329 45.4911 37.5426 45.5922C37.3156 45.6138 37.0875 45.6355 36.8581 45.6573C36.6287 45.6791 36.4017 45.7007 36.1773 45.7221C36.182 45.7714 36.1868 45.822 36.1917 45.8738C36.1964 45.9231 36.2011 45.9725 36.2058 46.0218ZM35.328 42.6043C35.6438 42.5743 35.9632 42.5439 36.2863 42.5131C36.607 42.4826 36.9252 42.4523 37.2409 42.4223C37.2503 42.5209 37.2599 42.6221 37.2698 42.7257C37.2796 42.8293 37.2894 42.9316 37.299 43.0328C37.2817 43.0344 37.2657 43.0359 37.2509 43.0374C37.2361 43.0388 37.2201 43.0403 37.2028 43.0419C37.256 43.1041 37.2989 43.1759 37.3316 43.2574C37.3665 43.3362 37.3885 43.4237 37.3976 43.5199C37.411 43.6605 37.3908 43.7882 37.337 43.9028C37.283 44.015 37.1984 44.1076 37.0834 44.1808C36.9682 44.2515 36.828 44.2947 36.6627 44.3104C36.4703 44.3288 36.2767 44.3472 36.0818 44.3657C35.8869 44.3843 35.6933 44.4027 35.5009 44.421C35.4913 44.3199 35.4815 44.2175 35.4717 44.1139C35.4618 44.0103 35.4522 43.9092 35.4428 43.8105C35.6204 43.7936 35.8005 43.7765 35.983 43.7591C36.1655 43.7417 36.3456 43.7246 36.5232 43.7077C36.6219 43.6983 36.6999 43.6685 36.7574 43.6182C36.8121 43.5657 36.8348 43.4901 36.8254 43.3915C36.816 43.2928 36.7804 43.219 36.7185 43.1702C36.6566 43.1213 36.5726 43.1019 36.4665 43.112C36.2889 43.1289 36.1088 43.146 35.9263 43.1634C35.7438 43.1808 35.5637 43.1979 35.3861 43.2148C35.3765 43.1137 35.3667 43.0113 35.3569 42.9077C35.347 42.8041 35.3374 42.703 35.328 42.6043ZM37.2005 41.9976C36.754 42.0401 36.3039 42.0829 35.85 42.1261C35.3961 42.1693 34.946 42.2121 34.4995 42.2546C34.4899 42.1535 34.4801 42.0511 34.4703 41.9475C34.4604 41.8439 34.4508 41.7428 34.4414 41.6441C34.8879 41.6016 35.3381 41.5588 35.7919 41.5156C36.2458 41.4724 36.6959 41.4296 37.1424 41.3871C37.1518 41.4858 37.1614 41.5869 37.1713 41.6905C37.1811 41.7941 37.1909 41.8965 37.2005 41.9976Z" fill="#2F4ECD"/>
<path d="M47.5726 72.5773C47.1582 72.6167 46.7389 72.6566 46.3146 72.697C45.8903 72.7374 45.471 72.7773 45.0566 72.8167C45.0421 72.6638 45.0275 72.5108 45.0129 72.3579C44.9982 72.2025 44.9836 72.0496 44.9693 71.8991C44.9512 71.7092 44.9725 71.5404 45.0331 71.3927C45.0913 71.2453 45.182 71.1259 45.3052 71.0346C45.4284 70.9432 45.5776 70.8892 45.7527 70.8725C45.9254 70.8561 46.0808 70.8811 46.2191 70.9476C46.3571 71.0116 46.4683 71.1081 46.5528 71.2369C46.637 71.3633 46.6872 71.5116 46.7034 71.6818C46.7085 71.7361 46.7137 71.7904 46.7188 71.8446C46.7238 71.8964 46.7288 71.9495 46.734 72.0037C46.8623 71.9915 46.9918 71.9792 47.1225 71.9668C47.2532 71.9543 47.3827 71.942 47.511 71.9298C47.5211 72.0359 47.5313 72.1432 47.5416 72.2517C47.5519 72.3602 47.5623 72.4688 47.5726 72.5773ZM45.5502 71.8438C45.5544 71.8882 45.5588 71.9339 45.5632 71.9807C45.5674 72.0251 45.5717 72.0695 45.5759 72.1139C45.6746 72.1045 45.7745 72.095 45.8756 72.0854C45.9743 72.076 46.0729 72.0666 46.1716 72.0572C46.1669 72.0079 46.1621 71.9573 46.1572 71.9055C46.152 71.8513 46.1471 71.7995 46.1424 71.7501C46.1351 71.6737 46.1009 71.6147 46.0397 71.5732C45.9782 71.5293 45.9056 71.5113 45.8217 71.5193C45.7354 71.5275 45.6663 71.5602 45.6145 71.6174C45.5627 71.6746 45.5413 71.7501 45.5502 71.8438ZM45.2052 70.2982C45.212 70.3698 45.201 70.4368 45.1721 70.4993C45.143 70.5593 45.1017 70.6092 45.0482 70.6492C44.9948 70.6891 44.9335 70.7124 44.8645 70.7189C44.7954 70.7255 44.7321 70.7141 44.6745 70.6847C44.6145 70.6556 44.5645 70.6143 44.5246 70.5609C44.4844 70.505 44.4609 70.4412 44.4541 70.3697C44.4476 70.3006 44.4589 70.2361 44.488 70.1761C44.5169 70.1136 44.5581 70.0624 44.6115 70.0224C44.6625 69.9827 44.7225 69.9596 44.7916 69.953C44.8606 69.9465 44.9252 69.9577 44.9852 69.9869C45.0452 70.016 45.0953 70.0585 45.1355 70.1145C45.1754 70.1679 45.1987 70.2292 45.2052 70.2982ZM47.3657 70.4025C47.0499 70.4326 46.7317 70.4628 46.4111 70.4934C46.0879 70.5241 45.7685 70.5545 45.4528 70.5846C45.4431 70.4834 45.4334 70.3811 45.4235 70.2775C45.4137 70.1739 45.4041 70.0727 45.3947 69.9741C45.7104 69.944 46.0298 69.9136 46.353 69.8829C46.6736 69.8524 46.9918 69.8221 47.3076 69.792C47.317 69.8907 47.3266 69.9918 47.3364 70.0954C47.3463 70.199 47.356 70.3014 47.3657 70.4025ZM47.267 69.366C46.9513 69.396 46.6331 69.4263 46.3124 69.4568C45.9893 69.4875 45.6699 69.5179 45.3541 69.548C45.3445 69.4468 45.3348 69.3445 45.3249 69.2409C45.315 69.1373 45.3054 69.0361 45.296 68.9375C45.3133 68.9358 45.3293 68.9343 45.3441 68.9329C45.3589 68.9315 45.375 68.93 45.3922 68.9283C45.339 68.8662 45.2962 68.7956 45.2638 68.7165C45.2287 68.6352 45.2066 68.5465 45.1974 68.4503C45.184 68.3097 45.2044 68.1833 45.2584 68.0712C45.3122 67.9565 45.3967 67.8638 45.512 67.7931C45.6245 67.7202 45.7646 67.6758 45.9324 67.6598C46.1248 67.6415 46.3184 67.6231 46.5133 67.6045C46.7081 67.586 46.9018 67.5676 47.0942 67.5493C47.1035 67.6479 47.1132 67.7491 47.123 67.8527C47.1329 67.9563 47.1426 68.0586 47.1522 68.1598C46.9746 68.1767 46.7946 68.1938 46.612 68.2112C46.4295 68.2285 46.2494 68.2457 46.0718 68.2626C45.9732 68.2719 45.8965 68.3029 45.8417 68.3554C45.7843 68.4057 45.7603 68.4801 45.7697 68.5788C45.779 68.6775 45.8147 68.7512 45.8766 68.8001C45.9385 68.849 46.0225 68.8684 46.1285 68.8583C46.3061 68.8414 46.4862 68.8242 46.6687 68.8069C46.8513 68.7895 47.0313 68.7724 47.2089 68.7555C47.2183 68.8541 47.2279 68.9553 47.2378 69.0589C47.2477 69.1625 47.2574 69.2648 47.267 69.366ZM47.0583 67.1723C46.6118 67.2147 46.1616 67.2576 45.7078 67.3008C45.2539 67.344 44.8037 67.3868 44.3573 67.4293C44.3477 67.3281 44.3379 67.2258 44.3281 67.1222C44.3182 67.0186 44.3086 66.9174 44.2992 66.8188C44.5409 66.7958 44.7864 66.7724 45.0355 66.7487C45.2846 66.725 45.5301 66.7017 45.7718 66.6787C45.6499 66.6006 45.528 66.5226 45.406 66.4446C45.2817 66.3669 45.1585 66.289 45.0366 66.211C45.0253 66.0926 45.0141 65.9742 45.0028 65.8558C44.9913 65.7349 44.9799 65.6153 44.9686 65.4969C45.1252 65.599 45.2832 65.7034 45.4427 65.8102C45.602 65.9145 45.7599 66.0177 45.9165 66.1198C46.0749 65.9803 46.2359 65.8405 46.3993 65.7005C46.56 65.5583 46.7197 65.4186 46.8784 65.2816C46.8899 65.4024 46.9014 65.5233 46.9129 65.6442C46.9244 65.765 46.9359 65.8859 46.9474 66.0068C46.8253 66.1105 46.7022 66.2155 46.5779 66.3219C46.4511 66.4286 46.3267 66.5338 46.2047 66.6375C46.3354 66.625 46.4686 66.6123 46.6043 66.5994C46.7375 66.5868 46.8695 66.5742 47.0002 66.5618C47.0096 66.6604 47.0192 66.7616 47.0291 66.8652C47.0389 66.9688 47.0487 67.0711 47.0583 67.1723Z" fill="#2F4ECD"/>
<path d="M54.701 72.0245C54.2866 72.064 53.8673 72.1039 53.443 72.1443C53.0188 72.1846 52.5994 72.2245 52.185 72.264C52.1709 72.116 52.1569 71.968 52.1428 71.82C52.1285 71.6695 52.1143 71.5203 52.1002 71.3723C52.0823 71.1848 52.1025 71.0174 52.1606 70.87C52.2163 70.7228 52.3047 70.6049 52.4257 70.5162C52.544 70.4253 52.6882 70.3717 52.8584 70.3555C53.0039 70.3417 53.1362 70.359 53.2553 70.4074C53.3744 70.4558 53.4746 70.5271 53.5557 70.6215C53.7116 70.5071 53.8699 70.3924 54.0308 70.2776C54.1889 70.1605 54.3459 70.0447 54.5017 69.9304C54.5132 70.0512 54.5247 70.1721 54.5362 70.293C54.5477 70.4138 54.5592 70.5347 54.5707 70.6556C54.4399 70.7452 54.3067 70.8362 54.1711 70.9288C54.0353 71.0189 53.9021 71.1099 53.7715 71.202C53.7755 71.244 53.7796 71.2871 53.7838 71.3315C53.7878 71.3735 53.7918 71.4154 53.7958 71.4573C53.9339 71.4442 54.0745 71.4308 54.2176 71.4172C54.3607 71.4036 54.5013 71.3902 54.6394 71.3771C54.6495 71.4831 54.6597 71.5904 54.67 71.6989C54.6804 71.8075 54.6907 71.916 54.701 72.0245ZM52.6848 71.3166C52.6885 71.3561 52.6924 71.3968 52.6964 71.4387C52.7001 71.4782 52.704 71.5189 52.708 71.5608C52.7993 71.5522 52.8905 71.5435 52.9818 71.5348C53.0731 71.5261 53.1643 71.5174 53.2556 71.5087C53.2511 71.4619 53.2467 71.415 53.2422 71.3681C53.2378 71.3213 53.2333 71.2744 53.2288 71.2275C53.2218 71.1535 53.1902 71.0956 53.1339 71.0536C53.0752 71.0119 53.0076 70.9947 52.9311 71.002C52.8522 71.0095 52.7893 71.0416 52.7424 71.0983C52.6953 71.1526 52.6761 71.2254 52.6848 71.3166ZM54.4622 68.8875C54.4759 69.0306 54.4639 69.1661 54.4263 69.2941C54.3862 69.4224 54.3249 69.5365 54.2423 69.6365C54.1573 69.7367 54.0555 69.8185 53.9371 69.8821C53.8185 69.9431 53.6864 69.9806 53.5409 69.9944C53.3953 70.0083 53.2585 69.9964 53.1305 69.9588C53.0023 69.9187 52.8882 69.8574 52.7882 69.7748C52.6883 69.6923 52.6077 69.5916 52.5467 69.473C52.4831 69.3546 52.4446 69.2239 52.4309 69.0808C52.4171 68.9353 52.4303 68.7996 52.4706 68.6738C52.5082 68.5458 52.5683 68.4318 52.6509 68.3318C52.7335 68.2319 52.8341 68.1514 52.9527 68.0903C53.0711 68.0268 53.2031 67.9881 53.3486 67.9742C53.4942 67.9604 53.6311 67.9735 53.7593 68.0136C53.8873 68.0512 54.0026 68.1111 54.105 68.1935C54.2049 68.2761 54.2867 68.3765 54.3502 68.495C54.4111 68.6111 54.4484 68.742 54.4622 68.8875ZM53.9109 68.94C53.8994 68.8191 53.8471 68.727 53.754 68.6637C53.6581 68.5981 53.5424 68.5718 53.4067 68.5847C53.2686 68.5979 53.1611 68.6454 53.0843 68.7274C53.0048 68.8072 52.9707 68.9075 52.9822 69.0283C52.9937 69.1492 53.0462 69.2425 53.1396 69.3083C53.2302 69.3719 53.3446 69.3971 53.4828 69.3839C53.6184 69.371 53.7273 69.3246 53.8093 69.2446C53.8886 69.1624 53.9224 69.0608 53.9109 68.94ZM54.2782 67.5811C53.9625 67.6111 53.6443 67.6414 53.3236 67.6719C53.0005 67.7027 52.681 67.7331 52.3653 67.7631C52.3557 67.662 52.3459 67.5596 52.3361 67.456C52.3262 67.3524 52.3166 67.2513 52.3072 67.1526C52.3245 67.151 52.3405 67.1494 52.3553 67.148C52.3701 67.1466 52.3861 67.1451 52.4034 67.1435C52.3504 67.0838 52.3079 67.0157 52.2757 66.9391C52.241 66.8627 52.2197 66.7826 52.2117 66.6987C52.2031 66.6075 52.2111 66.5221 52.2359 66.4426C52.2582 66.3633 52.2964 66.2937 52.3504 66.2338C52.2862 66.1603 52.2334 66.0757 52.1919 65.9801C52.1502 65.882 52.1243 65.7799 52.1142 65.6738C52.0999 65.5234 52.1184 65.3909 52.1698 65.2765C52.2209 65.1597 52.3003 65.0662 52.4082 64.9963C52.5158 64.9238 52.6497 64.8799 52.8101 64.8647C53.0074 64.8459 53.2072 64.8269 53.4095 64.8076C53.6117 64.7884 53.8115 64.7694 54.0089 64.7506C54.0182 64.8493 54.0279 64.9504 54.0377 65.054C54.0476 65.1576 54.0573 65.26 54.0669 65.3611C53.8819 65.3787 53.6945 65.3965 53.5045 65.4146C53.3146 65.4327 53.1271 65.4505 52.9421 65.4681C52.8583 65.4761 52.7923 65.5023 52.7443 65.5467C52.6935 65.5889 52.6722 65.6519 52.6801 65.7357C52.6879 65.8171 52.7199 65.8788 52.7761 65.9207C52.8297 65.9604 52.9009 65.9761 52.9897 65.9676C53.1747 65.95 53.3621 65.9322 53.5521 65.9141C53.742 65.896 53.9295 65.8782 54.1145 65.8606C54.1239 65.9593 54.1335 66.0604 54.1433 66.164C54.1532 66.2676 54.1629 66.37 54.1726 66.4711C53.9876 66.4887 53.8001 66.5065 53.6102 66.5246C53.4202 66.5427 53.2328 66.5605 53.0478 66.5781C52.9639 66.5861 52.898 66.6123 52.8499 66.6567C52.7992 66.6989 52.7778 66.7619 52.7858 66.8457C52.7935 66.9271 52.8255 66.9888 52.8818 67.0307C52.9353 67.0704 53.0065 67.0861 53.0953 67.0776C53.2803 67.06 53.4678 67.0422 53.6577 67.0241C53.8476 67.006 54.0351 66.9882 54.2201 66.9706C54.2295 67.0693 54.2391 67.1704 54.249 67.274C54.2588 67.3776 54.2686 67.48 54.2782 67.5811ZM53.8514 63.096C53.8317 63.0979 53.8132 63.0996 53.7959 63.1013C53.7762 63.1032 53.7577 63.1049 53.7404 63.1066C53.7981 63.1633 53.8442 63.2299 53.8789 63.3062C53.9158 63.3799 53.9384 63.4611 53.9469 63.5499C53.9588 63.6757 53.9467 63.7963 53.9104 63.9118C53.8716 64.0275 53.8119 64.1327 53.7313 64.2275C53.648 64.32 53.5471 64.3968 53.4284 64.4579C53.3096 64.5165 53.1749 64.553 53.0244 64.5673C52.8715 64.5818 52.7311 64.5716 52.6033 64.5364C52.4753 64.4988 52.3642 64.4422 52.2698 64.3666C52.1728 64.2887 52.0956 64.1965 52.0382 64.0899C51.9783 63.9836 51.9425 63.8688 51.9307 63.7455C51.9223 63.6567 51.9291 63.5714 51.9512 63.4896C51.9708 63.4081 52.0023 63.3342 52.0458 63.2678C52.0261 63.2697 52.0076 63.2715 51.9903 63.2731C51.973 63.2747 51.9558 63.2764 51.9385 63.278C51.9289 63.1769 51.9192 63.0745 51.9093 62.9709C51.8994 62.8673 51.8898 62.7662 51.8804 62.6675C52.1962 62.6375 52.5156 62.6071 52.8387 62.5763C53.1594 62.5458 53.4776 62.5156 53.7933 62.4855C53.8027 62.5842 53.8123 62.6853 53.8222 62.7889C53.832 62.8925 53.8418 62.9949 53.8514 63.096ZM53.3989 63.5199C53.3877 63.4015 53.3355 63.3106 53.2423 63.2473C53.1492 63.184 53.0323 63.159 52.8917 63.1724C52.7511 63.1858 52.6423 63.2322 52.5652 63.3117C52.4857 63.3915 52.4516 63.4906 52.4628 63.609C52.4743 63.7298 52.5254 63.822 52.6161 63.8856C52.7065 63.9467 52.8233 63.9704 52.9663 63.9568C53.1094 63.9432 53.2208 63.8977 53.3006 63.8205C53.3776 63.7409 53.4104 63.6407 53.3989 63.5199ZM53.7545 62.0781C53.4388 62.1081 53.1206 62.1384 52.8 62.1689C52.4768 62.1997 52.1574 62.2301 51.8417 62.2601C51.832 62.159 51.8223 62.0566 51.8124 61.953C51.8026 61.8494 51.7929 61.7483 51.7836 61.6496C51.8008 61.648 51.8169 61.6464 51.8317 61.645C51.8465 61.6436 51.8625 61.6421 51.8798 61.6404C51.8266 61.5783 51.7837 61.5077 51.7513 61.4287C51.7162 61.3474 51.6941 61.2586 51.6849 61.1624C51.6716 61.0218 51.6919 60.8954 51.7459 60.7833C51.7997 60.6686 51.8843 60.576 51.9995 60.5053C52.112 60.4323 52.2521 60.3879 52.4199 60.3719C52.6123 60.3536 52.8059 60.3352 53.0008 60.3167C53.1956 60.2981 53.3893 60.2797 53.5817 60.2614C53.5911 60.36 53.6007 60.4612 53.6105 60.5648C53.6204 60.6684 53.6301 60.7707 53.6398 60.8719C53.4622 60.8888 53.2821 60.9059 53.0996 60.9233C52.917 60.9407 52.737 60.9578 52.5594 60.9747C52.4607 60.9841 52.384 61.015 52.3293 61.0675C52.2718 61.1178 52.2478 61.1923 52.2572 61.2909C52.2666 61.3896 52.3022 61.4634 52.3641 61.5122C52.426 61.5611 52.51 61.5805 52.6161 61.5704C52.7937 61.5535 52.9737 61.5363 53.1563 61.519C53.3388 61.5016 53.5189 61.4845 53.6965 61.4676C53.7058 61.5662 53.7155 61.6674 53.7253 61.771C53.7352 61.8746 53.7449 61.9769 53.7545 62.0781ZM53.5268 59.685C53.2999 59.7066 53.0717 59.7283 52.8423 59.7502C52.6129 59.772 52.386 59.7936 52.1615 59.8149C52.1662 59.8643 52.171 59.9148 52.176 59.9666C52.1807 60.016 52.1854 60.0653 52.1901 60.1146C52.0988 60.1233 52.0075 60.132 51.9163 60.1407C51.825 60.1494 51.7337 60.1581 51.6425 60.1667C51.6378 60.1174 51.6331 60.0681 51.6284 60.0187C51.6234 59.9669 51.6186 59.9164 51.6139 59.867C51.5276 59.8753 51.4425 59.8834 51.3586 59.8913C51.2723 59.8996 51.1872 59.9077 51.1033 59.9156C51.0937 59.8145 51.084 59.7121 51.0741 59.6085C51.0643 59.5049 51.0546 59.4038 51.0452 59.3051C51.1291 59.2972 51.2142 59.2891 51.3005 59.2808C51.3844 59.2729 51.4695 59.2648 51.5558 59.2565C51.5504 59.1998 51.5449 59.1418 51.5393 59.0826C51.5337 59.0234 51.5281 58.9655 51.5228 58.9087C51.614 58.9001 51.7053 58.8914 51.7965 58.8827C51.8878 58.874 51.9791 58.8653 52.0703 58.8566C52.0757 58.9134 52.0813 58.9713 52.0869 59.0305C52.0925 59.0897 52.098 59.1477 52.1034 59.2044C52.3279 59.1831 52.5548 59.1615 52.7842 59.1397C53.0136 59.1178 53.2418 59.0961 53.4687 59.0745C53.4781 59.1732 53.4878 59.2743 53.4976 59.3779C53.5075 59.4815 53.5172 59.5839 53.5268 59.685ZM51.2455 58.3095C51.2523 58.381 51.2412 58.448 51.2123 58.5105C51.1832 58.5705 51.1419 58.6205 51.0884 58.6604C51.035 58.7004 50.9737 58.7236 50.9047 58.7302C50.8356 58.7368 50.7723 58.7254 50.7147 58.696C50.6547 58.6669 50.6047 58.6256 50.5648 58.5721C50.5246 58.5162 50.5012 58.4525 50.4944 58.381C50.4878 58.3119 50.4991 58.2473 50.5282 58.1873C50.5571 58.1248 50.5983 58.0736 50.6517 58.0337C50.7027 57.994 50.7627 57.9709 50.8318 57.9643C50.9009 57.9577 50.9654 57.969 51.0254 57.9981C51.0854 58.0273 51.1355 58.0698 51.1757 58.1257C51.2156 58.1792 51.2389 58.2404 51.2455 58.3095ZM53.4059 58.4138C53.0901 58.4438 52.7719 58.4741 52.4513 58.5046C52.1281 58.5354 51.8087 58.5658 51.493 58.5958C51.4833 58.4947 51.4736 58.3923 51.4637 58.2887C51.4539 58.1851 51.4443 58.084 51.4349 57.9853C51.7506 57.9553 52.07 57.9249 52.3932 57.8941C52.7138 57.8636 53.032 57.8333 53.3478 57.8033C53.3572 57.902 53.3668 58.0031 53.3766 58.1067C53.3865 58.2103 53.3962 58.3127 53.4059 58.4138ZM52.3588 57.572C52.1713 57.5898 52.0037 57.5672 51.8558 57.5041C51.7054 57.4413 51.5806 57.3461 51.4814 57.2187C51.3822 57.0912 51.3153 56.9383 51.2809 56.7599C51.2441 56.5817 51.2467 56.3873 51.2889 56.1767C51.3826 56.1678 51.4776 56.1587 51.5738 56.1496C51.67 56.1404 51.765 56.1314 51.8587 56.1225C51.8033 56.2721 51.7842 56.412 51.8016 56.5423C51.819 56.6726 51.8699 56.776 51.9543 56.8526C52.0363 56.9294 52.1513 56.9608 52.2993 56.9467C52.4473 56.9326 52.5555 56.88 52.624 56.7889C52.69 56.698 52.7193 56.5869 52.7118 56.4557C52.7018 56.3247 52.6567 56.1909 52.5765 56.0541C52.6702 56.0452 52.7652 56.0362 52.8614 56.027C52.9576 56.0179 53.0526 56.0088 53.1463 55.9999C53.2275 56.1988 53.2667 56.3892 53.2641 56.5711C53.264 56.7529 53.2272 56.9156 53.1538 57.0595C53.0804 57.2034 52.977 57.3203 52.8437 57.4101C52.7079 57.5002 52.5463 57.5542 52.3588 57.572ZM53.0623 54.8037C52.6479 54.8431 52.2286 54.883 51.8043 54.9234C51.3801 54.9638 50.9608 55.0037 50.5464 55.0431C50.5318 54.8902 50.5172 54.7372 50.5027 54.5843C50.4879 54.4289 50.4734 54.276 50.459 54.1255C50.441 53.9356 50.4622 53.7668 50.5229 53.6191C50.581 53.4717 50.6717 53.3523 50.7949 53.261C50.9181 53.1696 51.0673 53.1156 51.2425 53.0989C51.4151 53.0825 51.5706 53.1075 51.7088 53.174C51.8468 53.238 51.9581 53.3345 52.0425 53.4633C52.1267 53.5897 52.1769 53.738 52.1931 53.9082C52.1983 53.9625 52.2034 54.0168 52.2086 54.071C52.2135 54.1228 52.2186 54.1759 52.2237 54.2301C52.352 54.2179 52.4815 54.2056 52.6122 54.1932C52.743 54.1807 52.8725 54.1684 53.0007 54.1562C53.0108 54.2623 53.021 54.3696 53.0314 54.4781C53.0417 54.5866 53.052 54.6952 53.0623 54.8037ZM51.0399 54.0702C51.0442 54.1146 51.0485 54.1603 51.053 54.2071C51.0572 54.2515 51.0614 54.2959 51.0656 54.3403C51.1643 54.3309 51.2642 54.3214 51.3653 54.3118C51.464 54.3024 51.5627 54.293 51.6613 54.2836C51.6566 54.2343 51.6518 54.1837 51.6469 54.1319C51.6417 54.0777 51.6368 54.0259 51.6321 53.9765C51.6248 53.9001 51.5906 53.8411 51.5294 53.7996C51.468 53.7557 51.3953 53.7377 51.3115 53.7457C51.2251 53.7539 51.1561 53.7866 51.1043 53.8438C51.0525 53.901 51.031 53.9765 51.0399 54.0702ZM52.8353 51.7895C52.8489 51.9326 52.8369 52.0681 52.7993 52.1961C52.7592 52.3244 52.6979 52.4385 52.6153 52.5385C52.5303 52.6386 52.4285 52.7205 52.3101 52.784C52.1915 52.8451 52.0594 52.8826 51.9139 52.8964C51.7683 52.9103 51.6316 52.8984 51.5035 52.8608C51.3753 52.8207 51.2612 52.7594 51.1612 52.6768C51.0613 52.5942 50.9808 52.4936 50.9197 52.375C50.8562 52.2566 50.8176 52.1259 50.804 51.9828C50.7901 51.8373 50.8033 51.7016 50.8436 51.5758C50.8812 51.4478 50.9413 51.3338 51.0239 51.2338C51.1065 51.1339 51.2071 51.0534 51.3257 50.9923C51.4441 50.9288 51.5761 50.8901 51.7216 50.8762C51.8672 50.8624 52.0041 50.8755 52.1323 50.9155C52.2604 50.9531 52.3756 51.0131 52.478 51.0955C52.578 51.178 52.6597 51.2785 52.7232 51.3969C52.7841 51.5131 52.8214 51.644 52.8353 51.7895ZM52.284 51.842C52.2725 51.7211 52.2201 51.629 52.127 51.5657C52.0312 51.5001 51.9154 51.4738 51.7797 51.4867C51.6416 51.4999 51.5341 51.5474 51.4573 51.6294C51.3778 51.7092 51.3438 51.8095 51.3553 51.9303C51.3668 52.0512 51.4192 52.1445 51.5126 52.2103C51.6033 52.2739 51.7177 52.2991 51.8558 52.2859C51.9915 52.273 52.1003 52.2266 52.1823 52.1466C52.2616 52.0644 52.2955 51.9628 52.284 51.842ZM53.1851 49.8163C53.1945 49.9149 53.2041 50.0161 53.214 50.1197C53.2238 50.2233 53.2336 50.3256 53.2432 50.4268C52.8313 50.4659 52.4144 50.5056 51.9926 50.5458C51.5683 50.5861 51.1502 50.6259 50.7383 50.6651C50.7287 50.564 50.719 50.4616 50.7091 50.358C50.6992 50.2544 50.6896 50.1533 50.6802 50.0546C50.6975 50.053 50.7148 50.0513 50.732 50.0497C50.7493 50.048 50.7678 50.0463 50.7875 50.0444C50.7323 49.9874 50.6874 49.9208 50.6528 49.8444C50.6156 49.7683 50.5929 49.6858 50.5844 49.597C50.5727 49.4737 50.5862 49.3542 50.625 49.2385C50.6613 49.123 50.7198 49.0192 50.8007 48.9268C50.8812 48.8321 50.981 48.7554 51.0998 48.6968C51.2185 48.6357 51.353 48.598 51.5035 48.5837C51.6515 48.5696 51.7895 48.5813 51.9175 48.6189C52.0453 48.6541 52.159 48.7105 52.2584 48.7881C52.3552 48.8635 52.4336 48.9544 52.4935 49.0607C52.5534 49.167 52.5893 49.2831 52.6013 49.4089C52.6097 49.4977 52.6029 49.5829 52.5808 49.6647C52.5609 49.7437 52.5281 49.8166 52.4821 49.8831C52.5981 49.8721 52.7152 49.861 52.8336 49.8497C52.952 49.8384 53.0692 49.8273 53.1851 49.8163ZM52.0688 49.5417C52.0573 49.4208 52.0063 49.3298 51.9159 49.2687C51.8228 49.2054 51.7047 49.1806 51.5616 49.1942C51.4185 49.2078 51.3085 49.2544 51.2314 49.3339C51.1541 49.4109 51.1212 49.5099 51.1327 49.6307C51.144 49.7491 51.1962 49.84 51.2893 49.9033C51.38 49.9669 51.4956 49.992 51.6362 49.9786C51.7768 49.9652 51.8869 49.9186 51.9664 49.8389C52.0459 49.7591 52.0801 49.6601 52.0688 49.5417Z" fill="#2F4ECD"/>
<path d="M60.6962 71.5533C60.5063 71.5713 60.3308 71.5582 60.1698 71.5137C60.006 71.4671 59.8609 71.3938 59.7344 71.2938C59.6079 71.1939 59.5052 71.0692 59.4263 70.9199C59.3474 70.7706 59.2965 70.6025 59.2737 70.4155C59.2507 70.226 59.2611 70.0209 59.3048 69.8002C59.4084 69.7904 59.5132 69.7804 59.6193 69.7703C59.7229 69.7605 59.8265 69.7506 59.9301 69.7407C59.8749 69.8928 59.8491 70.0409 59.8529 70.1849C59.8566 70.3289 59.8887 70.4565 59.9491 70.5678C60.0094 70.679 60.0972 70.764 60.2123 70.8227C60.3249 70.8817 60.4651 70.9032 60.6328 70.8873C60.8006 70.8713 60.9354 70.8236 61.0374 70.7442C61.1369 70.6651 61.2058 70.5652 61.2441 70.4445C61.2824 70.3239 61.2898 70.1925 61.2663 70.0504C61.2428 69.9083 61.1896 69.7677 61.1067 69.6288C61.2103 69.6189 61.3151 69.6089 61.4212 69.5989C61.5248 69.589 61.6284 69.5791 61.732 69.5693C61.8166 69.7778 61.8654 69.9772 61.8785 70.1676C61.8914 70.3556 61.8732 70.5303 61.8239 70.6918C61.7745 70.8533 61.6972 70.9951 61.5918 71.1171C61.4864 71.2391 61.359 71.3384 61.2094 71.4148C61.0572 71.489 60.8861 71.5352 60.6962 71.5533ZM61.7158 68.3008C61.7294 68.4439 61.7175 68.5794 61.6799 68.7074C61.6398 68.8357 61.5785 68.9498 61.4959 69.0498C61.4108 69.1499 61.3091 69.2318 61.1907 69.2953C61.0721 69.3564 60.94 69.3939 60.7945 69.4077C60.6489 69.4216 60.5121 69.4097 60.3841 69.3721C60.2558 69.332 60.1417 69.2707 60.0418 69.1881C59.9418 69.1055 59.8613 69.0049 59.8003 68.8863C59.7367 68.7679 59.6982 68.6371 59.6845 68.4941C59.6707 68.3485 59.6839 68.2129 59.7242 68.0871C59.7618 67.9591 59.8219 67.8451 59.9045 67.7451C59.9871 67.6452 60.0877 67.5647 60.2063 67.5036C60.3247 67.4401 60.4567 67.4014 60.6022 67.3875C60.7478 67.3737 60.8846 67.3868 61.0129 67.4268C61.1409 67.4644 61.2562 67.5244 61.3586 67.6068C61.4585 67.6893 61.5403 67.7898 61.6038 67.9082C61.6646 68.0244 61.702 68.1553 61.7158 68.3008ZM61.1645 68.3532C61.153 68.2324 61.1007 68.1403 61.0076 68.077C60.9117 68.0114 60.796 67.9851 60.6603 67.998C60.5222 68.0112 60.4147 68.0587 60.3379 68.1407C60.2583 68.2204 60.2243 68.3208 60.2358 68.4416C60.2473 68.5625 60.2998 68.6558 60.3931 68.7216C60.4838 68.7852 60.5982 68.8104 60.7364 68.7972C60.872 68.7843 60.9809 68.7379 61.0628 68.6579C61.1421 68.5757 61.176 68.4741 61.1645 68.3532ZM61.5318 66.9944C61.216 67.0244 60.8979 67.0547 60.5772 67.0852C60.2541 67.116 59.9346 67.1464 59.6189 67.1764C59.6093 67.0753 59.5995 66.9729 59.5897 66.8693C59.5798 66.7657 59.5702 66.6646 59.5608 66.5659C59.5781 66.5643 59.5941 66.5627 59.6089 66.5613C59.6237 66.5599 59.6397 66.5584 59.657 66.5567C59.604 66.4971 59.5615 66.4289 59.5293 66.3524C59.4946 66.276 59.4733 66.1959 59.4653 66.112C59.4567 66.0208 59.4647 65.9354 59.4895 65.8559C59.5118 65.7766 59.55 65.707 59.604 65.6471C59.5398 65.5735 59.4869 65.489 59.4455 65.3934C59.4038 65.2953 59.3779 65.1932 59.3678 65.0871C59.3535 64.9367 59.372 64.8042 59.4233 64.6898C59.4744 64.573 59.5539 64.4795 59.6617 64.4095C59.7693 64.3371 59.9033 64.2932 60.0636 64.278C60.261 64.2592 60.4608 64.2402 60.663 64.2209C60.8653 64.2017 61.0651 64.1827 61.2624 64.1639C61.2718 64.2625 61.2815 64.3637 61.2913 64.4673C61.3012 64.5709 61.3109 64.6732 61.3205 64.7744C61.1355 64.792 60.9481 64.8098 60.7581 64.8279C60.5682 64.846 60.3807 64.8638 60.1957 64.8814C60.1119 64.8894 60.0459 64.9156 59.9979 64.96C59.9471 65.0021 59.9257 65.0652 59.9337 65.149C59.9415 65.2304 59.9735 65.2921 60.0297 65.334C60.0833 65.3737 60.1545 65.3894 60.2433 65.3809C60.4283 65.3633 60.6157 65.3455 60.8057 65.3274C60.9956 65.3093 61.1831 65.2915 61.3681 65.2739C61.3775 65.3725 61.3871 65.4737 61.3969 65.5773C61.4068 65.6809 61.4165 65.7832 61.4262 65.8844C61.2412 65.902 61.0537 65.9198 60.8638 65.9379C60.6738 65.956 60.4864 65.9738 60.3014 65.9914C60.2175 65.9994 60.1515 66.0256 60.1035 66.07C60.0527 66.1121 60.0314 66.1751 60.0393 66.259C60.0471 66.3404 60.0791 66.4021 60.1354 66.444C60.1889 66.4837 60.2601 66.4994 60.3489 66.4909C60.5339 66.4733 60.7214 66.4555 60.9113 66.4374C61.1012 66.4193 61.2887 66.4015 61.4737 66.3839C61.4831 66.4825 61.4927 66.5837 61.5026 66.6873C61.5124 66.7909 61.5222 66.8932 61.5318 66.9944ZM61.7604 63.119C61.7698 63.2176 61.7794 63.3188 61.7892 63.4224C61.7991 63.526 61.8088 63.6283 61.8185 63.7295C61.4065 63.7687 60.9897 63.8083 60.5679 63.8485C60.1436 63.8888 59.7255 63.9286 59.3136 63.9678C59.3039 63.8667 59.2942 63.7643 59.2843 63.6607C59.2745 63.5571 59.2649 63.456 59.2555 63.3573C59.2727 63.3557 59.29 63.354 59.3073 63.3524C59.3245 63.3507 59.343 63.349 59.3628 63.3471C59.3076 63.2901 59.2627 63.2235 59.228 63.1471C59.1909 63.071 59.1681 62.9885 59.1597 62.8997C59.1479 62.7764 59.1614 62.6569 59.2002 62.5412C59.2365 62.4257 59.2951 62.3219 59.3759 62.2295C59.4565 62.1348 59.5562 62.0581 59.6751 61.9995C59.7937 61.9384 59.9283 61.9007 60.0788 61.8864C60.2267 61.8723 60.3648 61.8841 60.4928 61.9216C60.6206 61.9568 60.7342 62.0132 60.8337 62.0908C60.9305 62.1662 61.0088 62.2571 61.0687 62.3634C61.1286 62.4697 61.1645 62.5858 61.1765 62.7116C61.185 62.8004 61.1781 62.8856 61.1561 62.9674C61.1362 63.0464 61.1033 63.1193 61.0574 63.1858C61.1733 63.1748 61.2905 63.1637 61.4089 63.1524C61.5273 63.1411 61.6444 63.13 61.7604 63.119ZM60.6441 62.8444C60.6326 62.7235 60.5816 62.6325 60.4912 62.5714C60.398 62.5081 60.2799 62.4833 60.1368 62.4969C59.9938 62.5105 59.8837 62.5571 59.8067 62.6366C59.7294 62.7136 59.6965 62.8126 59.708 62.9334C59.7192 63.0518 59.7714 63.1427 59.8646 63.206C59.9552 63.2696 60.0709 63.2947 60.2115 63.2813C60.3521 63.2679 60.4621 63.2213 60.5417 63.1416C60.6212 63.0618 60.6553 62.9628 60.6441 62.8444ZM61.0064 61.4729C60.5599 61.5153 60.1097 61.5582 59.6559 61.6014C59.202 61.6446 58.7518 61.6874 58.3054 61.7299C58.2958 61.6287 58.286 61.5264 58.2762 61.4228C58.2663 61.3192 58.2567 61.218 58.2473 61.1194C58.6938 61.0769 59.1439 61.0341 59.5978 60.9909C60.0517 60.9477 60.5018 60.9048 60.9483 60.8624C60.9577 60.961 60.9673 61.0622 60.9772 61.1658C60.987 61.2694 60.9968 61.3717 61.0064 61.4729ZM60.6623 58.7982C60.75 58.9616 60.8105 59.1264 60.8437 59.2925C60.8769 59.4585 60.8822 59.6186 60.8595 59.7726C60.8391 59.9239 60.7912 60.0616 60.7159 60.1857C60.6406 60.3099 60.5395 60.4116 60.4126 60.4909C60.2855 60.5677 60.1344 60.6144 59.9593 60.6311C59.8138 60.6449 59.6783 60.6342 59.553 60.5988C59.425 60.5612 59.3111 60.5023 59.2114 60.4222C59.1092 60.3423 59.0277 60.2443 58.9669 60.1281C58.9036 60.0122 58.8651 59.8827 58.8515 59.7396C58.8393 59.6114 58.8492 59.4934 58.8813 59.3859C58.9134 59.2783 58.964 59.1826 59.0332 59.0989C59.0999 59.0153 59.1829 58.9452 59.282 58.8885C59.3811 58.8318 59.4918 58.7914 59.6139 58.7673C59.7361 58.7432 59.8675 58.7382 60.0083 58.7522C60.0275 58.9545 60.0469 59.158 60.0663 59.3627C60.0858 59.5674 60.1052 59.7709 60.1244 59.9732C60.2137 59.9174 60.2729 59.8334 60.3021 59.7211C60.331 59.6063 60.3309 59.4744 60.3017 59.3254C60.2724 59.1738 60.2174 59.0148 60.1369 58.8482C60.2232 58.84 60.3108 58.8317 60.3996 58.8232C60.4884 58.8148 60.5759 58.8065 60.6623 58.7982ZM59.4005 59.7023C59.4073 59.7739 59.4334 59.8386 59.4787 59.8965C59.5238 59.9519 59.5886 59.9918 59.673 60.0161C59.6625 59.9051 59.6519 59.7941 59.6414 59.6831C59.6306 59.5697 59.6199 59.4574 59.6093 59.3464C59.5283 59.384 59.4721 59.4342 59.4407 59.4969C59.4066 59.5574 59.3932 59.6259 59.4005 59.7023ZM58.8133 58.7105C58.8025 58.5971 58.7917 58.4836 58.7809 58.3701C58.7701 58.2567 58.7593 58.1432 58.7485 58.0297C58.8183 57.9783 58.8892 57.9255 58.9612 57.8714C59.0307 57.8174 59.1004 57.7648 59.1702 57.7133C59.0917 57.6735 59.0133 57.6337 58.9348 57.5939C58.8539 57.5543 58.7742 57.5146 58.6957 57.4747C58.6852 57.3637 58.6745 57.2515 58.6637 57.138C58.6529 57.0246 58.6422 56.9123 58.6316 56.8013C58.7913 56.8832 58.9523 56.9674 59.1149 57.054C59.2772 57.1381 59.4394 57.221 59.6015 57.3027C59.7572 57.1858 59.9139 57.0676 60.0718 56.948C60.2297 56.8285 60.3865 56.7115 60.5424 56.5971C60.5532 56.7106 60.564 56.824 60.5748 56.9375C60.5856 57.051 60.5964 57.1644 60.6072 57.2779C60.528 57.3352 60.449 57.3938 60.37 57.4535C60.2884 57.5111 60.208 57.5685 60.1288 57.6258C60.2174 57.6672 60.3074 57.7109 60.3989 57.7569C60.4877 57.8008 60.5764 57.8434 60.6649 57.8847C60.6755 57.9957 60.6862 58.1079 60.697 58.2214C60.7078 58.3349 60.7185 58.4471 60.729 58.5581C60.5591 58.4722 60.3865 58.3854 60.2114 58.2975C60.0338 58.2098 59.86 58.1231 59.6901 58.0372C59.5463 58.148 59.4002 58.2602 59.2517 58.3739C59.1032 58.4876 58.9571 58.5998 58.8133 58.7105ZM59.4989 55.7929C59.3115 55.8107 59.1438 55.7881 58.9959 55.725C58.8456 55.6622 58.7208 55.567 58.6215 55.4396C58.5223 55.3121 58.4555 55.1592 58.4211 54.9808C58.3842 54.8026 58.3869 54.6082 58.429 54.3976C58.5228 54.3887 58.6177 54.3796 58.7139 54.3705C58.8101 54.3613 58.9051 54.3523 58.9988 54.3434C58.9434 54.493 58.9243 54.6329 58.9417 54.7632C58.9591 54.8935 59.01 54.9969 59.0944 55.0735C59.1764 55.1503 59.2914 55.1817 59.4394 55.1676C59.5874 55.1535 59.6957 55.1009 59.7641 55.0098C59.8302 54.9189 59.8594 54.8078 59.8519 54.6766C59.8419 54.5456 59.7968 54.4118 59.7166 54.275C59.8104 54.2661 59.9053 54.2571 60.0015 54.2479C60.0977 54.2388 60.1927 54.2297 60.2864 54.2208C60.3676 54.4197 60.4069 54.6101 60.4043 54.792C60.4041 54.9738 60.3673 55.1365 60.2939 55.2804C60.2205 55.4243 60.1171 55.5412 59.9838 55.631C59.848 55.7211 59.6864 55.7751 59.4989 55.7929ZM60.2782 53.8199C59.8317 53.8624 59.3815 53.9053 58.9277 53.9485C58.4738 53.9916 58.0236 54.0345 57.5772 54.077C57.5675 53.9758 57.5578 53.8735 57.5479 53.7699C57.5381 53.6663 57.5285 53.5651 57.5191 53.4665C57.6646 53.4526 57.8126 53.4385 57.9631 53.4242C58.1111 53.4101 58.2578 53.3962 58.4034 53.3823C58.3502 53.3202 58.3074 53.2496 58.2749 53.1705C58.2398 53.0892 58.2177 53.0005 58.2085 52.9043C58.1952 52.7637 58.2155 52.6373 58.2695 52.5251C58.3233 52.4105 58.4079 52.3178 58.5231 52.2471C58.6356 52.1742 58.7758 52.1298 58.9435 52.1138C59.1359 52.0955 59.3295 52.0771 59.5244 52.0585C59.7193 52.04 59.9129 52.0216 60.1053 52.0032C60.1147 52.1019 60.1243 52.203 60.1342 52.3066C60.144 52.4102 60.1538 52.5126 60.1634 52.6137C59.9858 52.6306 59.8057 52.6478 59.6232 52.6652C59.4406 52.6825 59.2606 52.6997 59.083 52.7166C58.9843 52.7259 58.9076 52.7569 58.8529 52.8094C58.7954 52.8597 58.7714 52.9341 58.7808 53.0328C58.7902 53.1315 58.8258 53.2052 58.8877 53.2541C58.9496 53.303 59.0336 53.3223 59.1397 53.3123C59.3173 53.2954 59.4973 53.2782 59.6799 53.2608C59.8624 53.2435 60.0425 53.2263 60.2201 53.2094C60.2295 53.3081 60.2391 53.4092 60.2489 53.5128C60.2588 53.6164 60.2685 53.7188 60.2782 53.8199ZM60.0421 50.7114C60.0557 50.8544 60.0437 50.99 60.0061 51.118C59.9661 51.2463 59.9047 51.3604 59.8221 51.4603C59.7371 51.5605 59.6354 51.6424 59.517 51.7059C59.3983 51.767 59.2662 51.8044 59.1207 51.8183C58.9752 51.8321 58.8384 51.8203 58.7104 51.7827C58.5821 51.7426 58.468 51.6813 58.3681 51.5987C58.2681 51.5161 58.1876 51.4155 58.1265 51.2969C58.063 51.1785 58.0244 51.0477 58.0108 50.9047C57.9969 50.7591 58.0102 50.6235 58.0505 50.4977C58.0881 50.3696 58.1482 50.2557 58.2307 50.1557C58.3133 50.0558 58.4139 49.9752 58.5326 49.9142C58.651 49.8506 58.7829 49.8119 58.9285 49.7981C59.074 49.7843 59.2109 49.7974 59.3392 49.8374C59.4672 49.875 59.5824 49.935 59.6848 50.0173C59.7848 50.0999 59.8665 50.2004 59.9301 50.3188C59.9909 50.435 60.0282 50.5658 60.0421 50.7114ZM59.4908 50.7638C59.4793 50.643 59.427 50.5509 59.3338 50.4876C59.238 50.422 59.1222 50.3957 58.9866 50.4086C58.8484 50.4217 58.741 50.4693 58.6641 50.5513C58.5846 50.631 58.5506 50.7313 58.5621 50.8522C58.5736 50.9731 58.626 51.0664 58.7194 51.1322C58.8101 51.1957 58.9245 51.2209 59.0626 51.2078C59.1983 51.1949 59.3071 51.1484 59.3891 51.0685C59.4684 50.9862 59.5023 50.8847 59.4908 50.7638ZM59.858 49.405C59.5423 49.435 59.2241 49.4653 58.9034 49.4958C58.5803 49.5265 58.2609 49.5569 57.9451 49.587C57.9355 49.4859 57.9258 49.3835 57.9159 49.2799C57.9061 49.1763 57.8964 49.0752 57.8871 48.9765C57.9043 48.9748 57.9216 48.9732 57.9389 48.9716C57.9561 48.9699 57.9734 48.9683 57.9907 48.9666C57.9291 48.8953 57.8802 48.8129 57.8439 48.7192C57.8076 48.6256 57.7902 48.5215 57.7918 48.4069C57.8904 48.3975 57.9903 48.388 58.0915 48.3783C58.1926 48.3687 58.2925 48.3592 58.3912 48.3498C58.3826 48.5473 58.4136 48.6899 58.4842 48.7778C58.5523 48.8659 58.6542 48.9035 58.7899 48.8906C58.9551 48.8749 59.1229 48.8589 59.293 48.8427C59.4632 48.8265 59.6322 48.8104 59.7999 48.7945C59.8093 48.8931 59.819 48.9943 59.8288 49.0979C59.8387 49.2015 59.8484 49.3038 59.858 49.405ZM59.5994 46.6868C59.5797 46.6886 59.5612 46.6904 59.5439 46.692C59.5242 46.6939 59.5057 46.6957 59.4884 46.6973C59.5461 46.7541 59.5922 46.8206 59.6269 46.897C59.6637 46.9706 59.6864 47.0518 59.6948 47.1406C59.7068 47.2664 59.6934 47.3872 59.6546 47.5029C59.6159 47.6186 59.5562 47.7238 59.4756 47.8186C59.3923 47.9111 59.2914 47.988 59.1727 48.049C59.0539 48.1076 58.9204 48.144 58.7724 48.1581C58.6219 48.1724 58.4828 48.162 58.355 48.1268C58.227 48.0892 58.1146 48.0327 58.0178 47.9573C57.9208 47.8794 57.8436 47.7872 57.7861 47.6807C57.7263 47.5744 57.6904 47.4596 57.6787 47.3362C57.6703 47.2474 57.6771 47.1621 57.6992 47.0804C57.7188 46.9989 57.7503 46.9249 57.7938 46.8586C57.6458 46.8727 57.4966 46.8869 57.3461 46.9012C57.1956 46.9155 57.0464 46.9297 56.8984 46.9438C56.8888 46.8427 56.879 46.7403 56.8692 46.6367C56.8593 46.5331 56.8497 46.432 56.8403 46.3333C57.2868 46.2908 57.7369 46.248 58.1908 46.2048C58.6447 46.1616 59.0948 46.1188 59.5413 46.0763C59.5507 46.1749 59.5603 46.2761 59.5702 46.3797C59.58 46.4833 59.5898 46.5856 59.5994 46.6868ZM59.1469 47.1106C59.1356 46.9922 59.0834 46.9014 58.9903 46.8381C58.8972 46.7747 58.7803 46.7498 58.6397 46.7632C58.4991 46.7765 58.3903 46.823 58.3132 46.9025C58.2337 46.9822 58.1995 47.0813 58.2108 47.1997C58.2223 47.3206 58.2734 47.4128 58.3641 47.4763C58.4545 47.5374 58.5713 47.5612 58.7143 47.5476C58.8574 47.5339 58.9688 47.4885 59.0486 47.4112C59.1256 47.3317 59.1584 47.2315 59.1469 47.1106ZM58.7697 44.2456C58.9227 44.2311 59.0526 44.2622 59.1595 44.3392C59.2636 44.4139 59.3447 44.5207 59.4028 44.6595C59.4608 44.7984 59.4945 44.9569 59.504 45.1352C59.5158 45.3108 59.5044 45.4924 59.47 45.6798C59.3762 45.6888 59.28 45.6979 59.1814 45.7073C59.0827 45.7167 58.9865 45.7258 58.8928 45.7348C58.9298 45.6267 58.9569 45.5196 58.9742 45.4134C58.989 45.3075 58.9949 45.2123 58.9918 45.128C58.9888 45.0436 58.9762 44.9764 58.954 44.9262C58.9293 44.8763 58.8948 44.8535 58.8504 44.8577C58.8158 44.861 58.7908 44.8858 58.7753 44.932C58.7596 44.9758 58.7476 45.033 58.7394 45.1035C58.7287 45.1742 58.716 45.2501 58.7013 45.3311C58.6839 45.4099 58.6575 45.4858 58.6222 45.5589C58.5843 45.6322 58.5318 45.6944 58.4645 45.7457C58.3944 45.7946 58.3015 45.8246 58.1855 45.8357C58.0474 45.8488 57.9265 45.8205 57.8228 45.7507C57.7164 45.6787 57.632 45.5772 57.5698 45.4462C57.5051 45.3155 57.4648 45.1663 57.4488 44.9985C57.4328 44.8308 57.4449 44.6567 57.485 44.4761C57.5787 44.4672 57.6749 44.4581 57.7736 44.4487C57.8722 44.4393 57.9684 44.4301 58.0621 44.4212C58.0087 44.5657 57.9766 44.6994 57.9659 44.8224C57.9552 44.9454 57.962 45.043 57.9863 45.1154C58.0082 45.188 58.045 45.2218 58.0968 45.2169C58.1313 45.2136 58.1565 45.19 58.1722 45.1462C58.1853 45.1002 58.196 45.0432 58.2045 44.9752C58.2127 44.9047 58.2255 44.83 58.2429 44.7512C58.26 44.6699 58.2877 44.5939 58.3257 44.5231C58.3611 44.45 58.415 44.3889 58.4875 44.3397C58.5573 44.2882 58.6513 44.2569 58.7697 44.2456Z" fill="#2F4ECD"/>
</svg>
