<svg width="1210" height="1080" viewBox="0 0 1210 1080" fill="none" xmlns="http://www.w3.org/2000/svg">
<circle cx="604.894" cy="482.412" r="428.632" transform="rotate(-40.3707 604.894 482.412)" stroke="#CACACA" stroke-width="0.984604"/>
<path d="M791.048 858.925C790.807 857.824 790.56 856.713 790.307 855.59C790.059 854.464 789.815 853.351 789.575 852.251C789.903 852.064 790.235 851.876 790.569 851.687C790.909 851.494 791.244 851.305 791.573 851.119C792.393 851.891 793.219 852.674 794.052 853.468C794.89 854.26 795.72 855.041 796.54 855.813C796.3 855.949 796.055 856.088 795.804 856.23C795.559 856.369 795.314 856.508 795.068 856.647C794.912 856.5 794.758 856.352 794.607 856.202C794.452 856.046 794.297 855.895 794.14 855.748C793.822 855.928 793.502 856.11 793.179 856.293C792.861 856.473 792.543 856.653 792.226 856.833C792.271 857.043 792.321 857.254 792.375 857.466C792.425 857.673 792.474 857.881 792.519 858.091C792.279 858.227 792.034 858.366 791.783 858.508C791.538 858.647 791.293 858.786 791.048 858.925ZM791.888 855.379C792.083 855.268 792.278 855.158 792.473 855.047C792.674 854.934 792.872 854.822 793.067 854.711C792.786 854.436 792.5 854.16 792.21 853.882C791.921 853.605 791.635 853.328 791.354 853.053C791.446 853.436 791.533 853.824 791.617 854.218C791.706 854.61 791.796 854.996 791.888 855.379ZM800.666 852.548C800.935 853.022 801.056 853.476 801.029 853.911C801.009 854.342 800.867 854.735 800.604 855.09C800.345 855.45 799.991 855.761 799.543 856.023C799.1 856.281 798.591 856.481 798.016 856.622C797.893 856.405 797.768 856.185 797.642 855.962C797.519 855.745 797.396 855.527 797.273 855.31C797.811 855.233 798.258 855.094 798.615 854.892C798.975 854.695 799.218 854.469 799.346 854.213C799.475 853.948 799.469 853.69 799.327 853.439C799.311 853.412 799.297 853.386 799.284 853.364C799.269 853.336 799.254 853.311 799.242 853.289C799.162 853.474 799.048 853.649 798.899 853.814C798.75 853.98 798.569 854.123 798.358 854.243C798.007 854.441 797.646 854.539 797.276 854.535C796.908 854.523 796.564 854.416 796.244 854.214C795.92 854.007 795.648 853.709 795.427 853.319C795.257 853.018 795.151 852.714 795.109 852.406C795.067 852.098 795.083 851.802 795.157 851.517C795.232 851.232 795.356 850.978 795.531 850.754C795.703 850.524 795.914 850.338 796.165 850.196C796.365 850.082 796.568 850.004 796.772 849.962C796.976 849.92 797.172 849.908 797.36 849.927C797.338 849.888 797.317 849.852 797.298 849.819C797.279 849.785 797.259 849.749 797.237 849.71C797.465 849.581 797.696 849.45 797.93 849.317C798.164 849.184 798.393 849.055 798.616 848.929C798.954 849.525 799.296 850.13 799.643 850.743C799.988 851.35 800.328 851.952 800.666 852.548ZM798.023 852.853C798.257 852.72 798.403 852.542 798.46 852.318C798.52 852.086 798.483 851.853 798.351 851.618C798.215 851.379 798.032 851.225 797.802 851.156C797.577 851.085 797.348 851.115 797.114 851.248C796.869 851.387 796.716 851.573 796.657 851.805C796.594 852.032 796.632 852.268 796.771 852.513C796.907 852.753 797.088 852.904 797.315 852.967C797.542 853.03 797.778 852.992 798.023 852.853ZM805.587 850.423C805.294 850.803 804.969 851.119 804.613 851.373C804.256 851.626 803.884 851.808 803.496 851.917C803.118 852.028 802.742 852.061 802.37 852.014C801.997 851.967 801.651 851.836 801.33 851.62C801.014 851.401 800.745 851.094 800.521 850.699C800.334 850.37 800.217 850.039 800.168 849.706C800.122 849.364 800.14 849.033 800.224 848.713C800.305 848.388 800.45 848.092 800.66 847.826C800.867 847.554 801.132 847.327 801.455 847.144C801.745 846.98 802.034 846.879 802.321 846.841C802.609 846.803 802.888 846.821 803.159 846.896C803.426 846.966 803.679 847.087 803.918 847.261C804.156 847.435 804.368 847.654 804.554 847.917C804.74 848.18 804.89 848.484 805.006 848.831C804.549 849.09 804.089 849.351 803.627 849.613C803.164 849.875 802.704 850.135 802.247 850.394C802.473 850.546 802.734 850.597 803.03 850.547C803.331 850.494 803.642 850.355 803.963 850.129C804.29 849.899 804.607 849.602 804.915 849.236C805.025 849.431 805.137 849.629 805.251 849.83C805.365 850.03 805.477 850.228 805.587 850.423ZM802.122 848.4C801.961 848.491 801.836 848.621 801.747 848.789C801.664 848.954 801.638 849.149 801.67 849.374C801.92 849.232 802.171 849.09 802.422 848.948C802.678 848.803 802.932 848.659 803.183 848.517C803.008 848.365 802.831 848.286 802.65 848.278C802.471 848.261 802.295 848.302 802.122 848.4ZM807.351 842.048C807.89 843.001 808.437 843.965 808.989 844.941C809.542 845.916 810.088 846.88 810.628 847.833C810.388 847.969 810.146 848.106 809.9 848.245C809.655 848.384 809.41 848.523 809.165 848.662C808.78 847.982 808.391 847.296 808 846.605C807.605 845.909 807.217 845.223 806.835 844.549C806.692 844.674 806.548 844.803 806.403 844.937C806.261 845.062 806.118 845.187 805.975 845.312C805.849 845.089 805.721 844.863 805.592 844.635C805.462 844.406 805.334 844.181 805.208 843.958C805.559 843.641 805.917 843.324 806.282 843.007C806.644 842.684 807 842.365 807.351 842.048ZM813.837 846.015C813.546 845.502 813.254 844.987 812.961 844.468C812.667 843.95 812.377 843.437 812.089 842.93C811.978 842.993 811.864 843.058 811.747 843.124C811.635 843.188 811.524 843.251 811.412 843.314C811.296 843.108 811.179 842.902 811.062 842.695C810.945 842.489 810.828 842.283 810.712 842.077C810.823 842.014 810.934 841.95 811.046 841.887C811.163 841.821 811.277 841.756 811.389 841.693C811.278 841.498 811.169 841.306 811.062 841.116C810.951 840.921 810.842 840.729 810.735 840.54C810.964 840.41 811.195 840.279 811.429 840.147C811.663 840.014 811.892 839.884 812.114 839.758C812.222 839.948 812.331 840.14 812.441 840.335C812.549 840.524 812.657 840.717 812.768 840.912C812.896 840.839 813.027 840.765 813.161 840.689C813.295 840.613 813.426 840.539 813.554 840.467C813.671 840.673 813.787 840.879 813.904 841.085C814.021 841.291 814.138 841.498 814.255 841.704C814.126 841.776 813.995 841.851 813.862 841.926C813.728 842.002 813.597 842.076 813.469 842.149C813.756 842.656 814.046 843.169 814.34 843.687C814.634 844.205 814.926 844.721 815.216 845.234C814.993 845.36 814.765 845.489 814.531 845.622C814.297 845.754 814.065 845.886 813.837 846.015ZM818.75 843.408C818.427 843.591 818.094 843.706 817.753 843.753C817.408 843.793 817.074 843.769 816.751 843.68C816.425 843.585 816.124 843.431 815.849 843.219C815.58 843.003 815.352 842.731 815.166 842.402C814.98 842.073 814.863 841.738 814.817 841.396C814.776 841.051 814.8 840.717 814.89 840.394C814.979 840.071 815.132 839.775 815.347 839.506C815.559 839.231 815.827 839.002 816.15 838.819C816.479 838.633 816.813 838.521 817.153 838.483C817.494 838.437 817.827 838.458 818.15 838.548C818.473 838.637 818.769 838.789 819.038 839.005C819.313 839.217 819.544 839.488 819.73 839.817C819.916 840.146 820.03 840.482 820.071 840.827C820.117 841.169 820.097 841.504 820.011 841.833C819.921 842.156 819.771 842.455 819.558 842.73C819.348 842.996 819.079 843.222 818.75 843.408ZM818.045 842.163C818.318 842.008 818.48 841.787 818.531 841.501C818.584 841.205 818.524 840.905 818.351 840.598C818.174 840.286 817.948 840.083 817.674 839.988C817.402 839.884 817.129 839.91 816.856 840.065C816.583 840.219 816.418 840.441 816.361 840.731C816.307 841.012 816.368 841.309 816.545 841.621C816.719 841.927 816.943 842.135 817.218 842.244C817.496 842.345 817.771 842.317 818.045 842.163ZM822.265 833.599C822.805 834.552 823.351 835.516 823.904 836.492C824.456 837.467 825.002 838.431 825.542 839.384C825.303 839.52 825.06 839.657 824.815 839.796C824.57 839.935 824.325 840.074 824.079 840.213C823.694 839.533 823.306 838.847 822.914 838.156C822.52 837.46 822.131 836.774 821.749 836.1C821.607 836.225 821.463 836.354 821.318 836.488C821.175 836.613 821.032 836.738 820.89 836.863C820.764 836.64 820.636 836.414 820.506 836.186C820.377 835.957 820.249 835.732 820.123 835.509C820.473 835.192 820.831 834.875 821.196 834.558C821.558 834.235 821.915 833.916 822.265 833.599ZM828.852 837.664C828.484 837.872 828.106 837.991 827.717 838.02C827.325 838.043 826.942 837.984 826.568 837.843C826.199 837.698 825.85 837.48 825.523 837.187C825.2 836.891 824.919 836.531 824.679 836.108C824.439 835.684 824.277 835.261 824.192 834.838C824.109 834.406 824.103 833.998 824.171 833.613C824.243 833.219 824.391 832.863 824.615 832.544C824.836 832.22 825.131 831.954 825.499 831.746C825.867 831.537 826.244 831.423 826.63 831.403C827.018 831.374 827.4 831.431 827.774 831.572C828.146 831.707 828.492 831.923 828.815 832.219C829.139 832.506 829.422 832.862 829.662 833.285C829.901 833.709 830.063 834.136 830.145 834.568C830.234 834.997 830.242 835.408 830.171 835.802C830.099 836.195 829.953 836.554 829.732 836.878C829.513 837.194 829.219 837.456 828.852 837.664ZM828.07 836.285C828.293 836.158 828.443 835.989 828.521 835.775C828.602 835.553 828.616 835.298 828.564 835.011C828.511 834.724 828.395 834.422 828.215 834.104C828.035 833.787 827.837 833.535 827.621 833.348C827.402 833.156 827.178 833.04 826.949 833C826.726 832.957 826.503 832.999 826.28 833.125C826.063 833.248 825.912 833.418 825.829 833.634C825.746 833.851 825.728 834.1 825.777 834.381C825.826 834.663 825.942 834.965 826.126 835.288C826.305 835.606 826.505 835.861 826.724 836.053C826.944 836.246 827.169 836.364 827.401 836.41C827.63 836.449 827.853 836.408 828.07 836.285Z" fill="#F4E3D5"/>
<path d="M918.779 759.755C918.146 758.823 917.504 757.883 916.851 756.935C916.202 755.982 915.561 755.04 914.929 754.108C915.165 753.813 915.403 753.515 915.643 753.215C915.886 752.91 916.126 752.609 916.362 752.314C917.411 752.726 918.469 753.145 919.538 753.573C920.61 753.995 921.671 754.412 922.719 754.824C922.547 755.039 922.372 755.259 922.192 755.484C922.016 755.705 921.84 755.925 921.664 756.145C921.464 756.067 921.266 755.987 921.07 755.904C920.868 755.817 920.668 755.734 920.468 755.656C920.24 755.942 920.01 756.229 919.778 756.52C919.55 756.805 919.322 757.09 919.094 757.375C919.214 757.553 919.339 757.731 919.468 757.908C919.592 758.081 919.714 758.256 919.835 758.434C919.663 758.649 919.487 758.869 919.307 759.094C919.131 759.315 918.955 759.535 918.779 759.755ZM918.24 756.151C918.38 755.976 918.52 755.801 918.66 755.626C918.804 755.446 918.946 755.268 919.086 755.093C918.722 754.942 918.355 754.792 917.982 754.642C917.61 754.492 917.243 754.342 916.879 754.191C917.107 754.512 917.332 754.84 917.557 755.175C917.785 755.505 918.013 755.83 918.24 756.151ZM925.335 750.258C925.76 750.598 926.042 750.974 926.179 751.387C926.32 751.795 926.335 752.213 926.223 752.64C926.116 753.071 925.903 753.492 925.585 753.901C925.27 754.305 924.872 754.68 924.391 755.025C924.196 754.869 923.998 754.712 923.798 754.552C923.603 754.396 923.408 754.24 923.213 754.084C923.684 753.812 924.047 753.517 924.303 753.196C924.564 752.88 924.706 752.58 924.729 752.294C924.75 752 924.649 751.763 924.424 751.583C924.399 751.563 924.376 751.545 924.356 751.529C924.331 751.509 924.308 751.491 924.288 751.475C924.284 751.677 924.243 751.882 924.166 752.091C924.089 752.3 923.974 752.499 923.822 752.69C923.571 753.005 923.272 753.229 922.927 753.364C922.581 753.489 922.222 753.518 921.85 753.45C921.473 753.378 921.109 753.202 920.759 752.922C920.489 752.706 920.277 752.463 920.124 752.193C919.97 751.923 919.875 751.642 919.838 751.35C919.801 751.058 919.822 750.776 919.901 750.502C919.975 750.225 920.101 749.974 920.281 749.749C920.425 749.569 920.584 749.421 920.758 749.306C920.932 749.191 921.11 749.107 921.291 749.055C921.256 749.027 921.223 749.001 921.193 748.977C921.163 748.953 921.131 748.927 921.096 748.899C921.26 748.694 921.426 748.487 921.593 748.276C921.761 748.066 921.925 747.861 922.085 747.661C922.621 748.089 923.164 748.523 923.714 748.963C924.259 749.398 924.8 749.83 925.335 750.258ZM922.995 751.524C923.163 751.314 923.232 751.094 923.202 750.865C923.171 750.627 923.05 750.424 922.84 750.256C922.625 750.084 922.398 750.01 922.159 750.032C921.924 750.049 921.722 750.162 921.554 750.373C921.378 750.593 921.306 750.822 921.337 751.06C921.363 751.294 921.486 751.499 921.706 751.675C921.921 751.847 922.146 751.92 922.38 751.894C922.614 751.867 922.819 751.744 922.995 751.524ZM929.112 746.455C928.982 746.916 928.798 747.331 928.561 747.699C928.324 748.067 928.046 748.374 927.727 748.619C927.417 748.863 927.081 749.033 926.718 749.128C926.355 749.223 925.984 749.231 925.606 749.15C925.232 749.064 924.867 748.879 924.512 748.595C924.216 748.359 923.984 748.096 923.815 747.805C923.645 747.505 923.539 747.191 923.498 746.863C923.452 746.531 923.477 746.202 923.572 745.877C923.663 745.548 923.825 745.238 924.057 744.948C924.265 744.688 924.495 744.487 924.748 744.344C925.001 744.202 925.267 744.116 925.546 744.084C925.82 744.049 926.1 744.068 926.386 744.141C926.672 744.214 926.951 744.338 927.221 744.513C927.491 744.687 927.744 744.914 927.98 745.193C927.653 745.604 927.323 746.016 926.991 746.432C926.659 746.847 926.329 747.26 926.001 747.67C926.267 747.727 926.528 747.677 926.784 747.521C927.044 747.36 927.281 747.115 927.495 746.786C927.713 746.451 927.897 746.057 928.047 745.603C928.222 745.743 928.399 745.885 928.58 746.029C928.76 746.173 928.937 746.315 929.112 746.455ZM925.143 745.866C925.027 746.011 924.96 746.178 924.94 746.367C924.924 746.551 924.972 746.741 925.085 746.938C925.265 746.713 925.445 746.488 925.625 746.263C925.809 746.033 925.991 745.805 926.171 745.58C925.953 745.504 925.758 745.496 925.587 745.556C925.415 745.607 925.267 745.71 925.143 745.866ZM927.634 738.025C928.489 738.709 929.355 739.4 930.23 740.1C931.106 740.8 931.972 741.492 932.827 742.175C932.655 742.39 932.481 742.608 932.305 742.828C932.13 743.048 931.954 743.269 931.778 743.489C931.167 743.001 930.552 742.509 929.931 742.013C929.306 741.514 928.69 741.022 928.085 740.538C927.999 740.707 927.914 740.881 927.829 741.059C927.743 741.228 927.657 741.397 927.571 741.566C927.371 741.406 927.168 741.244 926.963 741.08C926.758 740.916 926.555 740.754 926.355 740.594C926.563 740.17 926.777 739.743 926.998 739.313C927.214 738.878 927.426 738.449 927.634 738.025ZM931.396 739.581C930.941 739.144 930.482 738.703 930.018 738.258C929.553 737.813 929.096 737.374 928.647 736.941C929.015 736.481 929.389 736.013 929.769 735.538C930.148 735.063 930.522 734.595 930.89 734.134C931.085 734.29 931.285 734.45 931.491 734.614C931.691 734.774 931.888 734.932 932.083 735.088C931.864 735.363 931.64 735.643 931.412 735.929C931.184 736.214 930.958 736.497 930.734 736.777C930.821 736.863 930.911 736.955 931.004 737.054C931.092 737.149 931.182 737.242 931.274 737.332C931.609 736.902 931.959 736.588 932.324 736.387C932.693 736.182 933.064 736.097 933.437 736.133C933.815 736.164 934.186 736.325 934.551 736.617C934.941 736.929 935.19 737.28 935.297 737.669C935.4 738.054 935.385 738.456 935.254 738.876C935.123 739.288 934.89 739.696 934.557 740.103C934.228 740.504 933.819 740.878 933.329 741.224C933.124 741.06 932.916 740.894 932.706 740.726C932.491 740.554 932.281 740.386 932.076 740.223C932.538 739.911 932.915 739.614 933.207 739.331C933.497 739.038 933.677 738.772 933.746 738.532C933.815 738.292 933.752 738.094 933.557 737.938C933.362 737.782 933.143 737.759 932.9 737.868C932.661 737.972 932.412 738.175 932.154 738.477C931.891 738.776 931.639 739.143 931.396 739.581Z" fill="#F4E3D5"/>
<path d="M855.668 818.36C855.225 817.324 854.773 816.279 854.314 815.224C853.859 814.165 853.41 813.117 852.966 812.082C853.254 811.837 853.545 811.59 853.837 811.341C854.135 811.088 854.428 810.839 854.716 810.594C855.666 811.198 856.625 811.812 857.593 812.436C858.565 813.055 859.526 813.667 860.477 814.271C860.267 814.449 860.053 814.632 859.833 814.819C859.618 815.001 859.404 815.184 859.189 815.366C859.007 815.252 858.828 815.135 858.652 815.016C858.471 814.892 858.29 814.773 858.108 814.659C857.83 814.895 857.549 815.134 857.266 815.374C856.988 815.611 856.71 815.847 856.432 816.084C856.516 816.281 856.604 816.479 856.697 816.678C856.786 816.871 856.872 817.067 856.956 817.264C856.747 817.443 856.532 817.625 856.312 817.812C856.098 817.995 855.883 818.177 855.668 818.36ZM855.827 814.719C855.997 814.574 856.168 814.429 856.339 814.284C856.515 814.134 856.688 813.987 856.859 813.842C856.531 813.624 856.199 813.407 855.862 813.189C855.525 812.97 855.193 812.753 854.865 812.535C855.027 812.894 855.186 813.259 855.342 813.63C855.503 813.998 855.665 814.361 855.827 814.719ZM863.916 810.288C864.269 810.703 864.473 811.126 864.529 811.558C864.59 811.985 864.524 812.398 864.333 812.796C864.146 813.199 863.857 813.571 863.466 813.912C863.08 814.249 862.617 814.541 862.079 814.788C861.918 814.597 861.754 814.405 861.588 814.21C861.426 814.019 861.264 813.829 861.102 813.639C861.617 813.462 862.03 813.241 862.342 812.976C862.659 812.715 862.855 812.447 862.932 812.171C863.01 811.887 862.955 811.635 862.768 811.415C862.748 811.391 862.729 811.369 862.712 811.349C862.692 811.325 862.673 811.303 862.656 811.283C862.613 811.48 862.534 811.673 862.418 811.864C862.303 812.055 862.153 812.229 861.967 812.386C861.66 812.648 861.324 812.811 860.96 812.877C860.596 812.934 860.238 812.894 859.886 812.756C859.529 812.614 859.206 812.372 858.915 812.03C858.691 811.767 858.53 811.488 858.431 811.194C858.332 810.899 858.292 810.605 858.312 810.311C858.331 810.018 858.405 809.744 858.535 809.491C858.66 809.233 858.833 809.011 859.052 808.824C859.228 808.675 859.412 808.56 859.605 808.48C859.798 808.401 859.988 808.352 860.175 808.336C860.146 808.302 860.119 808.27 860.095 808.241C860.07 808.211 860.043 808.18 860.014 808.146C860.214 807.975 860.416 807.803 860.621 807.629C860.826 807.455 861.026 807.285 861.221 807.119C861.665 807.641 862.115 808.17 862.572 808.707C863.024 809.239 863.472 809.766 863.916 810.288ZM861.377 811.084C861.582 810.91 861.692 810.708 861.706 810.477C861.721 810.238 861.641 810.015 861.467 809.81C861.289 809.601 861.08 809.484 860.841 809.46C860.607 809.432 860.388 809.505 860.183 809.679C859.968 809.862 859.853 810.073 859.838 810.312C859.819 810.547 859.901 810.772 860.084 810.987C860.262 811.196 860.469 811.311 860.703 811.33C860.938 811.349 861.163 811.267 861.377 811.084ZM868.35 807.275C868.133 807.703 867.874 808.075 867.571 808.391C867.268 808.708 866.937 808.956 866.577 809.136C866.226 809.316 865.863 809.419 865.489 809.443C865.114 809.467 864.749 809.403 864.393 809.252C864.042 809.096 863.72 808.845 863.425 808.499C863.18 808.211 863.003 807.908 862.892 807.59C862.782 807.263 862.738 806.935 862.76 806.605C862.779 806.27 862.866 805.952 863.022 805.651C863.174 805.345 863.391 805.072 863.674 804.832C863.928 804.616 864.193 804.462 864.468 804.371C864.744 804.28 865.021 804.245 865.301 804.268C865.577 804.286 865.848 804.358 866.115 804.484C866.382 804.61 866.632 804.785 866.863 805.008C867.095 805.231 867.3 805.502 867.479 805.821C867.079 806.161 866.676 806.504 866.271 806.848C865.866 807.192 865.464 807.535 865.064 807.875C865.314 807.981 865.58 807.983 865.861 807.878C866.147 807.769 866.426 807.574 866.699 807.292C866.977 807.005 867.232 806.653 867.466 806.236C867.611 806.407 867.758 806.58 867.908 806.756C868.057 806.931 868.204 807.105 868.35 807.275ZM864.566 805.94C864.424 806.06 864.326 806.211 864.27 806.393C864.22 806.571 864.231 806.767 864.304 806.982C864.524 806.795 864.744 806.609 864.963 806.422C865.188 806.231 865.41 806.042 865.629 805.856C865.43 805.739 865.24 805.695 865.061 805.721C864.882 805.738 864.717 805.811 864.566 805.94ZM868.506 798.718C869.216 799.553 869.934 800.397 870.66 801.251C871.386 802.105 872.103 802.949 872.813 803.784C872.603 803.962 872.391 804.142 872.176 804.325C871.961 804.507 871.747 804.69 871.532 804.873C871.026 804.277 870.515 803.677 870.001 803.072C869.482 802.462 868.972 801.862 868.47 801.271C868.353 801.421 868.236 801.575 868.119 801.734C868.003 801.883 867.886 802.033 867.769 802.182C867.603 801.987 867.435 801.79 867.265 801.589C867.095 801.389 866.927 801.192 866.761 800.997C867.046 800.62 867.338 800.241 867.637 799.861C867.932 799.476 868.221 799.095 868.506 798.718ZM871.266 796.373C871.975 797.207 872.693 798.051 873.419 798.905C874.145 799.759 874.862 800.603 875.572 801.438C875.362 801.616 875.15 801.797 874.935 801.979C874.72 802.162 874.506 802.344 874.291 802.527C873.785 801.931 873.275 801.331 872.76 800.726C872.242 800.116 871.731 799.516 871.229 798.925C871.113 799.075 870.996 799.229 870.878 799.388C870.762 799.537 870.645 799.687 870.528 799.837C870.362 799.641 870.194 799.444 870.024 799.244C869.854 799.044 869.686 798.846 869.52 798.651C869.805 798.274 870.097 797.896 870.396 797.515C870.691 797.13 870.981 796.749 871.266 796.373ZM878.382 799.049C878 798.6 877.617 798.148 877.231 797.694C876.845 797.241 876.463 796.792 876.086 796.348C875.988 796.431 875.888 796.516 875.786 796.603C875.688 796.686 875.59 796.769 875.493 796.852C875.339 796.671 875.186 796.491 875.032 796.31C874.879 796.13 874.725 795.949 874.572 795.768C874.669 795.685 874.767 795.602 874.865 795.519C874.967 795.432 875.067 795.347 875.165 795.264C875.02 795.094 874.876 794.925 874.735 794.759C874.59 794.589 874.447 794.42 874.306 794.254C874.506 794.084 874.709 793.912 874.913 793.738C875.118 793.563 875.318 793.393 875.514 793.227C875.655 793.393 875.798 793.562 875.943 793.732C876.084 793.898 876.227 794.067 876.372 794.238C876.485 794.142 876.599 794.045 876.716 793.945C876.834 793.845 876.948 793.748 877.06 793.653C877.214 793.833 877.367 794.014 877.521 794.194C877.675 794.375 877.828 794.555 877.982 794.736C877.869 794.831 877.755 794.929 877.637 795.028C877.52 795.128 877.406 795.225 877.293 795.321C877.671 795.765 878.053 796.214 878.439 796.668C878.824 797.121 879.208 797.573 879.59 798.022C879.395 798.188 879.195 798.358 878.99 798.532C878.785 798.706 878.582 798.879 878.382 799.049ZM882.717 795.564C882.434 795.805 882.129 795.98 881.802 796.09C881.471 796.195 881.139 796.234 880.805 796.207C880.467 796.175 880.142 796.081 879.833 795.924C879.528 795.763 879.253 795.538 879.008 795.25C878.763 794.963 878.586 794.655 878.476 794.328C878.371 793.997 878.332 793.664 878.359 793.33C878.386 792.996 878.48 792.677 878.641 792.372C878.798 792.062 879.018 791.787 879.301 791.546C879.589 791.301 879.896 791.128 880.222 791.028C880.549 790.918 880.88 790.876 881.214 790.903C881.548 790.93 881.867 791.024 882.172 791.186C882.482 791.342 882.76 791.565 883.004 791.853C883.249 792.141 883.424 792.45 883.529 792.781C883.639 793.108 883.682 793.441 883.659 793.78C883.632 794.114 883.54 794.436 883.383 794.746C883.227 795.047 883.005 795.32 882.717 795.564ZM881.79 794.474C882.029 794.271 882.147 794.023 882.143 793.732C882.14 793.432 882.025 793.148 881.797 792.879C881.564 792.606 881.304 792.449 881.017 792.407C880.73 792.357 880.467 792.433 880.228 792.637C879.989 792.84 879.869 793.089 879.868 793.384C879.867 793.671 879.983 793.95 880.216 794.224C880.444 794.492 880.703 794.654 880.994 794.709C881.286 794.756 881.551 794.677 881.79 794.474ZM884.325 785.269C885.035 786.104 885.752 786.948 886.478 787.802C887.204 788.656 887.922 789.5 888.631 790.335C888.422 790.513 888.209 790.694 887.995 790.876C887.78 791.059 887.565 791.241 887.351 791.424C886.844 790.828 886.334 790.228 885.82 789.623C885.301 789.013 884.791 788.413 884.289 787.822C884.172 787.972 884.055 788.126 883.938 788.285C883.821 788.434 883.705 788.584 883.588 788.734C883.422 788.538 883.254 788.341 883.084 788.141C882.914 787.941 882.746 787.743 882.58 787.548C882.865 787.171 883.157 786.792 883.456 786.412C883.75 786.027 884.04 785.646 884.325 785.269ZM888.487 788.831C888.325 788.64 888.161 788.448 887.995 788.252C887.825 788.052 887.659 787.857 887.498 787.667C887.339 786.986 887.179 786.298 887.017 785.604C886.855 784.909 886.693 784.223 886.529 783.547C886.842 783.281 887.154 783.016 887.466 782.75C887.784 782.48 888.098 782.213 888.411 781.947C888.813 782.421 889.22 782.899 889.63 783.382C890.041 783.865 890.448 784.343 890.85 784.817C890.962 784.721 891.077 784.624 891.194 784.524C891.316 784.42 891.433 784.321 891.545 784.225C891.707 784.416 891.873 784.611 892.043 784.811C892.209 785.006 892.373 785.199 892.535 785.389C892.423 785.485 892.306 785.584 892.184 785.688C892.066 785.788 891.952 785.885 891.84 785.98C891.972 786.137 892.107 786.295 892.244 786.456C892.377 786.612 892.51 786.769 892.642 786.925C892.437 787.099 892.227 787.277 892.013 787.46C891.803 787.638 891.596 787.815 891.391 787.989C891.258 787.833 891.125 787.677 890.992 787.52C890.855 787.359 890.721 787.201 890.588 787.045C890.241 787.339 889.89 787.638 889.534 787.941C889.182 788.239 888.834 788.536 888.487 788.831ZM888.815 786.547C888.942 786.439 889.071 786.329 889.203 786.217C889.34 786.101 889.472 785.989 889.598 785.881C889.366 785.608 889.13 785.329 888.889 785.046C888.648 784.763 888.412 784.485 888.18 784.212C888.285 784.593 888.39 784.983 888.494 785.382C888.603 785.777 888.71 786.166 888.815 786.547Z" fill="#F4E3D5"/>
<path d="M1000.07 629.177C999.153 628.523 998.224 627.864 997.283 627.201C996.344 626.532 995.416 625.87 994.5 625.216C994.619 624.857 994.739 624.495 994.86 624.131C994.982 623.76 995.103 623.395 995.222 623.036C996.348 623.059 997.487 623.085 998.637 623.116C999.79 623.14 1000.93 623.163 1002.06 623.186C1001.97 623.447 1001.88 623.715 1001.79 623.988C1001.7 624.256 1001.61 624.523 1001.52 624.791C1001.31 624.787 1001.09 624.78 1000.88 624.771C1000.66 624.759 1000.45 624.751 1000.23 624.747C1000.12 625.094 1000 625.444 999.884 625.796C999.769 626.143 999.655 626.489 999.54 626.836C999.714 626.961 999.893 627.084 1000.08 627.206C1000.25 627.325 1000.43 627.447 1000.6 627.572C1000.51 627.834 1000.43 628.101 1000.34 628.375C1000.25 628.642 1000.16 628.91 1000.07 629.177ZM998.314 625.984C998.384 625.771 998.455 625.559 998.526 625.346C998.598 625.127 998.67 624.911 998.74 624.698C998.347 624.683 997.95 624.669 997.549 624.658C997.148 624.646 996.751 624.633 996.358 624.617C996.683 624.839 997.008 625.069 997.335 625.305C997.663 625.536 997.99 625.762 998.314 625.984ZM1002.93 617.996C1003.44 618.167 1003.84 618.423 1004.11 618.763C1004.38 619.097 1004.54 619.483 1004.58 619.923C1004.63 620.364 1004.58 620.832 1004.42 621.326C1004.27 621.815 1004.02 622.304 1003.69 622.795C1003.46 622.717 1003.22 622.637 1002.97 622.556C1002.74 622.478 1002.5 622.399 1002.26 622.321C1002.61 621.903 1002.85 621.499 1002.98 621.11C1003.11 620.723 1003.14 620.392 1003.06 620.117C1002.98 619.833 1002.8 619.646 1002.53 619.555C1002.5 619.545 1002.47 619.536 1002.45 619.528C1002.42 619.518 1002.39 619.509 1002.37 619.501C1002.43 619.691 1002.46 619.898 1002.46 620.121C1002.46 620.343 1002.43 620.57 1002.35 620.801C1002.22 621.184 1002.02 621.499 1001.74 621.744C1001.46 621.982 1001.14 622.133 1000.76 622.198C1000.38 622.262 999.982 622.223 999.557 622.082C999.228 621.973 998.946 621.819 998.708 621.619C998.471 621.418 998.284 621.188 998.148 620.927C998.012 620.666 997.934 620.393 997.913 620.11C997.886 619.824 997.918 619.545 998.009 619.271C998.081 619.052 998.179 618.859 998.302 618.69C998.426 618.522 998.563 618.382 998.715 618.271C998.672 618.256 998.633 618.243 998.596 618.231C998.56 618.219 998.52 618.206 998.478 618.192C998.56 617.943 998.644 617.69 998.729 617.435C998.813 617.18 998.896 616.93 998.977 616.687C999.627 616.903 1000.29 617.121 1000.96 617.343C1001.62 617.563 1002.27 617.78 1002.93 617.996ZM1001.17 619.995C1001.25 619.74 1001.24 619.51 1001.14 619.306C1001.02 619.093 1000.84 618.944 1000.58 618.86C1000.32 618.773 1000.08 618.782 999.867 618.885C999.653 618.983 999.503 619.159 999.419 619.415C999.33 619.682 999.342 619.922 999.453 620.135C999.559 620.345 999.746 620.495 1000.01 620.583C1000.27 620.67 1000.51 620.661 1000.72 620.555C1000.93 620.449 1001.08 620.263 1001.17 619.995ZM1005.15 613.119C1005.19 613.597 1005.16 614.05 1005.06 614.477C1004.97 614.905 1004.81 615.289 1004.6 615.629C1004.39 615.966 1004.14 616.242 1003.83 616.457C1003.52 616.672 1003.18 616.807 1002.79 616.863C1002.41 616.912 1002.01 616.865 1001.58 616.722C1001.22 616.603 1000.91 616.437 1000.65 616.222C1000.39 616 1000.18 615.742 1000.02 615.449C999.866 615.153 999.776 614.836 999.753 614.498C999.724 614.158 999.768 613.811 999.885 613.459C999.99 613.143 1000.14 612.874 1000.32 612.653C1000.51 612.432 1000.73 612.258 1000.98 612.132C1001.23 612.004 1001.5 611.925 1001.79 611.894C1002.08 611.863 1002.39 611.883 1002.7 611.953C1003.02 612.024 1003.33 612.149 1003.65 612.328C1003.48 612.827 1003.32 613.329 1003.15 613.833C1002.98 614.338 1002.82 614.839 1002.65 615.338C1002.92 615.299 1003.15 615.162 1003.34 614.927C1003.52 614.685 1003.66 614.373 1003.75 613.99C1003.84 613.601 1003.87 613.168 1003.85 612.69C1004.07 612.76 1004.28 612.832 1004.5 612.904C1004.72 612.977 1004.94 613.048 1005.15 613.119ZM1001.22 613.943C1001.16 614.119 1001.16 614.299 1001.21 614.484C1001.25 614.662 1001.37 614.824 1001.54 614.969C1001.63 614.695 1001.72 614.422 1001.81 614.148C1001.9 613.869 1002 613.592 1002.09 613.318C1001.86 613.323 1001.67 613.383 1001.53 613.499C1001.39 613.606 1001.28 613.754 1001.22 613.943ZM1000.84 605.725C1001.88 606.07 1002.93 606.418 1003.99 606.771C1005.06 607.124 1006.11 607.472 1007.15 607.817C1007.06 608.078 1006.98 608.343 1006.89 608.61C1006.8 608.878 1006.71 609.145 1006.62 609.413C1005.88 609.167 1005.13 608.919 1004.38 608.669C1003.62 608.417 1002.87 608.169 1002.13 607.926C1002.11 608.114 1002.09 608.306 1002.07 608.503C1002.05 608.691 1002.03 608.88 1002.01 609.068C1001.77 608.987 1001.52 608.906 1001.27 608.823C1001.02 608.741 1000.77 608.659 1000.53 608.578C1000.58 608.108 1000.63 607.633 1000.69 607.153C1000.74 606.671 1000.79 606.195 1000.84 605.725ZM1002.62 600.728C1002.85 600.806 1003.1 600.887 1003.35 600.97C1003.59 601.05 1003.83 601.13 1004.07 601.208C1004.74 601.815 1005.41 602.428 1006.1 603.046C1006.78 603.657 1007.46 604.265 1008.13 604.872C1008.04 605.139 1007.95 605.413 1007.85 605.692C1007.76 605.972 1007.67 606.246 1007.58 606.513C1006.91 605.907 1006.24 605.298 1005.56 604.688C1004.87 604.069 1004.19 603.456 1003.52 602.85C1003.39 603.257 1003.25 603.674 1003.11 604.099C1002.97 604.519 1002.83 604.935 1002.69 605.349C1002.46 605.27 1002.22 605.19 1001.97 605.11C1001.72 605.027 1001.48 604.947 1001.24 604.868C1001.47 604.181 1001.7 603.491 1001.93 602.798C1002.16 602.099 1002.39 601.409 1002.62 600.728Z" fill="#F4E3D5"/>
<path d="M1019.07 556.834C1018.04 556.387 1016.99 555.938 1015.93 555.488C1014.87 555.032 1013.83 554.58 1012.79 554.133C1012.84 553.757 1012.88 553.378 1012.92 552.996C1012.96 552.608 1013 552.226 1013.04 551.85C1014.15 551.635 1015.27 551.422 1016.4 551.209C1017.53 550.991 1018.65 550.774 1019.75 550.559C1019.72 550.833 1019.69 551.113 1019.66 551.4C1019.63 551.68 1019.6 551.96 1019.57 552.24C1019.36 552.282 1019.15 552.32 1018.94 552.355C1018.72 552.39 1018.51 552.428 1018.3 552.469C1018.26 552.832 1018.22 553.198 1018.18 553.568C1018.14 553.931 1018.1 554.294 1018.06 554.657C1018.26 554.742 1018.46 554.825 1018.66 554.906C1018.86 554.985 1019.06 555.068 1019.25 555.153C1019.23 555.427 1019.19 555.707 1019.16 555.994C1019.13 556.274 1019.1 556.554 1019.07 556.834ZM1016.68 554.082C1016.71 553.859 1016.73 553.636 1016.76 553.413C1016.78 553.184 1016.81 552.958 1016.83 552.735C1016.44 552.803 1016.05 552.873 1015.66 552.946C1015.26 553.019 1014.87 553.089 1014.49 553.157C1014.85 553.306 1015.22 553.462 1015.58 553.624C1015.95 553.78 1016.32 553.933 1016.68 554.082ZM1019.51 545.303C1020.05 545.361 1020.49 545.528 1020.83 545.803C1021.17 546.072 1021.41 546.417 1021.54 546.837C1021.68 547.258 1021.73 547.727 1021.68 548.244C1021.63 548.754 1021.49 549.283 1021.27 549.833C1021.02 549.806 1020.77 549.779 1020.52 549.751C1020.27 549.724 1020.02 549.697 1019.77 549.67C1020.03 549.188 1020.17 548.744 1020.22 548.336C1020.27 547.93 1020.23 547.6 1020.09 547.347C1019.95 547.087 1019.74 546.941 1019.45 546.91C1019.42 546.907 1019.39 546.904 1019.37 546.901C1019.34 546.897 1019.31 546.894 1019.28 546.892C1019.39 547.064 1019.46 547.259 1019.51 547.477C1019.56 547.694 1019.57 547.924 1019.54 548.166C1019.5 548.567 1019.37 548.917 1019.15 549.215C1018.92 549.507 1018.63 549.723 1018.28 549.866C1017.93 550.007 1017.52 550.054 1017.08 550.006C1016.74 549.968 1016.43 549.877 1016.15 549.731C1015.88 549.585 1015.65 549.399 1015.46 549.173C1015.27 548.946 1015.14 548.696 1015.06 548.423C1014.97 548.15 1014.94 547.87 1014.97 547.583C1015 547.354 1015.05 547.144 1015.14 546.954C1015.22 546.763 1015.33 546.598 1015.45 546.456C1015.41 546.452 1015.37 546.447 1015.33 546.443C1015.29 546.439 1015.25 546.434 1015.21 546.429C1015.23 546.168 1015.26 545.904 1015.29 545.637C1015.32 545.369 1015.35 545.108 1015.38 544.854C1016.06 544.928 1016.75 545.003 1017.45 545.079C1018.14 545.154 1018.83 545.229 1019.51 545.303ZM1018.22 547.626C1018.25 547.359 1018.19 547.136 1018.04 546.959C1017.88 546.775 1017.67 546.668 1017.41 546.639C1017.13 546.61 1016.9 546.668 1016.71 546.815C1016.52 546.956 1016.41 547.16 1016.38 547.427C1016.35 547.707 1016.41 547.939 1016.57 548.124C1016.72 548.307 1016.93 548.414 1017.21 548.445C1017.48 548.474 1017.71 548.415 1017.9 548.268C1018.08 548.12 1018.19 547.906 1018.22 547.626ZM1020.66 540.067C1020.8 540.526 1020.87 540.975 1020.86 541.413C1020.86 541.85 1020.79 542.258 1020.65 542.636C1020.52 543.009 1020.33 543.333 1020.07 543.608C1019.82 543.883 1019.51 544.088 1019.15 544.222C1018.79 544.35 1018.38 544.39 1017.93 544.341C1017.55 544.3 1017.21 544.202 1016.91 544.047C1016.61 543.885 1016.35 543.677 1016.14 543.422C1015.92 543.167 1015.77 542.876 1015.68 542.55C1015.58 542.224 1015.55 541.876 1015.59 541.506C1015.62 541.175 1015.71 540.882 1015.85 540.626C1015.98 540.37 1016.16 540.155 1016.38 539.979C1016.59 539.802 1016.84 539.668 1017.12 539.576C1017.4 539.484 1017.7 539.439 1018.02 539.442C1018.35 539.445 1018.68 539.501 1019.03 539.609C1018.97 540.131 1018.92 540.657 1018.86 541.185C1018.8 541.714 1018.74 542.239 1018.69 542.761C1018.94 542.667 1019.14 542.485 1019.27 542.216C1019.4 541.94 1019.47 541.606 1019.47 541.213C1019.48 540.815 1019.42 540.383 1019.31 539.919C1019.53 539.944 1019.75 539.968 1019.98 539.993C1020.21 540.018 1020.44 540.043 1020.66 540.067ZM1017 541.698C1016.98 541.883 1017.01 542.06 1017.09 542.23C1017.18 542.394 1017.32 542.529 1017.52 542.635C1017.55 542.348 1017.58 542.062 1017.62 541.775C1017.65 541.482 1017.68 541.192 1017.71 540.906C1017.48 540.959 1017.32 541.056 1017.2 541.199C1017.09 541.334 1017.02 541.501 1017 541.698ZM1014.89 533.745C1015.98 533.863 1017.08 533.983 1018.2 534.104C1019.31 534.225 1020.41 534.344 1021.5 534.463C1021.47 534.736 1021.44 535.013 1021.41 535.294C1021.38 535.574 1021.35 535.854 1021.32 536.134C1020.54 536.05 1019.76 535.965 1018.97 535.879C1018.17 535.793 1017.39 535.707 1016.62 535.624C1016.64 535.813 1016.66 536.005 1016.68 536.201C1016.7 536.39 1016.72 536.578 1016.74 536.767C1016.48 536.74 1016.23 536.712 1015.96 536.683C1015.7 536.655 1015.45 536.627 1015.19 536.599C1015.14 536.13 1015.09 535.654 1015.05 535.173C1015 534.69 1014.94 534.214 1014.89 533.745ZM1015.58 528.485C1015.83 528.512 1016.08 528.54 1016.34 528.568C1016.6 528.596 1016.85 528.623 1017.1 528.65C1017.88 529.103 1018.67 529.559 1019.47 530.019C1020.27 530.473 1021.05 530.926 1021.84 531.378C1021.81 531.658 1021.78 531.945 1021.74 532.238C1021.71 532.531 1021.68 532.817 1021.65 533.097C1020.87 532.645 1020.08 532.192 1019.29 531.739C1018.48 531.278 1017.69 530.822 1016.91 530.37C1016.87 530.796 1016.82 531.232 1016.77 531.678C1016.72 532.117 1016.67 532.554 1016.63 532.987C1016.38 532.96 1016.13 532.932 1015.87 532.905C1015.61 532.876 1015.36 532.849 1015.11 532.822C1015.19 532.102 1015.27 531.379 1015.34 530.654C1015.42 529.921 1015.5 529.199 1015.58 528.485Z" fill="#F4E3D5"/>
<path d="M1024.42 486.799C1023.33 486.525 1022.22 486.252 1021.1 485.98C1019.99 485.701 1018.88 485.424 1017.79 485.15C1017.77 484.773 1017.75 484.393 1017.72 484.009C1017.7 483.619 1017.68 483.235 1017.66 482.858C1018.72 482.466 1019.79 482.074 1020.87 481.682C1021.95 481.283 1023.02 480.888 1024.08 480.497C1024.09 480.772 1024.11 481.053 1024.12 481.341C1024.14 481.622 1024.15 481.904 1024.17 482.185C1023.97 482.26 1023.77 482.332 1023.56 482.401C1023.36 482.47 1023.15 482.542 1022.95 482.617C1022.97 482.982 1022.99 483.349 1023.01 483.72C1023.03 484.085 1023.05 484.449 1023.07 484.814C1023.28 484.867 1023.49 484.916 1023.7 484.962C1023.91 485.008 1024.12 485.058 1024.33 485.111C1024.34 485.386 1024.36 485.667 1024.37 485.955C1024.39 486.236 1024.4 486.518 1024.42 486.799ZM1021.62 484.47C1021.61 484.246 1021.59 484.022 1021.58 483.798C1021.57 483.568 1021.56 483.341 1021.54 483.117C1021.17 483.246 1020.8 483.379 1020.42 483.515C1020.04 483.651 1019.67 483.784 1019.3 483.913C1019.68 484.001 1020.07 484.096 1020.46 484.196C1020.85 484.291 1021.23 484.382 1021.62 484.47ZM1022.99 475.348C1023.53 475.319 1023.99 475.412 1024.37 475.629C1024.75 475.839 1025.03 476.141 1025.24 476.534C1025.44 476.927 1025.56 477.382 1025.6 477.9C1025.63 478.411 1025.59 478.956 1025.46 479.534C1025.21 479.547 1024.95 479.561 1024.7 479.575C1024.45 479.589 1024.2 479.602 1023.95 479.616C1024.12 479.1 1024.2 478.637 1024.17 478.228C1024.16 477.818 1024.06 477.499 1023.89 477.272C1023.71 477.038 1023.48 476.928 1023.19 476.944C1023.16 476.946 1023.13 476.948 1023.1 476.949C1023.07 476.951 1023.04 476.952 1023.02 476.954C1023.15 477.107 1023.25 477.287 1023.33 477.494C1023.42 477.702 1023.46 477.927 1023.48 478.17C1023.5 478.573 1023.43 478.939 1023.26 479.269C1023.08 479.593 1022.83 479.853 1022.51 480.051C1022.18 480.248 1021.79 480.359 1021.35 480.384C1021 480.402 1020.68 480.362 1020.39 480.263C1020.09 480.163 1019.84 480.017 1019.61 479.824C1019.39 479.631 1019.22 479.406 1019.1 479.15C1018.97 478.894 1018.89 478.622 1018.88 478.334C1018.86 478.104 1018.88 477.888 1018.94 477.686C1018.99 477.484 1019.07 477.304 1019.17 477.144C1019.12 477.147 1019.08 477.149 1019.04 477.151C1019.01 477.153 1018.96 477.156 1018.92 477.158C1018.9 476.896 1018.89 476.63 1018.88 476.362C1018.86 476.093 1018.85 475.831 1018.83 475.575C1019.52 475.538 1020.21 475.5 1020.91 475.462C1021.61 475.423 1022.3 475.386 1022.99 475.348ZM1022.08 477.851C1022.07 477.583 1021.97 477.373 1021.8 477.222C1021.62 477.065 1021.39 476.994 1021.12 477.009C1020.85 477.024 1020.63 477.119 1020.47 477.295C1020.3 477.464 1020.23 477.683 1020.24 477.952C1020.26 478.233 1020.36 478.452 1020.54 478.609C1020.71 478.766 1020.94 478.837 1021.22 478.822C1021.5 478.807 1021.71 478.712 1021.87 478.536C1022.03 478.361 1022.1 478.133 1022.08 477.851ZM1023.27 469.996C1023.48 470.427 1023.62 470.859 1023.69 471.291C1023.76 471.723 1023.75 472.137 1023.68 472.533C1023.61 472.921 1023.47 473.272 1023.27 473.585C1023.06 473.898 1022.79 474.15 1022.45 474.341C1022.11 474.527 1021.72 474.631 1021.26 474.656C1020.89 474.677 1020.54 474.635 1020.22 474.531C1019.89 474.42 1019.6 474.256 1019.35 474.039C1019.1 473.822 1018.9 473.56 1018.75 473.254C1018.6 472.948 1018.52 472.609 1018.5 472.238C1018.48 471.906 1018.52 471.602 1018.61 471.328C1018.7 471.053 1018.85 470.811 1019.03 470.602C1019.21 470.394 1019.43 470.221 1019.7 470.085C1019.96 469.949 1020.25 469.856 1020.57 469.807C1020.89 469.757 1021.23 469.758 1021.59 469.809C1021.62 470.333 1021.64 470.861 1021.67 471.391C1021.7 471.922 1021.73 472.45 1021.76 472.974C1022 472.84 1022.16 472.629 1022.24 472.342C1022.33 472.048 1022.34 471.708 1022.29 471.32C1022.23 470.925 1022.1 470.509 1021.91 470.07C1022.13 470.058 1022.36 470.045 1022.59 470.033C1022.82 470.02 1023.05 470.008 1023.27 469.996ZM1019.92 472.199C1019.93 472.385 1019.99 472.555 1020.1 472.709C1020.21 472.857 1020.37 472.967 1020.59 473.038C1020.57 472.75 1020.56 472.463 1020.54 472.175C1020.53 471.881 1020.51 471.59 1020.49 471.302C1020.28 471.39 1020.13 471.514 1020.04 471.673C1019.95 471.826 1019.91 472.001 1019.92 472.199ZM1016.55 464.692C1017.65 464.632 1018.75 464.572 1019.87 464.511C1020.99 464.449 1022.1 464.389 1023.19 464.329C1023.21 464.604 1023.22 464.883 1023.24 465.164C1023.25 465.445 1023.27 465.727 1023.28 466.008C1022.5 466.051 1021.72 466.094 1020.92 466.137C1020.13 466.181 1019.34 466.224 1018.56 466.266C1018.61 466.449 1018.67 466.636 1018.72 466.825C1018.77 467.008 1018.82 467.192 1018.87 467.375C1018.61 467.389 1018.35 467.403 1018.09 467.418C1017.83 467.432 1017.57 467.446 1017.31 467.46C1017.18 467.005 1017.06 466.544 1016.94 466.076C1016.81 465.608 1016.68 465.147 1016.55 464.692ZM1023.16 461.003C1023.18 461.47 1023.12 461.893 1022.97 462.273C1022.82 462.653 1022.6 462.961 1022.3 463.195C1022.01 463.423 1021.66 463.548 1021.25 463.57C1020.91 463.589 1020.61 463.534 1020.35 463.407C1020.09 463.274 1019.88 463.087 1019.72 462.845C1019.58 463.065 1019.41 463.241 1019.2 463.374C1018.98 463.501 1018.73 463.573 1018.44 463.589C1018.05 463.61 1017.71 463.529 1017.4 463.347C1017.1 463.158 1016.85 462.893 1016.67 462.55C1016.48 462.208 1016.37 461.816 1016.34 461.375C1016.32 460.933 1016.39 460.535 1016.54 460.18C1016.69 459.82 1016.9 459.532 1017.18 459.318C1017.47 459.103 1017.8 458.986 1018.19 458.965C1018.48 458.949 1018.74 458.996 1018.96 459.105C1019.19 459.208 1019.38 459.358 1019.54 459.555C1019.68 459.304 1019.87 459.101 1020.11 458.946C1020.35 458.786 1020.64 458.696 1020.98 458.678C1021.39 458.655 1021.75 458.744 1022.07 458.945C1022.39 459.139 1022.65 459.414 1022.84 459.769C1023.02 460.125 1023.13 460.536 1023.16 461.003ZM1019.01 461.229C1019 461.024 1018.93 460.864 1018.81 460.749C1018.69 460.634 1018.54 460.581 1018.36 460.591C1018.19 460.6 1018.05 460.669 1017.95 460.796C1017.85 460.924 1017.8 461.09 1017.81 461.294C1017.82 461.499 1017.89 461.662 1018 461.784C1018.12 461.906 1018.26 461.963 1018.44 461.953C1018.61 461.943 1018.76 461.871 1018.87 461.737C1018.97 461.597 1019.02 461.427 1019.01 461.229ZM1021.69 461.083C1021.68 460.859 1021.6 460.677 1021.46 460.537C1021.31 460.398 1021.14 460.333 1020.94 460.345C1020.72 460.356 1020.55 460.439 1020.43 460.594C1020.3 460.748 1020.25 460.937 1020.26 461.161C1020.27 461.385 1020.35 461.57 1020.49 461.716C1020.63 461.862 1020.8 461.93 1021.02 461.918C1021.23 461.907 1021.39 461.821 1021.52 461.66C1021.64 461.499 1021.7 461.307 1021.69 461.083ZM1020.52 456.109C1020.28 456.123 1020.03 456.136 1019.78 456.15C1019.53 456.164 1019.28 456.177 1019.03 456.19C1019.01 455.762 1018.99 455.33 1018.96 454.895C1018.94 454.46 1018.92 454.029 1018.89 453.6C1019.14 453.587 1019.39 453.573 1019.64 453.559C1019.89 453.546 1020.14 453.532 1020.38 453.519C1020.4 453.948 1020.43 454.379 1020.45 454.814C1020.47 455.249 1020.5 455.681 1020.52 456.109ZM1022.43 450.426C1021.36 450.485 1020.27 450.544 1019.17 450.604C1018.07 450.664 1016.98 450.724 1015.91 450.782C1015.9 450.501 1015.88 450.219 1015.86 449.938C1015.85 449.65 1015.83 449.369 1015.82 449.094C1016.41 448.722 1017 448.346 1017.6 447.967C1018.21 447.581 1018.8 447.202 1019.39 446.83C1018.78 446.863 1018.17 446.897 1017.55 446.931C1016.93 446.965 1016.31 446.998 1015.71 447.031C1015.69 446.756 1015.68 446.481 1015.66 446.206C1015.65 445.931 1015.63 445.656 1015.62 445.381C1016.69 445.323 1017.78 445.263 1018.88 445.203C1019.98 445.143 1021.06 445.084 1022.14 445.025C1022.15 445.3 1022.17 445.582 1022.19 445.869C1022.2 446.151 1022.22 446.432 1022.23 446.714C1021.64 447.086 1021.05 447.465 1020.45 447.85C1019.84 448.229 1019.25 448.605 1018.66 448.977C1019.27 448.944 1019.88 448.91 1020.5 448.877C1021.12 448.843 1021.74 448.809 1022.34 448.776C1022.36 449.051 1022.37 449.326 1022.39 449.601C1022.4 449.876 1022.42 450.151 1022.43 450.426ZM1022.1 441.512C1022.12 441.883 1022.08 442.232 1021.97 442.558C1021.85 442.885 1021.68 443.174 1021.46 443.423C1021.22 443.673 1020.95 443.874 1020.64 444.026C1020.33 444.171 1019.98 444.254 1019.61 444.275C1019.23 444.295 1018.88 444.25 1018.55 444.14C1018.22 444.023 1017.93 443.853 1017.68 443.629C1017.44 443.405 1017.24 443.137 1017.09 442.824C1016.94 442.512 1016.85 442.17 1016.83 441.799C1016.81 441.422 1016.86 441.073 1016.98 440.752C1017.09 440.426 1017.26 440.137 1017.48 439.888C1017.7 439.638 1017.97 439.441 1018.29 439.295C1018.6 439.144 1018.94 439.057 1019.32 439.037C1019.7 439.016 1020.05 439.064 1020.38 439.181C1020.7 439.292 1020.99 439.459 1021.25 439.682C1021.5 439.906 1021.7 440.174 1021.85 440.486C1022 440.793 1022.08 441.134 1022.1 441.512ZM1020.67 441.59C1020.65 441.276 1020.53 441.033 1020.3 440.86C1020.05 440.681 1019.76 440.601 1019.41 440.62C1019.05 440.639 1018.77 440.751 1018.56 440.955C1018.35 441.152 1018.25 441.408 1018.26 441.721C1018.28 442.035 1018.41 442.281 1018.64 442.461C1018.87 442.634 1019.16 442.711 1019.52 442.692C1019.87 442.673 1020.16 442.564 1020.38 442.366C1020.59 442.162 1020.69 441.903 1020.67 441.59ZM1021.71 437.205C1020.91 437.499 1020.1 437.797 1019.28 438.098C1018.45 438.393 1017.64 438.688 1016.83 438.982C1016.82 438.719 1016.81 438.454 1016.79 438.185C1016.78 437.91 1016.76 437.642 1016.75 437.38C1017.19 437.227 1017.63 437.075 1018.09 436.921C1018.54 436.762 1018.98 436.61 1019.42 436.464C1018.97 436.38 1018.51 436.296 1018.05 436.212C1017.58 436.122 1017.12 436.038 1016.67 435.96C1016.66 435.736 1016.65 435.512 1016.63 435.288C1016.62 435.058 1016.61 434.831 1016.6 434.607C1017.04 434.474 1017.49 434.34 1017.95 434.206C1018.4 434.066 1018.86 433.932 1019.3 433.805C1018.84 433.702 1018.38 433.599 1017.91 433.496C1017.44 433.387 1016.97 433.284 1016.52 433.187C1016.5 432.925 1016.49 432.663 1016.48 432.401C1016.46 432.132 1016.45 431.87 1016.43 431.614C1017.26 431.819 1018.11 432.026 1018.96 432.236C1019.8 432.44 1020.64 432.645 1021.47 432.849C1021.49 433.105 1021.5 433.364 1021.52 433.626C1021.53 433.889 1021.55 434.148 1021.56 434.404C1021.17 434.528 1020.77 434.655 1020.38 434.786C1019.98 434.91 1019.59 435.034 1019.2 435.157C1019.6 435.239 1020 435.322 1020.41 435.409C1020.82 435.489 1021.23 435.57 1021.63 435.651C1021.64 435.906 1021.66 436.165 1021.67 436.428C1021.68 436.69 1021.7 436.949 1021.71 437.205Z" fill="#F4E3D5"/>
<path d="M960.642 705.079C959.871 704.257 959.09 703.429 958.297 702.595C957.507 701.756 956.726 700.925 955.956 700.104C956.143 699.775 956.331 699.444 956.521 699.11C956.714 698.77 956.904 698.436 957.091 698.108C958.191 698.35 959.302 698.599 960.424 698.854C961.55 699.103 962.662 699.349 963.762 699.592C963.626 699.831 963.487 700.076 963.345 700.327C963.205 700.572 963.066 700.816 962.927 701.061C962.717 701.016 962.509 700.967 962.302 700.916C962.09 700.862 961.879 700.812 961.669 700.766C961.488 701.084 961.306 701.404 961.123 701.727C960.942 702.044 960.762 702.361 960.581 702.679C960.728 702.836 960.879 702.991 961.034 703.146C961.183 703.298 961.332 703.452 961.478 703.609C961.342 703.848 961.203 704.093 961.06 704.344C960.921 704.589 960.782 704.834 960.642 705.079ZM959.546 701.604C959.657 701.409 959.767 701.214 959.878 701.019C959.992 700.819 960.105 700.621 960.215 700.426C959.833 700.334 959.446 700.243 959.055 700.153C958.664 700.063 958.278 699.972 957.895 699.88C958.17 700.162 958.444 700.45 958.718 700.746C958.995 701.036 959.271 701.322 959.546 701.604ZM965.631 694.673C966.105 694.942 966.441 695.269 966.641 695.656C966.845 696.037 966.925 696.447 966.881 696.886C966.843 697.329 966.699 697.777 966.448 698.232C966.2 698.68 965.866 699.113 965.445 699.529C965.228 699.406 965.008 699.28 964.785 699.154C964.568 699.03 964.351 698.907 964.134 698.783C964.556 698.442 964.869 698.093 965.072 697.736C965.28 697.383 965.373 697.064 965.351 696.779C965.326 696.485 965.189 696.267 964.938 696.124C964.911 696.108 964.885 696.094 964.863 696.082C964.835 696.066 964.81 696.051 964.788 696.039C964.815 696.238 964.806 696.447 964.763 696.666C964.72 696.884 964.638 697.099 964.518 697.311C964.318 697.662 964.059 697.93 963.739 698.117C963.417 698.295 963.067 698.379 962.688 698.371C962.305 698.359 961.918 698.242 961.528 698.02C961.228 697.849 960.98 697.642 960.787 697.4C960.593 697.157 960.455 696.894 960.373 696.612C960.291 696.329 960.267 696.047 960.302 695.765C960.332 695.479 960.418 695.211 960.56 694.961C960.674 694.76 960.808 694.59 960.962 694.449C961.116 694.308 961.278 694.197 961.449 694.118C961.41 694.096 961.373 694.075 961.34 694.056C961.307 694.037 961.27 694.016 961.231 693.994C961.361 693.766 961.493 693.535 961.626 693.301C961.759 693.067 961.888 692.839 962.015 692.616C962.611 692.955 963.215 693.298 963.827 693.647C964.434 693.992 965.036 694.334 965.631 694.673ZM963.518 696.289C963.651 696.055 963.685 695.828 963.619 695.606C963.551 695.376 963.4 695.194 963.167 695.061C962.927 694.925 962.691 694.887 962.458 694.946C962.229 695 962.048 695.144 961.915 695.377C961.775 695.622 961.74 695.86 961.808 696.09C961.87 696.317 962.024 696.501 962.269 696.64C962.508 696.776 962.742 696.813 962.969 696.75C963.196 696.688 963.379 696.534 963.518 696.289ZM968.767 690.325C968.71 690.801 968.593 691.239 968.417 691.64C968.24 692.041 968.014 692.387 967.737 692.679C967.469 692.969 967.164 693.189 966.82 693.34C966.476 693.491 966.111 693.556 965.725 693.536C965.342 693.509 964.953 693.384 964.558 693.159C964.229 692.972 963.959 692.748 963.746 692.488C963.531 692.218 963.377 691.924 963.285 691.607C963.188 691.286 963.161 690.957 963.205 690.621C963.243 690.282 963.354 689.951 963.537 689.628C963.702 689.338 963.898 689.104 964.126 688.924C964.353 688.744 964.603 688.616 964.873 688.542C965.139 688.464 965.418 688.439 965.712 688.466C966.006 688.494 966.3 688.572 966.595 688.703C966.889 688.833 967.174 689.018 967.451 689.256C967.192 689.713 966.93 690.172 966.668 690.634C966.405 691.096 966.144 691.556 965.884 692.012C966.156 692.027 966.406 691.937 966.634 691.743C966.866 691.543 967.061 691.264 967.221 690.905C967.384 690.541 967.504 690.123 967.581 689.65C967.776 689.761 967.973 689.874 968.174 689.988C968.374 690.102 968.572 690.214 968.767 690.325ZM964.754 690.364C964.663 690.526 964.622 690.701 964.632 690.891C964.645 691.076 964.723 691.256 964.865 691.433C965.008 691.182 965.15 690.932 965.293 690.681C965.438 690.425 965.582 690.172 965.725 689.921C965.497 689.88 965.304 689.903 965.145 689.989C964.983 690.067 964.853 690.192 964.754 690.364ZM965.987 682.23C966.939 682.772 967.902 683.32 968.876 683.874C969.851 684.428 970.814 684.976 971.766 685.517C971.63 685.756 971.492 685.999 971.353 686.243C971.214 686.488 971.074 686.733 970.935 686.978C970.256 686.592 969.571 686.203 968.88 685.81C968.185 685.414 967.5 685.025 966.826 684.642C966.768 684.822 966.71 685.007 966.654 685.196C966.596 685.377 966.538 685.557 966.479 685.738C966.256 685.611 966.031 685.483 965.803 685.353C965.574 685.223 965.349 685.095 965.126 684.968C965.265 684.517 965.41 684.061 965.561 683.602C965.706 683.139 965.848 682.682 965.987 682.23ZM970.312 678.512C970.013 678.726 969.767 678.965 969.572 679.23C969.371 679.492 969.235 679.757 969.164 680.026C969.086 680.291 969.083 680.543 969.153 680.782C969.221 681.013 969.372 681.208 969.604 681.37C969.562 681.081 969.584 680.795 969.671 680.513C969.761 680.225 969.901 679.966 970.091 679.735C970.282 679.504 970.514 679.323 970.787 679.192C971.059 679.051 971.361 678.987 971.693 678.999C972.019 679.008 972.363 679.115 972.725 679.321C973.015 679.486 973.256 679.689 973.45 679.932C973.638 680.172 973.773 680.44 973.854 680.737C973.934 681.025 973.952 681.33 973.909 681.652C973.86 681.97 973.744 682.291 973.56 682.614C973.377 682.937 973.149 683.202 972.877 683.408C972.608 683.609 972.302 683.745 971.96 683.815C971.615 683.877 971.239 683.866 970.83 683.781C970.425 683.69 969.994 683.515 969.537 683.255C969.048 682.977 968.651 682.67 968.347 682.336C968.039 681.998 967.821 681.642 967.695 681.268C967.563 680.891 967.522 680.503 967.572 680.104C967.616 679.702 967.747 679.297 967.964 678.89C968.181 678.483 968.482 678.083 968.867 677.691C969.106 677.827 969.348 677.964 969.593 678.104C969.833 678.24 970.072 678.376 970.312 678.512ZM972.244 681.877C972.362 681.671 972.39 681.466 972.329 681.262C972.268 681.058 972.135 680.897 971.929 680.78C971.717 680.66 971.511 680.627 971.31 680.682C971.104 680.735 970.942 680.864 970.825 681.07C970.711 681.27 970.681 681.471 970.737 681.672C970.789 681.864 970.919 682.018 971.125 682.136C971.342 682.259 971.555 682.299 971.764 682.256C971.97 682.204 972.13 682.077 972.244 681.877ZM976.265 677.605C975.753 677.313 975.238 677.021 974.72 676.726C974.203 676.432 973.69 676.14 973.184 675.852C973.12 675.964 973.055 676.078 972.989 676.195C972.926 676.306 972.862 676.417 972.799 676.529C972.593 676.412 972.387 676.294 972.181 676.177C971.975 676.06 971.769 675.943 971.563 675.826C971.626 675.715 971.69 675.603 971.753 675.492C971.819 675.375 971.884 675.261 971.948 675.149C971.753 675.039 971.561 674.929 971.371 674.822C971.176 674.711 970.984 674.602 970.795 674.494C970.925 674.266 971.056 674.035 971.189 673.801C971.322 673.567 971.452 673.339 971.579 673.116C971.768 673.224 971.96 673.333 972.155 673.444C972.344 673.551 972.536 673.661 972.731 673.771C972.804 673.643 972.878 673.512 972.954 673.379C973.03 673.245 973.105 673.114 973.178 672.986C973.384 673.103 973.59 673.221 973.796 673.338C974.002 673.455 974.208 673.572 974.414 673.689C974.341 673.817 974.266 673.948 974.19 674.082C974.114 674.215 974.04 674.346 973.967 674.474C974.474 674.762 974.986 675.054 975.504 675.348C976.022 675.643 976.537 675.935 977.049 676.227C976.922 676.449 976.793 676.678 976.66 676.912C976.527 677.145 976.395 677.376 976.265 677.605ZM979.147 672.848C978.964 673.171 978.737 673.44 978.467 673.655C978.192 673.867 977.893 674.017 977.57 674.106C977.241 674.191 976.904 674.214 976.559 674.172C976.218 674.125 975.883 674.008 975.554 673.822C975.226 673.635 974.954 673.407 974.739 673.137C974.527 672.862 974.377 672.563 974.288 672.239C974.199 671.916 974.178 671.584 974.225 671.242C974.266 670.897 974.379 670.563 974.562 670.24C974.749 669.912 974.979 669.644 975.251 669.438C975.52 669.223 975.817 669.071 976.14 668.982C976.463 668.893 976.795 668.872 977.137 668.919C977.482 668.961 977.819 669.075 978.147 669.262C978.476 669.448 978.746 669.679 978.958 669.955C979.173 670.224 979.328 670.522 979.422 670.849C979.511 671.172 979.535 671.506 979.493 671.851C979.449 672.187 979.334 672.519 979.147 672.848ZM977.903 672.14C978.058 671.867 978.084 671.595 977.981 671.322C977.876 671.041 977.67 670.814 977.364 670.64C977.052 670.462 976.754 670.403 976.469 670.463C976.183 670.513 975.962 670.675 975.807 670.948C975.652 671.221 975.624 671.496 975.724 671.774C975.821 672.043 976.026 672.266 976.338 672.444C976.644 672.618 976.943 672.681 977.235 672.634C977.525 672.577 977.748 672.413 977.903 672.14ZM977.136 662.624C978.088 663.165 979.051 663.713 980.026 664.267C981 664.821 981.963 665.369 982.915 665.91C982.779 666.15 982.642 666.392 982.502 666.637C982.363 666.882 982.224 667.127 982.084 667.372C981.405 666.986 980.72 666.596 980.03 666.204C979.334 665.808 978.649 665.418 977.975 665.035C977.917 665.216 977.86 665.4 977.804 665.59C977.745 665.77 977.687 665.951 977.629 666.131C977.406 666.004 977.18 665.876 976.952 665.746C976.724 665.617 976.498 665.488 976.276 665.362C976.414 664.91 976.559 664.455 976.71 663.995C976.855 663.532 976.997 663.075 977.136 662.624ZM979.858 658.071C980.075 658.195 980.298 658.321 980.526 658.451C980.749 658.578 980.968 658.703 981.186 658.826C981.723 659.552 982.268 660.285 982.819 661.026C983.368 661.758 983.911 662.487 984.449 663.213C984.31 663.458 984.167 663.709 984.022 663.965C983.876 664.221 983.734 664.471 983.594 664.716C983.057 663.991 982.513 663.262 981.964 662.53C981.413 661.789 980.869 661.055 980.331 660.33C980.119 660.703 979.902 661.084 979.68 661.474C979.462 661.858 979.245 662.239 979.03 662.618C978.812 662.494 978.592 662.369 978.37 662.243C978.141 662.113 977.919 661.986 977.702 661.863C978.059 661.234 978.419 660.602 978.78 659.967C979.144 659.327 979.503 658.695 979.858 658.071Z" fill="#F4E3D5"/>
</svg>
