<svg width="95" height="78" viewBox="0 0 95 78" fill="none" xmlns="http://www.w3.org/2000/svg">
<rect x="1.6543" y="41.0482" width="6.01644" height="9.4947" transform="rotate(-46.0035 1.6543 41.0482)" fill="#6697DC"/>
<rect x="10.0137" y="15.7611" width="6.01644" height="9.4947" transform="rotate(-46.0035 10.0137 15.7611)" fill="#6697DC"/>
<rect x="2.62793" y="53.1966" width="55.1821" height="65.8048" rx="6.67449" transform="rotate(-71.6214 2.62793 53.1966)" fill="#F4E3D5"/>
<rect x="1.63477" y="40.9789" width="6.01644" height="9.4947" transform="rotate(-71.6214 1.63477 40.9789)" fill="#B8D6FF"/>
<mask id="mask0_139_557" style="mask-type:alpha" maskUnits="userSpaceOnUse" x="52" y="11" width="42" height="66">
<rect x="52.9443" y="69.9134" width="61.4805" height="22.1856" transform="rotate(-71.6214 52.9443 69.9134)" fill="#6CBDAA"/>
</mask>
<g mask="url(#mask0_139_557)">
<path d="M8.96344 55.3011C5.46524 54.1388 3.57158 50.3608 4.73383 46.8626L17.9236 7.16329C19.0858 3.6651 22.8639 1.77143 26.3621 2.93368L76.1423 19.4728C79.6405 20.635 81.5342 24.413 80.3719 27.9112L67.1822 67.6105C66.0199 71.1087 62.2419 73.0024 58.7437 71.8402L8.96344 55.3011Z" fill="#B8D6FF"/>
</g>
<rect x="10.0244" y="15.7318" width="6.01644" height="9.4947" transform="rotate(-71.6214 10.0244 15.7318)" fill="#B8D6FF"/>
<path d="M30.2593 14.9195C28.8374 15.2774 26.8084 17.4314 28.4364 16.8344C29.694 16.3733 30.0808 15.5853 30.2593 14.9195Z" stroke="#404040" stroke-width="0.376027"/>
<path d="M31.1503 14.1544C32.3958 14.9238 33.6711 17.5875 32.3022 16.5282C31.2447 15.71 31.1169 14.8426 31.1503 14.1544Z" stroke="#404040" stroke-width="0.376027"/>
<path d="M18.4409 52.1097L30.6378 15.399" stroke="#404040" stroke-width="0.376027"/>
<ellipse cx="29.4445" cy="13.2699" rx="0.587686" ry="1.10928" transform="rotate(-71.6214 29.4445 13.2699)" fill="#AE88FD"/>
<ellipse cx="0.585762" cy="1.11295" rx="0.585762" ry="1.11295" transform="matrix(0.892508 -0.451031 0.445149 0.895456 29.3335 11.5687)" fill="#AE88FD"/>
<ellipse cx="0.584009" cy="1.11627" rx="0.584009" ry="1.11627" transform="matrix(0.994643 0.103371 -0.106109 0.994354 30.4253 14.2084)" fill="#AE88FD"/>
<ellipse cx="0.584692" cy="1.11498" rx="0.584692" ry="1.11498" transform="matrix(0.686016 0.727587 -0.723821 0.689988 30.085 13.5482)" fill="#AE88FD"/>
<ellipse cx="0.587207" cy="1.1102" rx="0.587207" ry="1.1102" transform="matrix(-0.628466 0.777837 -0.775097 -0.631842 33.4717 15.0638)" fill="#AE88FD"/>
<ellipse cx="0.585762" cy="1.11295" rx="0.585762" ry="1.11295" transform="matrix(0.445149 0.895456 -0.892508 0.451031 33.251 12.2132)" fill="#AE88FD"/>
<ellipse cx="31.6439" cy="12.205" rx="0.583832" ry="1.1166" transform="rotate(18.3786 31.6439 12.205)" fill="#AE88FD"/>
<ellipse cx="30.9443" cy="13.7368" rx="0.993588" ry="0.987072" transform="rotate(-71.6214 30.9443 13.7368)" fill="#FFE1E1"/>
<path d="M37.2192 17.233C35.7973 17.5909 33.7683 19.7448 35.3964 19.1479C36.654 18.6868 37.0408 17.8987 37.2192 17.233Z" stroke="#404040" stroke-width="0.376027"/>
<path d="M38.1098 16.466C39.3553 17.2353 40.6306 19.899 39.2617 18.8397C38.2042 18.0215 38.0764 17.1541 38.1098 16.466Z" stroke="#404040" stroke-width="0.376027"/>
<path d="M25.4004 54.4213L37.5972 17.7105" stroke="#404040" stroke-width="0.376027"/>
<ellipse cx="36.404" cy="15.5824" rx="0.587686" ry="1.10928" transform="rotate(-71.6214 36.404 15.5824)" fill="#AE88FD"/>
<ellipse cx="0.585762" cy="1.11295" rx="0.585762" ry="1.11295" transform="matrix(0.892508 -0.451031 0.445149 0.895456 36.291 13.8802)" fill="#AE88FD"/>
<ellipse cx="0.584009" cy="1.11627" rx="0.584009" ry="1.11627" transform="matrix(0.994643 0.103371 -0.106109 0.994354 37.3833 16.5199)" fill="#AE88FD"/>
<ellipse cx="0.584692" cy="1.11498" rx="0.584692" ry="1.11498" transform="matrix(0.686016 0.727587 -0.723821 0.689988 37.0449 15.8617)" fill="#AE88FD"/>
<ellipse cx="0.587207" cy="1.1102" rx="0.587207" ry="1.1102" transform="matrix(-0.628466 0.777837 -0.775097 -0.631842 40.4302 17.3754)" fill="#AE88FD"/>
<ellipse cx="0.585762" cy="1.11295" rx="0.585762" ry="1.11295" transform="matrix(0.445149 0.895456 -0.892508 0.451031 40.2095 14.5257)" fill="#AE88FD"/>
<ellipse cx="38.6019" cy="14.5165" rx="0.583832" ry="1.1166" transform="rotate(18.3786 38.6019 14.5165)" fill="#AE88FD"/>
<ellipse cx="37.9019" cy="16.0493" rx="0.993588" ry="0.987072" transform="rotate(-71.6214 37.9019 16.0493)" fill="#FFE1E1"/>
<path d="M44.2671 19.5748C42.8452 19.9327 40.8162 22.0866 42.4442 21.4897C43.7018 21.0286 44.0886 20.2405 44.2671 19.5748Z" stroke="#404040" stroke-width="0.376027"/>
<path d="M45.1591 18.8097C46.4046 19.5791 47.6799 22.2427 46.311 21.1835C45.2535 20.3653 45.1257 19.4979 45.1591 18.8097Z" stroke="#404040" stroke-width="0.376027"/>
<path d="M32.4497 56.765L44.6465 20.0543" stroke="#404040" stroke-width="0.376027"/>
<ellipse cx="43.4533" cy="17.9262" rx="0.587686" ry="1.10928" transform="rotate(-71.6214 43.4533 17.9262)" fill="#AE88FD"/>
<ellipse cx="0.585762" cy="1.11295" rx="0.585762" ry="1.11295" transform="matrix(0.892508 -0.451031 0.445149 0.895456 43.3413 16.225)" fill="#AE88FD"/>
<ellipse cx="0.584009" cy="1.11627" rx="0.584009" ry="1.11627" transform="matrix(0.994643 0.103371 -0.106109 0.994354 44.4336 18.8636)" fill="#AE88FD"/>
<ellipse cx="0.584692" cy="1.11498" rx="0.584692" ry="1.11498" transform="matrix(0.686016 0.727587 -0.723821 0.689988 44.0942 18.2045)" fill="#AE88FD"/>
<ellipse cx="0.587207" cy="1.1102" rx="0.587207" ry="1.1102" transform="matrix(-0.628466 0.777837 -0.775097 -0.631842 47.48 19.7201)" fill="#AE88FD"/>
<ellipse cx="0.585762" cy="1.11295" rx="0.585762" ry="1.11295" transform="matrix(0.445149 0.895456 -0.892508 0.451031 47.2593 16.8685)" fill="#AE88FD"/>
<ellipse cx="45.6527" cy="16.8603" rx="0.583832" ry="1.1166" transform="rotate(18.3786 45.6527 16.8603)" fill="#AE88FD"/>
<ellipse cx="44.9521" cy="18.3931" rx="0.993588" ry="0.987072" transform="rotate(-71.6214 44.9521 18.3931)" fill="#FFE1E1"/>
<path d="M51.3135 21.9156C49.8916 22.2735 47.8626 24.4275 49.4906 23.8305C50.7482 23.3694 51.135 22.5814 51.3135 21.9156Z" stroke="#404040" stroke-width="0.376027"/>
<path d="M52.206 21.1505C53.4515 21.9199 54.7268 24.5835 53.3578 23.5243C52.3004 22.7061 52.1726 21.8387 52.206 21.1505Z" stroke="#404040" stroke-width="0.376027"/>
<path d="M39.4956 59.1048L51.6924 22.3941" stroke="#404040" stroke-width="0.376027"/>
<ellipse cx="50.4982" cy="20.2651" rx="0.587686" ry="1.10928" transform="rotate(-71.6214 50.4982 20.2651)" fill="#AE88FD"/>
<ellipse cx="0.585762" cy="1.11295" rx="0.585762" ry="1.11295" transform="matrix(0.892508 -0.451031 0.445149 0.895456 50.3857 18.5629)" fill="#AE88FD"/>
<ellipse cx="0.584009" cy="1.11627" rx="0.584009" ry="1.11627" transform="matrix(0.994643 0.103371 -0.106109 0.994354 51.478 21.2025)" fill="#AE88FD"/>
<ellipse cx="0.584692" cy="1.11498" rx="0.584692" ry="1.11498" transform="matrix(0.686016 0.727587 -0.723821 0.689988 51.1382 20.5423)" fill="#AE88FD"/>
<ellipse cx="0.587207" cy="1.1102" rx="0.587207" ry="1.1102" transform="matrix(-0.628466 0.777837 -0.775097 -0.631842 54.5249 22.058)" fill="#AE88FD"/>
<ellipse cx="0.585762" cy="1.11295" rx="0.585762" ry="1.11295" transform="matrix(0.445149 0.895456 -0.892508 0.451031 54.3057 19.2084)" fill="#AE88FD"/>
<ellipse cx="52.6966" cy="19.1992" rx="0.583832" ry="1.1166" transform="rotate(18.3786 52.6966 19.1992)" fill="#AE88FD"/>
<ellipse cx="51.9966" cy="20.7319" rx="0.993588" ry="0.987072" transform="rotate(-71.6214 51.9966 20.7319)" fill="#FFE1E1"/>
<path d="M58.3638 24.2584C56.9419 24.6163 54.9129 26.7702 56.5409 26.1733C57.7985 25.7121 58.1853 24.9241 58.3638 24.2584Z" stroke="#404040" stroke-width="0.376027"/>
<path d="M59.2548 23.4933C60.5003 24.2627 61.7756 26.9263 60.4067 25.8671C59.3492 25.0489 59.2214 24.1815 59.2548 23.4933Z" stroke="#404040" stroke-width="0.376027"/>
<path d="M46.5444 61.4476L58.7413 24.7369" stroke="#404040" stroke-width="0.376027"/>
<ellipse cx="57.5485" cy="22.6088" rx="0.587686" ry="1.10928" transform="rotate(-71.6214 57.5485 22.6088)" fill="#AE88FD"/>
<ellipse cx="0.585762" cy="1.11295" rx="0.585762" ry="1.11295" transform="matrix(0.892508 -0.451031 0.445149 0.895456 57.4365 20.9076)" fill="#AE88FD"/>
<ellipse cx="0.584009" cy="1.11627" rx="0.584009" ry="1.11627" transform="matrix(0.994643 0.103371 -0.106109 0.994354 58.5283 23.5463)" fill="#AE88FD"/>
<ellipse cx="0.584692" cy="1.11498" rx="0.584692" ry="1.11498" transform="matrix(0.686016 0.727587 -0.723821 0.689988 58.1895 22.8871)" fill="#AE88FD"/>
<ellipse cx="0.587207" cy="1.1102" rx="0.587207" ry="1.1102" transform="matrix(-0.628466 0.777837 -0.775097 -0.631842 61.5757 24.4027)" fill="#AE88FD"/>
<ellipse cx="0.585762" cy="1.11295" rx="0.585762" ry="1.11295" transform="matrix(0.445149 0.895456 -0.892508 0.451031 61.355 21.5511)" fill="#AE88FD"/>
<ellipse cx="59.7484" cy="21.5429" rx="0.583832" ry="1.1166" transform="rotate(18.3786 59.7484 21.5429)" fill="#AE88FD"/>
<ellipse cx="59.0469" cy="23.0757" rx="0.993588" ry="0.987072" transform="rotate(-71.6214 59.0469 23.0757)" fill="#FFE1E1"/>
<path d="M17.1946 50.8478C17.161 50.9489 17.1271 51.0512 17.0927 51.1546C17.0583 51.2581 17.0239 51.3616 16.9896 51.465C16.5945 51.3338 16.1948 51.201 15.7903 51.0666C15.3859 50.9322 14.9861 50.7994 14.5911 50.6682C14.6255 50.5647 14.6599 50.4612 14.6942 50.3578C14.7286 50.2543 14.7626 50.152 14.7962 50.0509C14.9396 50.0986 15.0842 50.1466 15.23 50.1951C15.3735 50.2427 15.5169 50.2904 15.6603 50.338C15.7017 50.2134 15.7435 50.0876 15.7857 49.9606C15.8279 49.8336 15.8693 49.709 15.9099 49.5867C15.7665 49.5391 15.6231 49.4914 15.4796 49.4438C15.3338 49.3953 15.1892 49.3473 15.0458 49.2996C15.0802 49.1962 15.1145 49.0927 15.1489 48.9892C15.1833 48.8858 15.2173 48.7835 15.2509 48.6824C15.6459 48.8136 16.0456 48.9464 16.4501 49.0808C16.8545 49.2152 17.2543 49.348 17.6493 49.4793C17.6157 49.5804 17.5817 49.6827 17.5474 49.7861C17.513 49.8896 17.4786 49.993 17.4442 50.0965C17.2843 50.0434 17.1233 49.9899 16.961 49.936C16.7964 49.8813 16.6354 49.8278 16.4778 49.7754C16.4372 49.8977 16.3958 50.0223 16.3536 50.1493C16.3114 50.2763 16.2696 50.4021 16.2282 50.5267C16.3857 50.579 16.5468 50.6325 16.7114 50.6872C16.8737 50.7411 17.0347 50.7947 17.1946 50.8478ZM15.8619 48.0694C15.8392 48.1375 15.802 48.1944 15.7504 48.2399C15.6995 48.283 15.6415 48.3121 15.5765 48.327C15.5115 48.342 15.4461 48.3385 15.3802 48.3166C15.3144 48.2948 15.2611 48.2588 15.2203 48.2087C15.1771 48.1578 15.1481 48.0998 15.1331 48.0348C15.119 47.9674 15.1232 47.8997 15.1458 47.8315C15.1677 47.7656 15.2041 47.7111 15.255 47.668C15.3067 47.6225 15.365 47.5923 15.43 47.5773C15.4927 47.5616 15.557 47.5647 15.6228 47.5865C15.6886 47.6084 15.7431 47.6448 15.7863 47.6957C15.8294 47.7466 15.8581 47.8057 15.8722 47.8731C15.8872 47.9381 15.8837 48.0035 15.8619 48.0694ZM17.7962 49.0371C17.4952 48.9371 17.1919 48.8363 16.8862 48.7348C16.5782 48.6324 16.2737 48.5312 15.9727 48.4312C16.0047 48.3348 16.0371 48.2373 16.07 48.1385C16.1028 48.0397 16.1348 47.9433 16.166 47.8493C16.467 47.9493 16.7715 48.0504 17.0796 48.1528C17.3853 48.2543 17.6886 48.3551 17.9896 48.4551C17.9583 48.5492 17.9263 48.6456 17.8935 48.7443C17.8607 48.8431 17.8282 48.9407 17.7962 49.0371ZM18.3978 46.2363C18.5976 46.3027 18.7501 46.4017 18.8553 46.5332C18.9612 46.6624 19.0224 46.812 19.0391 46.982C19.058 47.1528 19.037 47.3338 18.9761 47.5251C18.916 47.714 18.8217 47.9033 18.6934 48.093C18.6017 48.0626 18.5088 48.0317 18.4148 48.0005C18.3231 47.97 18.2314 47.9395 18.1397 47.9091C18.2743 47.7475 18.3666 47.5915 18.4166 47.441C18.4689 47.2913 18.4802 47.1632 18.4503 47.0567C18.4188 46.947 18.3502 46.8746 18.2444 46.8394C18.2326 46.8355 18.2221 46.832 18.2126 46.8289C18.2009 46.825 18.1903 46.8214 18.1809 46.8183C18.2061 46.892 18.2187 46.9719 18.2188 47.0581C18.2188 47.1442 18.204 47.232 18.1743 47.3214C18.1251 47.4695 18.0469 47.591 17.9396 47.686C17.8308 47.7777 17.7043 47.8362 17.5602 47.8614C17.4137 47.8859 17.2581 47.8708 17.0935 47.8161C16.9666 47.7739 16.8572 47.714 16.7654 47.6366C16.6737 47.5591 16.6015 47.4698 16.5489 47.3688C16.4963 47.2678 16.466 47.1624 16.4581 47.0527C16.4478 46.9423 16.4602 46.8341 16.4954 46.7283C16.5235 46.6437 16.5615 46.5688 16.6092 46.5037C16.6569 46.4386 16.7101 46.3845 16.7689 46.3414C16.7524 46.3359 16.7371 46.3308 16.723 46.3261C16.7089 46.3214 16.6936 46.3164 16.6772 46.3109C16.7092 46.2145 16.7416 46.1169 16.7744 46.0181C16.8072 45.9194 16.8393 45.823 16.8705 45.7289C17.1221 45.8125 17.3773 45.8973 17.6359 45.9832C17.8922 46.0684 18.1462 46.1527 18.3978 46.2363ZM17.718 47.0092C17.7508 46.9104 17.7464 46.8215 17.7048 46.7424C17.6616 46.6602 17.5907 46.6026 17.4919 46.5698C17.3908 46.5362 17.2984 46.5395 17.2146 46.5795C17.1315 46.6172 17.0736 46.6854 17.0408 46.7842C17.0064 46.8876 17.0108 46.9805 17.054 47.0627C17.0948 47.1442 17.167 47.2021 17.2704 47.2365C17.3715 47.2701 17.4628 47.2664 17.5443 47.2256C17.6257 47.1848 17.6836 47.1126 17.718 47.0092ZM18.8285 45.9302C18.4029 45.7888 17.9737 45.6462 17.5411 45.5025C17.1084 45.3587 16.6793 45.2161 16.2537 45.0747C16.2857 44.9783 16.3181 44.8807 16.3509 44.782C16.3837 44.6832 16.4158 44.5868 16.447 44.4928C16.5857 44.5388 16.7268 44.5857 16.8703 44.6334C17.0114 44.6803 17.1513 44.7267 17.29 44.7728C17.2664 44.6945 17.2558 44.6126 17.258 44.5272C17.2587 44.4387 17.2743 44.3486 17.3048 44.2568C17.3493 44.1228 17.4189 44.0154 17.5137 43.9346C17.6092 43.8515 17.7239 43.8008 17.8579 43.7826C17.9903 43.7614 18.1364 43.7773 18.2963 43.8304C18.4797 43.8913 18.6643 43.9527 18.8501 44.0144C19.0358 44.0761 19.2204 44.1374 19.4038 44.1984C19.3726 44.2924 19.3406 44.3888 19.3078 44.4876C19.2749 44.5864 19.2425 44.6839 19.2105 44.7803C19.0412 44.7241 18.8695 44.6671 18.6955 44.6093C18.5215 44.5514 18.3499 44.4944 18.1806 44.4382C18.0865 44.4069 18.0038 44.4043 17.9326 44.4302C17.8597 44.453 17.8077 44.5114 17.7764 44.6055C17.7452 44.6995 17.748 44.7814 17.7849 44.8511C17.8218 44.9208 17.8908 44.9724 17.9919 45.006C18.1612 45.0623 18.3329 45.1193 18.5069 45.1771C18.6809 45.2349 18.8525 45.292 19.0218 45.3482C18.9906 45.4423 18.9585 45.5387 18.9257 45.6374C18.8929 45.7362 18.8605 45.8338 18.8285 45.9302ZM18.6859 43.6362C18.5966 43.6065 18.506 43.5764 18.4143 43.546C18.3203 43.5147 18.2286 43.4843 18.1392 43.4546C18.1916 43.297 18.2443 43.1383 18.2974 42.9784C18.3505 42.8185 18.4033 42.6598 18.4556 42.5022C18.545 42.5319 18.6367 42.5624 18.7307 42.5937C18.8224 42.6241 18.913 42.6542 19.0023 42.6839C18.95 42.8414 18.8972 43.0002 18.8441 43.16C18.791 43.3199 18.7383 43.4787 18.6859 43.6362ZM20.6801 42.2432C20.6488 42.3373 20.6168 42.4337 20.584 42.5324C20.5512 42.6312 20.5187 42.7288 20.4867 42.8252C20.094 42.6947 19.6966 42.5627 19.2945 42.4291C18.8901 42.2947 18.4915 42.1623 18.0988 42.0318C18.1309 41.9354 18.1633 41.8379 18.1961 41.7391C18.2289 41.6403 18.2609 41.5439 18.2922 41.4499C18.3087 41.4553 18.3251 41.4608 18.3416 41.4663C18.358 41.4717 18.3757 41.4776 18.3945 41.4839C18.367 41.4094 18.3528 41.3303 18.3519 41.2465C18.3487 41.1619 18.3612 41.0772 18.3893 40.9926C18.4284 40.875 18.489 40.7711 18.5712 40.6809C18.651 40.59 18.7465 40.5186 18.8577 40.4667C18.9697 40.4126 19.0919 40.3827 19.2244 40.3771C19.3575 40.3691 19.4959 40.3889 19.6393 40.4366C19.7804 40.4835 19.9019 40.5499 20.0038 40.636C20.1066 40.7198 20.1878 40.8172 20.2474 40.9285C20.3055 41.0365 20.3405 41.1513 20.3524 41.2727C20.3642 41.3942 20.3503 41.5148 20.3104 41.6348C20.2823 41.7194 20.2416 41.7947 20.1884 41.8605C20.1383 41.9248 20.0788 41.9782 20.0099 42.0206C20.1204 42.0573 20.2321 42.0944 20.345 42.1319C20.4579 42.1694 20.5695 42.2065 20.6801 42.2432ZM19.7697 41.5413C19.808 41.426 19.7981 41.3222 19.74 41.2298C19.6803 41.1343 19.5823 41.0639 19.4459 41.0186C19.3096 40.9733 19.1901 40.9714 19.0875 41.013C18.9856 41.0523 18.9156 41.1296 18.8773 41.2448C18.8398 41.3577 18.8509 41.4619 18.9105 41.5574C18.9678 41.6521 19.0635 41.7218 19.1975 41.7663C19.3315 41.8108 19.451 41.8127 19.556 41.7718C19.6609 41.731 19.7322 41.6541 19.7697 41.5413ZM20.6491 40.4505C20.3481 40.3505 20.0447 40.2497 19.7391 40.1481C19.431 40.0458 19.1265 39.9446 18.8255 39.8446C18.8576 39.7482 18.89 39.6506 18.9228 39.5519C18.9556 39.4531 18.9876 39.3567 19.0189 39.2626C19.0353 39.2681 19.0518 39.2736 19.0683 39.279C19.0847 39.2845 19.1012 39.29 19.1176 39.2954C19.0901 39.2054 19.0787 39.1102 19.0833 39.0099C19.0879 38.9096 19.114 38.8073 19.1617 38.703C19.2558 38.7343 19.351 38.7659 19.4474 38.798C19.5438 38.83 19.6391 38.8616 19.7331 38.8929C19.6455 39.07 19.6163 39.2131 19.6454 39.322C19.6721 39.4301 19.7502 39.5056 19.8795 39.5486C20.0371 39.6009 20.1969 39.654 20.3592 39.7079C20.5214 39.7618 20.6825 39.8154 20.8424 39.8685C20.8112 39.9625 20.7791 40.059 20.7463 40.1577C20.7135 40.2565 20.6811 40.3541 20.6491 40.4505ZM21.5425 37.4784C21.5568 37.6633 21.5456 37.8385 21.5089 38.0038C21.4723 38.1692 21.4125 38.3177 21.3295 38.4495C21.2497 38.5796 21.1503 38.6863 21.0313 38.7694C20.9123 38.8526 20.7788 38.9048 20.6307 38.9261C20.4834 38.9451 20.3263 38.9268 20.1593 38.8714C20.0206 38.8253 19.901 38.7608 19.8007 38.6778C19.6987 38.5917 19.6183 38.4919 19.5594 38.3783C19.4982 38.264 19.4632 38.1414 19.4545 38.0105C19.4434 37.8789 19.4605 37.7449 19.5058 37.6085C19.5464 37.4863 19.6031 37.3824 19.6759 37.2969C19.7487 37.2114 19.8336 37.1444 19.9307 37.0957C20.0255 37.0462 20.1297 37.0156 20.2433 37.0037C20.3569 36.9918 20.4744 36.9995 20.5959 37.0269C20.7174 37.0542 20.8397 37.1026 20.9628 37.1722C20.8987 37.3651 20.8342 37.559 20.7694 37.7542C20.7046 37.9494 20.6401 38.1434 20.576 38.3362C20.6802 38.3212 20.7683 38.2682 20.8403 38.1773C20.9131 38.0839 20.9663 37.9632 20.9998 37.8151C21.0342 37.6646 21.0481 37.4969 21.0416 37.312C21.1239 37.3394 21.2074 37.3671 21.2921 37.3952C21.3767 37.4233 21.4602 37.4511 21.5425 37.4784ZM20.0231 37.7961C20.0005 37.8643 19.9982 37.934 20.0163 38.0053C20.0351 38.0742 20.0783 38.1369 20.1457 38.1932C20.1809 38.0874 20.216 37.9816 20.2512 37.8758C20.2871 37.7676 20.3227 37.6606 20.3578 37.5548C20.2685 37.5565 20.1968 37.5796 20.1428 37.6244C20.0872 37.6659 20.0473 37.7232 20.0231 37.7961ZM21.6691 35.4942C21.8149 35.5426 21.9211 35.6236 21.9879 35.7372C22.053 35.8476 22.0841 35.978 22.0811 36.1284C22.0781 36.2789 22.045 36.4376 21.9817 36.6046C21.9215 36.7699 21.8378 36.9314 21.7306 37.089C21.6413 37.0593 21.5496 37.0289 21.4555 36.9976C21.3614 36.9664 21.2697 36.9359 21.1804 36.9062C21.2579 36.8223 21.326 36.7353 21.3846 36.6451C21.441 36.5542 21.4848 36.4695 21.516 36.3911C21.5473 36.3127 21.5629 36.2461 21.5628 36.1912C21.5604 36.1356 21.5381 36.1008 21.4957 36.0867C21.4628 36.0758 21.4299 36.0883 21.3971 36.1244C21.365 36.1581 21.3309 36.2056 21.2949 36.2667C21.2566 36.3271 21.2144 36.3914 21.1682 36.4596C21.1205 36.5247 21.0657 36.5835 21.0038 36.6361C20.9396 36.6878 20.8664 36.7236 20.7841 36.7432C20.7003 36.7598 20.6031 36.7497 20.4926 36.713C20.3609 36.6692 20.2618 36.5945 20.1951 36.4888C20.1268 36.3799 20.0906 36.253 20.0865 36.1081C20.0801 35.9623 20.1035 35.8095 20.1566 35.6496C20.2097 35.4897 20.2911 35.3353 20.4006 35.1863C20.49 35.216 20.5817 35.2465 20.6757 35.2777C20.7698 35.309 20.8615 35.3394 20.9509 35.3691C20.8436 35.4797 20.7603 35.5891 20.7008 35.6973C20.6414 35.8055 20.6082 35.8976 20.6012 35.9736C20.5919 36.0488 20.6119 36.0946 20.6613 36.111C20.6942 36.122 20.7267 36.1106 20.7588 36.0769C20.7893 36.04 20.8222 35.9922 20.8574 35.9334C20.8934 35.8722 20.9352 35.8091 20.983 35.744C21.0315 35.6766 21.0874 35.6182 21.1509 35.5687C21.2127 35.5162 21.2867 35.482 21.3729 35.4663C21.4575 35.4474 21.5562 35.4567 21.6691 35.4942ZM22.2196 33.8374C22.3653 33.8858 22.4716 33.9668 22.5383 34.0804C22.6035 34.1908 22.6345 34.3212 22.6315 34.4717C22.6286 34.6221 22.5954 34.7808 22.5321 34.9478C22.4719 35.1132 22.3883 35.2746 22.2811 35.4322C22.1917 35.4026 22.1 35.3721 22.006 35.3408C21.9119 35.3096 21.8202 35.2791 21.7308 35.2494C21.8083 35.1655 21.8764 35.0785 21.9351 34.9883C21.9914 34.8974 22.0352 34.8127 22.0665 34.7343C22.0977 34.6559 22.1133 34.5893 22.1133 34.5345C22.1109 34.4788 22.0885 34.444 22.0462 34.4299C22.0133 34.419 21.9804 34.4316 21.9475 34.4676C21.9154 34.5014 21.8814 34.5488 21.8454 34.6099C21.8071 34.6703 21.7648 34.7346 21.7186 34.8028C21.6709 34.8679 21.6161 34.9267 21.5543 34.9793C21.4901 35.0311 21.4168 35.0668 21.3346 35.0865C21.2508 35.103 21.1536 35.0929 21.0431 35.0562C20.9114 35.0124 20.8122 34.9377 20.7455 34.832C20.6772 34.7231 20.6411 34.5962 20.637 34.4513C20.6306 34.3056 20.6539 34.1527 20.7071 33.9928C20.7602 33.8329 20.8415 33.6785 20.9511 33.5295C21.0404 33.5592 21.1321 33.5897 21.2262 33.6209C21.3203 33.6522 21.412 33.6826 21.5013 33.7123C21.3941 33.8229 21.3107 33.9323 21.2513 34.0405C21.1918 34.1487 21.1586 34.2408 21.1517 34.3168C21.1423 34.392 21.1624 34.4378 21.2117 34.4543C21.2447 34.4652 21.2772 34.4538 21.3093 34.4201C21.3398 34.3832 21.3726 34.3354 21.4078 34.2766C21.4438 34.2154 21.4857 34.1523 21.5334 34.0872C21.5819 34.0198 21.6379 33.9614 21.7013 33.9119C21.7632 33.8594 21.8372 33.8252 21.9234 33.8095C22.008 33.7906 22.1067 33.7999 22.2196 33.8374ZM21.6197 31.4346C21.9207 31.5346 22.2252 31.6358 22.5332 31.7382C22.8389 31.8397 23.1422 31.9405 23.4432 32.0405C23.412 32.1345 23.3799 32.231 23.3471 32.3297C23.3143 32.4285 23.2819 32.5261 23.2498 32.6225C23.2334 32.617 23.2181 32.6119 23.204 32.6072C23.1899 32.6025 23.1746 32.5975 23.1581 32.592C23.1817 32.6703 23.192 32.7534 23.1889 32.8411C23.189 32.9273 23.1738 33.0163 23.1434 33.108C23.0988 33.242 23.0288 33.3506 22.9333 33.4338C22.8386 33.5146 22.7238 33.5652 22.5891 33.5857C22.4551 33.6039 22.3094 33.5868 22.1518 33.5344C21.9684 33.4735 21.7838 33.4122 21.5981 33.3504C21.4123 33.2887 21.2277 33.2274 21.0443 33.1665C21.0763 33.0701 21.1087 32.9725 21.1416 32.8737C21.1744 32.7749 21.2064 32.6785 21.2376 32.5845C21.407 32.6407 21.5786 32.6978 21.7526 32.7556C21.9266 32.8134 22.0983 32.8704 22.2676 32.9267C22.3616 32.9579 22.4451 32.9621 22.5179 32.9393C22.5892 32.9134 22.6405 32.8534 22.6717 32.7594C22.703 32.6653 22.7001 32.5834 22.6632 32.5137C22.6264 32.444 22.5574 32.3924 22.4562 32.3588C22.2869 32.3026 22.1153 32.2455 21.9413 32.1877C21.7673 32.1299 21.5956 32.0729 21.4263 32.0166C21.4583 31.9202 21.4908 31.8226 21.5236 31.7239C21.5564 31.6251 21.5884 31.5287 21.6197 31.4346ZM23.5718 31.6533C23.2709 31.5533 22.9675 31.4525 22.6618 31.351C22.3538 31.2486 22.0493 31.1475 21.7483 31.0475C21.7803 30.951 21.8128 30.8535 21.8456 30.7547C21.8784 30.6559 21.9104 30.5595 21.9417 30.4655C21.9581 30.4709 21.9746 30.4764 21.9911 30.4819C22.0075 30.4874 22.024 30.4928 22.0404 30.4983C22.0129 30.4082 22.0015 30.313 22.0061 30.2127C22.0107 30.1124 22.0368 30.0101 22.0845 29.9059C22.1786 29.9371 22.2738 29.9688 22.3702 30.0008C22.4666 30.0328 22.5618 30.0645 22.6559 30.0957C22.5683 30.2729 22.5391 30.4159 22.5682 30.5248C22.5949 30.6329 22.673 30.7084 22.8023 30.7514C22.9598 30.8038 23.1197 30.8569 23.282 30.9108C23.4442 30.9647 23.6053 31.0182 23.7652 31.0713C23.7339 31.1654 23.7019 31.2618 23.6691 31.3606C23.6363 31.4593 23.6039 31.5569 23.5718 31.6533ZM24.4653 28.6813C24.4796 28.8662 24.4684 29.0413 24.4317 29.2067C24.395 29.372 24.3353 29.5206 24.2523 29.6523C24.1725 29.7824 24.0731 29.8891 23.9541 29.9723C23.8351 30.0555 23.7015 30.1077 23.5535 30.129C23.4062 30.1479 23.2491 30.1297 23.0821 30.0742C22.9434 30.0281 22.8238 29.9636 22.7234 29.8806C22.6215 29.7945 22.5411 29.6947 22.4822 29.5812C22.421 29.4668 22.386 29.3442 22.3772 29.2134C22.3661 29.0818 22.3833 28.9478 22.4286 28.8114C22.4692 28.6891 22.5259 28.5852 22.5987 28.4998C22.6715 28.4143 22.7564 28.3472 22.8535 28.2985C22.9483 28.2491 23.0525 28.2184 23.1661 28.2065C23.2797 28.1947 23.3972 28.2024 23.5187 28.2297C23.6402 28.257 23.7625 28.3055 23.8855 28.3751C23.8215 28.5679 23.757 28.7619 23.6922 28.9571C23.6273 29.1522 23.5629 29.3462 23.4988 29.539C23.603 29.524 23.6911 29.4711 23.7631 29.3801C23.8359 29.2868 23.8891 29.1661 23.9226 29.0179C23.9569 28.8675 23.9709 28.6998 23.9644 28.5149C24.0467 28.5422 24.1302 28.5699 24.2149 28.5981C24.2995 28.6262 24.383 28.6539 24.4653 28.6813ZM22.9459 28.9989C22.9232 29.0671 22.921 29.1369 22.939 29.2081C22.9579 29.2771 23.0011 29.3397 23.0685 29.3961C23.1037 29.2902 23.1388 29.1844 23.174 29.0786C23.2099 28.9705 23.2455 28.8635 23.2806 28.7577C23.1913 28.7593 23.1196 28.7825 23.0656 28.8272C23.01 28.8688 22.9701 28.926 22.9459 28.9989ZM23.5883 28.0085C23.3696 27.9358 23.1803 27.8455 23.0203 27.7376C22.8612 27.6272 22.7282 27.5047 22.6215 27.3701C22.5148 27.2354 22.434 27.0937 22.379 26.9448C22.3224 26.7929 22.289 26.6382 22.2786 26.4807C22.2659 26.3224 22.276 26.1665 22.3087 26.0129C22.3957 26.0418 22.4839 26.0711 22.5733 26.1008C22.6626 26.1304 22.7508 26.1597 22.8378 26.1887C22.8239 26.3642 22.8432 26.5299 22.8959 26.6858C22.9493 26.8393 23.0466 26.9787 23.1878 27.1039C23.3297 27.2268 23.5288 27.3308 23.7851 27.4159C24.0391 27.5003 24.2609 27.5361 24.4505 27.5234C24.6385 27.5076 24.7999 27.4541 24.9346 27.3631C25.07 27.2697 25.1847 27.1485 25.2786 26.9996C25.3656 27.0285 25.4538 27.0578 25.5431 27.0875C25.6325 27.1172 25.7206 27.1465 25.8076 27.1754C25.7396 27.3172 25.6543 27.4482 25.5518 27.5682C25.4493 27.6882 25.3299 27.7921 25.1936 27.88C25.0605 27.9663 24.9109 28.0315 24.7449 28.0755C24.5788 28.1196 24.399 28.1382 24.2054 28.1313C24.0127 28.1221 23.807 28.0811 23.5883 28.0085ZM25.1103 25.1367C25.2561 25.1851 25.3623 25.2661 25.4291 25.3797C25.4942 25.4901 25.5253 25.6205 25.5223 25.7709C25.5193 25.9214 25.4862 26.0801 25.4229 26.2471C25.3627 26.4124 25.279 26.5739 25.1718 26.7315C25.0825 26.7018 24.9908 26.6714 24.8967 26.6401C24.8026 26.6089 24.7109 26.5784 24.6216 26.5487C24.6991 26.4648 24.7672 26.3778 24.8258 26.2876C24.8822 26.1967 24.9259 26.112 24.9572 26.0336C24.9885 25.9552 25.0041 25.8886 25.004 25.8337C25.0016 25.7781 24.9793 25.7433 24.9369 25.7292C24.904 25.7183 24.8711 25.7308 24.8382 25.7669C24.8062 25.8006 24.7721 25.8481 24.7361 25.9092C24.6978 25.9696 24.6555 26.0339 24.6094 26.1021C24.5617 26.1672 24.5069 26.226 24.445 26.2786C24.3808 26.3303 24.3076 26.3661 24.2253 26.3857C24.1415 26.4023 24.0443 26.3922 23.9338 26.3555C23.8021 26.3117 23.7029 26.237 23.6362 26.1313C23.568 26.0224 23.5318 25.8955 23.5277 25.7506C23.5213 25.6048 23.5447 25.452 23.5978 25.2921C23.6509 25.1322 23.7323 24.9778 23.8418 24.8288C23.9312 24.8585 24.0229 24.889 24.1169 24.9202C24.211 24.9515 24.3027 24.9819 24.3921 25.0116C24.2848 25.1222 24.2015 25.2316 24.142 25.3398C24.0826 25.448 24.0494 25.5401 24.0424 25.6161C24.0331 25.6913 24.0531 25.7371 24.1025 25.7535C24.1354 25.7645 24.1679 25.7531 24.2 25.7194C24.2305 25.6825 24.2634 25.6347 24.2986 25.5759C24.3346 25.5147 24.3764 25.4516 24.4242 25.3865C24.4727 25.3191 24.5286 25.2607 24.5921 25.2112C24.6539 25.1587 24.7279 25.1245 24.8141 25.1088C24.8987 25.0899 24.9974 25.0992 25.1103 25.1367ZM25.7738 25.0257C25.3482 24.8843 24.9191 24.7418 24.4864 24.598C24.0537 24.4543 23.6246 24.3117 23.199 24.1703C23.231 24.0739 23.2634 23.9763 23.2963 23.8775C23.3291 23.7788 23.3611 23.6824 23.3923 23.5883C23.6228 23.6649 23.8567 23.7426 24.0942 23.8215C24.3317 23.9004 24.5657 23.9782 24.7961 24.0547C24.7161 23.9341 24.6361 23.8135 24.556 23.6929C24.4736 23.5716 24.3924 23.4506 24.3124 23.33C24.3499 23.2171 24.3874 23.1043 24.4249 22.9914C24.4631 22.8762 24.501 22.7621 24.5385 22.6493C24.6406 22.8059 24.743 22.9652 24.8458 23.1273C24.9494 23.2871 25.0522 23.4453 25.1542 23.6019C25.3555 23.5382 25.5591 23.4753 25.7652 23.4132C25.9696 23.348 26.1721 23.2847 26.3726 23.2234C26.3343 23.3386 26.2961 23.4538 26.2578 23.569C26.2195 23.6843 26.1812 23.7995 26.1429 23.9147C25.9894 23.9603 25.8343 24.0067 25.6776 24.0538C25.5186 24.1002 25.3623 24.1462 25.2088 24.1918C25.3334 24.2332 25.4604 24.2754 25.5897 24.3184C25.7167 24.3606 25.8425 24.4024 25.9671 24.4438C25.9359 24.5378 25.9039 24.6342 25.8711 24.733C25.8382 24.8318 25.8058 24.9293 25.7738 25.0257ZM26.8513 21.4996C26.8656 21.6845 26.8544 21.8596 26.8178 22.025C26.7811 22.1903 26.7213 22.3389 26.6384 22.4706C26.5586 22.6007 26.4592 22.7074 26.3402 22.7906C26.2212 22.8737 26.0876 22.926 25.9395 22.9473C25.7922 22.9662 25.6351 22.948 25.4682 22.8925C25.3294 22.8464 25.2099 22.7819 25.1095 22.6989C25.0076 22.6128 24.9272 22.513 24.8683 22.3995C24.807 22.2851 24.7721 22.1625 24.7633 22.0317C24.7522 21.9001 24.7693 21.7661 24.8146 21.6297C24.8553 21.5074 24.912 21.4035 24.9847 21.318C25.0575 21.2326 25.1425 21.1655 25.2396 21.1168C25.3344 21.0674 25.4385 21.0367 25.5521 21.0248C25.6657 21.013 25.7833 21.0207 25.9048 21.048C26.0262 21.0753 26.1485 21.1238 26.2716 21.1934C26.2075 21.3862 26.1431 21.5802 26.0782 21.7754C26.0134 21.9705 25.949 22.1645 25.8849 22.3573C25.9891 22.3423 26.0772 22.2894 26.1492 22.1984C26.222 22.1051 26.2751 21.9844 26.3087 21.8362C26.343 21.6858 26.3569 21.5181 26.3505 21.3332C26.4328 21.3605 26.5163 21.3882 26.6009 21.4164C26.6856 21.4445 26.769 21.4722 26.8513 21.4996ZM25.332 21.8172C25.3093 21.8854 25.307 21.9552 25.3251 22.0264C25.344 22.0954 25.3871 22.158 25.4546 22.2144C25.4897 22.1085 25.5249 22.0027 25.56 21.8969C25.596 21.7888 25.6315 21.6818 25.6667 21.5759C25.5774 21.5776 25.5057 21.6008 25.4517 21.6455C25.3961 21.6871 25.3562 21.7443 25.332 21.8172ZM27.137 20.9228C26.9206 20.8509 26.7031 20.7786 26.4844 20.706C26.2658 20.6333 26.0494 20.5615 25.8355 20.4904C25.8198 20.5374 25.8038 20.5856 25.7874 20.635C25.7718 20.682 25.7562 20.729 25.7405 20.7761C25.6535 20.7472 25.5665 20.7183 25.4795 20.6894C25.3925 20.6604 25.3055 20.6315 25.2185 20.6026C25.2341 20.5556 25.2498 20.5086 25.2654 20.4615C25.2818 20.4122 25.2978 20.364 25.3134 20.3169C25.2311 20.2896 25.15 20.2626 25.0701 20.2361C24.9878 20.2087 24.9066 20.1818 24.8267 20.1552C24.8587 20.0588 24.8911 19.9612 24.924 19.8625C24.9568 19.7637 24.9888 19.6673 25.0201 19.5732C25.1 19.5998 25.1811 19.6268 25.2634 19.6541C25.3434 19.6807 25.4245 19.7076 25.5068 19.735C25.5248 19.6809 25.5431 19.6256 25.5619 19.5692C25.5806 19.5127 25.599 19.4575 25.617 19.4034C25.704 19.4323 25.791 19.4612 25.878 19.4901C25.965 19.519 26.052 19.5479 26.139 19.5768C26.121 19.6309 26.1026 19.6862 26.0839 19.7426C26.0651 19.7991 26.0468 19.8543 26.0288 19.9084C26.2428 19.9795 26.4591 20.0514 26.6778 20.124C26.8965 20.1967 27.114 20.2689 27.3303 20.3408C27.2991 20.4349 27.267 20.5313 27.2342 20.63C27.2014 20.7288 27.169 20.8264 27.137 20.9228ZM26.5817 19.541C26.403 19.4817 26.2587 19.3933 26.1489 19.2759C26.0367 19.1576 25.961 19.0202 25.9216 18.8635C25.8823 18.7069 25.8829 18.54 25.9235 18.3628C25.9617 18.1849 26.0426 18.0082 26.1663 17.8325C26.2556 17.8622 26.3462 17.8923 26.4379 17.9228C26.5296 17.9532 26.6201 17.9833 26.7095 18.013C26.5983 18.1275 26.5244 18.2479 26.4877 18.374C26.451 18.5002 26.4558 18.6154 26.5021 18.7196C26.5461 18.823 26.6386 18.8981 26.7797 18.945C26.9208 18.9918 27.0411 18.9874 27.1405 18.9317C27.2376 18.8752 27.3092 18.7854 27.3553 18.6623C27.3991 18.5385 27.4119 18.3978 27.3937 18.2403C27.4831 18.27 27.5736 18.3001 27.6653 18.3306C27.757 18.361 27.8475 18.3911 27.9369 18.4208C27.9308 18.6355 27.8899 18.8256 27.814 18.991C27.7406 19.1571 27.6412 19.2912 27.5159 19.3932C27.3906 19.4952 27.2489 19.5604 27.0906 19.5887C26.93 19.6163 26.7604 19.6004 26.5817 19.541ZM28.0912 18.0507C27.6656 17.9093 27.2365 17.7667 26.8038 17.623C26.3711 17.4792 25.942 17.3367 25.5164 17.1953C25.5484 17.0988 25.5808 17.0013 25.6137 16.9025C25.6465 16.8037 25.6785 16.7073 25.7097 16.6133C25.8485 16.6594 25.9896 16.7062 26.133 16.7539C26.2741 16.8008 26.414 16.8473 26.5527 16.8933C26.5291 16.815 26.5185 16.7331 26.5208 16.6477C26.5214 16.5592 26.537 16.4691 26.5675 16.3774C26.612 16.2433 26.6817 16.1359 26.7764 16.0551C26.8719 15.972 26.9866 15.9213 27.1206 15.9032C27.253 15.8819 27.3992 15.8978 27.5591 15.9509C27.7425 16.0119 27.9271 16.0732 28.1128 16.1349C28.2986 16.1966 28.4832 16.258 28.6666 16.3189C28.6353 16.4129 28.6033 16.5094 28.5705 16.6081C28.5377 16.7069 28.5052 16.8045 28.4732 16.9009C28.3039 16.8446 28.1323 16.7876 27.9583 16.7298C27.7843 16.672 27.6126 16.6149 27.4433 16.5587C27.3492 16.5274 27.2666 16.5248 27.1953 16.5507C27.1224 16.5735 27.0704 16.6319 27.0391 16.726C27.0079 16.82 27.0107 16.9019 27.0476 16.9716C27.0845 17.0413 27.1535 17.093 27.2546 17.1265C27.4239 17.1828 27.5956 17.2398 27.7696 17.2976C27.9436 17.3555 28.1152 17.4125 28.2845 17.4687C28.2533 17.5628 28.2213 17.6592 28.1885 17.758C28.1556 17.8567 28.1232 17.9543 28.0912 18.0507ZM28.1253 14.341C28.344 14.4136 28.5329 14.5051 28.6921 14.6155C28.852 14.7234 28.9853 14.8448 29.092 14.9794C29.1987 15.1141 29.2792 15.257 29.3334 15.4082C29.3907 15.5578 29.4246 15.7113 29.4349 15.8688C29.4453 16.0263 29.4352 16.1822 29.4048 16.3366C29.3155 16.3069 29.2261 16.2772 29.1368 16.2476C29.0498 16.2186 28.9627 16.1897 28.8757 16.1608C28.8905 15.983 28.8711 15.8173 28.8177 15.6637C28.7642 15.5102 28.6665 15.372 28.5246 15.2491C28.3811 15.1231 28.1824 15.0179 27.9284 14.9335C27.6721 14.8484 27.4499 14.8137 27.2619 14.8296C27.0746 14.8431 26.9137 14.8954 26.779 14.9864C26.6443 15.0774 26.5296 15.1986 26.435 15.3499C26.3456 15.3202 26.2574 15.2909 26.1704 15.262C26.0811 15.2323 25.9929 15.203 25.9059 15.1741C25.9716 15.0315 26.0569 14.9005 26.1617 14.7813C26.2643 14.6613 26.3833 14.5586 26.5187 14.473C26.6526 14.3844 26.8026 14.318 26.9687 14.274C27.1348 14.2299 27.3142 14.2125 27.5069 14.2217C27.7005 14.2286 27.9066 14.2683 28.1253 14.341Z" fill="#2F4ECD"/>
<path d="M23.9056 53.7775C23.5105 53.6463 23.1108 53.5135 22.7063 53.3791C22.3019 53.2447 21.9022 53.1119 21.5071 52.9807C21.5415 52.8772 21.5759 52.7737 21.6102 52.6703C21.6446 52.5668 21.6786 52.4645 21.7122 52.3634C22.0155 52.4642 22.3224 52.5661 22.6328 52.6693C22.9408 52.7716 23.2465 52.8732 23.5498 52.974C23.5912 52.8493 23.633 52.7235 23.6752 52.5966C23.7174 52.4696 23.7588 52.3449 23.7994 52.2227C23.8911 52.2531 23.9852 52.2844 24.0816 52.3164C24.1757 52.3477 24.2685 52.3785 24.3603 52.409C24.2853 52.6347 24.2095 52.8628 24.1329 53.0933C24.0564 53.3237 23.9806 53.5518 23.9056 53.7775ZM24.7924 51.2968C24.7471 51.4332 24.6814 51.5524 24.5953 51.6543C24.5069 51.7555 24.4047 51.8351 24.2888 51.8932C24.1705 51.9505 24.0444 51.9844 23.9104 51.9947C23.7772 52.0026 23.6413 51.9836 23.5025 51.9375C23.3638 51.8914 23.2435 51.8253 23.1415 51.7392C23.0404 51.6508 22.9607 51.5486 22.9026 51.4327C22.8445 51.3168 22.8115 51.1922 22.8035 51.059C22.7932 50.925 22.8107 50.7899 22.856 50.6535C22.9021 50.5148 22.969 50.396 23.0567 50.2972C23.1428 50.1952 23.2438 50.1152 23.3597 50.0571C23.4756 49.999 23.6001 49.966 23.7333 49.958C23.8673 49.9477 24.0036 49.9656 24.1424 50.0117C24.2811 50.0578 24.4011 50.125 24.5022 50.2135C24.6042 50.2996 24.6854 50.401 24.7458 50.5176C24.8039 50.6335 24.8381 50.7585 24.8484 50.8925C24.8572 51.0233 24.8385 51.1581 24.7924 51.2968ZM24.2669 51.1222C24.3052 51.007 24.2945 50.9016 24.2348 50.8061C24.1736 50.7074 24.0784 50.6366 23.949 50.5936C23.8173 50.5499 23.6998 50.55 23.5964 50.594C23.4915 50.6348 23.4199 50.7129 23.3816 50.8281C23.3433 50.9433 23.3536 51.0499 23.4124 51.1478C23.4697 51.2425 23.5642 51.3118 23.6959 51.3555C23.8252 51.3985 23.9436 51.3999 24.0509 51.3599C24.1566 51.3167 24.2286 51.2374 24.2669 51.1222ZM25.1515 50.0273C24.8506 49.9273 24.5472 49.8266 24.2415 49.725C23.9335 49.6227 23.629 49.5215 23.328 49.4215C23.36 49.3251 23.3925 49.2275 23.4253 49.1287C23.4581 49.03 23.4901 48.9336 23.5214 48.8395C23.5378 48.845 23.5531 48.8501 23.5672 48.8547C23.5813 48.8594 23.5966 48.8645 23.6131 48.87C23.5895 48.7916 23.5788 48.7098 23.5811 48.6244C23.5818 48.5358 23.5974 48.4457 23.6279 48.354C23.6724 48.22 23.742 48.1125 23.8367 48.0317C23.9323 47.9486 24.047 47.8979 24.181 47.8798C24.3134 47.8585 24.4595 47.8744 24.6194 47.9275C24.8028 47.9885 24.9874 48.0498 25.1732 48.1115C25.3589 48.1732 25.5435 48.2346 25.7269 48.2955C25.6957 48.3896 25.6636 48.486 25.6308 48.5847C25.598 48.6835 25.5656 48.7811 25.5336 48.8775C25.3643 48.8212 25.1926 48.7642 25.0186 48.7064C24.8446 48.6486 24.673 48.5916 24.5036 48.5353C24.4096 48.5041 24.3269 48.5014 24.2556 48.5273C24.1828 48.5501 24.1308 48.6085 24.0995 48.7026C24.0683 48.7967 24.0711 48.8785 24.108 48.9482C24.1449 49.0179 24.2139 49.0696 24.315 49.1032C24.4843 49.1594 24.6559 49.2165 24.8299 49.2743C25.0039 49.3321 25.1756 49.3891 25.3449 49.4454C25.3137 49.5394 25.2816 49.6358 25.2488 49.7346C25.216 49.8333 25.1836 49.9309 25.1515 50.0273ZM26.283 46.3388C26.2973 46.5238 26.2861 46.6989 26.2495 46.8643C26.2128 47.0296 26.153 47.1782 26.0701 47.3099C25.9903 47.44 25.8909 47.5467 25.7718 47.6299C25.6528 47.713 25.5193 47.7653 25.3712 47.7866C25.2239 47.8055 25.0668 47.7873 24.8999 47.7318C24.7611 47.6857 24.6416 47.6212 24.5412 47.5382C24.4392 47.4521 24.3588 47.3523 24.3 47.2387C24.2387 47.1244 24.2037 47.0018 24.195 46.871C24.1839 46.7393 24.201 46.6053 24.2463 46.469C24.2869 46.3467 24.3436 46.2428 24.4164 46.1573C24.4892 46.0719 24.5742 46.0048 24.6713 45.9561C24.766 45.9066 24.8702 45.876 24.9838 45.8641C25.0974 45.8523 25.215 45.86 25.3364 45.8873C25.4579 45.9146 25.5802 45.963 25.7033 46.0327C25.6392 46.2255 25.5748 46.4195 25.5099 46.6146C25.4451 46.8098 25.3806 47.0038 25.3166 47.1966C25.4208 47.1816 25.5089 47.1286 25.5809 47.0377C25.6536 46.9444 25.7068 46.8236 25.7403 46.6755C25.7747 46.525 25.7886 46.3574 25.7822 46.1724C25.8645 46.1998 25.9479 46.2275 26.0326 46.2556C26.1172 46.2838 26.2007 46.3115 26.283 46.3388ZM24.7636 46.6565C24.741 46.7247 24.7387 46.7944 24.7568 46.8657C24.7757 46.9347 24.8188 46.9973 24.8863 47.0536C24.9214 46.9478 24.9566 46.842 24.9917 46.7362C25.0277 46.628 25.0632 46.521 25.0984 46.4152C25.009 46.4169 24.9374 46.4401 24.8833 46.4848C24.8278 46.5264 24.7879 46.5836 24.7636 46.6565ZM26.5169 45.9177C26.0913 45.7763 25.6622 45.6337 25.2295 45.4899C24.7969 45.3462 24.3677 45.2036 23.9421 45.0622C23.9742 44.9658 24.0066 44.8682 24.0394 44.7695C24.0722 44.6707 24.1042 44.5743 24.1355 44.4802C24.5611 44.6216 24.9902 44.7642 25.4229 44.908C25.8556 45.0517 26.2847 45.1943 26.7103 45.3357C26.6791 45.4298 26.647 45.5262 26.6142 45.6249C26.5814 45.7237 26.549 45.8213 26.5169 45.9177ZM27.4658 44.9477C27.3568 44.8593 27.2471 44.7693 27.1365 44.6777C27.029 44.5846 26.922 44.4942 26.8154 44.4065C26.5082 44.4272 26.198 44.4495 25.8846 44.4733C25.5696 44.494 25.2585 44.5146 24.9514 44.5353C24.9858 44.4318 25.0202 44.3284 25.0545 44.2249C25.0889 44.1215 25.1229 44.0192 25.1565 43.9181C25.3273 43.9069 25.5004 43.8966 25.6759 43.887C25.8522 43.8751 26.027 43.8639 26.2001 43.8536C26.066 43.7464 25.9311 43.6376 25.7955 43.5272C25.6598 43.4169 25.5261 43.3085 25.3944 43.2021C25.428 43.1009 25.4616 42.9998 25.4952 42.8987C25.5287 42.7976 25.5623 42.6965 25.5959 42.5954C25.9363 42.8834 26.2821 43.1745 26.6334 43.4688C26.9832 43.7599 27.3282 44.0495 27.6686 44.3375C27.635 44.4386 27.601 44.5409 27.5666 44.6444C27.533 44.7455 27.4994 44.8466 27.4658 44.9477ZM27.5999 40.2886C27.7575 40.3409 27.8806 40.4262 27.9693 40.5445C28.0587 40.6603 28.1121 40.7982 28.1295 40.958C28.1445 41.1171 28.1216 41.2883 28.0607 41.4717C28.0036 41.6434 27.9258 41.7872 27.8272 41.9033C27.727 42.0162 27.6123 42.0943 27.4831 42.1375C27.3522 42.1776 27.2151 42.1738 27.0717 42.1262C26.9541 42.0871 26.8545 42.0253 26.773 41.9407C26.6922 41.8539 26.6345 41.7446 26.5999 41.613C26.5051 41.6781 26.4072 41.7174 26.3062 41.7308C26.2035 41.7411 26.0993 41.7287 25.9935 41.6935C25.8383 41.642 25.7226 41.5578 25.6465 41.4412C25.5712 41.3221 25.5311 41.1835 25.5262 41.0252C25.5214 40.8669 25.5463 40.7016 25.601 40.5292C25.6533 40.3559 25.7311 40.1886 25.8344 40.0271C25.9284 40.0583 26.0236 40.09 26.12 40.122C26.2165 40.154 26.3129 40.186 26.4093 40.2181C26.3482 40.3075 26.2951 40.4008 26.2497 40.498C26.2051 40.5928 26.1739 40.683 26.1559 40.7684C26.138 40.8538 26.1357 40.9275 26.1491 40.9893C26.1633 41.0489 26.1986 41.088 26.255 41.1068C26.3279 41.131 26.3949 41.0984 26.4559 41.009C26.5146 40.9189 26.5728 40.7868 26.6306 40.6128C26.5883 40.5987 26.546 40.5846 26.5036 40.5706C26.459 40.5557 26.4155 40.5413 26.3731 40.5272C26.4052 40.4308 26.4376 40.3332 26.4704 40.2345C26.5032 40.1357 26.5352 40.0393 26.5665 39.9452C26.6088 39.9593 26.6523 39.9738 26.697 39.9886C26.7393 40.0027 26.7817 40.0167 26.824 40.0308C26.8357 39.9955 26.8478 39.9591 26.8603 39.9215C26.8728 39.8838 26.8849 39.8474 26.8966 39.8121C26.9836 39.841 27.0706 39.8699 27.1576 39.8988C27.2446 39.9277 27.3316 39.9566 27.4186 39.9855C27.4069 40.0208 27.3948 40.0573 27.3823 40.0949C27.3698 40.1325 27.3577 40.169 27.346 40.2042C27.3883 40.2183 27.4306 40.2324 27.473 40.2464C27.5153 40.2605 27.5576 40.2745 27.5999 40.2886ZM27.1886 41.4796C27.2568 41.5023 27.3226 41.4967 27.386 41.463C27.4479 41.4261 27.494 41.3618 27.5245 41.2701C27.5573 41.1713 27.56 41.0847 27.5325 41.0103C27.5026 40.9351 27.4442 40.8831 27.3572 40.8542C27.3243 40.8432 27.2902 40.8319 27.2549 40.8202C27.2197 40.8085 27.1856 40.7971 27.1526 40.7862C27.0886 40.979 27.0527 41.1342 27.045 41.2517C27.0372 41.3693 27.0851 41.4452 27.1886 41.4796ZM29.1172 38.0913C29.0984 38.0851 29.0807 38.0792 29.0643 38.0737C29.0455 38.0675 29.0278 38.0616 29.0114 38.0562C29.0412 38.1313 29.0566 38.2109 29.0574 38.2947C29.0614 38.377 29.0494 38.4604 29.0213 38.5451C28.9814 38.665 28.9204 38.7701 28.8382 38.8602C28.756 38.9504 28.6589 39.0226 28.547 39.0768C28.4334 39.1278 28.31 39.1573 28.1768 39.1653C28.0444 39.1709 27.9076 39.1503 27.7666 39.1034C27.6231 39.0558 27.5 38.9901 27.3973 38.9063C27.2954 38.8202 27.2154 38.7232 27.1573 38.6151C27.1 38.5047 27.0665 38.3891 27.057 38.2685C27.0451 38.147 27.0587 38.0275 27.0978 37.9099C27.1259 37.8253 27.1666 37.75 27.2198 37.6842C27.2707 37.6175 27.3294 37.5626 27.396 37.5194C27.2549 37.4726 27.1126 37.4253 26.9692 37.3776C26.8257 37.33 26.6835 37.2827 26.5424 37.2358C26.5744 37.1394 26.6068 37.0419 26.6397 36.9431C26.6725 36.8443 26.7045 36.7479 26.7357 36.6539C27.1614 36.7953 27.5905 36.9379 28.0231 37.0816C28.4558 37.2254 28.8849 37.3679 29.3105 37.5093C29.2793 37.6034 29.2473 37.6998 29.2145 37.7986C29.1816 37.8973 29.1492 37.9949 29.1172 38.0913ZM28.5321 38.2964C28.5696 38.1835 28.5585 38.0793 28.4989 37.9838C28.4392 37.8883 28.3424 37.8182 28.2084 37.7737C28.0743 37.7292 27.956 37.7277 27.8534 37.7693C27.7484 37.8102 27.6772 37.887 27.6397 37.9999C27.6014 38.1151 27.6109 38.2201 27.6682 38.3149C27.7263 38.4073 27.8235 38.4761 27.9599 38.5214C28.0963 38.5668 28.2166 38.5702 28.3208 38.5317C28.4234 38.49 28.4938 38.4116 28.5321 38.2964ZM29.8821 35.506C29.8964 35.6909 29.8852 35.8661 29.8486 36.0314C29.8119 36.1968 29.7521 36.3453 29.6692 36.477C29.5894 36.6072 29.49 36.7138 29.371 36.797C29.2519 36.8802 29.1184 36.9324 28.9703 36.9537C28.823 36.9727 28.6659 36.9544 28.499 36.899C28.3602 36.8529 28.2407 36.7883 28.1403 36.7054C28.0384 36.6193 27.958 36.5195 27.8991 36.4059C27.8378 36.2916 27.8029 36.169 27.7941 36.0381C27.783 35.9065 27.8001 35.7725 27.8454 35.6361C27.8861 35.5139 27.9428 35.41 28.0155 35.3245C28.0883 35.239 28.1733 35.1719 28.2704 35.1233C28.3652 35.0738 28.4693 35.0431 28.5829 35.0313C28.6965 35.0194 28.8141 35.0271 28.9356 35.0544C29.057 35.0817 29.1793 35.1302 29.3024 35.1998C29.2383 35.3926 29.1739 35.5866 29.109 35.7818C29.0442 35.977 28.9798 36.171 28.9157 36.3638C29.0199 36.3488 29.108 36.2958 29.18 36.2048C29.2528 36.1115 29.3059 35.9908 29.3395 35.8427C29.3738 35.6922 29.3877 35.5245 29.3813 35.3396C29.4636 35.367 29.5471 35.3947 29.6317 35.4228C29.7164 35.4509 29.7998 35.4787 29.8821 35.506ZM28.3628 35.8237C28.3401 35.8919 28.3378 35.9616 28.3559 36.0329C28.3748 36.1018 28.4179 36.1645 28.4854 36.2208C28.5205 36.115 28.5557 36.0092 28.5908 35.9034C28.6268 35.7952 28.6623 35.6882 28.6975 35.5824C28.6082 35.5841 28.5365 35.6072 28.4825 35.652C28.4269 35.6935 28.387 35.7508 28.3628 35.8237ZM30.8679 34.708C30.8367 34.8021 30.8046 34.8985 30.7718 34.9972C30.739 35.096 30.7066 35.1936 30.6745 35.29C30.2819 35.1595 29.8845 35.0275 29.4824 34.8939C29.0779 34.7595 28.6794 34.6271 28.2867 34.4966C28.3187 34.4002 28.3511 34.3026 28.3839 34.2039C28.4168 34.1051 28.4488 34.0087 28.48 33.9147C28.4965 33.9201 28.513 33.9256 28.5294 33.9311C28.5459 33.9365 28.5635 33.9424 28.5823 33.9486C28.5548 33.8742 28.5406 33.7951 28.5398 33.7113C28.5366 33.6266 28.549 33.542 28.5771 33.4574C28.6162 33.3398 28.6768 33.2359 28.759 33.1457C28.8388 33.0547 28.9344 32.9833 29.0456 32.9315C29.1576 32.8773 29.2798 32.8475 29.4122 32.8418C29.5454 32.8339 29.6837 32.8537 29.8271 32.9014C29.9682 32.9482 30.0897 33.0147 30.1917 33.1008C30.2944 33.1846 30.3756 33.282 30.4353 33.3932C30.4934 33.5013 30.5283 33.6161 30.5402 33.7375C30.5521 33.8589 30.5381 33.9796 30.4983 34.0995C30.4701 34.1842 30.4295 34.2595 30.3762 34.3253C30.3262 34.3896 30.2667 34.443 30.1977 34.4853C30.3083 34.5221 30.42 34.5592 30.5328 34.5967C30.6457 34.6342 30.7574 34.6713 30.8679 34.708ZM29.9575 34.006C29.9958 33.8908 29.9859 33.787 29.9278 33.6946C29.8682 33.5991 29.7702 33.5287 29.6338 33.4833C29.4974 33.438 29.3779 33.4362 29.2753 33.4778C29.1735 33.5171 29.1034 33.5943 29.0651 33.7096C29.0276 33.8224 29.0387 33.9266 29.0984 34.0222C29.1557 34.1169 29.2513 34.1866 29.3853 34.2311C29.5194 34.2756 29.6389 34.2775 29.7438 34.2366C29.8488 34.1958 29.92 34.1189 29.9575 34.006ZM30.8369 32.9152C30.5359 32.8152 30.2326 32.7145 29.9269 32.6129C29.6189 32.5106 29.3144 32.4094 29.0134 32.3094C29.0454 32.213 29.0778 32.1154 29.1106 32.0166C29.1434 31.9179 29.1755 31.8215 29.2067 31.7274C29.2232 31.7329 29.2396 31.7384 29.2561 31.7438C29.2726 31.7493 29.289 31.7548 29.3055 31.7602C29.278 31.6701 29.2665 31.575 29.2711 31.4747C29.2757 31.3744 29.3019 31.2721 29.3496 31.1678C29.4436 31.1991 29.5389 31.2307 29.6353 31.2627C29.7317 31.2948 29.8269 31.3264 29.921 31.3577C29.8334 31.5348 29.8041 31.6779 29.8332 31.7867C29.86 31.8948 29.938 31.9704 30.0673 32.0133C30.2249 32.0657 30.3848 32.1188 30.547 32.1727C30.7093 32.2266 30.8704 32.2801 31.0303 32.3333C30.999 32.4273 30.967 32.5237 30.9342 32.6225C30.9013 32.7213 30.8689 32.8188 30.8369 32.9152ZM31.7303 29.9432C31.7446 30.1281 31.7334 30.3032 31.6968 30.4686C31.6601 30.634 31.6003 30.7825 31.5174 30.9142C31.4376 31.0444 31.3382 31.151 31.2192 31.2342C31.1001 31.3174 30.9666 31.3696 30.8185 31.3909C30.6712 31.4099 30.5141 31.3916 30.3472 31.3362C30.2084 31.2901 30.0889 31.2255 29.9885 31.1426C29.8866 31.0565 29.8061 30.9567 29.7473 30.8431C29.686 30.7288 29.6511 30.6062 29.6423 30.4753C29.6312 30.3437 29.6483 30.2097 29.6936 30.0733C29.7342 29.951 29.791 29.8472 29.8637 29.7617C29.9365 29.6762 30.0215 29.6091 30.1186 29.5605C30.2133 29.511 30.3175 29.4803 30.4311 29.4685C30.5447 29.4566 30.6623 29.4643 30.7838 29.4916C30.9052 29.5189 31.0275 29.5674 31.1506 29.637C31.0865 29.8298 31.0221 30.0238 30.9572 30.219C30.8924 30.4142 30.8279 30.6082 30.7639 30.801C30.8681 30.786 30.9562 30.733 31.0282 30.642C31.101 30.5487 31.1541 30.428 31.1877 30.2799C31.222 30.1294 31.2359 29.9617 31.2295 29.7768C31.3118 29.8041 31.3953 29.8319 31.4799 29.86C31.5646 29.8881 31.648 29.9159 31.7303 29.9432ZM30.211 30.2609C30.1883 30.3291 30.186 30.3988 30.2041 30.4701C30.223 30.539 30.2661 30.6017 30.3336 30.658C30.3687 30.5522 30.4039 30.4464 30.439 30.3406C30.475 30.2324 30.5105 30.1254 30.5457 30.0196C30.4564 30.0212 30.3847 30.0444 30.3307 30.0891C30.2751 30.1307 30.2352 30.188 30.211 30.2609ZM31.8569 27.959C32.0027 28.0074 32.109 28.0884 32.1757 28.2019C32.2408 28.3124 32.2719 28.4428 32.2689 28.5932C32.2659 28.7437 32.2328 28.9024 32.1695 29.0693C32.1093 29.2347 32.0256 29.3962 31.9185 29.5538C31.8291 29.5241 31.7374 29.4937 31.6433 29.4624C31.5493 29.4312 31.4576 29.4007 31.3682 29.371C31.4457 29.2871 31.5138 29.2 31.5725 29.1099C31.6288 29.0189 31.6726 28.9343 31.7039 28.8559C31.7351 28.7775 31.7507 28.7109 31.7507 28.656C31.7483 28.6004 31.7259 28.5656 31.6836 28.5515C31.6507 28.5406 31.6178 28.5531 31.5849 28.5892C31.5528 28.6229 31.5188 28.6704 31.4828 28.7315C31.4444 28.7919 31.4022 28.8562 31.356 28.9244C31.3083 28.9895 31.2535 29.0483 31.1917 29.1009C31.1275 29.1526 31.0542 29.1884 30.972 29.208C30.8882 29.2246 30.791 29.2145 30.6805 29.1778C30.5488 29.134 30.4496 29.0593 30.3829 28.9536C30.3146 28.8447 30.2784 28.7178 30.2744 28.5729C30.268 28.4271 30.2913 28.2743 30.3445 28.1144C30.3976 27.9545 30.4789 27.8001 30.5885 27.6511C30.6778 27.6808 30.7695 27.7112 30.8636 27.7425C30.9576 27.7737 31.0493 27.8042 31.1387 27.8339C31.0315 27.9445 30.9481 28.0539 30.8887 28.1621C30.8292 28.2703 30.796 28.3624 30.789 28.4384C30.7797 28.5136 30.7997 28.5594 30.8491 28.5758C30.882 28.5868 30.9145 28.5754 30.9466 28.5416C30.9772 28.5048 31.01 28.457 31.0452 28.3982C31.0812 28.337 31.1231 28.2739 31.1708 28.2088C31.2193 28.1414 31.2753 28.0829 31.3387 28.0335C31.4005 27.981 31.4746 27.9468 31.5607 27.931C31.6453 27.9122 31.7441 27.9215 31.8569 27.959ZM32.4074 26.3022C32.5532 26.3506 32.6594 26.4316 32.7262 26.5452C32.7913 26.6556 32.8224 26.786 32.8194 26.9364C32.8164 27.0869 32.7833 27.2456 32.72 27.4125C32.6598 27.5779 32.5761 27.7394 32.4689 27.897C32.3796 27.8673 32.2878 27.8369 32.1938 27.8056C32.0997 27.7744 32.008 27.7439 31.9187 27.7142C31.9962 27.6303 32.0642 27.5433 32.1229 27.4531C32.1793 27.3621 32.223 27.2775 32.2543 27.1991C32.2856 27.1207 32.3012 27.0541 32.3011 26.9992C32.2987 26.9436 32.2764 26.9088 32.234 26.8947C32.2011 26.8838 32.1682 26.8963 32.1353 26.9324C32.1033 26.9661 32.0692 27.0136 32.0332 27.0747C31.9949 27.1351 31.9526 27.1994 31.9065 27.2676C31.8588 27.3327 31.804 27.3915 31.7421 27.4441C31.6779 27.4958 31.6047 27.5316 31.5224 27.5512C31.4386 27.5678 31.3414 27.5577 31.2309 27.521C31.0992 27.4772 31 27.4025 30.9333 27.2968C30.8651 27.1879 30.8289 27.061 30.8248 26.9161C30.8184 26.7703 30.8418 26.6175 30.8949 26.4576C30.948 26.2977 31.0294 26.1433 31.1389 25.9943C31.2283 26.024 31.32 26.0545 31.414 26.0857C31.5081 26.117 31.5998 26.1474 31.6892 26.1771C31.5819 26.2877 31.4986 26.3971 31.4391 26.5053C31.3797 26.6135 31.3465 26.7056 31.3395 26.7816C31.3302 26.8568 31.3502 26.9026 31.3996 26.919C31.4325 26.93 31.465 26.9186 31.4971 26.8849C31.5276 26.848 31.5605 26.8002 31.5957 26.7414C31.6317 26.6802 31.6735 26.6171 31.7213 26.552C31.7698 26.4846 31.8257 26.4262 31.8892 26.3767C31.951 26.3242 32.025 26.29 32.1112 26.2743C32.1958 26.2554 32.2945 26.2647 32.4074 26.3022ZM33.5019 24.6112C33.5161 24.7961 33.505 24.9712 33.4683 25.1366C33.4316 25.3019 33.3718 25.4505 33.2889 25.5822C33.2091 25.7124 33.1097 25.819 32.9907 25.9022C32.8717 25.9854 32.7381 26.0376 32.5901 26.0589C32.4428 26.0779 32.2856 26.0596 32.1187 26.0041C31.98 25.958 31.8604 25.8935 31.76 25.8105C31.6581 25.7245 31.5777 25.6246 31.5188 25.5111C31.4576 25.3967 31.4226 25.2741 31.4138 25.1433C31.4027 25.0117 31.4198 24.8777 31.4651 24.7413C31.5058 24.619 31.5625 24.5151 31.6353 24.4297C31.708 24.3442 31.793 24.2771 31.8901 24.2284C31.9849 24.179 32.0891 24.1483 32.2027 24.1364C32.3163 24.1246 32.4338 24.1323 32.5553 24.1596C32.6768 24.1869 32.799 24.2354 32.9221 24.305C32.8581 24.4978 32.7936 24.6918 32.7288 24.887C32.6639 25.0821 32.5995 25.2761 32.5354 25.4689C32.6396 25.454 32.7277 25.401 32.7997 25.31C32.8725 25.2167 32.9256 25.096 32.9592 24.9479C32.9935 24.7974 33.0075 24.6297 33.001 24.4448C33.0833 24.4721 33.1668 24.4999 33.2514 24.528C33.3361 24.5561 33.4196 24.5838 33.5019 24.6112ZM31.9825 24.9288C31.9598 24.997 31.9575 25.0668 31.9756 25.1381C31.9945 25.207 32.0377 25.2696 32.1051 25.326C32.1403 25.2202 32.1754 25.1143 32.2106 25.0085C32.2465 24.9004 32.282 24.7934 32.3172 24.6876C32.2279 24.6892 32.1562 24.7124 32.1022 24.7571C32.0466 24.7987 32.0067 24.8559 31.9825 24.9288ZM34.1342 22.9908C34.1154 22.9845 34.0978 22.9787 34.0813 22.9732C34.0625 22.967 34.0449 22.9611 34.0284 22.9556C34.0583 23.0308 34.0736 23.1103 34.0745 23.1942C34.0785 23.2764 34.0664 23.3599 34.0383 23.4446C33.9984 23.5645 33.9374 23.6695 33.8552 23.7597C33.7731 23.8499 33.676 23.9221 33.564 23.9763C33.4504 24.0273 33.327 24.0568 33.1938 24.0648C33.0614 24.0704 32.9247 24.0498 32.7836 24.0029C32.6401 23.9552 32.5171 23.8895 32.4143 23.8058C32.3124 23.7197 32.2324 23.6226 32.1743 23.5146C32.117 23.4041 32.0836 23.2886 32.074 23.1679C32.0622 23.0465 32.0758 22.927 32.1148 22.8094C32.143 22.7248 32.1836 22.6495 32.2368 22.5836C32.2877 22.517 32.3464 22.4621 32.413 22.4189C32.2719 22.372 32.1296 22.3248 31.9862 22.2771C31.8428 22.2295 31.7005 22.1822 31.5594 22.1353C31.5914 22.0389 31.6239 21.9413 31.6567 21.8426C31.6895 21.7438 31.7215 21.6474 31.7528 21.5534C32.1784 21.6948 32.6075 21.8373 33.0402 21.9811C33.4728 22.1248 33.902 22.2674 34.3276 22.4088C34.2963 22.5029 34.2643 22.5993 34.2315 22.698C34.1987 22.7968 34.1662 22.8944 34.1342 22.9908ZM33.5491 23.1959C33.5866 23.083 33.5755 22.9788 33.5159 22.8833C33.4562 22.7877 33.3594 22.7177 33.2254 22.6732C33.0913 22.6286 32.973 22.6272 32.8704 22.6688C32.7655 22.7097 32.6942 22.7865 32.6567 22.8994C32.6185 23.0146 32.628 23.1196 32.6853 23.2143C32.7433 23.3067 32.8406 23.3756 32.9769 23.4209C33.1133 23.4662 33.2336 23.4696 33.3378 23.4311C33.4404 23.3895 33.5108 23.3111 33.5491 23.1959Z" fill="#2F4ECD"/>
<path d="M30.9739 56.0676C30.5789 55.9363 30.1792 55.8035 29.7747 55.6691C29.3703 55.5348 28.9705 55.4019 28.5755 55.2707C28.6239 55.1249 28.6724 54.9791 28.7208 54.8333C28.77 54.6852 28.8185 54.5394 28.8661 54.396C28.92 54.2337 28.9967 54.1012 29.0961 53.9985C29.1931 53.895 29.3047 53.8263 29.4308 53.7925C29.5546 53.7579 29.6859 53.7636 29.8246 53.8097C29.9234 53.8425 30.0065 53.891 30.0739 53.9552C30.1414 54.0194 30.1896 54.0981 30.2187 54.1913C30.3103 54.1121 30.4117 54.0622 30.523 54.0417C30.6319 54.0205 30.7427 54.0286 30.8556 54.0661C30.9967 54.113 31.108 54.1904 31.1896 54.2985C31.272 54.4042 31.3211 54.5315 31.3369 54.6803C31.3535 54.8268 31.3333 54.9859 31.2763 55.1576C31.2263 55.3081 31.1759 55.4597 31.1251 55.6126C31.0743 55.7654 31.0239 55.9171 30.9739 56.0676ZM29.6795 54.4469C29.6183 54.4266 29.5627 54.429 29.5126 54.4541C29.4601 54.4784 29.4237 54.5212 29.4034 54.5823C29.3894 54.6246 29.3749 54.6681 29.3601 54.7128C29.346 54.7552 29.3319 54.7975 29.3179 54.8398C29.3837 54.8617 29.4519 54.8843 29.5224 54.9078C29.5906 54.9304 29.6588 54.9531 29.727 54.9757C29.7411 54.9334 29.7551 54.8911 29.7692 54.8488C29.784 54.8041 29.7985 54.7606 29.8126 54.7183C29.8329 54.6571 29.8316 54.6019 29.8089 54.5525C29.7837 54.5024 29.7406 54.4672 29.6795 54.4469ZM30.5941 54.6646C30.5283 54.6427 30.4691 54.6479 30.4166 54.6801C30.3626 54.7091 30.3231 54.7612 30.2981 54.8365C30.2817 54.8859 30.2653 54.9352 30.2489 54.9846C30.2325 55.034 30.2161 55.0834 30.1996 55.1328C30.2725 55.157 30.3454 55.1812 30.4183 55.2054C30.4912 55.2296 30.5641 55.2539 30.637 55.2781C30.6534 55.2287 30.6698 55.1793 30.6862 55.1299C30.7026 55.0806 30.719 55.0312 30.7355 54.9818C30.7604 54.9066 30.76 54.8411 30.7341 54.7855C30.709 54.7276 30.6623 54.6873 30.5941 54.6646ZM31.6662 53.9841C31.2405 53.8427 30.8114 53.7001 30.3788 53.5564C29.9461 53.4126 29.517 53.27 29.0913 53.1286C29.1234 53.0322 29.1558 52.9346 29.1886 52.8359C29.2214 52.7371 29.2535 52.6407 29.2847 52.5466C29.7103 52.688 30.1394 52.8306 30.5721 52.9744C31.0048 53.1181 31.4339 53.2607 31.8595 53.4021C31.8283 53.4962 31.7962 53.5926 31.7634 53.6913C31.7306 53.7901 31.6982 53.8877 31.6662 53.9841ZM30.7369 50.6865C31.0379 50.7865 31.3424 50.8876 31.6505 50.99C31.9562 51.0915 32.2595 51.1923 32.5605 51.2923C32.5292 51.3864 32.4972 51.4828 32.4644 51.5816C32.4316 51.6803 32.3991 51.7779 32.3671 51.8743C32.3506 51.8688 32.3354 51.8638 32.3213 51.8591C32.3071 51.8544 32.2919 51.8493 32.2754 51.8438C32.299 51.9222 32.3093 52.0052 32.3062 52.093C32.3063 52.1792 32.2911 52.2681 32.2606 52.3598C32.2161 52.4938 32.1461 52.6024 32.0506 52.6856C31.9558 52.7664 31.8411 52.817 31.7063 52.8375C31.5724 52.8557 31.4266 52.8386 31.2691 52.7863C31.0857 52.7253 30.9011 52.664 30.7153 52.6023C30.5296 52.5406 30.345 52.4792 30.1616 52.4183C30.1936 52.3219 30.226 52.2243 30.2588 52.1255C30.2916 52.0268 30.3237 51.9304 30.3549 51.8363C30.5242 51.8926 30.6959 51.9496 30.8699 52.0074C31.0439 52.0652 31.2155 52.1223 31.3848 52.1785C31.4789 52.2098 31.5623 52.214 31.6352 52.1912C31.7065 52.1653 31.7577 52.1053 31.789 52.0112C31.8202 51.9172 31.8174 51.8353 31.7805 51.7656C31.7436 51.6959 31.6746 51.6442 31.5735 51.6106C31.4042 51.5544 31.2325 51.4974 31.0585 51.4395C30.8845 51.3817 30.7129 51.3247 30.5436 51.2685C30.5756 51.172 30.608 51.0745 30.6408 50.9757C30.6737 50.8769 30.7057 50.7805 30.7369 50.6865ZM33.1259 49.3074C33.1402 49.4923 33.129 49.6675 33.0924 49.8328C33.0557 49.9982 32.9959 50.1468 32.913 50.2785C32.8332 50.4086 32.7338 50.5153 32.6148 50.5985C32.4957 50.6816 32.3622 50.7339 32.2141 50.7552C32.0668 50.7741 31.9097 50.7559 31.7428 50.7004C31.604 50.6543 31.4845 50.5898 31.3841 50.5068C31.2822 50.4207 31.2017 50.3209 31.1429 50.2073C31.0816 50.093 31.0466 49.9704 31.0379 49.8396C31.0268 49.7079 31.0439 49.5739 31.0892 49.4376C31.1298 49.3153 31.1865 49.2114 31.2593 49.1259C31.3321 49.0405 31.4171 48.9734 31.5142 48.9247C31.6089 48.8752 31.7131 48.8446 31.8267 48.8327C31.9403 48.8209 32.0579 48.8286 32.1794 48.8559C32.3008 48.8832 32.4231 48.9316 32.5462 49.0013C32.4821 49.1941 32.4177 49.3881 32.3528 49.5832C32.288 49.7784 32.2235 49.9724 32.1595 50.1652C32.2637 50.1502 32.3518 50.0972 32.4238 50.0063C32.4966 49.913 32.5497 49.7922 32.5833 49.6441C32.6176 49.4936 32.6315 49.326 32.6251 49.141C32.7074 49.1684 32.7909 49.1961 32.8755 49.2242C32.9602 49.2524 33.0436 49.2801 33.1259 49.3074ZM31.6065 49.6251C31.5839 49.6933 31.5816 49.763 31.5997 49.8343C31.6186 49.9033 31.6617 49.9659 31.7292 50.0222C31.7643 49.9164 31.7995 49.8106 31.8346 49.7048C31.8706 49.5966 31.9061 49.4896 31.9413 49.3838C31.852 49.3855 31.7803 49.4087 31.7263 49.4534C31.6707 49.495 31.6308 49.5522 31.6065 49.6251ZM32.5158 48.7038C32.4264 48.6741 32.3359 48.644 32.2442 48.6135C32.1501 48.5823 32.0584 48.5518 31.9691 48.5221C32.0214 48.3646 32.0742 48.2058 32.1273 48.046C32.1804 47.8861 32.2331 47.7273 32.2855 47.5698C32.3748 47.5995 32.4666 47.6299 32.5606 47.6612C32.6523 47.6917 32.7428 47.7217 32.8322 47.7514C32.7799 47.909 32.7271 48.0677 32.674 48.2276C32.6209 48.3875 32.5681 48.5462 32.5158 48.7038ZM34.5099 47.3108C34.4787 47.4048 34.4467 47.5012 34.4139 47.6C34.381 47.6987 34.3486 47.7963 34.3166 47.8927C33.9239 47.7623 33.5265 47.6302 33.1244 47.4966C32.72 47.3623 32.3214 47.2299 31.9287 47.0994C31.9608 47.003 31.9932 46.9054 32.026 46.8066C32.0588 46.7079 32.0908 46.6115 32.1221 46.5174C32.1385 46.5229 32.155 46.5283 32.1715 46.5338C32.1879 46.5393 32.2056 46.5451 32.2244 46.5514C32.1969 46.477 32.1827 46.3979 32.1818 46.314C32.1786 46.2294 32.1911 46.1448 32.2192 46.0601C32.2582 45.9425 32.3189 45.8387 32.4011 45.7485C32.4809 45.6575 32.5764 45.5861 32.6876 45.5343C32.7996 45.4801 32.9218 45.4502 33.0542 45.4446C33.1874 45.4366 33.3257 45.4565 33.4692 45.5041C33.6103 45.551 33.7318 45.6175 33.8337 45.7036C33.9365 45.7873 34.0176 45.8848 34.0773 45.996C34.1354 46.1041 34.1704 46.2188 34.1823 46.3403C34.1941 46.4617 34.1801 46.5824 34.1403 46.7023C34.1122 46.787 34.0715 46.8622 34.0183 46.9281C33.9682 46.9924 33.9087 47.0457 33.8398 47.0881C33.9503 47.1248 34.062 47.1619 34.1749 47.1994C34.2877 47.2369 34.3994 47.274 34.5099 47.3108ZM33.5996 46.6088C33.6378 46.4936 33.6279 46.3898 33.5699 46.2974C33.5102 46.2018 33.4122 46.1314 33.2758 46.0861C33.1394 46.0408 33.0199 46.039 32.9173 46.0806C32.8155 46.1199 32.7455 46.1971 32.7072 46.3123C32.6697 46.4252 32.6808 46.5294 32.7404 46.6249C32.7977 46.7197 32.8934 46.7893 33.0274 46.8339C33.1614 46.8784 33.2809 46.8802 33.3859 46.8394C33.4908 46.7985 33.5621 46.7217 33.5996 46.6088ZM33.2214 43.2085C33.5224 43.3085 33.8269 43.4097 34.1349 43.5121C34.4406 43.6136 34.744 43.7144 35.0449 43.8144C35.0137 43.9085 34.9817 44.0049 34.9489 44.1036C34.916 44.2024 34.8836 44.3 34.8516 44.3964C34.8351 44.3909 34.8198 44.3858 34.8057 44.3811C34.7916 44.3765 34.7763 44.3714 34.7599 44.3659C34.7835 44.4442 34.7937 44.5273 34.7907 44.615C34.7908 44.7012 34.7756 44.7902 34.7451 44.8819C34.7006 45.0159 34.6306 45.1245 34.535 45.2077C34.4403 45.2885 34.3256 45.3391 34.1908 45.3596C34.0569 45.3778 33.9111 45.3607 33.7536 45.3083C33.5701 45.2474 33.3856 45.1861 33.1998 45.1244C33.014 45.0626 32.8294 45.0013 32.646 44.9404C32.6781 44.844 32.7105 44.7464 32.7433 44.6476C32.7761 44.5489 32.8081 44.4524 32.8394 44.3584C33.0087 44.4146 33.1804 44.4717 33.3544 44.5295C33.5284 44.5873 33.7 44.6443 33.8693 44.7006C33.9634 44.7318 34.0468 44.7361 34.1197 44.7133C34.191 44.6873 34.2422 44.6273 34.2735 44.5333C34.3047 44.4392 34.3019 44.3573 34.265 44.2876C34.2281 44.2179 34.1591 44.1663 34.058 44.1327C33.8887 44.0765 33.717 44.0194 33.543 43.9616C33.369 43.9038 33.1974 43.8468 33.0281 43.7905C33.0601 43.6941 33.0925 43.5965 33.1253 43.4978C33.1581 43.399 33.1902 43.3026 33.2214 43.2085ZM35.1736 43.4272C34.8726 43.3272 34.5693 43.2264 34.2636 43.1249C33.9556 43.0225 33.651 42.9214 33.3501 42.8214C33.3821 42.725 33.4145 42.6274 33.4473 42.5286C33.4801 42.4299 33.5122 42.3334 33.5434 42.2394C33.5599 42.2449 33.5763 42.2503 33.5928 42.2558C33.6093 42.2613 33.6257 42.2667 33.6422 42.2722C33.6147 42.1821 33.6032 42.0869 33.6078 41.9866C33.6124 41.8863 33.6386 41.7841 33.6863 41.6798C33.7803 41.711 33.8755 41.7427 33.972 41.7747C34.0684 41.8067 34.1636 41.8384 34.2577 41.8696C34.1701 42.0468 34.1408 42.1898 34.1699 42.2987C34.1967 42.4068 34.2747 42.4824 34.404 42.5253C34.5616 42.5777 34.7215 42.6308 34.8837 42.6847C35.046 42.7386 35.207 42.7921 35.3669 42.8452C35.3357 42.9393 35.3037 43.0357 35.2708 43.1345C35.238 43.2332 35.2056 43.3308 35.1736 43.4272ZM36.3936 41.6412C36.3624 41.7352 36.3303 41.8316 36.2975 41.9304C36.2647 42.0292 36.2323 42.1267 36.2003 42.2232C35.8076 42.0927 35.4102 41.9607 35.0081 41.8271C34.6036 41.6927 34.2051 41.5603 33.8124 41.4298C33.8444 41.3334 33.8768 41.2358 33.9097 41.137C33.9425 41.0383 33.9745 40.9419 34.0058 40.8478C34.0222 40.8533 34.0387 40.8588 34.0551 40.8642C34.0716 40.8697 34.0892 40.8756 34.108 40.8818C34.0805 40.8074 34.0664 40.7283 34.0655 40.6444C34.0623 40.5598 34.0747 40.4752 34.1029 40.3905C34.1419 40.273 34.2025 40.1691 34.2847 40.0789C34.3646 39.9879 34.4601 39.9165 34.5713 39.8647C34.6833 39.8105 34.8055 39.7806 34.9379 39.775C35.0711 39.767 35.2094 39.7869 35.3529 39.8345C35.4939 39.8814 35.6155 39.9479 35.7174 40.034C35.8201 40.1177 35.9013 40.2152 35.961 40.3264C36.0191 40.4345 36.0541 40.5492 36.0659 40.6707C36.0778 40.7921 36.0638 40.9128 36.024 41.0327C35.9958 41.1174 35.9552 41.1926 35.902 41.2585C35.8519 41.3228 35.7924 41.3761 35.7235 41.4185C35.834 41.4552 35.9457 41.4923 36.0585 41.5298C36.1714 41.5673 36.2831 41.6045 36.3936 41.6412ZM35.4832 40.9392C35.5215 40.824 35.5116 40.7202 35.4535 40.6278C35.3939 40.5323 35.2959 40.4618 35.1595 40.4165C35.0231 40.3712 34.9036 40.3694 34.801 40.411C34.6992 40.4503 34.6291 40.5275 34.5909 40.6427C34.5534 40.7556 34.5644 40.8598 34.6241 40.9553C34.6814 41.0501 34.777 41.1197 34.9111 41.1643C35.0451 41.2088 35.1646 41.2106 35.2695 41.1698C35.3745 41.1289 35.4457 41.0521 35.4832 40.9392ZM36.3685 39.8308C35.9429 39.6894 35.5137 39.5468 35.0811 39.4031C34.6484 39.2593 34.2193 39.1167 33.7937 38.9753C33.8257 38.8789 33.8581 38.7813 33.8909 38.6826C33.9237 38.5838 33.9558 38.4874 33.987 38.3933C34.4126 38.5348 34.8418 38.6773 35.2744 38.8211C35.7071 38.9648 36.1362 39.1074 36.5618 39.2488C36.5306 39.3429 36.4985 39.4393 36.4657 39.538C36.4329 39.6368 36.4005 39.7344 36.3685 39.8308ZM37.1336 37.2449C37.1479 37.4298 37.1367 37.605 37.1 37.7703C37.0634 37.9357 37.0036 38.0842 36.9206 38.216C36.8409 38.3461 36.7414 38.4528 36.6224 38.5359C36.5034 38.6191 36.3699 38.6714 36.2218 38.6927C36.0745 38.7116 35.9174 38.6934 35.7504 38.6379C35.6117 38.5918 35.4921 38.5273 35.3918 38.4443C35.2898 38.3582 35.2094 38.2584 35.1505 38.1448C35.0893 38.0305 35.0543 37.9079 35.0456 37.7771C35.0345 37.6454 35.0516 37.5114 35.0969 37.3751C35.1375 37.2528 35.1942 37.1489 35.267 37.0634C35.3398 36.9779 35.4247 36.9109 35.5219 36.8622C35.6166 36.8127 35.7208 36.7821 35.8344 36.7702C35.948 36.7583 36.0655 36.7661 36.187 36.7934C36.3085 36.8207 36.4308 36.8691 36.5539 36.9387C36.4898 37.1316 36.4254 37.3256 36.3605 37.5207C36.2957 37.7159 36.2312 37.9099 36.1672 38.1027C36.2713 38.0877 36.3594 38.0347 36.4314 37.9438C36.5042 37.8505 36.5574 37.7297 36.5909 37.5816C36.6253 37.4311 36.6392 37.2634 36.6327 37.0785C36.715 37.1059 36.7985 37.1336 36.8832 37.1617C36.9678 37.1899 37.0513 37.2176 37.1336 37.2449ZM35.6142 37.5626C35.5916 37.6308 35.5893 37.7005 35.6074 37.7718C35.6262 37.8407 35.6694 37.9034 35.7368 37.9597C35.772 37.8539 35.8072 37.7481 35.8423 37.6423C35.8782 37.5341 35.9138 37.4271 35.9489 37.3213C35.8596 37.323 35.788 37.3462 35.7339 37.3909C35.6783 37.4325 35.6384 37.4897 35.6142 37.5626Z" fill="#2F4ECD"/>
<path d="M37.7176 58.4406C37.3225 58.3094 36.9228 58.1766 36.5184 58.0422C36.1139 57.9078 35.7142 57.775 35.3191 57.6437C35.3535 57.5403 35.3879 57.4368 35.4223 57.3334C35.4566 57.2299 35.4906 57.1276 35.5242 57.0265C35.8275 57.1273 36.1344 57.2292 36.4448 57.3324C36.7528 57.4347 37.0585 57.5363 37.3618 57.637C37.4033 57.5124 37.445 57.3866 37.4872 57.2596C37.5294 57.1327 37.5708 57.008 37.6115 56.8858C37.7032 56.9162 37.7972 56.9475 37.8936 56.9795C37.9877 57.0108 38.0806 57.0416 38.1723 57.0721C38.0973 57.2978 38.0215 57.5259 37.9449 57.7563C37.8684 57.9868 37.7926 58.2149 37.7176 58.4406ZM36.3438 55.7855C36.3212 55.8537 36.284 55.9105 36.2324 55.956C36.1815 55.9992 36.1235 56.0282 36.0585 56.0432C35.9935 56.0581 35.928 56.0547 35.8622 56.0328C35.7964 56.0109 35.743 55.9749 35.7022 55.9248C35.6591 55.8739 35.6301 55.816 35.6151 55.751C35.6009 55.6836 35.6052 55.6158 35.6278 55.5476C35.6497 55.4818 35.6861 55.4273 35.737 55.3841C35.7886 55.3386 35.847 55.3084 35.912 55.2935C35.9747 55.2777 36.0389 55.2808 36.1048 55.3027C36.1706 55.3245 36.2251 55.3609 36.2683 55.4118C36.3114 55.4627 36.3401 55.5218 36.3542 55.5892C36.3692 55.6542 36.3657 55.7197 36.3438 55.7855ZM38.2782 56.7532C37.9772 56.6532 37.6739 56.5525 37.3682 56.4509C37.0602 56.3486 36.7557 56.2474 36.4547 56.1474C36.4867 56.051 36.5191 55.9534 36.5519 55.8546C36.5848 55.7559 36.6168 55.6595 36.648 55.5654C36.949 55.6654 37.2535 55.7666 37.5616 55.8689C37.8672 55.9705 38.1706 56.0713 38.4716 56.1713C38.4403 56.2653 38.4083 56.3617 38.3755 56.4605C38.3427 56.5592 38.3102 56.6568 38.2782 56.7532ZM38.8797 53.9525C39.0796 54.0189 39.2321 54.1178 39.3372 54.2494C39.4431 54.3786 39.5044 54.5282 39.521 54.6982C39.54 54.869 39.519 55.05 39.4581 55.2412C39.398 55.4301 39.3037 55.6194 39.1754 55.8092C39.0837 55.7787 38.9908 55.7479 38.8968 55.7166C38.8051 55.6861 38.7134 55.6557 38.6216 55.6252C38.7563 55.4637 38.8486 55.3077 38.8986 55.1572C38.9509 55.0075 38.9622 54.8793 38.9323 54.7728C38.9008 54.6631 38.8322 54.5907 38.7264 54.5556C38.7146 54.5517 38.704 54.5481 38.6946 54.545C38.6829 54.5411 38.6723 54.5376 38.6629 54.5345C38.688 54.6081 38.7006 54.688 38.7007 54.7742C38.7008 54.8604 38.686 54.9482 38.6563 55.0375C38.6071 55.1857 38.5289 55.3072 38.4216 55.4021C38.3128 55.4939 38.1863 55.5524 38.0422 55.5776C37.8957 55.602 37.7401 55.5869 37.5755 55.5322C37.4485 55.49 37.3392 55.4302 37.2474 55.3527C37.1557 55.2752 37.0835 55.186 37.0309 55.085C36.9783 54.9839 36.948 54.8786 36.9401 54.7689C36.9298 54.6584 36.9422 54.5503 36.9774 54.4445C37.0055 54.3598 37.0434 54.2849 37.0912 54.2199C37.1389 54.1548 37.1921 54.1007 37.2509 54.0575C37.2344 54.052 37.2191 54.047 37.205 54.0423C37.1909 54.0376 37.1756 54.0325 37.1591 54.027C37.1912 53.9306 37.2236 53.833 37.2564 53.7343C37.2892 53.6355 37.3213 53.5391 37.3525 53.4451C37.6041 53.5286 37.8592 53.6134 38.1179 53.6993C38.3742 53.7845 38.6281 53.8689 38.8797 53.9525ZM38.2 54.7253C38.2328 54.6266 38.2284 54.5376 38.1868 54.4585C38.1436 54.3763 38.0727 54.3188 37.9739 54.286C37.8728 54.2524 37.7803 54.2556 37.6965 54.2957C37.6135 54.3333 37.5556 54.4016 37.5228 54.5003C37.4884 54.6038 37.4928 54.6966 37.536 54.7789C37.5768 54.8603 37.649 54.9182 37.7524 54.9526C37.8535 54.9862 37.9448 54.9826 38.0263 54.9418C38.1077 54.9009 38.1656 54.8288 38.2 54.7253ZM39.3104 53.6463C38.8848 53.5049 38.4557 53.3624 38.023 53.2186C37.5904 53.0749 37.1612 52.9323 36.7356 52.7909C36.7677 52.6945 36.8001 52.5969 36.8329 52.4981C36.8657 52.3994 36.8977 52.303 36.929 52.2089C37.0677 52.255 37.2088 52.3019 37.3523 52.3495C37.4933 52.3964 37.6332 52.4429 37.772 52.489C37.7484 52.4106 37.7377 52.3288 37.74 52.2434C37.7407 52.1548 37.7563 52.0647 37.7868 51.973C37.8313 51.839 37.9009 51.7315 37.9956 51.6507C38.0912 51.5676 38.2059 51.5169 38.3399 51.4988C38.4723 51.4775 38.6184 51.4934 38.7783 51.5465C38.9617 51.6075 39.1463 51.6688 39.3321 51.7305C39.5178 51.7922 39.7024 51.8536 39.8858 51.9145C39.8546 52.0086 39.8225 52.105 39.7897 52.2037C39.7569 52.3025 39.7245 52.4001 39.6925 52.4965C39.5232 52.4402 39.3515 52.3832 39.1775 52.3254C39.0035 52.2676 38.8319 52.2106 38.6625 52.1543C38.5685 52.1231 38.4858 52.1204 38.4145 52.1463C38.3417 52.1691 38.2897 52.2275 38.2584 52.3216C38.2272 52.4157 38.23 52.4975 38.2669 52.5672C38.3038 52.6369 38.3728 52.6886 38.4739 52.7222C38.6432 52.7784 38.8148 52.8355 38.9888 52.8933C39.1628 52.9511 39.3345 53.0081 39.5038 53.0644C39.4726 53.1584 39.4405 53.2548 39.4077 53.3536C39.3749 53.4523 39.3425 53.5499 39.3104 53.6463ZM40.0694 51.362C39.853 51.2902 39.6355 51.2179 39.4169 51.1453C39.1982 51.0726 38.9818 51.0007 38.7679 50.9296C38.7522 50.9767 38.7362 51.0249 38.7198 51.0742C38.7042 51.1213 38.6886 51.1683 38.6729 51.2153C38.5859 51.1864 38.4989 51.1575 38.4119 51.1286C38.3249 51.0997 38.2379 51.0708 38.1509 51.0419C38.1666 50.9949 38.1822 50.9478 38.1978 50.9008C38.2142 50.8514 38.2302 50.8032 38.2459 50.7562C38.1636 50.7289 38.0824 50.7019 38.0025 50.6753C37.9202 50.648 37.8391 50.621 37.7591 50.5945C37.7911 50.4981 37.8236 50.4005 37.8564 50.3017C37.8892 50.203 37.9212 50.1066 37.9525 50.0125C38.0324 50.0391 38.1135 50.066 38.1958 50.0934C38.2758 50.1199 38.3569 50.1469 38.4392 50.1742C38.4572 50.1201 38.4755 50.0649 38.4943 50.0084C38.513 49.952 38.5314 49.8968 38.5494 49.8427C38.6364 49.8716 38.7234 49.9005 38.8104 49.9294C38.8974 49.9583 38.9844 49.9872 39.0714 50.0161C39.0534 50.0702 39.0351 50.1254 39.0163 50.1819C38.9976 50.2383 38.9792 50.2936 38.9612 50.3477C39.1752 50.4187 39.3915 50.4906 39.6102 50.5633C39.8289 50.6359 40.0464 50.7082 40.2627 50.7801C40.2315 50.8741 40.1995 50.9705 40.1666 51.0693C40.1338 51.1681 40.1014 51.2656 40.0694 51.362ZM40.7122 49.4273C40.4112 49.3273 40.1079 49.2265 39.8022 49.1249C39.4942 49.0226 39.1896 48.9214 38.8887 48.8214C38.9207 48.725 38.9531 48.6274 38.9859 48.5287C39.0187 48.4299 39.0508 48.3335 39.082 48.2395C39.0985 48.2449 39.1138 48.25 39.1279 48.2547C39.142 48.2594 39.1573 48.2645 39.1737 48.2699C39.1494 48.1939 39.1379 48.1144 39.1394 48.0314C39.1385 47.9475 39.1514 47.8656 39.178 47.7857C39.2069 47.6987 39.2487 47.6238 39.3035 47.5611C39.3559 47.4976 39.419 47.4493 39.4926 47.4163C39.4635 47.3231 39.4493 47.2244 39.45 47.1202C39.4514 47.0136 39.469 46.9098 39.5026 46.8087C39.5502 46.6652 39.6206 46.5515 39.7138 46.4676C39.8077 46.3813 39.9182 46.3279 40.0451 46.3074C40.1728 46.2846 40.313 46.2986 40.4659 46.3493C40.654 46.4118 40.8445 46.4751 41.0373 46.5392C41.2301 46.6032 41.4206 46.6665 41.6087 46.729C41.5774 46.8231 41.5454 46.9195 41.5126 47.0183C41.4798 47.117 41.4473 47.2146 41.4153 47.311C41.239 47.2524 41.0602 47.193 40.8792 47.1329C40.6981 47.0727 40.5194 47.0134 40.3431 46.9548C40.2631 46.9282 40.1922 46.9255 40.1303 46.9467C40.0669 46.9648 40.0219 47.0138 39.9953 47.0938C39.9695 47.1714 39.9739 47.2407 40.0084 47.3018C40.0414 47.3598 40.1002 47.4028 40.1849 47.4309C40.3612 47.4895 40.5399 47.5489 40.721 47.609C40.902 47.6692 41.0807 47.7286 41.2571 47.7872C41.2259 47.8812 41.1938 47.9776 41.161 48.0764C41.1282 48.1751 41.0958 48.2727 41.0637 48.3691C40.8874 48.3105 40.7087 48.2512 40.5276 48.191C40.3466 48.1309 40.1679 48.0715 39.9915 48.0129C39.9116 47.9863 39.8406 47.9837 39.7788 48.0049C39.7153 48.023 39.6703 48.072 39.6437 48.1519C39.618 48.2295 39.6223 48.2989 39.6569 48.3599C39.6898 48.4179 39.7486 48.4609 39.8333 48.4891C40.0097 48.5477 40.1884 48.607 40.3694 48.6672C40.5505 48.7273 40.7292 48.7867 40.9055 48.8453C40.8743 48.9394 40.8423 49.0358 40.8095 49.1345C40.7766 49.2333 40.7442 49.3309 40.7122 49.4273ZM40.4709 44.0591C40.7719 44.1591 41.0764 44.2603 41.3844 44.3627C41.6901 44.4642 41.9934 44.565 42.2944 44.665C42.2632 44.7591 42.2311 44.8555 42.1983 44.9542C42.1655 45.053 42.1331 45.1506 42.1011 45.247C42.0846 45.2415 42.0693 45.2364 42.0552 45.2317C42.0411 45.2271 42.0258 45.222 42.0094 45.2165C42.0329 45.2948 42.0432 45.3779 42.0402 45.4656C42.0402 45.5518 42.0251 45.6408 41.9946 45.7325C41.9501 45.8665 41.88 45.9751 41.7845 46.0583C41.6898 46.1391 41.5751 46.1897 41.4403 46.2102C41.3063 46.2284 41.1606 46.2113 41.003 46.1589C40.8196 46.098 40.635 46.0367 40.4493 45.9749C40.2635 45.9132 40.0789 45.8519 39.8955 45.791C39.9275 45.6946 39.96 45.597 39.9928 45.4982C40.0256 45.3995 40.0576 45.303 40.0889 45.209C40.2582 45.2652 40.4298 45.3223 40.6038 45.3801C40.7778 45.4379 40.9495 45.4949 41.1188 45.5512C41.2128 45.5824 41.2963 45.5866 41.3691 45.5639C41.4404 45.5379 41.4917 45.4779 41.5229 45.3839C41.5542 45.2898 41.5514 45.2079 41.5145 45.1382C41.4776 45.0685 41.4086 45.0169 41.3075 44.9833C41.1382 44.9271 40.9665 44.87 40.7925 44.8122C40.6185 44.7544 40.4468 44.6974 40.2775 44.6411C40.3096 44.5447 40.342 44.4471 40.3748 44.3484C40.4076 44.2496 40.4396 44.1532 40.4709 44.0591ZM42.3216 42.6971C42.4674 42.7455 42.5736 42.8265 42.6404 42.9401C42.7055 43.0505 42.7366 43.1809 42.7336 43.3314C42.7306 43.4818 42.6975 43.6405 42.6342 43.8075C42.574 43.9729 42.4903 44.1344 42.3831 44.292C42.2938 44.2623 42.2021 44.2318 42.108 44.2005C42.0139 44.1693 41.9222 44.1388 41.8329 44.1091C41.9104 44.0252 41.9785 43.9382 42.0371 43.848C42.0935 43.7571 42.1373 43.6724 42.1685 43.594C42.1998 43.5156 42.2154 43.449 42.2153 43.3942C42.2129 43.3385 42.1906 43.3037 42.1482 43.2896C42.1153 43.2787 42.0824 43.2913 42.0495 43.3273C42.0175 43.3611 41.9834 43.4085 41.9474 43.4697C41.9091 43.53 41.8669 43.5943 41.8207 43.6625C41.773 43.7276 41.7182 43.7864 41.6563 43.839C41.5921 43.8908 41.5189 43.9265 41.4366 43.9462C41.3528 43.9627 41.2556 43.9526 41.1451 43.9159C41.0134 43.8721 40.9143 43.7974 40.8475 43.6917C40.7793 43.5828 40.7431 43.4559 40.739 43.311C40.7326 43.1653 40.756 43.0124 40.8091 42.8526C40.8622 42.6927 40.9436 42.5382 41.0531 42.3892C41.1425 42.4189 41.2342 42.4494 41.3282 42.4806C41.4223 42.5119 41.514 42.5424 41.6034 42.572C41.4961 42.6826 41.4128 42.792 41.3533 42.9002C41.2939 43.0084 41.2607 43.1005 41.2537 43.1765C41.2444 43.2517 41.2644 43.2976 41.3138 43.314C41.3467 43.3249 41.3792 43.3135 41.4113 43.2798C41.4418 43.2429 41.4747 43.1951 41.5099 43.1363C41.5459 43.0751 41.5877 43.012 41.6355 42.9469C41.684 42.8795 41.7399 42.8211 41.8034 42.7717C41.8652 42.7191 41.9392 42.6849 42.0254 42.6692C42.11 42.6503 42.2087 42.6596 42.3216 42.6971ZM41.0507 41.6184C41.0281 41.6866 40.9909 41.7435 40.9392 41.789C40.8884 41.8321 40.8304 41.8611 40.7654 41.8761C40.7004 41.8911 40.6349 41.8876 40.5691 41.8657C40.5033 41.8438 40.4499 41.8078 40.4091 41.7577C40.366 41.7069 40.3369 41.6489 40.322 41.5839C40.3078 41.5165 40.3121 41.4487 40.3347 41.3805C40.3566 41.3147 40.393 41.2602 40.4439 41.2171C40.4955 41.1716 40.5539 41.1413 40.6189 41.1264C40.6816 41.1107 40.7458 41.1137 40.8117 41.1356C40.8775 41.1575 40.932 41.1939 40.9751 41.2447C41.0183 41.2956 41.0469 41.3548 41.0611 41.4221C41.0761 41.4872 41.0726 41.5526 41.0507 41.6184ZM42.9851 42.5862C42.6841 42.4862 42.3808 42.3854 42.0751 42.2838C41.7671 42.1815 41.4626 42.0803 41.1616 41.9803C41.1936 41.8839 41.226 41.7863 41.2588 41.6876C41.2916 41.5888 41.3237 41.4924 41.3549 41.3983C41.6559 41.4983 41.9604 41.5995 42.2685 41.7018C42.5741 41.8034 42.8775 41.9042 43.1785 42.0042C43.1472 42.0982 43.1152 42.1947 43.0824 42.2934C43.0495 42.3922 43.0171 42.4898 42.9851 42.5862ZM42.3671 41.3933C42.1884 41.3339 42.0441 41.2455 41.9343 41.1281C41.8221 41.0099 41.7464 40.8724 41.707 40.7158C41.6677 40.5591 41.6683 40.3922 41.7089 40.2151C41.7471 40.0372 41.828 39.8604 41.9517 39.6848C42.041 39.7144 42.1316 39.7445 42.2233 39.775C42.315 39.8055 42.4055 39.8355 42.4948 39.8652C42.3837 39.9797 42.3098 40.1001 42.2731 40.2263C42.2364 40.3524 42.2412 40.4676 42.2875 40.5718C42.3315 40.6752 42.424 40.7503 42.5651 40.7972C42.7062 40.8441 42.8265 40.8396 42.9259 40.7839C43.023 40.7274 43.0946 40.6376 43.1407 40.5145C43.1845 40.3907 43.1973 40.25 43.1791 40.0926C43.2685 40.1222 43.359 40.1523 43.4507 40.1828C43.5424 40.2133 43.6329 40.2433 43.7223 40.273C43.7162 40.4877 43.6753 40.6778 43.5994 40.8432C43.5259 41.0094 43.4266 41.1434 43.3013 41.2454C43.176 41.3474 43.0343 41.4126 42.876 41.441C42.7154 41.4685 42.5458 41.4526 42.3671 41.3933Z" fill="#2F4ECD"/>
<path d="M44.6321 60.7092C44.2371 60.5779 43.8374 60.4451 43.4329 60.3107C43.0285 60.1764 42.6287 60.0436 42.2337 59.9123C42.2821 59.7665 42.3306 59.6207 42.379 59.4749C42.4282 59.3268 42.4767 59.181 42.5243 59.0376C42.5845 58.8565 42.6721 58.7107 42.7872 58.6001C42.8999 58.4887 43.031 58.4161 43.1807 58.3823C43.3303 58.3484 43.4886 58.3592 43.6555 58.4147C43.8201 58.4694 43.9522 58.5551 44.0519 58.6717C44.1523 58.786 44.2151 58.9192 44.2403 59.0711C44.2663 59.2208 44.2524 59.3767 44.1985 59.539C44.1813 59.5907 44.1641 59.6424 44.1469 59.6942C44.1305 59.7435 44.1137 59.7941 44.0965 59.8458C44.2188 59.8865 44.3422 59.9275 44.4669 59.9689C44.5915 60.0103 44.7149 60.0513 44.8372 60.0919C44.8036 60.193 44.7696 60.2953 44.7353 60.3988C44.7009 60.5022 44.6665 60.6057 44.6321 60.7092ZM43.0781 59.2216C43.064 59.2639 43.0496 59.3074 43.0347 59.3521C43.0206 59.3944 43.0066 59.4367 42.9925 59.479C43.0866 59.5103 43.1818 59.5419 43.2782 59.574C43.3723 59.6052 43.4663 59.6365 43.5604 59.6677C43.576 59.6207 43.592 59.5725 43.6084 59.5231C43.6256 59.4714 43.642 59.422 43.6577 59.375C43.6819 59.3021 43.6744 59.2343 43.6351 59.1716C43.5967 59.1066 43.5375 59.0609 43.4575 59.0343C43.3752 59.007 43.2988 59.009 43.2283 59.0404C43.1578 59.0718 43.1078 59.1322 43.0781 59.2216ZM43.3866 57.6683C43.3639 57.7365 43.3267 57.7933 43.2751 57.8388C43.2242 57.8819 43.1662 57.911 43.1012 57.9259C43.0362 57.9409 42.9708 57.9374 42.9049 57.9156C42.8391 57.8937 42.7858 57.8577 42.745 57.8076C42.7018 57.7567 42.6728 57.6987 42.6578 57.6337C42.6437 57.5664 42.6479 57.4986 42.6706 57.4304C42.6924 57.3645 42.7288 57.3101 42.7797 57.2669C42.8314 57.2214 42.8897 57.1912 42.9547 57.1762C43.0174 57.1605 43.0817 57.1636 43.1475 57.1854C43.2133 57.2073 43.2678 57.2437 43.311 57.2946C43.3541 57.3455 43.3828 57.4046 43.3969 57.472C43.4119 57.537 43.4084 57.6024 43.3866 57.6683ZM45.3209 58.636C45.0199 58.536 44.7166 58.4352 44.4109 58.3337C44.1029 58.2313 43.7984 58.1302 43.4974 58.0302C43.5294 57.9338 43.5619 57.8362 43.5947 57.7374C43.6275 57.6387 43.6595 57.5422 43.6908 57.4482C43.9917 57.5482 44.2962 57.6494 44.6043 57.7517C44.91 57.8533 45.2133 57.954 45.5143 58.054C45.483 58.1481 45.451 58.2445 45.4182 58.3433C45.3854 58.442 45.353 58.5396 45.3209 58.636ZM46.0535 56.431C46.0347 56.4248 46.0171 56.4189 46.0006 56.4134C45.9818 56.4072 45.9642 56.4013 45.9477 56.3959C45.9776 56.471 45.9929 56.5506 45.9938 56.6344C45.9978 56.7167 45.9857 56.8001 45.9576 56.8848C45.9177 57.0047 45.8579 57.1101 45.7781 57.2011C45.6959 57.2913 45.5988 57.3635 45.4868 57.4177C45.3732 57.4687 45.2499 57.4982 45.1167 57.5062C44.9843 57.5118 44.8463 57.4908 44.7029 57.4431C44.5571 57.3947 44.4328 57.3286 44.3301 57.2449C44.2282 57.1588 44.1493 57.0621 44.0936 56.9548C44.0363 56.8444 44.0029 56.7288 43.9933 56.6082C43.9815 56.4867 43.9951 56.3672 44.0341 56.2496C44.0623 56.165 44.1029 56.0897 44.1561 56.0239C44.207 55.9572 44.2657 55.9023 44.3323 55.8591C44.3135 55.8529 44.2958 55.847 44.2794 55.8416C44.2629 55.8361 44.2465 55.8306 44.23 55.8252C44.262 55.7287 44.2944 55.6312 44.3273 55.5324C44.3601 55.4336 44.3921 55.3372 44.4234 55.2432C44.7243 55.3432 45.0288 55.4443 45.3369 55.5467C45.6426 55.6483 45.9459 55.749 46.2469 55.849C46.2156 55.9431 46.1836 56.0395 46.1508 56.1383C46.118 56.237 46.0856 56.3346 46.0535 56.431ZM45.4684 56.6361C45.5059 56.5232 45.4948 56.419 45.4352 56.3235C45.3755 56.228 45.2787 56.1579 45.1447 56.1134C45.0106 56.0689 44.8923 56.0674 44.7897 56.109C44.6848 56.1499 44.6135 56.2267 44.576 56.3396C44.5378 56.4548 44.5473 56.5598 44.6046 56.6546C44.6626 56.747 44.7599 56.8158 44.8962 56.8611C45.0326 56.9065 45.1529 56.9099 45.2571 56.8714C45.3597 56.8297 45.4301 56.7513 45.4684 56.6361ZM46.3759 55.4606C46.0749 55.3606 45.7716 55.2599 45.4659 55.1583C45.1579 55.056 44.8534 54.9548 44.5524 54.8548C44.5844 54.7584 44.6168 54.6608 44.6497 54.562C44.6825 54.4633 44.7145 54.3669 44.7457 54.2728C44.7622 54.2783 44.7775 54.2834 44.7916 54.288C44.8057 54.2927 44.821 54.2978 44.8375 54.3033C44.8139 54.2249 44.8032 54.1431 44.8055 54.0577C44.8062 53.9691 44.8218 53.879 44.8522 53.7873C44.8968 53.6533 44.9664 53.5458 45.0611 53.465C45.1566 53.3819 45.2714 53.3312 45.4053 53.3131C45.5377 53.2918 45.6839 53.3077 45.8438 53.3608C46.0272 53.4218 46.2118 53.4831 46.3975 53.5448C46.5833 53.6065 46.7679 53.6679 46.9513 53.7288C46.9201 53.8229 46.888 53.9193 46.8552 54.018C46.8224 54.1168 46.79 54.2144 46.7579 54.3108C46.5886 54.2545 46.417 54.1975 46.243 54.1397C46.069 54.0819 45.8973 54.0249 45.728 53.9686C45.634 53.9374 45.5513 53.9347 45.48 53.9606C45.4072 53.9834 45.3551 54.0418 45.3239 54.1359C45.2926 54.23 45.2954 54.3118 45.3323 54.3815C45.3692 54.4512 45.4382 54.5029 45.5394 54.5365C45.7087 54.5927 45.8803 54.6498 46.0543 54.7076C46.2283 54.7654 46.4 54.8224 46.5693 54.8787C46.538 54.9727 46.506 55.0691 46.4732 55.1679C46.4404 55.2666 46.4079 55.3642 46.3759 55.4606ZM47.4141 52.5244C47.3688 52.6608 47.3031 52.78 47.217 52.8819C47.1286 52.9831 47.0264 53.0627 46.9105 53.1208C46.7922 53.1781 46.6661 53.212 46.5321 53.2223C46.3989 53.2302 46.263 53.2112 46.1242 53.1651C45.9855 53.119 45.8652 53.0529 45.7632 52.9668C45.662 52.8784 45.5824 52.7762 45.5243 52.6603C45.4662 52.5444 45.4332 52.4198 45.4252 52.2866C45.4149 52.1527 45.4324 52.0175 45.4777 51.8811C45.5238 51.7424 45.5907 51.6236 45.6783 51.5248C45.7644 51.4228 45.8654 51.3428 45.9813 51.2847C46.0972 51.2266 46.2218 51.1936 46.355 51.1856C46.489 51.1753 46.6253 51.1932 46.7641 51.2393C46.9028 51.2854 47.0227 51.3526 47.1239 51.4411C47.2259 51.5272 47.3071 51.6286 47.3675 51.7453C47.4256 51.8612 47.4598 51.9861 47.4701 52.1201C47.4789 52.2509 47.4602 52.3857 47.4141 52.5244ZM46.8886 52.3498C46.9268 52.2346 46.9162 52.1292 46.8565 52.0337C46.7953 51.935 46.7 51.8642 46.5707 51.8213C46.439 51.7775 46.3215 51.7776 46.2181 51.8216C46.1132 51.8625 46.0415 51.9405 46.0033 52.0557C45.965 52.1709 45.9753 52.2775 46.0341 52.3754C46.0914 52.4701 46.1859 52.5394 46.3176 52.5831C46.4469 52.6261 46.5652 52.6275 46.6725 52.5875C46.7783 52.5443 46.8503 52.4651 46.8886 52.3498ZM48.0193 50.5144C47.7183 50.4144 47.415 50.3136 47.1093 50.212C46.8012 50.1097 46.4967 50.0085 46.1957 49.9085C46.2278 49.8121 46.2602 49.7145 46.293 49.6158C46.3258 49.517 46.3579 49.4206 46.3891 49.3266C46.4056 49.332 46.4208 49.3371 46.435 49.3418C46.4491 49.3465 46.4643 49.3516 46.4808 49.357C46.4564 49.281 46.445 49.2015 46.4465 49.1185C46.4456 49.0346 46.4585 48.9527 46.485 48.8728C46.5139 48.7858 46.5558 48.7109 46.6106 48.6482C46.663 48.5847 46.726 48.5364 46.7997 48.5034C46.7706 48.4102 46.7564 48.3115 46.7571 48.2073C46.7585 48.1007 46.776 47.9969 46.8096 47.8958C46.8573 47.7523 46.9277 47.6387 47.0209 47.5547C47.1148 47.4684 47.2252 47.415 47.3521 47.3945C47.4798 47.3717 47.6201 47.3857 47.773 47.4364C47.9611 47.4989 48.1515 47.5622 48.3443 47.6263C48.5372 47.6904 48.7276 47.7536 48.9157 47.8161C48.8845 47.9102 48.8525 48.0066 48.8196 48.1054C48.7868 48.2041 48.7544 48.3017 48.7224 48.3981C48.546 48.3395 48.3673 48.2801 48.1863 48.22C48.0052 48.1598 47.8265 48.1005 47.6501 48.0419C47.5702 48.0153 47.4993 48.0126 47.4374 48.0338C47.3739 48.0519 47.3289 48.1009 47.3024 48.1809C47.2766 48.2585 47.281 48.3278 47.3155 48.3889C47.3485 48.4469 47.4073 48.4899 47.4919 48.518C47.6683 48.5766 47.847 48.636 48.0281 48.6961C48.2091 48.7563 48.3878 48.8157 48.5642 48.8743C48.5329 48.9683 48.5009 49.0647 48.4681 49.1635C48.4353 49.2623 48.4029 49.3598 48.3708 49.4562C48.1945 49.3977 48.0158 49.3383 47.8347 49.2781C47.6536 49.218 47.4749 49.1586 47.2986 49.1C47.2186 49.0734 47.1477 49.0708 47.0858 49.092C47.0224 49.1101 46.9774 49.1591 46.9508 49.239C46.925 49.3166 46.9294 49.386 46.964 49.4471C46.9969 49.505 47.0557 49.548 47.1404 49.5762C47.3167 49.6348 47.4954 49.6941 47.6765 49.7543C47.8576 49.8144 48.0363 49.8738 48.2126 49.9324C48.1814 50.0265 48.1493 50.1229 48.1165 50.2216C48.0837 50.3204 48.0513 50.418 48.0193 50.5144ZM49.4723 45.858C49.4866 46.0429 49.4754 46.218 49.4387 46.3834C49.4021 46.5488 49.3423 46.6973 49.2594 46.829C49.1796 46.9592 49.0802 47.0658 48.9611 47.149C48.8421 47.2322 48.7086 47.2844 48.5605 47.3057C48.4132 47.3247 48.2561 47.3064 48.0892 47.251C47.9504 47.2049 47.8309 47.1403 47.7305 47.0574C47.6285 46.9713 47.5481 46.8715 47.4893 46.7579C47.428 46.6436 47.393 46.521 47.3843 46.3901C47.3732 46.2585 47.3903 46.1245 47.4356 45.9881C47.4762 45.8658 47.5329 45.762 47.6057 45.6765C47.6785 45.591 47.7635 45.5239 47.8606 45.4753C47.9553 45.4258 48.0595 45.3951 48.1731 45.3833C48.2867 45.3714 48.4043 45.3791 48.5257 45.4064C48.6472 45.4337 48.7695 45.4822 48.8926 45.5518C48.8285 45.7446 48.7641 45.9386 48.6992 46.1338C48.6344 46.329 48.5699 46.523 48.5059 46.7158C48.6101 46.7008 48.6982 46.6478 48.7702 46.5568C48.8429 46.4635 48.8961 46.3428 48.9296 46.1947C48.964 46.0442 48.9779 45.8765 48.9715 45.6916C49.0538 45.7189 49.1372 45.7467 49.2219 45.7748C49.3065 45.8029 49.39 45.8307 49.4723 45.858ZM47.9529 46.1757C47.9303 46.2439 47.928 46.3136 47.9461 46.3849C47.965 46.4538 48.0081 46.5165 48.0756 46.5728C48.1107 46.467 48.1459 46.3612 48.181 46.2554C48.217 46.1472 48.2525 46.0402 48.2877 45.9344C48.1983 45.936 48.1267 45.9592 48.0726 46.0039C48.0171 46.0455 47.9772 46.1028 47.9529 46.1757ZM49.7062 45.4368C49.2806 45.2954 48.8515 45.1529 48.4188 45.0091C47.9862 44.8654 47.557 44.7228 47.1314 44.5814C47.1635 44.485 47.1959 44.3874 47.2287 44.2886C47.2615 44.1899 47.2935 44.0935 47.3248 43.9994C47.7504 44.1408 48.1795 44.2834 48.6122 44.4271C49.0449 44.5709 49.474 44.7135 49.8996 44.8549C49.8684 44.9489 49.8363 45.0453 49.8035 45.1441C49.7707 45.2428 49.7383 45.3404 49.7062 45.4368ZM50.3781 43.6033C50.3328 43.7397 50.2671 43.8588 50.181 43.9608C50.0925 44.0619 49.9904 44.1416 49.8745 44.1997C49.7562 44.257 49.6301 44.2908 49.4961 44.3011C49.3629 44.3091 49.2269 44.29 49.0882 44.2439C48.9495 44.1978 48.8291 44.1318 48.7272 44.0457C48.626 43.9572 48.5464 43.855 48.4883 43.7391C48.4302 43.6232 48.3972 43.4987 48.3892 43.3655C48.3789 43.2315 48.3964 43.0963 48.4417 42.9599C48.4878 42.8212 48.5547 42.7024 48.6423 42.6036C48.7284 42.5017 48.8294 42.4217 48.9453 42.3636C49.0612 42.3055 49.1858 42.2724 49.319 42.2645C49.453 42.2541 49.5893 42.272 49.728 42.3181C49.8668 42.3642 49.9867 42.4315 50.0879 42.5199C50.1898 42.606 50.271 42.7074 50.3315 42.8241C50.3896 42.94 50.4238 43.0649 50.4341 43.1989C50.4429 43.3298 50.4242 43.4646 50.3781 43.6033ZM49.8525 43.4287C49.8908 43.3135 49.8801 43.2081 49.8205 43.1126C49.7593 43.0139 49.664 42.9431 49.5347 42.9001C49.403 42.8563 49.2855 42.8565 49.1821 42.9004C49.0771 42.9413 49.0055 43.0193 48.9672 43.1345C48.929 43.2498 48.9392 43.3563 48.9981 43.4542C49.0554 43.549 49.1499 43.6182 49.2816 43.662C49.4109 43.7049 49.5292 43.7064 49.6365 43.6663C49.7423 43.6231 49.8143 43.5439 49.8525 43.4287ZM51.1415 41.1169C51.1227 41.1107 51.105 41.1048 51.0886 41.0994C51.0698 41.0931 51.0521 41.0872 51.0357 41.0818C51.0655 41.157 51.0809 41.2365 51.0818 41.3203C51.0858 41.4026 51.0737 41.486 51.0456 41.5707C51.0057 41.6906 50.9447 41.7957 50.8625 41.8859C50.7803 41.9761 50.6833 42.0482 50.5713 42.1024C50.4577 42.1535 50.3343 42.183 50.2011 42.1909C50.0687 42.1965 49.932 42.1759 49.7909 42.129C49.6474 42.0814 49.5243 42.0157 49.4216 41.9319C49.3197 41.8459 49.2397 41.7488 49.1816 41.6407C49.1243 41.5303 49.0908 41.4147 49.0813 41.2941C49.0695 41.1726 49.083 41.0531 49.1221 40.9356C49.1502 40.8509 49.1909 40.7756 49.2441 40.7098C49.295 40.6431 49.3537 40.5882 49.4203 40.5451C49.2792 40.4982 49.1369 40.4509 48.9935 40.4033C48.85 40.3556 48.7078 40.3083 48.5667 40.2615C48.5987 40.1651 48.6311 40.0675 48.664 39.9687C48.6968 39.87 48.7288 39.7736 48.76 39.6795C49.1857 39.8209 49.6148 39.9635 50.0475 40.1072C50.4801 40.251 50.9092 40.3935 51.3349 40.535C51.3036 40.629 51.2716 40.7254 51.2388 40.8242C51.2059 40.9229 51.1735 41.0205 51.1415 41.1169ZM50.5564 41.322C50.5939 41.2091 50.5828 41.1049 50.5232 41.0094C50.4635 40.9139 50.3667 40.8438 50.2327 40.7993C50.0986 40.7548 49.9803 40.7533 49.8777 40.795C49.7727 40.8358 49.7015 40.9127 49.664 41.0255C49.6257 41.1407 49.6352 41.2457 49.6925 41.3405C49.7506 41.4329 49.8478 41.5017 49.9842 41.5471C50.1206 41.5924 50.2409 41.5958 50.3451 41.5573C50.4477 41.5157 50.5181 41.4372 50.5564 41.322ZM52.0902 40.1475C51.9812 40.0591 51.8714 39.9691 51.7609 39.8775C51.6534 39.7844 51.5464 39.694 51.4397 39.6063C51.1326 39.627 50.8223 39.6493 50.5089 39.6731C50.194 39.6938 49.8829 39.7144 49.5758 39.7351C49.6102 39.6316 49.6445 39.5282 49.6789 39.4247C49.7133 39.3213 49.7473 39.219 49.7809 39.1179C49.9517 39.1067 50.1248 39.0964 50.3003 39.0868C50.4766 39.0749 50.6513 39.0637 50.8245 39.0534C50.6904 38.9462 50.5555 38.8374 50.4198 38.727C50.2842 38.6167 50.1505 38.5083 50.0187 38.4019C50.0523 38.3007 50.0859 38.1996 50.1195 38.0985C50.1531 37.9974 50.1867 37.8963 50.2203 37.7952C50.5606 38.0832 50.9065 38.3743 51.2578 38.6686C51.6075 38.9597 51.9526 39.2493 52.2929 39.5373C52.2593 39.6384 52.2254 39.7407 52.191 39.8442C52.1574 39.9453 52.1238 40.0464 52.0902 40.1475Z" fill="#2F4ECD"/>
</svg>
