<svg width="102" height="88" viewBox="0 0 102 88" fill="none" xmlns="http://www.w3.org/2000/svg">
<rect x="7.02247" y="55.9078" width="6.01644" height="9.4947" transform="rotate(-58.7198 7.02247 55.9078)" fill="#DCA645"/>
<rect x="9.61085" y="29.4029" width="6.01644" height="9.4947" transform="rotate(-58.7198 9.61085 29.4029)" fill="#DCA645"/>
<rect x="10.6465" y="67.5435" width="55.182" height="65.8048" rx="6.67449" transform="rotate(-84.3377 10.6465 67.5435)" fill="#F4E3D5"/>
<rect x="6.98829" y="55.8453" width="6.01644" height="9.4947" transform="rotate(-84.3377 6.98829 55.8453)" fill="#FECC73"/>
<mask id="mask0_139_636" style="mask-type:alpha" maskUnits="userSpaceOnUse" x="63" y="11" width="29" height="64">
<rect x="63.4082" y="72.775" width="61.4805" height="22.1856" transform="rotate(-84.3377 63.4082 72.775)" fill="#6CBDAA"/>
</mask>
<g mask="url(#mask0_139_636)">
<path d="M17.2884 68.2021C13.6202 67.8384 10.9413 64.5699 11.305 60.9016L15.4325 19.2727C15.7962 15.6044 19.0647 12.9256 22.733 13.2893L74.9329 18.4649C78.6011 18.8286 81.2799 22.0971 80.9162 25.7653L76.7888 67.3943C76.4251 71.0625 73.1565 73.7413 69.4883 73.3776L17.2884 68.2021Z" fill="#FECC73"/>
</g>
<rect x="9.61378" y="29.3717" width="6.01644" height="9.4947" transform="rotate(-84.3377 9.61378 29.3717)" fill="#FECC73"/>
<path d="M29.1753 24.125C27.867 24.7871 26.362 27.3349 27.8187 26.3942C28.9439 25.6675 29.1478 24.8137 29.1753 24.125Z" stroke="#404040" stroke-width="0.376027"/>
<path d="M29.8761 23.1814C31.2605 23.6577 33.0908 25.9753 31.5223 25.2433C30.3107 24.6779 29.9951 23.86 29.8761 23.1814Z" stroke="#404040" stroke-width="0.376027"/>
<path d="M25.834 63.0035L29.6507 24.5084" stroke="#404040" stroke-width="0.376027"/>
<ellipse cx="28.0159" cy="22.6932" rx="0.587686" ry="1.10928" transform="rotate(-84.3377 28.0159 22.6932)" fill="#FF8F53"/>
<ellipse cx="0.585762" cy="1.11295" rx="0.585762" ry="1.11295" transform="matrix(0.771334 -0.63643 0.631342 0.775504 27.5332 21.0592)" fill="#FF8F53"/>
<ellipse cx="0.584009" cy="1.11627" rx="0.584009" ry="1.11627" transform="matrix(0.993001 -0.118109 0.115375 0.993322 29.1792 23.3931)" fill="#FF8F53"/>
<ellipse cx="0.584692" cy="1.11498" rx="0.584692" ry="1.11498" transform="matrix(0.829349 0.558731 -0.554184 0.832394 28.7036 22.8248)" fill="#FF8F53"/>
<ellipse cx="0.587207" cy="1.1102" rx="0.587207" ry="1.1102" transform="matrix(-0.44183 0.897099 -0.895169 -0.445726 32.3389 23.5562)" fill="#FF8F53"/>
<ellipse cx="0.585762" cy="1.11295" rx="0.585762" ry="1.11295" transform="matrix(0.631342 0.775504 -0.771334 0.63643 31.4976 20.8248)" fill="#FF8F53"/>
<ellipse cx="29.9269" cy="21.1693" rx="0.583832" ry="1.1166" transform="rotate(5.66231 29.9269 21.1693)" fill="#FF8F53"/>
<ellipse cx="29.5813" cy="22.8202" rx="0.993588" ry="0.987072" transform="rotate(-84.3377 29.5813 22.8202)" fill="#A46443"/>
<path d="M36.4727 24.8506C35.1644 25.5127 33.6593 28.0605 35.116 27.1198C36.2413 26.3931 36.4451 25.5393 36.4727 24.8506Z" stroke="#404040" stroke-width="0.376027"/>
<path d="M37.174 23.9069C38.5583 24.3833 40.3886 26.7008 38.8201 25.9689C37.6085 25.4035 37.2929 24.5856 37.174 23.9069Z" stroke="#404040" stroke-width="0.376027"/>
<path d="M33.1309 63.7281L36.9476 25.233" stroke="#404040" stroke-width="0.376027"/>
<ellipse cx="35.3147" cy="23.4197" rx="0.587686" ry="1.10928" transform="rotate(-84.3377 35.3147 23.4197)" fill="#FF8F53"/>
<ellipse cx="0.585762" cy="1.11295" rx="0.585762" ry="1.11295" transform="matrix(0.771334 -0.63643 0.631342 0.775504 34.8316 21.7848)" fill="#FF8F53"/>
<ellipse cx="0.584009" cy="1.11627" rx="0.584009" ry="1.11627" transform="matrix(0.993001 -0.118109 0.115375 0.993322 36.478 24.1197)" fill="#FF8F53"/>
<ellipse cx="0.584692" cy="1.11498" rx="0.584692" ry="1.11498" transform="matrix(0.829349 0.558731 -0.554184 0.832394 36.0015 23.5504)" fill="#FF8F53"/>
<ellipse cx="0.587207" cy="1.1102" rx="0.587207" ry="1.1102" transform="matrix(-0.44183 0.897099 -0.895169 -0.445726 39.6377 24.2838)" fill="#FF8F53"/>
<ellipse cx="0.585762" cy="1.11295" rx="0.585762" ry="1.11295" transform="matrix(0.631342 0.775504 -0.771334 0.63643 38.7954 21.5514)" fill="#FF8F53"/>
<ellipse cx="37.2252" cy="21.8969" rx="0.583832" ry="1.1166" transform="rotate(5.66231 37.2252 21.8969)" fill="#FF8F53"/>
<ellipse cx="36.8806" cy="23.5467" rx="0.993588" ry="0.987072" transform="rotate(-84.3377 36.8806 23.5467)" fill="#A46443"/>
<path d="M43.8623 25.581C42.5541 26.2432 41.049 28.7909 42.5057 27.8502C43.6309 27.1236 43.8348 26.2698 43.8623 25.581Z" stroke="#404040" stroke-width="0.376027"/>
<path d="M44.5636 24.6374C45.948 25.1137 47.7783 27.4313 46.2098 26.6994C44.9982 26.134 44.6826 25.316 44.5636 24.6374Z" stroke="#404040" stroke-width="0.376027"/>
<path d="M40.5205 64.4596L44.3373 25.9645" stroke="#404040" stroke-width="0.376027"/>
<ellipse cx="42.7039" cy="24.1502" rx="0.587686" ry="1.10928" transform="rotate(-84.3377 42.7039 24.1502)" fill="#FF8F53"/>
<ellipse cx="0.585762" cy="1.11295" rx="0.585762" ry="1.11295" transform="matrix(0.771334 -0.63643 0.631342 0.775504 42.2202 22.5152)" fill="#FF8F53"/>
<ellipse cx="0.584009" cy="1.11627" rx="0.584009" ry="1.11627" transform="matrix(0.993001 -0.118109 0.115375 0.993322 43.8672 24.8492)" fill="#FF8F53"/>
<ellipse cx="0.584692" cy="1.11498" rx="0.584692" ry="1.11498" transform="matrix(0.829349 0.558731 -0.554184 0.832394 43.3906 24.2808)" fill="#FF8F53"/>
<ellipse cx="0.587207" cy="1.1102" rx="0.587207" ry="1.1102" transform="matrix(-0.44183 0.897099 -0.895169 -0.445726 47.0269 25.0133)" fill="#FF8F53"/>
<ellipse cx="0.585762" cy="1.11295" rx="0.585762" ry="1.11295" transform="matrix(0.631342 0.775504 -0.771334 0.63643 46.1846 22.2808)" fill="#FF8F53"/>
<ellipse cx="44.6154" cy="22.6273" rx="0.583832" ry="1.1166" transform="rotate(5.66231 44.6154 22.6273)" fill="#FF8F53"/>
<ellipse cx="44.2698" cy="24.2762" rx="0.993588" ry="0.987072" transform="rotate(-84.3377 44.2698 24.2762)" fill="#A46443"/>
<path d="M51.2534 26.3144C49.9452 26.9766 48.4401 29.5243 49.8968 28.5836C51.022 27.857 51.2259 27.0032 51.2534 26.3144Z" stroke="#404040" stroke-width="0.376027"/>
<path d="M51.9547 25.3708C53.3391 25.8471 55.1694 28.1647 53.6009 27.4328C52.3893 26.8674 52.0737 26.0494 51.9547 25.3708Z" stroke="#404040" stroke-width="0.376027"/>
<path d="M47.9116 65.192L51.7284 26.6969" stroke="#404040" stroke-width="0.376027"/>
<ellipse cx="50.0955" cy="24.8836" rx="0.587686" ry="1.10928" transform="rotate(-84.3377 50.0955 24.8836)" fill="#FF8F53"/>
<ellipse cx="0.585762" cy="1.11295" rx="0.585762" ry="1.11295" transform="matrix(0.771334 -0.63643 0.631342 0.775504 49.6123 23.2486)" fill="#FF8F53"/>
<ellipse cx="0.584009" cy="1.11627" rx="0.584009" ry="1.11627" transform="matrix(0.993001 -0.118109 0.115375 0.993322 51.2578 25.5826)" fill="#FF8F53"/>
<ellipse cx="0.584692" cy="1.11498" rx="0.584692" ry="1.11498" transform="matrix(0.829349 0.558731 -0.554184 0.832394 50.7818 25.0142)" fill="#FF8F53"/>
<ellipse cx="0.587207" cy="1.1102" rx="0.587207" ry="1.1102" transform="matrix(-0.44183 0.897099 -0.895169 -0.445726 54.4185 25.7467)" fill="#FF8F53"/>
<ellipse cx="0.585762" cy="1.11295" rx="0.585762" ry="1.11295" transform="matrix(0.631342 0.775504 -0.771334 0.63643 53.5757 23.0152)" fill="#FF8F53"/>
<ellipse cx="52.006" cy="23.3598" rx="0.583832" ry="1.1166" transform="rotate(5.66231 52.006 23.3598)" fill="#FF8F53"/>
<ellipse cx="51.6609" cy="25.0096" rx="0.993588" ry="0.987072" transform="rotate(-84.3377 51.6609 25.0096)" fill="#A46443"/>
<path d="M58.644 27.0459C57.3358 27.708 55.8307 30.2558 57.2874 29.3151C58.4127 28.5884 58.6165 27.7346 58.644 27.0459Z" stroke="#404040" stroke-width="0.376027"/>
<path d="M59.3444 26.1032C60.7287 26.5795 62.5591 28.8971 60.9905 28.1652C59.7789 27.5998 59.4633 26.7818 59.3444 26.1032Z" stroke="#404040" stroke-width="0.376027"/>
<path d="M55.3013 65.9254L59.118 27.4303" stroke="#404040" stroke-width="0.376027"/>
<ellipse cx="57.4851" cy="25.615" rx="0.587686" ry="1.10928" transform="rotate(-84.3377 57.4851 25.615)" fill="#FF8F53"/>
<ellipse cx="0.585762" cy="1.11295" rx="0.585762" ry="1.11295" transform="matrix(0.771334 -0.63643 0.631342 0.775504 57.0029 23.981)" fill="#FF8F53"/>
<ellipse cx="0.584009" cy="1.11627" rx="0.584009" ry="1.11627" transform="matrix(0.993001 -0.118109 0.115375 0.993322 58.6484 26.315)" fill="#FF8F53"/>
<ellipse cx="0.584692" cy="1.11498" rx="0.584692" ry="1.11498" transform="matrix(0.829349 0.558731 -0.554184 0.832394 58.1724 25.7467)" fill="#FF8F53"/>
<ellipse cx="0.587207" cy="1.1102" rx="0.587207" ry="1.1102" transform="matrix(-0.44183 0.897099 -0.895169 -0.445726 61.8081 26.4791)" fill="#FF8F53"/>
<ellipse cx="0.585762" cy="1.11295" rx="0.585762" ry="1.11295" transform="matrix(0.631342 0.775504 -0.771334 0.63643 60.9663 23.7476)" fill="#FF8F53"/>
<ellipse cx="59.3961" cy="24.0922" rx="0.583832" ry="1.1166" transform="rotate(5.66231 59.3961 24.0922)" fill="#FF8F53"/>
<ellipse cx="59.0505" cy="25.7411" rx="0.993588" ry="0.987072" transform="rotate(-84.3377 59.0505 25.7411)" fill="#A46443"/>
<path d="M24.339 62.0466C24.3285 62.1526 24.3179 62.2599 24.3071 62.3684C24.2963 62.4769 24.2856 62.5854 24.2748 62.6939C23.8606 62.6528 23.4414 62.6112 23.0173 62.5692C22.5932 62.5271 22.174 62.4856 21.7598 62.4445C21.7706 62.336 21.7813 62.2275 21.7921 62.119C21.8028 62.0105 21.8135 61.9033 21.824 61.7972C21.9744 61.8122 22.126 61.8272 22.2789 61.8423C22.4293 61.8573 22.5797 61.8722 22.7301 61.8871C22.7431 61.7564 22.7562 61.6245 22.7694 61.4913C22.7826 61.3582 22.7955 61.2275 22.8082 61.0993C22.6578 61.0844 22.5074 61.0695 22.357 61.0546C22.2041 61.0394 22.0525 61.0244 21.9021 61.0094C21.9128 60.901 21.9236 60.7925 21.9344 60.684C21.9451 60.5755 21.9558 60.4682 21.9663 60.3622C22.3805 60.4033 22.7997 60.4448 23.2238 60.4869C23.6479 60.5289 24.0671 60.5705 24.4813 60.6116C24.4708 60.7176 24.4601 60.8248 24.4494 60.9333C24.4386 61.0418 24.4279 61.1503 24.4171 61.2588C24.2495 61.2422 24.0805 61.2254 23.9104 61.2086C23.7378 61.1915 23.5689 61.1747 23.4037 61.1583C23.391 61.2865 23.378 61.4172 23.3648 61.5504C23.3516 61.6835 23.3386 61.8154 23.3256 61.9461C23.4908 61.9625 23.6597 61.9793 23.8323 61.9964C24.0024 62.0132 24.1713 62.03 24.339 62.0466ZM22.4273 59.6297C22.4202 59.7012 22.3965 59.7648 22.3561 59.8206C22.316 59.8739 22.2658 59.915 22.2057 59.9439C22.1456 59.9728 22.081 59.9838 22.0119 59.977C21.9429 59.9701 21.883 59.9467 21.8321 59.9068C21.7788 59.8667 21.7378 59.8166 21.7089 59.7564C21.6802 59.6938 21.6694 59.6268 21.6765 59.5553C21.6834 59.4862 21.7069 59.4251 21.747 59.3718C21.7874 59.316 21.8376 59.2737 21.8978 59.2448C21.9554 59.2156 22.0188 59.2045 22.0878 59.2113C22.1569 59.2182 22.218 59.2417 22.2713 59.2818C22.3246 59.322 22.3656 59.3733 22.3942 59.4359C22.4231 59.4961 22.4342 59.5607 22.4273 59.6297ZM24.5273 60.1479C24.2117 60.1166 23.8936 60.0851 23.573 60.0533C23.25 60.0213 22.9307 59.9896 22.6151 59.9583C22.6251 59.8572 22.6353 59.7549 22.6455 59.6513C22.6558 59.5478 22.6658 59.4467 22.6756 59.3481C22.9912 59.3793 23.3105 59.411 23.6335 59.443C23.9541 59.4748 24.2722 59.5064 24.5878 59.5376C24.578 59.6363 24.568 59.7374 24.5577 59.8409C24.5474 59.9445 24.5373 60.0468 24.5273 60.1479ZM24.4975 57.2834C24.7071 57.3042 24.8777 57.3672 25.0092 57.4723C25.1409 57.575 25.2336 57.7075 25.2872 57.8697C25.3433 58.0321 25.3627 58.2133 25.3454 58.4133C25.3283 58.6108 25.2781 58.8162 25.1947 59.0295C25.0985 59.02 25.0011 59.0103 24.9025 59.0006C24.8063 58.991 24.7101 58.9815 24.614 58.972C24.7097 58.7847 24.7654 58.6122 24.7811 58.4544C24.7992 58.2969 24.7819 58.1694 24.7293 58.0721C24.6745 57.972 24.5916 57.9165 24.4807 57.9055C24.4684 57.9043 24.4573 57.9032 24.4474 57.9022C24.4351 57.901 24.424 57.8999 24.4141 57.8989C24.4548 57.9652 24.4847 58.0403 24.5038 58.1244C24.5229 58.2085 24.5277 58.2973 24.5184 58.391C24.503 58.5464 24.4535 58.6821 24.3697 58.7983C24.2838 58.9118 24.1733 58.9967 24.0382 59.0531C23.9007 59.1091 23.7456 59.1286 23.573 59.1115C23.4399 59.0983 23.32 59.064 23.2135 59.0086C23.1069 58.9533 23.0169 58.8821 22.9433 58.7951C22.8698 58.7081 22.8171 58.612 22.7852 58.5068C22.7508 58.4013 22.7391 58.2931 22.7501 58.1821C22.7589 58.0933 22.7794 58.0119 22.8117 57.938C22.8439 57.864 22.8839 57.7995 22.9317 57.7444C22.9145 57.7427 22.8984 57.7411 22.8836 57.7397C22.8688 57.7382 22.8528 57.7366 22.8356 57.7349C22.8456 57.6338 22.8557 57.5315 22.866 57.4279C22.8763 57.3244 22.8863 57.2233 22.8961 57.1246C23.1599 57.1508 23.4274 57.1773 23.6986 57.2042C23.9674 57.2309 24.2337 57.2573 24.4975 57.2834ZM24.0046 58.187C24.0149 58.0834 23.991 57.9976 23.933 57.9296C23.8728 57.8589 23.7909 57.8184 23.6873 57.8082C23.5813 57.7976 23.4918 57.8211 23.4189 57.8786C23.3462 57.9337 23.3047 58.013 23.2945 58.1165C23.2837 58.225 23.3084 58.3146 23.3686 58.3853C23.4264 58.4558 23.5095 58.4964 23.618 58.5072C23.724 58.5177 23.8123 58.4941 23.8828 58.4363C23.9532 58.3786 23.9938 58.2954 24.0046 58.187ZM24.8503 56.89C24.404 56.8457 23.954 56.8011 23.5003 56.7561C23.0466 56.7112 22.5966 56.6665 22.1503 56.6223C22.1604 56.5212 22.1705 56.4189 22.1808 56.3153C22.191 56.2118 22.2011 56.1107 22.2108 56.012C22.3563 56.0265 22.5043 56.0411 22.6547 56.056C22.8026 56.0707 22.9493 56.0852 23.0948 56.0997C23.0545 56.0285 23.0261 55.9509 23.0095 55.8671C22.9907 55.7806 22.9861 55.6893 22.9956 55.5931C23.0096 55.4525 23.0538 55.3324 23.1285 55.2328C23.2033 55.1306 23.3041 55.056 23.4308 55.0088C23.5553 54.9589 23.7013 54.9422 23.869 54.9588C24.0613 54.9779 24.2549 54.9971 24.4497 55.0164C24.6445 55.0357 24.838 55.0549 25.0303 55.074C25.0206 55.1726 25.0105 55.2737 25.0003 55.3773C24.99 55.4808 24.9799 55.5832 24.9698 55.6843C24.7923 55.6667 24.6123 55.6488 24.4298 55.6307C24.2474 55.6126 24.0674 55.5948 23.8898 55.5772C23.7912 55.5674 23.71 55.583 23.6462 55.624C23.5801 55.6623 23.5422 55.7307 23.5324 55.8293C23.5227 55.928 23.5434 56.0072 23.5948 56.0671C23.6461 56.1269 23.7248 56.1621 23.8308 56.1726C24.0083 56.1902 24.1883 56.2081 24.3708 56.2262C24.5533 56.2443 24.7333 56.2621 24.9108 56.2797C24.901 56.3784 24.891 56.4794 24.8807 56.583C24.8705 56.6866 24.8603 56.7889 24.8503 56.89ZM24.2063 54.6837C24.1126 54.6744 24.0176 54.665 23.9215 54.6554C23.8229 54.6456 23.7267 54.6361 23.633 54.6268C23.6494 54.4616 23.6659 54.2952 23.6825 54.1275C23.6991 53.9598 23.7156 53.7934 23.732 53.6282C23.8257 53.6375 23.9219 53.647 24.0205 53.6568C24.1167 53.6663 24.2116 53.6758 24.3053 53.685C24.2889 53.8502 24.2724 54.0167 24.2558 54.1844C24.2392 54.352 24.2226 54.5185 24.2063 54.6837ZM25.8449 52.8859C25.8351 52.9845 25.8251 53.0856 25.8148 53.1892C25.8045 53.2927 25.7944 53.395 25.7844 53.4961C25.3726 53.4553 24.9559 53.414 24.5343 53.3722C24.1101 53.3301 23.6922 53.2887 23.2804 53.2479C23.2905 53.1468 23.3006 53.0445 23.3109 52.9409C23.3211 52.8373 23.3312 52.7362 23.3409 52.6376C23.3582 52.6393 23.3755 52.641 23.3927 52.6427C23.41 52.6445 23.4285 52.6463 23.4482 52.6482C23.405 52.5817 23.3737 52.5076 23.3544 52.4261C23.3327 52.3442 23.3262 52.2589 23.335 52.1702C23.3472 52.0469 23.3835 51.9322 23.4438 51.8261C23.5017 51.7198 23.5791 51.6291 23.6762 51.5541C23.7735 51.4766 23.8862 51.4205 24.0141 51.3859C24.1423 51.3488 24.2815 51.3377 24.432 51.3527C24.5799 51.3673 24.7131 51.4054 24.8315 51.467C24.9501 51.526 25.0508 51.6032 25.1334 51.6986C25.2139 51.7912 25.2733 51.8955 25.3116 52.0113C25.3499 52.1272 25.3628 52.248 25.3504 52.3737C25.3416 52.4625 25.3184 52.5448 25.281 52.6208C25.2463 52.6946 25.2 52.7597 25.1421 52.8162C25.258 52.8277 25.3752 52.8393 25.4935 52.851C25.6119 52.8628 25.729 52.8744 25.8449 52.8859ZM24.8023 52.4015C24.8143 52.2807 24.7818 52.1816 24.7048 52.1043C24.6256 52.0242 24.5145 51.9771 24.3715 51.9629C24.2284 51.9487 24.1115 51.9732 24.0205 52.0364C23.9299 52.0972 23.8785 52.1879 23.8666 52.3088C23.8548 52.4271 23.8886 52.5263 23.9678 52.6064C24.0445 52.6862 24.1532 52.7331 24.2937 52.747C24.4343 52.7609 24.5512 52.7364 24.6446 52.6735C24.738 52.6105 24.7906 52.5199 24.8023 52.4015ZM25.42 51.1439C25.1044 51.1126 24.7863 51.0811 24.4658 51.0493C24.1428 51.0173 23.8235 50.9856 23.5078 50.9543C23.5179 50.8532 23.528 50.7509 23.5383 50.6473C23.5485 50.5438 23.5586 50.4427 23.5683 50.3441C23.5856 50.3458 23.6029 50.3475 23.6201 50.3492C23.6374 50.3509 23.6546 50.3526 23.6719 50.3543C23.6252 50.2725 23.5931 50.1822 23.5755 50.0833C23.5579 49.9845 23.5609 49.8789 23.5845 49.7667C23.6831 49.7765 23.783 49.7864 23.8841 49.7965C23.9852 49.8065 24.085 49.8164 24.1837 49.8262C24.1372 50.0183 24.1402 50.1642 24.1925 50.264C24.2424 50.3636 24.3352 50.4201 24.4708 50.4335C24.636 50.4499 24.8037 50.4665 24.9738 50.4834C25.1439 50.5003 25.3128 50.517 25.4805 50.5337C25.4707 50.6323 25.4607 50.7334 25.4504 50.8369C25.4402 50.9405 25.43 51.0428 25.42 51.1439ZM25.6373 48.0481C25.6919 48.2253 25.7196 48.3986 25.7202 48.568C25.7209 48.7374 25.6952 48.8955 25.6433 49.0422C25.5941 49.1867 25.5206 49.3126 25.4229 49.42C25.3251 49.5273 25.2063 49.6077 25.0665 49.661C24.927 49.7119 24.7698 49.7287 24.5947 49.7114C24.4492 49.6969 24.3184 49.6603 24.2022 49.6015C24.0838 49.5399 23.9834 49.4603 23.901 49.3625C23.8161 49.2644 23.755 49.1525 23.7176 49.0268C23.6778 48.9009 23.665 48.7664 23.6792 48.6234C23.6919 48.4951 23.7244 48.3813 23.7765 48.2819C23.8287 48.1825 23.8968 48.0984 23.9808 48.0295C24.0624 47.9604 24.1573 47.9076 24.2655 47.871C24.3737 47.8344 24.49 47.8161 24.6145 47.816C24.7391 47.8159 24.869 47.8362 25.0044 47.877C24.9843 48.0792 24.9642 48.2827 24.9439 48.4873C24.9236 48.692 24.9034 48.8954 24.8834 49.0976C24.9817 49.06 25.056 48.9889 25.1062 48.8844C25.1567 48.7773 25.1819 48.6479 25.1821 48.496C25.1824 48.3416 25.1591 48.175 25.1121 47.996C25.1984 48.0046 25.2859 48.0133 25.3747 48.0221C25.4635 48.0309 25.551 48.0396 25.6373 48.0481ZM24.2251 48.6924C24.218 48.7639 24.2312 48.8325 24.2645 48.898C24.2981 48.9611 24.354 49.0127 24.4322 49.0528C24.4432 48.9419 24.4542 48.8309 24.4652 48.72C24.4764 48.6065 24.4875 48.4943 24.4985 48.3834C24.4118 48.4047 24.3469 48.4431 24.3041 48.4986C24.259 48.5514 24.2327 48.616 24.2251 48.6924ZM25.324 46.0847C25.4769 46.0998 25.5984 46.1554 25.6885 46.2515C25.7763 46.3449 25.8353 46.4653 25.8655 46.6127C25.8957 46.7601 25.8983 46.9222 25.8733 47.099C25.851 47.2736 25.805 47.4495 25.7351 47.6269C25.6414 47.6176 25.5452 47.608 25.4466 47.5983C25.348 47.5885 25.2518 47.5789 25.1581 47.5697C25.2152 47.4707 25.2625 47.3708 25.2999 47.27C25.3348 47.1689 25.3589 47.0766 25.3721 46.9933C25.3854 46.9099 25.3859 46.8415 25.3738 46.788C25.3592 46.7343 25.3297 46.7052 25.2853 46.7008C25.2508 46.6974 25.2215 46.7169 25.1974 46.7593C25.1735 46.7993 25.1507 46.8531 25.1291 46.9206C25.105 46.988 25.0779 47.06 25.0479 47.1367C25.0157 47.2107 24.9752 47.2801 24.9264 47.345C24.8752 47.4096 24.8116 47.4606 24.7357 47.4979C24.6576 47.5325 24.5606 47.544 24.4447 47.5325C24.3066 47.5188 24.1934 47.4678 24.1051 47.3793C24.0145 47.2882 23.9513 47.1724 23.9154 47.0319C23.8771 46.8911 23.8662 46.7369 23.8829 46.5692C23.8995 46.4016 23.9448 46.233 24.0189 46.0636C24.1126 46.0729 24.2088 46.0824 24.3074 46.0922C24.406 46.102 24.5022 46.1115 24.5959 46.1208C24.5156 46.2523 24.4584 46.3773 24.4242 46.4959C24.3901 46.6145 24.3779 46.7117 24.3879 46.7874C24.3953 46.8628 24.4249 46.9031 24.4767 46.9082C24.5112 46.9117 24.5404 46.8934 24.5643 46.8534C24.586 46.8108 24.6075 46.7569 24.6289 46.6918C24.6505 46.6242 24.6775 46.5534 24.7097 46.4794C24.7422 46.403 24.7839 46.3336 24.8349 46.2715C24.8837 46.2066 24.9483 46.157 25.0289 46.1226C25.1073 46.0856 25.2057 46.0729 25.324 46.0847ZM25.4963 44.3473C25.6492 44.3625 25.7706 44.4181 25.8607 44.5142C25.9486 44.6076 26.0076 44.728 26.0378 44.8754C26.068 45.0228 26.0706 45.1849 26.0456 45.3617C26.0233 45.5363 25.9772 45.7122 25.9074 45.8895C25.8137 45.8803 25.7175 45.8707 25.6189 45.8609C25.5202 45.8512 25.4241 45.8416 25.3304 45.8323C25.3875 45.7334 25.4347 45.6335 25.4721 45.5327C25.5071 45.4315 25.5311 45.3393 25.5444 45.256C25.5576 45.1726 25.5582 45.1042 25.5461 45.0507C25.5315 44.997 25.502 44.9679 25.4576 44.9635C25.4231 44.9601 25.3938 44.9796 25.3696 45.022C25.3458 45.062 25.323 45.1157 25.3014 45.1833C25.2772 45.2506 25.2502 45.3227 25.2202 45.3994C25.1879 45.4734 25.1474 45.5428 25.0987 45.6077C25.0474 45.6723 24.9839 45.7233 24.908 45.7606C24.8298 45.7952 24.7328 45.8067 24.6169 45.7952C24.4789 45.7815 24.3657 45.7305 24.2773 45.642C24.1868 45.5509 24.1235 45.435 24.0877 45.2945C24.0493 45.1538 24.0385 44.9996 24.0551 44.8319C24.0717 44.6643 24.1171 44.4957 24.1912 44.3263C24.2848 44.3355 24.381 44.3451 24.4796 44.3549C24.5783 44.3646 24.6744 44.3742 24.7681 44.3835C24.6879 44.5149 24.6306 44.64 24.5965 44.7586C24.5623 44.8772 24.5502 44.9744 24.5601 45.0501C24.5676 45.1255 24.5972 45.1658 24.649 45.1709C24.6835 45.1743 24.7127 45.1561 24.7366 45.1161C24.7582 45.0734 24.7798 45.0196 24.8012 44.9544C24.8228 44.8869 24.8497 44.8161 24.882 44.7421C24.9144 44.6656 24.9562 44.5963 25.0072 44.5341C25.0559 44.4693 25.1206 44.4197 25.2012 44.3853C25.2796 44.3483 25.3779 44.3356 25.4963 44.3473ZM24.3822 42.1356C24.6978 42.1669 25.0171 42.1985 25.3401 42.2306C25.6607 42.2623 25.9788 42.2939 26.2944 42.3252C26.2846 42.4238 26.2746 42.5249 26.2643 42.6284C26.254 42.732 26.2439 42.8343 26.2339 42.9354C26.2166 42.9337 26.2006 42.9321 26.1858 42.9307C26.171 42.9292 26.155 42.9276 26.1377 42.9259C26.1779 42.9971 26.2062 43.0759 26.2226 43.1621C26.2416 43.2462 26.2464 43.3363 26.2369 43.4325C26.2229 43.573 26.1785 43.6944 26.1037 43.7965C26.029 43.8962 25.9283 43.9708 25.8013 44.0205C25.6747 44.0677 25.5287 44.0831 25.3635 44.0667C25.1712 44.0477 24.9776 44.0285 24.7828 44.0091C24.588 43.9898 24.3945 43.9706 24.2022 43.9516C24.2122 43.8505 24.2223 43.7482 24.2326 43.6446C24.2429 43.541 24.2529 43.4399 24.2627 43.3413C24.4402 43.3589 24.6202 43.3768 24.8027 43.3949C24.9851 43.4129 25.1651 43.4308 25.3426 43.4484C25.4413 43.4582 25.5236 43.4439 25.5897 43.4057C25.6535 43.3647 25.6903 43.2949 25.7001 43.1962C25.7098 43.0976 25.6891 43.0184 25.6377 42.9585C25.5864 42.8986 25.5077 42.8634 25.4017 42.8529C25.2242 42.8353 25.0442 42.8175 24.8617 42.7994C24.6792 42.7813 24.4992 42.7634 24.3217 42.7458C24.3317 42.6447 24.3419 42.5424 24.3521 42.4389C24.3624 42.3353 24.3724 42.2342 24.3822 42.1356ZM26.3346 41.9192C26.019 41.8879 25.7009 41.8563 25.3804 41.8246C25.0574 41.7925 24.7381 41.7609 24.4225 41.7296C24.4325 41.6285 24.4426 41.5262 24.4529 41.4226C24.4632 41.319 24.4732 41.2179 24.483 41.1193C24.5002 41.121 24.5175 41.1227 24.5348 41.1244C24.552 41.1262 24.5693 41.1279 24.5865 41.1296C24.5399 41.0478 24.5077 40.9574 24.4901 40.8586C24.4726 40.7597 24.4756 40.6542 24.4991 40.542C24.5978 40.5518 24.6976 40.5617 24.7987 40.5717C24.8998 40.5817 24.9997 40.5916 25.0983 40.6014C25.0519 40.7935 25.0548 40.9395 25.1072 41.0393C25.1571 41.1388 25.2498 41.1953 25.3854 41.2088C25.5506 41.2252 25.7183 41.2418 25.8884 41.2587C26.0586 41.2755 26.2275 41.2923 26.3951 41.3089C26.3854 41.4075 26.3753 41.5086 26.3651 41.6122C26.3548 41.7157 26.3446 41.8181 26.3346 41.9192ZM26.5519 38.8234C26.6066 39.0006 26.6342 39.1739 26.6348 39.3433C26.6355 39.5126 26.6098 39.6707 26.5579 39.8174C26.5088 39.962 26.4353 40.0879 26.3375 40.1952C26.2397 40.3026 26.1209 40.3829 25.9812 40.4363C25.8417 40.4872 25.6844 40.504 25.5093 40.4866C25.3638 40.4722 25.233 40.4356 25.1168 40.3767C24.9984 40.3152 24.898 40.2355 24.8156 40.1377C24.7307 40.0396 24.6696 39.9278 24.6323 39.8021C24.5924 39.6761 24.5796 39.5416 24.5938 39.3986C24.6065 39.2704 24.639 39.1566 24.6912 39.0572C24.7433 38.9578 24.8115 38.8736 24.8955 38.8048C24.977 38.7357 25.0719 38.6828 25.1801 38.6463C25.2883 38.6097 25.4047 38.5913 25.5292 38.5912C25.6537 38.5911 25.7836 38.6115 25.919 38.6523C25.899 38.8545 25.8788 39.0579 25.8585 39.2626C25.8382 39.4672 25.818 39.6706 25.798 39.8728C25.8963 39.8353 25.9706 39.7642 26.0208 39.6596C26.0713 39.5526 26.0966 39.4231 26.0967 39.2712C26.097 39.1169 26.0737 38.9502 26.0267 38.7713C26.113 38.7798 26.2006 38.7885 26.2893 38.7973C26.3781 38.8061 26.4656 38.8148 26.5519 38.8234ZM25.1397 39.4677C25.1327 39.5392 25.1458 39.6077 25.1791 39.6733C25.2127 39.7364 25.2686 39.788 25.3468 39.8281C25.3578 39.7171 25.3688 39.6062 25.3798 39.4952C25.391 39.3818 25.4021 39.2696 25.4132 39.1586C25.3264 39.1799 25.2616 39.2183 25.2187 39.2738C25.1736 39.3266 25.1473 39.3912 25.1397 39.4677ZM25.6253 37.5836C25.396 37.5608 25.1915 37.5144 25.0117 37.4443C24.8321 37.3717 24.6755 37.2815 24.5418 37.1736C24.4081 37.0657 24.298 36.9453 24.2116 36.8122C24.123 36.6764 24.0563 36.5329 24.0115 36.3815C23.9643 36.2299 23.9398 36.0756 23.9379 35.9186C24.0291 35.9276 24.1216 35.9368 24.2153 35.9461C24.309 35.9554 24.4015 35.9645 24.4927 35.9736C24.5177 36.1479 24.5731 36.3052 24.6588 36.4457C24.7447 36.5837 24.8703 36.6982 25.0355 36.7893C25.201 36.8779 25.4182 36.9356 25.6869 36.9622C25.9532 36.9886 26.1775 36.9747 26.3596 36.9206C26.5396 36.8637 26.6852 36.7761 26.7965 36.6577C26.9081 36.5368 26.9933 36.3933 27.0521 36.2273C27.1433 36.2364 27.2358 36.2455 27.3295 36.2548C27.4232 36.2641 27.5157 36.2733 27.6069 36.2823C27.5718 36.4357 27.5174 36.5822 27.4438 36.7218C27.3702 36.8614 27.2766 36.9891 27.163 37.1048C27.0522 37.2183 26.9206 37.3149 26.7683 37.3944C26.616 37.4739 26.4447 37.5316 26.2544 37.5675C26.0643 37.601 25.8547 37.6063 25.6253 37.5836ZM25.651 36.0067C25.4611 35.9879 25.2914 35.9412 25.142 35.8666C24.9903 35.7893 24.862 35.6894 24.7571 35.567C24.6522 35.4446 24.5754 35.3025 24.5267 35.1408C24.478 34.9791 24.4605 34.8043 24.4741 34.6164C24.488 34.4261 24.5376 34.2268 24.623 34.0187C24.7266 34.0289 24.8314 34.0393 24.9374 34.0498C25.041 34.0601 25.1445 34.0704 25.2481 34.0806C25.1646 34.2193 25.1109 34.3596 25.0868 34.5016C25.0628 34.6437 25.0697 34.7751 25.1075 34.8958C25.1453 35.0166 25.2151 35.1169 25.3167 35.1967C25.4159 35.2763 25.5493 35.3243 25.717 35.341C25.8846 35.3576 26.0261 35.3368 26.1415 35.2785C26.2543 35.22 26.3412 35.1352 26.402 35.0242C26.4628 34.9132 26.4954 34.7857 26.4997 34.6417C26.504 34.4977 26.4788 34.3496 26.4242 34.1972C26.5278 34.2075 26.6326 34.2179 26.7386 34.2284C26.8422 34.2387 26.9457 34.2489 27.0493 34.2592C27.0921 34.4801 27.1017 34.6852 27.0779 34.8746C27.0544 35.0615 27.0029 35.2294 26.9234 35.3784C26.8439 35.5274 26.7407 35.6516 26.6138 35.7511C26.4869 35.8506 26.3427 35.9234 26.1813 35.9696C26.0176 36.0132 25.8408 36.0255 25.651 36.0067ZM27.2776 33.0113C27.2634 33.1543 27.2255 33.285 27.164 33.4034C27.1 33.5216 27.0179 33.6218 26.9176 33.7039C26.8148 33.7859 26.6993 33.8466 26.5708 33.8862C26.4427 33.9233 26.3058 33.9346 26.1604 33.9202C26.0149 33.9058 25.883 33.8678 25.7646 33.8063C25.6464 33.7422 25.5462 33.6601 25.4641 33.5598C25.3819 33.4596 25.3222 33.3453 25.2851 33.2172C25.2456 33.0887 25.2329 32.953 25.2471 32.81C25.2615 32.6645 25.3006 32.5339 25.3643 32.4183C25.4259 32.2999 25.5068 32.1996 25.6071 32.1174C25.7073 32.0352 25.8216 31.9756 25.9497 31.9385C26.0782 31.8989 26.2151 31.8864 26.3606 31.9008C26.5061 31.9152 26.6379 31.9544 26.756 32.0184C26.8744 32.08 26.976 32.161 27.0606 32.2615C27.1428 32.3618 27.2037 32.4761 27.2432 32.6046C27.2806 32.7303 27.292 32.8659 27.2776 33.0113ZM26.7265 32.9567C26.7385 32.8359 26.7049 32.7354 26.6257 32.6554C26.5442 32.5726 26.4357 32.5245 26.3001 32.511C26.162 32.4973 26.0474 32.5233 25.9562 32.589C25.8628 32.6519 25.8101 32.7438 25.7982 32.8646C25.7862 32.9855 25.8197 33.0871 25.8986 33.1697C25.9754 33.2495 26.0828 33.2962 26.2209 33.3099C26.3565 33.3234 26.4722 33.2987 26.5681 33.236C26.6617 33.1706 26.7145 33.0775 26.7265 32.9567ZM27.3503 31.6754C26.904 31.6312 26.454 31.5866 26.0003 31.5416C25.5466 31.4966 25.0966 31.452 24.6503 31.4077C24.6603 31.3066 24.6705 31.2043 24.6808 31.1007C24.691 30.9972 24.7011 30.8961 24.7108 30.7975C25.1571 30.8417 25.6071 30.8863 26.0608 30.9313C26.5145 30.9763 26.9645 31.0209 27.4108 31.0652C27.401 31.1638 27.391 31.2649 27.3807 31.3684C27.3705 31.472 27.3603 31.5743 27.3503 31.6754ZM27.602 29.739C27.5879 29.882 27.55 30.0127 27.4885 30.1311C27.4245 30.2492 27.3423 30.3494 27.242 30.4316C27.1393 30.5135 27.0237 30.5743 26.8953 30.6138C26.7671 30.6509 26.6303 30.6623 26.4848 30.6478C26.3393 30.6334 26.2074 30.5954 26.089 30.5339C25.9709 30.4699 25.8707 30.3877 25.7885 30.2875C25.7063 30.1872 25.6467 30.073 25.6096 29.9448C25.57 29.8164 25.5573 29.6807 25.5715 29.5376C25.5859 29.3922 25.625 29.2616 25.6888 29.1459C25.7503 29.0275 25.8312 28.9272 25.9315 28.845C26.0318 28.7628 26.146 28.7032 26.2742 28.6661C26.4026 28.6266 26.5396 28.614 26.685 28.6284C26.8305 28.6428 26.9623 28.682 27.0805 28.7461C27.1989 28.8076 27.3004 28.8886 27.3851 28.9891C27.4672 29.0894 27.5281 29.2038 27.5677 29.3322C27.605 29.4579 27.6165 29.5935 27.602 29.739ZM27.051 29.6843C27.0629 29.5635 27.0293 29.4631 26.9501 29.383C26.8687 29.3002 26.7602 29.2521 26.6245 29.2387C26.4865 29.225 26.3718 29.251 26.2807 29.3166C26.1873 29.3796 26.1346 29.4715 26.1226 29.5923C26.1106 29.7131 26.1441 29.8148 26.2231 29.8973C26.2998 29.9771 26.4072 30.0239 26.5453 30.0376C26.6809 30.051 26.7967 30.0264 26.8925 29.9637C26.9862 29.8983 27.039 29.8051 27.051 29.6843ZM27.6729 28.4215C27.3573 28.3903 27.0392 28.3587 26.7187 28.3269C26.3957 28.2949 26.0764 28.2633 25.7607 28.232C25.7708 28.1309 25.7809 28.0285 25.7912 27.925C25.8014 27.8214 25.8115 27.7203 25.8212 27.6217C25.8385 27.6234 25.8558 27.6251 25.873 27.6268C25.8903 27.6285 25.9075 27.6303 25.9248 27.632C25.8781 27.5501 25.846 27.4598 25.8284 27.361C25.8108 27.2621 25.8138 27.1566 25.8374 27.0444C25.936 27.0542 26.0359 27.0641 26.137 27.0741C26.2381 27.0841 26.3379 27.094 26.4366 27.1038C26.3901 27.2959 26.3931 27.4418 26.4454 27.5417C26.4953 27.6412 26.5881 27.6977 26.7237 27.7112C26.8889 27.7276 27.0566 27.7442 27.2267 27.761C27.3968 27.7779 27.5657 27.7947 27.7334 27.8113C27.7236 27.9099 27.7136 28.011 27.7033 28.1146C27.6931 28.2181 27.6829 28.3205 27.6729 28.4215ZM26.8237 25.4595C27.053 25.4822 27.2574 25.5299 27.437 25.6024C27.6168 25.6726 27.7735 25.7616 27.9073 25.8694C28.041 25.9773 28.1509 26.099 28.2371 26.2345C28.326 26.3679 28.3928 26.5102 28.4375 26.6615C28.4823 26.8129 28.5068 26.9672 28.5111 27.1245C28.4174 27.1152 28.3237 27.1059 28.23 27.0966C28.1388 27.0876 28.0476 27.0785 27.9564 27.0695C27.9315 26.8927 27.8762 26.7353 27.7903 26.5974C27.7044 26.4594 27.5786 26.346 27.4131 26.2574C27.2454 26.1661 27.0284 26.1072 26.7621 26.0808C26.4933 26.0542 26.269 26.0693 26.089 26.1261C25.9094 26.1805 25.7638 26.267 25.6525 26.3854C25.5412 26.5038 25.456 26.6473 25.3969 26.8157C25.3032 26.8064 25.2108 26.7973 25.1195 26.7882C25.0259 26.7789 24.9334 26.7698 24.8422 26.7607C24.8748 26.6071 24.9292 26.4606 25.0052 26.3212C25.0789 26.1816 25.1723 26.0552 25.2856 25.9419C25.3967 25.8259 25.5284 25.7282 25.6807 25.6487C25.833 25.5692 26.0042 25.5127 26.1943 25.4792C26.3846 25.4433 26.5944 25.4367 26.8237 25.4595Z" fill="#2F4ECD"/>
<path d="M31.5949 62.781C31.5844 62.887 31.5737 62.9943 31.563 63.1028C31.5522 63.2112 31.5415 63.3197 31.5307 63.4282C31.1165 63.3872 30.6973 63.3456 30.2732 63.3035C29.8491 63.2615 29.4299 63.2199 29.0157 63.1789C29.0264 63.0704 29.0372 62.9619 29.0479 62.8534C29.0587 62.7449 29.0693 62.6376 29.0798 62.5316C29.2302 62.5465 29.3819 62.5616 29.5348 62.5767C29.6852 62.5916 29.8356 62.6065 29.986 62.6215C29.9989 62.4908 30.012 62.3589 30.0252 62.2257C30.0384 62.0926 30.0514 61.9619 30.0641 61.8337C29.9137 61.8188 29.7633 61.8038 29.6129 61.7889C29.46 61.7738 29.3084 61.7587 29.158 61.7438C29.1687 61.6353 29.1795 61.5268 29.1902 61.4183C29.201 61.3099 29.2116 61.2026 29.2221 61.0966C29.6364 61.1376 30.0555 61.1792 30.4796 61.2213C30.9037 61.2633 31.3229 61.3049 31.7372 61.3459C31.7266 61.452 31.716 61.5592 31.7052 61.6677C31.6945 61.7762 31.6837 61.8847 31.673 61.9932C31.5053 61.9766 31.3364 61.9598 31.1663 61.9429C30.9937 61.9258 30.8248 61.9091 30.6596 61.8927C30.6469 62.0209 30.6339 62.1516 30.6207 62.2848C30.6075 62.4179 30.5944 62.5498 30.5815 62.6805C30.7467 62.6969 30.9156 62.7136 31.0882 62.7307C31.2583 62.7476 31.4272 62.7644 31.5949 62.781ZM31.9303 60.0005C31.9161 60.1435 31.8783 60.2742 31.8167 60.3926C31.7527 60.5108 31.6706 60.6109 31.5703 60.6931C31.4676 60.7751 31.352 60.8358 31.2236 60.8754C31.0954 60.9125 30.9586 60.9238 30.8131 60.9094C30.6676 60.8949 30.5357 60.857 30.4173 60.7954C30.2991 60.7314 30.199 60.6493 30.1168 60.549C30.0346 60.4487 29.975 60.3345 29.9379 60.2063C29.8983 60.0779 29.8856 59.9422 29.8998 59.7992C29.9142 59.6537 29.9533 59.5231 30.0171 59.4074C30.0786 59.289 30.1595 59.1887 30.2598 59.1066C30.3601 59.0244 30.4743 58.9647 30.6025 58.9276C30.7309 58.8881 30.8678 58.8755 31.0133 58.8899C31.1588 58.9044 31.2906 58.9436 31.4088 59.0076C31.5272 59.0691 31.6287 59.1501 31.7133 59.2507C31.7955 59.3509 31.8564 59.4653 31.8959 59.5937C31.9333 59.7194 31.9447 59.855 31.9303 60.0005ZM31.3792 59.9459C31.3912 59.825 31.3576 59.7246 31.2784 59.6445C31.1969 59.5618 31.0884 59.5137 30.9528 59.5002C30.8147 59.4865 30.7001 59.5125 30.6089 59.5782C30.5155 59.6411 30.4629 59.733 30.4509 59.8538C30.4389 59.9746 30.4724 60.0763 30.5514 60.1588C30.6281 60.2387 30.7355 60.2854 30.8736 60.2991C31.0092 60.3125 31.1249 60.2879 31.2208 60.2252C31.3144 60.1598 31.3672 60.0667 31.3792 59.9459ZM32.6534 58.1315C32.6437 58.2301 32.6336 58.3312 32.6234 58.4348C32.6131 58.5383 32.603 58.6407 32.5929 58.7418C32.1812 58.7009 31.7645 58.6596 31.3428 58.6178C30.9187 58.5758 30.5008 58.5343 30.089 58.4935C30.099 58.3924 30.1092 58.2901 30.1194 58.1865C30.1297 58.083 30.1397 57.9819 30.1495 57.8832C30.1668 57.8849 30.184 57.8867 30.2013 57.8884C30.2186 57.8901 30.2371 57.8919 30.2568 57.8939C30.2136 57.8273 30.1823 57.7533 30.163 57.6717C30.1413 57.5898 30.1348 57.5045 30.1436 57.4158C30.1558 57.2925 30.1921 57.1778 30.2524 57.0717C30.3102 56.9654 30.3877 56.8748 30.4848 56.7997C30.5821 56.7222 30.6947 56.6662 30.8227 56.6315C30.9508 56.5944 31.0901 56.5834 31.2405 56.5983C31.3885 56.6129 31.5216 56.651 31.64 56.7126C31.7587 56.7717 31.8593 56.8489 31.942 56.9442C32.0225 57.0368 32.0819 57.1411 32.1202 57.2569C32.1585 57.3728 32.1714 57.4936 32.1589 57.6193C32.1501 57.7081 32.127 57.7905 32.0896 57.8664C32.0549 57.9402 32.0086 58.0053 31.9507 58.0618C32.0666 58.0733 32.1837 58.0849 32.3021 58.0967C32.4204 58.1084 32.5376 58.12 32.6534 58.1315ZM31.6109 57.6472C31.6229 57.5263 31.5903 57.4273 31.5134 57.3499C31.4341 57.2698 31.323 57.2227 31.18 57.2085C31.037 57.1944 30.92 57.2189 30.8291 57.2821C30.7384 57.3428 30.6871 57.4336 30.6751 57.5544C30.6634 57.6727 30.6971 57.7719 30.7763 57.852C30.8531 57.9318 30.9617 57.9787 31.1023 57.9926C31.2428 58.0066 31.3598 57.9821 31.4532 57.9191C31.5466 57.8562 31.5991 57.7655 31.6109 57.6472ZM32.303 54.7349C32.3576 54.9121 32.3853 55.0854 32.3859 55.2548C32.3865 55.4242 32.3609 55.5822 32.309 55.729C32.2598 55.8735 32.1863 55.9994 32.0885 56.1067C31.9908 56.2141 31.872 56.2944 31.7322 56.3478C31.5927 56.3987 31.4354 56.4155 31.2604 56.3981C31.1149 56.3837 30.9841 56.3471 30.8679 56.2882C30.7495 56.2267 30.6491 56.147 30.5667 56.0492C30.4818 55.9512 30.4206 55.8393 30.3833 55.7136C30.3435 55.5876 30.3307 55.4531 30.3449 55.3101C30.3576 55.1819 30.39 55.0681 30.4422 54.9687C30.4944 54.8693 30.5625 54.7852 30.6465 54.7163C30.7281 54.6472 30.823 54.5943 30.9312 54.5578C31.0394 54.5212 31.1557 54.5028 31.2802 54.5027C31.4047 54.5026 31.5347 54.523 31.6701 54.5638C31.65 54.766 31.6299 54.9694 31.6096 55.1741C31.5893 55.3787 31.5691 55.5821 31.5491 55.7843C31.6474 55.7468 31.7217 55.6757 31.7719 55.5711C31.8223 55.4641 31.8476 55.3346 31.8477 55.1827C31.8481 55.0284 31.8248 54.8618 31.7778 54.6828C31.8641 54.6914 31.9516 54.7 32.0404 54.7088C32.1292 54.7176 32.2167 54.7263 32.303 54.7349ZM30.8908 55.3792C30.8837 55.4507 30.8968 55.5192 30.9302 55.5848C30.9638 55.6479 31.0196 55.6995 31.0978 55.7396C31.1088 55.6286 31.1198 55.5177 31.1308 55.4067C31.1421 55.2933 31.1532 55.1811 31.1642 55.0702C31.0774 55.0914 31.0126 55.1298 30.9698 55.1853C30.9247 55.2381 30.8984 55.3027 30.8908 55.3792ZM31.0602 54.2736C30.9689 54.2646 30.8777 54.2555 30.7865 54.2465C30.6952 54.2375 30.604 54.2284 30.5128 54.2194C30.5177 54.17 30.5226 54.1207 30.5275 54.0714C30.5326 54.0196 30.5376 53.9691 30.5425 53.9198C30.5302 53.9186 30.5191 53.9175 30.5092 53.9165C30.4993 53.9155 30.4895 53.9145 30.4796 53.9135C30.3144 53.8972 30.1796 53.8502 30.0753 53.7726C29.9687 53.6923 29.8913 53.5938 29.8431 53.4769C29.7927 53.3574 29.7705 53.2307 29.7763 53.0968C29.7798 52.9602 29.8104 52.8276 29.868 52.6988C29.9592 52.7079 30.0529 52.7171 30.1491 52.7267C30.2453 52.7362 30.3402 52.7456 30.4339 52.7549C30.3699 52.898 30.3476 53.0227 30.3669 53.1292C30.3862 53.2357 30.4452 53.2939 30.5438 53.3036C30.5537 53.3046 30.5635 53.3056 30.5734 53.3066C30.5833 53.3076 30.5931 53.3085 30.603 53.3095C30.6106 53.2331 30.6182 53.1566 30.6257 53.0802C30.6333 53.0038 30.6409 52.9273 30.6485 52.8509C30.7397 52.8599 30.8309 52.869 30.9222 52.878C31.0134 52.8871 31.1046 52.8961 31.1959 52.9052C31.1883 52.9816 31.1807 53.058 31.1731 53.1345C31.1655 53.2109 31.158 53.2873 31.1504 53.3638C31.3748 53.386 31.6016 53.4085 31.8309 53.4313C32.0602 53.454 32.2883 53.4766 32.5152 53.4991C32.5054 53.5977 32.4954 53.6988 32.4851 53.8024C32.4748 53.9059 32.4647 54.0083 32.4547 54.1094C32.2278 54.0869 31.9997 54.0643 31.7704 54.0415C31.5411 54.0188 31.3143 53.9963 31.0899 53.974C31.085 54.0234 31.08 54.0739 31.0748 54.1257C31.07 54.175 31.0651 54.2243 31.0602 54.2736ZM30.8567 50.7511C31.1723 50.7824 31.4916 50.814 31.8146 50.8461C32.1351 50.8778 32.4532 50.9094 32.7688 50.9407C32.759 51.0393 32.749 51.1404 32.7388 51.244C32.7285 51.3475 32.7183 51.4498 32.7083 51.5509C32.6911 51.5492 32.675 51.5476 32.6602 51.5462C32.6454 51.5447 32.6294 51.5431 32.6122 51.5414C32.6524 51.6126 32.6807 51.6914 32.697 51.7777C32.7161 51.8617 32.7209 51.9518 32.7113 52.048C32.6974 52.1885 32.653 52.3099 32.5781 52.412C32.5035 52.5117 32.4027 52.5863 32.2758 52.636C32.1491 52.6832 32.0032 52.6986 31.838 52.6822C31.6456 52.6632 31.4521 52.644 31.2573 52.6247C31.0625 52.6053 30.8689 52.5862 30.6766 52.5671C30.6866 52.466 30.6968 52.3637 30.707 52.2601C30.7173 52.1565 30.7273 52.0554 30.7371 51.9568C30.9146 51.9744 31.0946 51.9923 31.2771 52.0104C31.4596 52.0284 31.6396 52.0463 31.8171 52.0639C31.9157 52.0737 31.9981 52.0594 32.0641 52.0212C32.1279 51.9802 32.1647 51.9104 32.1745 51.8117C32.1843 51.7131 32.1635 51.6339 32.1122 51.574C32.0608 51.5141 31.9822 51.4789 31.8761 51.4684C31.6986 51.4508 31.5186 51.433 31.3361 51.4149C31.1537 51.3968 30.9737 51.379 30.7962 51.3613C30.8062 51.2603 30.8163 51.1579 30.8266 51.0544C30.8369 50.9508 30.8469 50.8497 30.8567 50.7511ZM32.8109 50.5162C32.3646 50.4719 31.9146 50.4273 31.4609 50.3823C31.0072 50.3373 30.5572 50.2927 30.111 50.2485C30.121 50.1474 30.1311 50.0451 30.1414 49.9415C30.1517 49.8379 30.1617 49.7368 30.1715 49.6382C30.6178 49.6825 31.0677 49.7271 31.5214 49.7721C31.9751 49.817 32.4251 49.8617 32.8714 49.9059C32.8616 50.0045 32.8516 50.1056 32.8413 50.2092C32.8311 50.3128 32.8209 50.4151 32.8109 50.5162ZM32.4302 46.7841C32.5954 46.8005 32.7343 46.8566 32.8468 46.9524C32.9595 47.0458 33.042 47.1685 33.0941 47.3206C33.1438 47.4724 33.1591 47.6445 33.1401 47.8368C33.1222 48.0168 33.078 48.1743 33.0073 48.3092C32.9345 48.4414 32.8397 48.5428 32.7232 48.6134C32.6044 48.6813 32.4698 48.7078 32.3194 48.6929C32.1961 48.6807 32.0854 48.6423 31.9872 48.5778C31.8893 48.5108 31.8089 48.417 31.7462 48.2962C31.6681 48.3806 31.5813 48.4405 31.4856 48.4758C31.3878 48.5084 31.2834 48.5192 31.1724 48.5082C31.0097 48.4921 30.8783 48.4355 30.7784 48.3384C30.6787 48.2389 30.6091 48.1125 30.5695 47.9592C30.5299 47.8059 30.5178 47.6391 30.5332 47.4588C30.5461 47.2783 30.5852 47.098 30.6504 46.9177C30.749 46.9275 30.8488 46.9374 30.9499 46.9474C31.051 46.9574 31.1521 46.9674 31.2532 46.9774C31.2134 47.0781 31.182 47.1808 31.1592 47.2856C31.1366 47.3879 31.1259 47.4827 31.1272 47.57C31.1285 47.6573 31.1425 47.7296 31.1692 47.7871C31.1961 47.842 31.2392 47.8724 31.2984 47.8783C31.3748 47.8859 31.4329 47.8394 31.4728 47.7387C31.5102 47.6379 31.5379 47.4962 31.556 47.3137C31.5116 47.3093 31.4673 47.3049 31.4229 47.3005C31.376 47.2959 31.3304 47.2914 31.286 47.287C31.2961 47.1859 31.3062 47.0835 31.3165 46.98C31.3267 46.8764 31.3368 46.7753 31.3465 46.6767C31.3909 46.6811 31.4365 46.6856 31.4834 46.6903C31.5278 46.6947 31.5721 46.6991 31.6165 46.7035C31.6202 46.6665 31.624 46.6283 31.6279 46.5888C31.6318 46.5494 31.6356 46.5111 31.6393 46.4742C31.7305 46.4832 31.8217 46.4923 31.913 46.5013C32.0042 46.5103 32.0954 46.5194 32.1867 46.5284C32.183 46.5654 32.1792 46.6036 32.1753 46.6431C32.1714 46.6825 32.1676 46.7208 32.1639 46.7577C32.2083 46.7621 32.2527 46.7665 32.2971 46.7709C32.3415 46.7753 32.3858 46.7797 32.4302 46.7841ZM32.2911 48.0365C32.3626 48.0436 32.4256 48.0237 32.48 47.9768C32.5323 47.9272 32.5631 47.8543 32.5727 47.7581C32.5829 47.6546 32.5665 47.5695 32.5233 47.503C32.4776 47.4362 32.4092 47.3983 32.3179 47.3893C32.2834 47.3859 32.2477 47.3823 32.2107 47.3786C32.1737 47.375 32.1379 47.3714 32.1034 47.368C32.0834 47.5702 32.0825 47.7295 32.1009 47.8458C32.1192 47.9622 32.1826 48.0257 32.2911 48.0365ZM33.3745 43.9281C33.4291 44.1053 33.4567 44.2786 33.4574 44.448C33.458 44.6174 33.4324 44.7755 33.3805 44.9222C33.3313 45.0667 33.2578 45.1926 33.16 45.3C33.0622 45.4073 32.9435 45.4877 32.8037 45.541C32.6642 45.5919 32.5069 45.6087 32.3319 45.5914C32.1864 45.5769 32.0556 45.5403 31.9394 45.4815C31.821 45.4199 31.7206 45.3403 31.6381 45.2425C31.5532 45.1444 31.4921 45.0325 31.4548 44.9068C31.415 44.7809 31.4022 44.6464 31.4164 44.5034C31.4291 44.3751 31.4615 44.2613 31.5137 44.1619C31.5659 44.0625 31.634 43.9784 31.718 43.9095C31.7996 43.8404 31.8944 43.7876 32.0026 43.751C32.1108 43.7144 32.2272 43.6961 32.3517 43.696C32.4762 43.6959 32.6062 43.7162 32.7416 43.757C32.7215 43.9592 32.7013 44.1627 32.681 44.3673C32.6608 44.572 32.6406 44.7754 32.6205 44.9776C32.7189 44.94 32.7932 44.8689 32.8434 44.7644C32.8938 44.6573 32.9191 44.5279 32.9192 44.376C32.9196 44.2216 32.8963 44.055 32.8493 43.876C32.9356 43.8846 33.0231 43.8933 33.1119 43.9021C33.2006 43.9109 33.2882 43.9196 33.3745 43.9281ZM31.9623 44.5724C31.9552 44.6439 31.9683 44.7125 32.0017 44.778C32.0352 44.8411 32.0911 44.8927 32.1693 44.9328C32.1803 44.8219 32.1913 44.7109 32.2023 44.6C32.2136 44.4865 32.2247 44.3743 32.2357 44.2634C32.1489 44.2847 32.0841 44.3231 32.0413 44.3786C31.9962 44.4314 31.9699 44.496 31.9623 44.5724ZM31.577 43.4861C31.5882 43.3727 31.5995 43.2593 31.6107 43.1459C31.622 43.0324 31.6332 42.919 31.6444 42.8056C31.7228 42.7686 31.8025 42.7304 31.8836 42.6911C31.9622 42.6516 32.0407 42.6133 32.1191 42.5763C32.0498 42.5221 31.9805 42.4679 31.9111 42.4137C31.8393 42.3593 31.7688 42.305 31.6995 42.2508C31.7105 42.1399 31.7216 42.0277 31.7328 41.9142C31.7441 41.8008 31.7552 41.6886 31.7662 41.5777C31.9071 41.6888 32.0489 41.8024 32.1918 41.9187C32.3349 42.0325 32.4781 42.145 32.6214 42.2563C32.7967 42.1716 32.9732 42.0858 33.1512 41.9989C33.3291 41.9119 33.5056 41.8273 33.6806 41.7451C33.6693 41.8585 33.6581 41.9719 33.6468 42.0853C33.6356 42.1988 33.6243 42.3122 33.6131 42.4256C33.5244 42.4666 33.4355 42.5088 33.3465 42.5523C33.2554 42.5931 33.1654 42.634 33.0767 42.675C33.1556 42.7326 33.2356 42.7928 33.3165 42.8556C33.3952 42.9157 33.474 42.9746 33.5529 43.0322C33.5419 43.1431 33.5308 43.2553 33.5196 43.3687C33.5083 43.4822 33.4972 43.5944 33.4862 43.7053C33.336 43.5883 33.1834 43.4699 33.0284 43.3499C32.871 43.2297 32.7172 43.1112 32.567 42.9942C32.4045 43.0752 32.2395 43.1572 32.072 43.2402C31.9044 43.3231 31.7394 43.4051 31.577 43.4861ZM32.7272 41.6038C32.5398 41.5853 32.3796 41.5308 32.2467 41.4404C32.1112 41.3498 32.0071 41.2324 31.9342 41.0882C31.8614 40.9441 31.8253 40.7811 31.8258 40.5994C31.824 40.4175 31.864 40.2272 31.9459 40.0287C32.0396 40.038 32.1346 40.0474 32.2307 40.0569C32.3269 40.0664 32.4218 40.0758 32.5155 40.0851C32.4323 40.2213 32.3867 40.355 32.3786 40.4861C32.3706 40.6173 32.4007 40.7286 32.4688 40.82C32.5344 40.9112 32.6412 40.9641 32.7892 40.9788C32.9371 40.9934 33.0535 40.9627 33.1382 40.8864C33.2205 40.8099 33.2706 40.7065 33.2885 40.5764C33.3039 40.4459 33.2854 40.3059 33.233 40.1563C33.3267 40.1656 33.4217 40.175 33.5178 40.1845C33.614 40.1941 33.7089 40.2035 33.8026 40.2128C33.844 40.4235 33.8458 40.6179 33.8083 40.796C33.7732 40.9742 33.7057 41.1269 33.606 41.254C33.5063 41.381 33.3823 41.4758 33.2342 41.5383C33.0836 41.6006 32.9146 41.6224 32.7272 41.6038ZM31.7717 39.2996C31.7646 39.3711 31.7409 39.4347 31.7005 39.4905C31.6603 39.5437 31.6102 39.5848 31.5501 39.6137C31.4899 39.6426 31.4254 39.6537 31.3563 39.6468C31.2873 39.64 31.2273 39.6166 31.1765 39.5767C31.1232 39.5366 31.0821 39.4864 31.0532 39.4263C31.0246 39.3637 31.0138 39.2966 31.0209 39.2251C31.0277 39.1561 31.0512 39.0949 31.0914 39.0416C31.1318 38.9859 31.182 38.9436 31.2422 38.9147C31.2998 38.8855 31.3632 38.8744 31.4322 38.8812C31.5013 38.8881 31.5624 38.9115 31.6157 38.9517C31.669 38.9918 31.71 39.0432 31.7386 39.1058C31.7675 39.1659 31.7786 39.2305 31.7717 39.2996ZM33.8716 39.8178C33.556 39.7865 33.238 39.7549 32.9174 39.7232C32.5944 39.6911 32.2751 39.6595 31.9595 39.6282C31.9695 39.5271 31.9797 39.4248 31.9899 39.3212C32.0002 39.2176 32.0102 39.1165 32.02 39.0179C32.3356 39.0492 32.6549 39.0809 32.9779 39.1129C33.2985 39.1447 33.6165 39.1762 33.9322 39.2075C33.9224 39.3061 33.9124 39.4072 33.9021 39.5108C33.8918 39.6144 33.8817 39.7167 33.8716 39.8178ZM33.9942 38.5819C33.7673 38.5594 33.5393 38.5368 33.31 38.514C33.0806 38.4913 32.8538 38.4688 32.6294 38.4466C32.6245 38.4959 32.6195 38.5464 32.6144 38.5982C32.6095 38.6475 32.6046 38.6968 32.5997 38.7461C32.5085 38.7371 32.4172 38.7281 32.326 38.719C32.2348 38.71 32.1436 38.7009 32.0523 38.6919C32.0572 38.6426 32.0621 38.5932 32.067 38.5439C32.0721 38.4921 32.0771 38.4416 32.082 38.3923C31.9957 38.3837 31.9107 38.3753 31.8268 38.367C31.7405 38.3584 31.6555 38.35 31.5716 38.3417C31.5816 38.2406 31.5918 38.1383 31.6021 38.0347C31.6123 37.9311 31.6224 37.83 31.6321 37.7314C31.716 37.7397 31.801 37.7482 31.8873 37.7567C31.9712 37.765 32.0562 37.7735 32.1425 37.782C32.1482 37.7253 32.1539 37.6674 32.1598 37.6082C32.1656 37.549 32.1714 37.4911 32.177 37.4344C32.2682 37.4434 32.3595 37.4524 32.4507 37.4615C32.5419 37.4705 32.6332 37.4796 32.7244 37.4886C32.7188 37.5453 32.713 37.6033 32.7072 37.6625C32.7013 37.7216 32.6955 37.7796 32.6899 37.8363C32.9143 37.8585 33.1411 37.881 33.3705 37.9038C33.5998 37.9265 33.8278 37.9491 34.0547 37.9716C34.0449 38.0702 34.0349 38.1713 34.0246 38.2749C34.0144 38.3785 34.0042 38.4808 33.9942 38.5819ZM34.191 35.693C34.2456 35.8702 34.2732 36.0435 34.2739 36.2129C34.2745 36.3823 34.2489 36.5404 34.197 36.6871C34.1478 36.8316 34.0743 36.9575 33.9765 37.0649C33.8787 37.1722 33.76 37.2526 33.6202 37.3059C33.4807 37.3568 33.3234 37.3736 33.1484 37.3563C33.0029 37.3418 32.8721 37.3052 32.7559 37.2464C32.6375 37.1848 32.5371 37.1052 32.4546 37.0074C32.3697 36.9093 32.3086 36.7974 32.2713 36.6717C32.2315 36.5458 32.2187 36.4113 32.2329 36.2683C32.2456 36.14 32.278 36.0262 32.3302 35.9268C32.3824 35.8274 32.4505 35.7433 32.5345 35.6744C32.6161 35.6053 32.7109 35.5525 32.8191 35.5159C32.9273 35.4793 33.0437 35.461 33.1682 35.4609C33.2927 35.4608 33.4227 35.4811 33.5581 35.5219C33.538 35.7241 33.5178 35.9276 33.4976 36.1322C33.4773 36.3369 33.4571 36.5403 33.437 36.7425C33.5354 36.7049 33.6097 36.6338 33.6599 36.5293C33.7103 36.4222 33.7356 36.2928 33.7357 36.1409C33.7361 35.9865 33.7128 35.8199 33.6658 35.6409C33.7521 35.6495 33.8396 35.6582 33.9284 35.667C34.0171 35.6758 34.1047 35.6845 34.191 35.693ZM32.7788 36.3373C32.7717 36.4088 32.7848 36.4774 32.8182 36.5429C32.8517 36.606 32.9076 36.6576 32.9858 36.6977C32.9968 36.5868 33.0078 36.4758 33.0188 36.3649C33.0301 36.2514 33.0412 36.1393 33.0522 36.0283C32.9654 36.0496 32.9006 36.088 32.8578 36.1435C32.8127 36.1963 32.7864 36.2609 32.7788 36.3373ZM34.4511 33.9732C34.4314 33.9712 34.4129 33.9694 34.3957 33.9677C34.3759 33.9657 34.3574 33.9639 34.3402 33.9622C34.3858 34.0289 34.4183 34.1031 34.4376 34.1847C34.4596 34.2641 34.4662 34.3482 34.4574 34.4369C34.445 34.5627 34.4086 34.6786 34.3483 34.7847C34.288 34.8907 34.2091 34.9825 34.1118 35.06C34.0123 35.1348 33.8984 35.1907 33.7702 35.2278C33.6423 35.2624 33.5044 35.2724 33.3564 35.2578C33.206 35.2428 33.0715 35.2058 32.9528 35.1468C32.8345 35.0852 32.735 35.0082 32.6546 34.9155C32.5744 34.8204 32.5163 34.7151 32.4805 34.5995C32.4422 34.4836 32.4291 34.364 32.4414 34.2408C32.4502 34.152 32.4733 34.0696 32.5107 33.9937C32.5456 33.9174 32.5908 33.851 32.6462 33.7942C32.4983 33.7795 32.3491 33.7648 32.1987 33.7498C32.0483 33.7349 31.8991 33.7201 31.7512 33.7055C31.7612 33.6044 31.7713 33.502 31.7816 33.3985C31.7919 33.2949 31.8019 33.1938 31.8117 33.0952C32.258 33.1395 32.708 33.1841 33.1617 33.2291C33.6154 33.274 34.0653 33.3187 34.5116 33.3629C34.5019 33.4615 34.4918 33.5626 34.4816 33.6662C34.4713 33.7697 34.4612 33.8721 34.4511 33.9732ZM33.9255 34.302C33.9373 34.1837 33.9035 34.0845 33.8243 34.0044C33.7451 33.9243 33.6352 33.8773 33.4947 33.8634C33.3541 33.8495 33.2384 33.8741 33.1475 33.9373C33.0541 34.0002 33.0015 34.0909 32.9898 34.2092C32.9778 34.3301 33.0102 34.4304 33.0869 34.5102C33.1639 34.5875 33.2739 34.6333 33.4169 34.6475C33.5599 34.6617 33.678 34.6385 33.7712 34.578C33.8621 34.5148 33.9135 34.4228 33.9255 34.302Z" fill="#2F4ECD"/>
<path d="M39.0989 62.9912C39.0811 63.1712 39.0325 63.3344 38.9533 63.4809C38.8715 63.6272 38.766 63.75 38.6366 63.8492C38.5073 63.9484 38.3594 64.0209 38.193 64.0666C38.0242 64.1122 37.8448 64.1255 37.655 64.1067C37.4651 64.0878 37.2931 64.0397 37.1389 63.9621C36.9848 63.8846 36.8553 63.7846 36.7504 63.6622C36.643 63.5395 36.5649 63.3985 36.5159 63.2393C36.4645 63.0798 36.4477 62.9101 36.4656 62.7301C36.4834 62.5501 36.5331 62.3882 36.6146 62.2444C36.6938 62.0978 36.7981 61.975 36.9275 61.8758C37.0546 61.7738 37.2014 61.7 37.3678 61.6542C37.5341 61.6085 37.7123 61.595 37.9021 61.6138C38.092 61.6327 38.2652 61.681 38.4219 61.7587C38.576 61.8363 38.7066 61.9376 38.8138 62.0628C38.9211 62.1855 39.0005 62.3265 39.0519 62.486C39.1011 62.6428 39.1168 62.8112 39.0989 62.9912ZM38.4998 62.9318C38.5117 62.8109 38.4924 62.7044 38.4418 62.6123C38.3887 62.5199 38.3103 62.4449 38.2064 62.3873C38.1028 62.3272 37.9795 62.2901 37.8365 62.2759C37.6935 62.2617 37.5665 62.274 37.4556 62.3128C37.3449 62.3491 37.2557 62.4075 37.188 62.488C37.1178 62.5682 37.0767 62.6687 37.0647 62.7895C37.053 62.9078 37.0723 63.0143 37.1227 63.109C37.1733 63.2011 37.2504 63.2772 37.354 63.3373C37.4554 63.3947 37.5776 63.4304 37.7206 63.4446C37.8636 63.4588 37.9917 63.4478 38.1048 63.4118C38.2182 63.3732 38.31 63.3138 38.3802 63.2336C38.4482 63.1507 38.488 63.0501 38.4998 62.9318ZM39.195 61.4196C38.8794 61.3883 38.5613 61.3568 38.2408 61.325C37.9178 61.293 37.5984 61.2613 37.2828 61.23C37.2929 61.1289 37.303 61.0266 37.3133 60.923C37.3235 60.8195 37.3336 60.7184 37.3433 60.6197C37.3606 60.6214 37.3779 60.6232 37.3951 60.6249C37.4124 60.6266 37.4296 60.6283 37.4469 60.63C37.4002 60.5482 37.3681 60.4579 37.3505 60.359C37.3329 60.2602 37.3359 60.1546 37.3595 60.0424C37.4581 60.0522 37.558 60.0621 37.6591 60.0721C37.7602 60.0822 37.86 60.0921 37.9587 60.1018C37.9122 60.2939 37.9152 60.4399 37.9675 60.5397C38.0174 60.6393 38.1102 60.6958 38.2458 60.7092C38.411 60.7256 38.5787 60.7422 38.7488 60.7591C38.9189 60.776 39.0878 60.7927 39.2555 60.8093C39.2457 60.908 39.2357 61.009 39.2254 61.1126C39.2152 61.2162 39.205 61.3185 39.195 61.4196ZM39.4644 58.7024C39.4447 58.7005 39.4262 58.6987 39.4089 58.6969C39.3892 58.695 39.3707 58.6932 39.3534 58.6914C39.3991 58.7582 39.4316 58.8324 39.4509 58.914C39.4729 58.9934 39.4795 59.0774 39.4707 59.1662C39.4582 59.2919 39.4231 59.408 39.3652 59.5143C39.3049 59.6204 39.2261 59.7121 39.1288 59.7896C39.0292 59.8644 38.9154 59.9204 38.7872 59.9575C38.6593 59.9921 38.5201 60.0019 38.3697 59.987C38.2168 59.9719 38.0811 59.9348 37.9624 59.8757C37.844 59.8141 37.7458 59.7372 37.6678 59.6448C37.5876 59.5497 37.5296 59.4443 37.4938 59.3287C37.4554 59.2129 37.4424 59.0933 37.4546 58.97C37.4634 58.8813 37.4865 58.7989 37.5239 58.7229C37.5589 58.6467 37.6041 58.5802 37.6595 58.5235C37.6398 58.5215 37.6213 58.5197 37.604 58.518C37.5868 58.5163 37.5695 58.5146 37.5522 58.5129C37.5623 58.4118 37.5724 58.3094 37.5827 58.2059C37.5929 58.1023 37.603 58.0012 37.6127 57.9026C37.9284 57.9339 38.2477 57.9655 38.5707 57.9976C38.8912 58.0293 39.2093 58.0609 39.5249 58.0922C39.5151 58.1908 39.5051 58.2919 39.4948 58.3955C39.4846 58.499 39.4744 58.6013 39.4644 58.7024ZM38.9388 59.0313C38.9505 58.9129 38.9168 58.8137 38.8376 58.7337C38.7584 58.6536 38.6485 58.6066 38.5079 58.5927C38.3674 58.5787 38.2517 58.6034 38.1607 58.6666C38.0673 58.7295 38.0148 58.8202 38.003 58.9385C37.9911 59.0593 38.0234 59.1597 38.1002 59.2395C38.1772 59.3168 38.2872 59.3626 38.4302 59.3768C38.5732 59.3909 38.6913 59.3678 38.7844 59.3073C38.8754 59.2441 38.9268 59.1521 38.9388 59.0313ZM39.5653 57.6849C39.2497 57.6536 38.9316 57.6221 38.6111 57.5903C38.288 57.5583 37.9687 57.5266 37.6531 57.4953C37.6631 57.3942 37.6733 57.2919 37.6836 57.1883C37.6938 57.0848 37.7039 56.9837 37.7136 56.885C37.7309 56.8868 37.7469 56.8883 37.7617 56.8898C37.7765 56.8913 37.7925 56.8929 37.8098 56.8946C37.7695 56.8234 37.7411 56.7458 37.7245 56.662C37.7057 56.5755 37.7011 56.4842 37.7106 56.388C37.7246 56.2475 37.7688 56.1274 37.8435 56.0277C37.9183 55.9255 38.0191 55.8509 38.1458 55.8037C38.2703 55.7538 38.4163 55.7371 38.584 55.7538C38.7763 55.7728 38.9699 55.792 39.1647 55.8113C39.3595 55.8306 39.553 55.8498 39.7453 55.8689C39.7356 55.9675 39.7255 56.0686 39.7153 56.1722C39.705 56.2757 39.6949 56.3781 39.6848 56.4792C39.5073 56.4616 39.3273 56.4437 39.1448 56.4256C38.9624 56.4075 38.7824 56.3897 38.6049 56.3721C38.5062 56.3623 38.425 56.3779 38.3612 56.4189C38.2951 56.4572 38.2572 56.5256 38.2474 56.6242C38.2377 56.7229 38.2584 56.8021 38.3098 56.862C38.3611 56.9219 38.4398 56.957 38.5458 56.9676C38.7233 56.9852 38.9033 57.003 39.0858 57.0211C39.2683 57.0392 39.4483 57.057 39.6258 57.0746C39.616 57.1733 39.606 57.2744 39.5957 57.3779C39.5855 57.4815 39.5753 57.5838 39.5653 57.6849ZM39.6502 53.6642C39.8598 53.685 40.0303 53.7479 40.1618 53.8531C40.2936 53.9558 40.3863 54.0882 40.4399 54.2504C40.496 54.4129 40.5154 54.5941 40.4981 54.794C40.481 54.9915 40.4307 55.1969 40.3473 55.4103C40.2512 55.4007 40.1538 55.3911 40.0551 55.3813C39.959 55.3718 39.8628 55.3622 39.7666 55.3527C39.8624 55.1655 39.9181 54.993 39.9337 54.8352C39.9518 54.6776 39.9346 54.5502 39.882 54.4528C39.8272 54.3528 39.7443 54.2972 39.6333 54.2862C39.621 54.285 39.6099 54.2839 39.6001 54.2829C39.5877 54.2817 39.5766 54.2806 39.5668 54.2796C39.6075 54.3459 39.6374 54.4211 39.6565 54.5052C39.6755 54.5892 39.6804 54.6781 39.6711 54.7718C39.6557 54.9271 39.6061 55.0629 39.5224 55.1791C39.4365 55.2926 39.326 55.3775 39.1909 55.4338C39.0534 55.4899 38.8983 55.5094 38.7257 55.4923C38.5925 55.4791 38.4727 55.4448 38.3661 55.3894C38.2596 55.334 38.1695 55.2628 38.096 55.1759C38.0224 55.0889 37.9697 54.9928 37.9378 54.8875C37.9035 54.782 37.8918 54.6738 37.9028 54.5628C37.9116 54.4741 37.9321 54.3927 37.9643 54.3187C37.9966 54.2447 38.0366 54.1802 38.0844 54.1252C38.0671 54.1235 38.0511 54.1219 38.0363 54.1204C38.0215 54.119 38.0055 54.1174 37.9882 54.1157C37.9982 54.0146 38.0084 53.9122 38.0187 53.8087C38.0289 53.7051 38.0389 53.604 38.0487 53.5054C38.3126 53.5316 38.5801 53.5581 38.8513 53.585C39.1201 53.6116 39.3864 53.638 39.6502 53.6642ZM39.1572 54.5677C39.1675 54.4641 39.1436 54.3784 39.0857 54.3104C39.0254 54.2397 38.9435 54.1992 38.84 54.1889C38.734 54.1784 38.6445 54.2019 38.5716 54.2594C38.4989 54.3144 38.4574 54.3937 38.4471 54.4973C38.4364 54.6058 38.4611 54.6954 38.5213 54.7661C38.5791 54.8366 38.6622 54.8772 38.7707 54.8879C38.8767 54.8984 38.9649 54.8748 39.0354 54.8171C39.1059 54.7593 39.1465 54.6762 39.1572 54.5677ZM40.0755 51.6346C40.1302 51.8118 40.1578 51.9851 40.1584 52.1545C40.1591 52.3239 40.1334 52.4819 40.0815 52.6287C40.0324 52.7732 39.9589 52.8991 39.8611 53.0064C39.7633 53.1138 39.6445 53.1941 39.5048 53.2475C39.3653 53.2984 39.208 53.3152 39.0329 53.2978C38.8874 53.2834 38.7566 53.2468 38.6404 53.1879C38.522 53.1264 38.4216 53.0467 38.3392 52.9489C38.2543 52.8509 38.1932 52.739 38.1558 52.6133C38.116 52.4873 38.1032 52.3528 38.1174 52.2098C38.1301 52.0816 38.1626 51.9678 38.2148 51.8684C38.2669 51.769 38.335 51.6849 38.4191 51.616C38.5006 51.5469 38.5955 51.4941 38.7037 51.4575C38.8119 51.4209 38.9283 51.4025 39.0528 51.4024C39.1773 51.4023 39.3072 51.4227 39.4426 51.4635C39.4226 51.6657 39.4024 51.8691 39.3821 52.0738C39.3618 52.2784 39.3416 52.4818 39.3216 52.684C39.4199 52.6465 39.4942 52.5754 39.5444 52.4708C39.5949 52.3638 39.6202 52.2343 39.6203 52.0824C39.6206 51.9281 39.5973 51.7615 39.5503 51.5825C39.6366 51.5911 39.7242 51.5997 39.8129 51.6085C39.9017 51.6173 39.9892 51.626 40.0755 51.6346ZM38.6633 52.2789C38.6562 52.3504 38.6694 52.4189 38.7027 52.4845C38.7363 52.5476 38.7922 52.5992 38.8704 52.6393C38.8814 52.5283 38.8924 52.4174 38.9034 52.3064C38.9146 52.193 38.9257 52.0808 38.9367 51.9699C38.85 51.9911 38.7852 52.0295 38.7423 52.085C38.6972 52.1378 38.6709 52.2025 38.6633 52.2789Z" fill="#2F4ECD"/>
<path d="M46.0302 64.936C45.616 64.895 45.1968 64.8534 44.7727 64.8114C44.3486 64.7693 43.9294 64.7278 43.5152 64.6867C43.5298 64.5387 43.5445 64.3908 43.5592 64.2429C43.5741 64.0924 43.5889 63.9433 43.6036 63.7953C43.6221 63.6079 43.6741 63.4475 43.7596 63.314C43.8426 63.1803 43.9519 63.0816 44.0877 63.0179C44.2213 62.9515 44.3732 62.9267 44.5433 62.9436C44.6888 62.958 44.8153 63.0004 44.9229 63.0708C45.0304 63.1413 45.1149 63.2306 45.1764 63.3387C45.3514 63.2565 45.5288 63.1745 45.7088 63.0927C45.8864 63.0083 46.0628 62.9249 46.2378 62.8427C46.2258 62.9635 46.2138 63.0843 46.2018 63.2051C46.1898 63.3259 46.1779 63.4468 46.1659 63.5676C46.0202 63.6303 45.872 63.6941 45.7211 63.7588C45.5706 63.821 45.4223 63.8848 45.2764 63.95C45.2723 63.9919 45.268 64.035 45.2636 64.0794C45.2594 64.1213 45.2553 64.1633 45.2511 64.2052C45.3892 64.2189 45.5297 64.2328 45.6727 64.247C45.8158 64.2612 45.9563 64.2751 46.0944 64.2888C46.0839 64.3948 46.0732 64.5021 46.0625 64.6106C46.0517 64.7191 46.041 64.8276 46.0302 64.936ZM44.1879 63.8533C44.184 63.8927 44.18 63.9334 44.1758 63.9753C44.1719 64.0148 44.1679 64.0555 44.1637 64.0974C44.255 64.1064 44.3462 64.1155 44.4374 64.1245C44.5287 64.1336 44.6199 64.1426 44.7111 64.1516C44.7158 64.1048 44.7204 64.0579 44.7251 64.0111C44.7297 63.9642 44.7343 63.9174 44.739 63.8706C44.7463 63.7966 44.7264 63.7336 44.6793 63.6816C44.6297 63.6294 44.5667 63.5995 44.4902 63.5919C44.4113 63.5841 44.3434 63.6035 44.2865 63.6501C44.2298 63.6943 44.197 63.762 44.1879 63.8533ZM45.6957 60.7385C45.8609 60.7549 45.9997 60.811 46.1122 60.9068C46.225 61.0002 46.3074 61.1229 46.3596 61.2749C46.4093 61.4268 46.4246 61.5989 46.4055 61.7912C46.3877 61.9712 46.3434 62.1286 46.2728 62.2636C46.1999 62.3958 46.1052 62.4972 45.9886 62.5678C45.8699 62.6357 45.7353 62.6622 45.5848 62.6473C45.4616 62.6351 45.3508 62.5967 45.2526 62.5322C45.1547 62.4652 45.0744 62.3713 45.0117 62.2506C44.9336 62.335 44.8467 62.3948 44.7511 62.4302C44.6532 62.4628 44.5488 62.4736 44.4379 62.4626C44.2751 62.4465 44.1438 62.3899 44.0439 62.2928C43.9442 62.1933 43.8745 62.0669 43.835 61.9135C43.7954 61.7602 43.7833 61.5934 43.7987 61.4132C43.8116 61.2327 43.8506 61.0523 43.9158 60.872C44.0144 60.8818 44.1143 60.8917 44.2154 60.9017C44.3165 60.9118 44.4176 60.9218 44.5187 60.9318C44.4788 61.0324 44.4475 61.1352 44.4246 61.24C44.402 61.3423 44.3914 61.4371 44.3927 61.5244C44.394 61.6117 44.408 61.684 44.4347 61.7414C44.4616 61.7964 44.5046 61.8268 44.5638 61.8327C44.6402 61.8403 44.6984 61.7937 44.7383 61.6931C44.7756 61.5922 44.8034 61.4506 44.8215 61.2681C44.7771 61.2637 44.7327 61.2593 44.6883 61.2549C44.6415 61.2503 44.5959 61.2457 44.5515 61.2413C44.5615 61.1402 44.5716 61.0379 44.5819 60.9344C44.5922 60.8308 44.6022 60.7297 44.612 60.6311C44.6564 60.6355 44.702 60.64 44.7488 60.6446C44.7932 60.649 44.8376 60.6534 44.882 60.6578C44.8856 60.6209 44.8894 60.5826 44.8933 60.5432C44.8973 60.5037 44.901 60.4655 44.9047 60.4285C44.9959 60.4376 45.0872 60.4466 45.1784 60.4557C45.2696 60.4647 45.3609 60.4738 45.4521 60.4828C45.4484 60.5198 45.4446 60.558 45.4407 60.5975C45.4368 60.6369 45.433 60.6751 45.4294 60.7121C45.4738 60.7165 45.5181 60.7209 45.5625 60.7253C45.6069 60.7297 45.6513 60.7341 45.6957 60.7385ZM45.5566 61.9909C45.6281 61.998 45.691 61.9781 45.7455 61.9312C45.7977 61.8816 45.8286 61.8087 45.8381 61.7125C45.8484 61.609 45.8319 61.5239 45.7887 61.4574C45.7431 61.3906 45.6746 61.3527 45.5834 61.3436C45.5489 61.3402 45.5131 61.3367 45.4761 61.333C45.4391 61.3293 45.4034 61.3258 45.3689 61.3224C45.3488 61.5246 45.348 61.6838 45.3663 61.8002C45.3846 61.9166 45.4481 61.9801 45.5566 61.9909ZM46.4922 60.2767C46.0779 60.2356 45.6588 60.1941 45.2347 60.152C44.8106 60.11 44.3914 60.0684 43.9771 60.0273C43.9923 59.8745 44.0075 59.7216 44.0226 59.5687C44.038 59.4134 44.0532 59.2605 44.0681 59.1101C44.085 58.94 44.1306 58.7939 44.2049 58.6717C44.2768 58.5494 44.3706 58.4578 44.4861 58.3971C44.5992 58.3361 44.7285 58.3128 44.874 58.3272C44.9776 58.3375 45.0693 58.3665 45.1492 58.4143C45.2292 58.4621 45.2936 58.5282 45.3425 58.6127C45.4144 58.5153 45.5023 58.4443 45.6063 58.3999C45.7079 58.3551 45.8178 58.3387 45.9362 58.3504C46.0841 58.3651 46.2098 58.4161 46.3132 58.5035C46.4168 58.5885 46.4927 58.7019 46.5409 58.8436C46.5893 58.9829 46.6046 59.1425 46.5868 59.3225C46.5711 59.4803 46.5554 59.6393 46.5395 59.7996C46.5236 59.9599 46.5078 60.1189 46.4922 60.2767ZM44.8727 58.9807C44.8086 58.9744 44.7549 58.989 44.7115 59.0245C44.6657 59.0598 44.6396 59.1095 44.6332 59.1736C44.6288 59.218 44.6243 59.2636 44.6197 59.3105C44.6153 59.3548 44.6109 59.3992 44.6065 59.4436C44.6755 59.4504 44.747 59.4575 44.821 59.4649C44.8925 59.472 44.964 59.4791 45.0355 59.4861C45.0399 59.4418 45.0443 59.3974 45.0487 59.353C45.0533 59.3061 45.0579 59.2605 45.0623 59.2161C45.0686 59.152 45.0553 59.0984 45.0222 59.0553C44.9867 59.0119 44.9368 58.9871 44.8727 58.9807ZM45.8128 58.9918C45.7438 58.9849 45.6872 59.003 45.6431 59.0459C45.5968 59.0861 45.5697 59.1457 45.5619 59.2246C45.5568 59.2764 45.5516 59.3282 45.5465 59.3799C45.5414 59.4317 45.5362 59.4835 45.5311 59.5353C45.6075 59.5429 45.684 59.5504 45.7604 59.558C45.8369 59.5656 45.9133 59.5732 45.9897 59.5808C45.9949 59.529 46 59.4772 46.0051 59.4254C46.0103 59.3736 46.0154 59.3219 46.0205 59.2701C46.0284 59.1912 46.0135 59.1274 45.976 59.0789C45.9387 59.0279 45.8843 58.9989 45.8128 58.9918Z" fill="#2F4ECD"/>
<path d="M53.25 65.8679C52.8485 65.6986 52.442 65.5288 52.0306 65.3585C51.6195 65.1858 51.2132 65.0148 50.8116 64.8455C50.8261 64.7 50.8406 64.5533 50.8553 64.4054C50.8702 64.255 50.8849 64.107 50.8993 63.9615C51.3262 63.8744 51.7581 63.7877 52.1949 63.7016C52.632 63.6129 53.064 63.525 53.491 63.4379C53.4804 63.5439 53.4697 63.6524 53.4587 63.7634C53.4479 63.8719 53.4372 63.9804 53.4264 64.0888C53.3451 64.1057 53.2638 64.1213 53.1827 64.1356C53.0992 64.1498 53.0167 64.1652 52.9354 64.1821C52.9214 64.3226 52.9074 64.4644 52.8932 64.6074C52.8793 64.748 52.8653 64.8885 52.8514 65.0291C52.9278 65.0615 53.0057 65.0929 53.0848 65.1232C53.1615 65.1532 53.2381 65.1844 53.3146 65.2169C53.3041 65.3229 53.2933 65.4314 53.2823 65.5424C53.2715 65.6509 53.2608 65.7594 53.25 65.8679ZM52.3164 64.8117C52.325 64.7254 52.3335 64.6391 52.3421 64.5528C52.3509 64.464 52.3596 64.3765 52.3681 64.2902C52.2185 64.3177 52.0675 64.3463 51.9152 64.376C51.7628 64.4057 51.6118 64.4343 51.4622 64.4618C51.6035 64.5181 51.7458 64.5771 51.8891 64.6386C52.0327 64.6976 52.1751 64.7553 52.3164 64.8117ZM52.543 63.2422C52.3556 63.2236 52.1954 63.1692 52.0625 63.0788C51.927 62.9882 51.8229 62.8708 51.75 62.7266C51.6772 62.5824 51.641 62.4195 51.6416 62.2378C51.6398 62.0558 51.6798 61.8656 51.7617 61.667C51.8554 61.6763 51.9503 61.6857 52.0465 61.6953C52.1427 61.7048 52.2376 61.7142 52.3313 61.7235C52.2481 61.8597 52.2025 61.9934 52.1944 62.1245C52.1864 62.2557 52.2165 62.367 52.2846 62.4584C52.3502 62.5496 52.457 62.6025 52.605 62.6172C52.7529 62.6318 52.8693 62.601 52.954 62.5248C53.0363 62.4483 53.0864 62.3449 53.1043 62.2147C53.1197 62.0843 53.1012 61.9443 53.0488 61.7947C53.1425 61.804 53.2374 61.8134 53.3336 61.8229C53.4298 61.8324 53.5247 61.8418 53.6184 61.8511C53.6597 62.0619 53.6616 62.2563 53.6241 62.4343C53.589 62.6126 53.5215 62.7653 53.4218 62.8924C53.322 63.0194 53.1981 63.1142 53.05 63.1767C52.8994 63.239 52.7304 63.2608 52.543 63.2422ZM52.7156 61.5013C52.5282 61.4827 52.368 61.4282 52.2351 61.3379C52.0996 61.2472 51.9955 61.1299 51.9226 60.9857C51.8498 60.8415 51.8137 60.6786 51.8142 60.4969C51.8124 60.3149 51.8524 60.1247 51.9343 59.9261C52.028 59.9354 52.123 59.9448 52.2191 59.9544C52.3153 59.9639 52.4102 59.9733 52.5039 59.9826C52.4207 60.1188 52.3751 60.2524 52.367 60.3836C52.359 60.5148 52.3891 60.6261 52.4572 60.7175C52.5228 60.8086 52.6296 60.8616 52.7776 60.8762C52.9255 60.8909 53.0419 60.8601 53.1266 60.7839C53.2089 60.7074 53.259 60.604 53.2769 60.4738C53.2923 60.3434 53.2738 60.2033 53.2214 60.0537C53.3151 60.063 53.4101 60.0724 53.5062 60.082C53.6024 60.0915 53.6973 60.1009 53.791 60.1102C53.8324 60.321 53.8342 60.5154 53.7967 60.6934C53.7616 60.8717 53.6941 61.0244 53.5944 61.1514C53.4947 61.2785 53.3707 61.3733 53.2226 61.4358C53.072 61.498 52.903 61.5199 52.7156 61.5013ZM53.9308 58.0971C53.9855 58.2743 54.0131 58.4476 54.0138 58.617C54.0144 58.7864 53.9888 58.9445 53.9369 59.0912C53.8877 59.2357 53.8142 59.3616 53.7164 59.469C53.6186 59.5763 53.4998 59.6567 53.3601 59.71C53.2206 59.7609 53.0633 59.7777 52.8882 59.7604C52.7428 59.7459 52.6119 59.7093 52.4958 59.6505C52.3774 59.5889 52.2769 59.5093 52.1945 59.4115C52.1096 59.3134 52.0485 59.2015 52.0112 59.0758C51.9714 58.9499 51.9586 58.8154 51.9727 58.6724C51.9854 58.5441 52.0179 58.4303 52.0701 58.3309C52.1223 58.2315 52.1904 58.1474 52.2744 58.0785C52.3559 58.0094 52.4508 57.9566 52.559 57.92C52.6672 57.8834 52.7836 57.8651 52.9081 57.865C53.0326 57.8649 53.1625 57.8852 53.2979 57.926C53.2779 58.1282 53.2577 58.3317 53.2374 58.5363C53.2171 58.741 53.197 58.9444 53.1769 59.1466C53.2753 59.109 53.3495 59.0379 53.3997 58.9334C53.4502 58.8263 53.4755 58.6969 53.4756 58.545C53.476 58.3906 53.4526 58.224 53.4056 58.045C53.4919 58.0536 53.5795 58.0623 53.6682 58.0711C53.757 58.0799 53.8445 58.0886 53.9308 58.0971ZM52.5187 58.7414C52.5116 58.8129 52.5247 58.8815 52.558 58.947C52.5916 59.0101 52.6475 59.0617 52.7257 59.1018C52.7367 58.9909 52.7477 58.8799 52.7587 58.769C52.7699 58.6555 52.7811 58.5434 52.7921 58.4324C52.7053 58.4537 52.6405 58.4921 52.5976 58.5476C52.5526 58.6004 52.5262 58.665 52.5187 58.7414ZM54.0645 57.6533C53.7489 57.622 53.4308 57.5904 53.1103 57.5587C52.7873 57.5266 52.4679 57.495 52.1523 57.4637C52.1624 57.3626 52.1725 57.2603 52.1828 57.1567C52.193 57.0531 52.2031 56.9521 52.2128 56.8534C52.2301 56.8551 52.2461 56.8567 52.2609 56.8582C52.2757 56.8597 52.2917 56.8612 52.309 56.863C52.2688 56.7917 52.2403 56.7142 52.2237 56.6304C52.2049 56.5439 52.2003 56.4525 52.2098 56.3564C52.2238 56.2158 52.268 56.0957 52.3427 55.9961C52.4175 55.8939 52.5183 55.8193 52.645 55.7721C52.7695 55.7221 52.9155 55.7055 53.0832 55.7221C53.2755 55.7412 53.4691 55.7604 53.6639 55.7797C53.8587 55.799 54.0522 55.8182 54.2445 55.8373C54.2348 55.9359 54.2247 56.037 54.2145 56.1406C54.2042 56.2441 54.1941 56.3464 54.184 56.4475C54.0065 56.4299 53.8265 56.4121 53.644 56.394C53.4616 56.3759 53.2816 56.3581 53.1041 56.3405C53.0054 56.3307 52.9242 56.3463 52.8604 56.3873C52.7943 56.4255 52.7564 56.494 52.7466 56.5926C52.7369 56.6912 52.7576 56.7705 52.809 56.8304C52.8603 56.8902 52.939 56.9254 53.045 56.9359C53.2225 56.9535 53.4025 56.9714 53.585 56.9895C53.7675 57.0076 53.9475 57.0254 54.125 57.043C54.1152 57.1416 54.1052 57.2427 54.0949 57.3463C54.0847 57.4499 54.0745 57.5522 54.0645 57.6533ZM54.3017 55.2611C54.0748 55.2386 53.8467 55.216 53.6174 55.1933C53.3881 55.1706 53.1613 55.1481 52.9369 55.1258C52.932 55.1751 52.927 55.2257 52.9219 55.2775C52.917 55.3268 52.9121 55.3761 52.9072 55.4254C52.816 55.4164 52.7247 55.4073 52.6335 55.3983C52.5423 55.3892 52.451 55.3802 52.3598 55.3711C52.3647 55.3218 52.3696 55.2725 52.3745 55.2232C52.3796 55.1714 52.3846 55.1209 52.3895 55.0715C52.3032 55.063 52.2181 55.0546 52.1343 55.0462C52.048 55.0377 51.9629 55.0293 51.8791 55.0209C51.8891 54.9198 51.8993 54.8175 51.9095 54.714C51.9198 54.6104 51.9298 54.5093 51.9396 54.4107C52.0234 54.419 52.1085 54.4274 52.1948 54.436C52.2786 54.4443 52.3637 54.4527 52.45 54.4613C52.4556 54.4046 52.4614 54.3466 52.4672 54.2875C52.4731 54.2283 52.4789 54.1703 52.4845 54.1136C52.5757 54.1227 52.6669 54.1317 52.7582 54.1408C52.8494 54.1498 52.9406 54.1588 53.0319 54.1679C53.0263 54.2246 53.0205 54.2825 53.0146 54.3417C53.0088 54.4009 53.003 54.4588 52.9974 54.5156C53.2218 54.5378 53.4486 54.5603 53.6779 54.583C53.9073 54.6058 54.1353 54.6284 54.3622 54.6509C54.3524 54.7495 54.3424 54.8506 54.3321 54.9542C54.3218 55.0577 54.3117 55.16 54.3017 55.2611ZM53.9789 52.4893C54.1318 52.5044 54.2533 52.56 54.3433 52.6561C54.4312 52.7495 54.4902 52.8699 54.5204 53.0173C54.5506 53.1647 54.5532 53.3268 54.5282 53.5036C54.5059 53.6782 54.4598 53.8541 54.39 54.0315C54.2963 54.0222 54.2001 54.0126 54.1015 54.0029C54.0029 53.9931 53.9067 53.9836 53.813 53.9743C53.8701 53.8754 53.9174 53.7755 53.9548 53.6746C53.9897 53.5735 54.0138 53.4812 54.027 53.3979C54.0403 53.3146 54.0408 53.2461 54.0287 53.1926C54.0141 53.1389 53.9846 53.1098 53.9402 53.1054C53.9057 53.102 53.8764 53.1215 53.8523 53.1639C53.8284 53.2039 53.8056 53.2577 53.784 53.3252C53.7599 53.3926 53.7328 53.4646 53.7028 53.5413C53.6706 53.6153 53.6301 53.6847 53.5813 53.7496C53.5301 53.8142 53.4665 53.8652 53.3906 53.9025C53.3125 53.9371 53.2155 53.9486 53.0996 53.9371C52.9615 53.9235 52.8483 53.8724 52.7599 53.784C52.6694 53.6928 52.6062 53.577 52.5703 53.4365C52.532 53.2957 52.5211 53.1415 52.5377 52.9739C52.5544 52.8062 52.5997 52.6376 52.6738 52.4682C52.7675 52.4775 52.8636 52.487 52.9623 52.4968C53.0609 52.5066 53.1571 52.5161 53.2507 52.5254C53.1705 52.6569 53.1133 52.7819 53.0791 52.9005C53.0449 53.0192 53.0328 53.1163 53.0427 53.192C53.0502 53.2674 53.0798 53.3077 53.1316 53.3129C53.1661 53.3163 53.1953 53.298 53.2192 53.258C53.2409 53.2154 53.2624 53.1615 53.2838 53.0964C53.3054 53.0288 53.3324 52.958 53.3646 52.884C53.3971 52.8076 53.4388 52.7383 53.4898 52.6761C53.5385 52.6112 53.6032 52.5616 53.6838 52.5272C53.7622 52.4902 53.8606 52.4775 53.9789 52.4893ZM54.8259 50.5767C54.8117 50.7197 54.7738 50.8504 54.7123 50.9688C54.6483 51.0869 54.5662 51.1871 54.4659 51.2693C54.3631 51.3512 54.2476 51.412 54.1191 51.4515C53.991 51.4886 53.8541 51.5 53.7087 51.4855C53.5632 51.4711 53.4313 51.4331 53.3129 51.3716C53.1947 51.3076 53.0945 51.2254 53.0124 51.1252C52.9302 51.0249 52.8705 50.9107 52.8334 50.7825C52.7939 50.6541 52.7812 50.5184 52.7954 50.3753C52.8098 50.2299 52.8489 50.0993 52.9126 49.9836C52.9742 49.8652 53.0551 49.7649 53.1554 49.6827C53.2556 49.6005 53.3699 49.5409 53.498 49.5038C53.6265 49.4643 53.7634 49.4517 53.9089 49.4661C54.0544 49.4805 54.1862 49.5198 54.3043 49.5838C54.4227 49.6453 54.5243 49.7263 54.6089 49.8268C54.6911 49.9271 54.752 50.0415 54.7915 50.1699C54.8289 50.2956 54.8403 50.4312 54.8259 50.5767ZM54.2748 50.522C54.2868 50.4012 54.2532 50.3008 54.174 50.2207C54.0925 50.1379 53.984 50.0898 53.8484 50.0764C53.7103 50.0627 53.5957 50.0887 53.5045 50.1543C53.4111 50.2173 53.3584 50.3092 53.3465 50.43C53.3345 50.5508 53.368 50.6525 53.4469 50.735C53.5237 50.8148 53.6311 50.8616 53.7692 50.8753C53.9048 50.8887 54.0205 50.8641 54.1164 50.8014C54.21 50.736 54.2628 50.6428 54.2748 50.522ZM54.8967 49.2593C54.5811 49.228 54.2631 49.1964 53.9425 49.1646C53.6195 49.1326 53.3002 49.101 52.9846 49.0697C52.9946 48.9686 53.0048 48.8662 53.015 48.7627C53.0253 48.6591 53.0353 48.558 53.0451 48.4594C53.0624 48.4611 53.0784 48.4627 53.0932 48.4642C53.108 48.4656 53.124 48.4672 53.1413 48.4689C53.101 48.3977 53.0726 48.3202 53.056 48.2364C53.0372 48.1499 53.0326 48.0585 53.0421 47.9624C53.056 47.8218 53.1003 47.7017 53.1749 47.602C53.2498 47.4999 53.3506 47.4252 53.4773 47.378C53.6017 47.3281 53.7478 47.3115 53.9155 47.3281C54.1078 47.3472 54.3013 47.3664 54.4961 47.3857C54.6909 47.405 54.8845 47.4242 55.0768 47.4433C55.067 47.5419 55.057 47.643 55.0467 47.7465C55.0365 47.8501 55.0263 47.9524 55.0163 48.0535C54.8388 48.0359 54.6588 48.0181 54.4763 48C54.2938 47.9819 54.1138 47.964 53.9363 47.9464C53.8377 47.9367 53.7565 47.9523 53.6926 47.9932C53.6266 48.0315 53.5887 48.1 53.5789 48.1986C53.5691 48.2972 53.5899 48.3765 53.6412 48.4363C53.6926 48.4962 53.7712 48.5314 53.8773 48.5419C54.0548 48.5595 54.2348 48.5774 54.4173 48.5955C54.5997 48.6135 54.7797 48.6314 54.9573 48.649C54.9475 48.7476 54.9375 48.8487 54.9272 48.9523C54.9169 49.0558 54.9068 49.1582 54.8967 49.2593ZM55.1882 46.3199C55.092 46.3103 54.9946 46.3007 54.896 46.2909C54.7949 46.2809 54.6963 46.2711 54.6001 46.2616C54.5162 46.1536 54.431 46.0456 54.3447 45.9374C54.2558 45.829 54.1694 45.7209 54.0855 45.613C53.9858 45.4885 53.9056 45.3934 53.8449 45.3277C53.7817 45.2616 53.7278 45.2152 53.6831 45.1884C53.6387 45.1591 53.5968 45.1425 53.5574 45.1385C53.476 45.1305 53.4134 45.1716 53.3696 45.2619C53.3233 45.3519 53.3002 45.4716 53.3004 45.621C53.3005 45.7704 53.3255 45.9323 53.3755 46.1065C53.2744 46.0965 53.1721 46.0864 53.0685 46.0761C52.9625 46.0656 52.8589 46.0553 52.7578 46.0453C52.7009 45.7907 52.6823 45.5635 52.7021 45.3637C52.7222 45.1616 52.7726 44.9923 52.8533 44.8559C52.9319 44.7167 53.0329 44.6147 53.1563 44.5497C53.2801 44.4823 53.4184 44.4562 53.5712 44.4714C53.7241 44.4865 53.8643 44.5415 53.9919 44.6363C54.1169 44.7309 54.2525 44.8701 54.3986 45.0539C54.4451 45.1133 54.4927 45.1728 54.5416 45.2324C54.5904 45.292 54.6381 45.3515 54.6845 45.4109C54.6977 45.2777 54.7109 45.1446 54.7241 45.0115C54.7375 44.8758 54.7508 44.7415 54.764 44.6083C54.8602 44.6178 54.9588 44.6276 55.0599 44.6376C55.1585 44.6474 55.2559 44.6571 55.3521 44.6666C55.325 44.9403 55.2976 45.2165 55.27 45.4951C55.2426 45.7713 55.2153 46.0462 55.1882 46.3199ZM54.8273 42.3881C54.9925 42.4044 55.1314 42.4605 55.2439 42.5564C55.3566 42.6497 55.4391 42.7724 55.4912 42.9245C55.5409 43.0763 55.5562 43.2484 55.5371 43.4407C55.5193 43.6207 55.475 43.7782 55.4044 43.9131C55.3315 44.0453 55.2368 44.1467 55.1203 44.2173C55.0015 44.2853 54.8669 44.3117 54.7165 44.2968C54.5932 44.2846 54.4825 44.2462 54.3843 44.1817C54.2863 44.1147 54.206 44.0209 54.1433 43.9001C54.0652 43.9845 53.9783 44.0444 53.8827 44.0797C53.7849 44.1123 53.6805 44.1231 53.5695 44.1121C53.4068 44.096 53.2754 44.0394 53.1755 43.9424C53.0758 43.8428 53.0062 43.7164 52.9666 43.5631C52.927 43.4098 52.9149 43.243 52.9303 43.0627C52.9432 42.8823 52.9823 42.7019 53.0474 42.5216C53.1461 42.5314 53.2459 42.5413 53.347 42.5513C53.4481 42.5613 53.5492 42.5713 53.6503 42.5814C53.6104 42.682 53.5791 42.7847 53.5563 42.8895C53.5337 42.9918 53.523 43.0867 53.5243 43.1739C53.5256 43.2612 53.5396 43.3336 53.5663 43.391C53.5932 43.4459 53.6363 43.4764 53.6954 43.4822C53.7719 43.4898 53.83 43.4433 53.8699 43.3427C53.9073 43.2418 53.935 43.1001 53.9531 42.9177C53.9087 42.9133 53.8643 42.9089 53.82 42.9045C53.7731 42.8998 53.7275 42.8953 53.6831 42.8909C53.6931 42.7898 53.7033 42.6875 53.7135 42.5839C53.7238 42.4803 53.7338 42.3792 53.7436 42.2806C53.788 42.285 53.8336 42.2895 53.8805 42.2942C53.9248 42.2986 53.9692 42.303 54.0136 42.3074C54.0173 42.2704 54.0211 42.2322 54.025 42.1927C54.0289 42.1533 54.0327 42.1151 54.0363 42.0781C54.1276 42.0871 54.2188 42.0962 54.31 42.1052C54.4013 42.1143 54.4925 42.1233 54.5837 42.1324C54.5801 42.1693 54.5763 42.2076 54.5724 42.247C54.5685 42.2865 54.5647 42.3247 54.561 42.3617C54.6054 42.3661 54.6498 42.3705 54.6942 42.3749C54.7385 42.3793 54.7829 42.3837 54.8273 42.3881ZM54.6882 43.6404C54.7597 43.6475 54.8227 43.6276 54.8771 43.5807C54.9293 43.5311 54.9602 43.4582 54.9698 43.3621C54.98 43.2585 54.9636 43.1735 54.9204 43.1069C54.8747 43.0402 54.8062 43.0022 54.715 42.9932C54.6805 42.9898 54.6447 42.9862 54.6078 42.9826C54.5708 42.9789 54.535 42.9753 54.5005 42.9719C54.4804 43.1741 54.4796 43.3334 54.4979 43.4497C54.5163 43.5661 54.5797 43.6297 54.6882 43.6404ZM55.132 42.0269C55.0359 42.0174 54.9385 42.0077 54.8398 41.9979C54.7387 41.9879 54.6401 41.9781 54.544 41.9686C54.317 41.8216 54.0877 41.6731 53.8561 41.5232C53.6244 41.3732 53.395 41.226 53.1678 41.0814C53.1835 40.9236 53.1991 40.7658 53.2148 40.608C53.2306 40.4477 53.2464 40.2887 53.2621 40.1309C53.5012 40.1546 53.7429 40.1786 53.987 40.2028C54.2311 40.227 54.4727 40.2509 54.7119 40.2746C54.7175 40.2179 54.7233 40.16 54.7291 40.1008C54.7353 40.0392 54.7411 39.98 54.7467 39.9233C54.8429 39.9328 54.9415 39.9426 55.0426 39.9526C55.1413 39.9624 55.2387 39.9721 55.3348 39.9816C55.3292 40.0383 55.3233 40.0975 55.3172 40.1591C55.3113 40.2183 55.3056 40.2762 55.3 40.333C55.3789 40.3408 55.459 40.3487 55.5404 40.3568C55.6193 40.3646 55.6982 40.3724 55.7771 40.3803C55.7668 40.4838 55.7563 40.5898 55.7456 40.6983C55.735 40.8044 55.7247 40.9092 55.7144 41.0127C55.6355 41.0049 55.5566 40.9971 55.4777 40.9892C55.3963 40.9812 55.3162 40.9732 55.2373 40.9654C55.2199 41.1405 55.2023 41.318 55.1845 41.498C55.1669 41.6755 55.1494 41.8518 55.132 42.0269ZM54.61 41.3028C54.6163 41.2387 54.6228 41.1734 54.6294 41.1068C54.6362 41.0378 54.6428 40.9712 54.6492 40.9071C54.5111 40.8934 54.3706 40.8795 54.2276 40.8653C54.0845 40.8511 53.944 40.8372 53.8059 40.8235C53.9376 40.9013 54.0716 40.9818 54.2078 41.065C54.3442 41.1458 54.4782 41.225 54.61 41.3028Z" fill="#2F4ECD"/>
</svg>
