<svg width="399" height="205" viewBox="0 0 399 205" fill="none" xmlns="http://www.w3.org/2000/svg">
<rect width="381.266" height="193.205" rx="39.1559" transform="matrix(-1 0 0 1 381.267 11.6704)" fill="white"/>
<rect width="59.1352" height="97.2509" transform="matrix(-1 0 0 1 381.267 107.625)" fill="white"/>
<rect width="59.1352" height="97.2509" transform="matrix(-1 0 0 1 59.1357 11.6704)" fill="white"/>
<path d="M0.000976562 76.3506H381.267V37.3761C381.267 16.7339 364.533 7.62939e-05 343.891 7.62939e-05H0.000976562V76.3506Z" fill="#FE9973"/>
<path opacity="0.8" d="M27.0634 55.5405C27.0634 50.1645 27.0634 44.7245 27.0634 39.2205C27.0634 33.7165 27.0634 28.2765 27.0634 22.9005C29.0474 22.9005 31.0474 22.9005 33.0634 22.9005C35.0794 22.9005 37.0794 22.9005 39.0634 22.9005C39.9914 26.1645 40.9034 29.4765 41.7994 32.8365C42.7274 36.1645 43.6394 39.4605 44.5354 42.7245C45.4314 39.4605 46.3274 36.1645 47.2234 32.8365C48.1514 29.4765 49.0634 26.1645 49.9594 22.9005C51.9434 22.9005 53.9274 22.9005 55.9114 22.9005C57.8954 22.9005 59.8634 22.9005 61.8154 22.9005C61.8474 28.2765 61.8794 33.7165 61.9114 39.2205C61.9434 44.7245 61.9754 50.1645 62.0074 55.5405C60.6634 55.5405 59.3034 55.5405 57.9274 55.5405C56.5834 55.5405 55.2394 55.5405 53.8954 55.5405C53.8954 51.8925 53.8954 48.2125 53.8954 44.5005C53.8954 40.7565 53.8954 37.0605 53.8954 33.4125C52.9354 37.0605 51.9594 40.7565 50.9674 44.5005C49.9754 48.2125 48.9994 51.8925 48.0394 55.5405C46.8554 55.5405 45.6394 55.5405 44.3914 55.5405C43.1754 55.5405 41.9594 55.5405 40.7434 55.5405C39.7834 51.9565 38.8234 48.3405 37.8634 44.6925C36.9034 41.0125 35.9434 37.3805 34.9834 33.7965C34.9834 37.3805 34.9834 41.0125 34.9834 44.6925C34.9834 48.3405 34.9834 51.9565 34.9834 55.5405C33.7034 55.5405 32.3914 55.5405 31.0474 55.5405C29.7034 55.5405 28.3754 55.5405 27.0634 55.5405ZM90.9705 30.7245C90.9705 34.8205 90.9705 38.9645 90.9705 43.1565C90.9705 47.3165 90.9705 51.4445 90.9705 55.5405C89.6905 55.5405 88.3785 55.5405 87.0345 55.5405C85.6905 55.5405 84.3625 55.5405 83.0505 55.5405C83.0505 55.3165 83.0505 55.1085 83.0505 54.9165C83.0505 54.7245 83.0505 54.5165 83.0505 54.2925C82.1865 54.9005 81.2105 55.3645 80.1225 55.6845C79.0665 56.0365 77.9145 56.2125 76.6665 56.2125C74.8425 56.2125 73.2265 55.7965 71.8185 54.9645C70.4425 54.1325 69.3545 52.9325 68.5545 51.3645C67.7865 49.7965 67.4025 47.9405 67.4025 45.7965C67.4025 43.3005 67.4025 40.7885 67.4025 38.2605C67.4025 35.7325 67.4025 33.2205 67.4025 30.7245C68.7145 30.7245 70.0425 30.7245 71.3865 30.7245C72.7305 30.7245 74.0425 30.7245 75.3225 30.7245C75.3225 33.0285 75.3225 35.3645 75.3225 37.7325C75.3225 40.1005 75.3225 42.4365 75.3225 44.7405C75.3225 46.0205 75.6105 47.0605 76.1865 47.8605C76.7945 48.6285 77.7385 49.0125 79.0185 49.0125C80.2985 49.0125 81.2905 48.6445 81.9945 47.9085C82.6985 47.1725 83.0505 46.1165 83.0505 44.7405C83.0505 42.4365 83.0505 40.1005 83.0505 37.7325C83.0505 35.3645 83.0505 33.0285 83.0505 30.7245C84.3625 30.7245 85.6905 30.7245 87.0345 30.7245C88.3785 30.7245 89.6905 30.7245 90.9705 30.7245ZM115.2 47.8605C115.2 49.8445 114.64 51.4765 113.52 52.7565C112.432 54.0045 110.96 54.9165 109.104 55.4925C107.248 56.0685 105.168 56.3085 102.864 56.2125C100.592 56.1485 98.2716 55.7805 95.9036 55.1085C95.9036 53.8925 95.9036 52.6445 95.9036 51.3645C95.9036 50.0845 95.9036 48.8365 95.9036 47.6205C97.2476 48.2285 98.5916 48.7085 99.9356 49.0605C101.28 49.3805 102.496 49.5725 103.584 49.6365C104.672 49.7005 105.552 49.6205 106.224 49.3965C106.896 49.1405 107.232 48.7245 107.232 48.1485C107.232 47.7005 106.944 47.3485 106.368 47.0925C105.824 46.8365 105.104 46.6125 104.208 46.4205C103.312 46.1965 102.352 45.9405 101.328 45.6525C100.336 45.3325 99.3916 44.9005 98.4956 44.3565C97.5996 43.7805 96.8636 43.0285 96.2876 42.1005C95.7436 41.1405 95.4716 39.9085 95.4716 38.4045C95.4716 36.6125 95.9836 35.0925 97.0076 33.8445C98.0636 32.5645 99.4716 31.6045 101.232 30.9645C102.992 30.2925 104.96 29.9565 107.136 29.9565C109.312 29.9565 111.536 30.3245 113.808 31.0605C113.808 32.2765 113.808 33.5245 113.808 34.8045C113.808 36.0845 113.808 37.3325 113.808 38.5485C112.016 37.6845 110.336 37.1085 108.768 36.8205C107.2 36.5325 105.936 36.5005 104.976 36.7245C104.016 36.9165 103.536 37.3485 103.536 38.0205C103.536 38.4685 103.808 38.8205 104.352 39.0765C104.928 39.3005 105.648 39.5085 106.512 39.7005C107.408 39.8925 108.352 40.1485 109.344 40.4685C110.368 40.7885 111.312 41.2365 112.176 41.8125C113.072 42.3565 113.792 43.1245 114.336 44.1165C114.912 45.0765 115.2 46.3245 115.2 47.8605ZM123.245 27.8925C122.317 27.8925 121.469 27.6685 120.701 27.2205C119.965 26.7725 119.373 26.1805 118.925 25.4445C118.477 24.7085 118.253 23.8925 118.253 22.9965C118.253 22.1005 118.477 21.3005 118.925 20.5965C119.373 19.8605 119.965 19.2685 120.701 18.8205C121.469 18.3725 122.317 18.1485 123.245 18.1485C124.141 18.1485 124.957 18.3725 125.693 18.8205C126.461 19.2685 127.069 19.8605 127.517 20.5965C127.965 21.3005 128.189 22.1005 128.189 22.9965C128.189 23.8925 127.965 24.7085 127.517 25.4445C127.069 26.1805 126.461 26.7725 125.693 27.2205C124.957 27.6685 124.141 27.8925 123.245 27.8925ZM119.261 55.5405C119.261 51.4445 119.261 47.3165 119.261 43.1565C119.261 38.9645 119.261 34.8205 119.261 30.7245C120.573 30.7245 121.901 30.7245 123.245 30.7245C124.589 30.7245 125.901 30.7245 127.181 30.7245C127.181 34.8205 127.181 38.9645 127.181 43.1565C127.181 47.3165 127.181 51.4445 127.181 55.5405C125.901 55.5405 124.589 55.5405 123.245 55.5405C121.901 55.5405 120.573 55.5405 119.261 55.5405ZM131.364 43.1085C131.364 40.6765 131.86 38.5485 132.852 36.7245C133.844 34.8685 135.22 33.3805 136.98 32.2605C138.74 31.1405 140.788 30.4685 143.124 30.2445C145.46 29.9885 147.956 30.2605 150.612 31.0605C150.612 32.2765 150.612 33.5085 150.612 34.7565C150.612 36.0045 150.612 37.2365 150.612 38.4525C148.756 37.5565 146.98 37.1405 145.284 37.2045C143.588 37.2685 142.196 37.7965 141.108 38.7885C140.02 39.7485 139.476 41.1885 139.476 43.1085C139.476 45.0285 140.02 46.4845 141.108 47.4765C142.196 48.4365 143.588 48.9485 145.284 49.0125C146.98 49.0445 148.756 48.6285 150.612 47.7645C150.612 48.9805 150.612 50.2125 150.612 51.4605C150.612 52.7085 150.612 53.9405 150.612 55.1565C147.956 55.9565 145.46 56.2285 143.124 55.9725C140.788 55.7485 138.74 55.0765 136.98 53.9565C135.22 52.8365 133.844 51.3645 132.852 49.5405C131.86 47.6845 131.364 45.5405 131.364 43.1085ZM192.447 53.8125C189.119 55.1565 186.015 55.9245 183.135 56.1165C180.287 56.3405 177.711 56.0845 175.407 55.3485C173.103 54.5805 171.135 53.4285 169.503 51.8925C167.871 50.3565 166.623 48.5325 165.759 46.4205C164.895 44.3085 164.463 42.0045 164.463 39.5085C164.463 37.0445 164.863 34.7725 165.663 32.6925C166.463 30.5805 167.631 28.7565 169.167 27.2205C170.735 25.6845 172.623 24.4845 174.831 23.6205C177.039 22.7565 179.551 22.3405 182.367 22.3725C185.183 22.3725 188.271 22.8845 191.631 23.9085C191.631 25.2525 191.631 26.6125 191.631 27.9885C191.631 29.3325 191.631 30.6765 191.631 32.0205C188.975 30.9645 186.511 30.3565 184.239 30.1965C181.999 30.0365 180.031 30.2765 178.335 30.9165C176.671 31.5565 175.359 32.5805 174.399 33.9885C173.471 35.3645 173.007 37.0925 173.007 39.1725C173.007 40.9965 173.343 42.6125 174.015 44.0205C174.719 45.4285 175.695 46.5325 176.943 47.3325C178.191 48.1325 179.615 48.5325 181.215 48.5325C181.759 48.5325 182.303 48.5165 182.847 48.4845C183.391 48.4205 183.919 48.3245 184.431 48.1965C184.431 47.3645 184.431 46.5165 184.431 45.6525C184.431 44.7885 184.431 43.9405 184.431 43.1085C183.535 43.1085 182.639 43.1085 181.743 43.1085C180.847 43.1085 179.951 43.1085 179.055 43.1085C179.055 41.9245 179.055 40.7405 179.055 39.5565C179.055 38.3405 179.055 37.1405 179.055 35.9565C181.263 35.9565 183.487 35.9565 185.727 35.9565C187.999 35.9565 190.239 35.9565 192.447 35.9565C192.447 38.9005 192.447 41.8765 192.447 44.8845C192.447 47.8925 192.447 50.8685 192.447 53.8125ZM219.412 54.3885C217.204 55.3165 215.012 55.8925 212.836 56.1165C210.66 56.3405 208.596 56.2125 206.644 55.7325C204.724 55.2845 203.012 54.5005 201.508 53.3805C200.004 52.2605 198.82 50.8365 197.956 49.1085C197.124 47.3805 196.708 45.3805 196.708 43.1085C196.708 41.2205 197.012 39.4925 197.62 37.9245C198.26 36.3245 199.156 34.9325 200.308 33.7485C201.46 32.5325 202.82 31.6045 204.388 30.9645C205.956 30.2925 207.668 29.9565 209.524 29.9565C211.188 29.9565 212.692 30.2285 214.036 30.7725C215.38 31.3165 216.548 32.0845 217.54 33.0765C218.532 34.0365 219.332 35.1885 219.94 36.5325C220.548 37.8765 220.932 39.3485 221.092 40.9485C221.252 42.5485 221.156 44.2445 220.804 46.0365C218.18 46.0365 215.54 46.0365 212.884 46.0365C210.228 46.0365 207.588 46.0365 204.964 46.0365C205.572 47.2525 206.58 48.1165 207.988 48.6285C209.428 49.1405 211.124 49.3005 213.076 49.1085C215.06 48.9165 217.172 48.4045 219.412 47.5725C219.412 48.6925 219.412 49.8285 219.412 50.9805C219.412 52.1325 219.412 53.2685 219.412 54.3885ZM209.332 37.0605C208.404 37.0605 207.54 37.3165 206.74 37.8285C205.972 38.3405 205.38 39.1245 204.964 40.1805C206.404 40.1805 207.844 40.1805 209.284 40.1805C210.756 40.1805 212.212 40.1805 213.652 40.1805C213.268 39.0925 212.692 38.3085 211.924 37.8285C211.188 37.3165 210.324 37.0605 209.332 37.0605ZM225.286 55.5405C225.286 51.4445 225.286 47.3165 225.286 43.1565C225.286 38.9645 225.286 34.8205 225.286 30.7245C226.598 30.7245 227.926 30.7245 229.27 30.7245C230.614 30.7245 231.926 30.7245 233.206 30.7245C233.206 30.9485 233.206 31.1565 233.206 31.3485C233.206 31.5405 233.206 31.7485 233.206 31.9725C234.07 31.3645 235.03 30.9005 236.086 30.5805C237.174 30.2285 238.342 30.0525 239.59 30.0525C241.414 30.0525 243.014 30.4685 244.39 31.3005C245.798 32.1325 246.886 33.3325 247.654 34.9005C248.454 36.4365 248.854 38.2925 248.854 40.4685C248.854 42.9645 248.854 45.4765 248.854 48.0045C248.854 50.5325 248.854 53.0445 248.854 55.5405C247.574 55.5405 246.262 55.5405 244.918 55.5405C243.574 55.5405 242.246 55.5405 240.934 55.5405C240.934 53.2365 240.934 50.9005 240.934 48.5325C240.934 46.1645 240.934 43.8285 240.934 41.5245C240.934 40.2445 240.63 39.2205 240.022 38.4525C239.446 37.6525 238.518 37.2525 237.238 37.2525C235.958 37.2525 234.966 37.6205 234.262 38.3565C233.558 39.0925 233.206 40.1485 233.206 41.5245C233.206 43.8285 233.206 46.1645 233.206 48.5325C233.206 50.9005 233.206 53.2365 233.206 55.5405C231.926 55.5405 230.614 55.5405 229.27 55.5405C227.926 55.5405 226.598 55.5405 225.286 55.5405ZM253.74 55.5405C253.74 51.4445 253.74 47.3165 253.74 43.1565C253.74 38.9645 253.74 34.8205 253.74 30.7245C255.052 30.7245 256.38 30.7245 257.724 30.7245C259.068 30.7245 260.38 30.7245 261.66 30.7245C261.66 30.9485 261.66 31.1725 261.66 31.3965C261.66 31.6205 261.66 31.8445 261.66 32.0685C262.652 31.3645 263.772 30.8365 265.02 30.4845C266.268 30.1325 267.628 30.0365 269.1 30.1965C269.1 31.4765 269.1 32.7725 269.1 34.0845C269.1 35.3965 269.1 36.6925 269.1 37.9725C266.572 37.6205 264.7 37.8445 263.484 38.6445C262.268 39.4125 261.66 40.6765 261.66 42.4365C261.66 44.5805 261.66 46.7565 261.66 48.9645C261.66 51.1725 261.66 53.3645 261.66 55.5405C260.38 55.5405 259.068 55.5405 257.724 55.5405C256.38 55.5405 255.052 55.5405 253.74 55.5405ZM293.803 54.3885C291.595 55.3165 289.403 55.8925 287.227 56.1165C285.051 56.3405 282.987 56.2125 281.035 55.7325C279.115 55.2845 277.403 54.5005 275.899 53.3805C274.395 52.2605 273.211 50.8365 272.347 49.1085C271.515 47.3805 271.099 45.3805 271.099 43.1085C271.099 41.2205 271.403 39.4925 272.011 37.9245C272.651 36.3245 273.547 34.9325 274.699 33.7485C275.851 32.5325 277.211 31.6045 278.779 30.9645C280.347 30.2925 282.059 29.9565 283.915 29.9565C285.579 29.9565 287.083 30.2285 288.427 30.7725C289.771 31.3165 290.939 32.0845 291.931 33.0765C292.923 34.0365 293.723 35.1885 294.331 36.5325C294.939 37.8765 295.323 39.3485 295.483 40.9485C295.643 42.5485 295.547 44.2445 295.195 46.0365C292.571 46.0365 289.931 46.0365 287.275 46.0365C284.619 46.0365 281.979 46.0365 279.355 46.0365C279.963 47.2525 280.971 48.1165 282.379 48.6285C283.819 49.1405 285.515 49.3005 287.467 49.1085C289.451 48.9165 291.563 48.4045 293.803 47.5725C293.803 48.6925 293.803 49.8285 293.803 50.9805C293.803 52.1325 293.803 53.2685 293.803 54.3885ZM283.723 37.0605C282.795 37.0605 281.931 37.3165 281.131 37.8285C280.363 38.3405 279.771 39.1245 279.355 40.1805C280.795 40.1805 282.235 40.1805 283.675 40.1805C285.147 40.1805 286.603 40.1805 288.043 40.1805C287.659 39.0925 287.083 38.3085 286.315 37.8285C285.579 37.3165 284.715 37.0605 283.723 37.0605ZM318.637 47.8605C318.637 49.8445 318.077 51.4765 316.957 52.7565C315.869 54.0045 314.397 54.9165 312.541 55.4925C310.685 56.0685 308.605 56.3085 306.301 56.2125C304.029 56.1485 301.709 55.7805 299.341 55.1085C299.341 53.8925 299.341 52.6445 299.341 51.3645C299.341 50.0845 299.341 48.8365 299.341 47.6205C300.685 48.2285 302.029 48.7085 303.373 49.0605C304.717 49.3805 305.933 49.5725 307.021 49.6365C308.109 49.7005 308.989 49.6205 309.661 49.3965C310.333 49.1405 310.669 48.7245 310.669 48.1485C310.669 47.7005 310.381 47.3485 309.805 47.0925C309.261 46.8365 308.541 46.6125 307.645 46.4205C306.749 46.1965 305.789 45.9405 304.765 45.6525C303.773 45.3325 302.829 44.9005 301.933 44.3565C301.037 43.7805 300.301 43.0285 299.725 42.1005C299.181 41.1405 298.909 39.9085 298.909 38.4045C298.909 36.6125 299.421 35.0925 300.445 33.8445C301.501 32.5645 302.909 31.6045 304.669 30.9645C306.429 30.2925 308.397 29.9565 310.573 29.9565C312.749 29.9565 314.973 30.3245 317.245 31.0605C317.245 32.2765 317.245 33.5245 317.245 34.8045C317.245 36.0845 317.245 37.3325 317.245 38.5485C315.453 37.6845 313.773 37.1085 312.205 36.8205C310.637 36.5325 309.373 36.5005 308.413 36.7245C307.453 36.9165 306.973 37.3485 306.973 38.0205C306.973 38.4685 307.245 38.8205 307.789 39.0765C308.365 39.3005 309.085 39.5085 309.949 39.7005C310.845 39.8925 311.789 40.1485 312.781 40.4685C313.805 40.7885 314.749 41.2365 315.613 41.8125C316.509 42.3565 317.229 43.1245 317.773 44.1165C318.349 45.0765 318.637 46.3245 318.637 47.8605Z" fill="#6697DC"/>
<path d="M117.199 183.167C117.199 180.479 117.199 177.759 117.199 175.007C117.199 172.255 117.199 169.535 117.199 166.847C118.159 166.847 119.119 166.847 120.079 166.847C121.055 166.847 122.023 166.847 122.983 166.847C124.199 166.847 125.263 167.079 126.175 167.543C127.087 167.991 127.791 168.631 128.287 169.463C128.799 170.279 129.055 171.239 129.055 172.343C129.055 173.287 128.863 174.127 128.479 174.863C128.095 175.599 127.575 176.199 126.919 176.663C127.559 177.735 128.199 178.823 128.839 179.927C129.495 181.015 130.143 182.095 130.783 183.167C129.999 183.167 129.215 183.167 128.431 183.167C127.647 183.167 126.863 183.167 126.079 183.167C125.583 182.271 125.079 181.359 124.567 180.431C124.071 179.503 123.567 178.591 123.055 177.695C122.783 177.695 122.503 177.695 122.215 177.695C121.943 177.695 121.671 177.695 121.399 177.695C121.399 178.591 121.399 179.503 121.399 180.431C121.399 181.359 121.399 182.271 121.399 183.167C120.711 183.167 120.015 183.167 119.311 183.167C118.607 183.167 117.903 183.167 117.199 183.167ZM122.983 170.639C122.727 170.639 122.463 170.639 122.191 170.639C121.935 170.639 121.671 170.639 121.399 170.639C121.399 171.231 121.399 171.823 121.399 172.415C121.399 173.007 121.399 173.599 121.399 174.191C121.703 174.191 122.007 174.191 122.311 174.191C122.615 174.191 122.919 174.191 123.223 174.191C123.703 174.191 124.095 174.023 124.399 173.687C124.703 173.335 124.855 172.911 124.855 172.415C124.855 171.903 124.687 171.479 124.351 171.143C124.031 170.807 123.575 170.639 122.983 170.639ZM143.958 178.343C143.958 179.415 143.686 180.343 143.142 181.127C142.614 181.911 141.878 182.519 140.934 182.951C139.99 183.367 138.894 183.575 137.646 183.575C136.478 183.575 135.438 183.391 134.526 183.023C133.63 182.639 132.918 182.095 132.39 181.391C131.878 180.671 131.622 179.823 131.622 178.847C131.622 178.047 131.798 177.311 132.15 176.639C132.518 175.967 133.07 175.391 133.806 174.911C133.214 174.463 132.774 173.943 132.486 173.351C132.214 172.743 132.078 172.079 132.078 171.359C132.078 170.303 132.358 169.423 132.918 168.719C133.494 168.015 134.262 167.487 135.222 167.135C136.182 166.783 137.246 166.599 138.414 166.583C139.582 166.551 140.766 166.687 141.966 166.991C141.966 167.631 141.966 168.279 141.966 168.935C141.966 169.591 141.966 170.247 141.966 170.903C141.294 170.711 140.614 170.575 139.926 170.495C139.254 170.415 138.638 170.407 138.078 170.471C137.518 170.535 137.062 170.671 136.71 170.879C136.374 171.087 136.206 171.383 136.206 171.767C136.206 172.263 136.542 172.607 137.214 172.799C137.886 172.975 138.814 173.063 139.998 173.063C139.998 172.775 139.998 172.487 139.998 172.199C139.998 171.895 139.998 171.599 139.998 171.311C140.654 171.311 141.318 171.311 141.99 171.311C142.662 171.311 143.318 171.311 143.958 171.311C143.958 171.599 143.958 171.895 143.958 172.199C143.958 172.487 143.958 172.775 143.958 173.063C144.198 173.063 144.446 173.063 144.702 173.063C144.958 173.063 145.206 173.063 145.446 173.063C145.446 173.655 145.446 174.247 145.446 174.839C145.446 175.431 145.446 176.023 145.446 176.615C145.206 176.615 144.958 176.615 144.702 176.615C144.446 176.615 144.198 176.615 143.958 176.615C143.958 176.903 143.958 177.191 143.958 177.479C143.958 177.767 143.958 178.055 143.958 178.343ZM135.822 178.247C135.822 178.711 135.99 179.103 136.326 179.423C136.678 179.727 137.166 179.879 137.79 179.879C138.462 179.879 138.998 179.719 139.398 179.399C139.798 179.063 139.998 178.599 139.998 178.007C139.998 177.783 139.998 177.551 139.998 177.311C139.998 177.071 139.998 176.839 139.998 176.615C138.686 176.615 137.662 176.711 136.926 176.903C136.19 177.095 135.822 177.543 135.822 178.247ZM147.433 183.167C147.433 180.479 147.433 177.759 147.433 175.007C147.433 172.255 147.433 169.535 147.433 166.847C148.425 166.847 149.417 166.847 150.409 166.847C151.417 166.847 152.409 166.847 153.385 166.847C154.489 166.847 155.457 167.047 156.289 167.447C157.121 167.831 157.769 168.375 158.233 169.079C158.697 169.767 158.929 170.583 158.929 171.527C158.929 172.199 158.801 172.807 158.545 173.351C158.289 173.895 157.905 174.351 157.393 174.719C158.065 175.119 158.577 175.639 158.929 176.279C159.281 176.903 159.457 177.599 159.457 178.367C159.457 179.327 159.209 180.167 158.713 180.887C158.233 181.607 157.553 182.167 156.673 182.567C155.809 182.967 154.793 183.167 153.625 183.167C152.601 183.167 151.569 183.167 150.529 183.167C149.489 183.167 148.457 183.167 147.433 183.167ZM154.729 171.935C154.729 171.519 154.601 171.183 154.345 170.927C154.089 170.655 153.753 170.519 153.337 170.519C153.049 170.519 152.753 170.519 152.449 170.519C152.161 170.519 151.873 170.519 151.585 170.519C151.585 170.967 151.585 171.431 151.585 171.911C151.585 172.375 151.585 172.839 151.585 173.303C151.873 173.303 152.161 173.303 152.449 173.303C152.753 173.303 153.049 173.303 153.337 173.303C153.753 173.303 154.089 173.183 154.345 172.943C154.601 172.687 154.729 172.351 154.729 171.935ZM155.257 177.983C155.257 177.535 155.105 177.183 154.801 176.927C154.513 176.655 154.113 176.519 153.601 176.519C153.265 176.519 152.929 176.519 152.593 176.519C152.257 176.519 151.921 176.519 151.585 176.519C151.585 177.015 151.585 177.511 151.585 178.007C151.585 178.503 151.585 178.999 151.585 179.495C151.921 179.495 152.257 179.495 152.593 179.495C152.929 179.495 153.265 179.495 153.601 179.495C154.113 179.495 154.513 179.359 154.801 179.087C155.105 178.815 155.257 178.447 155.257 177.983Z" fill="#FE9973"/>
</svg>
