<svg width="307" height="247" viewBox="0 0 307 247" fill="none" xmlns="http://www.w3.org/2000/svg">
<circle cx="9.96111" cy="9.96111" r="9.96111" transform="matrix(-0.0102822 0.999947 0.999947 0.0102822 131.616 0)" fill="#6CBDAA"/>
<circle cx="161.534" cy="10.2703" r="9.96111" transform="rotate(90.5891 161.534 10.2703)" fill="#6CBDAA"/>
<rect width="34.047" height="19.9188" transform="matrix(-0.0102822 0.999947 0.999947 0.0102822 131.527 9.09082)" fill="#6CBDAA"/>
<rect x="171.501" y="9.50244" width="34.047" height="19.9188" transform="rotate(90.5891 171.501 9.50244)" fill="#6CBDAA"/>
<path d="M150.966 62.644C151.08 51.5409 150.967 62.5411 151.08 51.5408C151.193 40.5406 151.069 52.5766 151.171 42.7263C140.17 42.6132 139.563 42.607 131.253 42.5215C131.14 53.5218 139.966 62.5309 150.966 62.644Z" fill="#036F62"/>
<path d="M150.964 62.6446C151.079 51.5414 150.965 62.5416 151.079 51.5414C151.192 40.5411 151.068 52.5771 151.169 42.7268C162.169 42.8399 162.777 42.8463 171.087 42.9316C170.974 53.9319 161.965 62.7577 150.964 62.6446Z" fill="#036F62"/>
<path d="M131.467 14.9448C131.353 26.048 131.466 15.0478 131.353 26.048C131.239 37.0483 131.363 25.0123 131.262 34.8626C142.262 34.9757 142.869 34.9819 151.18 35.0674C151.293 24.0671 142.467 15.0579 131.467 14.9448Z" fill="#036F62"/>
<path d="M171.442 15.3559C171.328 26.4591 171.441 15.4588 171.328 26.4591C171.215 37.4594 171.338 25.4234 171.237 35.2737C160.237 35.1605 159.63 35.1542 151.319 35.0688C151.432 24.0686 160.442 15.2428 171.442 15.3559Z" fill="#036F62"/>
<rect width="7.65891" height="19.9188" transform="matrix(-0.0102822 0.999947 0.999947 0.0102822 131.261 34.8618)" fill="#036F62"/>
<rect x="171.235" y="35.2744" width="7.65891" height="19.9188" transform="rotate(90.5891 171.235 35.2744)" fill="#036F62"/>
<path d="M151.389 42.2769L152.062 3.18677" stroke="#FBF6F2" stroke-width="4.42572"/>
<circle cx="9.7876" cy="9.7876" r="9.7876" transform="matrix(0.0102822 -0.999947 -0.999947 -0.0102822 39.2871 238.7)" fill="#6CBDAA"/>
<circle cx="9.88772" cy="228.609" r="9.7876" transform="rotate(-89.4109 9.88772 228.609)" fill="#6CBDAA"/>
<rect width="33.454" height="19.5719" transform="matrix(0.0102822 -0.999947 -0.999947 -0.0102822 39.374 229.768)" fill="#6CBDAA"/>
<rect x="0.0957031" y="229.364" width="33.454" height="19.5719" transform="rotate(-89.4109 0.0957031 229.364)" fill="#6CBDAA"/>
<path d="M20.275 177.148C20.1628 188.058 20.2739 177.249 20.1628 188.058C20.0516 198.867 20.1732 187.04 20.0737 196.719C30.8824 196.83 31.479 196.836 39.6445 196.92C39.7557 186.112 31.0836 177.259 20.275 177.148Z" fill="#036F62"/>
<path d="M20.274 177.148C20.1618 188.058 20.273 177.249 20.1618 188.058C20.0507 198.866 20.1723 187.04 20.0728 196.719C9.26411 196.608 8.66753 196.601 0.501953 196.518C0.613096 185.709 9.46535 177.037 20.274 177.148Z" fill="#036F62"/>
<path d="M39.4321 224.017C39.5443 213.107 39.4331 223.916 39.5443 213.107C39.6554 202.298 39.5338 214.125 39.6333 204.446C28.8247 204.335 28.2281 204.329 20.0625 204.245C19.9514 215.053 28.6234 223.906 39.4321 224.017Z" fill="#036F62"/>
<path d="M0.154699 223.612C0.266882 212.702 0.155739 223.511 0.266882 212.702C0.378025 201.893 0.256417 213.72 0.355941 204.041C11.1646 204.152 11.7612 204.158 19.9268 204.242C19.8156 215.051 10.9634 223.723 0.154699 223.612Z" fill="#036F62"/>
<rect width="7.52551" height="19.5719" transform="matrix(0.0102822 -0.999947 -0.999947 -0.0102822 39.6348 204.446)" fill="#036F62"/>
<rect x="0.356445" y="204.041" width="7.52551" height="19.5719" transform="rotate(-89.4109 0.356445 204.041)" fill="#036F62"/>
<path d="M19.8574 197.161L19.1961 235.57" stroke="#FBF6F2" stroke-width="4.42572"/>
<circle cx="9.77993" cy="9.77993" r="9.77993" transform="matrix(-0.0102822 0.999947 0.999947 0.0102822 266.829 184.629)" fill="#6CBDAA"/>
<circle cx="296.202" cy="194.712" r="9.77993" transform="rotate(90.5891 296.202 194.712)" fill="#6CBDAA"/>
<rect width="33.4277" height="19.5565" transform="matrix(-0.0102822 0.999947 0.999947 0.0102822 266.739 193.554)" fill="#6CBDAA"/>
<rect x="305.987" y="193.959" width="33.4277" height="19.5565" transform="rotate(90.5891 305.987 193.959)" fill="#6CBDAA"/>
<path d="M285.826 246.133C285.938 235.232 285.827 246.032 285.938 235.232C286.049 224.432 285.928 236.249 286.027 226.578C275.227 226.466 274.631 226.46 266.472 226.376C266.361 237.177 275.026 246.022 285.826 246.133Z" fill="#036F62"/>
<path d="M285.825 246.133C285.938 235.232 285.827 246.032 285.938 235.232C286.049 224.432 285.927 236.249 286.027 226.578C296.827 226.689 297.423 226.695 305.582 226.779C305.471 237.579 296.626 246.244 285.825 246.133Z" fill="#036F62"/>
<path d="M266.683 199.302C266.571 210.203 266.682 199.403 266.571 210.203C266.46 221.003 266.581 209.186 266.482 218.857C277.282 218.968 277.878 218.974 286.037 219.058C286.148 208.258 277.483 199.413 266.683 199.302Z" fill="#036F62"/>
<path d="M305.929 199.706C305.817 210.607 305.928 199.807 305.817 210.607C305.706 221.407 305.828 209.59 305.728 219.261C294.928 219.15 294.332 219.144 286.173 219.06C286.284 208.26 295.129 199.595 305.929 199.706Z" fill="#036F62"/>
<rect width="7.51961" height="19.5565" transform="matrix(-0.0102822 0.999947 0.999947 0.0102822 266.479 218.856)" fill="#036F62"/>
<rect x="305.727" y="219.261" width="7.51961" height="19.5565" transform="rotate(90.5891 305.727 219.261)" fill="#036F62"/>
<path d="M286.241 226.136L286.902 187.757" stroke="#FBF6F2" stroke-width="4.42572"/>
</svg>
