<svg width="580" height="653" viewBox="0 0 580 653" fill="none" xmlns="http://www.w3.org/2000/svg">
<path d="M224.21 169.658C214.422 181.993 216.486 199.927 228.821 209.716C241.156 219.504 259.09 217.44 268.879 205.105C259.625 197.762 258.88 197.169 246.545 187.381C234.21 177.593 234.108 177.512 224.21 169.658Z" fill="#FE9973"/>
<path d="M289.189 36.9584C282.784 22.5727 265.931 16.1025 251.545 22.5068C237.159 28.911 230.689 45.7646 237.093 60.1503C247.886 55.3458 248.756 54.9592 263.141 48.5549C277.527 42.1506 277.645 42.0973 289.189 36.9584Z" fill="#FE9973"/>
<path d="M371.634 167.097C386.996 170.558 402.255 160.91 405.716 145.549C409.177 130.187 399.529 114.928 384.168 111.467C381.571 122.991 381.361 123.92 377.9 139.282C374.439 154.643 374.411 154.77 371.634 167.097Z" fill="#FE9973"/>
<path d="M210.972 110.827C195.532 113.92 185.523 128.943 188.615 144.384C191.708 159.824 206.732 169.833 222.172 166.74C219.852 155.157 219.666 154.224 216.573 138.783C213.48 123.343 213.454 123.216 210.972 110.827Z" fill="#F88256"/>
<path d="M347.467 52.448C351.872 37.3297 343.186 21.5035 328.068 17.0994C312.949 12.6953 297.123 21.381 292.719 36.4994C304.061 39.8033 304.975 40.0702 320.093 44.4743C335.211 48.8784 335.336 48.9141 347.467 52.448Z" fill="#F88256"/>
<path d="M324.389 204.569C333.88 217.135 351.76 219.627 364.325 210.136C376.89 200.646 379.383 182.766 369.892 170.2C360.466 177.32 359.705 177.893 347.14 187.384C334.575 196.875 334.472 196.954 324.389 204.569Z" fill="#F88256"/>
<path d="M294.699 126.702L224.197 169.693L268.851 205.129L294.699 126.702Z" fill="#FE9973"/>
<path d="M294.647 119.321L289.166 36.9273L237.087 60.1118L294.647 119.321Z" fill="#FE9973"/>
<path d="M302.331 122.255L371.672 167.095L384.201 111.483L302.331 122.255Z" fill="#FE9973"/>
<path d="M292.527 123.57L210.937 110.843L222.134 166.739L292.527 123.57Z" fill="#F88256"/>
<path d="M298.427 118.846L347.468 52.4097L292.737 36.4661L298.427 118.846Z" fill="#F88256"/>
<path d="M300.451 125.572L324.418 204.594L369.906 170.236L300.451 125.572Z" fill="#F88256"/>
<path d="M292.746 124.825L266.076 141.178L266.124 141.602L264.793 141.869C257.966 143.236 251.322 138.81 249.954 131.983C248.587 125.156 253.015 118.513 259.842 117.146L261.205 116.873L261.315 117.29L292.201 122.109L296.165 122.727L292.746 124.825Z" fill="#6697DC" stroke="#FBF6F2" stroke-width="2.95048"/>
<path d="M297.216 118.457L295.061 87.2472L294.662 87.0942L295.043 85.7906C296.99 79.106 303.989 75.2642 310.674 77.2116C317.358 79.1592 321.198 86.1584 319.251 92.8429L318.862 94.1781L318.441 94.0823L299.875 119.232L297.492 122.459L297.216 118.457Z" fill="#6697DC" stroke="#FBF6F2" stroke-width="2.95048"/>
<path d="M301.487 124.831L327.8 141.754L328.161 141.526L328.979 142.609C333.175 148.165 332.074 156.072 326.518 160.268C320.962 164.465 313.055 163.361 308.859 157.805L308.021 156.696L308.349 156.415L299.277 126.5L298.113 122.661L301.487 124.831Z" fill="#6697DC" stroke="#FBF6F2" stroke-width="2.95048"/>
<path d="M295.977 127.143L286.367 156.829L286.723 157.111L285.816 158.266C281.517 163.742 273.591 164.698 268.114 160.398C262.637 156.099 261.682 148.173 265.981 142.696L266.696 141.785L267.042 141.941L293.8 125.434L297.213 123.327L295.977 127.143Z" fill="#6697DC" stroke="#FBF6F2" stroke-width="2.95048"/>
<path d="M293.663 120.25L271.795 97.9921L271.38 98.1768L270.776 96.8391C267.911 90.4933 270.733 83.0248 277.078 80.1594C283.424 77.2942 290.893 80.1158 293.758 86.4615L294.235 87.5172L293.936 87.7517L296.186 119.111L296.474 123.111L293.663 120.25Z" fill="#6697DC" stroke="#FBF6F2" stroke-width="2.95048"/>
<path d="M302.174 120.911L333.088 116.677L333.188 116.234L334.622 116.549C341.422 118.044 345.724 124.769 344.23 131.57C342.736 138.37 336.01 142.672 329.21 141.178L328.079 140.929L328.069 140.55L301.58 123.615L298.2 121.455L302.174 120.911Z" fill="#6697DC" stroke="#FBF6F2" stroke-width="2.95048"/>
<path d="M144.827 585.224C148.14 600.338 163.078 609.904 178.191 606.591C193.305 603.277 202.871 588.339 199.558 573.226C188.22 575.711 187.306 575.911 172.192 579.224C157.078 582.538 156.954 582.566 144.827 585.224Z" fill="#FE9973"/>
<path d="M84.1372 453.337C69.2061 449.279 53.8129 458.094 49.7554 473.025C45.6979 487.956 54.5127 503.349 69.4437 507.407C72.4877 496.205 72.7336 495.303 76.791 480.372C80.8485 465.441 80.8814 465.317 84.1372 453.337Z" fill="#FE9973"/>
<path d="M234.431 471.38C246.607 461.832 248.737 444.222 239.189 432.047C229.641 419.871 212.031 417.741 199.856 427.289C207.019 436.423 207.595 437.159 217.143 449.335C226.691 461.51 226.77 461.61 234.431 471.38Z" fill="#FE9973"/>
<path d="M91.8084 558.77C84.5746 572.447 89.7981 589.399 103.475 596.633C117.153 603.867 134.105 598.643 141.339 584.966C131.078 579.539 130.251 579.101 116.574 571.867C102.896 564.634 102.783 564.574 91.8084 558.77Z" fill="#F88256"/>
<path d="M132.125 418.582C123.348 405.839 105.903 402.624 93.1608 411.401C80.4184 420.178 77.2035 437.622 85.9801 450.365C95.5395 443.781 96.3102 443.25 109.053 434.474C121.795 425.697 121.9 425.624 132.125 418.582Z" fill="#F88256"/>
<path d="M233.623 530.627C249.084 531.204 262.086 519.137 262.663 503.675C263.24 488.213 251.173 475.212 235.712 474.635C235.279 486.234 235.243 487.169 234.666 502.631C234.09 518.093 234.086 518.22 233.623 530.627Z" fill="#F88256"/>
<path d="M155.893 504.876L144.843 585.258L199.557 573.263L155.893 504.876Z" fill="#FE9973"/>
<path d="M150.24 500.332L84.0985 453.336L69.4098 507.389L150.24 500.332Z" fill="#FE9973"/>
<path d="M157.246 496.303L234.451 471.351L199.887 427.274L157.246 496.303Z" fill="#FE9973"/>
<path d="M152.16 504.584L91.8002 558.806L141.314 584.993L152.16 504.584Z" fill="#F88256"/>
<path d="M152.227 497.157L132.096 418.557L85.9659 450.329L152.227 497.157Z" fill="#F88256"/>
<path d="M158.606 499.795L233.66 530.621L235.748 474.647L158.606 499.795Z" fill="#F88256"/>
<path d="M153.275 505.201L149.166 535.649L149.525 535.879L148.891 537.079C145.686 543.139 138.174 545.455 132.114 542.249C126.053 539.044 123.74 531.532 126.945 525.472L127.595 524.242L127.989 524.421L150.826 503.907L153.811 501.226L153.275 505.201Z" fill="#6697DC" stroke="#FBF6F2" stroke-width="2.95048"/>
<path d="M151.163 497.861L126.074 480.128L125.704 480.34L124.934 479.222C121.046 473.576 122.469 465.846 128.115 461.957C133.761 458.068 141.491 459.494 145.38 465.14L146.169 466.286L145.828 466.552L153.444 496.29L154.44 500.176L151.163 497.861Z" fill="#6697DC" stroke="#FBF6F2" stroke-width="2.95048"/>
<path d="M158.677 498.52L187.888 488.999L187.939 488.575L189.296 488.626C196.146 488.882 201.494 494.642 201.239 501.493C200.983 508.344 195.221 513.69 188.37 513.435L186.98 513.384L186.97 512.95L158.574 501.288L154.863 499.763L158.677 498.52Z" fill="#6697DC" stroke="#FBF6F2" stroke-width="2.95048"/>
<path d="M157.045 504.162L173.67 529.901L174.113 529.804L174.435 531.235C175.939 537.924 171.735 544.567 165.046 546.07C158.358 547.574 151.715 543.37 150.211 536.681L149.957 535.551L150.297 535.382L154.343 504.77L154.869 500.793L157.045 504.162Z" fill="#6697DC" stroke="#FBF6F2" stroke-width="2.95048"/>
<path d="M150.339 501.684L119.828 504.509L119.709 504.947L118.292 504.57C111.667 502.808 107.724 496.007 109.486 489.382C111.249 482.757 118.05 478.814 124.675 480.577L125.795 480.875L125.787 481.254L151.051 499.007L154.333 501.314L150.339 501.684Z" fill="#6697DC" stroke="#FBF6F2" stroke-width="2.95048"/>
<path d="M156.104 495.574L172.07 469.421L171.79 469.064L172.939 468.152C178.311 463.893 186.12 464.795 190.379 470.167C194.638 475.54 193.736 483.349 188.364 487.608L187.456 488.328L187.156 488.095L157.824 497.744L154.014 498.997L156.104 495.574Z" fill="#6697DC" stroke="#FBF6F2" stroke-width="2.95048"/>
<path d="M435.201 221.481C440.367 206.909 456.367 199.284 470.939 204.449C485.511 209.615 493.136 225.615 487.971 240.187C477.039 236.312 476.158 236 461.586 230.835C447.014 225.669 446.894 225.626 435.201 221.481Z" fill="#FE9973"/>
<path d="M358.622 344.689C343.314 346.854 329.149 336.2 326.984 320.892C324.819 305.584 335.474 291.419 350.782 289.254C352.406 300.738 352.537 301.664 354.702 316.972C356.867 332.28 356.884 332.406 358.622 344.689Z" fill="#FE9973"/>
<path d="M509.874 345.501C520.757 356.482 520.678 374.206 509.697 385.09C498.716 395.973 480.992 395.894 470.109 384.913C478.347 376.748 479.01 376.09 489.991 365.207C500.972 354.323 501.063 354.234 509.874 345.501Z" fill="#FE9973"/>
<path d="M379.345 241.113C373.875 226.653 381.163 210.496 395.623 205.026C410.084 199.556 426.241 206.844 431.711 221.304C420.863 225.408 419.989 225.739 405.528 231.209C391.068 236.679 390.948 236.724 379.345 241.113Z" fill="#F88256"/>
<path d="M401.872 385.117C391.585 396.658 373.889 397.675 362.348 387.388C350.807 377.101 349.79 359.406 360.077 347.865C368.735 355.582 369.433 356.203 380.975 366.49C392.516 376.777 392.611 376.863 401.872 385.117Z" fill="#F88256"/>
<path d="M516.443 286.66C531.844 288.012 543.234 301.593 541.882 316.994C540.53 332.395 526.949 343.785 511.548 342.433C512.562 330.879 512.643 329.948 513.995 314.546C515.347 299.145 515.358 299.018 516.443 286.66Z" fill="#F88256"/>
<path d="M436.176 302.52L435.223 221.451L487.975 240.151L436.176 302.52Z" fill="#FE9973"/>
<path d="M430.006 306.321L358.583 344.685L350.746 289.268L430.006 306.321Z" fill="#FE9973"/>
<path d="M436.451 311.188L509.891 345.532L470.139 384.931L436.451 311.188Z" fill="#FE9973"/>
<path d="M432.437 302.344L379.34 241.076L431.689 221.273L432.437 302.344Z" fill="#F88256"/>
<path d="M431.58 309.716L401.842 385.139L360.06 347.898L431.58 309.716Z" fill="#F88256"/>
<path d="M438.233 307.896L516.48 286.672L511.586 342.427L438.233 307.896Z" fill="#F88256"/>
<path d="M433.622 301.871L433.338 271.174L433.723 270.99L433.243 269.721C430.819 263.313 423.659 260.082 417.251 262.506C410.843 264.93 407.614 272.091 410.038 278.499L410.53 279.799L410.943 279.671L431.032 302.851L433.659 305.882L433.622 301.871Z" fill="#6697DC" stroke="#FBF6F2" stroke-width="2.95048"/>
<path d="M430.612 308.885L403.532 323.343L403.191 323.087L402.288 324.1C397.729 329.214 398.179 337.057 403.293 341.615C408.408 346.174 416.25 345.722 420.808 340.608L421.733 339.569L421.429 339.263L432.679 310.727L434.151 306.996L430.612 308.885Z" fill="#6697DC" stroke="#FBF6F2" stroke-width="2.95048"/>
<path d="M438.146 309.168L465.92 322.243L465.918 322.669L467.27 322.788C474.095 323.387 480.115 318.34 480.714 311.516C481.313 304.691 476.264 298.673 469.44 298.074L468.055 297.952L467.991 298.379L438.387 306.41L434.516 307.46L438.146 309.168Z" fill="#6697DC" stroke="#FBF6F2" stroke-width="2.95048"/>
<path d="M437.23 303.372L456.915 279.922L457.342 280.074L457.84 278.693C460.163 272.248 456.821 265.14 450.377 262.816C443.932 260.493 436.822 263.835 434.499 270.28L434.106 271.37L434.423 271.579L434.624 302.432L434.651 306.443L437.23 303.372Z" fill="#6697DC" stroke="#FBF6F2" stroke-width="2.95048"/>
<path d="M430.273 304.992L400.376 298.394L400.313 297.945L398.858 298.143C392.07 299.066 387.315 305.318 388.238 312.106C389.162 318.895 395.415 323.651 402.203 322.727L403.35 322.571L403.39 322.193L430.647 307.736L434.19 305.856L430.273 304.992Z" fill="#6697DC" stroke="#FBF6F2" stroke-width="2.95048"/>
<path d="M435.226 311.768L447.801 339.683L447.479 340.002L448.507 341.05C453.303 345.941 461.158 346.018 466.049 341.222C470.94 336.425 471.017 328.569 466.221 323.678L465.409 322.851L465.083 323.045L437.204 309.829L433.579 308.111L435.226 311.768Z" fill="#6697DC" stroke="#FBF6F2" stroke-width="2.95048"/>
</svg>
