<svg width="201" height="201" viewBox="0 0 201 201" fill="none" xmlns="http://www.w3.org/2000/svg">
<rect width="200.744" height="186.17" rx="32" fill="#FA8052"/>
<path d="M40.0175 110.278C40.0175 104.902 40.0175 99.4618 40.0175 93.9578C40.0175 88.4538 40.0175 83.0138 40.0175 77.6378C42.0015 77.6378 43.9855 77.6378 45.9695 77.6378C47.9855 77.6378 49.9695 77.6378 51.9215 77.6378C54.3855 77.6378 56.5295 78.1178 58.3535 79.0778C60.1775 80.0058 61.6015 81.3178 62.6255 83.0138C63.6495 84.7098 64.1615 86.6938 64.1615 88.9658C64.1615 91.2058 63.6495 93.1738 62.6255 94.8698C61.6335 96.5658 60.2575 97.8778 58.4975 98.8058C56.7695 99.7338 54.8015 100.198 52.5935 100.198C51.8895 100.198 51.1855 100.198 50.4815 100.198C49.8095 100.198 49.1215 100.198 48.4175 100.198C48.4175 101.862 48.4175 103.542 48.4175 105.238C48.4175 106.934 48.4175 108.614 48.4175 110.278C47.0415 110.278 45.6495 110.278 44.2415 110.278C42.8335 110.278 41.4255 110.278 40.0175 110.278ZM51.9215 85.1738C51.3455 85.1738 50.7535 85.1738 50.1455 85.1738C49.5695 85.1738 48.9935 85.1738 48.4175 85.1738C48.4175 86.4538 48.4175 87.7498 48.4175 89.0618C48.4175 90.3418 48.4175 91.6218 48.4175 92.9018C49.0575 92.9018 49.7135 92.9018 50.3855 92.9018C51.0895 92.9018 51.7615 92.9018 52.4015 92.9018C53.3935 92.9018 54.1935 92.5338 54.8015 91.7978C55.4415 91.0618 55.7615 90.1498 55.7615 89.0618C55.7615 87.9418 55.4255 87.0138 54.7535 86.2778C54.0815 85.5418 53.1375 85.1738 51.9215 85.1738ZM83.8475 110.278C83.8475 110.022 83.8475 109.782 83.8475 109.558C83.8475 109.302 83.8475 109.062 83.8475 108.838C83.0475 109.51 82.1355 110.022 81.1115 110.374C80.1195 110.758 79.0475 110.95 77.8955 110.95C76.2635 110.95 74.7275 110.646 73.2875 110.038C71.8475 109.398 70.5675 108.502 69.4475 107.35C68.3595 106.166 67.4955 104.774 66.8555 103.174C66.2475 101.574 65.9435 99.7978 65.9435 97.8458C65.9435 95.8618 66.2475 94.0698 66.8555 92.4698C67.4955 90.8698 68.3595 89.5098 69.4475 88.3898C70.5675 87.2378 71.8475 86.3578 73.2875 85.7498C74.7275 85.1098 76.2475 84.7898 77.8475 84.7898C78.9995 84.7898 80.0875 84.9818 81.1115 85.3658C82.1355 85.7178 83.0475 86.2138 83.8475 86.8538C83.8475 86.5978 83.8475 86.3578 83.8475 86.1338C83.8475 85.9098 83.8475 85.6858 83.8475 85.4618C85.1595 85.4618 86.4875 85.4618 87.8315 85.4618C89.1755 85.4618 90.4875 85.4618 91.7675 85.4618C91.7675 89.5578 91.7675 93.7018 91.7675 97.8938C91.7675 102.054 91.7675 106.182 91.7675 110.278C90.4875 110.278 89.1755 110.278 87.8315 110.278C86.4875 110.278 85.1595 110.278 83.8475 110.278ZM78.9515 103.942C80.4875 103.942 81.7195 103.382 82.6475 102.262C83.5755 101.142 84.0395 99.6698 84.0395 97.8458C84.0395 96.0218 83.5755 94.5658 82.6475 93.4778C81.7195 92.3578 80.4875 91.7978 78.9515 91.7978C77.3835 91.7978 76.1355 92.3418 75.2075 93.4298C74.3115 94.5178 73.8635 95.9898 73.8635 97.8458C73.8635 99.7018 74.3115 101.19 75.2075 102.31C76.1355 103.398 77.3835 103.942 78.9515 103.942ZM97.0531 110.278C97.0531 106.182 97.0531 102.054 97.0531 97.8938C97.0531 93.7018 97.0531 89.5578 97.0531 85.4618C98.3651 85.4618 99.6931 85.4618 101.037 85.4618C102.381 85.4618 103.693 85.4618 104.973 85.4618C104.973 85.6858 104.973 85.8938 104.973 86.0858C104.973 86.2778 104.973 86.4858 104.973 86.7098C105.837 86.1018 106.797 85.6378 107.853 85.3178C108.941 84.9658 110.109 84.7898 111.357 84.7898C113.181 84.7898 114.781 85.2058 116.157 86.0378C117.565 86.8698 118.653 88.0698 119.421 89.6378C120.221 91.1738 120.621 93.0298 120.621 95.2058C120.621 97.7018 120.621 100.214 120.621 102.742C120.621 105.27 120.621 107.782 120.621 110.278C119.341 110.278 118.029 110.278 116.685 110.278C115.341 110.278 114.013 110.278 112.701 110.278C112.701 107.974 112.701 105.638 112.701 103.27C112.701 100.902 112.701 98.5658 112.701 96.2618C112.701 94.9818 112.397 93.9578 111.789 93.1898C111.213 92.3898 110.285 91.9898 109.005 91.9898C107.725 91.9898 106.733 92.3578 106.029 93.0938C105.325 93.8298 104.973 94.8858 104.973 96.2618C104.973 98.5658 104.973 100.902 104.973 103.27C104.973 105.638 104.973 107.974 104.973 110.278C103.693 110.278 102.381 110.278 101.037 110.278C99.6931 110.278 98.3651 110.278 97.0531 110.278ZM144.466 102.598C144.466 104.582 143.906 106.214 142.786 107.494C141.698 108.742 140.226 109.654 138.37 110.23C136.514 110.806 134.434 111.046 132.13 110.95C129.858 110.886 127.538 110.518 125.17 109.846C125.17 108.63 125.17 107.382 125.17 106.102C125.17 104.822 125.17 103.574 125.17 102.358C126.514 102.966 127.858 103.446 129.202 103.798C130.546 104.118 131.762 104.31 132.85 104.374C133.938 104.438 134.818 104.358 135.49 104.134C136.162 103.878 136.498 103.462 136.498 102.886C136.498 102.438 136.21 102.086 135.634 101.83C135.09 101.574 134.37 101.35 133.474 101.158C132.578 100.934 131.618 100.678 130.594 100.39C129.602 100.07 128.658 99.6378 127.762 99.0938C126.866 98.5178 126.13 97.7658 125.554 96.8378C125.01 95.8778 124.738 94.6458 124.738 93.1418C124.738 91.3498 125.25 89.8298 126.274 88.5818C127.33 87.3018 128.738 86.3418 130.498 85.7018C132.258 85.0298 134.226 84.6938 136.402 84.6938C138.578 84.6938 140.802 85.0618 143.074 85.7978C143.074 87.0138 143.074 88.2618 143.074 89.5418C143.074 90.8218 143.074 92.0698 143.074 93.2858C141.282 92.4218 139.602 91.8458 138.034 91.5578C136.466 91.2698 135.202 91.2378 134.242 91.4618C133.282 91.6538 132.802 92.0858 132.802 92.7578C132.802 93.2058 133.074 93.5578 133.618 93.8138C134.194 94.0378 134.914 94.2458 135.778 94.4378C136.674 94.6298 137.618 94.8858 138.61 95.2058C139.634 95.5258 140.578 95.9738 141.442 96.5498C142.338 97.0938 143.058 97.8618 143.602 98.8538C144.178 99.8138 144.466 101.062 144.466 102.598ZM150.591 117.958C151.231 116.262 151.887 114.55 152.559 112.822C153.263 111.126 153.935 109.446 154.575 107.782C153.071 104.102 151.535 100.39 149.967 96.6458C148.431 92.8698 146.911 89.1418 145.407 85.4618C146.815 85.4618 148.223 85.4618 149.631 85.4618C151.039 85.4618 152.431 85.4618 153.807 85.4618C154.639 87.5098 155.471 89.5898 156.303 91.7018C157.167 93.8138 158.015 95.9098 158.847 97.9898C159.615 95.9098 160.399 93.8138 161.199 91.7018C161.999 89.5898 162.783 87.5098 163.551 85.4618C164.927 85.4618 166.303 85.4618 167.679 85.4618C169.055 85.4618 170.431 85.4618 171.807 85.4618C169.663 90.8058 167.503 96.2298 165.327 101.734C163.183 107.206 161.039 112.614 158.895 117.958C157.519 117.958 156.127 117.958 154.719 117.958C153.343 117.958 151.967 117.958 150.591 117.958Z" fill="#FBF6F2"/>
</svg>
