<svg width="309" height="239" viewBox="0 0 309 239" fill="none" xmlns="http://www.w3.org/2000/svg">
<rect x="239.984" y="230.281" width="21.1844" height="8.11035" fill="#FFB1B1"/>
<rect x="260.965" y="55.7754" width="21.1844" height="8.11035" transform="rotate(90.1729 260.965 55.7754)" fill="#FFB1B1"/>
<rect x="261.168" y="124.804" width="21.1844" height="8.11035" transform="rotate(90.1729 261.168 124.804)" fill="#FFB1B1"/>
<rect x="260.965" y="21.5581" width="21.1844" height="8.11035" transform="rotate(90.1729 260.965 21.5581)" fill="#FFB1B1"/>
<rect x="261.168" y="90.5869" width="21.1844" height="8.11035" transform="rotate(90.1729 261.168 90.5869)" fill="#FFB1B1"/>
<rect x="261.168" y="160.021" width="21.1844" height="8.11035" transform="rotate(90.1729 261.168 160.021)" fill="#FFB1B1"/>
<rect x="261.168" y="195.666" width="21.1844" height="8.11035" transform="rotate(90.1729 261.168 195.666)" fill="#FFB1B1"/>
<rect x="252.567" width="21.1844" height="8.11035" fill="#FFB1B1"/>
<rect x="172.434" y="229.946" width="21.1844" height="8.11035" fill="#FFB1B1"/>
<rect x="102.056" y="229.612" width="21.1844" height="8.11035" fill="#FFB1B1"/>
<rect x="32.6777" y="229.612" width="21.1844" height="8.11035" fill="#FFB1B1"/>
<rect y="229.612" width="21.1844" height="8.11035" fill="#FFB1B1"/>
<rect x="287.036" y="0.334473" width="21.1844" height="8.11035" fill="#FFB1B1"/>
<rect x="206.902" y="230.281" width="21.1844" height="8.11035" fill="#FFB1B1"/>
<rect x="136.524" y="229.946" width="21.1844" height="8.11035" fill="#FFB1B1"/>
<rect x="67.1465" y="229.946" width="21.1844" height="8.11035" fill="#FFB1B1"/>
</svg>
