<svg width="237" height="76" viewBox="0 0 237 76" fill="none" xmlns="http://www.w3.org/2000/svg">
<rect width="21.1844" height="8.11035" transform="matrix(1 0 0 -1 36 8.38965)" fill="#FFB1B1"/>
<rect width="21.1844" height="8.11035" transform="matrix(1 0 0 -1 72 8.38965)" fill="#FFB1B1"/>
<rect width="21.1844" height="8.11035" transform="matrix(1 0 0 -1 0 8.11035)" fill="#FFB1B1"/>
<rect width="21.1844" height="8.11035" transform="matrix(1 0 0 -1 107 8.38965)" fill="#FFB1B1"/>
<rect width="21.1844" height="8.11035" transform="matrix(-0.00301799 -0.999995 -0.999995 0.00301799 235.314 41.9219)" fill="#FFB1B1"/>
<rect width="21.1844" height="8.11035" transform="matrix(-0.00301799 -0.999995 -0.999995 0.00301799 236.245 75.5664)" fill="#FFB1B1"/>
<rect width="21.1844" height="8.11035" transform="matrix(1 0 0 -1 140.945 8.88916)" fill="#FFB1B1"/>
<rect width="21.1844" height="8.11035" transform="matrix(1 0 0 -1 179.412 8.88916)" fill="#FFB1B1"/>
<rect width="21.1844" height="8.11035" transform="matrix(1 0 0 -1 214.68 8.88916)" fill="#FFB1B1"/>
</svg>
