<svg width="399" height="205" viewBox="0 0 399 205" fill="none" xmlns="http://www.w3.org/2000/svg">
<rect width="381.266" height="193.205" rx="39.1559" transform="matrix(-1 0 0 1 381.268 11.6699)" fill="white"/>
<rect width="59.1352" height="97.2509" transform="matrix(-1 0 0 1 381.268 107.624)" fill="white"/>
<rect width="59.1352" height="97.2509" transform="matrix(-1 0 0 1 59.1367 11.6699)" fill="white"/>
<path d="M0.000976562 76.3506H381.267V37.3761C381.267 16.7339 364.533 7.62939e-05 343.891 7.62939e-05H0.000976562V76.3506Z" fill="#FFB1B1"/>
<path opacity="0.8" d="M27.0643 55.5405C27.0643 50.1645 27.0643 44.7245 27.0643 39.2205C27.0643 33.7165 27.0643 28.2765 27.0643 22.9005C29.0483 22.9005 31.0483 22.9005 33.0643 22.9005C35.0803 22.9005 37.0803 22.9005 39.0643 22.9005C39.9923 26.1645 40.9043 29.4765 41.8003 32.8365C42.7283 36.1645 43.6403 39.4605 44.5363 42.7245C45.4323 39.4605 46.3283 36.1645 47.2243 32.8365C48.1523 29.4765 49.0643 26.1645 49.9603 22.9005C51.9443 22.9005 53.9283 22.9005 55.9123 22.9005C57.8963 22.9005 59.8643 22.9005 61.8163 22.9005C61.8483 28.2765 61.8803 33.7165 61.9123 39.2205C61.9443 44.7245 61.9763 50.1645 62.0083 55.5405C60.6643 55.5405 59.3043 55.5405 57.9283 55.5405C56.5843 55.5405 55.2403 55.5405 53.8963 55.5405C53.8963 51.8925 53.8963 48.2125 53.8963 44.5005C53.8963 40.7565 53.8963 37.0605 53.8963 33.4125C52.9363 37.0605 51.9603 40.7565 50.9683 44.5005C49.9763 48.2125 49.0003 51.8925 48.0403 55.5405C46.8563 55.5405 45.6403 55.5405 44.3923 55.5405C43.1763 55.5405 41.9603 55.5405 40.7443 55.5405C39.7843 51.9565 38.8243 48.3405 37.8643 44.6925C36.9043 41.0125 35.9443 37.3805 34.9843 33.7965C34.9843 37.3805 34.9843 41.0125 34.9843 44.6925C34.9843 48.3405 34.9843 51.9565 34.9843 55.5405C33.7043 55.5405 32.3923 55.5405 31.0483 55.5405C29.7043 55.5405 28.3763 55.5405 27.0643 55.5405ZM90.9715 30.7245C90.9715 34.8205 90.9715 38.9645 90.9715 43.1565C90.9715 47.3165 90.9715 51.4445 90.9715 55.5405C89.6915 55.5405 88.3795 55.5405 87.0355 55.5405C85.6915 55.5405 84.3635 55.5405 83.0515 55.5405C83.0515 55.3165 83.0515 55.1085 83.0515 54.9165C83.0515 54.7245 83.0515 54.5165 83.0515 54.2925C82.1875 54.9005 81.2115 55.3645 80.1235 55.6845C79.0675 56.0365 77.9155 56.2125 76.6675 56.2125C74.8435 56.2125 73.2275 55.7965 71.8195 54.9645C70.4435 54.1325 69.3555 52.9325 68.5555 51.3645C67.7875 49.7965 67.4035 47.9405 67.4035 45.7965C67.4035 43.3005 67.4035 40.7885 67.4035 38.2605C67.4035 35.7325 67.4035 33.2205 67.4035 30.7245C68.7155 30.7245 70.0435 30.7245 71.3875 30.7245C72.7315 30.7245 74.0435 30.7245 75.3235 30.7245C75.3235 33.0285 75.3235 35.3645 75.3235 37.7325C75.3235 40.1005 75.3235 42.4365 75.3235 44.7405C75.3235 46.0205 75.6115 47.0605 76.1875 47.8605C76.7955 48.6285 77.7395 49.0125 79.0195 49.0125C80.2995 49.0125 81.2915 48.6445 81.9955 47.9085C82.6995 47.1725 83.0515 46.1165 83.0515 44.7405C83.0515 42.4365 83.0515 40.1005 83.0515 37.7325C83.0515 35.3645 83.0515 33.0285 83.0515 30.7245C84.3635 30.7245 85.6915 30.7245 87.0355 30.7245C88.3795 30.7245 89.6915 30.7245 90.9715 30.7245ZM115.201 47.8605C115.201 49.8445 114.641 51.4765 113.521 52.7565C112.433 54.0045 110.961 54.9165 109.105 55.4925C107.249 56.0685 105.169 56.3085 102.865 56.2125C100.593 56.1485 98.2726 55.7805 95.9046 55.1085C95.9046 53.8925 95.9046 52.6445 95.9046 51.3645C95.9046 50.0845 95.9046 48.8365 95.9046 47.6205C97.2486 48.2285 98.5926 48.7085 99.9366 49.0605C101.281 49.3805 102.497 49.5725 103.585 49.6365C104.673 49.7005 105.553 49.6205 106.225 49.3965C106.897 49.1405 107.233 48.7245 107.233 48.1485C107.233 47.7005 106.945 47.3485 106.369 47.0925C105.825 46.8365 105.105 46.6125 104.209 46.4205C103.313 46.1965 102.353 45.9405 101.329 45.6525C100.337 45.3325 99.3926 44.9005 98.4966 44.3565C97.6006 43.7805 96.8646 43.0285 96.2886 42.1005C95.7446 41.1405 95.4726 39.9085 95.4726 38.4045C95.4726 36.6125 95.9846 35.0925 97.0086 33.8445C98.0646 32.5645 99.4726 31.6045 101.233 30.9645C102.993 30.2925 104.961 29.9565 107.137 29.9565C109.313 29.9565 111.537 30.3245 113.809 31.0605C113.809 32.2765 113.809 33.5245 113.809 34.8045C113.809 36.0845 113.809 37.3325 113.809 38.5485C112.017 37.6845 110.337 37.1085 108.769 36.8205C107.201 36.5325 105.937 36.5005 104.977 36.7245C104.017 36.9165 103.537 37.3485 103.537 38.0205C103.537 38.4685 103.809 38.8205 104.353 39.0765C104.929 39.3005 105.649 39.5085 106.513 39.7005C107.409 39.8925 108.353 40.1485 109.345 40.4685C110.369 40.7885 111.313 41.2365 112.177 41.8125C113.073 42.3565 113.793 43.1245 114.337 44.1165C114.913 45.0765 115.201 46.3245 115.201 47.8605ZM123.246 27.8925C122.318 27.8925 121.47 27.6685 120.702 27.2205C119.966 26.7725 119.374 26.1805 118.926 25.4445C118.478 24.7085 118.254 23.8925 118.254 22.9965C118.254 22.1005 118.478 21.3005 118.926 20.5965C119.374 19.8605 119.966 19.2685 120.702 18.8205C121.47 18.3725 122.318 18.1485 123.246 18.1485C124.142 18.1485 124.958 18.3725 125.694 18.8205C126.462 19.2685 127.07 19.8605 127.518 20.5965C127.966 21.3005 128.19 22.1005 128.19 22.9965C128.19 23.8925 127.966 24.7085 127.518 25.4445C127.07 26.1805 126.462 26.7725 125.694 27.2205C124.958 27.6685 124.142 27.8925 123.246 27.8925ZM119.262 55.5405C119.262 51.4445 119.262 47.3165 119.262 43.1565C119.262 38.9645 119.262 34.8205 119.262 30.7245C120.574 30.7245 121.902 30.7245 123.246 30.7245C124.59 30.7245 125.902 30.7245 127.182 30.7245C127.182 34.8205 127.182 38.9645 127.182 43.1565C127.182 47.3165 127.182 51.4445 127.182 55.5405C125.902 55.5405 124.59 55.5405 123.246 55.5405C121.902 55.5405 120.574 55.5405 119.262 55.5405ZM131.365 43.1085C131.365 40.6765 131.861 38.5485 132.853 36.7245C133.845 34.8685 135.221 33.3805 136.981 32.2605C138.741 31.1405 140.789 30.4685 143.125 30.2445C145.461 29.9885 147.957 30.2605 150.613 31.0605C150.613 32.2765 150.613 33.5085 150.613 34.7565C150.613 36.0045 150.613 37.2365 150.613 38.4525C148.757 37.5565 146.981 37.1405 145.285 37.2045C143.589 37.2685 142.197 37.7965 141.109 38.7885C140.021 39.7485 139.477 41.1885 139.477 43.1085C139.477 45.0285 140.021 46.4845 141.109 47.4765C142.197 48.4365 143.589 48.9485 145.285 49.0125C146.981 49.0445 148.757 48.6285 150.613 47.7645C150.613 48.9805 150.613 50.2125 150.613 51.4605C150.613 52.7085 150.613 53.9405 150.613 55.1565C147.957 55.9565 145.461 56.2285 143.125 55.9725C140.789 55.7485 138.741 55.0765 136.981 53.9565C135.221 52.8365 133.845 51.3645 132.853 49.5405C131.861 47.6845 131.365 45.5405 131.365 43.1085ZM192.448 53.8125C189.12 55.1565 186.016 55.9245 183.136 56.1165C180.288 56.3405 177.712 56.0845 175.408 55.3485C173.104 54.5805 171.136 53.4285 169.504 51.8925C167.872 50.3565 166.624 48.5325 165.76 46.4205C164.896 44.3085 164.464 42.0045 164.464 39.5085C164.464 37.0445 164.864 34.7725 165.664 32.6925C166.464 30.5805 167.632 28.7565 169.168 27.2205C170.736 25.6845 172.624 24.4845 174.832 23.6205C177.04 22.7565 179.552 22.3405 182.368 22.3725C185.184 22.3725 188.272 22.8845 191.632 23.9085C191.632 25.2525 191.632 26.6125 191.632 27.9885C191.632 29.3325 191.632 30.6765 191.632 32.0205C188.976 30.9645 186.512 30.3565 184.24 30.1965C182 30.0365 180.032 30.2765 178.336 30.9165C176.672 31.5565 175.36 32.5805 174.4 33.9885C173.472 35.3645 173.008 37.0925 173.008 39.1725C173.008 40.9965 173.344 42.6125 174.016 44.0205C174.72 45.4285 175.696 46.5325 176.944 47.3325C178.192 48.1325 179.616 48.5325 181.216 48.5325C181.76 48.5325 182.304 48.5165 182.848 48.4845C183.392 48.4205 183.92 48.3245 184.432 48.1965C184.432 47.3645 184.432 46.5165 184.432 45.6525C184.432 44.7885 184.432 43.9405 184.432 43.1085C183.536 43.1085 182.64 43.1085 181.744 43.1085C180.848 43.1085 179.952 43.1085 179.056 43.1085C179.056 41.9245 179.056 40.7405 179.056 39.5565C179.056 38.3405 179.056 37.1405 179.056 35.9565C181.264 35.9565 183.488 35.9565 185.728 35.9565C188 35.9565 190.24 35.9565 192.448 35.9565C192.448 38.9005 192.448 41.8765 192.448 44.8845C192.448 47.8925 192.448 50.8685 192.448 53.8125ZM219.413 54.3885C217.205 55.3165 215.013 55.8925 212.837 56.1165C210.661 56.3405 208.597 56.2125 206.645 55.7325C204.725 55.2845 203.013 54.5005 201.509 53.3805C200.005 52.2605 198.821 50.8365 197.957 49.1085C197.125 47.3805 196.709 45.3805 196.709 43.1085C196.709 41.2205 197.013 39.4925 197.621 37.9245C198.261 36.3245 199.157 34.9325 200.309 33.7485C201.461 32.5325 202.821 31.6045 204.389 30.9645C205.957 30.2925 207.669 29.9565 209.525 29.9565C211.189 29.9565 212.693 30.2285 214.037 30.7725C215.381 31.3165 216.549 32.0845 217.541 33.0765C218.533 34.0365 219.333 35.1885 219.941 36.5325C220.549 37.8765 220.933 39.3485 221.093 40.9485C221.253 42.5485 221.157 44.2445 220.805 46.0365C218.181 46.0365 215.541 46.0365 212.885 46.0365C210.229 46.0365 207.589 46.0365 204.965 46.0365C205.573 47.2525 206.581 48.1165 207.989 48.6285C209.429 49.1405 211.125 49.3005 213.077 49.1085C215.061 48.9165 217.173 48.4045 219.413 47.5725C219.413 48.6925 219.413 49.8285 219.413 50.9805C219.413 52.1325 219.413 53.2685 219.413 54.3885ZM209.333 37.0605C208.405 37.0605 207.541 37.3165 206.741 37.8285C205.973 38.3405 205.381 39.1245 204.965 40.1805C206.405 40.1805 207.845 40.1805 209.285 40.1805C210.757 40.1805 212.213 40.1805 213.653 40.1805C213.269 39.0925 212.693 38.3085 211.925 37.8285C211.189 37.3165 210.325 37.0605 209.333 37.0605ZM225.287 55.5405C225.287 51.4445 225.287 47.3165 225.287 43.1565C225.287 38.9645 225.287 34.8205 225.287 30.7245C226.599 30.7245 227.927 30.7245 229.271 30.7245C230.615 30.7245 231.927 30.7245 233.207 30.7245C233.207 30.9485 233.207 31.1565 233.207 31.3485C233.207 31.5405 233.207 31.7485 233.207 31.9725C234.071 31.3645 235.031 30.9005 236.087 30.5805C237.175 30.2285 238.343 30.0525 239.591 30.0525C241.415 30.0525 243.015 30.4685 244.391 31.3005C245.799 32.1325 246.887 33.3325 247.655 34.9005C248.455 36.4365 248.855 38.2925 248.855 40.4685C248.855 42.9645 248.855 45.4765 248.855 48.0045C248.855 50.5325 248.855 53.0445 248.855 55.5405C247.575 55.5405 246.263 55.5405 244.919 55.5405C243.575 55.5405 242.247 55.5405 240.935 55.5405C240.935 53.2365 240.935 50.9005 240.935 48.5325C240.935 46.1645 240.935 43.8285 240.935 41.5245C240.935 40.2445 240.631 39.2205 240.023 38.4525C239.447 37.6525 238.519 37.2525 237.239 37.2525C235.959 37.2525 234.967 37.6205 234.263 38.3565C233.559 39.0925 233.207 40.1485 233.207 41.5245C233.207 43.8285 233.207 46.1645 233.207 48.5325C233.207 50.9005 233.207 53.2365 233.207 55.5405C231.927 55.5405 230.615 55.5405 229.271 55.5405C227.927 55.5405 226.599 55.5405 225.287 55.5405ZM253.741 55.5405C253.741 51.4445 253.741 47.3165 253.741 43.1565C253.741 38.9645 253.741 34.8205 253.741 30.7245C255.053 30.7245 256.381 30.7245 257.725 30.7245C259.069 30.7245 260.381 30.7245 261.661 30.7245C261.661 30.9485 261.661 31.1725 261.661 31.3965C261.661 31.6205 261.661 31.8445 261.661 32.0685C262.653 31.3645 263.773 30.8365 265.021 30.4845C266.269 30.1325 267.629 30.0365 269.101 30.1965C269.101 31.4765 269.101 32.7725 269.101 34.0845C269.101 35.3965 269.101 36.6925 269.101 37.9725C266.573 37.6205 264.701 37.8445 263.485 38.6445C262.269 39.4125 261.661 40.6765 261.661 42.4365C261.661 44.5805 261.661 46.7565 261.661 48.9645C261.661 51.1725 261.661 53.3645 261.661 55.5405C260.381 55.5405 259.069 55.5405 257.725 55.5405C256.381 55.5405 255.053 55.5405 253.741 55.5405ZM293.804 54.3885C291.596 55.3165 289.404 55.8925 287.228 56.1165C285.052 56.3405 282.988 56.2125 281.036 55.7325C279.116 55.2845 277.404 54.5005 275.9 53.3805C274.396 52.2605 273.212 50.8365 272.348 49.1085C271.516 47.3805 271.1 45.3805 271.1 43.1085C271.1 41.2205 271.404 39.4925 272.012 37.9245C272.652 36.3245 273.548 34.9325 274.7 33.7485C275.852 32.5325 277.212 31.6045 278.78 30.9645C280.348 30.2925 282.06 29.9565 283.916 29.9565C285.58 29.9565 287.084 30.2285 288.428 30.7725C289.772 31.3165 290.94 32.0845 291.932 33.0765C292.924 34.0365 293.724 35.1885 294.332 36.5325C294.94 37.8765 295.324 39.3485 295.484 40.9485C295.644 42.5485 295.548 44.2445 295.196 46.0365C292.572 46.0365 289.932 46.0365 287.276 46.0365C284.62 46.0365 281.98 46.0365 279.356 46.0365C279.964 47.2525 280.972 48.1165 282.38 48.6285C283.82 49.1405 285.516 49.3005 287.468 49.1085C289.452 48.9165 291.564 48.4045 293.804 47.5725C293.804 48.6925 293.804 49.8285 293.804 50.9805C293.804 52.1325 293.804 53.2685 293.804 54.3885ZM283.724 37.0605C282.796 37.0605 281.932 37.3165 281.132 37.8285C280.364 38.3405 279.772 39.1245 279.356 40.1805C280.796 40.1805 282.236 40.1805 283.676 40.1805C285.148 40.1805 286.604 40.1805 288.044 40.1805C287.66 39.0925 287.084 38.3085 286.316 37.8285C285.58 37.3165 284.716 37.0605 283.724 37.0605ZM318.638 47.8605C318.638 49.8445 318.078 51.4765 316.958 52.7565C315.87 54.0045 314.398 54.9165 312.542 55.4925C310.686 56.0685 308.606 56.3085 306.302 56.2125C304.03 56.1485 301.71 55.7805 299.342 55.1085C299.342 53.8925 299.342 52.6445 299.342 51.3645C299.342 50.0845 299.342 48.8365 299.342 47.6205C300.686 48.2285 302.03 48.7085 303.374 49.0605C304.718 49.3805 305.934 49.5725 307.022 49.6365C308.11 49.7005 308.99 49.6205 309.662 49.3965C310.334 49.1405 310.67 48.7245 310.67 48.1485C310.67 47.7005 310.382 47.3485 309.806 47.0925C309.262 46.8365 308.542 46.6125 307.646 46.4205C306.75 46.1965 305.79 45.9405 304.766 45.6525C303.774 45.3325 302.83 44.9005 301.934 44.3565C301.038 43.7805 300.302 43.0285 299.726 42.1005C299.182 41.1405 298.91 39.9085 298.91 38.4045C298.91 36.6125 299.422 35.0925 300.446 33.8445C301.502 32.5645 302.91 31.6045 304.67 30.9645C306.43 30.2925 308.398 29.9565 310.574 29.9565C312.75 29.9565 314.974 30.3245 317.246 31.0605C317.246 32.2765 317.246 33.5245 317.246 34.8045C317.246 36.0845 317.246 37.3325 317.246 38.5485C315.454 37.6845 313.774 37.1085 312.206 36.8205C310.638 36.5325 309.374 36.5005 308.414 36.7245C307.454 36.9165 306.974 37.3485 306.974 38.0205C306.974 38.4685 307.246 38.8205 307.79 39.0765C308.366 39.3005 309.086 39.5085 309.95 39.7005C310.846 39.8925 311.79 40.1485 312.782 40.4685C313.806 40.7885 314.75 41.2365 315.614 41.8125C316.51 42.3565 317.23 43.1245 317.774 44.1165C318.35 45.0765 318.638 46.3245 318.638 47.8605Z" fill="white"/>
<path d="M187.77 180.155C187.77 177.467 187.77 174.747 187.77 171.995C187.77 169.243 187.77 166.523 187.77 163.835C188.73 163.835 189.69 163.835 190.65 163.835C191.626 163.835 192.594 163.835 193.554 163.835C194.77 163.835 195.834 164.067 196.746 164.531C197.658 164.979 198.362 165.619 198.858 166.451C199.37 167.267 199.626 168.227 199.626 169.331C199.626 170.275 199.434 171.115 199.05 171.851C198.666 172.587 198.146 173.187 197.49 173.651C198.13 174.723 198.77 175.811 199.41 176.915C200.066 178.003 200.714 179.083 201.354 180.155C200.57 180.155 199.786 180.155 199.002 180.155C198.218 180.155 197.434 180.155 196.65 180.155C196.154 179.259 195.65 178.347 195.138 177.419C194.642 176.491 194.138 175.579 193.626 174.683C193.354 174.683 193.074 174.683 192.786 174.683C192.514 174.683 192.242 174.683 191.97 174.683C191.97 175.579 191.97 176.491 191.97 177.419C191.97 178.347 191.97 179.259 191.97 180.155C191.282 180.155 190.586 180.155 189.882 180.155C189.178 180.155 188.474 180.155 187.77 180.155ZM193.554 167.627C193.298 167.627 193.034 167.627 192.762 167.627C192.506 167.627 192.242 167.627 191.97 167.627C191.97 168.219 191.97 168.811 191.97 169.403C191.97 169.995 191.97 170.587 191.97 171.179C192.274 171.179 192.578 171.179 192.882 171.179C193.186 171.179 193.49 171.179 193.794 171.179C194.274 171.179 194.666 171.011 194.97 170.675C195.274 170.323 195.426 169.899 195.426 169.403C195.426 168.891 195.258 168.467 194.922 168.131C194.602 167.795 194.146 167.627 193.554 167.627ZM208.082 180.539C207.154 180.539 206.29 180.379 205.49 180.059C204.69 179.723 203.994 179.259 203.402 178.667C202.81 178.059 202.346 177.355 202.01 176.555C201.69 175.755 201.53 174.883 201.53 173.939C201.53 172.995 201.69 172.123 202.01 171.323C202.346 170.523 202.81 169.827 203.402 169.235C203.994 168.643 204.69 168.187 205.49 167.867C206.29 167.531 207.154 167.363 208.082 167.363C209.026 167.363 209.89 167.531 210.674 167.867C211.474 168.187 212.17 168.643 212.762 169.235C213.354 169.827 213.81 170.523 214.13 171.323C214.466 172.123 214.634 172.995 214.634 173.939C214.634 174.883 214.466 175.755 214.13 176.555C213.81 177.355 213.354 178.059 212.762 178.667C212.17 179.259 211.474 179.723 210.674 180.059C209.89 180.379 209.026 180.539 208.082 180.539ZM208.082 176.963C208.866 176.963 209.49 176.683 209.954 176.123C210.434 175.547 210.674 174.819 210.674 173.939C210.674 173.043 210.434 172.323 209.954 171.779C209.49 171.219 208.866 170.939 208.082 170.939C207.298 170.939 206.666 171.219 206.186 171.779C205.722 172.323 205.49 173.043 205.49 173.939C205.49 174.819 205.722 175.547 206.186 176.123C206.666 176.683 207.298 176.963 208.082 176.963ZM216.592 180.155C216.592 178.107 216.592 176.043 216.592 173.963C216.592 171.867 216.592 169.795 216.592 167.747C217.248 167.747 217.912 167.747 218.584 167.747C219.256 167.747 219.912 167.747 220.552 167.747C220.552 167.859 220.552 167.963 220.552 168.059C220.552 168.155 220.552 168.259 220.552 168.371C220.968 168.067 221.432 167.835 221.944 167.675C222.456 167.499 222.984 167.411 223.528 167.411C224.12 167.411 224.664 167.515 225.16 167.723C225.656 167.915 226.08 168.203 226.432 168.587C226.944 168.219 227.52 167.931 228.16 167.723C228.816 167.515 229.488 167.411 230.176 167.411C231.152 167.411 231.992 167.611 232.696 168.011C233.416 168.411 233.968 168.979 234.352 169.715C234.752 170.451 234.952 171.339 234.952 172.379C234.952 173.659 234.952 174.955 234.952 176.267C234.952 177.579 234.952 178.875 234.952 180.155C234.312 180.155 233.656 180.155 232.984 180.155C232.312 180.155 231.648 180.155 230.992 180.155C230.992 178.955 230.992 177.739 230.992 176.507C230.992 175.275 230.992 174.059 230.992 172.859C230.992 172.315 230.864 171.875 230.608 171.539C230.368 171.187 229.976 171.011 229.432 171.011C228.904 171.011 228.488 171.179 228.184 171.515C227.896 171.835 227.752 172.283 227.752 172.859C227.752 174.059 227.752 175.275 227.752 176.507C227.752 177.739 227.752 178.955 227.752 180.155C227.112 180.155 226.456 180.155 225.784 180.155C225.112 180.155 224.448 180.155 223.792 180.155C223.792 178.955 223.792 177.739 223.792 176.507C223.792 175.275 223.792 174.059 223.792 172.859C223.792 172.315 223.664 171.875 223.408 171.539C223.168 171.187 222.776 171.011 222.232 171.011C221.704 171.011 221.288 171.179 220.984 171.515C220.696 171.835 220.552 172.283 220.552 172.859C220.552 174.059 220.552 175.275 220.552 176.507C220.552 177.739 220.552 178.955 220.552 180.155C219.912 180.155 219.256 180.155 218.584 180.155C217.912 180.155 217.248 180.155 216.592 180.155ZM245.685 180.155C245.685 180.027 245.685 179.907 245.685 179.795C245.685 179.667 245.685 179.547 245.685 179.435C245.285 179.771 244.829 180.027 244.317 180.203C243.821 180.395 243.285 180.491 242.709 180.491C241.893 180.491 241.125 180.339 240.405 180.035C239.685 179.715 239.045 179.267 238.485 178.691C237.941 178.099 237.509 177.403 237.189 176.603C236.885 175.803 236.733 174.915 236.733 173.939C236.733 172.947 236.885 172.051 237.189 171.251C237.509 170.451 237.941 169.771 238.485 169.211C239.045 168.635 239.685 168.195 240.405 167.891C241.125 167.571 241.885 167.411 242.685 167.411C243.261 167.411 243.805 167.507 244.317 167.699C244.829 167.875 245.285 168.123 245.685 168.443C245.685 168.315 245.685 168.195 245.685 168.083C245.685 167.971 245.685 167.859 245.685 167.747C246.341 167.747 247.005 167.747 247.677 167.747C248.349 167.747 249.005 167.747 249.645 167.747C249.645 169.795 249.645 171.867 249.645 173.963C249.645 176.043 249.645 178.107 249.645 180.155C249.005 180.155 248.349 180.155 247.677 180.155C247.005 180.155 246.341 180.155 245.685 180.155ZM243.237 176.987C244.005 176.987 244.621 176.707 245.085 176.147C245.549 175.587 245.781 174.851 245.781 173.939C245.781 173.027 245.549 172.299 245.085 171.755C244.621 171.195 244.005 170.915 243.237 170.915C242.453 170.915 241.829 171.187 241.365 171.731C240.917 172.275 240.693 173.011 240.693 173.939C240.693 174.867 240.917 175.611 241.365 176.171C241.829 176.715 242.453 176.987 243.237 176.987ZM252.288 180.155C252.288 178.107 252.288 176.043 252.288 173.963C252.288 171.867 252.288 169.795 252.288 167.747C252.944 167.747 253.608 167.747 254.28 167.747C254.952 167.747 255.608 167.747 256.248 167.747C256.248 167.859 256.248 167.963 256.248 168.059C256.248 168.155 256.248 168.259 256.248 168.371C256.68 168.067 257.16 167.835 257.688 167.675C258.232 167.499 258.816 167.411 259.44 167.411C260.352 167.411 261.152 167.619 261.84 168.035C262.544 168.451 263.088 169.051 263.472 169.835C263.872 170.603 264.072 171.531 264.072 172.619C264.072 173.867 264.072 175.123 264.072 176.387C264.072 177.651 264.072 178.907 264.072 180.155C263.432 180.155 262.776 180.155 262.104 180.155C261.432 180.155 260.768 180.155 260.112 180.155C260.112 179.003 260.112 177.835 260.112 176.651C260.112 175.467 260.112 174.299 260.112 173.147C260.112 172.507 259.96 171.995 259.656 171.611C259.368 171.211 258.904 171.011 258.264 171.011C257.624 171.011 257.128 171.195 256.776 171.563C256.424 171.931 256.248 172.459 256.248 173.147C256.248 174.299 256.248 175.467 256.248 176.651C256.248 177.835 256.248 179.003 256.248 180.155C255.608 180.155 254.952 180.155 254.28 180.155C253.608 180.155 252.944 180.155 252.288 180.155ZM267.81 180.155C267.81 178.683 267.81 177.203 267.81 175.715C267.81 174.227 267.81 172.755 267.81 171.299C267.49 171.299 267.162 171.299 266.826 171.299C266.506 171.299 266.186 171.299 265.866 171.299C265.866 170.707 265.866 170.115 265.866 169.523C265.866 168.931 265.866 168.339 265.866 167.747C266.186 167.747 266.506 167.747 266.826 167.747C267.162 167.747 267.49 167.747 267.81 167.747C267.81 167.187 267.81 166.635 267.81 166.091C267.81 165.531 267.81 164.979 267.81 164.435C268.466 164.435 269.13 164.435 269.802 164.435C270.474 164.435 271.13 164.435 271.77 164.435C271.77 164.979 271.77 165.531 271.77 166.091C271.77 166.635 271.77 167.187 271.77 167.747C272.138 167.747 272.514 167.747 272.898 167.747C273.282 167.747 273.658 167.747 274.026 167.747C274.026 168.339 274.026 168.931 274.026 169.523C274.026 170.115 274.026 170.707 274.026 171.299C273.658 171.299 273.282 171.299 272.898 171.299C272.514 171.299 272.138 171.299 271.77 171.299C271.77 172.755 271.77 174.227 271.77 175.715C271.77 177.203 271.77 178.683 271.77 180.155C271.13 180.155 270.474 180.155 269.802 180.155C269.13 180.155 268.466 180.155 267.81 180.155ZM278.048 166.331C277.584 166.331 277.16 166.219 276.776 165.995C276.408 165.771 276.112 165.475 275.888 165.107C275.664 164.739 275.552 164.331 275.552 163.883C275.552 163.435 275.664 163.035 275.888 162.683C276.112 162.315 276.408 162.019 276.776 161.795C277.16 161.571 277.584 161.459 278.048 161.459C278.496 161.459 278.904 161.571 279.272 161.795C279.656 162.019 279.96 162.315 280.184 162.683C280.408 163.035 280.52 163.435 280.52 163.883C280.52 164.331 280.408 164.739 280.184 165.107C279.96 165.475 279.656 165.771 279.272 165.995C278.904 166.219 278.496 166.331 278.048 166.331ZM276.056 180.155C276.056 178.107 276.056 176.043 276.056 173.963C276.056 171.867 276.056 169.795 276.056 167.747C276.712 167.747 277.376 167.747 278.048 167.747C278.72 167.747 279.376 167.747 280.016 167.747C280.016 169.795 280.016 171.867 280.016 173.963C280.016 176.043 280.016 178.107 280.016 180.155C279.376 180.155 278.72 180.155 278.048 180.155C277.376 180.155 276.712 180.155 276.056 180.155ZM282.108 173.939C282.108 172.723 282.356 171.659 282.852 170.747C283.348 169.819 284.036 169.075 284.916 168.515C285.796 167.955 286.82 167.619 287.988 167.507C289.156 167.379 290.404 167.515 291.732 167.915C291.732 168.523 291.732 169.139 291.732 169.763C291.732 170.387 291.732 171.003 291.732 171.611C290.804 171.163 289.916 170.955 289.068 170.987C288.22 171.019 287.524 171.283 286.98 171.779C286.436 172.259 286.164 172.979 286.164 173.939C286.164 174.899 286.436 175.627 286.98 176.123C287.524 176.603 288.22 176.859 289.068 176.891C289.916 176.907 290.804 176.699 291.732 176.267C291.732 176.875 291.732 177.491 291.732 178.115C291.732 178.739 291.732 179.355 291.732 179.963C290.404 180.363 289.156 180.499 287.988 180.371C286.82 180.259 285.796 179.923 284.916 179.363C284.036 178.803 283.348 178.067 282.852 177.155C282.356 176.227 282.108 175.155 282.108 173.939ZM299.473 180.155C299.473 177.467 299.473 174.747 299.473 171.995C299.473 169.243 299.473 166.523 299.473 163.835C300.465 163.835 301.457 163.835 302.449 163.835C303.457 163.835 304.449 163.835 305.425 163.835C306.657 163.835 307.729 164.075 308.641 164.555C309.553 165.019 310.265 165.675 310.777 166.523C311.289 167.371 311.545 168.363 311.545 169.499C311.545 170.619 311.289 171.603 310.777 172.451C310.281 173.299 309.593 173.955 308.713 174.419C307.849 174.883 306.865 175.115 305.761 175.115C305.409 175.115 305.057 175.115 304.705 175.115C304.369 175.115 304.025 175.115 303.673 175.115C303.673 175.947 303.673 176.787 303.673 177.635C303.673 178.483 303.673 179.323 303.673 180.155C302.985 180.155 302.289 180.155 301.585 180.155C300.881 180.155 300.177 180.155 299.473 180.155ZM305.425 167.603C305.137 167.603 304.841 167.603 304.537 167.603C304.249 167.603 303.961 167.603 303.673 167.603C303.673 168.243 303.673 168.891 303.673 169.547C303.673 170.187 303.673 170.827 303.673 171.467C303.993 171.467 304.321 171.467 304.657 171.467C305.009 171.467 305.345 171.467 305.665 171.467C306.161 171.467 306.561 171.283 306.865 170.915C307.185 170.547 307.345 170.091 307.345 169.547C307.345 168.987 307.177 168.523 306.841 168.155C306.505 167.787 306.033 167.603 305.425 167.603ZM318.988 180.539C318.06 180.539 317.196 180.379 316.396 180.059C315.596 179.723 314.9 179.259 314.308 178.667C313.716 178.059 313.252 177.355 312.916 176.555C312.596 175.755 312.436 174.883 312.436 173.939C312.436 172.995 312.596 172.123 312.916 171.323C313.252 170.523 313.716 169.827 314.308 169.235C314.9 168.643 315.596 168.187 316.396 167.867C317.196 167.531 318.06 167.363 318.988 167.363C319.932 167.363 320.796 167.531 321.58 167.867C322.38 168.187 323.076 168.643 323.668 169.235C324.26 169.827 324.716 170.523 325.036 171.323C325.372 172.123 325.54 172.995 325.54 173.939C325.54 174.883 325.372 175.755 325.036 176.555C324.716 177.355 324.26 178.059 323.668 178.667C323.076 179.259 322.38 179.723 321.58 180.059C320.796 180.379 319.932 180.539 318.988 180.539ZM318.988 176.963C319.772 176.963 320.396 176.683 320.86 176.123C321.34 175.547 321.58 174.819 321.58 173.939C321.58 173.043 321.34 172.323 320.86 171.779C320.396 171.219 319.772 170.939 318.988 170.939C318.204 170.939 317.572 171.219 317.092 171.779C316.628 172.323 316.396 173.043 316.396 173.939C316.396 174.819 316.628 175.547 317.092 176.123C317.572 176.683 318.204 176.963 318.988 176.963ZM331.459 183.995C330.819 183.995 330.163 183.995 329.491 183.995C328.819 183.995 328.155 183.995 327.499 183.995C327.499 181.323 327.499 178.619 327.499 175.883C327.499 173.131 327.499 170.419 327.499 167.747C328.155 167.747 328.819 167.747 329.491 167.747C330.163 167.747 330.819 167.747 331.459 167.747C331.459 167.859 331.459 167.971 331.459 168.083C331.459 168.195 331.459 168.315 331.459 168.443C331.859 168.123 332.315 167.875 332.827 167.699C333.339 167.507 333.883 167.411 334.459 167.411C335.259 167.411 336.019 167.571 336.739 167.891C337.459 168.195 338.091 168.635 338.635 169.211C339.195 169.787 339.627 170.475 339.931 171.275C340.251 172.075 340.411 172.963 340.411 173.939C340.411 174.899 340.251 175.779 339.931 176.579C339.627 177.379 339.195 178.075 338.635 178.667C338.091 179.243 337.459 179.691 336.739 180.011C336.019 180.331 335.251 180.491 334.435 180.491C333.859 180.491 333.315 180.395 332.803 180.203C332.307 180.027 331.859 179.771 331.459 179.435C331.459 180.187 331.459 180.947 331.459 181.715C331.459 182.483 331.459 183.243 331.459 183.995ZM333.907 176.987C334.691 176.987 335.307 176.715 335.755 176.171C336.219 175.611 336.451 174.867 336.451 173.939C336.451 173.011 336.219 172.275 335.755 171.731C335.307 171.187 334.691 170.915 333.907 170.915C333.139 170.915 332.523 171.195 332.059 171.755C331.595 172.299 331.363 173.027 331.363 173.939C331.363 174.851 331.595 175.587 332.059 176.147C332.523 176.707 333.139 176.987 333.907 176.987Z" fill="#FE9973"/>
</svg>
