<svg width="604" height="165" viewBox="0 0 604 165" fill="none" xmlns="http://www.w3.org/2000/svg">
<g opacity="0.8">
<path d="M7.39157 35.9038C7.39157 31.7758 7.39157 27.6158 7.39157 23.4238C7.39157 19.1998 7.39157 15.0238 7.39157 10.8958C6.17557 10.8958 4.94357 10.8958 3.69557 10.8958C2.44757 10.8958 1.21557 10.8958 -0.00042963 10.8958C-0.00042963 9.64781 -0.00042963 8.38381 -0.00042963 7.10381C-0.00042963 5.79181 -0.00042963 4.51181 -0.00042963 3.26381C3.80757 3.26381 7.66357 3.26381 11.5676 3.26381C15.4716 3.26381 19.3276 3.26381 23.1356 3.26381C23.1356 4.51181 23.1356 5.79181 23.1356 7.10381C23.1356 8.38381 23.1356 9.64781 23.1356 10.8958C21.9516 10.8958 20.7356 10.8958 19.4876 10.8958C18.2396 10.8958 17.0076 10.8958 15.7916 10.8958C15.7916 15.0238 15.7916 19.1998 15.7916 23.4238C15.7916 27.6158 15.7916 31.7758 15.7916 35.9038C14.4156 35.9038 13.0236 35.9038 11.6156 35.9038C10.2076 35.9038 8.79957 35.9038 7.39157 35.9038ZM40.9158 35.9038C40.9158 35.6478 40.9158 35.4078 40.9158 35.1838C40.9158 34.9278 40.9158 34.6878 40.9158 34.4638C40.1158 35.1358 39.2038 35.6478 38.1798 35.9998C37.1878 36.3838 36.1158 36.5758 34.9638 36.5758C33.3318 36.5758 31.7958 36.2718 30.3558 35.6638C28.9158 35.0238 27.6358 34.1278 26.5158 32.9758C25.4278 31.7918 24.5638 30.3998 23.9238 28.7998C23.3158 27.1998 23.0118 25.4238 23.0118 23.4718C23.0118 21.4878 23.3158 19.6958 23.9238 18.0958C24.5638 16.4958 25.4278 15.1358 26.5158 14.0158C27.6358 12.8638 28.9158 11.9838 30.3558 11.3758C31.7958 10.7358 33.3158 10.4158 34.9158 10.4158C36.0678 10.4158 37.1558 10.6078 38.1798 10.9918C39.2038 11.3438 40.1158 11.8398 40.9158 12.4798C40.9158 12.2238 40.9158 11.9838 40.9158 11.7598C40.9158 11.5358 40.9158 11.3118 40.9158 11.0878C42.2278 11.0878 43.5558 11.0878 44.8998 11.0878C46.2438 11.0878 47.5558 11.0878 48.8358 11.0878C48.8358 15.1838 48.8358 19.3278 48.8358 23.5198C48.8358 27.6798 48.8358 31.8078 48.8358 35.9038C47.5558 35.9038 46.2438 35.9038 44.8998 35.9038C43.5558 35.9038 42.2278 35.9038 40.9158 35.9038ZM36.0198 29.5678C37.5558 29.5678 38.7878 29.0078 39.7158 27.8878C40.6438 26.7678 41.1078 25.2958 41.1078 23.4718C41.1078 21.6478 40.6438 20.1918 39.7158 19.1038C38.7878 17.9838 37.5558 17.4238 36.0198 17.4238C34.4518 17.4238 33.2038 17.9678 32.2758 19.0558C31.3798 20.1438 30.9318 21.6158 30.9318 23.4718C30.9318 25.3278 31.3798 26.8158 32.2758 27.9358C33.2038 29.0238 34.4518 29.5678 36.0198 29.5678ZM62.0414 43.5838C60.7614 43.5838 59.4494 43.5838 58.1054 43.5838C56.7614 43.5838 55.4334 43.5838 54.1214 43.5838C54.1214 38.2398 54.1214 32.8318 54.1214 27.3598C54.1214 21.8558 54.1214 16.4318 54.1214 11.0878C55.4334 11.0878 56.7614 11.0878 58.1054 11.0878C59.4494 11.0878 60.7614 11.0878 62.0414 11.0878C62.0414 11.3118 62.0414 11.5358 62.0414 11.7598C62.0414 11.9838 62.0414 12.2238 62.0414 12.4798C62.8414 11.8398 63.7534 11.3438 64.7774 10.9918C65.8014 10.6078 66.8894 10.4158 68.0414 10.4158C69.6414 10.4158 71.1614 10.7358 72.6014 11.3758C74.0414 11.9838 75.3054 12.8638 76.3934 14.0158C77.5134 15.1678 78.3774 16.5438 78.9854 18.1438C79.6254 19.7438 79.9454 21.5198 79.9454 23.4718C79.9454 25.3918 79.6254 27.1518 78.9854 28.7518C78.3774 30.3518 77.5134 31.7438 76.3934 32.9278C75.3054 34.0798 74.0414 34.9758 72.6014 35.6158C71.1614 36.2558 69.6254 36.5758 67.9934 36.5758C66.8414 36.5758 65.7534 36.3838 64.7294 35.9998C63.7374 35.6478 62.8414 35.1358 62.0414 34.4638C62.0414 35.9678 62.0414 37.4878 62.0414 39.0238C62.0414 40.5598 62.0414 42.0798 62.0414 43.5838ZM66.9374 29.5678C68.5054 29.5678 69.7374 29.0238 70.6334 27.9358C71.5614 26.8158 72.0254 25.3278 72.0254 23.4718C72.0254 21.6158 71.5614 20.1438 70.6334 19.0558C69.7374 17.9678 68.5054 17.4238 66.9374 17.4238C65.4014 17.4238 64.1694 17.9838 63.2414 19.1038C62.3134 20.1918 61.8494 21.6478 61.8494 23.4718C61.8494 25.2958 62.3134 26.7678 63.2414 27.8878C64.1694 29.0078 65.4014 29.5678 66.9374 29.5678ZM9.11957 103.584C7.83957 103.584 6.52757 103.584 5.18357 103.584C3.83957 103.584 2.51157 103.584 1.19957 103.584C1.19957 98.2398 1.19957 92.8318 1.19957 87.3598C1.19957 81.8558 1.19957 76.4318 1.19957 71.0878C2.51157 71.0878 3.83957 71.0878 5.18357 71.0878C6.52757 71.0878 7.83957 71.0878 9.11957 71.0878C9.11957 71.3118 9.11957 71.5358 9.11957 71.7598C9.11957 71.9838 9.11957 72.2238 9.11957 72.4798C9.91957 71.8398 10.8316 71.3438 11.8556 70.9918C12.8796 70.6078 13.9676 70.4158 15.1196 70.4158C16.7196 70.4158 18.2396 70.7358 19.6796 71.3758C21.1196 71.9838 22.3836 72.8638 23.4716 74.0158C24.5916 75.1678 25.4556 76.5438 26.0636 78.1438C26.7036 79.7438 27.0236 81.5198 27.0236 83.4718C27.0236 85.3918 26.7036 87.1518 26.0636 88.7518C25.4556 90.3518 24.5916 91.7438 23.4716 92.9278C22.3836 94.0798 21.1196 94.9758 19.6796 95.6158C18.2396 96.2558 16.7036 96.5758 15.0716 96.5758C13.9196 96.5758 12.8316 96.3838 11.8076 95.9998C10.8156 95.6478 9.91957 95.1358 9.11957 94.4638C9.11957 95.9678 9.11957 97.4878 9.11957 99.0238C9.11957 100.56 9.11957 102.08 9.11957 103.584ZM14.0156 89.5678C15.5836 89.5678 16.8156 89.0238 17.7116 87.9358C18.6396 86.8158 19.1036 85.3278 19.1036 83.4718C19.1036 81.6158 18.6396 80.1438 17.7116 79.0558C16.8156 77.9678 15.5836 77.4238 14.0156 77.4238C12.4796 77.4238 11.2476 77.9838 10.3196 79.1038C9.39157 80.1918 8.92757 81.6478 8.92757 83.4718C8.92757 85.2958 9.39157 86.7678 10.3196 87.8878C11.2476 89.0078 12.4796 89.5678 14.0156 89.5678ZM52.3252 94.7518C50.1172 95.6798 47.9252 96.2558 45.7492 96.4798C43.5732 96.7038 41.5092 96.5758 39.5572 96.0958C37.6372 95.6478 35.9252 94.8638 34.4212 93.7438C32.9172 92.6238 31.7332 91.1998 30.8692 89.4718C30.0372 87.7438 29.6212 85.7438 29.6212 83.4718C29.6212 81.5838 29.9252 79.8558 30.5332 78.2878C31.1732 76.6878 32.0692 75.2958 33.2212 74.1118C34.3732 72.8958 35.7332 71.9678 37.3012 71.3278C38.8692 70.6558 40.5812 70.3198 42.4372 70.3198C44.1012 70.3198 45.6052 70.5918 46.9492 71.1358C48.2932 71.6798 49.4612 72.4478 50.4532 73.4398C51.4452 74.3998 52.2452 75.5518 52.8532 76.8958C53.4612 78.2398 53.8452 79.7118 54.0052 81.3118C54.1652 82.9118 54.0692 84.6078 53.7172 86.3998C51.0932 86.3998 48.4532 86.3998 45.7972 86.3998C43.1412 86.3998 40.5012 86.3998 37.8772 86.3998C38.4852 87.6158 39.4932 88.4798 40.9012 88.9918C42.3412 89.5038 44.0372 89.6638 45.9892 89.4718C47.9732 89.2798 50.0852 88.7678 52.3252 87.9358C52.3252 89.0558 52.3252 90.1918 52.3252 91.3438C52.3252 92.4958 52.3252 93.6318 52.3252 94.7518ZM42.2452 77.4238C41.3172 77.4238 40.4532 77.6798 39.6532 78.1918C38.8852 78.7038 38.2932 79.4878 37.8772 80.5438C39.3172 80.5438 40.7572 80.5438 42.1972 80.5438C43.6692 80.5438 45.1252 80.5438 46.5652 80.5438C46.1812 79.4558 45.6052 78.6718 44.8372 78.1918C44.1012 77.6798 43.2372 77.4238 42.2452 77.4238ZM58.1996 95.9038C58.1996 91.8078 58.1996 87.6798 58.1996 83.5198C58.1996 79.3278 58.1996 75.1838 58.1996 71.0878C59.5116 71.0878 60.8396 71.0878 62.1836 71.0878C63.5276 71.0878 64.8396 71.0878 66.1196 71.0878C66.1196 71.3118 66.1196 71.5358 66.1196 71.7598C66.1196 71.9838 66.1196 72.2078 66.1196 72.4318C67.1116 71.7278 68.2316 71.1998 69.4796 70.8478C70.7276 70.4958 72.0876 70.3998 73.5596 70.5598C73.5596 71.8398 73.5596 73.1358 73.5596 74.4478C73.5596 75.7598 73.5596 77.0558 73.5596 78.3358C71.0316 77.9838 69.1596 78.2078 67.9436 79.0078C66.7276 79.7758 66.1196 81.0398 66.1196 82.7998C66.1196 84.9438 66.1196 87.1198 66.1196 89.3278C66.1196 91.5358 66.1196 93.7278 66.1196 95.9038C64.8396 95.9038 63.5276 95.9038 62.1836 95.9038C60.8396 95.9038 59.5116 95.9038 58.1996 95.9038ZM96.0971 88.2238C96.0971 90.2078 95.5371 91.8398 94.4171 93.1198C93.3291 94.3678 91.8571 95.2798 90.0011 95.8558C88.1451 96.4318 86.0651 96.6718 83.7611 96.5758C81.4891 96.5118 79.1691 96.1438 76.8011 95.4718C76.8011 94.2558 76.8011 93.0078 76.8011 91.7278C76.8011 90.4478 76.8011 89.1998 76.8011 87.9838C78.1451 88.5918 79.4891 89.0718 80.8331 89.4238C82.1771 89.7438 83.3931 89.9358 84.4811 89.9998C85.5691 90.0638 86.4491 89.9838 87.1211 89.7598C87.7931 89.5038 88.1291 89.0878 88.1291 88.5118C88.1291 88.0638 87.8411 87.7118 87.2651 87.4558C86.7211 87.1998 86.0011 86.9758 85.1051 86.7838C84.2091 86.5598 83.2491 86.3038 82.2251 86.0158C81.2331 85.6958 80.2891 85.2638 79.3931 84.7198C78.4971 84.1438 77.7611 83.3918 77.1851 82.4638C76.6411 81.5038 76.3691 80.2718 76.3691 78.7678C76.3691 76.9758 76.8811 75.4558 77.9051 74.2078C78.9611 72.9278 80.3691 71.9678 82.1291 71.3278C83.8891 70.6558 85.8571 70.3198 88.0331 70.3198C90.2091 70.3198 92.4331 70.6878 94.7051 71.4238C94.7051 72.6398 94.7051 73.8878 94.7051 75.1678C94.7051 76.4478 94.7051 77.6958 94.7051 78.9118C92.9131 78.0478 91.2331 77.4718 89.6651 77.1838C88.0971 76.8958 86.8331 76.8638 85.8731 77.0878C84.9131 77.2798 84.4331 77.7118 84.4331 78.3838C84.4331 78.8318 84.7051 79.1838 85.2491 79.4398C85.8251 79.6638 86.5451 79.8718 87.4091 80.0638C88.3051 80.2558 89.2491 80.5118 90.2411 80.8318C91.2651 81.1518 92.2091 81.5998 93.0731 82.1758C93.9691 82.7198 94.6891 83.4878 95.2331 84.4798C95.8091 85.4398 96.0971 86.6878 96.0971 88.2238ZM111.678 96.6718C109.822 96.6718 108.094 96.3518 106.494 95.7118C104.894 95.0398 103.502 94.1118 102.318 92.9278C101.134 91.7118 100.206 90.3038 99.5343 88.7038C98.8943 87.1038 98.5743 85.3598 98.5743 83.4718C98.5743 81.5838 98.8943 79.8398 99.5343 78.2398C100.206 76.6398 101.134 75.2478 102.318 74.0638C103.502 72.8798 104.894 71.9678 106.494 71.3278C108.094 70.6558 109.822 70.3198 111.678 70.3198C113.566 70.3198 115.294 70.6558 116.862 71.3278C118.462 71.9678 119.854 72.8798 121.038 74.0638C122.222 75.2478 123.134 76.6398 123.774 78.2398C124.446 79.8398 124.782 81.5838 124.782 83.4718C124.782 85.3598 124.446 87.1038 123.774 88.7038C123.134 90.3038 122.222 91.7118 121.038 92.9278C119.854 94.1118 118.462 95.0398 116.862 95.7118C115.294 96.3518 113.566 96.6718 111.678 96.6718ZM111.678 89.5198C113.246 89.5198 114.494 88.9598 115.422 87.8398C116.382 86.6878 116.862 85.2318 116.862 83.4718C116.862 81.6798 116.382 80.2398 115.422 79.1518C114.494 78.0318 113.246 77.4718 111.678 77.4718C110.11 77.4718 108.846 78.0318 107.886 79.1518C106.958 80.2398 106.494 81.6798 106.494 83.4718C106.494 85.2318 106.958 86.6878 107.886 87.8398C108.846 88.9598 110.11 89.5198 111.678 89.5198ZM128.7 95.9038C128.7 91.8078 128.7 87.6798 128.7 83.5198C128.7 79.3278 128.7 75.1838 128.7 71.0878C130.012 71.0878 131.34 71.0878 132.684 71.0878C134.028 71.0878 135.34 71.0878 136.62 71.0878C136.62 71.3118 136.62 71.5198 136.62 71.7118C136.62 71.9038 136.62 72.1118 136.62 72.3358C137.484 71.7278 138.444 71.2638 139.5 70.9438C140.588 70.5918 141.756 70.4158 143.004 70.4158C144.828 70.4158 146.428 70.8318 147.804 71.6638C149.212 72.4958 150.3 73.6958 151.068 75.2638C151.868 76.7998 152.268 78.6558 152.268 80.8318C152.268 83.3278 152.268 85.8398 152.268 88.3678C152.268 90.8958 152.268 93.4078 152.268 95.9038C150.988 95.9038 149.676 95.9038 148.332 95.9038C146.988 95.9038 145.66 95.9038 144.348 95.9038C144.348 93.5998 144.348 91.2638 144.348 88.8958C144.348 86.5278 144.348 84.1918 144.348 81.8878C144.348 80.6078 144.044 79.5838 143.436 78.8158C142.86 78.0158 141.932 77.6158 140.652 77.6158C139.372 77.6158 138.38 77.9838 137.676 78.7198C136.972 79.4558 136.62 80.5118 136.62 81.8878C136.62 84.1918 136.62 86.5278 136.62 88.8958C136.62 91.2638 136.62 93.5998 136.62 95.9038C135.34 95.9038 134.028 95.9038 132.684 95.9038C131.34 95.9038 130.012 95.9038 128.7 95.9038ZM173.713 95.9038C173.713 95.6478 173.713 95.4078 173.713 95.1838C173.713 94.9278 173.713 94.6878 173.713 94.4638C172.913 95.1358 172.001 95.6478 170.977 95.9998C169.985 96.3838 168.913 96.5758 167.761 96.5758C166.129 96.5758 164.593 96.2718 163.153 95.6638C161.713 95.0238 160.433 94.1278 159.313 92.9758C158.225 91.7918 157.361 90.3998 156.721 88.7998C156.113 87.1998 155.809 85.4238 155.809 83.4718C155.809 81.4878 156.113 79.6958 156.721 78.0958C157.361 76.4958 158.225 75.1358 159.313 74.0158C160.433 72.8638 161.713 71.9838 163.153 71.3758C164.593 70.7358 166.113 70.4158 167.713 70.4158C168.865 70.4158 169.953 70.6078 170.977 70.9918C172.001 71.3438 172.913 71.8398 173.713 72.4798C173.713 72.2238 173.713 71.9838 173.713 71.7598C173.713 71.5358 173.713 71.3118 173.713 71.0878C175.025 71.0878 176.353 71.0878 177.697 71.0878C179.041 71.0878 180.353 71.0878 181.633 71.0878C181.633 75.1838 181.633 79.3278 181.633 83.5198C181.633 87.6798 181.633 91.8078 181.633 95.9038C180.353 95.9038 179.041 95.9038 177.697 95.9038C176.353 95.9038 175.025 95.9038 173.713 95.9038ZM168.817 89.5678C170.353 89.5678 171.585 89.0078 172.513 87.8878C173.441 86.7678 173.905 85.2958 173.905 83.4718C173.905 81.6478 173.441 80.1918 172.513 79.1038C171.585 77.9838 170.353 77.4238 168.817 77.4238C167.249 77.4238 166.001 77.9678 165.073 79.0558C164.177 80.1438 163.729 81.6158 163.729 83.4718C163.729 85.3278 164.177 86.8158 165.073 87.9358C166.001 89.0238 167.249 89.5678 168.817 89.5678ZM187.158 95.9038C187.158 90.1118 187.158 84.2718 187.158 78.3838C187.158 72.4958 187.158 66.6558 187.158 60.8638C188.47 60.8638 189.798 60.8638 191.142 60.8638C192.486 60.8638 193.798 60.8638 195.078 60.8638C195.078 66.6558 195.078 72.4958 195.078 78.3838C195.078 84.2718 195.078 90.1118 195.078 95.9038C193.798 95.9038 192.486 95.9038 191.142 95.9038C189.798 95.9038 188.47 95.9038 187.158 95.9038ZM227.244 95.9038C227.244 95.6478 227.244 95.4078 227.244 95.1838C227.244 94.9278 227.244 94.6878 227.244 94.4638C226.444 95.1358 225.532 95.6478 224.508 95.9998C223.516 96.3838 222.444 96.5758 221.292 96.5758C219.66 96.5758 218.124 96.2558 216.684 95.6158C215.244 94.9758 213.964 94.0798 212.844 92.9278C211.756 91.7438 210.892 90.3518 210.252 88.7518C209.644 87.1518 209.34 85.3918 209.34 83.4718C209.34 81.5198 209.644 79.7438 210.252 78.1438C210.892 76.5438 211.756 75.1678 212.844 74.0158C213.964 72.8638 215.244 71.9838 216.684 71.3758C218.124 70.7358 219.644 70.4158 221.244 70.4158C222.396 70.4158 223.484 70.6078 224.508 70.9918C225.532 71.3438 226.444 71.8398 227.244 72.4798C227.244 70.5598 227.244 68.6238 227.244 66.6718C227.244 64.7198 227.244 62.7838 227.244 60.8638C228.556 60.8638 229.884 60.8638 231.228 60.8638C232.572 60.8638 233.884 60.8638 235.164 60.8638C235.164 66.6558 235.164 72.4958 235.164 78.3838C235.164 84.2718 235.164 90.1118 235.164 95.9038C233.884 95.9038 232.572 95.9038 231.228 95.9038C229.884 95.9038 228.556 95.9038 227.244 95.9038ZM222.348 89.5678C223.884 89.5678 225.116 89.0078 226.044 87.8878C226.972 86.7678 227.436 85.2958 227.436 83.4718C227.436 81.6478 226.972 80.1918 226.044 79.1038C225.116 77.9838 223.884 77.4238 222.348 77.4238C220.78 77.4238 219.532 77.9678 218.604 79.0558C217.708 80.1438 217.26 81.6158 217.26 83.4718C217.26 85.3278 217.708 86.8158 218.604 87.9358C219.532 89.0238 220.78 89.5678 222.348 89.5678ZM244.908 68.2558C243.98 68.2558 243.132 68.0318 242.364 67.5838C241.628 67.1358 241.036 66.5438 240.588 65.8078C240.14 65.0718 239.916 64.2558 239.916 63.3598C239.916 62.4638 240.14 61.6638 240.588 60.9598C241.036 60.2238 241.628 59.6318 242.364 59.1838C243.132 58.7358 243.98 58.5118 244.908 58.5118C245.804 58.5118 246.62 58.7358 247.356 59.1838C248.124 59.6318 248.732 60.2238 249.18 60.9598C249.628 61.6638 249.852 62.4638 249.852 63.3598C249.852 64.2558 249.628 65.0718 249.18 65.8078C248.732 66.5438 248.124 67.1358 247.356 67.5838C246.62 68.0318 245.804 68.2558 244.908 68.2558ZM240.924 95.9038C240.924 91.8078 240.924 87.6798 240.924 83.5198C240.924 79.3278 240.924 75.1838 240.924 71.0878C242.236 71.0878 243.564 71.0878 244.908 71.0878C246.252 71.0878 247.564 71.0878 248.844 71.0878C248.844 75.1838 248.844 79.3278 248.844 83.5198C248.844 87.6798 248.844 91.8078 248.844 95.9038C247.564 95.9038 246.252 95.9038 244.908 95.9038C243.564 95.9038 242.236 95.9038 240.924 95.9038ZM254.371 95.9038C254.371 91.8078 254.371 87.6798 254.371 83.5198C254.371 79.3278 254.371 75.1838 254.371 71.0878C255.683 71.0878 257.011 71.0878 258.355 71.0878C259.699 71.0878 261.011 71.0878 262.291 71.0878C262.291 71.3118 262.291 71.5198 262.291 71.7118C262.291 71.9038 262.291 72.1118 262.291 72.3358C263.123 71.7278 264.051 71.2638 265.075 70.9438C266.099 70.5918 267.155 70.4158 268.243 70.4158C269.427 70.4158 270.515 70.6238 271.507 71.0398C272.499 71.4238 273.347 71.9998 274.051 72.7678C275.075 72.0318 276.227 71.4558 277.507 71.0398C278.819 70.6238 280.163 70.4158 281.539 70.4158C283.491 70.4158 285.171 70.8158 286.579 71.6158C288.019 72.4158 289.123 73.5518 289.891 75.0238C290.691 76.4958 291.091 78.2718 291.091 80.3518C291.091 82.9118 291.091 85.5038 291.091 88.1278C291.091 90.7518 291.091 93.3438 291.091 95.9038C289.811 95.9038 288.499 95.9038 287.155 95.9038C285.811 95.9038 284.483 95.9038 283.171 95.9038C283.171 93.5038 283.171 91.0718 283.171 88.6078C283.171 86.1438 283.171 83.7118 283.171 81.3118C283.171 80.2238 282.915 79.3438 282.403 78.6718C281.923 77.9678 281.139 77.6158 280.051 77.6158C278.995 77.6158 278.163 77.9518 277.555 78.6238C276.979 79.2638 276.691 80.1598 276.691 81.3118C276.691 83.7118 276.691 86.1438 276.691 88.6078C276.691 91.0718 276.691 93.5038 276.691 95.9038C275.411 95.9038 274.099 95.9038 272.755 95.9038C271.411 95.9038 270.083 95.9038 268.771 95.9038C268.771 93.5038 268.771 91.0718 268.771 88.6078C268.771 86.1438 268.771 83.7118 268.771 81.3118C268.771 80.2238 268.515 79.3438 268.003 78.6718C267.523 77.9678 266.739 77.6158 265.651 77.6158C264.595 77.6158 263.763 77.9518 263.155 78.6238C262.579 79.2638 262.291 80.1598 262.291 81.3118C262.291 83.7118 262.291 86.1438 262.291 88.6078C262.291 91.0718 262.291 93.5038 262.291 95.9038C261.011 95.9038 259.699 95.9038 258.355 95.9038C257.011 95.9038 255.683 95.9038 254.371 95.9038ZM317.356 94.7518C315.148 95.6798 312.956 96.2558 310.78 96.4798C308.604 96.7038 306.54 96.5758 304.588 96.0958C302.668 95.6478 300.956 94.8638 299.452 93.7438C297.948 92.6238 296.764 91.1998 295.9 89.4718C295.068 87.7438 294.652 85.7438 294.652 83.4718C294.652 81.5838 294.956 79.8558 295.564 78.2878C296.204 76.6878 297.1 75.2958 298.252 74.1118C299.404 72.8958 300.764 71.9678 302.332 71.3278C303.9 70.6558 305.612 70.3198 307.468 70.3198C309.132 70.3198 310.636 70.5918 311.98 71.1358C313.324 71.6798 314.492 72.4478 315.484 73.4398C316.476 74.3998 317.276 75.5518 317.884 76.8958C318.492 78.2398 318.876 79.7118 319.036 81.3118C319.196 82.9118 319.1 84.6078 318.748 86.3998C316.124 86.3998 313.484 86.3998 310.828 86.3998C308.172 86.3998 305.532 86.3998 302.908 86.3998C303.516 87.6158 304.524 88.4798 305.932 88.9918C307.372 89.5038 309.068 89.6638 311.02 89.4718C313.004 89.2798 315.116 88.7678 317.356 87.9358C317.356 89.0558 317.356 90.1918 317.356 91.3438C317.356 92.4958 317.356 93.6318 317.356 94.7518ZM307.276 77.4238C306.348 77.4238 305.484 77.6798 304.684 78.1918C303.916 78.7038 303.324 79.4878 302.908 80.5438C304.348 80.5438 305.788 80.5438 307.228 80.5438C308.7 80.5438 310.156 80.5438 311.596 80.5438C311.212 79.4558 310.636 78.6718 309.868 78.1918C309.132 77.6798 308.268 77.4238 307.276 77.4238ZM323.231 95.9038C323.231 91.8078 323.231 87.6798 323.231 83.5198C323.231 79.3278 323.231 75.1838 323.231 71.0878C324.543 71.0878 325.871 71.0878 327.215 71.0878C328.559 71.0878 329.871 71.0878 331.151 71.0878C331.151 71.3118 331.151 71.5198 331.151 71.7118C331.151 71.9038 331.151 72.1118 331.151 72.3358C332.015 71.7278 332.975 71.2638 334.031 70.9438C335.119 70.5918 336.287 70.4158 337.535 70.4158C339.359 70.4158 340.959 70.8318 342.335 71.6638C343.743 72.4958 344.831 73.6958 345.599 75.2638C346.399 76.7998 346.799 78.6558 346.799 80.8318C346.799 83.3278 346.799 85.8398 346.799 88.3678C346.799 90.8958 346.799 93.4078 346.799 95.9038C345.519 95.9038 344.207 95.9038 342.863 95.9038C341.519 95.9038 340.191 95.9038 338.879 95.9038C338.879 93.5998 338.879 91.2638 338.879 88.8958C338.879 86.5278 338.879 84.1918 338.879 81.8878C338.879 80.6078 338.575 79.5838 337.967 78.8158C337.391 78.0158 336.463 77.6158 335.183 77.6158C333.903 77.6158 332.911 77.9838 332.207 78.7198C331.503 79.4558 331.151 80.5118 331.151 81.8878C331.151 84.1918 331.151 86.5278 331.151 88.8958C331.151 91.2638 331.151 93.5998 331.151 95.9038C329.871 95.9038 328.559 95.9038 327.215 95.9038C325.871 95.9038 324.543 95.9038 323.231 95.9038ZM370.644 88.2238C370.644 90.2078 370.084 91.8398 368.964 93.1198C367.876 94.3678 366.404 95.2798 364.548 95.8558C362.692 96.4318 360.612 96.6718 358.308 96.5758C356.036 96.5118 353.716 96.1438 351.348 95.4718C351.348 94.2558 351.348 93.0078 351.348 91.7278C351.348 90.4478 351.348 89.1998 351.348 87.9838C352.692 88.5918 354.036 89.0718 355.38 89.4238C356.724 89.7438 357.94 89.9358 359.028 89.9998C360.116 90.0638 360.996 89.9838 361.668 89.7598C362.34 89.5038 362.676 89.0878 362.676 88.5118C362.676 88.0638 362.388 87.7118 361.812 87.4558C361.268 87.1998 360.548 86.9758 359.652 86.7838C358.756 86.5598 357.796 86.3038 356.772 86.0158C355.78 85.6958 354.836 85.2638 353.94 84.7198C353.044 84.1438 352.308 83.3918 351.732 82.4638C351.188 81.5038 350.916 80.2718 350.916 78.7678C350.916 76.9758 351.428 75.4558 352.452 74.2078C353.508 72.9278 354.916 71.9678 356.676 71.3278C358.436 70.6558 360.404 70.3198 362.58 70.3198C364.756 70.3198 366.98 70.6878 369.252 71.4238C369.252 72.6398 369.252 73.8878 369.252 75.1678C369.252 76.4478 369.252 77.6958 369.252 78.9118C367.46 78.0478 365.78 77.4718 364.212 77.1838C362.644 76.8958 361.38 76.8638 360.42 77.0878C359.46 77.2798 358.98 77.7118 358.98 78.3838C358.98 78.8318 359.252 79.1838 359.796 79.4398C360.372 79.6638 361.092 79.8718 361.956 80.0638C362.852 80.2558 363.796 80.5118 364.788 80.8318C365.812 81.1518 366.756 81.5998 367.62 82.1758C368.516 82.7198 369.236 83.4878 369.78 84.4798C370.356 85.4398 370.644 86.6878 370.644 88.2238ZM378.689 68.2558C377.761 68.2558 376.913 68.0318 376.145 67.5838C375.409 67.1358 374.817 66.5438 374.369 65.8078C373.921 65.0718 373.697 64.2558 373.697 63.3598C373.697 62.4638 373.921 61.6638 374.369 60.9598C374.817 60.2238 375.409 59.6318 376.145 59.1838C376.913 58.7358 377.761 58.5118 378.689 58.5118C379.585 58.5118 380.401 58.7358 381.137 59.1838C381.905 59.6318 382.513 60.2238 382.961 60.9598C383.409 61.6638 383.633 62.4638 383.633 63.3598C383.633 64.2558 383.409 65.0718 382.961 65.8078C382.513 66.5438 381.905 67.1358 381.137 67.5838C380.401 68.0318 379.585 68.2558 378.689 68.2558ZM374.705 95.9038C374.705 91.8078 374.705 87.6798 374.705 83.5198C374.705 79.3278 374.705 75.1838 374.705 71.0878C376.017 71.0878 377.345 71.0878 378.689 71.0878C380.033 71.0878 381.345 71.0878 382.625 71.0878C382.625 75.1838 382.625 79.3278 382.625 83.5198C382.625 87.6798 382.625 91.8078 382.625 95.9038C381.345 95.9038 380.033 95.9038 378.689 95.9038C377.345 95.9038 376.017 95.9038 374.705 95.9038ZM399.913 96.6718C398.057 96.6718 396.329 96.3518 394.729 95.7118C393.129 95.0398 391.737 94.1118 390.553 92.9278C389.369 91.7118 388.441 90.3038 387.769 88.7038C387.129 87.1038 386.809 85.3598 386.809 83.4718C386.809 81.5838 387.129 79.8398 387.769 78.2398C388.441 76.6398 389.369 75.2478 390.553 74.0638C391.737 72.8798 393.129 71.9678 394.729 71.3278C396.329 70.6558 398.057 70.3198 399.913 70.3198C401.801 70.3198 403.529 70.6558 405.097 71.3278C406.697 71.9678 408.089 72.8798 409.273 74.0638C410.457 75.2478 411.369 76.6398 412.009 78.2398C412.681 79.8398 413.017 81.5838 413.017 83.4718C413.017 85.3598 412.681 87.1038 412.009 88.7038C411.369 90.3038 410.457 91.7118 409.273 92.9278C408.089 94.1118 406.697 95.0398 405.097 95.7118C403.529 96.3518 401.801 96.6718 399.913 96.6718ZM399.913 89.5198C401.481 89.5198 402.729 88.9598 403.657 87.8398C404.617 86.6878 405.097 85.2318 405.097 83.4718C405.097 81.6798 404.617 80.2398 403.657 79.1518C402.729 78.0318 401.481 77.4718 399.913 77.4718C398.345 77.4718 397.081 78.0318 396.121 79.1518C395.193 80.2398 394.729 81.6798 394.729 83.4718C394.729 85.2318 395.193 86.6878 396.121 87.8398C397.081 88.9598 398.345 89.5198 399.913 89.5198ZM416.934 95.9038C416.934 91.8078 416.934 87.6798 416.934 83.5198C416.934 79.3278 416.934 75.1838 416.934 71.0878C418.246 71.0878 419.574 71.0878 420.918 71.0878C422.262 71.0878 423.574 71.0878 424.854 71.0878C424.854 71.3118 424.854 71.5198 424.854 71.7118C424.854 71.9038 424.854 72.1118 424.854 72.3358C425.718 71.7278 426.678 71.2638 427.734 70.9438C428.822 70.5918 429.99 70.4158 431.238 70.4158C433.062 70.4158 434.662 70.8318 436.038 71.6638C437.446 72.4958 438.534 73.6958 439.302 75.2638C440.102 76.7998 440.502 78.6558 440.502 80.8318C440.502 83.3278 440.502 85.8398 440.502 88.3678C440.502 90.8958 440.502 93.4078 440.502 95.9038C439.222 95.9038 437.91 95.9038 436.566 95.9038C435.222 95.9038 433.894 95.9038 432.582 95.9038C432.582 93.5998 432.582 91.2638 432.582 88.8958C432.582 86.5278 432.582 84.1918 432.582 81.8878C432.582 80.6078 432.278 79.5838 431.67 78.8158C431.094 78.0158 430.166 77.6158 428.886 77.6158C427.606 77.6158 426.614 77.9838 425.91 78.7198C425.206 79.4558 424.854 80.5118 424.854 81.8878C424.854 84.1918 424.854 86.5278 424.854 88.8958C424.854 91.2638 424.854 93.5998 424.854 95.9038C423.574 95.9038 422.262 95.9038 420.918 95.9038C419.574 95.9038 418.246 95.9038 416.934 95.9038ZM464.347 88.2238C464.347 90.2078 463.787 91.8398 462.667 93.1198C461.579 94.3678 460.107 95.2798 458.251 95.8558C456.395 96.4318 454.315 96.6718 452.011 96.5758C449.739 96.5118 447.419 96.1438 445.051 95.4718C445.051 94.2558 445.051 93.0078 445.051 91.7278C445.051 90.4478 445.051 89.1998 445.051 87.9838C446.395 88.5918 447.739 89.0718 449.083 89.4238C450.427 89.7438 451.643 89.9358 452.731 89.9998C453.819 90.0638 454.699 89.9838 455.371 89.7598C456.043 89.5038 456.379 89.0878 456.379 88.5118C456.379 88.0638 456.091 87.7118 455.515 87.4558C454.971 87.1998 454.251 86.9758 453.355 86.7838C452.459 86.5598 451.499 86.3038 450.475 86.0158C449.483 85.6958 448.539 85.2638 447.643 84.7198C446.747 84.1438 446.011 83.3918 445.435 82.4638C444.891 81.5038 444.619 80.2718 444.619 78.7678C444.619 76.9758 445.131 75.4558 446.155 74.2078C447.211 72.9278 448.619 71.9678 450.379 71.3278C452.139 70.6558 454.107 70.3198 456.283 70.3198C458.459 70.3198 460.683 70.6878 462.955 71.4238C462.955 72.6398 462.955 73.8878 462.955 75.1678C462.955 76.4478 462.955 77.6958 462.955 78.9118C461.163 78.0478 459.483 77.4718 457.915 77.1838C456.347 76.8958 455.083 76.8638 454.123 77.0878C453.163 77.2798 452.683 77.7118 452.683 78.3838C452.683 78.8318 452.955 79.1838 453.499 79.4398C454.075 79.6638 454.795 79.8718 455.659 80.0638C456.555 80.2558 457.499 80.5118 458.491 80.8318C459.515 81.1518 460.459 81.5998 461.323 82.1758C462.219 82.7198 462.939 83.4878 463.483 84.4798C464.059 85.4398 464.347 86.6878 464.347 88.2238ZM1.19957 155.904C1.19957 151.808 1.19957 147.68 1.19957 143.52C1.19957 139.328 1.19957 135.184 1.19957 131.088C2.51157 131.088 3.83957 131.088 5.18357 131.088C6.52757 131.088 7.83957 131.088 9.11957 131.088C9.11957 131.312 9.11957 131.52 9.11957 131.712C9.11957 131.904 9.11957 132.112 9.11957 132.336C9.95157 131.728 10.8796 131.264 11.9036 130.944C12.9276 130.592 13.9836 130.416 15.0716 130.416C16.2556 130.416 17.3436 130.624 18.3356 131.04C19.3276 131.424 20.1756 132 20.8796 132.768C21.9036 132.032 23.0556 131.456 24.3356 131.04C25.6476 130.624 26.9916 130.416 28.3676 130.416C30.3196 130.416 31.9996 130.816 33.4076 131.616C34.8476 132.416 35.9516 133.552 36.7196 135.024C37.5196 136.496 37.9196 138.272 37.9196 140.352C37.9196 142.912 37.9196 145.504 37.9196 148.128C37.9196 150.752 37.9196 153.344 37.9196 155.904C36.6396 155.904 35.3276 155.904 33.9836 155.904C32.6396 155.904 31.3116 155.904 29.9996 155.904C29.9996 153.504 29.9996 151.072 29.9996 148.608C29.9996 146.144 29.9996 143.712 29.9996 141.312C29.9996 140.224 29.7436 139.344 29.2316 138.672C28.7516 137.968 27.9676 137.616 26.8796 137.616C25.8236 137.616 24.9916 137.952 24.3836 138.624C23.8076 139.264 23.5196 140.16 23.5196 141.312C23.5196 143.712 23.5196 146.144 23.5196 148.608C23.5196 151.072 23.5196 153.504 23.5196 155.904C22.2396 155.904 20.9276 155.904 19.5836 155.904C18.2396 155.904 16.9116 155.904 15.5996 155.904C15.5996 153.504 15.5996 151.072 15.5996 148.608C15.5996 146.144 15.5996 143.712 15.5996 141.312C15.5996 140.224 15.3436 139.344 14.8316 138.672C14.3516 137.968 13.5676 137.616 12.4796 137.616C11.4236 137.616 10.5916 137.952 9.98357 138.624C9.40757 139.264 9.11957 140.16 9.11957 141.312C9.11957 143.712 9.11957 146.144 9.11957 148.608C9.11957 151.072 9.11957 153.504 9.11957 155.904C7.83957 155.904 6.52757 155.904 5.18357 155.904C3.83957 155.904 2.51157 155.904 1.19957 155.904ZM66.0086 131.088C66.0086 135.184 66.0086 139.328 66.0086 143.52C66.0086 147.68 66.0086 151.808 66.0086 155.904C64.7286 155.904 63.4166 155.904 62.0726 155.904C60.7286 155.904 59.4006 155.904 58.0886 155.904C58.0886 155.68 58.0886 155.472 58.0886 155.28C58.0886 155.088 58.0886 154.88 58.0886 154.656C57.2246 155.264 56.2486 155.728 55.1606 156.048C54.1046 156.4 52.9526 156.576 51.7046 156.576C49.8806 156.576 48.2646 156.16 46.8566 155.328C45.4806 154.496 44.3926 153.296 43.5926 151.728C42.8246 150.16 42.4406 148.304 42.4406 146.16C42.4406 143.664 42.4406 141.152 42.4406 138.624C42.4406 136.096 42.4406 133.584 42.4406 131.088C43.7526 131.088 45.0806 131.088 46.4246 131.088C47.7686 131.088 49.0806 131.088 50.3606 131.088C50.3606 133.392 50.3606 135.728 50.3606 138.096C50.3606 140.464 50.3606 142.8 50.3606 145.104C50.3606 146.384 50.6486 147.424 51.2246 148.224C51.8326 148.992 52.7766 149.376 54.0566 149.376C55.3366 149.376 56.3286 149.008 57.0326 148.272C57.7366 147.536 58.0886 146.48 58.0886 145.104C58.0886 142.8 58.0886 140.464 58.0886 138.096C58.0886 135.728 58.0886 133.392 58.0886 131.088C59.4006 131.088 60.7286 131.088 62.0726 131.088C63.4166 131.088 64.7286 131.088 66.0086 131.088ZM90.2377 148.224C90.2377 150.208 89.6777 151.84 88.5577 153.12C87.4697 154.368 85.9977 155.28 84.1417 155.856C82.2857 156.432 80.2057 156.672 77.9017 156.576C75.6297 156.512 73.3097 156.144 70.9417 155.472C70.9417 154.256 70.9417 153.008 70.9417 151.728C70.9417 150.448 70.9417 149.2 70.9417 147.984C72.2857 148.592 73.6297 149.072 74.9737 149.424C76.3177 149.744 77.5337 149.936 78.6217 150C79.7097 150.064 80.5897 149.984 81.2617 149.76C81.9337 149.504 82.2697 149.088 82.2697 148.512C82.2697 148.064 81.9817 147.712 81.4057 147.456C80.8617 147.2 80.1417 146.976 79.2457 146.784C78.3497 146.56 77.3897 146.304 76.3657 146.016C75.3737 145.696 74.4297 145.264 73.5337 144.72C72.6377 144.144 71.9017 143.392 71.3257 142.464C70.7817 141.504 70.5097 140.272 70.5097 138.768C70.5097 136.976 71.0217 135.456 72.0457 134.208C73.1017 132.928 74.5097 131.968 76.2697 131.328C78.0297 130.656 79.9977 130.32 82.1737 130.32C84.3497 130.32 86.5737 130.688 88.8457 131.424C88.8457 132.64 88.8457 133.888 88.8457 135.168C88.8457 136.448 88.8457 137.696 88.8457 138.912C87.0537 138.048 85.3737 137.472 83.8057 137.184C82.2377 136.896 80.9737 136.864 80.0137 137.088C79.0537 137.28 78.5737 137.712 78.5737 138.384C78.5737 138.832 78.8457 139.184 79.3897 139.44C79.9657 139.664 80.6857 139.872 81.5497 140.064C82.4457 140.256 83.3897 140.512 84.3817 140.832C85.4057 141.152 86.3497 141.6 87.2137 142.176C88.1097 142.72 88.8297 143.488 89.3737 144.48C89.9497 145.44 90.2377 146.688 90.2377 148.224ZM98.2829 128.256C97.3549 128.256 96.5069 128.032 95.7389 127.584C95.0029 127.136 94.4109 126.544 93.9629 125.808C93.5149 125.072 93.2909 124.256 93.2909 123.36C93.2909 122.464 93.5149 121.664 93.9629 120.96C94.4109 120.224 95.0029 119.632 95.7389 119.184C96.5069 118.736 97.3549 118.512 98.2829 118.512C99.1789 118.512 99.9949 118.736 100.731 119.184C101.499 119.632 102.107 120.224 102.555 120.96C103.003 121.664 103.227 122.464 103.227 123.36C103.227 124.256 103.003 125.072 102.555 125.808C102.107 126.544 101.499 127.136 100.731 127.584C99.9949 128.032 99.1789 128.256 98.2829 128.256ZM94.2989 155.904C94.2989 151.808 94.2989 147.68 94.2989 143.52C94.2989 139.328 94.2989 135.184 94.2989 131.088C95.6109 131.088 96.9389 131.088 98.2829 131.088C99.6269 131.088 100.939 131.088 102.219 131.088C102.219 135.184 102.219 139.328 102.219 143.52C102.219 147.68 102.219 151.808 102.219 155.904C100.939 155.904 99.6269 155.904 98.2829 155.904C96.9389 155.904 95.6109 155.904 94.2989 155.904ZM106.402 143.472C106.402 141.04 106.898 138.912 107.89 137.088C108.882 135.232 110.258 133.744 112.018 132.624C113.778 131.504 115.826 130.832 118.162 130.608C120.498 130.352 122.994 130.624 125.65 131.424C125.65 132.64 125.65 133.872 125.65 135.12C125.65 136.368 125.65 137.6 125.65 138.816C123.794 137.92 122.018 137.504 120.322 137.568C118.626 137.632 117.234 138.16 116.146 139.152C115.058 140.112 114.514 141.552 114.514 143.472C114.514 145.392 115.058 146.848 116.146 147.84C117.234 148.8 118.626 149.312 120.322 149.376C122.018 149.408 123.794 148.992 125.65 148.128C125.65 149.344 125.65 150.576 125.65 151.824C125.65 153.072 125.65 154.304 125.65 155.52C122.994 156.32 120.498 156.592 118.162 156.336C115.826 156.112 113.778 155.44 112.018 154.32C110.258 153.2 108.882 151.728 107.89 149.904C106.898 148.048 106.402 145.904 106.402 143.472ZM146.9 155.904C146.9 155.648 146.9 155.408 146.9 155.184C146.9 154.928 146.9 154.688 146.9 154.464C146.1 155.136 145.188 155.648 144.164 156C143.172 156.384 142.1 156.576 140.948 156.576C139.316 156.576 137.78 156.272 136.34 155.664C134.9 155.024 133.62 154.128 132.5 152.976C131.412 151.792 130.548 150.4 129.908 148.8C129.3 147.2 128.996 145.424 128.996 143.472C128.996 141.488 129.3 139.696 129.908 138.096C130.548 136.496 131.412 135.136 132.5 134.016C133.62 132.864 134.9 131.984 136.34 131.376C137.78 130.736 139.3 130.416 140.9 130.416C142.052 130.416 143.14 130.608 144.164 130.992C145.188 131.344 146.1 131.84 146.9 132.48C146.9 132.224 146.9 131.984 146.9 131.76C146.9 131.536 146.9 131.312 146.9 131.088C148.212 131.088 149.54 131.088 150.884 131.088C152.228 131.088 153.54 131.088 154.82 131.088C154.82 135.184 154.82 139.328 154.82 143.52C154.82 147.68 154.82 151.808 154.82 155.904C153.54 155.904 152.228 155.904 150.884 155.904C149.54 155.904 148.212 155.904 146.9 155.904ZM142.004 149.568C143.54 149.568 144.772 149.008 145.7 147.888C146.628 146.768 147.092 145.296 147.092 143.472C147.092 141.648 146.628 140.192 145.7 139.104C144.772 137.984 143.54 137.424 142.004 137.424C140.436 137.424 139.188 137.968 138.26 139.056C137.364 140.144 136.916 141.616 136.916 143.472C136.916 145.328 137.364 146.816 138.26 147.936C139.188 149.024 140.436 149.568 142.004 149.568ZM160.346 155.904C160.346 150.112 160.346 144.272 160.346 138.384C160.346 132.496 160.346 126.656 160.346 120.864C161.658 120.864 162.986 120.864 164.33 120.864C165.674 120.864 166.986 120.864 168.266 120.864C168.266 126.656 168.266 132.496 168.266 138.384C168.266 144.272 168.266 150.112 168.266 155.904C166.986 155.904 165.674 155.904 164.33 155.904C162.986 155.904 161.658 155.904 160.346 155.904ZM207.199 151.872C207.199 154.592 206.607 156.864 205.423 158.688C204.271 160.512 202.687 161.872 200.671 162.768C198.655 163.696 196.351 164.176 193.759 164.208C191.199 164.24 188.495 163.856 185.647 163.056C185.647 161.808 185.647 160.544 185.647 159.264C185.647 158.016 185.647 156.768 185.647 155.52C188.175 156.512 190.463 157.008 192.511 157.008C194.559 157.04 196.175 156.656 197.359 155.856C198.575 155.024 199.183 153.888 199.183 152.448C199.183 152.288 199.183 152.144 199.183 152.016C199.183 151.856 199.183 151.712 199.183 151.584C198.383 152.192 197.455 152.672 196.399 153.024C195.343 153.376 194.207 153.552 192.991 153.552C190.975 153.552 189.167 153.088 187.567 152.16C185.999 151.2 184.767 149.888 183.871 148.224C182.975 146.528 182.527 144.56 182.527 142.32C182.527 140.592 182.815 139.008 183.391 137.568C183.967 136.128 184.767 134.88 185.791 133.824C186.815 132.768 187.983 131.968 189.295 131.424C190.607 130.848 191.983 130.56 193.423 130.56C194.575 130.56 195.647 130.72 196.639 131.04C197.631 131.36 198.511 131.792 199.279 132.336C199.279 132.112 199.279 131.904 199.279 131.712C199.279 131.52 199.279 131.312 199.279 131.088C200.591 131.088 201.919 131.088 203.263 131.088C204.607 131.088 205.919 131.088 207.199 131.088C207.199 134.512 207.199 137.984 207.199 141.504C207.199 144.992 207.199 148.448 207.199 151.872ZM194.959 146.688C196.303 146.688 197.375 146.272 198.175 145.44C199.007 144.576 199.423 143.472 199.423 142.128C199.423 140.752 199.007 139.632 198.175 138.768C197.375 137.904 196.303 137.472 194.959 137.472C193.551 137.472 192.431 137.904 191.599 138.768C190.767 139.6 190.351 140.72 190.351 142.128C190.351 143.504 190.767 144.608 191.599 145.44C192.431 146.272 193.551 146.688 194.959 146.688ZM233.825 154.752C231.617 155.68 229.425 156.256 227.249 156.48C225.073 156.704 223.009 156.576 221.057 156.096C219.137 155.648 217.425 154.864 215.921 153.744C214.417 152.624 213.233 151.2 212.369 149.472C211.537 147.744 211.121 145.744 211.121 143.472C211.121 141.584 211.425 139.856 212.033 138.288C212.673 136.688 213.569 135.296 214.721 134.112C215.873 132.896 217.233 131.968 218.801 131.328C220.369 130.656 222.081 130.32 223.937 130.32C225.601 130.32 227.105 130.592 228.449 131.136C229.793 131.68 230.961 132.448 231.953 133.44C232.945 134.4 233.745 135.552 234.353 136.896C234.961 138.24 235.345 139.712 235.505 141.312C235.665 142.912 235.569 144.608 235.217 146.4C232.593 146.4 229.953 146.4 227.297 146.4C224.641 146.4 222.001 146.4 219.377 146.4C219.985 147.616 220.993 148.48 222.401 148.992C223.841 149.504 225.537 149.664 227.489 149.472C229.473 149.28 231.585 148.768 233.825 147.936C233.825 149.056 233.825 150.192 233.825 151.344C233.825 152.496 233.825 153.632 233.825 154.752ZM223.745 137.424C222.817 137.424 221.953 137.68 221.153 138.192C220.385 138.704 219.793 139.488 219.377 140.544C220.817 140.544 222.257 140.544 223.697 140.544C225.169 140.544 226.625 140.544 228.065 140.544C227.681 139.456 227.105 138.672 226.337 138.192C225.601 137.68 224.737 137.424 223.745 137.424ZM239.7 155.904C239.7 151.808 239.7 147.68 239.7 143.52C239.7 139.328 239.7 135.184 239.7 131.088C241.012 131.088 242.34 131.088 243.684 131.088C245.028 131.088 246.34 131.088 247.62 131.088C247.62 131.312 247.62 131.52 247.62 131.712C247.62 131.904 247.62 132.112 247.62 132.336C248.484 131.728 249.444 131.264 250.5 130.944C251.588 130.592 252.756 130.416 254.004 130.416C255.828 130.416 257.428 130.832 258.804 131.664C260.212 132.496 261.3 133.696 262.068 135.264C262.868 136.8 263.268 138.656 263.268 140.832C263.268 143.328 263.268 145.84 263.268 148.368C263.268 150.896 263.268 153.408 263.268 155.904C261.988 155.904 260.676 155.904 259.332 155.904C257.988 155.904 256.66 155.904 255.348 155.904C255.348 153.6 255.348 151.264 255.348 148.896C255.348 146.528 255.348 144.192 255.348 141.888C255.348 140.608 255.044 139.584 254.436 138.816C253.86 138.016 252.932 137.616 251.652 137.616C250.372 137.616 249.38 137.984 248.676 138.72C247.972 139.456 247.62 140.512 247.62 141.888C247.62 144.192 247.62 146.528 247.62 148.896C247.62 151.264 247.62 153.6 247.62 155.904C246.34 155.904 245.028 155.904 243.684 155.904C242.34 155.904 241.012 155.904 239.7 155.904ZM289.513 154.752C287.305 155.68 285.113 156.256 282.937 156.48C280.761 156.704 278.697 156.576 276.745 156.096C274.825 155.648 273.113 154.864 271.609 153.744C270.105 152.624 268.921 151.2 268.057 149.472C267.225 147.744 266.809 145.744 266.809 143.472C266.809 141.584 267.113 139.856 267.721 138.288C268.361 136.688 269.257 135.296 270.409 134.112C271.561 132.896 272.921 131.968 274.489 131.328C276.057 130.656 277.769 130.32 279.625 130.32C281.289 130.32 282.793 130.592 284.137 131.136C285.481 131.68 286.649 132.448 287.641 133.44C288.633 134.4 289.433 135.552 290.041 136.896C290.649 138.24 291.033 139.712 291.193 141.312C291.353 142.912 291.257 144.608 290.905 146.4C288.281 146.4 285.641 146.4 282.985 146.4C280.329 146.4 277.689 146.4 275.065 146.4C275.673 147.616 276.681 148.48 278.089 148.992C279.529 149.504 281.225 149.664 283.177 149.472C285.161 149.28 287.273 148.768 289.513 147.936C289.513 149.056 289.513 150.192 289.513 151.344C289.513 152.496 289.513 153.632 289.513 154.752ZM279.433 137.424C278.505 137.424 277.641 137.68 276.841 138.192C276.073 138.704 275.481 139.488 275.065 140.544C276.505 140.544 277.945 140.544 279.385 140.544C280.857 140.544 282.313 140.544 283.753 140.544C283.369 139.456 282.793 138.672 282.025 138.192C281.289 137.68 280.425 137.424 279.433 137.424ZM314.347 148.224C314.347 150.208 313.787 151.84 312.667 153.12C311.579 154.368 310.107 155.28 308.251 155.856C306.395 156.432 304.315 156.672 302.011 156.576C299.739 156.512 297.419 156.144 295.051 155.472C295.051 154.256 295.051 153.008 295.051 151.728C295.051 150.448 295.051 149.2 295.051 147.984C296.395 148.592 297.739 149.072 299.083 149.424C300.427 149.744 301.643 149.936 302.731 150C303.819 150.064 304.699 149.984 305.371 149.76C306.043 149.504 306.379 149.088 306.379 148.512C306.379 148.064 306.091 147.712 305.515 147.456C304.971 147.2 304.251 146.976 303.355 146.784C302.459 146.56 301.499 146.304 300.475 146.016C299.483 145.696 298.539 145.264 297.643 144.72C296.747 144.144 296.011 143.392 295.435 142.464C294.891 141.504 294.619 140.272 294.619 138.768C294.619 136.976 295.131 135.456 296.155 134.208C297.211 132.928 298.619 131.968 300.379 131.328C302.139 130.656 304.107 130.32 306.283 130.32C308.459 130.32 310.683 130.688 312.955 131.424C312.955 132.64 312.955 133.888 312.955 135.168C312.955 136.448 312.955 137.696 312.955 138.912C311.163 138.048 309.483 137.472 307.915 137.184C306.347 136.896 305.083 136.864 304.123 137.088C303.163 137.28 302.683 137.712 302.683 138.384C302.683 138.832 302.955 139.184 303.499 139.44C304.075 139.664 304.795 139.872 305.659 140.064C306.555 140.256 307.499 140.512 308.491 140.832C309.515 141.152 310.459 141.6 311.323 142.176C312.219 142.72 312.939 143.488 313.483 144.48C314.059 145.44 314.347 146.688 314.347 148.224Z" fill="#FE9973"/>
<path d="M92.6692 18.1918C92.6692 17.0078 92.6692 15.8238 92.6692 14.6398C92.6692 13.4558 92.6692 12.2718 92.6692 11.0878C93.3092 11.0878 93.9492 11.0878 94.5892 11.0878C95.2612 11.0878 95.9172 11.0878 96.5572 11.0878C96.5572 10.9278 96.5572 10.7838 96.5572 10.6558C96.5572 10.5278 96.5572 10.3998 96.5572 10.2718C96.5572 8.12781 96.9892 6.33581 97.8532 4.89581C98.7492 3.42381 99.9172 2.30381 101.357 1.53581C102.829 0.735806 104.429 0.287807 106.157 0.191808C107.917 0.0638075 109.661 0.287807 111.389 0.863808C111.389 2.04781 111.389 3.26381 111.389 4.51181C111.389 5.75981 111.389 6.99181 111.389 8.20781C109.469 7.56781 107.837 7.43981 106.493 7.82381C105.149 8.20781 104.477 9.03981 104.477 10.3198C104.477 10.4478 104.477 10.5758 104.477 10.7038C104.477 10.8318 104.477 10.9598 104.477 11.0878C105.469 11.0878 106.461 11.0878 107.453 11.0878C108.445 11.0878 109.437 11.0878 110.429 11.0878C110.429 12.2718 110.429 13.4558 110.429 14.6398C110.429 15.8238 110.429 17.0078 110.429 18.1918C109.437 18.1918 108.445 18.1918 107.453 18.1918C106.461 18.1918 105.469 18.1918 104.477 18.1918C104.477 21.1038 104.477 24.0478 104.477 27.0238C104.477 29.9998 104.477 32.9598 104.477 35.9038C103.197 35.9038 101.885 35.9038 100.541 35.9038C99.1972 35.9038 97.8692 35.9038 96.5572 35.9038C96.5572 32.9598 96.5572 29.9998 96.5572 27.0238C96.5572 24.0478 96.5572 21.1038 96.5572 18.1918C95.9172 18.1918 95.2612 18.1918 94.5892 18.1918C93.9492 18.1918 93.3092 18.1918 92.6692 18.1918ZM114.736 35.9038C114.736 30.1118 114.736 24.2718 114.736 18.3838C114.736 12.4958 114.736 6.65581 114.736 0.863808C116.048 0.863808 117.376 0.863808 118.72 0.863808C120.064 0.863808 121.376 0.863808 122.656 0.863808C122.656 6.65581 122.656 12.4958 122.656 18.3838C122.656 24.2718 122.656 30.1118 122.656 35.9038C121.376 35.9038 120.064 35.9038 118.72 35.9038C117.376 35.9038 116.048 35.9038 114.736 35.9038ZM139.944 36.6718C138.088 36.6718 136.36 36.3518 134.76 35.7118C133.16 35.0398 131.768 34.1118 130.584 32.9278C129.4 31.7118 128.472 30.3038 127.8 28.7038C127.16 27.1038 126.84 25.3598 126.84 23.4718C126.84 21.5838 127.16 19.8398 127.8 18.2398C128.472 16.6398 129.4 15.2478 130.584 14.0638C131.768 12.8798 133.16 11.9678 134.76 11.3278C136.36 10.6558 138.088 10.3198 139.944 10.3198C141.832 10.3198 143.56 10.6558 145.128 11.3278C146.728 11.9678 148.12 12.8798 149.304 14.0638C150.488 15.2478 151.4 16.6398 152.04 18.2398C152.712 19.8398 153.048 21.5838 153.048 23.4718C153.048 25.3598 152.712 27.1038 152.04 28.7038C151.4 30.3038 150.488 31.7118 149.304 32.9278C148.12 34.1118 146.728 35.0398 145.128 35.7118C143.56 36.3518 141.832 36.6718 139.944 36.6718ZM139.944 29.5198C141.512 29.5198 142.76 28.9598 143.688 27.8398C144.648 26.6878 145.128 25.2318 145.128 23.4718C145.128 21.6798 144.648 20.2398 143.688 19.1518C142.76 18.0318 141.512 17.4718 139.944 17.4718C138.376 17.4718 137.112 18.0318 136.152 19.1518C135.224 20.2398 134.76 21.6798 134.76 23.4718C134.76 25.2318 135.224 26.6878 136.152 27.8398C137.112 28.9598 138.376 29.5198 139.944 29.5198ZM161.536 35.9038C160.288 31.8078 159.024 27.6798 157.744 23.5198C156.496 19.3278 155.248 15.1838 154 11.0878C155.312 11.0878 156.64 11.0878 157.984 11.0878C159.36 11.0878 160.704 11.0878 162.016 11.0878C162.656 13.3278 163.296 15.5998 163.936 17.9038C164.608 20.1758 165.248 22.4318 165.856 24.6718C166.4 22.4318 166.944 20.1758 167.488 17.9038C168.064 15.5998 168.608 13.3278 169.12 11.0878C170.24 11.0878 171.36 11.0878 172.48 11.0878C173.632 11.0878 174.768 11.0878 175.888 11.0878C176.432 13.3278 176.976 15.6158 177.52 17.9518C178.096 20.2558 178.64 22.5438 179.152 24.8158C179.792 22.5438 180.432 20.2558 181.072 17.9518C181.744 15.6158 182.384 13.3278 182.992 11.0878C184.304 11.0878 185.616 11.0878 186.928 11.0878C188.272 11.0878 189.584 11.0878 190.864 11.0878C189.616 15.1838 188.352 19.3278 187.072 23.5198C185.824 27.6798 184.576 31.8078 183.328 35.9038C182.048 35.9038 180.752 35.9038 179.44 35.9038C178.128 35.9038 176.832 35.9038 175.552 35.9038C175.04 33.9198 174.512 31.9198 173.968 29.9038C173.456 27.8878 172.944 25.9038 172.432 23.9518C171.92 25.9038 171.392 27.8878 170.848 29.9038C170.336 31.9198 169.824 33.9198 169.312 35.9038C168.032 35.9038 166.736 35.9038 165.424 35.9038C164.112 35.9038 162.816 35.9038 161.536 35.9038ZM214.56 34.7518C212.352 35.6798 210.16 36.2558 207.984 36.4798C205.808 36.7038 203.744 36.5758 201.792 36.0958C199.872 35.6478 198.16 34.8638 196.656 33.7438C195.152 32.6238 193.968 31.1998 193.104 29.4718C192.272 27.7438 191.856 25.7438 191.856 23.4718C191.856 21.5838 192.16 19.8558 192.768 18.2878C193.408 16.6878 194.304 15.2958 195.456 14.1118C196.608 12.8958 197.968 11.9678 199.536 11.3278C201.104 10.6558 202.816 10.3198 204.672 10.3198C206.336 10.3198 207.84 10.5918 209.184 11.1358C210.528 11.6798 211.696 12.4478 212.688 13.4398C213.68 14.3998 214.48 15.5518 215.088 16.8958C215.696 18.2398 216.08 19.7118 216.24 21.3118C216.4 22.9118 216.304 24.6078 215.952 26.3998C213.328 26.3998 210.688 26.3998 208.032 26.3998C205.376 26.3998 202.736 26.3998 200.112 26.3998C200.72 27.6158 201.728 28.4798 203.136 28.9918C204.576 29.5038 206.272 29.6638 208.224 29.4718C210.208 29.2798 212.32 28.7678 214.56 27.9358C214.56 29.0558 214.56 30.1918 214.56 31.3438C214.56 32.4958 214.56 33.6318 214.56 34.7518ZM204.48 17.4238C203.552 17.4238 202.688 17.6798 201.888 18.1918C201.12 18.7038 200.528 19.4878 200.112 20.5438C201.552 20.5438 202.992 20.5438 204.432 20.5438C205.904 20.5438 207.36 20.5438 208.8 20.5438C208.416 19.4558 207.84 18.6718 207.072 18.1918C206.336 17.6798 205.472 17.4238 204.48 17.4238ZM220.434 35.9038C220.434 31.8078 220.434 27.6798 220.434 23.5198C220.434 19.3278 220.434 15.1838 220.434 11.0878C221.746 11.0878 223.074 11.0878 224.418 11.0878C225.762 11.0878 227.074 11.0878 228.354 11.0878C228.354 11.3118 228.354 11.5358 228.354 11.7598C228.354 11.9838 228.354 12.2078 228.354 12.4318C229.346 11.7278 230.466 11.1998 231.714 10.8478C232.962 10.4958 234.322 10.3998 235.794 10.5598C235.794 11.8398 235.794 13.1358 235.794 14.4478C235.794 15.7598 235.794 17.0558 235.794 18.3358C233.266 17.9838 231.394 18.2078 230.178 19.0078C228.962 19.7758 228.354 21.0398 228.354 22.7998C228.354 24.9438 228.354 27.1198 228.354 29.3278C228.354 31.5358 228.354 33.7278 228.354 35.9038C227.074 35.9038 225.762 35.9038 224.418 35.9038C223.074 35.9038 221.746 35.9038 220.434 35.9038ZM257.37 43.5838C256.09 43.5838 254.778 43.5838 253.434 43.5838C252.09 43.5838 250.762 43.5838 249.45 43.5838C249.45 38.2398 249.45 32.8318 249.45 27.3598C249.45 21.8558 249.45 16.4318 249.45 11.0878C250.762 11.0878 252.09 11.0878 253.434 11.0878C254.778 11.0878 256.09 11.0878 257.37 11.0878C257.37 11.3118 257.37 11.5358 257.37 11.7598C257.37 11.9838 257.37 12.2238 257.37 12.4798C258.17 11.8398 259.082 11.3438 260.106 10.9918C261.13 10.6078 262.218 10.4158 263.37 10.4158C264.97 10.4158 266.49 10.7358 267.93 11.3758C269.37 11.9838 270.634 12.8638 271.722 14.0158C272.842 15.1678 273.706 16.5438 274.314 18.1438C274.954 19.7438 275.274 21.5198 275.274 23.4718C275.274 25.3918 274.954 27.1518 274.314 28.7518C273.706 30.3518 272.842 31.7438 271.722 32.9278C270.634 34.0798 269.37 34.9758 267.93 35.6158C266.49 36.2558 264.954 36.5758 263.322 36.5758C262.17 36.5758 261.082 36.3838 260.058 35.9998C259.066 35.6478 258.17 35.1358 257.37 34.4638C257.37 35.9678 257.37 37.4878 257.37 39.0238C257.37 40.5598 257.37 42.0798 257.37 43.5838ZM262.266 29.5678C263.834 29.5678 265.066 29.0238 265.962 27.9358C266.89 26.8158 267.354 25.3278 267.354 23.4718C267.354 21.6158 266.89 20.1438 265.962 19.0558C265.066 17.9678 263.834 17.4238 262.266 17.4238C260.73 17.4238 259.498 17.9838 258.57 19.1038C257.642 20.1918 257.178 21.6478 257.178 23.4718C257.178 25.2958 257.642 26.7678 258.57 27.8878C259.498 29.0078 260.73 29.5678 262.266 29.5678ZM295.775 35.9038C295.775 35.6478 295.775 35.4078 295.775 35.1838C295.775 34.9278 295.775 34.6878 295.775 34.4638C294.975 35.1358 294.063 35.6478 293.039 35.9998C292.047 36.3838 290.975 36.5758 289.823 36.5758C288.191 36.5758 286.655 36.2718 285.215 35.6638C283.775 35.0238 282.495 34.1278 281.375 32.9758C280.287 31.7918 279.423 30.3998 278.783 28.7998C278.175 27.1998 277.871 25.4238 277.871 23.4718C277.871 21.4878 278.175 19.6958 278.783 18.0958C279.423 16.4958 280.287 15.1358 281.375 14.0158C282.495 12.8638 283.775 11.9838 285.215 11.3758C286.655 10.7358 288.175 10.4158 289.775 10.4158C290.927 10.4158 292.015 10.6078 293.039 10.9918C294.063 11.3438 294.975 11.8398 295.775 12.4798C295.775 12.2238 295.775 11.9838 295.775 11.7598C295.775 11.5358 295.775 11.3118 295.775 11.0878C297.087 11.0878 298.415 11.0878 299.759 11.0878C301.103 11.0878 302.415 11.0878 303.695 11.0878C303.695 15.1838 303.695 19.3278 303.695 23.5198C303.695 27.6798 303.695 31.8078 303.695 35.9038C302.415 35.9038 301.103 35.9038 299.759 35.9038C298.415 35.9038 297.087 35.9038 295.775 35.9038ZM290.879 29.5678C292.415 29.5678 293.647 29.0078 294.575 27.8878C295.503 26.7678 295.967 25.2958 295.967 23.4718C295.967 21.6478 295.503 20.1918 294.575 19.1038C293.647 17.9838 292.415 17.4238 290.879 17.4238C289.311 17.4238 288.063 17.9678 287.135 19.0558C286.239 20.1438 285.791 21.6158 285.791 23.4718C285.791 25.3278 286.239 26.8158 287.135 27.9358C288.063 29.0238 289.311 29.5678 290.879 29.5678ZM308.981 35.9038C308.981 31.8078 308.981 27.6798 308.981 23.5198C308.981 19.3278 308.981 15.1838 308.981 11.0878C310.293 11.0878 311.621 11.0878 312.965 11.0878C314.309 11.0878 315.621 11.0878 316.901 11.0878C316.901 11.3118 316.901 11.5358 316.901 11.7598C316.901 11.9838 316.901 12.2078 316.901 12.4318C317.893 11.7278 319.013 11.1998 320.261 10.8478C321.509 10.4958 322.869 10.3998 324.341 10.5598C324.341 11.8398 324.341 13.1358 324.341 14.4478C324.341 15.7598 324.341 17.0558 324.341 18.3358C321.813 17.9838 319.941 18.2078 318.725 19.0078C317.509 19.7758 316.901 21.0398 316.901 22.7998C316.901 24.9438 316.901 27.1198 316.901 29.3278C316.901 31.5358 316.901 33.7278 316.901 35.9038C315.621 35.9038 314.309 35.9038 312.965 35.9038C311.621 35.9038 310.293 35.9038 308.981 35.9038ZM330.51 35.9038C330.51 32.9598 330.51 29.9998 330.51 27.0238C330.51 24.0478 330.51 21.1038 330.51 18.1918C329.87 18.1918 329.214 18.1918 328.542 18.1918C327.902 18.1918 327.262 18.1918 326.622 18.1918C326.622 17.0078 326.622 15.8238 326.622 14.6398C326.622 13.4558 326.622 12.2718 326.622 11.0878C327.262 11.0878 327.902 11.0878 328.542 11.0878C329.214 11.0878 329.87 11.0878 330.51 11.0878C330.51 9.96781 330.51 8.86381 330.51 7.77581C330.51 6.65581 330.51 5.55181 330.51 4.46381C331.822 4.46381 333.15 4.46381 334.494 4.46381C335.838 4.46381 337.15 4.46381 338.43 4.46381C338.43 5.55181 338.43 6.65581 338.43 7.77581C338.43 8.86381 338.43 9.96781 338.43 11.0878C339.166 11.0878 339.918 11.0878 340.686 11.0878C341.454 11.0878 342.206 11.0878 342.942 11.0878C342.942 12.2718 342.942 13.4558 342.942 14.6398C342.942 15.8238 342.942 17.0078 342.942 18.1918C342.206 18.1918 341.454 18.1918 340.686 18.1918C339.918 18.1918 339.166 18.1918 338.43 18.1918C338.43 21.1038 338.43 24.0478 338.43 27.0238C338.43 29.9998 338.43 32.9598 338.43 35.9038C337.15 35.9038 335.838 35.9038 334.494 35.9038C333.15 35.9038 331.822 35.9038 330.51 35.9038ZM365.722 28.2238C365.722 30.2078 365.162 31.8398 364.042 33.1198C362.954 34.3678 361.482 35.2798 359.626 35.8558C357.77 36.4318 355.69 36.6718 353.386 36.5758C351.114 36.5118 348.794 36.1438 346.426 35.4718C346.426 34.2558 346.426 33.0078 346.426 31.7278C346.426 30.4478 346.426 29.1998 346.426 27.9838C347.77 28.5918 349.114 29.0718 350.458 29.4238C351.802 29.7438 353.018 29.9358 354.106 29.9998C355.194 30.0638 356.074 29.9838 356.746 29.7598C357.418 29.5038 357.754 29.0878 357.754 28.5118C357.754 28.0638 357.466 27.7118 356.89 27.4558C356.346 27.1998 355.626 26.9758 354.73 26.7838C353.834 26.5598 352.874 26.3038 351.85 26.0158C350.858 25.6958 349.914 25.2638 349.018 24.7198C348.122 24.1438 347.386 23.3918 346.81 22.4638C346.266 21.5038 345.994 20.2718 345.994 18.7678C345.994 16.9758 346.506 15.4558 347.53 14.2078C348.586 12.9278 349.994 11.9678 351.754 11.3278C353.514 10.6558 355.482 10.3198 357.658 10.3198C359.834 10.3198 362.058 10.6878 364.33 11.4238C364.33 12.6398 364.33 13.8878 364.33 15.1678C364.33 16.4478 364.33 17.6958 364.33 18.9118C362.538 18.0478 360.858 17.4718 359.29 17.1838C357.722 16.8958 356.458 16.8638 355.498 17.0878C354.538 17.2798 354.058 17.7118 354.058 18.3838C354.058 18.8318 354.33 19.1838 354.874 19.4398C355.45 19.6638 356.17 19.8718 357.034 20.0638C357.93 20.2558 358.874 20.5118 359.866 20.8318C360.89 21.1518 361.834 21.5998 362.698 22.1758C363.594 22.7198 364.314 23.4878 364.858 24.4798C365.434 25.4398 365.722 26.6878 365.722 28.2238ZM382.213 35.9038C382.213 32.9598 382.213 29.9998 382.213 27.0238C382.213 24.0478 382.213 21.1038 382.213 18.1918C381.573 18.1918 380.917 18.1918 380.245 18.1918C379.605 18.1918 378.965 18.1918 378.325 18.1918C378.325 17.0078 378.325 15.8238 378.325 14.6398C378.325 13.4558 378.325 12.2718 378.325 11.0878C378.965 11.0878 379.605 11.0878 380.245 11.0878C380.917 11.0878 381.573 11.0878 382.213 11.0878C382.213 9.96781 382.213 8.86381 382.213 7.77581C382.213 6.65581 382.213 5.55181 382.213 4.46381C383.525 4.46381 384.853 4.46381 386.197 4.46381C387.541 4.46381 388.853 4.46381 390.133 4.46381C390.133 5.55181 390.133 6.65581 390.133 7.77581C390.133 8.86381 390.133 9.96781 390.133 11.0878C390.869 11.0878 391.621 11.0878 392.389 11.0878C393.157 11.0878 393.909 11.0878 394.645 11.0878C394.645 12.2718 394.645 13.4558 394.645 14.6398C394.645 15.8238 394.645 17.0078 394.645 18.1918C393.909 18.1918 393.157 18.1918 392.389 18.1918C391.621 18.1918 390.869 18.1918 390.133 18.1918C390.133 21.1038 390.133 24.0478 390.133 27.0238C390.133 29.9998 390.133 32.9598 390.133 35.9038C388.853 35.9038 387.541 35.9038 386.197 35.9038C384.853 35.9038 383.525 35.9038 382.213 35.9038ZM409.991 36.6718C408.135 36.6718 406.407 36.3518 404.807 35.7118C403.207 35.0398 401.815 34.1118 400.631 32.9278C399.447 31.7118 398.519 30.3038 397.847 28.7038C397.207 27.1038 396.887 25.3598 396.887 23.4718C396.887 21.5838 397.207 19.8398 397.847 18.2398C398.519 16.6398 399.447 15.2478 400.631 14.0638C401.815 12.8798 403.207 11.9678 404.807 11.3278C406.407 10.6558 408.135 10.3198 409.991 10.3198C411.879 10.3198 413.607 10.6558 415.175 11.3278C416.775 11.9678 418.167 12.8798 419.351 14.0638C420.535 15.2478 421.447 16.6398 422.087 18.2398C422.759 19.8398 423.095 21.5838 423.095 23.4718C423.095 25.3598 422.759 27.1038 422.087 28.7038C421.447 30.3038 420.535 31.7118 419.351 32.9278C418.167 34.1118 416.775 35.0398 415.175 35.7118C413.607 36.3518 411.879 36.6718 409.991 36.6718ZM409.991 29.5198C411.559 29.5198 412.807 28.9598 413.735 27.8398C414.695 26.6878 415.175 25.2318 415.175 23.4718C415.175 21.6798 414.695 20.2398 413.735 19.1518C412.807 18.0318 411.559 17.4718 409.991 17.4718C408.423 17.4718 407.159 18.0318 406.199 19.1518C405.271 20.2398 404.807 21.6798 404.807 23.4718C404.807 25.2318 405.271 26.6878 406.199 27.8398C407.159 28.9598 408.423 29.5198 409.991 29.5198ZM458.45 34.7518C456.242 35.6798 454.05 36.2558 451.874 36.4798C449.698 36.7038 447.634 36.5758 445.682 36.0958C443.762 35.6478 442.05 34.8638 440.546 33.7438C439.042 32.6238 437.858 31.1998 436.994 29.4718C436.162 27.7438 435.746 25.7438 435.746 23.4718C435.746 21.5838 436.05 19.8558 436.658 18.2878C437.298 16.6878 438.194 15.2958 439.346 14.1118C440.498 12.8958 441.858 11.9678 443.426 11.3278C444.994 10.6558 446.706 10.3198 448.562 10.3198C450.226 10.3198 451.73 10.5918 453.074 11.1358C454.418 11.6798 455.586 12.4478 456.578 13.4398C457.57 14.3998 458.37 15.5518 458.978 16.8958C459.586 18.2398 459.97 19.7118 460.13 21.3118C460.29 22.9118 460.194 24.6078 459.842 26.3998C457.218 26.3998 454.578 26.3998 451.922 26.3998C449.266 26.3998 446.626 26.3998 444.002 26.3998C444.61 27.6158 445.618 28.4798 447.026 28.9918C448.466 29.5038 450.162 29.6638 452.114 29.4718C454.098 29.2798 456.21 28.7678 458.45 27.9358C458.45 29.0558 458.45 30.1918 458.45 31.3438C458.45 32.4958 458.45 33.6318 458.45 34.7518ZM448.37 17.4238C447.442 17.4238 446.578 17.6798 445.778 18.1918C445.01 18.7038 444.418 19.4878 444.002 20.5438C445.442 20.5438 446.882 20.5438 448.322 20.5438C449.794 20.5438 451.25 20.5438 452.69 20.5438C452.306 19.4558 451.73 18.6718 450.962 18.1918C450.226 17.6798 449.362 17.4238 448.37 17.4238ZM461.84 11.0878C463.312 11.0878 464.784 11.0878 466.256 11.0878C467.728 11.0878 469.2 11.0878 470.672 11.0878C471.248 12.0478 471.84 13.0238 472.448 14.0158C473.056 14.9758 473.648 15.9358 474.224 16.8958C474.832 15.9358 475.44 14.9758 476.048 14.0158C476.656 13.0238 477.264 12.0478 477.872 11.0878C479.312 11.0878 480.768 11.0878 482.24 11.0878C483.712 11.0878 485.168 11.0878 486.608 11.0878C485.36 13.0398 484.08 15.0078 482.768 16.9918C481.488 18.9758 480.224 20.9598 478.976 22.9438C480.288 25.0878 481.616 27.2478 482.96 29.4238C484.304 31.5998 485.616 33.7598 486.896 35.9038C485.424 35.9038 483.952 35.9038 482.48 35.9038C481.008 35.9038 479.536 35.9038 478.064 35.9038C477.424 34.8158 476.768 33.7278 476.096 32.6398C475.456 31.5198 474.816 30.4158 474.176 29.3278C473.536 30.4158 472.864 31.5198 472.16 32.6398C471.488 33.7278 470.832 34.8158 470.192 35.9038C468.752 35.9038 467.296 35.9038 465.824 35.9038C464.352 35.9038 462.896 35.9038 461.456 35.9038C462.768 33.8238 464.096 31.7118 465.44 29.5678C466.784 27.3918 468.112 25.2638 469.424 23.1838C468.176 21.1998 466.912 19.1838 465.632 17.1358C464.352 15.0878 463.088 13.0718 461.84 11.0878ZM497.698 43.5838C496.418 43.5838 495.106 43.5838 493.762 43.5838C492.418 43.5838 491.09 43.5838 489.778 43.5838C489.778 38.2398 489.778 32.8318 489.778 27.3598C489.778 21.8558 489.778 16.4318 489.778 11.0878C491.09 11.0878 492.418 11.0878 493.762 11.0878C495.106 11.0878 496.418 11.0878 497.698 11.0878C497.698 11.3118 497.698 11.5358 497.698 11.7598C497.698 11.9838 497.698 12.2238 497.698 12.4798C498.498 11.8398 499.41 11.3438 500.434 10.9918C501.458 10.6078 502.546 10.4158 503.698 10.4158C505.298 10.4158 506.818 10.7358 508.258 11.3758C509.698 11.9838 510.962 12.8638 512.05 14.0158C513.17 15.1678 514.034 16.5438 514.642 18.1438C515.282 19.7438 515.602 21.5198 515.602 23.4718C515.602 25.3918 515.282 27.1518 514.642 28.7518C514.034 30.3518 513.17 31.7438 512.05 32.9278C510.962 34.0798 509.698 34.9758 508.258 35.6158C506.818 36.2558 505.282 36.5758 503.65 36.5758C502.498 36.5758 501.41 36.3838 500.386 35.9998C499.394 35.6478 498.498 35.1358 497.698 34.4638C497.698 35.9678 497.698 37.4878 497.698 39.0238C497.698 40.5598 497.698 42.0798 497.698 43.5838ZM502.594 29.5678C504.162 29.5678 505.394 29.0238 506.29 27.9358C507.218 26.8158 507.682 25.3278 507.682 23.4718C507.682 21.6158 507.218 20.1438 506.29 19.0558C505.394 17.9678 504.162 17.4238 502.594 17.4238C501.058 17.4238 499.826 17.9838 498.898 19.1038C497.97 20.1918 497.506 21.6478 497.506 23.4718C497.506 25.2958 497.97 26.7678 498.898 27.8878C499.826 29.0078 501.058 29.5678 502.594 29.5678ZM519.783 35.9038C519.783 30.1118 519.783 24.2718 519.783 18.3838C519.783 12.4958 519.783 6.65581 519.783 0.863808C521.095 0.863808 522.423 0.863808 523.767 0.863808C525.111 0.863808 526.423 0.863808 527.703 0.863808C527.703 6.65581 527.703 12.4958 527.703 18.3838C527.703 24.2718 527.703 30.1118 527.703 35.9038C526.423 35.9038 525.111 35.9038 523.767 35.9038C522.423 35.9038 521.095 35.9038 519.783 35.9038ZM544.991 36.6718C543.135 36.6718 541.407 36.3518 539.807 35.7118C538.207 35.0398 536.815 34.1118 535.631 32.9278C534.447 31.7118 533.519 30.3038 532.847 28.7038C532.207 27.1038 531.887 25.3598 531.887 23.4718C531.887 21.5838 532.207 19.8398 532.847 18.2398C533.519 16.6398 534.447 15.2478 535.631 14.0638C536.815 12.8798 538.207 11.9678 539.807 11.3278C541.407 10.6558 543.135 10.3198 544.991 10.3198C546.879 10.3198 548.607 10.6558 550.175 11.3278C551.775 11.9678 553.167 12.8798 554.351 14.0638C555.535 15.2478 556.447 16.6398 557.087 18.2398C557.759 19.8398 558.095 21.5838 558.095 23.4718C558.095 25.3598 557.759 27.1038 557.087 28.7038C556.447 30.3038 555.535 31.7118 554.351 32.9278C553.167 34.1118 551.775 35.0398 550.175 35.7118C548.607 36.3518 546.879 36.6718 544.991 36.6718ZM544.991 29.5198C546.559 29.5198 547.807 28.9598 548.735 27.8398C549.695 26.6878 550.175 25.2318 550.175 23.4718C550.175 21.6798 549.695 20.2398 548.735 19.1518C547.807 18.0318 546.559 17.4718 544.991 17.4718C543.423 17.4718 542.159 18.0318 541.199 19.1518C540.271 20.2398 539.807 21.6798 539.807 23.4718C539.807 25.2318 540.271 26.6878 541.199 27.8398C542.159 28.9598 543.423 29.5198 544.991 29.5198ZM562.012 35.9038C562.012 31.8078 562.012 27.6798 562.012 23.5198C562.012 19.3278 562.012 15.1838 562.012 11.0878C563.324 11.0878 564.652 11.0878 565.996 11.0878C567.34 11.0878 568.652 11.0878 569.932 11.0878C569.932 11.3118 569.932 11.5358 569.932 11.7598C569.932 11.9838 569.932 12.2078 569.932 12.4318C570.924 11.7278 572.044 11.1998 573.292 10.8478C574.54 10.4958 575.9 10.3998 577.372 10.5598C577.372 11.8398 577.372 13.1358 577.372 14.4478C577.372 15.7598 577.372 17.0558 577.372 18.3358C574.844 17.9838 572.972 18.2078 571.756 19.0078C570.54 19.7758 569.932 21.0398 569.932 22.7998C569.932 24.9438 569.932 27.1198 569.932 29.3278C569.932 31.5358 569.932 33.7278 569.932 35.9038C568.652 35.9038 567.34 35.9038 565.996 35.9038C564.652 35.9038 563.324 35.9038 562.012 35.9038ZM602.075 34.7518C599.867 35.6798 597.675 36.2558 595.499 36.4798C593.323 36.7038 591.259 36.5758 589.307 36.0958C587.387 35.6478 585.675 34.8638 584.171 33.7438C582.667 32.6238 581.483 31.1998 580.619 29.4718C579.787 27.7438 579.371 25.7438 579.371 23.4718C579.371 21.5838 579.675 19.8558 580.283 18.2878C580.923 16.6878 581.819 15.2958 582.971 14.1118C584.123 12.8958 585.483 11.9678 587.051 11.3278C588.619 10.6558 590.331 10.3198 592.187 10.3198C593.851 10.3198 595.355 10.5918 596.699 11.1358C598.043 11.6798 599.211 12.4478 600.203 13.4398C601.195 14.3998 601.995 15.5518 602.603 16.8958C603.211 18.2398 603.595 19.7118 603.755 21.3118C603.915 22.9118 603.819 24.6078 603.467 26.3998C600.843 26.3998 598.203 26.3998 595.547 26.3998C592.891 26.3998 590.251 26.3998 587.627 26.3998C588.235 27.6158 589.243 28.4798 590.651 28.9918C592.091 29.5038 593.787 29.6638 595.739 29.4718C597.723 29.2798 599.835 28.7678 602.075 27.9358C602.075 29.0558 602.075 30.1918 602.075 31.3438C602.075 32.4958 602.075 33.6318 602.075 34.7518ZM591.995 17.4238C591.067 17.4238 590.203 17.6798 589.403 18.1918C588.635 18.7038 588.043 19.4878 587.627 20.5438C589.067 20.5438 590.507 20.5438 591.947 20.5438C593.419 20.5438 594.875 20.5438 596.315 20.5438C595.931 19.4558 595.355 18.6718 594.587 18.1918C593.851 17.6798 592.987 17.4238 591.995 17.4238ZM502.198 86.2558C502.198 88.3998 501.654 90.2558 500.566 91.8238C499.51 93.3918 498.038 94.6078 496.15 95.4718C494.262 96.3038 492.07 96.7198 489.574 96.7198C487.238 96.7198 485.158 96.3518 483.334 95.6158C481.542 94.8478 480.118 93.7598 479.062 92.3518C478.038 90.9118 477.526 89.2158 477.526 87.2638C477.526 85.6638 477.878 84.1918 478.582 82.8478C479.318 81.5038 480.422 80.3518 481.894 79.3918C480.71 78.4958 479.83 77.4558 479.254 76.2718C478.71 75.0558 478.438 73.7278 478.438 72.2878C478.438 70.1758 478.998 68.4158 480.118 67.0078C481.27 65.5998 482.806 64.5438 484.726 63.8398C486.646 63.1358 488.774 62.7678 491.11 62.7358C493.446 62.6718 495.814 62.9438 498.214 63.5518C498.214 64.8318 498.214 66.1278 498.214 67.4398C498.214 68.7518 498.214 70.0638 498.214 71.3758C496.87 70.9918 495.51 70.7198 494.134 70.5598C492.79 70.3998 491.558 70.3838 490.438 70.5118C489.318 70.6398 488.406 70.9118 487.702 71.3278C487.03 71.7438 486.694 72.3358 486.694 73.1038C486.694 74.0958 487.366 74.7838 488.71 75.1678C490.054 75.5198 491.91 75.6958 494.278 75.6958C494.278 75.1198 494.278 74.5438 494.278 73.9678C494.278 73.3598 494.278 72.7678 494.278 72.1918C495.59 72.1918 496.918 72.1918 498.262 72.1918C499.606 72.1918 500.918 72.1918 502.198 72.1918C502.198 72.7678 502.198 73.3598 502.198 73.9678C502.198 74.5438 502.198 75.1198 502.198 75.6958C502.678 75.6958 503.174 75.6958 503.686 75.6958C504.198 75.6958 504.694 75.6958 505.174 75.6958C505.174 76.8798 505.174 78.0638 505.174 79.2478C505.174 80.4318 505.174 81.6158 505.174 82.7998C504.694 82.7998 504.198 82.7998 503.686 82.7998C503.174 82.7998 502.678 82.7998 502.198 82.7998C502.198 83.3758 502.198 83.9518 502.198 84.5278C502.198 85.1038 502.198 85.6798 502.198 86.2558ZM485.926 86.0638C485.926 86.9918 486.262 87.7758 486.934 88.4158C487.638 89.0238 488.614 89.3278 489.862 89.3278C491.206 89.3278 492.278 89.0078 493.078 88.3678C493.878 87.6958 494.278 86.7678 494.278 85.5838C494.278 85.1358 494.278 84.6718 494.278 84.1918C494.278 83.7118 494.278 83.2478 494.278 82.7998C491.654 82.7998 489.606 82.9918 488.134 83.3758C486.662 83.7598 485.926 84.6558 485.926 86.0638Z" fill="#FFB1B1"/>
</g>
</svg>
