<svg width="201" height="187" viewBox="0 0 201 187" fill="none" xmlns="http://www.w3.org/2000/svg">
<rect width="200.744" height="186.17" rx="32" fill="#FE9973"/>
<path d="M37.3134 84.2642C37.3134 78.8882 37.3134 73.4482 37.3134 67.9442C37.3134 62.4402 37.3134 57.0002 37.3134 51.6242C39.2974 51.6242 41.2974 51.6242 43.3134 51.6242C45.3294 51.6242 47.3294 51.6242 49.3134 51.6242C50.2414 54.8882 51.1534 58.2002 52.0494 61.5602C52.9774 64.8882 53.8894 68.1842 54.7854 71.4482C55.6814 68.1842 56.5774 64.8882 57.4734 61.5602C58.4014 58.2002 59.3134 54.8882 60.2094 51.6242C62.1934 51.6242 64.1774 51.6242 66.1614 51.6242C68.1454 51.6242 70.1134 51.6242 72.0654 51.6242C72.0974 57.0002 72.1294 62.4402 72.1614 67.9442C72.1934 73.4482 72.2254 78.8882 72.2574 84.2642C70.9134 84.2642 69.5534 84.2642 68.1774 84.2642C66.8334 84.2642 65.4894 84.2642 64.1454 84.2642C64.1454 80.6162 64.1454 76.9362 64.1454 73.2242C64.1454 69.4802 64.1454 65.7842 64.1454 62.1362C63.1854 65.7842 62.2094 69.4802 61.2174 73.2242C60.2254 76.9362 59.2494 80.6162 58.2894 84.2642C57.1054 84.2642 55.8894 84.2642 54.6414 84.2642C53.4254 84.2642 52.2094 84.2642 50.9934 84.2642C50.0334 80.6802 49.0734 77.0642 48.1134 73.4162C47.1534 69.7362 46.1934 66.1042 45.2334 62.5202C45.2334 66.1042 45.2334 69.7362 45.2334 73.4162C45.2334 77.0642 45.2334 80.6802 45.2334 84.2642C43.9534 84.2642 42.6414 84.2642 41.2974 84.2642C39.9534 84.2642 38.6254 84.2642 37.3134 84.2642ZM94.5965 84.2642C94.5965 84.0082 94.5965 83.7682 94.5965 83.5442C94.5965 83.2882 94.5965 83.0482 94.5965 82.8242C93.7965 83.4962 92.8845 84.0082 91.8605 84.3602C90.8685 84.7442 89.7965 84.9362 88.6445 84.9362C87.0125 84.9362 85.4765 84.6322 84.0365 84.0242C82.5965 83.3842 81.3165 82.4882 80.1965 81.3362C79.1085 80.1522 78.2445 78.7602 77.6045 77.1602C76.9965 75.5602 76.6925 73.7842 76.6925 71.8322C76.6925 69.8482 76.9965 68.0562 77.6045 66.4562C78.2445 64.8562 79.1085 63.4962 80.1965 62.3762C81.3165 61.2242 82.5965 60.3442 84.0365 59.7362C85.4765 59.0962 86.9965 58.7762 88.5965 58.7762C89.7485 58.7762 90.8365 58.9682 91.8605 59.3522C92.8845 59.7042 93.7965 60.2002 94.5965 60.8402C94.5965 60.5842 94.5965 60.3442 94.5965 60.1202C94.5965 59.8962 94.5965 59.6722 94.5965 59.4482C95.9085 59.4482 97.2365 59.4482 98.5805 59.4482C99.9245 59.4482 101.236 59.4482 102.516 59.4482C102.516 63.5442 102.516 67.6882 102.516 71.8802C102.516 76.0402 102.516 80.1682 102.516 84.2642C101.236 84.2642 99.9245 84.2642 98.5805 84.2642C97.2365 84.2642 95.9085 84.2642 94.5965 84.2642ZM89.7005 77.9282C91.2365 77.9282 92.4685 77.3682 93.3965 76.2482C94.3245 75.1282 94.7885 73.6562 94.7885 71.8322C94.7885 70.0082 94.3245 68.5522 93.3965 67.4642C92.4685 66.3442 91.2365 65.7842 89.7005 65.7842C88.1325 65.7842 86.8845 66.3282 85.9565 67.4162C85.0605 68.5042 84.6125 69.9762 84.6125 71.8322C84.6125 73.6882 85.0605 75.1762 85.9565 76.2962C86.8845 77.3842 88.1325 77.9282 89.7005 77.9282ZM107.802 84.2642C107.802 80.1682 107.802 76.0402 107.802 71.8802C107.802 67.6882 107.802 63.5442 107.802 59.4482C109.114 59.4482 110.442 59.4482 111.786 59.4482C113.13 59.4482 114.442 59.4482 115.722 59.4482C115.722 59.6722 115.722 59.8962 115.722 60.1202C115.722 60.3442 115.722 60.5682 115.722 60.7922C116.714 60.0882 117.834 59.5602 119.082 59.2082C120.33 58.8562 121.69 58.7602 123.162 58.9202C123.162 60.2002 123.162 61.4962 123.162 62.8082C123.162 64.1202 123.162 65.4162 123.162 66.6962C120.634 66.3442 118.762 66.5682 117.546 67.3682C116.33 68.1362 115.722 69.4002 115.722 71.1602C115.722 73.3042 115.722 75.4802 115.722 77.6882C115.722 79.8962 115.722 82.0882 115.722 84.2642C114.442 84.2642 113.13 84.2642 111.786 84.2642C110.442 84.2642 109.114 84.2642 107.802 84.2642ZM149.833 80.2322C149.833 82.9522 149.241 85.2242 148.057 87.0482C146.905 88.8722 145.321 90.2322 143.305 91.1282C141.289 92.0562 138.985 92.5362 136.393 92.5682C133.833 92.6002 131.129 92.2162 128.281 91.4162C128.281 90.1682 128.281 88.9042 128.281 87.6242C128.281 86.3762 128.281 85.1282 128.281 83.8802C130.809 84.8722 133.097 85.3682 135.145 85.3682C137.193 85.4002 138.809 85.0162 139.993 84.2162C141.209 83.3842 141.817 82.2482 141.817 80.8082C141.817 80.6482 141.817 80.5042 141.817 80.3762C141.817 80.2162 141.817 80.0722 141.817 79.9442C141.017 80.5522 140.089 81.0322 139.033 81.3842C137.977 81.7362 136.841 81.9122 135.625 81.9122C133.609 81.9122 131.801 81.4482 130.201 80.5202C128.633 79.5602 127.401 78.2482 126.505 76.5842C125.609 74.8882 125.161 72.9202 125.161 70.6802C125.161 68.9522 125.449 67.3682 126.025 65.9282C126.601 64.4882 127.401 63.2402 128.425 62.1842C129.449 61.1282 130.617 60.3282 131.929 59.7842C133.241 59.2082 134.617 58.9202 136.057 58.9202C137.209 58.9202 138.281 59.0802 139.273 59.4002C140.265 59.7202 141.145 60.1522 141.913 60.6962C141.913 60.4722 141.913 60.2642 141.913 60.0722C141.913 59.8802 141.913 59.6722 141.913 59.4482C143.225 59.4482 144.553 59.4482 145.897 59.4482C147.241 59.4482 148.553 59.4482 149.833 59.4482C149.833 62.8722 149.833 66.3442 149.833 69.8642C149.833 73.3522 149.833 76.8082 149.833 80.2322ZM137.593 75.0482C138.937 75.0482 140.009 74.6322 140.809 73.8002C141.641 72.9362 142.057 71.8322 142.057 70.4882C142.057 69.1122 141.641 67.9922 140.809 67.1282C140.009 66.2642 138.937 65.8322 137.593 65.8322C136.185 65.8322 135.065 66.2642 134.233 67.1282C133.401 67.9602 132.985 69.0802 132.985 70.4882C132.985 71.8642 133.401 72.9682 134.233 73.8002C135.065 74.6322 136.185 75.0482 137.593 75.0482ZM154.139 73.1762C154.139 71.9602 154.139 70.7282 154.139 69.4802C154.139 68.2002 154.139 66.9522 154.139 65.7362C156.283 65.7362 158.443 65.7362 160.619 65.7362C162.795 65.7362 164.955 65.7362 167.099 65.7362C167.099 66.9522 167.099 68.2002 167.099 69.4802C167.099 70.7282 167.099 71.9602 167.099 73.1762C164.955 73.1762 162.795 73.1762 160.619 73.1762C158.443 73.1762 156.283 73.1762 154.139 73.1762ZM60.0174 119.448C60.0174 123.544 60.0174 127.688 60.0174 131.88C60.0174 136.04 60.0174 140.168 60.0174 144.264C58.7374 144.264 57.4254 144.264 56.0814 144.264C54.7374 144.264 53.4094 144.264 52.0974 144.264C52.0974 144.04 52.0974 143.832 52.0974 143.64C52.0974 143.448 52.0974 143.24 52.0974 143.016C51.2334 143.624 50.2574 144.088 49.1694 144.408C48.1134 144.76 46.9614 144.936 45.7134 144.936C43.8894 144.936 42.2734 144.52 40.8654 143.688C39.4894 142.856 38.4014 141.656 37.6014 140.088C36.8334 138.52 36.4494 136.664 36.4494 134.52C36.4494 132.024 36.4494 129.512 36.4494 126.984C36.4494 124.456 36.4494 121.944 36.4494 119.448C37.7614 119.448 39.0894 119.448 40.4334 119.448C41.7774 119.448 43.0894 119.448 44.3694 119.448C44.3694 121.752 44.3694 124.088 44.3694 126.456C44.3694 128.824 44.3694 131.16 44.3694 133.464C44.3694 134.744 44.6574 135.784 45.2334 136.584C45.8414 137.352 46.7854 137.736 48.0654 137.736C49.3454 137.736 50.3374 137.368 51.0414 136.632C51.7454 135.896 52.0974 134.84 52.0974 133.464C52.0974 131.16 52.0974 128.824 52.0974 126.456C52.0974 124.088 52.0974 121.752 52.0974 119.448C53.4094 119.448 54.7374 119.448 56.0814 119.448C57.4254 119.448 58.7374 119.448 60.0174 119.448ZM86.6465 143.112C84.4385 144.04 82.2465 144.616 80.0705 144.84C77.8945 145.064 75.8305 144.936 73.8785 144.456C71.9585 144.008 70.2465 143.224 68.7425 142.104C67.2385 140.984 66.0545 139.56 65.1905 137.832C64.3585 136.104 63.9425 134.104 63.9425 131.832C63.9425 129.944 64.2465 128.216 64.8545 126.648C65.4945 125.048 66.3905 123.656 67.5425 122.472C68.6945 121.256 70.0545 120.328 71.6225 119.688C73.1905 119.016 74.9025 118.68 76.7585 118.68C78.4225 118.68 79.9265 118.952 81.2705 119.496C82.6145 120.04 83.7825 120.808 84.7745 121.8C85.7665 122.76 86.5665 123.912 87.1745 125.256C87.7825 126.6 88.1665 128.072 88.3265 129.672C88.4865 131.272 88.3905 132.968 88.0385 134.76C85.4145 134.76 82.7745 134.76 80.1185 134.76C77.4625 134.76 74.8225 134.76 72.1985 134.76C72.8065 135.976 73.8145 136.84 75.2225 137.352C76.6625 137.864 78.3585 138.024 80.3105 137.832C82.2945 137.64 84.4065 137.128 86.6465 136.296C86.6465 137.416 86.6465 138.552 86.6465 139.704C86.6465 140.856 86.6465 141.992 86.6465 143.112ZM76.5665 125.784C75.6385 125.784 74.7745 126.04 73.9745 126.552C73.2065 127.064 72.6145 127.848 72.1985 128.904C73.6385 128.904 75.0785 128.904 76.5185 128.904C77.9905 128.904 79.4465 128.904 80.8865 128.904C80.5025 127.816 79.9265 127.032 79.1585 126.552C78.4225 126.04 77.5585 125.784 76.5665 125.784ZM92.5209 144.264C92.5209 140.168 92.5209 136.04 92.5209 131.88C92.5209 127.688 92.5209 123.544 92.5209 119.448C93.8329 119.448 95.1609 119.448 96.5049 119.448C97.8489 119.448 99.1609 119.448 100.441 119.448C100.441 119.672 100.441 119.896 100.441 120.12C100.441 120.344 100.441 120.568 100.441 120.792C101.433 120.088 102.553 119.56 103.801 119.208C105.049 118.856 106.409 118.76 107.881 118.92C107.881 120.2 107.881 121.496 107.881 122.808C107.881 124.12 107.881 125.416 107.881 126.696C105.353 126.344 103.481 126.568 102.265 127.368C101.049 128.136 100.441 129.4 100.441 131.16C100.441 133.304 100.441 135.48 100.441 137.688C100.441 139.896 100.441 142.088 100.441 144.264C99.1609 144.264 97.8489 144.264 96.5049 144.264C95.1609 144.264 93.8329 144.264 92.5209 144.264ZM115.682 116.616C114.754 116.616 113.906 116.392 113.138 115.944C112.402 115.496 111.81 114.904 111.362 114.168C110.914 113.432 110.69 112.616 110.69 111.72C110.69 110.824 110.914 110.024 111.362 109.32C111.81 108.584 112.402 107.992 113.138 107.544C113.906 107.096 114.754 106.872 115.682 106.872C116.578 106.872 117.394 107.096 118.13 107.544C118.898 107.992 119.506 108.584 119.954 109.32C120.402 110.024 120.626 110.824 120.626 111.72C120.626 112.616 120.402 113.432 119.954 114.168C119.506 114.904 118.898 115.496 118.13 115.944C117.394 116.392 116.578 116.616 115.682 116.616ZM111.698 144.264C111.698 140.168 111.698 136.04 111.698 131.88C111.698 127.688 111.698 123.544 111.698 119.448C113.01 119.448 114.338 119.448 115.682 119.448C117.026 119.448 118.338 119.448 119.618 119.448C119.618 123.544 119.618 127.688 119.618 131.88C119.618 136.04 119.618 140.168 119.618 144.264C118.338 144.264 117.026 144.264 115.682 144.264C114.338 144.264 113.01 144.264 111.698 144.264ZM127.738 144.264C127.738 141.32 127.738 138.36 127.738 135.384C127.738 132.408 127.738 129.464 127.738 126.552C127.098 126.552 126.442 126.552 125.77 126.552C125.13 126.552 124.49 126.552 123.85 126.552C123.85 125.368 123.85 124.184 123.85 123C123.85 121.816 123.85 120.632 123.85 119.448C124.49 119.448 125.13 119.448 125.77 119.448C126.442 119.448 127.098 119.448 127.738 119.448C127.738 118.328 127.738 117.224 127.738 116.136C127.738 115.016 127.738 113.912 127.738 112.824C129.05 112.824 130.378 112.824 131.722 112.824C133.066 112.824 134.378 112.824 135.658 112.824C135.658 113.912 135.658 115.016 135.658 116.136C135.658 117.224 135.658 118.328 135.658 119.448C136.394 119.448 137.146 119.448 137.914 119.448C138.682 119.448 139.434 119.448 140.17 119.448C140.17 120.632 140.17 121.816 140.17 123C140.17 124.184 140.17 125.368 140.17 126.552C139.434 126.552 138.682 126.552 137.914 126.552C137.146 126.552 136.394 126.552 135.658 126.552C135.658 129.464 135.658 132.408 135.658 135.384C135.658 138.36 135.658 141.32 135.658 144.264C134.378 144.264 133.066 144.264 131.722 144.264C130.378 144.264 129.05 144.264 127.738 144.264ZM165.115 143.112C162.907 144.04 160.715 144.616 158.539 144.84C156.363 145.064 154.299 144.936 152.347 144.456C150.427 144.008 148.715 143.224 147.211 142.104C145.707 140.984 144.523 139.56 143.659 137.832C142.827 136.104 142.411 134.104 142.411 131.832C142.411 129.944 142.715 128.216 143.323 126.648C143.963 125.048 144.859 123.656 146.011 122.472C147.163 121.256 148.523 120.328 150.091 119.688C151.659 119.016 153.371 118.68 155.227 118.68C156.891 118.68 158.395 118.952 159.739 119.496C161.083 120.04 162.251 120.808 163.243 121.8C164.235 122.76 165.035 123.912 165.643 125.256C166.251 126.6 166.635 128.072 166.795 129.672C166.955 131.272 166.859 132.968 166.507 134.76C163.883 134.76 161.243 134.76 158.587 134.76C155.931 134.76 153.291 134.76 150.667 134.76C151.275 135.976 152.283 136.84 153.691 137.352C155.131 137.864 156.827 138.024 158.779 137.832C160.763 137.64 162.875 137.128 165.115 136.296C165.115 137.416 165.115 138.552 165.115 139.704C165.115 140.856 165.115 141.992 165.115 143.112ZM155.035 125.784C154.107 125.784 153.243 126.04 152.443 126.552C151.675 127.064 151.083 127.848 150.667 128.904C152.107 128.904 153.547 128.904 154.987 128.904C156.459 128.904 157.915 128.904 159.355 128.904C158.971 127.816 158.395 127.032 157.627 126.552C156.891 126.04 156.027 125.784 155.035 125.784Z" fill="#FBF6F2"/>
</svg>
