<svg width="168" height="73" viewBox="0 0 168 73" fill="none" xmlns="http://www.w3.org/2000/svg">
<path d="M127.807 16.6597C133.842 7.76957 153.74 -2.04768 162.697 16.6597C167.83 35.8158 156.51 40.7095 147.922 43.203C147.922 43.203 153.564 51.3603 152.631 56.9627C151.635 62.9478 148.681 68.1464 142.658 68.8758C135.486 69.7442 130.191 55.2083 130.191 55.2083" stroke="#F88256" stroke-width="7.5"/>
<path d="M39.9248 14.4078C33.889 5.51762 13.9918 -4.29963 5.03407 14.4078C-0.0987928 33.5639 11.2214 38.4575 19.8098 40.9511C19.8098 40.9511 14.1671 49.1083 15.1 54.7108C16.0966 60.6959 19.0501 65.8944 25.0736 66.6238C32.2457 67.4923 37.5406 52.9563 37.5406 52.9563" stroke="#F88256" stroke-width="7.5"/>
<path d="M131.499 25.7883C131.499 25.7883 137.769 20.6926 141.473 22.4639C143.597 23.4795 145.351 26.2501 142.95 30.1287C140.549 34.0072 130.834 39.3081 134.824 48.3212" stroke="#F88256" stroke-width="7.5"/>
<path d="M36.2324 23.5364C36.2324 23.5364 29.9626 18.4406 26.2586 20.2119C24.1348 21.2276 22.3802 23.9982 24.7812 27.8767C27.1823 31.7552 36.8973 37.0561 32.9078 46.0693" stroke="#F88256" stroke-width="7.5"/>
<path d="M60.2666 30.9579L66.7662 47.0157L79.3831 27.8994L84.3533 43.1924L98.4994 27.8994L107.464 43.1924" stroke="#F88256" stroke-width="7.5"/>
</svg>
