<svg width="302" height="257" viewBox="0 0 302 257" fill="none" xmlns="http://www.w3.org/2000/svg">
<path d="M156.058 163.657V141.776C156.058 92.1501 156.058 67.3371 165.716 48.3824C174.211 31.7093 187.767 18.1535 204.44 9.65815C223.395 0.000305213 248.208 0 297.834 0H301.606L156.058 163.657Z" fill="#036F62"/>
<path d="M301.606 6.25455V28.1353C301.606 77.7615 301.606 102.575 291.948 121.529C283.453 138.202 269.897 151.758 253.224 160.253C234.269 169.911 209.456 169.912 159.83 169.912H156.058L301.606 6.25455Z" fill="#6CBDAA"/>
<path d="M128.473 250.677V231.363C128.473 187.559 128.472 165.657 119.948 148.926C112.449 134.209 100.483 122.243 85.7665 114.745C69.0355 106.22 47.1335 106.22 3.32941 106.22H7.62939e-05L128.473 250.677Z" fill="#6CBDAA"/>
<path d="M0.000976562 111.74V131.054C0.000976562 174.858 0.00124597 196.76 8.52604 213.491C16.0247 228.208 27.9901 240.173 42.7072 247.672C59.4381 256.197 81.3401 256.197 125.144 256.197H128.474L0.000976562 111.74Z" fill="#036F62"/>
</svg>
