<svg width="386" height="362" viewBox="0 0 386 362" fill="none" xmlns="http://www.w3.org/2000/svg">
<path d="M188.211 123.109C190.996 121.502 194.427 121.502 197.211 123.109L240.128 147.887C242.912 149.495 244.628 152.466 244.628 155.681V205.237C244.628 208.452 242.912 211.423 240.128 213.031L197.211 237.809C194.427 239.416 190.996 239.416 188.211 237.809L145.295 213.031C142.511 211.423 140.795 208.452 140.795 205.237V155.681C140.795 152.466 142.511 149.495 145.295 147.887L188.211 123.109Z" fill="#FE9973"/>
<path d="M247.046 145.75C233.597 138.141 251.708 148.388 235.752 139.36C219.795 130.333 223.797 132.597 223.797 132.597C223.797 132.597 270.576 49.9109 289.973 15.6267C305.929 24.6541 283.595 81.1495 247.046 145.75Z" fill="#FFCECE"/>
<path d="M194.791 117.426C208.241 125.036 190.693 115.108 206.65 124.135C222.606 133.163 218.605 130.899 218.605 130.899C218.605 130.899 265.385 48.2134 284.781 13.929C268.825 4.90159 231.339 52.8255 194.791 117.426Z" fill="#FFB1B1"/>
<path d="M250.198 208.77C250.231 193.317 250.187 214.126 250.226 195.793C250.264 177.46 250.254 182.057 250.254 182.057C250.254 182.057 345.256 182.257 384.646 182.34C384.608 200.673 324.421 208.926 250.198 208.77Z" fill="#FFCECE"/>
<path d="M251.176 150.413C251.144 165.867 251.186 145.706 251.148 164.039C251.109 182.372 251.119 177.775 251.119 177.775C251.119 177.775 346.12 177.974 385.511 178.057C385.549 159.724 325.399 150.569 251.176 150.413Z" fill="#FFB1B1"/>
<path d="M197.843 245.388C211.162 237.553 193.226 248.104 209.028 238.809C224.83 229.513 220.868 231.844 220.868 231.844C220.868 231.844 269.036 313.729 289.008 347.681C273.206 356.976 235.476 309.363 197.843 245.388Z" fill="#FFCECE"/>
<path d="M248.578 216.536C235.259 224.371 252.636 214.149 236.834 223.444C221.032 232.74 224.995 230.409 224.995 230.409C224.995 230.409 273.163 312.293 293.136 346.245C308.937 336.95 286.211 280.511 248.578 216.536Z" fill="#FFB1B1"/>
<path d="M138.565 215.169C151.839 223.081 133.964 212.427 149.712 221.813C165.46 231.199 161.511 228.846 161.511 228.846C161.511 228.846 112.871 310.451 92.7028 344.287C76.9549 334.901 100.563 278.925 138.565 215.169Z" fill="#FFCECE"/>
<path d="M188.257 245.783C174.983 237.871 192.301 248.193 176.553 238.807C160.805 229.42 164.754 231.774 164.754 231.774C164.754 231.774 116.114 313.379 95.9466 347.216C111.695 356.602 150.256 309.539 188.257 245.783Z" fill="#FFB1B1"/>
<path d="M134.357 153.304C134.715 168.753 134.233 147.95 134.657 166.278C135.082 184.606 134.975 180.01 134.975 180.01C134.975 180.01 39.9993 182.209 0.618986 183.12C0.19473 164.792 60.1542 155.022 134.357 153.304Z" fill="#FFCECE"/>
<path d="M134.664 212.954C134.536 197.502 134.703 217.662 134.551 199.329C134.399 180.997 134.437 185.594 134.437 185.594C134.437 185.594 39.4387 186.383 0.0491826 186.71C0.201429 205.043 60.4438 213.571 134.664 212.954Z" fill="#FFB1B1"/>
<path d="M188.229 115.019C175.178 123.295 192.752 112.151 177.269 121.969C161.787 131.787 165.669 129.325 165.669 129.325C165.669 129.325 114.112 48.018 92.7341 14.3053C108.217 4.48755 147.948 51.496 188.229 115.019Z" fill="#FFCECE"/>
<path d="M137.771 145.75C150.943 137.669 133.759 148.212 149.385 138.625C165.012 129.038 161.093 131.442 161.093 131.442C161.093 131.442 111.414 50.4658 90.8156 16.8904C75.189 26.4773 98.9582 82.4848 137.771 145.75Z" fill="#FFB1B1"/>
</svg>
