<svg width="242" height="57" viewBox="0 0 242 57" fill="none" xmlns="http://www.w3.org/2000/svg">
<rect y="16.6807" width="54.9404" height="22.6738" rx="11.3369" fill="white"/>
<rect x="43.9404" width="197.49" height="56.0352" rx="11" fill="white"/>
<path d="M197.32 0H230.172C236.247 0 241.172 4.92487 241.172 11V45.0352C241.172 51.1103 236.247 56.0352 230.172 56.0352H197.32V0Z" fill="#FFB1B1"/>
<circle cx="11.0734" cy="28.0178" r="5.2951" fill="#FFB1B1"/>
<path d="M74.4125 42.3545C74.4125 37.8745 74.4125 33.3412 74.4125 28.7545C74.4125 24.1678 74.4125 19.6345 74.4125 15.1545C75.5858 15.1545 76.7592 15.1545 77.9325 15.1545C79.1058 15.1545 80.2658 15.1545 81.4125 15.1545C81.4125 18.5945 81.4125 22.0745 81.4125 25.5945C81.4125 29.0878 81.4125 32.5545 81.4125 35.9945C82.8258 35.9945 84.2525 35.9945 85.6925 35.9945C87.1325 35.9945 88.5458 35.9945 89.9325 35.9945C89.9325 37.0345 89.9325 38.1012 89.9325 39.1945C89.9325 40.2612 89.9325 41.3145 89.9325 42.3545C87.3725 42.3545 84.7858 42.3545 82.1725 42.3545C79.5592 42.3545 76.9725 42.3545 74.4125 42.3545ZM106.758 42.3545C106.758 42.1412 106.758 41.9412 106.758 41.7545C106.758 41.5412 106.758 41.3412 106.758 41.1545C106.091 41.7145 105.331 42.1412 104.478 42.4345C103.651 42.7545 102.758 42.9145 101.798 42.9145C100.438 42.9145 99.1578 42.6612 97.9578 42.1545C96.7578 41.6212 95.6911 40.8745 94.7578 39.9145C93.8511 38.9278 93.1311 37.7678 92.5978 36.4345C92.0911 35.1012 91.8378 33.6212 91.8378 31.9945C91.8378 30.3412 92.0911 28.8478 92.5978 27.5145C93.1311 26.1812 93.8511 25.0478 94.7578 24.1145C95.6911 23.1545 96.7578 22.4212 97.9578 21.9145C99.1578 21.3812 100.424 21.1145 101.758 21.1145C102.718 21.1145 103.624 21.2745 104.478 21.5945C105.331 21.8878 106.091 22.3012 106.758 22.8345C106.758 22.6212 106.758 22.4212 106.758 22.2345C106.758 22.0478 106.758 21.8612 106.758 21.6745C107.851 21.6745 108.958 21.6745 110.078 21.6745C111.198 21.6745 112.291 21.6745 113.358 21.6745C113.358 25.0878 113.358 28.5412 113.358 32.0345C113.358 35.5012 113.358 38.9412 113.358 42.3545C112.291 42.3545 111.198 42.3545 110.078 42.3545C108.958 42.3545 107.851 42.3545 106.758 42.3545ZM102.678 37.0745C103.958 37.0745 104.984 36.6078 105.758 35.6745C106.531 34.7412 106.918 33.5145 106.918 31.9945C106.918 30.4745 106.531 29.2612 105.758 28.3545C104.984 27.4212 103.958 26.9545 102.678 26.9545C101.371 26.9545 100.331 27.4078 99.5578 28.3145C98.8111 29.2212 98.4378 30.4478 98.4378 31.9945C98.4378 33.5412 98.8111 34.7812 99.5578 35.7145C100.331 36.6212 101.371 37.0745 102.678 37.0745ZM124.563 42.3545C123.496 42.3545 122.403 42.3545 121.283 42.3545C120.163 42.3545 119.056 42.3545 117.963 42.3545C117.963 37.5278 117.963 32.6612 117.963 27.7545C117.963 22.8478 117.963 17.9812 117.963 13.1545C119.056 13.1545 120.163 13.1545 121.283 13.1545C122.403 13.1545 123.496 13.1545 124.563 13.1545C124.563 14.7545 124.563 16.3678 124.563 17.9945C124.563 19.6212 124.563 21.2345 124.563 22.8345C125.229 22.3012 125.989 21.8878 126.843 21.5945C127.696 21.2745 128.603 21.1145 129.563 21.1145C130.896 21.1145 132.163 21.3812 133.363 21.9145C134.563 22.4212 135.616 23.1545 136.523 24.1145C137.456 25.0745 138.176 26.2212 138.683 27.5545C139.216 28.8878 139.483 30.3678 139.483 31.9945C139.483 33.5945 139.216 35.0612 138.683 36.3945C138.176 37.7278 137.456 38.8878 136.523 39.8745C135.616 40.8345 134.563 41.5812 133.363 42.1145C132.163 42.6478 130.883 42.9145 129.523 42.9145C128.563 42.9145 127.656 42.7545 126.803 42.4345C125.976 42.1412 125.229 41.7145 124.563 41.1545C124.563 41.3412 124.563 41.5412 124.563 41.7545C124.563 41.9412 124.563 42.1412 124.563 42.3545ZM128.643 37.0745C129.949 37.0745 130.976 36.6212 131.723 35.7145C132.496 34.7812 132.883 33.5412 132.883 31.9945C132.883 30.4478 132.496 29.2212 131.723 28.3145C130.976 27.4078 129.949 26.9545 128.643 26.9545C127.363 26.9545 126.336 27.4212 125.562 28.3545C124.789 29.2612 124.403 30.4745 124.403 31.9945C124.403 33.5145 124.789 34.7412 125.562 35.6745C126.336 36.6078 127.363 37.0745 128.643 37.0745ZM160.562 41.3945C158.723 42.1678 156.896 42.6478 155.083 42.8345C153.269 43.0212 151.549 42.9145 149.923 42.5145C148.323 42.1412 146.896 41.4878 145.643 40.5545C144.389 39.6212 143.403 38.4345 142.683 36.9945C141.989 35.5545 141.643 33.8878 141.643 31.9945C141.643 30.4212 141.896 28.9812 142.403 27.6745C142.936 26.3412 143.683 25.1812 144.643 24.1945C145.603 23.1812 146.736 22.4078 148.043 21.8745C149.349 21.3145 150.776 21.0345 152.322 21.0345C153.709 21.0345 154.963 21.2612 156.083 21.7145C157.203 22.1678 158.176 22.8078 159.003 23.6345C159.829 24.4345 160.496 25.3945 161.003 26.5145C161.509 27.6345 161.829 28.8612 161.963 30.1945C162.096 31.5278 162.016 32.9412 161.723 34.4345C159.536 34.4345 157.336 34.4345 155.123 34.4345C152.909 34.4345 150.709 34.4345 148.523 34.4345C149.029 35.4478 149.869 36.1678 151.043 36.5945C152.243 37.0212 153.656 37.1545 155.283 36.9945C156.936 36.8345 158.696 36.4078 160.562 35.7145C160.562 36.6478 160.562 37.5945 160.562 38.5545C160.562 39.5145 160.562 40.4612 160.562 41.3945ZM152.163 26.9545C151.389 26.9545 150.669 27.1678 150.003 27.5945C149.363 28.0212 148.869 28.6745 148.523 29.5545C149.723 29.5545 150.923 29.5545 152.123 29.5545C153.349 29.5545 154.563 29.5545 155.763 29.5545C155.443 28.6478 154.963 27.9945 154.323 27.5945C153.709 27.1678 152.989 26.9545 152.163 26.9545ZM165.658 42.3545C165.658 37.5278 165.658 32.6612 165.658 27.7545C165.658 22.8478 165.658 17.9812 165.658 13.1545C166.751 13.1545 167.858 13.1545 168.978 13.1545C170.098 13.1545 171.191 13.1545 172.258 13.1545C172.258 17.9812 172.258 22.8478 172.258 27.7545C172.258 32.6612 172.258 37.5278 172.258 42.3545C171.191 42.3545 170.098 42.3545 168.978 42.3545C167.858 42.3545 166.751 42.3545 165.658 42.3545Z" fill="#FFB1B1"/>
</svg>
