<svg width="116" height="50" viewBox="0 0 116 50" fill="none" xmlns="http://www.w3.org/2000/svg">
<path d="M2.72458 48C2.72458 46.4928 2.72458 44.9662 2.72458 43.4204C2.72458 41.8359 2.72458 40.29 2.72458 38.7828C4.27045 37.3142 5.81631 35.8263 7.36217 34.3191C8.90803 32.7733 10.4539 31.266 11.9998 29.7975C13.7775 28.0584 15.1301 26.6671 16.0576 25.6236C16.9852 24.5415 17.6228 23.6333 17.9707 22.8991C18.3571 22.1648 18.5504 21.4885 18.5504 20.8701C18.5504 19.5948 17.8161 18.6866 16.3475 18.1455C14.8789 17.5658 12.9852 17.3919 10.6665 17.6238C8.34766 17.8557 5.87428 18.4934 3.24631 19.5368C3.24631 17.9523 3.24631 16.3485 3.24631 14.7253C3.24631 13.0635 3.24631 11.4404 3.24631 9.85584C7.11097 8.58051 10.6085 7.94284 13.7389 7.94284C16.9079 7.94284 19.6131 8.46457 21.8546 9.50802C24.1348 10.5128 25.8739 11.9234 27.0719 13.7398C28.3086 15.5562 28.927 17.6624 28.927 20.0585C28.927 22.4546 28.2893 24.7154 27.0139 26.841C25.7386 28.9279 23.787 31.2467 21.159 33.7974C20.3088 34.609 19.4585 35.4399 18.6083 36.2901C17.7581 37.1403 16.9079 37.9712 16.0576 38.7828C18.1446 38.7828 20.2315 38.7828 22.3184 38.7828C24.444 38.7828 26.5502 38.7828 28.6371 38.7828C28.6371 40.29 28.6371 41.8359 28.6371 43.4204C28.6371 44.9662 28.6371 46.4928 28.6371 48C24.3473 48 20.0189 48 15.6519 48C11.3234 48 7.01435 48 2.72458 48ZM69.043 40.5219C69.043 39.0147 69.043 37.4881 69.043 35.9423C69.043 34.3578 69.043 32.8119 69.043 31.3047C70.9753 27.556 72.927 23.7686 74.8979 19.9426C76.8689 16.1166 78.8012 12.3292 80.6949 8.58051C83.1683 8.58051 85.6417 8.58051 88.1151 8.58051C90.6271 8.58051 93.1198 8.58051 95.5932 8.58051C95.5932 12.3292 95.5932 16.1166 95.5932 19.9426C95.5932 23.7686 95.5932 27.556 95.5932 31.3047C96.482 31.3047 97.3902 31.3047 98.3178 31.3047C99.2839 31.3047 100.211 31.3047 101.1 31.3047C101.1 32.8119 101.1 34.3578 101.1 35.9423C101.1 37.4881 101.1 39.0147 101.1 40.5219C100.211 40.5219 99.2839 40.5219 98.3178 40.5219C97.3902 40.5219 96.482 40.5219 95.5932 40.5219C95.5932 41.7586 95.5932 43.0146 95.5932 44.2899C95.5932 45.5266 95.5932 46.7633 95.5932 48C93.97 48 92.3082 48 90.6078 48C88.946 48 87.3035 48 85.6803 48C85.6803 46.7633 85.6803 45.5266 85.6803 44.2899C85.6803 43.0146 85.6803 41.7586 85.6803 40.5219C82.9364 40.5219 80.1539 40.5219 77.3327 40.5219C74.5501 40.5219 71.7869 40.5219 69.043 40.5219ZM79.4776 31.3047C80.4824 31.3047 81.5065 31.3047 82.55 31.3047C83.6321 31.3047 84.6755 31.3047 85.6803 31.3047C85.6803 29.1405 85.6803 26.9376 85.6803 24.6961C85.6803 22.4546 85.6803 20.2518 85.6803 18.0876C84.6755 20.2518 83.6321 22.4546 82.55 24.6961C81.5065 26.9376 80.4824 29.1405 79.4776 31.3047Z" fill="#A3A3A3"/>
<rect x="58.7773" y="5.70749" width="10.0242" height="44.5581" transform="rotate(27.5624 58.7773 5.70749)" fill="#A3A3A3"/>
</svg>
