<svg width="337" height="94" viewBox="0 0 337 94" fill="none" xmlns="http://www.w3.org/2000/svg">
<path d="M0 37.392C1.664 32.016 3.328 26.576 4.992 21.072C6.688 15.568 8.368 10.128 10.032 4.75197C11.92 4.75197 13.824 4.75197 15.744 4.75197C17.696 4.75197 19.616 4.75197 21.504 4.75197C23.168 10.128 24.832 15.568 26.496 21.072C28.192 26.576 29.872 32.016 31.536 37.392C30.16 37.392 28.752 37.392 27.312 37.392C25.904 37.392 24.496 37.392 23.088 37.392C22.768 36.368 22.464 35.344 22.176 34.32C21.888 33.264 21.584 32.224 21.264 31.2C19.44 31.2 17.6 31.2 15.744 31.2C13.92 31.2 12.096 31.2 10.272 31.2C9.952 32.224 9.648 33.264 9.36 34.32C9.072 35.344 8.768 36.368 8.448 37.392C7.072 37.392 5.664 37.392 4.224 37.392C2.816 37.392 1.408 37.392 0 37.392ZM12.384 24.048C13.504 24.048 14.624 24.048 15.744 24.048C16.896 24.048 18.032 24.048 19.152 24.048C18.608 22.16 18.048 20.256 17.472 18.336C16.896 16.416 16.336 14.512 15.792 12.624C15.248 14.512 14.672 16.416 14.064 18.336C13.488 20.256 12.928 22.16 12.384 24.048ZM44.745 37.392C44.745 32.016 44.745 26.576 44.745 21.072C44.745 15.568 44.745 10.128 44.745 4.75197C46.665 4.75197 48.601 4.75197 50.553 4.75197C52.505 4.75197 54.441 4.75197 56.361 4.75197C58.729 4.75197 60.905 5.16797 62.889 5.99997C64.873 6.79997 66.601 7.93597 68.073 9.40797C69.545 10.88 70.681 12.608 71.481 14.592C72.313 16.544 72.729 18.688 72.729 21.024C72.729 23.36 72.313 25.52 71.481 27.504C70.681 29.488 69.545 31.232 68.073 32.736C66.601 34.208 64.873 35.36 62.889 36.192C60.905 36.992 58.729 37.392 56.361 37.392C54.441 37.392 52.505 37.392 50.553 37.392C48.601 37.392 46.665 37.392 44.745 37.392ZM56.361 12.336C55.849 12.336 55.321 12.336 54.777 12.336C54.233 12.336 53.689 12.336 53.145 12.336C53.145 15.216 53.145 18.128 53.145 21.072C53.145 24.016 53.145 26.928 53.145 29.808C53.689 29.808 54.233 29.808 54.777 29.808C55.321 29.808 55.849 29.808 56.361 29.808C57.961 29.808 59.353 29.424 60.537 28.656C61.721 27.888 62.633 26.848 63.273 25.536C63.913 24.192 64.233 22.688 64.233 21.024C64.233 19.36 63.913 17.872 63.273 16.56C62.633 15.248 61.721 14.224 60.537 13.488C59.353 12.72 57.961 12.336 56.361 12.336ZM93.4031 37.392C93.4031 37.136 93.4031 36.896 93.4031 36.672C93.4031 36.416 93.4031 36.176 93.4031 35.952C92.6031 36.624 91.6911 37.136 90.6671 37.488C89.6751 37.872 88.6031 38.064 87.4511 38.064C85.8191 38.064 84.2831 37.76 82.8431 37.152C81.4031 36.512 80.1231 35.616 79.0031 34.464C77.9151 33.28 77.0511 31.888 76.4111 30.288C75.8031 28.688 75.4991 26.912 75.4991 24.96C75.4991 22.976 75.8031 21.184 76.4111 19.584C77.0511 17.984 77.9151 16.624 79.0031 15.504C80.1231 14.352 81.4031 13.472 82.8431 12.864C84.2831 12.224 85.8031 11.904 87.4031 11.904C88.5551 11.904 89.6431 12.096 90.6671 12.48C91.6911 12.832 92.6031 13.328 93.4031 13.968C93.4031 13.712 93.4031 13.472 93.4031 13.248C93.4031 13.024 93.4031 12.8 93.4031 12.576C94.7151 12.576 96.0431 12.576 97.3871 12.576C98.7311 12.576 100.043 12.576 101.323 12.576C101.323 16.672 101.323 20.816 101.323 25.008C101.323 29.168 101.323 33.296 101.323 37.392C100.043 37.392 98.7311 37.392 97.3871 37.392C96.0431 37.392 94.7151 37.392 93.4031 37.392ZM88.5071 31.056C90.0431 31.056 91.2751 30.496 92.2031 29.376C93.1311 28.256 93.5951 26.784 93.5951 24.96C93.5951 23.136 93.1311 21.68 92.2031 20.592C91.2751 19.472 90.0431 18.912 88.5071 18.912C86.9391 18.912 85.6911 19.456 84.7631 20.544C83.8671 21.632 83.4191 23.104 83.4191 24.96C83.4191 26.816 83.8671 28.304 84.7631 29.424C85.6911 30.512 86.9391 31.056 88.5071 31.056ZM110.833 9.74397C109.905 9.74397 109.057 9.51997 108.289 9.07197C107.553 8.62397 106.961 8.03197 106.513 7.29597C106.065 6.55997 105.841 5.74397 105.841 4.84797C105.841 3.95197 106.065 3.15197 106.513 2.44797C106.961 1.71197 107.553 1.11997 108.289 0.671966C109.057 0.223966 109.905 -3.43323e-05 110.833 -3.43323e-05C111.729 -3.43323e-05 112.545 0.223966 113.281 0.671966C114.049 1.11997 114.657 1.71197 115.105 2.44797C115.553 3.15197 115.777 3.95197 115.777 4.84797C115.777 5.74397 115.553 6.55997 115.105 7.29597C114.657 8.03197 114.049 8.62397 113.281 9.07197C112.545 9.51997 111.729 9.74397 110.833 9.74397ZM106.849 37.392C106.849 33.296 106.849 29.168 106.849 25.008C106.849 20.816 106.849 16.672 106.849 12.576C108.161 12.576 109.489 12.576 110.833 12.576C112.177 12.576 113.489 12.576 114.769 12.576C114.769 16.672 114.769 20.816 114.769 25.008C114.769 29.168 114.769 33.296 114.769 37.392C113.489 37.392 112.177 37.392 110.833 37.392C109.489 37.392 108.161 37.392 106.849 37.392ZM120.536 37.392C120.536 31.6 120.536 25.76 120.536 19.872C120.536 13.984 120.536 8.14397 120.536 2.35197C121.848 2.35197 123.176 2.35197 124.52 2.35197C125.864 2.35197 127.176 2.35197 128.456 2.35197C128.456 8.14397 128.456 13.984 128.456 19.872C128.456 25.76 128.456 31.6 128.456 37.392C127.176 37.392 125.864 37.392 124.52 37.392C123.176 37.392 121.848 37.392 120.536 37.392ZM136.288 45.072C136.928 43.376 137.584 41.664 138.256 39.936C138.96 38.24 139.632 36.56 140.272 34.896C138.768 31.216 137.232 27.504 135.664 23.76C134.128 19.984 132.608 16.256 131.104 12.576C132.512 12.576 133.92 12.576 135.328 12.576C136.736 12.576 138.128 12.576 139.504 12.576C140.336 14.624 141.168 16.704 142 18.816C142.864 20.928 143.712 23.024 144.544 25.104C145.312 23.024 146.096 20.928 146.896 18.816C147.696 16.704 148.48 14.624 149.248 12.576C150.624 12.576 152 12.576 153.376 12.576C154.752 12.576 156.128 12.576 157.504 12.576C155.36 17.92 153.2 23.344 151.024 28.848C148.88 34.32 146.736 39.728 144.592 45.072C143.216 45.072 141.824 45.072 140.416 45.072C139.04 45.072 137.664 45.072 136.288 45.072ZM175.888 4.75197C177.072 8.39997 178.24 12.08 179.392 15.792C180.576 19.504 181.76 23.184 182.944 26.832C184.128 23.184 185.312 19.504 186.496 15.792C187.68 12.08 188.864 8.39997 190.048 4.75197C191.424 4.75197 192.816 4.75197 194.224 4.75197C195.632 4.75197 197.024 4.75197 198.4 4.75197C196.672 10.128 194.912 15.568 193.12 21.072C191.36 26.576 189.616 32.016 187.888 37.392C186.224 37.392 184.544 37.392 182.848 37.392C181.184 37.392 179.52 37.392 177.856 37.392C176.128 32.016 174.368 26.576 172.576 21.072C170.816 15.568 169.072 10.128 167.344 4.75197C168.752 4.75197 170.176 4.75197 171.616 4.75197C173.056 4.75197 174.48 4.75197 175.888 4.75197ZM205.286 9.74397C204.358 9.74397 203.51 9.51997 202.742 9.07197C202.006 8.62397 201.414 8.03197 200.966 7.29597C200.518 6.55997 200.294 5.74397 200.294 4.84797C200.294 3.95197 200.518 3.15197 200.966 2.44797C201.414 1.71197 202.006 1.11997 202.742 0.671966C203.51 0.223966 204.358 -3.43323e-05 205.286 -3.43323e-05C206.182 -3.43323e-05 206.998 0.223966 207.734 0.671966C208.502 1.11997 209.11 1.71197 209.558 2.44797C210.006 3.15197 210.23 3.95197 210.23 4.84797C210.23 5.74397 210.006 6.55997 209.558 7.29597C209.11 8.03197 208.502 8.62397 207.734 9.07197C206.998 9.51997 206.182 9.74397 205.286 9.74397ZM201.302 37.392C201.302 33.296 201.302 29.168 201.302 25.008C201.302 20.816 201.302 16.672 201.302 12.576C202.614 12.576 203.942 12.576 205.286 12.576C206.63 12.576 207.942 12.576 209.222 12.576C209.222 16.672 209.222 20.816 209.222 25.008C209.222 29.168 209.222 33.296 209.222 37.392C207.942 37.392 206.63 37.392 205.286 37.392C203.942 37.392 202.614 37.392 201.302 37.392ZM233.709 29.712C233.709 31.696 233.149 33.328 232.029 34.608C230.941 35.856 229.469 36.768 227.613 37.344C225.757 37.92 223.677 38.16 221.373 38.064C219.101 38 216.781 37.632 214.413 36.96C214.413 35.744 214.413 34.496 214.413 33.216C214.413 31.936 214.413 30.688 214.413 29.472C215.757 30.08 217.101 30.56 218.445 30.912C219.789 31.232 221.005 31.424 222.093 31.488C223.181 31.552 224.061 31.472 224.733 31.248C225.405 30.992 225.741 30.576 225.741 30C225.741 29.552 225.453 29.2 224.877 28.944C224.333 28.688 223.613 28.464 222.717 28.272C221.821 28.048 220.861 27.792 219.837 27.504C218.845 27.184 217.901 26.752 217.005 26.208C216.109 25.632 215.373 24.88 214.797 23.952C214.253 22.992 213.981 21.76 213.981 20.256C213.981 18.464 214.493 16.944 215.517 15.696C216.573 14.416 217.981 13.456 219.741 12.816C221.501 12.144 223.469 11.808 225.645 11.808C227.821 11.808 230.045 12.176 232.317 12.912C232.317 14.128 232.317 15.376 232.317 16.656C232.317 17.936 232.317 19.184 232.317 20.4C230.525 19.536 228.845 18.96 227.277 18.672C225.709 18.384 224.445 18.352 223.485 18.576C222.525 18.768 222.045 19.2 222.045 19.872C222.045 20.32 222.317 20.672 222.861 20.928C223.437 21.152 224.157 21.36 225.021 21.552C225.917 21.744 226.861 22 227.853 22.32C228.877 22.64 229.821 23.088 230.685 23.664C231.581 24.208 232.301 24.976 232.845 25.968C233.421 26.928 233.709 28.176 233.709 29.712ZM260.715 12.576C260.715 16.672 260.715 20.816 260.715 25.008C260.715 29.168 260.715 33.296 260.715 37.392C259.435 37.392 258.123 37.392 256.779 37.392C255.435 37.392 254.107 37.392 252.795 37.392C252.795 37.168 252.795 36.96 252.795 36.768C252.795 36.576 252.795 36.368 252.795 36.144C251.931 36.752 250.955 37.216 249.867 37.536C248.811 37.888 247.659 38.064 246.411 38.064C244.587 38.064 242.971 37.648 241.563 36.816C240.187 35.984 239.099 34.784 238.299 33.216C237.531 31.648 237.147 29.792 237.147 27.648C237.147 25.152 237.147 22.64 237.147 20.112C237.147 17.584 237.147 15.072 237.147 12.576C238.459 12.576 239.787 12.576 241.131 12.576C242.475 12.576 243.787 12.576 245.067 12.576C245.067 14.88 245.067 17.216 245.067 19.584C245.067 21.952 245.067 24.288 245.067 26.592C245.067 27.872 245.355 28.912 245.931 29.712C246.539 30.48 247.483 30.864 248.763 30.864C250.043 30.864 251.035 30.496 251.739 29.76C252.443 29.024 252.795 27.968 252.795 26.592C252.795 24.288 252.795 21.952 252.795 19.584C252.795 17.216 252.795 14.88 252.795 12.576C254.107 12.576 255.435 12.576 256.779 12.576C258.123 12.576 259.435 12.576 260.715 12.576ZM282.544 37.392C282.544 37.136 282.544 36.896 282.544 36.672C282.544 36.416 282.544 36.176 282.544 35.952C281.744 36.624 280.832 37.136 279.808 37.488C278.816 37.872 277.744 38.064 276.592 38.064C274.96 38.064 273.424 37.76 271.984 37.152C270.544 36.512 269.264 35.616 268.144 34.464C267.056 33.28 266.192 31.888 265.552 30.288C264.944 28.688 264.64 26.912 264.64 24.96C264.64 22.976 264.944 21.184 265.552 19.584C266.192 17.984 267.056 16.624 268.144 15.504C269.264 14.352 270.544 13.472 271.984 12.864C273.424 12.224 274.944 11.904 276.544 11.904C277.696 11.904 278.784 12.096 279.808 12.48C280.832 12.832 281.744 13.328 282.544 13.968C282.544 13.712 282.544 13.472 282.544 13.248C282.544 13.024 282.544 12.8 282.544 12.576C283.856 12.576 285.184 12.576 286.528 12.576C287.872 12.576 289.184 12.576 290.464 12.576C290.464 16.672 290.464 20.816 290.464 25.008C290.464 29.168 290.464 33.296 290.464 37.392C289.184 37.392 287.872 37.392 286.528 37.392C285.184 37.392 283.856 37.392 282.544 37.392ZM277.648 31.056C279.184 31.056 280.416 30.496 281.344 29.376C282.272 28.256 282.736 26.784 282.736 24.96C282.736 23.136 282.272 21.68 281.344 20.592C280.416 19.472 279.184 18.912 277.648 18.912C276.08 18.912 274.832 19.456 273.904 20.544C273.008 21.632 272.56 23.104 272.56 24.96C272.56 26.816 273.008 28.304 273.904 29.424C274.832 30.512 276.08 31.056 277.648 31.056ZM295.989 37.392C295.989 31.6 295.989 25.76 295.989 19.872C295.989 13.984 295.989 8.14397 295.989 2.35197C297.301 2.35197 298.629 2.35197 299.973 2.35197C301.317 2.35197 302.629 2.35197 303.909 2.35197C303.909 8.14397 303.909 13.984 303.909 19.872C303.909 25.76 303.909 31.6 303.909 37.392C302.629 37.392 301.317 37.392 299.973 37.392C298.629 37.392 297.301 37.392 295.989 37.392ZM18.192 74.112C18.192 76.32 17.872 78.272 17.232 79.968C16.624 81.664 15.632 83.024 14.256 84.048C12.88 85.04 11.104 85.648 8.928 85.872C6.752 86.096 4.096 85.856 0.96 85.152C0.96 83.84 0.96 82.512 0.96 81.168C0.96 79.824 0.96 78.496 0.96 77.184C4.032 78.048 6.272 78.256 7.68 77.808C9.088 77.328 9.792 76.096 9.792 74.112C9.792 70.592 9.792 67.04 9.792 63.456C9.792 59.84 9.792 56.272 9.792 52.752C11.2 52.752 12.608 52.752 14.016 52.752C15.424 52.752 16.816 52.752 18.192 52.752C18.192 56.272 18.192 59.84 18.192 63.456C18.192 67.04 18.192 70.592 18.192 74.112ZM35.2125 86.16C33.3565 86.16 31.6285 85.84 30.0285 85.2C28.4285 84.528 27.0365 83.6 25.8525 82.416C24.6685 81.2 23.7405 79.792 23.0685 78.192C22.4285 76.592 22.1085 74.848 22.1085 72.96C22.1085 71.072 22.4285 69.328 23.0685 67.728C23.7405 66.128 24.6685 64.736 25.8525 63.552C27.0365 62.368 28.4285 61.456 30.0285 60.816C31.6285 60.144 33.3565 59.808 35.2125 59.808C37.1005 59.808 38.8285 60.144 40.3965 60.816C41.9965 61.456 43.3885 62.368 44.5725 63.552C45.7565 64.736 46.6685 66.128 47.3085 67.728C47.9805 69.328 48.3165 71.072 48.3165 72.96C48.3165 74.848 47.9805 76.592 47.3085 78.192C46.6685 79.792 45.7565 81.2 44.5725 82.416C43.3885 83.6 41.9965 84.528 40.3965 85.2C38.8285 85.84 37.1005 86.16 35.2125 86.16ZM35.2125 79.008C36.7805 79.008 38.0285 78.448 38.9565 77.328C39.9165 76.176 40.3965 74.72 40.3965 72.96C40.3965 71.168 39.9165 69.728 38.9565 68.64C38.0285 67.52 36.7805 66.96 35.2125 66.96C33.6445 66.96 32.3805 67.52 31.4205 68.64C30.4925 69.728 30.0285 71.168 30.0285 72.96C30.0285 74.72 30.4925 76.176 31.4205 77.328C32.3805 78.448 33.6445 79.008 35.2125 79.008ZM75.4178 60.576C75.4178 64.672 75.4178 68.816 75.4178 73.008C75.4178 77.168 75.4178 81.296 75.4178 85.392C74.1378 85.392 72.8258 85.392 71.4818 85.392C70.1378 85.392 68.8098 85.392 67.4978 85.392C67.4978 85.168 67.4978 84.96 67.4978 84.768C67.4978 84.576 67.4978 84.368 67.4978 84.144C66.6338 84.752 65.6578 85.216 64.5698 85.536C63.5138 85.888 62.3618 86.064 61.1138 86.064C59.2898 86.064 57.6738 85.648 56.2658 84.816C54.8898 83.984 53.8018 82.784 53.0018 81.216C52.2338 79.648 51.8498 77.792 51.8498 75.648C51.8498 73.152 51.8498 70.64 51.8498 68.112C51.8498 65.584 51.8498 63.072 51.8498 60.576C53.1618 60.576 54.4898 60.576 55.8338 60.576C57.1778 60.576 58.4898 60.576 59.7698 60.576C59.7698 62.88 59.7698 65.216 59.7698 67.584C59.7698 69.952 59.7698 72.288 59.7698 74.592C59.7698 75.872 60.0578 76.912 60.6338 77.712C61.2418 78.48 62.1858 78.864 63.4658 78.864C64.7458 78.864 65.7378 78.496 66.4418 77.76C67.1458 77.024 67.4978 75.968 67.4978 74.592C67.4978 72.288 67.4978 69.952 67.4978 67.584C67.4978 65.216 67.4978 62.88 67.4978 60.576C68.8098 60.576 70.1378 60.576 71.4818 60.576C72.8258 60.576 74.1378 60.576 75.4178 60.576ZM80.6869 85.392C80.6869 81.296 80.6869 77.168 80.6869 73.008C80.6869 68.816 80.6869 64.672 80.6869 60.576C81.9989 60.576 83.3269 60.576 84.6709 60.576C86.0149 60.576 87.3269 60.576 88.6069 60.576C88.6069 60.8 88.6069 61.024 88.6069 61.248C88.6069 61.472 88.6069 61.696 88.6069 61.92C89.5989 61.216 90.7189 60.688 91.9669 60.336C93.2149 59.984 94.5749 59.888 96.0469 60.048C96.0469 61.328 96.0469 62.624 96.0469 63.936C96.0469 65.248 96.0469 66.544 96.0469 67.824C93.5189 67.472 91.6469 67.696 90.4309 68.496C89.2149 69.264 88.6069 70.528 88.6069 72.288C88.6069 74.432 88.6069 76.608 88.6069 78.816C88.6069 81.024 88.6069 83.216 88.6069 85.392C87.3269 85.392 86.0149 85.392 84.6709 85.392C83.3269 85.392 81.9989 85.392 80.6869 85.392ZM99.6244 85.392C99.6244 81.296 99.6244 77.168 99.6244 73.008C99.6244 68.816 99.6244 64.672 99.6244 60.576C100.936 60.576 102.264 60.576 103.608 60.576C104.952 60.576 106.264 60.576 107.544 60.576C107.544 60.8 107.544 61.008 107.544 61.2C107.544 61.392 107.544 61.6 107.544 61.824C108.408 61.216 109.368 60.752 110.424 60.432C111.512 60.08 112.68 59.904 113.928 59.904C115.752 59.904 117.352 60.32 118.728 61.152C120.136 61.984 121.224 63.184 121.992 64.752C122.792 66.288 123.192 68.144 123.192 70.32C123.192 72.816 123.192 75.328 123.192 77.856C123.192 80.384 123.192 82.896 123.192 85.392C121.912 85.392 120.6 85.392 119.256 85.392C117.912 85.392 116.584 85.392 115.272 85.392C115.272 83.088 115.272 80.752 115.272 78.384C115.272 76.016 115.272 73.68 115.272 71.376C115.272 70.096 114.968 69.072 114.36 68.304C113.784 67.504 112.856 67.104 111.576 67.104C110.296 67.104 109.304 67.472 108.6 68.208C107.896 68.944 107.544 70 107.544 71.376C107.544 73.68 107.544 76.016 107.544 78.384C107.544 80.752 107.544 83.088 107.544 85.392C106.264 85.392 104.952 85.392 103.608 85.392C102.264 85.392 100.936 85.392 99.6244 85.392ZM144.638 85.392C144.638 85.136 144.638 84.896 144.638 84.672C144.638 84.416 144.638 84.176 144.638 83.952C143.838 84.624 142.926 85.136 141.902 85.488C140.91 85.872 139.838 86.064 138.686 86.064C137.054 86.064 135.518 85.76 134.078 85.152C132.638 84.512 131.358 83.616 130.238 82.464C129.15 81.28 128.286 79.888 127.646 78.288C127.038 76.688 126.734 74.912 126.734 72.96C126.734 70.976 127.038 69.184 127.646 67.584C128.286 65.984 129.15 64.624 130.238 63.504C131.358 62.352 132.638 61.472 134.078 60.864C135.518 60.224 137.038 59.904 138.638 59.904C139.79 59.904 140.878 60.096 141.902 60.48C142.926 60.832 143.838 61.328 144.638 61.968C144.638 61.712 144.638 61.472 144.638 61.248C144.638 61.024 144.638 60.8 144.638 60.576C145.95 60.576 147.278 60.576 148.622 60.576C149.966 60.576 151.278 60.576 152.557 60.576C152.557 64.672 152.557 68.816 152.557 73.008C152.557 77.168 152.557 81.296 152.557 85.392C151.278 85.392 149.966 85.392 148.622 85.392C147.278 85.392 145.95 85.392 144.638 85.392ZM139.742 79.056C141.278 79.056 142.51 78.496 143.438 77.376C144.366 76.256 144.83 74.784 144.83 72.96C144.83 71.136 144.366 69.68 143.438 68.592C142.51 67.472 141.278 66.912 139.742 66.912C138.174 66.912 136.926 67.456 135.998 68.544C135.102 69.632 134.654 71.104 134.654 72.96C134.654 74.816 135.102 76.304 135.998 77.424C136.926 78.512 138.174 79.056 139.742 79.056ZM158.083 85.392C158.083 79.6 158.083 73.76 158.083 67.872C158.083 61.984 158.083 56.144 158.083 50.352C159.395 50.352 160.723 50.352 162.067 50.352C163.411 50.352 164.723 50.352 166.003 50.352C166.003 56.144 166.003 61.984 166.003 67.872C166.003 73.76 166.003 79.6 166.003 85.392C164.723 85.392 163.411 85.392 162.067 85.392C160.723 85.392 159.395 85.392 158.083 85.392ZM182.089 85.392C182.089 80.016 182.089 74.576 182.089 69.072C182.089 63.568 182.089 58.128 182.089 52.752C184.073 52.752 186.057 52.752 188.041 52.752C190.057 52.752 192.041 52.752 193.993 52.752C196.457 52.752 198.601 53.232 200.425 54.192C202.249 55.12 203.673 56.432 204.697 58.128C205.721 59.824 206.233 61.808 206.233 64.08C206.233 66.32 205.721 68.288 204.697 69.984C203.705 71.68 202.329 72.992 200.569 73.92C198.841 74.848 196.873 75.312 194.665 75.312C193.961 75.312 193.257 75.312 192.553 75.312C191.881 75.312 191.193 75.312 190.489 75.312C190.489 76.976 190.489 78.656 190.489 80.352C190.489 82.048 190.489 83.728 190.489 85.392C189.113 85.392 187.721 85.392 186.313 85.392C184.905 85.392 183.497 85.392 182.089 85.392ZM193.993 60.288C193.417 60.288 192.825 60.288 192.217 60.288C191.641 60.288 191.065 60.288 190.489 60.288C190.489 61.568 190.489 62.864 190.489 64.176C190.489 65.456 190.489 66.736 190.489 68.016C191.129 68.016 191.785 68.016 192.457 68.016C193.161 68.016 193.833 68.016 194.473 68.016C195.465 68.016 196.265 67.648 196.873 66.912C197.513 66.176 197.833 65.264 197.833 64.176C197.833 63.056 197.497 62.128 196.825 61.392C196.153 60.656 195.209 60.288 193.993 60.288ZM210.062 85.392C210.062 81.296 210.062 77.168 210.062 73.008C210.062 68.816 210.062 64.672 210.062 60.576C211.374 60.576 212.702 60.576 214.046 60.576C215.39 60.576 216.702 60.576 217.982 60.576C217.982 60.8 217.982 61.024 217.982 61.248C217.982 61.472 217.982 61.696 217.982 61.92C218.974 61.216 220.094 60.688 221.342 60.336C222.59 59.984 223.95 59.888 225.422 60.048C225.422 61.328 225.422 62.624 225.422 63.936C225.422 65.248 225.422 66.544 225.422 67.824C222.894 67.472 221.022 67.696 219.806 68.496C218.59 69.264 217.982 70.528 217.982 72.288C217.982 74.432 217.982 76.608 217.982 78.816C217.982 81.024 217.982 83.216 217.982 85.392C216.702 85.392 215.39 85.392 214.046 85.392C212.702 85.392 211.374 85.392 210.062 85.392ZM240.525 86.16C238.669 86.16 236.941 85.84 235.341 85.2C233.741 84.528 232.349 83.6 231.165 82.416C229.981 81.2 229.053 79.792 228.381 78.192C227.741 76.592 227.421 74.848 227.421 72.96C227.421 71.072 227.741 69.328 228.381 67.728C229.053 66.128 229.981 64.736 231.165 63.552C232.349 62.368 233.741 61.456 235.341 60.816C236.941 60.144 238.669 59.808 240.525 59.808C242.413 59.808 244.141 60.144 245.709 60.816C247.309 61.456 248.701 62.368 249.885 63.552C251.069 64.736 251.981 66.128 252.621 67.728C253.293 69.328 253.629 71.072 253.629 72.96C253.629 74.848 253.293 76.592 252.621 78.192C251.981 79.792 251.069 81.2 249.885 82.416C248.701 83.6 247.309 84.528 245.709 85.2C244.141 85.84 242.413 86.16 240.525 86.16ZM240.525 79.008C242.093 79.008 243.341 78.448 244.269 77.328C245.229 76.176 245.709 74.72 245.709 72.96C245.709 71.168 245.229 69.728 244.269 68.64C243.341 67.52 242.093 66.96 240.525 66.96C238.957 66.96 237.693 67.52 236.733 68.64C235.805 69.728 235.341 71.168 235.341 72.96C235.341 74.72 235.805 76.176 236.733 77.328C237.693 78.448 238.957 79.008 240.525 79.008ZM262.262 57.744C261.334 57.744 260.486 57.52 259.718 57.072C258.982 56.624 258.39 56.032 257.942 55.296C257.494 54.56 257.27 53.744 257.27 52.848C257.27 51.952 257.494 51.152 257.942 50.448C258.39 49.712 258.982 49.12 259.718 48.672C260.486 48.224 261.334 48 262.262 48C263.158 48 263.974 48.224 264.71 48.672C265.478 49.12 266.086 49.712 266.534 50.448C266.982 51.152 267.206 51.952 267.206 52.848C267.206 53.744 266.982 54.56 266.534 55.296C266.086 56.032 265.478 56.624 264.71 57.072C263.974 57.52 263.158 57.744 262.262 57.744ZM258.278 83.856C258.278 80.016 258.278 76.144 258.278 72.24C258.278 68.304 258.278 64.416 258.278 60.576C259.59 60.576 260.918 60.576 262.262 60.576C263.606 60.576 264.918 60.576 266.198 60.576C266.198 64.512 266.198 68.496 266.198 72.528C266.198 76.56 266.198 80.544 266.198 84.48C266.198 87.168 265.686 89.216 264.662 90.624C263.67 92.064 262.262 92.976 260.438 93.36C258.646 93.744 256.518 93.744 254.053 93.36C254.053 92.24 254.053 91.088 254.053 89.904C254.053 88.752 254.053 87.616 254.053 86.496C255.59 86.816 256.678 86.784 257.318 86.4C257.958 86.016 258.278 85.168 258.278 83.856ZM292.969 84.24C290.761 85.168 288.569 85.744 286.393 85.968C284.217 86.192 282.153 86.064 280.201 85.584C278.281 85.136 276.569 84.352 275.065 83.232C273.561 82.112 272.377 80.688 271.513 78.96C270.681 77.232 270.265 75.232 270.265 72.96C270.265 71.072 270.569 69.344 271.177 67.776C271.817 66.176 272.713 64.784 273.865 63.6C275.017 62.384 276.377 61.456 277.945 60.816C279.513 60.144 281.225 59.808 283.081 59.808C284.745 59.808 286.249 60.08 287.593 60.624C288.937 61.168 290.105 61.936 291.097 62.928C292.089 63.888 292.889 65.04 293.497 66.384C294.105 67.728 294.489 69.2 294.649 70.8C294.809 72.4 294.713 74.096 294.361 75.888C291.737 75.888 289.097 75.888 286.441 75.888C283.785 75.888 281.145 75.888 278.521 75.888C279.129 77.104 280.137 77.968 281.545 78.48C282.985 78.992 284.681 79.152 286.633 78.96C288.617 78.768 290.729 78.256 292.969 77.424C292.969 78.544 292.969 79.68 292.969 80.832C292.969 81.984 292.969 83.12 292.969 84.24ZM282.889 66.912C281.961 66.912 281.097 67.168 280.297 67.68C279.529 68.192 278.937 68.976 278.521 70.032C279.961 70.032 281.401 70.032 282.841 70.032C284.313 70.032 285.769 70.032 287.209 70.032C286.825 68.944 286.249 68.16 285.481 67.68C284.745 67.168 283.881 66.912 282.889 66.912ZM297.499 72.96C297.499 70.528 297.995 68.4 298.987 66.576C299.979 64.72 301.355 63.232 303.115 62.112C304.875 60.992 306.923 60.32 309.259 60.096C311.595 59.84 314.091 60.112 316.747 60.912C316.747 62.128 316.747 63.36 316.747 64.608C316.747 65.856 316.747 67.088 316.747 68.304C314.891 67.408 313.115 66.992 311.419 67.056C309.723 67.12 308.331 67.648 307.243 68.64C306.155 69.6 305.611 71.04 305.611 72.96C305.611 74.88 306.155 76.336 307.243 77.328C308.331 78.288 309.723 78.8 311.419 78.864C313.115 78.896 314.891 78.48 316.747 77.616C316.747 78.832 316.747 80.064 316.747 81.312C316.747 82.56 316.747 83.792 316.747 85.008C314.091 85.808 311.595 86.08 309.259 85.824C306.923 85.6 304.875 84.928 303.115 83.808C301.355 82.688 299.979 81.216 298.987 79.392C297.995 77.536 297.499 75.392 297.499 72.96ZM324.263 85.392C324.263 82.448 324.263 79.488 324.263 76.512C324.263 73.536 324.263 70.592 324.263 67.68C323.623 67.68 322.967 67.68 322.295 67.68C321.655 67.68 321.015 67.68 320.375 67.68C320.375 66.496 320.375 65.312 320.375 64.128C320.375 62.944 320.375 61.76 320.375 60.576C321.015 60.576 321.655 60.576 322.295 60.576C322.967 60.576 323.623 60.576 324.263 60.576C324.263 59.456 324.263 58.352 324.263 57.264C324.263 56.144 324.263 55.04 324.263 53.952C325.575 53.952 326.903 53.952 328.247 53.952C329.591 53.952 330.903 53.952 332.183 53.952C332.183 55.04 332.183 56.144 332.183 57.264C332.183 58.352 332.183 59.456 332.183 60.576C332.919 60.576 333.671 60.576 334.439 60.576C335.207 60.576 335.959 60.576 336.695 60.576C336.695 61.76 336.695 62.944 336.695 64.128C336.695 65.312 336.695 66.496 336.695 67.68C335.959 67.68 335.207 67.68 334.439 67.68C333.671 67.68 332.919 67.68 332.183 67.68C332.183 70.592 332.183 73.536 332.183 76.512C332.183 79.488 332.183 82.448 332.183 85.392C330.903 85.392 329.591 85.392 328.247 85.392C326.903 85.392 325.575 85.392 324.263 85.392Z" fill="#696969"/>
</svg>
