<svg width="104" height="26" viewBox="0 0 104 26" fill="none" xmlns="http://www.w3.org/2000/svg">
<path d="M18.656 23.776C16.4373 24.672 14.368 25.184 12.448 25.312C10.5493 25.4613 8.832 25.2907 7.296 24.8C5.76 24.288 4.448 23.52 3.36 22.496C2.272 21.472 1.44 20.256 0.863996 18.848C0.287996 17.44 -4.35114e-06 15.904 -4.35114e-06 14.24C-4.35114e-06 12.5973 0.266662 11.0827 0.799996 9.69601C1.33333 8.28801 2.112 7.07201 3.136 6.04801C4.18133 5.02401 5.44 4.22401 6.912 3.64801C8.384 3.07201 10.0587 2.79467 11.936 2.81601C13.8133 2.81601 15.872 3.15734 18.112 3.84001C18.112 4.73601 18.112 5.64267 18.112 6.56001C18.112 7.45601 18.112 8.35201 18.112 9.24801C16.3413 8.54401 14.6987 8.13868 13.184 8.03201C11.6907 7.92534 10.3787 8.08534 9.248 8.51201C8.13866 8.93867 7.264 9.62134 6.624 10.56C6.00533 11.4773 5.696 12.6293 5.696 14.016C5.696 15.232 5.92 16.3093 6.368 17.248C6.83733 18.1867 7.488 18.9227 8.32 19.456C9.152 19.9893 10.1013 20.256 11.168 20.256C11.5307 20.256 11.8933 20.2453 12.256 20.224C12.6187 20.1813 12.9707 20.1173 13.312 20.032C13.312 19.4773 13.312 18.912 13.312 18.336C13.312 17.76 13.312 17.1947 13.312 16.64C12.7147 16.64 12.1173 16.64 11.52 16.64C10.9227 16.64 10.3253 16.64 9.728 16.64C9.728 15.8507 9.728 15.0613 9.728 14.272C9.728 13.4613 9.728 12.6613 9.728 11.872C11.2 11.872 12.6827 11.872 14.176 11.872C15.6907 11.872 17.184 11.872 18.656 11.872C18.656 13.8347 18.656 15.8187 18.656 17.824C18.656 19.8293 18.656 21.8133 18.656 23.776ZM37.849 8.38401C37.849 11.1147 37.849 13.8773 37.849 16.672C37.849 19.4453 37.849 22.1973 37.849 24.928C36.9957 24.928 36.121 24.928 35.225 24.928C34.329 24.928 33.4437 24.928 32.569 24.928C32.569 24.7787 32.569 24.64 32.569 24.512C32.569 24.384 32.569 24.2453 32.569 24.096C31.993 24.5013 31.3423 24.8107 30.617 25.024C29.913 25.2587 29.145 25.376 28.313 25.376C27.097 25.376 26.0197 25.0987 25.081 24.544C24.1637 23.9893 23.4383 23.1893 22.905 22.144C22.393 21.0987 22.137 19.8613 22.137 18.432C22.137 16.768 22.137 15.0933 22.137 13.408C22.137 11.7227 22.137 10.048 22.137 8.38401C23.0117 8.38401 23.897 8.38401 24.793 8.38401C25.689 8.38401 26.5637 8.38401 27.417 8.38401C27.417 9.92001 27.417 11.4773 27.417 13.056C27.417 14.6347 27.417 16.192 27.417 17.728C27.417 18.5813 27.609 19.2747 27.993 19.808C28.3983 20.32 29.0277 20.576 29.881 20.576C30.7343 20.576 31.3957 20.3307 31.865 19.84C32.3343 19.3493 32.569 18.6453 32.569 17.728C32.569 16.192 32.569 14.6347 32.569 13.056C32.569 11.4773 32.569 9.92001 32.569 8.38401C33.4437 8.38401 34.329 8.38401 35.225 8.38401C36.121 8.38401 36.9957 8.38401 37.849 8.38401ZM44.1777 6.49601C43.5591 6.49601 42.9937 6.34667 42.4817 6.04801C41.9911 5.74934 41.5964 5.35467 41.2977 4.86401C40.9991 4.37334 40.8497 3.82934 40.8497 3.23201C40.8497 2.63467 40.9991 2.10134 41.2977 1.63201C41.5964 1.14134 41.9911 0.746674 42.4817 0.448008C42.9937 0.149341 43.5591 7.62939e-06 44.1777 7.62939e-06C44.7751 7.62939e-06 45.3191 0.149341 45.8097 0.448008C46.3217 0.746674 46.7271 1.14134 47.0257 1.63201C47.3244 2.10134 47.4737 2.63467 47.4737 3.23201C47.4737 3.82934 47.3244 4.37334 47.0257 4.86401C46.7271 5.35467 46.3217 5.74934 45.8097 6.04801C45.3191 6.34667 44.7751 6.49601 44.1777 6.49601ZM41.5217 24.928C41.5217 22.1973 41.5217 19.4453 41.5217 16.672C41.5217 13.8773 41.5217 11.1147 41.5217 8.38401C42.3964 8.38401 43.2817 8.38401 44.1777 8.38401C45.0737 8.38401 45.9484 8.38401 46.8017 8.38401C46.8017 11.1147 46.8017 13.8773 46.8017 16.672C46.8017 19.4453 46.8017 22.1973 46.8017 24.928C45.9484 24.928 45.0737 24.928 44.1777 24.928C43.2817 24.928 42.3964 24.928 41.5217 24.928ZM61.5267 24.928C61.5267 24.7573 61.5267 24.5973 61.5267 24.448C61.5267 24.2773 61.5267 24.1173 61.5267 23.968C60.9934 24.416 60.3854 24.7573 59.7027 24.992C59.0414 25.248 58.3267 25.376 57.5587 25.376C56.4707 25.376 55.4467 25.1627 54.4867 24.736C53.5267 24.3093 52.6734 23.712 51.9267 22.944C51.2014 22.1547 50.6254 21.2267 50.1987 20.16C49.7934 19.0933 49.5907 17.92 49.5907 16.64C49.5907 15.3387 49.7934 14.1547 50.1987 13.088C50.6254 12.0213 51.2014 11.104 51.9267 10.336C52.6734 9.56801 53.5267 8.98134 54.4867 8.57601C55.4467 8.14934 56.4601 7.93601 57.5267 7.93601C58.2947 7.93601 59.0201 8.06401 59.7027 8.32001C60.3854 8.55467 60.9934 8.88534 61.5267 9.31201C61.5267 8.03201 61.5267 6.74134 61.5267 5.44001C61.5267 4.13868 61.5267 2.84801 61.5267 1.56801C62.4014 1.56801 63.2867 1.56801 64.1827 1.56801C65.0787 1.56801 65.9534 1.56801 66.8067 1.56801C66.8067 5.42934 66.8067 9.32268 66.8067 13.248C66.8067 17.1733 66.8067 21.0667 66.8067 24.928C65.9534 24.928 65.0787 24.928 64.1827 24.928C63.2867 24.928 62.4014 24.928 61.5267 24.928ZM58.2627 20.704C59.2867 20.704 60.1081 20.3307 60.7267 19.584C61.3454 18.8373 61.6547 17.856 61.6547 16.64C61.6547 15.424 61.3454 14.4533 60.7267 13.728C60.1081 12.9813 59.2867 12.608 58.2627 12.608C57.2174 12.608 56.3854 12.9707 55.7667 13.696C55.1694 14.4213 54.8707 15.4027 54.8707 16.64C54.8707 17.8773 55.1694 18.8693 55.7667 19.616C56.3854 20.3413 57.2174 20.704 58.2627 20.704ZM84.7267 24.16C83.2547 24.7787 81.7934 25.1627 80.3427 25.312C78.8921 25.4613 77.5161 25.376 76.2147 25.056C74.9347 24.7573 73.7934 24.2347 72.7907 23.488C71.7881 22.7413 70.9987 21.792 70.4227 20.64C69.8681 19.488 69.5907 18.1547 69.5907 16.64C69.5907 15.3813 69.7934 14.2293 70.1987 13.184C70.6254 12.1173 71.2227 11.1893 71.9907 10.4C72.7587 9.58934 73.6654 8.97068 74.7107 8.54401C75.7561 8.09601 76.8974 7.87201 78.1347 7.87201C79.2441 7.87201 80.2467 8.05334 81.1427 8.41601C82.0387 8.77868 82.8174 9.29068 83.4787 9.95201C84.1401 10.592 84.6734 11.36 85.0787 12.256C85.4841 13.152 85.7401 14.1333 85.8467 15.2C85.9534 16.2667 85.8894 17.3973 85.6547 18.592C83.9054 18.592 82.1454 18.592 80.3747 18.592C78.6041 18.592 76.8441 18.592 75.0947 18.592C75.5001 19.4027 76.1721 19.9787 77.1107 20.32C78.0707 20.6613 79.2014 20.768 80.5027 20.64C81.8254 20.512 83.2334 20.1707 84.7267 19.616C84.7267 20.3627 84.7267 21.12 84.7267 21.888C84.7267 22.656 84.7267 23.4133 84.7267 24.16ZM78.0067 12.608C77.3881 12.608 76.8121 12.7787 76.2787 13.12C75.7667 13.4613 75.3721 13.984 75.0947 14.688C76.0547 14.688 77.0147 14.688 77.9747 14.688C78.9561 14.688 79.9267 14.688 80.8867 14.688C80.6307 13.9627 80.2467 13.44 79.7347 13.12C79.2441 12.7787 78.6681 12.608 78.0067 12.608ZM103.586 2.78401C103.586 6.43201 103.586 10.1227 103.586 13.856C103.586 17.5893 103.586 21.28 103.586 24.928C102.668 24.928 101.74 24.928 100.802 24.928C99.8631 24.928 98.9244 24.928 97.9857 24.928C97.9857 22.3253 97.9857 19.7013 97.9857 17.056C97.9857 14.3893 97.9857 11.7653 97.9857 9.18401C97.3671 9.31201 96.7377 9.45067 96.0977 9.60001C95.4791 9.72801 94.8604 9.85601 94.2417 9.98401C94.2417 9.13067 94.2417 8.26667 94.2417 7.39201C94.2417 6.51734 94.2417 5.65334 94.2417 4.80001C95.7777 4.45867 97.3351 4.12801 98.9137 3.80801C100.492 3.46667 102.05 3.12534 103.586 2.78401Z" fill="#A3A3A3"/>
</svg>
