<svg width="110" height="26" viewBox="0 0 110 26" fill="none" xmlns="http://www.w3.org/2000/svg">
<path d="M18.6561 23.776C16.4374 24.672 14.3681 25.184 12.4481 25.312C10.5494 25.4613 8.83206 25.2907 7.29606 24.8C5.76006 24.288 4.44806 23.52 3.36006 22.496C2.27206 21.472 1.44006 20.256 0.864057 18.848C0.288057 17.44 5.6684e-05 15.904 5.6684e-05 14.24C5.6684e-05 12.5973 0.266723 11.0827 0.800057 9.69601C1.33339 8.28801 2.11206 7.07201 3.13606 6.04801C4.18139 5.02401 5.44006 4.22401 6.91206 3.64801C8.38406 3.07201 10.0587 2.79467 11.9361 2.81601C13.8134 2.81601 15.8721 3.15734 18.1121 3.84001C18.1121 4.73601 18.1121 5.64267 18.1121 6.56001C18.1121 7.45601 18.1121 8.35201 18.1121 9.24801C16.3414 8.54401 14.6987 8.13868 13.1841 8.03201C11.6907 7.92534 10.3787 8.08534 9.24806 8.51201C8.13872 8.93867 7.26406 9.62134 6.62406 10.56C6.00539 11.4773 5.69606 12.6293 5.69606 14.016C5.69606 15.232 5.92006 16.3093 6.36806 17.248C6.83739 18.1867 7.48806 18.9227 8.32006 19.456C9.15206 19.9893 10.1014 20.256 11.1681 20.256C11.5307 20.256 11.8934 20.2453 12.2561 20.224C12.6187 20.1813 12.9707 20.1173 13.3121 20.032C13.3121 19.4773 13.3121 18.912 13.3121 18.336C13.3121 17.76 13.3121 17.1947 13.3121 16.64C12.7147 16.64 12.1174 16.64 11.5201 16.64C10.9227 16.64 10.3254 16.64 9.72806 16.64C9.72806 15.8507 9.72806 15.0613 9.72806 14.272C9.72806 13.4613 9.72806 12.6613 9.72806 11.872C11.2001 11.872 12.6827 11.872 14.1761 11.872C15.6907 11.872 17.1841 11.872 18.6561 11.872C18.6561 13.8347 18.6561 15.8187 18.6561 17.824C18.6561 19.8293 18.6561 21.8133 18.6561 23.776ZM37.8491 8.38401C37.8491 11.1147 37.8491 13.8773 37.8491 16.672C37.8491 19.4453 37.8491 22.1973 37.8491 24.928C36.9957 24.928 36.1211 24.928 35.2251 24.928C34.3291 24.928 33.4437 24.928 32.5691 24.928C32.5691 24.7787 32.5691 24.64 32.5691 24.512C32.5691 24.384 32.5691 24.2453 32.5691 24.096C31.9931 24.5013 31.3424 24.8107 30.6171 25.024C29.9131 25.2587 29.1451 25.376 28.3131 25.376C27.0971 25.376 26.0197 25.0987 25.0811 24.544C24.1637 23.9893 23.4384 23.1893 22.9051 22.144C22.3931 21.0987 22.1371 19.8613 22.1371 18.432C22.1371 16.768 22.1371 15.0933 22.1371 13.408C22.1371 11.7227 22.1371 10.048 22.1371 8.38401C23.0117 8.38401 23.8971 8.38401 24.7931 8.38401C25.6891 8.38401 26.5637 8.38401 27.4171 8.38401C27.4171 9.92001 27.4171 11.4773 27.4171 13.056C27.4171 14.6347 27.4171 16.192 27.4171 17.728C27.4171 18.5813 27.6091 19.2747 27.9931 19.808C28.3984 20.32 29.0277 20.576 29.8811 20.576C30.7344 20.576 31.3957 20.3307 31.8651 19.84C32.3344 19.3493 32.5691 18.6453 32.5691 17.728C32.5691 16.192 32.5691 14.6347 32.5691 13.056C32.5691 11.4773 32.5691 9.92001 32.5691 8.38401C33.4437 8.38401 34.3291 8.38401 35.2251 8.38401C36.1211 8.38401 36.9957 8.38401 37.8491 8.38401ZM44.1778 6.49601C43.5591 6.49601 42.9938 6.34667 42.4818 6.04801C41.9911 5.74934 41.5965 5.35467 41.2978 4.86401C40.9991 4.37334 40.8498 3.82934 40.8498 3.23201C40.8498 2.63467 40.9991 2.10134 41.2978 1.63201C41.5965 1.14134 41.9911 0.746674 42.4818 0.448008C42.9938 0.149341 43.5591 7.62939e-06 44.1778 7.62939e-06C44.7751 7.62939e-06 45.3191 0.149341 45.8098 0.448008C46.3218 0.746674 46.7271 1.14134 47.0258 1.63201C47.3245 2.10134 47.4738 2.63467 47.4738 3.23201C47.4738 3.82934 47.3245 4.37334 47.0258 4.86401C46.7271 5.35467 46.3218 5.74934 45.8098 6.04801C45.3191 6.34667 44.7751 6.49601 44.1778 6.49601ZM41.5218 24.928C41.5218 22.1973 41.5218 19.4453 41.5218 16.672C41.5218 13.8773 41.5218 11.1147 41.5218 8.38401C42.3965 8.38401 43.2818 8.38401 44.1778 8.38401C45.0738 8.38401 45.9485 8.38401 46.8018 8.38401C46.8018 11.1147 46.8018 13.8773 46.8018 16.672C46.8018 19.4453 46.8018 22.1973 46.8018 24.928C45.9485 24.928 45.0738 24.928 44.1778 24.928C43.2818 24.928 42.3965 24.928 41.5218 24.928ZM61.5268 24.928C61.5268 24.7573 61.5268 24.5973 61.5268 24.448C61.5268 24.2773 61.5268 24.1173 61.5268 23.968C60.9935 24.416 60.3855 24.7573 59.7028 24.992C59.0415 25.248 58.3268 25.376 57.5588 25.376C56.4708 25.376 55.4468 25.1627 54.4868 24.736C53.5268 24.3093 52.6735 23.712 51.9268 22.944C51.2015 22.1547 50.6255 21.2267 50.1988 20.16C49.7935 19.0933 49.5908 17.92 49.5908 16.64C49.5908 15.3387 49.7935 14.1547 50.1988 13.088C50.6255 12.0213 51.2015 11.104 51.9268 10.336C52.6735 9.56801 53.5268 8.98134 54.4868 8.57601C55.4468 8.14934 56.4601 7.93601 57.5268 7.93601C58.2948 7.93601 59.0201 8.06401 59.7028 8.32001C60.3855 8.55467 60.9935 8.88534 61.5268 9.31201C61.5268 8.03201 61.5268 6.74134 61.5268 5.44001C61.5268 4.13868 61.5268 2.84801 61.5268 1.56801C62.4015 1.56801 63.2868 1.56801 64.1828 1.56801C65.0788 1.56801 65.9535 1.56801 66.8068 1.56801C66.8068 5.42934 66.8068 9.32268 66.8068 13.248C66.8068 17.1733 66.8068 21.0667 66.8068 24.928C65.9535 24.928 65.0788 24.928 64.1828 24.928C63.2868 24.928 62.4015 24.928 61.5268 24.928ZM58.2628 20.704C59.2868 20.704 60.1081 20.3307 60.7268 19.584C61.3455 18.8373 61.6548 17.856 61.6548 16.64C61.6548 15.424 61.3455 14.4533 60.7268 13.728C60.1081 12.9813 59.2868 12.608 58.2628 12.608C57.2175 12.608 56.3855 12.9707 55.7668 13.696C55.1695 14.4213 54.8708 15.4027 54.8708 16.64C54.8708 17.8773 55.1695 18.8693 55.7668 19.616C56.3855 20.3413 57.2175 20.704 58.2628 20.704ZM84.7268 24.16C83.2548 24.7787 81.7935 25.1627 80.3428 25.312C78.8921 25.4613 77.5161 25.376 76.2148 25.056C74.9348 24.7573 73.7935 24.2347 72.7908 23.488C71.7881 22.7413 70.9988 21.792 70.4228 20.64C69.8681 19.488 69.5908 18.1547 69.5908 16.64C69.5908 15.3813 69.7935 14.2293 70.1988 13.184C70.6255 12.1173 71.2228 11.1893 71.9908 10.4C72.7588 9.58934 73.6655 8.97068 74.7108 8.54401C75.7561 8.09601 76.8975 7.87201 78.1348 7.87201C79.2441 7.87201 80.2468 8.05334 81.1428 8.41601C82.0388 8.77868 82.8175 9.29068 83.4788 9.95201C84.1401 10.592 84.6735 11.36 85.0788 12.256C85.4841 13.152 85.7401 14.1333 85.8468 15.2C85.9535 16.2667 85.8895 17.3973 85.6548 18.592C83.9055 18.592 82.1455 18.592 80.3748 18.592C78.6041 18.592 76.8441 18.592 75.0948 18.592C75.5001 19.4027 76.1721 19.9787 77.1108 20.32C78.0708 20.6613 79.2015 20.768 80.5028 20.64C81.8255 20.512 83.2335 20.1707 84.7268 19.616C84.7268 20.3627 84.7268 21.12 84.7268 21.888C84.7268 22.656 84.7268 23.4133 84.7268 24.16ZM78.0068 12.608C77.3881 12.608 76.8121 12.7787 76.2788 13.12C75.7668 13.4613 75.3721 13.984 75.0948 14.688C76.0548 14.688 77.0148 14.688 77.9748 14.688C78.9561 14.688 79.9268 14.688 80.8868 14.688C80.6308 13.9627 80.2468 13.44 79.7348 13.12C79.2441 12.7787 78.6681 12.608 78.0068 12.608ZM96.4818 12.544C97.3778 11.84 98.2738 11.1253 99.1698 10.4C100.087 9.67467 100.994 8.96001 101.89 8.25601C100.802 8.25601 99.6925 8.25601 98.5618 8.25601C97.4525 8.25601 96.3538 8.25601 95.2658 8.25601C95.2658 7.42401 95.2658 6.58134 95.2658 5.72801C95.2658 4.85334 95.2658 4.00001 95.2658 3.16801C97.5058 3.16801 99.7565 3.16801 102.018 3.16801C104.3 3.16801 106.562 3.16801 108.802 3.16801C108.802 4.00001 108.802 4.85334 108.802 5.72801C108.802 6.58134 108.802 7.42401 108.802 8.25601C108.034 8.87468 107.266 9.50401 106.498 10.144C105.73 10.784 104.962 11.4133 104.194 12.032C105.943 12.3733 107.287 13.0987 108.226 14.208C109.186 15.296 109.666 16.672 109.666 18.336C109.666 19.9147 109.282 21.216 108.514 22.24C107.746 23.264 106.69 24.0213 105.346 24.512C104.002 25.0027 102.455 25.2267 100.706 25.184C98.9778 25.1413 97.1431 24.832 95.2018 24.256C95.2018 23.3813 95.2018 22.496 95.2018 21.6C95.2018 20.6827 95.2018 19.7867 95.2018 18.912C96.7591 19.4667 98.2205 19.8187 99.5858 19.968C100.951 20.1173 102.05 20.064 102.882 19.808C103.735 19.5307 104.162 19.0507 104.162 18.368C104.162 17.7067 103.831 17.2053 103.17 16.864C102.508 16.5227 101.591 16.3093 100.418 16.224C99.2658 16.1173 97.9538 16.128 96.4818 16.256C96.4818 15.6373 96.4818 15.0187 96.4818 14.4C96.4818 13.76 96.4818 13.1413 96.4818 12.544Z" fill="#A3A3A3"/>
</svg>
