<svg width="222" height="63" viewBox="0 0 222 63" fill="none" xmlns="http://www.w3.org/2000/svg">
<rect width="221.432" height="62.4179" rx="31.209" fill="#6CBDAA" fill-opacity="0.4"/>
<path d="M26.9811 41.791C26.9811 38.207 26.9811 34.5804 26.9811 30.911C26.9811 27.2417 26.9811 23.615 26.9811 20.031C28.3038 20.031 29.6371 20.031 30.9811 20.031C32.3251 20.031 33.6585 20.031 34.9811 20.031C35.5998 22.207 36.2078 24.415 36.8051 26.655C37.4238 28.8737 38.0318 31.071 38.6291 33.247C39.2265 31.071 39.8238 28.8737 40.4211 26.655C41.0398 24.415 41.6478 22.207 42.2451 20.031C43.5678 20.031 44.8905 20.031 46.2131 20.031C47.5358 20.031 48.8478 20.031 50.1491 20.031C50.1705 23.615 50.1918 27.2417 50.2131 30.911C50.2345 34.5804 50.2558 38.207 50.2771 41.791C49.3811 41.791 48.4745 41.791 47.5571 41.791C46.6611 41.791 45.7651 41.791 44.8691 41.791C44.8691 39.359 44.8691 36.9057 44.8691 34.431C44.8691 31.935 44.8691 29.471 44.8691 27.039C44.2291 29.471 43.5785 31.935 42.9171 34.431C42.2558 36.9057 41.6051 39.359 40.9651 41.791C40.1758 41.791 39.3651 41.791 38.5331 41.791C37.7225 41.791 36.9118 41.791 36.1011 41.791C35.4611 39.4017 34.8211 36.991 34.1811 34.559C33.5411 32.1057 32.9011 29.6844 32.2611 27.295C32.2611 29.6844 32.2611 32.1057 32.2611 34.559C32.2611 36.991 32.2611 39.4017 32.2611 41.791C31.4078 41.791 30.5331 41.791 29.6371 41.791C28.7411 41.791 27.8558 41.791 26.9811 41.791ZM65.1699 41.791C65.1699 41.6204 65.1699 41.4604 65.1699 41.311C65.1699 41.1404 65.1699 40.9804 65.1699 40.831C64.6365 41.279 64.0285 41.6204 63.3459 41.855C62.6845 42.111 61.9699 42.239 61.2019 42.239C60.1139 42.239 59.0899 42.0364 58.1299 41.631C57.1699 41.2044 56.3165 40.607 55.5699 39.839C54.8445 39.0497 54.2685 38.1217 53.8419 37.055C53.4365 35.9884 53.2339 34.8044 53.2339 33.503C53.2339 32.1804 53.4365 30.9857 53.8419 29.919C54.2685 28.8524 54.8445 27.9457 55.5699 27.199C56.3165 26.431 57.1699 25.8444 58.1299 25.439C59.0899 25.0124 60.1032 24.799 61.1699 24.799C61.9379 24.799 62.6632 24.927 63.3459 25.183C64.0285 25.4177 64.6365 25.7484 65.1699 26.175C65.1699 26.0044 65.1699 25.8444 65.1699 25.695C65.1699 25.5457 65.1699 25.3964 65.1699 25.247C66.0445 25.247 66.9299 25.247 67.8259 25.247C68.7219 25.247 69.5965 25.247 70.4499 25.247C70.4499 27.9777 70.4499 30.7404 70.4499 33.535C70.4499 36.3084 70.4499 39.0604 70.4499 41.791C69.5965 41.791 68.7219 41.791 67.8259 41.791C66.9299 41.791 66.0445 41.791 65.1699 41.791ZM61.9059 37.567C62.9299 37.567 63.7512 37.1937 64.3699 36.447C64.9885 35.7004 65.2979 34.719 65.2979 33.503C65.2979 32.287 64.9885 31.3164 64.3699 30.591C63.7512 29.8444 62.9299 29.471 61.9059 29.471C60.8605 29.471 60.0285 29.8337 59.4099 30.559C58.8125 31.2844 58.5139 32.2657 58.5139 33.503C58.5139 34.7404 58.8125 35.7324 59.4099 36.479C60.0285 37.2044 60.8605 37.567 61.9059 37.567ZM76.7896 23.359C76.171 23.359 75.6056 23.2097 75.0936 22.911C74.603 22.6124 74.2083 22.2177 73.9096 21.727C73.611 21.2364 73.4616 20.6924 73.4616 20.095C73.4616 19.4977 73.611 18.9644 73.9096 18.495C74.2083 18.0044 74.603 17.6097 75.0936 17.311C75.6056 17.0124 76.171 16.863 76.7896 16.863C77.387 16.863 77.931 17.0124 78.4216 17.311C78.9336 17.6097 79.339 18.0044 79.6376 18.495C79.9363 18.9644 80.0856 19.4977 80.0856 20.095C80.0856 20.6924 79.9363 21.2364 79.6376 21.727C79.339 22.2177 78.9336 22.6124 78.4216 22.911C77.931 23.2097 77.387 23.359 76.7896 23.359ZM74.1336 41.791C74.1336 39.0604 74.1336 36.3084 74.1336 33.535C74.1336 30.7404 74.1336 27.9777 74.1336 25.247C75.0083 25.247 75.8936 25.247 76.7896 25.247C77.6856 25.247 78.5603 25.247 79.4136 25.247C79.4136 27.9777 79.4136 30.7404 79.4136 33.535C79.4136 36.3084 79.4136 39.0604 79.4136 41.791C78.5603 41.791 77.6856 41.791 76.7896 41.791C75.8936 41.791 75.0083 41.791 74.1336 41.791ZM83.0986 41.791C83.0986 39.0604 83.0986 36.3084 83.0986 33.535C83.0986 30.7404 83.0986 27.9777 83.0986 25.247C83.9733 25.247 84.8586 25.247 85.7546 25.247C86.6506 25.247 87.5253 25.247 88.3786 25.247C88.3786 25.3964 88.3786 25.535 88.3786 25.663C88.3786 25.791 88.3786 25.9297 88.3786 26.079C88.9546 25.6737 89.5946 25.3644 90.2986 25.151C91.024 24.9164 91.8026 24.799 92.6346 24.799C93.8506 24.799 94.9173 25.0764 95.8346 25.631C96.7733 26.1857 97.4986 26.9857 98.0106 28.031C98.544 29.055 98.8106 30.2924 98.8106 31.743C98.8106 33.407 98.8106 35.0817 98.8106 36.767C98.8106 38.4524 98.8106 40.127 98.8106 41.791C97.9573 41.791 97.0826 41.791 96.1866 41.791C95.2906 41.791 94.4053 41.791 93.5306 41.791C93.5306 40.255 93.5306 38.6977 93.5306 37.119C93.5306 35.5404 93.5306 33.983 93.5306 32.447C93.5306 31.5937 93.328 30.911 92.9226 30.399C92.5386 29.8657 91.92 29.599 91.0666 29.599C90.2133 29.599 89.552 29.8444 89.0826 30.335C88.6133 30.8257 88.3786 31.5297 88.3786 32.447C88.3786 33.983 88.3786 35.5404 88.3786 37.119C88.3786 38.6977 88.3786 40.255 88.3786 41.791C87.5253 41.791 86.6506 41.791 85.7546 41.791C84.8586 41.791 83.9733 41.791 83.0986 41.791ZM112.722 20.031C113.511 22.463 114.29 24.9164 115.058 27.391C115.847 29.8657 116.637 32.319 117.426 34.751C118.215 32.319 119.005 29.8657 119.794 27.391C120.583 24.9164 121.373 22.463 122.162 20.031C123.079 20.031 124.007 20.031 124.946 20.031C125.885 20.031 126.813 20.031 127.73 20.031C126.578 23.615 125.405 27.2417 124.21 30.911C123.037 34.5804 121.874 38.207 120.722 41.791C119.613 41.791 118.493 41.791 117.362 41.791C116.253 41.791 115.143 41.791 114.034 41.791C112.882 38.207 111.709 34.5804 110.514 30.911C109.341 27.2417 108.178 23.615 107.026 20.031C107.965 20.031 108.914 20.031 109.874 20.031C110.834 20.031 111.783 20.031 112.722 20.031ZM132.321 23.359C131.702 23.359 131.137 23.2097 130.625 22.911C130.134 22.6124 129.74 22.2177 129.441 21.727C129.142 21.2364 128.993 20.6924 128.993 20.095C128.993 19.4977 129.142 18.9644 129.441 18.495C129.74 18.0044 130.134 17.6097 130.625 17.311C131.137 17.0124 131.702 16.863 132.321 16.863C132.918 16.863 133.462 17.0124 133.953 17.311C134.465 17.6097 134.87 18.0044 135.169 18.495C135.468 18.9644 135.617 19.4977 135.617 20.095C135.617 20.6924 135.468 21.2364 135.169 21.727C134.87 22.2177 134.465 22.6124 133.953 22.911C133.462 23.2097 132.918 23.359 132.321 23.359ZM129.665 41.791C129.665 39.0604 129.665 36.3084 129.665 33.535C129.665 30.7404 129.665 27.9777 129.665 25.247C130.54 25.247 131.425 25.247 132.321 25.247C133.217 25.247 134.092 25.247 134.945 25.247C134.945 27.9777 134.945 30.7404 134.945 33.535C134.945 36.3084 134.945 39.0604 134.945 41.791C134.092 41.791 133.217 41.791 132.321 41.791C131.425 41.791 130.54 41.791 129.665 41.791ZM151.27 36.671C151.27 37.9937 150.897 39.0817 150.15 39.935C149.425 40.767 148.443 41.375 147.206 41.759C145.969 42.143 144.582 42.303 143.046 42.239C141.531 42.1964 139.985 41.951 138.406 41.503C138.406 40.6924 138.406 39.8604 138.406 39.007C138.406 38.1537 138.406 37.3217 138.406 36.511C139.302 36.9164 140.198 37.2364 141.094 37.471C141.99 37.6844 142.801 37.8124 143.526 37.855C144.251 37.8977 144.838 37.8444 145.286 37.695C145.734 37.5244 145.958 37.247 145.958 36.863C145.958 36.5644 145.766 36.3297 145.382 36.159C145.019 35.9884 144.539 35.839 143.942 35.711C143.345 35.5617 142.705 35.391 142.022 35.199C141.361 34.9857 140.731 34.6977 140.134 34.335C139.537 33.951 139.046 33.4497 138.662 32.831C138.299 32.191 138.118 31.3697 138.118 30.367C138.118 29.1724 138.459 28.159 139.142 27.327C139.846 26.4737 140.785 25.8337 141.958 25.407C143.131 24.959 144.443 24.735 145.894 24.735C147.345 24.735 148.827 24.9804 150.342 25.471C150.342 26.2817 150.342 27.1137 150.342 27.967C150.342 28.8204 150.342 29.6524 150.342 30.463C149.147 29.887 148.027 29.503 146.982 29.311C145.937 29.119 145.094 29.0977 144.454 29.247C143.814 29.375 143.494 29.663 143.494 30.111C143.494 30.4097 143.675 30.6444 144.038 30.815C144.422 30.9644 144.902 31.103 145.478 31.231C146.075 31.359 146.705 31.5297 147.366 31.743C148.049 31.9564 148.678 32.255 149.254 32.639C149.851 33.0017 150.331 33.5137 150.694 34.175C151.078 34.815 151.27 35.647 151.27 36.671ZM169.273 25.247C169.273 27.9777 169.273 30.7404 169.273 33.535C169.273 36.3084 169.273 39.0604 169.273 41.791C168.42 41.791 167.545 41.791 166.649 41.791C165.753 41.791 164.868 41.791 163.993 41.791C163.993 41.6417 163.993 41.503 163.993 41.375C163.993 41.247 163.993 41.1084 163.993 40.959C163.417 41.3644 162.767 41.6737 162.041 41.887C161.337 42.1217 160.569 42.239 159.737 42.239C158.521 42.239 157.444 41.9617 156.505 41.407C155.588 40.8524 154.863 40.0524 154.329 39.007C153.817 37.9617 153.561 36.7244 153.561 35.295C153.561 33.631 153.561 31.9564 153.561 30.271C153.561 28.5857 153.561 26.911 153.561 25.247C154.436 25.247 155.321 25.247 156.217 25.247C157.113 25.247 157.988 25.247 158.841 25.247C158.841 26.783 158.841 28.3404 158.841 29.919C158.841 31.4977 158.841 33.055 158.841 34.591C158.841 35.4444 159.033 36.1377 159.417 36.671C159.823 37.183 160.452 37.439 161.305 37.439C162.159 37.439 162.82 37.1937 163.289 36.703C163.759 36.2124 163.993 35.5084 163.993 34.591C163.993 33.055 163.993 31.4977 163.993 29.919C163.993 28.3404 163.993 26.783 163.993 25.247C164.868 25.247 165.753 25.247 166.649 25.247C167.545 25.247 168.42 25.247 169.273 25.247ZM183.826 41.791C183.826 41.6204 183.826 41.4604 183.826 41.311C183.826 41.1404 183.826 40.9804 183.826 40.831C183.293 41.279 182.685 41.6204 182.002 41.855C181.341 42.111 180.626 42.239 179.858 42.239C178.77 42.239 177.746 42.0364 176.786 41.631C175.826 41.2044 174.973 40.607 174.226 39.839C173.501 39.0497 172.925 38.1217 172.498 37.055C172.093 35.9884 171.89 34.8044 171.89 33.503C171.89 32.1804 172.093 30.9857 172.498 29.919C172.925 28.8524 173.501 27.9457 174.226 27.199C174.973 26.431 175.826 25.8444 176.786 25.439C177.746 25.0124 178.759 24.799 179.826 24.799C180.594 24.799 181.319 24.927 182.002 25.183C182.685 25.4177 183.293 25.7484 183.826 26.175C183.826 26.0044 183.826 25.8444 183.826 25.695C183.826 25.5457 183.826 25.3964 183.826 25.247C184.701 25.247 185.586 25.247 186.482 25.247C187.378 25.247 188.253 25.247 189.106 25.247C189.106 27.9777 189.106 30.7404 189.106 33.535C189.106 36.3084 189.106 39.0604 189.106 41.791C188.253 41.791 187.378 41.791 186.482 41.791C185.586 41.791 184.701 41.791 183.826 41.791ZM180.562 37.567C181.586 37.567 182.407 37.1937 183.026 36.447C183.645 35.7004 183.954 34.719 183.954 33.503C183.954 32.287 183.645 31.3164 183.026 30.591C182.407 29.8444 181.586 29.471 180.562 29.471C179.517 29.471 178.685 29.8337 178.066 30.559C177.469 31.2844 177.17 32.2657 177.17 33.503C177.17 34.7404 177.469 35.7324 178.066 36.479C178.685 37.2044 179.517 37.567 180.562 37.567ZM192.79 41.791C192.79 37.9297 192.79 34.0364 192.79 30.111C192.79 26.1857 192.79 22.2924 192.79 18.431C193.665 18.431 194.55 18.431 195.446 18.431C196.342 18.431 197.217 18.431 198.07 18.431C198.07 22.2924 198.07 26.1857 198.07 30.111C198.07 34.0364 198.07 37.9297 198.07 41.791C197.217 41.791 196.342 41.791 195.446 41.791C194.55 41.791 193.665 41.791 192.79 41.791Z" fill="#FBF6F2"/>
</svg>
