<svg width="490" height="218" viewBox="0 0 490 218" fill="none" xmlns="http://www.w3.org/2000/svg">
<rect y="0.607422" width="490" height="217.107" rx="44" fill="white"/>
<rect y="108.433" width="76" height="109.282" fill="white"/>
<rect x="414" y="0.607422" width="76" height="109.282" fill="white"/>
<path d="M490 101.079H0V41.9999C0 18.804 18.804 -0.000106812 42 -0.000106812H490V101.079Z" fill="#6697DC"/>
<path opacity="0.8" d="M39.488 38.9285C39.488 36.4645 39.872 34.2245 40.64 32.2085C41.44 30.1605 42.56 28.3845 44 26.8805C45.44 25.3765 47.168 24.2085 49.184 23.3765C51.2 22.5445 53.424 22.0965 55.856 22.0325C58.32 21.9685 60.944 22.3525 63.728 23.1845C63.728 24.5285 63.728 25.8885 63.728 27.2645C63.728 28.6085 63.728 29.9525 63.728 31.2965C61.84 30.4005 59.968 29.8885 58.112 29.7605C56.256 29.6325 54.576 29.8885 53.072 30.5285C51.568 31.1685 50.368 32.1925 49.472 33.6005C48.576 34.9765 48.128 36.7525 48.128 38.9285C48.128 41.1045 48.576 42.8965 49.472 44.3045C50.368 45.6805 51.568 46.6885 53.072 47.3285C54.576 47.9685 56.256 48.2245 58.112 48.0965C59.968 47.9685 61.84 47.4565 63.728 46.5605C63.728 47.9045 63.728 49.2645 63.728 50.6405C63.728 51.9845 63.728 53.3285 63.728 54.6725C60.944 55.5045 58.32 55.8885 55.856 55.8245C53.424 55.7605 51.2 55.3125 49.184 54.4805C47.168 53.6485 45.44 52.4805 44 50.9765C42.56 49.4725 41.44 47.7125 40.64 45.6965C39.872 43.6485 39.488 41.3925 39.488 38.9285ZM68.765 55.2485C68.765 51.1525 68.765 47.0245 68.765 42.8645C68.765 38.6725 68.765 34.5285 68.765 30.4325C70.077 30.4325 71.405 30.4325 72.749 30.4325C74.093 30.4325 75.405 30.4325 76.685 30.4325C76.685 30.6565 76.685 30.8805 76.685 31.1045C76.685 31.3285 76.685 31.5525 76.685 31.7765C77.677 31.0725 78.797 30.5445 80.045 30.1925C81.293 29.8405 82.653 29.7445 84.125 29.9045C84.125 31.1845 84.125 32.4805 84.125 33.7925C84.125 35.1045 84.125 36.4005 84.125 37.6805C81.597 37.3285 79.725 37.5525 78.509 38.3525C77.293 39.1205 76.685 40.3845 76.685 42.1445C76.685 44.2885 76.685 46.4645 76.685 48.6725C76.685 50.8805 76.685 53.0725 76.685 55.2485C75.405 55.2485 74.093 55.2485 72.749 55.2485C71.405 55.2485 70.077 55.2485 68.765 55.2485ZM108.828 54.0965C106.62 55.0245 104.428 55.6005 102.252 55.8245C100.076 56.0485 98.0121 55.9205 96.0601 55.4405C94.1401 54.9925 92.4281 54.2085 90.9241 53.0885C89.4201 51.9685 88.2361 50.5445 87.3721 48.8165C86.5401 47.0885 86.1241 45.0885 86.1241 42.8165C86.1241 40.9285 86.4281 39.2005 87.0361 37.6325C87.6761 36.0325 88.5721 34.6405 89.7241 33.4565C90.8761 32.2405 92.2361 31.3125 93.8041 30.6725C95.3721 30.0005 97.0841 29.6645 98.9401 29.6645C100.604 29.6645 102.108 29.9365 103.452 30.4805C104.796 31.0245 105.964 31.7925 106.956 32.7845C107.948 33.7445 108.748 34.8965 109.356 36.2405C109.964 37.5845 110.348 39.0565 110.508 40.6565C110.668 42.2565 110.572 43.9525 110.22 45.7445C107.596 45.7445 104.956 45.7445 102.3 45.7445C99.6441 45.7445 97.0041 45.7445 94.3801 45.7445C94.9881 46.9605 95.9961 47.8245 97.4041 48.3365C98.8441 48.8485 100.54 49.0085 102.492 48.8165C104.476 48.6245 106.588 48.1125 108.828 47.2805C108.828 48.4005 108.828 49.5365 108.828 50.6885C108.828 51.8405 108.828 52.9765 108.828 54.0965ZM98.7481 36.7685C97.8201 36.7685 96.9561 37.0245 96.1561 37.5365C95.3881 38.0485 94.7961 38.8325 94.3801 39.8885C95.8201 39.8885 97.2601 39.8885 98.7001 39.8885C100.172 39.8885 101.628 39.8885 103.068 39.8885C102.684 38.8005 102.108 38.0165 101.34 37.5365C100.604 37.0245 99.7401 36.7685 98.7481 36.7685ZM131.263 55.2485C131.263 54.9925 131.263 54.7525 131.263 54.5285C131.263 54.2725 131.263 54.0325 131.263 53.8085C130.463 54.4805 129.551 54.9925 128.527 55.3445C127.535 55.7285 126.463 55.9205 125.311 55.9205C123.679 55.9205 122.143 55.6165 120.703 55.0085C119.263 54.3685 117.983 53.4725 116.863 52.3205C115.775 51.1365 114.911 49.7445 114.271 48.1445C113.663 46.5445 113.359 44.7685 113.359 42.8165C113.359 40.8325 113.663 39.0405 114.271 37.4405C114.911 35.8405 115.775 34.4805 116.863 33.3605C117.983 32.2085 119.263 31.3285 120.703 30.7205C122.143 30.0805 123.663 29.7605 125.263 29.7605C126.415 29.7605 127.503 29.9525 128.527 30.3365C129.551 30.6885 130.463 31.1845 131.263 31.8245C131.263 31.5685 131.263 31.3285 131.263 31.1045C131.263 30.8805 131.263 30.6565 131.263 30.4325C132.575 30.4325 133.903 30.4325 135.247 30.4325C136.591 30.4325 137.903 30.4325 139.182 30.4325C139.182 34.5285 139.182 38.6725 139.182 42.8645C139.182 47.0245 139.182 51.1525 139.182 55.2485C137.903 55.2485 136.591 55.2485 135.247 55.2485C133.903 55.2485 132.575 55.2485 131.263 55.2485ZM126.367 48.9125C127.903 48.9125 129.135 48.3525 130.063 47.2325C130.991 46.1125 131.455 44.6405 131.455 42.8165C131.455 40.9925 130.991 39.5365 130.063 38.4485C129.135 37.3285 127.903 36.7685 126.367 36.7685C124.799 36.7685 123.551 37.3125 122.623 38.4005C121.727 39.4885 121.279 40.9605 121.279 42.8165C121.279 44.6725 121.727 46.1605 122.623 47.2805C123.551 48.3685 124.799 48.9125 126.367 48.9125ZM147.06 55.2485C147.06 52.3045 147.06 49.3445 147.06 46.3685C147.06 43.3925 147.06 40.4485 147.06 37.5365C146.42 37.5365 145.764 37.5365 145.092 37.5365C144.452 37.5365 143.812 37.5365 143.172 37.5365C143.172 36.3525 143.172 35.1685 143.172 33.9845C143.172 32.8005 143.172 31.6165 143.172 30.4325C143.812 30.4325 144.452 30.4325 145.092 30.4325C145.764 30.4325 146.42 30.4325 147.06 30.4325C147.06 29.3125 147.06 28.2085 147.06 27.1205C147.06 26.0005 147.06 24.8965 147.06 23.8085C148.372 23.8085 149.7 23.8085 151.044 23.8085C152.388 23.8085 153.7 23.8085 154.98 23.8085C154.98 24.8965 154.98 26.0005 154.98 27.1205C154.98 28.2085 154.98 29.3125 154.98 30.4325C155.716 30.4325 156.468 30.4325 157.236 30.4325C158.004 30.4325 158.756 30.4325 159.492 30.4325C159.492 31.6165 159.492 32.8005 159.492 33.9845C159.492 35.1685 159.492 36.3525 159.492 37.5365C158.756 37.5365 158.004 37.5365 157.236 37.5365C156.468 37.5365 155.716 37.5365 154.98 37.5365C154.98 40.4485 154.98 43.3925 154.98 46.3685C154.98 49.3445 154.98 52.3045 154.98 55.2485C153.7 55.2485 152.388 55.2485 151.044 55.2485C149.7 55.2485 148.372 55.2485 147.06 55.2485ZM167.536 27.6005C166.608 27.6005 165.76 27.3765 164.992 26.9285C164.256 26.4805 163.664 25.8885 163.216 25.1525C162.768 24.4165 162.544 23.6005 162.544 22.7045C162.544 21.8085 162.768 21.0085 163.216 20.3045C163.664 19.5685 164.256 18.9765 164.992 18.5285C165.76 18.0805 166.608 17.8565 167.536 17.8565C168.432 17.8565 169.248 18.0805 169.984 18.5285C170.752 18.9765 171.36 19.5685 171.808 20.3045C172.256 21.0085 172.48 21.8085 172.48 22.7045C172.48 23.6005 172.256 24.4165 171.808 25.1525C171.36 25.8885 170.752 26.4805 169.984 26.9285C169.248 27.3765 168.432 27.6005 167.536 27.6005ZM163.552 55.2485C163.552 51.1525 163.552 47.0245 163.552 42.8645C163.552 38.6725 163.552 34.5285 163.552 30.4325C164.864 30.4325 166.192 30.4325 167.536 30.4325C168.88 30.4325 170.192 30.4325 171.472 30.4325C171.472 34.5285 171.472 38.6725 171.472 42.8645C171.472 47.0245 171.472 51.1525 171.472 55.2485C170.192 55.2485 168.88 55.2485 167.536 55.2485C166.192 55.2485 164.864 55.2485 163.552 55.2485ZM182.711 55.2485C181.303 51.1525 179.863 47.0245 178.391 42.8645C176.951 38.6725 175.527 34.5285 174.119 30.4325C175.495 30.4325 176.871 30.4325 178.247 30.4325C179.655 30.4325 181.047 30.4325 182.423 30.4325C183.255 32.9605 184.087 35.5045 184.919 38.0645C185.783 40.5925 186.615 43.1205 187.415 45.6485C188.247 43.1205 189.079 40.5925 189.911 38.0645C190.743 35.5045 191.559 32.9605 192.359 30.4325C193.703 30.4325 195.063 30.4325 196.439 30.4325C197.815 30.4325 199.175 30.4325 200.519 30.4325C199.111 34.5285 197.671 38.6725 196.199 42.8645C194.759 47.0245 193.335 51.1525 191.927 55.2485C190.423 55.2485 188.887 55.2485 187.319 55.2485C185.751 55.2485 184.215 55.2485 182.711 55.2485ZM223.812 54.0965C221.605 55.0245 219.413 55.6005 217.237 55.8245C215.061 56.0485 212.997 55.9205 211.045 55.4405C209.125 54.9925 207.413 54.2085 205.909 53.0885C204.405 51.9685 203.221 50.5445 202.357 48.8165C201.525 47.0885 201.109 45.0885 201.109 42.8165C201.109 40.9285 201.413 39.2005 202.021 37.6325C202.661 36.0325 203.557 34.6405 204.709 33.4565C205.861 32.2405 207.221 31.3125 208.789 30.6725C210.357 30.0005 212.069 29.6645 213.924 29.6645C215.589 29.6645 217.093 29.9365 218.437 30.4805C219.781 31.0245 220.949 31.7925 221.941 32.7845C222.933 33.7445 223.733 34.8965 224.341 36.2405C224.949 37.5845 225.333 39.0565 225.493 40.6565C225.653 42.2565 225.557 43.9525 225.205 45.7445C222.581 45.7445 219.941 45.7445 217.285 45.7445C214.629 45.7445 211.989 45.7445 209.365 45.7445C209.973 46.9605 210.981 47.8245 212.389 48.3365C213.829 48.8485 215.525 49.0085 217.477 48.8165C219.461 48.6245 221.573 48.1125 223.812 47.2805C223.812 48.4005 223.812 49.5365 223.812 50.6885C223.812 51.8405 223.812 52.9765 223.812 54.0965ZM213.733 36.7685C212.805 36.7685 211.941 37.0245 211.141 37.5365C210.373 38.0485 209.781 38.8325 209.365 39.8885C210.805 39.8885 212.245 39.8885 213.685 39.8885C215.157 39.8885 216.613 39.8885 218.053 39.8885C217.669 38.8005 217.093 38.0165 216.325 37.5365C215.589 37.0245 214.725 36.7685 213.733 36.7685ZM240.485 55.2485C240.485 49.8725 240.485 44.4325 240.485 38.9285C240.485 33.4245 240.485 27.9845 240.485 22.6085C241.893 22.6085 243.301 22.6085 244.709 22.6085C246.117 22.6085 247.509 22.6085 248.885 22.6085C248.885 27.9845 248.885 33.4245 248.885 38.9285C248.885 44.4325 248.885 49.8725 248.885 55.2485C247.509 55.2485 246.117 55.2485 244.709 55.2485C243.301 55.2485 241.893 55.2485 240.485 55.2485ZM254.906 55.2485C254.906 51.1525 254.906 47.0245 254.906 42.8645C254.906 38.6725 254.906 34.5285 254.906 30.4325C256.218 30.4325 257.546 30.4325 258.89 30.4325C260.234 30.4325 261.546 30.4325 262.826 30.4325C262.826 30.6565 262.826 30.8645 262.826 31.0565C262.826 31.2485 262.826 31.4565 262.826 31.6805C263.69 31.0725 264.65 30.6085 265.706 30.2885C266.794 29.9365 267.962 29.7605 269.21 29.7605C271.034 29.7605 272.634 30.1765 274.01 31.0085C275.418 31.8405 276.506 33.0405 277.274 34.6085C278.074 36.1445 278.474 38.0005 278.474 40.1765C278.474 42.6725 278.474 45.1845 278.474 47.7125C278.474 50.2405 278.474 52.7525 278.474 55.2485C277.194 55.2485 275.882 55.2485 274.538 55.2485C273.194 55.2485 271.866 55.2485 270.554 55.2485C270.554 52.9445 270.554 50.6085 270.554 48.2405C270.554 45.8725 270.554 43.5365 270.554 41.2325C270.554 39.9525 270.25 38.9285 269.642 38.1605C269.066 37.3605 268.138 36.9605 266.858 36.9605C265.578 36.9605 264.586 37.3285 263.882 38.0645C263.178 38.8005 262.826 39.8565 262.826 41.2325C262.826 43.5365 262.826 45.8725 262.826 48.2405C262.826 50.6085 262.826 52.9445 262.826 55.2485C261.546 55.2485 260.234 55.2485 258.89 55.2485C257.546 55.2485 256.218 55.2485 254.906 55.2485ZM291.279 62.9285C289.999 62.9285 288.687 62.9285 287.343 62.9285C285.999 62.9285 284.671 62.9285 283.359 62.9285C283.359 57.5845 283.359 52.1765 283.359 46.7045C283.359 41.2005 283.359 35.7765 283.359 30.4325C284.671 30.4325 285.999 30.4325 287.343 30.4325C288.687 30.4325 289.999 30.4325 291.279 30.4325C291.279 30.6565 291.279 30.8805 291.279 31.1045C291.279 31.3285 291.279 31.5685 291.279 31.8245C292.079 31.1845 292.991 30.6885 294.015 30.3365C295.039 29.9525 296.127 29.7605 297.279 29.7605C298.879 29.7605 300.399 30.0805 301.839 30.7205C303.279 31.3285 304.543 32.2085 305.631 33.3605C306.751 34.5125 307.615 35.8885 308.223 37.4885C308.863 39.0885 309.183 40.8645 309.183 42.8165C309.183 44.7365 308.863 46.4965 308.223 48.0965C307.615 49.6965 306.751 51.0885 305.631 52.2725C304.543 53.4245 303.279 54.3205 301.839 54.9605C300.399 55.6005 298.863 55.9205 297.231 55.9205C296.079 55.9205 294.991 55.7285 293.967 55.3445C292.975 54.9925 292.079 54.4805 291.279 53.8085C291.279 55.3125 291.279 56.8325 291.279 58.3685C291.279 59.9045 291.279 61.4245 291.279 62.9285ZM296.175 48.9125C297.743 48.9125 298.975 48.3685 299.871 47.2805C300.799 46.1605 301.263 44.6725 301.263 42.8165C301.263 40.9605 300.799 39.4885 299.871 38.4005C298.975 37.3125 297.743 36.7685 296.175 36.7685C294.639 36.7685 293.407 37.3285 292.479 38.4485C291.551 39.5365 291.087 40.9925 291.087 42.8165C291.087 44.6405 291.551 46.1125 292.479 47.2325C293.407 48.3525 294.639 48.9125 296.175 48.9125ZM336.308 30.4325C336.308 34.5285 336.308 38.6725 336.308 42.8645C336.308 47.0245 336.308 51.1525 336.308 55.2485C335.028 55.2485 333.716 55.2485 332.372 55.2485C331.028 55.2485 329.7 55.2485 328.388 55.2485C328.388 55.0245 328.388 54.8165 328.388 54.6245C328.388 54.4325 328.388 54.2245 328.388 54.0005C327.524 54.6085 326.548 55.0725 325.46 55.3925C324.404 55.7445 323.252 55.9205 322.004 55.9205C320.18 55.9205 318.564 55.5045 317.156 54.6725C315.78 53.8405 314.692 52.6405 313.892 51.0725C313.124 49.5045 312.74 47.6485 312.74 45.5045C312.74 43.0085 312.74 40.4965 312.74 37.9685C312.74 35.4405 312.74 32.9285 312.74 30.4325C314.052 30.4325 315.38 30.4325 316.724 30.4325C318.068 30.4325 319.38 30.4325 320.66 30.4325C320.66 32.7365 320.66 35.0725 320.66 37.4405C320.66 39.8085 320.66 42.1445 320.66 44.4485C320.66 45.7285 320.948 46.7685 321.524 47.5685C322.132 48.3365 323.076 48.7205 324.356 48.7205C325.636 48.7205 326.628 48.3525 327.332 47.6165C328.036 46.8805 328.388 45.8245 328.388 44.4485C328.388 42.1445 328.388 39.8085 328.388 37.4405C328.388 35.0725 328.388 32.7365 328.388 30.4325C329.7 30.4325 331.028 30.4325 332.372 30.4325C333.716 30.4325 335.028 30.4325 336.308 30.4325ZM344.17 55.2485C344.17 52.3045 344.17 49.3445 344.17 46.3685C344.17 43.3925 344.17 40.4485 344.17 37.5365C343.53 37.5365 342.874 37.5365 342.202 37.5365C341.562 37.5365 340.922 37.5365 340.282 37.5365C340.282 36.3525 340.282 35.1685 340.282 33.9845C340.282 32.8005 340.282 31.6165 340.282 30.4325C340.922 30.4325 341.562 30.4325 342.202 30.4325C342.874 30.4325 343.53 30.4325 344.17 30.4325C344.17 29.3125 344.17 28.2085 344.17 27.1205C344.17 26.0005 344.17 24.8965 344.17 23.8085C345.482 23.8085 346.81 23.8085 348.154 23.8085C349.498 23.8085 350.81 23.8085 352.09 23.8085C352.09 24.8965 352.09 26.0005 352.09 27.1205C352.09 28.2085 352.09 29.3125 352.09 30.4325C352.826 30.4325 353.578 30.4325 354.346 30.4325C355.114 30.4325 355.866 30.4325 356.602 30.4325C356.602 31.6165 356.602 32.8005 356.602 33.9845C356.602 35.1685 356.602 36.3525 356.602 37.5365C355.866 37.5365 355.114 37.5365 354.346 37.5365C353.578 37.5365 352.826 37.5365 352.09 37.5365C352.09 40.4485 352.09 43.3925 352.09 46.3685C352.09 49.3445 352.09 52.3045 352.09 55.2485C350.81 55.2485 349.498 55.2485 348.154 55.2485C346.81 55.2485 345.482 55.2485 344.17 55.2485Z" fill="white"/>
<path d="M40.4116 83.9517C40.4116 81.2637 40.4116 78.5437 40.4116 75.7917C40.4116 73.0397 40.4116 70.3197 40.4116 67.6317C42.0276 67.6317 43.6596 67.6317 45.3076 67.6317C46.9556 67.6317 48.5876 67.6317 50.2036 67.6317C50.2036 68.2557 50.2036 68.8877 50.2036 69.5277C50.2036 70.1677 50.2036 70.7997 50.2036 71.4237C49.2756 71.4237 48.3396 71.4237 47.3956 71.4237C46.4676 71.4237 45.5396 71.4237 44.6116 71.4237C44.6116 71.8877 44.6116 72.3677 44.6116 72.8637C44.6116 73.3437 44.6116 73.8157 44.6116 74.2797C45.4596 74.2797 46.3156 74.2797 47.1796 74.2797C48.0436 74.2797 48.8916 74.2797 49.7236 74.2797C49.7236 74.8717 49.7236 75.4717 49.7236 76.0797C49.7236 76.6877 49.7236 77.2957 49.7236 77.9037C48.8916 77.9037 48.0436 77.9037 47.1796 77.9037C46.3156 77.9037 45.4596 77.9037 44.6116 77.9037C44.6116 78.8957 44.6116 79.9037 44.6116 80.9277C44.6116 81.9517 44.6116 82.9597 44.6116 83.9517C43.9236 83.9517 43.2276 83.9517 42.5236 83.9517C41.8196 83.9517 41.1156 83.9517 40.4116 83.9517ZM52.7134 83.9517C52.7134 81.0557 52.7134 78.1357 52.7134 75.1917C52.7134 72.2477 52.7134 69.3277 52.7134 66.4317C53.3694 66.4317 54.0334 66.4317 54.7054 66.4317C55.3774 66.4317 56.0334 66.4317 56.6734 66.4317C56.6734 69.3277 56.6734 72.2477 56.6734 75.1917C56.6734 78.1357 56.6734 81.0557 56.6734 83.9517C56.0334 83.9517 55.3774 83.9517 54.7054 83.9517C54.0334 83.9517 53.3694 83.9517 52.7134 83.9517ZM65.3172 84.3357C64.3892 84.3357 63.5252 84.1757 62.7252 83.8557C61.9252 83.5197 61.2292 83.0557 60.6372 82.4637C60.0452 81.8557 59.5812 81.1517 59.2452 80.3517C58.9252 79.5517 58.7652 78.6797 58.7652 77.7357C58.7652 76.7917 58.9252 75.9197 59.2452 75.1197C59.5812 74.3197 60.0452 73.6237 60.6372 73.0317C61.2292 72.4397 61.9252 71.9837 62.7252 71.6637C63.5252 71.3277 64.3892 71.1597 65.3172 71.1597C66.2612 71.1597 67.1252 71.3277 67.9092 71.6637C68.7092 71.9837 69.4052 72.4397 69.9972 73.0317C70.5892 73.6237 71.0452 74.3197 71.3652 75.1197C71.7012 75.9197 71.8692 76.7917 71.8692 77.7357C71.8692 78.6797 71.7012 79.5517 71.3652 80.3517C71.0452 81.1517 70.5892 81.8557 69.9972 82.4637C69.4052 83.0557 68.7092 83.5197 67.9092 83.8557C67.1252 84.1757 66.2612 84.3357 65.3172 84.3357ZM65.3172 80.7597C66.1012 80.7597 66.7252 80.4797 67.1892 79.9197C67.6692 79.3437 67.9092 78.6157 67.9092 77.7357C67.9092 76.8397 67.6692 76.1197 67.1892 75.5757C66.7252 75.0157 66.1012 74.7357 65.3172 74.7357C64.5332 74.7357 63.9012 75.0157 63.4212 75.5757C62.9572 76.1197 62.7252 76.8397 62.7252 77.7357C62.7252 78.6157 62.9572 79.3437 63.4212 79.9197C63.9012 80.4797 64.5332 80.7597 65.3172 80.7597ZM76.1134 83.9517C75.4894 81.9037 74.8574 79.8397 74.2174 77.7597C73.5934 75.6637 72.9694 73.5917 72.3454 71.5437C73.0014 71.5437 73.6654 71.5437 74.3374 71.5437C75.0254 71.5437 75.6974 71.5437 76.3534 71.5437C76.6734 72.6637 76.9934 73.7997 77.3134 74.9517C77.6494 76.0877 77.9694 77.2157 78.2734 78.3357C78.5454 77.2157 78.8174 76.0877 79.0894 74.9517C79.3774 73.7997 79.6494 72.6637 79.9054 71.5437C80.4654 71.5437 81.0254 71.5437 81.5854 71.5437C82.1614 71.5437 82.7294 71.5437 83.2894 71.5437C83.5614 72.6637 83.8334 73.8077 84.1054 74.9757C84.3934 76.1277 84.6654 77.2717 84.9214 78.4077C85.2414 77.2717 85.5614 76.1277 85.8814 74.9757C86.2174 73.8077 86.5374 72.6637 86.8414 71.5437C87.4974 71.5437 88.1534 71.5437 88.8094 71.5437C89.4814 71.5437 90.1374 71.5437 90.7774 71.5437C90.1534 73.5917 89.5214 75.6637 88.8814 77.7597C88.2574 79.8397 87.6334 81.9037 87.0094 83.9517C86.3694 83.9517 85.7214 83.9517 85.0654 83.9517C84.4094 83.9517 83.7614 83.9517 83.1214 83.9517C82.8654 82.9597 82.6014 81.9597 82.3294 80.9517C82.0734 79.9437 81.8174 78.9517 81.5614 77.9757C81.3054 78.9517 81.0414 79.9437 80.7694 80.9517C80.5134 81.9597 80.2574 82.9597 80.0014 83.9517C79.3614 83.9517 78.7134 83.9517 78.0574 83.9517C77.4014 83.9517 76.7534 83.9517 76.1134 83.9517ZM102.625 83.3757C101.521 83.8397 100.425 84.1277 99.337 84.2397C98.249 84.3517 97.217 84.2877 96.241 84.0477C95.281 83.8237 94.425 83.4317 93.673 82.8717C92.921 82.3117 92.329 81.5997 91.897 80.7357C91.481 79.8717 91.273 78.8717 91.273 77.7357C91.273 76.7917 91.425 75.9277 91.729 75.1437C92.049 74.3437 92.497 73.6477 93.073 73.0557C93.649 72.4477 94.329 71.9837 95.113 71.6637C95.897 71.3277 96.753 71.1597 97.681 71.1597C98.513 71.1597 99.265 71.2957 99.937 71.5677C100.609 71.8397 101.193 72.2237 101.689 72.7197C102.185 73.1997 102.585 73.7757 102.889 74.4477C103.193 75.1197 103.385 75.8557 103.465 76.6557C103.545 77.4557 103.497 78.3037 103.321 79.1997C102.009 79.1997 100.689 79.1997 99.361 79.1997C98.033 79.1997 96.713 79.1997 95.401 79.1997C95.705 79.8077 96.209 80.2397 96.913 80.4957C97.633 80.7517 98.481 80.8317 99.457 80.7357C100.449 80.6397 101.505 80.3837 102.625 79.9677C102.625 80.5277 102.625 81.0957 102.625 81.6717C102.625 82.2477 102.625 82.8157 102.625 83.3757ZM97.585 74.7117C97.121 74.7117 96.689 74.8397 96.289 75.0957C95.905 75.3517 95.609 75.7437 95.401 76.2717C96.121 76.2717 96.841 76.2717 97.561 76.2717C98.297 76.2717 99.025 76.2717 99.745 76.2717C99.553 75.7277 99.265 75.3357 98.881 75.0957C98.513 74.8397 98.081 74.7117 97.585 74.7117ZM105.562 83.9517C105.562 81.9037 105.562 79.8397 105.562 77.7597C105.562 75.6637 105.562 73.5917 105.562 71.5437C106.218 71.5437 106.882 71.5437 107.554 71.5437C108.226 71.5437 108.882 71.5437 109.522 71.5437C109.522 71.6557 109.522 71.7677 109.522 71.8797C109.522 71.9917 109.522 72.1037 109.522 72.2157C110.018 71.8637 110.578 71.5997 111.202 71.4237C111.826 71.2477 112.506 71.1997 113.242 71.2797C113.242 71.9197 113.242 72.5677 113.242 73.2237C113.242 73.8797 113.242 74.5277 113.242 75.1677C111.978 74.9917 111.042 75.1037 110.434 75.5037C109.826 75.8877 109.522 76.5197 109.522 77.3997C109.522 78.4717 109.522 79.5597 109.522 80.6637C109.522 81.7677 109.522 82.8637 109.522 83.9517C108.882 83.9517 108.226 83.9517 107.554 83.9517C106.882 83.9517 106.218 83.9517 105.562 83.9517ZM133.486 83.0877C131.822 83.7597 130.27 84.1437 128.83 84.2397C127.406 84.3517 126.118 84.2237 124.966 83.8557C123.814 83.4717 122.83 82.8957 122.014 82.1277C121.198 81.3597 120.574 80.4477 120.142 79.3917C119.71 78.3357 119.494 77.1837 119.494 75.9357C119.494 74.7037 119.694 73.5677 120.094 72.5277C120.494 71.4717 121.078 70.5597 121.846 69.7917C122.63 69.0237 123.574 68.4237 124.678 67.9917C125.782 67.5597 127.038 67.3517 128.446 67.3677C129.854 67.3677 131.398 67.6237 133.078 68.1357C133.078 68.8077 133.078 69.4877 133.078 70.1757C133.078 70.8477 133.078 71.5197 133.078 72.1917C131.75 71.6637 130.518 71.3597 129.382 71.2797C128.262 71.1997 127.278 71.3197 126.43 71.6397C125.598 71.9597 124.942 72.4717 124.462 73.1757C123.998 73.8637 123.766 74.7277 123.766 75.7677C123.766 76.6797 123.934 77.4877 124.27 78.1917C124.622 78.8957 125.11 79.4477 125.734 79.8477C126.358 80.2477 127.07 80.4477 127.87 80.4477C128.142 80.4477 128.414 80.4397 128.686 80.4237C128.958 80.3917 129.222 80.3437 129.478 80.2797C129.478 79.8637 129.478 79.4397 129.478 79.0077C129.478 78.5757 129.478 78.1517 129.478 77.7357C129.03 77.7357 128.582 77.7357 128.134 77.7357C127.686 77.7357 127.238 77.7357 126.79 77.7357C126.79 77.1437 126.79 76.5517 126.79 75.9597C126.79 75.3517 126.79 74.7517 126.79 74.1597C127.894 74.1597 129.006 74.1597 130.126 74.1597C131.262 74.1597 132.382 74.1597 133.486 74.1597C133.486 75.6317 133.486 77.1197 133.486 78.6237C133.486 80.1277 133.486 81.6157 133.486 83.0877ZM136.289 83.9517C136.289 81.9037 136.289 79.8397 136.289 77.7597C136.289 75.6637 136.289 73.5917 136.289 71.5437C136.945 71.5437 137.609 71.5437 138.281 71.5437C138.953 71.5437 139.609 71.5437 140.249 71.5437C140.249 71.6557 140.249 71.7677 140.249 71.8797C140.249 71.9917 140.249 72.1037 140.249 72.2157C140.745 71.8637 141.305 71.5997 141.929 71.4237C142.553 71.2477 143.233 71.1997 143.969 71.2797C143.969 71.9197 143.969 72.5677 143.969 73.2237C143.969 73.8797 143.969 74.5277 143.969 75.1677C142.705 74.9917 141.769 75.1037 141.161 75.5037C140.553 75.8877 140.249 76.5197 140.249 77.3997C140.249 78.4717 140.249 79.5597 140.249 80.6637C140.249 81.7677 140.249 82.8637 140.249 83.9517C139.609 83.9517 138.953 83.9517 138.281 83.9517C137.609 83.9517 136.945 83.9517 136.289 83.9517ZM151.52 84.3357C150.592 84.3357 149.728 84.1757 148.928 83.8557C148.128 83.5197 147.432 83.0557 146.84 82.4637C146.248 81.8557 145.784 81.1517 145.448 80.3517C145.128 79.5517 144.968 78.6797 144.968 77.7357C144.968 76.7917 145.128 75.9197 145.448 75.1197C145.784 74.3197 146.248 73.6237 146.84 73.0317C147.432 72.4397 148.128 71.9837 148.928 71.6637C149.728 71.3277 150.592 71.1597 151.52 71.1597C152.464 71.1597 153.328 71.3277 154.112 71.6637C154.912 71.9837 155.608 72.4397 156.2 73.0317C156.792 73.6237 157.248 74.3197 157.568 75.1197C157.904 75.9197 158.072 76.7917 158.072 77.7357C158.072 78.6797 157.904 79.5517 157.568 80.3517C157.248 81.1517 156.792 81.8557 156.2 82.4637C155.608 83.0557 154.912 83.5197 154.112 83.8557C153.328 84.1757 152.464 84.3357 151.52 84.3357ZM151.52 80.7597C152.304 80.7597 152.928 80.4797 153.392 79.9197C153.872 79.3437 154.112 78.6157 154.112 77.7357C154.112 76.8397 153.872 76.1197 153.392 75.5757C152.928 75.0157 152.304 74.7357 151.52 74.7357C150.736 74.7357 150.104 75.0157 149.624 75.5757C149.16 76.1197 148.928 76.8397 148.928 77.7357C148.928 78.6157 149.16 79.3437 149.624 79.9197C150.104 80.4797 150.736 80.7597 151.52 80.7597ZM162.317 83.9517C161.693 81.9037 161.061 79.8397 160.421 77.7597C159.797 75.6637 159.173 73.5917 158.549 71.5437C159.205 71.5437 159.869 71.5437 160.541 71.5437C161.229 71.5437 161.901 71.5437 162.557 71.5437C162.877 72.6637 163.197 73.7997 163.517 74.9517C163.853 76.0877 164.173 77.2157 164.477 78.3357C164.749 77.2157 165.021 76.0877 165.293 74.9517C165.581 73.7997 165.853 72.6637 166.109 71.5437C166.669 71.5437 167.229 71.5437 167.789 71.5437C168.365 71.5437 168.933 71.5437 169.493 71.5437C169.765 72.6637 170.037 73.8077 170.309 74.9757C170.597 76.1277 170.869 77.2717 171.125 78.4077C171.445 77.2717 171.765 76.1277 172.085 74.9757C172.421 73.8077 172.741 72.6637 173.045 71.5437C173.701 71.5437 174.357 71.5437 175.013 71.5437C175.685 71.5437 176.341 71.5437 176.981 71.5437C176.357 73.5917 175.725 75.6637 175.085 77.7597C174.461 79.8397 173.837 81.9037 173.213 83.9517C172.573 83.9517 171.925 83.9517 171.269 83.9517C170.613 83.9517 169.965 83.9517 169.325 83.9517C169.069 82.9597 168.805 81.9597 168.533 80.9517C168.277 79.9437 168.021 78.9517 167.765 77.9757C167.509 78.9517 167.245 79.9437 166.973 80.9517C166.717 81.9597 166.461 82.9597 166.205 83.9517C165.565 83.9517 164.917 83.9517 164.261 83.9517C163.605 83.9517 162.957 83.9517 162.317 83.9517ZM179.679 83.9517C179.679 82.4797 179.679 80.9997 179.679 79.5117C179.679 78.0237 179.679 76.5517 179.679 75.0957C179.359 75.0957 179.031 75.0957 178.695 75.0957C178.375 75.0957 178.055 75.0957 177.735 75.0957C177.735 74.5037 177.735 73.9117 177.735 73.3197C177.735 72.7277 177.735 72.1357 177.735 71.5437C178.055 71.5437 178.375 71.5437 178.695 71.5437C179.031 71.5437 179.359 71.5437 179.679 71.5437C179.679 70.9837 179.679 70.4317 179.679 69.8877C179.679 69.3277 179.679 68.7757 179.679 68.2317C180.335 68.2317 180.999 68.2317 181.671 68.2317C182.343 68.2317 182.999 68.2317 183.639 68.2317C183.639 68.7757 183.639 69.3277 183.639 69.8877C183.639 70.4317 183.639 70.9837 183.639 71.5437C184.007 71.5437 184.383 71.5437 184.767 71.5437C185.151 71.5437 185.527 71.5437 185.895 71.5437C185.895 72.1357 185.895 72.7277 185.895 73.3197C185.895 73.9117 185.895 74.5037 185.895 75.0957C185.527 75.0957 185.151 75.0957 184.767 75.0957C184.383 75.0957 184.007 75.0957 183.639 75.0957C183.639 76.5517 183.639 78.0237 183.639 79.5117C183.639 80.9997 183.639 82.4797 183.639 83.9517C182.999 83.9517 182.343 83.9517 181.671 83.9517C180.999 83.9517 180.335 83.9517 179.679 83.9517ZM187.924 83.9517C187.924 81.0557 187.924 78.1357 187.924 75.1917C187.924 72.2477 187.924 69.3277 187.924 66.4317C188.58 66.4317 189.244 66.4317 189.916 66.4317C190.588 66.4317 191.244 66.4317 191.884 66.4317C191.884 67.3757 191.884 68.3357 191.884 69.3117C191.884 70.2717 191.884 71.2237 191.884 72.1677C192.316 71.8637 192.796 71.6317 193.324 71.4717C193.868 71.2957 194.452 71.2077 195.076 71.2077C195.988 71.2077 196.788 71.4157 197.476 71.8317C198.18 72.2477 198.724 72.8477 199.108 73.6317C199.508 74.3997 199.708 75.3277 199.708 76.4157C199.708 77.6637 199.708 78.9197 199.708 80.1837C199.708 81.4477 199.708 82.7037 199.708 83.9517C199.068 83.9517 198.412 83.9517 197.74 83.9517C197.068 83.9517 196.404 83.9517 195.748 83.9517C195.748 82.7997 195.748 81.6317 195.748 80.4477C195.748 79.2637 195.748 78.0957 195.748 76.9437C195.748 76.3037 195.596 75.7917 195.292 75.4077C195.004 75.0077 194.54 74.8077 193.9 74.8077C193.26 74.8077 192.764 74.9917 192.412 75.3597C192.06 75.7277 191.884 76.2557 191.884 76.9437C191.884 78.0957 191.884 79.2637 191.884 80.4477C191.884 81.6317 191.884 82.7997 191.884 83.9517C191.244 83.9517 190.588 83.9517 189.916 83.9517C189.244 83.9517 188.58 83.9517 187.924 83.9517ZM211.651 83.9517C210.963 83.9517 210.267 83.9517 209.563 83.9517C208.859 83.9517 208.155 83.9517 207.451 83.9517C207.451 81.2637 207.451 78.5437 207.451 75.7917C207.451 73.0397 207.451 70.3197 207.451 67.6317C208.155 67.6317 208.859 67.6317 209.563 67.6317C210.267 67.6317 210.963 67.6317 211.651 67.6317C211.651 68.6077 211.651 69.5917 211.651 70.5837C211.651 71.5597 211.651 72.5357 211.651 73.5117C212.499 73.5117 213.355 73.5117 214.219 73.5117C215.083 73.5117 215.931 73.5117 216.763 73.5117C216.763 72.5357 216.763 71.5597 216.763 70.5837C216.763 69.5917 216.763 68.6077 216.763 67.6317C217.467 67.6317 218.171 67.6317 218.875 67.6317C219.579 67.6317 220.275 67.6317 220.963 67.6317C220.963 70.3197 220.963 73.0397 220.963 75.7917C220.963 78.5437 220.963 81.2637 220.963 83.9517C220.275 83.9517 219.579 83.9517 218.875 83.9517C218.171 83.9517 217.467 83.9517 216.763 83.9517C216.763 82.8637 216.763 81.7677 216.763 80.6637C216.763 79.5437 216.763 78.4477 216.763 77.3757C215.931 77.3757 215.083 77.3757 214.219 77.3757C213.355 77.3757 212.499 77.3757 211.651 77.3757C211.651 78.4477 211.651 79.5437 211.651 80.6637C211.651 81.7677 211.651 82.8637 211.651 83.9517ZM234.531 83.3757C233.427 83.8397 232.331 84.1277 231.243 84.2397C230.155 84.3517 229.123 84.2877 228.147 84.0477C227.187 83.8237 226.331 83.4317 225.579 82.8717C224.827 82.3117 224.235 81.5997 223.803 80.7357C223.387 79.8717 223.179 78.8717 223.179 77.7357C223.179 76.7917 223.331 75.9277 223.635 75.1437C223.955 74.3437 224.403 73.6477 224.979 73.0557C225.555 72.4477 226.235 71.9837 227.019 71.6637C227.803 71.3277 228.659 71.1597 229.587 71.1597C230.419 71.1597 231.171 71.2957 231.843 71.5677C232.515 71.8397 233.099 72.2237 233.595 72.7197C234.091 73.1997 234.491 73.7757 234.795 74.4477C235.099 75.1197 235.291 75.8557 235.371 76.6557C235.451 77.4557 235.403 78.3037 235.227 79.1997C233.915 79.1997 232.595 79.1997 231.267 79.1997C229.939 79.1997 228.619 79.1997 227.307 79.1997C227.611 79.8077 228.115 80.2397 228.819 80.4957C229.539 80.7517 230.387 80.8317 231.363 80.7357C232.355 80.6397 233.411 80.3837 234.531 79.9677C234.531 80.5277 234.531 81.0957 234.531 81.6717C234.531 82.2477 234.531 82.8157 234.531 83.3757ZM229.491 74.7117C229.027 74.7117 228.595 74.8397 228.195 75.0957C227.811 75.3517 227.515 75.7437 227.307 76.2717C228.027 76.2717 228.747 76.2717 229.467 76.2717C230.203 76.2717 230.931 76.2717 231.651 76.2717C231.459 75.7277 231.171 75.3357 230.787 75.0957C230.419 74.8397 229.987 74.7117 229.491 74.7117ZM239.58 70.1277C239.116 70.1277 238.692 70.0157 238.308 69.7917C237.94 69.5677 237.644 69.2717 237.42 68.9037C237.196 68.5357 237.084 68.1277 237.084 67.6797C237.084 67.2317 237.196 66.8317 237.42 66.4797C237.644 66.1117 237.94 65.8157 238.308 65.5917C238.692 65.3677 239.116 65.2557 239.58 65.2557C240.028 65.2557 240.436 65.3677 240.804 65.5917C241.188 65.8157 241.492 66.1117 241.716 66.4797C241.94 66.8317 242.052 67.2317 242.052 67.6797C242.052 68.1277 241.94 68.5357 241.716 68.9037C241.492 69.2717 241.188 69.5677 240.804 69.7917C240.436 70.0157 240.028 70.1277 239.58 70.1277ZM237.588 83.9517C237.588 81.9037 237.588 79.8397 237.588 77.7597C237.588 75.6637 237.588 73.5917 237.588 71.5437C238.244 71.5437 238.908 71.5437 239.58 71.5437C240.252 71.5437 240.908 71.5437 241.548 71.5437C241.548 73.5917 241.548 75.6637 241.548 77.7597C241.548 79.8397 241.548 81.9037 241.548 83.9517C240.908 83.9517 240.252 83.9517 239.58 83.9517C238.908 83.9517 238.244 83.9517 237.588 83.9517ZM255.976 81.9357C255.976 83.2957 255.68 84.4317 255.088 85.3437C254.512 86.2557 253.72 86.9357 252.712 87.3837C251.704 87.8477 250.552 88.0877 249.256 88.1037C247.976 88.1197 246.624 87.9277 245.2 87.5277C245.2 86.9037 245.2 86.2717 245.2 85.6317C245.2 85.0077 245.2 84.3837 245.2 83.7597C246.464 84.2557 247.608 84.5037 248.632 84.5037C249.656 84.5197 250.464 84.3277 251.056 83.9277C251.664 83.5117 251.968 82.9437 251.968 82.2237C251.968 82.1437 251.968 82.0717 251.968 82.0077C251.968 81.9277 251.968 81.8557 251.968 81.7917C251.568 82.0957 251.104 82.3357 250.576 82.5117C250.048 82.6877 249.48 82.7757 248.872 82.7757C247.864 82.7757 246.96 82.5437 246.16 82.0797C245.376 81.5997 244.76 80.9437 244.312 80.1117C243.864 79.2637 243.64 78.2797 243.64 77.1597C243.64 76.2957 243.784 75.5037 244.072 74.7837C244.36 74.0637 244.76 73.4397 245.272 72.9117C245.784 72.3837 246.368 71.9837 247.024 71.7117C247.68 71.4237 248.368 71.2797 249.088 71.2797C249.664 71.2797 250.2 71.3597 250.696 71.5197C251.192 71.6797 251.632 71.8957 252.016 72.1677C252.016 72.0557 252.016 71.9517 252.016 71.8557C252.016 71.7597 252.016 71.6557 252.016 71.5437C252.672 71.5437 253.336 71.5437 254.008 71.5437C254.68 71.5437 255.336 71.5437 255.976 71.5437C255.976 73.2557 255.976 74.9917 255.976 76.7517C255.976 78.4957 255.976 80.2237 255.976 81.9357ZM249.856 79.3437C250.528 79.3437 251.064 79.1357 251.464 78.7197C251.88 78.2877 252.088 77.7357 252.088 77.0637C252.088 76.3757 251.88 75.8157 251.464 75.3837C251.064 74.9517 250.528 74.7357 249.856 74.7357C249.152 74.7357 248.592 74.9517 248.176 75.3837C247.76 75.7997 247.552 76.3597 247.552 77.0637C247.552 77.7517 247.76 78.3037 248.176 78.7197C248.592 79.1357 249.152 79.3437 249.856 79.3437ZM258.729 83.9517C258.729 81.0557 258.729 78.1357 258.729 75.1917C258.729 72.2477 258.729 69.3277 258.729 66.4317C259.385 66.4317 260.049 66.4317 260.721 66.4317C261.393 66.4317 262.049 66.4317 262.689 66.4317C262.689 67.3757 262.689 68.3357 262.689 69.3117C262.689 70.2717 262.689 71.2237 262.689 72.1677C263.121 71.8637 263.601 71.6317 264.129 71.4717C264.673 71.2957 265.257 71.2077 265.881 71.2077C266.793 71.2077 267.593 71.4157 268.281 71.8317C268.985 72.2477 269.529 72.8477 269.913 73.6317C270.313 74.3997 270.513 75.3277 270.513 76.4157C270.513 77.6637 270.513 78.9197 270.513 80.1837C270.513 81.4477 270.513 82.7037 270.513 83.9517C269.873 83.9517 269.217 83.9517 268.545 83.9517C267.873 83.9517 267.209 83.9517 266.553 83.9517C266.553 82.7997 266.553 81.6317 266.553 80.4477C266.553 79.2637 266.553 78.0957 266.553 76.9437C266.553 76.3037 266.401 75.7917 266.097 75.4077C265.809 75.0077 265.345 74.8077 264.705 74.8077C264.065 74.8077 263.569 74.9917 263.217 75.3597C262.865 75.7277 262.689 76.2557 262.689 76.9437C262.689 78.0957 262.689 79.2637 262.689 80.4477C262.689 81.6317 262.689 82.7997 262.689 83.9517C262.049 83.9517 261.393 83.9517 260.721 83.9517C260.049 83.9517 259.385 83.9517 258.729 83.9517ZM274.272 83.9517C274.272 82.4797 274.272 80.9997 274.272 79.5117C274.272 78.0237 274.272 76.5517 274.272 75.0957C273.952 75.0957 273.624 75.0957 273.288 75.0957C272.968 75.0957 272.648 75.0957 272.328 75.0957C272.328 74.5037 272.328 73.9117 272.328 73.3197C272.328 72.7277 272.328 72.1357 272.328 71.5437C272.648 71.5437 272.968 71.5437 273.288 71.5437C273.624 71.5437 273.952 71.5437 274.272 71.5437C274.272 70.9837 274.272 70.4317 274.272 69.8877C274.272 69.3277 274.272 68.7757 274.272 68.2317C274.928 68.2317 275.592 68.2317 276.264 68.2317C276.936 68.2317 277.592 68.2317 278.232 68.2317C278.232 68.7757 278.232 69.3277 278.232 69.8877C278.232 70.4317 278.232 70.9837 278.232 71.5437C278.6 71.5437 278.976 71.5437 279.36 71.5437C279.744 71.5437 280.12 71.5437 280.488 71.5437C280.488 72.1357 280.488 72.7277 280.488 73.3197C280.488 73.9117 280.488 74.5037 280.488 75.0957C280.12 75.0957 279.744 75.0957 279.36 75.0957C278.976 75.0957 278.6 75.0957 278.232 75.0957C278.232 76.5517 278.232 78.0237 278.232 79.5117C278.232 80.9997 278.232 82.4797 278.232 83.9517C277.592 83.9517 276.936 83.9517 276.264 83.9517C275.592 83.9517 274.928 83.9517 274.272 83.9517Z" fill="#FFCECE"/>
</svg>
