<svg width="249" height="239" viewBox="0 0 249 239" fill="none" xmlns="http://www.w3.org/2000/svg">
<rect width="21.1844" height="8.11035" transform="matrix(1 0 0 -1 36 8.38965)" fill="#6697DC"/>
<rect width="21.1844" height="8.11035" transform="matrix(1 0 0 -1 72 8.38965)" fill="#6697DC"/>
<rect width="21.1844" height="8.11035" transform="matrix(1 0 0 -1 0 8.11035)" fill="#6697DC"/>
<rect width="21.1844" height="8.11035" transform="matrix(1 0 0 -1 107 8.38965)" fill="#6697DC"/>
<rect width="21.1844" height="8.11035" transform="matrix(-0.00301799 -0.999995 -0.999995 0.00301799 128.249 42.8281)" fill="#6697DC"/>
<rect width="21.1844" height="8.11035" transform="matrix(-0.00301799 -0.999995 -0.999995 0.00301799 128.175 77.292)" fill="#6697DC"/>
<rect width="21.1844" height="8.11035" transform="matrix(-0.00301799 -0.999995 -0.999995 0.00301799 128.312 110.936)" fill="#6697DC"/>
<rect width="21.1844" height="8.11035" transform="matrix(-0.00301799 -0.999995 -0.999995 0.00301799 128.244 182.351)" fill="#6697DC"/>
<rect width="21.1844" height="8.11035" transform="matrix(-0.00301799 -0.999995 -0.999995 0.00301799 128.244 144.58)" fill="#6697DC"/>
<rect width="21.1844" height="8.11035" transform="matrix(-0.00301799 -0.999995 -0.999995 0.00301799 129.176 215.996)" fill="#6697DC"/>
<rect width="21.1844" height="8.11035" transform="matrix(1 0 0 -1 191.537 238.47)" fill="#6697DC"/>
<rect width="21.1844" height="8.11035" transform="matrix(1 0 0 -1 120.933 238.334)" fill="#6697DC"/>
<rect width="21.1844" height="8.11035" transform="matrix(1 0 0 -1 227.142 238.47)" fill="#6697DC"/>
<rect width="21.1844" height="8.11035" transform="matrix(1 0 0 -1 156.537 238.334)" fill="#6697DC"/>
</svg>
