<svg width="399" height="205" viewBox="0 0 399 205" fill="none" xmlns="http://www.w3.org/2000/svg">
<rect width="381.266" height="193.205" rx="39.1559" transform="matrix(-1 0 0 1 381.268 11.6704)" fill="white"/>
<rect width="59.1352" height="97.2509" transform="matrix(-1 0 0 1 381.268 107.625)" fill="white"/>
<rect width="59.1352" height="97.2509" transform="matrix(-1 0 0 1 59.1367 11.6704)" fill="white"/>
<path d="M0.000976562 76.3506H381.267V37.3761C381.267 16.7339 364.533 7.62939e-05 343.891 7.62939e-05H0.000976562V76.3506Z" fill="#6697DC"/>
<path opacity="0.8" d="M27.0643 55.5405C27.0643 50.1645 27.0643 44.7245 27.0643 39.2205C27.0643 33.7165 27.0643 28.2765 27.0643 22.9005C29.0483 22.9005 31.0483 22.9005 33.0643 22.9005C35.0803 22.9005 37.0803 22.9005 39.0643 22.9005C39.9923 26.1645 40.9043 29.4765 41.8003 32.8365C42.7283 36.1645 43.6403 39.4605 44.5363 42.7245C45.4323 39.4605 46.3283 36.1645 47.2243 32.8365C48.1523 29.4765 49.0643 26.1645 49.9603 22.9005C51.9443 22.9005 53.9283 22.9005 55.9123 22.9005C57.8963 22.9005 59.8643 22.9005 61.8163 22.9005C61.8483 28.2765 61.8803 33.7165 61.9123 39.2205C61.9443 44.7245 61.9763 50.1645 62.0083 55.5405C60.6643 55.5405 59.3043 55.5405 57.9283 55.5405C56.5843 55.5405 55.2403 55.5405 53.8963 55.5405C53.8963 51.8925 53.8963 48.2125 53.8963 44.5005C53.8963 40.7565 53.8963 37.0605 53.8963 33.4125C52.9363 37.0605 51.9603 40.7565 50.9683 44.5005C49.9763 48.2125 49.0003 51.8925 48.0403 55.5405C46.8563 55.5405 45.6403 55.5405 44.3923 55.5405C43.1763 55.5405 41.9603 55.5405 40.7443 55.5405C39.7843 51.9565 38.8243 48.3405 37.8643 44.6925C36.9043 41.0125 35.9443 37.3805 34.9843 33.7965C34.9843 37.3805 34.9843 41.0125 34.9843 44.6925C34.9843 48.3405 34.9843 51.9565 34.9843 55.5405C33.7043 55.5405 32.3923 55.5405 31.0483 55.5405C29.7043 55.5405 28.3763 55.5405 27.0643 55.5405ZM90.9715 30.7245C90.9715 34.8205 90.9715 38.9645 90.9715 43.1565C90.9715 47.3165 90.9715 51.4445 90.9715 55.5405C89.6915 55.5405 88.3795 55.5405 87.0355 55.5405C85.6915 55.5405 84.3635 55.5405 83.0515 55.5405C83.0515 55.3165 83.0515 55.1085 83.0515 54.9165C83.0515 54.7245 83.0515 54.5165 83.0515 54.2925C82.1875 54.9005 81.2115 55.3645 80.1235 55.6845C79.0675 56.0365 77.9155 56.2125 76.6675 56.2125C74.8435 56.2125 73.2275 55.7965 71.8195 54.9645C70.4435 54.1325 69.3555 52.9325 68.5555 51.3645C67.7875 49.7965 67.4035 47.9405 67.4035 45.7965C67.4035 43.3005 67.4035 40.7885 67.4035 38.2605C67.4035 35.7325 67.4035 33.2205 67.4035 30.7245C68.7155 30.7245 70.0435 30.7245 71.3875 30.7245C72.7315 30.7245 74.0435 30.7245 75.3235 30.7245C75.3235 33.0285 75.3235 35.3645 75.3235 37.7325C75.3235 40.1005 75.3235 42.4365 75.3235 44.7405C75.3235 46.0205 75.6115 47.0605 76.1875 47.8605C76.7955 48.6285 77.7395 49.0125 79.0195 49.0125C80.2995 49.0125 81.2915 48.6445 81.9955 47.9085C82.6995 47.1725 83.0515 46.1165 83.0515 44.7405C83.0515 42.4365 83.0515 40.1005 83.0515 37.7325C83.0515 35.3645 83.0515 33.0285 83.0515 30.7245C84.3635 30.7245 85.6915 30.7245 87.0355 30.7245C88.3795 30.7245 89.6915 30.7245 90.9715 30.7245ZM115.201 47.8605C115.201 49.8445 114.641 51.4765 113.521 52.7565C112.433 54.0045 110.961 54.9165 109.105 55.4925C107.249 56.0685 105.169 56.3085 102.865 56.2125C100.593 56.1485 98.2726 55.7805 95.9046 55.1085C95.9046 53.8925 95.9046 52.6445 95.9046 51.3645C95.9046 50.0845 95.9046 48.8365 95.9046 47.6205C97.2486 48.2285 98.5926 48.7085 99.9366 49.0605C101.281 49.3805 102.497 49.5725 103.585 49.6365C104.673 49.7005 105.553 49.6205 106.225 49.3965C106.897 49.1405 107.233 48.7245 107.233 48.1485C107.233 47.7005 106.945 47.3485 106.369 47.0925C105.825 46.8365 105.105 46.6125 104.209 46.4205C103.313 46.1965 102.353 45.9405 101.329 45.6525C100.337 45.3325 99.3926 44.9005 98.4966 44.3565C97.6006 43.7805 96.8646 43.0285 96.2886 42.1005C95.7446 41.1405 95.4726 39.9085 95.4726 38.4045C95.4726 36.6125 95.9846 35.0925 97.0086 33.8445C98.0646 32.5645 99.4726 31.6045 101.233 30.9645C102.993 30.2925 104.961 29.9565 107.137 29.9565C109.313 29.9565 111.537 30.3245 113.809 31.0605C113.809 32.2765 113.809 33.5245 113.809 34.8045C113.809 36.0845 113.809 37.3325 113.809 38.5485C112.017 37.6845 110.337 37.1085 108.769 36.8205C107.201 36.5325 105.937 36.5005 104.977 36.7245C104.017 36.9165 103.537 37.3485 103.537 38.0205C103.537 38.4685 103.809 38.8205 104.353 39.0765C104.929 39.3005 105.649 39.5085 106.513 39.7005C107.409 39.8925 108.353 40.1485 109.345 40.4685C110.369 40.7885 111.313 41.2365 112.177 41.8125C113.073 42.3565 113.793 43.1245 114.337 44.1165C114.913 45.0765 115.201 46.3245 115.201 47.8605ZM123.246 27.8925C122.318 27.8925 121.47 27.6685 120.702 27.2205C119.966 26.7725 119.374 26.1805 118.926 25.4445C118.478 24.7085 118.254 23.8925 118.254 22.9965C118.254 22.1005 118.478 21.3005 118.926 20.5965C119.374 19.8605 119.966 19.2685 120.702 18.8205C121.47 18.3725 122.318 18.1485 123.246 18.1485C124.142 18.1485 124.958 18.3725 125.694 18.8205C126.462 19.2685 127.07 19.8605 127.518 20.5965C127.966 21.3005 128.19 22.1005 128.19 22.9965C128.19 23.8925 127.966 24.7085 127.518 25.4445C127.07 26.1805 126.462 26.7725 125.694 27.2205C124.958 27.6685 124.142 27.8925 123.246 27.8925ZM119.262 55.5405C119.262 51.4445 119.262 47.3165 119.262 43.1565C119.262 38.9645 119.262 34.8205 119.262 30.7245C120.574 30.7245 121.902 30.7245 123.246 30.7245C124.59 30.7245 125.902 30.7245 127.182 30.7245C127.182 34.8205 127.182 38.9645 127.182 43.1565C127.182 47.3165 127.182 51.4445 127.182 55.5405C125.902 55.5405 124.59 55.5405 123.246 55.5405C121.902 55.5405 120.574 55.5405 119.262 55.5405ZM131.365 43.1085C131.365 40.6765 131.861 38.5485 132.853 36.7245C133.845 34.8685 135.221 33.3805 136.981 32.2605C138.741 31.1405 140.789 30.4685 143.125 30.2445C145.461 29.9885 147.957 30.2605 150.613 31.0605C150.613 32.2765 150.613 33.5085 150.613 34.7565C150.613 36.0045 150.613 37.2365 150.613 38.4525C148.757 37.5565 146.981 37.1405 145.285 37.2045C143.589 37.2685 142.197 37.7965 141.109 38.7885C140.021 39.7485 139.477 41.1885 139.477 43.1085C139.477 45.0285 140.021 46.4845 141.109 47.4765C142.197 48.4365 143.589 48.9485 145.285 49.0125C146.981 49.0445 148.757 48.6285 150.613 47.7645C150.613 48.9805 150.613 50.2125 150.613 51.4605C150.613 52.7085 150.613 53.9405 150.613 55.1565C147.957 55.9565 145.461 56.2285 143.125 55.9725C140.789 55.7485 138.741 55.0765 136.981 53.9565C135.221 52.8365 133.845 51.3645 132.853 49.5405C131.861 47.6845 131.365 45.5405 131.365 43.1085ZM192.448 53.8125C189.12 55.1565 186.016 55.9245 183.136 56.1165C180.288 56.3405 177.712 56.0845 175.408 55.3485C173.104 54.5805 171.136 53.4285 169.504 51.8925C167.872 50.3565 166.624 48.5325 165.76 46.4205C164.896 44.3085 164.464 42.0045 164.464 39.5085C164.464 37.0445 164.864 34.7725 165.664 32.6925C166.464 30.5805 167.632 28.7565 169.168 27.2205C170.736 25.6845 172.624 24.4845 174.832 23.6205C177.04 22.7565 179.552 22.3405 182.368 22.3725C185.184 22.3725 188.272 22.8845 191.632 23.9085C191.632 25.2525 191.632 26.6125 191.632 27.9885C191.632 29.3325 191.632 30.6765 191.632 32.0205C188.976 30.9645 186.512 30.3565 184.24 30.1965C182 30.0365 180.032 30.2765 178.336 30.9165C176.672 31.5565 175.36 32.5805 174.4 33.9885C173.472 35.3645 173.008 37.0925 173.008 39.1725C173.008 40.9965 173.344 42.6125 174.016 44.0205C174.72 45.4285 175.696 46.5325 176.944 47.3325C178.192 48.1325 179.616 48.5325 181.216 48.5325C181.76 48.5325 182.304 48.5165 182.848 48.4845C183.392 48.4205 183.92 48.3245 184.432 48.1965C184.432 47.3645 184.432 46.5165 184.432 45.6525C184.432 44.7885 184.432 43.9405 184.432 43.1085C183.536 43.1085 182.64 43.1085 181.744 43.1085C180.848 43.1085 179.952 43.1085 179.056 43.1085C179.056 41.9245 179.056 40.7405 179.056 39.5565C179.056 38.3405 179.056 37.1405 179.056 35.9565C181.264 35.9565 183.488 35.9565 185.728 35.9565C188 35.9565 190.24 35.9565 192.448 35.9565C192.448 38.9005 192.448 41.8765 192.448 44.8845C192.448 47.8925 192.448 50.8685 192.448 53.8125ZM219.413 54.3885C217.205 55.3165 215.013 55.8925 212.837 56.1165C210.661 56.3405 208.597 56.2125 206.645 55.7325C204.725 55.2845 203.013 54.5005 201.509 53.3805C200.005 52.2605 198.821 50.8365 197.957 49.1085C197.125 47.3805 196.709 45.3805 196.709 43.1085C196.709 41.2205 197.013 39.4925 197.621 37.9245C198.261 36.3245 199.157 34.9325 200.309 33.7485C201.461 32.5325 202.821 31.6045 204.389 30.9645C205.957 30.2925 207.669 29.9565 209.525 29.9565C211.189 29.9565 212.693 30.2285 214.037 30.7725C215.381 31.3165 216.549 32.0845 217.541 33.0765C218.533 34.0365 219.333 35.1885 219.941 36.5325C220.549 37.8765 220.933 39.3485 221.093 40.9485C221.253 42.5485 221.157 44.2445 220.805 46.0365C218.181 46.0365 215.541 46.0365 212.885 46.0365C210.229 46.0365 207.589 46.0365 204.965 46.0365C205.573 47.2525 206.581 48.1165 207.989 48.6285C209.429 49.1405 211.125 49.3005 213.077 49.1085C215.061 48.9165 217.173 48.4045 219.413 47.5725C219.413 48.6925 219.413 49.8285 219.413 50.9805C219.413 52.1325 219.413 53.2685 219.413 54.3885ZM209.333 37.0605C208.405 37.0605 207.541 37.3165 206.741 37.8285C205.973 38.3405 205.381 39.1245 204.965 40.1805C206.405 40.1805 207.845 40.1805 209.285 40.1805C210.757 40.1805 212.213 40.1805 213.653 40.1805C213.269 39.0925 212.693 38.3085 211.925 37.8285C211.189 37.3165 210.325 37.0605 209.333 37.0605ZM225.287 55.5405C225.287 51.4445 225.287 47.3165 225.287 43.1565C225.287 38.9645 225.287 34.8205 225.287 30.7245C226.599 30.7245 227.927 30.7245 229.271 30.7245C230.615 30.7245 231.927 30.7245 233.207 30.7245C233.207 30.9485 233.207 31.1565 233.207 31.3485C233.207 31.5405 233.207 31.7485 233.207 31.9725C234.071 31.3645 235.031 30.9005 236.087 30.5805C237.175 30.2285 238.343 30.0525 239.591 30.0525C241.415 30.0525 243.015 30.4685 244.391 31.3005C245.799 32.1325 246.887 33.3325 247.655 34.9005C248.455 36.4365 248.855 38.2925 248.855 40.4685C248.855 42.9645 248.855 45.4765 248.855 48.0045C248.855 50.5325 248.855 53.0445 248.855 55.5405C247.575 55.5405 246.263 55.5405 244.919 55.5405C243.575 55.5405 242.247 55.5405 240.935 55.5405C240.935 53.2365 240.935 50.9005 240.935 48.5325C240.935 46.1645 240.935 43.8285 240.935 41.5245C240.935 40.2445 240.631 39.2205 240.023 38.4525C239.447 37.6525 238.519 37.2525 237.239 37.2525C235.959 37.2525 234.967 37.6205 234.263 38.3565C233.559 39.0925 233.207 40.1485 233.207 41.5245C233.207 43.8285 233.207 46.1645 233.207 48.5325C233.207 50.9005 233.207 53.2365 233.207 55.5405C231.927 55.5405 230.615 55.5405 229.271 55.5405C227.927 55.5405 226.599 55.5405 225.287 55.5405ZM253.741 55.5405C253.741 51.4445 253.741 47.3165 253.741 43.1565C253.741 38.9645 253.741 34.8205 253.741 30.7245C255.053 30.7245 256.381 30.7245 257.725 30.7245C259.069 30.7245 260.381 30.7245 261.661 30.7245C261.661 30.9485 261.661 31.1725 261.661 31.3965C261.661 31.6205 261.661 31.8445 261.661 32.0685C262.653 31.3645 263.773 30.8365 265.021 30.4845C266.269 30.1325 267.629 30.0365 269.101 30.1965C269.101 31.4765 269.101 32.7725 269.101 34.0845C269.101 35.3965 269.101 36.6925 269.101 37.9725C266.573 37.6205 264.701 37.8445 263.485 38.6445C262.269 39.4125 261.661 40.6765 261.661 42.4365C261.661 44.5805 261.661 46.7565 261.661 48.9645C261.661 51.1725 261.661 53.3645 261.661 55.5405C260.381 55.5405 259.069 55.5405 257.725 55.5405C256.381 55.5405 255.053 55.5405 253.741 55.5405ZM293.804 54.3885C291.596 55.3165 289.404 55.8925 287.228 56.1165C285.052 56.3405 282.988 56.2125 281.036 55.7325C279.116 55.2845 277.404 54.5005 275.9 53.3805C274.396 52.2605 273.212 50.8365 272.348 49.1085C271.516 47.3805 271.1 45.3805 271.1 43.1085C271.1 41.2205 271.404 39.4925 272.012 37.9245C272.652 36.3245 273.548 34.9325 274.7 33.7485C275.852 32.5325 277.212 31.6045 278.78 30.9645C280.348 30.2925 282.06 29.9565 283.916 29.9565C285.58 29.9565 287.084 30.2285 288.428 30.7725C289.772 31.3165 290.94 32.0845 291.932 33.0765C292.924 34.0365 293.724 35.1885 294.332 36.5325C294.94 37.8765 295.324 39.3485 295.484 40.9485C295.644 42.5485 295.548 44.2445 295.196 46.0365C292.572 46.0365 289.932 46.0365 287.276 46.0365C284.62 46.0365 281.98 46.0365 279.356 46.0365C279.964 47.2525 280.972 48.1165 282.38 48.6285C283.82 49.1405 285.516 49.3005 287.468 49.1085C289.452 48.9165 291.564 48.4045 293.804 47.5725C293.804 48.6925 293.804 49.8285 293.804 50.9805C293.804 52.1325 293.804 53.2685 293.804 54.3885ZM283.724 37.0605C282.796 37.0605 281.932 37.3165 281.132 37.8285C280.364 38.3405 279.772 39.1245 279.356 40.1805C280.796 40.1805 282.236 40.1805 283.676 40.1805C285.148 40.1805 286.604 40.1805 288.044 40.1805C287.66 39.0925 287.084 38.3085 286.316 37.8285C285.58 37.3165 284.716 37.0605 283.724 37.0605ZM318.638 47.8605C318.638 49.8445 318.078 51.4765 316.958 52.7565C315.87 54.0045 314.398 54.9165 312.542 55.4925C310.686 56.0685 308.606 56.3085 306.302 56.2125C304.03 56.1485 301.71 55.7805 299.342 55.1085C299.342 53.8925 299.342 52.6445 299.342 51.3645C299.342 50.0845 299.342 48.8365 299.342 47.6205C300.686 48.2285 302.03 48.7085 303.374 49.0605C304.718 49.3805 305.934 49.5725 307.022 49.6365C308.11 49.7005 308.99 49.6205 309.662 49.3965C310.334 49.1405 310.67 48.7245 310.67 48.1485C310.67 47.7005 310.382 47.3485 309.806 47.0925C309.262 46.8365 308.542 46.6125 307.646 46.4205C306.75 46.1965 305.79 45.9405 304.766 45.6525C303.774 45.3325 302.83 44.9005 301.934 44.3565C301.038 43.7805 300.302 43.0285 299.726 42.1005C299.182 41.1405 298.91 39.9085 298.91 38.4045C298.91 36.6125 299.422 35.0925 300.446 33.8445C301.502 32.5645 302.91 31.6045 304.67 30.9645C306.43 30.2925 308.398 29.9565 310.574 29.9565C312.75 29.9565 314.974 30.3245 317.246 31.0605C317.246 32.2765 317.246 33.5245 317.246 34.8045C317.246 36.0845 317.246 37.3325 317.246 38.5485C315.454 37.6845 313.774 37.1085 312.206 36.8205C310.638 36.5325 309.374 36.5005 308.414 36.7245C307.454 36.9165 306.974 37.3485 306.974 38.0205C306.974 38.4685 307.246 38.8205 307.79 39.0765C308.366 39.3005 309.086 39.5085 309.95 39.7005C310.846 39.8925 311.79 40.1485 312.782 40.4685C313.806 40.7885 314.75 41.2365 315.614 41.8125C316.51 42.3565 317.23 43.1245 317.774 44.1165C318.35 45.0765 318.638 46.3245 318.638 47.8605Z" fill="white"/>
<path d="M157.877 187.457C157.877 184.769 157.877 182.049 157.877 179.297C157.877 176.545 157.877 173.825 157.877 171.137C158.581 171.137 159.285 171.137 159.989 171.137C160.693 171.137 161.389 171.137 162.077 171.137C162.077 173.201 162.077 175.289 162.077 177.401C162.077 179.497 162.077 181.577 162.077 183.641C162.925 183.641 163.781 183.641 164.645 183.641C165.509 183.641 166.357 183.641 167.189 183.641C167.189 184.265 167.189 184.905 167.189 185.561C167.189 186.201 167.189 186.833 167.189 187.457C165.653 187.457 164.101 187.457 162.533 187.457C160.965 187.457 159.413 187.457 157.877 187.457ZM171.351 173.633C170.887 173.633 170.463 173.521 170.079 173.297C169.711 173.073 169.415 172.777 169.191 172.409C168.967 172.041 168.855 171.633 168.855 171.185C168.855 170.737 168.967 170.337 169.191 169.985C169.415 169.617 169.711 169.321 170.079 169.097C170.463 168.873 170.887 168.761 171.351 168.761C171.799 168.761 172.207 168.873 172.575 169.097C172.959 169.321 173.263 169.617 173.487 169.985C173.711 170.337 173.823 170.737 173.823 171.185C173.823 171.633 173.711 172.041 173.487 172.409C173.263 172.777 172.959 173.073 172.575 173.297C172.207 173.521 171.799 173.633 171.351 173.633ZM169.359 187.457C169.359 185.409 169.359 183.345 169.359 181.265C169.359 179.169 169.359 177.097 169.359 175.049C170.015 175.049 170.679 175.049 171.351 175.049C172.023 175.049 172.679 175.049 173.319 175.049C173.319 177.097 173.319 179.169 173.319 181.265C173.319 183.345 173.319 185.409 173.319 187.457C172.679 187.457 172.023 187.457 171.351 187.457C170.679 187.457 170.015 187.457 169.359 187.457ZM187.747 185.441C187.747 186.801 187.451 187.937 186.859 188.849C186.283 189.761 185.491 190.441 184.483 190.889C183.475 191.353 182.323 191.593 181.027 191.609C179.747 191.625 178.395 191.433 176.971 191.033C176.971 190.409 176.971 189.777 176.971 189.137C176.971 188.513 176.971 187.889 176.971 187.265C178.235 187.761 179.379 188.009 180.403 188.009C181.427 188.025 182.235 187.833 182.827 187.433C183.435 187.017 183.739 186.449 183.739 185.729C183.739 185.649 183.739 185.577 183.739 185.513C183.739 185.433 183.739 185.361 183.739 185.297C183.339 185.601 182.875 185.841 182.347 186.017C181.819 186.193 181.251 186.281 180.643 186.281C179.635 186.281 178.731 186.049 177.931 185.585C177.147 185.105 176.531 184.449 176.083 183.617C175.635 182.769 175.411 181.785 175.411 180.665C175.411 179.801 175.555 179.009 175.843 178.289C176.131 177.569 176.531 176.945 177.043 176.417C177.555 175.889 178.139 175.489 178.795 175.217C179.451 174.929 180.139 174.785 180.859 174.785C181.435 174.785 181.971 174.865 182.467 175.025C182.963 175.185 183.403 175.401 183.787 175.673C183.787 175.561 183.787 175.457 183.787 175.361C183.787 175.265 183.787 175.161 183.787 175.049C184.443 175.049 185.107 175.049 185.779 175.049C186.451 175.049 187.107 175.049 187.747 175.049C187.747 176.761 187.747 178.497 187.747 180.257C187.747 182.001 187.747 183.729 187.747 185.441ZM181.627 182.849C182.299 182.849 182.835 182.641 183.235 182.225C183.651 181.793 183.859 181.241 183.859 180.569C183.859 179.881 183.651 179.321 183.235 178.889C182.835 178.457 182.299 178.241 181.627 178.241C180.923 178.241 180.363 178.457 179.947 178.889C179.531 179.305 179.323 179.865 179.323 180.569C179.323 181.257 179.531 181.809 179.947 182.225C180.363 182.641 180.923 182.849 181.627 182.849ZM190.5 187.457C190.5 184.561 190.5 181.641 190.5 178.697C190.5 175.753 190.5 172.833 190.5 169.937C191.156 169.937 191.82 169.937 192.492 169.937C193.164 169.937 193.82 169.937 194.46 169.937C194.46 170.881 194.46 171.841 194.46 172.817C194.46 173.777 194.46 174.729 194.46 175.673C194.892 175.369 195.372 175.137 195.9 174.977C196.444 174.801 197.028 174.713 197.652 174.713C198.564 174.713 199.364 174.921 200.052 175.337C200.756 175.753 201.3 176.353 201.684 177.137C202.084 177.905 202.284 178.833 202.284 179.921C202.284 181.169 202.284 182.425 202.284 183.689C202.284 184.953 202.284 186.209 202.284 187.457C201.644 187.457 200.988 187.457 200.316 187.457C199.644 187.457 198.98 187.457 198.324 187.457C198.324 186.305 198.324 185.137 198.324 183.953C198.324 182.769 198.324 181.601 198.324 180.449C198.324 179.809 198.172 179.297 197.868 178.913C197.58 178.513 197.116 178.313 196.476 178.313C195.836 178.313 195.34 178.497 194.988 178.865C194.636 179.233 194.46 179.761 194.46 180.449C194.46 181.601 194.46 182.769 194.46 183.953C194.46 185.137 194.46 186.305 194.46 187.457C193.82 187.457 193.164 187.457 192.492 187.457C191.82 187.457 191.156 187.457 190.5 187.457ZM206.043 187.457C206.043 185.985 206.043 184.505 206.043 183.017C206.043 181.529 206.043 180.057 206.043 178.601C205.723 178.601 205.395 178.601 205.059 178.601C204.739 178.601 204.419 178.601 204.099 178.601C204.099 178.009 204.099 177.417 204.099 176.825C204.099 176.233 204.099 175.641 204.099 175.049C204.419 175.049 204.739 175.049 205.059 175.049C205.395 175.049 205.723 175.049 206.043 175.049C206.043 174.489 206.043 173.937 206.043 173.393C206.043 172.833 206.043 172.281 206.043 171.737C206.699 171.737 207.363 171.737 208.035 171.737C208.707 171.737 209.363 171.737 210.003 171.737C210.003 172.281 210.003 172.833 210.003 173.393C210.003 173.937 210.003 174.489 210.003 175.049C210.371 175.049 210.747 175.049 211.131 175.049C211.515 175.049 211.891 175.049 212.259 175.049C212.259 175.641 212.259 176.233 212.259 176.825C212.259 177.417 212.259 178.009 212.259 178.601C211.891 178.601 211.515 178.601 211.131 178.601C210.747 178.601 210.371 178.601 210.003 178.601C210.003 180.057 210.003 181.529 210.003 183.017C210.003 184.505 210.003 185.985 210.003 187.457C209.363 187.457 208.707 187.457 208.035 187.457C207.363 187.457 206.699 187.457 206.043 187.457ZM219.448 187.457C219.448 184.769 219.448 182.049 219.448 179.297C219.448 176.545 219.448 173.825 219.448 171.137C220.44 171.137 221.44 171.137 222.448 171.137C223.456 171.137 224.456 171.137 225.448 171.137C225.912 172.769 226.368 174.425 226.816 176.105C227.28 177.769 227.736 179.417 228.184 181.049C228.632 179.417 229.08 177.769 229.528 176.105C229.992 174.425 230.448 172.769 230.896 171.137C231.888 171.137 232.88 171.137 233.872 171.137C234.864 171.137 235.848 171.137 236.824 171.137C236.84 173.825 236.856 176.545 236.872 179.297C236.888 182.049 236.904 184.769 236.92 187.457C236.248 187.457 235.568 187.457 234.88 187.457C234.208 187.457 233.536 187.457 232.864 187.457C232.864 185.633 232.864 183.793 232.864 181.937C232.864 180.065 232.864 178.217 232.864 176.393C232.384 178.217 231.896 180.065 231.4 181.937C230.904 183.793 230.416 185.633 229.936 187.457C229.344 187.457 228.736 187.457 228.112 187.457C227.504 187.457 226.896 187.457 226.288 187.457C225.808 185.665 225.328 183.857 224.848 182.033C224.368 180.193 223.888 178.377 223.408 176.585C223.408 178.377 223.408 180.193 223.408 182.033C223.408 183.857 223.408 185.665 223.408 187.457C222.768 187.457 222.112 187.457 221.44 187.457C220.768 187.457 220.104 187.457 219.448 187.457ZM251.401 175.049C251.401 177.097 251.401 179.169 251.401 181.265C251.401 183.345 251.401 185.409 251.401 187.457C250.761 187.457 250.105 187.457 249.433 187.457C248.761 187.457 248.097 187.457 247.441 187.457C247.441 187.345 247.441 187.241 247.441 187.145C247.441 187.049 247.441 186.945 247.441 186.833C247.009 187.137 246.521 187.369 245.977 187.529C245.449 187.705 244.873 187.793 244.249 187.793C243.337 187.793 242.529 187.585 241.825 187.169C241.137 186.753 240.593 186.153 240.193 185.369C239.809 184.585 239.617 183.657 239.617 182.585C239.617 181.337 239.617 180.081 239.617 178.817C239.617 177.553 239.617 176.297 239.617 175.049C240.273 175.049 240.937 175.049 241.609 175.049C242.281 175.049 242.937 175.049 243.577 175.049C243.577 176.201 243.577 177.369 243.577 178.553C243.577 179.737 243.577 180.905 243.577 182.057C243.577 182.697 243.721 183.217 244.009 183.617C244.313 184.001 244.785 184.193 245.425 184.193C246.065 184.193 246.561 184.009 246.913 183.641C247.265 183.273 247.441 182.745 247.441 182.057C247.441 180.905 247.441 179.737 247.441 178.553C247.441 177.369 247.441 176.201 247.441 175.049C248.097 175.049 248.761 175.049 249.433 175.049C250.105 175.049 250.761 175.049 251.401 175.049ZM263.516 183.617C263.516 184.609 263.236 185.425 262.676 186.065C262.132 186.689 261.396 187.145 260.468 187.433C259.54 187.721 258.5 187.841 257.348 187.793C256.212 187.761 255.052 187.577 253.868 187.241C253.868 186.633 253.868 186.009 253.868 185.369C253.868 184.729 253.868 184.105 253.868 183.497C254.54 183.801 255.212 184.041 255.884 184.217C256.556 184.377 257.164 184.473 257.708 184.505C258.252 184.537 258.692 184.497 259.028 184.385C259.364 184.257 259.532 184.049 259.532 183.761C259.532 183.537 259.388 183.361 259.1 183.233C258.828 183.105 258.468 182.993 258.02 182.897C257.572 182.785 257.092 182.657 256.58 182.513C256.084 182.353 255.612 182.137 255.164 181.865C254.716 181.577 254.348 181.201 254.06 180.737C253.788 180.257 253.652 179.641 253.652 178.889C253.652 177.993 253.908 177.233 254.42 176.609C254.948 175.969 255.652 175.489 256.532 175.169C257.412 174.833 258.396 174.665 259.484 174.665C260.572 174.665 261.684 174.849 262.82 175.217C262.82 175.825 262.82 176.449 262.82 177.089C262.82 177.729 262.82 178.353 262.82 178.961C261.924 178.529 261.084 178.241 260.3 178.097C259.516 177.953 258.884 177.937 258.404 178.049C257.924 178.145 257.684 178.361 257.684 178.697C257.684 178.921 257.82 179.097 258.092 179.225C258.38 179.337 258.74 179.441 259.172 179.537C259.62 179.633 260.092 179.761 260.588 179.921C261.1 180.081 261.572 180.305 262.004 180.593C262.452 180.865 262.812 181.249 263.084 181.745C263.372 182.225 263.516 182.849 263.516 183.617ZM267.538 173.633C267.074 173.633 266.65 173.521 266.266 173.297C265.898 173.073 265.602 172.777 265.378 172.409C265.154 172.041 265.042 171.633 265.042 171.185C265.042 170.737 265.154 170.337 265.378 169.985C265.602 169.617 265.898 169.321 266.266 169.097C266.65 168.873 267.074 168.761 267.538 168.761C267.986 168.761 268.394 168.873 268.762 169.097C269.146 169.321 269.45 169.617 269.674 169.985C269.898 170.337 270.01 170.737 270.01 171.185C270.01 171.633 269.898 172.041 269.674 172.409C269.45 172.777 269.146 173.073 268.762 173.297C268.394 173.521 267.986 173.633 267.538 173.633ZM265.546 187.457C265.546 185.409 265.546 183.345 265.546 181.265C265.546 179.169 265.546 177.097 265.546 175.049C266.202 175.049 266.866 175.049 267.538 175.049C268.21 175.049 268.866 175.049 269.506 175.049C269.506 177.097 269.506 179.169 269.506 181.265C269.506 183.345 269.506 185.409 269.506 187.457C268.866 187.457 268.21 187.457 267.538 187.457C266.866 187.457 266.202 187.457 265.546 187.457ZM271.598 181.241C271.598 180.025 271.846 178.961 272.342 178.049C272.838 177.121 273.526 176.377 274.406 175.817C275.286 175.257 276.31 174.921 277.478 174.809C278.646 174.681 279.894 174.817 281.222 175.217C281.222 175.825 281.222 176.441 281.222 177.065C281.222 177.689 281.222 178.305 281.222 178.913C280.294 178.465 279.406 178.257 278.558 178.289C277.71 178.321 277.014 178.585 276.47 179.081C275.926 179.561 275.654 180.281 275.654 181.241C275.654 182.201 275.926 182.929 276.47 183.425C277.014 183.905 277.71 184.161 278.558 184.193C279.406 184.209 280.294 184.001 281.222 183.569C281.222 184.177 281.222 184.793 281.222 185.417C281.222 186.041 281.222 186.657 281.222 187.265C279.894 187.665 278.646 187.801 277.478 187.673C276.31 187.561 275.286 187.225 274.406 186.665C273.526 186.105 272.838 185.369 272.342 184.457C271.846 183.529 271.598 182.457 271.598 181.241Z" fill="#6697DC"/>
</svg>
