<svg width="394" height="443" viewBox="0 0 394 443" fill="none" xmlns="http://www.w3.org/2000/svg">
<path d="M151.983 115.004C145.348 123.365 146.747 135.522 155.108 142.157C163.469 148.792 175.626 147.393 182.261 139.032C175.989 134.054 175.484 133.652 167.122 127.017C158.761 120.382 158.692 120.328 151.983 115.004Z" fill="#FE9973"/>
<path d="M196.029 25.0523C191.687 15.3008 180.263 10.915 170.512 15.2562C160.76 19.5973 156.374 31.0216 160.716 40.773C168.031 37.5163 168.621 37.2542 178.372 32.913C188.124 28.5719 188.204 28.5357 196.029 25.0523Z" fill="#FE9973"/>
<path d="M251.915 113.268C262.328 115.614 272.671 109.074 275.017 98.6611C277.363 88.248 270.824 77.9047 260.411 75.5587C258.651 83.3705 258.508 84 256.162 94.4131C253.816 104.826 253.797 104.912 251.915 113.268Z" fill="#FE9973"/>
<path d="M143.008 75.1246C132.542 77.2211 125.757 87.4051 127.854 97.8713C129.95 108.337 140.134 115.122 150.6 113.026C149.027 105.174 148.901 104.541 146.805 94.0752C144.708 83.6091 144.69 83.5229 143.008 75.1246Z" fill="#F88256"/>
<path d="M235.533 35.5522C238.518 25.3041 232.63 14.5763 222.382 11.5909C212.134 8.60557 201.406 14.4932 198.421 24.7413C206.109 26.9809 206.729 27.1618 216.977 30.1471C227.225 33.1325 227.309 33.1567 235.533 35.5522Z" fill="#F88256"/>
<path d="M219.889 138.668C226.322 147.186 238.443 148.875 246.96 142.442C255.478 136.008 257.167 123.888 250.734 115.371C244.344 120.197 243.829 120.586 235.311 127.019C226.794 133.453 226.724 133.506 219.889 138.668Z" fill="#F88256"/>
<path d="M199.763 85.8858L151.973 115.027L182.242 139.048L199.763 85.8858Z" fill="#FE9973"/>
<path d="M199.728 80.8831L196.013 25.0317L160.711 40.7474L199.728 80.8831Z" fill="#FE9973"/>
<path d="M204.936 82.8712L251.94 113.266L260.433 75.5693L204.936 82.8712Z" fill="#FE9973"/>
<path d="M198.291 83.7624L142.985 75.1359L150.574 113.025L198.291 83.7624Z" fill="#F88256"/>
<path d="M202.291 80.5605L235.533 35.5261L198.434 24.7187L202.291 80.5605Z" fill="#F88256"/>
<path d="M203.662 85.1197L219.908 138.685L250.743 115.395L203.662 85.1197Z" fill="#F88256"/>
<path d="M198.439 84.6127L180.361 95.6978L180.394 95.986L179.492 96.1663C174.864 97.0932 170.36 94.0938 169.433 89.466C168.506 84.8381 171.507 80.3344 176.135 79.4075L177.06 79.2225L177.134 79.5059L198.071 82.7721L200.758 83.1913L198.439 84.6127Z" fill="#6697DC" stroke="#FBF6F2" stroke-width="2"/>
<path d="M201.469 80.2968L200.01 59.1409L199.739 59.0369L199.997 58.1536C201.317 53.6225 206.06 51.0182 210.591 52.3382C215.123 53.6583 217.726 58.4028 216.406 62.934L216.142 63.8394L215.856 63.7741L203.271 80.8222L201.656 83.0099L201.469 80.2968Z" fill="#6697DC" stroke="#FBF6F2" stroke-width="2"/>
<path d="M204.365 84.6179L222.201 96.089L222.446 95.934L223 96.6686C225.845 100.435 225.099 105.794 221.333 108.639C217.566 111.483 212.206 110.736 209.362 106.97L208.794 106.217L209.017 106.027L202.867 85.7489L202.078 83.1466L204.365 84.6179Z" fill="#6697DC" stroke="#FBF6F2" stroke-width="2"/>
<path d="M200.63 86.1842L194.115 106.307L194.356 106.498L193.742 107.281C190.828 110.994 185.455 111.64 181.743 108.726C178.03 105.812 177.382 100.44 180.296 96.7274L180.781 96.11L181.016 96.2164L199.153 85.0259L201.467 83.5981L200.63 86.1842Z" fill="#6697DC" stroke="#FBF6F2" stroke-width="2"/>
<path d="M199.062 81.5126L184.239 66.4245L183.958 66.5496L183.548 65.6429C181.606 61.3415 183.519 56.2796 187.82 54.3373C192.121 52.395 197.184 54.3069 199.126 58.6082L199.449 59.3239L199.246 59.4827L200.772 80.7395L200.967 83.4512L199.062 81.5126Z" fill="#6697DC" stroke="#FBF6F2" stroke-width="2"/>
<path d="M204.831 81.9602L225.786 79.0906L225.854 78.7905L226.826 79.0035C231.435 80.0166 234.351 84.5752 233.338 89.1848C232.325 93.7944 227.767 96.711 223.158 95.6983L222.391 95.5295L222.385 95.2719L204.428 83.7936L202.138 82.3295L204.831 81.9602Z" fill="#6697DC" stroke="#FBF6F2" stroke-width="2"/>
<path d="M98.1717 396.698C100.418 406.943 110.543 413.427 120.788 411.181C131.033 408.935 137.518 398.809 135.272 388.564C127.586 390.249 126.966 390.385 116.722 392.631C106.477 394.877 106.392 394.896 98.1717 396.698Z" fill="#FE9973"/>
<path d="M57.0329 307.297C46.9118 304.547 36.4774 310.522 33.727 320.643C30.9766 330.764 36.9517 341.198 47.0728 343.949C49.1362 336.356 49.3029 335.744 52.0533 325.623C54.8036 315.502 54.8259 315.418 57.0329 307.297Z" fill="#FE9973"/>
<path d="M158.911 319.527C167.164 313.055 168.608 301.118 162.136 292.865C155.664 284.612 143.727 283.168 135.474 289.64C140.329 295.831 140.72 296.331 147.192 304.584C153.664 312.837 153.718 312.905 158.911 319.527Z" fill="#FE9973"/>
<path d="M62.2331 378.765C57.3296 388.037 60.8704 399.527 70.1417 404.431C79.413 409.334 90.9039 405.794 95.8074 396.522C88.8521 392.844 88.2917 392.547 79.0205 387.643C69.7492 382.74 69.6726 382.7 62.2331 378.765Z" fill="#F88256"/>
<path d="M89.5613 283.738C83.612 275.101 71.787 272.921 63.1495 278.871C54.5119 284.82 52.3327 296.645 58.282 305.282C64.7618 300.819 65.2843 300.46 73.9219 294.511C82.5594 288.561 82.6303 288.512 89.5613 283.738Z" fill="#F88256"/>
<path d="M158.363 359.688C168.844 360.079 177.657 351.9 178.048 341.419C178.439 330.938 170.26 322.125 159.779 321.734C159.485 329.597 159.461 330.23 159.07 340.711C158.679 351.192 158.677 351.278 158.363 359.688Z" fill="#F88256"/>
<path d="M105.673 342.233L98.1832 396.72L135.271 388.59L105.673 342.233Z" fill="#FE9973"/>
<path d="M101.841 339.153L57.0068 307.297L47.05 343.936L101.841 339.153Z" fill="#FE9973"/>
<path d="M106.59 336.422L158.925 319.508L135.496 289.63L106.59 336.422Z" fill="#FE9973"/>
<path d="M103.143 342.035L62.2273 378.79L95.7908 396.541L103.143 342.035Z" fill="#F88256"/>
<path d="M103.188 337.001L89.542 283.721L58.2728 305.258L103.188 337.001Z" fill="#F88256"/>
<path d="M107.512 338.788L158.388 359.684L159.803 321.742L107.512 338.788Z" fill="#F88256"/>
<path d="M103.898 342.454L101.113 363.092L101.358 363.248L100.927 364.062C98.7544 368.17 93.6625 369.739 89.5544 367.567C85.4466 365.394 83.878 360.302 86.0504 356.194L86.4915 355.36L86.7581 355.482L102.239 341.576L104.262 339.758L103.898 342.454Z" fill="#6697DC" stroke="#FBF6F2" stroke-width="2"/>
<path d="M102.467 337.478L85.4608 325.458L85.2091 325.602L84.6875 324.844C82.0515 321.017 83.0165 315.776 86.8438 313.14C90.671 310.504 95.911 311.471 98.547 315.297L99.0817 316.074L98.8506 316.254L104.013 336.413L104.688 339.048L102.467 337.478Z" fill="#6697DC" stroke="#FBF6F2" stroke-width="2"/>
<path d="M107.56 337.925L127.361 331.471L127.395 331.183L128.315 331.218C132.959 331.391 136.584 335.296 136.411 339.94C136.237 344.584 132.331 348.208 127.688 348.035L126.745 348L126.739 347.707L107.49 339.8L104.974 338.767L107.56 337.925Z" fill="#6697DC" stroke="#FBF6F2" stroke-width="2"/>
<path d="M106.453 341.749L117.724 359.196L118.024 359.131L118.243 360.101C119.262 364.635 116.411 369.138 111.877 370.157C107.344 371.176 102.841 368.326 101.822 363.792L101.65 363.026L101.881 362.911L104.622 342.161L104.979 339.466L106.453 341.749Z" fill="#6697DC" stroke="#FBF6F2" stroke-width="2"/>
<path d="M101.91 340.069L81.2275 341.984L81.1469 342.281L80.185 342.026C75.6943 340.831 73.0224 336.22 74.2173 331.73C75.4124 327.239 80.022 324.567 84.5127 325.762L85.2714 325.964L85.2662 326.221L102.392 338.254L104.616 339.818L101.91 340.069Z" fill="#6697DC" stroke="#FBF6F2" stroke-width="2"/>
<path d="M105.817 335.928L116.639 318.2L116.449 317.958L117.229 317.339C120.87 314.452 126.164 315.065 129.051 318.706C131.937 322.348 131.326 327.641 127.684 330.528L127.069 331.015L126.865 330.857L106.983 337.399L104.4 338.248L105.817 335.928Z" fill="#6697DC" stroke="#FBF6F2" stroke-width="2"/>
<path d="M295.005 150.133C298.507 140.255 309.353 135.086 319.23 138.588C329.108 142.089 334.277 152.935 330.776 162.813C323.365 160.186 322.768 159.975 312.89 156.473C303.013 152.972 302.931 152.942 295.005 150.133Z" fill="#FE9973"/>
<path d="M243.095 233.65C232.719 235.118 223.117 227.895 221.649 217.519C220.182 207.142 227.404 197.54 237.781 196.073C238.882 203.857 238.971 204.485 240.438 214.861C241.906 225.238 241.918 225.324 243.095 233.65Z" fill="#FE9973"/>
<path d="M345.622 234.2C353 241.644 352.946 253.658 345.503 261.036C338.059 268.413 326.045 268.359 318.667 260.916C324.251 255.381 324.701 254.935 332.144 247.558C339.588 240.181 339.65 240.12 345.622 234.2Z" fill="#FE9973"/>
<path d="M257.142 163.44C253.434 153.638 258.375 142.686 268.177 138.978C277.979 135.271 288.931 140.211 292.639 150.013C285.285 152.794 284.693 153.019 274.891 156.727C265.088 160.435 265.008 160.465 257.142 163.44Z" fill="#F88256"/>
<path d="M272.413 261.054C265.44 268.878 253.445 269.567 245.621 262.594C237.798 255.621 237.109 243.626 244.082 235.803C249.951 241.034 250.424 241.455 258.247 248.428C266.071 255.401 266.135 255.459 272.413 261.054Z" fill="#F88256"/>
<path d="M350.075 194.315C360.515 195.231 368.235 204.437 367.318 214.877C366.402 225.317 357.196 233.037 346.756 232.121C347.444 224.289 347.499 223.657 348.415 213.218C349.332 202.778 349.34 202.692 350.075 194.315Z" fill="#F88256"/>
<path d="M295.665 205.065L295.019 150.112L330.778 162.788L295.665 205.065Z" fill="#FE9973"/>
<path d="M291.483 207.642L243.069 233.647L237.756 196.082L291.483 207.642Z" fill="#FE9973"/>
<path d="M295.852 210.941L345.634 234.221L318.688 260.928L295.852 210.941Z" fill="#FE9973"/>
<path d="M293.131 204.946L257.139 163.415L292.624 149.992L293.131 204.946Z" fill="#F88256"/>
<path d="M292.551 209.943L272.392 261.069L244.071 235.825L292.551 209.943Z" fill="#F88256"/>
<path d="M297.06 208.709L350.1 194.323L346.783 232.116L297.06 208.709Z" fill="#F88256"/>
<path d="M293.934 204.626L293.741 183.817L294.003 183.693L293.678 182.832C292.034 178.489 287.181 176.299 282.837 177.942C278.493 179.585 276.305 184.439 277.948 188.782L278.282 189.664L278.561 189.577L292.179 205.29L293.959 207.345L293.934 204.626Z" fill="#6697DC" stroke="#FBF6F2" stroke-width="2"/>
<path d="M291.894 209.379L273.538 219.181L273.306 219.007L272.694 219.693C269.604 223.16 269.91 228.476 273.376 231.566C276.843 234.656 282.158 234.35 285.248 230.883L285.876 230.179L285.669 229.972L293.296 210.628L294.293 208.099L291.894 209.379Z" fill="#6697DC" stroke="#FBF6F2" stroke-width="2"/>
<path d="M297 209.572L315.828 218.434L315.827 218.724L316.743 218.804C321.369 219.21 325.449 215.789 325.855 211.163C326.261 206.537 322.84 202.458 318.214 202.051L317.274 201.969L317.232 202.259L297.164 207.702L294.54 208.413L297 209.572Z" fill="#6697DC" stroke="#FBF6F2" stroke-width="2"/>
<path d="M296.38 205.643L309.723 189.747L310.013 189.85L310.351 188.914C311.926 184.545 309.66 179.726 305.291 178.152C300.922 176.577 296.104 178.842 294.529 183.211L294.263 183.95L294.478 184.092L294.615 205.006L294.632 207.724L296.38 205.643Z" fill="#6697DC" stroke="#FBF6F2" stroke-width="2"/>
<path d="M291.665 206.741L271.399 202.269L271.356 201.964L270.37 202.098C265.768 202.724 262.545 206.963 263.171 211.564C263.797 216.166 268.035 219.389 272.637 218.763L273.415 218.657L273.442 218.401L291.917 208.601L294.319 207.327L291.665 206.741Z" fill="#6697DC" stroke="#FBF6F2" stroke-width="2"/>
<path d="M295.021 211.334L303.546 230.256L303.327 230.473L304.024 231.184C307.275 234.499 312.6 234.551 315.916 231.299C319.231 228.048 319.283 222.723 316.032 219.408L315.482 218.847L315.26 218.979L296.362 210.021L293.905 208.856L295.021 211.334Z" fill="#6697DC" stroke="#FBF6F2" stroke-width="2"/>
</svg>
