<svg width="201" height="187" viewBox="0 0 201 187" fill="none" xmlns="http://www.w3.org/2000/svg">
<rect width="200.744" height="186.17" rx="32" fill="#FFB1B1"/>
<path d="M51.4745 84.2642C51.4745 78.8882 51.4745 73.4482 51.4745 67.9442C51.4745 62.4402 51.4745 57.0002 51.4745 51.6242C53.4585 51.6242 55.4585 51.6242 57.4745 51.6242C59.4905 51.6242 61.4905 51.6242 63.4745 51.6242C64.4025 54.8882 65.3145 58.2002 66.2105 61.5602C67.1385 64.8882 68.0505 68.1842 68.9465 71.4482C69.8425 68.1842 70.7385 64.8882 71.6345 61.5602C72.5625 58.2002 73.4745 54.8882 74.3705 51.6242C76.3545 51.6242 78.3385 51.6242 80.3225 51.6242C82.3065 51.6242 84.2745 51.6242 86.2265 51.6242C86.2585 57.0002 86.2905 62.4402 86.3225 67.9442C86.3545 73.4482 86.3865 78.8882 86.4185 84.2642C85.0745 84.2642 83.7145 84.2642 82.3385 84.2642C80.9945 84.2642 79.6505 84.2642 78.3065 84.2642C78.3065 80.6162 78.3065 76.9362 78.3065 73.2242C78.3065 69.4802 78.3065 65.7842 78.3065 62.1362C77.3465 65.7842 76.3705 69.4802 75.3785 73.2242C74.3865 76.9362 73.4105 80.6162 72.4505 84.2642C71.2665 84.2642 70.0505 84.2642 68.8025 84.2642C67.5865 84.2642 66.3705 84.2642 65.1545 84.2642C64.1945 80.6802 63.2345 77.0642 62.2745 73.4162C61.3145 69.7362 60.3545 66.1042 59.3945 62.5202C59.3945 66.1042 59.3945 69.7362 59.3945 73.4162C59.3945 77.0642 59.3945 80.6802 59.3945 84.2642C58.1145 84.2642 56.8025 84.2642 55.4585 84.2642C54.1145 84.2642 52.7865 84.2642 51.4745 84.2642ZM108.758 84.2642C108.758 84.0082 108.758 83.7682 108.758 83.5442C108.758 83.2882 108.758 83.0482 108.758 82.8242C107.958 83.4962 107.046 84.0082 106.022 84.3602C105.03 84.7442 103.958 84.9362 102.806 84.9362C101.174 84.9362 99.6376 84.6322 98.1976 84.0242C96.7576 83.3842 95.4776 82.4882 94.3576 81.3362C93.2696 80.1522 92.4056 78.7602 91.7656 77.1602C91.1576 75.5602 90.8536 73.7842 90.8536 71.8322C90.8536 69.8482 91.1576 68.0562 91.7656 66.4562C92.4056 64.8562 93.2696 63.4962 94.3576 62.3762C95.4776 61.2242 96.7576 60.3442 98.1976 59.7362C99.6376 59.0962 101.158 58.7762 102.758 58.7762C103.91 58.7762 104.998 58.9682 106.022 59.3522C107.046 59.7042 107.958 60.2002 108.758 60.8402C108.758 60.5842 108.758 60.3442 108.758 60.1202C108.758 59.8962 108.758 59.6722 108.758 59.4482C110.07 59.4482 111.398 59.4482 112.742 59.4482C114.086 59.4482 115.398 59.4482 116.678 59.4482C116.678 63.5442 116.678 67.6882 116.678 71.8802C116.678 76.0402 116.678 80.1682 116.678 84.2642C115.398 84.2642 114.086 84.2642 112.742 84.2642C111.398 84.2642 110.07 84.2642 108.758 84.2642ZM103.862 77.9282C105.398 77.9282 106.63 77.3682 107.558 76.2482C108.486 75.1282 108.95 73.6562 108.95 71.8322C108.95 70.0082 108.486 68.5522 107.558 67.4642C106.63 66.3442 105.398 65.7842 103.862 65.7842C102.294 65.7842 101.046 66.3282 100.118 67.4162C99.2216 68.5042 98.7736 69.9762 98.7736 71.8322C98.7736 73.6882 99.2216 75.1762 100.118 76.2962C101.046 77.3842 102.294 77.9282 103.862 77.9282ZM124.267 91.9442C124.907 90.2482 125.563 88.5362 126.235 86.8082C126.939 85.1122 127.611 83.4322 128.251 81.7682C126.747 78.0882 125.211 74.3762 123.643 70.6322C122.107 66.8562 120.587 63.1282 119.083 59.4482C120.491 59.4482 121.899 59.4482 123.307 59.4482C124.715 59.4482 126.107 59.4482 127.483 59.4482C128.315 61.4962 129.147 63.5762 129.979 65.6882C130.843 67.8002 131.691 69.8962 132.523 71.9762C133.291 69.8962 134.075 67.8002 134.875 65.6882C135.675 63.5762 136.459 61.4962 137.227 59.4482C138.603 59.4482 139.979 59.4482 141.355 59.4482C142.731 59.4482 144.107 59.4482 145.483 59.4482C143.339 64.7922 141.179 70.2162 139.003 75.7202C136.859 81.1922 134.715 86.6002 132.571 91.9442C131.195 91.9442 129.803 91.9442 128.395 91.9442C127.019 91.9442 125.643 91.9442 124.267 91.9442ZM51.4745 144.264C51.4745 138.888 51.4745 133.448 51.4745 127.944C51.4745 122.44 51.4745 117 51.4745 111.624C53.4585 111.624 55.4425 111.624 57.4265 111.624C59.4425 111.624 61.4265 111.624 63.3785 111.624C65.5865 111.624 67.5225 112.024 69.1865 112.824C70.8505 113.592 72.1465 114.68 73.0745 116.088C74.0025 117.464 74.4665 119.096 74.4665 120.984C74.4665 122.328 74.2105 123.544 73.6985 124.632C73.1865 125.72 72.4185 126.632 71.3945 127.368C72.7385 128.168 73.7625 129.208 74.4665 130.488C75.1705 131.736 75.5225 133.128 75.5225 134.664C75.5225 136.584 75.0265 138.264 74.0345 139.704C73.0745 141.144 71.7145 142.264 69.9545 143.064C68.2265 143.864 66.1945 144.264 63.8585 144.264C61.8105 144.264 59.7465 144.264 57.6665 144.264C55.5865 144.264 53.5225 144.264 51.4745 144.264ZM66.0665 121.8C66.0665 120.968 65.8105 120.296 65.2985 119.784C64.7865 119.24 64.1145 118.968 63.2825 118.968C62.7065 118.968 62.1145 118.968 61.5065 118.968C60.9305 118.968 60.3545 118.968 59.7785 118.968C59.7785 119.864 59.7785 120.792 59.7785 121.752C59.7785 122.68 59.7785 123.608 59.7785 124.536C60.3545 124.536 60.9305 124.536 61.5065 124.536C62.1145 124.536 62.7065 124.536 63.2825 124.536C64.1145 124.536 64.7865 124.296 65.2985 123.816C65.8105 123.304 66.0665 122.632 66.0665 121.8ZM67.1225 133.896C67.1225 133 66.8185 132.296 66.2105 131.784C65.6345 131.24 64.8345 130.968 63.8105 130.968C63.1385 130.968 62.4665 130.968 61.7945 130.968C61.1225 130.968 60.4505 130.968 59.7785 130.968C59.7785 131.96 59.7785 132.952 59.7785 133.944C59.7785 134.936 59.7785 135.928 59.7785 136.92C60.4505 136.92 61.1225 136.92 61.7945 136.92C62.4665 136.92 63.1385 136.92 63.8105 136.92C64.8345 136.92 65.6345 136.648 66.2105 136.104C66.8185 135.56 67.1225 134.824 67.1225 133.896ZM100.948 143.112C98.7402 144.04 96.5482 144.616 94.3722 144.84C92.1962 145.064 90.1322 144.936 88.1802 144.456C86.2602 144.008 84.5482 143.224 83.0442 142.104C81.5402 140.984 80.3562 139.56 79.4922 137.832C78.6602 136.104 78.2442 134.104 78.2442 131.832C78.2442 129.944 78.5482 128.216 79.1562 126.648C79.7962 125.048 80.6922 123.656 81.8442 122.472C82.9962 121.256 84.3562 120.328 85.9242 119.688C87.4922 119.016 89.2042 118.68 91.0602 118.68C92.7242 118.68 94.2282 118.952 95.5722 119.496C96.9162 120.04 98.0842 120.808 99.0762 121.8C100.068 122.76 100.868 123.912 101.476 125.256C102.084 126.6 102.468 128.072 102.628 129.672C102.788 131.272 102.692 132.968 102.34 134.76C99.7162 134.76 97.0762 134.76 94.4202 134.76C91.7642 134.76 89.1242 134.76 86.5002 134.76C87.1082 135.976 88.1162 136.84 89.5242 137.352C90.9642 137.864 92.6602 138.024 94.6122 137.832C96.5962 137.64 98.7082 137.128 100.948 136.296C100.948 137.416 100.948 138.552 100.948 139.704C100.948 140.856 100.948 141.992 100.948 143.112ZM90.8682 125.784C89.9402 125.784 89.0762 126.04 88.2762 126.552C87.5082 127.064 86.9162 127.848 86.5002 128.904C87.9402 128.904 89.3802 128.904 90.8202 128.904C92.2922 128.904 93.7482 128.904 95.1882 128.904C94.8042 127.816 94.2282 127.032 93.4602 126.552C92.7242 126.04 91.8602 125.784 90.8682 125.784ZM107.063 144.264C107.063 138.472 107.063 132.632 107.063 126.744C107.063 120.856 107.063 115.016 107.063 109.224C108.375 109.224 109.703 109.224 111.047 109.224C112.391 109.224 113.703 109.224 114.983 109.224C114.983 115.016 114.983 120.856 114.983 126.744C114.983 132.632 114.983 138.472 114.983 144.264C113.703 144.264 112.391 144.264 111.047 144.264C109.703 144.264 108.375 144.264 107.063 144.264ZM120.75 144.264C120.75 138.472 120.75 132.632 120.75 126.744C120.75 120.856 120.75 115.016 120.75 109.224C122.062 109.224 123.39 109.224 124.734 109.224C126.078 109.224 127.39 109.224 128.67 109.224C128.67 115.016 128.67 120.856 128.67 126.744C128.67 132.632 128.67 138.472 128.67 144.264C127.39 144.264 126.078 144.264 124.734 144.264C123.39 144.264 122.062 144.264 120.75 144.264ZM153.158 136.584C153.158 138.568 152.598 140.2 151.478 141.48C150.39 142.728 148.918 143.64 147.062 144.216C145.206 144.792 143.126 145.032 140.822 144.936C138.55 144.872 136.23 144.504 133.862 143.832C133.862 142.616 133.862 141.368 133.862 140.088C133.862 138.808 133.862 137.56 133.862 136.344C135.206 136.952 136.55 137.432 137.894 137.784C139.238 138.104 140.454 138.296 141.542 138.36C142.63 138.424 143.51 138.344 144.182 138.12C144.854 137.864 145.19 137.448 145.19 136.872C145.19 136.424 144.902 136.072 144.326 135.816C143.782 135.56 143.062 135.336 142.166 135.144C141.27 134.92 140.31 134.664 139.286 134.376C138.294 134.056 137.35 133.624 136.454 133.08C135.558 132.504 134.822 131.752 134.246 130.824C133.702 129.864 133.43 128.632 133.43 127.128C133.43 125.336 133.942 123.816 134.966 122.568C136.022 121.288 137.43 120.328 139.19 119.688C140.95 119.016 142.918 118.68 145.094 118.68C147.27 118.68 149.494 119.048 151.766 119.784C151.766 121 151.766 122.248 151.766 123.528C151.766 124.808 151.766 126.056 151.766 127.272C149.974 126.408 148.294 125.832 146.726 125.544C145.158 125.256 143.894 125.224 142.934 125.448C141.974 125.64 141.494 126.072 141.494 126.744C141.494 127.192 141.766 127.544 142.31 127.8C142.886 128.024 143.606 128.232 144.47 128.424C145.366 128.616 146.31 128.872 147.302 129.192C148.326 129.512 149.27 129.96 150.134 130.536C151.03 131.08 151.75 131.848 152.294 132.84C152.87 133.8 153.158 135.048 153.158 136.584Z" fill="#FFCECE"/>
</svg>
