<svg width="598" height="582" viewBox="0 0 598 582" fill="none" xmlns="http://www.w3.org/2000/svg">
<path d="M190.068 480.699C190.539 458.246 209.541 440.435 232.509 440.917C255.478 441.4 273.716 459.992 273.245 482.444C272.774 504.897 253.772 522.708 230.803 522.226C207.834 521.744 189.596 503.151 190.068 480.699Z" fill="#6697DC"/>
<path d="M268.428 530.775L236.453 498.034L273.34 478.956L268.428 530.775Z" fill="#6697DC"/>
<path d="M192.933 529.191L229.503 495.084L190.199 477.211L192.933 529.191Z" fill="#6697DC"/>
<path d="M253.484 515.688C247.039 519.581 239.425 521.862 231.276 521.952L232.976 440.928C254.602 442.076 271.808 458.526 273.148 478.912L273.32 478.825L273.206 480.021C273.234 480.777 273.241 481.538 273.225 482.303C273.167 485.082 272.816 487.791 272.201 490.402L268.322 530.494L253.484 515.688Z" fill="#6697DC"/>
<path d="M231.47 490.45L193.011 528.912L268.282 530.492L231.47 490.45Z" fill="#2F4ECD" stroke="#FFCECE" stroke-width="3.64669"/>
<path d="M230.646 529.703L211.155 513.166L250.814 513.998L230.646 529.703Z" fill="#6697DC" stroke="#FFCECE" stroke-width="2.43112"/>
<path d="M233.075 436.194L231.936 490.458" stroke="#FFCECE" stroke-width="3.64669"/>
<path d="M195.388 316.362C195.859 293.909 214.861 276.099 237.83 276.581C260.799 277.063 279.036 295.655 278.565 318.107C278.094 340.56 259.092 358.371 236.123 357.889C213.155 357.407 194.917 338.814 195.388 316.362Z" fill="#6697DC"/>
<path d="M273.748 366.439L241.773 333.698L278.66 314.619L273.748 366.439Z" fill="#6697DC"/>
<path d="M198.253 364.854L234.823 330.747L195.519 312.874L198.253 364.854Z" fill="#6697DC"/>
<path d="M258.804 351.35C252.359 355.244 244.745 357.524 236.596 357.614L238.297 276.591C259.923 277.739 277.128 294.189 278.468 314.575L278.641 314.487L278.526 315.684C278.554 316.44 278.561 317.2 278.545 317.965C278.487 320.745 278.136 323.453 277.521 326.064L273.643 366.156L258.804 351.35Z" fill="#6697DC"/>
<path d="M235.957 326.249L197.498 364.712L272.769 366.291L235.957 326.249Z" fill="#2F4ECD" stroke="#FFCECE" stroke-width="3.64669"/>
<path d="M235.965 365.366L216.474 348.828L256.133 349.661L235.965 365.366Z" fill="#6697DC" stroke="#FFCECE" stroke-width="2.43112"/>
<path d="M237.064 273.507L235.926 327.771" stroke="#FFCECE" stroke-width="3.64669"/>
<path d="M459.004 324.426C459.476 301.973 441.238 283.381 418.269 282.899C395.3 282.417 376.298 300.228 375.827 322.68C375.356 345.133 393.594 363.725 416.563 364.207C439.531 364.689 458.533 346.878 459.004 324.426Z" fill="#6697DC"/>
<path d="M378.612 371.171L411.932 339.8L375.878 319.191L378.612 371.171Z" fill="#6697DC"/>
<path d="M454.107 372.755L419.001 337.144L459.019 320.936L454.107 372.755Z" fill="#6697DC"/>
<path d="M394.178 356.723C400.454 360.884 407.966 363.482 416.104 363.914L417.804 282.89C396.149 283.13 378.269 298.843 376.074 319.155L375.905 319.061L375.97 320.261C375.91 321.015 375.871 321.774 375.855 322.539C375.797 325.319 376.034 328.04 376.538 330.674L378.731 370.894L394.178 356.723Z" fill="#6697DC"/>
<path d="M418.057 332.602L454.869 372.644L379.598 371.065L418.057 332.602Z" fill="#2F4ECD" stroke="#FFCECE" stroke-width="3.64669"/>
<path d="M416.407 371.684L436.575 355.979L396.916 355.146L416.407 371.684Z" fill="#6697DC" stroke="#FFCECE" stroke-width="2.43112"/>
<path d="M419.163 279.859L418.024 334.123" stroke="#FFCECE" stroke-width="3.64669"/>
<path d="M198.888 155.27C199.359 132.818 218.361 115.007 241.33 115.489C264.299 115.971 282.536 134.564 282.065 157.016C281.594 179.469 262.592 197.279 239.623 196.797C216.655 196.315 198.417 177.723 198.888 155.27Z" fill="#6697DC"/>
<path d="M277.248 205.347L245.273 172.606L282.16 153.528L277.248 205.347Z" fill="#6697DC"/>
<path d="M201.753 203.763L238.323 169.655L199.019 151.783L201.753 203.763Z" fill="#6697DC"/>
<path d="M262.303 190.259C255.858 194.152 248.244 196.433 240.095 196.523L241.796 115.499C263.422 116.647 280.627 133.097 281.967 153.483L282.14 153.396L282.025 154.592C282.053 155.348 282.06 156.108 282.044 156.873C281.986 159.653 281.635 162.362 281.02 164.972L277.142 205.065L262.303 190.259Z" fill="#6697DC"/>
<path d="M240.289 165.02L201.83 203.482L277.101 205.062L240.289 165.02Z" fill="#2F4ECD" stroke="#FFCECE" stroke-width="3.64669"/>
<path d="M239.464 204.275L219.973 187.737L259.632 188.569L239.464 204.275Z" fill="#6697DC" stroke="#FFCECE" stroke-width="2.43112"/>
<path d="M241.674 115.497L240.535 169.761" stroke="#FFCECE" stroke-width="3.64669"/>
<path d="M462.565 170.912C463.036 148.459 444.798 129.867 421.83 129.385C398.861 128.903 379.859 146.713 379.388 169.166C378.916 191.619 397.154 210.211 420.123 210.693C443.092 211.175 462.094 193.364 462.565 170.912Z" fill="#6697DC"/>
<path d="M382.173 217.657L415.493 186.286L379.439 165.677L382.173 217.657Z" fill="#6697DC"/>
<path d="M457.668 219.241L422.561 183.629L462.58 167.422L457.668 219.241Z" fill="#6697DC"/>
<path d="M397.736 203.208C404.013 207.369 411.524 209.967 419.662 210.399L421.363 129.375C399.708 129.614 381.827 145.328 379.633 165.64L379.464 165.545L379.529 166.746C379.469 167.5 379.429 168.259 379.413 169.024C379.355 171.804 379.592 174.525 380.097 177.159L382.29 217.379L397.736 203.208Z" fill="#6697DC"/>
<path d="M420.79 178.915L457.602 218.957L382.33 217.378L420.79 178.915Z" fill="#2F4ECD" stroke="#FFCECE" stroke-width="3.64669"/>
<path d="M419.966 218.169L440.134 202.464L400.475 201.632L419.966 218.169Z" fill="#6697DC" stroke="#FFCECE" stroke-width="2.43112"/>
<path d="M421.484 129.378L420.346 183.642" stroke="#FFCECE" stroke-width="3.64669"/>
</svg>
