<svg width="735" height="779" viewBox="0 0 735 779" fill="none" xmlns="http://www.w3.org/2000/svg">
<path d="M466.525 298.438C464.39 242.087 418.333 227.427 390.789 254.445" stroke="#036F62" stroke-width="3.99655"/>
<path d="M359.555 696.91L371.226 140.565C372.907 60.4619 282.973 61.474 281.244 143.866" stroke="#036F62" stroke-width="3.99655"/>
<path d="M367.608 693.764L378.962 148.78C380.627 69.4675 469.826 69.0722 468.114 150.651" stroke="#036F62" stroke-width="3.99655"/>
<path d="M277.559 292.183C278.748 235.501 328.314 222.437 354.28 248.954" stroke="#036F62" stroke-width="3.99655"/>
<path d="M272.353 455.976C273.617 395.75 324.789 378.541 350.476 412.441" stroke="#036F62" stroke-width="3.99655"/>
<path d="M352.487 698.402L364.285 136.224C365.461 80.2065 295.89 65.7006 289.092 137.258" stroke="#6CBDAA" stroke-width="3.99655"/>
<path d="M374.497 689.038L386.137 141.917C387.312 85.8992 457.43 74.325 461.221 146.105" stroke="#6CBDAA" stroke-width="3.99655"/>
<path d="M285.107 292.007C290.599 234.206 337.629 231.724 354.777 263.408" stroke="#6CBDAA" stroke-width="3.99655"/>
<path d="M459.726 298.667C456.664 240.687 408.81 236.406 390.347 267.342" stroke="#6CBDAA" stroke-width="3.99655"/>
<path d="M279.056 455.641C284.818 392.477 332.851 390.085 350.593 424.685" stroke="#6CBDAA" stroke-width="3.99655"/>
</svg>
