<svg width="527" height="474" viewBox="0 0 527 474" fill="none" xmlns="http://www.w3.org/2000/svg">
<path d="M201.672 367.415L202.032 350.277C202.848 311.408 203.255 291.974 196.002 276.969C189.623 263.771 179.228 252.931 166.309 246.003C151.622 238.127 132.187 237.719 93.3184 236.903L90.3642 236.841L201.672 367.415Z" fill="#036F62"/>
<path d="M88.9899 243.712L88.6303 260.85C87.8145 299.718 87.4069 319.153 94.6597 334.158C101.039 347.356 111.434 358.196 124.353 365.124C139.04 373 158.475 373.408 197.344 374.224L200.298 374.286L88.9899 243.712Z" fill="#6CBDAA"/>
<path d="M238.677 292.661L239.267 264.514C240.607 200.676 241.277 168.758 254.212 144.635C265.591 123.417 283.394 106.345 305.072 95.8672C329.715 83.9554 361.634 84.6249 425.471 85.9646L430.323 86.0665L238.677 292.661Z" fill="#036F62"/>
<path d="M430.156 94.1122L429.565 122.259C428.225 186.097 427.555 218.015 414.62 242.137C403.241 263.356 385.438 280.427 363.76 290.906C339.117 302.817 307.198 302.148 243.361 300.808L238.509 300.706L430.156 94.1122Z" fill="#6CBDAA"/>
</svg>
