<svg width="96" height="415" viewBox="0 0 96 415" fill="none" xmlns="http://www.w3.org/2000/svg">
<path d="M23.0572 57.3588C19.7479 61.529 20.4458 67.5924 24.616 70.9018C28.7863 74.2111 34.8497 73.5132 38.159 69.3429C35.0305 66.8603 34.7785 66.66 30.6083 63.3507C26.438 60.0414 26.4035 60.0142 23.0572 57.3588Z" fill="#FE9973"/>
<path d="M45.0252 12.4944C42.86 7.63075 37.162 5.44326 32.2984 7.60847C27.4348 9.77367 25.2473 15.4716 27.4125 20.3353C31.0612 18.7109 31.3553 18.5802 36.2189 16.415C41.0825 14.2498 41.1225 14.2318 45.0252 12.4944Z" fill="#FE9973"/>
<path d="M72.8986 56.4919C78.0922 57.662 83.251 54.4003 84.4211 49.2067C85.5913 44.0131 82.3296 38.8542 77.136 37.6841C76.2581 41.5804 76.1872 41.8943 75.0171 47.0879C73.847 52.2816 73.8375 52.3244 72.8986 56.4919Z" fill="#FE9973"/>
<path d="M18.5814 37.4685C13.3613 38.5141 9.97724 43.5935 11.0229 48.8136C12.0685 54.0337 17.1478 57.4177 22.3679 56.3721C21.5835 52.456 21.5205 52.1403 20.4749 46.9202C19.4293 41.7002 19.4204 41.6572 18.5814 37.4685Z" fill="#F88256"/>
<path d="M64.7286 17.7312C66.2176 12.6199 63.281 7.26925 58.1697 5.78028C53.0584 4.29131 47.7078 7.22781 46.2188 12.3391C50.0533 13.4562 50.3623 13.5464 55.4736 15.0354C60.585 16.5243 60.6272 16.5364 64.7286 17.7312Z" fill="#F88256"/>
<path d="M56.9259 69.1614C60.1346 73.4096 66.1796 74.2522 70.4278 71.0435C74.676 67.8348 75.5186 61.7899 72.3099 57.5417C69.123 59.9488 68.866 60.1427 64.6178 63.3514C60.3696 66.5601 60.3348 66.5867 56.9259 69.1614Z" fill="#F88256"/>
<path d="M46.888 42.8361L23.052 57.3707L38.1489 69.351L46.888 42.8361Z" fill="#FE9973"/>
<path d="M46.8705 40.3402L45.0175 12.4838L27.4105 20.3222L46.8705 40.3402Z" fill="#FE9973"/>
<path d="M49.4682 41.3317L72.9116 56.4915L77.1476 37.6898L49.4682 41.3317Z" fill="#FE9973"/>
<path d="M46.1532 41.7765L18.5688 37.474L22.3541 56.3715L46.1532 41.7765Z" fill="#F88256"/>
<path d="M48.1483 40.18L64.7284 17.7187L46.2246 12.3284L48.1483 40.18Z" fill="#F88256"/>
<path d="M48.8328 42.4531L56.9355 69.1693L72.3146 57.5533L48.8328 42.4531Z" fill="#F88256"/>
<path d="M46.2292 42.2044L37.2154 47.7315L37.2321 47.8769L36.7775 47.9675C34.4672 48.43 32.2183 46.9323 31.7555 44.6217C31.2928 42.3112 32.7915 40.0631 35.102 39.6003L35.5674 39.5071L35.6046 39.6488L46.0441 41.2783L47.3966 41.4889L46.2292 42.2044Z" fill="#6697DC" stroke="#FBF6F2" stroke-width="1.0065"/>
<path d="M47.7348 40.0479L47.0068 29.4995L46.8701 29.4471L47.0003 29.0022C47.6595 26.74 50.028 25.4397 52.2904 26.0987C54.5527 26.7579 55.8519 29.1269 55.1929 31.3892L55.0601 31.8449L54.9173 31.8123L48.6414 40.3124L47.8287 41.4139L47.7348 40.0479Z" fill="#6697DC" stroke="#FBF6F2" stroke-width="1.0065"/>
<path d="M49.1861 42.1996L58.0791 47.919L58.2028 47.8408L58.4818 48.211C59.9017 50.0913 59.5291 52.7675 57.6488 54.1877C55.7683 55.6079 53.0924 55.234 51.6722 53.3537L51.3862 52.975L51.4977 52.88L48.4322 42.7685L48.0346 41.4587L49.1861 42.1996Z" fill="#6697DC" stroke="#FBF6F2" stroke-width="1.0065"/>
<path d="M47.3243 42.986L44.0764 53.0188L44.198 53.1153L43.8889 53.5096C42.4338 55.3631 39.751 55.6855 37.8974 54.2305C36.044 52.7754 35.7209 50.0934 37.1759 48.2398L37.4196 47.9296L37.5383 47.9826L46.5815 42.4028L47.7465 41.6841L47.3243 42.986Z" fill="#6697DC" stroke="#FBF6F2" stroke-width="1.0065"/>
<path d="M46.5342 40.6573L39.1436 33.1349L39.0017 33.198L38.7953 32.7416C37.8257 30.5939 38.7815 28.0665 40.9291 27.0967C43.0767 26.1271 45.6038 27.082 46.5735 29.2296L46.7358 29.5893L46.6338 29.6699L47.3949 40.2687L47.4928 41.634L46.5342 40.6573Z" fill="#6697DC" stroke="#FBF6F2" stroke-width="1.0065"/>
<path d="M49.4151 40.8732L59.863 39.4421L59.8972 39.2907L60.3865 39.3979C62.688 39.9037 64.1434 42.1804 63.6377 44.4819C63.1318 46.7833 60.8562 48.239 58.5546 47.7333L58.1693 47.6485L58.1656 47.5185L49.2123 41.7955L48.0591 41.0582L49.4151 40.8732Z" fill="#6697DC" stroke="#FBF6F2" stroke-width="1.0065"/>
<path d="M46.0837 77.1191V414.239" stroke="#6CBDAA" stroke-width="2.013"/>
<path d="M49.5691 83.8403L49.5693 413.546" stroke="#036F62" stroke-width="2.013"/>
<ellipse cx="3.21444" cy="3.36771" rx="3.21444" ry="3.36771" transform="matrix(-0.0107725 0.999942 0.999952 0.00981418 41.1289 65.2798)" fill="#6CBDAA"/>
<ellipse cx="3.21444" cy="3.36771" rx="3.21444" ry="3.36771" transform="matrix(-0.0107725 0.999942 -0.999952 -0.00981418 54.6462 65.4136)" fill="#6CBDAA"/>
<rect width="10.9869" height="6.73426" transform="matrix(-0.0107725 0.999942 0.999952 0.00981418 41.0981 68.2144)" fill="#6CBDAA"/>
<rect width="10.9869" height="6.73426" transform="matrix(-0.0107725 0.999942 -0.999952 -0.00981418 54.6138 68.3462)" fill="#6CBDAA"/>
<path d="M47.6708 85.495C47.7094 81.912 47.6712 85.4617 47.7094 81.912C47.7476 78.3622 47.7058 82.2462 47.74 79.0676C44.021 79.0311 43.8157 79.0291 41.0061 79.0015C40.9679 82.5512 43.9517 85.4585 47.6708 85.495Z" fill="#036F62"/>
<path d="M47.6702 85.4951C47.7088 81.9121 47.6706 85.4619 47.7088 81.9121C47.7471 78.3624 47.7052 82.2464 47.7395 79.0677C51.4585 79.1042 51.6638 79.1062 54.4734 79.1338C54.4351 82.6835 51.3893 85.5316 47.6702 85.4951Z" fill="#036F62"/>
<path d="M41.0785 70.1022C41.0399 73.6852 41.0781 70.1354 41.0399 73.6852C41.0016 77.2349 41.0435 73.351 41.0092 76.5296C44.7283 76.5661 44.9336 76.5681 47.7432 76.5957C47.7814 73.0459 44.7975 70.1387 41.0785 70.1022Z" fill="#036F62"/>
<path d="M54.5935 70.2354C54.5549 73.8183 54.5931 70.2686 54.5549 73.8183C54.5166 77.3681 54.5585 73.4841 54.5242 76.6628C50.8052 76.6263 50.5999 76.6242 47.7903 76.5967C47.8285 73.0469 50.8744 70.1989 54.5935 70.2354Z" fill="#036F62"/>
<rect width="2.47152" height="6.73426" transform="matrix(-0.0107725 0.999942 0.999952 0.00981418 41.0098 76.5298)" fill="#036F62"/>
<rect width="2.47152" height="6.73426" transform="matrix(-0.0107725 0.999942 -0.999952 -0.00981418 54.5234 76.6631)" fill="#036F62"/>
<path d="M47.8142 78.9224L48.0418 66.3081" stroke="#FBF6F2" stroke-width="1.50975"/>
<path d="M47.7383 340.172V407.115" stroke="#FBF6F2" stroke-width="1.0065"/>
<path d="M42.0743 238.859L42.0521 233.855C42.0016 222.507 41.9763 216.833 39.7486 212.508C37.7889 208.704 34.6753 205.618 30.854 203.692C26.5097 201.503 20.8355 201.528 9.48729 201.579L8.62476 201.583L42.0743 238.859Z" fill="#036F62"/>
<path d="M53.4179 285.709L53.4348 281.927C53.4729 273.348 53.492 269.059 55.1761 265.79C56.6574 262.914 59.0111 260.581 61.8998 259.126C65.1838 257.471 69.473 257.49 78.0515 257.528L78.7036 257.531L53.4179 285.709Z" fill="#036F62"/>
<path d="M42.9049 131.709L42.8774 125.539C42.8152 111.545 42.784 104.548 40.0369 99.2152C37.6205 94.5243 33.781 90.7188 29.0688 88.3441C23.7117 85.6446 16.7149 85.6756 2.72108 85.7378L1.65748 85.7425L42.9049 131.709Z" fill="#036F62"/>
<path d="M95.3878 129.678L95.3606 135.797C95.2989 149.675 95.268 156.614 92.5435 161.903C90.147 166.555 86.3392 170.329 81.6659 172.684C76.3531 175.362 69.414 175.331 55.5358 175.269L54.481 175.264L95.3878 129.678Z" fill="#036F62"/>
<path d="M7.28049 201.825L7.30318 206.929C7.35464 218.505 7.38044 224.293 9.65287 228.704C11.6518 232.584 14.8278 235.732 18.7258 237.696C23.1572 239.93 28.945 239.904 40.5208 239.852L41.4006 239.849L7.28049 201.825Z" fill="#6CBDAA"/>
<path d="M79.7196 257.713L79.7024 261.572C79.6635 270.322 79.644 274.697 77.9262 278.032C76.4152 280.965 74.0143 283.345 71.0677 284.83C67.7179 286.518 63.3427 286.499 54.5922 286.46L53.9271 286.457L79.7196 257.713Z" fill="#6CBDAA"/>
<path d="M-3.65817e-05 86.0415L0.0279419 92.3352C0.0913979 106.609 0.123214 113.747 2.9254 119.186C5.39029 123.971 9.30676 127.853 14.1134 130.275C19.5778 133.029 26.715 132.997 40.9893 132.934L42.0742 132.929L-3.65817e-05 86.0415Z" fill="#6CBDAA"/>
<path d="M52.8374 174.967L52.8651 168.726C52.9281 154.569 52.9596 147.491 55.7387 142.096C58.1832 137.351 62.0673 133.501 66.8343 131.099C72.2536 128.368 79.3318 128.399 93.4883 128.462L94.5642 128.467L52.8374 174.967Z" fill="#6CBDAA"/>
</svg>
