<svg width="69" height="325" viewBox="0 0 69 325" fill="none" xmlns="http://www.w3.org/2000/svg">
<rect x="40.1548" y="35.1211" width="1.75416" height="289.159" fill="#6CBDAA"/>
<rect x="37.2314" y="35.1211" width="1.75416" height="289.159" fill="#036F62"/>
<path d="M35.4768 119.546V114.213C35.4768 102.117 35.4767 96.0691 33.1227 91.449C31.052 87.3851 27.7478 84.081 23.6838 82.0103C19.0636 79.6563 13.0155 79.6562 0.919334 79.6562H-3.8147e-05L35.4768 119.546Z" fill="#6CBDAA"/>
<path d="M0 81.1809V86.5141C0 98.61 7.43946e-05 104.658 2.35414 109.278C4.42485 113.342 7.72902 116.646 11.793 118.717C16.4132 121.071 22.4613 121.071 34.5575 121.071H35.4768L0 81.1809Z" fill="#036F62"/>
<path d="M68.4248 122.278V126.014C68.4248 134.487 68.4248 138.723 66.7758 141.96C65.3253 144.806 63.0107 147.121 60.1639 148.571C56.9276 150.22 52.691 150.22 44.2177 150.22H43.5737L68.4248 122.278Z" fill="#6CBDAA"/>
<path d="M43.5737 149.152V145.416C43.5737 136.943 43.5738 132.706 45.2228 129.47C46.6733 126.623 48.9878 124.309 51.8346 122.858C55.071 121.21 59.3076 121.209 67.7808 121.209H68.4248L43.5737 149.152Z" fill="#036F62"/>
<path d="M35.4768 193.874V190.138C35.4768 181.665 35.4768 177.428 33.8278 174.192C32.3773 171.345 30.0627 169.031 27.2159 167.58C23.9796 165.931 19.743 165.931 11.2697 165.931H10.6257L35.4768 193.874Z" fill="#6CBDAA"/>
<path d="M10.6257 166.999V170.735C10.6257 179.208 10.6258 183.445 12.2748 186.681C13.7253 189.528 16.0398 191.842 18.8866 193.293C22.123 194.942 26.3596 194.942 34.8328 194.942H35.4768L10.6257 166.999Z" fill="#036F62"/>
<path d="M43.8665 241.307V238.285C43.8665 231.432 43.8665 228.006 45.2002 225.389C46.3733 223.086 48.2453 221.214 50.5477 220.041C53.1652 218.708 56.5917 218.708 63.4447 218.708H63.9656L43.8665 241.307Z" fill="#6CBDAA"/>
<path d="M63.9656 219.572V222.593C63.9656 229.446 63.9655 232.872 62.6319 235.49C61.4587 237.792 59.5868 239.664 57.2843 240.837C54.6668 242.171 51.2403 242.171 44.3873 242.171H43.8665L63.9656 219.572Z" fill="#036F62"/>
<path d="M35.4768 270.373V268.081C35.4768 262.884 35.4768 260.285 34.4653 258.3C33.5755 256.554 32.1558 255.134 30.4095 254.244C28.4243 253.233 25.8255 253.233 20.628 253.233H20.2329L35.4768 270.373Z" fill="#6CBDAA"/>
<path d="M20.2329 253.888V256.18C20.2329 261.377 20.2329 263.976 21.2444 265.961C22.1342 267.707 23.554 269.127 25.3002 270.017C27.2854 271.028 29.8842 271.028 35.0818 271.028H35.4768L20.2329 253.888Z" fill="#036F62"/>
<path d="M28.0791 81.1809L35.9728 76.8767V85.485L28.0791 81.1809Z" fill="#036F62"/>
<path d="M28.0791 132.676L35.9728 128.372V136.981L28.0791 132.676Z" fill="#036F62"/>
<path d="M28.0791 157.567L35.9728 153.262V161.871L28.0791 157.567Z" fill="#036F62"/>
<path d="M28.0791 209.631L35.9728 205.326V213.935L28.0791 209.631Z" fill="#036F62"/>
<path d="M28.0791 230.638L35.9728 226.334V234.943L28.0791 230.638Z" fill="#036F62"/>
<path d="M28.0791 282.117L35.9728 277.813V286.421L28.0791 282.117Z" fill="#036F62"/>
<path d="M51.2654 99.6013L43.3716 95.2971V103.905L51.2654 99.6013Z" fill="#6CBDAA"/>
<path d="M51.2654 121.071L43.3716 116.767V125.375L51.2654 121.071Z" fill="#6CBDAA"/>
<path d="M51.5569 166.72L43.6632 162.416V171.024L51.5569 166.72Z" fill="#6CBDAA"/>
<path d="M51.5569 187.029L43.6632 182.724V191.333L51.5569 187.029Z" fill="#6CBDAA"/>
<path d="M51.2654 208.937L43.3716 204.633V213.241L51.2654 208.937Z" fill="#6CBDAA"/>
<path d="M51.5569 254.907L43.6632 250.603V259.211L51.5569 254.907Z" fill="#6CBDAA"/>
<path d="M51.5569 275.998L43.6632 271.694V280.302L51.5569 275.998Z" fill="#6CBDAA"/>
<path d="M61.4077 5.03444C61.4077 3.54459 60.1988 2.33878 58.7219 2.53482C48.8765 3.84166 30.6809 11.7225 27.5431 27.299C27.5097 27.4646 27.4939 27.6326 27.4939 27.8016C27.4939 38.1145 27.4939 52.7092 27.4939 60.503C27.4939 61.7982 28.4138 62.9245 29.7036 63.042C41.2222 64.0919 56.9063 57.3515 61.2842 43.9754C61.368 43.7196 61.4077 43.4525 61.4077 43.1834C61.4077 30.6897 61.4075 14.6249 61.4077 5.03444Z" fill="#E94812"/>
<path d="M55.5605 1.7551C55.5605 0.784973 54.7785 -0.00412137 53.809 0.0316502C46.8715 0.287629 33.8046 2.37502 31.6088 15.9291C31.5943 16.0184 31.587 16.1101 31.587 16.2006C31.587 25.3427 31.587 38.4369 31.587 45.0285C31.587 45.8454 32.1482 46.5611 32.9588 46.6623C41.1464 47.6846 52.433 41.8249 55.5057 30.1137C55.5425 29.9736 55.5605 29.8266 55.5605 29.6817C55.5605 18.7366 55.5604 9.28719 55.5605 1.7551Z" fill="#D13B09"/>
<path d="M43.2815 49.7034C43.2815 50.6735 42.4973 51.455 41.5361 51.3235C34.6052 50.3757 21.5449 44.2396 19.3345 32.0213C19.3166 31.9226 19.3079 31.8227 19.3079 31.7224C19.3079 23.5703 19.3079 11.9454 19.3079 5.96467C19.3079 5.13325 19.8888 4.41345 20.7125 4.30062C28.8862 3.18095 40.1273 6.4709 43.214 16.9434C43.2594 17.0971 43.2815 17.2563 43.2815 17.4165C43.2814 27.328 43.2813 41.9995 43.2815 49.7034Z" fill="#E94812"/>
<path d="M64.3313 28.6511C64.3313 27.681 63.5477 26.8951 62.584 27.0061C55.6638 27.8034 42.6366 32.9533 40.395 43.2045C40.3697 43.3205 40.3577 43.4384 40.3577 43.5571C40.3577 50.2931 40.3577 59.8158 40.3577 64.9122C40.3577 65.7647 40.9686 66.5014 41.8177 66.5776C49.9644 67.3093 61.1227 62.9078 64.2383 54.1359C64.3015 53.9582 64.3313 53.7714 64.3313 53.5828C64.3313 45.4134 64.3311 34.916 64.3313 28.6511Z" fill="#E94812"/>
<path d="M9.9522 8.53883C9.95218 7.04898 11.1666 5.85292 12.6269 6.14812C22.3123 8.10603 40.1587 19.4449 43.2344 35.1039C43.2663 35.2662 43.2812 35.4315 43.2812 35.597C43.2812 45.8547 43.2812 57.0753 43.2812 64.2576C43.2812 65.5487 42.3675 66.666 41.0884 66.842C29.7689 68.3996 14.3695 65.7674 10.0719 52.4221C9.99105 52.171 9.95215 51.9094 9.95215 51.6457C9.95221 38.9698 9.95236 18.8434 9.9522 8.53883Z" fill="#D13B09"/>
<path d="M18.7234 7.60107C26.2264 10.69 41.9508 21.0023 43.8664 36.5896C43.8664 52.9847 43.627 64.1524 43.627 67.2413" stroke="#FBF6F2" stroke-width="2.41809"/>
<path d="M33.3416 5.2627C40.1243 9.48937 42.931 12.307 43.8666 17.9423C43.8666 34.1436 43.8666 32.0304 43.8666 35.0828" stroke="#FBF6F2" stroke-width="2.41809"/>
<path d="M63.747 26.312C59.537 26.312 50.4153 28.4709 43.8665 35.6673" stroke="#FBF6F2" stroke-width="2.41809"/>
<path d="M56.1453 28.0662V0.584961" stroke="#FBF6F2" stroke-width="2.41809"/>
</svg>
