<svg width="106" height="482" viewBox="0 0 106 482" fill="none" xmlns="http://www.w3.org/2000/svg">
<path d="M50.6042 65.3828H52.4855V481.868H50.6042V65.3828Z" fill="#036F62"/>
<path d="M53.426 65.3823H55.3073V481.868H53.426V65.3823Z" fill="#6CBDAA"/>
<path d="M56.7783 158.367V152.377C56.7783 138.793 56.7784 132.002 59.422 126.813C61.7474 122.249 65.4579 118.539 70.0217 116.213C75.2101 113.57 82.002 113.57 95.5858 113.57H96.6183L56.7783 158.367Z" fill="#036F62"/>
<path d="M96.6187 115.281V121.271C96.6187 134.854 96.6186 141.646 93.975 146.835C91.6496 151.399 87.9391 155.109 83.3753 157.434C78.1869 160.078 71.395 160.078 57.8111 160.078H56.7787L96.6187 115.281Z" fill="#6CBDAA"/>
<path d="M49.2283 201.53V196.243C49.2283 184.253 49.2282 178.258 46.8948 173.678C44.8422 169.65 41.567 166.375 37.5386 164.322C32.9589 161.989 26.9638 161.989 14.9736 161.989H14.0623L49.2283 201.53Z" fill="#6CBDAA"/>
<path d="M14.0623 163.5V168.786C14.0623 180.777 14.0623 186.772 16.3958 191.351C18.4483 195.38 21.7236 198.655 25.7519 200.708C30.3316 203.041 36.3267 203.041 48.3169 203.041H49.2282L14.0623 163.5Z" fill="#036F62"/>
<path d="M49.2283 276.999V272.396C49.2283 261.958 49.2282 256.739 47.1968 252.752C45.4099 249.245 42.5585 246.394 39.0515 244.607C35.0646 242.575 29.8454 242.575 19.407 242.575H18.6136L49.2283 276.999Z" fill="#6CBDAA"/>
<path d="M18.6135 243.891V248.493C18.6135 258.932 18.6136 264.151 20.645 268.138C22.4319 271.645 25.2833 274.496 28.7903 276.283C32.7772 278.314 37.9964 278.314 48.4348 278.314H49.2282L18.6135 243.891Z" fill="#036F62"/>
<path d="M82.5691 299.172V303.049C82.5691 311.842 82.569 316.239 80.8577 319.598C79.3524 322.552 76.9504 324.954 73.996 326.46C70.6373 328.171 66.2406 328.171 57.4471 328.171H56.7788L82.5691 299.172Z" fill="#6CBDAA"/>
<path d="M56.7788 327.063V323.186C56.7788 314.392 56.7789 309.996 58.4902 306.637C59.9955 303.683 62.3975 301.281 65.3519 299.775C68.7106 298.064 73.1073 298.064 81.9008 298.064H82.5691L56.7788 327.063Z" fill="#036F62"/>
<path d="M49.228 377.908V374.996C49.228 368.391 49.228 365.089 47.9426 362.566C46.8119 360.347 45.0077 358.543 42.7887 357.412C40.2659 356.127 36.9635 356.126 30.3586 356.126H29.8566L49.228 377.908Z" fill="#6CBDAA"/>
<path d="M29.8564 356.959V359.871C29.8564 366.476 29.8565 369.779 31.1419 372.301C32.2726 374.52 34.0767 376.325 36.2958 377.455C38.8185 378.741 42.121 378.741 48.7259 378.741H49.2279L29.8564 356.959Z" fill="#036F62"/>
<path d="M50.492 34.2905C51.8887 33.4841 53.6096 33.4841 55.0064 34.2905L64.7027 39.8886C66.0994 40.6951 66.9599 42.1854 66.9599 43.7983V54.9945C66.9599 56.6074 66.0994 58.0977 64.7027 58.9042L55.0064 64.5023C53.6096 65.3087 51.8887 65.3087 50.492 64.5023L40.7957 58.9042C39.3989 58.0977 38.5385 56.6074 38.5385 54.9945V43.7983C38.5385 42.1854 39.3989 40.6951 40.7957 39.8886L50.492 34.2905Z" fill="#FE9973"/>
<path d="M67.622 39.896C63.9405 37.8132 68.898 40.618 64.5303 38.1469C60.1627 35.6759 61.258 36.2956 61.258 36.2956C61.258 36.2956 74.0627 13.6625 79.372 4.27814C83.7396 6.74915 77.6261 22.2133 67.622 39.896Z" fill="#FFCECE"/>
<path d="M53.3183 32.1428C56.9999 34.2256 52.1968 31.5083 56.5644 33.9793C60.9321 36.4503 59.8368 35.8306 59.8368 35.8306C59.8368 35.8306 72.6415 13.1976 77.9508 3.81317C73.5831 1.34216 63.3224 14.46 53.3183 32.1428Z" fill="#FFB1B1"/>
<path d="M68.4842 57.1455C68.4931 52.9156 68.4811 58.6116 68.4917 53.5934C68.5022 48.5752 68.4996 49.8336 68.4996 49.8336C68.4996 49.8336 94.5037 49.8882 105.286 49.9109C105.275 54.9291 88.8007 57.1882 68.4842 57.1455Z" fill="#FFCECE"/>
<path d="M68.7527 41.1719C68.7438 45.4017 68.7554 39.8832 68.7449 44.9014C68.7343 49.9196 68.737 48.6612 68.737 48.6612C68.737 48.6612 94.7411 48.7159 105.523 48.7385C105.534 43.7203 89.0692 41.2145 68.7527 41.1719Z" fill="#FFB1B1"/>
<path d="M54.1537 67.1689C57.7996 65.0243 52.8901 67.9123 57.2154 65.3679C61.5407 62.8236 60.4561 63.4616 60.4561 63.4616C60.4561 63.4616 73.6409 85.8753 79.1077 95.1689C74.7824 97.7132 64.4547 84.6804 54.1537 67.1689Z" fill="#FFCECE"/>
<path d="M68.0413 59.2714C64.3955 61.4161 69.1521 58.6181 64.8267 61.1624C60.5014 63.7068 61.586 63.0687 61.586 63.0687C61.586 63.0687 74.7708 85.4825 80.2377 94.776C84.5631 92.2316 78.3424 76.7829 68.0413 59.2714Z" fill="#FFB1B1"/>
<path d="M37.928 58.8974C41.5614 61.0631 36.6686 58.1468 40.9792 60.7161C45.2898 63.2853 44.2089 62.6411 44.2089 62.6411C44.2089 62.6411 30.8949 84.9783 25.3745 94.2401C21.0639 91.6708 27.5261 76.3491 37.928 58.8974Z" fill="#FFCECE"/>
<path d="M51.5303 67.2775C47.8969 65.1119 52.6372 67.9373 48.3267 65.368C44.0161 62.7987 45.097 63.443 45.097 63.443C45.097 63.443 31.7831 85.7803 26.2627 95.0421C30.5733 97.6114 41.1284 84.7292 51.5303 67.2775Z" fill="#FFB1B1"/>
<path d="M36.7764 41.9645C36.8743 46.1932 36.7425 40.4988 36.8586 45.5157C36.9747 50.5325 36.9456 49.2745 36.9456 49.2745C36.9456 49.2745 10.9484 49.8762 0.169113 50.1257C0.0529845 45.1089 16.4653 42.4346 36.7764 41.9645Z" fill="#FFCECE"/>
<path d="M36.8606 58.2923C36.8255 54.0625 36.8713 59.5809 36.8297 54.5628C36.788 49.5448 36.7984 50.8032 36.7984 50.8032C36.7984 50.8032 10.7952 51.0191 0.0133733 51.1087C0.0550466 56.1267 16.5448 58.461 36.8606 58.2923Z" fill="#FFB1B1"/>
<path d="M51.5219 31.4833C47.9497 33.7485 52.7601 30.6982 48.5221 33.3856C44.2841 36.0729 45.3468 35.399 45.3468 35.399C45.3468 35.399 31.2343 13.1435 25.3828 3.91551C29.6207 1.22816 40.496 14.0955 51.5219 31.4833Z" fill="#FFCECE"/>
<path d="M37.7105 39.8952C41.3159 37.6832 36.6121 40.569 40.8895 37.9449C45.1669 35.3207 44.0942 35.9787 44.0942 35.9787C44.0942 35.9787 30.496 13.8136 24.8576 4.62324C20.5802 7.24742 27.0864 22.578 37.7105 39.8952Z" fill="#FFB1B1"/>
</svg>
