<svg width="87" height="209" viewBox="0 0 87 209" fill="none" xmlns="http://www.w3.org/2000/svg">
<path d="M46.3699 141.842V135.871C46.3699 122.329 46.37 115.558 49.0054 110.385C51.3237 105.836 55.0229 102.136 59.5727 99.8182C64.7452 97.1827 71.5163 97.1826 85.0586 97.1826H86.0879L46.3699 141.842Z" fill="#036F62"/>
<path d="M86.0881 98.8892V104.86C86.0881 118.402 86.0881 125.173 83.4526 130.346C81.1343 134.896 77.4351 138.595 72.8853 140.913C67.7128 143.549 60.9417 143.549 47.3994 143.549H46.3701L86.0881 98.8892Z" fill="#6CBDAA"/>
<path d="M43.031 64.9705V208.125" stroke="#036F62" stroke-width="2.11201"/>
<path d="M39.615 65.3296V208.09" stroke="#6CBDAA" stroke-width="2.11201"/>
<path d="M37.136 123.399V117.816C37.136 105.154 37.1359 98.8233 34.6718 93.9871C32.5042 89.733 29.0455 86.2744 24.7915 84.1068C19.9553 81.6427 13.6244 81.6426 0.96249 81.6426H0.000125885L37.136 123.399Z" fill="#6CBDAA"/>
<path d="M0 83.2389V88.8216C0 101.483 7.78736e-05 107.814 2.46423 112.651C4.63177 116.905 8.09046 120.363 12.3445 122.531C17.1807 124.995 23.5116 124.995 36.1735 124.995H37.1359L0 83.2389Z" fill="#036F62"/>
<ellipse cx="42.6674" cy="35.8818" rx="19.2457" ry="34.9296" fill="#E3D03B"/>
<path d="M32.8714 31.901C38.3273 12.7559 48.0948 -0.433413 59.5354 1.53636L46.9519 70.7499C28.3876 71.8676 26.7934 53.2295 32.8714 31.901Z" fill="#E4EB33"/>
<path d="M59.4878 1.79811C70.2069 4.5726 74.5082 19.7418 73.2661 39.3363C72.1606 56.7742 65.0156 70.2613 46.9519 70.7499L59.4878 1.79811Z" fill="#F7FFB9"/>
<path d="M53.2364 32.0362C47.7806 12.8912 38.0131 -0.298159 26.5725 1.67162L39.156 70.8851C57.7203 72.0029 59.3145 53.3648 53.2364 32.0362Z" fill="#FDF082"/>
<path d="M26.5725 1.67162C15.8534 4.44611 11.5521 19.6154 12.7942 39.2099C13.8996 56.6478 21.0446 70.1349 39.1084 70.6234L26.5725 1.67162Z" fill="#F8CB27"/>
<path d="M26.8206 0.952148L39.0148 70.5506" stroke="#FBF6F2" stroke-width="2.11201"/>
<path d="M35.6799 1.95068C51.205 17.5242 51.9334 25.3547 55.4689 37.7181C57.7604 51.578 60.3097 65.6911 41.8152 71.0513" stroke="#FBF6F2" stroke-width="2.11201"/>
<path d="M59.6177 1.0415L54.1335 32.12" stroke="#FBF6F2" stroke-width="2.11201"/>
<path d="M42.667 9.34388C44.7795 6.06712 50.1701 1.05621 52.6571 1.05615" stroke="#FBF6F2" stroke-width="2.11201"/>
</svg>
