<svg width="106" height="83" viewBox="0 0 106 83" fill="none" xmlns="http://www.w3.org/2000/svg">
<path d="M3.49503e-05 41.6962L0.0203658 46.2696C0.0664768 56.6422 0.089596 61.8284 2.12583 65.7813C3.91697 69.2583 6.76292 72.079 10.2557 73.8392C14.2265 75.8402 19.4128 75.8172 29.7853 75.7711L30.5737 75.7676L3.49503e-05 41.6962Z" fill="#036F62"/>
<path d="M31.4613 74.4016L31.4405 69.7366C31.3935 59.1561 31.3699 53.8658 29.2929 49.8337C27.4658 46.287 24.5628 43.4097 21 41.6143C16.9496 39.5732 11.6594 39.5966 1.07887 39.6437L0.274696 39.6472L31.4613 74.4016Z" fill="#6CBDAA"/>
<path d="M34.169 76.6895L34.156 32.0234C34.3373 -8.7513 83.2174 -9.69914 83.0309 32.2406" stroke="#036F62" stroke-width="2.22735"/>
<path d="M38.0389 76.6893L38.0206 29.3486C38.1463 1.0954 76.4656 -5.31134 79.2076 30.8489" stroke="#6CBDAA" stroke-width="2.22735"/>
<path d="M104.3 48.4476C104.355 36.1386 94.1914 26.1148 81.5995 26.0589C69.0075 26.0029 58.7554 35.9359 58.7007 48.2449C58.6459 60.5539 68.8094 70.5776 81.4013 70.6336C93.9933 70.6896 104.245 60.7566 104.3 48.4476Z" fill="#6697DC"/>
<path d="M60.6664 74.794L78.6426 57.2999L58.697 46.3323L60.6664 74.794Z" fill="#6697DC"/>
<path d="M102.054 74.978L82.4921 55.7799L104.277 46.5349L102.054 74.978Z" fill="#6697DC"/>
<path d="M69.0652 66.735C72.5426 68.9583 76.6827 70.3138 81.1465 70.4768L81.3439 26.058C69.4785 26.3855 59.822 35.1593 58.8036 46.3106L58.7101 46.2603L58.7563 46.9176C58.7304 47.3312 58.7158 47.7478 58.7139 48.1672C58.7071 49.6912 58.8617 51.1801 59.1621 52.6192L60.7287 74.6409L69.0652 66.735Z" fill="#6697DC"/>
<path d="M81.479 53.2124L102.016 74.8229L60.7507 74.6395L81.479 53.2124Z" fill="#2F4ECD" stroke="#FBF6F2" stroke-width="2.03236"/>
<path d="M81.3832 74.7326L92.2934 65.9428L70.5516 65.8461L81.3832 74.7326Z" fill="#6697DC" stroke="#FBF6F2" stroke-width="1.35491"/>
<path d="M81.4119 26.0581L81.2796 55.8068" stroke="#FBF6F2" stroke-width="2.03236"/>
</svg>
