<svg width="144" height="304" viewBox="0 0 144 304" fill="none" xmlns="http://www.w3.org/2000/svg">
<path d="M73.3928 88.373H75.3198V303.147H73.3928V88.373Z" fill="#036F62"/>
<path d="M76.283 88.3716H78.21V303.145H76.283V88.3716Z" fill="#6CBDAA"/>
<path d="M80.114 160.574V154.439C80.114 140.524 80.1141 133.567 82.822 128.253C85.2039 123.578 89.0046 119.777 93.6794 117.395C98.9939 114.688 105.951 114.688 119.865 114.688H120.923L80.114 160.574Z" fill="#036F62"/>
<path d="M120.923 116.442V122.576C120.923 136.491 120.923 143.448 118.215 148.762C115.833 153.437 112.032 157.238 107.357 159.62C102.043 162.328 95.0856 162.328 81.1715 162.328H80.1139L120.923 116.442Z" fill="#6CBDAA"/>
<path d="M72.0676 187.192V181.777C72.0676 169.495 72.0676 163.354 69.6774 158.663C67.5749 154.537 64.22 151.182 60.0937 149.08C55.4027 146.69 49.2618 146.689 36.9801 146.689H36.0466L72.0676 187.192Z" fill="#6CBDAA"/>
<path d="M36.0469 148.237V153.652C36.0469 165.934 36.047 172.075 38.4371 176.766C40.5396 180.892 43.8945 184.247 48.0208 186.349C52.7118 188.74 58.8527 188.74 71.1344 188.74H72.0679L36.0469 148.237Z" fill="#036F62"/>
<path d="M75.9772 88.3717C79.3821 82.8325 74.7971 90.2916 78.8366 83.72C82.876 77.1485 81.8631 78.7964 81.8631 78.7964C81.8631 78.7964 106.173 93.7394 116.252 99.9354C112.213 106.507 94.9699 100.046 75.9772 88.3717Z" fill="white"/>
<path d="M88.4032 68.1562C84.9983 73.6954 89.4405 66.4687 85.401 73.0402C81.3615 79.6118 82.3745 77.9639 82.3745 77.9639C82.3745 77.9639 106.684 92.9069 116.764 99.1027C120.803 92.5312 107.396 79.8309 88.4032 68.1562Z" fill="#F4E3D5"/>
<path d="M88.14 67.9146C82.6008 64.5097 90.0599 69.0948 83.4884 65.0553C76.9168 61.0158 78.5647 62.0288 78.5647 62.0288C78.5647 62.0288 93.5077 37.719 99.7037 27.6394C106.275 31.6789 99.8147 48.9219 88.14 67.9146Z" fill="white"/>
<path d="M67.925 55.4874C73.4642 58.8923 66.2375 54.4501 72.809 58.4896C79.3806 62.5291 77.7327 61.5161 77.7327 61.5161C77.7327 61.5161 92.6757 37.2064 98.8715 27.1267C92.3 23.0872 79.5997 36.4947 67.925 55.4874Z" fill="#F4E3D5"/>
<path d="M55.7611 75.9467C61.3003 79.3516 53.8412 74.7666 60.4128 78.806C66.9843 82.8455 65.3364 81.8326 65.3364 81.8326C65.3364 81.8326 50.3934 106.142 44.1974 116.222C37.6259 112.182 44.0864 94.9394 55.7611 75.9467Z" fill="white"/>
<path d="M75.9768 88.3724C70.4376 84.9675 77.6644 89.4098 71.0928 85.3703C64.5213 81.3308 66.1692 82.3437 66.1692 82.3437C66.1692 82.3437 51.2262 106.653 45.0303 116.733C51.6019 120.773 64.3022 107.365 75.9768 88.3724Z" fill="#F4E3D5"/>
<rect x="87.0815" y="68.292" width="21.8286" height="21.8286" transform="rotate(121.579 87.0815 68.292)" fill="#FECC73"/>
<path d="M67.8128 55.8197C64.4079 61.3589 68.993 53.8998 64.9535 60.4714C60.914 67.0429 61.927 65.395 61.927 65.395C61.927 65.395 37.6172 50.452 27.5376 44.256C31.5771 37.6845 48.8201 44.145 67.8128 55.8197Z" fill="white"/>
<path d="M55.3863 76.0347C58.7913 70.4955 54.349 77.7222 58.3885 71.1507C62.428 64.5791 61.415 66.227 61.415 66.227C61.415 66.227 37.1053 51.284 27.0256 45.0882C22.9861 51.6598 36.3936 64.36 55.3863 76.0347Z" fill="#F4E3D5"/>
</svg>
