<svg width="806" height="225" viewBox="0 0 806 225" fill="none" xmlns="http://www.w3.org/2000/svg">
<path d="M20.096 93.4399C20.096 82.4319 20.096 71.3386 20.096 60.1599C20.096 48.8959 20.096 37.7599 20.096 26.7519C16.8533 26.7519 13.568 26.7519 10.24 26.7519C6.91201 26.7519 3.62667 26.7519 0.384007 26.7519C0.384007 23.4239 0.384007 20.0533 0.384007 16.6399C0.384007 13.1413 0.384007 9.72794 0.384007 6.39994C10.5387 6.39994 20.8213 6.39994 31.232 6.39994C41.6427 6.39994 51.9253 6.39994 62.08 6.39994C62.08 9.72794 62.08 13.1413 62.08 16.6399C62.08 20.0533 62.08 23.4239 62.08 26.7519C58.9227 26.7519 55.68 26.7519 52.352 26.7519C49.024 26.7519 45.7387 26.7519 42.496 26.7519C42.496 37.7599 42.496 48.8959 42.496 60.1599C42.496 71.3386 42.496 82.4319 42.496 93.4399C38.8267 93.4399 35.1147 93.4399 31.36 93.4399C27.6053 93.4399 23.8507 93.4399 20.096 93.4399ZM96.639 93.4399C92.9697 93.4399 89.2577 93.4399 85.503 93.4399C81.7483 93.4399 77.9937 93.4399 74.239 93.4399C74.239 79.1039 74.239 64.5973 74.239 49.9199C74.239 35.2426 74.239 20.7359 74.239 6.39994C77.9937 6.39994 81.7483 6.39994 85.503 6.39994C89.2577 6.39994 92.9697 6.39994 96.639 6.39994C96.639 11.6053 96.639 16.8533 96.639 22.1439C96.639 27.3493 96.639 32.5546 96.639 37.7599C101.162 37.7599 105.727 37.7599 110.335 37.7599C114.943 37.7599 119.466 37.7599 123.903 37.7599C123.903 32.5546 123.903 27.3493 123.903 22.1439C123.903 16.8533 123.903 11.6053 123.903 6.39994C127.658 6.39994 131.412 6.39994 135.167 6.39994C138.922 6.39994 142.634 6.39994 146.303 6.39994C146.303 20.7359 146.303 35.2426 146.303 49.9199C146.303 64.5973 146.303 79.1039 146.303 93.4399C142.634 93.4399 138.922 93.4399 135.167 93.4399C131.412 93.4399 127.658 93.4399 123.903 93.4399C123.903 87.6373 123.903 81.7919 123.903 75.9039C123.903 69.9306 123.903 64.0853 123.903 58.3679C119.466 58.3679 114.943 58.3679 110.335 58.3679C105.727 58.3679 101.162 58.3679 96.639 58.3679C96.639 64.0853 96.639 69.9306 96.639 75.9039C96.639 81.7919 96.639 87.6373 96.639 93.4399ZM162.989 93.4399C162.989 79.1039 162.989 64.5973 162.989 49.9199C162.989 35.2426 162.989 20.7359 162.989 6.39994C171.608 6.39994 180.312 6.39994 189.101 6.39994C197.89 6.39994 206.594 6.39994 215.213 6.39994C215.213 9.64261 215.213 12.9706 215.213 16.3839C215.213 19.7973 215.213 23.1253 215.213 26.3679C210.264 26.3679 205.272 26.3679 200.237 26.3679C195.288 26.3679 190.338 26.3679 185.389 26.3679C185.389 28.5013 185.389 30.6346 185.389 32.7679C185.389 34.8159 185.389 36.9066 185.389 39.0399C189.912 39.0399 194.477 39.0399 199.085 39.0399C203.693 39.0399 208.216 39.0399 212.653 39.0399C212.653 42.1973 212.653 45.3973 212.653 48.6399C212.653 51.8826 212.653 55.1253 212.653 58.3679C208.216 58.3679 203.693 58.3679 199.085 58.3679C194.477 58.3679 189.912 58.3679 185.389 58.3679C185.389 60.8426 185.389 63.3599 185.389 65.9199C185.389 68.4799 185.389 70.9973 185.389 73.4719C190.338 73.4719 195.288 73.4719 200.237 73.4719C205.272 73.4719 210.264 73.4719 215.213 73.4719C215.213 76.7146 215.213 80.0426 215.213 83.4559C215.213 86.8693 215.213 90.1973 215.213 93.4399C206.594 93.4399 197.89 93.4399 189.101 93.4399C180.312 93.4399 171.608 93.4399 162.989 93.4399ZM555.594 93.4399C552.181 93.4399 548.682 93.4399 545.098 93.4399C541.514 93.4399 537.973 93.4399 534.474 93.4399C534.474 77.9946 534.474 62.4213 534.474 46.7199C534.474 31.0186 534.474 15.4453 534.474 -6.10352e-05C537.973 -6.10352e-05 541.514 -6.10352e-05 545.098 -6.10352e-05C548.682 -6.10352e-05 552.181 -6.10352e-05 555.594 -6.10352e-05C555.594 5.11994 555.594 10.2826 555.594 15.4879C555.594 20.6933 555.594 25.8559 555.594 30.9759C557.727 29.2693 560.159 27.9466 562.89 27.0079C565.621 25.9839 568.522 25.4719 571.594 25.4719C575.861 25.4719 579.914 26.3253 583.754 28.0319C587.594 29.6533 590.965 31.9999 593.866 35.0719C596.853 38.1439 599.157 41.8133 600.778 46.0799C602.485 50.3466 603.338 55.0826 603.338 60.2879C603.338 65.4079 602.485 70.1013 600.778 74.3679C599.157 78.6346 596.853 82.3466 593.866 85.5039C590.965 88.5759 587.594 90.9653 583.754 92.6719C579.914 94.3786 575.818 95.2319 571.466 95.2319C568.394 95.2319 565.493 94.7199 562.762 93.6959C560.117 92.7573 557.727 91.3919 555.594 89.5999C555.594 90.1973 555.594 90.8373 555.594 91.5199C555.594 92.1173 555.594 92.7573 555.594 93.4399ZM568.65 76.5439C572.831 76.5439 576.117 75.0933 578.506 72.1919C580.981 69.2053 582.218 65.2373 582.218 60.2879C582.218 55.3386 580.981 51.4133 578.506 48.5119C576.117 45.6106 572.831 44.1599 568.65 44.1599C564.554 44.1599 561.269 45.6533 558.794 48.6399C556.319 51.5413 555.082 55.4239 555.082 60.2879C555.082 65.1519 556.319 69.0773 558.794 72.0639C561.269 75.0506 564.554 76.5439 568.65 76.5439ZM670.794 90.3679C664.906 92.8426 659.061 94.3786 653.258 94.9759C647.455 95.5733 641.951 95.2319 636.746 93.9519C631.626 92.7573 627.061 90.6666 623.05 87.6799C619.039 84.6933 615.882 80.8959 613.578 76.2879C611.359 71.6799 610.25 66.3466 610.25 60.2879C610.25 55.2533 611.061 50.6453 612.682 46.4639C614.389 42.1973 616.778 38.4853 619.85 35.3279C622.922 32.0853 626.549 29.6106 630.73 27.9039C634.911 26.1119 639.477 25.2159 644.426 25.2159C648.863 25.2159 652.874 25.9413 656.458 27.3919C660.042 28.8426 663.157 30.8906 665.802 33.5359C668.447 36.0959 670.581 39.1679 672.202 42.7519C673.823 46.3359 674.847 50.2613 675.274 54.5279C675.701 58.7946 675.445 63.3173 674.506 68.0959C667.509 68.0959 660.469 68.0959 653.386 68.0959C646.303 68.0959 639.263 68.0959 632.266 68.0959C633.887 71.3386 636.575 73.6426 640.33 75.0079C644.17 76.3733 648.693 76.7999 653.898 76.2879C659.189 75.7759 664.821 74.4106 670.794 72.1919C670.794 75.1786 670.794 78.2079 670.794 81.2799C670.794 84.3519 670.794 87.3813 670.794 90.3679ZM643.914 44.1599C641.439 44.1599 639.135 44.8426 637.002 46.2079C634.954 47.5733 633.375 49.6639 632.266 52.4799C636.106 52.4799 639.946 52.4799 643.786 52.4799C647.711 52.4799 651.594 52.4799 655.434 52.4799C654.41 49.5786 652.874 47.4879 650.826 46.2079C648.863 44.8426 646.559 44.1599 643.914 44.1599ZM730.619 93.4399C730.619 92.7573 730.619 92.1173 730.619 91.5199C730.619 90.8373 730.619 90.1973 730.619 89.5999C728.486 91.3919 726.054 92.7573 723.323 93.6959C720.678 94.7199 717.819 95.2319 714.747 95.2319C710.395 95.2319 706.299 94.4213 702.459 92.7999C698.619 91.0933 695.206 88.7039 692.219 85.6319C689.318 82.4746 687.014 78.7626 685.307 74.4959C683.686 70.2293 682.875 65.4933 682.875 60.2879C682.875 54.9973 683.686 50.2186 685.307 45.9519C687.014 41.6853 689.318 38.0586 692.219 35.0719C695.206 31.9999 698.619 29.6533 702.459 28.0319C706.299 26.3253 710.352 25.4719 714.619 25.4719C717.691 25.4719 720.592 25.9839 723.323 27.0079C726.054 27.9466 728.486 29.2693 730.619 30.9759C730.619 30.2933 730.619 29.6533 730.619 29.0559C730.619 28.4586 730.619 27.8613 730.619 27.2639C734.118 27.2639 737.659 27.2639 741.243 27.2639C744.827 27.2639 748.326 27.2639 751.739 27.2639C751.739 38.1866 751.739 49.2373 751.739 60.4159C751.739 71.5093 751.739 82.5173 751.739 93.4399C748.326 93.4399 744.827 93.4399 741.243 93.4399C737.659 93.4399 734.118 93.4399 730.619 93.4399ZM717.563 76.5439C721.659 76.5439 724.944 75.0506 727.419 72.0639C729.894 69.0773 731.131 65.1519 731.131 60.2879C731.131 55.4239 729.894 51.5413 727.419 48.6399C724.944 45.6533 721.659 44.1599 717.563 44.1599C713.382 44.1599 710.054 45.6106 707.579 48.5119C705.19 51.4133 703.995 55.3386 703.995 60.2879C703.995 65.2373 705.19 69.2053 707.579 72.1919C710.054 75.0933 713.382 76.5439 717.563 76.5439ZM772.746 93.4399C772.746 85.5893 772.746 77.6959 772.746 69.7599C772.746 61.8239 772.746 53.9733 772.746 46.2079C771.039 46.2079 769.29 46.2079 767.498 46.2079C765.791 46.2079 764.085 46.2079 762.378 46.2079C762.378 43.0506 762.378 39.8933 762.378 36.7359C762.378 33.5786 762.378 30.4213 762.378 27.2639C764.085 27.2639 765.791 27.2639 767.498 27.2639C769.29 27.2639 771.039 27.2639 772.746 27.2639C772.746 24.2773 772.746 21.3333 772.746 18.4319C772.746 15.4453 772.746 12.5013 772.746 9.59994C776.245 9.59994 779.786 9.59994 783.37 9.59994C786.954 9.59994 790.453 9.59994 793.866 9.59994C793.866 12.5013 793.866 15.4453 793.866 18.4319C793.866 21.3333 793.866 24.2773 793.866 27.2639C795.829 27.2639 797.834 27.2639 799.882 27.2639C801.93 27.2639 803.935 27.2639 805.898 27.2639C805.898 30.4213 805.898 33.5786 805.898 36.7359C805.898 39.8933 805.898 43.0506 805.898 46.2079C803.935 46.2079 801.93 46.2079 799.882 46.2079C797.834 46.2079 795.829 46.2079 793.866 46.2079C793.866 53.9733 793.866 61.8239 793.866 69.7599C793.866 77.6959 793.866 85.5893 793.866 93.4399C790.453 93.4399 786.954 93.4399 783.37 93.4399C779.786 93.4399 776.245 93.4399 772.746 93.4399ZM34.944 224.488C29.9947 224.488 25.3867 223.635 21.12 221.928C16.8533 220.136 13.1413 217.661 9.98401 214.504C6.82667 211.261 4.35201 207.507 2.56001 203.24C0.85334 198.973 6.4373e-06 194.323 6.4373e-06 189.288C6.4373e-06 184.253 0.85334 179.603 2.56001 175.336C4.35201 171.069 6.82667 167.357 9.98401 164.2C13.1413 161.043 16.8533 158.611 21.12 156.904C25.3867 155.112 29.9947 154.216 34.944 154.216C39.9787 154.216 44.5867 155.112 48.768 156.904C53.0347 158.611 56.7467 161.043 59.904 164.2C63.0613 167.357 65.4933 171.069 67.2 175.336C68.992 179.603 69.888 184.253 69.888 189.288C69.888 194.323 68.992 198.973 67.2 203.24C65.4933 207.507 63.0613 211.261 59.904 214.504C56.7467 217.661 53.0347 220.136 48.768 221.928C44.5867 223.635 39.9787 224.488 34.944 224.488ZM34.944 205.416C39.1253 205.416 42.4533 203.923 44.928 200.936C47.488 197.864 48.768 193.981 48.768 189.288C48.768 184.509 47.488 180.669 44.928 177.768C42.4533 174.781 39.1253 173.288 34.944 173.288C30.7627 173.288 27.392 174.781 24.832 177.768C22.3573 180.669 21.12 184.509 21.12 189.288C21.12 193.981 22.3573 197.864 24.832 200.936C27.392 203.923 30.7627 205.416 34.944 205.416ZM76.253 175.208C76.253 172.051 76.253 168.893 76.253 165.736C76.253 162.579 76.253 159.421 76.253 156.264C77.9597 156.264 79.6663 156.264 81.373 156.264C83.165 156.264 84.9143 156.264 86.621 156.264C86.621 155.837 86.621 155.453 86.621 155.112C86.621 154.771 86.621 154.429 86.621 154.088C86.621 148.371 87.773 143.592 90.077 139.752C92.4663 135.827 95.581 132.84 99.421 130.792C103.346 128.659 107.613 127.464 112.221 127.208C116.914 126.867 121.565 127.464 126.173 129C126.173 132.157 126.173 135.4 126.173 138.728C126.173 142.056 126.173 145.341 126.173 148.584C121.053 146.877 116.701 146.536 113.117 147.56C109.533 148.584 107.741 150.803 107.741 154.216C107.741 154.557 107.741 154.899 107.741 155.24C107.741 155.581 107.741 155.923 107.741 156.264C110.386 156.264 113.032 156.264 115.677 156.264C118.322 156.264 120.968 156.264 123.613 156.264C123.613 159.421 123.613 162.579 123.613 165.736C123.613 168.893 123.613 172.051 123.613 175.208C120.968 175.208 118.322 175.208 115.677 175.208C113.032 175.208 110.386 175.208 107.741 175.208C107.741 182.973 107.741 190.824 107.741 198.76C107.741 206.696 107.741 214.589 107.741 222.44C104.328 222.44 100.829 222.44 97.245 222.44C93.661 222.44 90.1197 222.44 86.621 222.44C86.621 214.589 86.621 206.696 86.621 198.76C86.621 190.824 86.621 182.973 86.621 175.208C84.9143 175.208 83.165 175.208 81.373 175.208C79.6663 175.208 77.9597 175.208 76.253 175.208ZM161.334 222.44C161.334 211.517 161.334 200.509 161.334 189.416C161.334 178.237 161.334 167.187 161.334 156.264C164.833 156.264 168.374 156.264 171.958 156.264C175.542 156.264 179.041 156.264 182.454 156.264C182.454 156.861 182.454 157.416 182.454 157.928C182.454 158.44 182.454 158.995 182.454 159.592C184.673 157.971 187.147 156.733 189.878 155.88C192.609 154.941 195.425 154.472 198.326 154.472C201.483 154.472 204.385 155.027 207.03 156.136C209.675 157.16 211.937 158.696 213.814 160.744C216.545 158.781 219.617 157.245 223.03 156.136C226.529 155.027 230.113 154.472 233.782 154.472C238.987 154.472 243.467 155.539 247.222 157.672C251.062 159.805 254.006 162.835 256.054 166.76C258.187 170.685 259.254 175.421 259.254 180.968C259.254 187.795 259.254 194.707 259.254 201.704C259.254 208.701 259.254 215.613 259.254 222.44C255.841 222.44 252.342 222.44 248.758 222.44C245.174 222.44 241.633 222.44 238.134 222.44C238.134 216.04 238.134 209.555 238.134 202.984C238.134 196.413 238.134 189.928 238.134 183.528C238.134 180.627 237.451 178.28 236.086 176.488C234.806 174.611 232.715 173.672 229.814 173.672C226.998 173.672 224.779 174.568 223.158 176.36C221.622 178.067 220.854 180.456 220.854 183.528C220.854 189.928 220.854 196.413 220.854 202.984C220.854 209.555 220.854 216.04 220.854 222.44C217.441 222.44 213.942 222.44 210.358 222.44C206.774 222.44 203.233 222.44 199.734 222.44C199.734 216.04 199.734 209.555 199.734 202.984C199.734 196.413 199.734 189.928 199.734 183.528C199.734 180.627 199.051 178.28 197.686 176.488C196.406 174.611 194.315 173.672 191.414 173.672C188.598 173.672 186.379 174.568 184.758 176.36C183.222 178.067 182.454 180.456 182.454 183.528C182.454 189.928 182.454 196.413 182.454 202.984C182.454 209.555 182.454 216.04 182.454 222.44C179.041 222.44 175.542 222.44 171.958 222.44C168.374 222.44 164.833 222.44 161.334 222.44ZM277.228 242.92C278.935 238.397 280.684 233.832 282.476 229.224C284.353 224.701 286.145 220.221 287.852 215.784C283.841 205.971 279.745 196.072 275.564 186.088C271.468 176.019 267.415 166.077 263.404 156.264C267.159 156.264 270.913 156.264 274.668 156.264C278.423 156.264 282.135 156.264 285.804 156.264C288.023 161.725 290.241 167.272 292.46 172.904C294.764 178.536 297.025 184.125 299.244 189.672C301.292 184.125 303.383 178.536 305.516 172.904C307.649 167.272 309.74 161.725 311.788 156.264C315.457 156.264 319.127 156.264 322.796 156.264C326.465 156.264 330.135 156.264 333.804 156.264C328.087 170.515 322.327 184.979 316.524 199.656C310.807 214.248 305.089 228.669 299.372 242.92C295.703 242.92 291.991 242.92 288.236 242.92C284.567 242.92 280.897 242.92 277.228 242.92ZM367.724 222.44C367.724 206.995 367.724 191.421 367.724 175.72C367.724 160.019 367.724 144.445 367.724 129C371.223 129 374.764 129 378.348 129C381.932 129 385.431 129 388.844 129C388.844 144.445 388.844 160.019 388.844 175.72C388.844 191.421 388.844 206.995 388.844 222.44C385.431 222.44 381.932 222.44 378.348 222.44C374.764 222.44 371.223 222.44 367.724 222.44ZM414.848 148.712C412.373 148.712 410.112 148.115 408.064 146.92C406.101 145.725 404.523 144.147 403.328 142.184C402.133 140.221 401.536 138.045 401.536 135.656C401.536 133.267 402.133 131.133 403.328 129.256C404.523 127.293 406.101 125.715 408.064 124.52C410.112 123.325 412.373 122.728 414.848 122.728C417.237 122.728 419.413 123.325 421.376 124.52C423.424 125.715 425.045 127.293 426.24 129.256C427.435 131.133 428.032 133.267 428.032 135.656C428.032 138.045 427.435 140.221 426.24 142.184C425.045 144.147 423.424 145.725 421.376 146.92C419.413 148.115 417.237 148.712 414.848 148.712ZM404.224 222.44C404.224 211.517 404.224 200.509 404.224 189.416C404.224 178.237 404.224 167.187 404.224 156.264C407.723 156.264 411.264 156.264 414.848 156.264C418.432 156.264 421.931 156.264 425.344 156.264C425.344 167.187 425.344 178.237 425.344 189.416C425.344 200.509 425.344 211.517 425.344 222.44C421.931 222.44 418.432 222.44 414.848 222.44C411.264 222.44 407.723 222.44 404.224 222.44ZM436.628 175.208C436.628 172.051 436.628 168.893 436.628 165.736C436.628 162.579 436.628 159.421 436.628 156.264C438.335 156.264 440.041 156.264 441.748 156.264C443.54 156.264 445.289 156.264 446.996 156.264C446.996 155.837 446.996 155.453 446.996 155.112C446.996 154.771 446.996 154.429 446.996 154.088C446.996 148.371 448.148 143.592 450.452 139.752C452.841 135.827 455.956 132.84 459.796 130.792C463.721 128.659 467.988 127.464 472.596 127.208C477.289 126.867 481.94 127.464 486.548 129C486.548 132.157 486.548 135.4 486.548 138.728C486.548 142.056 486.548 145.341 486.548 148.584C481.428 146.877 477.076 146.536 473.492 147.56C469.908 148.584 468.116 150.803 468.116 154.216C468.116 154.557 468.116 154.899 468.116 155.24C468.116 155.581 468.116 155.923 468.116 156.264C470.761 156.264 473.407 156.264 476.052 156.264C478.697 156.264 481.343 156.264 483.988 156.264C483.988 159.421 483.988 162.579 483.988 165.736C483.988 168.893 483.988 172.051 483.988 175.208C481.343 175.208 478.697 175.208 476.052 175.208C473.407 175.208 470.761 175.208 468.116 175.208C468.116 182.973 468.116 190.824 468.116 198.76C468.116 206.696 468.116 214.589 468.116 222.44C464.703 222.44 461.204 222.44 457.62 222.44C454.036 222.44 450.495 222.44 446.996 222.44C446.996 214.589 446.996 206.696 446.996 198.76C446.996 190.824 446.996 182.973 446.996 175.208C445.289 175.208 443.54 175.208 441.748 175.208C440.041 175.208 438.335 175.208 436.628 175.208ZM550.544 219.368C544.656 221.843 538.811 223.379 533.008 223.976C527.205 224.573 521.701 224.232 516.496 222.952C511.376 221.757 506.811 219.667 502.8 216.68C498.789 213.693 495.632 209.896 493.328 205.288C491.109 200.68 490 195.347 490 189.288C490 184.253 490.811 179.645 492.432 175.464C494.139 171.197 496.528 167.485 499.6 164.328C502.672 161.085 506.299 158.611 510.48 156.904C514.661 155.112 519.227 154.216 524.176 154.216C528.613 154.216 532.624 154.941 536.208 156.392C539.792 157.843 542.907 159.891 545.552 162.536C548.197 165.096 550.331 168.168 551.952 171.752C553.573 175.336 554.597 179.261 555.024 183.528C555.451 187.795 555.195 192.317 554.256 197.096C547.259 197.096 540.219 197.096 533.136 197.096C526.053 197.096 519.013 197.096 512.016 197.096C513.637 200.339 516.325 202.643 520.08 204.008C523.92 205.373 528.443 205.8 533.648 205.288C538.939 204.776 544.571 203.411 550.544 201.192C550.544 204.179 550.544 207.208 550.544 210.28C550.544 213.352 550.544 216.381 550.544 219.368ZM523.664 173.16C521.189 173.16 518.885 173.843 516.752 175.208C514.704 176.573 513.125 178.664 512.016 181.48C515.856 181.48 519.696 181.48 523.536 181.48C527.461 181.48 531.344 181.48 535.184 181.48C534.16 178.579 532.624 176.488 530.576 175.208C528.613 173.843 526.309 173.16 523.664 173.16Z" fill="black"/>
<path d="M282.06 93.4399C282.06 90.1119 282.06 86.7413 282.06 83.3279C282.06 79.8293 282.06 76.4159 282.06 73.0879C285.473 69.8453 288.887 66.5599 292.3 63.2319C295.713 59.8186 299.127 56.4906 302.54 53.2479C306.465 49.4079 309.452 46.3359 311.5 44.0319C313.548 41.6426 314.956 39.6373 315.724 38.0159C316.577 36.3946 317.004 34.9013 317.004 33.5359C317.004 30.7199 315.383 28.7146 312.14 27.5199C308.897 26.2399 304.716 25.8559 299.596 26.3679C294.476 26.8799 289.015 28.2879 283.212 30.5919C283.212 27.0933 283.212 23.5519 283.212 19.9679C283.212 16.2986 283.212 12.7146 283.212 9.21593C291.745 6.39994 299.468 4.99194 306.38 4.99194C313.377 4.99194 319.351 6.14394 324.3 8.44794C329.335 10.6666 333.175 13.7813 335.82 17.7919C338.551 21.8026 339.916 26.4533 339.916 31.7439C339.916 37.0346 338.508 42.0266 335.692 46.7199C332.876 51.3279 328.567 56.4479 322.764 62.0799C320.887 63.8719 319.009 65.7066 317.132 67.5839C315.255 69.4613 313.377 71.2959 311.5 73.0879C316.108 73.0879 320.716 73.0879 325.324 73.0879C330.017 73.0879 334.668 73.0879 339.276 73.0879C339.276 76.4159 339.276 79.8293 339.276 83.3279C339.276 86.7413 339.276 90.1119 339.276 93.4399C329.804 93.4399 320.247 93.4399 310.604 93.4399C301.047 93.4399 291.532 93.4399 282.06 93.4399Z" fill="#E94812"/>
<path d="M428.494 76.9279C428.494 73.5999 428.494 70.2293 428.494 66.8159C428.494 63.3173 428.494 59.9039 428.494 56.5759C432.761 48.2986 437.07 39.9359 441.422 31.4879C445.774 23.0399 450.041 14.6773 454.222 6.39994C459.683 6.39994 465.145 6.39994 470.606 6.39994C476.153 6.39994 481.657 6.39994 487.118 6.39994C487.118 14.6773 487.118 23.0399 487.118 31.4879C487.118 39.9359 487.118 48.2986 487.118 56.5759C489.081 56.5759 491.086 56.5759 493.134 56.5759C495.267 56.5759 497.315 56.5759 499.278 56.5759C499.278 59.9039 499.278 63.3173 499.278 66.8159C499.278 70.2293 499.278 73.5999 499.278 76.9279C497.315 76.9279 495.267 76.9279 493.134 76.9279C491.086 76.9279 489.081 76.9279 487.118 76.9279C487.118 79.6586 487.118 82.4319 487.118 85.2479C487.118 87.9786 487.118 90.7093 487.118 93.4399C483.534 93.4399 479.865 93.4399 476.11 93.4399C472.441 93.4399 468.814 93.4399 465.23 93.4399C465.23 90.7093 465.23 87.9786 465.23 85.2479C465.23 82.4319 465.23 79.6586 465.23 76.9279C459.171 76.9279 453.027 76.9279 446.798 76.9279C440.654 76.9279 434.553 76.9279 428.494 76.9279ZM451.534 56.5759C453.753 56.5759 456.014 56.5759 458.318 56.5759C460.707 56.5759 463.011 56.5759 465.23 56.5759C465.23 51.7973 465.23 46.9333 465.23 41.9839C465.23 37.0346 465.23 32.1706 465.23 27.3919C463.011 32.1706 460.707 37.0346 458.318 41.9839C456.014 46.9333 453.753 51.7973 451.534 56.5759Z" fill="#2F4ECD"/>
</svg>
