<svg width="631" height="629" viewBox="0 0 631 629" fill="none" xmlns="http://www.w3.org/2000/svg">
<path d="M386.205 386.823C386.71 347.814 386.03 400.343 386.629 354.064C387.228 307.786 387.077 319.391 387.077 319.391C387.077 319.391 558.273 321.606 629.257 322.526C628.658 368.804 519.957 388.554 386.205 386.823Z" fill="#FFCECE"/>
<path d="M388.049 244.457C387.544 283.465 388.203 232.572 387.604 278.851C387.005 325.13 387.155 313.525 387.155 313.525C387.155 313.525 558.351 315.741 629.335 316.659C629.934 270.38 521.801 246.188 388.049 244.457Z" fill="#FFB1B1"/>
<path d="M385.942 244.024C346.934 243.519 399.463 244.199 353.184 243.6C306.905 243.001 318.511 243.151 318.511 243.151C318.511 243.151 320.726 71.9551 321.646 0.971353C367.924 1.57035 387.674 110.272 385.942 244.024Z" fill="#FFCECE"/>
<path d="M243.588 242.18C282.597 242.685 231.704 242.026 277.983 242.625C324.261 243.224 312.656 243.074 312.656 243.074C312.656 243.074 314.872 71.8776 315.79 0.893881C269.512 0.294887 245.319 108.427 243.588 242.18Z" fill="#FFB1B1"/>
<path d="M243.836 384.984C282.845 385.488 230.316 384.809 276.595 385.408C322.873 386.006 311.268 385.856 311.268 385.856C311.268 385.856 309.053 557.052 308.133 628.036C261.855 627.437 242.105 518.736 243.836 384.984Z" fill="#FFCECE"/>
<path d="M386.197 386.822C347.189 386.317 398.081 386.976 351.803 386.377C305.524 385.778 317.129 385.928 317.129 385.928C317.129 385.928 314.913 557.124 313.995 628.108C360.274 628.707 384.466 520.574 386.197 386.822Z" fill="#FFB1B1"/>
<rect x="381.652" y="249.221" width="130.971" height="130.971" transform="rotate(90.7415 381.652 249.221)" fill="#FE9973"/>
<path d="M244.025 244.236C243.52 283.245 244.2 230.716 243.601 276.994C243.002 323.273 243.152 311.668 243.152 311.668C243.152 311.668 71.956 309.452 0.972368 308.533C1.57136 262.254 110.273 242.505 244.025 244.236Z" fill="#FFCECE"/>
<path d="M242.18 386.597C242.684 347.589 242.026 398.481 242.625 352.203C243.224 305.924 243.074 317.529 243.074 317.529C243.074 317.529 71.8776 315.313 0.893965 314.395C0.294973 360.673 108.427 384.866 242.18 386.597Z" fill="#FFB1B1"/>
</svg>
