<svg width="2602" height="310" viewBox="0 0 2602 310" fill="none" xmlns="http://www.w3.org/2000/svg">
<path d="M2576.06 262.094C2590.39 262.094 2602 271.922 2602 284.047C2602 296.171 2590.39 306 2576.06 306H1442.48C1428.16 306 1416.54 296.171 1416.54 284.047C1416.54 271.922 1428.16 262.094 1442.48 262.094H1492.9C1507.22 262.094 1518.84 252.265 1518.84 240.14C1518.84 228.016 1507.22 218.187 1492.9 218.187H3V174.281H161.549C177.286 172.785 189.399 163.599 189.399 152.489C189.399 142.362 179.336 133.834 165.638 131.27H3V67H2469.98V131.27H2093.76C2080.06 133.834 2069.99 142.362 2069.99 152.489C2069.99 163.599 2082.11 172.785 2097.84 174.281H2507.05V218.187H2285.32C2271 218.187 2259.38 228.016 2259.38 240.14C2259.38 252.265 2271 262.094 2285.32 262.094H2576.06Z" fill="url(#paint0_linear_219_202)"/>
<path d="M685.119 261.677C699.481 261.677 711.123 271.53 711.123 283.684C711.123 295.838 699.481 305.691 685.119 305.691H216.037C201.675 305.691 190.033 295.838 190.033 283.684C190.033 271.53 201.675 261.677 216.037 261.677H685.119Z" fill="url(#paint1_linear_219_202)"/>
<circle cx="1331.5" cy="281.5" r="28.5" fill="#FEFCFA"/>
<ellipse cx="791" cy="281.5" rx="29" ry="28.5" fill="#FEFCFA"/>
<ellipse cx="127" cy="281.5" rx="29" ry="28.5" fill="#FEFCFA"/>
<rect width="2220" height="67" fill="#F4E3D5"/>
<defs>
<linearGradient id="paint0_linear_219_202" x1="1169.7" y1="109.321" x2="1169.7" y2="305.691" gradientUnits="userSpaceOnUse">
<stop stop-color="#F4E3D5"/>
<stop offset="1" stop-color="white"/>
</linearGradient>
<linearGradient id="paint1_linear_219_202" x1="1169.7" y1="109.321" x2="1169.7" y2="305.691" gradientUnits="userSpaceOnUse">
<stop stop-color="#F4E3D5"/>
<stop offset="1" stop-color="white"/>
</linearGradient>
</defs>
</svg>
