<svg width="525" height="605" viewBox="0 0 525 605" fill="none" xmlns="http://www.w3.org/2000/svg">
<rect x="206.698" y="24.3302" width="38.8501" height="61.3104" transform="rotate(35.8583 206.698 24.3302)" fill="#35816F"/>
<rect x="375.977" y="54.65" width="38.8501" height="61.3104" transform="rotate(35.8583 375.977 54.65)" fill="#35816F"/>
<rect x="129.934" y="41.6599" width="356.329" height="424.924" rx="43.0994" transform="rotate(10.2405 129.934 41.6599)" fill="#F4E3D5"/>
<rect x="207.121" y="24.1447" width="38.8502" height="61.3104" transform="rotate(10.2405 207.121 24.1447)" fill="#6CBDAA"/>
<mask id="mask0_49_171" style="mask-type:alpha" maskUnits="userSpaceOnUse" x="43" y="378" width="417" height="213">
<rect x="69.0677" y="378.573" width="397" height="143.26" transform="rotate(10.2405 69.0677 378.573)" fill="#6CBDAA"/>
</mask>
<g mask="url(#mask0_49_171)">
<path d="M122.272 84.0728C126.503 60.6489 148.923 45.0905 172.347 49.3223L438.174 97.346C461.597 101.578 477.156 123.997 472.924 147.421L412.706 480.75C408.474 504.174 386.054 519.732 362.63 515.501L96.8036 467.477C73.3796 463.245 57.8213 440.826 62.053 417.402L122.272 84.0728Z" fill="#6CBDAA"/>
</g>
<rect x="376.175" y="54.6857" width="38.8502" height="61.3104" transform="rotate(10.2405 376.175 54.6857)" fill="#6CBDAA"/>
<path d="M399.859 183.304C396.271 174.542 380.648 163.541 385.952 173.403C390.049 181.02 395.44 182.772 399.859 183.304Z" stroke="#404040" stroke-width="2.42813"/>
<path d="M405.569 188.303C401.789 196.968 385.928 207.555 391.448 197.836C395.712 190.329 401.139 188.719 405.569 188.303Z" stroke="#404040" stroke-width="2.42813"/>
<path d="M151.33 141.756L397.145 186.164" stroke="#404040" stroke-width="2.42813"/>
<ellipse cx="409.667" cy="176.583" rx="3.79488" ry="7.163" transform="rotate(10.2405 409.667 176.583)" fill="white"/>
<ellipse cx="3.78246" cy="7.18668" rx="3.78246" ry="7.18668" transform="matrix(0.572832 0.819672 -0.823423 0.567428 420.438 174.314)" fill="white"/>
<ellipse cx="3.77114" cy="7.20812" rx="3.77114" ry="7.20812" transform="matrix(0.0384717 0.99926 -0.999362 0.0357211 404.569 183.707)" fill="white"/>
<ellipse cx="3.77555" cy="7.19978" rx="3.77555" ry="7.19978" transform="matrix(-0.623147 0.782105 -0.785504 -0.618857 408.472 180.936)" fill="white"/>
<ellipse cx="3.79179" cy="7.16891" rx="3.79179" ry="7.16891" transform="matrix(-0.85897 -0.512026 0.515756 -0.856736 401.883 203.963)" fill="white"/>
<ellipse cx="3.78246" cy="7.18668" rx="3.78246" ry="7.18668" transform="matrix(-0.823423 0.567428 -0.572832 -0.819672 419.901 199.952)" fill="white"/>
<ellipse cx="418.486" cy="189.669" rx="3.77" ry="7.21028" transform="rotate(100.24 418.486 189.669)" fill="white"/>
<ellipse cx="408.051" cy="186.592" rx="6.41593" ry="6.37385" transform="rotate(10.2405 408.051 186.592)" fill="#FECC73"/>
<path d="M391.441 229.899C387.854 221.137 372.23 210.136 377.534 219.997C381.632 227.614 387.022 229.366 391.441 229.899Z" stroke="#404040" stroke-width="2.42813"/>
<path d="M397.151 234.897C393.372 243.562 377.511 254.149 383.03 244.43C387.294 236.923 392.722 235.313 397.151 234.897Z" stroke="#404040" stroke-width="2.42813"/>
<path d="M142.912 188.35L388.727 232.758" stroke="#404040" stroke-width="2.42813"/>
<ellipse cx="401.249" cy="223.177" rx="3.79488" ry="7.163" transform="rotate(10.2405 401.249 223.177)" fill="white"/>
<ellipse cx="3.78246" cy="7.18668" rx="3.78246" ry="7.18668" transform="matrix(0.572832 0.819672 -0.823423 0.567428 412.021 220.908)" fill="white"/>
<ellipse cx="3.77114" cy="7.20812" rx="3.77114" ry="7.20812" transform="matrix(0.0384717 0.99926 -0.999362 0.0357211 396.151 230.301)" fill="white"/>
<ellipse cx="3.77555" cy="7.19978" rx="3.77555" ry="7.19978" transform="matrix(-0.623147 0.782105 -0.785504 -0.618857 400.054 227.53)" fill="white"/>
<ellipse cx="3.79179" cy="7.16891" rx="3.79179" ry="7.16891" transform="matrix(-0.85897 -0.512026 0.515756 -0.856736 393.465 250.557)" fill="white"/>
<ellipse cx="3.78246" cy="7.18668" rx="3.78246" ry="7.18668" transform="matrix(-0.823423 0.567428 -0.572832 -0.819672 411.483 246.546)" fill="white"/>
<ellipse cx="410.068" cy="236.263" rx="3.77" ry="7.21028" transform="rotate(100.24 410.068 236.263)" fill="white"/>
<ellipse cx="399.633" cy="233.186" rx="6.41593" ry="6.37385" transform="rotate(10.2405 399.633 233.186)" fill="#FECC73"/>
<path d="M382.916 277.091C379.328 268.328 363.705 257.327 369.009 267.189C373.106 274.806 378.497 276.558 382.916 277.091Z" stroke="#404040" stroke-width="2.42813"/>
<path d="M388.625 282.089C384.846 290.754 368.985 301.341 374.505 291.622C378.768 284.115 384.196 282.505 388.625 282.089Z" stroke="#404040" stroke-width="2.42813"/>
<path d="M134.387 235.542L380.202 279.95" stroke="#404040" stroke-width="2.42813"/>
<ellipse cx="392.723" cy="270.368" rx="3.79488" ry="7.163" transform="rotate(10.2405 392.723 270.368)" fill="white"/>
<ellipse cx="3.78246" cy="7.18668" rx="3.78246" ry="7.18668" transform="matrix(0.572832 0.819672 -0.823423 0.567428 403.495 268.1)" fill="white"/>
<ellipse cx="3.77114" cy="7.20812" rx="3.77114" ry="7.20812" transform="matrix(0.0384717 0.99926 -0.999362 0.0357211 387.626 277.493)" fill="white"/>
<ellipse cx="3.77555" cy="7.19978" rx="3.77555" ry="7.19978" transform="matrix(-0.623147 0.782105 -0.785504 -0.618857 391.528 274.722)" fill="white"/>
<ellipse cx="3.79179" cy="7.16891" rx="3.79179" ry="7.16891" transform="matrix(-0.85897 -0.512026 0.515756 -0.856736 384.94 297.749)" fill="white"/>
<ellipse cx="3.78246" cy="7.18668" rx="3.78246" ry="7.18668" transform="matrix(-0.823423 0.567428 -0.572832 -0.819672 402.957 293.738)" fill="white"/>
<ellipse cx="401.542" cy="283.455" rx="3.77" ry="7.21028" transform="rotate(100.24 401.542 283.455)" fill="white"/>
<ellipse cx="391.108" cy="280.378" rx="6.41593" ry="6.37385" transform="rotate(10.2405 391.108 280.378)" fill="#FECC73"/>
<path d="M374.39 324.282C370.803 315.52 355.179 304.519 360.483 314.38C364.581 321.998 369.971 323.75 374.39 324.282Z" stroke="#404040" stroke-width="2.42813"/>
<path d="M380.1 329.281C376.32 337.946 360.459 348.533 365.979 338.814C370.243 331.306 375.67 329.696 380.1 329.281Z" stroke="#404040" stroke-width="2.42813"/>
<path d="M125.861 282.734L371.676 327.142" stroke="#404040" stroke-width="2.42813"/>
<ellipse cx="384.198" cy="317.561" rx="3.79488" ry="7.163" transform="rotate(10.2405 384.198 317.561)" fill="white"/>
<ellipse cx="3.78246" cy="7.18668" rx="3.78246" ry="7.18668" transform="matrix(0.572832 0.819672 -0.823423 0.567428 394.969 315.293)" fill="white"/>
<ellipse cx="3.77114" cy="7.20812" rx="3.77114" ry="7.20812" transform="matrix(0.0384717 0.99926 -0.999362 0.0357211 379.1 324.685)" fill="white"/>
<ellipse cx="3.77555" cy="7.19978" rx="3.77555" ry="7.19978" transform="matrix(-0.623147 0.782105 -0.785504 -0.618857 383.003 321.914)" fill="white"/>
<ellipse cx="3.79179" cy="7.16891" rx="3.79179" ry="7.16891" transform="matrix(-0.85897 -0.512026 0.515756 -0.856736 376.414 344.941)" fill="white"/>
<ellipse cx="3.78246" cy="7.18668" rx="3.78246" ry="7.18668" transform="matrix(-0.823423 0.567428 -0.572832 -0.819672 394.432 340.93)" fill="white"/>
<ellipse cx="393.017" cy="330.647" rx="3.77" ry="7.21028" transform="rotate(100.24 393.017 330.647)" fill="white"/>
<ellipse cx="382.582" cy="327.57" rx="6.41593" ry="6.37385" transform="rotate(10.2405 382.582 327.57)" fill="#FECC73"/>
<path d="M365.865 371.474C362.277 362.712 346.654 351.711 351.958 361.572C356.055 369.189 361.446 370.941 365.865 371.474Z" stroke="#404040" stroke-width="2.42813"/>
<path d="M371.574 376.472C367.795 385.137 351.934 395.724 357.453 386.005C361.717 378.498 367.145 376.888 371.574 376.472Z" stroke="#404040" stroke-width="2.42813"/>
<path d="M117.335 329.925L363.151 374.333" stroke="#404040" stroke-width="2.42813"/>
<ellipse cx="375.672" cy="364.752" rx="3.79488" ry="7.163" transform="rotate(10.2405 375.672 364.752)" fill="white"/>
<ellipse cx="3.78246" cy="7.18668" rx="3.78246" ry="7.18668" transform="matrix(0.572832 0.819672 -0.823423 0.567428 386.444 362.484)" fill="white"/>
<ellipse cx="3.77114" cy="7.20812" rx="3.77114" ry="7.20812" transform="matrix(0.0384717 0.99926 -0.999362 0.0357211 370.574 371.876)" fill="white"/>
<ellipse cx="3.77555" cy="7.19978" rx="3.77555" ry="7.19978" transform="matrix(-0.623147 0.782105 -0.785504 -0.618857 374.477 369.105)" fill="white"/>
<ellipse cx="3.79179" cy="7.16891" rx="3.79179" ry="7.16891" transform="matrix(-0.85897 -0.512026 0.515756 -0.856736 367.889 392.132)" fill="white"/>
<ellipse cx="3.78246" cy="7.18668" rx="3.78246" ry="7.18668" transform="matrix(-0.823423 0.567428 -0.572832 -0.819672 385.906 388.122)" fill="white"/>
<ellipse cx="384.491" cy="377.838" rx="3.77" ry="7.21028" transform="rotate(100.24 384.491 377.838)" fill="white"/>
<ellipse cx="374.057" cy="374.762" rx="6.41593" ry="6.37385" transform="rotate(10.2405 374.057 374.762)" fill="#FECC73"/>
<path d="M154.488 125.303C154.707 124.09 155.095 123.022 155.652 122.098C156.228 121.162 156.937 120.388 157.779 119.776C158.621 119.164 159.575 118.742 160.641 118.512C161.707 118.282 162.841 118.259 164.043 118.444C165.261 118.632 166.518 119.054 167.814 119.711C167.695 120.372 167.574 121.041 167.452 121.718C167.332 122.379 167.213 123.041 167.093 123.702C166.244 123.093 165.368 122.675 164.466 122.447C163.565 122.219 162.715 122.196 161.918 122.377C161.121 122.558 160.44 122.955 159.874 123.568C159.311 124.166 158.932 125 158.739 126.071C158.546 127.141 158.607 128.063 158.922 128.835C159.241 129.592 159.742 130.195 160.425 130.643C161.108 131.092 161.912 131.367 162.837 131.469C163.761 131.571 164.728 131.485 165.736 131.212C165.617 131.874 165.496 132.543 165.374 133.22C165.254 133.881 165.135 134.543 165.015 135.204C163.571 135.366 162.246 135.321 161.04 135.071C159.849 134.823 158.794 134.405 157.876 133.817C156.958 133.228 156.212 132.5 155.637 131.632C155.062 130.764 154.667 129.798 154.453 128.735C154.257 127.659 154.269 126.515 154.488 125.303ZM167.561 135.956C168.075 133.106 168.594 130.233 169.118 127.336C169.641 124.439 170.16 121.565 170.675 118.715C171.321 118.832 171.974 118.95 172.636 119.07C173.297 119.189 173.942 119.306 174.572 119.419C174.404 120.348 174.234 121.293 174.06 122.254C173.889 123.198 173.72 124.135 173.552 125.064C174.032 124.842 174.545 124.699 175.093 124.635C175.66 124.559 176.25 124.576 176.864 124.687C177.762 124.849 178.512 125.196 179.115 125.728C179.734 126.262 180.163 126.949 180.401 127.789C180.658 128.616 180.69 129.565 180.497 130.635C180.275 131.863 180.051 133.099 179.827 134.343C179.602 135.587 179.379 136.823 179.157 138.051C178.527 137.937 177.881 137.821 177.22 137.701C176.559 137.582 175.905 137.464 175.26 137.347C175.465 136.214 175.672 135.064 175.883 133.899C176.093 132.734 176.301 131.585 176.506 130.451C176.62 129.821 176.561 129.29 176.33 128.858C176.118 128.413 175.697 128.134 175.067 128.02C174.437 127.907 173.916 128 173.505 128.299C173.093 128.599 172.826 129.087 172.703 129.764C172.499 130.898 172.291 132.047 172.08 133.212C171.87 134.377 171.662 135.527 171.457 136.66C170.828 136.547 170.182 136.43 169.521 136.31C168.859 136.191 168.206 136.073 167.561 135.956ZM186.117 125.261C185.66 125.178 185.263 124.993 184.925 124.704C184.602 124.418 184.364 124.074 184.209 123.672C184.054 123.27 184.016 122.849 184.096 122.408C184.175 121.967 184.357 121.594 184.64 121.287C184.926 120.965 185.269 120.726 185.671 120.571C186.089 120.419 186.526 120.384 186.983 120.466C187.424 120.546 187.805 120.729 188.128 121.015C188.466 121.303 188.712 121.649 188.867 122.051C189.025 122.437 189.064 122.85 188.985 123.291C188.905 123.732 188.722 124.114 188.436 124.436C188.15 124.758 187.799 124.996 187.381 125.148C186.979 125.303 186.558 125.341 186.117 125.261ZM181.699 138.511C182.063 136.495 182.43 134.464 182.8 132.417C183.172 130.355 183.541 128.316 183.905 126.3C184.55 126.417 185.204 126.535 185.865 126.654C186.526 126.774 187.172 126.89 187.802 127.004C187.438 129.02 187.069 131.059 186.697 133.121C186.327 135.168 185.96 137.199 185.596 139.215C184.966 139.101 184.32 138.984 183.659 138.865C182.998 138.745 182.344 138.627 181.699 138.511ZM188.434 139.727C188.948 136.877 189.468 134.004 189.991 131.107C190.514 128.21 191.033 125.336 191.548 122.486C192.194 122.603 192.847 122.721 193.509 122.84C194.17 122.96 194.815 123.077 195.445 123.19C194.93 126.04 194.411 128.914 193.888 131.811C193.364 134.708 192.845 137.581 192.33 140.431C191.701 140.317 191.055 140.201 190.394 140.081C189.733 139.962 189.079 139.844 188.434 139.727ZM203.198 142.395C203.221 142.269 203.242 142.151 203.262 142.04C203.285 141.914 203.306 141.796 203.326 141.686C202.873 141.946 202.379 142.116 201.844 142.199C201.321 142.299 200.777 142.299 200.21 142.196C199.407 142.051 198.68 141.757 198.028 141.314C197.376 140.871 196.826 140.317 196.378 139.65C195.947 138.971 195.646 138.209 195.473 137.365C195.316 136.524 195.323 135.631 195.494 134.686C195.668 133.726 195.975 132.879 196.416 132.146C196.873 131.415 197.421 130.815 198.059 130.345C198.712 129.878 199.42 129.558 200.183 129.387C200.948 129.2 201.724 129.178 202.512 129.32C203.079 129.423 203.597 129.614 204.067 129.894C204.539 130.158 204.944 130.483 205.28 130.869C205.451 129.924 205.623 128.972 205.797 128.011C205.97 127.051 206.142 126.098 206.313 125.154C206.959 125.27 207.612 125.388 208.273 125.508C208.935 125.627 209.58 125.744 210.21 125.858C209.695 128.708 209.176 131.581 208.653 134.478C208.129 137.375 207.61 140.249 207.095 143.099C206.465 142.985 205.82 142.868 205.159 142.749C204.497 142.629 203.844 142.511 203.198 142.395ZM201.353 138.842C202.108 138.978 202.764 138.812 203.32 138.344C203.877 137.875 204.236 137.192 204.398 136.295C204.56 135.397 204.461 134.64 204.101 134.022C203.744 133.388 203.188 133.003 202.432 132.867C201.66 132.727 200.998 132.884 200.445 133.337C199.907 133.792 199.556 134.477 199.391 135.39C199.226 136.303 199.314 137.075 199.655 137.706C200.015 138.324 200.581 138.702 201.353 138.842ZM209.929 143.611C210.444 140.761 210.963 137.887 211.487 134.99C212.01 132.093 212.529 129.22 213.044 126.37C213.69 126.486 214.343 126.604 215.004 126.724C215.666 126.843 216.311 126.96 216.941 127.074C216.773 128.003 216.602 128.947 216.429 129.908C216.258 130.853 216.089 131.789 215.921 132.718C216.4 132.496 216.914 132.353 217.462 132.289C218.029 132.213 218.619 132.23 219.233 132.341C220.131 132.503 220.881 132.85 221.484 133.382C222.103 133.916 222.531 134.603 222.77 135.443C223.027 136.27 223.059 137.219 222.865 138.29C222.644 139.518 222.42 140.754 222.196 141.998C221.971 143.241 221.748 144.477 221.526 145.706C220.896 145.592 220.25 145.475 219.589 145.356C218.928 145.236 218.274 145.118 217.629 145.002C217.834 143.868 218.041 142.718 218.252 141.553C218.462 140.388 218.67 139.239 218.875 138.105C218.988 137.475 218.93 136.945 218.699 136.513C218.487 136.068 218.066 135.788 217.436 135.675C216.806 135.561 216.285 135.654 215.873 135.953C215.462 136.253 215.194 136.741 215.072 137.418C214.867 138.552 214.66 139.701 214.449 140.866C214.239 142.032 214.031 143.181 213.826 144.315C213.196 144.201 212.551 144.084 211.89 143.965C211.228 143.845 210.575 143.727 209.929 143.611ZM229.668 147.567C228.754 147.402 227.933 147.091 227.202 146.634C226.475 146.161 225.872 145.58 225.395 144.892C224.921 144.189 224.589 143.414 224.401 142.567C224.228 141.723 224.226 140.836 224.393 139.907C224.561 138.978 224.874 138.148 225.331 137.418C225.804 136.69 226.384 136.088 227.072 135.611C227.76 135.133 228.526 134.808 229.37 134.636C230.217 134.447 231.097 134.436 232.01 134.601C232.939 134.768 233.759 135.087 234.471 135.557C235.202 136.014 235.805 136.587 236.283 137.275C236.76 137.963 237.085 138.729 237.258 139.573C237.446 140.42 237.456 141.308 237.289 142.237C237.121 143.166 236.8 143.994 236.328 144.721C235.87 145.452 235.297 146.063 234.606 146.557C233.918 147.034 233.151 147.367 232.304 147.555C231.475 147.731 230.597 147.735 229.668 147.567ZM230.303 144.048C231.075 144.187 231.739 144.022 232.295 143.554C232.87 143.072 233.235 142.399 233.392 141.533C233.551 140.651 233.443 139.9 233.067 139.279C232.71 138.645 232.146 138.259 231.374 138.12C230.603 137.98 229.931 138.143 229.359 138.609C228.806 139.062 228.45 139.729 228.29 140.611C228.134 141.477 228.233 142.235 228.587 142.884C228.96 143.52 229.532 143.908 230.303 144.048ZM243.829 150.125C242.916 149.96 242.094 149.649 241.364 149.192C240.636 148.719 240.034 148.139 239.556 147.451C239.082 146.747 238.75 145.972 238.562 145.125C238.389 144.281 238.387 143.394 238.555 142.465C238.723 141.536 239.035 140.707 239.492 139.976C239.965 139.249 240.545 138.646 241.233 138.169C241.921 137.692 242.687 137.367 243.531 137.194C244.378 137.006 245.258 136.994 246.171 137.159C247.1 137.327 247.921 137.646 248.633 138.116C249.363 138.573 249.967 139.145 250.444 139.833C250.921 140.521 251.246 141.287 251.419 142.131C251.608 142.978 251.618 143.866 251.45 144.795C251.282 145.724 250.962 146.552 250.489 147.28C250.032 148.01 249.458 148.622 248.767 149.115C248.079 149.592 247.312 149.925 246.465 150.114C245.637 150.289 244.758 150.293 243.829 150.125ZM244.465 146.606C245.236 146.745 245.9 146.581 246.456 146.112C247.031 145.631 247.397 144.957 247.553 144.091C247.712 143.209 247.604 142.458 247.229 141.837C246.872 141.204 246.307 140.817 245.536 140.678C244.764 140.539 244.093 140.702 243.521 141.168C242.967 141.62 242.611 142.288 242.452 143.169C242.295 144.035 242.394 144.793 242.748 145.442C243.121 146.079 243.693 146.467 244.465 146.606ZM260.42 152.732C260.443 152.606 260.465 152.488 260.484 152.378C260.507 152.252 260.529 152.134 260.548 152.024C260.095 152.283 259.601 152.454 259.066 152.536C258.543 152.637 257.999 152.636 257.432 152.534C256.629 152.389 255.902 152.095 255.25 151.652C254.599 151.209 254.048 150.654 253.6 149.988C253.17 149.309 252.868 148.547 252.696 147.703C252.539 146.861 252.545 145.968 252.716 145.024C252.89 144.063 253.197 143.216 253.638 142.483C254.096 141.753 254.643 141.153 255.281 140.683C255.934 140.215 256.642 139.896 257.405 139.725C258.17 139.538 258.947 139.516 259.734 139.658C260.301 139.76 260.819 139.951 261.289 140.231C261.761 140.496 262.166 140.821 262.503 141.207C262.673 140.262 262.845 139.309 263.019 138.349C263.192 137.389 263.365 136.436 263.535 135.491C264.181 135.608 264.834 135.726 265.495 135.845C266.157 135.965 266.802 136.082 267.432 136.195C266.917 139.045 266.398 141.919 265.875 144.816C265.351 147.713 264.832 150.586 264.317 153.436C263.688 153.322 263.042 153.206 262.381 153.086C261.719 152.967 261.066 152.849 260.42 152.732ZM258.575 149.179C259.33 149.316 259.986 149.15 260.543 148.681C261.099 148.213 261.458 147.53 261.62 146.632C261.782 145.735 261.683 144.977 261.323 144.359C260.966 143.726 260.41 143.341 259.654 143.204C258.883 143.065 258.22 143.222 257.667 143.674C257.129 144.13 256.778 144.815 256.613 145.728C256.448 146.641 256.536 147.413 256.878 148.044C257.237 148.661 257.803 149.04 258.575 149.179ZM282.004 152.729C281.828 153.705 281.407 154.459 280.742 154.989C280.096 155.506 279.29 155.824 278.326 155.943C277.362 156.061 276.317 155.994 275.192 155.742C274.08 155.509 272.971 155.121 271.865 154.58C271.973 153.982 272.084 153.368 272.198 152.738C272.312 152.108 272.423 151.494 272.531 150.896C273.138 151.315 273.757 151.67 274.387 151.963C275.02 152.24 275.601 152.442 276.131 152.571C276.66 152.699 277.1 152.738 277.451 152.687C277.804 152.621 278.007 152.446 278.058 152.163C278.098 151.942 277.987 151.743 277.726 151.566C277.482 151.392 277.147 151.218 276.723 151.044C276.302 150.854 275.853 150.642 275.375 150.41C274.915 150.164 274.489 149.868 274.096 149.52C273.707 149.157 273.411 148.722 273.211 148.214C273.028 147.693 273.004 147.063 273.138 146.323C273.297 145.441 273.684 144.739 274.299 144.216C274.932 143.68 275.71 143.333 276.633 143.174C277.559 143 278.557 143.01 279.628 143.203C280.698 143.396 281.76 143.775 282.812 144.339C282.704 144.938 282.593 145.552 282.48 146.182C282.366 146.811 282.255 147.425 282.147 148.024C281.342 147.439 280.566 147.007 279.82 146.725C279.075 146.444 278.455 146.316 277.963 146.341C277.474 146.35 277.199 146.52 277.139 146.851C277.1 147.071 277.202 147.269 277.447 147.443C277.711 147.604 278.046 147.771 278.454 147.942C278.878 148.116 279.32 148.326 279.78 148.572C280.255 148.82 280.68 149.124 281.054 149.485C281.446 149.832 281.732 150.274 281.912 150.81C282.11 151.334 282.14 151.973 282.004 152.729ZM284.477 157.078C284.738 155.63 285.002 154.173 285.266 152.709C285.531 151.245 285.792 149.796 286.051 148.363C285.736 148.306 285.413 148.248 285.083 148.188C284.768 148.131 284.453 148.075 284.138 148.018C284.243 147.435 284.349 146.852 284.454 146.27C284.559 145.687 284.664 145.105 284.77 144.522C285.085 144.579 285.399 144.636 285.714 144.693C286.045 144.753 286.368 144.811 286.683 144.868C286.782 144.317 286.88 143.774 286.977 143.238C287.077 142.687 287.175 142.144 287.271 141.609C287.917 141.725 288.57 141.843 289.232 141.963C289.893 142.082 290.539 142.199 291.168 142.313C291.072 142.848 290.974 143.391 290.874 143.942C290.777 144.478 290.679 145.021 290.58 145.572C290.942 145.637 291.312 145.704 291.69 145.772C292.067 145.841 292.437 145.907 292.8 145.973C292.694 146.555 292.589 147.138 292.484 147.721C292.379 148.303 292.273 148.886 292.168 149.468C291.806 149.403 291.436 149.336 291.058 149.268C290.68 149.2 290.31 149.133 289.948 149.067C289.689 150.5 289.428 151.949 289.163 153.413C288.898 154.877 288.635 156.334 288.374 157.782C287.744 157.668 287.098 157.552 286.437 157.432C285.776 157.313 285.122 157.195 284.477 157.078ZM300.506 159.974C300.529 159.848 300.55 159.73 300.57 159.62C300.593 159.494 300.614 159.376 300.634 159.265C300.181 159.525 299.686 159.696 299.151 159.778C298.629 159.879 298.084 159.878 297.518 159.776C296.715 159.63 295.986 159.344 295.331 158.917C294.68 158.474 294.13 157.92 293.681 157.253C293.251 156.574 292.949 155.812 292.777 154.968C292.62 154.127 292.628 153.226 292.802 152.266C292.978 151.289 293.287 150.435 293.728 149.701C294.185 148.971 294.731 148.379 295.366 147.924C296.02 147.457 296.728 147.138 297.49 146.967C298.256 146.78 299.032 146.757 299.819 146.9C300.386 147.002 300.904 147.193 301.374 147.473C301.847 147.737 302.251 148.063 302.588 148.449C302.611 148.323 302.632 148.204 302.652 148.094C302.672 147.984 302.692 147.874 302.712 147.764C303.357 147.88 304.011 147.998 304.672 148.118C305.333 148.237 305.979 148.354 306.609 148.468C306.245 150.483 305.876 152.522 305.504 154.585C305.134 156.631 304.767 158.663 304.403 160.678C303.773 160.564 303.128 160.448 302.466 160.328C301.805 160.209 301.152 160.091 300.506 159.974ZM298.66 156.421C299.416 156.558 300.072 156.392 300.628 155.923C301.184 155.455 301.543 154.772 301.706 153.874C301.868 152.977 301.769 152.219 301.409 151.601C301.052 150.968 300.495 150.582 299.74 150.446C298.968 150.307 298.306 150.463 297.752 150.916C297.215 151.372 296.864 152.056 296.699 152.97C296.534 153.883 296.622 154.655 296.963 155.285C297.323 155.903 297.889 156.282 298.66 156.421ZM318.84 161.238C318.598 162.576 318.105 163.641 317.36 164.433C316.631 165.228 315.731 165.757 314.66 166.019C313.585 166.296 312.409 166.327 311.131 166.113C309.868 165.901 308.572 165.472 307.242 164.825C307.353 164.211 307.465 163.589 307.579 162.959C307.69 162.345 307.801 161.731 307.912 161.117C309.067 161.83 310.149 162.277 311.157 162.459C312.161 162.657 312.991 162.612 313.644 162.323C314.317 162.022 314.717 161.517 314.845 160.808C314.859 160.73 314.872 160.659 314.883 160.596C314.897 160.517 314.91 160.446 314.922 160.383C314.474 160.611 313.975 160.765 313.424 160.844C312.873 160.924 312.298 160.909 311.7 160.801C310.708 160.622 309.86 160.233 309.155 159.634C308.469 159.022 307.979 158.267 307.686 157.369C307.396 156.455 307.351 155.447 307.55 154.345C307.703 153.494 307.986 152.741 308.397 152.083C308.809 151.426 309.313 150.883 309.911 150.454C310.509 150.026 311.155 149.736 311.848 149.585C312.545 149.418 313.248 149.399 313.956 149.527C314.523 149.629 315.036 149.803 315.496 150.049C315.956 150.294 316.35 150.585 316.68 150.921C316.7 150.811 316.718 150.709 316.735 150.614C316.752 150.52 316.771 150.417 316.791 150.307C317.436 150.424 318.09 150.542 318.751 150.661C319.412 150.781 320.058 150.897 320.688 151.011C320.383 152.696 320.075 154.404 319.762 156.136C319.452 157.852 319.145 159.553 318.84 161.238ZM313.278 157.599C313.94 157.718 314.504 157.609 314.972 157.271C315.458 156.919 315.761 156.413 315.88 155.752C316.003 155.075 315.897 154.487 315.565 153.988C315.248 153.492 314.759 153.184 314.098 153.064C313.405 152.939 312.815 153.052 312.329 153.403C311.846 153.739 311.542 154.253 311.417 154.946C311.294 155.623 311.401 156.203 311.736 156.686C312.072 157.169 312.586 157.474 313.278 157.599ZM331.685 165.021C330.516 165.282 329.386 165.37 328.296 165.287C327.205 165.204 326.201 164.957 325.283 164.548C324.378 164.157 323.606 163.619 322.965 162.934C322.325 162.249 321.869 161.443 321.597 160.516C321.341 159.592 321.315 158.571 321.517 157.453C321.684 156.524 321.988 155.701 322.426 154.983C322.883 154.253 323.448 153.648 324.12 153.168C324.795 152.672 325.546 152.336 326.375 152.16C327.206 151.969 328.078 151.956 328.992 152.121C329.81 152.269 330.526 152.536 331.139 152.924C331.752 153.311 332.258 153.792 332.658 154.369C333.061 154.929 333.352 155.567 333.532 156.283C333.712 156.998 333.77 157.756 333.706 158.558C333.643 159.359 333.445 160.185 333.112 161.036C331.821 160.802 330.522 160.568 329.215 160.332C327.909 160.096 326.61 159.861 325.318 159.628C325.51 160.28 325.929 160.795 326.576 161.172C327.239 161.552 328.059 161.781 329.037 161.86C330.03 161.942 331.115 161.878 332.291 161.668C332.191 162.219 332.09 162.778 331.988 163.345C331.886 163.911 331.785 164.47 331.685 165.021ZM328.266 155.599C327.809 155.517 327.361 155.566 326.922 155.747C326.499 155.931 326.138 156.264 325.839 156.746C326.548 156.874 327.256 157.002 327.965 157.13C328.689 157.261 329.405 157.391 330.114 157.519C330.022 156.949 329.808 156.512 329.473 156.208C329.156 155.89 328.754 155.688 328.266 155.599Z" fill="#2F4ECD"/>
<path d="M145.373 179.809C145.851 177.163 146.335 174.487 146.824 171.779C147.313 169.07 147.797 166.394 148.275 163.749C148.968 163.874 149.66 163.999 150.353 164.124C151.046 164.249 151.731 164.373 152.408 164.495C152.041 166.526 151.67 168.581 151.294 170.659C150.922 172.722 150.552 174.769 150.185 176.8C151.019 176.951 151.862 177.103 152.712 177.257C153.562 177.41 154.397 177.561 155.215 177.709C155.104 178.323 154.991 178.953 154.874 179.598C154.76 180.228 154.648 180.85 154.537 181.464C153.025 181.191 151.498 180.915 149.955 180.636C148.412 180.358 146.885 180.082 145.373 179.809ZM161.09 168.6C160.633 168.518 160.236 168.332 159.898 168.043C159.576 167.757 159.337 167.414 159.182 167.012C159.027 166.61 158.989 166.188 159.069 165.747C159.149 165.306 159.33 164.933 159.613 164.626C159.899 164.304 160.243 164.065 160.645 163.91C161.062 163.758 161.499 163.723 161.956 163.806C162.397 163.885 162.779 164.068 163.101 164.354C163.439 164.643 163.685 164.988 163.84 165.39C163.998 165.776 164.037 166.19 163.958 166.631C163.878 167.071 163.695 167.453 163.41 167.775C163.124 168.098 162.772 168.335 162.354 168.487C161.952 168.642 161.531 168.68 161.09 168.6ZM156.672 181.85C157.036 179.834 157.403 177.803 157.773 175.756C158.145 173.694 158.514 171.655 158.878 169.639C159.523 169.756 160.177 169.874 160.838 169.994C161.499 170.113 162.145 170.23 162.775 170.343C162.411 172.359 162.042 174.398 161.67 176.46C161.3 178.507 160.933 180.538 160.569 182.554C159.939 182.44 159.294 182.323 158.632 182.204C157.971 182.084 157.318 181.966 156.672 181.85ZM166.099 183.553C165.77 181.412 165.429 179.253 165.074 177.075C164.738 174.885 164.406 172.719 164.078 170.579C164.755 170.701 165.432 170.823 166.109 170.946C166.801 171.071 167.486 171.195 168.163 171.317C168.348 172.635 168.531 173.96 168.713 175.294C168.913 176.615 169.098 177.932 169.267 179.247C169.901 178.078 170.535 176.908 171.169 175.738C171.806 174.552 172.434 173.373 173.052 172.2C173.714 172.32 174.383 172.44 175.06 172.563C175.737 172.685 176.406 172.806 177.067 172.925C176.01 174.816 174.933 176.727 173.837 178.658C172.758 180.577 171.691 182.482 170.634 184.372C169.894 184.238 169.138 184.102 168.366 183.962C167.595 183.823 166.839 183.687 166.099 183.553ZM186.425 186.639C185.256 186.9 184.126 186.988 183.036 186.905C181.945 186.822 180.941 186.576 180.023 186.166C179.118 185.775 178.345 185.237 177.705 184.552C177.065 183.867 176.609 183.061 176.337 182.134C176.081 181.21 176.054 180.189 176.256 179.071C176.424 178.142 176.727 177.319 177.166 176.602C177.623 175.871 178.188 175.266 178.86 174.786C179.535 174.29 180.286 173.954 181.115 173.779C181.946 173.587 182.818 173.574 183.731 173.739C184.55 173.887 185.266 174.155 185.879 174.542C186.492 174.929 186.998 175.411 187.398 175.987C187.801 176.547 188.092 177.185 188.272 177.901C188.451 178.616 188.51 179.374 188.446 180.176C188.383 180.977 188.185 181.803 187.852 182.654C186.561 182.42 185.262 182.186 183.955 181.95C182.648 181.714 181.349 181.479 180.058 181.246C180.249 181.898 180.668 182.413 181.316 182.79C181.979 183.17 182.799 183.399 183.777 183.478C184.77 183.56 185.855 183.496 187.031 183.286C186.931 183.837 186.83 184.396 186.728 184.963C186.625 185.529 186.524 186.088 186.425 186.639ZM183.005 177.217C182.549 177.135 182.101 177.184 181.662 177.365C181.238 177.549 180.877 177.882 180.579 178.364C181.287 178.492 181.996 178.62 182.704 178.748C183.429 178.879 184.145 179.009 184.854 179.137C184.761 178.567 184.548 178.13 184.212 177.826C183.896 177.508 183.493 177.306 183.005 177.217ZM189.331 187.75C189.846 184.9 190.365 182.026 190.888 179.129C191.412 176.232 191.931 173.359 192.446 170.509C193.091 170.626 193.745 170.744 194.406 170.863C195.067 170.983 195.713 171.099 196.342 171.213C195.828 174.063 195.309 176.936 194.785 179.833C194.262 182.73 193.743 185.604 193.228 188.454C192.598 188.34 191.952 188.223 191.291 188.104C190.63 187.984 189.976 187.866 189.331 187.75ZM196.398 192.929C196.864 192.151 197.339 191.367 197.823 190.577C198.32 189.805 198.8 189.038 199.263 188.276C198.85 186.332 198.425 184.369 197.986 182.387C197.566 180.393 197.149 178.423 196.736 176.479C197.429 176.604 198.122 176.729 198.815 176.854C199.507 176.979 200.192 177.103 200.869 177.226C201.097 178.307 201.321 179.405 201.543 180.518C201.78 181.634 202.011 182.74 202.236 183.838C202.798 182.883 203.371 181.921 203.952 180.953C204.533 179.985 205.104 179.031 205.664 178.092C206.341 178.214 207.018 178.336 207.695 178.459C208.372 178.581 209.049 178.703 209.726 178.826C208.196 181.264 206.651 183.741 205.091 186.256C203.55 188.758 202.014 191.228 200.484 193.667C199.807 193.545 199.122 193.421 198.43 193.296C197.753 193.173 197.076 193.051 196.398 192.929ZM221.809 193.617C221.832 193.491 221.853 193.373 221.873 193.263C221.896 193.137 221.917 193.019 221.937 192.909C221.484 193.168 220.989 193.339 220.454 193.421C219.932 193.522 219.387 193.521 218.821 193.419C218.018 193.274 217.289 192.988 216.634 192.56C215.983 192.118 215.433 191.563 214.984 190.897C214.554 190.217 214.252 189.456 214.08 188.611C213.923 187.77 213.931 186.869 214.105 185.909C214.281 184.933 214.59 184.078 215.031 183.345C215.488 182.614 216.034 182.022 216.669 181.568C217.323 181.1 218.031 180.781 218.793 180.61C219.559 180.423 220.335 180.401 221.122 180.543C221.689 180.645 222.207 180.836 222.677 181.116C223.15 181.381 223.554 181.706 223.891 182.092C223.914 181.966 223.935 181.848 223.955 181.738C223.975 181.627 223.995 181.517 224.015 181.407C224.66 181.524 225.314 181.642 225.975 181.761C226.636 181.88 227.282 181.997 227.912 182.111C227.548 184.126 227.179 186.165 226.807 188.228C226.437 190.275 226.07 192.306 225.706 194.321C225.076 194.207 224.43 194.091 223.769 193.971C223.108 193.852 222.454 193.734 221.809 193.617ZM219.963 190.064C220.719 190.201 221.375 190.035 221.931 189.566C222.487 189.098 222.846 188.415 223.008 187.517C223.171 186.62 223.072 185.862 222.712 185.244C222.355 184.611 221.798 184.226 221.043 184.089C220.271 183.95 219.609 184.107 219.055 184.559C218.518 185.015 218.166 185.7 218.001 186.613C217.836 187.526 217.925 188.298 218.266 188.929C218.626 189.547 219.192 189.925 219.963 190.064ZM228.306 194.791C228.671 192.776 229.038 190.745 229.407 188.698C229.78 186.635 230.148 184.596 230.512 182.581C231.158 182.697 231.811 182.815 232.473 182.935C233.134 183.054 233.78 183.171 234.409 183.285C234.389 183.395 234.371 183.497 234.354 183.592C234.337 183.686 234.318 183.789 234.298 183.899C234.778 183.676 235.291 183.533 235.839 183.47C236.406 183.393 236.996 183.411 237.61 183.522C238.508 183.684 239.258 184.031 239.861 184.562C240.48 185.097 240.909 185.784 241.147 186.624C241.404 187.451 241.436 188.399 241.243 189.47C241.021 190.698 240.797 191.934 240.573 193.178C240.348 194.422 240.125 195.658 239.903 196.886C239.273 196.772 238.627 196.656 237.966 196.536C237.305 196.417 236.651 196.299 236.006 196.182C236.211 195.048 236.418 193.899 236.629 192.734C236.839 191.569 237.047 190.419 237.252 189.286C237.366 188.656 237.307 188.125 237.076 187.693C236.864 187.248 236.443 186.969 235.813 186.855C235.183 186.741 234.662 186.834 234.25 187.134C233.839 187.433 233.572 187.922 233.449 188.599C233.244 189.732 233.037 190.882 232.826 192.047C232.616 193.212 232.408 194.361 232.203 195.495C231.574 195.381 230.928 195.265 230.267 195.145C229.605 195.026 228.952 194.908 228.306 194.791ZM250.455 198.792C250.477 198.666 250.499 198.548 250.519 198.438C250.541 198.312 250.563 198.194 250.583 198.084C250.129 198.343 249.635 198.514 249.1 198.596C248.578 198.697 248.033 198.696 247.466 198.594C246.663 198.449 245.936 198.155 245.284 197.712C244.633 197.269 244.082 196.714 243.634 196.048C243.204 195.369 242.902 194.607 242.73 193.763C242.573 192.922 242.58 192.029 242.75 191.084C242.924 190.123 243.231 189.277 243.673 188.543C244.13 187.813 244.677 187.213 245.315 186.743C245.968 186.275 246.676 185.956 247.439 185.785C248.204 185.598 248.981 185.576 249.768 185.718C250.335 185.82 250.853 186.012 251.323 186.292C251.795 186.556 252.2 186.881 252.537 187.267C252.707 186.322 252.879 185.37 253.053 184.409C253.226 183.449 253.399 182.496 253.569 181.551C254.215 181.668 254.868 181.786 255.53 181.906C256.191 182.025 256.836 182.142 257.466 182.255C256.951 185.105 256.432 187.979 255.909 190.876C255.385 193.773 254.866 196.646 254.351 199.496C253.722 199.383 253.076 199.266 252.415 199.146C251.754 199.027 251.1 198.909 250.455 198.792ZM248.609 195.24C249.365 195.376 250.02 195.21 250.577 194.741C251.133 194.273 251.492 193.59 251.654 192.692C251.816 191.795 251.717 191.037 251.357 190.419C251 189.786 250.444 189.401 249.688 189.264C248.917 189.125 248.254 189.282 247.701 189.734C247.163 190.19 246.812 190.875 246.647 191.788C246.482 192.701 246.57 193.473 246.912 194.104C247.272 194.722 247.837 195.1 248.609 195.24ZM266.562 187.655C266.106 187.572 265.708 187.386 265.37 187.098C265.048 186.812 264.809 186.468 264.654 186.066C264.499 185.664 264.462 185.243 264.541 184.802C264.621 184.361 264.802 183.987 265.085 183.681C265.371 183.358 265.715 183.12 266.117 182.965C266.535 182.812 266.972 182.778 267.428 182.86C267.869 182.94 268.251 183.123 268.573 183.408C268.911 183.697 269.158 184.042 269.313 184.444C269.471 184.831 269.51 185.244 269.43 185.685C269.35 186.126 269.168 186.507 268.882 186.83C268.596 187.152 268.244 187.389 267.827 187.541C267.425 187.696 267.003 187.734 266.562 187.655ZM262.144 200.904C262.508 198.889 262.875 196.858 263.245 194.811C263.618 192.748 263.986 190.709 264.35 188.694C264.996 188.81 265.649 188.928 266.311 189.048C266.972 189.167 267.617 189.284 268.247 189.398C267.883 191.413 267.515 193.452 267.142 195.515C266.772 197.562 266.405 199.593 266.041 201.608C265.411 201.494 264.766 201.378 264.105 201.258C263.443 201.139 262.79 201.021 262.144 200.904ZM268.761 202.1C269.125 200.084 269.492 198.053 269.862 196.006C270.234 193.944 270.603 191.905 270.967 189.889C271.612 190.006 272.266 190.124 272.927 190.243C273.588 190.363 274.234 190.479 274.864 190.593C274.844 190.703 274.825 190.806 274.808 190.9C274.791 190.995 274.773 191.097 274.753 191.207C275.232 190.985 275.746 190.842 276.294 190.778C276.86 190.702 277.451 190.719 278.065 190.83C278.962 190.992 279.712 191.339 280.316 191.871C280.934 192.405 281.363 193.092 281.602 193.932C281.859 194.759 281.89 195.708 281.697 196.779C281.475 198.007 281.252 199.243 281.027 200.487C280.802 201.73 280.579 202.966 280.357 204.194C279.727 204.081 279.082 203.964 278.421 203.845C277.759 203.725 277.106 203.607 276.46 203.49C276.665 202.357 276.873 201.207 277.083 200.042C277.294 198.877 277.501 197.728 277.706 196.594C277.82 195.964 277.761 195.433 277.531 195.002C277.318 194.557 276.897 194.277 276.267 194.164C275.638 194.05 275.117 194.143 274.705 194.442C274.293 194.742 274.026 195.23 273.904 195.907C273.699 197.041 273.491 198.19 273.281 199.355C273.07 200.52 272.863 201.67 272.658 202.804C272.028 202.69 271.383 202.573 270.721 202.454C270.06 202.334 269.407 202.216 268.761 202.1ZM282.761 204.629C283.125 202.613 283.492 200.582 283.862 198.535C284.234 196.473 284.603 194.434 284.967 192.418C285.612 192.535 286.266 192.653 286.927 192.773C287.588 192.892 288.234 193.009 288.864 193.122C288.844 193.233 288.825 193.335 288.808 193.429C288.791 193.524 288.773 193.626 288.753 193.736C289.232 193.514 289.746 193.371 290.294 193.308C290.86 193.231 291.451 193.248 292.065 193.359C292.962 193.521 293.712 193.868 294.315 194.4C294.934 194.934 295.363 195.622 295.601 196.461C295.859 197.288 295.89 198.237 295.697 199.308C295.475 200.536 295.252 201.772 295.027 203.016C294.802 204.26 294.579 205.496 294.357 206.724C293.727 206.61 293.082 206.493 292.421 206.374C291.759 206.254 291.106 206.136 290.46 206.02C290.665 204.886 290.873 203.737 291.083 202.571C291.294 201.406 291.501 200.257 291.706 199.123C291.82 198.494 291.761 197.963 291.531 197.531C291.318 197.086 290.897 196.807 290.267 196.693C289.638 196.579 289.117 196.672 288.705 196.971C288.293 197.271 288.026 197.759 287.904 198.436C287.699 199.57 287.491 200.719 287.281 201.885C287.07 203.05 286.863 204.199 286.658 205.333C286.028 205.219 285.383 205.102 284.721 204.983C284.06 204.863 283.406 204.745 282.761 204.629ZM302.479 208.581C301.566 208.416 300.744 208.105 300.014 207.648C299.286 207.175 298.684 206.595 298.206 205.907C297.732 205.203 297.4 204.428 297.212 203.581C297.039 202.737 297.037 201.85 297.205 200.921C297.372 199.993 297.685 199.163 298.142 198.432C298.615 197.705 299.195 197.103 299.883 196.625C300.571 196.148 301.337 195.823 302.181 195.65C303.028 195.462 303.908 195.45 304.821 195.615C305.75 195.783 306.571 196.102 307.282 196.572C308.013 197.029 308.617 197.601 309.094 198.289C309.571 198.977 309.896 199.743 310.069 200.587C310.257 201.434 310.268 202.322 310.1 203.251C309.932 204.18 309.612 205.008 309.139 205.736C308.682 206.466 308.108 207.078 307.417 207.571C306.729 208.048 305.962 208.381 305.115 208.57C304.287 208.745 303.408 208.749 302.479 208.581ZM303.115 205.062C303.886 205.201 304.55 205.037 305.106 204.568C305.681 204.087 306.047 203.413 306.203 202.547C306.362 201.665 306.254 200.914 305.878 200.293C305.521 199.66 304.957 199.273 304.186 199.134C303.414 198.995 302.742 199.158 302.171 199.624C301.617 200.076 301.261 200.744 301.102 201.625C300.945 202.491 301.044 203.249 301.398 203.898C301.771 204.535 302.343 204.923 303.115 205.062ZM311.366 203.48C311.582 202.283 312.015 201.28 312.666 200.471C313.319 199.646 314.128 199.036 315.094 198.641C316.059 198.247 317.127 198.098 318.296 198.196C319.468 198.277 320.672 198.633 321.908 199.263C321.8 199.861 321.69 200.467 321.579 201.081C321.468 201.695 321.359 202.302 321.251 202.9C320.417 202.294 319.58 201.931 318.74 201.812C317.9 201.693 317.168 201.829 316.544 202.22C315.924 202.596 315.528 203.256 315.357 204.201C315.187 205.146 315.325 205.91 315.772 206.495C316.222 207.064 316.862 207.44 317.69 207.622C318.522 207.789 319.433 207.742 320.423 207.482C320.315 208.08 320.205 208.686 320.094 209.3C319.983 209.914 319.874 210.521 319.766 211.119C318.388 211.276 317.136 211.188 316.009 210.855C314.879 210.537 313.931 210.024 313.165 209.317C312.399 208.609 311.852 207.763 311.526 206.777C311.203 205.775 311.15 204.676 311.366 203.48ZM332.651 213.057C331.483 213.317 330.353 213.405 329.262 213.322C328.172 213.239 327.167 212.993 326.25 212.583C325.345 212.192 324.572 211.654 323.932 210.969C323.291 210.284 322.835 209.478 322.564 208.551C322.308 207.627 322.281 206.606 322.483 205.488C322.651 204.559 322.954 203.736 323.393 203.019C323.85 202.288 324.414 201.683 325.086 201.203C325.761 200.707 326.513 200.371 327.341 200.196C328.173 200.004 329.045 199.991 329.958 200.156C330.777 200.304 331.493 200.572 332.106 200.959C332.718 201.346 333.225 201.828 333.625 202.404C334.028 202.964 334.319 203.602 334.498 204.318C334.678 205.033 334.736 205.791 334.673 206.593C334.609 207.394 334.411 208.22 334.079 209.071C332.788 208.838 331.489 208.603 330.182 208.367C328.875 208.131 327.576 207.896 326.285 207.663C326.476 208.315 326.895 208.83 327.542 209.207C328.205 209.587 329.026 209.816 330.003 209.895C330.997 209.977 332.081 209.913 333.257 209.703C333.158 210.254 333.057 210.813 332.954 211.38C332.852 211.946 332.751 212.505 332.651 213.057ZM329.232 203.635C328.775 203.552 328.328 203.601 327.888 203.782C327.465 203.966 327.104 204.299 326.805 204.781C327.514 204.909 328.223 205.037 328.931 205.165C329.655 205.296 330.372 205.426 331.08 205.554C330.988 204.984 330.774 204.547 330.439 204.243C330.122 203.925 329.72 203.723 329.232 203.635ZM335.439 214.146C335.804 212.13 336.17 210.099 336.54 208.052C336.913 205.99 337.281 203.951 337.645 201.935C338.291 202.052 338.944 202.17 339.606 202.289C340.267 202.409 340.912 202.525 341.542 202.639C341.522 202.749 341.504 202.852 341.487 202.946C341.47 203.041 341.451 203.143 341.431 203.253C341.91 203.031 342.424 202.888 342.972 202.824C343.539 202.748 344.129 202.765 344.743 202.876C345.641 203.038 346.391 203.385 346.994 203.917C347.613 204.451 348.041 205.138 348.28 205.978C348.537 206.805 348.569 207.754 348.375 208.825C348.154 210.053 347.93 211.289 347.706 212.532C347.481 213.776 347.258 215.012 347.036 216.24C346.406 216.127 345.76 216.01 345.099 215.891C344.438 215.771 343.784 215.653 343.139 215.536C343.344 214.403 343.551 213.253 343.762 212.088C343.972 210.923 344.18 209.774 344.385 208.64C344.498 208.01 344.44 207.479 344.209 207.048C343.997 206.603 343.576 206.323 342.946 206.21C342.316 206.096 341.795 206.189 341.383 206.488C340.972 206.788 340.705 207.276 340.582 207.953C340.377 209.087 340.17 210.236 339.959 211.401C339.749 212.566 339.541 213.716 339.336 214.85C338.707 214.736 338.061 214.619 337.4 214.5C336.738 214.38 336.085 214.262 335.439 214.146ZM350.715 216.905C350.976 215.457 351.24 214 351.504 212.536C351.769 211.072 352.03 209.623 352.289 208.19C351.974 208.133 351.651 208.075 351.321 208.015C351.006 207.958 350.691 207.901 350.376 207.845C350.481 207.262 350.587 206.679 350.692 206.097C350.797 205.514 350.902 204.932 351.008 204.349C351.323 204.406 351.637 204.463 351.952 204.52C352.283 204.58 352.606 204.638 352.921 204.695C353.02 204.144 353.118 203.6 353.215 203.065C353.315 202.514 353.413 201.971 353.509 201.436C354.155 201.552 354.808 201.67 355.47 201.79C356.131 201.909 356.777 202.026 357.406 202.14C357.31 202.675 357.212 203.218 357.112 203.769C357.015 204.304 356.917 204.848 356.818 205.399C357.18 205.464 357.55 205.531 357.928 205.599C358.305 205.668 358.675 205.734 359.038 205.8C358.932 206.382 358.827 206.965 358.722 207.548C358.617 208.13 358.511 208.713 358.406 209.295C358.044 209.23 357.674 209.163 357.296 209.095C356.918 209.026 356.548 208.96 356.186 208.894C355.927 210.327 355.666 211.776 355.401 213.24C355.136 214.704 354.873 216.161 354.612 217.609C353.982 217.495 353.336 217.379 352.675 217.259C352.014 217.14 351.36 217.022 350.715 216.905Z" fill="#2F4ECD"/>
<path d="M137.195 227.076C137.673 224.431 138.157 221.754 138.646 219.046C139.135 216.338 139.619 213.661 140.097 211.016C141.073 211.192 142.049 211.368 143.025 211.545C144.017 211.724 144.994 211.9 145.954 212.074C147.166 212.293 148.179 212.72 148.991 213.354C149.806 213.973 150.39 214.745 150.743 215.671C151.096 216.596 151.172 217.618 150.97 218.736C150.77 219.838 150.344 220.761 149.689 221.504C149.05 222.25 148.257 222.774 147.308 223.074C146.375 223.377 145.366 223.43 144.279 223.234C143.933 223.171 143.587 223.109 143.24 223.046C142.909 222.986 142.571 222.925 142.225 222.863C142.077 223.681 141.927 224.508 141.777 225.343C141.626 226.177 141.476 227.004 141.329 227.822C140.652 227.7 139.967 227.576 139.274 227.451C138.581 227.326 137.888 227.201 137.195 227.076ZM145.284 215.782C145.001 215.731 144.709 215.678 144.41 215.624C144.127 215.573 143.843 215.522 143.56 215.47C143.446 216.1 143.331 216.738 143.214 217.383C143.101 218.013 142.987 218.643 142.873 219.273C143.188 219.33 143.511 219.388 143.841 219.448C144.188 219.51 144.518 219.57 144.833 219.627C145.321 219.715 145.748 219.605 146.112 219.297C146.493 218.992 146.731 218.572 146.828 218.036C146.928 217.485 146.845 216.999 146.579 216.577C146.314 216.155 145.882 215.89 145.284 215.782ZM164.572 219.413C164.208 221.428 163.84 223.467 163.467 225.53C163.098 227.577 162.731 229.608 162.367 231.623C161.737 231.509 161.091 231.393 160.43 231.273C159.769 231.154 159.115 231.036 158.47 230.919C158.49 230.809 158.508 230.707 158.525 230.612C158.542 230.518 158.561 230.415 158.581 230.305C158.101 230.527 157.58 230.669 157.016 230.73C156.465 230.809 155.883 230.793 155.269 230.682C154.371 230.52 153.613 230.172 152.994 229.637C152.391 229.106 151.963 228.418 151.708 227.576C151.47 226.736 151.446 225.789 151.636 224.734C151.858 223.506 152.082 222.27 152.306 221.026C152.531 219.782 152.754 218.546 152.976 217.318C153.622 217.434 154.275 217.552 154.936 217.672C155.598 217.791 156.243 217.908 156.873 218.022C156.668 219.155 156.461 220.305 156.25 221.47C156.04 222.635 155.832 223.785 155.627 224.918C155.513 225.548 155.563 226.085 155.775 226.53C156.006 226.962 156.436 227.235 157.066 227.349C157.696 227.462 158.217 227.37 158.628 227.07C159.04 226.77 159.307 226.282 159.43 225.605C159.634 224.471 159.842 223.322 160.053 222.157C160.263 220.992 160.471 219.842 160.676 218.709C161.321 218.825 161.975 218.943 162.636 219.063C163.297 219.182 163.943 219.299 164.572 219.413ZM164.959 232.091C165.323 230.076 165.69 228.045 166.06 225.998C166.433 223.936 166.801 221.897 167.165 219.881C167.811 219.998 168.464 220.116 169.125 220.235C169.787 220.355 170.432 220.471 171.062 220.585C171.042 220.695 171.022 220.806 171.002 220.916C170.982 221.026 170.962 221.136 170.943 221.246C171.493 220.988 172.091 220.828 172.737 220.766C173.382 220.703 174.06 220.777 174.77 220.987C174.656 221.617 174.541 222.254 174.424 222.9C174.307 223.545 174.192 224.183 174.078 224.813C172.866 224.415 171.925 224.359 171.255 224.644C170.589 224.914 170.177 225.482 170.021 226.348C169.83 227.403 169.637 228.473 169.441 229.56C169.244 230.646 169.05 231.725 168.856 232.796C168.226 232.682 167.581 232.565 166.919 232.446C166.258 232.326 165.605 232.208 164.959 232.091ZM184.774 235.086C183.605 235.346 182.475 235.435 181.385 235.352C180.294 235.268 179.29 235.022 178.372 234.612C177.467 234.221 176.695 233.683 176.054 232.998C175.414 232.314 174.958 231.508 174.686 230.581C174.43 229.657 174.404 228.635 174.606 227.518C174.773 226.589 175.077 225.765 175.515 225.048C175.972 224.318 176.537 223.712 177.209 223.232C177.884 222.736 178.635 222.4 179.464 222.225C180.295 222.034 181.167 222.021 182.081 222.186C182.899 222.333 183.615 222.601 184.228 222.988C184.841 223.375 185.347 223.857 185.747 224.433C186.15 224.994 186.441 225.632 186.621 226.347C186.801 227.062 186.859 227.821 186.795 228.622C186.732 229.424 186.534 230.25 186.201 231.1C184.91 230.867 183.611 230.632 182.304 230.396C180.998 230.16 179.699 229.925 178.408 229.692C178.599 230.344 179.018 230.859 179.665 231.236C180.328 231.616 181.148 231.846 182.126 231.925C183.119 232.007 184.204 231.942 185.38 231.732C185.28 232.283 185.179 232.842 185.077 233.409C184.975 233.976 184.874 234.535 184.774 235.086ZM181.355 225.664C180.898 225.581 180.45 225.631 180.011 225.811C179.588 225.995 179.227 226.328 178.928 226.811C179.637 226.939 180.345 227.067 181.054 227.195C181.778 227.326 182.494 227.455 183.203 227.583C183.111 227.014 182.897 226.577 182.562 226.272C182.245 225.955 181.843 225.752 181.355 225.664ZM195.001 237.519C194.751 235.392 194.496 233.249 194.236 231.088C193.994 228.915 193.749 226.765 193.499 224.639C194.144 224.755 194.798 224.873 195.459 224.993C196.136 225.115 196.797 225.234 197.443 225.351C197.559 226.51 197.671 227.685 197.782 228.875C197.91 230.053 198.025 231.22 198.125 232.376C198.591 231.322 199.06 230.261 199.529 229.191C200.018 228.109 200.487 227.039 200.938 225.983C201.489 226.082 202.04 226.182 202.591 226.281C203.158 226.384 203.717 226.485 204.268 226.584C204.337 227.735 204.401 228.909 204.461 230.107C204.54 231.291 204.604 232.466 204.654 233.629C205.171 232.568 205.689 231.499 206.209 230.422C206.747 229.333 207.265 228.264 207.764 227.216C208.409 227.332 209.055 227.449 209.7 227.565C210.362 227.685 211.007 227.802 211.637 227.915C210.659 229.82 209.669 231.746 208.666 233.695C207.682 235.631 206.701 237.551 205.723 239.456C205.093 239.342 204.456 239.227 203.81 239.11C203.165 238.994 202.527 238.878 201.897 238.765C201.821 237.743 201.739 236.712 201.651 235.672C201.578 234.634 201.503 233.612 201.424 232.606C200.999 233.521 200.563 234.451 200.116 235.394C199.685 236.341 199.255 237.279 198.827 238.21C198.197 238.096 197.559 237.981 196.914 237.864C196.268 237.748 195.63 237.633 195.001 237.519ZM210.929 240.396C211.444 237.546 211.963 234.673 212.486 231.776C213.01 228.879 213.529 226.005 214.043 223.155C214.689 223.272 215.342 223.39 216.004 223.51C216.665 223.629 217.311 223.746 217.94 223.859C217.773 224.788 217.602 225.733 217.428 226.693C217.258 227.638 217.088 228.575 216.921 229.504C217.4 229.282 217.913 229.139 218.461 229.075C219.028 228.999 219.618 229.016 220.232 229.127C221.13 229.289 221.88 229.636 222.483 230.167C223.102 230.702 223.531 231.389 223.769 232.229C224.026 233.056 224.058 234.005 223.865 235.075C223.643 236.303 223.42 237.539 223.195 238.783C222.97 240.027 222.747 241.263 222.525 242.491C221.895 242.377 221.25 242.261 220.588 242.141C219.927 242.022 219.274 241.904 218.628 241.787C218.833 240.654 219.041 239.504 219.251 238.339C219.462 237.174 219.669 236.025 219.874 234.891C219.988 234.261 219.929 233.73 219.698 233.298C219.486 232.853 219.065 232.574 218.435 232.46C217.805 232.347 217.285 232.439 216.873 232.739C216.461 233.039 216.194 233.527 216.072 234.204C215.867 235.338 215.659 236.487 215.449 237.652C215.238 238.817 215.031 239.967 214.826 241.1C214.196 240.987 213.55 240.87 212.889 240.75C212.228 240.631 211.574 240.513 210.929 240.396ZM229.485 229.701C229.028 229.618 228.631 229.433 228.293 229.144C227.971 228.858 227.732 228.514 227.577 228.112C227.422 227.71 227.384 227.289 227.464 226.848C227.544 226.407 227.725 226.034 228.008 225.727C228.294 225.405 228.638 225.166 229.04 225.011C229.457 224.859 229.895 224.824 230.351 224.906C230.792 224.986 231.174 225.169 231.496 225.455C231.834 225.743 232.081 226.089 232.236 226.491C232.393 226.877 232.432 227.29 232.353 227.731C232.273 228.172 232.09 228.554 231.805 228.876C231.519 229.198 231.167 229.436 230.749 229.588C230.347 229.743 229.926 229.78 229.485 229.701ZM225.067 242.95C225.431 240.935 225.798 238.904 226.168 236.857C226.541 234.794 226.909 232.756 227.273 230.74C227.919 230.857 228.572 230.975 229.233 231.094C229.895 231.214 230.54 231.33 231.17 231.444C230.806 233.46 230.437 235.499 230.065 237.561C229.695 239.608 229.328 241.639 228.964 243.654C228.334 243.541 227.689 243.424 227.027 243.305C226.366 243.185 225.713 243.067 225.067 242.95ZM232.959 244.376C233.221 242.928 233.484 241.471 233.748 240.007C234.013 238.543 234.275 237.094 234.534 235.661C234.219 235.604 233.896 235.546 233.565 235.486C233.25 235.429 232.935 235.373 232.62 235.316C232.726 234.733 232.831 234.151 232.936 233.568C233.041 232.985 233.147 232.403 233.252 231.82C233.567 231.877 233.882 231.934 234.197 231.991C234.527 232.051 234.85 232.109 235.165 232.166C235.265 231.615 235.363 231.072 235.459 230.536C235.559 229.985 235.657 229.442 235.754 228.907C236.399 229.023 237.053 229.141 237.714 229.261C238.375 229.38 239.021 229.497 239.651 229.611C239.554 230.146 239.456 230.689 239.356 231.24C239.26 231.776 239.161 232.319 239.062 232.87C239.424 232.935 239.794 233.002 240.172 233.07C240.55 233.139 240.92 233.206 241.282 233.271C241.177 233.854 241.071 234.436 240.966 235.019C240.861 235.601 240.756 236.184 240.651 236.766C240.288 236.701 239.918 236.634 239.54 236.566C239.163 236.498 238.793 236.431 238.43 236.365C238.172 237.798 237.91 239.247 237.645 240.711C237.381 242.175 237.118 243.632 236.856 245.08C236.226 244.966 235.581 244.85 234.919 244.73C234.258 244.611 233.605 244.493 232.959 244.376ZM251.452 247.132C250.284 247.392 249.154 247.481 248.063 247.398C246.973 247.314 245.968 247.068 245.051 246.658C244.146 246.267 243.373 245.729 242.733 245.044C242.092 244.36 241.636 243.554 241.365 242.627C241.109 241.703 241.082 240.681 241.284 239.564C241.452 238.635 241.755 237.811 242.194 237.094C242.651 236.364 243.215 235.758 243.887 235.278C244.562 234.782 245.314 234.446 246.142 234.271C246.974 234.08 247.846 234.067 248.759 234.232C249.578 234.379 250.294 234.647 250.907 235.034C251.519 235.421 252.026 235.903 252.426 236.479C252.829 237.04 253.12 237.678 253.299 238.393C253.479 239.108 253.537 239.867 253.474 240.668C253.41 241.47 253.212 242.296 252.88 243.146C251.589 242.913 250.29 242.678 248.983 242.442C247.676 242.206 246.377 241.971 245.086 241.738C245.277 242.39 245.696 242.905 246.343 243.282C247.006 243.662 247.827 243.892 248.804 243.971C249.798 244.053 250.882 243.988 252.058 243.778C251.959 244.329 251.858 244.888 251.755 245.455C251.653 246.022 251.552 246.581 251.452 247.132ZM248.033 237.71C247.576 237.627 247.129 237.677 246.689 237.857C246.266 238.041 245.905 238.374 245.607 238.857C246.315 238.985 247.024 239.113 247.732 239.241C248.456 239.372 249.173 239.501 249.881 239.629C249.789 239.06 249.575 238.623 249.24 238.318C248.924 238.001 248.521 237.798 248.033 237.71Z" fill="#2F4ECD"/>
<path d="M128.195 272.359C128.673 269.714 129.157 267.037 129.646 264.329C130.135 261.621 130.619 258.944 131.097 256.299C131.79 256.424 132.482 256.549 133.175 256.674C133.884 256.802 134.576 256.928 135.253 257.05C135.818 258.696 136.387 260.36 136.961 262.041C137.551 263.725 138.129 265.39 138.693 267.036C138.963 265.541 139.236 264.029 139.512 262.502C139.788 260.975 140.061 259.463 140.331 257.967C141.008 258.09 141.685 258.212 142.362 258.334C143.039 258.456 143.716 258.579 144.393 258.701C143.916 261.346 143.432 264.023 142.943 266.731C142.454 269.439 141.97 272.116 141.492 274.761C140.815 274.639 140.122 274.514 139.414 274.386C138.721 274.26 138.028 274.135 137.335 274.01C136.771 272.364 136.194 270.699 135.604 269.015C135.03 267.334 134.46 265.67 133.896 264.024C133.626 265.519 133.353 267.031 133.077 268.558C132.801 270.086 132.528 271.597 132.258 273.093C131.581 272.971 130.904 272.848 130.226 272.726C129.549 272.604 128.872 272.481 128.195 272.359ZM157.948 265.125C157.584 267.141 157.216 269.18 156.843 271.242C156.473 273.289 156.106 275.32 155.742 277.335C155.112 277.222 154.467 277.105 153.805 276.986C153.144 276.866 152.491 276.748 151.845 276.631C151.865 276.521 151.884 276.419 151.901 276.324C151.918 276.23 151.936 276.128 151.956 276.017C151.477 276.24 150.955 276.381 150.392 276.442C149.841 276.521 149.258 276.506 148.644 276.395C147.747 276.233 146.989 275.884 146.37 275.35C145.767 274.818 145.338 274.131 145.084 273.288C144.845 272.448 144.821 271.501 145.012 270.446C145.234 269.218 145.457 267.982 145.682 266.738C145.907 265.494 146.13 264.258 146.352 263.03C146.997 263.147 147.651 263.265 148.312 263.384C148.973 263.504 149.619 263.62 150.249 263.734C150.044 264.868 149.836 266.017 149.626 267.182C149.415 268.348 149.208 269.497 149.003 270.631C148.889 271.26 148.938 271.798 149.15 272.243C149.381 272.674 149.812 272.947 150.442 273.061C151.071 273.175 151.592 273.082 152.004 272.782C152.416 272.483 152.683 271.995 152.805 271.318C153.01 270.184 153.218 269.034 153.428 267.869C153.639 266.704 153.846 265.555 154.051 264.421C154.697 264.538 155.35 264.656 156.011 264.775C156.673 264.895 157.318 265.011 157.948 265.125ZM158.335 277.804C158.699 275.788 159.066 273.757 159.435 271.711C159.808 269.648 160.176 267.609 160.541 265.594C161.186 265.71 161.84 265.828 162.501 265.948C163.162 266.067 163.808 266.184 164.437 266.298C164.418 266.408 164.398 266.518 164.378 266.628C164.358 266.738 164.338 266.849 164.318 266.959C164.869 266.701 165.467 266.54 166.112 266.478C166.757 266.416 167.435 266.49 168.145 266.699C168.031 267.329 167.916 267.967 167.8 268.612C167.683 269.258 167.568 269.895 167.454 270.525C166.241 270.127 165.3 270.071 164.631 270.357C163.964 270.626 163.553 271.194 163.396 272.06C163.206 273.115 163.012 274.186 162.816 275.272C162.62 276.359 162.425 277.437 162.232 278.508C161.602 278.394 160.956 278.277 160.295 278.158C159.634 278.039 158.98 277.92 158.335 277.804ZM177.664 277.394C177.488 278.37 177.067 279.123 176.402 279.653C175.756 280.171 174.951 280.489 173.986 280.607C173.022 280.726 171.977 280.659 170.852 280.407C169.74 280.173 168.631 279.786 167.526 279.245C167.634 278.646 167.745 278.032 167.858 277.403C167.972 276.773 168.083 276.159 168.191 275.56C168.799 275.979 169.417 276.335 170.047 276.627C170.68 276.904 171.261 277.107 171.791 277.235C172.321 277.363 172.761 277.402 173.111 277.352C173.465 277.285 173.667 277.111 173.718 276.827C173.758 276.607 173.648 276.408 173.387 276.231C173.142 276.056 172.808 275.882 172.384 275.708C171.963 275.518 171.513 275.307 171.035 275.074C170.575 274.829 170.149 274.532 169.757 274.185C169.367 273.822 169.072 273.386 168.871 272.879C168.689 272.358 168.664 271.727 168.798 270.987C168.957 270.106 169.344 269.403 169.959 268.88C170.592 268.344 171.371 267.997 172.293 267.839C173.219 267.665 174.217 267.674 175.288 267.868C176.359 268.061 177.42 268.44 178.473 269.004C178.365 269.602 178.254 270.216 178.14 270.846C178.026 271.476 177.915 272.09 177.807 272.688C177.002 272.104 176.227 271.671 175.481 271.39C174.735 271.109 174.116 270.981 173.624 271.006C173.134 271.015 172.86 271.185 172.8 271.515C172.76 271.736 172.863 271.933 173.107 272.107C173.371 272.269 173.707 272.435 174.115 272.606C174.539 272.781 174.98 272.99 175.44 273.236C175.915 273.485 176.34 273.789 176.714 274.149C177.106 274.496 177.392 274.938 177.572 275.475C177.77 275.998 177.801 276.638 177.664 277.394ZM189.474 282.844C188.305 283.104 187.175 283.193 186.085 283.11C184.994 283.027 183.99 282.78 183.072 282.37C182.167 281.979 181.395 281.441 180.754 280.757C180.114 280.072 179.658 279.266 179.386 278.339C179.13 277.415 179.104 276.394 179.306 275.276C179.473 274.347 179.777 273.524 180.215 272.806C180.672 272.076 181.237 271.471 181.909 270.99C182.584 270.494 183.335 270.159 184.164 269.983C184.995 269.792 185.867 269.779 186.781 269.944C187.599 270.092 188.315 270.359 188.928 270.746C189.541 271.133 190.047 271.615 190.447 272.191C190.85 272.752 191.141 273.39 191.321 274.105C191.501 274.821 191.559 275.579 191.495 276.381C191.432 277.182 191.234 278.008 190.901 278.858C189.61 278.625 188.311 278.39 187.004 278.154C185.698 277.918 184.399 277.684 183.108 277.45C183.299 278.103 183.718 278.617 184.365 278.995C185.028 279.374 185.848 279.604 186.826 279.683C187.819 279.765 188.904 279.701 190.08 279.49C189.98 280.041 189.879 280.6 189.777 281.167C189.675 281.734 189.574 282.293 189.474 282.844ZM186.055 273.422C185.598 273.34 185.15 273.389 184.711 273.57C184.288 273.753 183.927 274.086 183.628 274.569C184.337 274.697 185.045 274.825 185.754 274.953C186.478 275.084 187.194 275.213 187.903 275.341C187.811 274.772 187.597 274.335 187.262 274.03C186.945 273.713 186.543 273.51 186.055 273.422ZM192.262 283.933C192.626 281.918 192.993 279.887 193.363 277.84C193.735 275.777 194.104 273.738 194.468 271.723C195.113 271.839 195.767 271.957 196.428 272.077C197.089 272.196 197.735 272.313 198.365 272.427C198.345 272.537 198.325 272.647 198.305 272.757C198.285 272.868 198.265 272.978 198.245 273.088C198.796 272.83 199.394 272.67 200.039 272.607C200.685 272.545 201.362 272.619 202.073 272.828C201.959 273.458 201.844 274.096 201.727 274.741C201.61 275.387 201.495 276.025 201.381 276.654C200.169 276.256 199.228 276.2 198.558 276.486C197.892 276.756 197.48 277.324 197.324 278.19C197.133 279.244 196.94 280.315 196.743 281.402C196.547 282.488 196.352 283.566 196.159 284.637C195.529 284.523 194.884 284.407 194.222 284.287C193.561 284.168 192.908 284.05 192.262 283.933ZM202.031 289.6C202.497 288.823 202.972 288.038 203.456 287.248C203.953 286.476 204.433 285.709 204.896 284.947C204.483 283.003 204.057 281.04 203.618 279.058C203.198 277.064 202.782 275.095 202.369 273.15C203.062 273.275 203.754 273.4 204.447 273.526C205.14 273.651 205.825 273.774 206.502 273.897C206.729 274.978 206.954 276.076 207.175 277.189C207.413 278.305 207.644 279.412 207.868 280.509C208.431 279.554 209.003 278.592 209.584 277.624C210.166 276.656 210.736 275.702 211.296 274.763C211.973 274.885 212.65 275.008 213.327 275.13C214.004 275.252 214.681 275.375 215.358 275.497C213.829 277.936 212.284 280.412 210.724 282.927C209.182 285.429 207.647 287.899 206.117 290.338C205.44 290.216 204.755 290.092 204.062 289.967C203.385 289.845 202.708 289.722 202.031 289.6ZM219.293 288.817C219.657 286.801 220.024 284.77 220.394 282.723C220.767 280.661 221.135 278.622 221.499 276.606C222.145 276.723 222.798 276.841 223.459 276.96C224.121 277.08 224.766 277.196 225.396 277.31C225.376 277.42 225.356 277.531 225.336 277.641C225.316 277.751 225.296 277.861 225.277 277.971C225.827 277.713 226.425 277.553 227.071 277.491C227.716 277.429 228.394 277.502 229.104 277.712C228.99 278.342 228.875 278.979 228.758 279.625C228.641 280.27 228.526 280.908 228.412 281.538C227.2 281.14 226.259 281.084 225.589 281.369C224.923 281.639 224.511 282.207 224.355 283.073C224.164 284.128 223.971 285.198 223.775 286.285C223.578 287.371 223.384 288.45 223.19 289.521C222.56 289.407 221.915 289.29 221.253 289.171C220.592 289.051 219.939 288.933 219.293 288.817ZM228.729 290.521C229.244 287.671 229.763 284.798 230.287 281.901C230.81 279.004 231.329 276.13 231.844 273.28C232.489 273.397 233.143 273.515 233.804 273.634C234.465 273.754 235.111 273.871 235.741 273.984C235.573 274.913 235.402 275.858 235.229 276.818C235.058 277.763 234.889 278.7 234.721 279.629C235.2 279.407 235.714 279.264 236.262 279.2C236.828 279.124 237.419 279.141 238.033 279.252C238.93 279.414 239.681 279.761 240.284 280.292C240.903 280.827 241.331 281.514 241.57 282.354C241.827 283.181 241.859 284.13 241.665 285.2C241.443 286.428 241.22 287.664 240.995 288.908C240.771 290.152 240.547 291.388 240.325 292.616C239.696 292.502 239.05 292.386 238.389 292.266C237.728 292.147 237.074 292.029 236.429 291.912C236.633 290.779 236.841 289.629 237.052 288.464C237.262 287.299 237.47 286.149 237.674 285.016C237.788 284.386 237.73 283.855 237.499 283.423C237.286 282.978 236.865 282.699 236.236 282.585C235.606 282.472 235.085 282.564 234.673 282.864C234.261 283.164 233.994 283.652 233.872 284.329C233.667 285.463 233.46 286.612 233.249 287.777C233.039 288.942 232.831 290.092 232.626 291.225C231.996 291.111 231.351 290.995 230.689 290.875C230.028 290.756 229.375 290.638 228.729 290.521ZM242.97 296.996C243.435 296.218 243.91 295.434 244.395 294.644C244.892 293.872 245.372 293.105 245.835 292.343C245.422 290.399 244.996 288.436 244.557 286.454C244.137 284.46 243.721 282.49 243.308 280.546C244 280.671 244.693 280.796 245.386 280.922C246.079 281.047 246.764 281.17 247.441 281.293C247.668 282.374 247.893 283.472 248.114 284.585C248.352 285.701 248.582 286.808 248.807 287.905C249.37 286.95 249.942 285.988 250.523 285.02C251.105 284.052 251.675 283.098 252.235 282.159C252.912 282.281 253.589 282.404 254.266 282.526C254.943 282.648 255.62 282.77 256.297 282.893C254.767 285.332 253.222 287.808 251.663 290.323C250.121 292.825 248.586 295.295 247.056 297.734C246.379 297.612 245.694 297.488 245.001 297.363C244.324 297.241 243.647 297.118 242.97 296.996ZM255.273 295.317C255.637 293.301 256.004 291.27 256.374 289.223C256.747 287.161 257.115 285.122 257.479 283.106C258.125 283.223 258.778 283.341 259.439 283.46C260.101 283.58 260.746 283.696 261.376 283.81C261.356 283.92 261.338 284.023 261.321 284.117C261.304 284.212 261.285 284.314 261.265 284.424C261.729 284.199 262.226 284.053 262.759 283.987C263.294 283.905 263.829 283.912 264.364 284.009C264.947 284.114 265.464 284.313 265.915 284.606C266.369 284.883 266.735 285.242 267.013 285.682C267.582 285.411 268.2 285.23 268.867 285.139C269.55 285.051 270.229 285.068 270.907 285.191C271.867 285.364 272.658 285.71 273.28 286.229C273.917 286.751 274.359 287.408 274.606 288.2C274.869 288.996 274.908 289.905 274.723 290.929C274.496 292.188 274.265 293.463 274.032 294.755C273.799 296.046 273.568 297.321 273.341 298.581C272.711 298.467 272.065 298.35 271.404 298.231C270.743 298.111 270.089 297.993 269.444 297.877C269.657 296.696 269.873 295.499 270.092 294.287C270.311 293.074 270.528 291.878 270.741 290.697C270.838 290.162 270.79 289.706 270.598 289.33C270.424 288.941 270.07 288.698 269.534 288.601C269.015 288.507 268.576 288.598 268.217 288.875C267.876 289.139 267.655 289.554 267.553 290.121C267.339 291.302 267.123 292.498 266.904 293.711C266.685 294.923 266.469 296.12 266.255 297.301C265.626 297.187 264.98 297.07 264.319 296.951C263.658 296.831 263.004 296.713 262.359 296.597C262.572 295.416 262.788 294.219 263.007 293.007C263.226 291.794 263.442 290.598 263.656 289.417C263.752 288.882 263.705 288.426 263.512 288.05C263.339 287.661 262.984 287.418 262.449 287.321C261.929 287.227 261.49 287.318 261.131 287.595C260.791 287.859 260.57 288.274 260.467 288.841C260.254 290.022 260.038 291.218 259.819 292.431C259.6 293.643 259.384 294.84 259.17 296.021C258.54 295.907 257.895 295.79 257.234 295.671C256.572 295.551 255.919 295.433 255.273 295.317ZM286.366 300.349C285.198 300.609 284.068 300.697 282.977 300.614C281.887 300.531 280.883 300.285 279.965 299.875C279.06 299.484 278.287 298.946 277.647 298.261C277.006 297.576 276.55 296.77 276.279 295.843C276.023 294.919 275.996 293.898 276.198 292.78C276.366 291.851 276.669 291.028 277.108 290.311C277.565 289.58 278.129 288.975 278.801 288.495C279.476 287.999 280.228 287.663 281.056 287.488C281.888 287.296 282.76 287.283 283.673 287.448C284.492 287.596 285.208 287.864 285.821 288.251C286.433 288.638 286.94 289.12 287.34 289.696C287.743 290.256 288.034 290.894 288.214 291.61C288.393 292.325 288.451 293.083 288.388 293.885C288.324 294.686 288.126 295.512 287.794 296.363C286.503 296.13 285.204 295.895 283.897 295.659C282.59 295.423 281.291 295.188 280 294.955C280.191 295.607 280.61 296.122 281.257 296.499C281.921 296.879 282.741 297.108 283.718 297.187C284.712 297.269 285.796 297.205 286.972 296.995C286.873 297.546 286.772 298.105 286.669 298.672C286.567 299.238 286.466 299.797 286.366 300.349ZM282.947 290.927C282.49 290.844 282.043 290.893 281.603 291.074C281.18 291.258 280.819 291.591 280.521 292.073C281.229 292.201 281.938 292.329 282.646 292.457C283.37 292.588 284.087 292.718 284.795 292.846C284.703 292.276 284.489 291.839 284.154 291.535C283.838 291.217 283.435 291.015 282.947 290.927ZM299.166 299.344C298.99 300.32 298.569 301.073 297.904 301.604C297.258 302.121 296.453 302.439 295.488 302.557C294.524 302.676 293.479 302.609 292.354 302.357C291.242 302.124 290.133 301.736 289.028 301.195C289.136 300.597 289.247 299.983 289.36 299.353C289.474 298.723 289.585 298.109 289.693 297.511C290.3 297.929 290.919 298.285 291.549 298.578C292.182 298.855 292.763 299.057 293.293 299.185C293.822 299.314 294.263 299.352 294.613 299.302C294.967 299.236 295.169 299.061 295.22 298.777C295.26 298.557 295.149 298.358 294.889 298.181C294.644 298.007 294.31 297.833 293.886 297.658C293.465 297.469 293.015 297.257 292.537 297.025C292.077 296.779 291.651 296.482 291.259 296.135C290.869 295.772 290.574 295.337 290.373 294.829C290.19 294.308 290.166 293.678 290.3 292.938C290.459 292.056 290.846 291.354 291.461 290.831C292.094 290.295 292.872 289.947 293.795 289.789C294.721 289.615 295.719 289.624 296.79 289.818C297.861 290.011 298.922 290.39 299.975 290.954C299.867 291.552 299.756 292.166 299.642 292.796C299.528 293.426 299.417 294.04 299.309 294.638C298.504 294.054 297.729 293.621 296.983 293.34C296.237 293.059 295.618 292.931 295.125 292.956C294.636 292.965 294.361 293.135 294.302 293.466C294.262 293.686 294.364 293.883 294.609 294.058C294.873 294.219 295.209 294.385 295.617 294.557C296.04 294.731 296.482 294.941 296.942 295.186C297.417 295.435 297.842 295.739 298.216 296.099C298.608 296.447 298.894 296.889 299.074 297.425C299.272 297.949 299.303 298.588 299.166 299.344Z" fill="#2F4ECD"/>
<path d="M120.017 318.626C120.495 315.981 120.979 313.304 121.468 310.596C121.957 307.888 122.441 305.211 122.919 302.566C123.895 302.743 124.879 302.92 125.871 303.1C126.863 303.279 127.847 303.457 128.823 303.633C128.99 305.321 129.144 307.032 129.286 308.765C129.447 310.485 129.603 312.188 129.754 313.873C130.485 312.347 131.218 310.805 131.955 309.247C132.71 307.676 133.453 306.128 134.184 304.601C135.161 304.778 136.137 304.954 137.113 305.131C138.089 305.307 139.058 305.482 140.018 305.655C139.556 308.303 139.088 310.983 138.615 313.694C138.141 316.405 137.673 319.084 137.211 321.732C136.55 321.613 135.881 321.492 135.204 321.37C134.542 321.25 133.881 321.131 133.22 321.011C133.544 319.216 133.871 317.406 134.201 315.579C134.534 313.737 134.862 311.919 135.187 310.124C134.39 311.833 133.581 313.565 132.76 315.319C131.942 317.057 131.135 318.781 130.338 320.491C129.756 320.386 129.157 320.278 128.543 320.167C127.945 320.058 127.347 319.95 126.748 319.842C126.595 317.994 126.444 316.129 126.296 314.249C126.15 312.353 126.001 310.48 125.847 308.631C125.529 310.395 125.206 312.182 124.879 313.993C124.554 315.788 124.233 317.567 123.914 319.33C123.285 319.217 122.639 319.1 121.978 318.98C121.316 318.861 120.663 318.743 120.017 318.626ZM145.773 323.669C144.86 323.504 144.038 323.193 143.307 322.736C142.58 322.263 141.977 321.683 141.5 320.995C141.026 320.292 140.694 319.516 140.506 318.669C140.333 317.825 140.331 316.939 140.498 316.01C140.666 315.081 140.979 314.251 141.436 313.521C141.909 312.793 142.489 312.191 143.177 311.713C143.865 311.236 144.631 310.911 145.475 310.738C146.322 310.55 147.202 310.538 148.115 310.703C149.044 310.871 149.864 311.19 150.576 311.66C151.307 312.117 151.91 312.69 152.388 313.377C152.865 314.065 153.19 314.831 153.363 315.675C153.551 316.522 153.562 317.41 153.394 318.339C153.226 319.268 152.906 320.097 152.433 320.824C151.976 321.554 151.402 322.166 150.711 322.659C150.023 323.137 149.256 323.469 148.409 323.658C147.58 323.833 146.702 323.837 145.773 323.669ZM146.408 320.15C147.18 320.29 147.844 320.125 148.4 319.657C148.975 319.175 149.34 318.501 149.497 317.635C149.656 316.754 149.548 316.002 149.172 315.382C148.815 314.748 148.251 314.362 147.479 314.222C146.708 314.083 146.036 314.246 145.464 314.712C144.911 315.165 144.555 315.832 144.395 316.714C144.239 317.58 144.338 318.337 144.692 318.987C145.065 319.623 145.637 320.011 146.408 320.15ZM154.216 324.805C154.58 322.789 154.947 320.758 155.317 318.711C155.689 316.649 156.058 314.61 156.422 312.594C157.067 312.711 157.721 312.829 158.382 312.948C159.044 313.068 159.689 313.184 160.319 313.298C160.299 313.408 160.28 313.511 160.263 313.605C160.246 313.7 160.228 313.802 160.208 313.912C160.687 313.69 161.201 313.547 161.749 313.483C162.315 313.407 162.906 313.424 163.52 313.535C164.417 313.697 165.167 314.044 165.771 314.576C166.389 315.11 166.818 315.797 167.057 316.637C167.314 317.464 167.346 318.413 167.152 319.484C166.93 320.712 166.707 321.948 166.482 323.192C166.257 324.435 166.034 325.671 165.812 326.9C165.183 326.786 164.537 326.669 163.876 326.55C163.214 326.43 162.561 326.312 161.915 326.195C162.12 325.062 162.328 323.912 162.538 322.747C162.749 321.582 162.956 320.433 163.161 319.299C163.275 318.669 163.217 318.138 162.986 317.707C162.773 317.262 162.352 316.982 161.722 316.869C161.093 316.755 160.572 316.848 160.16 317.147C159.748 317.447 159.481 317.935 159.359 318.612C159.154 319.746 158.946 320.895 158.736 322.06C158.525 323.226 158.318 324.375 158.113 325.509C157.483 325.395 156.838 325.278 156.176 325.159C155.515 325.039 154.862 324.921 154.216 324.805ZM173.934 328.757C173.021 328.592 172.199 328.281 171.469 327.824C170.741 327.351 170.139 326.771 169.661 326.083C169.187 325.379 168.855 324.604 168.667 323.757C168.494 322.913 168.492 322.026 168.66 321.097C168.828 320.168 169.14 319.339 169.597 318.608C170.07 317.881 170.65 317.278 171.338 316.801C172.026 316.324 172.792 315.999 173.636 315.826C174.483 315.638 175.363 315.626 176.276 315.791C177.205 315.959 178.026 316.278 178.738 316.748C179.468 317.205 180.072 317.777 180.549 318.465C181.026 319.153 181.351 319.919 181.524 320.763C181.713 321.61 181.723 322.498 181.555 323.427C181.387 324.356 181.067 325.184 180.594 325.912C180.137 326.642 179.563 327.254 178.872 327.747C178.184 328.224 177.417 328.557 176.57 328.745C175.742 328.921 174.863 328.925 173.934 328.757ZM174.57 325.238C175.341 325.377 176.005 325.213 176.561 324.744C177.136 324.263 177.502 323.589 177.658 322.723C177.817 321.841 177.709 321.09 177.334 320.469C176.977 319.836 176.412 319.449 175.641 319.31C174.869 319.171 174.198 319.334 173.626 319.799C173.072 320.252 172.716 320.92 172.557 321.801C172.4 322.667 172.499 323.425 172.853 324.074C173.226 324.711 173.798 325.099 174.57 325.238ZM185.592 334.375C184.962 334.261 184.316 334.145 183.655 334.025C182.994 333.906 182.34 333.788 181.695 333.671C182.17 331.042 182.65 328.381 183.137 325.688C183.626 322.98 184.108 320.311 184.583 317.682C185.229 317.798 185.882 317.916 186.544 318.036C187.205 318.155 187.85 318.272 188.48 318.386C188.46 318.496 188.44 318.606 188.42 318.716C188.401 318.827 188.379 318.945 188.356 319.071C188.807 318.827 189.3 318.664 189.835 318.582C190.373 318.484 190.925 318.486 191.492 318.588C192.279 318.731 192.999 319.023 193.65 319.466C194.305 319.893 194.849 320.439 195.282 321.102C195.73 321.769 196.033 322.522 196.19 323.364C196.363 324.208 196.362 325.11 196.189 326.071C196.018 327.015 195.704 327.853 195.247 328.583C194.806 329.316 194.257 329.925 193.601 330.408C192.963 330.878 192.261 331.206 191.496 331.393C190.73 331.58 189.946 331.601 189.143 331.456C188.576 331.353 188.058 331.162 187.588 330.882C187.132 330.621 186.736 330.289 186.402 329.888C186.269 330.628 186.133 331.376 185.997 332.131C185.86 332.887 185.725 333.635 185.592 334.375ZM189.246 327.914C190.018 328.053 190.673 327.895 191.21 327.439C191.766 326.971 192.127 326.28 192.292 325.367C192.457 324.453 192.359 323.688 191.999 323.07C191.655 322.455 191.097 322.078 190.326 321.939C189.57 321.802 188.914 321.968 188.358 322.437C187.805 322.889 187.447 323.565 187.285 324.462C187.123 325.36 187.22 326.125 187.577 326.759C187.934 327.392 188.491 327.777 189.246 327.914ZM197.141 332.559C197.656 329.709 198.175 326.836 198.699 323.939C199.222 321.042 199.741 318.168 200.256 315.318C200.901 315.435 201.555 315.553 202.216 315.673C202.877 315.792 203.523 315.909 204.153 316.022C203.985 316.951 203.814 317.896 203.641 318.857C203.47 319.801 203.301 320.738 203.133 321.667C203.612 321.445 204.126 321.302 204.674 321.238C205.24 321.162 205.831 321.179 206.445 321.29C207.342 321.452 208.093 321.799 208.696 322.331C209.315 322.865 209.743 323.552 209.982 324.392C210.239 325.219 210.271 326.168 210.077 327.238C209.855 328.466 209.632 329.702 209.407 330.946C209.183 332.19 208.959 333.426 208.737 334.654C208.108 334.541 207.462 334.424 206.801 334.304C206.14 334.185 205.486 334.067 204.841 333.95C205.045 332.817 205.253 331.667 205.463 330.502C205.674 329.337 205.882 328.188 206.086 327.054C206.2 326.424 206.142 325.893 205.911 325.461C205.698 325.016 205.277 324.737 204.648 324.623C204.018 324.51 203.497 324.603 203.085 324.902C202.673 325.202 202.406 325.69 202.284 326.367C202.079 327.501 201.872 328.65 201.661 329.815C201.451 330.98 201.243 332.13 201.038 333.263C200.408 333.15 199.763 333.033 199.101 332.913C198.44 332.794 197.787 332.676 197.141 332.559ZM216.879 336.515C215.966 336.35 215.144 336.039 214.414 335.582C213.687 335.109 213.084 334.529 212.607 333.841C212.132 333.138 211.801 332.362 211.612 331.515C211.44 330.671 211.437 329.785 211.605 328.856C211.773 327.927 212.086 327.097 212.543 326.367C213.016 325.639 213.596 325.037 214.284 324.559C214.971 324.082 215.737 323.757 216.582 323.584C217.429 323.396 218.309 323.384 219.222 323.549C220.151 323.717 220.971 324.036 221.683 324.506C222.413 324.963 223.017 325.536 223.495 326.223C223.972 326.911 224.297 327.677 224.47 328.521C224.658 329.368 224.668 330.256 224.5 331.185C224.333 332.114 224.012 332.943 223.539 333.67C223.082 334.4 222.508 335.012 221.818 335.505C221.13 335.983 220.363 336.315 219.516 336.504C218.687 336.679 217.808 336.683 216.879 336.515ZM217.515 332.996C218.287 333.136 218.951 332.971 219.507 332.503C220.081 332.021 220.447 331.347 220.604 330.481C220.763 329.6 220.655 328.848 220.279 328.228C219.922 327.594 219.358 327.208 218.586 327.068C217.815 326.929 217.143 327.092 216.571 327.558C216.018 328.011 215.661 328.678 215.502 329.56C215.346 330.426 215.445 331.183 215.799 331.833C216.172 332.469 216.744 332.857 217.515 332.996ZM225.323 337.651C225.687 335.635 226.054 333.604 226.424 331.557C226.796 329.495 227.165 327.456 227.529 325.44C228.174 325.557 228.828 325.675 229.489 325.794C230.15 325.914 230.796 326.03 231.426 326.144C231.406 326.254 231.387 326.357 231.37 326.451C231.353 326.546 231.335 326.648 231.315 326.758C231.794 326.536 232.307 326.393 232.855 326.329C233.422 326.253 234.012 326.27 234.627 326.381C235.524 326.543 236.274 326.89 236.877 327.422C237.496 327.956 237.925 328.643 238.163 329.483C238.42 330.31 238.452 331.259 238.259 332.33C238.037 333.558 237.814 334.794 237.589 336.038C237.364 337.281 237.141 338.517 236.919 339.746C236.289 339.632 235.644 339.515 234.982 339.396C234.321 339.276 233.668 339.158 233.022 339.042C233.227 337.908 233.435 336.758 233.645 335.593C233.856 334.428 234.063 333.279 234.268 332.145C234.382 331.515 234.323 330.984 234.092 330.553C233.88 330.108 233.459 329.828 232.829 329.715C232.199 329.601 231.679 329.694 231.267 329.993C230.855 330.293 230.588 330.781 230.466 331.458C230.261 332.592 230.053 333.741 229.843 334.906C229.632 336.072 229.425 337.221 229.22 338.355C228.59 338.241 227.944 338.124 227.283 338.005C226.622 337.885 225.968 337.767 225.323 337.651ZM243.859 326.951C243.402 326.869 243.005 326.683 242.667 326.395C242.344 326.109 242.106 325.765 241.951 325.363C241.796 324.961 241.758 324.54 241.838 324.099C241.917 323.658 242.099 323.284 242.382 322.978C242.668 322.655 243.011 322.417 243.413 322.262C243.831 322.109 244.268 322.075 244.725 322.157C245.166 322.237 245.547 322.419 245.87 322.705C246.208 322.994 246.454 323.339 246.609 323.741C246.767 324.128 246.806 324.541 246.727 324.982C246.647 325.423 246.464 325.804 246.178 326.127C245.892 326.449 245.541 326.686 245.123 326.838C244.721 326.993 244.3 327.031 243.859 326.951ZM239.441 340.201C239.805 338.186 240.172 336.155 240.542 334.108C240.914 332.045 241.283 330.006 241.647 327.991C242.292 328.107 242.946 328.225 243.607 328.345C244.268 328.464 244.914 328.581 245.544 328.695C245.18 330.71 244.811 332.749 244.439 334.812C244.069 336.859 243.702 338.89 243.338 340.905C242.708 340.791 242.062 340.675 241.401 340.555C240.74 340.436 240.086 340.318 239.441 340.201ZM246.501 335.16C246.717 333.963 247.151 332.96 247.801 332.151C248.454 331.326 249.263 330.716 250.229 330.322C251.194 329.927 252.262 329.778 253.431 329.876C254.603 329.957 255.807 330.313 257.043 330.943C256.935 331.541 256.825 332.147 256.714 332.761C256.603 333.376 256.494 333.982 256.386 334.58C255.552 333.974 254.715 333.612 253.875 333.492C253.035 333.373 252.303 333.509 251.68 333.901C251.059 334.276 250.663 334.936 250.493 335.881C250.322 336.826 250.46 337.591 250.907 338.175C251.357 338.744 251.997 339.12 252.826 339.302C253.657 339.469 254.568 339.422 255.558 339.162C255.45 339.76 255.34 340.366 255.23 340.98C255.119 341.594 255.009 342.201 254.901 342.799C253.523 342.957 252.271 342.868 251.144 342.535C250.015 342.217 249.067 341.704 248.3 340.997C247.534 340.289 246.988 339.443 246.662 338.457C246.339 337.456 246.285 336.357 246.501 335.16ZM262.249 344.321C262.613 342.306 262.98 340.275 263.349 338.228C263.722 336.166 264.09 334.127 264.454 332.111C265.1 332.228 265.753 332.346 266.415 332.465C267.076 332.585 267.722 332.701 268.351 332.815C268.331 332.925 268.313 333.028 268.296 333.122C268.279 333.217 268.26 333.319 268.24 333.429C268.704 333.204 269.202 333.058 269.734 332.992C270.269 332.91 270.804 332.917 271.34 333.014C271.922 333.119 272.439 333.318 272.89 333.611C273.344 333.888 273.71 334.247 273.988 334.687C274.558 334.416 275.176 334.235 275.842 334.144C276.525 334.056 277.205 334.073 277.882 334.195C278.842 334.369 279.633 334.715 280.255 335.234C280.892 335.756 281.335 336.413 281.582 337.205C281.844 338.001 281.883 338.91 281.698 339.933C281.471 341.193 281.24 342.468 281.007 343.759C280.774 345.051 280.544 346.326 280.316 347.586C279.686 347.472 279.041 347.355 278.379 347.236C277.718 347.116 277.065 346.998 276.419 346.882C276.632 345.701 276.849 344.504 277.068 343.292C277.287 342.079 277.503 340.883 277.716 339.702C277.813 339.166 277.765 338.711 277.573 338.334C277.399 337.945 277.045 337.703 276.51 337.606C275.99 337.512 275.551 337.603 275.192 337.88C274.852 338.144 274.63 338.559 274.528 339.126C274.314 340.307 274.098 341.503 273.879 342.716C273.66 343.928 273.444 345.125 273.231 346.306C272.601 346.192 271.955 346.075 271.294 345.956C270.633 345.836 269.979 345.718 269.334 345.601C269.547 344.421 269.763 343.224 269.982 342.012C270.201 340.799 270.418 339.603 270.631 338.422C270.728 337.886 270.68 337.431 270.488 337.054C270.314 336.665 269.96 336.423 269.424 336.326C268.905 336.232 268.465 336.323 268.107 336.6C267.766 336.864 267.545 337.279 267.443 337.846C267.229 339.027 267.013 340.223 266.794 341.436C266.575 342.648 266.359 343.845 266.145 345.025C265.516 344.912 264.87 344.795 264.209 344.676C263.547 344.556 262.894 344.438 262.249 344.321ZM293.342 349.353C292.173 349.614 291.043 349.702 289.953 349.619C288.862 349.536 287.858 349.289 286.94 348.88C286.035 348.489 285.262 347.951 284.622 347.266C283.981 346.581 283.525 345.775 283.254 344.848C282.998 343.924 282.971 342.903 283.173 341.785C283.341 340.856 283.644 340.033 284.083 339.315C284.54 338.585 285.105 337.98 285.777 337.5C286.452 337.004 287.203 336.668 288.032 336.492C288.863 336.301 289.735 336.288 290.648 336.453C291.467 336.601 292.183 336.868 292.796 337.256C293.409 337.643 293.915 338.124 294.315 338.701C294.718 339.261 295.009 339.899 295.189 340.615C295.368 341.33 295.427 342.088 295.363 342.89C295.3 343.691 295.102 344.517 294.769 345.368C293.478 345.134 292.179 344.9 290.872 344.664C289.565 344.428 288.266 344.193 286.975 343.96C287.166 344.612 287.585 345.127 288.233 345.504C288.896 345.884 289.716 346.113 290.694 346.192C291.687 346.274 292.771 346.21 293.948 346C293.848 346.551 293.747 347.11 293.645 347.677C293.542 348.243 293.441 348.802 293.342 349.353ZM289.922 339.931C289.466 339.849 289.018 339.898 288.579 340.079C288.155 340.263 287.794 340.596 287.496 341.078C288.204 341.206 288.913 341.334 289.621 341.462C290.346 341.593 291.062 341.723 291.771 341.851C291.678 341.281 291.465 340.844 291.129 340.54C290.813 340.222 290.41 340.02 289.922 339.931ZM296.248 350.464C296.763 347.614 297.282 344.74 297.805 341.843C298.329 338.946 298.848 336.073 299.363 333.223C300.008 333.339 300.662 333.457 301.323 333.577C301.984 333.696 302.63 333.813 303.259 333.927C302.745 336.777 302.225 339.65 301.702 342.547C301.179 345.444 300.66 348.318 300.145 351.168C299.515 351.054 298.869 350.937 298.208 350.818C297.547 350.698 296.893 350.58 296.248 350.464ZM308.583 353.082C307.669 352.917 306.848 352.606 306.117 352.149C305.39 351.676 304.787 351.096 304.31 350.408C303.835 349.705 303.504 348.929 303.316 348.082C303.143 347.238 303.14 346.352 303.308 345.423C303.476 344.494 303.789 343.664 304.246 342.934C304.719 342.206 305.299 341.604 305.987 341.126C306.675 340.649 307.441 340.324 308.285 340.151C309.132 339.963 310.012 339.951 310.925 340.116C311.854 340.284 312.674 340.603 313.386 341.073C314.116 341.53 314.72 342.103 315.198 342.79C315.675 343.478 316 344.244 316.173 345.088C316.361 345.935 316.371 346.823 316.204 347.752C316.036 348.681 315.715 349.509 315.242 350.237C314.785 350.967 314.211 351.579 313.521 352.072C312.833 352.549 312.066 352.882 311.219 353.071C310.39 353.246 309.511 353.25 308.583 353.082ZM309.218 349.563C309.99 349.703 310.654 349.538 311.21 349.069C311.785 348.588 312.15 347.914 312.307 347.048C312.466 346.167 312.358 345.415 311.982 344.795C311.625 344.161 311.061 343.775 310.289 343.635C309.518 343.496 308.846 343.659 308.274 344.125C307.721 344.578 307.364 345.245 307.205 346.127C307.049 346.993 307.148 347.75 307.502 348.4C307.875 349.036 308.447 349.424 309.218 349.563ZM325.174 355.689C325.197 355.564 325.218 355.445 325.238 355.335C325.261 355.209 325.282 355.091 325.302 354.981C324.849 355.24 324.354 355.411 323.819 355.493C323.297 355.594 322.752 355.593 322.186 355.491C321.383 355.346 320.655 355.052 320.004 354.609C319.352 354.166 318.802 353.612 318.353 352.945C317.923 352.266 317.622 351.504 317.449 350.66C317.292 349.819 317.299 348.926 317.47 347.981C317.643 347.021 317.951 346.174 318.392 345.441C318.849 344.71 319.397 344.11 320.034 343.64C320.688 343.173 321.396 342.853 322.158 342.682C322.924 342.495 323.7 342.473 324.487 342.615C325.054 342.718 325.572 342.909 326.042 343.189C326.515 343.453 326.919 343.778 327.256 344.164C327.427 343.219 327.599 342.267 327.772 341.306C327.946 340.346 328.118 339.393 328.289 338.449C328.934 338.565 329.588 338.683 330.249 338.803C330.91 338.922 331.556 339.039 332.186 339.153C331.671 342.002 331.152 344.876 330.628 347.773C330.105 350.67 329.586 353.544 329.071 356.393C328.441 356.28 327.796 356.163 327.134 356.044C326.473 355.924 325.82 355.806 325.174 355.689ZM323.328 352.137C324.084 352.273 324.74 352.107 325.296 351.639C325.852 351.17 326.211 350.487 326.374 349.59C326.536 348.692 326.437 347.934 326.077 347.317C325.72 346.683 325.163 346.298 324.408 346.161C323.636 346.022 322.974 346.179 322.42 346.632C321.883 347.087 321.532 347.772 321.367 348.685C321.202 349.598 321.29 350.37 321.631 351.001C321.991 351.619 322.557 351.997 323.328 352.137ZM332.238 360.868C332.704 360.09 333.178 359.306 333.663 358.516C334.16 357.744 334.64 356.977 335.103 356.215C334.69 354.271 334.264 352.308 333.825 350.326C333.405 348.332 332.989 346.362 332.576 344.418C333.269 344.543 333.961 344.668 334.654 344.793C335.347 344.918 336.032 345.042 336.709 345.164C336.936 346.246 337.161 347.344 337.382 348.457C337.62 349.573 337.851 350.679 338.075 351.777C338.638 350.822 339.21 349.86 339.791 348.892C340.373 347.924 340.943 346.97 341.503 346.031C342.18 346.153 342.857 346.275 343.534 346.398C344.211 346.52 344.888 346.642 345.565 346.765C344.036 349.203 342.491 351.68 340.931 354.195C339.389 356.697 337.854 359.167 336.324 361.606C335.647 361.484 334.962 361.36 334.269 361.235C333.592 361.112 332.915 360.99 332.238 360.868Z" fill="#2F4ECD"/>
</svg>
