<svg width="685" height="657" viewBox="0 0 685 657" fill="none" xmlns="http://www.w3.org/2000/svg">
<rect x="185.711" y="118.795" width="38.8501" height="61.3104" transform="rotate(14.5277 185.711 118.795)" fill="#C17457"/>
<rect x="354.424" y="85.4625" width="38.8501" height="61.3104" transform="rotate(14.5277 354.424 85.4625)" fill="#C17457"/>
<rect x="120.51" y="162.861" width="356.329" height="424.923" rx="43.0994" transform="rotate(-11.0902 120.51 162.861)" fill="#F4E3D5"/>
<rect x="186.039" y="118.468" width="38.8501" height="61.3104" transform="rotate(-11.0902 186.039 118.468)" fill="#FE9973"/>
<mask id="mask0_50_161" style="mask-type:alpha" maskUnits="userSpaceOnUse" x="186" y="422" width="418" height="218">
<rect x="186.365" y="498.835" width="397" height="143.26" transform="rotate(-11.0902 186.365 498.835)" fill="#6CBDAA"/>
</mask>
<g mask="url(#mask0_50_161)">
<path d="M128.8 205.155C124.222 181.797 139.446 159.149 162.804 154.571L427.89 102.61C451.249 98.0314 473.896 113.256 478.475 136.614L543.63 469.013C548.208 492.372 532.984 515.02 509.626 519.598L244.54 571.559C221.181 576.138 198.534 560.913 193.955 537.555L128.8 205.155Z" fill="#FE9973"/>
</g>
<rect x="354.621" y="85.4238" width="38.8501" height="61.3104" transform="rotate(-11.0902 354.621 85.4238)" fill="#FE9973"/>
<path d="M423.467 196.617C416.938 189.76 398.384 185.195 406.911 192.452C413.499 198.057 419.158 197.728 423.467 196.617Z" stroke="#404040" stroke-width="2.42813"/>
<path d="M430.604 199.196C430.236 208.642 419.312 224.273 420.918 213.212C422.159 204.668 426.629 201.194 430.604 199.196Z" stroke="#404040" stroke-width="2.42813"/>
<path d="M176.85 248.317L421.98 200.268" stroke="#404040" stroke-width="2.42813"/>
<ellipse cx="430.158" cy="186.788" rx="3.79488" ry="7.163" transform="rotate(-11.0902 430.158 186.788)" fill="#E94812"/>
<ellipse cx="3.78246" cy="7.18668" rx="3.78246" ry="7.18668" transform="matrix(0.831747 0.555154 -0.560614 0.828077 439.367 180.757)" fill="#E94812"/>
<ellipse cx="3.77114" cy="7.20812" rx="3.77114" ry="7.20812" transform="matrix(0.399317 0.916813 -0.917909 0.396792 428.001 195.278)" fill="#E94812"/>
<ellipse cx="3.77555" cy="7.19978" rx="3.77555" ry="7.19978" transform="matrix(-0.295968 0.955198 -0.956803 -0.290736 430.629 191.278)" fill="#E94812"/>
<ellipse cx="3.79179" cy="7.16891" rx="3.79179" ry="7.16891" transform="matrix(-0.986377 -0.1645 0.168787 -0.985652 432.867 215.124)" fill="#E94812"/>
<ellipse cx="3.78246" cy="7.18668" rx="3.78246" ry="7.18668" transform="matrix(-0.560614 0.828077 -0.831747 -0.555154 448.192 204.834)" fill="#E94812"/>
<ellipse cx="443.133" cy="195.77" rx="3.77" ry="7.21028" transform="rotate(78.9098 443.133 195.77)" fill="#E94812"/>
<ellipse cx="432.294" cy="196.699" rx="6.41593" ry="6.37385" transform="rotate(-11.0902 432.294 196.699)" fill="#FECC73"/>
<path d="M432.575 243.081C426.046 236.224 407.491 231.66 416.019 238.916C422.606 244.521 428.265 244.193 432.575 243.081Z" stroke="#404040" stroke-width="2.42813"/>
<path d="M439.712 245.66C439.343 255.107 428.42 270.737 430.026 259.677C431.267 251.132 435.737 247.659 439.712 245.66Z" stroke="#404040" stroke-width="2.42813"/>
<path d="M185.958 294.781L431.087 246.732" stroke="#404040" stroke-width="2.42813"/>
<ellipse cx="439.266" cy="233.252" rx="3.79488" ry="7.163" transform="rotate(-11.0902 439.266 233.252)" fill="#E94812"/>
<ellipse cx="3.78246" cy="7.18668" rx="3.78246" ry="7.18668" transform="matrix(0.831747 0.555154 -0.560614 0.828077 448.474 227.221)" fill="#E94812"/>
<ellipse cx="3.77114" cy="7.20812" rx="3.77114" ry="7.20812" transform="matrix(0.399317 0.916813 -0.917909 0.396792 437.109 241.742)" fill="#E94812"/>
<ellipse cx="3.77555" cy="7.19978" rx="3.77555" ry="7.19978" transform="matrix(-0.295968 0.955198 -0.956803 -0.290736 439.736 237.742)" fill="#E94812"/>
<ellipse cx="3.79179" cy="7.16891" rx="3.79179" ry="7.16891" transform="matrix(-0.986377 -0.1645 0.168787 -0.985652 441.975 261.588)" fill="#E94812"/>
<ellipse cx="3.78246" cy="7.18668" rx="3.78246" ry="7.18668" transform="matrix(-0.560614 0.828077 -0.831747 -0.555154 457.299 251.298)" fill="#E94812"/>
<ellipse cx="452.241" cy="242.234" rx="3.77" ry="7.21028" transform="rotate(78.9098 452.241 242.234)" fill="#E94812"/>
<ellipse cx="441.402" cy="243.164" rx="6.41593" ry="6.37385" transform="rotate(-11.0902 441.402 243.164)" fill="#FECC73"/>
<path d="M441.8 290.141C435.27 283.284 416.716 278.72 425.243 285.976C431.831 291.581 437.49 291.253 441.8 290.141Z" stroke="#404040" stroke-width="2.42813"/>
<path d="M448.936 292.72C448.568 302.167 437.644 317.798 439.25 306.737C440.491 298.193 444.962 294.719 448.936 292.72Z" stroke="#404040" stroke-width="2.42813"/>
<path d="M195.182 341.841L440.312 293.792" stroke="#404040" stroke-width="2.42813"/>
<ellipse cx="448.49" cy="280.312" rx="3.79488" ry="7.163" transform="rotate(-11.0902 448.49 280.312)" fill="#E94812"/>
<ellipse cx="3.78246" cy="7.18668" rx="3.78246" ry="7.18668" transform="matrix(0.831747 0.555154 -0.560614 0.828077 457.699 274.281)" fill="#E94812"/>
<ellipse cx="3.77114" cy="7.20812" rx="3.77114" ry="7.20812" transform="matrix(0.399317 0.916813 -0.917909 0.396792 446.333 288.803)" fill="#E94812"/>
<ellipse cx="3.77555" cy="7.19978" rx="3.77555" ry="7.19978" transform="matrix(-0.295968 0.955198 -0.956803 -0.290736 448.961 284.802)" fill="#E94812"/>
<ellipse cx="3.79179" cy="7.16891" rx="3.79179" ry="7.16891" transform="matrix(-0.986377 -0.1645 0.168787 -0.985652 451.199 308.648)" fill="#E94812"/>
<ellipse cx="3.78246" cy="7.18668" rx="3.78246" ry="7.18668" transform="matrix(-0.560614 0.828077 -0.831747 -0.555154 466.524 298.358)" fill="#E94812"/>
<ellipse cx="461.465" cy="289.294" rx="3.77" ry="7.21028" transform="rotate(78.9098 461.465 289.294)" fill="#E94812"/>
<ellipse cx="450.626" cy="290.224" rx="6.41593" ry="6.37385" transform="rotate(-11.0902 450.626 290.224)" fill="#FECC73"/>
<path d="M451.024 337.201C444.495 330.344 425.94 325.78 434.468 333.036C441.055 338.642 446.714 338.313 451.024 337.201Z" stroke="#404040" stroke-width="2.42813"/>
<path d="M458.161 339.78C457.792 349.227 446.869 364.858 448.475 353.797C449.716 345.253 454.186 341.779 458.161 339.78Z" stroke="#404040" stroke-width="2.42813"/>
<path d="M204.407 388.901L449.536 340.852" stroke="#404040" stroke-width="2.42813"/>
<ellipse cx="457.715" cy="327.372" rx="3.79488" ry="7.163" transform="rotate(-11.0902 457.715 327.372)" fill="#E94812"/>
<ellipse cx="3.78246" cy="7.18668" rx="3.78246" ry="7.18668" transform="matrix(0.831747 0.555154 -0.560614 0.828077 466.923 321.342)" fill="#E94812"/>
<ellipse cx="3.77114" cy="7.20812" rx="3.77114" ry="7.20812" transform="matrix(0.399317 0.916813 -0.917909 0.396792 455.557 335.863)" fill="#E94812"/>
<ellipse cx="3.77555" cy="7.19978" rx="3.77555" ry="7.19978" transform="matrix(-0.295968 0.955198 -0.956803 -0.290736 458.185 331.862)" fill="#E94812"/>
<ellipse cx="3.79179" cy="7.16891" rx="3.79179" ry="7.16891" transform="matrix(-0.986377 -0.1645 0.168787 -0.985652 460.424 355.708)" fill="#E94812"/>
<ellipse cx="3.78246" cy="7.18668" rx="3.78246" ry="7.18668" transform="matrix(-0.560614 0.828077 -0.831747 -0.555154 475.748 345.419)" fill="#E94812"/>
<ellipse cx="470.69" cy="336.354" rx="3.77" ry="7.21028" transform="rotate(78.9098 470.69 336.354)" fill="#E94812"/>
<ellipse cx="459.851" cy="337.284" rx="6.41593" ry="6.37385" transform="rotate(-11.0902 459.851 337.284)" fill="#FECC73"/>
<path d="M460.248 384.261C453.719 377.405 435.165 372.84 443.692 380.097C450.28 385.702 455.939 385.373 460.248 384.261Z" stroke="#404040" stroke-width="2.42813"/>
<path d="M467.385 386.841C467.017 396.287 456.093 411.918 457.699 400.857C458.94 392.313 463.41 388.839 467.385 386.841Z" stroke="#404040" stroke-width="2.42813"/>
<path d="M213.631 435.961L458.761 387.912" stroke="#404040" stroke-width="2.42813"/>
<ellipse cx="466.939" cy="374.433" rx="3.79488" ry="7.163" transform="rotate(-11.0902 466.939 374.433)" fill="#E94812"/>
<ellipse cx="3.78246" cy="7.18668" rx="3.78246" ry="7.18668" transform="matrix(0.831747 0.555154 -0.560614 0.828077 476.148 368.402)" fill="#E94812"/>
<ellipse cx="3.77114" cy="7.20812" rx="3.77114" ry="7.20812" transform="matrix(0.399317 0.916813 -0.917909 0.396792 464.782 382.923)" fill="#E94812"/>
<ellipse cx="3.77555" cy="7.19978" rx="3.77555" ry="7.19978" transform="matrix(-0.295968 0.955198 -0.956803 -0.290736 467.409 378.922)" fill="#E94812"/>
<ellipse cx="3.79179" cy="7.16891" rx="3.79179" ry="7.16891" transform="matrix(-0.986377 -0.1645 0.168787 -0.985652 469.648 402.769)" fill="#E94812"/>
<ellipse cx="3.78246" cy="7.18668" rx="3.78246" ry="7.18668" transform="matrix(-0.560614 0.828077 -0.831747 -0.555154 484.973 392.479)" fill="#E94812"/>
<ellipse cx="479.914" cy="383.414" rx="3.77" ry="7.21028" transform="rotate(78.9098 479.914 383.414)" fill="#E94812"/>
<ellipse cx="469.075" cy="384.344" rx="6.41593" ry="6.37385" transform="rotate(-11.0902 469.075 384.344)" fill="#FECC73"/>
<path d="M176.177 239.693C175.66 237.055 175.137 234.386 174.608 231.685C174.078 228.984 173.555 226.315 173.038 223.677C174.624 223.367 176.225 223.053 177.843 222.736C179.46 222.419 181.061 222.105 182.647 221.794C182.764 222.39 182.884 223.003 183.007 223.631C183.13 224.259 183.25 224.871 183.367 225.468C182.457 225.646 181.538 225.826 180.612 226.008C179.701 226.187 178.79 226.365 177.88 226.544C177.957 226.936 178.034 227.329 178.111 227.721C178.184 228.098 178.26 228.483 178.337 228.875C179.169 228.712 180.009 228.547 180.857 228.381C181.705 228.215 182.537 228.052 183.353 227.892C183.467 228.473 183.583 229.062 183.7 229.658C183.817 230.255 183.933 230.852 184.05 231.448C183.234 231.608 182.402 231.771 181.554 231.938C180.706 232.104 179.866 232.268 179.034 232.431C179.123 232.887 179.214 233.35 179.306 233.821C179.399 234.292 179.489 234.755 179.579 235.211C180.489 235.032 181.4 234.854 182.311 234.675C183.237 234.494 184.156 234.313 185.066 234.135C185.183 234.732 185.303 235.344 185.426 235.972C185.549 236.6 185.669 237.212 185.786 237.809C184.201 238.12 182.599 238.434 180.982 238.751C179.365 239.068 177.763 239.382 176.177 239.693ZM188.385 237.3C187.991 235.29 187.594 233.265 187.194 231.223C186.79 229.167 186.392 227.133 185.998 225.123C186.642 224.997 187.293 224.87 187.953 224.74C188.612 224.611 189.256 224.485 189.884 224.362C189.905 224.472 189.925 224.574 189.944 224.668C189.962 224.762 189.982 224.864 190.004 224.974C190.369 224.593 190.796 224.273 191.283 224.014C191.783 223.737 192.339 223.538 192.952 223.418C193.847 223.243 194.672 223.293 195.427 223.569C196.198 223.842 196.847 224.326 197.375 225.021C197.915 225.698 198.29 226.57 198.499 227.638C198.739 228.862 198.981 230.095 199.224 231.335C199.467 232.576 199.708 233.808 199.949 235.033C199.321 235.156 198.677 235.282 198.017 235.412C197.358 235.541 196.706 235.669 196.063 235.795C195.841 234.664 195.616 233.518 195.388 232.356C195.161 231.194 194.936 230.048 194.714 228.918C194.591 228.29 194.344 227.816 193.972 227.498C193.612 227.161 193.118 227.054 192.49 227.177C191.862 227.3 191.411 227.576 191.136 228.005C190.861 228.434 190.79 228.986 190.923 229.661C191.144 230.791 191.369 231.938 191.597 233.099C191.824 234.261 192.049 235.408 192.271 236.538C191.643 236.661 190.999 236.787 190.339 236.917C189.68 237.046 189.028 237.174 188.385 237.3ZM202.348 234.563C201.791 231.721 201.23 228.855 200.663 225.966C200.097 223.077 199.535 220.212 198.978 217.37C199.622 217.244 200.274 217.116 200.933 216.987C201.592 216.857 202.236 216.731 202.864 216.608C203.421 219.45 203.983 222.316 204.549 225.205C205.116 228.094 205.677 230.959 206.234 233.801C205.606 233.924 204.963 234.05 204.303 234.18C203.644 234.309 202.992 234.436 202.348 234.563ZM208.36 219.297C207.905 219.386 207.467 219.358 207.047 219.212C206.643 219.063 206.295 218.83 206.005 218.512C205.714 218.194 205.526 217.815 205.44 217.375C205.353 216.935 205.386 216.521 205.539 216.133C205.688 215.729 205.921 215.381 206.239 215.091C206.573 214.797 206.967 214.605 207.423 214.516C207.862 214.43 208.284 214.461 208.689 214.611C209.108 214.756 209.464 214.988 209.754 215.307C210.042 215.609 210.229 215.98 210.315 216.419C210.401 216.859 210.37 217.281 210.221 217.685C210.072 218.089 209.83 218.438 209.496 218.732C209.178 219.023 208.8 219.211 208.36 219.297ZM209.064 233.246C208.67 231.237 208.273 229.211 207.873 227.17C207.47 225.113 207.071 223.08 206.677 221.07C207.321 220.944 207.973 220.816 208.632 220.687C209.292 220.558 209.935 220.431 210.564 220.308C210.957 222.318 211.356 224.351 211.759 226.408C212.159 228.449 212.556 230.475 212.95 232.485C212.322 232.608 211.678 232.734 211.019 232.863C210.36 232.992 209.708 233.12 209.064 233.246ZM226.721 227.731C226.982 229.066 226.91 230.237 226.505 231.246C226.115 232.252 225.469 233.072 224.566 233.705C223.666 234.354 222.581 234.811 221.313 235.076C220.06 235.338 218.696 235.41 217.222 235.291C217.102 234.679 216.98 234.059 216.857 233.431C216.737 232.818 216.617 232.206 216.497 231.594C217.833 231.837 219.003 231.861 220.008 231.664C221.016 231.482 221.772 231.139 222.276 230.632C222.792 230.107 222.982 229.491 222.843 228.785C222.828 228.706 222.814 228.635 222.801 228.573C222.786 228.494 222.772 228.423 222.76 228.361C222.426 228.736 222.017 229.061 221.532 229.335C221.048 229.609 220.508 229.805 219.911 229.922C218.922 230.116 217.99 230.062 217.116 229.76C216.254 229.44 215.523 228.915 214.924 228.185C214.321 227.439 213.912 226.516 213.696 225.417C213.53 224.569 213.519 223.764 213.663 223.002C213.808 222.24 214.08 221.551 214.481 220.934C214.882 220.318 215.378 219.813 215.969 219.42C216.558 219.011 217.205 218.737 217.912 218.599C218.477 218.488 219.018 218.463 219.536 218.525C220.053 218.587 220.527 218.714 220.956 218.907C220.934 218.797 220.914 218.695 220.896 218.601C220.877 218.507 220.857 218.405 220.836 218.295C221.48 218.169 222.131 218.041 222.791 217.912C223.45 217.782 224.094 217.656 224.722 217.533C225.051 219.213 225.385 220.917 225.724 222.644C226.059 224.355 226.391 226.051 226.721 227.731ZM220.217 226.365C220.876 226.235 221.362 225.928 221.674 225.443C222 224.939 222.098 224.357 221.968 223.698C221.836 223.023 221.524 222.513 221.033 222.169C220.557 221.822 219.99 221.713 219.33 221.843C218.639 221.978 218.131 222.298 217.806 222.802C217.478 223.29 217.382 223.879 217.517 224.57C217.649 225.245 217.96 225.747 218.448 226.075C218.936 226.404 219.526 226.5 220.217 226.365ZM229.81 229.18C229.253 226.338 228.691 223.472 228.125 220.583C227.559 217.694 226.997 214.829 226.44 211.987C227.084 211.861 227.735 211.733 228.395 211.604C229.054 211.475 229.698 211.348 230.326 211.225C230.508 212.152 230.692 213.094 230.88 214.051C231.065 214.994 231.248 215.928 231.429 216.854C231.795 216.473 232.221 216.153 232.709 215.894C233.209 215.617 233.765 215.418 234.377 215.298C235.272 215.123 236.097 215.173 236.852 215.449C237.623 215.722 238.272 216.206 238.8 216.901C239.34 217.578 239.715 218.45 239.924 219.518C240.164 220.743 240.406 221.975 240.649 223.215C240.892 224.456 241.134 225.688 241.374 226.913C240.746 227.036 240.102 227.162 239.443 227.292C238.783 227.421 238.132 227.549 237.488 227.675C237.266 226.544 237.042 225.398 236.814 224.236C236.586 223.074 236.362 221.928 236.14 220.798C236.017 220.17 235.769 219.696 235.397 219.378C235.037 219.041 234.544 218.934 233.916 219.057C233.288 219.18 232.836 219.456 232.562 219.885C232.287 220.314 232.216 220.866 232.348 221.541C232.57 222.671 232.794 223.818 233.022 224.979C233.25 226.141 233.475 227.288 233.696 228.418C233.068 228.541 232.424 228.667 231.765 228.797C231.105 228.926 230.454 229.054 229.81 229.18ZM245.063 226.19C244.78 224.745 244.495 223.293 244.209 221.833C243.923 220.373 243.64 218.928 243.359 217.499C243.045 217.561 242.724 217.624 242.394 217.689C242.08 217.75 241.766 217.812 241.452 217.873C241.338 217.292 241.224 216.711 241.11 216.13C240.996 215.55 240.882 214.969 240.769 214.388C241.083 214.326 241.397 214.265 241.711 214.203C242.04 214.138 242.362 214.075 242.676 214.014C242.569 213.464 242.462 212.922 242.358 212.389C242.25 211.839 242.144 211.297 242.039 210.764C242.683 210.637 243.335 210.51 243.994 210.38C244.653 210.251 245.297 210.125 245.925 210.002C246.03 210.536 246.136 211.077 246.244 211.627C246.348 212.161 246.455 212.702 246.562 213.252C246.923 213.181 247.292 213.109 247.669 213.035C248.046 212.961 248.415 212.889 248.776 212.818C248.89 213.399 249.004 213.98 249.118 214.561C249.232 215.142 249.346 215.723 249.459 216.304C249.098 216.374 248.729 216.447 248.352 216.521C247.976 216.595 247.607 216.667 247.246 216.738C247.526 218.166 247.809 219.611 248.095 221.071C248.381 222.531 248.666 223.984 248.949 225.428C248.321 225.551 247.677 225.678 247.018 225.807C246.358 225.936 245.707 226.064 245.063 226.19ZM263.292 222.03C262.298 222.698 261.278 223.191 260.231 223.51C259.185 223.829 258.16 223.965 257.156 223.917C256.171 223.882 255.256 223.662 254.41 223.257C253.564 222.852 252.847 222.268 252.256 221.503C251.682 220.735 251.285 219.794 251.067 218.679C250.885 217.752 250.868 216.875 251.016 216.048C251.176 215.201 251.482 214.432 251.933 213.74C252.381 213.033 252.959 212.446 253.667 211.982C254.372 211.501 255.18 211.172 256.09 210.993C256.907 210.833 257.671 210.822 258.383 210.959C259.095 211.097 259.741 211.362 260.324 211.753C260.903 212.129 261.406 212.617 261.834 213.218C262.261 213.819 262.591 214.504 262.824 215.274C263.056 216.043 263.172 216.885 263.172 217.798C261.884 218.05 260.589 218.304 259.286 218.56C257.982 218.815 256.687 219.069 255.4 219.321C255.815 219.86 256.392 220.187 257.133 220.302C257.888 220.415 258.736 220.331 259.675 220.049C260.63 219.764 261.617 219.309 262.636 218.686C262.744 219.235 262.853 219.792 262.964 220.358C263.075 220.923 263.184 221.48 263.292 222.03ZM256.679 214.497C256.224 214.586 255.825 214.795 255.481 215.123C255.154 215.448 254.939 215.89 254.836 216.448C255.543 216.31 256.249 216.171 256.956 216.033C257.678 215.891 258.393 215.751 259.099 215.613C258.806 215.116 258.448 214.786 258.025 214.625C257.615 214.444 257.166 214.402 256.679 214.497ZM266.285 222.03C265.891 220.02 265.494 217.995 265.094 215.954C264.691 213.897 264.292 211.864 263.898 209.854C264.542 209.728 265.194 209.6 265.853 209.471C266.513 209.341 267.156 209.215 267.784 209.092C267.806 209.202 267.826 209.304 267.844 209.398C267.863 209.493 267.883 209.595 267.904 209.705C268.27 209.323 268.696 209.003 269.184 208.745C269.684 208.467 270.24 208.268 270.852 208.148C271.747 207.973 272.572 208.023 273.327 208.299C274.098 208.572 274.747 209.056 275.275 209.752C275.815 210.428 276.19 211.301 276.399 212.368C276.639 213.593 276.881 214.825 277.124 216.066C277.367 217.306 277.609 218.539 277.849 219.763C277.221 219.887 276.577 220.013 275.918 220.142C275.258 220.271 274.607 220.399 273.963 220.525C273.741 219.395 273.517 218.249 273.289 217.087C273.061 215.925 272.836 214.779 272.615 213.648C272.492 213.02 272.244 212.547 271.872 212.228C271.512 211.891 271.019 211.784 270.391 211.907C269.762 212.031 269.311 212.306 269.036 212.735C268.762 213.164 268.691 213.716 268.823 214.391C269.045 215.522 269.269 216.668 269.497 217.83C269.725 218.992 269.949 220.138 270.171 221.268C269.543 221.392 268.899 221.518 268.24 221.647C267.58 221.776 266.929 221.904 266.285 222.03ZM280.246 219.294C279.852 217.284 279.455 215.258 279.055 213.217C278.652 211.16 278.253 209.127 277.859 207.117C278.503 206.991 279.155 206.863 279.814 206.734C280.473 206.605 281.117 206.479 281.745 206.356C281.767 206.466 281.787 206.568 281.805 206.662C281.824 206.756 281.844 206.858 281.865 206.968C282.215 206.59 282.626 206.273 283.097 206.017C283.566 205.746 284.067 205.558 284.601 205.453C285.182 205.34 285.736 205.337 286.263 205.446C286.786 205.539 287.258 205.74 287.677 206.049C288.109 205.589 288.618 205.196 289.207 204.869C289.81 204.538 290.45 204.307 291.125 204.175C292.083 203.987 292.945 204.022 293.713 204.279C294.497 204.533 295.148 204.984 295.666 205.632C296.2 206.278 296.567 207.111 296.767 208.131C297.013 209.387 297.263 210.659 297.515 211.947C297.768 213.234 298.017 214.506 298.263 215.762C297.635 215.885 296.991 216.011 296.332 216.141C295.672 216.27 295.021 216.398 294.377 216.524C294.146 215.346 293.912 214.153 293.675 212.944C293.438 211.735 293.204 210.542 292.974 209.364C292.869 208.83 292.659 208.423 292.343 208.143C292.04 207.843 291.621 207.746 291.087 207.851C290.569 207.952 290.193 208.197 289.959 208.585C289.738 208.955 289.683 209.422 289.794 209.987C290.025 211.165 290.259 212.358 290.496 213.567C290.733 214.776 290.967 215.969 291.197 217.147C290.569 217.27 289.926 217.396 289.266 217.526C288.607 217.655 287.955 217.783 287.311 217.909C287.081 216.731 286.847 215.538 286.61 214.329C286.373 213.12 286.139 211.927 285.908 210.749C285.803 210.215 285.593 209.808 285.277 209.527C284.974 209.228 284.556 209.131 284.022 209.236C283.504 209.337 283.128 209.582 282.894 209.97C282.673 210.34 282.618 210.807 282.729 211.372C282.959 212.55 283.193 213.743 283.43 214.952C283.667 216.161 283.901 217.354 284.132 218.532C283.504 218.655 282.86 218.781 282.201 218.91C281.541 219.04 280.89 219.167 280.246 219.294ZM311.039 212.671C310.045 213.338 309.025 213.832 307.979 214.151C306.933 214.47 305.908 214.606 304.904 214.558C303.919 214.523 303.003 214.303 302.158 213.898C301.312 213.493 300.594 212.908 300.004 212.144C299.43 211.376 299.033 210.434 298.815 209.32C298.633 208.393 298.616 207.516 298.764 206.688C298.924 205.842 299.229 205.073 299.681 204.381C300.129 203.673 300.707 203.087 301.415 202.622C302.12 202.142 302.927 201.812 303.838 201.634C304.654 201.474 305.419 201.463 306.13 201.6C306.842 201.738 307.489 202.002 308.071 202.394C308.65 202.769 309.154 203.258 309.581 203.859C310.009 204.46 310.339 205.145 310.571 205.915C310.804 206.684 310.92 207.526 310.919 208.439C309.632 208.691 308.336 208.945 307.033 209.201C305.73 209.456 304.435 209.71 303.147 209.962C303.562 210.5 304.14 210.827 304.88 210.943C305.636 211.056 306.484 210.971 307.423 210.689C308.378 210.404 309.365 209.95 310.384 209.326C310.492 209.876 310.601 210.433 310.712 210.999C310.823 211.564 310.932 212.121 311.039 212.671ZM304.427 205.138C303.972 205.227 303.572 205.436 303.229 205.764C302.902 206.089 302.686 206.531 302.584 207.089C303.29 206.95 303.997 206.812 304.704 206.673C305.426 206.532 306.14 206.392 306.847 206.253C306.554 205.756 306.196 205.427 305.773 205.265C305.362 205.085 304.914 205.043 304.427 205.138ZM314.033 212.671C313.639 210.661 313.242 208.636 312.842 206.595C312.438 204.538 312.04 202.504 311.646 200.495C312.29 200.368 312.941 200.241 313.601 200.111C314.26 199.982 314.904 199.856 315.532 199.733C315.553 199.843 315.573 199.945 315.592 200.039C315.61 200.133 315.63 200.235 315.652 200.345C316.017 199.964 316.444 199.644 316.931 199.385C317.431 199.108 317.987 198.909 318.6 198.789C319.495 198.614 320.32 198.664 321.075 198.94C321.846 199.213 322.495 199.697 323.023 200.392C323.563 201.069 323.938 201.941 324.147 203.009C324.387 204.234 324.629 205.466 324.872 206.707C325.115 207.947 325.357 209.18 325.597 210.404C324.969 210.527 324.325 210.654 323.665 210.783C323.006 210.912 322.354 211.04 321.711 211.166C321.489 210.035 321.264 208.889 321.037 207.727C320.809 206.566 320.584 205.419 320.362 204.289C320.239 203.661 319.992 203.188 319.62 202.869C319.26 202.532 318.766 202.425 318.138 202.548C317.51 202.671 317.059 202.947 316.784 203.376C316.509 203.805 316.438 204.357 316.571 205.032C316.792 206.163 317.017 207.309 317.245 208.471C317.472 209.633 317.697 210.779 317.919 211.909C317.291 212.032 316.647 212.159 315.987 212.288C315.328 212.417 314.676 212.545 314.033 212.671ZM329.265 209.685C328.982 208.241 328.697 206.788 328.411 205.328C328.125 203.868 327.842 202.423 327.562 200.995C327.248 201.056 326.926 201.119 326.596 201.184C326.282 201.245 325.968 201.307 325.654 201.368C325.54 200.787 325.426 200.207 325.313 199.626C325.199 199.045 325.085 198.464 324.971 197.883C325.285 197.821 325.599 197.76 325.913 197.698C326.243 197.633 326.565 197.57 326.879 197.509C326.771 196.959 326.665 196.418 326.56 195.884C326.452 195.334 326.346 194.793 326.242 194.259C326.885 194.133 327.537 194.005 328.196 193.876C328.856 193.746 329.5 193.62 330.128 193.497C330.232 194.031 330.338 194.572 330.446 195.122C330.551 195.656 330.657 196.198 330.765 196.747C331.126 196.676 331.495 196.604 331.872 196.53C332.248 196.456 332.617 196.384 332.979 196.313C333.092 196.894 333.206 197.475 333.32 198.056C333.434 198.637 333.548 199.218 333.662 199.799C333.301 199.87 332.932 199.942 332.555 200.016C332.178 200.09 331.809 200.162 331.448 200.233C331.728 201.662 332.011 203.106 332.297 204.566C332.584 206.027 332.868 207.479 333.151 208.923C332.523 209.047 331.88 209.173 331.22 209.302C330.561 209.431 329.909 209.559 329.265 209.685ZM350.749 201.561C350.94 202.534 350.822 203.389 350.395 204.125C349.981 204.842 349.347 205.431 348.492 205.892C347.636 206.353 346.639 206.671 345.499 206.845C344.378 207.033 343.205 207.075 341.978 206.973C341.861 206.377 341.741 205.764 341.618 205.136C341.495 204.508 341.375 203.896 341.258 203.299C341.976 203.468 342.681 203.574 343.375 203.618C344.065 203.646 344.68 203.623 345.22 203.55C345.76 203.476 346.184 203.352 346.492 203.178C346.797 202.988 346.922 202.751 346.867 202.469C346.824 202.249 346.649 202.104 346.341 202.034C346.05 201.96 345.675 201.92 345.217 201.912C344.756 201.888 344.26 201.855 343.73 201.812C343.212 201.75 342.708 201.629 342.216 201.448C341.721 201.252 341.287 200.954 340.915 200.554C340.556 200.135 340.304 199.557 340.159 198.819C339.987 197.939 340.092 197.144 340.475 196.434C340.87 195.704 341.468 195.097 342.27 194.614C343.069 194.115 344.002 193.761 345.07 193.552C346.138 193.342 347.264 193.309 348.45 193.452C348.567 194.048 348.687 194.661 348.81 195.289C348.933 195.917 349.053 196.529 349.17 197.126C348.208 196.874 347.328 196.753 346.531 196.763C345.734 196.772 345.111 196.878 344.661 197.08C344.209 197.267 344.015 197.525 344.079 197.855C344.122 198.074 344.29 198.221 344.581 198.294C344.885 198.349 345.259 198.382 345.701 198.393C346.159 198.401 346.647 198.436 347.164 198.497C347.698 198.556 348.204 198.685 348.683 198.884C349.175 199.065 349.602 199.373 349.965 199.807C350.34 200.223 350.601 200.807 350.749 201.561ZM354.634 204.712C354.351 203.268 354.066 201.816 353.78 200.355C353.494 198.895 353.211 197.451 352.931 196.022C352.617 196.083 352.295 196.147 351.965 196.211C351.651 196.273 351.337 196.334 351.023 196.396C350.909 195.815 350.795 195.234 350.681 194.653C350.567 194.072 350.454 193.491 350.34 192.91C350.654 192.849 350.968 192.787 351.282 192.725C351.611 192.661 351.933 192.598 352.247 192.536C352.14 191.987 352.033 191.445 351.929 190.911C351.821 190.362 351.715 189.82 351.61 189.286C352.254 189.16 352.906 189.032 353.565 188.903C354.225 188.774 354.868 188.647 355.496 188.524C355.601 189.058 355.707 189.6 355.815 190.149C355.92 190.683 356.026 191.225 356.133 191.774C356.495 191.704 356.864 191.631 357.24 191.557C357.617 191.484 357.986 191.411 358.347 191.341C358.461 191.921 358.575 192.502 358.689 193.083C358.803 193.664 358.917 194.245 359.031 194.826C358.669 194.897 358.3 194.969 357.924 195.043C357.547 195.117 357.178 195.189 356.817 195.26C357.097 196.689 357.38 198.133 357.666 199.594C357.952 201.054 358.237 202.506 358.52 203.951C357.892 204.074 357.248 204.2 356.589 204.329C355.929 204.459 355.278 204.586 354.634 204.712ZM370.619 201.579C370.594 201.454 370.571 201.336 370.549 201.226C370.525 201.1 370.502 200.983 370.48 200.873C370.152 201.279 369.754 201.618 369.285 201.89C368.836 202.173 368.328 202.371 367.763 202.481C366.962 202.638 366.179 202.637 365.414 202.477C364.646 202.302 363.932 201.985 363.271 201.528C362.624 201.051 362.066 200.451 361.598 199.728C361.146 199.001 360.826 198.159 360.638 197.201C360.447 196.228 360.424 195.319 360.569 194.476C360.729 193.629 361.022 192.879 361.448 192.225C361.887 191.552 362.43 190.997 363.078 190.56C363.723 190.107 364.438 189.804 365.223 189.65C365.789 189.54 366.341 189.529 366.88 189.619C367.416 189.693 367.912 189.849 368.366 190.086C368.341 189.96 368.318 189.843 368.297 189.733C368.275 189.623 368.253 189.513 368.232 189.403C368.876 189.277 369.527 189.149 370.187 189.02C370.846 188.891 371.49 188.764 372.118 188.641C372.512 190.651 372.91 192.684 373.314 194.741C373.714 196.782 374.111 198.808 374.505 200.818C373.877 200.941 373.233 201.067 372.573 201.196C371.914 201.325 371.262 201.453 370.619 201.579ZM367.607 198.941C368.361 198.794 368.911 198.4 369.259 197.762C369.606 197.123 369.693 196.356 369.517 195.461C369.342 194.566 368.974 193.896 368.414 193.452C367.851 192.991 367.193 192.835 366.439 192.983C365.67 193.134 365.11 193.52 364.759 194.144C364.424 194.764 364.346 195.529 364.524 196.44C364.703 197.35 365.066 198.037 365.613 198.501C366.173 198.945 366.838 199.092 367.607 198.941ZM388.157 196.087C388.418 197.422 388.346 198.594 387.941 199.602C387.551 200.608 386.904 201.428 386.001 202.061C385.101 202.711 384.017 203.168 382.748 203.433C381.495 203.695 380.132 203.766 378.657 203.648C378.537 203.035 378.416 202.415 378.293 201.787C378.173 201.175 378.053 200.562 377.933 199.95C379.268 200.194 380.439 200.217 381.444 200.02C382.452 199.839 383.208 199.495 383.712 198.988C384.228 198.463 384.417 197.847 384.279 197.141C384.263 197.062 384.25 196.992 384.237 196.929C384.222 196.85 384.208 196.78 384.196 196.717C383.862 197.092 383.452 197.417 382.968 197.691C382.484 197.965 381.943 198.161 381.347 198.278C380.358 198.472 379.426 198.418 378.552 198.117C377.69 197.796 376.959 197.271 376.359 196.541C375.757 195.795 375.348 194.872 375.132 193.773C374.966 192.925 374.955 192.121 375.099 191.359C375.243 190.597 375.516 189.907 375.917 189.291C376.317 188.674 376.814 188.169 377.405 187.776C377.993 187.367 378.641 187.094 379.347 186.955C379.913 186.844 380.454 186.82 380.972 186.881C381.489 186.943 381.962 187.07 382.392 187.263C382.37 187.153 382.35 187.051 382.332 186.957C382.313 186.863 382.293 186.761 382.272 186.651C382.915 186.525 383.567 186.397 384.226 186.268C384.886 186.139 385.53 186.012 386.158 185.889C386.487 187.569 386.821 189.273 387.159 191C387.495 192.711 387.827 194.407 388.157 196.087ZM381.652 194.721C382.312 194.592 382.798 194.284 383.11 193.799C383.435 193.295 383.533 192.714 383.404 192.054C383.272 191.379 382.96 190.869 382.468 190.525C381.993 190.179 381.425 190.07 380.766 190.199C380.075 190.334 379.567 190.654 379.242 191.158C378.914 191.646 378.817 192.236 378.953 192.927C379.085 193.602 379.395 194.103 379.884 194.432C380.372 194.76 380.961 194.856 381.652 194.721ZM401.498 194.94C400.504 195.607 399.484 196.101 398.437 196.42C397.391 196.739 396.366 196.875 395.362 196.827C394.377 196.792 393.462 196.572 392.616 196.167C391.77 195.762 391.052 195.177 390.462 194.412C389.888 193.645 389.491 192.703 389.273 191.588C389.091 190.662 389.074 189.785 389.222 188.957C389.382 188.111 389.688 187.341 390.139 186.65C390.587 185.942 391.165 185.356 391.873 184.891C392.578 184.411 393.386 184.081 394.296 183.903C395.113 183.743 395.877 183.731 396.589 183.869C397.3 184.007 397.947 184.271 398.53 184.663C399.109 185.038 399.612 185.527 400.04 186.128C400.467 186.728 400.797 187.414 401.029 188.183C401.262 188.953 401.378 189.795 401.378 190.708C400.09 190.96 398.795 191.214 397.491 191.469C396.188 191.725 394.893 191.979 393.605 192.231C394.021 192.769 394.598 193.096 395.338 193.212C396.094 193.325 396.942 193.24 397.881 192.958C398.836 192.673 399.823 192.219 400.842 191.595C400.95 192.145 401.059 192.702 401.17 193.267C401.281 193.833 401.39 194.39 401.498 194.94ZM394.885 187.407C394.43 187.496 394.031 187.705 393.687 188.033C393.36 188.358 393.145 188.8 393.042 189.358C393.749 189.219 394.455 189.081 395.162 188.942C395.884 188.801 396.599 188.661 397.305 188.522C397.012 188.025 396.654 187.696 396.231 187.534C395.821 187.354 395.372 187.311 394.885 187.407Z" fill="#2F4ECD"/>
<path d="M185.143 285.929C184.626 283.292 184.103 280.622 183.574 277.922C183.044 275.221 182.521 272.552 182.004 269.914C183.59 269.603 185.191 269.289 186.809 268.972C188.426 268.655 190.027 268.341 191.613 268.031C191.733 268.643 191.855 269.263 191.978 269.891C192.101 270.519 192.223 271.139 192.343 271.752C191.432 271.93 190.513 272.11 189.587 272.292C188.676 272.47 187.766 272.649 186.855 272.827C186.944 273.283 187.037 273.754 187.132 274.241C187.224 274.712 187.315 275.175 187.404 275.63C188.237 275.467 189.077 275.302 189.924 275.136C190.772 274.97 191.604 274.807 192.421 274.647C192.535 275.228 192.65 275.817 192.767 276.413C192.884 277.01 193.001 277.606 193.118 278.203C192.302 278.363 191.469 278.526 190.622 278.692C189.774 278.859 188.934 279.023 188.102 279.186C188.292 280.16 188.486 281.149 188.683 282.154C188.88 283.159 189.074 284.148 189.265 285.122C188.59 285.254 187.907 285.388 187.216 285.523C186.525 285.659 185.834 285.794 185.143 285.929ZM196.511 269.614C196.056 269.703 195.618 269.675 195.198 269.529C194.794 269.38 194.447 269.146 194.156 268.828C193.865 268.51 193.677 268.132 193.591 267.692C193.505 267.252 193.538 266.838 193.69 266.45C193.839 266.045 194.072 265.698 194.39 265.407C194.724 265.114 195.119 264.922 195.574 264.833C196.014 264.747 196.436 264.778 196.84 264.927C197.26 265.073 197.615 265.305 197.906 265.623C198.193 265.926 198.38 266.297 198.466 266.736C198.552 267.176 198.521 267.598 198.372 268.002C198.223 268.406 197.981 268.755 197.648 269.049C197.33 269.34 196.951 269.528 196.511 269.614ZM197.215 283.563C196.822 281.553 196.424 279.528 196.024 277.487C195.621 275.43 195.223 273.397 194.829 271.387C195.472 271.261 196.124 271.133 196.784 271.004C197.443 270.874 198.087 270.748 198.715 270.625C199.109 272.635 199.507 274.668 199.91 276.725C200.311 278.766 200.708 280.792 201.101 282.801C200.473 282.924 199.83 283.051 199.17 283.18C198.511 283.309 197.859 283.437 197.215 283.563ZM214.183 279.65C213.189 280.318 212.169 280.811 211.123 281.13C210.077 281.45 209.052 281.585 208.048 281.538C207.063 281.502 206.147 281.282 205.302 280.878C204.456 280.473 203.738 279.888 203.148 279.123C202.573 278.355 202.177 277.414 201.959 276.299C201.777 275.373 201.76 274.496 201.907 273.668C202.068 272.821 202.373 272.052 202.825 271.36C203.273 270.653 203.851 270.067 204.559 269.602C205.264 269.121 206.071 268.792 206.982 268.613C207.798 268.453 208.563 268.442 209.274 268.58C209.986 268.717 210.633 268.982 211.215 269.373C211.794 269.749 212.298 270.237 212.725 270.838C213.153 271.439 213.483 272.124 213.715 272.894C213.947 273.664 214.063 274.505 214.063 275.418C212.776 275.671 211.48 275.925 210.177 276.18C208.874 276.435 207.579 276.689 206.291 276.942C206.706 277.48 207.284 277.807 208.024 277.923C208.78 278.035 209.627 277.951 210.567 277.669C211.522 277.384 212.509 276.929 213.528 276.306C213.636 276.855 213.745 277.413 213.856 277.978C213.966 278.543 214.076 279.101 214.183 279.65ZM207.571 272.117C207.116 272.207 206.716 272.415 206.373 272.744C206.045 273.069 205.83 273.51 205.728 274.068C206.434 273.93 207.141 273.791 207.847 273.653C208.57 273.511 209.284 273.371 209.991 273.233C209.698 272.736 209.34 272.407 208.917 272.245C208.506 272.065 208.058 272.022 207.571 272.117ZM217.177 279.65C216.783 277.641 216.386 275.615 215.985 273.574C215.582 271.517 215.184 269.484 214.79 267.474C215.434 267.348 216.085 267.22 216.745 267.091C217.404 266.962 218.048 266.836 218.676 266.712C218.697 266.822 218.719 266.932 218.74 267.042C218.762 267.152 218.784 267.262 218.805 267.372C219.224 266.931 219.723 266.564 220.301 266.272C220.88 265.979 221.538 265.801 222.276 265.738C222.399 266.366 222.523 267.002 222.65 267.645C222.776 268.289 222.9 268.925 223.023 269.553C221.749 269.624 220.852 269.914 220.333 270.423C219.81 270.917 219.633 271.595 219.802 272.459C220.008 273.511 220.218 274.579 220.43 275.662C220.642 276.745 220.853 277.821 221.063 278.889C220.435 279.012 219.791 279.138 219.131 279.267C218.472 279.397 217.82 279.524 217.177 279.65ZM228.338 281.376C228.488 280.482 228.646 279.579 228.809 278.666C228.992 277.767 229.16 276.878 229.314 276C228.222 274.339 227.111 272.665 225.982 270.979C224.865 269.274 223.761 267.591 222.669 265.93C223.359 265.794 224.05 265.659 224.741 265.524C225.432 265.388 226.115 265.254 226.79 265.122C227.395 266.047 228.004 266.987 228.615 267.944C229.242 268.897 229.86 269.844 230.468 270.784C230.645 269.69 230.828 268.586 231.017 267.473C231.207 266.359 231.391 265.263 231.571 264.185C232.246 264.052 232.922 263.92 233.597 263.788C234.272 263.655 234.947 263.523 235.622 263.391C235.084 266.219 234.546 269.088 234.008 271.998C233.482 274.889 232.95 277.749 232.412 280.577C231.737 280.709 231.054 280.843 230.363 280.979C229.688 281.111 229.013 281.243 228.338 281.376ZM246.001 277.913C246.152 277.02 246.31 276.117 246.473 275.204C246.655 274.304 246.824 273.415 246.978 272.537C245.886 270.876 244.775 269.203 243.646 267.516C242.529 265.811 241.424 264.128 240.332 262.467C241.023 262.332 241.714 262.197 242.405 262.061C243.096 261.926 243.779 261.792 244.454 261.66C245.059 262.584 245.668 263.525 246.279 264.481C246.906 265.434 247.524 266.381 248.132 267.322C248.309 266.227 248.492 265.124 248.681 264.01C248.871 262.897 249.055 261.801 249.235 260.722C249.91 260.59 250.585 260.458 251.261 260.325C251.936 260.193 252.611 260.061 253.286 259.928C252.748 262.757 252.21 265.626 251.671 268.536C251.146 271.427 250.614 274.286 250.076 277.115C249.401 277.247 248.718 277.381 248.027 277.516C247.352 277.649 246.677 277.781 246.001 277.913ZM262.465 271.164C261.555 271.343 260.676 271.352 259.829 271.192C258.98 271.016 258.207 270.695 257.513 270.228C256.815 269.745 256.224 269.143 255.74 268.423C255.272 267.699 254.948 266.874 254.766 265.948C254.585 265.022 254.574 264.135 254.734 263.289C254.91 262.439 255.231 261.667 255.698 260.972C256.165 260.277 256.761 259.696 257.484 259.228C258.205 258.744 259.02 258.413 259.931 258.235C260.857 258.053 261.737 258.052 262.571 258.231C263.418 258.391 264.189 258.704 264.884 259.171C265.578 259.638 266.16 260.234 266.628 260.957C267.111 261.678 267.444 262.501 267.625 263.427C267.807 264.354 267.81 265.242 267.634 266.092C267.474 266.938 267.162 267.717 266.698 268.427C266.231 269.122 265.637 269.711 264.917 270.195C264.209 270.66 263.392 270.983 262.465 271.164ZM261.777 267.655C262.547 267.504 263.105 267.11 263.453 266.471C263.813 265.813 263.909 265.053 263.739 264.189C263.567 263.31 263.193 262.65 262.617 262.208C262.054 261.748 261.388 261.593 260.619 261.744C259.849 261.895 259.283 262.291 258.92 262.933C258.569 263.556 258.48 264.307 258.652 265.186C258.821 266.05 259.189 266.72 259.755 267.196C260.334 267.653 261.008 267.806 261.777 267.655ZM279.732 254.745C280.126 256.754 280.524 258.788 280.928 260.844C281.328 262.886 281.725 264.911 282.119 266.921C281.491 267.044 280.847 267.17 280.187 267.299C279.528 267.429 278.876 267.556 278.233 267.683C278.211 267.573 278.191 267.471 278.173 267.376C278.154 267.282 278.134 267.18 278.113 267.07C277.747 267.452 277.313 267.773 276.81 268.035C276.325 268.309 275.777 268.506 275.165 268.626C274.27 268.802 273.437 268.753 272.666 268.48C271.911 268.204 271.262 267.72 270.718 267.028C270.191 266.332 269.824 265.459 269.618 264.407C269.377 263.182 269.136 261.949 268.893 260.709C268.65 259.468 268.408 258.236 268.168 257.011C268.812 256.885 269.463 256.757 270.123 256.628C270.782 256.499 271.426 256.373 272.054 256.25C272.276 257.38 272.5 258.526 272.728 259.688C272.956 260.85 273.18 261.996 273.402 263.127C273.525 263.755 273.766 264.237 274.126 264.574C274.498 264.893 274.998 264.99 275.626 264.867C276.254 264.744 276.706 264.468 276.98 264.039C277.255 263.611 277.326 263.059 277.194 262.383C276.972 261.253 276.748 260.107 276.52 258.945C276.292 257.783 276.067 256.637 275.846 255.506C276.49 255.38 277.141 255.252 277.801 255.123C278.46 254.994 279.104 254.868 279.732 254.745ZM285.976 266.165C285.693 264.72 285.408 263.268 285.122 261.808C284.836 260.347 284.552 258.903 284.272 257.474C283.958 257.536 283.636 257.599 283.307 257.663C282.993 257.725 282.679 257.787 282.365 257.848C282.251 257.267 282.137 256.686 282.023 256.105C281.909 255.524 281.795 254.943 281.681 254.362C281.995 254.301 282.309 254.239 282.623 254.178C282.953 254.113 283.275 254.05 283.589 253.988C283.481 253.439 283.375 252.897 283.271 252.363C283.163 251.814 283.057 251.272 282.952 250.738C283.596 250.612 284.247 250.484 284.907 250.355C285.566 250.226 286.21 250.1 286.838 249.977C286.943 250.51 287.049 251.052 287.157 251.602C287.261 252.136 287.367 252.677 287.475 253.227C287.836 253.156 288.205 253.084 288.582 253.01C288.959 252.936 289.328 252.864 289.689 252.793C289.803 253.374 289.917 253.955 290.031 254.536C290.144 255.117 290.258 255.698 290.372 256.278C290.011 256.349 289.642 256.422 289.265 256.495C288.888 256.569 288.519 256.642 288.158 256.712C288.438 258.141 288.722 259.586 289.008 261.046C289.294 262.506 289.579 263.959 289.862 265.403C289.234 265.526 288.59 265.652 287.931 265.782C287.271 265.911 286.62 266.039 285.976 266.165ZM294.068 264.579C293.511 261.737 292.949 258.871 292.383 255.982C291.816 253.093 291.255 250.228 290.698 247.386C291.341 247.26 291.993 247.132 292.652 247.003C293.312 246.873 293.956 246.747 294.584 246.624C294.765 247.55 294.95 248.493 295.138 249.45C295.322 250.392 295.505 251.327 295.687 252.253C296.052 251.872 296.479 251.552 296.966 251.293C297.466 251.016 298.022 250.817 298.635 250.697C299.53 250.522 300.355 250.572 301.11 250.848C301.881 251.12 302.53 251.605 303.058 252.3C303.598 252.977 303.973 253.849 304.182 254.917C304.422 256.141 304.664 257.374 304.907 258.614C305.15 259.855 305.392 261.087 305.632 262.312C305.004 262.435 304.36 262.561 303.7 262.691C303.041 262.82 302.389 262.947 301.746 263.074C301.524 261.943 301.299 260.797 301.072 259.635C300.844 258.473 300.619 257.327 300.398 256.197C300.274 255.569 300.027 255.095 299.655 254.777C299.295 254.44 298.801 254.333 298.173 254.456C297.545 254.579 297.094 254.855 296.819 255.284C296.545 255.713 296.473 256.265 296.606 256.94C296.827 258.07 297.052 259.216 297.28 260.378C297.507 261.54 297.732 262.686 297.954 263.817C297.326 263.94 296.682 264.066 296.022 264.195C295.363 264.325 294.711 264.452 294.068 264.579Z" fill="#2F4ECD"/>
<path d="M194.719 332.934C194.202 330.296 193.679 327.627 193.149 324.926C192.62 322.225 192.097 319.556 191.58 316.918C192.553 316.727 193.527 316.537 194.5 316.346C195.489 316.152 196.463 315.961 197.421 315.773C198.504 315.561 199.493 315.571 200.386 315.804C201.276 316.02 202.017 316.43 202.608 317.031C203.195 317.617 203.58 318.373 203.761 319.3C203.891 319.959 203.882 320.58 203.735 321.163C203.589 321.747 203.3 322.268 202.868 322.727C203.604 322.991 204.207 323.403 204.675 323.963C205.141 324.508 205.448 325.157 205.595 325.91C205.78 326.852 205.698 327.724 205.35 328.526C205.017 329.325 204.458 330.006 203.671 330.567C202.9 331.126 201.942 331.518 200.795 331.742C199.791 331.939 198.778 332.138 197.757 332.338C196.737 332.538 195.724 332.737 194.719 332.934ZM199.718 320.508C199.638 320.1 199.448 319.795 199.148 319.593C198.844 319.375 198.488 319.306 198.08 319.386C197.797 319.441 197.507 319.498 197.209 319.557C196.926 319.612 196.643 319.668 196.361 319.723C196.447 320.163 196.536 320.618 196.628 321.089C196.718 321.544 196.807 322 196.896 322.455C197.179 322.4 197.461 322.344 197.744 322.289C198.042 322.23 198.333 322.173 198.615 322.118C199.024 322.038 199.33 321.856 199.535 321.571C199.737 321.27 199.798 320.916 199.718 320.508ZM201.4 326.341C201.314 325.902 201.097 325.586 200.749 325.393C200.414 325.181 199.996 325.125 199.493 325.223C199.163 325.288 198.834 325.353 198.504 325.417C198.174 325.482 197.845 325.546 197.515 325.611C197.61 326.098 197.706 326.585 197.801 327.071C197.896 327.558 197.992 328.045 198.087 328.531C198.417 328.467 198.747 328.402 199.076 328.338C199.406 328.273 199.736 328.208 200.066 328.144C200.568 328.045 200.934 327.835 201.165 327.512C201.411 327.187 201.489 326.797 201.4 326.341ZM208.513 330.23C208.12 328.22 207.723 326.194 207.322 324.153C206.919 322.096 206.521 320.063 206.127 318.053C206.77 317.927 207.422 317.799 208.082 317.67C208.741 317.541 209.385 317.415 210.013 317.292C210.034 317.402 210.056 317.511 210.077 317.621C210.099 317.731 210.121 317.841 210.142 317.951C210.561 317.51 211.06 317.143 211.638 316.851C212.217 316.558 212.875 316.38 213.613 316.317C213.736 316.945 213.86 317.581 213.986 318.225C214.113 318.868 214.237 319.504 214.36 320.132C213.086 320.203 212.189 320.493 211.669 321.002C211.147 321.496 210.97 322.175 211.139 323.038C211.345 324.09 211.555 325.158 211.767 326.241C211.979 327.325 212.19 328.4 212.4 329.468C211.771 329.591 211.128 329.717 210.468 329.846C209.809 329.976 209.157 330.103 208.513 330.23ZM217.219 314.436C216.764 314.525 216.326 314.497 215.906 314.351C215.502 314.202 215.154 313.969 214.864 313.651C214.573 313.333 214.385 312.954 214.299 312.514C214.212 312.074 214.245 311.66 214.397 311.272C214.547 310.868 214.78 310.52 215.098 310.23C215.432 309.936 215.826 309.744 216.282 309.655C216.721 309.569 217.143 309.6 217.547 309.749C217.967 309.895 218.323 310.127 218.613 310.445C218.901 310.748 219.088 311.119 219.174 311.558C219.26 311.998 219.229 312.42 219.08 312.824C218.93 313.228 218.689 313.577 218.355 313.871C218.037 314.162 217.658 314.35 217.219 314.436ZM217.923 328.385C217.529 326.375 217.132 324.35 216.732 322.309C216.329 320.252 215.93 318.219 215.536 316.209C216.18 316.083 216.832 315.955 217.491 315.826C218.151 315.697 218.794 315.57 219.422 315.447C219.816 317.457 220.215 319.49 220.618 321.547C221.018 323.588 221.415 325.614 221.809 327.623C221.181 327.747 220.537 327.873 219.878 328.002C219.219 328.131 218.567 328.259 217.923 328.385ZM235.58 322.87C235.841 324.205 235.769 325.376 235.364 326.385C234.974 327.391 234.328 328.21 233.425 328.844C232.525 329.493 231.44 329.95 230.172 330.215C228.919 330.477 227.555 330.549 226.081 330.43C225.961 329.818 225.839 329.198 225.716 328.57C225.596 327.957 225.476 327.345 225.356 326.733C226.692 326.976 227.862 327 228.867 326.803C229.875 326.621 230.631 326.277 231.135 325.771C231.651 325.246 231.84 324.63 231.702 323.923C231.687 323.845 231.673 323.774 231.66 323.712C231.645 323.633 231.631 323.562 231.619 323.5C231.285 323.875 230.876 324.2 230.391 324.474C229.907 324.748 229.367 324.944 228.77 325.061C227.781 325.255 226.849 325.201 225.975 324.899C225.113 324.579 224.382 324.054 223.783 323.324C223.18 322.578 222.771 321.655 222.555 320.556C222.389 319.708 222.378 318.903 222.522 318.141C222.666 317.379 222.939 316.69 223.34 316.073C223.741 315.457 224.237 314.952 224.828 314.559C225.417 314.15 226.064 313.876 226.771 313.738C227.336 313.627 227.877 313.602 228.395 313.664C228.912 313.726 229.386 313.853 229.815 314.046C229.793 313.936 229.773 313.834 229.755 313.74C229.736 313.646 229.716 313.544 229.695 313.434C230.339 313.308 230.99 313.18 231.65 313.051C232.309 312.921 232.953 312.795 233.581 312.672C233.91 314.352 234.244 316.056 234.583 317.783C234.918 319.494 235.25 321.19 235.58 322.87ZM229.075 321.504C229.735 321.374 230.221 321.067 230.533 320.582C230.859 320.078 230.956 319.496 230.827 318.837C230.695 318.162 230.383 317.652 229.892 317.308C229.416 316.961 228.849 316.852 228.189 316.982C227.498 317.117 226.99 317.437 226.665 317.941C226.337 318.429 226.24 319.018 226.376 319.709C226.508 320.384 226.819 320.886 227.307 321.214C227.795 321.543 228.385 321.639 229.075 321.504ZM238.669 324.319C238.112 321.477 237.55 318.611 236.984 315.722C236.418 312.833 235.856 309.968 235.299 307.126C235.943 307 236.594 306.872 237.254 306.743C237.913 306.613 238.557 306.487 239.185 306.364C239.367 307.291 239.551 308.233 239.739 309.19C239.924 310.132 240.107 311.067 240.288 311.993C240.654 311.612 241.08 311.292 241.568 311.033C242.068 310.756 242.624 310.557 243.236 310.437C244.131 310.262 244.956 310.312 245.711 310.588C246.482 310.861 247.131 311.345 247.659 312.04C248.199 312.717 248.574 313.589 248.783 314.657C249.023 315.881 249.265 317.114 249.508 318.354C249.751 319.595 249.993 320.827 250.233 322.052C249.605 322.175 248.961 322.301 248.302 322.431C247.642 322.56 246.991 322.688 246.347 322.814C246.125 321.683 245.901 320.537 245.673 319.375C245.445 318.213 245.22 317.067 244.999 315.937C244.876 315.309 244.628 314.835 244.256 314.517C243.896 314.18 243.403 314.073 242.775 314.196C242.146 314.319 241.695 314.595 241.42 315.024C241.146 315.453 241.075 316.005 241.207 316.68C241.429 317.81 241.653 318.957 241.881 320.118C242.109 321.28 242.333 322.427 242.555 323.557C241.927 323.68 241.283 323.806 240.624 323.936C239.964 324.065 239.313 324.193 238.669 324.319ZM253.922 321.329C253.639 319.884 253.354 318.432 253.068 316.972C252.782 315.512 252.499 314.067 252.218 312.638C251.904 312.7 251.583 312.763 251.253 312.828C250.939 312.889 250.625 312.951 250.311 313.012C250.197 312.431 250.083 311.85 249.969 311.269C249.855 310.688 249.741 310.108 249.627 309.527C249.942 309.465 250.256 309.403 250.57 309.342C250.899 309.277 251.221 309.214 251.535 309.153C251.427 308.603 251.321 308.061 251.217 307.528C251.109 306.978 251.003 306.436 250.898 305.903C251.542 305.776 252.193 305.649 252.853 305.519C253.512 305.39 254.156 305.264 254.784 305.141C254.889 305.675 254.995 306.216 255.103 306.766C255.207 307.3 255.314 307.841 255.421 308.391C255.782 308.32 256.151 308.248 256.528 308.174C256.905 308.1 257.274 308.028 257.635 307.957C257.749 308.538 257.863 309.119 257.977 309.7C258.091 310.281 258.204 310.862 258.318 311.443C257.957 311.513 257.588 311.586 257.211 311.66C256.835 311.733 256.466 311.806 256.104 311.877C256.385 313.305 256.668 314.75 256.954 316.21C257.24 317.67 257.525 319.123 257.808 320.567C257.18 320.69 256.536 320.817 255.877 320.946C255.217 321.075 254.566 321.203 253.922 321.329ZM266.841 318.797C266.447 316.787 266.05 314.761 265.65 312.72C265.247 310.663 264.848 308.63 264.454 306.62C265.098 306.494 265.75 306.366 266.409 306.237C267.069 306.108 267.712 305.982 268.34 305.859C268.362 305.969 268.383 306.078 268.405 306.188C268.427 306.298 268.448 306.408 268.47 306.518C268.889 306.077 269.387 305.71 269.966 305.418C270.544 305.125 271.202 304.947 271.94 304.884C272.063 305.512 272.188 306.148 272.314 306.792C272.44 307.435 272.565 308.071 272.688 308.699C271.414 308.77 270.517 309.06 269.997 309.569C269.474 310.063 269.297 310.742 269.467 311.605C269.673 312.657 269.882 313.725 270.095 314.808C270.307 315.892 270.518 316.967 270.727 318.035C270.099 318.158 269.455 318.284 268.796 318.413C268.136 318.543 267.485 318.67 266.841 318.797ZM286.388 314.378C285.394 315.046 284.373 315.539 283.327 315.859C282.281 316.178 281.256 316.313 280.252 316.266C279.267 316.231 278.352 316.01 277.506 315.606C276.66 315.201 275.942 314.616 275.352 313.851C274.778 313.083 274.381 312.142 274.163 311.027C273.981 310.101 273.964 309.224 274.112 308.396C274.272 307.549 274.578 306.78 275.029 306.088C275.477 305.381 276.055 304.795 276.763 304.33C277.468 303.849 278.276 303.52 279.186 303.341C280.003 303.181 280.767 303.17 281.479 303.308C282.19 303.445 282.837 303.71 283.419 304.101C283.999 304.477 284.502 304.965 284.929 305.566C285.357 306.167 285.687 306.852 285.919 307.622C286.152 308.392 286.268 309.233 286.267 310.146C284.98 310.399 283.685 310.653 282.381 310.908C281.078 311.164 279.783 311.417 278.495 311.67C278.911 312.208 279.488 312.535 280.228 312.651C280.984 312.763 281.832 312.679 282.771 312.397C283.726 312.112 284.713 311.658 285.732 311.034C285.84 311.583 285.949 312.141 286.06 312.706C286.171 313.271 286.28 313.829 286.388 314.378ZM279.775 306.845C279.32 306.935 278.921 307.143 278.577 307.472C278.25 307.797 278.035 308.238 277.932 308.796C278.639 308.658 279.345 308.519 280.052 308.381C280.774 308.239 281.488 308.099 282.195 307.961C281.902 307.464 281.544 307.135 281.121 306.973C280.711 306.793 280.262 306.75 279.775 306.845ZM297.506 312.786C297.482 312.66 297.459 312.542 297.437 312.433C297.412 312.307 297.389 312.189 297.368 312.079C297.04 312.486 296.642 312.825 296.173 313.096C295.723 313.38 295.216 313.577 294.65 313.688C293.85 313.845 293.065 313.836 292.297 313.66C291.529 313.485 290.815 313.168 290.154 312.711C289.507 312.234 288.949 311.634 288.481 310.911C288.029 310.184 287.71 309.35 287.526 308.408C287.338 307.45 287.316 306.549 287.461 305.706C287.621 304.859 287.912 304.101 288.336 303.431C288.774 302.758 289.318 302.203 289.966 301.766C290.611 301.314 291.326 301.011 292.111 300.857C292.676 300.746 293.228 300.736 293.768 300.826C294.304 300.9 294.799 301.055 295.253 301.293C295.069 300.35 294.883 299.401 294.695 298.443C294.507 297.485 294.321 296.535 294.136 295.593C294.78 295.467 295.432 295.339 296.091 295.21C296.75 295.081 297.394 294.954 298.022 294.831C298.579 297.673 299.141 300.539 299.707 303.428C300.274 306.317 300.835 309.182 301.392 312.024C300.764 312.147 300.12 312.273 299.461 312.403C298.802 312.532 298.15 312.66 297.506 312.786ZM294.495 310.148C295.248 310 295.799 309.607 296.146 308.968C296.494 308.329 296.58 307.562 296.405 306.667C296.229 305.772 295.862 305.103 295.302 304.658C294.739 304.198 294.08 304.042 293.327 304.189C292.557 304.34 291.997 304.727 291.646 305.35C291.312 305.97 291.233 306.735 291.412 307.646C291.59 308.557 291.953 309.244 292.501 309.707C293.061 310.152 293.725 310.299 294.495 310.148Z" fill="#2F4ECD"/>
<path d="M202.565 361.805C203.243 363.352 203.926 364.922 204.613 366.515C205.3 368.109 205.977 369.688 206.642 371.253C206.683 369.55 206.721 367.83 206.756 366.095C206.807 364.357 206.846 362.645 206.875 360.961C207.487 360.84 208.107 360.719 208.735 360.596C209.364 360.473 209.984 360.351 210.596 360.231C211.29 361.774 211.987 363.334 212.687 364.908C213.387 366.483 214.085 368.05 214.782 369.609C214.823 367.905 214.855 366.195 214.877 364.479C214.915 362.76 214.948 361.057 214.977 359.372C215.605 359.249 216.233 359.126 216.861 359.003C217.505 358.877 218.14 358.752 218.769 358.629C218.705 361.381 218.647 364.164 218.595 366.978C218.544 369.793 218.486 372.576 218.422 375.328C217.653 375.478 216.868 375.632 216.067 375.789C215.282 375.943 214.497 376.097 213.712 376.251C213.096 374.855 212.47 373.453 211.836 372.045C211.198 370.621 210.571 369.212 209.955 367.816C209.927 369.338 209.895 370.877 209.857 372.433C209.817 373.974 209.783 375.505 209.755 377.027C208.986 377.177 208.208 377.33 207.423 377.484C206.654 377.634 205.885 377.785 205.115 377.936C204.017 375.412 202.913 372.857 201.803 370.27C200.693 367.683 199.588 365.128 198.49 362.604C199.166 362.472 199.841 362.339 200.516 362.207C201.207 362.072 201.89 361.938 202.565 361.805ZM233.204 371.843C232.21 372.511 231.19 373.004 230.144 373.323C229.098 373.643 228.073 373.778 227.069 373.731C226.084 373.695 225.168 373.475 224.323 373.071C223.477 372.666 222.759 372.081 222.169 371.316C221.594 370.548 221.198 369.607 220.979 368.492C220.798 367.566 220.781 366.689 220.928 365.861C221.088 365.014 221.394 364.245 221.846 363.553C222.294 362.846 222.872 362.26 223.58 361.795C224.284 361.314 225.092 360.985 226.003 360.806C226.819 360.646 227.583 360.635 228.295 360.773C229.007 360.91 229.654 361.175 230.236 361.566C230.815 361.942 231.318 362.43 231.746 363.031C232.174 363.632 232.504 364.317 232.736 365.087C232.968 365.857 233.084 366.698 233.084 367.611C231.797 367.864 230.501 368.118 229.198 368.373C227.895 368.628 226.599 368.882 225.312 369.135C225.727 369.673 226.305 370 227.045 370.116C227.801 370.228 228.648 370.144 229.588 369.862C230.543 369.577 231.53 369.122 232.549 368.499C232.656 369.048 232.766 369.606 232.877 370.171C232.987 370.736 233.097 371.294 233.204 371.843ZM226.592 364.31C226.137 364.4 225.737 364.608 225.394 364.937C225.066 365.262 224.851 365.703 224.749 366.261C225.455 366.123 226.162 365.984 226.868 365.846C227.591 365.704 228.305 365.564 229.012 365.426C228.719 364.929 228.361 364.6 227.938 364.438C227.527 364.258 227.079 364.215 226.592 364.31ZM244.762 366.252C244.953 367.225 244.835 368.08 244.408 368.815C243.995 369.532 243.36 370.122 242.505 370.583C241.649 371.044 240.652 371.362 239.512 371.536C238.391 371.723 237.218 371.766 235.991 371.664C235.874 371.067 235.754 370.455 235.631 369.827C235.508 369.199 235.388 368.586 235.271 367.99C235.989 368.159 236.694 368.265 237.388 368.308C238.078 368.336 238.693 368.313 239.233 368.24C239.773 368.167 240.197 368.043 240.505 367.869C240.81 367.678 240.935 367.442 240.88 367.159C240.837 366.939 240.662 366.794 240.354 366.724C240.063 366.651 239.688 366.61 239.23 366.602C238.769 366.579 238.273 366.545 237.743 366.502C237.225 366.441 236.721 366.32 236.229 366.139C235.734 365.942 235.3 365.644 234.928 365.244C234.569 364.826 234.317 364.247 234.173 363.509C234 362.63 234.105 361.835 234.488 361.124C234.883 360.395 235.481 359.788 236.283 359.305C237.082 358.806 238.015 358.452 239.083 358.242C240.151 358.033 241.277 358 242.463 358.142C242.58 358.739 242.7 359.351 242.823 359.979C242.946 360.607 243.066 361.22 243.183 361.816C242.221 361.565 241.341 361.444 240.544 361.453C239.747 361.463 239.124 361.569 238.674 361.771C238.222 361.957 238.028 362.216 238.092 362.545C238.135 362.765 238.303 362.912 238.594 362.985C238.898 363.039 239.272 363.072 239.714 363.083C240.172 363.091 240.66 363.126 241.178 363.188C241.711 363.246 242.217 363.375 242.696 363.575C243.188 363.756 243.615 364.063 243.978 364.498C244.353 364.913 244.614 365.498 244.762 366.252ZM248.647 369.403C248.364 367.959 248.079 366.506 247.793 365.046C247.507 363.586 247.224 362.141 246.944 360.712C246.63 360.774 246.308 360.837 245.978 360.902C245.664 360.963 245.35 361.025 245.036 361.086C244.922 360.505 244.808 359.925 244.694 359.344C244.58 358.763 244.467 358.182 244.353 357.601C244.667 357.539 244.981 357.478 245.295 357.416C245.625 357.351 245.946 357.288 246.26 357.227C246.153 356.677 246.047 356.136 245.942 355.602C245.834 355.052 245.728 354.511 245.623 353.977C246.267 353.85 246.919 353.723 247.578 353.593C248.238 353.464 248.881 353.338 249.509 353.215C249.614 353.749 249.72 354.29 249.828 354.84C249.933 355.374 250.039 355.916 250.146 356.465C250.508 356.394 250.877 356.322 251.253 356.248C251.63 356.174 251.999 356.102 252.36 356.031C252.474 356.612 252.588 357.193 252.702 357.774C252.816 358.355 252.93 358.936 253.044 359.517C252.682 359.588 252.313 359.66 251.937 359.734C251.56 359.808 251.191 359.88 250.83 359.951C251.11 361.38 251.393 362.824 251.679 364.284C251.965 365.745 252.25 367.197 252.533 368.641C251.905 368.764 251.261 368.891 250.602 369.02C249.943 369.149 249.291 369.277 248.647 369.403ZM266.876 365.243C265.882 365.911 264.862 366.404 263.816 366.723C262.77 367.043 261.744 367.178 260.741 367.13C259.755 367.095 258.84 366.875 257.994 366.47C257.149 366.065 256.431 365.481 255.841 364.716C255.266 363.948 254.87 363.007 254.651 361.892C254.47 360.966 254.453 360.088 254.6 359.261C254.76 358.414 255.066 357.645 255.517 356.953C255.966 356.246 256.544 355.66 257.251 355.195C257.956 354.714 258.764 354.385 259.675 354.206C260.491 354.046 261.255 354.035 261.967 354.173C262.679 354.31 263.326 354.575 263.908 354.966C264.487 355.342 264.99 355.83 265.418 356.431C265.845 357.032 266.175 357.717 266.408 358.487C266.64 359.257 266.756 360.098 266.756 361.011C265.468 361.263 264.173 361.517 262.87 361.773C261.567 362.028 260.271 362.282 258.984 362.535C259.399 363.073 259.977 363.4 260.717 363.516C261.473 363.628 262.32 363.544 263.259 363.262C264.214 362.977 265.201 362.522 266.221 361.899C266.328 362.448 266.437 363.006 266.548 363.571C266.659 364.136 266.768 364.693 266.876 365.243ZM260.264 357.71C259.808 357.8 259.409 358.008 259.066 358.336C258.738 358.661 258.523 359.103 258.42 359.661C259.127 359.523 259.834 359.384 260.54 359.246C261.262 359.104 261.977 358.964 262.683 358.826C262.39 358.329 262.032 357.999 261.609 357.838C261.199 357.657 260.75 357.615 260.264 357.71ZM269.869 365.243C269.475 363.234 269.078 361.208 268.678 359.167C268.275 357.11 267.876 355.077 267.482 353.067C268.126 352.941 268.778 352.813 269.437 352.684C270.097 352.555 270.74 352.428 271.369 352.305C271.39 352.415 271.412 352.525 271.433 352.635C271.455 352.745 271.476 352.855 271.498 352.965C271.917 352.524 272.416 352.157 272.994 351.864C273.573 351.572 274.231 351.394 274.968 351.331C275.091 351.959 275.216 352.595 275.342 353.238C275.468 353.882 275.593 354.518 275.716 355.146C274.442 355.216 273.545 355.506 273.025 356.016C272.502 356.51 272.326 357.188 272.495 358.052C272.701 359.104 272.91 360.172 273.123 361.255C273.335 362.338 273.546 363.414 273.755 364.482C273.127 364.605 272.483 364.731 271.824 364.86C271.165 364.989 270.513 365.117 269.869 365.243ZM279.161 363.422C278.767 361.412 278.37 359.387 277.97 357.346C277.567 355.289 277.168 353.255 276.774 351.246C277.418 351.119 278.07 350.992 278.729 350.862C279.389 350.733 280.032 350.607 280.66 350.484C280.682 350.594 280.702 350.696 280.72 350.79C280.739 350.884 280.759 350.986 280.78 351.096C281.146 350.715 281.572 350.395 282.06 350.136C282.56 349.859 283.116 349.66 283.728 349.54C284.623 349.365 285.448 349.415 286.203 349.691C286.974 349.964 287.624 350.448 288.151 351.143C288.691 351.82 289.066 352.692 289.275 353.76C289.516 354.985 289.757 356.217 290 357.458C290.243 358.698 290.485 359.931 290.725 361.155C290.097 361.278 289.453 361.405 288.794 361.534C288.134 361.663 287.483 361.791 286.839 361.917C286.617 360.786 286.393 359.64 286.165 358.478C285.937 357.316 285.713 356.17 285.491 355.04C285.368 354.412 285.12 353.939 284.748 353.62C284.388 353.283 283.895 353.176 283.267 353.299C282.639 353.422 282.187 353.698 281.913 354.127C281.638 354.556 281.567 355.108 281.699 355.783C281.921 356.914 282.145 358.06 282.373 359.222C282.601 360.384 282.826 361.53 283.047 362.66C282.419 362.783 281.775 362.909 281.116 363.039C280.456 363.168 279.805 363.296 279.161 363.422ZM295.728 351.15C295.614 350.569 295.5 349.988 295.386 349.407C295.272 348.826 295.158 348.245 295.044 347.664C295.358 347.603 295.672 347.541 295.986 347.48C296.316 347.415 296.638 347.352 296.952 347.291C296.937 347.212 296.923 347.141 296.91 347.079C296.898 347.016 296.886 346.953 296.874 346.89C296.667 345.838 296.707 344.917 296.992 344.128C297.29 343.319 297.756 342.657 298.389 342.142C299.034 341.608 299.776 341.234 300.614 341.021C301.466 340.789 302.343 340.731 303.246 340.848C303.36 341.428 303.477 342.025 303.597 342.637C303.717 343.25 303.836 343.854 303.953 344.451C302.949 344.322 302.136 344.416 301.513 344.733C300.891 345.051 300.641 345.524 300.764 346.152C300.777 346.215 300.789 346.278 300.801 346.34C300.813 346.403 300.826 346.466 300.838 346.529C301.325 346.433 301.812 346.338 302.298 346.243C302.785 346.147 303.272 346.052 303.759 345.956C303.872 346.537 303.986 347.118 304.1 347.699C304.214 348.28 304.328 348.861 304.442 349.442C303.955 349.537 303.468 349.633 302.982 349.728C302.495 349.824 302.008 349.919 301.521 350.014C301.801 351.443 302.085 352.888 302.371 354.348C302.657 355.808 302.942 357.261 303.225 358.705C302.597 358.828 301.953 358.954 301.294 359.084C300.634 359.213 299.983 359.341 299.339 359.467C299.056 358.022 298.771 356.57 298.485 355.11C298.198 353.65 297.915 352.205 297.635 350.776C297.321 350.838 296.999 350.901 296.67 350.965C296.356 351.027 296.042 351.089 295.728 351.15ZM307.554 343.769C307.099 343.859 306.661 343.83 306.241 343.684C305.837 343.535 305.49 343.302 305.199 342.984C304.909 342.666 304.72 342.287 304.634 341.847C304.548 341.408 304.581 340.994 304.733 340.605C304.882 340.201 305.116 339.853 305.434 339.563C305.767 339.269 306.162 339.078 306.617 338.988C307.057 338.902 307.479 338.934 307.883 339.083C308.303 339.229 308.658 339.461 308.949 339.779C309.236 340.081 309.423 340.452 309.509 340.892C309.595 341.331 309.564 341.753 309.415 342.157C309.266 342.562 309.025 342.911 308.691 343.204C308.373 343.495 307.994 343.683 307.554 343.769ZM308.259 357.718C307.865 355.709 307.468 353.683 307.068 351.642C306.664 349.585 306.266 347.552 305.872 345.542C306.516 345.416 307.167 345.288 307.827 345.159C308.486 345.03 309.13 344.903 309.758 344.78C310.152 346.79 310.55 348.823 310.954 350.88C311.354 352.921 311.751 354.947 312.145 356.957C311.517 357.08 310.873 357.206 310.213 357.335C309.554 357.464 308.902 357.592 308.259 357.718ZM325.227 353.805C324.232 354.473 323.212 354.967 322.166 355.286C321.12 355.605 320.095 355.741 319.091 355.693C318.106 355.658 317.19 355.438 316.345 355.033C315.499 354.628 314.781 354.043 314.191 353.278C313.617 352.511 313.22 351.569 313.002 350.454C312.82 349.528 312.803 348.651 312.951 347.823C313.111 346.976 313.417 346.207 313.868 345.516C314.316 344.808 314.894 344.222 315.602 343.757C316.307 343.277 317.114 342.947 318.025 342.769C318.842 342.609 319.606 342.597 320.317 342.735C321.029 342.873 321.676 343.137 322.258 343.529C322.837 343.904 323.341 344.392 323.768 344.993C324.196 345.594 324.526 346.28 324.758 347.049C324.991 347.819 325.107 348.66 325.106 349.574C323.819 349.826 322.523 350.08 321.22 350.335C319.917 350.591 318.622 350.845 317.334 351.097C317.75 351.635 318.327 351.962 319.067 352.078C319.823 352.191 320.671 352.106 321.61 351.824C322.565 351.539 323.552 351.085 324.571 350.461C324.679 351.011 324.788 351.568 324.899 352.133C325.01 352.699 325.119 353.256 325.227 353.805ZM318.614 346.273C318.159 346.362 317.76 346.571 317.416 346.899C317.089 347.224 316.874 347.666 316.771 348.224C317.478 348.085 318.184 347.947 318.891 347.808C319.613 347.667 320.327 347.527 321.034 347.388C320.741 346.891 320.383 346.562 319.96 346.4C319.549 346.22 319.101 346.177 318.614 346.273ZM328.22 353.806C327.826 351.796 327.429 349.771 327.029 347.729C326.625 345.673 326.227 343.639 325.833 341.629C326.477 341.503 327.128 341.376 327.788 341.246C328.447 341.117 329.091 340.991 329.719 340.868C329.741 340.978 329.762 341.088 329.784 341.197C329.805 341.307 329.827 341.417 329.848 341.527C330.267 341.086 330.766 340.72 331.345 340.427C331.923 340.134 332.581 339.956 333.319 339.893C333.442 340.521 333.567 341.157 333.693 341.801C333.819 342.445 333.944 343.08 334.067 343.708C332.792 343.779 331.895 344.069 331.376 344.578C330.853 345.072 330.676 345.751 330.845 346.614C331.052 347.666 331.261 348.734 331.473 349.817C331.686 350.901 331.896 351.976 332.106 353.044C331.478 353.167 330.834 353.293 330.175 353.423C329.515 353.552 328.863 353.68 328.22 353.806ZM339.381 355.531C339.532 354.637 339.689 353.734 339.852 352.822C340.035 351.922 340.203 351.033 340.357 350.155C339.265 348.494 338.154 346.82 337.025 345.134C335.908 343.429 334.804 341.746 333.712 340.085C334.403 339.95 335.094 339.814 335.784 339.679C336.475 339.543 337.158 339.41 337.833 339.277C338.439 340.202 339.047 341.143 339.658 342.099C340.285 343.052 340.903 343.999 341.511 344.939C341.688 343.845 341.871 342.741 342.061 341.628C342.25 340.515 342.435 339.419 342.614 338.34C343.29 338.208 343.965 338.075 344.64 337.943C345.315 337.811 345.99 337.678 346.665 337.546C346.127 340.374 345.589 343.243 345.051 346.153C344.525 349.044 343.993 351.904 343.455 354.732C342.78 354.865 342.097 354.999 341.406 355.134C340.731 355.266 340.056 355.399 339.381 355.531ZM359.8 351.529C359.172 351.652 358.528 351.778 357.869 351.907C357.21 352.036 356.558 352.164 355.914 352.29C355.4 349.668 354.88 347.015 354.354 344.33C353.824 341.629 353.303 338.968 352.789 336.346C353.433 336.22 354.084 336.092 354.744 335.963C355.403 335.833 356.047 335.707 356.675 335.584C356.696 335.694 356.718 335.804 356.739 335.914C356.761 336.024 356.784 336.141 356.809 336.267C357.14 335.876 357.539 335.545 358.008 335.274C358.474 334.987 358.989 334.788 359.554 334.677C360.339 334.523 361.116 334.534 361.884 334.71C362.649 334.87 363.354 335.18 363.998 335.64C364.659 336.098 365.215 336.69 365.667 337.417C366.135 338.14 366.463 338.981 366.651 339.938C366.835 340.88 366.848 341.775 366.687 342.621C366.543 343.465 366.253 344.231 365.817 344.92C365.394 345.59 364.86 346.151 364.215 346.603C363.57 347.056 362.847 347.361 362.047 347.518C361.481 347.628 360.929 347.639 360.39 347.549C359.869 347.472 359.38 347.307 358.923 347.054C359.068 347.792 359.214 348.538 359.362 349.291C359.509 350.045 359.656 350.791 359.8 351.529ZM360.854 344.181C361.624 344.03 362.176 343.644 362.511 343.024C362.859 342.386 362.943 341.611 362.765 340.7C362.586 339.789 362.217 339.112 361.657 338.667C361.113 338.22 360.456 338.071 359.686 338.222C358.933 338.37 358.382 338.763 358.035 339.402C357.684 340.025 357.596 340.784 357.772 341.679C357.947 342.574 358.316 343.251 358.879 343.712C359.442 344.172 360.101 344.328 360.854 344.181ZM375.624 344.905C374.714 345.084 373.835 345.093 372.989 344.933C372.139 344.757 371.367 344.435 370.672 343.968C369.974 343.485 369.383 342.884 368.9 342.163C368.432 341.44 368.107 340.615 367.925 339.689C367.744 338.762 367.733 337.876 367.893 337.029C368.069 336.179 368.39 335.407 368.857 334.712C369.325 334.018 369.92 333.436 370.643 332.968C371.364 332.485 372.179 332.154 373.09 331.975C374.016 331.794 374.897 331.792 375.731 331.971C376.577 332.131 377.348 332.445 378.043 332.912C378.738 333.379 379.319 333.974 379.787 334.698C380.27 335.418 380.603 336.242 380.785 337.168C380.966 338.094 380.969 338.982 380.793 339.832C380.633 340.679 380.321 341.457 379.857 342.168C379.39 342.863 378.796 343.452 378.076 343.935C377.368 344.4 376.551 344.723 375.624 344.905ZM374.937 341.396C375.706 341.245 376.264 340.85 376.612 340.211C376.972 339.554 377.068 338.793 376.899 337.93C376.726 337.05 376.352 336.39 375.776 335.949C375.213 335.488 374.547 335.334 373.778 335.484C373.008 335.635 372.442 336.031 372.079 336.673C371.728 337.296 371.639 338.048 371.811 338.927C371.981 339.79 372.348 340.46 372.914 340.936C373.493 341.393 374.167 341.547 374.937 341.396ZM388.527 345.898C387.899 346.021 387.255 346.147 386.596 346.276C385.936 346.406 385.285 346.533 384.641 346.659C384.127 344.037 383.607 341.384 383.081 338.699C382.551 335.998 382.03 333.337 381.516 330.715C382.159 330.589 382.811 330.461 383.47 330.332C384.13 330.202 384.774 330.076 385.402 329.953C385.423 330.063 385.445 330.173 385.466 330.283C385.488 330.393 385.511 330.511 385.535 330.636C385.866 330.245 386.266 329.914 386.735 329.643C387.2 329.356 387.716 329.157 388.281 329.046C389.066 328.892 389.843 328.903 390.611 329.079C391.376 329.239 392.081 329.549 392.725 330.009C393.386 330.467 393.942 331.059 394.394 331.786C394.862 332.509 395.19 333.35 395.377 334.308C395.562 335.25 395.574 336.144 395.414 336.991C395.27 337.834 394.98 338.6 394.544 339.289C394.121 339.959 393.587 340.52 392.942 340.972C392.297 341.425 391.574 341.73 390.773 341.887C390.208 341.998 389.656 342.008 389.116 341.918C388.596 341.841 388.107 341.676 387.65 341.423C387.794 342.161 387.941 342.907 388.088 343.66C388.236 344.414 388.382 345.16 388.527 345.898ZM389.581 338.55C390.351 338.399 390.903 338.014 391.238 337.393C391.585 336.755 391.67 335.98 391.491 335.069C391.313 334.159 390.944 333.481 390.384 333.036C389.839 332.589 389.183 332.44 388.413 332.591C387.66 332.739 387.109 333.132 386.761 333.771C386.411 334.394 386.323 335.153 386.498 336.048C386.674 336.943 387.043 337.621 387.606 338.081C388.169 338.541 388.828 338.697 389.581 338.55Z" fill="#2F4ECD"/>
<path d="M221.601 417.569C221.834 418.762 221.711 419.798 221.231 420.674C220.763 421.532 220.036 422.229 219.048 422.765C218.077 423.298 216.943 423.667 215.646 423.872C214.352 424.093 213.003 424.154 211.597 424.054C211.465 423.379 211.333 422.704 211.2 422.029C211.068 421.354 210.936 420.679 210.803 420.004C212.114 420.203 213.283 420.259 214.309 420.172C215.336 420.085 216.129 419.889 216.688 419.584C217.245 419.263 217.477 418.867 217.385 418.396C217.32 418.066 217.103 417.831 216.733 417.692C216.36 417.537 215.89 417.425 215.322 417.357C214.77 417.286 214.182 417.197 213.558 417.091C212.931 416.97 212.317 416.788 211.715 416.548C211.127 416.288 210.612 415.908 210.171 415.407C209.728 414.891 209.421 414.201 209.252 413.337C209.043 412.27 209.148 411.312 209.569 410.463C209.99 409.614 210.642 408.907 211.526 408.343C212.425 407.775 213.487 407.371 214.712 407.131C215.953 406.888 217.269 406.826 218.662 406.944C218.794 407.619 218.927 408.294 219.059 408.969C219.191 409.645 219.324 410.32 219.456 410.995C218.265 410.739 217.196 410.655 216.252 410.743C215.319 410.811 214.598 411.001 214.089 411.313C213.576 411.609 213.363 411.977 213.449 412.417C213.511 412.731 213.726 412.958 214.096 413.097C214.466 413.237 214.927 413.342 215.479 413.413C216.043 413.465 216.639 413.553 217.266 413.674C217.89 413.78 218.498 413.971 219.09 414.246C219.695 414.502 220.221 414.897 220.667 415.429C221.111 415.945 221.422 416.659 221.601 417.569ZM226.096 425.615C226.247 424.721 226.404 423.818 226.567 422.905C226.75 422.006 226.918 421.117 227.072 420.239C225.98 418.578 224.869 416.904 223.74 415.218C222.623 413.513 221.519 411.83 220.427 410.169C221.118 410.033 221.809 409.898 222.499 409.763C223.19 409.627 223.873 409.493 224.548 409.361C225.154 410.286 225.762 411.226 226.373 412.183C227 413.136 227.618 414.083 228.226 415.023C228.403 413.929 228.586 412.825 228.776 411.712C228.965 410.598 229.15 409.502 229.329 408.424C230.005 408.291 230.68 408.159 231.355 408.027C232.03 407.894 232.705 407.762 233.38 407.63C232.842 410.458 232.304 413.327 231.766 416.237C231.24 419.128 230.708 421.988 230.17 424.816C229.495 424.948 228.812 425.082 228.121 425.218C227.446 425.35 226.771 425.482 226.096 425.615ZM236.946 419.575C236.552 417.565 236.155 415.54 235.755 413.499C235.351 411.442 234.953 409.408 234.559 407.399C235.203 407.273 235.854 407.145 236.514 407.016C237.173 406.886 237.817 406.76 238.445 406.637C238.466 406.747 238.486 406.849 238.505 406.943C238.523 407.037 238.543 407.139 238.565 407.249C238.93 406.868 239.357 406.548 239.844 406.289C240.344 406.012 240.9 405.813 241.513 405.693C242.408 405.518 243.233 405.568 243.988 405.844C244.759 406.117 245.408 406.601 245.936 407.296C246.476 407.973 246.851 408.845 247.06 409.913C247.3 411.138 247.542 412.37 247.785 413.611C248.028 414.851 248.269 416.084 248.509 417.308C247.881 417.431 247.238 417.558 246.578 417.687C245.919 417.816 245.267 417.944 244.623 418.07C244.402 416.94 244.177 415.793 243.949 414.631C243.722 413.47 243.497 412.323 243.275 411.193C243.152 410.565 242.905 410.092 242.532 409.773C242.173 409.436 241.679 409.329 241.051 409.452C240.423 409.575 239.972 409.851 239.697 410.28C239.422 410.709 239.351 411.261 239.484 411.936C239.705 413.067 239.93 414.213 240.158 415.375C240.385 416.537 240.61 417.683 240.832 418.813C240.204 418.936 239.56 419.063 238.9 419.192C238.241 419.321 237.589 419.449 236.946 419.575ZM252.178 416.589C251.895 415.145 251.61 413.692 251.324 412.232C251.038 410.772 250.755 409.327 250.475 407.899C250.161 407.96 249.839 408.023 249.509 408.088C249.195 408.149 248.881 408.211 248.567 408.272C248.453 407.692 248.339 407.111 248.225 406.53C248.112 405.949 247.998 405.368 247.884 404.787C248.198 404.725 248.512 404.664 248.826 404.602C249.156 404.538 249.477 404.474 249.792 404.413C249.684 403.863 249.578 403.322 249.473 402.788C249.365 402.238 249.259 401.697 249.154 401.163C249.798 401.037 250.45 400.909 251.109 400.78C251.769 400.65 252.412 400.524 253.04 400.401C253.145 400.935 253.251 401.477 253.359 402.026C253.464 402.56 253.57 403.102 253.678 403.651C254.039 403.58 254.408 403.508 254.785 403.434C255.161 403.36 255.53 403.288 255.891 403.217C256.005 403.798 256.119 404.379 256.233 404.96C256.347 405.541 256.461 406.122 256.575 406.703C256.214 406.774 255.845 406.846 255.468 406.92C255.091 406.994 254.722 407.066 254.361 407.137C254.641 408.566 254.924 410.01 255.21 411.47C255.496 412.931 255.781 414.383 256.064 415.827C255.436 415.951 254.792 416.077 254.133 416.206C253.474 416.335 252.822 416.463 252.178 416.589ZM260.27 415.003C259.713 412.161 259.151 409.296 258.585 406.407C258.019 403.518 257.457 400.652 256.9 397.81C257.544 397.684 258.195 397.556 258.855 397.427C259.514 397.298 260.158 397.172 260.786 397.048C260.968 397.975 261.152 398.917 261.34 399.875C261.525 400.817 261.708 401.751 261.889 402.677C262.255 402.296 262.681 401.976 263.169 401.717C263.669 401.44 264.225 401.241 264.837 401.121C265.732 400.946 266.557 400.996 267.312 401.272C268.083 401.545 268.733 402.029 269.26 402.724C269.8 403.401 270.175 404.273 270.384 405.341C270.625 406.566 270.866 407.798 271.109 409.039C271.352 410.279 271.594 411.512 271.834 412.736C271.206 412.859 270.562 412.986 269.903 413.115C269.243 413.244 268.592 413.372 267.948 413.498C267.726 412.368 267.502 411.221 267.274 410.059C267.046 408.898 266.822 407.751 266.6 406.621C266.477 405.993 266.229 405.52 265.857 405.201C265.498 404.864 265.004 404.757 264.376 404.88C263.748 405.003 263.296 405.279 263.022 405.708C262.747 406.137 262.676 406.689 262.808 407.364C263.03 408.495 263.254 409.641 263.482 410.803C263.71 411.965 263.935 413.111 264.156 414.241C263.528 414.364 262.884 414.491 262.225 414.62C261.565 414.749 260.914 414.877 260.27 415.003ZM284.621 409.643C283.627 410.311 282.607 410.804 281.561 411.123C280.514 411.442 279.489 411.578 278.486 411.53C277.5 411.495 276.585 411.275 275.739 410.87C274.894 410.465 274.176 409.881 273.586 409.116C273.011 408.348 272.615 407.407 272.396 406.292C272.215 405.366 272.198 404.488 272.345 403.661C272.505 402.814 272.811 402.045 273.262 401.353C273.711 400.646 274.289 400.059 274.996 399.595C275.701 399.114 276.509 398.785 277.42 398.606C278.236 398.446 279 398.435 279.712 398.573C280.424 398.71 281.071 398.975 281.653 399.366C282.232 399.742 282.735 400.23 283.163 400.831C283.59 401.432 283.92 402.117 284.153 402.887C284.385 403.657 284.501 404.498 284.501 405.411C283.213 405.663 281.918 405.917 280.615 406.173C279.312 406.428 278.016 406.682 276.729 406.934C277.144 407.473 277.722 407.8 278.462 407.915C279.218 408.028 280.065 407.944 281.004 407.662C281.959 407.377 282.946 406.922 283.965 406.299C284.073 406.848 284.182 407.406 284.293 407.971C284.404 408.536 284.513 409.093 284.621 409.643ZM278.009 402.11C277.553 402.199 277.154 402.408 276.811 402.736C276.483 403.061 276.268 403.503 276.165 404.061C276.872 403.923 277.579 403.784 278.285 403.646C279.007 403.504 279.722 403.364 280.428 403.226C280.135 402.729 279.777 402.399 279.354 402.238C278.944 402.057 278.495 402.015 278.009 402.11ZM296.178 404.051C296.369 405.025 296.251 405.88 295.825 406.615C295.411 407.332 294.777 407.921 293.921 408.382C293.066 408.844 292.069 409.161 290.929 409.336C289.808 409.523 288.634 409.566 287.408 409.464C287.291 408.867 287.171 408.255 287.048 407.627C286.925 406.998 286.805 406.386 286.688 405.789C287.405 405.959 288.111 406.065 288.804 406.108C289.495 406.136 290.11 406.113 290.65 406.04C291.19 405.967 291.614 405.843 291.922 405.668C292.227 405.478 292.352 405.242 292.297 404.959C292.253 404.739 292.078 404.594 291.771 404.524C291.48 404.451 291.105 404.41 290.647 404.402C290.185 404.378 289.69 404.345 289.16 404.302C288.642 404.241 288.137 404.119 287.645 403.939C287.15 403.742 286.717 403.444 286.345 403.044C285.986 402.625 285.734 402.047 285.589 401.309C285.417 400.43 285.522 399.635 285.904 398.924C286.299 398.194 286.898 397.588 287.7 397.105C288.499 396.606 289.432 396.251 290.5 396.042C291.568 395.833 292.694 395.8 293.88 395.942C293.997 396.539 294.117 397.151 294.24 397.779C294.363 398.407 294.483 399.02 294.6 399.616C293.638 399.365 292.758 399.244 291.961 399.253C291.164 399.263 290.54 399.368 290.091 399.571C289.638 399.757 289.444 400.015 289.509 400.345C289.552 400.565 289.719 400.711 290.011 400.785C290.315 400.839 290.688 400.872 291.131 400.883C291.589 400.891 292.077 400.926 292.594 400.988C293.127 401.046 293.634 401.175 294.113 401.375C294.605 401.555 295.032 401.863 295.394 402.297C295.769 402.713 296.031 403.298 296.178 404.051ZM298.206 393.48C297.75 393.569 297.313 393.541 296.893 393.395C296.488 393.246 296.141 393.012 295.85 392.694C295.56 392.376 295.371 391.998 295.285 391.558C295.199 391.118 295.232 390.704 295.384 390.316C295.533 389.911 295.767 389.564 296.085 389.273C296.419 388.98 296.813 388.788 297.268 388.699C297.708 388.613 298.13 388.644 298.534 388.793C298.954 388.939 299.309 389.171 299.6 389.489C299.887 389.792 300.074 390.163 300.16 390.602C300.247 391.042 300.215 391.464 300.066 391.868C299.917 392.272 299.676 392.621 299.342 392.915C299.024 393.206 298.645 393.394 298.206 393.48ZM298.91 407.429C298.516 405.419 298.119 403.394 297.719 401.353C297.316 399.296 296.917 397.263 296.523 395.253C297.167 395.127 297.818 394.999 298.478 394.87C299.137 394.74 299.781 394.614 300.409 394.491C300.803 396.501 301.202 398.534 301.605 400.591C302.005 402.632 302.402 404.658 302.796 406.667C302.168 406.79 301.524 406.917 300.865 407.046C300.205 407.175 299.554 407.303 298.91 407.429ZM305.155 406.205C305.047 405.655 304.938 405.098 304.827 404.533C304.716 403.968 304.607 403.41 304.499 402.861C305.137 401.79 305.775 400.719 306.413 399.649C307.051 398.578 307.689 397.507 308.327 396.436C307.51 396.596 306.694 396.756 305.878 396.917C305.061 397.077 304.245 397.237 303.428 397.397C303.32 396.847 303.211 396.29 303.1 395.724C302.987 395.144 302.876 394.578 302.768 394.029C304.354 393.718 305.963 393.402 307.596 393.082C309.229 392.762 310.838 392.447 312.424 392.136C312.532 392.685 312.643 393.251 312.757 393.832C312.867 394.397 312.977 394.954 313.084 395.504C312.446 396.575 311.808 397.645 311.171 398.716C310.533 399.787 309.895 400.857 309.257 401.928C310.073 401.768 310.89 401.608 311.706 401.448C312.523 401.288 313.339 401.128 314.155 400.968C314.263 401.517 314.372 402.075 314.483 402.64C314.594 403.205 314.703 403.763 314.811 404.312C313.225 404.623 311.616 404.939 309.983 405.259C308.35 405.579 306.741 405.894 305.155 406.205ZM327.424 401.253C326.43 401.921 325.409 402.414 324.363 402.733C323.317 403.053 322.292 403.188 321.288 403.14C320.303 403.105 319.388 402.885 318.542 402.48C317.696 402.075 316.978 401.491 316.388 400.726C315.814 399.958 315.417 399.017 315.199 397.902C315.017 396.976 315 396.098 315.148 395.271C315.308 394.424 315.614 393.655 316.065 392.963C316.513 392.256 317.091 391.67 317.799 391.205C318.504 390.724 319.312 390.395 320.222 390.216C321.039 390.056 321.803 390.045 322.515 390.183C323.226 390.32 323.873 390.585 324.455 390.976C325.035 391.352 325.538 391.84 325.965 392.441C326.393 393.042 326.723 393.727 326.955 394.497C327.188 395.267 327.304 396.108 327.303 397.021C326.016 397.273 324.721 397.527 323.417 397.783C322.114 398.038 320.819 398.292 319.531 398.545C319.947 399.083 320.524 399.41 321.264 399.526C322.02 399.638 322.868 399.554 323.807 399.272C324.762 398.987 325.749 398.532 326.768 397.909C326.876 398.458 326.985 399.016 327.096 399.581C327.207 400.146 327.316 400.703 327.424 401.253ZM320.811 393.72C320.356 393.81 319.957 394.018 319.613 394.346C319.286 394.671 319.071 395.113 318.968 395.671C319.675 395.533 320.381 395.394 321.088 395.256C321.81 395.114 322.524 394.974 323.231 394.836C322.938 394.339 322.58 394.009 322.157 393.848C321.747 393.667 321.298 393.625 320.811 393.72ZM330.417 401.253C330.023 399.244 329.626 397.218 329.226 395.177C328.823 393.12 328.424 391.087 328.03 389.077C328.674 388.951 329.325 388.823 329.985 388.694C330.644 388.565 331.288 388.438 331.916 388.315C331.938 388.425 331.959 388.535 331.981 388.645C332.002 388.755 332.024 388.865 332.045 388.975C332.464 388.534 332.963 388.167 333.542 387.874C334.12 387.582 334.778 387.404 335.516 387.341C335.639 387.969 335.764 388.605 335.89 389.248C336.016 389.892 336.141 390.528 336.264 391.156C334.99 391.226 334.093 391.516 333.573 392.026C333.05 392.52 332.873 393.198 333.043 394.062C333.249 395.114 333.458 396.182 333.67 397.265C333.883 398.348 334.094 399.424 334.303 400.492C333.675 400.615 333.031 400.741 332.372 400.87C331.712 400.999 331.061 401.127 330.417 401.253Z" fill="#2F4ECD"/>
</svg>
