<svg width="139" height="208" viewBox="0 0 139 208" fill="none" xmlns="http://www.w3.org/2000/svg">
<path d="M79.5833 205.841V197.04C79.5833 177.079 79.5834 167.099 83.468 159.475C86.8851 152.768 92.3375 147.316 99.0438 143.899C106.668 140.014 116.648 140.014 136.609 140.014H138.126L79.5833 205.841Z" fill="#036F62"/>
<path d="M60.1351 205.841V197.04C60.1351 177.079 60.135 167.099 56.2504 159.475C52.8334 152.768 47.3809 147.316 40.6746 143.899C33.0506 140.014 23.0702 140.014 3.10932 140.014H1.5922L60.1351 205.841Z" fill="#6CBDAA"/>
<path d="M138.126 142.53V151.331C138.126 171.292 138.126 181.272 134.241 188.896C130.824 195.603 125.372 201.055 118.666 204.472C111.042 208.357 101.061 208.357 81.1004 208.357H79.5833L138.126 142.53Z" fill="#6CBDAA"/>
<path d="M1.59216 142.53V151.331C1.59216 171.292 1.59229 181.272 5.4769 188.896C8.89393 195.603 14.3464 201.055 21.0527 204.472C28.6767 208.357 38.6571 208.357 58.618 208.357H60.1351L1.59216 142.53Z" fill="#036F62"/>
<path d="M69.3103 208.571V122.823" stroke="#404040" stroke-width="3.35446"/>
<path d="M0 53.3047V93.8115C0 109.834 12.9887 122.823 29.011 122.823H69.5178L0 53.3047Z" fill="#FFB1B1"/>
<path d="M138.937 53.3047V93.8115C138.937 109.834 125.948 122.823 109.926 122.823H69.4192L138.937 53.3047Z" fill="#FECC73"/>
<path d="M65.705 -0.000106913L30.9735 31.3103C17.2356 43.695 17.2356 63.7747 30.9735 76.1595L65.705 107.47V-0.000106913Z" fill="#FE9973"/>
<path d="M73.0157 -0.000106913L107.747 31.3103C121.485 43.695 121.485 63.7747 107.747 76.1595L73.0157 107.47V-0.000106913Z" fill="#E94812"/>
</svg>
