<svg width="611" height="581" viewBox="0 0 611 581" fill="none" xmlns="http://www.w3.org/2000/svg">
<rect x="200.259" y="70.0381" width="38.8501" height="61.3104" transform="rotate(25.8168 200.259 70.0381)" fill="#E19191"/>
<rect x="372.232" y="70.3773" width="38.8501" height="61.3104" transform="rotate(25.8168 372.232 70.3773)" fill="#E19191"/>
<rect x="127.693" y="100.487" width="356.329" height="424.924" rx="43.0994" transform="rotate(0.198902 127.693 100.487)" fill="#F4E3D5"/>
<rect x="200.644" y="69.7816" width="38.8502" height="61.3104" transform="rotate(0.198902 200.644 69.7816)" fill="#FFB1B1"/>
<mask id="mask0_50_82" style="mask-type:alpha" maskUnits="userSpaceOnUse" x="126" y="442" width="398" height="146">
<rect x="126.504" y="442.852" width="397" height="143.26" transform="rotate(0.198902 126.504 442.852)" fill="#6CBDAA"/>
</mask>
<g mask="url(#mask0_50_82)">
<path d="M127.543 143.586C127.626 119.783 146.989 100.554 170.792 100.637L440.92 101.575C464.723 101.657 483.952 121.02 483.87 144.823L482.694 483.546C482.611 507.349 463.248 526.578 439.445 526.496L169.317 525.558C145.514 525.475 126.285 506.112 126.367 482.309L127.543 143.586Z" fill="#FFB1B1"/>
</g>
<rect x="372.433" y="70.3779" width="38.8502" height="61.3104" transform="rotate(0.198902 372.433 70.3779)" fill="#FFB1B1"/>
<path d="M418.181 192.897C413.12 184.894 395.818 176.786 402.76 185.571C408.123 192.358 413.737 193.143 418.181 192.897Z" stroke="#404040" stroke-width="2.42813"/>
<path d="M424.674 196.823C422.464 206.015 408.692 219.205 412.432 208.672C415.321 200.536 420.385 198.005 424.674 196.823Z" stroke="#404040" stroke-width="2.42813"/>
<path d="M166.214 195.319L416.007 196.186" stroke="#404040" stroke-width="2.42813"/>
<ellipse cx="426.666" cy="184.568" rx="3.79488" ry="7.163" transform="rotate(0.198902 426.666 184.568)" fill="#FEFFA7"/>
<ellipse cx="3.78246" cy="7.18668" rx="3.78246" ry="7.18668" transform="matrix(0.706978 0.707235 -0.711871 0.70231 436.877 180.456)" fill="#FEFFA7"/>
<ellipse cx="3.77114" cy="7.20812" rx="3.77114" ry="7.20812" transform="matrix(0.212116 0.977244 -0.977825 0.209426 422.888 192.471)" fill="#FEFFA7"/>
<ellipse cx="3.77555" cy="7.19978" rx="3.77555" ry="7.19978" transform="matrix(-0.477231 0.878778 -0.881377 -0.472414 426.248 189.063)" fill="#FEFFA7"/>
<ellipse cx="3.79179" cy="7.16891" rx="3.79179" ry="7.16891" transform="matrix(-0.93509 -0.35441 0.358472 -0.93354 423.776 212.886)" fill="#FEFFA7"/>
<ellipse cx="3.78246" cy="7.18668" rx="3.78246" ry="7.18668" transform="matrix(-0.711871 0.70231 -0.706978 -0.707235 440.818 205.795)" fill="#FEFFA7"/>
<ellipse cx="437.632" cy="195.916" rx="3.77" ry="7.21028" transform="rotate(90.1989 437.632 195.916)" fill="#FEFFA7"/>
<ellipse cx="426.82" cy="194.706" rx="6.41593" ry="6.37385" transform="rotate(0.198902 426.82 194.706)" fill="#FFB1B1"/>
<path d="M418.016 240.245C412.956 232.243 395.653 224.134 402.596 232.92C407.958 239.706 413.572 240.491 418.016 240.245Z" stroke="#404040" stroke-width="2.42813"/>
<path d="M424.51 244.171C422.299 253.363 408.527 266.553 412.268 256.02C415.157 247.884 420.221 245.353 424.51 244.171Z" stroke="#404040" stroke-width="2.42813"/>
<path d="M166.049 242.667L415.842 243.534" stroke="#404040" stroke-width="2.42813"/>
<ellipse cx="426.501" cy="231.916" rx="3.79488" ry="7.163" transform="rotate(0.198902 426.501 231.916)" fill="#FEFFA7"/>
<ellipse cx="3.78246" cy="7.18668" rx="3.78246" ry="7.18668" transform="matrix(0.706978 0.707235 -0.711871 0.70231 436.713 227.804)" fill="#FEFFA7"/>
<ellipse cx="3.77114" cy="7.20812" rx="3.77114" ry="7.20812" transform="matrix(0.212116 0.977244 -0.977825 0.209426 422.724 239.82)" fill="#FEFFA7"/>
<ellipse cx="3.77555" cy="7.19978" rx="3.77555" ry="7.19978" transform="matrix(-0.477231 0.878778 -0.881377 -0.472414 426.084 236.411)" fill="#FEFFA7"/>
<ellipse cx="3.79179" cy="7.16891" rx="3.79179" ry="7.16891" transform="matrix(-0.93509 -0.35441 0.358472 -0.93354 423.611 260.234)" fill="#FEFFA7"/>
<ellipse cx="3.78246" cy="7.18668" rx="3.78246" ry="7.18668" transform="matrix(-0.711871 0.70231 -0.706978 -0.707235 440.654 253.143)" fill="#FEFFA7"/>
<ellipse cx="437.467" cy="243.264" rx="3.77" ry="7.21028" transform="rotate(90.1989 437.467 243.264)" fill="#FEFFA7"/>
<ellipse cx="426.656" cy="242.054" rx="6.41593" ry="6.37385" transform="rotate(0.198902 426.656 242.054)" fill="#FFB1B1"/>
<path d="M417.85 288.2C412.789 280.198 395.487 272.09 402.429 280.875C407.792 287.661 413.406 288.447 417.85 288.2Z" stroke="#404040" stroke-width="2.42813"/>
<path d="M424.343 292.127C422.133 301.318 408.361 314.509 412.101 303.976C414.991 295.84 420.054 293.309 424.343 292.127Z" stroke="#404040" stroke-width="2.42813"/>
<path d="M165.883 290.623L415.676 291.49" stroke="#404040" stroke-width="2.42813"/>
<ellipse cx="426.335" cy="279.871" rx="3.79488" ry="7.163" transform="rotate(0.198902 426.335 279.871)" fill="#FEFFA7"/>
<ellipse cx="3.78246" cy="7.18668" rx="3.78246" ry="7.18668" transform="matrix(0.706978 0.707235 -0.711871 0.70231 436.546 275.76)" fill="#FEFFA7"/>
<ellipse cx="3.77114" cy="7.20812" rx="3.77114" ry="7.20812" transform="matrix(0.212116 0.977244 -0.977825 0.209426 422.557 287.775)" fill="#FEFFA7"/>
<ellipse cx="3.77555" cy="7.19978" rx="3.77555" ry="7.19978" transform="matrix(-0.477231 0.878778 -0.881377 -0.472414 425.917 284.366)" fill="#FEFFA7"/>
<ellipse cx="3.79179" cy="7.16891" rx="3.79179" ry="7.16891" transform="matrix(-0.93509 -0.35441 0.358472 -0.93354 423.445 308.189)" fill="#FEFFA7"/>
<ellipse cx="3.78246" cy="7.18668" rx="3.78246" ry="7.18668" transform="matrix(-0.711871 0.70231 -0.706978 -0.707235 440.487 301.099)" fill="#FEFFA7"/>
<ellipse cx="437.301" cy="291.22" rx="3.77" ry="7.21028" transform="rotate(90.1989 437.301 291.22)" fill="#FEFFA7"/>
<ellipse cx="426.489" cy="290.01" rx="6.41593" ry="6.37385" transform="rotate(0.198902 426.489 290.01)" fill="#FFB1B1"/>
<path d="M417.683 336.156C412.623 328.154 395.32 320.045 402.263 328.831C407.625 335.617 413.239 336.402 417.683 336.156Z" stroke="#404040" stroke-width="2.42813"/>
<path d="M424.177 340.082C421.966 349.274 408.194 362.464 411.935 351.931C414.824 343.796 419.888 341.264 424.177 340.082Z" stroke="#404040" stroke-width="2.42813"/>
<path d="M165.716 338.578L415.509 339.445" stroke="#404040" stroke-width="2.42813"/>
<ellipse cx="426.168" cy="327.827" rx="3.79488" ry="7.163" transform="rotate(0.198902 426.168 327.827)" fill="#FEFFA7"/>
<ellipse cx="3.78246" cy="7.18668" rx="3.78246" ry="7.18668" transform="matrix(0.706978 0.707235 -0.711871 0.70231 436.38 323.716)" fill="#FEFFA7"/>
<ellipse cx="3.77114" cy="7.20812" rx="3.77114" ry="7.20812" transform="matrix(0.212116 0.977244 -0.977825 0.209426 422.391 335.731)" fill="#FEFFA7"/>
<ellipse cx="3.77555" cy="7.19978" rx="3.77555" ry="7.19978" transform="matrix(-0.477231 0.878778 -0.881377 -0.472414 425.751 332.322)" fill="#FEFFA7"/>
<ellipse cx="3.79179" cy="7.16891" rx="3.79179" ry="7.16891" transform="matrix(-0.93509 -0.35441 0.358472 -0.93354 423.278 356.145)" fill="#FEFFA7"/>
<ellipse cx="3.78246" cy="7.18668" rx="3.78246" ry="7.18668" transform="matrix(-0.711871 0.70231 -0.706978 -0.707235 440.321 349.054)" fill="#FEFFA7"/>
<ellipse cx="437.134" cy="339.175" rx="3.77" ry="7.21028" transform="rotate(90.1989 437.134 339.175)" fill="#FEFFA7"/>
<ellipse cx="426.323" cy="337.965" rx="6.41593" ry="6.37385" transform="rotate(0.198902 426.323 337.965)" fill="#FFB1B1"/>
<path d="M417.517 384.111C412.456 376.109 395.154 368 402.096 376.786C407.459 383.572 413.073 384.358 417.517 384.111Z" stroke="#404040" stroke-width="2.42813"/>
<path d="M424.011 388.037C421.8 397.229 408.028 410.419 411.768 399.887C414.658 391.751 419.722 389.219 424.011 388.037Z" stroke="#404040" stroke-width="2.42813"/>
<path d="M165.55 386.533L415.343 387.4" stroke="#404040" stroke-width="2.42813"/>
<ellipse cx="426.002" cy="375.782" rx="3.79488" ry="7.163" transform="rotate(0.198902 426.002 375.782)" fill="#FEFFA7"/>
<ellipse cx="3.78246" cy="7.18668" rx="3.78246" ry="7.18668" transform="matrix(0.706978 0.707235 -0.711871 0.70231 436.213 371.671)" fill="#FEFFA7"/>
<ellipse cx="3.77114" cy="7.20812" rx="3.77114" ry="7.20812" transform="matrix(0.212116 0.977244 -0.977825 0.209426 422.225 383.686)" fill="#FEFFA7"/>
<ellipse cx="3.77555" cy="7.19978" rx="3.77555" ry="7.19978" transform="matrix(-0.477231 0.878778 -0.881377 -0.472414 425.584 380.277)" fill="#FEFFA7"/>
<ellipse cx="3.79179" cy="7.16891" rx="3.79179" ry="7.16891" transform="matrix(-0.93509 -0.35441 0.358472 -0.93354 423.112 404.1)" fill="#FEFFA7"/>
<ellipse cx="3.78246" cy="7.18668" rx="3.78246" ry="7.18668" transform="matrix(-0.711871 0.70231 -0.706978 -0.707235 440.154 397.01)" fill="#FEFFA7"/>
<ellipse cx="436.968" cy="387.13" rx="3.77" ry="7.21028" transform="rotate(90.1989 436.968 387.13)" fill="#FEFFA7"/>
<ellipse cx="426.157" cy="385.92" rx="6.41593" ry="6.37385" transform="rotate(0.198902 426.157 385.92)" fill="#FFB1B1"/>
<path d="M180.421 185.912C178.755 186.578 177.202 186.956 175.761 187.047C174.337 187.155 173.049 187.022 171.899 186.65C170.748 186.262 169.766 185.683 168.953 184.912C168.139 184.141 167.519 183.227 167.09 182.169C166.662 181.112 166.45 179.959 166.454 178.711C166.459 177.479 166.662 176.344 167.066 175.305C167.47 174.251 168.057 173.341 168.828 172.575C169.614 171.81 170.56 171.213 171.666 170.785C172.771 170.357 174.028 170.153 175.436 170.174C176.844 170.179 178.387 170.44 180.065 170.958C180.063 171.63 180.061 172.31 180.058 172.998C180.056 173.67 180.053 174.342 180.051 175.014C178.725 174.482 177.494 174.173 176.358 174.089C175.239 174.006 174.254 174.122 173.405 174.439C172.572 174.756 171.914 175.266 171.432 175.968C170.965 176.655 170.73 177.518 170.727 178.558C170.724 179.47 170.889 180.279 171.222 180.984C171.572 181.689 172.058 182.243 172.681 182.645C173.303 183.047 174.015 183.249 174.815 183.252C175.087 183.253 175.359 183.246 175.631 183.231C175.903 183.2 176.167 183.153 176.423 183.09C176.425 182.674 176.426 182.25 176.428 181.818C176.429 181.386 176.43 180.962 176.432 180.546C175.984 180.544 175.536 180.543 175.088 180.541C174.64 180.54 174.192 180.538 173.744 180.536C173.746 179.944 173.748 179.352 173.75 178.76C173.752 178.152 173.754 177.552 173.756 176.96C174.86 176.964 175.972 176.968 177.092 176.972C178.228 176.976 179.348 176.98 180.452 176.984C180.447 178.456 180.442 179.944 180.437 181.448C180.432 182.952 180.426 184.44 180.421 185.912ZM183.221 186.785C183.228 184.737 183.235 182.673 183.243 180.593C183.25 178.497 183.257 176.425 183.264 174.377C183.92 174.38 184.584 174.382 185.256 174.384C185.928 174.387 186.584 174.389 187.224 174.391C187.224 174.503 187.223 174.615 187.223 174.727C187.223 174.839 187.222 174.951 187.222 175.063C187.719 174.713 188.28 174.451 188.905 174.277C189.529 174.103 190.209 174.058 190.945 174.14C190.943 174.78 190.941 175.428 190.938 176.084C190.936 176.74 190.934 177.388 190.932 178.028C189.668 177.848 188.732 177.956 188.122 178.354C187.513 178.736 187.207 179.367 187.204 180.247C187.2 181.319 187.196 182.407 187.192 183.511C187.189 184.615 187.185 185.711 187.181 186.799C186.541 186.797 185.885 186.795 185.213 186.792C184.541 186.79 183.877 186.788 183.221 186.785ZM198.451 187.222C197.523 187.219 196.66 187.056 195.861 186.733C195.062 186.394 194.368 185.928 193.778 185.334C193.188 184.724 192.726 184.018 192.393 183.217C192.076 182.416 191.919 181.544 191.922 180.6C191.925 179.656 192.088 178.784 192.411 177.985C192.75 177.186 193.216 176.492 193.81 175.902C194.405 175.312 195.102 174.859 195.903 174.541C196.704 174.208 197.569 174.043 198.497 174.046C199.441 174.05 200.304 174.221 201.087 174.559C201.886 174.882 202.58 175.34 203.17 175.935C203.76 176.529 204.214 177.226 204.531 178.027C204.864 178.828 205.029 179.701 205.026 180.645C205.023 181.589 204.852 182.46 204.513 183.259C204.19 184.058 203.732 184.761 203.138 185.366C202.544 185.956 201.846 186.418 201.045 186.751C200.26 187.069 199.395 187.226 198.451 187.222ZM198.464 183.646C199.248 183.649 199.873 183.371 200.339 182.813C200.821 182.238 201.063 181.511 201.066 180.631C201.069 179.735 200.832 179.014 200.354 178.469C199.892 177.907 199.269 177.625 198.485 177.622C197.701 177.62 197.068 177.897 196.586 178.456C196.12 178.998 195.885 179.717 195.882 180.613C195.879 181.493 196.109 182.222 196.571 182.8C197.049 183.361 197.68 183.644 198.464 183.646ZM209.249 186.876C208.632 184.826 208.007 182.759 207.374 180.677C206.757 178.579 206.141 176.505 205.524 174.455C206.18 174.457 206.844 174.459 207.516 174.462C208.204 174.464 208.876 174.466 209.532 174.469C209.848 175.59 210.164 176.727 210.48 177.88C210.812 179.017 211.128 180.146 211.428 181.267C211.704 180.148 211.98 179.021 212.256 177.886C212.548 176.735 212.824 175.6 213.084 174.481C213.644 174.483 214.204 174.485 214.764 174.487C215.34 174.489 215.908 174.491 216.468 174.493C216.736 175.614 217.004 176.759 217.272 177.928C217.556 179.081 217.824 180.225 218.076 181.362C218.4 180.227 218.724 179.085 219.048 177.934C219.388 176.767 219.712 175.624 220.02 174.505C220.676 174.507 221.332 174.51 221.988 174.512C222.66 174.514 223.316 174.516 223.956 174.519C223.325 176.565 222.685 178.634 222.038 180.728C221.407 182.806 220.776 184.868 220.145 186.914C219.505 186.911 218.857 186.909 218.201 186.907C217.545 186.905 216.897 186.902 216.257 186.9C216.004 185.907 215.744 184.906 215.475 183.897C215.223 182.888 214.97 181.896 214.717 180.919C214.458 181.894 214.191 182.885 213.915 183.892C213.656 184.899 213.396 185.898 213.137 186.889C212.497 186.887 211.849 186.885 211.193 186.882C210.537 186.88 209.889 186.878 209.249 186.876ZM226.611 186.936C226.616 185.464 226.621 183.984 226.626 182.496C226.631 181.008 226.636 179.536 226.641 178.08C226.321 178.079 225.993 178.078 225.657 178.077C225.337 178.076 225.017 178.074 224.697 178.073C224.699 177.481 224.701 176.889 224.703 176.297C224.706 175.705 224.708 175.113 224.71 174.521C225.03 174.522 225.35 174.524 225.67 174.525C226.006 174.526 226.334 174.527 226.654 174.528C226.656 173.968 226.657 173.416 226.659 172.872C226.661 172.312 226.663 171.76 226.665 171.216C227.321 171.218 227.985 171.221 228.657 171.223C229.329 171.225 229.985 171.228 230.625 171.23C230.623 171.774 230.621 172.326 230.619 172.886C230.617 173.43 230.616 173.982 230.614 174.542C230.982 174.543 231.358 174.544 231.742 174.546C232.126 174.547 232.502 174.548 232.87 174.55C232.868 175.142 232.865 175.734 232.863 176.326C232.861 176.918 232.859 177.51 232.857 178.102C232.489 178.1 232.113 178.099 231.729 178.098C231.345 178.096 230.969 178.095 230.601 178.094C230.596 179.55 230.591 181.022 230.586 182.51C230.581 183.998 230.576 185.478 230.571 186.95C229.931 186.948 229.275 186.945 228.603 186.943C227.931 186.941 227.267 186.938 226.611 186.936ZM234.856 186.965C234.866 184.069 234.877 181.149 234.887 178.205C234.897 175.261 234.907 172.341 234.917 169.445C235.573 169.447 236.237 169.449 236.909 169.452C237.581 169.454 238.237 169.456 238.877 169.458C238.874 170.402 238.871 171.362 238.867 172.338C238.864 173.298 238.861 174.25 238.857 175.194C239.29 174.892 239.771 174.662 240.3 174.503C240.844 174.329 241.429 174.243 242.053 174.246C242.965 174.249 243.764 174.459 244.45 174.878C245.153 175.296 245.695 175.898 246.076 176.683C246.473 177.453 246.67 178.382 246.666 179.47C246.662 180.718 246.658 181.974 246.653 183.238C246.649 184.502 246.645 185.758 246.64 187.006C246 187.003 245.344 187.001 244.672 186.999C244 186.996 243.336 186.994 242.68 186.992C242.684 185.84 242.688 184.672 242.692 183.488C242.697 182.304 242.701 181.136 242.705 179.984C242.707 179.344 242.557 178.831 242.254 178.446C241.967 178.045 241.504 177.844 240.864 177.841C240.224 177.839 239.727 178.021 239.374 178.388C239.021 178.755 238.843 179.282 238.841 179.97C238.837 181.122 238.833 182.29 238.829 183.474C238.824 184.658 238.82 185.826 238.816 186.978C238.176 186.976 237.52 186.974 236.848 186.972C236.176 186.969 235.512 186.967 234.856 186.965ZM263.636 183.224C263.632 184.216 263.35 185.032 262.787 185.67C262.241 186.292 261.504 186.745 260.575 187.03C259.646 187.315 258.605 187.431 257.453 187.379C256.317 187.343 255.158 187.155 253.975 186.815C253.977 186.207 253.98 185.583 253.982 184.943C253.984 184.303 253.986 183.679 253.988 183.071C254.659 183.377 255.33 183.62 256.002 183.798C256.673 183.96 257.281 184.058 257.825 184.092C258.369 184.126 258.809 184.088 259.145 183.977C259.482 183.85 259.65 183.643 259.651 183.355C259.652 183.131 259.509 182.954 259.221 182.825C258.95 182.696 258.59 182.583 258.142 182.485C257.695 182.372 257.215 182.242 256.704 182.096C256.208 181.935 255.737 181.717 255.29 181.444C254.843 181.154 254.476 180.777 254.19 180.312C253.919 179.831 253.786 179.214 253.788 178.462C253.791 177.566 254.05 176.807 254.564 176.185C255.094 175.547 255.8 175.069 256.681 174.752C257.562 174.419 258.547 174.255 259.635 174.259C260.723 174.262 261.834 174.45 262.969 174.822C262.967 175.43 262.965 176.054 262.962 176.694C262.96 177.334 262.958 177.958 262.956 178.566C262.061 178.131 261.222 177.84 260.439 177.693C259.655 177.547 259.024 177.528 258.543 177.639C258.063 177.733 257.822 177.948 257.821 178.284C257.82 178.508 257.956 178.685 258.227 178.814C258.515 178.927 258.874 179.032 259.306 179.129C259.754 179.227 260.225 179.357 260.721 179.518C261.232 179.68 261.703 179.906 262.134 180.195C262.581 180.469 262.94 180.854 263.21 181.351C263.497 181.832 263.638 182.456 263.636 183.224ZM266.829 187.076C266.834 185.604 266.839 184.124 266.844 182.636C266.85 181.148 266.855 179.676 266.86 178.22C266.54 178.219 266.212 178.217 265.876 178.216C265.556 178.215 265.236 178.214 264.916 178.213C264.918 177.621 264.92 177.029 264.922 176.437C264.924 175.845 264.926 175.253 264.928 174.661C265.248 174.662 265.568 174.663 265.888 174.664C266.224 174.665 266.552 174.667 266.872 174.668C266.874 174.108 266.876 173.556 266.878 173.012C266.88 172.452 266.882 171.9 266.884 171.356C267.54 171.358 268.204 171.36 268.876 171.363C269.548 171.365 270.204 171.367 270.844 171.369C270.842 171.913 270.84 172.465 270.838 173.025C270.836 173.569 270.834 174.121 270.832 174.681C271.2 174.683 271.576 174.684 271.96 174.685C272.344 174.687 272.72 174.688 273.088 174.689C273.086 175.281 273.084 175.873 273.082 176.465C273.08 177.057 273.078 177.649 273.076 178.241C272.708 178.24 272.332 178.239 271.948 178.237C271.564 178.236 271.188 178.235 270.82 178.233C270.815 179.689 270.81 181.161 270.804 182.649C270.799 184.137 270.794 185.617 270.789 187.089C270.149 187.087 269.493 187.085 268.821 187.083C268.149 187.08 267.485 187.078 266.829 187.076ZM283.118 187.132C283.118 187.004 283.119 186.884 283.119 186.772C283.119 186.644 283.12 186.524 283.12 186.412C282.719 186.747 282.262 187.001 281.749 187.175C281.253 187.366 280.716 187.46 280.14 187.458C279.324 187.455 278.557 187.3 277.838 186.994C277.119 186.671 276.481 186.221 275.923 185.643C275.381 185.049 274.951 184.352 274.634 183.551C274.333 182.75 274.184 181.861 274.187 180.885C274.191 179.893 274.346 178.998 274.653 178.199C274.975 177.4 275.41 176.721 275.956 176.163C276.518 175.589 277.159 175.151 277.88 174.85C278.601 174.532 279.362 174.375 280.162 174.378C280.738 174.38 281.282 174.478 281.793 174.671C282.304 174.849 282.759 175.099 283.158 175.42C283.159 175.292 283.159 175.172 283.16 175.06C283.16 174.948 283.16 174.836 283.161 174.724C283.817 174.726 284.481 174.729 285.153 174.731C285.825 174.733 286.481 174.736 287.121 174.738C287.114 176.786 287.106 178.858 287.099 180.954C287.092 183.034 287.085 185.098 287.078 187.146C286.438 187.144 285.782 187.141 285.11 187.139C284.438 187.137 283.774 187.134 283.118 187.132ZM280.681 183.956C281.449 183.958 282.066 183.68 282.532 183.122C282.997 182.564 283.232 181.829 283.235 180.917C283.238 180.005 283.009 179.276 282.547 178.73C282.085 178.169 281.47 177.886 280.702 177.884C279.918 177.881 279.293 178.151 278.827 178.693C278.377 179.236 278.15 179.971 278.147 180.899C278.144 181.827 278.365 182.572 278.811 183.133C279.274 183.679 279.897 183.953 280.681 183.956ZM301.391 185.18C301.387 186.54 301.087 187.675 300.492 188.584C299.912 189.494 299.118 190.172 298.108 190.616C297.099 191.077 295.946 191.313 294.65 191.324C293.37 191.336 292.019 191.139 290.596 190.734C290.598 190.11 290.6 189.478 290.603 188.838C290.605 188.214 290.607 187.59 290.609 186.966C291.871 187.467 293.014 187.719 294.038 187.722C295.062 187.742 295.871 187.552 296.464 187.154C297.074 186.741 297.38 186.174 297.382 185.454C297.383 185.374 297.383 185.302 297.383 185.238C297.383 185.158 297.384 185.086 297.384 185.022C296.983 185.324 296.518 185.563 295.989 185.737C295.461 185.911 294.892 185.997 294.284 185.995C293.276 185.991 292.373 185.756 291.575 185.289C290.793 184.807 290.179 184.149 289.734 183.315C289.289 182.466 289.068 181.481 289.072 180.361C289.075 179.497 289.222 178.705 289.512 177.986C289.803 177.267 290.205 176.645 290.719 176.118C291.233 175.592 291.818 175.194 292.475 174.925C293.132 174.639 293.82 174.497 294.54 174.5C295.116 174.502 295.652 174.584 296.148 174.745C296.643 174.907 297.082 175.125 297.465 175.398C297.466 175.286 297.466 175.182 297.466 175.086C297.467 174.99 297.467 174.886 297.467 174.774C298.123 174.776 298.787 174.778 299.459 174.781C300.131 174.783 300.787 174.785 301.427 174.788C301.421 176.5 301.415 178.236 301.409 179.996C301.403 181.74 301.397 183.468 301.391 185.18ZM295.28 182.566C295.952 182.569 296.489 182.363 296.891 181.948C297.308 181.517 297.518 180.966 297.52 180.294C297.523 179.606 297.317 179.045 296.902 178.612C296.504 178.179 295.968 177.961 295.296 177.958C294.592 177.956 294.032 178.17 293.614 178.601C293.197 179.015 292.987 179.574 292.984 180.278C292.982 180.966 293.188 181.519 293.603 181.937C294.017 182.354 294.576 182.564 295.28 182.566ZM314.699 186.666C313.594 187.126 312.497 187.41 311.408 187.518C310.32 187.627 309.288 187.559 308.313 187.316C307.354 187.088 306.499 186.693 305.749 186.131C304.999 185.568 304.409 184.854 303.98 183.989C303.567 183.123 303.363 182.122 303.367 180.986C303.37 180.042 303.525 179.179 303.832 178.396C304.155 177.597 304.605 176.903 305.183 176.313C305.761 175.707 306.443 175.245 307.228 174.928C308.013 174.594 308.87 174.429 309.798 174.433C310.63 174.436 311.381 174.574 312.052 174.849C312.723 175.123 313.306 175.509 313.8 176.007C314.294 176.488 314.692 177.066 314.994 177.739C315.296 178.412 315.485 179.148 315.562 179.949C315.64 180.749 315.589 181.597 315.41 182.492C314.098 182.488 312.778 182.483 311.45 182.478C310.122 182.474 308.802 182.469 307.49 182.465C307.792 183.074 308.294 183.508 308.997 183.766C309.716 184.024 310.564 184.107 311.54 184.015C312.533 183.922 313.59 183.67 314.711 183.258C314.709 183.818 314.707 184.386 314.705 184.962C314.703 185.538 314.701 186.106 314.699 186.666ZM309.689 177.984C309.225 177.983 308.793 178.109 308.392 178.364C308.007 178.618 307.71 179.009 307.5 179.537C308.22 179.539 308.94 179.542 309.66 179.544C310.396 179.547 311.124 179.549 311.844 179.552C311.654 179.007 311.367 178.614 310.984 178.373C310.617 178.116 310.185 177.986 309.689 177.984Z" fill="#2F4ECD"/>
<path d="M166.196 225.665C166.2 224.433 166.396 223.313 166.784 222.307C167.187 221.284 167.75 220.398 168.473 219.648C169.196 218.899 170.062 218.318 171.071 217.905C172.08 217.493 173.193 217.273 174.409 217.245C175.641 217.217 176.953 217.414 178.343 217.835C178.341 218.507 178.339 219.187 178.336 219.875C178.334 220.547 178.332 221.219 178.329 221.891C177.387 221.439 176.452 221.18 175.524 221.113C174.596 221.046 173.756 221.171 173.003 221.488C172.249 221.806 171.648 222.315 171.197 223.018C170.747 223.704 170.52 224.592 170.516 225.68C170.512 226.768 170.733 227.664 171.179 228.37C171.624 229.059 172.223 229.565 172.973 229.888C173.724 230.211 174.564 230.342 175.492 230.281C176.42 230.22 177.357 229.967 178.303 229.523C178.3 230.195 178.298 230.875 178.296 231.563C178.293 232.235 178.291 232.907 178.289 233.579C176.895 233.99 175.583 234.177 174.351 234.141C173.135 234.105 172.024 233.877 171.017 233.457C170.01 233.038 169.149 232.451 168.431 231.696C167.714 230.942 167.157 230.06 166.76 229.05C166.38 228.025 166.192 226.897 166.196 225.665ZM186.45 234.279C185.522 234.276 184.659 234.113 183.86 233.79C183.061 233.451 182.367 232.985 181.777 232.391C181.187 231.781 180.725 231.075 180.392 230.274C180.075 229.473 179.918 228.6 179.921 227.656C179.925 226.712 180.088 225.841 180.41 225.042C180.749 224.243 181.216 223.549 181.81 222.959C182.404 222.369 183.101 221.915 183.902 221.598C184.704 221.265 185.568 221.1 186.496 221.103C187.44 221.106 188.304 221.277 189.086 221.616C189.885 221.939 190.58 222.397 191.17 222.991C191.76 223.585 192.213 224.283 192.53 225.084C192.864 225.885 193.029 226.758 193.025 227.702C193.022 228.646 192.851 229.517 192.512 230.316C192.189 231.115 191.731 231.817 191.137 232.423C190.543 233.013 189.845 233.475 189.044 233.808C188.259 234.125 187.394 234.282 186.45 234.279ZM186.463 230.703C187.247 230.706 187.872 230.428 188.338 229.869C188.82 229.295 189.062 228.568 189.065 227.688C189.068 226.792 188.831 226.071 188.353 225.525C187.891 224.964 187.268 224.682 186.484 224.679C185.7 224.676 185.067 224.954 184.585 225.512C184.119 226.055 183.884 226.774 183.881 227.67C183.878 228.55 184.108 229.279 184.57 229.856C185.048 230.418 185.679 230.7 186.463 230.703ZM194.962 233.924C194.969 231.876 194.977 229.812 194.984 227.732C194.991 225.636 194.998 223.564 195.005 221.517C195.661 221.519 196.325 221.521 196.997 221.523C197.669 221.526 198.325 221.528 198.965 221.53C198.965 221.642 198.965 221.746 198.964 221.842C198.964 221.938 198.964 222.042 198.963 222.154C199.396 221.852 199.877 221.621 200.406 221.463C200.95 221.289 201.535 221.203 202.159 221.205C203.071 221.208 203.87 221.419 204.556 221.838C205.259 222.256 205.801 222.858 206.182 223.643C206.579 224.413 206.776 225.341 206.772 226.429C206.768 227.677 206.764 228.933 206.759 230.197C206.755 231.461 206.751 232.717 206.746 233.965C206.106 233.963 205.45 233.961 204.778 233.959C204.106 233.956 203.442 233.954 202.786 233.952C202.79 232.8 202.794 231.632 202.798 230.448C202.803 229.264 202.807 228.096 202.811 226.944C202.813 226.304 202.663 225.791 202.36 225.406C202.073 225.005 201.61 224.803 200.97 224.801C200.33 224.799 199.833 224.981 199.48 225.348C199.127 225.715 198.949 226.242 198.947 226.93C198.943 228.082 198.939 229.25 198.934 230.434C198.93 231.618 198.926 232.786 198.922 233.938C198.282 233.936 197.626 233.934 196.954 233.931C196.282 233.929 195.618 233.927 194.962 233.924ZM208.572 225.116C208.574 224.524 208.576 223.932 208.578 223.34C208.58 222.748 208.582 222.156 208.584 221.564C208.904 221.565 209.224 221.566 209.544 221.567C209.88 221.568 210.208 221.569 210.528 221.57C210.528 221.49 210.528 221.418 210.529 221.354C210.529 221.29 210.529 221.226 210.529 221.162C210.533 220.09 210.752 219.195 211.187 218.477C211.637 217.742 212.223 217.184 212.944 216.803C213.682 216.405 214.483 216.184 215.347 216.139C216.227 216.078 217.099 216.193 217.962 216.484C217.96 217.076 217.957 217.684 217.955 218.308C217.953 218.932 217.951 219.548 217.949 220.156C216.99 219.833 216.174 219.766 215.501 219.956C214.829 220.145 214.491 220.56 214.489 221.2C214.489 221.264 214.489 221.328 214.489 221.392C214.488 221.456 214.488 221.52 214.488 221.584C214.984 221.586 215.48 221.588 215.976 221.589C216.472 221.591 216.968 221.593 217.464 221.594C217.462 222.186 217.46 222.778 217.458 223.37C217.456 223.962 217.454 224.554 217.451 225.146C216.955 225.145 216.459 225.143 215.963 225.141C215.467 225.14 214.971 225.138 214.476 225.136C214.47 226.592 214.465 228.064 214.46 229.552C214.455 231.04 214.45 232.52 214.445 233.992C213.805 233.99 213.149 233.988 212.477 233.985C211.805 233.983 211.141 233.981 210.485 233.978C210.49 232.506 210.495 231.026 210.5 229.538C210.505 228.05 210.51 226.578 210.516 225.122C210.196 225.121 209.868 225.12 209.532 225.119C209.212 225.118 208.892 225.117 208.572 225.116ZM231.089 221.642C231.082 223.69 231.075 225.762 231.068 227.858C231.061 229.938 231.053 232.002 231.046 234.05C230.406 234.047 229.75 234.045 229.078 234.043C228.406 234.041 227.742 234.038 227.086 234.036C227.087 233.924 227.087 233.82 227.087 233.724C227.088 233.628 227.088 233.524 227.088 233.412C226.655 233.714 226.167 233.945 225.622 234.103C225.093 234.277 224.517 234.363 223.893 234.361C222.981 234.358 222.174 234.147 221.471 233.728C220.785 233.31 220.243 232.708 219.846 231.923C219.464 231.137 219.276 230.209 219.279 229.137C219.284 227.889 219.288 226.633 219.292 225.369C219.297 224.105 219.301 222.849 219.305 221.601C219.961 221.603 220.625 221.605 221.297 221.608C221.969 221.61 222.625 221.612 223.265 221.615C223.261 222.767 223.257 223.935 223.253 225.119C223.249 226.303 223.245 227.471 223.241 228.623C223.239 229.263 223.381 229.783 223.668 230.184C223.97 230.569 224.442 230.763 225.082 230.765C225.722 230.767 226.218 230.585 226.572 230.218C226.925 229.851 227.103 229.324 227.105 228.636C227.109 227.484 227.113 226.316 227.117 225.132C227.121 223.948 227.125 222.78 227.129 221.628C227.785 221.63 228.449 221.633 229.121 221.635C229.793 221.637 230.449 221.64 231.089 221.642ZM243.174 230.252C243.171 231.244 242.888 232.059 242.326 232.697C241.779 233.319 241.042 233.772 240.113 234.057C239.184 234.342 238.143 234.458 236.992 234.406C235.856 234.37 234.696 234.182 233.514 233.842C233.516 233.234 233.518 232.61 233.52 231.97C233.522 231.33 233.524 230.706 233.527 230.098C234.198 230.405 234.869 230.647 235.54 230.825C236.212 230.988 236.819 231.086 237.363 231.12C237.907 231.153 238.347 231.115 238.683 231.004C239.02 230.877 239.189 230.67 239.19 230.382C239.19 230.158 239.047 229.981 238.759 229.852C238.488 229.723 238.128 229.61 237.681 229.513C237.233 229.399 236.753 229.269 236.242 229.124C235.747 228.962 235.275 228.744 234.828 228.471C234.381 228.181 234.015 227.804 233.728 227.339C233.458 226.858 233.324 226.242 233.327 225.49C233.33 224.594 233.588 223.834 234.102 223.212C234.633 222.574 235.338 222.097 236.219 221.78C237.101 221.447 238.085 221.282 239.173 221.286C240.261 221.29 241.373 221.477 242.507 221.849C242.505 222.457 242.503 223.081 242.501 223.721C242.499 224.361 242.496 224.985 242.494 225.593C241.6 225.158 240.761 224.867 239.977 224.721C239.194 224.574 238.562 224.556 238.081 224.666C237.601 224.76 237.36 224.976 237.359 225.312C237.358 225.536 237.494 225.712 237.765 225.841C238.053 225.954 238.413 226.059 238.844 226.157C239.292 226.254 239.764 226.384 240.259 226.546C240.77 226.707 241.242 226.933 241.673 227.223C242.12 227.496 242.478 227.881 242.749 228.378C243.035 228.859 243.177 229.484 243.174 230.252ZM255.753 233.559C254.648 234.02 253.551 234.304 252.462 234.412C251.374 234.52 250.342 234.453 249.367 234.209C248.408 233.982 247.553 233.587 246.803 233.024C246.053 232.462 245.464 231.748 245.035 230.882C244.622 230.017 244.417 229.016 244.421 227.88C244.424 226.936 244.579 226.073 244.886 225.29C245.209 224.491 245.659 223.796 246.237 223.206C246.815 222.6 247.497 222.139 248.282 221.821C249.067 221.488 249.924 221.323 250.852 221.326C251.684 221.329 252.435 221.468 253.106 221.742C253.777 222.017 254.36 222.403 254.854 222.9C255.349 223.382 255.747 223.959 256.048 224.632C256.35 225.305 256.539 226.042 256.617 226.842C256.694 227.643 256.643 228.491 256.464 229.386C255.152 229.381 253.832 229.377 252.504 229.372C251.176 229.368 249.856 229.363 248.544 229.358C248.846 229.967 249.348 230.401 250.051 230.66C250.77 230.918 251.618 231.001 252.595 230.908C253.587 230.816 254.644 230.564 255.765 230.151C255.763 230.711 255.761 231.279 255.759 231.855C255.757 232.431 255.755 232.999 255.753 233.559ZM250.743 224.878C250.279 224.876 249.847 225.003 249.446 225.258C249.061 225.512 248.764 225.903 248.554 226.43C249.274 226.433 249.994 226.435 250.714 226.438C251.45 226.44 252.178 226.443 252.898 226.446C252.708 225.901 252.421 225.508 252.038 225.267C251.671 225.009 251.239 224.88 250.743 224.878ZM266.968 234.174C266.969 234.046 266.969 233.926 266.97 233.814C266.97 233.686 266.971 233.566 266.971 233.454C266.57 233.789 266.113 234.043 265.6 234.218C265.104 234.408 264.567 234.502 263.991 234.5C263.175 234.497 262.408 234.335 261.689 234.012C260.97 233.69 260.332 233.239 259.774 232.661C259.232 232.068 258.802 231.37 258.485 230.569C258.184 229.768 258.035 228.887 258.038 227.927C258.041 226.951 258.197 226.064 258.503 225.265C258.826 224.466 259.26 223.78 259.806 223.205C260.368 222.631 261.01 222.194 261.731 221.892C262.452 221.575 263.213 221.417 264.013 221.42C264.589 221.422 265.132 221.52 265.644 221.714C266.155 221.891 266.61 222.141 267.009 222.462C267.012 221.502 267.016 220.534 267.019 219.558C267.023 218.582 267.026 217.614 267.029 216.655C267.685 216.657 268.349 216.659 269.021 216.661C269.693 216.664 270.349 216.666 270.989 216.668C270.979 219.564 270.969 222.484 270.959 225.428C270.949 228.372 270.938 231.292 270.928 234.188C270.288 234.186 269.632 234.184 268.96 234.181C268.288 234.179 267.624 234.177 266.968 234.174ZM264.531 230.998C265.299 231.001 265.916 230.723 266.382 230.164C266.848 229.606 267.083 228.871 267.086 227.959C267.089 227.047 266.86 226.318 266.398 225.772C265.936 225.211 265.321 224.929 264.553 224.926C263.769 224.923 263.144 225.193 262.678 225.735C262.228 226.278 262.001 227.013 261.998 227.941C261.995 228.869 262.216 229.614 262.662 230.175C263.124 230.721 263.747 230.995 264.531 230.998ZM287.007 234.244C287.008 234.116 287.008 233.996 287.009 233.884C287.009 233.756 287.009 233.636 287.01 233.524C286.609 233.859 286.152 234.113 285.639 234.287C285.143 234.477 284.606 234.572 284.03 234.57C283.214 234.567 282.447 234.412 281.728 234.106C281.009 233.783 280.371 233.333 279.813 232.755C279.271 232.161 278.841 231.464 278.524 230.662C278.223 229.861 278.074 228.973 278.077 227.997C278.08 227.005 278.236 226.109 278.542 225.311C278.865 224.512 279.299 223.833 279.845 223.275C280.407 222.701 281.049 222.263 281.77 221.962C282.491 221.644 283.252 221.487 284.052 221.49C284.628 221.492 285.171 221.59 285.683 221.783C286.194 221.961 286.649 222.211 287.048 222.532C287.048 222.404 287.049 222.284 287.049 222.172C287.05 222.06 287.05 221.948 287.05 221.836C287.706 221.838 288.37 221.841 289.042 221.843C289.714 221.845 290.37 221.848 291.01 221.85C291.003 223.898 290.996 225.97 290.989 228.066C290.982 230.146 290.974 232.21 290.967 234.258C290.327 234.255 289.671 234.253 288.999 234.251C288.327 234.249 287.663 234.246 287.007 234.244ZM284.57 231.067C285.338 231.07 285.955 230.792 286.421 230.234C286.887 229.676 287.122 228.94 287.125 228.028C287.128 227.116 286.899 226.388 286.437 225.842C285.974 225.28 285.359 224.998 284.591 224.996C283.807 224.993 283.183 225.263 282.717 225.805C282.267 226.347 282.04 227.083 282.037 228.011C282.034 228.939 282.255 229.683 282.701 230.245C283.163 230.791 283.786 231.065 284.57 231.067ZM293.61 234.267C293.617 232.219 293.624 230.155 293.632 228.075C293.639 225.979 293.646 223.907 293.653 221.859C294.309 221.861 294.973 221.864 295.645 221.866C296.317 221.868 296.973 221.87 297.613 221.873C297.613 221.985 297.612 222.089 297.612 222.185C297.612 222.281 297.611 222.385 297.611 222.497C298.044 222.194 298.525 221.964 299.053 221.806C299.598 221.632 300.182 221.546 300.806 221.548C301.718 221.551 302.518 221.762 303.204 222.18C303.907 222.599 304.449 223.2 304.83 223.986C305.227 224.755 305.424 225.684 305.42 226.772C305.416 228.02 305.412 229.276 305.407 230.54C305.403 231.804 305.398 233.06 305.394 234.308C304.754 234.306 304.098 234.303 303.426 234.301C302.754 234.299 302.09 234.296 301.434 234.294C301.438 233.142 301.442 231.974 301.446 230.79C301.45 229.606 301.454 228.438 301.458 227.286C301.461 226.646 301.31 226.134 301.008 225.749C300.721 225.348 300.258 225.146 299.618 225.144C298.978 225.141 298.481 225.324 298.128 225.691C297.775 226.057 297.597 226.585 297.594 227.273C297.59 228.425 297.586 229.593 297.582 230.777C297.578 231.961 297.574 233.129 297.57 234.281C296.93 234.278 296.274 234.276 295.602 234.274C294.93 234.271 294.266 234.269 293.61 234.267ZM316.117 234.345C316.117 234.217 316.117 234.097 316.118 233.985C316.118 233.857 316.119 233.737 316.119 233.625C315.718 233.96 315.261 234.214 314.748 234.388C314.252 234.579 313.715 234.673 313.139 234.671C312.323 234.668 311.556 234.505 310.837 234.183C310.118 233.86 309.48 233.41 308.922 232.832C308.38 232.238 307.95 231.541 307.633 230.74C307.332 229.938 307.183 229.058 307.186 228.098C307.19 227.122 307.345 226.235 307.651 225.436C307.974 224.637 308.409 223.95 308.955 223.376C309.517 222.802 310.158 222.364 310.879 222.063C311.6 221.745 312.361 221.588 313.161 221.591C313.737 221.593 314.281 221.691 314.792 221.884C315.303 222.062 315.758 222.312 316.157 222.633C316.161 221.673 316.164 220.705 316.167 219.729C316.171 218.753 316.174 217.785 316.177 216.825C316.833 216.827 317.497 216.83 318.169 216.832C318.841 216.834 319.497 216.837 320.137 216.839C320.127 219.735 320.117 222.655 320.107 225.599C320.097 228.543 320.087 231.463 320.077 234.359C319.437 234.357 318.781 234.354 318.109 234.352C317.437 234.35 316.773 234.347 316.117 234.345ZM313.68 231.169C314.448 231.171 315.065 230.893 315.531 230.335C315.996 229.777 316.231 229.041 316.234 228.129C316.237 227.217 316.008 226.489 315.546 225.943C315.084 225.381 314.469 225.099 313.701 225.097C312.917 225.094 312.292 225.364 311.826 225.906C311.376 226.449 311.149 227.184 311.146 228.112C311.143 229.04 311.364 229.784 311.81 230.346C312.273 230.892 312.896 231.166 313.68 231.169ZM327.258 225.528C327.26 224.936 327.262 224.344 327.264 223.752C327.267 223.16 327.269 222.568 327.271 221.976C327.591 221.977 327.911 221.978 328.231 221.979C328.567 221.98 328.895 221.981 329.215 221.982C329.215 221.902 329.215 221.83 329.215 221.766C329.216 221.702 329.216 221.638 329.216 221.574C329.22 220.502 329.439 219.607 329.873 218.889C330.324 218.154 330.91 217.596 331.631 217.215C332.369 216.817 333.169 216.596 334.034 216.551C334.914 216.49 335.785 216.605 336.648 216.896C336.646 217.488 336.644 218.096 336.642 218.72C336.64 219.344 336.638 219.96 336.636 220.568C335.677 220.245 334.861 220.178 334.188 220.368C333.516 220.557 333.178 220.972 333.176 221.612C333.176 221.676 333.176 221.74 333.175 221.804C333.175 221.868 333.175 221.932 333.175 221.996C333.671 221.998 334.167 222 334.663 222.001C335.159 222.003 335.655 222.005 336.151 222.006C336.149 222.598 336.146 223.19 336.144 223.782C336.142 224.374 336.14 224.966 336.138 225.558C335.642 225.557 335.146 225.555 334.65 225.553C334.154 225.552 333.658 225.55 333.162 225.548C333.157 227.004 333.152 228.476 333.147 229.964C333.142 231.452 333.137 232.932 333.132 234.404C332.492 234.402 331.836 234.4 331.164 234.397C330.492 234.395 329.828 234.393 329.172 234.39C329.177 232.918 329.182 231.438 329.187 229.95C329.192 228.462 329.197 226.99 329.202 225.534C328.882 225.533 328.554 225.532 328.218 225.531C327.898 225.53 327.578 225.529 327.258 225.528ZM343.785 234.825C342.857 234.822 341.994 234.659 341.195 234.336C340.396 233.997 339.702 233.531 339.112 232.937C338.522 232.327 338.06 231.621 337.727 230.82C337.41 230.019 337.253 229.146 337.256 228.202C337.26 227.258 337.423 226.387 337.745 225.588C338.084 224.789 338.551 224.095 339.145 223.505C339.739 222.915 340.436 222.461 341.237 222.144C342.039 221.811 342.903 221.646 343.831 221.649C344.775 221.652 345.639 221.823 346.421 222.162C347.22 222.485 347.915 222.943 348.505 223.537C349.095 224.131 349.548 224.829 349.865 225.63C350.199 226.431 350.364 227.304 350.36 228.248C350.357 229.192 350.186 230.063 349.847 230.862C349.524 231.661 349.066 232.363 348.472 232.969C347.878 233.559 347.18 234.021 346.379 234.354C345.594 234.671 344.729 234.828 343.785 234.825ZM343.798 231.249C344.582 231.252 345.207 230.974 345.673 230.416C346.155 229.841 346.397 229.114 346.4 228.234C346.403 227.338 346.166 226.617 345.688 226.072C345.226 225.51 344.603 225.228 343.819 225.225C343.035 225.222 342.402 225.5 341.92 226.059C341.454 226.601 341.219 227.32 341.216 228.216C341.213 229.096 341.443 229.825 341.905 230.403C342.383 230.964 343.014 231.246 343.798 231.249ZM352.417 234.471C352.427 231.575 352.437 228.655 352.448 225.711C352.458 222.767 352.468 219.847 352.478 216.951C353.134 216.953 353.798 216.956 354.47 216.958C355.142 216.96 355.798 216.963 356.438 216.965C356.428 219.861 356.418 222.781 356.408 225.725C356.397 228.669 356.387 231.589 356.377 234.485C355.737 234.483 355.081 234.48 354.409 234.478C353.737 234.476 353.073 234.473 352.417 234.471ZM359.261 234.495C359.271 231.599 359.281 228.679 359.291 225.735C359.302 222.791 359.312 219.871 359.322 216.975C359.978 216.977 360.642 216.979 361.314 216.982C361.986 216.984 362.642 216.986 363.282 216.989C363.272 219.885 363.262 222.805 363.251 225.749C363.241 228.693 363.231 231.613 363.221 234.509C362.581 234.506 361.925 234.504 361.253 234.502C360.581 234.499 359.917 234.497 359.261 234.495ZM371.863 234.923C370.935 234.919 370.072 234.756 369.273 234.434C368.474 234.095 367.78 233.628 367.19 233.034C366.6 232.424 366.138 231.719 365.805 230.917C365.488 230.116 365.331 229.244 365.334 228.3C365.338 227.356 365.501 226.484 365.823 225.686C366.162 224.887 366.629 224.192 367.223 223.602C367.817 223.012 368.514 222.559 369.315 222.242C370.117 221.908 370.981 221.743 371.909 221.747C372.853 221.75 373.717 221.921 374.499 222.26C375.298 222.582 375.993 223.041 376.583 223.635C377.173 224.229 377.626 224.926 377.943 225.728C378.277 226.529 378.442 227.401 378.438 228.345C378.435 229.289 378.264 230.161 377.925 230.96C377.602 231.758 377.144 232.461 376.55 233.067C375.956 233.657 375.258 234.118 374.457 234.452C373.672 234.769 372.807 234.926 371.863 234.923ZM371.876 231.347C372.66 231.349 373.285 231.071 373.751 230.513C374.233 229.939 374.475 229.212 374.478 228.332C374.481 227.436 374.244 226.715 373.766 226.169C373.304 225.607 372.681 225.325 371.897 225.323C371.113 225.32 370.48 225.598 369.998 226.156C369.532 226.698 369.297 227.418 369.294 228.314C369.291 229.194 369.521 229.922 369.983 230.5C370.461 231.062 371.092 231.344 371.876 231.347ZM382.661 234.576C382.044 232.526 381.419 230.46 380.786 228.377C380.17 226.279 379.553 224.205 378.936 222.155C379.592 222.157 380.256 222.16 380.928 222.162C381.616 222.164 382.288 222.167 382.944 222.169C383.26 223.29 383.576 224.427 383.892 225.58C384.224 226.717 384.54 227.847 384.84 228.968C385.116 227.849 385.392 226.721 385.668 225.586C385.96 224.435 386.236 223.3 386.496 222.181C387.056 222.183 387.616 222.185 388.176 222.187C388.752 222.189 389.32 222.191 389.88 222.193C390.148 223.314 390.416 224.459 390.684 225.628C390.968 226.781 391.236 227.926 391.488 229.063C391.812 227.928 392.136 226.785 392.46 225.634C392.8 224.467 393.124 223.324 393.432 222.205C394.088 222.208 394.744 222.21 395.4 222.212C396.072 222.215 396.728 222.217 397.368 222.219C396.737 224.265 396.098 226.335 395.45 228.428C394.819 230.506 394.188 232.568 393.557 234.614C392.917 234.612 392.269 234.609 391.613 234.607C390.957 234.605 390.309 234.603 389.669 234.6C389.416 233.607 389.156 232.607 388.887 231.598C388.635 230.589 388.382 229.596 388.13 228.619C387.87 229.594 387.603 230.585 387.327 231.592C387.068 232.599 386.808 233.598 386.549 234.59C385.909 234.587 385.261 234.585 384.605 234.583C383.949 234.58 383.301 234.578 382.661 234.576Z" fill="#2F4ECD"/>
<path d="M180.352 280.978C178.685 281.645 177.132 282.023 175.692 282.114C174.267 282.221 172.98 282.089 171.829 281.717C170.678 281.329 169.696 280.749 168.883 279.978C168.07 279.208 167.449 278.293 167.021 277.236C166.592 276.178 166.38 275.026 166.385 273.778C166.389 272.546 166.593 271.41 166.996 270.372C167.4 269.317 167.987 268.407 168.758 267.642C169.545 266.877 170.491 266.28 171.596 265.852C172.702 265.424 173.958 265.22 175.366 265.241C176.774 265.246 178.317 265.507 179.996 266.025C179.993 266.697 179.991 267.377 179.989 268.065C179.986 268.737 179.984 269.409 179.982 270.081C178.655 269.548 177.424 269.24 176.289 269.156C175.169 269.072 174.185 269.189 173.335 269.506C172.502 269.823 171.845 270.333 171.362 271.035C170.896 271.721 170.661 272.585 170.657 273.625C170.654 274.537 170.819 275.345 171.153 276.05C171.502 276.756 171.988 277.309 172.611 277.711C173.234 278.114 173.945 278.316 174.745 278.319C175.017 278.32 175.289 278.313 175.561 278.298C175.833 278.267 176.097 278.219 176.353 278.156C176.355 277.74 176.356 277.316 176.358 276.884C176.359 276.452 176.361 276.028 176.362 275.612C175.914 275.611 175.466 275.609 175.018 275.608C174.57 275.606 174.122 275.605 173.674 275.603C173.676 275.011 173.678 274.419 173.68 273.827C173.683 273.219 173.685 272.619 173.687 272.027C174.791 272.031 175.903 272.035 177.023 272.039C178.159 272.043 179.279 272.047 180.383 272.05C180.378 273.522 180.372 275.01 180.367 276.514C180.362 278.018 180.357 279.506 180.352 280.978ZM183.151 281.852C183.159 279.804 183.166 277.74 183.173 275.66C183.18 273.564 183.187 271.492 183.194 269.444C183.85 269.446 184.514 269.449 185.186 269.451C185.858 269.453 186.514 269.456 187.154 269.458C187.154 269.57 187.154 269.682 187.153 269.794C187.153 269.906 187.153 270.018 187.152 270.13C187.649 269.78 188.21 269.517 188.835 269.344C189.459 269.17 190.14 269.124 190.875 269.207C190.873 269.847 190.871 270.495 190.869 271.151C190.866 271.807 190.864 272.455 190.862 273.095C189.598 272.914 188.662 273.023 188.053 273.421C187.443 273.803 187.137 274.434 187.134 275.314C187.13 276.386 187.127 277.474 187.123 278.578C187.119 279.682 187.115 280.778 187.111 281.866C186.471 281.864 185.815 281.861 185.143 281.859C184.471 281.857 183.807 281.854 183.151 281.852ZM203.185 281.346C202.079 281.806 200.982 282.09 199.894 282.198C198.805 282.306 197.774 282.239 196.799 281.995C195.839 281.768 194.985 281.373 194.235 280.81C193.485 280.248 192.895 279.534 192.466 278.668C192.053 277.803 191.849 276.802 191.853 275.666C191.856 274.722 192.011 273.859 192.317 273.076C192.64 272.277 193.091 271.582 193.669 270.992C194.247 270.386 194.928 269.925 195.714 269.608C196.499 269.274 197.355 269.109 198.283 269.112C199.115 269.115 199.867 269.254 200.538 269.528C201.209 269.803 201.792 270.189 202.286 270.686C202.78 271.168 203.178 271.745 203.48 272.419C203.782 273.092 203.971 273.828 204.048 274.629C204.125 275.429 204.074 276.277 203.895 277.172C202.583 277.167 201.263 277.163 199.935 277.158C198.607 277.154 197.287 277.149 195.975 277.144C196.277 277.754 196.78 278.187 197.483 278.446C198.202 278.704 199.05 278.787 200.026 278.695C201.018 278.602 202.075 278.35 203.197 277.938C203.195 278.498 203.193 279.066 203.191 279.642C203.189 280.218 203.187 280.786 203.185 281.346ZM198.175 272.664C197.711 272.662 197.279 272.789 196.878 273.044C196.493 273.298 196.195 273.689 195.986 274.217C196.706 274.219 197.426 274.222 198.146 274.224C198.882 274.227 199.61 274.229 200.33 274.232C200.139 273.687 199.853 273.294 199.47 273.053C199.103 272.795 198.671 272.666 198.175 272.664ZM216.802 281.393C215.696 281.853 214.599 282.137 213.511 282.245C212.423 282.354 211.391 282.286 210.416 282.043C209.456 281.815 208.602 281.42 207.852 280.858C207.102 280.295 206.512 279.581 206.083 278.716C205.67 277.85 205.466 276.849 205.47 275.713C205.473 274.769 205.628 273.906 205.935 273.123C206.257 272.324 206.708 271.63 207.286 271.04C207.864 270.434 208.546 269.972 209.331 269.655C210.116 269.322 210.972 269.157 211.9 269.16C212.732 269.163 213.484 269.301 214.155 269.576C214.826 269.85 215.409 270.236 215.903 270.734C216.397 271.215 216.795 271.793 217.097 272.466C217.399 273.139 217.588 273.876 217.665 274.676C217.743 275.476 217.692 276.324 217.512 277.219C216.2 277.215 214.88 277.21 213.552 277.206C212.224 277.201 210.904 277.196 209.592 277.192C209.894 277.801 210.397 278.235 211.1 278.493C211.819 278.752 212.667 278.834 213.643 278.742C214.635 278.649 215.692 278.397 216.814 277.985C216.812 278.545 216.81 279.113 216.808 279.689C216.806 280.265 216.804 280.833 216.802 281.393ZM211.792 272.711C211.328 272.71 210.896 272.836 210.495 273.091C210.11 273.346 209.812 273.737 209.603 274.264C210.323 274.266 211.043 274.269 211.763 274.271C212.499 274.274 213.227 274.276 213.947 274.279C213.757 273.734 213.47 273.341 213.087 273.1C212.72 272.843 212.288 272.713 211.792 272.711ZM219.737 281.979C219.744 279.931 219.751 277.867 219.759 275.787C219.766 273.691 219.773 271.619 219.78 269.571C220.436 269.573 221.1 269.576 221.772 269.578C222.444 269.58 223.1 269.583 223.74 269.585C223.74 269.697 223.739 269.801 223.739 269.897C223.739 269.993 223.738 270.097 223.738 270.209C224.171 269.906 224.652 269.676 225.18 269.518C225.725 269.344 226.309 269.258 226.933 269.26C227.845 269.263 228.645 269.474 229.331 269.892C230.034 270.311 230.576 270.913 230.957 271.698C231.354 272.467 231.551 273.396 231.547 274.484C231.543 275.732 231.539 276.988 231.534 278.252C231.53 279.516 231.525 280.772 231.521 282.02C230.881 282.018 230.225 282.015 229.553 282.013C228.881 282.011 228.217 282.008 227.561 282.006C227.565 280.854 227.569 279.686 227.573 278.502C227.577 277.318 227.581 276.15 227.585 274.998C227.588 274.358 227.437 273.846 227.135 273.461C226.848 273.06 226.385 272.858 225.745 272.856C225.105 272.854 224.608 273.036 224.255 273.403C223.902 273.769 223.724 274.297 223.721 274.985C223.717 276.137 223.713 277.305 223.709 278.489C223.705 279.673 223.701 280.841 223.697 281.993C223.057 281.991 222.401 281.988 221.729 281.986C221.057 281.984 220.393 281.981 219.737 281.979ZM233.503 276.483C233.505 275.875 233.507 275.259 233.509 274.635C233.511 273.995 233.514 273.371 233.516 272.763C234.588 272.767 235.668 272.77 236.756 272.774C237.844 272.778 238.924 272.782 239.996 272.785C239.994 273.393 239.991 274.017 239.989 274.657C239.987 275.281 239.985 275.897 239.983 276.505C238.911 276.502 237.831 276.498 236.743 276.494C235.655 276.49 234.575 276.486 233.503 276.483ZM244.171 282.064C243.554 280.014 242.929 277.948 242.297 275.865C241.68 273.767 241.063 271.693 240.446 269.643C241.102 269.645 241.766 269.647 242.438 269.65C243.126 269.652 243.798 269.654 244.454 269.657C244.77 270.778 245.086 271.915 245.402 273.068C245.734 274.205 246.05 275.334 246.351 276.455C246.626 275.336 246.902 274.209 247.178 273.074C247.47 271.923 247.746 270.788 248.006 269.669C248.566 269.671 249.126 269.673 249.686 269.675C250.262 269.677 250.83 269.679 251.39 269.681C251.658 270.802 251.926 271.947 252.194 273.116C252.478 274.269 252.746 275.414 252.998 276.55C253.322 275.416 253.646 274.273 253.97 273.122C254.31 271.955 254.634 270.812 254.942 269.693C255.598 269.695 256.254 269.698 256.91 269.7C257.582 269.702 258.238 269.705 258.878 269.707C258.247 271.753 257.608 273.822 256.96 275.916C256.329 277.994 255.698 280.056 255.067 282.102C254.427 282.099 253.779 282.097 253.123 282.095C252.467 282.093 251.819 282.09 251.179 282.088C250.926 281.095 250.666 280.094 250.397 279.085C250.145 278.077 249.892 277.084 249.64 276.107C249.38 277.082 249.113 278.073 248.837 279.08C248.578 280.087 248.318 281.086 248.059 282.077C247.419 282.075 246.771 282.073 246.115 282.071C245.459 282.068 244.811 282.066 244.171 282.064ZM260.357 282.12C260.367 279.224 260.377 276.304 260.387 273.36C260.398 270.416 260.408 267.496 260.418 264.6C261.074 264.602 261.738 264.605 262.41 264.607C263.082 264.609 263.738 264.612 264.378 264.614C264.374 265.558 264.371 266.518 264.368 267.494C264.364 268.454 264.361 269.406 264.358 270.35C264.791 270.047 265.272 269.817 265.8 269.659C266.345 269.485 266.929 269.399 267.553 269.401C268.465 269.404 269.264 269.615 269.951 270.033C270.653 270.452 271.195 271.054 271.577 271.839C271.974 272.608 272.171 273.537 272.167 274.625C272.163 275.873 272.158 277.129 272.154 278.393C272.15 279.657 272.145 280.913 272.141 282.161C271.501 282.159 270.845 282.156 270.173 282.154C269.501 282.152 268.837 282.149 268.181 282.147C268.185 280.995 268.189 279.827 268.193 278.643C268.197 277.459 268.201 276.291 268.205 275.139C268.207 274.499 268.057 273.987 267.755 273.602C267.468 273.201 267.005 272.999 266.365 272.997C265.725 272.995 265.228 273.177 264.875 273.544C264.521 273.91 264.344 274.438 264.341 275.126C264.337 276.278 264.333 277.446 264.329 278.63C264.325 279.814 264.321 280.982 264.317 282.134C263.677 282.132 263.021 282.129 262.349 282.127C261.677 282.125 261.013 282.122 260.357 282.12ZM276.764 268.353C276.3 268.351 275.876 268.238 275.493 268.012C275.126 267.787 274.831 267.49 274.608 267.121C274.386 266.753 274.275 266.344 274.276 265.896C274.278 265.448 274.391 265.049 274.617 264.697C274.842 264.33 275.139 264.035 275.508 263.813C275.892 263.59 276.317 263.479 276.781 263.481C277.229 263.482 277.636 263.596 278.004 263.821C278.387 264.047 278.69 264.344 278.913 264.712C279.135 265.065 279.246 265.465 279.244 265.913C279.243 266.361 279.129 266.769 278.904 267.136C278.679 267.504 278.374 267.798 277.989 268.021C277.62 268.244 277.212 268.354 276.764 268.353ZM274.724 282.17C274.731 280.122 274.738 278.058 274.745 275.978C274.753 273.882 274.76 271.81 274.767 269.762C275.423 269.764 276.087 269.767 276.759 269.769C277.431 269.771 278.087 269.774 278.727 269.776C278.72 271.824 278.713 273.896 278.705 275.992C278.698 278.072 278.691 280.136 278.684 282.184C278.044 282.181 277.388 282.179 276.716 282.177C276.044 282.174 275.38 282.172 274.724 282.17ZM282.744 282.198C282.749 280.726 282.754 279.246 282.759 277.758C282.764 276.27 282.769 274.798 282.774 273.342C282.454 273.341 282.126 273.34 281.79 273.338C281.47 273.337 281.15 273.336 280.83 273.335C280.832 272.743 280.835 272.151 280.837 271.559C280.839 270.967 280.841 270.375 280.843 269.783C281.163 269.784 281.483 269.785 281.803 269.786C282.139 269.788 282.467 269.789 282.787 269.79C282.789 269.23 282.791 268.678 282.793 268.134C282.794 267.574 282.796 267.022 282.798 266.478C283.454 266.48 284.118 266.482 284.79 266.485C285.462 266.487 286.118 266.489 286.758 266.492C286.756 267.036 286.754 267.588 286.752 268.148C286.751 268.692 286.749 269.244 286.747 269.804C287.115 269.805 287.491 269.806 287.875 269.807C288.259 269.809 288.635 269.81 289.003 269.811C289.001 270.403 288.999 270.995 288.997 271.587C288.995 272.179 288.992 272.771 288.99 273.363C288.622 273.362 288.246 273.361 287.862 273.359C287.478 273.358 287.102 273.357 286.734 273.356C286.729 274.812 286.724 276.284 286.719 277.772C286.714 279.26 286.709 280.739 286.704 282.211C286.064 282.209 285.408 282.207 284.736 282.205C284.064 282.202 283.4 282.2 282.744 282.198ZM301.434 281.687C300.329 282.147 299.232 282.431 298.143 282.539C297.055 282.647 296.023 282.58 295.048 282.336C294.089 282.109 293.234 281.714 292.484 281.152C291.734 280.589 291.144 279.875 290.715 279.009C290.302 278.144 290.098 277.143 290.102 276.007C290.105 275.063 290.26 274.2 290.567 273.417C290.89 272.618 291.34 271.924 291.918 271.334C292.496 270.728 293.178 270.266 293.963 269.949C294.748 269.615 295.605 269.45 296.533 269.454C297.365 269.456 298.116 269.595 298.787 269.869C299.458 270.144 300.041 270.53 300.535 271.027C301.03 271.509 301.428 272.087 301.729 272.76C302.031 273.433 302.22 274.169 302.298 274.97C302.375 275.77 302.324 276.618 302.145 277.513C300.833 277.509 299.513 277.504 298.185 277.499C296.857 277.495 295.537 277.49 294.225 277.486C294.527 278.095 295.029 278.528 295.732 278.787C296.451 279.045 297.299 279.128 298.275 279.036C299.268 278.943 300.325 278.691 301.446 278.279C301.444 278.839 301.442 279.407 301.44 279.983C301.438 280.559 301.436 281.127 301.434 281.687ZM296.424 273.005C295.96 273.004 295.528 273.13 295.127 273.385C294.742 273.639 294.445 274.03 294.235 274.558C294.955 274.56 295.675 274.563 296.395 274.565C297.131 274.568 297.859 274.57 298.579 274.573C298.389 274.028 298.102 273.635 297.719 273.394C297.352 273.136 296.92 273.007 296.424 273.005Z" fill="#2F4ECD"/>
<path d="M164.646 327.95C165.488 325.265 166.329 322.548 167.171 319.799C168.028 317.049 168.878 314.332 169.719 311.647C170.663 311.651 171.615 311.654 172.575 311.657C173.551 311.661 174.511 311.664 175.455 311.667C176.277 314.358 177.1 317.081 177.922 319.836C178.761 322.591 179.591 325.314 180.414 328.005C179.726 328.002 179.022 328 178.302 327.997C177.598 327.995 176.894 327.992 176.19 327.99C176.032 327.477 175.882 326.965 175.739 326.452C175.597 325.924 175.447 325.403 175.289 324.891C174.377 324.888 173.457 324.884 172.529 324.881C171.617 324.878 170.705 324.875 169.793 324.872C169.631 325.383 169.477 325.903 169.332 326.43C169.186 326.942 169.032 327.453 168.87 327.964C168.182 327.962 167.478 327.96 166.758 327.957C166.054 327.955 165.35 327.952 164.646 327.95ZM170.861 321.299C171.421 321.301 171.981 321.303 172.541 321.305C173.117 321.307 173.685 321.309 174.245 321.311C173.977 320.366 173.7 319.413 173.415 318.452C173.131 317.491 172.854 316.538 172.585 315.593C172.31 316.536 172.019 317.487 171.711 318.446C171.42 319.405 171.137 320.356 170.861 321.299ZM190.019 328.038C190.02 327.91 190.02 327.79 190.021 327.678C190.021 327.55 190.022 327.43 190.022 327.318C189.621 327.653 189.164 327.907 188.651 328.081C188.155 328.271 187.618 328.366 187.042 328.364C186.226 328.361 185.459 328.198 184.74 327.876C184.021 327.553 183.383 327.103 182.825 326.525C182.283 325.931 181.853 325.234 181.536 324.432C181.235 323.631 181.086 322.751 181.089 321.791C181.093 320.815 181.248 319.927 181.554 319.128C181.877 318.33 182.312 317.643 182.858 317.069C183.42 316.495 184.061 316.057 184.782 315.756C185.503 315.438 186.264 315.281 187.064 315.284C187.64 315.286 188.183 315.383 188.695 315.577C189.206 315.755 189.661 316.005 190.06 316.326C190.063 315.366 190.067 314.398 190.07 313.422C190.074 312.446 190.077 311.478 190.08 310.518C190.736 310.52 191.4 310.523 192.072 310.525C192.744 310.527 193.4 310.53 194.04 310.532C194.03 313.428 194.02 316.348 194.01 319.292C194 322.236 193.99 325.156 193.979 328.052C193.339 328.049 192.683 328.047 192.011 328.045C191.339 328.042 190.675 328.04 190.019 328.038ZM187.583 324.861C188.351 324.864 188.967 324.586 189.433 324.028C189.899 323.469 190.134 322.734 190.137 321.822C190.14 320.91 189.911 320.181 189.449 319.636C188.987 319.074 188.372 318.792 187.604 318.789C186.82 318.787 186.195 319.057 185.729 319.599C185.279 320.141 185.052 320.877 185.049 321.805C185.046 322.733 185.267 323.477 185.713 324.039C186.175 324.585 186.799 324.859 187.583 324.861ZM205.019 328.09C205.02 327.962 205.02 327.842 205.021 327.73C205.021 327.602 205.022 327.482 205.022 327.37C204.621 327.705 204.164 327.959 203.651 328.133C203.155 328.323 202.618 328.418 202.042 328.416C201.226 328.413 200.459 328.25 199.74 327.928C199.021 327.605 198.383 327.155 197.825 326.577C197.283 325.983 196.853 325.286 196.536 324.484C196.235 323.683 196.086 322.803 196.089 321.843C196.092 320.867 196.248 319.979 196.554 319.181C196.877 318.382 197.311 317.695 197.857 317.121C198.419 316.547 199.061 316.109 199.782 315.808C200.503 315.49 201.264 315.333 202.064 315.336C202.64 315.338 203.183 315.436 203.695 315.629C204.206 315.807 204.661 316.057 205.06 316.378C205.063 315.418 205.067 314.45 205.07 313.474C205.074 312.498 205.077 311.53 205.08 310.57C205.736 310.572 206.4 310.575 207.072 310.577C207.744 310.579 208.4 310.582 209.04 310.584C209.03 313.48 209.02 316.4 209.01 319.344C209 322.288 208.989 325.208 208.979 328.104C208.339 328.101 207.683 328.099 207.011 328.097C206.339 328.095 205.675 328.092 205.019 328.09ZM202.582 324.913C203.35 324.916 203.967 324.638 204.433 324.08C204.899 323.522 205.134 322.786 205.137 321.874C205.14 320.962 204.911 320.234 204.449 319.688C203.987 319.126 203.371 318.844 202.604 318.842C201.82 318.839 201.195 319.109 200.729 319.651C200.279 320.193 200.052 320.929 200.049 321.857C200.046 322.785 200.267 323.529 200.713 324.091C201.175 324.637 201.798 324.911 202.582 324.913ZM213.899 314.297C213.435 314.295 213.012 314.182 212.629 313.956C212.261 313.731 211.966 313.434 211.744 313.065C211.521 312.696 211.41 312.288 211.412 311.84C211.413 311.392 211.527 310.992 211.752 310.641C211.977 310.274 212.274 309.979 212.643 309.756C213.028 309.534 213.452 309.423 213.916 309.425C214.364 309.426 214.772 309.54 215.139 309.765C215.522 309.99 215.825 310.287 216.048 310.656C216.271 311.009 216.381 311.409 216.38 311.857C216.378 312.305 216.265 312.713 216.04 313.08C215.814 313.447 215.509 313.742 215.125 313.965C214.756 314.188 214.347 314.298 213.899 314.297ZM211.859 328.114C211.866 326.066 211.874 324.002 211.881 321.922C211.888 319.826 211.895 317.754 211.902 315.706C212.558 315.708 213.222 315.71 213.894 315.713C214.566 315.715 215.222 315.717 215.862 315.72C215.855 317.768 215.848 319.84 215.841 321.935C215.834 324.015 215.826 326.079 215.819 328.127C215.179 328.125 214.523 328.123 213.851 328.121C213.179 328.118 212.515 328.116 211.859 328.114ZM217.933 321.919C217.937 320.703 218.189 319.64 218.688 318.729C219.187 317.803 219.878 317.061 220.759 316.505C221.641 315.948 222.667 315.615 223.835 315.507C225.003 315.383 226.251 315.524 227.578 315.928C227.575 316.536 227.573 317.152 227.571 317.776C227.569 318.4 227.567 319.016 227.565 319.624C226.638 319.173 225.751 318.962 224.903 318.991C224.055 319.02 223.358 319.282 222.812 319.776C222.266 320.254 221.992 320.973 221.989 321.933C221.985 322.893 222.255 323.622 222.797 324.12C223.339 324.602 224.034 324.86 224.882 324.895C225.73 324.914 226.619 324.709 227.549 324.28C227.546 324.888 227.544 325.504 227.542 326.128C227.54 326.752 227.538 327.368 227.536 327.976C226.206 328.372 224.958 328.503 223.79 328.371C222.623 328.255 221.6 327.916 220.722 327.352C219.844 326.789 219.158 326.051 218.665 325.137C218.173 324.208 217.928 323.135 217.933 321.919ZM231.293 328.181C231.298 326.709 231.303 325.229 231.308 323.741C231.314 322.253 231.319 320.781 231.324 319.325C231.004 319.324 230.676 319.323 230.34 319.322C230.02 319.321 229.7 319.32 229.38 319.318C229.382 318.726 229.384 318.134 229.386 317.542C229.388 316.95 229.39 316.358 229.392 315.767C229.712 315.768 230.032 315.769 230.352 315.77C230.688 315.771 231.016 315.772 231.336 315.773C231.338 315.213 231.34 314.661 231.342 314.117C231.344 313.557 231.346 313.005 231.348 312.461C232.004 312.464 232.668 312.466 233.34 312.468C234.012 312.471 234.668 312.473 235.308 312.475C235.306 313.019 235.304 313.571 235.302 314.131C235.3 314.675 235.298 315.227 235.296 315.787C235.664 315.788 236.04 315.79 236.424 315.791C236.808 315.792 237.184 315.794 237.552 315.795C237.55 316.387 237.548 316.979 237.546 317.571C237.544 318.163 237.542 318.755 237.54 319.347C237.172 319.346 236.796 319.344 236.412 319.343C236.028 319.342 235.652 319.34 235.284 319.339C235.279 320.795 235.274 322.267 235.268 323.755C235.263 325.243 235.258 326.723 235.253 328.195C234.613 328.193 233.957 328.19 233.285 328.188C232.613 328.186 231.949 328.183 231.293 328.181ZM241.579 314.393C241.115 314.391 240.691 314.278 240.308 314.052C239.941 313.827 239.646 313.53 239.423 313.161C239.2 312.793 239.09 312.384 239.091 311.936C239.093 311.488 239.206 311.089 239.432 310.737C239.657 310.37 239.954 310.075 240.323 309.852C240.707 309.63 241.132 309.519 241.596 309.521C242.044 309.522 242.451 309.636 242.819 309.861C243.202 310.086 243.505 310.383 243.728 310.752C243.95 311.105 244.061 311.505 244.059 311.953C244.058 312.401 243.944 312.809 243.719 313.176C243.494 313.543 243.189 313.838 242.804 314.061C242.435 314.284 242.027 314.394 241.579 314.393ZM239.539 328.21C239.546 326.162 239.553 324.098 239.56 322.018C239.568 319.922 239.575 317.85 239.582 315.802C240.238 315.804 240.902 315.806 241.574 315.809C242.246 315.811 242.902 315.813 243.542 315.816C243.535 317.864 243.528 319.936 243.52 322.032C243.513 324.112 243.506 326.176 243.499 328.224C242.859 328.221 242.203 328.219 241.531 328.217C240.859 328.214 240.195 328.212 239.539 328.21ZM249.119 328.243C248.422 326.193 247.709 324.126 246.98 322.044C246.267 319.945 245.563 317.871 244.866 315.82C245.554 315.823 246.242 315.825 246.93 315.827C247.634 315.83 248.33 315.832 249.018 315.835C249.429 317.1 249.841 318.374 250.252 319.655C250.68 320.92 251.092 322.186 251.487 323.451C251.908 322.189 252.328 320.926 252.748 319.664C253.169 318.385 253.581 317.114 253.986 315.852C254.658 315.854 255.338 315.857 256.026 315.859C256.714 315.861 257.394 315.864 258.066 315.866C257.354 317.912 256.627 319.981 255.884 322.075C255.157 324.152 254.438 326.214 253.727 328.259C252.975 328.256 252.207 328.254 251.423 328.251C250.639 328.248 249.871 328.246 249.119 328.243ZM269.671 327.738C268.565 328.199 267.468 328.483 266.38 328.591C265.292 328.699 264.26 328.632 263.285 328.388C262.326 328.161 261.471 327.766 260.721 327.203C259.971 326.641 259.381 325.927 258.952 325.061C258.539 324.196 258.335 323.195 258.339 322.059C258.342 321.115 258.497 320.252 258.804 319.469C259.126 318.67 259.577 317.975 260.155 317.385C260.733 316.779 261.415 316.318 262.2 316C262.985 315.667 263.841 315.502 264.769 315.505C265.601 315.508 266.353 315.647 267.024 315.921C267.695 316.195 268.278 316.581 268.772 317.079C269.266 317.561 269.664 318.138 269.966 318.811C270.268 319.484 270.457 320.221 270.534 321.021C270.612 321.822 270.561 322.669 270.382 323.565C269.07 323.56 267.75 323.556 266.422 323.551C265.094 323.546 263.774 323.542 262.462 323.537C262.763 324.146 263.266 324.58 263.969 324.839C264.688 325.097 265.536 325.18 266.512 325.087C267.505 324.995 268.561 324.743 269.683 324.33C269.681 324.89 269.679 325.458 269.677 326.034C269.675 326.61 269.673 327.178 269.671 327.738ZM264.661 319.057C264.197 319.055 263.765 319.182 263.364 319.436C262.979 319.691 262.682 320.082 262.472 320.609C263.192 320.612 263.912 320.614 264.632 320.617C265.368 320.619 266.096 320.622 266.816 320.624C266.626 320.08 266.339 319.687 265.956 319.445C265.589 319.188 265.157 319.059 264.661 319.057ZM285.925 328.371C285.926 328.243 285.926 328.123 285.926 328.011C285.927 327.883 285.927 327.763 285.928 327.651C285.527 327.985 285.07 328.24 284.557 328.414C284.06 328.604 283.524 328.698 282.948 328.697C282.132 328.694 281.365 328.531 280.646 328.209C279.927 327.886 279.288 327.436 278.73 326.858C278.188 326.264 277.759 325.566 277.442 324.765C277.14 323.964 276.991 323.084 276.995 322.124C276.998 321.148 277.153 320.26 277.46 319.461C277.783 318.663 278.217 317.976 278.763 317.402C279.325 316.828 279.967 316.39 280.688 316.089C281.409 315.771 282.169 315.614 282.969 315.616C283.545 315.618 284.089 315.716 284.6 315.91C285.112 316.088 285.567 316.338 285.966 316.659C285.969 315.699 285.973 314.731 285.976 313.755C285.979 312.779 285.983 311.811 285.986 310.851C286.642 310.853 287.306 310.856 287.978 310.858C288.65 310.86 289.306 310.862 289.946 310.865C289.936 313.761 289.926 316.681 289.916 319.625C289.905 322.569 289.895 325.489 289.885 328.385C289.245 328.382 288.589 328.38 287.917 328.378C287.245 328.375 286.581 328.373 285.925 328.371ZM283.488 325.194C284.256 325.197 284.873 324.919 285.339 324.361C285.805 323.802 286.04 323.067 286.043 322.155C286.046 321.243 285.816 320.514 285.354 319.969C284.892 319.407 284.277 319.125 283.509 319.122C282.725 319.12 282.1 319.39 281.634 319.932C281.185 320.474 280.958 321.21 280.955 322.138C280.952 323.066 281.173 323.81 281.619 324.372C282.081 324.917 282.704 325.192 283.488 325.194ZM300.925 328.423C300.926 328.295 300.926 328.175 300.926 328.063C300.927 327.935 300.927 327.815 300.928 327.703C300.526 328.038 300.07 328.292 299.557 328.466C299.06 328.656 298.524 328.751 297.948 328.749C297.132 328.746 296.364 328.591 295.646 328.285C294.927 327.962 294.288 327.512 293.73 326.934C293.188 326.34 292.759 325.643 292.441 324.841C292.14 324.04 291.991 323.152 291.995 322.176C291.998 321.184 292.153 320.288 292.46 319.489C292.783 318.691 293.217 318.012 293.763 317.454C294.325 316.88 294.967 316.442 295.688 316.141C296.409 315.823 297.169 315.666 297.969 315.669C298.545 315.671 299.089 315.768 299.6 315.962C300.112 316.14 300.567 316.39 300.966 316.711C300.966 316.583 300.967 316.463 300.967 316.351C300.967 316.239 300.968 316.127 300.968 316.015C301.624 316.017 302.288 316.02 302.96 316.022C303.632 316.024 304.288 316.027 304.928 316.029C304.921 318.077 304.914 320.149 304.907 322.245C304.899 324.325 304.892 326.389 304.885 328.437C304.245 328.434 303.589 328.432 302.917 328.43C302.245 328.427 301.581 328.425 300.925 328.423ZM298.488 325.246C299.256 325.249 299.873 324.971 300.339 324.413C300.805 323.854 301.039 323.119 301.043 322.207C301.046 321.295 300.816 320.566 300.354 320.021C299.892 319.459 299.277 319.177 298.509 319.174C297.725 319.172 297.1 319.442 296.634 319.984C296.184 320.526 295.958 321.262 295.955 322.19C295.951 323.118 296.173 323.862 296.619 324.424C297.081 324.97 297.704 325.244 298.488 325.246ZM307.528 328.446C307.535 326.398 307.542 324.334 307.549 322.254C307.557 320.158 307.564 318.086 307.571 316.038C308.227 316.04 308.891 316.042 309.563 316.045C310.235 316.047 310.891 316.049 311.531 316.052C311.531 316.164 311.53 316.268 311.53 316.364C311.529 316.46 311.529 316.564 311.529 316.676C311.962 316.373 312.443 316.143 312.971 315.985C313.516 315.811 314.1 315.725 314.724 315.727C315.636 315.73 316.435 315.941 317.122 316.359C317.824 316.778 318.366 317.379 318.748 318.165C319.145 318.934 319.342 319.863 319.338 320.951C319.334 322.199 319.329 323.455 319.325 324.719C319.32 325.983 319.316 327.239 319.312 328.487C318.672 328.485 318.016 328.482 317.344 328.48C316.672 328.478 316.008 328.475 315.352 328.473C315.356 327.321 315.36 326.153 315.364 324.969C315.368 323.785 315.372 322.617 315.376 321.465C315.378 320.825 315.228 320.313 314.925 319.927C314.639 319.526 314.176 319.325 313.536 319.323C312.896 319.32 312.399 319.503 312.046 319.869C311.692 320.236 311.515 320.764 311.512 321.452C311.508 322.604 311.504 323.772 311.5 324.956C311.496 326.14 311.492 327.308 311.488 328.46C310.848 328.457 310.192 328.455 309.52 328.453C308.848 328.45 308.184 328.448 307.528 328.446ZM321.104 322.277C321.108 321.061 321.36 319.998 321.859 319.088C322.358 318.161 323.049 317.42 323.931 316.863C324.813 316.306 325.838 315.973 327.006 315.865C328.175 315.741 329.422 315.882 330.749 316.286C330.747 316.894 330.745 317.51 330.742 318.134C330.74 318.758 330.738 319.374 330.736 319.982C329.809 319.531 328.922 319.32 328.074 319.349C327.226 319.378 326.529 319.64 325.983 320.134C325.438 320.612 325.163 321.331 325.16 322.291C325.157 323.251 325.426 323.98 325.968 324.478C326.511 324.96 327.206 325.218 328.054 325.253C328.902 325.272 329.79 325.067 330.72 324.638C330.718 325.246 330.716 325.862 330.713 326.486C330.711 327.11 330.709 327.726 330.707 328.334C329.378 328.73 328.129 328.861 326.962 328.729C325.794 328.613 324.771 328.274 323.893 327.711C323.015 327.148 322.33 326.409 321.837 325.495C321.344 324.566 321.1 323.493 321.104 322.277ZM343.733 327.996C342.627 328.456 341.53 328.74 340.442 328.848C339.354 328.956 338.322 328.889 337.347 328.645C336.388 328.418 335.533 328.023 334.783 327.46C334.033 326.898 333.443 326.184 333.014 325.318C332.601 324.453 332.397 323.452 332.401 322.316C332.404 321.372 332.559 320.509 332.866 319.726C333.188 318.927 333.639 318.232 334.217 317.642C334.795 317.036 335.477 316.575 336.262 316.258C337.047 315.924 337.904 315.759 338.832 315.762C339.664 315.765 340.415 315.904 341.086 316.178C341.757 316.453 342.34 316.839 342.834 317.336C343.328 317.818 343.726 318.395 344.028 319.068C344.33 319.742 344.519 320.478 344.596 321.278C344.674 322.079 344.623 322.927 344.444 323.822C343.132 323.817 341.812 323.813 340.484 323.808C339.156 323.804 337.836 323.799 336.524 323.794C336.826 324.404 337.328 324.837 338.031 325.096C338.75 325.354 339.598 325.437 340.574 325.345C341.567 325.252 342.623 325 343.745 324.588C343.743 325.148 343.741 325.716 343.739 326.292C343.737 326.868 343.735 327.436 343.733 327.996ZM338.723 319.314C338.259 319.312 337.827 319.439 337.426 319.694C337.041 319.948 336.744 320.339 336.534 320.866C337.254 320.869 337.974 320.871 338.694 320.874C339.43 320.877 340.158 320.879 340.878 320.882C340.688 320.337 340.401 319.944 340.018 319.703C339.651 319.445 339.219 319.316 338.723 319.314ZM351.707 328.599C351.714 326.551 351.722 324.487 351.729 322.407C351.736 320.311 351.743 318.239 351.75 316.191C352.406 316.194 353.07 316.196 353.742 316.198C354.414 316.201 355.07 316.203 355.71 316.205C355.71 316.317 355.71 316.421 355.709 316.517C355.709 316.613 355.709 316.717 355.708 316.829C356.125 316.526 356.59 316.296 357.103 316.138C357.615 315.964 358.143 315.877 358.687 315.879C359.279 315.881 359.823 315.987 360.318 316.197C360.814 316.391 361.237 316.68 361.587 317.065C362.101 316.699 362.678 316.413 363.318 316.207C363.975 316.002 364.647 315.9 365.335 315.902C366.311 315.906 367.151 316.109 367.853 316.511C368.572 316.914 369.122 317.484 369.503 318.221C369.901 318.958 370.098 319.847 370.094 320.887C370.09 322.167 370.085 323.463 370.081 324.775C370.076 326.087 370.072 327.383 370.067 328.663C369.427 328.661 368.771 328.658 368.099 328.656C367.427 328.654 366.763 328.651 366.107 328.649C366.111 327.449 366.116 326.233 366.12 325.001C366.124 323.769 366.128 322.553 366.133 321.353C366.134 320.809 366.008 320.369 365.753 320.032C365.514 319.679 365.123 319.502 364.579 319.5C364.051 319.498 363.634 319.665 363.329 319.999C363.04 320.318 362.895 320.766 362.893 321.342C362.888 322.542 362.884 323.758 362.88 324.99C362.876 326.222 362.871 327.438 362.867 328.638C362.227 328.636 361.571 328.633 360.899 328.631C360.227 328.629 359.563 328.626 358.907 328.624C358.911 327.424 358.916 326.208 358.92 324.976C358.924 323.744 358.928 322.528 358.933 321.328C358.934 320.784 358.808 320.344 358.553 320.007C358.314 319.654 357.923 319.477 357.379 319.475C356.851 319.473 356.434 319.64 356.129 319.974C355.84 320.293 355.695 320.741 355.693 321.317C355.688 322.517 355.684 323.733 355.68 324.965C355.676 326.197 355.671 327.413 355.667 328.613C355.027 328.611 354.371 328.608 353.699 328.606C353.027 328.604 352.363 328.601 351.707 328.599ZM384.155 316.304C384.148 318.352 384.14 320.424 384.133 322.52C384.126 324.6 384.119 326.664 384.112 328.712C383.472 328.709 382.816 328.707 382.144 328.705C381.472 328.703 380.808 328.7 380.152 328.698C380.152 328.586 380.152 328.482 380.153 328.386C380.153 328.29 380.153 328.186 380.154 328.074C379.721 328.376 379.232 328.607 378.687 328.765C378.159 328.939 377.582 329.025 376.958 329.023C376.046 329.02 375.239 328.809 374.537 328.39C373.85 327.972 373.308 327.37 372.911 326.585C372.53 325.799 372.341 324.871 372.345 323.799C372.349 322.551 372.353 321.295 372.358 320.031C372.362 318.767 372.366 317.511 372.371 316.263C373.027 316.265 373.691 316.267 374.363 316.27C375.035 316.272 375.691 316.274 376.331 316.277C376.327 317.429 376.323 318.597 376.319 319.781C376.314 320.965 376.31 322.133 376.306 323.285C376.304 323.925 376.446 324.445 376.733 324.846C377.036 325.231 377.507 325.425 378.147 325.427C378.787 325.429 379.284 325.247 379.637 324.88C379.99 324.513 380.168 323.986 380.17 323.298C380.174 322.146 380.178 320.978 380.183 319.794C380.187 318.61 380.191 317.442 380.195 316.29C380.851 316.292 381.515 316.295 382.187 316.297C382.859 316.299 383.515 316.302 384.155 316.304ZM396.239 324.914C396.236 325.906 395.953 326.721 395.391 327.359C394.845 327.981 394.107 328.434 393.178 328.719C392.249 329.004 391.209 329.12 390.057 329.068C388.921 329.032 387.762 328.844 386.579 328.504C386.581 327.896 386.583 327.272 386.585 326.632C386.588 325.992 386.59 325.368 386.592 324.76C387.263 325.067 387.934 325.309 388.605 325.487C389.277 325.65 389.884 325.748 390.428 325.782C390.972 325.815 391.412 325.777 391.749 325.666C392.085 325.539 392.254 325.332 392.255 325.044C392.256 324.82 392.112 324.643 391.825 324.514C391.553 324.385 391.194 324.272 390.746 324.175C390.298 324.061 389.819 323.931 389.307 323.786C388.812 323.624 388.341 323.406 387.894 323.133C387.447 322.843 387.08 322.466 386.793 322.001C386.523 321.52 386.389 320.904 386.392 320.152C386.395 319.256 386.654 318.496 387.168 317.874C387.698 317.236 388.404 316.759 389.285 316.442C390.166 316.109 391.151 315.944 392.239 315.948C393.326 315.952 394.438 316.139 395.573 316.511C395.57 317.119 395.568 317.743 395.566 318.383C395.564 319.023 395.562 319.647 395.56 320.255C394.665 319.82 393.826 319.529 393.043 319.383C392.259 319.236 391.627 319.218 391.147 319.328C390.666 319.422 390.426 319.638 390.425 319.974C390.424 320.198 390.559 320.374 390.831 320.503C391.118 320.616 391.478 320.721 391.91 320.819C392.357 320.916 392.829 321.046 393.324 321.208C393.836 321.369 394.307 321.595 394.738 321.885C395.185 322.158 395.544 322.543 395.814 323.04C396.1 323.521 396.242 324.146 396.239 324.914ZM400.297 314.944C399.833 314.942 399.409 314.829 399.026 314.603C398.659 314.378 398.364 314.081 398.141 313.712C397.918 313.344 397.808 312.935 397.809 312.487C397.811 312.039 397.924 311.64 398.149 311.288C398.375 310.921 398.672 310.626 399.04 310.403C399.425 310.181 399.85 310.07 400.314 310.072C400.762 310.073 401.169 310.187 401.536 310.412C401.92 310.637 402.223 310.934 402.445 311.303C402.668 311.656 402.779 312.056 402.777 312.504C402.776 312.952 402.662 313.36 402.437 313.727C402.212 314.094 401.907 314.389 401.522 314.612C401.153 314.835 400.745 314.945 400.297 314.944ZM398.257 328.761C398.264 326.713 398.271 324.649 398.278 322.569C398.285 320.473 398.293 318.401 398.3 316.353C398.956 316.355 399.62 316.357 400.292 316.36C400.964 316.362 401.62 316.364 402.26 316.367C402.253 318.415 402.245 320.487 402.238 322.583C402.231 324.663 402.224 326.727 402.217 328.775C401.577 328.772 400.921 328.77 400.249 328.768C399.577 328.765 398.913 328.763 398.257 328.761ZM404.33 322.566C404.334 321.35 404.586 320.287 405.085 319.376C405.584 318.45 406.275 317.709 407.157 317.152C408.039 316.595 409.064 316.262 410.232 316.154C411.401 316.03 412.648 316.171 413.975 316.575C413.973 317.183 413.971 317.799 413.968 318.423C413.966 319.047 413.964 319.663 413.962 320.271C413.036 319.82 412.148 319.609 411.3 319.638C410.452 319.667 409.755 319.929 409.209 320.423C408.664 320.901 408.389 321.62 408.386 322.58C408.383 323.54 408.652 324.269 409.194 324.767C409.737 325.249 410.432 325.507 411.28 325.542C412.128 325.561 413.016 325.356 413.946 324.927C413.944 325.535 413.942 326.151 413.939 326.775C413.937 327.399 413.935 328.015 413.933 328.623C412.604 329.019 411.355 329.15 410.188 329.018C409.02 328.902 407.997 328.563 407.119 328C406.241 327.437 405.556 326.698 405.063 325.784C404.57 324.855 404.326 323.782 404.33 322.566Z" fill="#2F4ECD"/>
<path d="M166.221 374.94C166.23 372.252 166.24 369.532 166.249 366.78C166.259 364.028 166.268 361.308 166.278 358.62C167.894 358.626 169.526 358.631 171.174 358.637C172.822 358.643 174.454 358.648 176.07 358.654C176.067 359.262 176.065 359.886 176.063 360.526C176.061 361.166 176.059 361.79 176.057 362.398C175.129 362.395 174.193 362.391 173.249 362.388C172.321 362.385 171.393 362.382 170.465 362.379C170.463 362.779 170.462 363.178 170.46 363.578C170.459 363.962 170.458 364.354 170.456 364.754C171.304 364.757 172.16 364.76 173.024 364.763C173.888 364.766 174.736 364.769 175.568 364.772C175.566 365.364 175.564 365.964 175.562 366.572C175.56 367.18 175.558 367.788 175.556 368.396C174.724 368.393 173.876 368.39 173.012 368.387C172.148 368.384 171.292 368.381 170.444 368.378C170.442 368.842 170.44 369.314 170.439 369.794C170.437 370.274 170.435 370.746 170.434 371.21C171.362 371.214 172.29 371.217 173.218 371.22C174.162 371.223 175.098 371.227 176.026 371.23C176.024 371.838 176.022 372.462 176.019 373.102C176.017 373.742 176.015 374.366 176.013 374.974C174.397 374.968 172.765 374.963 171.117 374.957C169.469 374.951 167.837 374.945 166.221 374.94ZM178.781 374.983C178.791 372.087 178.801 369.167 178.811 366.224C178.821 363.28 178.831 360.36 178.841 357.464C179.497 357.466 180.161 357.468 180.833 357.47C181.505 357.473 182.161 357.475 182.801 357.477C182.791 360.373 182.781 363.293 182.771 366.237C182.761 369.181 182.751 372.101 182.741 374.997C182.101 374.995 181.445 374.993 180.773 374.99C180.101 374.988 179.437 374.986 178.781 374.983ZM196.186 374.468C195.081 374.928 193.984 375.212 192.895 375.32C191.807 375.429 190.775 375.361 189.8 375.118C188.841 374.89 187.986 374.495 187.236 373.933C186.486 373.37 185.896 372.656 185.467 371.791C185.054 370.925 184.85 369.924 184.854 368.788C184.857 367.844 185.012 366.981 185.319 366.198C185.642 365.399 186.092 364.705 186.67 364.115C187.248 363.509 187.93 363.047 188.715 362.73C189.5 362.397 190.357 362.232 191.285 362.235C192.117 362.238 192.868 362.376 193.539 362.651C194.21 362.925 194.793 363.311 195.287 363.809C195.782 364.29 196.179 364.868 196.481 365.541C196.783 366.214 196.972 366.951 197.049 367.751C197.127 368.551 197.076 369.399 196.897 370.294C195.585 370.29 194.265 370.285 192.937 370.281C191.609 370.276 190.289 370.271 188.977 370.267C189.279 370.876 189.781 371.31 190.484 371.568C191.203 371.827 192.051 371.909 193.027 371.817C194.02 371.724 195.077 371.472 196.198 371.06C196.196 371.62 196.194 372.188 196.192 372.764C196.19 373.34 196.188 373.908 196.186 374.468ZM191.176 365.786C190.712 365.785 190.28 365.911 189.879 366.166C189.494 366.421 189.197 366.812 188.987 367.339C189.707 367.341 190.427 367.344 191.147 367.346C191.883 367.349 192.611 367.351 193.331 367.354C193.141 366.809 192.854 366.416 192.471 366.175C192.104 365.918 191.672 365.788 191.176 365.786ZM198.471 368.836C198.475 367.62 198.727 366.557 199.226 365.646C199.725 364.72 200.416 363.978 201.298 363.422C202.18 362.865 203.205 362.532 204.373 362.424C205.542 362.3 206.789 362.441 208.116 362.845C208.114 363.453 208.112 364.069 208.109 364.693C208.107 365.317 208.105 365.933 208.103 366.541C207.177 366.09 206.289 365.879 205.441 365.908C204.593 365.937 203.896 366.199 203.35 366.693C202.805 367.171 202.53 367.89 202.527 368.85C202.524 369.81 202.793 370.539 203.335 371.037C203.878 371.519 204.573 371.777 205.421 371.812C206.269 371.831 207.157 371.626 208.087 371.197C208.085 371.805 208.083 372.421 208.08 373.045C208.078 373.669 208.076 374.285 208.074 374.893C206.745 375.289 205.496 375.42 204.329 375.288C203.161 375.172 202.138 374.833 201.26 374.269C200.382 373.706 199.697 372.968 199.204 372.054C198.711 371.125 198.467 370.052 198.471 368.836ZM211.831 375.098C211.836 373.626 211.842 372.146 211.847 370.658C211.852 369.17 211.857 367.698 211.862 366.242C211.542 366.241 211.214 366.24 210.878 366.239C210.558 366.238 210.238 366.237 209.918 366.235C209.92 365.643 209.922 365.051 209.924 364.459C209.926 363.868 209.928 363.276 209.93 362.684C210.25 362.685 210.57 362.686 210.89 362.687C211.226 362.688 211.554 362.689 211.874 362.69C211.876 362.13 211.878 361.578 211.88 361.034C211.882 360.474 211.884 359.922 211.886 359.378C212.542 359.381 213.206 359.383 213.878 359.385C214.55 359.388 215.206 359.39 215.846 359.392C215.844 359.936 215.842 360.488 215.84 361.048C215.838 361.592 215.836 362.144 215.834 362.704C216.202 362.705 216.578 362.707 216.962 362.708C217.346 362.709 217.722 362.711 218.09 362.712C218.088 363.304 218.086 363.896 218.084 364.488C218.082 365.08 218.08 365.672 218.078 366.264C217.71 366.263 217.334 366.261 216.95 366.26C216.566 366.259 216.19 366.257 215.822 366.256C215.817 367.712 215.812 369.184 215.807 370.672C215.802 372.16 215.796 373.64 215.791 375.112C215.151 375.11 214.495 375.107 213.823 375.105C213.151 375.103 212.487 375.1 211.831 375.098ZM219.957 375.126C219.964 373.078 219.971 371.014 219.979 368.934C219.986 366.838 219.993 364.766 220 362.718C220.656 362.721 221.32 362.723 221.992 362.725C222.664 362.728 223.32 362.73 223.96 362.732C223.96 362.844 223.959 362.956 223.959 363.068C223.959 363.18 223.958 363.292 223.958 363.404C224.455 363.054 225.016 362.792 225.641 362.618C226.265 362.444 226.945 362.399 227.681 362.481C227.679 363.121 227.677 363.769 227.674 364.425C227.672 365.081 227.67 365.729 227.668 366.369C226.404 366.189 225.468 366.297 224.858 366.695C224.249 367.077 223.943 367.708 223.94 368.588C223.936 369.66 223.932 370.748 223.929 371.852C223.925 372.956 223.921 374.052 223.917 375.14C223.277 375.138 222.621 375.136 221.949 375.133C221.277 375.131 220.613 375.129 219.957 375.126ZM235.187 375.563C234.259 375.56 233.396 375.397 232.597 375.074C231.798 374.735 231.104 374.269 230.514 373.675C229.924 373.065 229.462 372.359 229.129 371.558C228.812 370.757 228.655 369.885 228.658 368.941C228.662 367.997 228.825 367.125 229.147 366.326C229.486 365.527 229.953 364.833 230.547 364.243C231.141 363.653 231.838 363.2 232.639 362.882C233.44 362.549 234.305 362.384 235.233 362.387C236.177 362.391 237.04 362.562 237.823 362.9C238.622 363.223 239.317 363.682 239.907 364.276C240.496 364.87 240.95 365.567 241.267 366.368C241.6 367.169 241.765 368.042 241.762 368.986C241.759 369.93 241.588 370.801 241.249 371.6C240.926 372.399 240.468 373.102 239.874 373.708C239.28 374.297 238.582 374.759 237.781 375.092C236.996 375.41 236.131 375.567 235.187 375.563ZM235.2 371.987C235.984 371.99 236.609 371.712 237.075 371.154C237.557 370.579 237.799 369.852 237.802 368.972C237.805 368.076 237.568 367.355 237.09 366.81C236.628 366.248 236.005 365.966 235.221 365.963C234.437 365.961 233.804 366.238 233.322 366.797C232.856 367.339 232.621 368.058 232.618 368.954C232.615 369.834 232.845 370.563 233.307 371.141C233.785 371.702 234.416 371.985 235.2 371.987ZM243.699 375.209C243.706 373.161 243.713 371.097 243.721 369.017C243.728 366.921 243.735 364.849 243.742 362.801C244.398 362.803 245.062 362.805 245.734 362.808C246.406 362.81 247.062 362.812 247.702 362.815C247.702 362.927 247.701 363.031 247.701 363.127C247.701 363.223 247.7 363.327 247.7 363.439C248.133 363.136 248.614 362.906 249.142 362.748C249.687 362.574 250.271 362.488 250.895 362.49C251.807 362.493 252.607 362.704 253.293 363.122C253.996 363.54 254.538 364.142 254.919 364.928C255.316 365.697 255.513 366.626 255.509 367.714C255.505 368.962 255.501 370.218 255.496 371.482C255.492 372.746 255.487 374.002 255.483 375.25C254.843 375.248 254.187 375.245 253.515 375.243C252.843 375.241 252.179 375.238 251.523 375.236C251.527 374.084 251.531 372.916 251.535 371.732C251.539 370.548 251.543 369.38 251.547 368.228C251.55 367.588 251.399 367.075 251.097 366.69C250.81 366.289 250.347 366.088 249.707 366.086C249.067 366.083 248.57 366.266 248.217 366.632C247.864 366.999 247.686 367.527 247.684 368.215C247.68 369.367 247.675 370.535 247.671 371.719C247.667 372.903 247.663 374.071 247.659 375.223C247.019 375.22 246.363 375.218 245.691 375.216C245.019 375.213 244.355 375.211 243.699 375.209ZM260.086 361.442C259.622 361.44 259.198 361.327 258.815 361.101C258.448 360.876 258.153 360.579 257.93 360.21C257.707 359.841 257.597 359.433 257.598 358.985C257.6 358.537 257.713 358.137 257.938 357.786C258.164 357.419 258.461 357.124 258.829 356.901C259.214 356.679 259.639 356.568 260.103 356.57C260.551 356.571 260.958 356.685 261.325 356.91C261.709 357.135 262.012 357.432 262.234 357.801C262.457 358.154 262.568 358.554 262.566 359.002C262.565 359.45 262.451 359.858 262.226 360.225C262.001 360.592 261.696 360.887 261.311 361.11C260.942 361.333 260.534 361.443 260.086 361.442ZM258.046 375.259C258.053 373.211 258.06 371.147 258.067 369.067C258.074 366.971 258.082 364.899 258.089 362.851C258.745 362.853 259.409 362.855 260.081 362.858C260.753 362.86 261.409 362.862 262.049 362.864C262.042 364.912 262.034 366.984 262.027 369.08C262.02 371.16 262.013 373.224 262.006 375.272C261.366 375.27 260.71 375.268 260.038 375.266C259.366 375.263 258.702 375.261 258.046 375.259ZM264.119 369.064C264.123 367.848 264.375 366.785 264.874 365.874C265.373 364.948 266.064 364.206 266.946 363.649C267.828 363.093 268.853 362.76 270.021 362.652C271.19 362.528 272.437 362.669 273.764 363.073C273.762 363.681 273.76 364.297 273.757 364.921C273.755 365.545 273.753 366.161 273.751 366.769C272.825 366.318 271.937 366.107 271.089 366.136C270.241 366.165 269.544 366.426 268.998 366.921C268.453 367.399 268.178 368.118 268.175 369.078C268.172 370.038 268.441 370.767 268.983 371.265C269.526 371.746 270.221 372.005 271.069 372.04C271.917 372.059 272.805 371.854 273.735 371.425C273.733 372.033 273.731 372.649 273.728 373.273C273.726 373.897 273.724 374.513 273.722 375.121C272.393 375.516 271.144 375.648 269.977 375.516C268.809 375.4 267.786 375.06 266.908 374.497C266.03 373.934 265.345 373.196 264.852 372.282C264.359 371.353 264.115 370.28 264.119 369.064ZM289.502 375.368C289.503 375.24 289.503 375.12 289.504 375.008C289.504 374.88 289.504 374.76 289.505 374.648C289.104 374.982 288.647 375.237 288.134 375.411C287.638 375.601 287.101 375.695 286.525 375.693C285.709 375.691 284.942 375.528 284.223 375.205C283.504 374.883 282.866 374.433 282.308 373.855C281.766 373.261 281.336 372.563 281.019 371.762C280.718 370.961 280.569 370.081 280.572 369.121C280.575 368.145 280.73 367.257 281.037 366.458C281.36 365.659 281.794 364.973 282.34 364.399C282.902 363.825 283.544 363.387 284.265 363.086C284.986 362.768 285.747 362.611 286.547 362.613C287.123 362.615 287.666 362.713 288.178 362.907C288.689 363.085 289.144 363.335 289.543 363.656C289.546 362.696 289.55 361.728 289.553 360.752C289.556 359.776 289.56 358.808 289.563 357.848C290.219 357.85 290.883 357.853 291.555 357.855C292.227 357.857 292.883 357.859 293.523 357.862C293.513 360.758 293.503 363.678 293.493 366.622C293.483 369.566 293.472 372.486 293.462 375.382C292.822 375.379 292.166 375.377 291.494 375.375C290.822 375.372 290.158 375.37 289.502 375.368ZM287.065 372.191C287.833 372.194 288.45 371.916 288.916 371.358C289.382 370.799 289.617 370.064 289.62 369.152C289.623 368.24 289.394 367.511 288.932 366.966C288.469 366.404 287.854 366.122 287.086 366.119C286.302 366.117 285.678 366.386 285.212 366.929C284.762 367.471 284.535 368.207 284.532 369.135C284.529 370.063 284.75 370.807 285.196 371.369C285.658 371.914 286.281 372.189 287.065 372.191ZM296.222 375.391C296.229 373.343 296.237 371.279 296.244 369.199C296.251 367.103 296.258 365.031 296.265 362.983C296.921 362.985 297.585 362.988 298.257 362.99C298.929 362.992 299.585 362.995 300.225 362.997C300.225 363.109 300.225 363.221 300.224 363.333C300.224 363.445 300.223 363.557 300.223 363.669C300.72 363.319 301.281 363.057 301.906 362.883C302.53 362.709 303.211 362.663 303.946 362.746C303.944 363.386 303.942 364.034 303.94 364.69C303.937 365.346 303.935 365.994 303.933 366.634C302.669 366.453 301.733 366.562 301.124 366.96C300.514 367.342 300.208 367.973 300.205 368.853C300.201 369.925 300.198 371.013 300.194 372.117C300.19 373.221 300.186 374.317 300.182 375.405C299.542 375.403 298.886 375.4 298.214 375.398C297.542 375.396 296.878 375.393 296.222 375.391ZM317.326 363.056C317.319 365.104 317.312 367.176 317.304 369.272C317.297 371.352 317.29 373.416 317.283 375.464C316.643 375.462 315.987 375.46 315.315 375.457C314.643 375.455 313.979 375.453 313.323 375.451C313.323 375.339 313.324 375.235 313.324 375.139C313.324 375.043 313.325 374.939 313.325 374.827C312.892 375.129 312.403 375.359 311.859 375.517C311.33 375.692 310.754 375.778 310.13 375.775C309.218 375.772 308.411 375.561 307.708 375.143C307.021 374.725 306.48 374.123 306.082 373.337C305.701 372.552 305.512 371.623 305.516 370.551C305.52 369.303 305.525 368.047 305.529 366.783C305.533 365.519 305.538 364.263 305.542 363.015C306.198 363.018 306.862 363.02 307.534 363.022C308.206 363.025 308.862 363.027 309.502 363.029C309.498 364.181 309.494 365.349 309.49 366.533C309.486 367.717 309.482 368.885 309.478 370.037C309.476 370.677 309.618 371.198 309.904 371.599C310.207 371.984 310.678 372.177 311.318 372.18C311.958 372.182 312.455 371.999 312.808 371.633C313.161 371.266 313.339 370.739 313.342 370.051C313.346 368.899 313.35 367.731 313.354 366.547C313.358 365.363 313.362 364.195 313.366 363.043C314.022 363.045 314.686 363.047 315.358 363.05C316.03 363.052 316.686 363.054 317.326 363.056ZM319.917 375.473C319.925 373.425 319.932 371.361 319.939 369.281C319.946 367.185 319.953 365.113 319.961 363.065C320.617 363.068 321.281 363.07 321.953 363.072C322.625 363.075 323.281 363.077 323.921 363.079C323.92 363.191 323.92 363.295 323.919 363.391C323.919 363.487 323.919 363.591 323.918 363.703C324.335 363.401 324.8 363.17 325.313 363.012C325.825 362.838 326.354 362.752 326.898 362.754C327.49 362.756 328.033 362.862 328.529 363.071C329.024 363.265 329.447 363.554 329.798 363.94C330.311 363.573 330.888 363.287 331.529 363.082C332.185 362.876 332.858 362.774 333.546 362.777C334.522 362.78 335.361 362.983 336.064 363.385C336.782 363.788 337.332 364.358 337.714 365.095C338.111 365.833 338.308 366.721 338.304 367.761C338.3 369.041 338.295 370.337 338.291 371.649C338.286 372.961 338.282 374.257 338.277 375.537C337.637 375.535 336.981 375.533 336.309 375.53C335.637 375.528 334.973 375.526 334.317 375.523C334.322 374.323 334.326 373.107 334.33 371.875C334.334 370.643 334.339 369.427 334.343 368.227C334.345 367.683 334.218 367.243 333.963 366.906C333.725 366.553 333.333 366.376 332.789 366.374C332.261 366.372 331.845 366.539 331.539 366.874C331.25 367.193 331.105 367.64 331.103 368.216C331.099 369.416 331.094 370.632 331.09 371.864C331.086 373.096 331.082 374.312 331.077 375.512C330.437 375.51 329.781 375.508 329.109 375.505C328.437 375.503 327.773 375.501 327.117 375.498C327.122 374.298 327.126 373.082 327.13 371.85C327.134 370.618 327.139 369.402 327.143 368.202C327.145 367.658 327.018 367.218 326.763 366.881C326.525 366.528 326.133 366.351 325.589 366.349C325.061 366.347 324.645 366.514 324.339 366.849C324.05 367.168 323.905 367.615 323.903 368.191C323.899 369.391 323.894 370.607 323.89 371.839C323.886 373.071 323.882 374.287 323.877 375.487C323.237 375.485 322.581 375.483 321.909 375.48C321.237 375.478 320.573 375.476 319.917 375.473ZM350.223 371.739C350.22 372.731 349.937 373.546 349.375 374.184C348.828 374.806 348.091 375.259 347.162 375.544C346.233 375.829 345.193 375.945 344.041 375.893C342.905 375.857 341.745 375.669 340.563 375.329C340.565 374.721 340.567 374.097 340.569 373.457C340.571 372.817 340.574 372.193 340.576 371.585C341.247 371.891 341.918 372.134 342.589 372.312C343.261 372.474 343.868 372.573 344.412 372.606C344.956 372.64 345.396 372.602 345.732 372.491C346.069 372.364 346.238 372.157 346.239 371.869C346.239 371.645 346.096 371.468 345.808 371.339C345.537 371.21 345.177 371.097 344.73 371C344.282 370.886 343.803 370.756 343.291 370.611C342.796 370.449 342.324 370.231 341.877 369.958C341.43 369.668 341.064 369.291 340.777 368.826C340.507 368.345 340.373 367.728 340.376 366.976C340.379 366.08 340.637 365.321 341.152 364.699C341.682 364.061 342.387 363.583 343.269 363.266C344.15 362.933 345.134 362.769 346.222 362.773C347.31 362.776 348.422 362.964 349.556 363.336C349.554 363.944 349.552 364.568 349.55 365.208C349.548 365.848 349.545 366.472 349.543 367.08C348.649 366.645 347.81 366.354 347.026 366.207C346.243 366.061 345.611 366.043 345.13 366.153C344.65 366.247 344.409 366.462 344.408 366.798C344.407 367.022 344.543 367.199 344.814 367.328C345.102 367.441 345.462 367.546 345.893 367.644C346.341 367.741 346.813 367.871 347.308 368.032C347.819 368.194 348.291 368.42 348.722 368.709C349.169 368.983 349.527 369.368 349.798 369.865C350.084 370.346 350.226 370.971 350.223 371.739Z" fill="#2F4ECD"/>
</svg>
