<svg width="582" height="687" viewBox="0 0 582 687" fill="none" xmlns="http://www.w3.org/2000/svg">
<rect x="171.259" y="68.0381" width="38.8501" height="61.3104" transform="rotate(25.8168 171.259 68.0381)" fill="#DCA645"/>
<rect x="343.232" y="68.3773" width="38.8501" height="61.3104" transform="rotate(25.8168 343.232 68.3773)" fill="#DCA645"/>
<rect x="98.6926" y="98.4872" width="356.329" height="424.924" rx="43.0994" transform="rotate(0.198902 98.6926 98.4872)" fill="#F4E3D5"/>
<rect x="171.644" y="67.7816" width="38.8502" height="61.3104" transform="rotate(0.198902 171.644 67.7816)" fill="#FECC73"/>
<mask id="mask0_50_481" style="mask-type:alpha" maskUnits="userSpaceOnUse" x="97" y="440" width="398" height="146">
<rect x="97.5042" y="440.852" width="397" height="143.26" transform="rotate(0.198902 97.5042 440.852)" fill="#6CBDAA"/>
</mask>
<g mask="url(#mask0_50_481)">
<path d="M98.543 141.586C98.6256 117.783 117.989 98.5542 141.792 98.6368L411.92 99.5746C435.723 99.6572 454.952 119.02 454.87 142.823L453.694 481.546C453.611 505.349 434.248 524.578 410.445 524.496L140.317 523.558C116.514 523.475 97.2845 504.112 97.3671 480.309L98.543 141.586Z" fill="#FECC73"/>
</g>
<rect x="343.433" y="68.3779" width="38.8502" height="61.3104" transform="rotate(0.198902 343.433 68.3779)" fill="#FECC73"/>
<path d="M389.181 190.897C384.12 182.894 366.818 174.786 373.76 183.571C379.123 190.358 384.737 191.143 389.181 190.897Z" stroke="#404040" stroke-width="2.42813"/>
<path d="M395.674 194.823C393.464 204.015 379.692 217.205 383.432 206.672C386.321 198.536 391.385 196.005 395.674 194.823Z" stroke="#404040" stroke-width="2.42813"/>
<path d="M137.214 193.319L387.007 194.186" stroke="#404040" stroke-width="2.42813"/>
<ellipse cx="397.666" cy="182.568" rx="3.79488" ry="7.163" transform="rotate(0.198902 397.666 182.568)" fill="#FEFFA7"/>
<ellipse cx="3.78246" cy="7.18668" rx="3.78246" ry="7.18668" transform="matrix(0.706978 0.707235 -0.711871 0.70231 407.877 178.456)" fill="#FEFFA7"/>
<ellipse cx="3.77114" cy="7.20812" rx="3.77114" ry="7.20812" transform="matrix(0.212116 0.977244 -0.977825 0.209426 393.888 190.472)" fill="#FEFFA7"/>
<ellipse cx="3.77555" cy="7.19978" rx="3.77555" ry="7.19978" transform="matrix(-0.477231 0.878778 -0.881377 -0.472414 397.248 187.063)" fill="#FEFFA7"/>
<ellipse cx="3.79179" cy="7.16891" rx="3.79179" ry="7.16891" transform="matrix(-0.93509 -0.35441 0.358472 -0.93354 394.776 210.886)" fill="#FEFFA7"/>
<ellipse cx="3.78246" cy="7.18668" rx="3.78246" ry="7.18668" transform="matrix(-0.711871 0.70231 -0.706978 -0.707235 411.818 203.795)" fill="#FEFFA7"/>
<ellipse cx="408.632" cy="193.916" rx="3.77" ry="7.21028" transform="rotate(90.1989 408.632 193.916)" fill="#FEFFA7"/>
<ellipse cx="397.821" cy="192.706" rx="6.41593" ry="6.37385" transform="rotate(0.198902 397.821 192.706)" fill="#FFB1B1"/>
<path d="M389.016 238.245C383.956 230.243 366.653 222.134 373.596 230.92C378.958 237.706 384.572 238.491 389.016 238.245Z" stroke="#404040" stroke-width="2.42813"/>
<path d="M395.51 242.171C393.299 251.363 379.527 264.553 383.268 254.02C386.157 245.884 391.221 243.353 395.51 242.171Z" stroke="#404040" stroke-width="2.42813"/>
<path d="M137.049 240.667L386.842 241.534" stroke="#404040" stroke-width="2.42813"/>
<ellipse cx="397.501" cy="229.916" rx="3.79488" ry="7.163" transform="rotate(0.198902 397.501 229.916)" fill="#FEFFA7"/>
<ellipse cx="3.78246" cy="7.18668" rx="3.78246" ry="7.18668" transform="matrix(0.706978 0.707235 -0.711871 0.70231 407.713 225.804)" fill="#FEFFA7"/>
<ellipse cx="3.77114" cy="7.20812" rx="3.77114" ry="7.20812" transform="matrix(0.212116 0.977244 -0.977825 0.209426 393.724 237.82)" fill="#FEFFA7"/>
<ellipse cx="3.77555" cy="7.19978" rx="3.77555" ry="7.19978" transform="matrix(-0.477231 0.878778 -0.881377 -0.472414 397.084 234.411)" fill="#FEFFA7"/>
<ellipse cx="3.79179" cy="7.16891" rx="3.79179" ry="7.16891" transform="matrix(-0.93509 -0.35441 0.358472 -0.93354 394.611 258.234)" fill="#FEFFA7"/>
<ellipse cx="3.78246" cy="7.18668" rx="3.78246" ry="7.18668" transform="matrix(-0.711871 0.70231 -0.706978 -0.707235 411.654 251.143)" fill="#FEFFA7"/>
<ellipse cx="408.467" cy="241.264" rx="3.77" ry="7.21028" transform="rotate(90.1989 408.467 241.264)" fill="#FEFFA7"/>
<ellipse cx="397.656" cy="240.054" rx="6.41593" ry="6.37385" transform="rotate(0.198902 397.656 240.054)" fill="#FFB1B1"/>
<path d="M388.85 286.2C383.789 278.198 366.487 270.09 373.429 278.875C378.792 285.662 384.405 286.447 388.85 286.2Z" stroke="#404040" stroke-width="2.42813"/>
<path d="M395.343 290.127C393.133 299.318 379.36 312.508 383.101 301.976C385.99 293.84 391.054 291.308 395.343 290.127Z" stroke="#404040" stroke-width="2.42813"/>
<path d="M136.883 288.622L386.676 289.49" stroke="#404040" stroke-width="2.42813"/>
<ellipse cx="397.335" cy="277.871" rx="3.79488" ry="7.163" transform="rotate(0.198902 397.335 277.871)" fill="#FEFFA7"/>
<ellipse cx="3.78246" cy="7.18668" rx="3.78246" ry="7.18668" transform="matrix(0.706978 0.707235 -0.711871 0.70231 407.546 273.76)" fill="#FEFFA7"/>
<ellipse cx="3.77114" cy="7.20812" rx="3.77114" ry="7.20812" transform="matrix(0.212116 0.977244 -0.977825 0.209426 393.557 285.775)" fill="#FEFFA7"/>
<ellipse cx="3.77555" cy="7.19978" rx="3.77555" ry="7.19978" transform="matrix(-0.477231 0.878778 -0.881377 -0.472414 396.917 282.366)" fill="#FEFFA7"/>
<ellipse cx="3.79179" cy="7.16891" rx="3.79179" ry="7.16891" transform="matrix(-0.93509 -0.35441 0.358472 -0.93354 394.445 306.189)" fill="#FEFFA7"/>
<ellipse cx="3.78246" cy="7.18668" rx="3.78246" ry="7.18668" transform="matrix(-0.711871 0.70231 -0.706978 -0.707235 411.487 299.099)" fill="#FEFFA7"/>
<ellipse cx="408.301" cy="289.22" rx="3.77" ry="7.21028" transform="rotate(90.1989 408.301 289.22)" fill="#FEFFA7"/>
<ellipse cx="397.489" cy="288.009" rx="6.41593" ry="6.37385" transform="rotate(0.198902 397.489 288.009)" fill="#FFB1B1"/>
<path d="M388.683 334.156C383.623 326.154 366.32 318.045 373.263 326.831C378.626 333.617 384.239 334.402 388.683 334.156Z" stroke="#404040" stroke-width="2.42813"/>
<path d="M395.177 338.082C392.966 347.274 379.194 360.464 382.935 349.931C385.824 341.796 390.888 339.264 395.177 338.082Z" stroke="#404040" stroke-width="2.42813"/>
<path d="M136.717 336.578L386.509 337.445" stroke="#404040" stroke-width="2.42813"/>
<ellipse cx="397.169" cy="325.827" rx="3.79488" ry="7.163" transform="rotate(0.198902 397.169 325.827)" fill="#FEFFA7"/>
<ellipse cx="3.78246" cy="7.18668" rx="3.78246" ry="7.18668" transform="matrix(0.706978 0.707235 -0.711871 0.70231 407.38 321.716)" fill="#FEFFA7"/>
<ellipse cx="3.77114" cy="7.20812" rx="3.77114" ry="7.20812" transform="matrix(0.212116 0.977244 -0.977825 0.209426 393.391 333.731)" fill="#FEFFA7"/>
<ellipse cx="3.77555" cy="7.19978" rx="3.77555" ry="7.19978" transform="matrix(-0.477231 0.878778 -0.881377 -0.472414 396.751 330.322)" fill="#FEFFA7"/>
<ellipse cx="3.79179" cy="7.16891" rx="3.79179" ry="7.16891" transform="matrix(-0.93509 -0.35441 0.358472 -0.93354 394.279 354.145)" fill="#FEFFA7"/>
<ellipse cx="3.78246" cy="7.18668" rx="3.78246" ry="7.18668" transform="matrix(-0.711871 0.70231 -0.706978 -0.707235 411.321 347.054)" fill="#FEFFA7"/>
<ellipse cx="408.135" cy="337.175" rx="3.77" ry="7.21028" transform="rotate(90.1989 408.135 337.175)" fill="#FEFFA7"/>
<ellipse cx="397.323" cy="335.965" rx="6.41593" ry="6.37385" transform="rotate(0.198902 397.323 335.965)" fill="#FFB1B1"/>
<path d="M388.517 382.111C383.456 374.109 366.154 366 373.096 374.786C378.459 381.572 384.073 382.358 388.517 382.111Z" stroke="#404040" stroke-width="2.42813"/>
<path d="M395.011 386.037C392.8 395.229 379.028 408.419 382.768 397.887C385.658 389.751 390.722 387.219 395.011 386.037Z" stroke="#404040" stroke-width="2.42813"/>
<path d="M136.55 384.533L386.343 385.4" stroke="#404040" stroke-width="2.42813"/>
<ellipse cx="397.002" cy="373.782" rx="3.79488" ry="7.163" transform="rotate(0.198902 397.002 373.782)" fill="#FEFFA7"/>
<ellipse cx="3.78246" cy="7.18668" rx="3.78246" ry="7.18668" transform="matrix(0.706978 0.707235 -0.711871 0.70231 407.213 369.671)" fill="#FEFFA7"/>
<ellipse cx="3.77114" cy="7.20812" rx="3.77114" ry="7.20812" transform="matrix(0.212116 0.977244 -0.977825 0.209426 393.225 381.686)" fill="#FEFFA7"/>
<ellipse cx="3.77555" cy="7.19978" rx="3.77555" ry="7.19978" transform="matrix(-0.477231 0.878778 -0.881377 -0.472414 396.584 378.277)" fill="#FEFFA7"/>
<ellipse cx="3.79179" cy="7.16891" rx="3.79179" ry="7.16891" transform="matrix(-0.93509 -0.35441 0.358472 -0.93354 394.112 402.1)" fill="#FEFFA7"/>
<ellipse cx="3.78246" cy="7.18668" rx="3.78246" ry="7.18668" transform="matrix(-0.711871 0.70231 -0.706978 -0.707235 411.154 395.01)" fill="#FEFFA7"/>
<ellipse cx="407.968" cy="385.13" rx="3.77" ry="7.21028" transform="rotate(90.1989 407.968 385.13)" fill="#FEFFA7"/>
<ellipse cx="397.157" cy="383.92" rx="6.41593" ry="6.37385" transform="rotate(0.198902 397.157 383.92)" fill="#FFB1B1"/>
<path d="M138.242 184.73C138.252 182.042 138.261 179.322 138.271 176.57C138.28 173.818 138.29 171.098 138.299 168.41C139.915 168.416 141.547 168.421 143.195 168.427C144.843 168.433 146.475 168.438 148.091 168.444C148.089 169.052 148.087 169.676 148.085 170.316C148.082 170.956 148.08 171.58 148.078 172.188C147.15 172.185 146.214 172.181 145.27 172.178C144.342 172.175 143.414 172.172 142.486 172.169C142.485 172.569 142.483 172.969 142.482 173.369C142.481 173.753 142.479 174.145 142.478 174.545C143.326 174.547 144.182 174.55 145.046 174.553C145.91 174.556 146.758 174.559 147.59 174.562C147.588 175.154 147.586 175.754 147.584 176.362C147.581 176.97 147.579 177.578 147.577 178.186C146.745 178.183 145.897 178.18 145.033 178.177C144.169 178.174 143.313 178.171 142.465 178.169C142.464 178.633 142.462 179.105 142.46 179.585C142.459 180.065 142.457 180.537 142.455 181.001C143.383 181.004 144.311 181.007 145.239 181.01C146.183 181.013 147.119 181.017 148.047 181.02C148.045 181.628 148.043 182.252 148.041 182.892C148.039 183.532 148.037 184.156 148.034 184.764C146.418 184.758 144.786 184.753 143.138 184.747C141.49 184.741 139.858 184.736 138.242 184.73ZM149.717 172.362C150.453 172.364 151.189 172.367 151.925 172.369C152.661 172.372 153.397 172.374 154.133 172.377C154.419 172.858 154.714 173.347 155.016 173.844C155.318 174.325 155.613 174.806 155.899 175.287C156.205 174.808 156.51 174.329 156.816 173.85C157.122 173.355 157.427 172.868 157.733 172.389C158.453 172.392 159.181 172.395 159.917 172.397C160.653 172.4 161.381 172.402 162.101 172.405C161.474 173.378 160.83 174.36 160.171 175.35C159.527 176.34 158.892 177.33 158.265 178.319C158.917 179.394 159.577 180.476 160.245 181.566C160.913 182.657 161.566 183.739 162.202 184.813C161.466 184.811 160.73 184.808 159.994 184.805C159.258 184.803 158.522 184.8 157.786 184.798C157.468 184.253 157.142 183.708 156.808 183.162C156.49 182.601 156.172 182.048 155.853 181.503C155.532 182.046 155.194 182.597 154.84 183.156C154.502 183.698 154.172 184.241 153.85 184.784C153.13 184.782 152.402 184.779 151.666 184.776C150.93 184.774 150.202 184.771 149.482 184.769C150.142 183.731 150.809 182.678 151.485 181.608C152.161 180.522 152.829 179.461 153.488 178.423C152.868 177.429 152.239 176.418 151.603 175.392C150.966 174.366 150.338 173.356 149.717 172.362ZM167.59 188.672C166.95 188.67 166.294 188.667 165.622 188.665C164.95 188.663 164.286 188.66 163.63 188.658C163.639 185.986 163.648 183.282 163.658 180.546C163.667 177.794 163.677 175.082 163.686 172.41C164.342 172.412 165.006 172.415 165.678 172.417C166.35 172.419 167.006 172.422 167.646 172.424C167.646 172.536 167.645 172.648 167.645 172.76C167.644 172.872 167.644 172.992 167.644 173.12C168.045 172.801 168.502 172.555 169.014 172.381C169.527 172.19 170.071 172.096 170.647 172.098C171.447 172.101 172.207 172.264 172.925 172.586C173.644 172.893 174.275 173.335 174.817 173.913C175.375 174.491 175.804 175.18 176.106 175.981C176.423 176.782 176.58 177.671 176.576 178.647C176.573 179.607 176.41 180.486 176.087 181.285C175.78 182.084 175.346 182.779 174.784 183.369C174.238 183.943 173.604 184.389 172.883 184.706C172.162 185.024 171.394 185.181 170.578 185.178C170.002 185.176 169.458 185.078 168.947 184.884C168.451 184.707 168.004 184.449 167.605 184.112C167.603 184.864 167.6 185.624 167.597 186.392C167.595 187.16 167.592 187.92 167.59 188.672ZM170.062 181.672C170.846 181.675 171.463 181.405 171.913 180.863C172.379 180.304 172.613 179.561 172.616 178.633C172.62 177.705 172.39 176.968 171.928 176.423C171.482 175.877 170.867 175.603 170.083 175.6C169.315 175.598 168.698 175.876 168.232 176.434C167.766 176.976 167.532 177.704 167.528 178.616C167.525 179.528 167.755 180.264 168.217 180.826C168.679 181.388 169.294 181.67 170.062 181.672ZM178.646 184.87C178.656 181.974 178.666 179.054 178.676 176.11C178.686 173.166 178.696 170.246 178.706 167.35C179.362 167.353 180.026 167.355 180.698 167.357C181.37 167.36 182.026 167.362 182.666 167.364C182.656 170.26 182.646 173.18 182.636 176.124C182.626 179.068 182.616 181.988 182.606 184.884C181.966 184.882 181.31 184.879 180.638 184.877C179.966 184.875 179.302 184.872 178.646 184.87ZM191.248 185.298C190.32 185.295 189.457 185.132 188.658 184.809C187.859 184.47 187.164 184.004 186.575 183.41C185.985 182.8 185.523 182.094 185.19 181.293C184.873 180.492 184.716 179.619 184.719 178.675C184.722 177.731 184.885 176.86 185.208 176.061C185.547 175.262 186.013 174.568 186.607 173.978C187.201 173.388 187.899 172.934 188.7 172.617C189.501 172.284 190.366 172.119 191.294 172.122C192.238 172.125 193.101 172.296 193.884 172.635C194.683 172.958 195.377 173.416 195.967 174.01C196.557 174.604 197.011 175.302 197.328 176.103C197.661 176.904 197.826 177.777 197.823 178.721C197.82 179.665 197.649 180.536 197.31 181.335C196.987 182.134 196.529 182.836 195.934 183.442C195.34 184.032 194.643 184.494 193.842 184.827C193.057 185.144 192.192 185.301 191.248 185.298ZM191.26 181.722C192.044 181.725 192.669 181.447 193.135 180.888C193.617 180.314 193.86 179.587 193.863 178.707C193.866 177.811 193.629 177.09 193.15 176.544C192.688 175.983 192.065 175.701 191.281 175.698C190.497 175.695 189.864 175.973 189.382 176.531C188.917 177.074 188.682 177.793 188.679 178.689C188.676 179.569 188.905 180.298 189.367 180.875C189.845 181.437 190.476 181.719 191.26 181.722ZM199.76 184.943C199.767 182.895 199.774 180.831 199.781 178.751C199.789 176.656 199.796 174.584 199.803 172.536C200.459 172.538 201.123 172.54 201.795 172.542C202.467 172.545 203.123 172.547 203.763 172.549C203.763 172.661 203.762 172.773 203.762 172.885C203.761 172.997 203.761 173.109 203.761 173.221C204.258 172.871 204.819 172.609 205.443 172.435C206.068 172.261 206.748 172.216 207.484 172.298C207.482 172.938 207.479 173.586 207.477 174.242C207.475 174.898 207.473 175.546 207.47 176.186C206.207 176.006 205.271 176.115 204.661 176.512C204.052 176.894 203.746 177.525 203.743 178.405C203.739 179.477 203.735 180.565 203.731 181.669C203.727 182.773 203.724 183.869 203.72 184.957C203.08 184.955 202.424 184.953 201.752 184.95C201.08 184.948 200.416 184.946 199.76 184.943ZM217.391 185.005C217.392 184.877 217.392 184.757 217.393 184.645C217.393 184.517 217.393 184.397 217.394 184.285C216.993 184.619 216.536 184.874 216.023 185.048C215.527 185.238 214.99 185.332 214.414 185.33C213.598 185.327 212.831 185.173 212.112 184.866C211.393 184.544 210.754 184.094 210.196 183.516C209.655 182.922 209.225 182.224 208.908 181.423C208.607 180.622 208.458 179.734 208.461 178.758C208.464 177.766 208.62 176.87 208.926 176.071C209.249 175.272 209.683 174.594 210.229 174.036C210.791 173.462 211.433 173.024 212.154 172.722C212.875 172.405 213.636 172.248 214.436 172.25C215.012 172.252 215.555 172.35 216.067 172.544C216.578 172.722 217.033 172.971 217.432 173.293C217.432 173.165 217.433 173.045 217.433 172.933C217.434 172.821 217.434 172.709 217.434 172.597C218.09 172.599 218.754 172.601 219.426 172.604C220.098 172.606 220.754 172.608 221.394 172.61C221.387 174.658 221.38 176.73 221.373 178.826C221.366 180.906 221.358 182.97 221.351 185.018C220.711 185.016 220.055 185.014 219.383 185.012C218.711 185.009 218.047 185.007 217.391 185.005ZM214.954 181.828C215.722 181.831 216.339 181.553 216.805 180.995C217.271 180.436 217.506 179.701 217.509 178.789C217.512 177.877 217.283 177.148 216.821 176.603C216.358 176.041 215.743 175.759 214.975 175.756C214.191 175.753 213.567 176.023 213.101 176.566C212.651 177.108 212.424 177.843 212.421 178.771C212.418 179.699 212.639 180.444 213.085 181.006C213.547 181.551 214.17 181.825 214.954 181.828ZM225.29 185.032C225.295 183.56 225.3 182.08 225.306 180.592C225.311 179.104 225.316 177.632 225.321 176.176C225.001 176.175 224.673 176.174 224.337 176.173C224.017 176.172 223.697 176.171 223.377 176.169C223.379 175.577 223.381 174.985 223.383 174.393C223.385 173.801 223.387 173.209 223.389 172.617C223.709 172.619 224.029 172.62 224.349 172.621C224.685 172.622 225.013 172.623 225.333 172.624C225.335 172.064 225.337 171.512 225.339 170.968C225.341 170.408 225.343 169.856 225.345 169.312C226.001 169.314 226.665 169.317 227.337 169.319C228.009 169.321 228.665 169.324 229.305 169.326C229.303 169.87 229.301 170.422 229.299 170.982C229.297 171.526 229.295 172.078 229.293 172.638C229.661 172.639 230.037 172.64 230.421 172.642C230.805 172.643 231.181 172.644 231.549 172.646C231.547 173.238 231.545 173.83 231.543 174.422C231.541 175.014 231.539 175.606 231.537 176.198C231.169 176.196 230.793 176.195 230.409 176.194C230.025 176.192 229.649 176.191 229.281 176.19C229.276 177.646 229.271 179.118 229.266 180.606C229.26 182.094 229.255 183.574 229.25 185.046C228.61 185.044 227.954 185.041 227.282 185.039C226.61 185.037 225.946 185.034 225.29 185.032ZM235.576 171.244C235.112 171.242 234.688 171.129 234.305 170.903C233.938 170.678 233.643 170.381 233.42 170.012C233.197 169.643 233.087 169.235 233.088 168.787C233.09 168.339 233.203 167.939 233.429 167.588C233.654 167.221 233.951 166.926 234.32 166.703C234.704 166.481 235.129 166.37 235.593 166.372C236.041 166.373 236.448 166.487 236.816 166.712C237.199 166.937 237.502 167.234 237.725 167.603C237.947 167.956 238.058 168.356 238.056 168.804C238.055 169.252 237.941 169.66 237.716 170.027C237.491 170.394 237.186 170.689 236.801 170.912C236.432 171.135 236.024 171.245 235.576 171.244ZM233.536 185.061C233.543 183.013 233.55 180.949 233.557 178.869C233.565 176.773 233.572 174.701 233.579 172.653C234.235 172.655 234.899 172.657 235.571 172.66C236.243 172.662 236.899 172.664 237.539 172.667C237.532 174.715 237.525 176.787 237.517 178.882C237.51 180.962 237.503 183.026 237.496 185.074C236.856 185.072 236.2 185.07 235.528 185.068C234.856 185.065 234.192 185.063 233.536 185.061ZM246.138 185.488C245.21 185.485 244.347 185.322 243.548 184.999C242.749 184.661 242.055 184.194 241.465 183.6C240.875 182.99 240.413 182.285 240.08 181.483C239.763 180.682 239.606 179.81 239.609 178.866C239.613 177.922 239.776 177.05 240.098 176.251C240.437 175.453 240.904 174.758 241.498 174.168C242.092 173.578 242.789 173.125 243.59 172.808C244.391 172.474 245.256 172.309 246.184 172.313C247.128 172.316 247.991 172.487 248.774 172.826C249.573 173.148 250.268 173.607 250.858 174.201C251.447 174.795 251.901 175.492 252.218 176.294C252.551 177.095 252.716 177.967 252.713 178.911C252.71 179.855 252.539 180.727 252.2 181.525C251.877 182.324 251.419 183.027 250.825 183.633C250.231 184.223 249.533 184.684 248.732 185.017C247.947 185.335 247.082 185.492 246.138 185.488ZM246.151 181.912C246.935 181.915 247.56 181.637 248.026 181.079C248.508 180.505 248.75 179.777 248.753 178.897C248.756 178.002 248.519 177.281 248.041 176.735C247.579 176.173 246.956 175.891 246.172 175.889C245.388 175.886 244.755 176.164 244.273 176.722C243.807 177.264 243.572 177.984 243.569 178.88C243.566 179.759 243.796 180.488 244.258 181.066C244.736 181.628 245.367 181.91 246.151 181.912ZM254.65 185.134C254.657 183.086 254.664 181.022 254.672 178.942C254.679 176.846 254.686 174.774 254.693 172.726C255.349 172.728 256.013 172.731 256.685 172.733C257.357 172.735 258.013 172.738 258.653 172.74C258.653 172.852 258.652 172.956 258.652 173.052C258.652 173.148 258.651 173.252 258.651 173.364C259.084 173.061 259.565 172.831 260.093 172.673C260.638 172.499 261.222 172.413 261.846 172.415C262.758 172.418 263.558 172.629 264.244 173.047C264.947 173.466 265.489 174.068 265.87 174.853C266.267 175.622 266.464 176.551 266.46 177.639C266.456 178.887 266.452 180.143 266.447 181.407C266.443 182.671 266.438 183.927 266.434 185.175C265.794 185.173 265.138 185.17 264.466 185.168C263.794 185.166 263.13 185.163 262.474 185.161C262.478 184.009 262.482 182.841 262.486 181.657C262.49 180.473 262.494 179.305 262.498 178.153C262.501 177.513 262.35 177.001 262.048 176.616C261.761 176.215 261.298 176.013 260.658 176.011C260.018 176.009 259.521 176.191 259.168 176.558C258.815 176.924 258.637 177.452 258.635 178.14C258.631 179.292 258.626 180.46 258.622 181.644C258.618 182.828 258.614 183.996 258.61 185.148C257.97 185.146 257.314 185.143 256.642 185.141C255.97 185.139 255.306 185.136 254.65 185.134ZM283.409 181.394C283.406 182.386 283.123 183.201 282.56 183.839C282.014 184.461 281.277 184.914 280.348 185.199C279.419 185.484 278.378 185.6 277.227 185.548C276.091 185.512 274.931 185.324 273.748 184.984C273.751 184.376 273.753 183.752 273.755 183.112C273.757 182.472 273.759 181.848 273.761 181.24C274.432 181.547 275.104 181.789 275.775 181.967C276.446 182.13 277.054 182.228 277.598 182.262C278.142 182.296 278.582 182.257 278.918 182.146C279.255 182.019 279.424 181.812 279.425 181.524C279.425 181.3 279.282 181.123 278.994 180.994C278.723 180.866 278.363 180.752 277.916 180.655C277.468 180.541 276.988 180.412 276.477 180.266C275.981 180.104 275.51 179.886 275.063 179.613C274.616 179.323 274.249 178.946 273.963 178.481C273.693 178 273.559 177.384 273.561 176.632C273.565 175.736 273.823 174.977 274.337 174.354C274.868 173.716 275.573 173.239 276.454 172.922C277.336 172.589 278.32 172.424 279.408 172.428C280.496 172.432 281.607 172.62 282.742 172.991C282.74 173.599 282.738 174.223 282.736 174.863C282.733 175.503 282.731 176.127 282.729 176.735C281.835 176.3 280.996 176.009 280.212 175.863C279.429 175.716 278.797 175.698 278.316 175.808C277.836 175.902 277.595 176.118 277.594 176.454C277.593 176.678 277.729 176.854 278 176.983C278.288 177.096 278.648 177.201 279.079 177.299C279.527 177.396 279.998 177.526 280.494 177.688C281.005 177.849 281.476 178.075 281.907 178.365C282.355 178.638 282.713 179.023 282.983 179.52C283.27 180.001 283.412 180.626 283.409 181.394ZM286.602 185.245C286.607 183.773 286.613 182.293 286.618 180.805C286.623 179.317 286.628 177.845 286.633 176.389C286.313 176.388 285.985 176.387 285.649 176.386C285.329 176.384 285.009 176.383 284.689 176.382C284.691 175.79 284.693 175.198 284.695 174.606C284.697 174.014 284.699 173.422 284.701 172.83C285.021 172.831 285.341 172.832 285.661 172.834C285.997 172.835 286.325 172.836 286.645 172.837C286.647 172.277 286.649 171.725 286.651 171.181C286.653 170.621 286.655 170.069 286.657 169.525C287.313 169.527 287.977 169.53 288.649 169.532C289.321 169.534 289.977 169.537 290.617 169.539C290.615 170.083 290.613 170.635 290.611 171.195C290.609 171.739 290.607 172.291 290.605 172.851C290.973 172.852 291.349 172.853 291.733 172.855C292.117 172.856 292.493 172.857 292.861 172.859C292.859 173.451 292.857 174.043 292.855 174.635C292.853 175.227 292.851 175.819 292.849 176.411C292.481 176.409 292.105 176.408 291.721 176.407C291.337 176.405 290.961 176.404 290.593 176.403C290.588 177.859 290.583 179.331 290.578 180.819C290.572 182.307 290.567 183.787 290.562 185.259C289.922 185.256 289.266 185.254 288.594 185.252C287.922 185.25 287.258 185.247 286.602 185.245ZM302.891 185.301C302.891 185.173 302.892 185.053 302.892 184.941C302.893 184.813 302.893 184.693 302.893 184.581C302.492 184.916 302.035 185.171 301.523 185.345C301.026 185.535 300.49 185.629 299.914 185.627C299.098 185.624 298.33 185.47 297.611 185.163C296.892 184.841 296.254 184.39 295.696 183.812C295.154 183.219 294.724 182.521 294.407 181.72C294.106 180.919 293.957 180.03 293.96 179.054C293.964 178.062 294.119 177.167 294.426 176.368C294.749 175.569 295.183 174.891 295.729 174.333C296.291 173.758 296.932 173.321 297.653 173.019C298.375 172.702 299.135 172.544 299.935 172.547C300.511 172.549 301.055 172.647 301.566 172.841C302.077 173.019 302.533 173.268 302.932 173.59C302.932 173.462 302.932 173.342 302.933 173.23C302.933 173.118 302.934 173.006 302.934 172.894C303.59 172.896 304.254 172.898 304.926 172.9C305.598 172.903 306.254 172.905 306.894 172.907C306.887 174.955 306.88 177.027 306.872 179.123C306.865 181.203 306.858 183.267 306.851 185.315C306.211 185.313 305.555 185.311 304.883 185.308C304.211 185.306 303.547 185.304 302.891 185.301ZM300.454 182.125C301.222 182.128 301.839 181.85 302.305 181.291C302.771 180.733 303.005 179.998 303.008 179.086C303.012 178.174 302.782 177.445 302.32 176.899C301.858 176.338 301.243 176.056 300.475 176.053C299.691 176.05 299.066 176.32 298.6 176.863C298.15 177.405 297.924 178.14 297.92 179.068C297.917 179.996 298.139 180.741 298.585 181.303C299.047 181.848 299.67 182.122 300.454 182.125ZM321.165 183.349C321.16 184.709 320.86 185.844 320.265 186.754C319.686 187.664 318.891 188.341 317.882 188.786C316.872 189.246 315.719 189.482 314.423 189.494C313.143 189.505 311.792 189.308 310.369 188.903C310.371 188.279 310.374 187.647 310.376 187.007C310.378 186.383 310.38 185.759 310.382 185.135C311.645 185.636 312.788 185.888 313.812 185.891C314.836 185.911 315.644 185.722 316.238 185.324C316.847 184.91 317.153 184.343 317.156 183.623C317.156 183.543 317.156 183.471 317.156 183.407C317.157 183.327 317.157 183.255 317.157 183.191C316.756 183.494 316.291 183.732 315.763 183.906C315.234 184.08 314.666 184.166 314.058 184.164C313.05 184.161 312.146 183.926 311.348 183.459C310.566 182.976 309.952 182.318 309.507 181.484C309.062 180.635 308.841 179.65 308.845 178.53C308.848 177.666 308.995 176.875 309.285 176.156C309.576 175.437 309.978 174.814 310.492 174.288C311.006 173.762 311.591 173.364 312.248 173.094C312.905 172.808 313.594 172.667 314.314 172.669C314.89 172.671 315.425 172.753 315.921 172.915C316.416 173.076 316.855 173.294 317.238 173.567C317.239 173.455 317.239 173.351 317.24 173.255C317.24 173.159 317.24 173.055 317.241 172.943C317.897 172.945 318.561 172.948 319.233 172.95C319.905 172.952 320.561 172.955 321.201 172.957C321.195 174.669 321.189 176.405 321.183 178.165C321.176 179.909 321.17 181.637 321.165 183.349ZM315.054 180.736C315.726 180.738 316.262 180.532 316.664 180.117C317.081 179.687 317.291 179.135 317.293 178.463C317.296 177.775 317.09 177.215 316.675 176.781C316.277 176.348 315.742 176.13 315.07 176.128C314.366 176.125 313.805 176.339 313.387 176.77C312.97 177.184 312.76 177.744 312.758 178.448C312.755 179.136 312.961 179.688 313.376 180.106C313.79 180.523 314.35 180.733 315.054 180.736ZM334.472 184.835C333.367 185.295 332.27 185.579 331.181 185.688C330.093 185.796 329.061 185.728 328.086 185.485C327.127 185.258 326.272 184.863 325.522 184.3C324.772 183.737 324.183 183.023 323.754 182.158C323.341 181.292 323.136 180.292 323.14 179.156C323.143 178.212 323.298 177.348 323.605 176.565C323.928 175.766 324.378 175.072 324.956 174.482C325.534 173.876 326.216 173.414 327.001 173.097C327.786 172.764 328.643 172.599 329.571 172.602C330.403 172.605 331.154 172.744 331.825 173.018C332.496 173.292 333.079 173.678 333.573 174.176C334.068 174.658 334.466 175.235 334.767 175.908C335.069 176.581 335.258 177.318 335.336 178.118C335.413 178.918 335.362 179.766 335.183 180.662C333.871 180.657 332.551 180.652 331.223 180.648C329.895 180.643 328.575 180.639 327.263 180.634C327.565 181.243 328.067 181.677 328.77 181.935C329.489 182.194 330.337 182.277 331.314 182.184C332.306 182.092 333.363 181.839 334.484 181.427C334.482 181.987 334.48 182.555 334.478 183.131C334.476 183.707 334.474 184.275 334.472 184.835ZM329.462 176.154C328.998 176.152 328.566 176.279 328.165 176.533C327.78 176.788 327.483 177.179 327.273 177.706C327.993 177.709 328.713 177.711 329.433 177.714C330.169 177.716 330.897 177.719 331.617 177.721C331.427 177.176 331.14 176.783 330.757 176.542C330.39 176.285 329.958 176.155 329.462 176.154Z" fill="#2F4ECD"/>
<path d="M140.84 231.837C140.847 229.773 140.854 227.693 140.861 225.597C140.869 223.485 140.876 221.397 140.883 219.333C140.275 219.331 139.659 219.329 139.035 219.327C138.411 219.325 137.795 219.323 137.187 219.321C137.189 218.697 137.191 218.065 137.194 217.425C137.196 216.769 137.198 216.129 137.2 215.505C139.104 215.511 141.032 215.518 142.984 215.525C144.936 215.531 146.864 215.538 148.768 215.545C148.766 216.169 148.764 216.809 148.762 217.465C148.759 218.105 148.757 218.737 148.755 219.361C148.163 219.359 147.555 219.357 146.931 219.354C146.307 219.352 145.691 219.35 145.083 219.348C145.076 221.412 145.069 223.5 145.061 225.612C145.054 227.708 145.047 229.788 145.04 231.852C144.352 231.85 143.656 231.847 142.952 231.845C142.248 231.842 141.544 231.84 140.84 231.837ZM150.637 231.871C150.647 228.975 150.657 226.055 150.667 223.111C150.678 220.167 150.688 217.247 150.698 214.351C151.354 214.354 152.018 214.356 152.69 214.358C153.362 214.361 154.018 214.363 154.658 214.365C154.655 215.309 154.651 216.269 154.648 217.245C154.644 218.205 154.641 219.157 154.638 220.101C155.071 219.799 155.552 219.568 156.08 219.41C156.625 219.236 157.209 219.15 157.833 219.152C158.745 219.155 159.544 219.366 160.231 219.785C160.934 220.203 161.476 220.805 161.857 221.59C162.254 222.36 162.451 223.288 162.447 224.376C162.443 225.624 162.438 226.88 162.434 228.144C162.43 229.408 162.425 230.664 162.421 231.912C161.781 231.91 161.125 231.908 160.453 231.905C159.781 231.903 159.117 231.901 158.461 231.899C158.465 230.747 158.469 229.579 158.473 228.395C158.477 227.211 158.481 226.043 158.485 224.891C158.488 224.251 158.337 223.738 158.035 223.353C157.748 222.952 157.285 222.75 156.645 222.748C156.005 222.746 155.508 222.928 155.155 223.295C154.802 223.662 154.624 224.189 154.621 224.877C154.617 226.029 154.613 227.197 154.609 228.381C154.605 229.565 154.601 230.733 154.597 231.885C153.957 231.883 153.301 231.881 152.629 231.878C151.957 231.876 151.293 231.874 150.637 231.871ZM167.044 218.104C166.58 218.103 166.157 217.989 165.773 217.764C165.406 217.539 165.111 217.242 164.888 216.873C164.666 216.504 164.555 216.096 164.557 215.648C164.558 215.2 164.672 214.8 164.897 214.449C165.122 214.082 165.419 213.787 165.788 213.564C166.173 213.341 166.597 213.231 167.061 213.232C167.509 213.234 167.917 213.347 168.284 213.573C168.667 213.798 168.97 214.095 169.193 214.464C169.416 214.816 169.526 215.217 169.525 215.665C169.523 216.113 169.41 216.52 169.184 216.888C168.959 217.255 168.654 217.55 168.269 217.772C167.9 217.995 167.492 218.106 167.044 218.104ZM165.004 231.921C165.011 229.873 165.018 227.809 165.026 225.729C165.033 223.633 165.04 221.561 165.047 219.513C165.703 219.516 166.367 219.518 167.039 219.52C167.711 219.523 168.367 219.525 169.007 219.527C169 221.575 168.993 223.647 168.986 225.743C168.978 227.823 168.971 229.887 168.964 231.935C168.324 231.933 167.668 231.93 166.996 231.928C166.324 231.926 165.66 231.924 165.004 231.921ZM171.728 231.945C171.735 229.897 171.742 227.833 171.749 225.753C171.757 223.657 171.764 221.585 171.771 219.537C172.427 219.539 173.091 219.541 173.763 219.544C174.435 219.546 175.091 219.548 175.731 219.55C175.731 219.662 175.73 219.766 175.73 219.862C175.729 219.958 175.729 220.062 175.729 220.174C176.162 219.872 176.643 219.642 177.171 219.483C177.716 219.309 178.3 219.223 178.924 219.225C179.836 219.229 180.635 219.439 181.322 219.858C182.024 220.276 182.566 220.878 182.948 221.663C183.345 222.433 183.542 223.362 183.538 224.45C183.534 225.698 183.529 226.954 183.525 228.218C183.52 229.481 183.516 230.737 183.512 231.985C182.872 231.983 182.216 231.981 181.544 231.979C180.872 231.976 180.208 231.974 179.552 231.972C179.556 230.82 179.56 229.652 179.564 228.468C179.568 227.284 179.572 226.116 179.576 224.964C179.578 224.324 179.428 223.811 179.125 223.426C178.839 223.025 178.376 222.824 177.736 222.821C177.096 222.819 176.599 223.001 176.246 223.368C175.892 223.735 175.715 224.262 175.712 224.95C175.708 226.102 175.704 227.27 175.7 228.454C175.696 229.638 175.692 230.806 175.688 231.958C175.048 231.956 174.392 231.954 173.72 231.951C173.048 231.949 172.384 231.947 171.728 231.945ZM185.957 231.994C185.967 229.098 185.977 226.178 185.988 223.234C185.998 220.29 186.008 217.37 186.018 214.474C186.674 214.476 187.338 214.479 188.01 214.481C188.682 214.483 189.338 214.486 189.978 214.488C189.972 216.056 189.967 217.648 189.961 219.264C189.956 220.88 189.95 222.472 189.945 224.04C190.523 223.306 191.102 222.572 191.68 221.838C192.259 221.088 192.838 220.346 193.416 219.612C194.184 219.614 194.952 219.617 195.72 219.62C196.504 219.623 197.28 219.625 198.048 219.628C197.293 220.569 196.522 221.519 195.734 222.476C194.963 223.433 194.2 224.383 193.444 225.324C194.24 226.431 195.037 227.553 195.833 228.692C196.645 229.815 197.441 230.93 198.221 232.037C197.437 232.034 196.653 232.031 195.869 232.028C195.085 232.026 194.301 232.023 193.517 232.02C192.928 231.17 192.331 230.312 191.726 229.446C191.121 228.564 190.524 227.698 189.935 226.848C189.932 227.696 189.929 228.56 189.926 229.44C189.923 230.304 189.92 231.16 189.917 232.008C189.277 232.005 188.621 232.003 187.949 232.001C187.277 231.999 186.613 231.996 185.957 231.994ZM201.708 218.225C201.244 218.223 200.82 218.109 200.437 217.884C200.07 217.659 199.775 217.362 199.552 216.993C199.33 216.624 199.219 216.216 199.22 215.768C199.222 215.32 199.335 214.92 199.561 214.569C199.786 214.202 200.083 213.907 200.452 213.684C200.836 213.462 201.261 213.351 201.725 213.353C202.173 213.354 202.58 213.468 202.948 213.693C203.331 213.918 203.634 214.215 203.857 214.584C204.079 214.937 204.19 215.337 204.188 215.785C204.187 216.233 204.073 216.641 203.848 217.008C203.623 217.375 203.318 217.67 202.933 217.893C202.564 218.116 202.156 218.226 201.708 218.225ZM199.668 232.042C199.675 229.994 199.682 227.93 199.689 225.85C199.697 223.754 199.704 221.682 199.711 219.634C200.367 219.636 201.031 219.638 201.703 219.641C202.375 219.643 203.031 219.645 203.671 219.647C203.664 221.695 203.657 223.767 203.649 225.863C203.642 227.943 203.635 230.007 203.628 232.055C202.988 232.053 202.332 232.051 201.66 232.048C200.988 232.046 200.324 232.044 199.668 232.042ZM206.392 232.065C206.399 230.017 206.406 227.953 206.413 225.873C206.42 223.777 206.428 221.705 206.435 219.657C207.091 219.659 207.755 219.662 208.427 219.664C209.099 219.666 209.755 219.669 210.395 219.671C210.394 219.783 210.394 219.887 210.394 219.983C210.393 220.079 210.393 220.183 210.393 220.295C210.826 219.992 211.306 219.762 211.835 219.604C212.38 219.43 212.964 219.344 213.588 219.346C214.5 219.349 215.299 219.56 215.986 219.978C216.688 220.397 217.23 220.998 217.611 221.784C218.009 222.553 218.206 223.482 218.202 224.57C218.197 225.818 218.193 227.074 218.189 228.338C218.184 229.602 218.18 230.858 218.176 232.106C217.536 232.104 216.88 232.101 216.208 232.099C215.536 232.097 214.872 232.094 214.216 232.092C214.22 230.94 214.224 229.772 214.228 228.588C214.232 227.404 214.236 226.236 214.24 225.084C214.242 224.444 214.092 223.932 213.789 223.547C213.503 223.146 213.039 222.944 212.399 222.942C211.759 222.939 211.263 223.122 210.909 223.489C210.556 223.855 210.378 224.383 210.376 225.071C210.372 226.223 210.368 227.391 210.364 228.575C210.36 229.759 210.356 230.927 210.352 232.079C209.712 232.076 209.056 232.074 208.384 232.072C207.712 232.069 207.048 232.067 206.392 232.065ZM232.289 230.139C232.284 231.499 231.984 232.634 231.389 233.544C230.81 234.454 230.016 235.131 229.006 235.575C227.997 236.036 226.844 236.272 225.548 236.283C224.268 236.295 222.916 236.098 221.494 235.693C221.496 235.069 221.498 234.437 221.5 233.797C221.503 233.173 221.505 232.549 221.507 231.925C222.769 232.426 223.912 232.678 224.936 232.681C225.96 232.701 226.769 232.512 227.362 232.114C227.972 231.7 228.278 231.133 228.28 230.413C228.28 230.333 228.281 230.261 228.281 230.197C228.281 230.117 228.281 230.045 228.282 229.981C227.881 230.283 227.416 230.522 226.887 230.696C226.359 230.87 225.79 230.956 225.182 230.954C224.174 230.951 223.271 230.715 222.473 230.249C221.69 229.766 221.077 229.108 220.632 228.274C220.186 227.425 219.966 226.44 219.97 225.32C219.973 224.456 220.12 223.665 220.41 222.946C220.7 222.227 221.103 221.604 221.616 221.078C222.13 220.551 222.716 220.154 223.373 219.884C224.03 219.598 224.718 219.456 225.438 219.459C226.014 219.461 226.55 219.543 227.045 219.705C227.541 219.866 227.98 220.084 228.363 220.357C228.363 220.245 228.364 220.141 228.364 220.045C228.364 219.949 228.365 219.845 228.365 219.733C229.021 219.735 229.685 219.738 230.357 219.74C231.029 219.742 231.685 219.745 232.325 219.747C232.319 221.459 232.313 223.195 232.307 224.955C232.301 226.699 232.295 228.427 232.289 230.139ZM226.178 227.526C226.85 227.528 227.387 227.322 227.788 226.907C228.206 226.477 228.416 225.925 228.418 225.253C228.42 224.565 228.214 224.005 227.8 223.571C227.401 223.138 226.866 222.92 226.194 222.918C225.49 222.915 224.929 223.129 224.512 223.56C224.094 223.974 223.885 224.534 223.882 225.238C223.88 225.926 224.086 226.478 224.5 226.896C224.915 227.313 225.474 227.523 226.178 227.526ZM251.947 227.399C251.943 228.471 251.668 229.398 251.121 230.18C250.59 230.962 249.852 231.568 248.907 231.997C247.961 232.409 246.865 232.613 245.617 232.609C244.449 232.605 243.409 232.417 242.498 232.046C241.604 231.659 240.894 231.113 240.368 230.407C239.859 229.685 239.606 228.836 239.609 227.86C239.612 227.06 239.79 226.325 240.145 225.654C240.515 224.983 241.069 224.409 241.807 223.932C241.216 223.482 240.778 222.96 240.492 222.367C240.222 221.758 240.088 221.094 240.091 220.374C240.095 219.318 240.378 218.439 240.94 217.737C241.519 217.035 242.288 216.509 243.25 216.161C244.211 215.812 245.275 215.632 246.444 215.62C247.612 215.592 248.795 215.732 249.994 216.04C249.992 216.68 249.99 217.328 249.987 217.984C249.985 218.64 249.983 219.296 249.981 219.952C249.309 219.758 248.63 219.619 247.942 219.537C247.27 219.455 246.654 219.445 246.094 219.507C245.534 219.569 245.077 219.703 244.725 219.91C244.388 220.117 244.219 220.412 244.218 220.796C244.216 221.292 244.551 221.637 245.222 221.832C245.893 222.01 246.821 222.101 248.005 222.105C248.006 221.817 248.007 221.529 248.008 221.241C248.009 220.937 248.01 220.641 248.011 220.353C248.667 220.356 249.331 220.358 250.003 220.36C250.675 220.363 251.331 220.365 251.971 220.367C251.97 220.655 251.969 220.951 251.968 221.255C251.967 221.543 251.966 221.831 251.965 222.119C252.205 222.12 252.453 222.121 252.709 222.122C252.965 222.123 253.213 222.123 253.453 222.124C253.451 222.716 253.449 223.308 253.447 223.9C253.445 224.492 253.443 225.084 253.441 225.676C253.201 225.675 252.953 225.675 252.697 225.674C252.441 225.673 252.193 225.672 251.953 225.671C251.952 225.959 251.951 226.247 251.95 226.535C251.949 226.823 251.948 227.111 251.947 227.399ZM243.811 227.275C243.809 227.739 243.976 228.131 244.311 228.453C244.662 228.758 245.149 228.911 245.773 228.914C246.445 228.916 246.982 228.758 247.383 228.439C247.784 228.105 247.986 227.641 247.988 227.049C247.989 226.825 247.989 226.593 247.99 226.353C247.991 226.113 247.992 225.881 247.993 225.657C246.681 225.653 245.656 225.745 244.92 225.935C244.183 226.124 243.813 226.571 243.811 227.275ZM269.697 228.445C269.694 229.437 269.411 230.252 268.849 230.89C268.302 231.512 267.565 231.965 266.636 232.25C265.707 232.535 264.667 232.651 263.515 232.599C262.379 232.563 261.219 232.375 260.037 232.035C260.039 231.427 260.041 230.803 260.043 230.163C260.045 229.523 260.048 228.899 260.05 228.291C260.721 228.597 261.392 228.84 262.063 229.018C262.735 229.18 263.342 229.279 263.886 229.312C264.43 229.346 264.87 229.308 265.207 229.197C265.543 229.07 265.712 228.863 265.713 228.575C265.713 228.351 265.57 228.174 265.283 228.045C265.011 227.916 264.651 227.803 264.204 227.706C263.756 227.592 263.277 227.462 262.765 227.317C262.27 227.155 261.798 226.937 261.351 226.664C260.904 226.374 260.538 225.997 260.251 225.532C259.981 225.051 259.847 224.434 259.85 223.682C259.853 222.786 260.111 222.027 260.626 221.405C261.156 220.767 261.861 220.289 262.743 219.972C263.624 219.64 264.608 219.475 265.696 219.479C266.784 219.482 267.896 219.67 269.03 220.042C269.028 220.65 269.026 221.274 269.024 221.914C269.022 222.554 269.019 223.178 269.017 223.786C268.123 223.351 267.284 223.06 266.5 222.914C265.717 222.767 265.085 222.749 264.605 222.859C264.124 222.953 263.883 223.168 263.882 223.504C263.881 223.728 264.017 223.905 264.288 224.034C264.576 224.147 264.936 224.252 265.367 224.35C265.815 224.447 266.287 224.577 266.782 224.739C267.293 224.9 267.765 225.126 268.196 225.415C268.643 225.689 269.001 226.074 269.272 226.571C269.558 227.052 269.7 227.677 269.697 228.445ZM282.276 231.752C281.171 232.213 280.074 232.497 278.985 232.605C277.897 232.713 276.865 232.646 275.89 232.402C274.931 232.175 274.076 231.78 273.326 231.217C272.576 230.655 271.987 229.941 271.558 229.075C271.145 228.21 270.94 227.209 270.944 226.073C270.947 225.129 271.102 224.266 271.409 223.483C271.732 222.684 272.182 221.989 272.76 221.399C273.338 220.793 274.02 220.332 274.805 220.014C275.59 219.681 276.447 219.516 277.375 219.519C278.207 219.522 278.958 219.661 279.629 219.935C280.3 220.209 280.883 220.595 281.377 221.093C281.872 221.575 282.27 222.152 282.571 222.825C282.873 223.498 283.062 224.235 283.14 225.035C283.217 225.836 283.166 226.683 282.987 227.579C281.675 227.574 280.355 227.57 279.027 227.565C277.699 227.56 276.379 227.556 275.067 227.551C275.369 228.16 275.871 228.594 276.574 228.853C277.294 229.111 278.141 229.194 279.118 229.101C280.11 229.009 281.167 228.756 282.288 228.344C282.286 228.904 282.284 229.472 282.282 230.048C282.28 230.624 282.278 231.192 282.276 231.752ZM277.266 223.071C276.802 223.069 276.37 223.196 275.969 223.45C275.584 223.705 275.287 224.096 275.077 224.623C275.797 224.626 276.517 224.628 277.237 224.631C277.973 224.633 278.701 224.636 279.421 224.638C279.231 224.094 278.944 223.701 278.561 223.459C278.194 223.202 277.762 223.073 277.266 223.071ZM293.491 232.367C293.492 232.239 293.492 232.119 293.493 232.007C293.493 231.879 293.494 231.759 293.494 231.647C293.093 231.982 292.636 232.236 292.123 232.411C291.627 232.601 291.09 232.695 290.514 232.693C289.698 232.69 288.931 232.535 288.212 232.229C287.493 231.906 286.855 231.456 286.297 230.878C285.755 230.284 285.325 229.587 285.008 228.786C284.707 227.985 284.558 227.096 284.561 226.12C284.565 225.128 284.72 224.233 285.026 223.434C285.349 222.635 285.784 221.956 286.33 221.398C286.892 220.824 287.533 220.387 288.254 220.085C288.975 219.768 289.736 219.61 290.536 219.613C291.112 219.615 291.655 219.713 292.167 219.907C292.678 220.084 293.133 220.334 293.532 220.655C293.533 220.527 293.533 220.407 293.533 220.295C293.534 220.183 293.534 220.071 293.535 219.959C294.191 219.962 294.855 219.964 295.527 219.966C296.199 219.969 296.855 219.971 297.495 219.973C297.487 222.021 297.48 224.093 297.473 226.189C297.466 228.269 297.459 230.333 297.451 232.381C296.811 232.379 296.155 232.377 295.483 232.374C294.811 232.372 294.147 232.37 293.491 232.367ZM291.054 229.191C291.822 229.193 292.439 228.916 292.905 228.357C293.371 227.799 293.606 227.064 293.609 226.152C293.612 225.24 293.383 224.511 292.921 223.965C292.459 223.404 291.844 223.122 291.076 223.119C290.292 223.116 289.667 223.386 289.201 223.928C288.751 224.471 288.524 225.206 288.521 226.134C288.518 227.062 288.739 227.807 289.185 228.368C289.647 228.914 290.271 229.188 291.054 229.191ZM300.094 232.39C300.101 230.342 300.109 228.278 300.116 226.198C300.123 224.102 300.13 222.03 300.137 219.982C300.793 219.985 301.457 219.987 302.129 219.989C302.801 219.992 303.457 219.994 304.097 219.996C304.097 220.108 304.097 220.22 304.096 220.332C304.096 220.444 304.095 220.556 304.095 220.668C304.592 220.318 305.153 220.056 305.778 219.882C306.402 219.708 307.082 219.662 307.818 219.745C307.816 220.385 307.814 221.033 307.811 221.689C307.809 222.345 307.807 222.993 307.805 223.633C306.541 223.453 305.605 223.561 304.996 223.959C304.386 224.341 304.08 224.972 304.077 225.852C304.073 226.924 304.069 228.012 304.066 229.116C304.062 230.22 304.058 231.316 304.054 232.404C303.414 232.402 302.758 232.399 302.086 232.397C301.414 232.395 300.75 232.392 300.094 232.39ZM308.795 226.204C308.8 224.988 309.051 223.925 309.55 223.015C310.05 222.089 310.74 221.347 311.622 220.79C312.504 220.233 313.529 219.901 314.698 219.793C315.866 219.669 317.114 219.809 318.44 220.214C318.438 220.822 318.436 221.438 318.434 222.062C318.432 222.686 318.429 223.302 318.427 223.91C317.501 223.459 316.614 223.247 315.766 223.277C314.917 223.306 314.221 223.567 313.675 224.061C313.129 224.539 312.855 225.258 312.851 226.218C312.848 227.178 313.117 227.907 313.66 228.405C314.202 228.887 314.897 229.146 315.745 229.181C316.593 229.199 317.482 228.995 318.411 228.566C318.409 229.174 318.407 229.79 318.405 230.414C318.403 231.038 318.4 231.654 318.398 232.262C317.069 232.657 315.821 232.789 314.653 232.657C313.485 232.541 312.463 232.201 311.585 231.638C310.706 231.075 310.021 230.337 309.528 229.423C309.035 228.493 308.791 227.42 308.795 226.204ZM320.98 232.463C320.99 229.567 321 226.647 321.01 223.703C321.02 220.759 321.031 217.839 321.041 214.943C321.697 214.945 322.361 214.947 323.033 214.95C323.705 214.952 324.361 214.954 325.001 214.957C324.997 215.901 324.994 216.861 324.991 217.837C324.987 218.797 324.984 219.749 324.981 220.693C325.414 220.39 325.894 220.16 326.423 220.002C326.968 219.827 327.552 219.741 328.176 219.744C329.088 219.747 329.887 219.958 330.574 220.376C331.276 220.794 331.818 221.396 332.2 222.182C332.597 222.951 332.794 223.88 332.79 224.968C332.786 226.216 332.781 227.472 332.777 228.736C332.772 230 332.768 231.256 332.764 232.504C332.124 232.501 331.468 232.499 330.796 232.497C330.124 232.494 329.46 232.492 328.804 232.49C328.808 231.338 328.812 230.17 328.816 228.986C328.82 227.802 328.824 226.634 328.828 225.482C328.83 224.842 328.68 224.329 328.377 223.944C328.091 223.543 327.627 223.342 326.987 223.34C326.347 223.337 325.851 223.52 325.498 223.886C325.144 224.253 324.966 224.78 324.964 225.468C324.96 226.62 324.956 227.788 324.952 228.972C324.948 230.156 324.944 231.324 324.94 232.476C324.3 232.474 323.644 232.472 322.972 232.47C322.3 232.467 321.636 232.465 320.98 232.463ZM337.387 218.696C336.923 218.694 336.499 218.58 336.116 218.355C335.749 218.13 335.454 217.833 335.231 217.464C335.008 217.095 334.898 216.687 334.899 216.239C334.901 215.791 335.014 215.391 335.24 215.04C335.465 214.673 335.762 214.378 336.131 214.155C336.515 213.933 336.94 213.822 337.404 213.824C337.852 213.825 338.259 213.939 338.627 214.164C339.01 214.389 339.313 214.686 339.535 215.055C339.758 215.408 339.869 215.808 339.867 216.256C339.866 216.704 339.752 217.112 339.527 217.479C339.302 217.846 338.997 218.141 338.612 218.364C338.243 218.587 337.835 218.697 337.387 218.696ZM335.347 232.513C335.354 230.465 335.361 228.401 335.368 226.321C335.376 224.225 335.383 222.153 335.39 220.105C336.046 220.107 336.71 220.109 337.382 220.112C338.054 220.114 338.71 220.116 339.35 220.118C339.343 222.166 339.336 224.238 339.328 226.334C339.321 228.414 339.314 230.478 339.307 232.526C338.667 232.524 338.011 232.522 337.339 232.519C336.667 232.517 336.003 232.515 335.347 232.513ZM342.071 232.536C342.078 230.488 342.085 228.424 342.092 226.344C342.099 224.248 342.107 222.176 342.114 220.128C342.77 220.13 343.434 220.133 344.106 220.135C344.778 220.137 345.434 220.14 346.074 220.142C346.073 220.254 346.073 220.358 346.073 220.454C346.072 220.55 346.072 220.654 346.071 220.766C346.505 220.463 346.985 220.233 347.514 220.075C348.058 219.901 348.643 219.815 349.267 219.817C350.179 219.82 350.978 220.031 351.665 220.449C352.367 220.868 352.909 221.469 353.29 222.255C353.688 223.024 353.884 223.953 353.881 225.041C353.876 226.289 353.872 227.545 353.868 228.809C353.863 230.073 353.859 231.329 353.854 232.577C353.215 232.575 352.559 232.572 351.887 232.57C351.215 232.568 350.551 232.565 349.895 232.563C349.899 231.411 349.903 230.243 349.907 229.059C349.911 227.875 349.915 226.707 349.919 225.555C349.921 224.915 349.771 224.403 349.468 224.018C349.182 223.617 348.718 223.415 348.078 223.413C347.438 223.411 346.942 223.593 346.588 223.96C346.235 224.326 346.057 224.854 346.055 225.542C346.051 226.694 346.047 227.862 346.043 229.046C346.039 230.23 346.035 231.398 346.031 232.55C345.391 232.547 344.735 232.545 344.063 232.543C343.391 232.541 342.727 232.538 342.071 232.536ZM367.968 230.61C367.963 231.97 367.663 233.105 367.068 234.015C366.489 234.925 365.695 235.602 364.685 236.046C363.675 236.507 362.523 236.743 361.227 236.754C359.947 236.766 358.595 236.569 357.173 236.164C357.175 235.54 357.177 234.908 357.179 234.268C357.181 233.644 357.184 233.02 357.186 232.396C358.448 232.897 359.591 233.149 360.615 233.152C361.639 233.172 362.448 232.983 363.041 232.585C363.651 232.171 363.956 231.604 363.959 230.884C363.959 230.804 363.96 230.732 363.96 230.668C363.96 230.588 363.96 230.516 363.96 230.452C363.559 230.755 363.095 230.993 362.566 231.167C362.037 231.341 361.469 231.427 360.861 231.425C359.853 231.422 358.95 231.187 358.152 230.72C357.369 230.237 356.755 229.579 356.31 228.745C355.865 227.896 355.645 226.911 355.649 225.791C355.652 224.927 355.798 224.136 356.089 223.417C356.379 222.698 356.782 222.075 357.295 221.549C357.809 221.022 358.395 220.625 359.052 220.355C359.709 220.069 360.397 219.927 361.117 219.93C361.693 219.932 362.229 220.014 362.724 220.176C363.22 220.337 363.659 220.555 364.042 220.828C364.042 220.716 364.043 220.612 364.043 220.516C364.043 220.42 364.044 220.316 364.044 220.204C364.7 220.206 365.364 220.209 366.036 220.211C366.708 220.213 367.364 220.216 368.004 220.218C367.998 221.93 367.992 223.666 367.986 225.426C367.98 227.17 367.974 228.898 367.968 230.61ZM361.857 227.997C362.529 227.999 363.066 227.793 363.467 227.378C363.885 226.948 364.095 226.396 364.097 225.724C364.099 225.036 363.893 224.476 363.479 224.042C363.08 223.609 362.545 223.391 361.873 223.389C361.169 223.386 360.608 223.6 360.191 224.031C359.773 224.445 359.563 225.005 359.561 225.709C359.559 226.397 359.765 226.949 360.179 227.367C360.594 227.784 361.153 227.994 361.857 227.997Z" fill="#2F4ECD"/>
<path d="M141.701 279.809C141.704 278.833 141.708 277.849 141.711 276.857C141.715 275.865 141.718 274.881 141.721 273.905C140.879 272.19 140.021 270.451 139.147 268.688C138.274 266.925 137.416 265.186 136.574 263.471C137.31 263.473 138.054 263.476 138.806 263.479C139.558 263.481 140.302 263.484 141.038 263.486C141.498 264.464 141.967 265.45 142.443 266.443C142.936 267.421 143.412 268.399 143.873 269.376C144.34 268.402 144.816 267.427 145.299 266.453C145.783 265.463 146.258 264.48 146.725 263.506C147.461 263.509 148.197 263.511 148.933 263.514C149.669 263.516 150.405 263.519 151.141 263.521C150.288 265.23 149.417 266.963 148.531 268.72C147.645 270.477 146.775 272.21 145.921 273.919C145.918 274.895 145.915 275.879 145.911 276.871C145.908 277.863 145.904 278.847 145.901 279.823C145.213 279.821 144.517 279.818 143.813 279.816C143.109 279.814 142.405 279.811 141.701 279.809ZM161.294 279.301C160.189 279.761 159.092 280.045 158.003 280.153C156.915 280.261 155.883 280.194 154.908 279.951C153.949 279.723 153.094 279.328 152.344 278.766C151.594 278.203 151.005 277.489 150.576 276.623C150.163 275.758 149.958 274.757 149.962 273.621C149.965 272.677 150.12 271.814 150.427 271.031C150.75 270.232 151.2 269.538 151.778 268.948C152.356 268.342 153.038 267.88 153.823 267.563C154.608 267.229 155.465 267.064 156.393 267.068C157.225 267.07 157.976 267.209 158.647 267.483C159.318 267.758 159.901 268.144 160.395 268.642C160.89 269.123 161.288 269.701 161.589 270.374C161.891 271.047 162.081 271.783 162.158 272.584C162.235 273.384 162.184 274.232 162.005 275.127C160.693 275.123 159.373 275.118 158.045 275.113C156.717 275.109 155.397 275.104 154.085 275.1C154.387 275.709 154.889 276.142 155.592 276.401C156.312 276.659 157.159 276.742 158.136 276.65C159.128 276.557 160.185 276.305 161.306 275.893C161.304 276.453 161.302 277.021 161.3 277.597C161.298 278.173 161.296 278.741 161.294 279.301ZM156.285 270.619C155.821 270.618 155.388 270.744 154.987 270.999C154.602 271.253 154.305 271.644 154.095 272.172C154.815 272.174 155.535 272.177 156.255 272.179C156.991 272.182 157.719 272.184 158.439 272.187C158.249 271.642 157.962 271.249 157.579 271.008C157.212 270.75 156.781 270.621 156.285 270.619ZM164.35 279.887C164.36 276.991 164.37 274.071 164.38 271.127C164.39 268.183 164.4 265.263 164.41 262.367C165.066 262.37 165.73 262.372 166.402 262.374C167.074 262.377 167.73 262.379 168.37 262.381C168.36 265.277 168.35 268.197 168.34 271.141C168.33 274.085 168.32 277.005 168.31 279.901C167.67 279.899 167.014 279.897 166.342 279.894C165.67 279.892 165.006 279.89 164.35 279.887ZM171.193 279.911C171.203 277.015 171.213 274.095 171.224 271.151C171.234 268.207 171.244 265.287 171.254 262.391C171.91 262.393 172.574 262.396 173.246 262.398C173.918 262.4 174.574 262.403 175.214 262.405C175.204 265.301 175.194 268.221 175.184 271.165C175.173 274.109 175.163 277.029 175.153 279.925C174.513 279.923 173.857 279.92 173.185 279.918C172.513 279.916 171.849 279.913 171.193 279.911ZM183.796 280.339C182.868 280.336 182.004 280.173 181.205 279.85C180.407 279.511 179.712 279.045 179.122 278.451C178.532 277.841 178.071 277.135 177.738 276.334C177.42 275.533 177.263 274.66 177.267 273.716C177.27 272.772 177.433 271.901 177.756 271.102C178.094 270.303 178.561 269.609 179.155 269.019C179.749 268.429 180.447 267.975 181.248 267.658C182.049 267.325 182.913 267.16 183.841 267.163C184.785 267.166 185.649 267.337 186.432 267.676C187.231 267.999 187.925 268.457 188.515 269.051C189.105 269.645 189.558 270.343 189.876 271.144C190.209 271.945 190.374 272.818 190.371 273.762C190.367 274.706 190.196 275.577 189.857 276.376C189.535 277.175 189.076 277.877 188.482 278.483C187.888 279.073 187.19 279.535 186.389 279.868C185.604 280.185 184.74 280.342 183.796 280.339ZM183.808 276.763C184.592 276.766 185.217 276.488 185.683 275.929C186.165 275.355 186.407 274.628 186.411 273.748C186.414 272.852 186.176 272.131 185.698 271.585C185.236 271.024 184.613 270.742 183.829 270.739C183.045 270.736 182.412 271.014 181.93 271.572C181.464 272.115 181.23 272.834 181.227 273.73C181.224 274.61 181.453 275.339 181.915 275.916C182.393 276.478 183.024 276.76 183.808 276.763ZM194.593 279.992C193.976 277.942 193.351 275.876 192.719 273.794C192.102 271.696 191.485 269.621 190.868 267.571C191.524 267.574 192.188 267.576 192.86 267.578C193.548 267.581 194.22 267.583 194.876 267.585C195.192 268.706 195.508 269.843 195.824 270.997C196.156 272.134 196.473 273.263 196.773 274.384C197.049 273.265 197.324 272.138 197.6 271.003C197.892 269.852 198.168 268.717 198.428 267.598C198.988 267.599 199.548 267.601 200.108 267.603C200.684 267.605 201.252 267.607 201.812 267.609C202.08 268.73 202.348 269.875 202.616 271.044C202.9 272.197 203.168 273.342 203.42 274.479C203.744 273.344 204.068 272.201 204.392 271.05C204.732 269.883 205.056 268.741 205.364 267.622C206.02 267.624 206.676 267.626 207.332 267.628C208.004 267.631 208.66 267.633 209.3 267.635C208.669 269.681 208.03 271.751 207.383 273.845C206.751 275.922 206.12 277.984 205.489 280.03C204.849 280.028 204.201 280.026 203.545 280.023C202.889 280.021 202.241 280.019 201.601 280.017C201.349 279.024 201.088 278.023 200.82 277.014C200.567 276.005 200.314 275.012 200.062 274.035C199.802 275.01 199.535 276.001 199.26 277.008C199 278.016 198.741 279.015 198.481 280.006C197.841 280.004 197.193 280.001 196.537 279.999C195.881 279.997 195.233 279.995 194.593 279.992Z" fill="#2F4ECD"/>
<path d="M137.206 325.955C137.216 323.267 137.225 320.547 137.235 317.795C137.244 315.043 137.254 312.323 137.263 309.635C138.255 309.639 139.247 309.642 140.239 309.646C141.247 309.649 142.239 309.653 143.215 309.656C144.447 309.66 145.518 309.904 146.428 310.387C147.339 310.854 148.049 311.513 148.558 312.363C149.067 313.212 149.319 314.205 149.315 315.341C149.311 316.461 149.052 317.444 148.537 318.291C148.038 319.137 147.348 319.79 146.466 320.251C145.601 320.712 144.616 320.941 143.512 320.937C143.16 320.936 142.808 320.935 142.456 320.933C142.12 320.932 141.776 320.931 141.424 320.93C141.421 321.762 141.418 322.602 141.415 323.45C141.412 324.298 141.409 325.138 141.406 325.97C140.718 325.967 140.022 325.965 139.318 325.963C138.614 325.96 137.91 325.958 137.206 325.955ZM143.202 313.424C142.914 313.423 142.618 313.422 142.314 313.421C142.026 313.42 141.738 313.419 141.45 313.418C141.448 314.058 141.445 314.706 141.443 315.362C141.441 316.002 141.439 316.642 141.436 317.282C141.756 317.283 142.084 317.284 142.42 317.285C142.772 317.287 143.108 317.288 143.428 317.289C143.924 317.291 144.325 317.108 144.63 316.741C144.952 316.374 145.113 315.919 145.115 315.375C145.117 314.815 144.951 314.35 144.616 313.981C144.281 313.612 143.81 313.426 143.202 313.424ZM156.72 326.407C155.792 326.404 154.928 326.241 154.13 325.918C153.331 325.579 152.636 325.113 152.046 324.519C151.457 323.909 150.995 323.203 150.662 322.402C150.345 321.601 150.188 320.728 150.191 319.784C150.194 318.84 150.357 317.969 150.68 317.17C151.019 316.371 151.485 315.677 152.079 315.087C152.673 314.497 153.371 314.043 154.172 313.726C154.973 313.393 155.838 313.228 156.766 313.231C157.71 313.234 158.573 313.405 159.356 313.744C160.155 314.067 160.849 314.525 161.439 315.119C162.029 315.713 162.483 316.411 162.8 317.212C163.133 318.013 163.298 318.886 163.295 319.83C163.291 320.774 163.12 321.645 162.782 322.444C162.459 323.243 162 323.945 161.406 324.551C160.812 325.141 160.115 325.603 159.314 325.936C158.528 326.253 157.664 326.41 156.72 326.407ZM156.732 322.831C157.516 322.834 158.141 322.556 158.607 321.998C159.089 321.423 159.332 320.696 159.335 319.816C159.338 318.92 159.1 318.199 158.622 317.654C158.16 317.092 157.537 316.81 156.753 316.807C155.969 316.804 155.336 317.082 154.854 317.64C154.388 318.183 154.154 318.902 154.151 319.798C154.148 320.678 154.377 321.407 154.839 321.984C155.317 322.546 155.948 322.828 156.732 322.831ZM169.178 329.906C168.538 329.904 167.882 329.902 167.21 329.899C166.538 329.897 165.874 329.895 165.218 329.893C165.228 327.221 165.237 324.517 165.247 321.781C165.256 319.029 165.266 316.317 165.275 313.645C165.931 313.647 166.595 313.649 167.267 313.652C167.939 313.654 168.595 313.656 169.235 313.658C169.234 313.77 169.234 313.882 169.234 313.994C169.233 314.106 169.233 314.226 169.232 314.354C169.634 314.036 170.09 313.789 170.603 313.615C171.116 313.425 171.66 313.331 172.236 313.333C173.036 313.336 173.795 313.498 174.514 313.821C175.233 314.127 175.864 314.569 176.406 315.147C176.964 315.725 177.393 316.415 177.695 317.216C178.012 318.017 178.169 318.905 178.165 319.881C178.162 320.841 177.999 321.721 177.676 322.52C177.369 323.319 176.935 324.013 176.373 324.603C175.827 325.177 175.193 325.623 174.472 325.941C173.751 326.258 172.983 326.415 172.167 326.413C171.591 326.411 171.047 326.313 170.536 326.119C170.04 325.941 169.593 325.684 169.194 325.346C169.192 326.098 169.189 326.858 169.186 327.626C169.184 328.394 169.181 329.154 169.178 329.906ZM171.651 322.907C172.435 322.91 173.052 322.64 173.502 322.097C173.968 321.539 174.202 320.796 174.205 319.868C174.209 318.94 173.979 318.203 173.517 317.657C173.071 317.112 172.456 316.838 171.672 316.835C170.904 316.832 170.287 317.11 169.821 317.668C169.355 318.211 169.121 318.938 169.117 319.85C169.114 320.762 169.344 321.499 169.806 322.06C170.268 322.622 170.883 322.904 171.651 322.907ZM189.234 326.136C188.594 326.134 187.938 326.131 187.266 326.129C186.594 326.127 185.93 326.124 185.274 326.122C185.284 323.226 185.294 320.306 185.304 317.362C185.314 314.418 185.324 311.498 185.334 308.602C185.99 308.604 186.654 308.607 187.326 308.609C187.998 308.611 188.654 308.614 189.294 308.616C189.291 309.576 189.288 310.544 189.284 311.52C189.281 312.496 189.278 313.464 189.274 314.424C189.675 314.105 190.132 313.859 190.645 313.685C191.157 313.494 191.702 313.4 192.278 313.402C193.078 313.405 193.837 313.568 194.556 313.89C195.275 314.197 195.905 314.639 196.447 315.217C197.005 315.795 197.435 316.484 197.736 317.285C198.054 318.086 198.21 318.975 198.207 319.951C198.204 320.911 198.041 321.79 197.718 322.589C197.411 323.388 196.977 324.083 196.415 324.673C195.869 325.247 195.235 325.693 194.514 326.01C193.793 326.328 193.024 326.485 192.208 326.482C191.632 326.48 191.089 326.382 190.577 326.189C190.082 326.011 189.635 325.753 189.236 325.416C189.236 325.528 189.235 325.648 189.235 325.776C189.234 325.888 189.234 326.008 189.234 326.136ZM191.692 322.976C192.476 322.979 193.093 322.709 193.543 322.167C194.009 321.608 194.244 320.865 194.247 319.937C194.25 319.009 194.021 318.272 193.559 317.727C193.113 317.181 192.498 316.907 191.714 316.904C190.946 316.902 190.329 317.18 189.863 317.738C189.397 318.28 189.162 319.008 189.159 319.92C189.156 320.832 189.385 321.568 189.847 322.13C190.309 322.692 190.925 322.974 191.692 322.976ZM208.433 326.203C208.434 326.075 208.434 325.955 208.435 325.843C208.435 325.715 208.436 325.595 208.436 325.483C208.035 325.817 207.578 326.072 207.065 326.246C206.569 326.436 206.032 326.53 205.456 326.528C204.64 326.525 203.873 326.371 203.154 326.064C202.435 325.742 201.797 325.291 201.239 324.714C200.697 324.12 200.267 323.422 199.95 322.621C199.649 321.82 199.5 320.931 199.503 319.955C199.506 318.963 199.662 318.068 199.968 317.269C200.291 316.47 200.725 315.792 201.271 315.234C201.833 314.66 202.475 314.222 203.196 313.92C203.917 313.603 204.678 313.445 205.478 313.448C206.054 313.45 206.597 313.548 207.109 313.742C207.62 313.92 208.075 314.169 208.474 314.491C208.475 314.363 208.475 314.243 208.475 314.131C208.476 314.019 208.476 313.907 208.476 313.795C209.132 313.797 209.796 313.799 210.468 313.801C211.14 313.804 211.796 313.806 212.436 313.808C212.429 315.856 212.422 317.928 212.415 320.024C212.408 322.104 212.4 324.168 212.393 326.216C211.753 326.214 211.097 326.212 210.425 326.209C209.753 326.207 209.089 326.205 208.433 326.203ZM205.996 323.026C206.764 323.029 207.381 322.751 207.847 322.192C208.313 321.634 208.548 320.899 208.551 319.987C208.554 319.075 208.325 318.346 207.863 317.8C207.401 317.239 206.785 316.957 206.017 316.954C205.233 316.951 204.609 317.221 204.143 317.764C203.693 318.306 203.466 319.041 203.463 319.969C203.46 320.897 203.681 321.642 204.127 322.204C204.589 322.749 205.212 323.023 205.996 323.026ZM215.156 326.226C215.166 323.33 215.176 320.41 215.187 317.466C215.197 314.522 215.207 311.602 215.217 308.706C215.873 308.708 216.537 308.711 217.209 308.713C217.881 308.715 218.537 308.717 219.177 308.72C219.167 311.616 219.157 314.536 219.147 317.48C219.136 320.424 219.126 323.344 219.116 326.24C218.476 326.237 217.82 326.235 217.148 326.233C216.476 326.23 215.812 326.228 215.156 326.226ZM222 326.25C222.01 323.354 222.02 320.434 222.03 317.49C222.041 314.546 222.051 311.626 222.061 308.73C222.717 308.732 223.381 308.734 224.053 308.737C224.725 308.739 225.381 308.741 226.021 308.743C226.011 311.639 226 314.559 225.99 317.503C225.98 320.447 225.97 323.367 225.96 326.263C225.32 326.261 224.664 326.259 223.992 326.257C223.32 326.254 222.656 326.252 222 326.25ZM237.004 326.302C237.004 326.174 237.004 326.054 237.005 325.942C237.005 325.814 237.006 325.694 237.006 325.582C236.605 325.916 236.148 326.171 235.635 326.345C235.139 326.535 234.602 326.629 234.026 326.627C233.21 326.625 232.443 326.47 231.724 326.163C231.005 325.841 230.367 325.391 229.809 324.813C229.267 324.219 228.837 323.521 228.52 322.72C228.219 321.919 228.07 321.031 228.073 320.055C228.077 319.063 228.232 318.167 228.539 317.368C228.861 316.569 229.296 315.891 229.842 315.333C230.404 314.759 231.045 314.321 231.766 314.019C232.487 313.702 233.248 313.545 234.048 313.547C234.624 313.549 235.167 313.647 235.679 313.841C236.19 314.019 236.645 314.268 237.044 314.59C237.045 314.462 237.045 314.342 237.045 314.23C237.046 314.118 237.046 314.006 237.047 313.894C237.703 313.896 238.367 313.898 239.039 313.901C239.711 313.903 240.367 313.905 241.007 313.908C240.999 315.955 240.992 318.027 240.985 320.123C240.978 322.203 240.971 324.267 240.964 326.315C240.324 326.313 239.668 326.311 238.996 326.309C238.324 326.306 237.66 326.304 237.004 326.302ZM234.567 323.125C235.335 323.128 235.952 322.85 236.417 322.292C236.883 321.733 237.118 320.998 237.121 320.086C237.124 319.174 236.895 318.445 236.433 317.9C235.971 317.338 235.356 317.056 234.588 317.053C233.804 317.051 233.179 317.32 232.713 317.863C232.263 318.405 232.036 319.14 232.033 320.068C232.03 320.996 232.251 321.741 232.697 322.303C233.16 322.848 233.783 323.122 234.567 323.125ZM251.886 326.353C251.887 326.225 251.887 326.105 251.888 325.993C251.888 325.865 251.888 325.745 251.889 325.633C251.488 325.968 251.031 326.222 250.518 326.397C250.021 326.587 249.485 326.681 248.909 326.679C248.093 326.676 247.326 326.514 246.607 326.191C245.888 325.869 245.249 325.418 244.691 324.84C244.15 324.246 243.72 323.549 243.403 322.748C243.102 321.947 242.953 321.066 242.956 320.106C242.959 319.13 243.114 318.243 243.421 317.444C243.744 316.645 244.178 315.959 244.724 315.384C245.286 314.81 245.928 314.373 246.649 314.071C247.37 313.754 248.131 313.596 248.931 313.599C249.507 313.601 250.05 313.699 250.562 313.893C251.073 314.07 251.528 314.32 251.927 314.641C251.93 313.681 251.934 312.713 251.937 311.737C251.94 310.761 251.944 309.793 251.947 308.833C252.603 308.836 253.267 308.838 253.939 308.84C254.611 308.843 255.267 308.845 255.907 308.847C255.897 311.743 255.887 314.663 255.877 317.607C255.866 320.551 255.856 323.471 255.846 326.367C255.206 326.365 254.55 326.363 253.878 326.36C253.206 326.358 252.542 326.356 251.886 326.353ZM249.449 323.177C250.217 323.18 250.834 322.902 251.3 322.343C251.766 321.785 252.001 321.05 252.004 320.138C252.007 319.226 251.778 318.497 251.315 317.951C250.853 317.39 250.238 317.108 249.47 317.105C248.686 317.102 248.061 317.372 247.596 317.914C247.146 318.457 246.919 319.192 246.916 320.12C246.913 321.048 247.134 321.793 247.58 322.354C248.042 322.9 248.665 323.174 249.449 323.177Z" fill="#2F4ECD"/>
<path d="M142.26 372.957C142.269 370.269 142.279 367.549 142.288 364.797C142.298 362.045 142.307 359.325 142.317 356.637C143.277 356.641 144.245 356.644 145.221 356.648C146.197 356.651 147.165 356.654 148.125 356.658C149.309 356.662 150.396 356.873 151.386 357.293C152.377 357.696 153.239 358.267 153.973 359.006C154.706 359.744 155.271 360.61 155.668 361.604C156.08 362.581 156.284 363.654 156.28 364.822C156.276 365.99 156.065 367.069 155.645 368.06C155.242 369.05 154.671 369.92 153.932 370.67C153.193 371.403 152.327 371.976 151.334 372.389C150.341 372.785 149.252 372.982 148.068 372.978C147.108 372.974 146.14 372.971 145.164 372.967C144.188 372.964 143.22 372.961 142.26 372.957ZM148.111 360.45C147.855 360.449 147.591 360.448 147.319 360.447C147.047 360.446 146.775 360.445 146.503 360.444C146.498 361.884 146.493 363.34 146.488 364.812C146.483 366.284 146.478 367.74 146.473 369.18C146.745 369.181 147.017 369.182 147.289 369.183C147.561 369.184 147.825 369.185 148.081 369.186C148.881 369.188 149.578 368.999 150.171 368.617C150.764 368.235 151.222 367.716 151.545 367.062C151.867 366.391 152.029 365.639 152.032 364.807C152.035 363.975 151.878 363.231 151.56 362.574C151.242 361.916 150.788 361.403 150.197 361.033C149.607 360.647 148.911 360.452 148.111 360.45ZM159.448 376.857C159.771 376.01 160.102 375.155 160.441 374.292C160.795 373.446 161.134 372.607 161.457 371.776C160.712 369.933 159.95 368.075 159.173 366.2C158.411 364.309 157.658 362.443 156.912 360.6C157.616 360.603 158.32 360.605 159.024 360.607C159.728 360.61 160.424 360.612 161.112 360.615C161.524 361.64 161.937 362.682 162.349 363.739C162.778 364.797 163.198 365.846 163.61 366.887C163.998 365.849 164.394 364.802 164.797 363.748C165.201 362.693 165.596 361.654 165.984 360.632C166.672 360.634 167.36 360.636 168.048 360.639C168.736 360.641 169.424 360.644 170.112 360.646C169.031 363.314 167.941 366.022 166.844 368.771C165.762 371.503 164.681 374.203 163.6 376.871C162.912 376.869 162.216 376.867 161.512 376.864C160.824 376.862 160.136 376.859 159.448 376.857ZM171.27 373.058C171.277 371.01 171.284 368.946 171.291 366.866C171.299 364.77 171.306 362.698 171.313 360.65C171.969 360.652 172.633 360.655 173.305 360.657C173.977 360.659 174.633 360.662 175.273 360.664C175.272 360.776 175.272 360.88 175.272 360.976C175.271 361.072 175.271 361.176 175.271 361.288C175.704 360.985 176.185 360.755 176.713 360.597C177.258 360.423 177.842 360.337 178.466 360.339C179.378 360.342 180.177 360.553 180.864 360.971C181.566 361.39 182.108 361.992 182.49 362.777C182.887 363.546 183.084 364.475 183.08 365.563C183.076 366.811 183.071 368.067 183.067 369.331C183.062 370.595 183.058 371.851 183.054 373.099C182.414 373.097 181.758 373.094 181.086 373.092C180.414 373.09 179.75 373.087 179.094 373.085C179.098 371.933 179.102 370.765 179.106 369.581C179.11 368.397 179.114 367.229 179.118 366.077C179.12 365.437 178.97 364.925 178.667 364.54C178.381 364.139 177.918 363.937 177.278 363.935C176.638 363.933 176.141 364.115 175.788 364.482C175.434 364.848 175.257 365.376 175.254 366.064C175.25 367.216 175.246 368.384 175.242 369.568C175.238 370.752 175.234 371.92 175.23 373.072C174.59 373.07 173.934 373.067 173.262 373.065C172.59 373.063 171.926 373.06 171.27 373.058ZM193.776 373.136C193.777 373.008 193.777 372.888 193.778 372.776C193.778 372.648 193.778 372.528 193.779 372.416C193.378 372.751 192.921 373.005 192.408 373.179C191.911 373.37 191.375 373.464 190.799 373.462C189.983 373.459 189.216 373.304 188.497 372.998C187.778 372.675 187.139 372.225 186.581 371.647C186.039 371.053 185.61 370.356 185.293 369.555C184.991 368.754 184.843 367.865 184.846 366.889C184.849 365.897 185.004 365.002 185.311 364.203C185.634 363.404 186.068 362.725 186.614 362.167C187.176 361.593 187.818 361.155 188.539 360.854C189.26 360.536 190.021 360.379 190.821 360.382C191.397 360.384 191.94 360.482 192.452 360.676C192.963 360.853 193.418 361.103 193.817 361.424C193.817 361.296 193.818 361.176 193.818 361.064C193.819 360.952 193.819 360.84 193.819 360.728C194.475 360.731 195.139 360.733 195.811 360.735C196.483 360.738 197.139 360.74 197.779 360.742C197.772 362.79 197.765 364.862 197.758 366.958C197.751 369.038 197.743 371.102 197.736 373.15C197.096 373.148 196.44 373.145 195.768 373.143C195.096 373.141 194.432 373.138 193.776 373.136ZM191.339 369.96C192.107 369.962 192.724 369.685 193.19 369.126C193.656 368.568 193.891 367.833 193.894 366.921C193.897 366.009 193.668 365.28 193.205 364.734C192.743 364.173 192.128 363.89 191.36 363.888C190.576 363.885 189.951 364.155 189.486 364.697C189.036 365.24 188.809 365.975 188.806 366.903C188.803 367.831 189.024 368.576 189.47 369.137C189.932 369.683 190.555 369.957 191.339 369.96ZM200.379 373.159C200.386 371.111 200.393 369.047 200.401 366.967C200.408 364.871 200.415 362.799 200.422 360.751C201.078 360.753 201.742 360.756 202.414 360.758C203.086 360.76 203.742 360.763 204.382 360.765C204.382 360.877 204.381 360.981 204.381 361.077C204.381 361.173 204.38 361.277 204.38 361.389C204.797 361.086 205.262 360.856 205.774 360.698C206.287 360.524 206.815 360.437 207.359 360.439C207.951 360.441 208.495 360.547 208.99 360.757C209.485 360.951 209.908 361.24 210.259 361.625C210.772 361.259 211.349 360.973 211.99 360.767C212.647 360.562 213.319 360.46 214.007 360.462C214.983 360.466 215.822 360.669 216.525 361.071C217.244 361.474 217.794 362.044 218.175 362.781C218.573 363.518 218.77 364.407 218.766 365.447C218.761 366.727 218.757 368.023 218.752 369.335C218.748 370.647 218.743 371.943 218.739 373.223C218.099 373.221 217.443 373.218 216.771 373.216C216.099 373.214 215.435 373.211 214.779 373.209C214.783 372.009 214.787 370.793 214.792 369.561C214.796 368.329 214.8 367.113 214.804 365.913C214.806 365.369 214.68 364.929 214.425 364.592C214.186 364.239 213.795 364.062 213.251 364.06C212.723 364.058 212.306 364.224 212.001 364.559C211.712 364.878 211.566 365.326 211.564 365.902C211.56 367.102 211.556 368.318 211.552 369.55C211.547 370.782 211.543 371.998 211.539 373.198C210.899 373.196 210.243 373.193 209.571 373.191C208.899 373.189 208.235 373.186 207.579 373.184C207.583 371.984 207.587 370.768 207.592 369.536C207.596 368.304 207.6 367.088 207.604 365.888C207.606 365.344 207.48 364.904 207.225 364.567C206.986 364.214 206.595 364.037 206.051 364.035C205.523 364.033 205.106 364.199 204.801 364.534C204.512 364.853 204.366 365.301 204.364 365.877C204.36 367.077 204.356 368.293 204.352 369.525C204.347 370.757 204.343 371.973 204.339 373.173C203.699 373.171 203.043 373.168 202.371 373.166C201.699 373.164 201.035 373.161 200.379 373.159ZM223.351 359.415C222.887 359.413 222.464 359.3 222.081 359.074C221.713 358.849 221.418 358.552 221.196 358.183C220.973 357.815 220.862 357.406 220.864 356.958C220.865 356.51 220.979 356.111 221.204 355.759C221.429 355.392 221.726 355.097 222.095 354.874C222.48 354.652 222.904 354.541 223.368 354.543C223.816 354.544 224.224 354.658 224.591 354.883C224.974 355.108 225.277 355.405 225.5 355.774C225.723 356.127 225.833 356.527 225.832 356.975C225.83 357.423 225.717 357.831 225.492 358.198C225.266 358.565 224.961 358.86 224.577 359.083C224.208 359.306 223.799 359.416 223.351 359.415ZM221.311 373.232C221.319 371.184 221.326 369.12 221.333 367.04C221.34 364.944 221.347 362.872 221.354 360.824C222.01 360.826 222.674 360.828 223.346 360.831C224.018 360.833 224.674 360.835 225.314 360.838C225.307 362.886 225.3 364.958 225.293 367.054C225.286 369.134 225.278 371.198 225.271 373.246C224.631 373.243 223.975 373.241 223.303 373.239C222.631 373.236 221.967 373.234 221.311 373.232ZM227.385 367.037C227.389 365.821 227.641 364.758 228.14 363.847C228.639 362.921 229.33 362.18 230.212 361.623C231.093 361.066 232.119 360.733 233.287 360.625C234.455 360.501 235.703 360.642 237.03 361.046C237.027 361.654 237.025 362.27 237.023 362.894C237.021 363.518 237.019 364.134 237.017 364.742C236.09 364.291 235.203 364.08 234.355 364.109C233.507 364.138 232.81 364.4 232.264 364.894C231.719 365.372 231.444 366.091 231.441 367.051C231.437 368.011 231.707 368.74 232.249 369.238C232.791 369.72 233.487 369.978 234.334 370.013C235.182 370.032 236.071 369.827 237.001 369.398C236.998 370.006 236.996 370.622 236.994 371.246C236.992 371.87 236.99 372.486 236.988 373.094C235.658 373.49 234.41 373.621 233.242 373.489C232.075 373.373 231.052 373.034 230.174 372.471C229.296 371.907 228.61 371.169 228.118 370.255C227.625 369.326 227.38 368.253 227.385 367.037ZM248.942 369.488C248.939 370.48 248.656 371.295 248.094 371.933C247.548 372.555 246.81 373.008 245.881 373.293C244.952 373.578 243.912 373.694 242.76 373.642C241.624 373.606 240.465 373.418 239.282 373.078C239.284 372.47 239.286 371.846 239.288 371.206C239.291 370.566 239.293 369.942 239.295 369.334C239.966 369.641 240.637 369.883 241.308 370.061C241.98 370.224 242.587 370.322 243.131 370.356C243.675 370.389 244.115 370.351 244.452 370.24C244.788 370.113 244.957 369.906 244.958 369.618C244.959 369.394 244.815 369.217 244.528 369.088C244.256 368.959 243.897 368.846 243.449 368.749C243.001 368.635 242.522 368.505 242.01 368.36C241.515 368.198 241.044 367.98 240.597 367.707C240.15 367.417 239.783 367.04 239.496 366.575C239.226 366.094 239.092 365.477 239.095 364.725C239.098 363.829 239.357 363.07 239.871 362.448C240.401 361.81 241.107 361.332 241.988 361.015C242.869 360.683 243.853 360.518 244.941 360.522C246.029 360.526 247.141 360.713 248.276 361.085C248.273 361.693 248.271 362.317 248.269 362.957C248.267 363.597 248.265 364.221 248.263 364.829C247.368 364.394 246.529 364.103 245.746 363.957C244.962 363.81 244.33 363.792 243.85 363.902C243.369 363.996 243.129 364.211 243.127 364.547C243.127 364.771 243.262 364.948 243.534 365.077C243.821 365.19 244.181 365.295 244.613 365.393C245.06 365.49 245.532 365.62 246.027 365.782C246.539 365.943 247.01 366.169 247.441 366.458C247.888 366.732 248.247 367.117 248.517 367.614C248.803 368.095 248.945 368.72 248.942 369.488Z" fill="#2F4ECD"/>
</svg>
