<svg width="611" height="689" viewBox="0 0 611 689" fill="none" xmlns="http://www.w3.org/2000/svg">
<rect x="200.259" y="70.0381" width="38.8501" height="61.3104" transform="rotate(25.8168 200.259 70.0381)" fill="#926AE3"/>
<rect x="372.232" y="70.3773" width="38.8501" height="61.3104" transform="rotate(25.8168 372.232 70.3773)" fill="#926AE3"/>
<rect x="127.693" y="100.487" width="356.329" height="424.924" rx="43.0994" transform="rotate(0.198902 127.693 100.487)" fill="#F4E3D5"/>
<rect x="200.644" y="69.7816" width="38.8502" height="61.3104" transform="rotate(0.198902 200.644 69.7816)" fill="#BC9BFF"/>
<mask id="mask0_50_798" style="mask-type:alpha" maskUnits="userSpaceOnUse" x="126" y="442" width="398" height="146">
<rect x="126.504" y="442.852" width="397" height="143.26" transform="rotate(0.198902 126.504 442.852)" fill="#6CBDAA"/>
</mask>
<g mask="url(#mask0_50_798)">
<path d="M127.543 143.586C127.626 119.783 146.989 100.554 170.792 100.637L440.92 101.575C464.723 101.657 483.952 121.02 483.87 144.823L482.694 483.546C482.611 507.349 463.248 526.578 439.445 526.495L169.317 525.558C145.514 525.475 126.284 506.112 126.367 482.309L127.543 143.586Z" fill="#BC9BFF"/>
</g>
<rect x="372.433" y="70.3779" width="38.8502" height="61.3104" transform="rotate(0.198902 372.433 70.3779)" fill="#BC9BFF"/>
<path d="M418.181 192.897C413.12 184.894 395.818 176.786 402.76 185.571C408.123 192.358 413.737 193.143 418.181 192.897Z" stroke="#404040" stroke-width="2.42813"/>
<path d="M424.674 196.823C422.464 206.015 408.692 219.205 412.432 208.672C415.321 200.536 420.385 198.005 424.674 196.823Z" stroke="#404040" stroke-width="2.42813"/>
<path d="M166.214 195.319L416.007 196.186" stroke="#404040" stroke-width="2.42813"/>
<ellipse cx="426.666" cy="184.568" rx="3.79488" ry="7.163" transform="rotate(0.198902 426.666 184.568)" fill="#FFB1B1"/>
<ellipse cx="3.78246" cy="7.18668" rx="3.78246" ry="7.18668" transform="matrix(0.706978 0.707235 -0.711871 0.70231 436.877 180.456)" fill="#FFB1B1"/>
<ellipse cx="3.77114" cy="7.20812" rx="3.77114" ry="7.20812" transform="matrix(0.212116 0.977244 -0.977825 0.209426 422.888 192.472)" fill="#FFB1B1"/>
<ellipse cx="3.77555" cy="7.19978" rx="3.77555" ry="7.19978" transform="matrix(-0.477231 0.878778 -0.881377 -0.472414 426.248 189.063)" fill="#FFB1B1"/>
<ellipse cx="3.79179" cy="7.16891" rx="3.79179" ry="7.16891" transform="matrix(-0.93509 -0.35441 0.358472 -0.93354 423.776 212.886)" fill="#FFB1B1"/>
<ellipse cx="3.78246" cy="7.18668" rx="3.78246" ry="7.18668" transform="matrix(-0.711871 0.70231 -0.706978 -0.707235 440.818 205.795)" fill="#FFB1B1"/>
<ellipse cx="437.632" cy="195.916" rx="3.77" ry="7.21028" transform="rotate(90.1989 437.632 195.916)" fill="#FFB1B1"/>
<ellipse cx="426.821" cy="194.706" rx="6.41593" ry="6.37385" transform="rotate(0.198902 426.821 194.706)" fill="#A46443"/>
<path d="M418.016 240.245C412.956 232.243 395.653 224.134 402.596 232.92C407.958 239.706 413.572 240.491 418.016 240.245Z" stroke="#404040" stroke-width="2.42813"/>
<path d="M424.51 244.171C422.299 253.363 408.527 266.553 412.268 256.02C415.157 247.884 420.221 245.353 424.51 244.171Z" stroke="#404040" stroke-width="2.42813"/>
<path d="M166.049 242.667L415.842 243.534" stroke="#404040" stroke-width="2.42813"/>
<ellipse cx="426.501" cy="231.916" rx="3.79488" ry="7.163" transform="rotate(0.198902 426.501 231.916)" fill="#FFB1B1"/>
<ellipse cx="3.78246" cy="7.18668" rx="3.78246" ry="7.18668" transform="matrix(0.706978 0.707235 -0.711871 0.70231 436.713 227.804)" fill="#FFB1B1"/>
<ellipse cx="3.77114" cy="7.20812" rx="3.77114" ry="7.20812" transform="matrix(0.212116 0.977244 -0.977825 0.209426 422.724 239.82)" fill="#FFB1B1"/>
<ellipse cx="3.77555" cy="7.19978" rx="3.77555" ry="7.19978" transform="matrix(-0.477231 0.878778 -0.881377 -0.472414 426.084 236.411)" fill="#FFB1B1"/>
<ellipse cx="3.79179" cy="7.16891" rx="3.79179" ry="7.16891" transform="matrix(-0.93509 -0.35441 0.358472 -0.93354 423.611 260.234)" fill="#FFB1B1"/>
<ellipse cx="3.78246" cy="7.18668" rx="3.78246" ry="7.18668" transform="matrix(-0.711871 0.70231 -0.706978 -0.707235 440.654 253.143)" fill="#FFB1B1"/>
<ellipse cx="437.467" cy="243.264" rx="3.77" ry="7.21028" transform="rotate(90.1989 437.467 243.264)" fill="#FFB1B1"/>
<ellipse cx="426.656" cy="242.054" rx="6.41593" ry="6.37385" transform="rotate(0.198902 426.656 242.054)" fill="#A46443"/>
<path d="M417.85 288.2C412.789 280.198 395.487 272.09 402.429 280.875C407.792 287.661 413.405 288.447 417.85 288.2Z" stroke="#404040" stroke-width="2.42813"/>
<path d="M424.343 292.127C422.133 301.318 408.36 314.508 412.101 303.976C414.99 295.84 420.054 293.308 424.343 292.127Z" stroke="#404040" stroke-width="2.42813"/>
<path d="M165.883 290.622L415.676 291.49" stroke="#404040" stroke-width="2.42813"/>
<ellipse cx="426.335" cy="279.871" rx="3.79488" ry="7.163" transform="rotate(0.198902 426.335 279.871)" fill="#FFB1B1"/>
<ellipse cx="3.78246" cy="7.18668" rx="3.78246" ry="7.18668" transform="matrix(0.706978 0.707235 -0.711871 0.70231 436.546 275.76)" fill="#FFB1B1"/>
<ellipse cx="3.77114" cy="7.20812" rx="3.77114" ry="7.20812" transform="matrix(0.212116 0.977244 -0.977825 0.209426 422.557 287.775)" fill="#FFB1B1"/>
<ellipse cx="3.77555" cy="7.19978" rx="3.77555" ry="7.19978" transform="matrix(-0.477231 0.878778 -0.881377 -0.472414 425.917 284.366)" fill="#FFB1B1"/>
<ellipse cx="3.79179" cy="7.16891" rx="3.79179" ry="7.16891" transform="matrix(-0.93509 -0.35441 0.358472 -0.93354 423.445 308.189)" fill="#FFB1B1"/>
<ellipse cx="3.78246" cy="7.18668" rx="3.78246" ry="7.18668" transform="matrix(-0.711871 0.70231 -0.706978 -0.707235 440.487 301.099)" fill="#FFB1B1"/>
<ellipse cx="437.301" cy="291.22" rx="3.77" ry="7.21028" transform="rotate(90.1989 437.301 291.22)" fill="#FFB1B1"/>
<ellipse cx="426.489" cy="290.009" rx="6.41593" ry="6.37385" transform="rotate(0.198902 426.489 290.009)" fill="#A46443"/>
<path d="M417.683 336.156C412.623 328.154 395.32 320.045 402.263 328.831C407.626 335.617 413.239 336.402 417.683 336.156Z" stroke="#404040" stroke-width="2.42813"/>
<path d="M424.177 340.082C421.966 349.274 408.194 362.464 411.935 351.931C414.824 343.796 419.888 341.264 424.177 340.082Z" stroke="#404040" stroke-width="2.42813"/>
<path d="M165.717 338.578L415.509 339.445" stroke="#404040" stroke-width="2.42813"/>
<ellipse cx="426.169" cy="327.827" rx="3.79488" ry="7.163" transform="rotate(0.198902 426.169 327.827)" fill="#FFB1B1"/>
<ellipse cx="3.78246" cy="7.18668" rx="3.78246" ry="7.18668" transform="matrix(0.706978 0.707235 -0.711871 0.70231 436.38 323.716)" fill="#FFB1B1"/>
<ellipse cx="3.77114" cy="7.20812" rx="3.77114" ry="7.20812" transform="matrix(0.212116 0.977244 -0.977825 0.209426 422.391 335.731)" fill="#FFB1B1"/>
<ellipse cx="3.77555" cy="7.19978" rx="3.77555" ry="7.19978" transform="matrix(-0.477231 0.878778 -0.881377 -0.472414 425.751 332.322)" fill="#FFB1B1"/>
<ellipse cx="3.79179" cy="7.16891" rx="3.79179" ry="7.16891" transform="matrix(-0.93509 -0.35441 0.358472 -0.93354 423.279 356.145)" fill="#FFB1B1"/>
<ellipse cx="3.78246" cy="7.18668" rx="3.78246" ry="7.18668" transform="matrix(-0.711871 0.70231 -0.706978 -0.707235 440.321 349.054)" fill="#FFB1B1"/>
<ellipse cx="437.135" cy="339.175" rx="3.77" ry="7.21028" transform="rotate(90.1989 437.135 339.175)" fill="#FFB1B1"/>
<ellipse cx="426.323" cy="337.965" rx="6.41593" ry="6.37385" transform="rotate(0.198902 426.323 337.965)" fill="#A46443"/>
<path d="M417.517 384.111C412.456 376.109 395.154 368 402.096 376.786C407.459 383.572 413.073 384.358 417.517 384.111Z" stroke="#404040" stroke-width="2.42813"/>
<path d="M424.011 388.037C421.8 397.229 408.028 410.419 411.768 399.887C414.658 391.751 419.722 389.219 424.011 388.037Z" stroke="#404040" stroke-width="2.42813"/>
<path d="M165.55 386.533L415.343 387.4" stroke="#404040" stroke-width="2.42813"/>
<ellipse cx="426.002" cy="375.782" rx="3.79488" ry="7.163" transform="rotate(0.198902 426.002 375.782)" fill="#FFB1B1"/>
<ellipse cx="3.78246" cy="7.18668" rx="3.78246" ry="7.18668" transform="matrix(0.706978 0.707235 -0.711871 0.70231 436.213 371.671)" fill="#FFB1B1"/>
<ellipse cx="3.77114" cy="7.20812" rx="3.77114" ry="7.20812" transform="matrix(0.212116 0.977244 -0.977825 0.209426 422.225 383.686)" fill="#FFB1B1"/>
<ellipse cx="3.77555" cy="7.19978" rx="3.77555" ry="7.19978" transform="matrix(-0.477231 0.878778 -0.881377 -0.472414 425.584 380.277)" fill="#FFB1B1"/>
<ellipse cx="3.79179" cy="7.16891" rx="3.79179" ry="7.16891" transform="matrix(-0.93509 -0.35441 0.358472 -0.93354 423.112 404.1)" fill="#FFB1B1"/>
<ellipse cx="3.78246" cy="7.18668" rx="3.78246" ry="7.18668" transform="matrix(-0.711871 0.70231 -0.706978 -0.707235 440.154 397.01)" fill="#FFB1B1"/>
<ellipse cx="436.968" cy="387.13" rx="3.77" ry="7.21028" transform="rotate(90.1989 436.968 387.13)" fill="#FFB1B1"/>
<ellipse cx="426.157" cy="385.92" rx="6.41593" ry="6.37385" transform="rotate(0.198902 426.157 385.92)" fill="#A46443"/>
<path d="M167.242 186.73C167.252 184.042 167.261 181.322 167.271 178.57C167.28 175.818 167.29 173.098 167.299 170.41C168.259 170.413 169.219 170.417 170.179 170.42C171.155 170.423 172.123 170.427 173.083 170.43C174.299 170.434 175.362 170.67 176.273 171.137C177.183 171.588 177.885 172.231 178.378 173.064C178.887 173.882 179.14 174.843 179.136 175.947C179.133 176.891 178.938 177.73 178.551 178.465C178.165 179.2 177.643 179.798 176.985 180.26C177.621 181.334 178.257 182.424 178.894 183.53C179.546 184.621 180.19 185.703 180.826 186.777C180.042 186.774 179.258 186.772 178.474 186.769C177.69 186.766 176.906 186.763 176.122 186.761C175.63 185.863 175.129 184.949 174.62 184.019C174.127 183.09 173.626 182.176 173.117 181.278C172.845 181.277 172.565 181.276 172.277 181.275C172.005 181.274 171.733 181.273 171.461 181.272C171.458 182.168 171.455 183.08 171.452 184.008C171.449 184.936 171.446 185.848 171.442 186.744C170.754 186.742 170.058 186.74 169.354 186.737C168.65 186.735 167.946 186.732 167.242 186.73ZM173.07 174.222C172.814 174.221 172.55 174.22 172.278 174.219C172.022 174.218 171.758 174.217 171.486 174.217C171.484 174.809 171.482 175.401 171.48 175.993C171.478 176.585 171.476 177.177 171.474 177.769C171.778 177.77 172.082 177.771 172.386 177.772C172.69 177.773 172.994 177.774 173.298 177.775C173.778 177.777 174.17 177.61 174.475 177.275C174.781 176.924 174.934 176.501 174.936 176.005C174.938 175.493 174.771 175.068 174.436 174.731C174.117 174.394 173.662 174.224 173.07 174.222ZM192.356 186.241C191.251 186.701 190.154 186.985 189.065 187.094C187.977 187.202 186.945 187.134 185.97 186.891C185.011 186.664 184.156 186.269 183.406 185.706C182.656 185.143 182.066 184.429 181.637 183.564C181.224 182.698 181.02 181.698 181.024 180.562C181.027 179.618 181.182 178.754 181.489 177.971C181.812 177.172 182.262 176.478 182.84 175.888C183.418 175.282 184.1 174.82 184.885 174.503C185.67 174.17 186.527 174.005 187.455 174.008C188.287 174.011 189.038 174.149 189.709 174.424C190.38 174.698 190.963 175.084 191.457 175.582C191.952 176.064 192.35 176.641 192.651 177.314C192.953 177.987 193.142 178.724 193.22 179.524C193.297 180.324 193.246 181.172 193.067 182.067C191.755 182.063 190.435 182.058 189.107 182.054C187.779 182.049 186.459 182.045 185.147 182.04C185.449 182.649 185.951 183.083 186.654 183.341C187.373 183.6 188.221 183.683 189.197 183.59C190.19 183.498 191.247 183.245 192.368 182.833C192.366 183.393 192.364 183.961 192.362 184.537C192.36 185.113 192.358 185.681 192.356 186.241ZM187.346 177.56C186.882 177.558 186.45 177.685 186.049 177.939C185.664 178.194 185.367 178.585 185.157 179.112C185.877 179.115 186.597 179.117 187.317 179.12C188.053 179.122 188.781 179.125 189.501 179.127C189.311 178.582 189.024 178.189 188.641 177.948C188.274 177.691 187.842 177.561 187.346 177.56ZM195.411 186.828C195.421 183.932 195.432 181.012 195.442 178.068C195.452 175.124 195.462 172.204 195.472 169.308C196.128 169.31 196.792 169.312 197.464 169.315C198.136 169.317 198.792 169.319 199.432 169.322C199.422 172.218 199.412 175.137 199.402 178.081C199.392 181.025 199.381 183.945 199.371 186.841C198.731 186.839 198.075 186.837 197.403 186.835C196.731 186.832 196.067 186.83 195.411 186.828ZM210.415 186.88C210.415 186.752 210.416 186.632 210.416 186.52C210.417 186.392 210.417 186.272 210.418 186.16C210.016 186.494 209.559 186.749 209.047 186.923C208.55 187.113 208.014 187.207 207.438 187.205C206.622 187.203 205.854 187.048 205.135 186.741C204.417 186.419 203.778 185.969 203.22 185.391C202.678 184.797 202.249 184.099 201.931 183.298C201.63 182.497 201.481 181.609 201.485 180.633C201.488 179.641 201.643 178.745 201.95 177.946C202.273 177.147 202.707 176.469 203.253 175.911C203.815 175.337 204.457 174.899 205.178 174.597C205.899 174.28 206.659 174.123 207.459 174.125C208.035 174.127 208.579 174.225 209.09 174.419C209.602 174.597 210.057 174.846 210.456 175.168C210.456 175.04 210.457 174.92 210.457 174.808C210.457 174.696 210.458 174.584 210.458 174.472C211.114 174.474 211.778 174.476 212.45 174.479C213.122 174.481 213.778 174.483 214.418 174.486C214.411 176.534 214.404 178.606 214.396 180.702C214.389 182.782 214.382 184.846 214.375 186.893C213.735 186.891 213.079 186.889 212.407 186.887C211.735 186.884 211.071 186.882 210.415 186.88ZM207.978 183.703C208.746 183.706 209.363 183.428 209.829 182.87C210.295 182.311 210.529 181.576 210.533 180.664C210.536 179.752 210.306 179.023 209.844 178.478C209.382 177.916 208.767 177.634 207.999 177.631C207.215 177.629 206.59 177.898 206.124 178.441C205.674 178.983 205.448 179.718 205.445 180.646C205.441 181.574 205.663 182.319 206.109 182.881C206.571 183.426 207.194 183.701 207.978 183.703ZM216.053 174.491C216.789 174.494 217.525 174.496 218.261 174.499C218.997 174.501 219.733 174.504 220.469 174.507C220.755 174.988 221.049 175.477 221.352 175.974C221.654 176.455 221.948 176.936 222.235 177.417C222.54 176.938 222.846 176.459 223.152 175.98C223.457 175.485 223.763 174.998 224.069 174.519C224.789 174.522 225.517 174.524 226.253 174.527C226.989 174.529 227.717 174.532 228.437 174.534C227.809 175.508 227.166 176.49 226.507 177.48C225.863 178.469 225.228 179.459 224.6 180.449C225.253 181.523 225.913 182.606 226.581 183.696C227.249 184.786 227.901 185.868 228.538 186.943C227.802 186.94 227.066 186.938 226.33 186.935C225.594 186.932 224.858 186.93 224.122 186.927C223.804 186.382 223.478 185.837 223.143 185.292C222.825 184.731 222.507 184.178 222.189 183.633C221.867 184.175 221.529 184.726 221.175 185.285C220.838 185.828 220.508 186.371 220.186 186.914C219.466 186.911 218.738 186.909 218.002 186.906C217.266 186.904 216.538 186.901 215.818 186.899C216.477 185.861 217.145 184.807 217.821 183.737C218.497 182.652 219.164 181.59 219.824 180.552C219.203 179.558 218.575 178.548 217.938 177.522C217.302 176.496 216.673 175.485 216.053 174.491ZM237.79 186.975C237.79 186.847 237.791 186.727 237.791 186.615C237.792 186.487 237.792 186.367 237.792 186.255C237.391 186.589 236.934 186.844 236.422 187.018C235.925 187.208 235.389 187.302 234.813 187.3C233.997 187.298 233.229 187.143 232.51 186.836C231.791 186.514 231.153 186.064 230.595 185.486C230.053 184.892 229.623 184.194 229.306 183.393C229.005 182.592 228.856 181.704 228.859 180.728C228.863 179.736 229.018 178.84 229.325 178.041C229.648 177.242 230.082 176.564 230.628 176.006C231.19 175.432 231.831 174.994 232.552 174.693C233.274 174.375 234.034 174.218 234.834 174.22C235.41 174.222 235.954 174.32 236.465 174.514C236.976 174.692 237.432 174.941 237.831 175.263C237.831 175.135 237.831 175.015 237.832 174.903C237.832 174.791 237.833 174.679 237.833 174.567C238.489 174.569 239.153 174.571 239.825 174.574C240.497 174.576 241.153 174.578 241.793 174.581C241.786 176.629 241.779 178.701 241.771 180.797C241.764 182.877 241.757 184.941 241.75 186.989C241.11 186.986 240.454 186.984 239.782 186.982C239.11 186.979 238.446 186.977 237.79 186.975ZM235.353 183.798C236.121 183.801 236.738 183.523 237.204 182.965C237.67 182.406 237.904 181.671 237.907 180.759C237.911 179.847 237.681 179.118 237.219 178.573C236.757 178.011 236.142 177.729 235.374 177.726C234.59 177.724 233.965 177.993 233.499 178.536C233.049 179.078 232.823 179.813 232.819 180.741C232.816 181.669 233.038 182.414 233.484 182.976C233.946 183.521 234.569 183.796 235.353 183.798ZM245.689 187.002C245.694 185.53 245.699 184.05 245.704 182.562C245.709 181.074 245.714 179.602 245.719 178.146C245.399 178.145 245.071 178.144 244.735 178.143C244.415 178.142 244.095 178.141 243.775 178.14C243.777 177.548 243.779 176.956 243.782 176.364C243.784 175.772 243.786 175.18 243.788 174.588C244.108 174.589 244.428 174.59 244.748 174.591C245.084 174.592 245.412 174.593 245.732 174.594C245.734 174.034 245.736 173.482 245.737 172.938C245.739 172.378 245.741 171.826 245.743 171.282C246.399 171.285 247.063 171.287 247.735 171.289C248.407 171.292 249.063 171.294 249.703 171.296C249.701 171.84 249.699 172.392 249.697 172.952C249.696 173.496 249.694 174.048 249.692 174.608C250.06 174.609 250.436 174.611 250.82 174.612C251.204 174.613 251.58 174.615 251.948 174.616C251.946 175.208 251.944 175.8 251.941 176.392C251.939 176.984 251.937 177.576 251.935 178.168C251.567 178.167 251.191 178.165 250.807 178.164C250.423 178.163 250.047 178.161 249.679 178.16C249.674 179.616 249.669 181.088 249.664 182.576C249.659 184.064 249.654 185.544 249.649 187.016C249.009 187.014 248.353 187.011 247.681 187.009C247.009 187.007 246.345 187.004 245.689 187.002ZM255.974 173.214C255.51 173.212 255.087 173.099 254.704 172.873C254.336 172.648 254.041 172.351 253.819 171.982C253.596 171.614 253.485 171.205 253.487 170.757C253.488 170.309 253.602 169.91 253.827 169.558C254.052 169.191 254.349 168.896 254.718 168.673C255.103 168.451 255.527 168.34 255.991 168.342C256.439 168.343 256.847 168.457 257.214 168.682C257.597 168.907 257.9 169.204 258.123 169.573C258.346 169.926 258.456 170.326 258.455 170.774C258.453 171.222 258.34 171.63 258.115 171.997C257.889 172.364 257.584 172.659 257.2 172.882C256.831 173.105 256.422 173.215 255.974 173.214ZM253.934 187.031C253.942 184.983 253.949 182.919 253.956 180.839C253.963 178.743 253.97 176.671 253.978 174.623C254.634 174.625 255.298 174.627 255.97 174.63C256.641 174.632 257.297 174.634 257.937 174.637C257.93 176.685 257.923 178.757 257.916 180.853C257.909 182.933 257.902 184.997 257.894 187.045C257.254 187.042 256.598 187.04 255.926 187.038C255.254 187.035 254.59 187.033 253.934 187.031ZM266.537 187.459C265.609 187.455 264.745 187.292 263.946 186.97C263.148 186.631 262.453 186.164 261.863 185.57C261.273 184.96 260.812 184.255 260.479 183.454C260.161 182.652 260.004 181.78 260.008 180.836C260.011 179.892 260.174 179.02 260.497 178.222C260.836 177.423 261.302 176.728 261.896 176.138C262.49 175.548 263.188 175.095 263.989 174.778C264.79 174.444 265.655 174.279 266.583 174.283C267.527 174.286 268.39 174.457 269.173 174.796C269.972 175.118 270.666 175.577 271.256 176.171C271.846 176.765 272.3 177.463 272.617 178.264C272.95 179.065 273.115 179.937 273.112 180.881C273.108 181.825 272.937 182.697 272.599 183.496C272.276 184.294 271.817 184.997 271.223 185.603C270.629 186.193 269.932 186.654 269.13 186.988C268.345 187.305 267.481 187.462 266.537 187.459ZM266.549 183.883C267.333 183.885 267.958 183.607 268.424 183.049C268.906 182.475 269.149 181.748 269.152 180.868C269.155 179.972 268.917 179.251 268.439 178.705C267.977 178.144 267.354 177.861 266.57 177.859C265.786 177.856 265.153 178.134 264.671 178.692C264.205 179.234 263.971 179.954 263.968 180.85C263.965 181.73 264.194 182.458 264.656 183.036C265.134 183.598 265.765 183.88 266.549 183.883ZM275.049 187.104C275.056 185.056 275.063 182.992 275.07 180.912C275.077 178.816 275.085 176.744 275.092 174.696C275.748 174.698 276.412 174.701 277.084 174.703C277.756 174.705 278.412 174.708 279.052 174.71C279.051 174.822 279.051 174.926 279.051 175.022C279.05 175.118 279.05 175.222 279.05 175.334C279.483 175.031 279.963 174.801 280.492 174.643C281.037 174.469 281.621 174.383 282.245 174.385C283.157 174.388 283.956 174.599 284.643 175.017C285.345 175.436 285.887 176.038 286.268 176.823C286.666 177.592 286.863 178.521 286.859 179.609C286.854 180.857 286.85 182.113 286.846 183.377C286.841 184.641 286.837 185.897 286.833 187.145C286.193 187.143 285.537 187.141 284.865 187.138C284.193 187.136 283.529 187.134 282.873 187.131C282.877 185.979 282.881 184.811 282.885 183.627C282.889 182.443 282.893 181.275 282.897 180.123C282.899 179.483 282.749 178.971 282.446 178.586C282.16 178.185 281.696 177.983 281.056 177.981C280.416 177.979 279.92 178.161 279.566 178.528C279.213 178.895 279.035 179.422 279.033 180.11C279.029 181.262 279.025 182.43 279.021 183.614C279.017 184.798 279.013 185.966 279.009 187.118C278.369 187.116 277.713 187.113 277.041 187.111C276.369 187.109 275.705 187.106 275.049 187.104ZM303.807 183.364C303.804 184.356 303.521 185.171 302.959 185.809C302.413 186.431 301.675 186.885 300.746 187.169C299.817 187.454 298.777 187.571 297.625 187.519C296.489 187.483 295.33 187.295 294.147 186.954C294.149 186.346 294.151 185.722 294.153 185.082C294.156 184.442 294.158 183.818 294.16 183.21C294.831 183.517 295.502 183.759 296.173 183.937C296.845 184.1 297.453 184.198 297.996 184.232C298.54 184.266 298.98 184.227 299.317 184.116C299.653 183.99 299.822 183.782 299.823 183.494C299.824 183.27 299.68 183.094 299.393 182.965C299.121 182.836 298.762 182.722 298.314 182.625C297.866 182.511 297.387 182.382 296.875 182.236C296.38 182.074 295.909 181.857 295.462 181.583C295.015 181.293 294.648 180.916 294.362 180.451C294.091 179.97 293.957 179.354 293.96 178.602C293.963 177.706 294.222 176.947 294.736 176.324C295.266 175.686 295.972 175.209 296.853 174.892C297.734 174.559 298.719 174.394 299.807 174.398C300.895 174.402 302.006 174.59 303.141 174.962C303.139 175.57 303.136 176.194 303.134 176.834C303.132 177.474 303.13 178.098 303.128 178.706C302.233 178.27 301.394 177.98 300.611 177.833C299.827 177.686 299.195 177.668 298.715 177.778C298.234 177.873 297.994 178.088 297.993 178.424C297.992 178.648 298.127 178.824 298.399 178.953C298.686 179.066 299.046 179.171 299.478 179.269C299.925 179.366 300.397 179.496 300.892 179.658C301.404 179.82 301.875 180.045 302.306 180.335C302.753 180.608 303.112 180.994 303.382 181.49C303.668 181.971 303.81 182.596 303.807 183.364ZM307.001 187.215C307.006 185.743 307.011 184.263 307.016 182.775C307.021 181.287 307.026 179.815 307.031 178.359C306.711 178.358 306.383 178.357 306.047 178.356C305.727 178.355 305.407 178.353 305.087 178.352C305.09 177.76 305.092 177.168 305.094 176.576C305.096 175.984 305.098 175.392 305.1 174.8C305.42 174.801 305.74 174.803 306.06 174.804C306.396 174.805 306.724 174.806 307.044 174.807C307.046 174.247 307.048 173.695 307.05 173.151C307.052 172.591 307.053 172.039 307.055 171.495C307.711 171.497 308.375 171.5 309.047 171.502C309.719 171.504 310.375 171.507 311.015 171.509C311.013 172.053 311.011 172.605 311.01 173.165C311.008 173.709 311.006 174.261 311.004 174.821C311.372 174.822 311.748 174.823 312.132 174.825C312.516 174.826 312.892 174.827 313.26 174.829C313.258 175.421 313.256 176.013 313.254 176.605C313.252 177.197 313.25 177.789 313.247 178.381C312.879 178.379 312.503 178.378 312.119 178.377C311.735 178.375 311.359 178.374 310.991 178.373C310.986 179.829 310.981 181.301 310.976 182.789C310.971 184.277 310.966 185.757 310.961 187.229C310.321 187.227 309.665 187.224 308.993 187.222C308.321 187.22 307.657 187.217 307.001 187.215ZM323.289 187.272C323.29 187.144 323.29 187.024 323.291 186.912C323.291 186.784 323.291 186.664 323.292 186.552C322.891 186.886 322.434 187.141 321.921 187.315C321.425 187.505 320.888 187.599 320.312 187.597C319.496 187.594 318.729 187.44 318.01 187.133C317.291 186.811 316.652 186.361 316.094 185.783C315.553 185.189 315.123 184.491 314.806 183.69C314.504 182.889 314.356 182.001 314.359 181.025C314.362 180.033 314.518 179.137 314.824 178.338C315.147 177.539 315.581 176.861 316.127 176.303C316.689 175.729 317.331 175.291 318.052 174.989C318.773 174.672 319.534 174.514 320.334 174.517C320.91 174.519 321.453 174.617 321.965 174.811C322.476 174.989 322.931 175.238 323.33 175.56C323.33 175.432 323.331 175.312 323.331 175.2C323.332 175.088 323.332 174.976 323.332 174.864C323.988 174.866 324.652 174.868 325.324 174.871C325.996 174.873 326.652 174.875 327.292 174.877C327.285 176.925 327.278 178.997 327.271 181.093C327.264 183.173 327.256 185.237 327.249 187.285C326.609 187.283 325.953 187.281 325.281 187.279C324.609 187.276 323.945 187.274 323.289 187.272ZM320.852 184.095C321.62 184.098 322.237 183.82 322.703 183.262C323.169 182.703 323.404 181.968 323.407 181.056C323.41 180.144 323.181 179.415 322.718 178.87C322.256 178.308 321.641 178.026 320.873 178.023C320.089 178.02 319.464 178.29 318.999 178.833C318.549 179.375 318.322 180.11 318.319 181.038C318.316 181.966 318.537 182.711 318.983 183.273C319.445 183.818 320.068 184.092 320.852 184.095ZM341.563 185.319C341.558 186.679 341.258 187.814 340.663 188.724C340.084 189.634 339.29 190.311 338.28 190.756C337.271 191.216 336.118 191.452 334.822 191.464C333.542 191.475 332.19 191.279 330.768 190.874C330.77 190.25 330.772 189.618 330.774 188.978C330.776 188.354 330.779 187.73 330.781 187.106C332.043 187.606 333.186 187.858 334.21 187.862C335.234 187.881 336.043 187.692 336.636 187.294C337.246 186.88 337.552 186.313 337.554 185.593C337.554 185.513 337.555 185.441 337.555 185.377C337.555 185.297 337.555 185.225 337.556 185.161C337.155 185.464 336.69 185.702 336.161 185.876C335.632 186.05 335.064 186.136 334.456 186.134C333.448 186.131 332.545 185.896 331.747 185.429C330.964 184.946 330.351 184.288 329.905 183.455C329.46 182.605 329.24 181.62 329.244 180.5C329.247 179.636 329.393 178.845 329.684 178.126C329.974 177.407 330.377 176.784 330.89 176.258C331.404 175.732 331.99 175.334 332.647 175.064C333.304 174.778 333.992 174.637 334.712 174.639C335.288 174.641 335.824 174.723 336.319 174.885C336.815 175.046 337.254 175.264 337.637 175.537C337.637 175.425 337.638 175.321 337.638 175.225C337.638 175.129 337.639 175.025 337.639 174.913C338.295 174.916 338.959 174.918 339.631 174.92C340.303 174.923 340.959 174.925 341.599 174.927C341.593 176.639 341.587 178.375 341.581 180.135C341.575 181.879 341.569 183.607 341.563 185.319ZM335.452 182.706C336.124 182.708 336.661 182.502 337.062 182.087C337.48 181.657 337.69 181.106 337.692 180.434C337.694 179.746 337.488 179.185 337.074 178.751C336.675 178.318 336.14 178.1 335.468 178.098C334.764 178.095 334.203 178.309 333.786 178.74C333.368 179.155 333.158 179.714 333.156 180.418C333.154 181.106 333.36 181.659 333.774 182.076C334.189 182.493 334.748 182.703 335.452 182.706ZM354.871 186.805C353.765 187.265 352.668 187.55 351.58 187.658C350.491 187.766 349.46 187.698 348.485 187.455C347.525 187.228 346.671 186.833 345.921 186.27C345.171 185.708 344.581 184.993 344.152 184.128C343.739 183.263 343.535 182.262 343.538 181.126C343.542 180.182 343.697 179.318 344.003 178.535C344.326 177.737 344.777 177.042 345.355 176.452C345.933 175.846 346.614 175.384 347.4 175.067C348.185 174.734 349.041 174.569 349.969 174.572C350.801 174.575 351.553 174.714 352.224 174.988C352.895 175.262 353.478 175.648 353.972 176.146C354.466 176.628 354.864 177.205 355.166 177.878C355.467 178.551 355.657 179.288 355.734 180.088C355.811 180.888 355.76 181.736 355.581 182.632C354.269 182.627 352.949 182.623 351.621 182.618C350.293 182.613 348.973 182.609 347.661 182.604C347.963 183.213 348.466 183.647 349.169 183.905C349.888 184.164 350.736 184.247 351.712 184.154C352.704 184.062 353.761 183.809 354.883 183.397C354.881 183.957 354.879 184.525 354.877 185.101C354.875 185.677 354.873 186.245 354.871 186.805ZM349.861 178.124C349.397 178.122 348.964 178.249 348.564 178.503C348.179 178.758 347.881 179.149 347.672 179.676C348.392 179.679 349.112 179.681 349.832 179.684C350.568 179.686 351.296 179.689 352.016 179.691C351.825 179.147 351.539 178.754 351.156 178.512C350.788 178.255 350.357 178.126 349.861 178.124Z" fill="#2F4ECD"/>
<path d="M166.984 233.827C166.993 231.139 167.002 228.419 167.012 225.667C167.022 222.915 167.031 220.195 167.04 217.508C168 217.511 168.96 217.514 169.92 217.518C170.896 217.521 171.864 217.524 172.824 217.528C174.04 217.532 175.103 217.768 176.014 218.235C176.924 218.686 177.626 219.328 178.119 220.162C178.628 220.98 178.881 221.941 178.877 223.045C178.874 223.989 178.679 224.828 178.292 225.563C177.906 226.297 177.384 226.895 176.726 227.357C177.362 228.431 177.999 229.522 178.635 230.628C179.287 231.718 179.931 232.8 180.568 233.875C179.784 233.872 179 233.869 178.216 233.866C177.432 233.864 176.648 233.861 175.864 233.858C175.371 232.961 174.87 232.047 174.361 231.117C173.868 230.187 173.368 229.274 172.859 228.376C172.587 228.375 172.307 228.374 172.019 228.373C171.747 228.372 171.475 228.371 171.203 228.37C171.2 229.266 171.196 230.178 171.193 231.106C171.19 232.034 171.187 232.946 171.184 233.842C170.496 233.84 169.8 233.837 169.096 233.835C168.392 233.832 167.688 233.83 166.984 233.827ZM172.811 221.32C172.555 221.319 172.291 221.318 172.019 221.317C171.763 221.316 171.499 221.315 171.227 221.314C171.225 221.906 171.223 222.498 171.221 223.09C171.219 223.682 171.217 224.274 171.215 224.866C171.519 224.867 171.823 224.868 172.127 224.869C172.431 224.87 172.735 224.871 173.039 224.872C173.519 224.874 173.911 224.707 174.217 224.372C174.522 224.022 174.675 223.598 174.677 223.102C174.679 222.59 174.512 222.165 174.177 221.828C173.859 221.491 173.403 221.322 172.811 221.32ZM192.097 233.339C190.992 233.799 189.895 234.083 188.806 234.191C187.718 234.299 186.686 234.232 185.711 233.988C184.752 233.761 183.897 233.366 183.147 232.804C182.397 232.241 181.808 231.527 181.379 230.661C180.966 229.796 180.761 228.795 180.765 227.659C180.768 226.715 180.923 225.852 181.23 225.069C181.553 224.27 182.003 223.575 182.581 222.985C183.159 222.379 183.841 221.918 184.626 221.601C185.411 221.267 186.268 221.102 187.196 221.106C188.028 221.108 188.779 221.247 189.45 221.521C190.121 221.796 190.704 222.182 191.198 222.679C191.693 223.161 192.091 223.739 192.392 224.412C192.694 225.085 192.883 225.821 192.961 226.622C193.038 227.422 192.987 228.27 192.808 229.165C191.496 229.16 190.176 229.156 188.848 229.151C187.52 229.147 186.2 229.142 184.888 229.138C185.19 229.747 185.692 230.18 186.395 230.439C187.115 230.697 187.962 230.78 188.939 230.688C189.931 230.595 190.988 230.343 192.109 229.931C192.107 230.491 192.105 231.059 192.103 231.635C192.101 232.211 192.099 232.779 192.097 233.339ZM187.088 224.657C186.624 224.656 186.191 224.782 185.79 225.037C185.405 225.291 185.108 225.682 184.898 226.21C185.618 226.212 186.338 226.215 187.058 226.217C187.794 226.22 188.522 226.222 189.242 226.225C189.052 225.68 188.765 225.287 188.382 225.046C188.015 224.788 187.583 224.659 187.088 224.657ZM195.153 233.925C195.163 231.029 195.173 228.109 195.183 225.165C195.193 222.221 195.203 219.301 195.213 216.405C195.869 216.408 196.533 216.41 197.205 216.412C197.877 216.415 198.533 216.417 199.173 216.419C199.163 219.315 199.153 222.235 199.143 225.179C199.133 228.123 199.123 231.043 199.113 233.939C198.473 233.937 197.817 233.934 197.145 233.932C196.473 233.93 195.809 233.927 195.153 233.925ZM210.156 233.977C210.157 233.849 210.157 233.729 210.157 233.617C210.158 233.489 210.158 233.369 210.159 233.257C209.758 233.592 209.301 233.846 208.788 234.021C208.291 234.211 207.755 234.305 207.179 234.303C206.363 234.3 205.596 234.145 204.877 233.839C204.158 233.516 203.519 233.066 202.961 232.488C202.419 231.894 201.99 231.197 201.673 230.396C201.371 229.595 201.222 228.706 201.226 227.73C201.229 226.738 201.384 225.843 201.691 225.044C202.014 224.245 202.448 223.566 202.994 223.008C203.556 222.434 204.198 221.997 204.919 221.695C205.64 221.378 206.4 221.22 207.2 221.223C207.776 221.225 208.32 221.323 208.831 221.517C209.343 221.694 209.798 221.944 210.197 222.265C210.197 222.137 210.198 222.017 210.198 221.905C210.199 221.793 210.199 221.681 210.199 221.569C210.855 221.572 211.519 221.574 212.191 221.576C212.863 221.579 213.519 221.581 214.159 221.583C214.152 223.631 214.145 225.703 214.138 227.799C214.13 229.879 214.123 231.943 214.116 233.991C213.476 233.989 212.82 233.987 212.148 233.984C211.476 233.982 210.812 233.98 210.156 233.977ZM207.719 230.801C208.487 230.803 209.104 230.526 209.57 229.967C210.036 229.409 210.271 228.674 210.274 227.762C210.277 226.85 210.047 226.121 209.585 225.575C209.123 225.014 208.508 224.732 207.74 224.729C206.956 224.726 206.331 224.996 205.865 225.538C205.416 226.081 205.189 226.816 205.186 227.744C205.183 228.672 205.404 229.417 205.85 229.978C206.312 230.524 206.935 230.798 207.719 230.801ZM215.794 221.589C216.53 221.591 217.266 221.594 218.002 221.596C218.738 221.599 219.474 221.602 220.21 221.604C220.496 222.085 220.791 222.574 221.093 223.071C221.395 223.552 221.69 224.033 221.976 224.514C222.282 224.035 222.587 223.556 222.893 223.077C223.199 222.582 223.504 222.096 223.81 221.617C224.53 221.619 225.258 221.622 225.994 221.624C226.73 221.627 227.458 221.629 228.178 221.632C227.551 222.606 226.907 223.587 226.248 224.577C225.604 225.567 224.969 226.557 224.341 227.546C224.994 228.621 225.654 229.703 226.322 230.793C226.99 231.884 227.643 232.966 228.279 234.04C227.543 234.038 226.807 234.035 226.071 234.033C225.335 234.03 224.599 234.027 223.863 234.025C223.545 233.48 223.219 232.935 222.885 232.389C222.567 231.828 222.248 231.275 221.93 230.73C221.608 231.273 221.271 231.824 220.917 232.383C220.579 232.925 220.249 233.468 219.927 234.011C219.207 234.009 218.479 234.006 217.743 234.004C217.007 234.001 216.279 233.999 215.559 233.996C216.219 232.958 216.886 231.905 217.562 230.835C218.238 229.749 218.905 228.688 219.565 227.65C218.945 226.656 218.316 225.646 217.68 224.619C217.043 223.593 216.415 222.583 215.794 221.589ZM239.933 233.505C238.827 233.965 237.73 234.249 236.642 234.357C235.554 234.465 234.522 234.398 233.547 234.154C232.588 233.927 231.733 233.532 230.983 232.97C230.233 232.407 229.643 231.693 229.214 230.827C228.801 229.962 228.597 228.961 228.601 227.825C228.604 226.881 228.759 226.018 229.066 225.235C229.388 224.436 229.839 223.742 230.417 223.152C230.995 222.546 231.677 222.084 232.462 221.767C233.247 221.433 234.103 221.268 235.031 221.272C235.863 221.274 236.615 221.413 237.286 221.687C237.957 221.962 238.54 222.348 239.034 222.845C239.528 223.327 239.926 223.905 240.228 224.578C240.53 225.251 240.719 225.987 240.796 226.788C240.874 227.588 240.823 228.436 240.644 229.331C239.332 229.327 238.012 229.322 236.684 229.317C235.356 229.313 234.036 229.308 232.724 229.304C233.025 229.913 233.528 230.346 234.231 230.605C234.95 230.863 235.798 230.946 236.774 230.854C237.767 230.761 238.823 230.509 239.945 230.097C239.943 230.657 239.941 231.225 239.939 231.801C239.937 232.377 239.935 232.945 239.933 233.505ZM234.923 224.823C234.459 224.822 234.027 224.948 233.626 225.203C233.241 225.457 232.944 225.848 232.734 226.376C233.454 226.378 234.174 226.381 234.894 226.383C235.63 226.386 236.358 226.388 237.078 226.391C236.888 225.846 236.601 225.453 236.218 225.212C235.851 224.954 235.419 224.825 234.923 224.823ZM251.148 234.12C251.149 233.992 251.149 233.872 251.149 233.76C251.15 233.632 251.15 233.512 251.151 233.4C250.75 233.734 250.293 233.989 249.78 234.163C249.283 234.353 248.747 234.447 248.171 234.445C247.355 234.442 246.588 234.28 245.869 233.957C245.15 233.635 244.511 233.185 243.953 232.607C243.411 232.013 242.982 231.315 242.665 230.514C242.363 229.713 242.214 228.833 242.218 227.873C242.221 226.897 242.376 226.009 242.683 225.21C243.006 224.411 243.44 223.725 243.986 223.151C244.548 222.577 245.19 222.139 245.911 221.837C246.632 221.52 247.392 221.362 248.192 221.365C248.768 221.367 249.312 221.465 249.823 221.659C250.335 221.837 250.79 222.086 251.189 222.408C251.192 221.448 251.196 220.48 251.199 219.504C251.202 218.528 251.206 217.56 251.209 216.6C251.865 216.602 252.529 216.604 253.201 216.607C253.873 216.609 254.529 216.611 255.169 216.613C255.159 219.509 255.149 222.429 255.139 225.373C255.128 228.317 255.118 231.237 255.108 234.133C254.468 234.131 253.812 234.129 253.14 234.127C252.468 234.124 251.804 234.122 251.148 234.12ZM248.711 230.943C249.479 230.946 250.096 230.668 250.562 230.11C251.028 229.551 251.263 228.816 251.266 227.904C251.269 226.992 251.039 226.263 250.577 225.718C250.115 225.156 249.5 224.874 248.732 224.871C247.948 224.868 247.323 225.138 246.857 225.681C246.408 226.223 246.181 226.958 246.178 227.886C246.175 228.814 246.396 229.559 246.842 230.121C247.304 230.666 247.927 230.94 248.711 230.943ZM274.9 229.378C274.896 230.45 274.621 231.377 274.074 232.159C273.543 232.941 272.805 233.547 271.86 233.975C270.914 234.388 269.818 234.592 268.57 234.588C267.402 234.584 266.362 234.396 265.452 234.025C264.557 233.638 263.847 233.092 263.321 232.386C262.812 231.664 262.559 230.815 262.562 229.839C262.565 229.039 262.743 228.304 263.098 227.633C263.468 226.962 264.022 226.388 264.76 225.911C264.169 225.461 263.731 224.939 263.445 224.346C263.175 223.737 263.042 223.073 263.044 222.353C263.048 221.297 263.331 220.418 263.893 219.716C264.472 219.014 265.242 218.488 266.203 218.14C267.164 217.791 268.229 217.611 269.397 217.599C270.565 217.571 271.748 217.711 272.947 218.019C272.945 218.659 272.943 219.307 272.941 219.963C272.938 220.619 272.936 221.275 272.934 221.931C272.262 221.737 271.583 221.598 270.895 221.516C270.223 221.434 269.607 221.424 269.047 221.486C268.487 221.548 268.031 221.682 267.678 221.889C267.341 222.096 267.172 222.391 267.171 222.775C267.169 223.271 267.504 223.616 268.175 223.811C268.847 223.989 269.774 224.08 270.958 224.084C270.959 223.796 270.96 223.508 270.961 223.22C270.962 222.916 270.963 222.62 270.964 222.332C271.62 222.335 272.284 222.337 272.956 222.339C273.628 222.342 274.284 222.344 274.924 222.346C274.923 222.634 274.922 222.93 274.921 223.234C274.92 223.522 274.919 223.81 274.918 224.098C275.158 224.099 275.406 224.1 275.662 224.101C275.918 224.102 276.166 224.102 276.406 224.103C276.404 224.695 276.402 225.287 276.4 225.879C276.398 226.471 276.396 227.063 276.394 227.655C276.154 227.654 275.906 227.653 275.65 227.653C275.394 227.652 275.146 227.651 274.906 227.65C274.905 227.938 274.904 228.226 274.903 228.514C274.902 228.802 274.901 229.09 274.9 229.378ZM266.764 229.254C266.763 229.718 266.929 230.11 267.264 230.432C267.615 230.737 268.103 230.89 268.727 230.893C269.399 230.895 269.935 230.737 270.336 230.418C270.737 230.084 270.939 229.62 270.941 229.028C270.942 228.804 270.943 228.572 270.943 228.332C270.944 228.092 270.945 227.86 270.946 227.636C269.634 227.632 268.61 227.724 267.873 227.914C267.136 228.103 266.767 228.55 266.764 229.254ZM282.507 228.012C282.511 226.796 282.763 225.733 283.262 224.823C283.761 223.897 284.451 223.155 285.333 222.598C286.215 222.041 287.241 221.709 288.409 221.601C289.577 221.477 290.825 221.617 292.151 222.022C292.149 222.63 292.147 223.246 292.145 223.87C292.143 224.494 292.141 225.11 292.139 225.718C291.212 225.267 290.325 225.056 289.477 225.085C288.629 225.114 287.932 225.375 287.386 225.869C286.84 226.347 286.566 227.066 286.563 228.026C286.559 228.986 286.829 229.715 287.371 230.213C287.913 230.695 288.608 230.954 289.456 230.989C290.304 231.008 291.193 230.803 292.122 230.374C292.12 230.982 292.118 231.598 292.116 232.222C292.114 232.846 292.112 233.462 292.11 234.07C290.78 234.465 289.532 234.597 288.364 234.465C287.197 234.349 286.174 234.009 285.296 233.446C284.418 232.883 283.732 232.145 283.239 231.231C282.747 230.301 282.502 229.228 282.507 228.012ZM294.691 234.271C294.701 231.375 294.711 228.455 294.721 225.511C294.732 222.567 294.742 219.647 294.752 216.751C295.408 216.753 296.072 216.755 296.744 216.758C297.416 216.76 298.072 216.762 298.712 216.765C298.709 217.709 298.705 218.669 298.702 219.645C298.698 220.605 298.695 221.557 298.692 222.501C299.125 222.198 299.606 221.968 300.134 221.81C300.679 221.635 301.263 221.549 301.887 221.552C302.799 221.555 303.598 221.766 304.285 222.184C304.988 222.602 305.53 223.204 305.911 223.99C306.308 224.759 306.505 225.688 306.501 226.776C306.497 228.024 306.492 229.28 306.488 230.544C306.484 231.808 306.479 233.064 306.475 234.312C305.835 234.309 305.179 234.307 304.507 234.305C303.835 234.302 303.171 234.3 302.515 234.298C302.519 233.146 302.523 231.978 302.527 230.794C302.531 229.61 302.535 228.442 302.539 227.29C302.542 226.65 302.391 226.137 302.089 225.752C301.802 225.351 301.339 225.15 300.699 225.148C300.059 225.145 299.562 225.328 299.209 225.694C298.856 226.061 298.678 226.589 298.675 227.277C298.671 228.429 298.667 229.597 298.663 230.781C298.659 231.965 298.655 233.133 298.651 234.284C298.011 234.282 297.355 234.28 296.683 234.278C296.011 234.275 295.347 234.273 294.691 234.271ZM319.62 233.781C318.514 234.241 317.417 234.526 316.329 234.634C315.241 234.742 314.209 234.675 313.234 234.431C312.275 234.204 311.42 233.809 310.67 233.246C309.92 232.684 309.33 231.97 308.901 231.104C308.488 230.239 308.284 229.238 308.288 228.102C308.291 227.158 308.446 226.294 308.753 225.512C309.075 224.713 309.526 224.018 310.104 223.428C310.682 222.822 311.364 222.361 312.149 222.043C312.934 221.71 313.791 221.545 314.719 221.548C315.55 221.551 316.302 221.69 316.973 221.964C317.644 222.238 318.227 222.624 318.721 223.122C319.215 223.604 319.613 224.181 319.915 224.854C320.217 225.527 320.406 226.264 320.483 227.064C320.561 227.865 320.51 228.712 320.331 229.608C319.019 229.603 317.699 229.599 316.371 229.594C315.043 229.589 313.723 229.585 312.411 229.58C312.712 230.189 313.215 230.623 313.918 230.881C314.637 231.14 315.485 231.223 316.461 231.13C317.454 231.038 318.51 230.785 319.632 230.373C319.63 230.933 319.628 231.501 319.626 232.077C319.624 232.653 319.622 233.221 319.62 233.781ZM314.61 225.1C314.146 225.098 313.714 225.225 313.313 225.479C312.928 225.734 312.631 226.125 312.421 226.652C313.141 226.655 313.861 226.657 314.581 226.66C315.317 226.662 316.045 226.665 316.765 226.667C316.575 226.123 316.288 225.73 315.905 225.488C315.538 225.231 315.106 225.102 314.61 225.1ZM333.237 233.829C332.132 234.289 331.035 234.573 329.946 234.681C328.858 234.789 327.826 234.722 326.851 234.478C325.892 234.251 325.037 233.856 324.287 233.293C323.537 232.731 322.947 232.017 322.518 231.151C322.105 230.286 321.901 229.285 321.905 228.149C321.908 227.205 322.063 226.342 322.37 225.559C322.693 224.76 323.143 224.065 323.721 223.475C324.299 222.869 324.981 222.408 325.766 222.091C326.551 221.757 327.408 221.592 328.336 221.595C329.168 221.598 329.919 221.737 330.59 222.011C331.261 222.286 331.844 222.672 332.338 223.169C332.832 223.651 333.23 224.228 333.532 224.902C333.834 225.575 334.023 226.311 334.1 227.112C334.178 227.912 334.127 228.76 333.948 229.655C332.636 229.65 331.316 229.646 329.988 229.641C328.66 229.637 327.34 229.632 326.028 229.628C326.33 230.237 326.832 230.67 327.535 230.929C328.254 231.187 329.102 231.27 330.078 231.178C331.071 231.085 332.128 230.833 333.249 230.421C333.247 230.981 333.245 231.549 333.243 232.125C333.241 232.701 333.239 233.269 333.237 233.829ZM328.227 225.147C327.763 225.146 327.331 225.272 326.93 225.527C326.545 225.781 326.248 226.172 326.038 226.7C326.758 226.702 327.478 226.705 328.198 226.707C328.934 226.71 329.662 226.712 330.382 226.715C330.192 226.17 329.905 225.777 329.522 225.536C329.155 225.278 328.723 225.149 328.227 225.147ZM336.172 234.415C336.179 232.367 336.187 230.303 336.194 228.223C336.201 226.127 336.208 224.055 336.215 222.007C336.871 222.009 337.535 222.011 338.207 222.014C338.879 222.016 339.535 222.018 340.175 222.021C340.175 222.133 340.175 222.245 340.174 222.357C340.174 222.469 340.173 222.581 340.173 222.693C340.67 222.342 341.231 222.08 341.856 221.906C342.48 221.733 343.161 221.687 343.896 221.769C343.894 222.409 343.892 223.057 343.89 223.713C343.887 224.369 343.885 225.017 343.883 225.657C342.619 225.477 341.683 225.586 341.074 225.984C340.464 226.366 340.158 226.997 340.155 227.877C340.151 228.949 340.148 230.037 340.144 231.141C340.14 232.245 340.136 233.341 340.132 234.428C339.492 234.426 338.836 234.424 338.164 234.422C337.492 234.419 336.828 234.417 336.172 234.415ZM345.024 225.589C345.026 224.997 345.028 224.405 345.03 223.813C345.032 223.221 345.034 222.629 345.036 222.037C345.356 222.039 345.676 222.04 345.996 222.041C346.332 222.042 346.66 222.043 346.98 222.044C346.98 221.964 346.981 221.892 346.981 221.828C346.981 221.764 346.981 221.7 346.982 221.636C346.985 220.564 347.204 219.669 347.639 218.95C348.089 218.216 348.675 217.658 349.397 217.277C350.134 216.879 350.935 216.658 351.799 216.613C352.679 216.552 353.551 216.667 354.414 216.958C354.412 217.55 354.41 218.158 354.407 218.782C354.405 219.406 354.403 220.022 354.401 220.63C353.442 220.307 352.626 220.24 351.954 220.429C351.281 220.619 350.944 221.034 350.941 221.674C350.941 221.738 350.941 221.802 350.941 221.866C350.941 221.93 350.94 221.994 350.94 222.058C351.436 222.06 351.932 222.061 352.428 222.063C352.924 222.065 353.42 222.067 353.916 222.068C353.914 222.66 353.912 223.252 353.91 223.844C353.908 224.436 353.906 225.028 353.904 225.62C353.408 225.619 352.912 225.617 352.416 225.615C351.92 225.613 351.424 225.612 350.928 225.61C350.923 227.066 350.918 228.538 350.912 230.026C350.907 231.514 350.902 232.994 350.897 234.466C350.257 234.464 349.601 234.461 348.929 234.459C348.257 234.457 347.593 234.454 346.937 234.452C346.942 232.98 346.947 231.5 346.952 230.012C346.958 228.524 346.963 227.052 346.968 225.596C346.648 225.595 346.32 225.594 345.984 225.593C345.664 225.592 345.344 225.591 345.024 225.589ZM367.542 222.116C367.534 224.164 367.527 226.236 367.52 228.332C367.513 230.412 367.506 232.476 367.499 234.524C366.859 234.521 366.203 234.519 365.531 234.517C364.859 234.514 364.195 234.512 363.539 234.51C363.539 234.398 363.539 234.294 363.54 234.198C363.54 234.102 363.54 233.998 363.541 233.886C363.108 234.188 362.619 234.419 362.074 234.577C361.546 234.751 360.969 234.837 360.345 234.835C359.433 234.832 358.626 234.621 357.924 234.202C357.237 233.784 356.695 233.182 356.298 232.397C355.917 231.611 355.728 230.683 355.732 229.611C355.736 228.363 355.74 227.107 355.745 225.843C355.749 224.579 355.753 223.323 355.758 222.075C356.414 222.077 357.078 222.079 357.75 222.082C358.422 222.084 359.078 222.086 359.718 222.088C359.714 223.24 359.71 224.408 359.705 225.592C359.701 226.776 359.697 227.944 359.693 229.096C359.691 229.736 359.833 230.257 360.12 230.658C360.423 231.043 360.894 231.237 361.534 231.239C362.174 231.241 362.671 231.059 363.024 230.692C363.377 230.325 363.555 229.798 363.557 229.11C363.561 227.958 363.565 226.79 363.569 225.606C363.574 224.422 363.578 223.254 363.582 222.102C364.238 222.104 364.902 222.106 365.574 222.109C366.246 222.111 366.902 222.113 367.542 222.116ZM370.253 234.533C370.263 231.637 370.273 228.717 370.283 225.773C370.294 222.829 370.304 219.909 370.314 217.013C370.97 217.015 371.634 217.018 372.306 217.02C372.978 217.022 373.634 217.025 374.274 217.027C374.264 219.923 374.254 222.843 374.243 225.787C374.233 228.731 374.223 231.651 374.213 234.547C373.573 234.545 372.917 234.542 372.245 234.54C371.573 234.538 370.909 234.535 370.253 234.533Z" fill="#2F4ECD"/>
<path d="M167.173 281.796C167.182 279.108 167.192 276.388 167.201 273.636C167.211 270.884 167.22 268.164 167.23 265.477C168.222 265.48 169.214 265.483 170.206 265.487C171.214 265.49 172.206 265.494 173.181 265.497C174.413 265.501 175.485 265.745 176.395 266.228C177.305 266.695 178.015 267.354 178.524 268.204C179.033 269.054 179.286 270.046 179.282 271.182C179.278 272.302 179.018 273.285 178.504 274.132C178.005 274.978 177.314 275.632 176.433 276.093C175.567 276.554 174.582 276.782 173.478 276.778C173.126 276.777 172.774 276.776 172.422 276.775C172.086 276.773 171.742 276.772 171.39 276.771C171.387 277.603 171.385 278.443 171.382 279.291C171.379 280.139 171.376 280.979 171.373 281.811C170.685 281.809 169.989 281.806 169.285 281.804C168.581 281.801 167.877 281.799 167.173 281.796ZM173.168 269.265C172.88 269.264 172.584 269.263 172.28 269.262C171.992 269.261 171.704 269.26 171.416 269.259C171.414 269.899 171.412 270.547 171.41 271.203C171.407 271.843 171.405 272.483 171.403 273.123C171.723 273.124 172.051 273.125 172.387 273.126C172.739 273.128 173.075 273.129 173.395 273.13C173.891 273.132 174.292 272.949 174.597 272.582C174.918 272.215 175.08 271.76 175.082 271.216C175.084 270.656 174.917 270.191 174.582 269.822C174.248 269.453 173.776 269.267 173.168 269.265ZM183.319 268.028C182.855 268.027 182.432 267.913 182.049 267.688C181.681 267.463 181.386 267.166 181.164 266.797C180.941 266.428 180.83 266.02 180.832 265.572C180.833 265.124 180.947 264.724 181.172 264.373C181.397 264.006 181.694 263.711 182.063 263.488C182.448 263.265 182.872 263.155 183.336 263.156C183.784 263.158 184.192 263.271 184.559 263.497C184.942 263.722 185.245 264.019 185.468 264.388C185.691 264.741 185.801 265.141 185.8 265.589C185.798 266.037 185.685 266.445 185.46 266.812C185.234 267.179 184.929 267.474 184.544 267.697C184.176 267.919 183.767 268.03 183.319 268.028ZM181.279 281.845C181.286 279.797 181.294 277.733 181.301 275.653C181.308 273.557 181.315 271.485 181.322 269.437C181.978 269.44 182.642 269.442 183.314 269.444C183.986 269.447 184.642 269.449 185.282 269.451C185.275 271.499 185.268 273.571 185.261 275.667C185.254 277.747 185.246 279.811 185.239 281.859C184.599 281.857 183.943 281.855 183.271 281.852C182.599 281.85 181.935 281.848 181.279 281.845ZM188.003 281.869C188.01 279.821 188.017 277.757 188.025 275.677C188.032 273.581 188.039 271.509 188.046 269.461C188.702 269.463 189.366 269.465 190.038 269.468C190.71 269.47 191.366 269.472 192.006 269.475C192.006 269.587 192.005 269.691 192.005 269.787C192.005 269.883 192.004 269.987 192.004 270.099C192.437 269.796 192.918 269.566 193.446 269.408C193.991 269.233 194.575 269.147 195.199 269.15C196.111 269.153 196.911 269.364 197.597 269.782C198.3 270.2 198.842 270.802 199.223 271.588C199.62 272.357 199.817 273.286 199.813 274.374C199.809 275.622 199.804 276.878 199.8 278.142C199.796 279.406 199.791 280.662 199.787 281.91C199.147 281.907 198.491 281.905 197.819 281.903C197.147 281.9 196.483 281.898 195.827 281.896C195.831 280.744 195.835 279.576 195.839 278.392C195.843 277.208 195.847 276.04 195.851 274.888C195.854 274.248 195.703 273.735 195.401 273.35C195.114 272.949 194.651 272.748 194.011 272.746C193.371 272.743 192.874 272.926 192.521 273.292C192.168 273.659 191.99 274.187 191.987 274.875C191.983 276.027 191.979 277.194 191.975 278.378C191.971 279.562 191.967 280.73 191.963 281.882C191.323 281.88 190.667 281.878 189.995 281.876C189.323 281.873 188.659 281.871 188.003 281.869ZM202.232 281.918C202.242 279.022 202.253 276.102 202.263 273.158C202.273 270.214 202.283 267.294 202.293 264.398C202.949 264.4 203.613 264.403 204.285 264.405C204.957 264.407 205.613 264.41 206.253 264.412C206.248 265.98 206.242 267.572 206.237 269.188C206.231 270.804 206.225 272.396 206.22 273.964C206.799 273.23 207.377 272.496 207.956 271.762C208.534 271.012 209.113 270.27 209.691 269.536C210.459 269.539 211.227 269.541 211.995 269.544C212.779 269.547 213.555 269.549 214.323 269.552C213.568 270.493 212.797 271.443 212.009 272.4C211.238 273.357 210.475 274.307 209.72 275.248C210.516 276.355 211.312 277.478 212.108 278.616C212.92 279.739 213.716 280.854 214.496 281.961C213.712 281.958 212.928 281.955 212.144 281.953C211.36 281.95 210.576 281.947 209.792 281.944C209.203 281.094 208.606 280.236 208.001 279.37C207.396 278.488 206.799 277.622 206.21 276.772C206.207 277.62 206.204 278.484 206.201 279.364C206.198 280.228 206.195 281.084 206.192 281.932C205.552 281.93 204.896 281.927 204.224 281.925C203.552 281.923 202.888 281.92 202.232 281.918Z" fill="#2F4ECD"/>
<path d="M166.206 327.955C166.216 325.267 166.225 322.547 166.235 319.795C166.244 317.043 166.254 314.323 166.263 311.635C167.223 311.639 168.183 311.642 169.143 311.645C170.119 311.649 171.087 311.652 172.047 311.655C173.263 311.66 174.326 311.895 175.237 312.362C176.147 312.814 176.849 313.456 177.342 314.29C177.851 315.108 178.104 316.068 178.1 317.172C178.097 318.116 177.902 318.956 177.515 319.69C177.129 320.425 176.606 321.023 175.949 321.485C176.585 322.559 177.221 323.649 177.858 324.756C178.51 325.846 179.154 326.928 179.79 328.002C179.006 328 178.222 327.997 177.438 327.994C176.654 327.991 175.87 327.989 175.086 327.986C174.593 327.088 174.093 326.175 173.584 325.245C173.091 324.315 172.59 323.401 172.081 322.504C171.809 322.503 171.529 322.502 171.241 322.501C170.969 322.5 170.697 322.499 170.425 322.498C170.422 323.394 170.419 324.306 170.416 325.234C170.413 326.162 170.409 327.074 170.406 327.97C169.718 327.967 169.022 327.965 168.318 327.963C167.614 327.96 166.91 327.958 166.206 327.955ZM172.034 315.447C171.778 315.446 171.514 315.446 171.242 315.445C170.986 315.444 170.722 315.443 170.45 315.442C170.448 316.034 170.446 316.626 170.444 317.218C170.442 317.81 170.44 318.402 170.437 318.994C170.741 318.995 171.045 318.996 171.349 318.997C171.653 318.998 171.957 318.999 172.261 319C172.741 319.002 173.134 318.835 173.439 318.5C173.744 318.149 173.898 317.726 173.9 317.23C173.901 316.718 173.735 316.293 173.4 315.956C173.081 315.619 172.626 315.449 172.034 315.447ZM186.517 328.41C185.589 328.407 184.725 328.244 183.926 327.921C183.128 327.582 182.433 327.116 181.843 326.521C181.253 325.911 180.792 325.206 180.459 324.405C180.141 323.604 179.984 322.731 179.988 321.787C179.991 320.843 180.154 319.972 180.477 319.173C180.816 318.374 181.282 317.679 181.876 317.09C182.47 316.5 183.168 316.046 183.969 315.729C184.77 315.396 185.634 315.231 186.562 315.234C187.506 315.237 188.37 315.408 189.153 315.747C189.952 316.07 190.646 316.528 191.236 317.122C191.826 317.716 192.279 318.414 192.597 319.215C192.93 320.016 193.095 320.889 193.092 321.833C193.088 322.777 192.917 323.648 192.579 324.447C192.256 325.246 191.797 325.948 191.203 326.554C190.609 327.144 189.912 327.606 189.11 327.939C188.325 328.256 187.461 328.413 186.517 328.41ZM186.529 324.834C187.313 324.836 187.938 324.559 188.404 324C188.886 323.426 189.129 322.699 189.132 321.819C189.135 320.923 188.897 320.202 188.419 319.656C187.957 319.095 187.334 318.813 186.55 318.81C185.766 318.807 185.133 319.085 184.651 319.643C184.185 320.186 183.951 320.905 183.948 321.801C183.945 322.681 184.174 323.41 184.636 323.987C185.114 324.549 185.745 324.831 186.529 324.834ZM195.029 328.055C195.036 326.007 195.043 323.943 195.05 321.863C195.057 319.767 195.065 317.695 195.072 315.647C195.728 315.65 196.392 315.652 197.064 315.654C197.736 315.657 198.392 315.659 199.032 315.661C199.031 315.773 199.031 315.877 199.031 315.973C199.03 316.069 199.03 316.173 199.03 316.285C199.447 315.983 199.911 315.752 200.424 315.594C200.937 315.42 201.465 315.334 202.009 315.335C202.601 315.337 203.144 315.443 203.64 315.653C204.135 315.847 204.558 316.136 204.909 316.522C205.422 316.155 205.999 315.869 206.64 315.664C207.296 315.458 207.969 315.356 208.657 315.359C209.633 315.362 210.472 315.565 211.175 315.967C211.893 316.37 212.443 316.94 212.825 317.677C213.222 318.414 213.419 319.303 213.416 320.343C213.411 321.623 213.407 322.919 213.402 324.231C213.397 325.543 213.393 326.839 213.389 328.119C212.749 328.117 212.093 328.115 211.421 328.112C210.749 328.11 210.085 328.108 209.429 328.105C209.433 326.905 209.437 325.689 209.441 324.457C209.446 323.225 209.45 322.009 209.454 320.809C209.456 320.265 209.329 319.825 209.074 319.488C208.836 319.135 208.444 318.958 207.9 318.956C207.372 318.954 206.956 319.121 206.651 319.456C206.361 319.775 206.216 320.222 206.214 320.798C206.21 321.998 206.206 323.214 206.201 324.446C206.197 325.678 206.193 326.894 206.189 328.094C205.549 328.092 204.893 328.09 204.221 328.087C203.549 328.085 202.885 328.083 202.229 328.08C202.233 326.88 202.237 325.664 202.241 324.432C202.246 323.2 202.25 321.984 202.254 320.784C202.256 320.24 202.129 319.8 201.875 319.463C201.636 319.11 201.244 318.933 200.7 318.931C200.172 318.929 199.756 319.096 199.451 319.431C199.162 319.75 199.016 320.197 199.014 320.773C199.01 321.973 199.006 323.189 199.001 324.421C198.997 325.653 198.993 326.869 198.989 328.069C198.349 328.067 197.693 328.065 197.021 328.062C196.349 328.06 195.685 328.058 195.029 328.055ZM224.121 328.156C224.121 328.028 224.122 327.908 224.122 327.796C224.123 327.668 224.123 327.548 224.123 327.436C223.722 327.771 223.265 328.025 222.753 328.2C222.256 328.39 221.72 328.484 221.144 328.482C220.328 328.479 219.56 328.324 218.841 328.018C218.123 327.695 217.484 327.245 216.926 326.667C216.384 326.073 215.955 325.376 215.637 324.575C215.336 323.774 215.187 322.885 215.191 321.909C215.194 320.917 215.349 320.022 215.656 319.223C215.979 318.424 216.413 317.745 216.959 317.187C217.521 316.613 218.163 316.176 218.884 315.874C219.605 315.557 220.365 315.399 221.165 315.402C221.741 315.404 222.285 315.502 222.796 315.696C223.308 315.873 223.763 316.123 224.162 316.444C224.162 316.316 224.162 316.196 224.163 316.084C224.163 315.972 224.164 315.86 224.164 315.748C224.82 315.751 225.484 315.753 226.156 315.755C226.828 315.758 227.484 315.76 228.124 315.762C228.117 317.81 228.11 319.882 228.102 321.978C228.095 324.058 228.088 326.122 228.081 328.17C227.441 328.168 226.785 328.166 226.113 328.163C225.441 328.161 224.777 328.159 224.121 328.156ZM221.684 324.98C222.452 324.982 223.069 324.705 223.535 324.146C224.001 323.588 224.235 322.853 224.239 321.941C224.242 321.029 224.012 320.3 223.55 319.754C223.088 319.193 222.473 318.91 221.705 318.908C220.921 318.905 220.296 319.175 219.83 319.717C219.38 320.26 219.154 320.995 219.151 321.923C219.147 322.851 219.369 323.596 219.815 324.157C220.277 324.703 220.9 324.977 221.684 324.98ZM230.724 328.179C230.731 326.131 230.738 324.067 230.745 321.987C230.753 319.891 230.76 317.819 230.767 315.771C231.423 315.774 232.087 315.776 232.759 315.778C233.431 315.781 234.087 315.783 234.727 315.785C234.726 315.897 234.726 316.001 234.726 316.097C234.725 316.193 234.725 316.297 234.725 316.409C235.158 316.107 235.638 315.876 236.167 315.718C236.712 315.544 237.296 315.458 237.92 315.46C238.832 315.463 239.631 315.674 240.318 316.092C241.02 316.511 241.562 317.113 241.944 317.898C242.341 318.667 242.538 319.596 242.534 320.684C242.53 321.932 242.525 323.188 242.521 324.452C242.516 325.716 242.512 326.972 242.508 328.22C241.868 328.218 241.212 328.216 240.54 328.213C239.868 328.211 239.204 328.209 238.548 328.206C238.552 327.054 238.556 325.886 238.56 324.702C238.564 323.518 238.568 322.35 238.572 321.198C238.574 320.558 238.424 320.046 238.121 319.661C237.835 319.26 237.371 319.058 236.731 319.056C236.091 319.054 235.595 319.236 235.242 319.603C234.888 319.97 234.71 320.497 234.708 321.185C234.704 322.337 234.7 323.505 234.696 324.689C234.692 325.873 234.688 327.041 234.684 328.193C234.044 328.191 233.388 328.188 232.716 328.186C232.044 328.184 231.38 328.181 230.724 328.179ZM246.246 328.233C246.251 326.761 246.256 325.281 246.262 323.793C246.267 322.305 246.272 320.833 246.277 319.377C245.957 319.376 245.629 319.375 245.293 319.374C244.973 319.373 244.653 319.371 244.333 319.37C244.335 318.778 244.337 318.186 244.339 317.594C244.341 317.002 244.343 316.41 244.345 315.818C244.665 315.82 244.985 315.821 245.305 315.822C245.641 315.823 245.969 315.824 246.289 315.825C246.291 315.265 246.293 314.713 246.295 314.169C246.297 313.609 246.299 313.057 246.301 312.513C246.957 312.515 247.621 312.518 248.293 312.52C248.965 312.522 249.621 312.525 250.261 312.527C250.259 313.071 250.257 313.623 250.255 314.183C250.253 314.727 250.251 315.279 250.249 315.839C250.617 315.84 250.993 315.841 251.377 315.843C251.761 315.844 252.137 315.845 252.505 315.847C252.503 316.439 252.501 317.031 252.499 317.623C252.497 318.215 252.495 318.807 252.493 319.399C252.125 319.397 251.749 319.396 251.365 319.395C250.981 319.393 250.605 319.392 250.237 319.391C250.232 320.847 250.227 322.319 250.222 323.807C250.216 325.295 250.211 326.775 250.206 328.247C249.566 328.245 248.91 328.242 248.238 328.24C247.566 328.238 246.902 328.235 246.246 328.233ZM256.532 314.445C256.068 314.443 255.644 314.33 255.261 314.104C254.894 313.879 254.599 313.582 254.376 313.213C254.154 312.844 254.043 312.436 254.045 311.988C254.046 311.54 254.159 311.14 254.385 310.789C254.61 310.422 254.907 310.127 255.276 309.904C255.661 309.682 256.085 309.571 256.549 309.573C256.997 309.574 257.405 309.688 257.772 309.913C258.155 310.138 258.458 310.435 258.681 310.804C258.903 311.157 259.014 311.557 259.013 312.005C259.011 312.453 258.898 312.861 258.672 313.228C258.447 313.595 258.142 313.89 257.757 314.113C257.388 314.336 256.98 314.446 256.532 314.445ZM254.492 328.262C254.499 326.214 254.506 324.15 254.514 322.07C254.521 319.974 254.528 317.902 254.535 315.854C255.191 315.856 255.855 315.858 256.527 315.861C257.199 315.863 257.855 315.865 258.495 315.868C258.488 317.916 258.481 319.988 258.474 322.083C258.466 324.163 258.459 326.227 258.452 328.275C257.812 328.273 257.156 328.271 256.484 328.269C255.812 328.266 255.148 328.264 254.492 328.262ZM260.565 322.067C260.57 320.851 260.821 319.788 261.32 318.877C261.82 317.951 262.51 317.209 263.392 316.653C264.274 316.096 265.299 315.763 266.468 315.655C267.636 315.531 268.884 315.672 270.21 316.076C270.208 316.684 270.206 317.3 270.204 317.924C270.202 318.548 270.199 319.164 270.197 319.772C269.271 319.321 268.384 319.11 267.536 319.139C266.687 319.168 265.991 319.43 265.445 319.924C264.899 320.402 264.625 321.121 264.621 322.081C264.618 323.041 264.887 323.77 265.43 324.268C265.972 324.75 266.667 325.008 267.515 325.043C268.363 325.062 269.252 324.857 270.181 324.428C270.179 325.036 270.177 325.652 270.175 326.276C270.173 326.9 270.17 327.516 270.168 328.124C268.839 328.52 267.591 328.651 266.423 328.519C265.255 328.403 264.233 328.064 263.354 327.5C262.476 326.937 261.791 326.199 261.298 325.285C260.805 324.356 260.561 323.283 260.565 322.067ZM277.909 328.343C277.918 325.655 277.928 322.935 277.937 320.183C277.947 317.431 277.956 314.711 277.965 312.023C278.957 312.027 279.949 312.03 280.941 312.033C281.949 312.037 282.941 312.04 283.917 312.044C285.149 312.048 286.221 312.292 287.131 312.775C288.041 313.242 288.751 313.901 289.26 314.75C289.769 315.6 290.022 316.593 290.018 317.729C290.014 318.849 289.754 319.832 289.239 320.678C288.741 321.525 288.05 322.178 287.169 322.639C286.303 323.1 285.318 323.329 284.214 323.325C283.862 323.324 283.51 323.322 283.158 323.321C282.822 323.32 282.478 323.319 282.126 323.318C282.123 324.15 282.12 324.99 282.118 325.838C282.115 326.686 282.112 327.526 282.109 328.358C281.421 328.355 280.725 328.353 280.021 328.35C279.317 328.348 278.613 328.345 277.909 328.343ZM283.904 315.812C283.616 315.811 283.32 315.81 283.016 315.809C282.728 315.808 282.44 315.807 282.152 315.806C282.15 316.446 282.148 317.094 282.146 317.75C282.143 318.39 282.141 319.03 282.139 319.67C282.459 319.671 282.787 319.672 283.123 319.673C283.475 319.674 283.811 319.675 284.131 319.677C284.627 319.678 285.028 319.496 285.333 319.129C285.654 318.762 285.816 318.306 285.818 317.762C285.82 317.202 285.653 316.738 285.318 316.369C284.984 315.999 284.512 315.814 283.904 315.812ZM297.422 328.795C296.494 328.792 295.631 328.629 294.832 328.306C294.033 327.967 293.339 327.501 292.749 326.907C292.159 326.296 291.697 325.591 291.364 324.79C291.047 323.989 290.89 323.116 290.893 322.172C290.897 321.228 291.06 320.357 291.382 319.558C291.721 318.759 292.188 318.065 292.782 317.475C293.376 316.885 294.073 316.431 294.874 316.114C295.675 315.781 296.54 315.616 297.468 315.619C298.412 315.622 299.275 315.793 300.058 316.132C300.857 316.455 301.552 316.913 302.142 317.507C302.731 318.101 303.185 318.799 303.502 319.6C303.836 320.401 304 321.274 303.997 322.218C303.994 323.162 303.823 324.033 303.484 324.832C303.161 325.631 302.703 326.333 302.109 326.939C301.515 327.529 300.817 327.991 300.016 328.324C299.231 328.641 298.366 328.798 297.422 328.795ZM297.435 325.219C298.219 325.221 298.844 324.944 299.31 324.385C299.792 323.811 300.034 323.084 300.037 322.204C300.04 321.308 299.803 320.587 299.325 320.041C298.863 319.48 298.24 319.198 297.456 319.195C296.672 319.192 296.039 319.47 295.557 320.028C295.091 320.571 294.856 321.29 294.853 322.186C294.85 323.066 295.08 323.795 295.542 324.372C296.02 324.934 296.651 325.216 297.435 325.219ZM309.881 332.294C309.241 332.292 308.585 332.29 307.913 332.287C307.241 332.285 306.577 332.283 305.921 332.28C305.93 329.608 305.94 326.904 305.949 324.168C305.959 321.416 305.968 318.704 305.977 316.032C306.633 316.035 307.297 316.037 307.969 316.039C308.641 316.042 309.297 316.044 309.937 316.046C309.937 316.158 309.937 316.27 309.936 316.382C309.936 316.494 309.935 316.614 309.935 316.742C310.336 316.423 310.793 316.177 311.305 316.003C311.818 315.813 312.362 315.719 312.938 315.721C313.738 315.723 314.498 315.886 315.217 316.208C315.936 316.515 316.566 316.957 317.108 317.535C317.666 318.113 318.096 318.802 318.397 319.603C318.714 320.405 318.871 321.293 318.868 322.269C318.864 323.229 318.701 324.109 318.379 324.907C318.072 325.706 317.637 326.401 317.075 326.991C316.529 327.565 315.896 328.011 315.175 328.328C314.454 328.646 313.685 328.803 312.869 328.8C312.293 328.798 311.749 328.7 311.238 328.507C310.743 328.329 310.296 328.071 309.897 327.734C309.894 328.486 309.891 329.246 309.889 330.014C309.886 330.782 309.883 331.542 309.881 332.294ZM312.353 325.295C313.137 325.297 313.754 325.027 314.204 324.485C314.67 323.927 314.905 323.183 314.908 322.255C314.911 321.327 314.682 320.591 314.219 320.045C313.773 319.499 313.158 319.225 312.374 319.223C311.606 319.22 310.989 319.498 310.523 320.056C310.057 320.599 309.823 321.326 309.82 322.238C309.817 323.15 310.046 323.887 310.508 324.448C310.97 325.01 311.585 325.292 312.353 325.295Z" fill="#2F4ECD"/>
<path d="M165.433 366.777C165.438 365.545 165.633 364.426 166.021 363.419C166.425 362.396 166.988 361.51 167.71 360.761C168.433 360.011 169.299 359.43 170.308 359.018C171.318 358.605 172.43 358.385 173.647 358.358C174.879 358.33 176.19 358.526 177.581 358.947C177.578 359.619 177.576 360.299 177.573 360.987C177.571 361.659 177.569 362.331 177.566 363.003C176.624 362.552 175.689 362.293 174.761 362.225C173.833 362.158 172.993 362.283 172.24 362.601C171.487 362.918 170.885 363.428 170.435 364.13C169.984 364.817 169.757 365.704 169.753 366.792C169.75 367.88 169.97 368.777 170.416 369.482C170.862 370.172 171.46 370.678 172.211 371.001C172.962 371.323 173.801 371.454 174.729 371.393C175.658 371.333 176.594 371.08 177.54 370.635C177.538 371.307 177.535 371.987 177.533 372.675C177.531 373.347 177.528 374.019 177.526 374.691C176.132 375.102 174.82 375.29 173.588 375.253C172.372 375.217 171.261 374.989 170.254 374.57C169.248 374.15 168.386 373.563 167.668 372.809C166.951 372.054 166.394 371.172 165.998 370.163C165.617 369.138 165.429 368.009 165.433 366.777ZM185.688 375.391C184.76 375.388 183.896 375.225 183.097 374.902C182.299 374.564 181.604 374.097 181.014 373.503C180.424 372.893 179.963 372.188 179.63 371.386C179.312 370.585 179.155 369.713 179.159 368.769C179.162 367.825 179.325 366.953 179.648 366.154C179.986 365.356 180.453 364.661 181.047 364.071C181.641 363.481 182.339 363.028 183.14 362.71C183.941 362.377 184.805 362.212 185.733 362.215C186.677 362.219 187.541 362.39 188.324 362.728C189.123 363.051 189.817 363.51 190.407 364.104C190.997 364.698 191.45 365.395 191.768 366.196C192.101 366.998 192.266 367.87 192.263 368.814C192.259 369.758 192.088 370.63 191.749 371.428C191.427 372.227 190.968 372.93 190.374 373.536C189.78 374.126 189.082 374.587 188.281 374.92C187.496 375.238 186.632 375.395 185.688 375.391ZM185.7 371.815C186.484 371.818 187.109 371.54 187.575 370.982C188.057 370.408 188.299 369.68 188.303 368.8C188.306 367.904 188.068 367.184 187.59 366.638C187.128 366.076 186.505 365.794 185.721 365.791C184.937 365.789 184.304 366.067 183.822 366.625C183.356 367.167 183.122 367.886 183.119 368.782C183.116 369.662 183.345 370.391 183.807 370.969C184.285 371.531 184.916 371.813 185.7 371.815ZM194.2 375.037C194.207 372.989 194.214 370.925 194.221 368.845C194.228 366.749 194.236 364.677 194.243 362.629C194.899 362.631 195.563 362.634 196.235 362.636C196.907 362.638 197.563 362.641 198.203 362.643C198.202 362.755 198.202 362.859 198.202 362.955C198.201 363.051 198.201 363.155 198.2 363.267C198.617 362.964 199.082 362.734 199.595 362.576C200.107 362.401 200.636 362.315 201.18 362.317C201.772 362.319 202.315 362.425 202.811 362.635C203.306 362.829 203.729 363.118 204.08 363.503C204.593 363.137 205.17 362.851 205.811 362.645C206.467 362.439 207.14 362.338 207.828 362.34C208.804 362.344 209.643 362.547 210.346 362.949C211.064 363.351 211.614 363.921 211.996 364.659C212.393 365.396 212.59 366.285 212.586 367.325C212.582 368.605 212.578 369.901 212.573 371.213C212.568 372.525 212.564 373.821 212.559 375.101C211.919 375.098 211.263 375.096 210.591 375.094C209.919 375.092 209.255 375.089 208.599 375.087C208.604 373.887 208.608 372.671 208.612 371.439C208.616 370.207 208.621 368.991 208.625 367.791C208.627 367.247 208.5 366.807 208.245 366.47C208.007 366.117 207.615 365.939 207.071 365.938C206.543 365.936 206.127 366.102 205.821 366.437C205.532 366.756 205.387 367.204 205.385 367.78C205.381 368.98 205.376 370.196 205.372 371.428C205.368 372.66 205.364 373.876 205.359 375.076C204.719 375.073 204.063 375.071 203.392 375.069C202.72 375.067 202.056 375.064 201.4 375.062C201.404 373.862 201.408 372.646 201.412 371.414C201.416 370.182 201.421 368.966 201.425 367.766C201.427 367.222 201.3 366.782 201.045 366.445C200.807 366.092 200.415 365.914 199.871 365.913C199.343 365.911 198.927 366.077 198.622 366.412C198.332 366.731 198.187 367.179 198.185 367.755C198.181 368.955 198.176 370.171 198.172 371.403C198.168 372.635 198.164 373.851 198.16 375.051C197.52 375.048 196.864 375.046 196.192 375.044C195.52 375.042 194.856 375.039 194.2 375.037ZM218.959 378.963C218.319 378.961 217.663 378.958 216.991 378.956C216.319 378.954 215.655 378.951 214.999 378.949C215.008 376.277 215.017 373.573 215.027 370.837C215.036 368.085 215.046 365.373 215.055 362.701C215.711 362.704 216.375 362.706 217.047 362.708C217.719 362.711 218.375 362.713 219.015 362.715C219.015 362.827 219.014 362.939 219.014 363.051C219.013 363.163 219.013 363.283 219.013 363.411C219.414 363.092 219.871 362.846 220.383 362.672C220.896 362.482 221.44 362.387 222.016 362.389C222.816 362.392 223.576 362.555 224.294 362.877C225.013 363.184 225.644 363.626 226.186 364.204C226.744 364.782 227.173 365.471 227.475 366.272C227.792 367.074 227.949 367.962 227.945 368.938C227.942 369.898 227.779 370.778 227.456 371.576C227.149 372.375 226.715 373.07 226.153 373.66C225.607 374.234 224.973 374.68 224.252 374.997C223.531 375.315 222.763 375.472 221.947 375.469C221.371 375.467 220.827 375.369 220.316 375.176C219.82 374.998 219.373 374.74 218.974 374.403C218.972 375.155 218.969 375.915 218.966 376.683C218.964 377.451 218.961 378.211 218.959 378.963ZM221.431 371.963C222.215 371.966 222.832 371.696 223.282 371.154C223.748 370.596 223.982 369.852 223.985 368.924C223.989 367.996 223.759 367.26 223.297 366.714C222.851 366.168 222.236 365.894 221.452 365.892C220.684 365.889 220.067 366.167 219.601 366.725C219.135 367.267 218.901 367.995 218.897 368.907C218.894 369.819 219.124 370.555 219.586 371.117C220.048 371.679 220.663 371.961 221.431 371.963ZM230.015 375.161C230.025 372.265 230.035 369.345 230.045 366.401C230.055 363.457 230.065 360.537 230.075 357.641C230.731 357.644 231.395 357.646 232.067 357.648C232.739 357.651 233.395 357.653 234.035 357.655C234.025 360.551 234.015 363.471 234.005 366.415C233.995 369.359 233.985 372.279 233.975 375.175C233.335 375.173 232.679 375.171 232.007 375.168C231.335 375.166 230.671 375.164 230.015 375.161ZM247.42 374.646C246.315 375.106 245.218 375.39 244.129 375.498C243.041 375.607 242.009 375.539 241.034 375.296C240.075 375.068 239.22 374.673 238.47 374.111C237.72 373.548 237.131 372.834 236.702 371.968C236.289 371.103 236.084 370.102 236.088 368.966C236.091 368.022 236.246 367.159 236.553 366.376C236.876 365.577 237.326 364.883 237.904 364.293C238.482 363.687 239.164 363.225 239.949 362.908C240.734 362.574 241.591 362.409 242.519 362.413C243.351 362.416 244.102 362.554 244.773 362.828C245.444 363.103 246.027 363.489 246.521 363.987C247.016 364.468 247.414 365.046 247.715 365.719C248.017 366.392 248.206 367.128 248.284 367.929C248.361 368.729 248.31 369.577 248.131 370.472C246.819 370.468 245.499 370.463 244.171 370.458C242.843 370.454 241.523 370.449 240.211 370.445C240.513 371.054 241.015 371.487 241.718 371.746C242.437 372.004 243.285 372.087 244.261 371.995C245.254 371.902 246.311 371.65 247.432 371.238C247.43 371.798 247.428 372.366 247.426 372.942C247.424 373.518 247.422 374.086 247.42 374.646ZM242.41 365.964C241.946 365.963 241.514 366.089 241.113 366.344C240.728 366.598 240.431 366.989 240.221 367.517C240.941 367.519 241.661 367.522 242.381 367.524C243.117 367.527 243.845 367.529 244.565 367.532C244.375 366.987 244.088 366.594 243.705 366.353C243.338 366.095 242.906 365.966 242.41 365.964ZM249.156 362.82C249.892 362.822 250.628 362.825 251.364 362.827C252.1 362.83 252.836 362.832 253.572 362.835C253.858 363.316 254.153 363.805 254.455 364.302C254.757 364.783 255.052 365.264 255.338 365.745C255.644 365.266 255.949 364.787 256.255 364.308C256.561 363.813 256.866 363.326 257.172 362.848C257.892 362.85 258.62 362.853 259.356 362.855C260.092 362.858 260.82 362.86 261.54 362.863C260.913 363.836 260.269 364.818 259.61 365.808C258.966 366.798 258.331 367.788 257.704 368.777C258.356 369.852 259.016 370.934 259.684 372.024C260.353 373.115 261.005 374.197 261.641 375.271C260.905 375.269 260.169 375.266 259.433 375.263C258.697 375.261 257.961 375.258 257.225 375.256C256.907 374.711 256.581 374.166 256.247 373.62C255.929 373.059 255.611 372.506 255.292 371.961C254.971 372.504 254.633 373.055 254.279 373.614C253.941 374.156 253.611 374.699 253.289 375.242C252.569 375.24 251.841 375.237 251.105 375.235C250.369 375.232 249.641 375.229 248.921 375.227C249.581 374.189 250.248 373.136 250.924 372.066C251.6 370.98 252.268 369.919 252.927 368.881C252.307 367.887 251.678 366.876 251.042 365.85C250.405 364.824 249.777 363.814 249.156 362.82ZM267.471 369.075C267.475 367.859 267.726 366.796 268.226 365.886C268.725 364.96 269.415 364.218 270.297 363.661C271.179 363.104 272.204 362.772 273.373 362.664C274.541 362.54 275.789 362.68 277.115 363.085C277.113 363.693 277.111 364.309 277.109 364.933C277.107 365.557 277.105 366.173 277.103 366.781C276.176 366.329 275.289 366.118 274.441 366.147C273.593 366.177 272.896 366.438 272.35 366.932C271.804 367.41 271.53 368.129 271.527 369.089C271.523 370.049 271.793 370.778 272.335 371.276C272.877 371.758 273.572 372.016 274.42 372.051C275.268 372.07 276.157 371.865 277.086 371.437C277.084 372.045 277.082 372.661 277.08 373.285C277.078 373.909 277.076 374.525 277.074 375.133C275.744 375.528 274.496 375.66 273.328 375.528C272.161 375.412 271.138 375.072 270.26 374.509C269.382 373.946 268.696 373.208 268.203 372.294C267.711 371.364 267.466 370.291 267.471 369.075ZM279.655 375.334C279.665 372.438 279.675 369.518 279.685 366.574C279.696 363.63 279.706 360.71 279.716 357.814C280.372 357.816 281.036 357.818 281.708 357.821C282.38 357.823 283.036 357.825 283.676 357.827C283.673 358.771 283.669 359.731 283.666 360.707C283.662 361.667 283.659 362.619 283.656 363.563C284.089 363.261 284.57 363.031 285.098 362.872C285.643 362.698 286.227 362.612 286.851 362.615C287.763 362.618 288.562 362.828 289.249 363.247C289.952 363.665 290.493 364.267 290.875 365.053C291.272 365.822 291.469 366.751 291.465 367.839C291.461 369.087 291.456 370.343 291.452 371.607C291.448 372.871 291.443 374.127 291.439 375.375C290.799 375.372 290.143 375.37 289.471 375.368C288.799 375.365 288.135 375.363 287.479 375.361C287.483 374.209 287.487 373.041 287.491 371.857C287.495 370.673 287.499 369.505 287.503 368.353C287.505 367.713 287.355 367.2 287.053 366.815C286.766 366.414 286.303 366.213 285.663 366.21C285.023 366.208 284.526 366.39 284.173 366.757C283.82 367.124 283.642 367.651 283.639 368.339C283.635 369.491 283.631 370.659 283.627 371.843C283.623 373.027 283.619 374.195 283.615 375.347C282.975 375.345 282.319 375.343 281.647 375.341C280.975 375.338 280.311 375.336 279.655 375.334ZM299.781 375.787C298.853 375.784 297.989 375.621 297.19 375.299C296.392 374.96 295.697 374.493 295.107 373.899C294.517 373.289 294.056 372.584 293.723 371.782C293.405 370.981 293.248 370.109 293.252 369.165C293.255 368.221 293.418 367.349 293.741 366.55C294.08 365.752 294.546 365.057 295.14 364.467C295.734 363.877 296.432 363.424 297.233 363.107C298.034 362.773 298.898 362.608 299.826 362.612C300.77 362.615 301.634 362.786 302.417 363.125C303.216 363.447 303.91 363.906 304.5 364.5C305.09 365.094 305.543 365.791 305.861 366.593C306.194 367.394 306.359 368.266 306.356 369.21C306.352 370.154 306.181 371.026 305.843 371.825C305.52 372.623 305.061 373.326 304.467 373.932C303.873 374.522 303.176 374.983 302.374 375.316C301.589 375.634 300.725 375.791 299.781 375.787ZM299.793 372.212C300.577 372.214 301.202 371.936 301.668 371.378C302.15 370.804 302.393 370.077 302.396 369.197C302.399 368.301 302.161 367.58 301.683 367.034C301.221 366.472 300.598 366.19 299.814 366.188C299.03 366.185 298.397 366.463 297.915 367.021C297.449 367.563 297.215 368.283 297.212 369.179C297.209 370.059 297.438 370.787 297.9 371.365C298.378 371.927 299.009 372.209 299.793 372.212ZM308.293 375.433C308.3 373.385 308.307 371.321 308.314 369.241C308.321 367.145 308.329 365.073 308.336 363.025C308.992 363.027 309.656 363.03 310.328 363.032C311 363.034 311.656 363.037 312.296 363.039C312.295 363.151 312.295 363.263 312.295 363.375C312.294 363.487 312.294 363.599 312.293 363.711C312.791 363.361 313.351 363.099 313.976 362.925C314.601 362.751 315.281 362.705 316.017 362.788C316.014 363.428 316.012 364.076 316.01 364.732C316.008 365.388 316.005 366.036 316.003 366.676C314.74 366.495 313.803 366.604 313.194 367.002C312.585 367.384 312.278 368.015 312.275 368.895C312.272 369.967 312.268 371.055 312.264 372.159C312.26 373.263 312.256 374.359 312.253 375.447C311.613 375.445 310.957 375.442 310.285 375.44C309.613 375.438 308.949 375.435 308.293 375.433ZM325.924 375.494C325.925 375.366 325.925 375.246 325.925 375.134C325.926 375.006 325.926 374.886 325.927 374.774C325.525 375.109 325.069 375.363 324.556 375.538C324.059 375.728 323.523 375.822 322.947 375.82C322.131 375.817 321.363 375.654 320.645 375.332C319.926 375.009 319.287 374.559 318.729 373.981C318.187 373.387 317.758 372.69 317.441 371.889C317.139 371.088 316.99 370.207 316.994 369.247C316.997 368.271 317.152 367.384 317.459 366.585C317.782 365.786 318.216 365.099 318.762 364.525C319.324 363.951 319.966 363.513 320.687 363.212C321.408 362.894 322.168 362.737 322.968 362.74C323.544 362.742 324.088 362.84 324.599 363.034C325.111 363.211 325.566 363.461 325.965 363.782C325.968 362.822 325.971 361.854 325.975 360.878C325.978 359.902 325.982 358.934 325.985 357.974C326.641 357.977 327.305 357.979 327.977 357.981C328.649 357.984 329.305 357.986 329.945 357.988C329.935 360.884 329.925 363.804 329.914 366.748C329.904 369.692 329.894 372.612 329.884 375.508C329.244 375.506 328.588 375.503 327.916 375.501C327.244 375.499 326.58 375.497 325.924 375.494ZM323.487 372.318C324.255 372.32 324.872 372.043 325.338 371.484C325.804 370.926 326.038 370.191 326.042 369.279C326.045 368.367 325.815 367.638 325.353 367.092C324.891 366.531 324.276 366.248 323.508 366.246C322.724 366.243 322.099 366.513 321.633 367.055C321.183 367.598 320.957 368.333 320.954 369.261C320.95 370.189 321.172 370.934 321.618 371.495C322.08 372.041 322.703 372.315 323.487 372.318ZM342.137 371.711C342.134 372.703 341.851 373.518 341.289 374.156C340.743 374.778 340.005 375.231 339.076 375.516C338.147 375.801 337.107 375.917 335.955 375.865C334.819 375.829 333.66 375.641 332.477 375.301C332.479 374.693 332.481 374.069 332.483 373.429C332.486 372.789 332.488 372.165 332.49 371.557C333.161 371.863 333.832 372.106 334.503 372.284C335.175 372.446 335.782 372.544 336.326 372.578C336.87 372.612 337.31 372.574 337.647 372.463C337.983 372.336 338.152 372.129 338.153 371.841C338.154 371.617 338.01 371.44 337.723 371.311C337.451 371.182 337.092 371.069 336.644 370.971C336.196 370.858 335.717 370.728 335.205 370.582C334.71 370.421 334.238 370.203 333.791 369.93C333.344 369.64 332.978 369.263 332.691 368.798C332.421 368.317 332.287 367.7 332.29 366.948C332.293 366.052 332.552 365.293 333.066 364.671C333.596 364.033 334.302 363.555 335.183 363.238C336.064 362.905 337.048 362.741 338.136 362.745C339.224 362.748 340.336 362.936 341.47 363.308C341.468 363.916 341.466 364.54 341.464 365.18C341.462 365.82 341.46 366.444 341.457 367.052C340.563 366.617 339.724 366.326 338.94 366.179C338.157 366.033 337.525 366.014 337.045 366.125C336.564 366.219 336.324 366.434 336.322 366.77C336.322 366.994 336.457 367.171 336.729 367.3C337.016 367.413 337.376 367.518 337.808 367.615C338.255 367.713 338.727 367.843 339.222 368.004C339.734 368.166 340.205 368.392 340.636 368.681C341.083 368.955 341.442 369.34 341.712 369.837C341.998 370.318 342.14 370.943 342.137 371.711Z" fill="#2F4ECD"/>
</svg>
