<svg width="2946" height="496" viewBox="0 0 2946 496" fill="none" xmlns="http://www.w3.org/2000/svg">
<path d="M0 0H2322.96V261.537H1615.18H1096.75H558.357H0V0Z" fill="#FEFEFF"/>
<rect x="244.075" y="201.537" width="1223.71" height="58.8" rx="29.4" fill="#FEFEFF"/>
<rect y="319.137" width="2837.93" height="58.8" rx="29.4" fill="#FEFEFF"/>
<rect x="1602.02" y="436.737" width="1343.52" height="58.8" rx="29.4" fill="#FEFEFF"/>
<path d="M1307.25 260.337C1291.01 260.337 1277.85 273.5 1277.85 289.737C1277.85 305.974 1291.01 319.137 1307.25 319.137H409.162C425.4 319.137 438.562 305.974 438.562 289.737C438.562 273.5 425.4 260.337 409.162 260.337H1307.25Z" fill="#FEFEFF"/>
<path d="M1958.59 260.337C1942.35 260.337 1929.19 273.5 1929.19 289.737C1929.19 305.974 1942.35 319.137 1958.59 319.137H1060.5C1076.74 319.137 1089.9 305.974 1089.9 289.737C1089.9 273.5 1076.74 260.337 1060.5 260.337H1958.59Z" fill="#FEFEFF"/>
<path d="M1089.9 260.337C1073.66 260.337 1060.5 273.5 1060.5 289.737C1060.5 305.974 1073.66 319.137 1089.9 319.137H191.813C208.05 319.137 221.213 305.974 221.213 289.737C221.213 273.5 208.05 260.337 191.813 260.337H1089.9Z" fill="#FEFEFF"/>
<path d="M2586.65 377.937C2570.41 377.937 2557.25 391.1 2557.25 407.337C2557.25 423.574 2570.41 436.737 2586.65 436.737H1688.56C1704.8 436.737 1717.96 423.574 1717.96 407.337C1717.96 391.1 1704.8 377.937 1688.56 377.937H2586.65Z" fill="#FEFEFF"/>
</svg>
