<svg width="611" height="689" viewBox="0 0 611 689" fill="none" xmlns="http://www.w3.org/2000/svg">
<rect x="200.259" y="70.0381" width="38.8501" height="61.3104" transform="rotate(25.8168 200.259 70.0381)" fill="#DCA645"/>
<rect x="372.232" y="70.3773" width="38.8501" height="61.3104" transform="rotate(25.8168 372.232 70.3773)" fill="#DCA645"/>
<rect x="127.693" y="100.487" width="356.329" height="424.924" rx="43.0994" transform="rotate(0.198902 127.693 100.487)" fill="#F4E3D5"/>
<rect x="200.644" y="69.7816" width="38.8502" height="61.3104" transform="rotate(0.198902 200.644 69.7816)" fill="#FECC73"/>
<mask id="mask0_50_719" style="mask-type:alpha" maskUnits="userSpaceOnUse" x="126" y="442" width="398" height="146">
<rect x="126.504" y="442.852" width="397" height="143.26" transform="rotate(0.198902 126.504 442.852)" fill="#6CBDAA"/>
</mask>
<g mask="url(#mask0_50_719)">
<path d="M127.543 143.586C127.626 119.783 146.989 100.554 170.792 100.637L440.92 101.575C464.723 101.657 483.952 121.02 483.87 144.823L482.694 483.546C482.611 507.349 463.248 526.578 439.445 526.496L169.317 525.558C145.514 525.475 126.284 506.112 126.367 482.309L127.543 143.586Z" fill="#FECC73"/>
</g>
<rect x="372.433" y="70.3779" width="38.8502" height="61.3104" transform="rotate(0.198902 372.433 70.3779)" fill="#FECC73"/>
<path d="M418.181 192.897C413.12 184.894 395.818 176.786 402.76 185.571C408.123 192.358 413.737 193.143 418.181 192.897Z" stroke="#404040" stroke-width="2.42813"/>
<path d="M424.674 196.823C422.464 206.015 408.692 219.205 412.432 208.672C415.321 200.536 420.385 198.005 424.674 196.823Z" stroke="#404040" stroke-width="2.42813"/>
<path d="M166.214 195.319L416.007 196.186" stroke="#404040" stroke-width="2.42813"/>
<ellipse cx="426.666" cy="184.568" rx="3.79488" ry="7.163" transform="rotate(0.198902 426.666 184.568)" fill="#FF8F53"/>
<ellipse cx="3.78246" cy="7.18668" rx="3.78246" ry="7.18668" transform="matrix(0.706978 0.707235 -0.711871 0.70231 436.877 180.456)" fill="#FF8F53"/>
<ellipse cx="3.77114" cy="7.20812" rx="3.77114" ry="7.20812" transform="matrix(0.212116 0.977244 -0.977825 0.209426 422.888 192.472)" fill="#FF8F53"/>
<ellipse cx="3.77555" cy="7.19978" rx="3.77555" ry="7.19978" transform="matrix(-0.477231 0.878778 -0.881377 -0.472414 426.248 189.063)" fill="#FF8F53"/>
<ellipse cx="3.79179" cy="7.16891" rx="3.79179" ry="7.16891" transform="matrix(-0.93509 -0.35441 0.358472 -0.93354 423.776 212.886)" fill="#FF8F53"/>
<ellipse cx="3.78246" cy="7.18668" rx="3.78246" ry="7.18668" transform="matrix(-0.711871 0.70231 -0.706978 -0.707235 440.818 205.795)" fill="#FF8F53"/>
<ellipse cx="437.632" cy="195.916" rx="3.77" ry="7.21028" transform="rotate(90.1989 437.632 195.916)" fill="#FF8F53"/>
<ellipse cx="426.821" cy="194.706" rx="6.41593" ry="6.37385" transform="rotate(0.198902 426.821 194.706)" fill="#A46443"/>
<path d="M418.016 240.245C412.956 232.243 395.653 224.134 402.596 232.92C407.958 239.706 413.572 240.491 418.016 240.245Z" stroke="#404040" stroke-width="2.42813"/>
<path d="M424.51 244.171C422.299 253.363 408.527 266.553 412.268 256.02C415.157 247.884 420.221 245.353 424.51 244.171Z" stroke="#404040" stroke-width="2.42813"/>
<path d="M166.049 242.667L415.842 243.534" stroke="#404040" stroke-width="2.42813"/>
<ellipse cx="426.501" cy="231.916" rx="3.79488" ry="7.163" transform="rotate(0.198902 426.501 231.916)" fill="#FF8F53"/>
<ellipse cx="3.78246" cy="7.18668" rx="3.78246" ry="7.18668" transform="matrix(0.706978 0.707235 -0.711871 0.70231 436.713 227.804)" fill="#FF8F53"/>
<ellipse cx="3.77114" cy="7.20812" rx="3.77114" ry="7.20812" transform="matrix(0.212116 0.977244 -0.977825 0.209426 422.724 239.82)" fill="#FF8F53"/>
<ellipse cx="3.77555" cy="7.19978" rx="3.77555" ry="7.19978" transform="matrix(-0.477231 0.878778 -0.881377 -0.472414 426.084 236.411)" fill="#FF8F53"/>
<ellipse cx="3.79179" cy="7.16891" rx="3.79179" ry="7.16891" transform="matrix(-0.93509 -0.35441 0.358472 -0.93354 423.611 260.234)" fill="#FF8F53"/>
<ellipse cx="3.78246" cy="7.18668" rx="3.78246" ry="7.18668" transform="matrix(-0.711871 0.70231 -0.706978 -0.707235 440.654 253.143)" fill="#FF8F53"/>
<ellipse cx="437.467" cy="243.264" rx="3.77" ry="7.21028" transform="rotate(90.1989 437.467 243.264)" fill="#FF8F53"/>
<ellipse cx="426.656" cy="242.054" rx="6.41593" ry="6.37385" transform="rotate(0.198902 426.656 242.054)" fill="#A46443"/>
<path d="M417.85 288.2C412.789 280.198 395.487 272.09 402.429 280.875C407.792 287.661 413.405 288.447 417.85 288.2Z" stroke="#404040" stroke-width="2.42813"/>
<path d="M424.343 292.127C422.133 301.318 408.36 314.508 412.101 303.976C414.99 295.84 420.054 293.308 424.343 292.127Z" stroke="#404040" stroke-width="2.42813"/>
<path d="M165.883 290.622L415.676 291.49" stroke="#404040" stroke-width="2.42813"/>
<ellipse cx="426.335" cy="279.871" rx="3.79488" ry="7.163" transform="rotate(0.198902 426.335 279.871)" fill="#FF8F53"/>
<ellipse cx="3.78246" cy="7.18668" rx="3.78246" ry="7.18668" transform="matrix(0.706978 0.707235 -0.711871 0.70231 436.546 275.76)" fill="#FF8F53"/>
<ellipse cx="3.77114" cy="7.20812" rx="3.77114" ry="7.20812" transform="matrix(0.212116 0.977244 -0.977825 0.209426 422.557 287.775)" fill="#FF8F53"/>
<ellipse cx="3.77555" cy="7.19978" rx="3.77555" ry="7.19978" transform="matrix(-0.477231 0.878778 -0.881377 -0.472414 425.917 284.366)" fill="#FF8F53"/>
<ellipse cx="3.79179" cy="7.16891" rx="3.79179" ry="7.16891" transform="matrix(-0.93509 -0.35441 0.358472 -0.93354 423.445 308.189)" fill="#FF8F53"/>
<ellipse cx="3.78246" cy="7.18668" rx="3.78246" ry="7.18668" transform="matrix(-0.711871 0.70231 -0.706978 -0.707235 440.487 301.099)" fill="#FF8F53"/>
<ellipse cx="437.301" cy="291.22" rx="3.77" ry="7.21028" transform="rotate(90.1989 437.301 291.22)" fill="#FF8F53"/>
<ellipse cx="426.489" cy="290.009" rx="6.41593" ry="6.37385" transform="rotate(0.198902 426.489 290.009)" fill="#A46443"/>
<path d="M417.683 336.156C412.623 328.154 395.32 320.045 402.263 328.831C407.626 335.617 413.239 336.402 417.683 336.156Z" stroke="#404040" stroke-width="2.42813"/>
<path d="M424.177 340.082C421.966 349.274 408.194 362.464 411.935 351.931C414.824 343.796 419.888 341.264 424.177 340.082Z" stroke="#404040" stroke-width="2.42813"/>
<path d="M165.717 338.578L415.509 339.445" stroke="#404040" stroke-width="2.42813"/>
<ellipse cx="426.169" cy="327.827" rx="3.79488" ry="7.163" transform="rotate(0.198902 426.169 327.827)" fill="#FF8F53"/>
<ellipse cx="3.78246" cy="7.18668" rx="3.78246" ry="7.18668" transform="matrix(0.706978 0.707235 -0.711871 0.70231 436.38 323.716)" fill="#FF8F53"/>
<ellipse cx="3.77114" cy="7.20812" rx="3.77114" ry="7.20812" transform="matrix(0.212116 0.977244 -0.977825 0.209426 422.391 335.731)" fill="#FF8F53"/>
<ellipse cx="3.77555" cy="7.19978" rx="3.77555" ry="7.19978" transform="matrix(-0.477231 0.878778 -0.881377 -0.472414 425.751 332.322)" fill="#FF8F53"/>
<ellipse cx="3.79179" cy="7.16891" rx="3.79179" ry="7.16891" transform="matrix(-0.93509 -0.35441 0.358472 -0.93354 423.279 356.145)" fill="#FF8F53"/>
<ellipse cx="3.78246" cy="7.18668" rx="3.78246" ry="7.18668" transform="matrix(-0.711871 0.70231 -0.706978 -0.707235 440.321 349.054)" fill="#FF8F53"/>
<ellipse cx="437.135" cy="339.175" rx="3.77" ry="7.21028" transform="rotate(90.1989 437.135 339.175)" fill="#FF8F53"/>
<ellipse cx="426.323" cy="337.965" rx="6.41593" ry="6.37385" transform="rotate(0.198902 426.323 337.965)" fill="#A46443"/>
<path d="M417.517 384.111C412.456 376.109 395.154 368 402.096 376.786C407.459 383.572 413.073 384.358 417.517 384.111Z" stroke="#404040" stroke-width="2.42813"/>
<path d="M424.011 388.037C421.8 397.229 408.028 410.419 411.768 399.887C414.658 391.751 419.722 389.219 424.011 388.037Z" stroke="#404040" stroke-width="2.42813"/>
<path d="M165.55 386.533L415.343 387.4" stroke="#404040" stroke-width="2.42813"/>
<ellipse cx="426.002" cy="375.782" rx="3.79488" ry="7.163" transform="rotate(0.198902 426.002 375.782)" fill="#FF8F53"/>
<ellipse cx="3.78246" cy="7.18668" rx="3.78246" ry="7.18668" transform="matrix(0.706978 0.707235 -0.711871 0.70231 436.213 371.671)" fill="#FF8F53"/>
<ellipse cx="3.77114" cy="7.20812" rx="3.77114" ry="7.20812" transform="matrix(0.212116 0.977244 -0.977825 0.209426 422.225 383.686)" fill="#FF8F53"/>
<ellipse cx="3.77555" cy="7.19978" rx="3.77555" ry="7.19978" transform="matrix(-0.477231 0.878778 -0.881377 -0.472414 425.584 380.277)" fill="#FF8F53"/>
<ellipse cx="3.79179" cy="7.16891" rx="3.79179" ry="7.16891" transform="matrix(-0.93509 -0.35441 0.358472 -0.93354 423.112 404.1)" fill="#FF8F53"/>
<ellipse cx="3.78246" cy="7.18668" rx="3.78246" ry="7.18668" transform="matrix(-0.711871 0.70231 -0.706978 -0.707235 440.154 397.01)" fill="#FF8F53"/>
<ellipse cx="436.968" cy="387.13" rx="3.77" ry="7.21028" transform="rotate(90.1989 436.968 387.13)" fill="#FF8F53"/>
<ellipse cx="426.157" cy="385.92" rx="6.41593" ry="6.37385" transform="rotate(0.198902 426.157 385.92)" fill="#A46443"/>
<path d="M171.442 186.744C170.754 186.742 170.058 186.74 169.354 186.737C168.65 186.735 167.946 186.732 167.242 186.73C167.252 184.042 167.261 181.322 167.271 178.57C167.28 175.818 167.29 173.098 167.299 170.41C168.003 170.412 168.707 170.415 169.411 170.417C170.115 170.42 170.811 170.422 171.499 170.425C171.496 171.401 171.492 172.385 171.489 173.377C171.485 174.353 171.482 175.329 171.479 176.305C172.327 176.307 173.183 176.31 174.047 176.313C174.911 176.316 175.759 176.319 176.591 176.322C176.594 175.346 176.597 174.37 176.601 173.394C176.604 172.402 176.608 171.418 176.611 170.442C177.315 170.445 178.019 170.447 178.723 170.45C179.427 170.452 180.123 170.455 180.811 170.457C180.802 173.145 180.792 175.865 180.783 178.617C180.773 181.369 180.764 184.089 180.754 186.777C180.066 186.774 179.37 186.772 178.666 186.77C177.962 186.767 177.258 186.765 176.554 186.762C176.558 185.674 176.562 184.578 176.566 183.474C176.57 182.354 176.574 181.258 176.577 180.186C175.745 180.183 174.897 180.18 174.033 180.177C173.169 180.174 172.313 180.171 171.465 180.169C171.462 181.24 171.458 182.336 171.454 183.456C171.45 184.56 171.446 185.656 171.442 186.744ZM185.803 172.97C185.339 172.969 184.915 172.855 184.532 172.63C184.165 172.405 183.87 172.108 183.647 171.739C183.425 171.37 183.314 170.962 183.315 170.514C183.317 170.066 183.43 169.666 183.656 169.315C183.881 168.948 184.178 168.653 184.547 168.43C184.931 168.207 185.356 168.097 185.82 168.098C186.268 168.1 186.675 168.213 187.043 168.439C187.426 168.664 187.729 168.961 187.952 169.33C188.174 169.682 188.285 170.083 188.283 170.531C188.282 170.979 188.168 171.386 187.943 171.754C187.718 172.121 187.413 172.416 187.028 172.638C186.659 172.861 186.251 172.972 185.803 172.97ZM183.763 186.787C183.77 184.739 183.777 182.675 183.784 180.595C183.792 178.499 183.799 176.427 183.806 174.379C184.462 174.382 185.126 174.384 185.798 174.386C186.47 174.389 187.126 174.391 187.766 174.393C187.759 176.441 187.752 178.513 187.744 180.609C187.737 182.689 187.73 184.753 187.723 186.801C187.083 186.799 186.427 186.796 185.755 186.794C185.083 186.792 184.419 186.79 183.763 186.787ZM202.158 184.835C202.153 186.195 201.853 187.33 201.258 188.24C200.679 189.15 199.884 189.827 198.875 190.272C197.865 190.732 196.712 190.968 195.416 190.98C194.136 190.991 192.785 190.795 191.362 190.39C191.364 189.766 191.367 189.134 191.369 188.494C191.371 187.87 191.373 187.246 191.375 186.622C192.638 187.122 193.781 187.374 194.805 187.378C195.829 187.397 196.637 187.208 197.231 186.81C197.84 186.396 198.146 185.829 198.149 185.109C198.149 185.029 198.149 184.957 198.149 184.893C198.15 184.813 198.15 184.741 198.15 184.677C197.749 184.98 197.284 185.218 196.756 185.392C196.227 185.566 195.659 185.653 195.051 185.65C194.043 185.647 193.14 185.412 192.341 184.945C191.559 184.462 190.945 183.804 190.5 182.971C190.055 182.121 189.834 181.136 189.838 180.016C189.841 179.152 189.988 178.361 190.279 177.642C190.569 176.923 190.971 176.3 191.485 175.774C191.999 175.248 192.584 174.85 193.241 174.58C193.898 174.294 194.587 174.153 195.307 174.155C195.883 174.157 196.418 174.239 196.914 174.401C197.409 174.563 197.849 174.78 198.232 175.053C198.232 174.941 198.232 174.837 198.233 174.741C198.233 174.645 198.233 174.541 198.234 174.429C198.89 174.432 199.554 174.434 200.226 174.436C200.898 174.439 201.554 174.441 202.194 174.443C202.188 176.155 202.182 177.891 202.176 179.651C202.17 181.395 202.164 183.123 202.158 184.835ZM196.047 182.222C196.719 182.224 197.255 182.018 197.657 181.603C198.074 181.173 198.284 180.622 198.287 179.95C198.289 179.262 198.083 178.701 197.668 178.267C197.27 177.834 196.735 177.616 196.063 177.614C195.359 177.611 194.798 177.825 194.38 178.256C193.963 178.671 193.753 179.23 193.751 179.934C193.748 180.622 193.954 181.175 194.369 181.592C194.783 182.009 195.343 182.219 196.047 182.222ZM204.903 186.861C204.914 183.965 204.924 181.045 204.934 178.101C204.944 175.157 204.954 172.237 204.964 169.341C205.62 169.343 206.284 169.345 206.956 169.348C207.628 169.35 208.284 169.352 208.924 169.354C208.921 170.298 208.918 171.258 208.914 172.234C208.911 173.194 208.908 174.146 208.904 175.09C209.337 174.788 209.818 174.558 210.347 174.399C210.891 174.225 211.476 174.139 212.1 174.142C213.012 174.145 213.811 174.355 214.498 174.774C215.2 175.192 215.742 175.794 216.123 176.58C216.521 177.349 216.717 178.278 216.714 179.366C216.709 180.614 216.705 181.87 216.7 183.134C216.696 184.398 216.692 185.654 216.687 186.902C216.047 186.899 215.391 186.897 214.719 186.895C214.047 186.892 213.383 186.89 212.727 186.888C212.731 185.736 212.735 184.568 212.74 183.384C212.744 182.2 212.748 181.032 212.752 179.88C212.754 179.24 212.604 178.727 212.301 178.342C212.014 177.941 211.551 177.74 210.911 177.737C210.271 177.735 209.775 177.917 209.421 178.284C209.068 178.651 208.89 179.178 208.888 179.866C208.884 181.018 208.88 182.186 208.876 183.37C208.872 184.554 208.867 185.722 208.863 186.874C208.223 186.872 207.567 186.87 206.895 186.868C206.223 186.865 205.559 186.863 204.903 186.861ZM218.69 181.364C218.692 180.756 218.694 180.14 218.696 179.516C218.698 178.876 218.701 178.252 218.703 177.644C219.775 177.648 220.855 177.652 221.943 177.656C223.031 177.659 224.111 177.663 225.183 177.667C225.181 178.275 225.178 178.899 225.176 179.539C225.174 180.163 225.172 180.779 225.17 181.387C224.098 181.383 223.018 181.379 221.93 181.376C220.842 181.372 219.762 181.368 218.69 181.364ZM231.253 190.792C230.613 190.79 229.957 190.788 229.285 190.785C228.613 190.783 227.949 190.781 227.293 190.778C227.303 188.106 227.312 185.402 227.322 182.666C227.331 179.914 227.341 177.202 227.35 174.53C228.006 174.533 228.67 174.535 229.342 174.537C230.014 174.54 230.67 174.542 231.31 174.544C231.309 174.656 231.309 174.768 231.309 174.88C231.308 174.992 231.308 175.112 231.307 175.24C231.709 174.922 232.165 174.675 232.678 174.501C233.191 174.311 233.735 174.217 234.311 174.219C235.111 174.221 235.87 174.384 236.589 174.707C237.308 175.013 237.939 175.455 238.481 176.033C239.039 176.611 239.468 177.301 239.77 178.102C240.087 178.903 240.244 179.791 240.24 180.767C240.237 181.727 240.074 182.607 239.751 183.406C239.444 184.205 239.01 184.899 238.448 185.489C237.902 186.063 237.268 186.509 236.547 186.826C235.826 187.144 235.058 187.301 234.242 187.298C233.666 187.296 233.122 187.199 232.611 187.005C232.115 186.827 231.668 186.57 231.269 186.232C231.267 186.984 231.264 187.744 231.261 188.512C231.259 189.28 231.256 190.04 231.253 190.792ZM233.726 183.793C234.51 183.795 235.127 183.526 235.577 182.983C236.043 182.425 236.277 181.682 236.28 180.754C236.284 179.826 236.054 179.089 235.592 178.543C235.146 177.998 234.531 177.723 233.747 177.721C232.979 177.718 232.362 177.996 231.896 178.554C231.43 179.097 231.196 179.824 231.192 180.736C231.189 181.648 231.419 182.385 231.881 182.946C232.343 183.508 232.958 183.79 233.726 183.793ZM242.19 186.99C242.197 184.942 242.204 182.878 242.211 180.798C242.218 178.702 242.225 176.63 242.233 174.582C242.889 174.584 243.553 174.587 244.225 174.589C244.897 174.591 245.553 174.594 246.193 174.596C246.192 174.708 246.192 174.82 246.191 174.932C246.191 175.044 246.191 175.156 246.19 175.268C246.687 174.918 247.248 174.656 247.873 174.482C248.498 174.308 249.178 174.262 249.913 174.345C249.911 174.985 249.909 175.633 249.907 176.289C249.904 176.945 249.902 177.593 249.9 178.233C248.637 178.052 247.7 178.161 247.091 178.559C246.481 178.941 246.175 179.572 246.172 180.452C246.169 181.524 246.165 182.612 246.161 183.716C246.157 184.82 246.153 185.916 246.149 187.004C245.509 187.002 244.853 186.999 244.181 186.997C243.51 186.995 242.846 186.992 242.19 186.99ZM262.223 186.484C261.117 186.944 260.02 187.228 258.932 187.336C257.844 187.444 256.812 187.377 255.837 187.133C254.877 186.906 254.023 186.511 253.273 185.949C252.523 185.386 251.933 184.672 251.504 183.806C251.091 182.941 250.887 181.94 250.891 180.804C250.894 179.86 251.049 178.997 251.356 178.214C251.678 177.415 252.129 176.721 252.707 176.131C253.285 175.525 253.967 175.063 254.752 174.746C255.537 174.412 256.393 174.247 257.321 174.251C258.153 174.253 258.905 174.392 259.576 174.666C260.247 174.941 260.83 175.327 261.324 175.824C261.818 176.306 262.216 176.884 262.518 177.557C262.82 178.23 263.009 178.966 263.086 179.767C263.163 180.567 263.113 181.415 262.933 182.31C261.621 182.305 260.301 182.301 258.973 182.296C257.645 182.292 256.325 182.287 255.013 182.283C255.315 182.892 255.818 183.325 256.521 183.584C257.24 183.842 258.088 183.925 259.064 183.833C260.056 183.74 261.113 183.488 262.235 183.076C262.233 183.636 262.231 184.204 262.229 184.78C262.227 185.356 262.225 185.924 262.223 186.484ZM257.213 177.802C256.749 177.801 256.317 177.927 255.916 178.182C255.531 178.436 255.233 178.827 255.024 179.355C255.744 179.357 256.464 179.36 257.184 179.362C257.92 179.365 258.648 179.367 259.368 179.37C259.178 178.825 258.891 178.432 258.508 178.191C258.141 177.933 257.709 177.804 257.213 177.802ZM274.651 183.263C274.648 184.255 274.365 185.07 273.803 185.708C273.257 186.33 272.519 186.783 271.59 187.068C270.661 187.353 269.621 187.469 268.469 187.417C267.333 187.381 266.174 187.193 264.991 186.853C264.993 186.245 264.995 185.621 264.997 184.981C265 184.341 265.002 183.717 265.004 183.109C265.675 183.416 266.346 183.658 267.017 183.836C267.689 183.999 268.296 184.097 268.84 184.131C269.384 184.164 269.824 184.126 270.161 184.015C270.497 183.888 270.666 183.681 270.667 183.393C270.668 183.169 270.524 182.992 270.237 182.863C269.965 182.734 269.606 182.621 269.158 182.524C268.71 182.41 268.231 182.28 267.719 182.135C267.224 181.973 266.753 181.755 266.306 181.482C265.859 181.192 265.492 180.815 265.205 180.35C264.935 179.869 264.801 179.253 264.804 178.501C264.807 177.605 265.066 176.845 265.58 176.223C266.11 175.585 266.816 175.107 267.697 174.791C268.578 174.458 269.563 174.293 270.65 174.297C271.738 174.301 272.85 174.488 273.985 174.86C273.982 175.468 273.98 176.092 273.978 176.732C273.976 177.372 273.974 177.996 273.972 178.604C273.077 178.169 272.238 177.878 271.455 177.732C270.671 177.585 270.039 177.567 269.559 177.677C269.078 177.771 268.838 177.987 268.837 178.323C268.836 178.547 268.971 178.723 269.243 178.852C269.53 178.965 269.89 179.07 270.322 179.168C270.769 179.265 271.241 179.395 271.736 179.557C272.248 179.718 272.719 179.944 273.15 180.234C273.597 180.507 273.956 180.892 274.226 181.389C274.512 181.87 274.654 182.495 274.651 183.263ZM285.925 183.302C285.921 184.294 285.638 185.109 285.076 185.747C284.53 186.369 283.793 186.822 282.864 187.107C281.935 187.392 280.894 187.508 279.742 187.456C278.606 187.42 277.447 187.232 276.264 186.892C276.266 186.284 276.269 185.66 276.271 185.02C276.273 184.38 276.275 183.756 276.277 183.148C276.948 183.455 277.619 183.697 278.291 183.875C278.962 184.038 279.57 184.136 280.114 184.17C280.658 184.204 281.098 184.165 281.434 184.054C281.771 183.927 281.939 183.72 281.94 183.432C281.941 183.208 281.798 183.032 281.51 182.903C281.239 182.774 280.879 182.66 280.431 182.563C279.984 182.449 279.504 182.32 278.993 182.174C278.497 182.012 278.026 181.794 277.579 181.521C277.132 181.231 276.765 180.854 276.479 180.389C276.208 179.908 276.075 179.292 276.077 178.54C276.08 177.644 276.339 176.885 276.853 176.262C277.383 175.624 278.089 175.147 278.97 174.83C279.851 174.497 280.836 174.332 281.924 174.336C283.012 174.34 284.123 174.528 285.258 174.9C285.256 175.507 285.254 176.131 285.251 176.771C285.249 177.411 285.247 178.035 285.245 178.643C284.35 178.208 283.511 177.917 282.728 177.771C281.944 177.624 281.313 177.606 280.832 177.716C280.352 177.81 280.111 178.026 280.11 178.362C280.109 178.586 280.244 178.762 280.516 178.891C280.804 179.004 281.163 179.109 281.595 179.207C282.043 179.304 282.514 179.434 283.01 179.596C283.521 179.758 283.992 179.983 284.423 180.273C284.87 180.546 285.229 180.931 285.499 181.428C285.786 181.909 285.927 182.534 285.925 183.302ZM299.457 174.781C299.45 176.829 299.443 178.901 299.435 180.997C299.428 183.077 299.421 185.141 299.414 187.189C298.774 187.186 298.118 187.184 297.446 187.182C296.774 187.18 296.11 187.177 295.454 187.175C295.454 187.063 295.455 186.959 295.455 186.863C295.455 186.767 295.456 186.663 295.456 186.551C295.023 186.853 294.534 187.084 293.99 187.242C293.461 187.416 292.885 187.502 292.261 187.5C291.349 187.497 290.542 187.286 289.839 186.867C289.152 186.449 288.611 185.847 288.213 185.062C287.832 184.276 287.643 183.348 287.647 182.276C287.651 181.028 287.656 179.772 287.66 178.508C287.664 177.244 287.669 175.988 287.673 174.74C288.329 174.742 288.993 174.744 289.665 174.747C290.337 174.749 290.993 174.751 291.633 174.754C291.629 175.906 291.625 177.074 291.621 178.258C291.617 179.442 291.613 180.61 291.609 181.762C291.607 182.402 291.749 182.922 292.035 183.323C292.338 183.708 292.809 183.902 293.449 183.904C294.089 183.906 294.586 183.724 294.939 183.357C295.293 182.99 295.47 182.463 295.473 181.775C295.477 180.623 295.481 179.455 295.485 178.271C295.489 177.087 295.493 175.919 295.497 174.767C296.153 174.769 296.817 174.772 297.489 174.774C298.161 174.776 298.817 174.779 299.457 174.781ZM302.049 187.198C302.056 185.15 302.063 183.086 302.07 181.006C302.077 178.91 302.084 176.838 302.092 174.79C302.748 174.792 303.412 174.795 304.084 174.797C304.756 174.799 305.412 174.801 306.052 174.804C306.051 174.916 306.051 175.028 306.05 175.14C306.05 175.252 306.05 175.364 306.049 175.476C306.546 175.125 307.107 174.863 307.732 174.69C308.357 174.516 309.037 174.47 309.772 174.553C309.77 175.193 309.768 175.841 309.766 176.497C309.763 177.153 309.761 177.801 309.759 178.441C308.496 178.26 307.559 178.369 306.95 178.767C306.34 179.149 306.034 179.78 306.031 180.66C306.028 181.732 306.024 182.82 306.02 183.924C306.016 185.028 306.012 186.124 306.009 187.212C305.369 187.209 304.713 187.207 304.041 187.205C303.369 187.202 302.705 187.2 302.049 187.198ZM322.082 186.691C320.976 187.152 319.879 187.436 318.791 187.544C317.703 187.652 316.671 187.585 315.696 187.341C314.736 187.114 313.882 186.719 313.132 186.156C312.382 185.594 311.792 184.88 311.363 184.014C310.95 183.149 310.746 182.148 310.75 181.012C310.753 180.068 310.908 179.205 311.215 178.422C311.537 177.623 311.988 176.928 312.566 176.338C313.144 175.732 313.826 175.271 314.611 174.953C315.396 174.62 316.252 174.455 317.18 174.458C318.012 174.461 318.764 174.6 319.435 174.874C320.106 175.148 320.689 175.535 321.183 176.032C321.677 176.514 322.075 177.091 322.377 177.764C322.679 178.437 322.868 179.174 322.945 179.974C323.023 180.775 322.972 181.622 322.792 182.518C321.48 182.513 320.16 182.509 318.832 182.504C317.504 182.499 316.184 182.495 314.873 182.49C315.174 183.099 315.677 183.533 316.38 183.792C317.099 184.05 317.947 184.133 318.923 184.04C319.915 183.948 320.972 183.696 322.094 183.283C322.092 183.843 322.09 184.411 322.088 184.987C322.086 185.563 322.084 186.131 322.082 186.691ZM317.072 178.01C316.608 178.008 316.176 178.135 315.775 178.389C315.39 178.644 315.093 179.035 314.883 179.562C315.603 179.565 316.323 179.567 317.043 179.57C317.779 179.572 318.507 179.575 319.227 179.577C319.037 179.033 318.75 178.64 318.367 178.398C318 178.141 317.568 178.012 317.072 178.01ZM329.482 179.973C329.487 178.485 329.659 177.142 330 175.943C330.356 174.744 330.839 173.682 331.451 172.756C332.062 171.83 332.769 171.048 333.571 170.411C334.389 169.758 335.271 169.241 336.216 168.86C337.162 168.464 338.138 168.211 339.147 168.103C339.145 168.695 339.143 169.295 339.141 169.903C339.138 170.511 339.136 171.111 339.134 171.703C338.029 171.971 337.052 172.423 336.202 173.06C335.367 173.697 334.708 174.575 334.224 175.693C333.757 176.812 333.52 178.243 333.514 179.987C333.508 181.715 333.735 183.148 334.195 184.285C334.671 185.407 335.324 186.289 336.153 186.932C336.999 187.575 337.974 188.035 339.077 188.31C339.075 188.902 339.073 189.502 339.07 190.11C339.068 190.718 339.066 191.318 339.064 191.91C338.057 191.779 337.082 191.52 336.139 191.132C335.196 190.745 334.318 190.222 333.504 189.563C332.707 188.92 332.005 188.134 331.4 187.204C330.796 186.274 330.319 185.208 329.972 184.007C329.64 182.806 329.476 181.461 329.482 179.973ZM339.633 179.168C339.638 177.936 339.834 176.817 340.221 175.81C340.625 174.788 341.188 173.902 341.91 173.152C342.633 172.403 343.499 171.822 344.508 171.409C345.518 170.997 346.631 170.777 347.847 170.749C349.079 170.721 350.39 170.918 351.781 171.338C351.778 172.01 351.776 172.69 351.774 173.378C351.771 174.05 351.769 174.722 351.767 175.394C350.824 174.943 349.889 174.684 348.961 174.617C348.034 174.549 347.193 174.675 346.44 174.992C345.687 175.309 345.085 175.819 344.635 176.522C344.184 177.208 343.957 178.095 343.953 179.183C343.95 180.271 344.171 181.168 344.616 181.874C345.062 182.563 345.66 183.069 346.411 183.392C347.162 183.714 348.001 183.845 348.929 183.785C349.858 183.724 350.795 183.471 351.74 183.026C351.738 183.698 351.735 184.378 351.733 185.066C351.731 185.738 351.728 186.41 351.726 187.082C350.333 187.493 349.02 187.681 347.788 187.645C346.572 187.608 345.461 187.381 344.454 186.961C343.448 186.542 342.586 185.955 341.869 185.2C341.151 184.446 340.594 183.564 340.198 182.554C339.817 181.529 339.629 180.4 339.633 179.168ZM359.888 187.783C358.96 187.779 358.096 187.616 357.297 187.294C356.499 186.955 355.804 186.488 355.214 185.894C354.624 185.284 354.163 184.579 353.83 183.778C353.512 182.976 353.355 182.104 353.359 181.16C353.362 180.216 353.525 179.345 353.848 178.546C354.187 177.747 354.653 177.052 355.247 176.462C355.841 175.873 356.539 175.419 357.34 175.102C358.141 174.769 359.006 174.604 359.934 174.607C360.878 174.61 361.741 174.781 362.524 175.12C363.323 175.443 364.017 175.901 364.607 176.495C365.197 177.089 365.651 177.787 365.968 178.588C366.301 179.389 366.466 180.261 366.463 181.205C366.459 182.149 366.288 183.021 365.95 183.82C365.627 184.619 365.168 185.321 364.574 185.927C363.98 186.517 363.283 186.978 362.481 187.312C361.696 187.629 360.832 187.786 359.888 187.783ZM359.9 184.207C360.684 184.209 361.309 183.932 361.775 183.373C362.257 182.799 362.5 182.072 362.503 181.192C362.506 180.296 362.268 179.575 361.79 179.029C361.328 178.468 360.705 178.185 359.921 178.183C359.137 178.18 358.504 178.458 358.022 179.016C357.556 179.559 357.322 180.278 357.319 181.174C357.316 182.054 357.545 182.782 358.007 183.36C358.485 183.922 359.116 184.204 359.9 184.207ZM368.52 187.429C368.53 184.533 368.54 181.613 368.55 178.669C368.56 175.725 368.57 172.805 368.581 169.909C369.237 169.911 369.9 169.913 370.572 169.916C371.244 169.918 371.9 169.92 372.54 169.922C372.53 172.818 372.52 175.738 372.51 178.682C372.5 181.626 372.49 184.546 372.48 187.442C371.84 187.44 371.184 187.438 370.512 187.436C369.84 187.433 369.176 187.431 368.52 187.429ZM381.122 187.856C380.194 187.853 379.331 187.69 378.532 187.367C377.733 187.029 377.038 186.562 376.449 185.968C375.859 185.358 375.397 184.652 375.064 183.851C374.747 183.05 374.59 182.178 374.593 181.234C374.596 180.29 374.759 179.418 375.082 178.619C375.421 177.821 375.887 177.126 376.481 176.536C377.075 175.946 377.773 175.493 378.574 175.175C379.375 174.842 380.24 174.677 381.168 174.68C382.112 174.684 382.975 174.855 383.758 175.193C384.557 175.516 385.251 175.975 385.841 176.569C386.431 177.163 386.885 177.86 387.202 178.661C387.535 179.463 387.7 180.335 387.697 181.279C387.694 182.223 387.523 183.095 387.184 183.893C386.861 184.692 386.403 185.395 385.808 186.001C385.214 186.591 384.517 187.052 383.716 187.385C382.931 187.703 382.066 187.86 381.122 187.856ZM381.134 184.28C381.918 184.283 382.543 184.005 383.009 183.447C383.491 182.873 383.734 182.145 383.737 181.265C383.74 180.369 383.503 179.649 383.024 179.103C382.562 178.541 381.939 178.259 381.155 178.256C380.371 178.254 379.738 178.532 379.256 179.09C378.791 179.632 378.556 180.351 378.553 181.247C378.55 182.127 378.779 182.856 379.241 183.434C379.719 183.995 380.35 184.278 381.134 184.28ZM389.634 187.502C389.641 185.454 389.648 183.39 389.655 181.31C389.663 179.214 389.67 177.142 389.677 175.094C390.333 175.096 390.997 175.099 391.669 175.101C392.341 175.103 392.997 175.106 393.637 175.108C393.637 175.22 393.636 175.332 393.636 175.444C393.635 175.556 393.635 175.668 393.635 175.78C394.132 175.429 394.693 175.167 395.317 174.994C395.942 174.82 396.622 174.774 397.358 174.857C397.356 175.497 397.353 176.145 397.351 176.801C397.349 177.457 397.347 178.105 397.344 178.745C396.081 178.564 395.145 178.673 394.535 179.071C393.926 179.453 393.62 180.084 393.617 180.964C393.613 182.036 393.609 183.124 393.605 184.228C393.601 185.332 393.598 186.428 393.594 187.516C392.954 187.513 392.298 187.511 391.626 187.509C390.954 187.507 390.29 187.504 389.634 187.502ZM408.152 180.222C408.147 181.71 407.966 183.054 407.61 184.252C407.27 185.451 406.794 186.513 406.183 187.439C405.572 188.365 404.857 189.147 404.039 189.784C403.237 190.437 402.363 190.954 401.417 191.335C400.472 191.716 399.495 191.968 398.487 192.093C398.489 191.485 398.491 190.877 398.493 190.269C398.495 189.677 398.497 189.085 398.499 188.493C399.62 188.225 400.598 187.772 401.432 187.135C402.266 186.498 402.917 185.62 403.385 184.502C403.869 183.367 404.114 181.936 404.12 180.208C404.126 178.464 403.891 177.031 403.415 175.91C402.955 174.788 402.31 173.906 401.48 173.263C400.65 172.62 399.676 172.161 398.557 171.885C398.559 171.277 398.561 170.677 398.563 170.085C398.565 169.477 398.567 168.877 398.569 168.285C399.577 168.4 400.552 168.66 401.495 169.063C402.437 169.45 403.308 169.973 404.105 170.632C404.919 171.275 405.628 172.061 406.233 172.991C406.838 173.922 407.306 174.987 407.638 176.188C407.986 177.39 408.157 178.734 408.152 180.222Z" fill="#2F4ECD"/>
<path d="M171.184 233.842C170.496 233.84 169.8 233.837 169.096 233.835C168.392 233.832 167.688 233.83 166.984 233.827C166.993 231.139 167.002 228.419 167.012 225.667C167.022 222.915 167.031 220.196 167.04 217.508C167.744 217.51 168.448 217.512 169.152 217.515C169.856 217.517 170.552 217.52 171.24 217.522C171.237 218.498 171.233 219.482 171.23 220.474C171.227 221.45 171.223 222.426 171.22 223.402C172.068 223.405 172.924 223.408 173.788 223.411C174.652 223.414 175.5 223.417 176.332 223.42C176.335 222.444 176.339 221.468 176.342 220.492C176.345 219.5 176.349 218.516 176.352 217.54C177.056 217.542 177.76 217.545 178.464 217.547C179.168 217.55 179.864 217.552 180.552 217.554C180.543 220.242 180.533 222.962 180.524 225.714C180.514 228.466 180.505 231.186 180.496 233.874C179.808 233.872 179.112 233.87 178.408 233.867C177.704 233.865 177 233.862 176.296 233.86C176.299 232.772 176.303 231.676 176.307 230.572C176.311 229.452 176.315 228.356 176.318 227.284C175.486 227.281 174.638 227.278 173.774 227.275C172.91 227.272 172.054 227.269 171.206 227.266C171.203 228.338 171.199 229.434 171.195 230.554C171.191 231.658 171.187 232.754 171.184 233.842ZM189.263 234.289C188.335 234.286 187.471 234.123 186.673 233.8C185.874 233.461 185.179 232.995 184.589 232.401C183.999 231.79 183.538 231.085 183.205 230.284C182.887 229.483 182.731 228.61 182.734 227.666C182.737 226.722 182.9 225.851 183.223 225.052C183.562 224.253 184.028 223.559 184.622 222.969C185.216 222.379 185.914 221.925 186.715 221.608C187.516 221.275 188.381 221.11 189.309 221.113C190.253 221.116 191.116 221.287 191.899 221.626C192.698 221.949 193.392 222.407 193.982 223.001C194.572 223.595 195.026 224.293 195.343 225.094C195.676 225.895 195.841 226.768 195.838 227.712C195.834 228.656 195.663 229.527 195.325 230.326C195.002 231.125 194.543 231.827 193.949 232.433C193.355 233.023 192.658 233.485 191.856 233.818C191.071 234.135 190.207 234.292 189.263 234.289ZM189.275 230.713C190.059 230.716 190.684 230.438 191.15 229.879C191.632 229.305 191.875 228.578 191.878 227.698C191.881 226.802 191.643 226.081 191.165 225.535C190.703 224.974 190.08 224.692 189.296 224.689C188.512 224.686 187.879 224.964 187.397 225.522C186.931 226.065 186.697 226.784 186.694 227.68C186.691 228.56 186.92 229.289 187.382 229.866C187.86 230.428 188.491 230.71 189.275 230.713ZM201.721 237.788C201.081 237.786 200.425 237.784 199.753 237.781C199.081 237.779 198.417 237.777 197.761 237.774C197.771 235.102 197.78 232.398 197.79 229.662C197.799 226.91 197.809 224.198 197.818 221.526C198.474 221.529 199.138 221.531 199.81 221.533C200.482 221.536 201.138 221.538 201.778 221.54C201.777 221.652 201.777 221.764 201.777 221.876C201.776 221.988 201.776 222.108 201.775 222.236C202.176 221.918 202.633 221.671 203.146 221.497C203.659 221.307 204.203 221.213 204.779 221.215C205.579 221.217 206.338 221.38 207.057 221.702C207.776 222.009 208.407 222.451 208.949 223.029C209.507 223.607 209.936 224.296 210.237 225.098C210.555 225.899 210.712 226.787 210.708 227.763C210.705 228.723 210.542 229.603 210.219 230.401C209.912 231.2 209.478 231.895 208.916 232.485C208.37 233.059 207.736 233.505 207.015 233.822C206.294 234.14 205.526 234.297 204.71 234.294C204.134 234.292 203.59 234.195 203.079 234.001C202.583 233.823 202.136 233.565 201.737 233.228C201.735 233.98 201.732 234.74 201.729 235.508C201.727 236.276 201.724 237.036 201.721 237.788ZM204.194 230.789C204.978 230.791 205.595 230.521 206.045 229.979C206.51 229.421 206.745 228.677 206.748 227.749C206.751 226.821 206.522 226.085 206.06 225.539C205.614 224.993 204.999 224.719 204.215 224.717C203.447 224.714 202.83 224.992 202.364 225.55C201.898 226.093 201.663 226.82 201.66 227.732C201.657 228.644 201.887 229.381 202.349 229.942C202.811 230.504 203.426 230.786 204.194 230.789ZM223.339 233.447C222.234 233.907 221.137 234.191 220.048 234.3C218.96 234.408 217.928 234.34 216.953 234.097C215.994 233.87 215.139 233.475 214.389 232.912C213.639 232.349 213.05 231.635 212.621 230.77C212.208 229.904 212.003 228.904 212.007 227.768C212.01 226.824 212.165 225.96 212.472 225.177C212.795 224.378 213.245 223.684 213.823 223.094C214.401 222.488 215.083 222.026 215.868 221.709C216.653 221.376 217.51 221.211 218.438 221.214C219.27 221.217 220.021 221.355 220.692 221.63C221.363 221.904 221.946 222.29 222.44 222.788C222.935 223.27 223.333 223.847 223.634 224.52C223.936 225.193 224.125 225.93 224.203 226.73C224.28 227.53 224.229 228.378 224.05 229.273C222.738 229.269 221.418 229.264 220.09 229.26C218.762 229.255 217.442 229.251 216.13 229.246C216.432 229.855 216.934 230.289 217.637 230.547C218.357 230.806 219.204 230.889 220.181 230.796C221.173 230.704 222.23 230.451 223.351 230.039C223.349 230.599 223.347 231.167 223.345 231.743C223.343 232.319 223.341 232.887 223.339 233.447ZM218.33 224.766C217.866 224.764 217.433 224.891 217.032 225.145C216.647 225.4 216.35 225.791 216.14 226.318C216.86 226.321 217.58 226.323 218.3 226.326C219.036 226.328 219.764 226.331 220.484 226.333C220.294 225.788 220.007 225.395 219.624 225.154C219.257 224.897 218.825 224.767 218.33 224.766ZM225.54 225.175C225.542 224.583 225.544 223.991 225.546 223.399C225.548 222.807 225.55 222.215 225.552 221.623C225.872 221.624 226.192 221.625 226.512 221.626C226.848 221.627 227.176 221.628 227.496 221.629C227.497 221.549 227.497 221.477 227.497 221.413C227.497 221.349 227.498 221.285 227.498 221.221C227.502 220.149 227.721 219.254 228.155 218.536C228.606 217.801 229.192 217.243 229.913 216.862C230.65 216.464 231.451 216.243 232.315 216.198C233.196 216.137 234.067 216.252 234.93 216.543C234.928 217.135 234.926 217.743 234.924 218.367C234.922 218.991 234.92 219.607 234.917 220.215C233.959 219.892 233.143 219.825 232.47 220.015C231.797 220.204 231.46 220.619 231.458 221.259C231.458 221.323 231.457 221.387 231.457 221.451C231.457 221.515 231.457 221.579 231.456 221.643C231.952 221.645 232.448 221.647 232.944 221.648C233.44 221.65 233.936 221.652 234.432 221.653C234.43 222.245 234.428 222.837 234.426 223.429C234.424 224.021 234.422 224.613 234.42 225.205C233.924 225.204 233.428 225.202 232.932 225.2C232.436 225.199 231.94 225.197 231.444 225.195C231.439 226.651 231.434 228.123 231.429 229.611C231.424 231.099 231.418 232.579 231.413 234.051C230.773 234.049 230.117 234.047 229.445 234.044C228.773 234.042 228.109 234.04 227.453 234.037C227.458 232.565 227.464 231.085 227.469 229.597C227.474 228.109 227.479 226.637 227.484 225.181C227.164 225.18 226.836 225.179 226.5 225.178C226.18 225.177 225.86 225.176 225.54 225.175ZM248.058 221.701C248.051 223.749 248.044 225.821 248.036 227.917C248.029 229.997 248.022 232.061 248.015 234.109C247.375 234.106 246.719 234.104 246.047 234.102C245.375 234.1 244.711 234.097 244.055 234.095C244.055 233.983 244.056 233.879 244.056 233.783C244.056 233.687 244.057 233.583 244.057 233.471C243.624 233.773 243.135 234.004 242.591 234.162C242.062 234.336 241.486 234.422 240.862 234.42C239.95 234.417 239.142 234.206 238.44 233.787C237.753 233.369 237.211 232.767 236.814 231.982C236.433 231.196 236.244 230.268 236.248 229.196C236.252 227.948 236.257 226.692 236.261 225.428C236.265 224.164 236.27 222.908 236.274 221.66C236.93 221.662 237.594 221.664 238.266 221.667C238.938 221.669 239.594 221.671 240.234 221.674C240.23 222.826 240.226 223.994 240.222 225.178C240.218 226.362 240.214 227.53 240.21 228.682C240.207 229.322 240.35 229.842 240.636 230.243C240.939 230.628 241.41 230.822 242.05 230.824C242.69 230.826 243.187 230.644 243.54 230.277C243.893 229.91 244.071 229.383 244.074 228.695C244.078 227.543 244.082 226.375 244.086 225.191C244.09 224.007 244.094 222.839 244.098 221.687C244.754 221.689 245.418 221.692 246.09 221.694C246.762 221.696 247.418 221.699 248.058 221.701ZM250.769 234.118C250.779 231.222 250.79 228.302 250.8 225.358C250.81 222.414 250.82 219.494 250.83 216.598C251.486 216.601 252.15 216.603 252.822 216.605C253.494 216.608 254.15 216.61 254.79 216.612C254.78 219.508 254.77 222.428 254.76 225.372C254.75 228.316 254.739 231.236 254.729 234.132C254.089 234.13 253.433 234.128 252.761 234.125C252.089 234.123 251.425 234.121 250.769 234.118ZM274.525 229.377C274.521 230.449 274.246 231.376 273.699 232.158C273.168 232.94 272.43 233.545 271.485 233.974C270.539 234.387 269.443 234.591 268.195 234.587C267.027 234.583 265.987 234.395 265.077 234.024C264.182 233.637 263.472 233.09 262.946 232.385C262.437 231.663 262.184 230.814 262.187 229.838C262.19 229.038 262.368 228.303 262.723 227.632C263.093 226.961 263.647 226.387 264.385 225.909C263.794 225.459 263.356 224.938 263.07 224.345C262.8 223.736 262.667 223.072 262.669 222.352C262.673 221.296 262.956 220.417 263.518 219.714C264.097 219.012 264.867 218.487 265.828 218.138C266.789 217.79 267.854 217.609 269.022 217.598C270.19 217.57 271.373 217.71 272.572 218.018C272.57 218.658 272.568 219.306 272.566 219.962C272.563 220.618 272.561 221.274 272.559 221.93C271.887 221.736 271.208 221.597 270.52 221.515C269.848 221.432 269.232 221.422 268.672 221.484C268.112 221.546 267.656 221.681 267.303 221.888C266.966 222.094 266.797 222.39 266.796 222.774C266.794 223.27 267.129 223.615 267.8 223.809C268.472 223.988 269.399 224.079 270.583 224.083C270.584 223.795 270.585 223.507 270.586 223.219C270.587 222.915 270.588 222.619 270.589 222.331C271.245 222.333 271.909 222.336 272.581 222.338C273.253 222.34 273.909 222.343 274.549 222.345C274.548 222.633 274.547 222.929 274.546 223.233C274.545 223.521 274.544 223.809 274.543 224.097C274.783 224.098 275.031 224.098 275.287 224.099C275.543 224.1 275.791 224.101 276.031 224.102C276.029 224.694 276.027 225.286 276.025 225.878C276.023 226.47 276.021 227.062 276.019 227.654C275.779 227.653 275.531 227.652 275.275 227.651C275.019 227.65 274.771 227.65 274.531 227.649C274.53 227.937 274.529 228.225 274.528 228.513C274.527 228.801 274.526 229.089 274.525 229.377ZM266.389 229.252C266.388 229.716 266.554 230.109 266.889 230.43C267.24 230.735 267.728 230.889 268.352 230.891C269.024 230.894 269.56 230.735 269.961 230.417C270.362 230.082 270.564 229.619 270.566 229.027C270.567 228.803 270.568 228.571 270.568 228.331C270.569 228.091 270.57 227.859 270.571 227.635C269.259 227.63 268.235 227.723 267.498 227.912C266.761 228.102 266.392 228.548 266.389 229.252ZM293.464 233.69C292.358 234.151 291.261 234.435 290.173 234.543C289.085 234.651 288.053 234.584 287.078 234.34C286.118 234.113 285.264 233.718 284.514 233.155C283.764 232.593 283.174 231.879 282.745 231.013C282.332 230.148 282.128 229.147 282.132 228.011C282.135 227.067 282.29 226.204 282.597 225.421C282.919 224.622 283.37 223.927 283.948 223.337C284.526 222.731 285.208 222.27 285.993 221.952C286.778 221.619 287.634 221.454 288.562 221.457C289.394 221.46 290.146 221.599 290.817 221.873C291.488 222.148 292.071 222.534 292.565 223.031C293.059 223.513 293.457 224.09 293.759 224.763C294.061 225.437 294.25 226.173 294.327 226.973C294.405 227.774 294.354 228.622 294.174 229.517C292.862 229.512 291.542 229.508 290.214 229.503C288.886 229.499 287.567 229.494 286.255 229.489C286.556 230.098 287.059 230.532 287.762 230.791C288.481 231.049 289.329 231.132 290.305 231.04C291.297 230.947 292.354 230.695 293.476 230.283C293.474 230.843 293.472 231.411 293.47 231.987C293.468 232.563 293.466 233.13 293.464 233.69ZM288.454 225.009C287.99 225.007 287.558 225.134 287.157 225.389C286.772 225.643 286.475 226.034 286.265 226.561C286.985 226.564 287.705 226.566 288.425 226.569C289.161 226.572 289.889 226.574 290.609 226.577C290.419 226.032 290.132 225.639 289.749 225.398C289.382 225.14 288.95 225.011 288.454 225.009ZM295.2 221.864C295.936 221.867 296.672 221.87 297.408 221.872C298.144 221.875 298.88 221.877 299.616 221.88C299.902 222.361 300.196 222.85 300.499 223.347C300.801 223.828 301.095 224.309 301.382 224.79C301.687 224.311 301.993 223.832 302.299 223.353C302.604 222.858 302.91 222.371 303.216 221.892C303.936 221.895 304.664 221.897 305.4 221.9C306.136 221.902 306.864 221.905 307.584 221.907C306.956 222.881 306.313 223.863 305.654 224.853C305.01 225.843 304.375 226.832 303.747 227.822C304.399 228.896 305.06 229.979 305.728 231.069C306.396 232.159 307.048 233.242 307.685 234.316C306.949 234.313 306.213 234.311 305.477 234.308C304.741 234.306 304.005 234.303 303.269 234.301C302.951 233.755 302.625 233.21 302.29 232.665C301.972 232.104 301.654 231.551 301.336 231.006C301.014 231.549 300.676 232.1 300.322 232.658C299.985 233.201 299.655 233.744 299.333 234.287C298.613 234.284 297.885 234.282 297.149 234.279C296.413 234.277 295.685 234.274 294.965 234.272C295.624 233.234 296.292 232.18 296.968 231.111C297.644 230.025 298.311 228.963 298.971 227.926C298.35 226.931 297.722 225.921 297.085 224.895C296.449 223.869 295.82 222.859 295.2 221.864ZM308.006 228.101C308.011 226.885 308.262 225.822 308.762 224.912C309.261 223.985 309.951 223.244 310.833 222.687C311.715 222.13 312.74 221.797 313.909 221.689C315.077 221.565 316.325 221.706 317.651 222.11C317.649 222.718 317.647 223.334 317.645 223.958C317.643 224.582 317.641 225.198 317.638 225.806C316.712 225.355 315.825 225.144 314.977 225.173C314.129 225.202 313.432 225.464 312.886 225.958C312.34 226.436 312.066 227.155 312.062 228.115C312.059 229.075 312.329 229.804 312.871 230.302C313.413 230.784 314.108 231.042 314.956 231.077C315.804 231.096 316.693 230.891 317.622 230.462C317.62 231.07 317.618 231.686 317.616 232.31C317.614 232.934 317.612 233.55 317.609 234.158C316.28 234.554 315.032 234.685 313.864 234.553C312.696 234.437 311.674 234.098 310.796 233.535C309.918 232.972 309.232 232.233 308.739 231.32C308.247 230.39 308.002 229.317 308.006 228.101ZM322.231 220.542C321.767 220.541 321.343 220.427 320.96 220.202C320.593 219.977 320.298 219.68 320.075 219.311C319.852 218.942 319.742 218.534 319.743 218.086C319.745 217.638 319.858 217.238 320.084 216.887C320.309 216.52 320.606 216.225 320.975 216.002C321.359 215.779 321.784 215.669 322.248 215.67C322.696 215.672 323.103 215.785 323.471 216.011C323.854 216.236 324.157 216.533 324.38 216.902C324.602 217.254 324.713 217.655 324.711 218.103C324.71 218.551 324.596 218.958 324.371 219.326C324.146 219.693 323.841 219.988 323.456 220.211C323.087 220.433 322.679 220.544 322.231 220.542ZM320.191 234.359C320.198 232.311 320.205 230.247 320.212 228.167C320.22 226.071 320.227 223.999 320.234 221.951C320.89 221.954 321.554 221.956 322.226 221.958C322.898 221.961 323.554 221.963 324.194 221.965C324.187 224.013 324.18 226.085 324.172 228.181C324.165 230.261 324.158 232.325 324.151 234.373C323.511 234.371 322.855 234.369 322.183 234.366C321.511 234.364 320.847 234.362 320.191 234.359ZM328.211 234.387C328.216 232.915 328.221 231.435 328.226 229.947C328.231 228.459 328.236 226.987 328.241 225.531C327.921 225.53 327.593 225.529 327.257 225.528C326.937 225.527 326.617 225.526 326.297 225.524C326.299 224.932 326.301 224.34 326.303 223.748C326.306 223.156 326.308 222.564 326.31 221.972C326.63 221.974 326.95 221.975 327.27 221.976C327.606 221.977 327.934 221.978 328.254 221.979C328.256 221.419 328.258 220.867 328.259 220.323C328.261 219.763 328.263 219.211 328.265 218.667C328.921 218.669 329.585 218.672 330.257 218.674C330.929 218.676 331.585 218.679 332.225 218.681C332.223 219.225 332.221 219.777 332.219 220.337C332.217 220.881 332.216 221.433 332.214 221.993C332.582 221.994 332.958 221.996 333.342 221.997C333.726 221.998 334.102 221.999 334.47 222.001C334.468 222.593 334.466 223.185 334.463 223.777C334.461 224.369 334.459 224.961 334.457 225.553C334.089 225.551 333.713 225.55 333.329 225.549C332.945 225.548 332.569 225.546 332.201 225.545C332.196 227.001 332.191 228.473 332.186 229.961C332.181 231.449 332.176 232.929 332.171 234.401C331.531 234.399 330.875 234.396 330.203 234.394C329.531 234.392 328.867 234.389 328.211 234.387ZM346.901 233.876C345.796 234.336 344.699 234.62 343.61 234.729C342.522 234.837 341.49 234.769 340.515 234.526C339.556 234.299 338.701 233.904 337.951 233.341C337.201 232.778 336.611 232.064 336.182 231.199C335.769 230.333 335.565 229.333 335.569 228.197C335.572 227.253 335.727 226.389 336.034 225.606C336.357 224.807 336.807 224.113 337.385 223.523C337.963 222.917 338.645 222.455 339.43 222.138C340.215 221.805 341.072 221.64 342 221.643C342.832 221.646 343.583 221.784 344.254 222.059C344.925 222.333 345.508 222.719 346.002 223.217C346.496 223.699 346.894 224.276 347.196 224.949C347.498 225.622 347.687 226.359 347.764 227.159C347.842 227.959 347.791 228.807 347.612 229.702C346.3 229.698 344.98 229.693 343.652 229.689C342.324 229.684 341.004 229.68 339.692 229.675C339.994 230.284 340.496 230.718 341.199 230.976C341.918 231.235 342.766 231.318 343.742 231.225C344.735 231.132 345.792 230.88 346.913 230.468C346.911 231.028 346.909 231.596 346.907 232.172C346.905 232.748 346.903 233.316 346.901 233.876ZM341.891 225.195C341.427 225.193 340.995 225.319 340.594 225.574C340.209 225.829 339.912 226.22 339.702 226.747C340.422 226.749 341.142 226.752 341.862 226.754C342.598 226.757 343.326 226.76 344.046 226.762C343.856 226.217 343.569 225.824 343.186 225.583C342.819 225.326 342.387 225.196 341.891 225.195ZM358.116 234.491C358.117 234.363 358.117 234.243 358.118 234.131C358.118 234.003 358.118 233.883 358.119 233.771C357.718 234.106 357.261 234.36 356.748 234.534C356.251 234.724 355.715 234.819 355.139 234.817C354.323 234.814 353.556 234.651 352.837 234.329C352.118 234.006 351.479 233.556 350.921 232.978C350.38 232.384 349.95 231.687 349.633 230.885C349.332 230.084 349.183 229.204 349.186 228.244C349.189 227.268 349.344 226.38 349.651 225.581C349.974 224.783 350.408 224.096 350.954 223.522C351.516 222.948 352.158 222.51 352.879 222.209C353.6 221.891 354.361 221.734 355.161 221.737C355.737 221.739 356.28 221.836 356.792 222.03C357.303 222.208 357.758 222.458 358.157 222.779C358.16 221.819 358.164 220.851 358.167 219.875C358.17 218.899 358.174 217.931 358.177 216.971C358.833 216.973 359.497 216.976 360.169 216.978C360.841 216.98 361.497 216.983 362.137 216.985C362.127 219.881 362.117 222.801 362.107 225.745C362.096 228.689 362.086 231.609 362.076 234.505C361.436 234.502 360.78 234.5 360.108 234.498C359.436 234.496 358.772 234.493 358.116 234.491ZM355.679 231.314C356.447 231.317 357.064 231.039 357.53 230.481C357.996 229.922 358.231 229.187 358.234 228.275C358.237 227.363 358.008 226.635 357.545 226.089C357.083 225.527 356.468 225.245 355.7 225.242C354.916 225.24 354.291 225.51 353.826 226.052C353.376 226.594 353.149 227.33 353.146 228.258C353.143 229.186 353.364 229.93 353.81 230.492C354.272 231.038 354.895 231.312 355.679 231.314Z" fill="#2F4ECD"/>
<path d="M174.444 282.206C173.276 282.202 172.196 281.99 171.206 281.57C170.215 281.135 169.361 280.532 168.644 279.762C167.927 278.991 167.37 278.085 166.973 277.044C166.577 275.986 166.381 274.842 166.385 273.61C166.39 272.378 166.594 271.242 166.997 270.204C167.401 269.165 167.964 268.271 168.686 267.522C169.409 266.756 170.267 266.167 171.261 265.755C172.254 265.326 173.335 265.114 174.503 265.118C175.671 265.122 176.742 265.342 177.717 265.777C178.707 266.196 179.561 266.791 180.278 267.562C181.012 268.316 181.577 269.214 181.973 270.256C182.369 271.297 182.565 272.434 182.561 273.666C182.557 274.898 182.353 276.041 181.949 277.096C181.546 278.134 180.975 279.036 180.236 279.802C179.513 280.567 178.655 281.164 177.662 281.593C176.684 282.005 175.611 282.21 174.444 282.206ZM174.457 278.318C175.241 278.32 175.914 278.131 176.475 277.749C177.036 277.351 177.47 276.8 177.777 276.097C178.099 275.394 178.262 274.579 178.265 273.651C178.268 272.723 178.111 271.914 177.794 271.225C177.492 270.536 177.062 269.999 176.503 269.613C175.945 269.211 175.273 269.008 174.489 269.006C173.721 269.003 173.049 269.193 172.471 269.575C171.91 269.957 171.468 270.499 171.146 271.202C170.839 271.889 170.684 272.697 170.681 273.625C170.678 274.553 170.827 275.369 171.129 276.074C171.446 276.779 171.884 277.333 172.443 277.735C173.018 278.121 173.689 278.315 174.457 278.318ZM184.605 281.857C184.612 279.809 184.619 277.745 184.626 275.665C184.633 273.569 184.641 271.497 184.648 269.449C185.304 269.451 185.968 269.454 186.64 269.456C187.312 269.458 187.968 269.461 188.608 269.463C188.607 269.575 188.607 269.687 188.607 269.799C188.606 269.911 188.606 270.023 188.605 270.135C189.103 269.784 189.664 269.522 190.288 269.349C190.913 269.175 191.593 269.129 192.329 269.212C192.326 269.852 192.324 270.5 192.322 271.156C192.32 271.812 192.317 272.46 192.315 273.1C191.052 272.919 190.115 273.028 189.506 273.426C188.897 273.808 188.59 274.439 188.587 275.319C188.584 276.391 188.58 277.479 188.576 278.583C188.572 279.687 188.568 280.783 188.565 281.871C187.925 281.868 187.269 281.866 186.597 281.864C185.925 281.862 185.261 281.859 184.605 281.857ZM202.236 281.918C202.237 281.79 202.237 281.67 202.237 281.558C202.238 281.43 202.238 281.31 202.239 281.198C201.837 281.533 201.381 281.787 200.868 281.961C200.371 282.152 199.835 282.246 199.259 282.244C198.443 282.241 197.675 282.086 196.957 281.78C196.238 281.457 195.599 281.007 195.041 280.429C194.499 279.835 194.07 279.138 193.752 278.337C193.451 277.536 193.302 276.647 193.306 275.671C193.309 274.679 193.464 273.784 193.771 272.985C194.094 272.186 194.528 271.507 195.074 270.949C195.636 270.375 196.278 269.937 196.999 269.636C197.72 269.318 198.48 269.161 199.28 269.164C199.856 269.166 200.4 269.264 200.911 269.457C201.423 269.635 201.878 269.885 202.277 270.206C202.277 270.078 202.278 269.958 202.278 269.846C202.278 269.734 202.279 269.622 202.279 269.51C202.935 269.512 203.599 269.515 204.271 269.517C204.943 269.519 205.599 269.522 206.239 269.524C206.232 271.572 206.225 273.644 206.218 275.74C206.21 277.82 206.203 279.884 206.196 281.932C205.556 281.93 204.9 281.927 204.228 281.925C203.556 281.923 202.892 281.92 202.236 281.918ZM199.799 278.742C200.567 278.744 201.184 278.466 201.65 277.908C202.116 277.35 202.351 276.615 202.354 275.703C202.357 274.791 202.127 274.062 201.665 273.516C201.203 272.954 200.588 272.672 199.82 272.67C199.036 272.667 198.411 272.937 197.945 273.479C197.495 274.022 197.269 274.757 197.266 275.685C197.262 276.613 197.484 277.358 197.93 277.919C198.392 278.465 199.015 278.739 199.799 278.742ZM208.839 281.941C208.846 279.893 208.853 277.829 208.86 275.749C208.868 273.653 208.875 271.581 208.882 269.533C209.538 269.535 210.202 269.538 210.874 269.54C211.546 269.542 212.202 269.545 212.842 269.547C212.842 269.659 212.841 269.763 212.841 269.859C212.841 269.955 212.84 270.059 212.84 270.171C213.273 269.868 213.754 269.638 214.282 269.48C214.827 269.306 215.411 269.22 216.035 269.222C216.947 269.225 217.746 269.436 218.433 269.854C219.135 270.273 219.677 270.875 220.059 271.66C220.456 272.429 220.653 273.358 220.649 274.446C220.645 275.694 220.64 276.95 220.636 278.214C220.632 279.478 220.627 280.734 220.623 281.982C219.983 281.98 219.327 281.977 218.655 281.975C217.983 281.973 217.319 281.97 216.663 281.968C216.667 280.816 216.671 279.648 216.675 278.464C216.679 277.28 216.683 276.112 216.687 274.96C216.689 274.32 216.539 273.808 216.236 273.423C215.95 273.022 215.487 272.82 214.847 272.818C214.207 272.816 213.71 272.998 213.357 273.365C213.003 273.731 212.826 274.259 212.823 274.947C212.819 276.099 212.815 277.267 212.811 278.451C212.807 279.635 212.803 280.803 212.799 281.955C212.159 281.953 211.503 281.95 210.831 281.948C210.159 281.946 209.495 281.943 208.839 281.941ZM234.736 280.015C234.732 281.375 234.432 282.51 233.836 283.42C233.257 284.33 232.463 285.007 231.453 285.452C230.444 285.912 229.291 286.148 227.995 286.16C226.715 286.171 225.364 285.974 223.941 285.57C223.943 284.946 223.945 284.314 223.948 283.674C223.95 283.05 223.952 282.426 223.954 281.802C225.216 282.302 226.359 282.554 227.383 282.557C228.407 282.577 229.216 282.388 229.809 281.99C230.419 281.576 230.725 281.009 230.727 280.289C230.728 280.209 230.728 280.137 230.728 280.073C230.728 279.993 230.729 279.921 230.729 279.857C230.328 280.16 229.863 280.398 229.334 280.572C228.806 280.746 228.237 280.832 227.629 280.83C226.621 280.827 225.718 280.592 224.92 280.125C224.138 279.642 223.524 278.984 223.079 278.15C222.634 277.301 222.413 276.316 222.417 275.196C222.42 274.332 222.567 273.541 222.857 272.822C223.148 272.103 223.55 271.48 224.064 270.954C224.578 270.428 225.163 270.03 225.82 269.76C226.477 269.474 227.165 269.333 227.885 269.335C228.461 269.337 228.997 269.419 229.492 269.581C229.988 269.742 230.427 269.96 230.81 270.233C230.811 270.121 230.811 270.017 230.811 269.921C230.812 269.825 230.812 269.721 230.812 269.609C231.468 269.612 232.132 269.614 232.804 269.616C233.476 269.619 234.132 269.621 234.772 269.623C234.766 271.335 234.76 273.071 234.754 274.831C234.748 276.575 234.742 278.303 234.736 280.015ZM228.625 277.402C229.297 277.404 229.834 277.198 230.235 276.783C230.653 276.353 230.863 275.801 230.865 275.129C230.868 274.441 230.662 273.881 230.247 273.447C229.849 273.014 229.313 272.796 228.641 272.794C227.937 272.791 227.377 273.005 226.959 273.436C226.542 273.85 226.332 274.41 226.329 275.114C226.327 275.802 226.533 276.354 226.947 276.772C227.362 277.189 227.921 277.399 228.625 277.402ZM248.044 281.501C246.938 281.961 245.841 282.246 244.753 282.354C243.665 282.462 242.633 282.394 241.658 282.151C240.699 281.924 239.844 281.529 239.094 280.966C238.344 280.403 237.754 279.689 237.325 278.824C236.912 277.958 236.708 276.958 236.712 275.822C236.715 274.878 236.87 274.014 237.177 273.231C237.499 272.432 237.95 271.738 238.528 271.148C239.106 270.542 239.788 270.08 240.573 269.763C241.358 269.43 242.215 269.265 243.143 269.268C243.975 269.271 244.726 269.41 245.397 269.684C246.068 269.958 246.651 270.344 247.145 270.842C247.639 271.324 248.037 271.901 248.339 272.574C248.641 273.247 248.83 273.984 248.907 274.784C248.985 275.584 248.934 276.432 248.755 277.328C247.443 277.323 246.123 277.318 244.795 277.314C243.467 277.309 242.147 277.305 240.835 277.3C241.137 277.909 241.639 278.343 242.342 278.601C243.061 278.86 243.909 278.943 244.885 278.85C245.878 278.758 246.934 278.505 248.056 278.093C248.054 278.653 248.052 279.221 248.05 279.797C248.048 280.373 248.046 280.941 248.044 281.501ZM243.034 272.82C242.57 272.818 242.138 272.945 241.737 273.199C241.352 273.454 241.055 273.845 240.845 274.372C241.565 274.375 242.285 274.377 243.005 274.38C243.741 274.382 244.469 274.385 245.189 274.387C244.999 273.843 244.712 273.45 244.329 273.208C243.962 272.951 243.53 272.821 243.034 272.82Z" fill="#2F4ECD"/>
<path d="M166.206 327.955C166.216 325.267 166.225 322.547 166.235 319.795C166.244 317.043 166.254 314.323 166.263 311.635C167.223 311.639 168.183 311.642 169.143 311.645C170.119 311.649 171.087 311.652 172.047 311.655C173.263 311.66 174.326 311.895 175.237 312.362C176.147 312.814 176.849 313.456 177.342 314.29C177.851 315.108 178.104 316.068 178.1 317.172C178.097 318.116 177.902 318.956 177.515 319.69C177.129 320.425 176.606 321.023 175.949 321.485C176.585 322.559 177.221 323.649 177.858 324.756C178.51 325.846 179.154 326.928 179.79 328.002C179.006 328 178.222 327.997 177.438 327.994C176.654 327.991 175.87 327.989 175.086 327.986C174.593 327.088 174.093 326.175 173.584 325.245C173.091 324.315 172.59 323.401 172.081 322.504C171.809 322.503 171.529 322.502 171.241 322.501C170.969 322.5 170.697 322.499 170.425 322.498C170.422 323.394 170.419 324.306 170.416 325.234C170.413 326.162 170.409 327.074 170.406 327.97C169.718 327.967 169.022 327.965 168.318 327.963C167.614 327.96 166.91 327.958 166.206 327.955ZM172.034 315.447C171.778 315.446 171.514 315.446 171.242 315.445C170.986 315.444 170.722 315.443 170.45 315.442C170.448 316.034 170.446 316.626 170.444 317.218C170.442 317.81 170.44 318.402 170.437 318.994C170.741 318.995 171.045 318.996 171.349 318.997C171.653 318.998 171.957 318.999 172.261 319C172.741 319.002 173.134 318.835 173.439 318.5C173.744 318.149 173.898 317.726 173.9 317.23C173.901 316.718 173.735 316.293 173.4 315.956C173.081 315.619 172.626 315.449 172.034 315.447ZM192.982 323.224C192.979 324.296 192.703 325.223 192.157 326.005C191.626 326.787 190.888 327.393 189.942 327.822C188.997 328.234 187.9 328.439 186.652 328.434C185.484 328.43 184.445 328.243 183.534 327.871C182.639 327.484 181.929 326.938 181.404 326.232C180.894 325.51 180.641 324.661 180.645 323.685C180.647 322.885 180.826 322.15 181.18 321.479C181.551 320.808 182.105 320.234 182.842 319.757C182.252 319.307 181.814 318.785 181.528 318.192C181.258 317.583 181.124 316.919 181.127 316.199C181.13 315.143 181.413 314.264 181.976 313.562C182.554 312.86 183.324 312.335 184.285 311.986C185.247 311.637 186.311 311.457 187.479 311.445C188.647 311.417 189.831 311.557 191.03 311.865C191.028 312.505 191.025 313.153 191.023 313.809C191.021 314.465 191.018 315.121 191.016 315.777C190.345 315.583 189.665 315.445 188.978 315.362C188.306 315.28 187.69 315.27 187.13 315.332C186.569 315.394 186.113 315.528 185.76 315.735C185.424 315.942 185.255 316.237 185.253 316.621C185.252 317.117 185.586 317.462 186.258 317.657C186.929 317.835 187.857 317.926 189.041 317.93C189.042 317.642 189.043 317.354 189.044 317.066C189.045 316.762 189.046 316.466 189.047 316.178C189.703 316.181 190.367 316.183 191.039 316.185C191.711 316.188 192.367 316.19 193.007 316.192C193.006 316.48 193.005 316.776 193.004 317.08C193.003 317.368 193.002 317.656 193.001 317.944C193.241 317.945 193.489 317.946 193.745 317.947C194.001 317.948 194.249 317.949 194.489 317.949C194.487 318.541 194.485 319.133 194.483 319.725C194.48 320.317 194.478 320.909 194.476 321.501C194.236 321.5 193.988 321.5 193.732 321.499C193.476 321.498 193.228 321.497 192.988 321.496C192.987 321.784 192.986 322.072 192.985 322.36C192.984 322.648 192.983 322.936 192.982 323.224ZM184.847 323.1C184.845 323.564 185.012 323.956 185.347 324.278C185.698 324.583 186.185 324.737 186.809 324.739C187.481 324.741 188.018 324.583 188.419 324.264C188.82 323.93 189.021 323.466 189.024 322.874C189.024 322.65 189.025 322.418 189.026 322.178C189.027 321.938 189.028 321.706 189.028 321.482C187.716 321.478 186.692 321.57 185.955 321.76C185.219 321.949 184.849 322.396 184.847 323.1ZM196.441 328.06C196.45 325.372 196.459 322.652 196.469 319.9C196.478 317.148 196.488 314.428 196.497 311.74C197.489 311.744 198.481 311.747 199.473 311.751C200.481 311.754 201.473 311.758 202.449 311.761C203.553 311.765 204.52 311.968 205.351 312.371C206.182 312.758 206.828 313.304 207.289 314.01C207.751 314.699 207.98 315.516 207.977 316.46C207.975 317.132 207.844 317.74 207.587 318.283C207.329 318.826 206.943 319.281 206.43 319.647C207.1 320.049 207.611 320.571 207.96 321.212C208.31 321.837 208.484 322.534 208.481 323.302C208.478 324.262 208.227 325.101 207.728 325.819C207.246 326.538 206.564 327.095 205.683 327.492C204.817 327.889 203.8 328.086 202.632 328.082C201.608 328.078 200.576 328.075 199.537 328.071C198.497 328.067 197.465 328.064 196.441 328.06ZM203.775 316.854C203.777 316.438 203.65 316.101 203.395 315.844C203.14 315.571 202.804 315.434 202.388 315.433C202.1 315.432 201.804 315.431 201.5 315.43C201.212 315.429 200.924 315.428 200.636 315.427C200.635 315.875 200.633 316.339 200.632 316.819C200.63 317.283 200.628 317.747 200.627 318.211C200.915 318.212 201.203 318.213 201.491 318.214C201.795 318.215 202.091 318.216 202.379 318.217C202.795 318.218 203.131 318.099 203.388 317.86C203.645 317.605 203.774 317.27 203.775 316.854ZM204.282 322.903C204.284 322.455 204.133 322.103 203.83 321.846C203.543 321.573 203.144 321.435 202.632 321.434C202.296 321.432 201.96 321.431 201.624 321.43C201.288 321.429 200.952 321.428 200.616 321.427C200.614 321.923 200.612 322.419 200.61 322.915C200.609 323.411 200.607 323.907 200.605 324.403C200.941 324.404 201.277 324.405 201.613 324.406C201.949 324.407 202.285 324.408 202.621 324.41C203.133 324.411 203.534 324.277 203.823 324.006C204.128 323.735 204.281 323.367 204.282 322.903Z" fill="#2F4ECD"/>
<path d="M164.661 374.934C165.502 372.249 166.344 369.532 167.185 366.783C168.043 364.034 168.892 361.317 169.734 358.632C170.678 358.635 171.63 358.639 172.59 358.642C173.566 358.645 174.526 358.649 175.47 358.652C176.292 361.343 177.115 364.066 177.937 366.82C178.776 369.575 179.606 372.298 180.429 374.989C179.741 374.987 179.037 374.984 178.317 374.982C177.613 374.979 176.909 374.977 176.205 374.975C176.047 374.462 175.896 373.949 175.754 373.437C175.612 372.908 175.462 372.388 175.304 371.875C174.392 371.872 173.472 371.869 172.544 371.866C171.632 371.863 170.72 371.859 169.808 371.856C169.646 372.368 169.492 372.887 169.346 373.415C169.201 373.926 169.047 374.438 168.885 374.949C168.197 374.947 167.493 374.944 166.773 374.942C166.069 374.939 165.365 374.937 164.661 374.934ZM170.876 368.284C171.436 368.286 171.996 368.288 172.556 368.29C173.132 368.292 173.7 368.294 174.26 368.296C173.991 367.351 173.715 366.398 173.43 365.437C173.145 364.476 172.869 363.523 172.6 362.578C172.325 363.521 172.033 364.472 171.726 365.431C171.435 366.39 171.151 367.341 170.876 368.284ZM181.104 368.775C181.108 367.559 181.36 366.496 181.859 365.586C182.358 364.66 183.049 363.918 183.931 363.361C184.813 362.804 185.838 362.472 187.006 362.364C188.175 362.24 189.422 362.38 190.749 362.785C190.747 363.393 190.745 364.009 190.742 364.633C190.74 365.257 190.738 365.873 190.736 366.481C189.809 366.03 188.922 365.819 188.074 365.848C187.226 365.877 186.529 366.138 185.983 366.632C185.438 367.111 185.163 367.83 185.16 368.79C185.157 369.75 185.426 370.478 185.968 370.976C186.511 371.458 187.206 371.717 188.054 371.752C188.902 371.771 189.79 371.566 190.72 371.137C190.718 371.745 190.716 372.361 190.713 372.985C190.711 373.609 190.709 374.225 190.707 374.833C189.378 375.228 188.129 375.36 186.962 375.228C185.794 375.112 184.771 374.772 183.893 374.209C183.015 373.646 182.33 372.908 181.837 371.994C181.344 371.064 181.1 369.991 181.104 368.775ZM192.401 368.815C192.405 367.599 192.657 366.536 193.156 365.625C193.655 364.699 194.346 363.957 195.228 363.4C196.109 362.844 197.135 362.511 198.303 362.403C199.471 362.279 200.719 362.42 202.046 362.824C202.043 363.432 202.041 364.048 202.039 364.672C202.037 365.296 202.035 365.912 202.033 366.52C201.106 366.069 200.219 365.858 199.371 365.887C198.523 365.916 197.826 366.178 197.28 366.672C196.735 367.15 196.46 367.869 196.457 368.829C196.453 369.789 196.723 370.518 197.265 371.016C197.807 371.497 198.503 371.756 199.35 371.791C200.198 371.81 201.087 371.605 202.017 371.176C202.014 371.784 202.012 372.4 202.01 373.024C202.008 373.648 202.006 374.264 202.004 374.872C200.674 375.267 199.426 375.399 198.258 375.267C197.091 375.151 196.068 374.811 195.19 374.248C194.312 373.685 193.626 372.947 193.134 372.033C192.641 371.104 192.396 370.031 192.401 368.815ZM215.03 374.533C213.924 374.993 212.827 375.278 211.739 375.386C210.651 375.494 209.619 375.427 208.644 375.183C207.684 374.956 206.83 374.561 206.08 373.998C205.33 373.436 204.74 372.722 204.311 371.856C203.898 370.991 203.694 369.99 203.698 368.854C203.701 367.91 203.856 367.046 204.163 366.264C204.485 365.465 204.936 364.77 205.514 364.18C206.092 363.574 206.773 363.113 207.559 362.795C208.344 362.462 209.2 362.297 210.128 362.3C210.96 362.303 211.712 362.442 212.383 362.716C213.054 362.99 213.637 363.376 214.131 363.874C214.625 364.356 215.023 364.933 215.325 365.606C215.627 366.279 215.816 367.016 215.893 367.816C215.97 368.617 215.919 369.464 215.74 370.36C214.428 370.355 213.108 370.351 211.78 370.346C210.452 370.341 209.132 370.337 207.82 370.332C208.122 370.941 208.625 371.375 209.328 371.633C210.047 371.892 210.895 371.975 211.871 371.882C212.863 371.79 213.92 371.537 215.042 371.125C215.04 371.685 215.038 372.253 215.036 372.829C215.034 373.405 215.032 373.973 215.03 374.533ZM210.02 365.852C209.556 365.85 209.124 365.977 208.723 366.231C208.338 366.486 208.04 366.877 207.831 367.404C208.551 367.407 209.271 367.409 209.991 367.412C210.727 367.414 211.455 367.417 212.175 367.419C211.984 366.875 211.698 366.482 211.315 366.24C210.948 365.983 210.516 365.854 210.02 365.852ZM217.965 375.119C217.972 373.071 217.979 371.008 217.987 368.928C217.994 366.832 218.001 364.76 218.008 362.712C218.664 362.714 219.328 362.716 220 362.718C220.672 362.721 221.328 362.723 221.968 362.725C221.968 362.837 221.967 362.941 221.967 363.037C221.967 363.133 221.966 363.237 221.966 363.349C222.399 363.047 222.88 362.816 223.408 362.658C223.953 362.484 224.537 362.398 225.161 362.4C226.073 362.404 226.873 362.614 227.559 363.033C228.262 363.451 228.804 364.053 229.185 364.838C229.582 365.608 229.779 366.536 229.775 367.624C229.771 368.872 229.766 370.128 229.762 371.392C229.758 372.656 229.753 373.912 229.749 375.16C229.109 375.158 228.453 375.156 227.781 375.154C227.109 375.151 226.445 375.149 225.789 375.147C225.793 373.995 225.797 372.827 225.801 371.643C225.805 370.459 225.809 369.291 225.813 368.139C225.816 367.499 225.665 366.986 225.363 366.601C225.076 366.2 224.613 365.998 223.973 365.996C223.333 365.994 222.836 366.176 222.483 366.543C222.13 366.91 221.952 367.437 221.949 368.125C221.945 369.277 221.941 370.445 221.937 371.629C221.933 372.813 221.929 373.981 221.925 375.133C221.285 375.131 220.629 375.129 219.957 375.126C219.285 375.124 218.621 375.122 217.965 375.119ZM233.488 375.173C233.493 373.701 233.498 372.221 233.503 370.733C233.508 369.245 233.513 367.773 233.518 366.317C233.198 366.316 232.87 366.315 232.534 366.314C232.214 366.313 231.894 366.312 231.574 366.311C231.576 365.719 231.578 365.127 231.58 364.535C231.582 363.943 231.585 363.351 231.587 362.759C231.907 362.76 232.227 362.761 232.547 362.762C232.883 362.763 233.211 362.764 233.531 362.765C233.533 362.205 233.534 361.653 233.536 361.109C233.538 360.549 233.54 359.997 233.542 359.453C234.198 359.456 234.862 359.458 235.534 359.46C236.206 359.463 236.862 359.465 237.502 359.467C237.5 360.011 237.498 360.563 237.496 361.123C237.494 361.667 237.493 362.219 237.491 362.779C237.859 362.78 238.235 362.782 238.619 362.783C239.003 362.784 239.379 362.786 239.747 362.787C239.744 363.379 239.742 363.971 239.74 364.563C239.738 365.155 239.736 365.747 239.734 366.339C239.366 366.338 238.99 366.336 238.606 366.335C238.222 366.334 237.846 366.332 237.478 366.331C237.473 367.787 237.468 369.259 237.463 370.747C237.458 372.235 237.453 373.715 237.447 375.187C236.807 375.185 236.151 375.183 235.479 375.18C234.808 375.178 234.144 375.176 233.488 375.173ZM251.107 371.395C251.103 372.386 250.82 373.202 250.258 373.84C249.712 374.462 248.974 374.915 248.045 375.2C247.116 375.485 246.076 375.601 244.924 375.549C243.788 375.513 242.629 375.325 241.446 374.985C241.448 374.377 241.45 373.753 241.453 373.113C241.455 372.473 241.457 371.849 241.459 371.241C242.13 371.547 242.801 371.79 243.473 371.968C244.144 372.13 244.752 372.228 245.296 372.262C245.839 372.296 246.28 372.258 246.616 372.147C246.952 372.02 247.121 371.813 247.122 371.525C247.123 371.301 246.98 371.124 246.692 370.995C246.42 370.866 246.061 370.753 245.613 370.655C245.166 370.542 244.686 370.412 244.174 370.266C243.679 370.105 243.208 369.887 242.761 369.614C242.314 369.324 241.947 368.947 241.661 368.482C241.39 368.001 241.256 367.384 241.259 366.632C241.262 365.736 241.521 364.977 242.035 364.355C242.565 363.717 243.271 363.239 244.152 362.922C245.033 362.589 246.018 362.425 247.106 362.429C248.194 362.432 249.305 362.62 250.44 362.992C250.438 363.6 250.435 364.224 250.433 364.864C250.431 365.504 250.429 366.128 250.427 366.736C249.532 366.301 248.693 366.01 247.91 365.863C247.126 365.717 246.494 365.698 246.014 365.809C245.534 365.903 245.293 366.118 245.292 366.454C245.291 366.678 245.426 366.855 245.698 366.984C245.985 367.097 246.345 367.202 246.777 367.299C247.224 367.397 247.696 367.527 248.191 367.688C248.703 367.85 249.174 368.076 249.605 368.365C250.052 368.639 250.411 369.024 250.681 369.521C250.967 370.002 251.109 370.627 251.107 371.395ZM263.922 375.663C262.994 375.66 262.13 375.497 261.331 375.174C260.532 374.835 259.838 374.369 259.248 373.775C258.658 373.165 258.197 372.459 257.863 371.658C257.546 370.857 257.389 369.984 257.393 369.04C257.396 368.096 257.559 367.225 257.882 366.426C258.22 365.627 258.687 364.933 259.281 364.343C259.875 363.753 260.572 363.299 261.374 362.982C262.175 362.649 263.039 362.484 263.967 362.487C264.911 362.49 265.775 362.661 266.558 363C267.356 363.323 268.051 363.781 268.641 364.375C269.231 364.969 269.684 365.667 270.002 366.468C270.335 367.269 270.5 368.142 270.496 369.086C270.493 370.03 270.322 370.901 269.983 371.7C269.661 372.499 269.202 373.201 268.608 373.807C268.014 374.397 267.316 374.859 266.515 375.192C265.73 375.509 264.866 375.666 263.922 375.663ZM263.934 372.087C264.718 372.09 265.343 371.812 265.809 371.254C266.291 370.679 266.533 369.952 266.536 369.072C266.54 368.176 266.302 367.455 265.824 366.91C265.362 366.348 264.739 366.066 263.955 366.063C263.171 366.06 262.538 366.338 262.056 366.896C261.59 367.439 261.356 368.158 261.352 369.054C261.349 369.934 261.579 370.663 262.041 371.24C262.519 371.802 263.15 372.084 263.934 372.087ZM272.433 375.309C272.441 373.261 272.448 371.197 272.455 369.117C272.462 367.021 272.469 364.949 272.477 362.901C273.133 362.903 273.797 362.905 274.469 362.908C275.141 362.91 275.797 362.912 276.437 362.914C276.436 363.026 276.436 363.13 276.435 363.226C276.435 363.322 276.435 363.426 276.434 363.538C276.867 363.236 277.348 363.006 277.877 362.847C278.421 362.673 279.006 362.587 279.63 362.589C280.542 362.593 281.341 362.803 282.027 363.222C282.73 363.64 283.272 364.242 283.653 365.027C284.051 365.797 284.247 366.726 284.244 367.814C284.239 369.062 284.235 370.318 284.23 371.581C284.226 372.845 284.222 374.101 284.217 375.349C283.577 375.347 282.921 375.345 282.249 375.343C281.577 375.34 280.913 375.338 280.257 375.336C280.261 374.184 280.265 373.016 280.27 371.832C280.274 370.648 280.278 369.48 280.282 368.328C280.284 367.688 280.134 367.175 279.831 366.79C279.544 366.389 279.081 366.188 278.441 366.185C277.801 366.183 277.305 366.365 276.951 366.732C276.598 367.099 276.42 367.626 276.418 368.314C276.414 369.466 276.41 370.634 276.406 371.818C276.401 373.002 276.397 374.17 276.393 375.322C275.753 375.32 275.097 375.318 274.425 375.315C273.753 375.313 273.089 375.311 272.433 375.309ZM291.507 375.375C291.509 374.751 291.511 374.119 291.514 373.479C291.516 372.823 291.518 372.183 291.52 371.559C292.162 370.953 292.804 370.339 293.447 369.717C294.089 369.08 294.731 368.458 295.373 367.852C296.112 367.135 296.674 366.561 297.059 366.13C297.445 365.683 297.71 365.308 297.855 365.005C298.016 364.701 298.097 364.422 298.098 364.166C298.1 363.638 297.797 363.261 297.19 363.034C296.583 362.792 295.799 362.718 294.839 362.81C293.878 362.903 292.853 363.163 291.764 363.592C291.766 362.936 291.768 362.272 291.771 361.6C291.773 360.912 291.776 360.24 291.778 359.584C293.38 359.061 294.829 358.802 296.125 358.807C297.437 358.811 298.556 359.031 299.482 359.466C300.425 359.886 301.143 360.472 301.636 361.226C302.146 361.98 302.399 362.853 302.395 363.845C302.392 364.837 302.124 365.772 301.593 366.65C301.062 367.512 300.251 368.469 299.159 369.521C298.806 369.856 298.453 370.199 298.1 370.55C297.747 370.9 297.393 371.243 297.04 371.578C297.904 371.581 298.768 371.584 299.632 371.587C300.512 371.59 301.384 371.593 302.248 371.596C302.246 372.22 302.244 372.86 302.241 373.516C302.239 374.156 302.237 374.788 302.235 375.412C300.459 375.406 298.667 375.4 296.859 375.393C295.067 375.387 293.283 375.381 291.507 375.375ZM316.559 370.638C316.555 371.71 316.28 372.637 315.733 373.419C315.202 374.201 314.464 374.806 313.519 375.235C312.573 375.648 311.477 375.852 310.229 375.848C309.061 375.844 308.021 375.656 307.111 375.285C306.216 374.898 305.506 374.351 304.98 373.646C304.471 372.924 304.218 372.075 304.221 371.099C304.224 370.299 304.402 369.564 304.757 368.893C305.127 368.222 305.681 367.648 306.419 367.17C305.828 366.72 305.39 366.199 305.104 365.606C304.834 364.997 304.701 364.333 304.703 363.613C304.707 362.557 304.99 361.678 305.552 360.975C306.131 360.273 306.901 359.748 307.862 359.399C308.823 359.051 309.888 358.87 311.056 358.859C312.224 358.831 313.407 358.971 314.606 359.279C314.604 359.919 314.602 360.567 314.599 361.223C314.597 361.879 314.595 362.535 314.593 363.191C313.921 362.997 313.242 362.858 312.554 362.776C311.882 362.693 311.266 362.683 310.706 362.745C310.146 362.807 309.689 362.942 309.337 363.149C309 363.355 308.831 363.651 308.83 364.035C308.828 364.531 309.163 364.876 309.834 365.07C310.505 365.249 311.433 365.34 312.617 365.344C312.618 365.056 312.619 364.768 312.62 364.48C312.621 364.176 312.622 363.88 312.623 363.592C313.279 363.594 313.943 363.597 314.615 363.599C315.287 363.601 315.943 363.604 316.583 363.606C316.582 363.894 316.581 364.19 316.58 364.494C316.579 364.782 316.578 365.07 316.577 365.358C316.817 365.359 317.065 365.359 317.321 365.36C317.577 365.361 317.825 365.362 318.065 365.363C318.063 365.955 318.061 366.547 318.059 367.139C318.057 367.731 318.055 368.323 318.053 368.915C317.813 368.914 317.565 368.913 317.309 368.912C317.053 368.911 316.805 368.911 316.565 368.91C316.564 369.198 316.563 369.486 316.562 369.774C316.561 370.062 316.56 370.35 316.559 370.638ZM308.423 370.513C308.422 370.977 308.588 371.37 308.923 371.691C309.274 371.996 309.761 372.15 310.385 372.152C311.057 372.155 311.594 371.996 311.995 371.678C312.396 371.343 312.598 370.88 312.6 370.288C312.601 370.064 312.602 369.832 312.602 369.592C312.603 369.352 312.604 369.12 312.605 368.896C311.293 368.891 310.268 368.984 309.532 369.173C308.795 369.363 308.426 369.809 308.423 370.513ZM319.068 372.374C319.07 371.75 319.072 371.118 319.074 370.478C319.077 369.822 319.079 369.182 319.081 368.558C319.886 367.009 320.7 365.444 321.521 363.863C322.343 362.282 323.148 360.717 323.938 359.167C324.962 359.171 325.986 359.174 327.01 359.178C328.05 359.182 329.082 359.185 330.106 359.189C330.1 360.741 330.095 362.309 330.089 363.893C330.084 365.477 330.078 367.045 330.073 368.597C330.441 368.598 330.817 368.599 331.201 368.601C331.601 368.602 331.985 368.603 332.353 368.605C332.351 369.229 332.348 369.869 332.346 370.525C332.344 371.165 332.342 371.797 332.34 372.421C331.972 372.419 331.588 372.418 331.188 372.417C330.804 372.415 330.428 372.414 330.06 372.413C330.058 372.925 330.056 373.445 330.054 373.973C330.052 374.485 330.051 374.997 330.049 375.509C329.377 375.506 328.689 375.504 327.985 375.501C327.297 375.499 326.617 375.497 325.945 375.494C325.947 374.982 325.948 374.47 325.95 373.958C325.952 373.43 325.954 372.91 325.956 372.398C324.82 372.394 323.668 372.39 322.5 372.386C321.348 372.382 320.204 372.378 319.068 372.374ZM323.401 368.573C323.817 368.575 324.241 368.576 324.673 368.578C325.121 368.579 325.553 368.581 325.969 368.582C325.972 367.686 325.975 366.774 325.978 365.846C325.982 364.918 325.985 364.006 325.988 363.11C325.569 364.005 325.134 364.915 324.682 365.842C324.247 366.768 323.82 367.679 323.401 368.573Z" fill="#2F4ECD"/>
</svg>
