<svg width="611" height="689" viewBox="0 0 611 689" fill="none" xmlns="http://www.w3.org/2000/svg">
<rect x="200.259" y="70.0381" width="38.8501" height="61.3104" transform="rotate(25.8168 200.259 70.0381)" fill="#6697DC"/>
<rect x="372.232" y="70.3773" width="38.8501" height="61.3104" transform="rotate(25.8168 372.232 70.3773)" fill="#6697DC"/>
<rect x="127.693" y="100.487" width="356.329" height="424.924" rx="43.0994" transform="rotate(0.198902 127.693 100.487)" fill="#F4E3D5"/>
<rect x="200.644" y="69.7816" width="38.8502" height="61.3104" transform="rotate(0.198902 200.644 69.7816)" fill="#B8D6FF"/>
<mask id="mask0_50_560" style="mask-type:alpha" maskUnits="userSpaceOnUse" x="126" y="442" width="398" height="146">
<rect x="126.504" y="442.852" width="397" height="143.26" transform="rotate(0.198902 126.504 442.852)" fill="#6CBDAA"/>
</mask>
<g mask="url(#mask0_50_560)">
<path d="M127.543 143.586C127.626 119.783 146.989 100.554 170.792 100.637L440.92 101.575C464.723 101.657 483.952 121.02 483.87 144.823L482.694 483.546C482.611 507.349 463.248 526.578 439.445 526.496L169.317 525.558C145.514 525.475 126.284 506.112 126.367 482.309L127.543 143.586Z" fill="#B8D6FF"/>
</g>
<rect x="372.433" y="70.3779" width="38.8502" height="61.3104" transform="rotate(0.198902 372.433 70.3779)" fill="#B8D6FF"/>
<path d="M418.181 192.897C413.12 184.894 395.818 176.786 402.76 185.571C408.123 192.358 413.737 193.143 418.181 192.897Z" stroke="#404040" stroke-width="2.42813"/>
<path d="M424.674 196.823C422.464 206.015 408.692 219.205 412.432 208.672C415.321 200.536 420.385 198.005 424.674 196.823Z" stroke="#404040" stroke-width="2.42813"/>
<path d="M166.214 195.319L416.007 196.186" stroke="#404040" stroke-width="2.42813"/>
<ellipse cx="426.666" cy="184.568" rx="3.79488" ry="7.163" transform="rotate(0.198902 426.666 184.568)" fill="#AE88FD"/>
<ellipse cx="3.78246" cy="7.18668" rx="3.78246" ry="7.18668" transform="matrix(0.706978 0.707235 -0.711871 0.70231 436.877 180.456)" fill="#AE88FD"/>
<ellipse cx="3.77114" cy="7.20812" rx="3.77114" ry="7.20812" transform="matrix(0.212116 0.977244 -0.977825 0.209426 422.888 192.472)" fill="#AE88FD"/>
<ellipse cx="3.77555" cy="7.19978" rx="3.77555" ry="7.19978" transform="matrix(-0.477231 0.878778 -0.881377 -0.472414 426.248 189.063)" fill="#AE88FD"/>
<ellipse cx="3.79179" cy="7.16891" rx="3.79179" ry="7.16891" transform="matrix(-0.93509 -0.35441 0.358472 -0.93354 423.776 212.886)" fill="#AE88FD"/>
<ellipse cx="3.78246" cy="7.18668" rx="3.78246" ry="7.18668" transform="matrix(-0.711871 0.70231 -0.706978 -0.707235 440.818 205.795)" fill="#AE88FD"/>
<ellipse cx="437.632" cy="195.916" rx="3.77" ry="7.21028" transform="rotate(90.1989 437.632 195.916)" fill="#AE88FD"/>
<ellipse cx="426.821" cy="194.706" rx="6.41593" ry="6.37385" transform="rotate(0.198902 426.821 194.706)" fill="#FFE1E1"/>
<path d="M418.016 240.245C412.956 232.243 395.653 224.134 402.596 232.92C407.958 239.706 413.572 240.491 418.016 240.245Z" stroke="#404040" stroke-width="2.42813"/>
<path d="M424.51 244.171C422.299 253.363 408.527 266.553 412.268 256.02C415.157 247.884 420.221 245.353 424.51 244.171Z" stroke="#404040" stroke-width="2.42813"/>
<path d="M166.049 242.667L415.842 243.534" stroke="#404040" stroke-width="2.42813"/>
<ellipse cx="426.501" cy="231.916" rx="3.79488" ry="7.163" transform="rotate(0.198902 426.501 231.916)" fill="#AE88FD"/>
<ellipse cx="3.78246" cy="7.18668" rx="3.78246" ry="7.18668" transform="matrix(0.706978 0.707235 -0.711871 0.70231 436.713 227.804)" fill="#AE88FD"/>
<ellipse cx="3.77114" cy="7.20812" rx="3.77114" ry="7.20812" transform="matrix(0.212116 0.977244 -0.977825 0.209426 422.724 239.82)" fill="#AE88FD"/>
<ellipse cx="3.77555" cy="7.19978" rx="3.77555" ry="7.19978" transform="matrix(-0.477231 0.878778 -0.881377 -0.472414 426.084 236.411)" fill="#AE88FD"/>
<ellipse cx="3.79179" cy="7.16891" rx="3.79179" ry="7.16891" transform="matrix(-0.93509 -0.35441 0.358472 -0.93354 423.611 260.234)" fill="#AE88FD"/>
<ellipse cx="3.78246" cy="7.18668" rx="3.78246" ry="7.18668" transform="matrix(-0.711871 0.70231 -0.706978 -0.707235 440.654 253.143)" fill="#AE88FD"/>
<ellipse cx="437.467" cy="243.264" rx="3.77" ry="7.21028" transform="rotate(90.1989 437.467 243.264)" fill="#AE88FD"/>
<ellipse cx="426.656" cy="242.054" rx="6.41593" ry="6.37385" transform="rotate(0.198902 426.656 242.054)" fill="#FFE1E1"/>
<path d="M417.85 288.2C412.789 280.198 395.487 272.09 402.429 280.875C407.792 287.661 413.405 288.447 417.85 288.2Z" stroke="#404040" stroke-width="2.42813"/>
<path d="M424.343 292.127C422.133 301.318 408.36 314.508 412.101 303.976C414.99 295.84 420.054 293.308 424.343 292.127Z" stroke="#404040" stroke-width="2.42813"/>
<path d="M165.883 290.622L415.676 291.49" stroke="#404040" stroke-width="2.42813"/>
<ellipse cx="426.335" cy="279.871" rx="3.79488" ry="7.163" transform="rotate(0.198902 426.335 279.871)" fill="#AE88FD"/>
<ellipse cx="3.78246" cy="7.18668" rx="3.78246" ry="7.18668" transform="matrix(0.706978 0.707235 -0.711871 0.70231 436.546 275.76)" fill="#AE88FD"/>
<ellipse cx="3.77114" cy="7.20812" rx="3.77114" ry="7.20812" transform="matrix(0.212116 0.977244 -0.977825 0.209426 422.557 287.775)" fill="#AE88FD"/>
<ellipse cx="3.77555" cy="7.19978" rx="3.77555" ry="7.19978" transform="matrix(-0.477231 0.878778 -0.881377 -0.472414 425.917 284.366)" fill="#AE88FD"/>
<ellipse cx="3.79179" cy="7.16891" rx="3.79179" ry="7.16891" transform="matrix(-0.93509 -0.35441 0.358472 -0.93354 423.445 308.189)" fill="#AE88FD"/>
<ellipse cx="3.78246" cy="7.18668" rx="3.78246" ry="7.18668" transform="matrix(-0.711871 0.70231 -0.706978 -0.707235 440.487 301.099)" fill="#AE88FD"/>
<ellipse cx="437.301" cy="291.22" rx="3.77" ry="7.21028" transform="rotate(90.1989 437.301 291.22)" fill="#AE88FD"/>
<ellipse cx="426.489" cy="290.009" rx="6.41593" ry="6.37385" transform="rotate(0.198902 426.489 290.009)" fill="#FFE1E1"/>
<path d="M417.683 336.156C412.623 328.154 395.32 320.045 402.263 328.831C407.626 335.617 413.239 336.402 417.683 336.156Z" stroke="#404040" stroke-width="2.42813"/>
<path d="M424.177 340.082C421.966 349.274 408.194 362.464 411.935 351.931C414.824 343.796 419.888 341.264 424.177 340.082Z" stroke="#404040" stroke-width="2.42813"/>
<path d="M165.717 338.578L415.509 339.445" stroke="#404040" stroke-width="2.42813"/>
<ellipse cx="426.169" cy="327.827" rx="3.79488" ry="7.163" transform="rotate(0.198902 426.169 327.827)" fill="#AE88FD"/>
<ellipse cx="3.78246" cy="7.18668" rx="3.78246" ry="7.18668" transform="matrix(0.706978 0.707235 -0.711871 0.70231 436.38 323.716)" fill="#AE88FD"/>
<ellipse cx="3.77114" cy="7.20812" rx="3.77114" ry="7.20812" transform="matrix(0.212116 0.977244 -0.977825 0.209426 422.391 335.731)" fill="#AE88FD"/>
<ellipse cx="3.77555" cy="7.19978" rx="3.77555" ry="7.19978" transform="matrix(-0.477231 0.878778 -0.881377 -0.472414 425.751 332.322)" fill="#AE88FD"/>
<ellipse cx="3.79179" cy="7.16891" rx="3.79179" ry="7.16891" transform="matrix(-0.93509 -0.35441 0.358472 -0.93354 423.279 356.145)" fill="#AE88FD"/>
<ellipse cx="3.78246" cy="7.18668" rx="3.78246" ry="7.18668" transform="matrix(-0.711871 0.70231 -0.706978 -0.707235 440.321 349.054)" fill="#AE88FD"/>
<ellipse cx="437.135" cy="339.175" rx="3.77" ry="7.21028" transform="rotate(90.1989 437.135 339.175)" fill="#AE88FD"/>
<ellipse cx="426.323" cy="337.965" rx="6.41593" ry="6.37385" transform="rotate(0.198902 426.323 337.965)" fill="#FFE1E1"/>
<path d="M417.517 384.111C412.456 376.109 395.154 368 402.096 376.786C407.459 383.572 413.073 384.358 417.517 384.111Z" stroke="#404040" stroke-width="2.42813"/>
<path d="M424.011 388.037C421.8 397.229 408.028 410.419 411.768 399.887C414.658 391.751 419.722 389.219 424.011 388.037Z" stroke="#404040" stroke-width="2.42813"/>
<path d="M165.55 386.533L415.343 387.4" stroke="#404040" stroke-width="2.42813"/>
<ellipse cx="426.002" cy="375.782" rx="3.79488" ry="7.163" transform="rotate(0.198902 426.002 375.782)" fill="#AE88FD"/>
<ellipse cx="3.78246" cy="7.18668" rx="3.78246" ry="7.18668" transform="matrix(0.706978 0.707235 -0.711871 0.70231 436.213 371.671)" fill="#AE88FD"/>
<ellipse cx="3.77114" cy="7.20812" rx="3.77114" ry="7.20812" transform="matrix(0.212116 0.977244 -0.977825 0.209426 422.225 383.686)" fill="#AE88FD"/>
<ellipse cx="3.77555" cy="7.19978" rx="3.77555" ry="7.19978" transform="matrix(-0.477231 0.878778 -0.881377 -0.472414 425.584 380.277)" fill="#AE88FD"/>
<ellipse cx="3.79179" cy="7.16891" rx="3.79179" ry="7.16891" transform="matrix(-0.93509 -0.35441 0.358472 -0.93354 423.112 404.1)" fill="#AE88FD"/>
<ellipse cx="3.78246" cy="7.18668" rx="3.78246" ry="7.18668" transform="matrix(-0.711871 0.70231 -0.706978 -0.707235 440.154 397.01)" fill="#AE88FD"/>
<ellipse cx="436.968" cy="387.13" rx="3.77" ry="7.21028" transform="rotate(90.1989 436.968 387.13)" fill="#AE88FD"/>
<ellipse cx="426.157" cy="385.92" rx="6.41593" ry="6.37385" transform="rotate(0.198902 426.157 385.92)" fill="#FFE1E1"/>
<path d="M171.442 186.744C170.754 186.742 170.058 186.74 169.354 186.737C168.65 186.735 167.946 186.732 167.242 186.73C167.252 184.042 167.261 181.322 167.271 178.57C167.28 175.818 167.29 173.098 167.299 170.41C168.003 170.412 168.707 170.415 169.411 170.417C170.115 170.42 170.811 170.422 171.499 170.425C171.496 171.401 171.492 172.385 171.489 173.377C171.485 174.353 171.482 175.329 171.479 176.305C172.327 176.307 173.183 176.31 174.047 176.313C174.911 176.316 175.759 176.319 176.591 176.322C176.594 175.346 176.597 174.37 176.601 173.394C176.604 172.402 176.608 171.418 176.611 170.442C177.315 170.445 178.019 170.447 178.723 170.45C179.427 170.452 180.123 170.455 180.811 170.457C180.802 173.145 180.792 175.865 180.783 178.617C180.773 181.369 180.764 184.089 180.754 186.777C180.066 186.774 179.37 186.772 178.666 186.77C177.962 186.767 177.258 186.765 176.554 186.762C176.558 185.674 176.562 184.578 176.566 183.474C176.57 182.354 176.574 181.258 176.577 180.186C175.745 180.183 174.897 180.18 174.033 180.177C173.169 180.174 172.313 180.171 171.465 180.169C171.462 181.24 171.458 182.336 171.454 183.456C171.45 184.56 171.446 185.656 171.442 186.744ZM185.803 172.97C185.339 172.969 184.915 172.855 184.532 172.63C184.165 172.405 183.87 172.108 183.647 171.739C183.425 171.37 183.314 170.962 183.315 170.514C183.317 170.066 183.43 169.666 183.656 169.315C183.881 168.948 184.178 168.653 184.547 168.43C184.931 168.207 185.356 168.097 185.82 168.098C186.268 168.1 186.675 168.213 187.043 168.439C187.426 168.664 187.729 168.961 187.952 169.33C188.174 169.682 188.285 170.083 188.283 170.531C188.282 170.979 188.168 171.386 187.943 171.754C187.718 172.121 187.413 172.416 187.028 172.638C186.659 172.861 186.251 172.972 185.803 172.97ZM183.763 186.787C183.77 184.739 183.777 182.675 183.784 180.595C183.792 178.499 183.799 176.427 183.806 174.379C184.462 174.382 185.126 174.384 185.798 174.386C186.47 174.389 187.126 174.391 187.766 174.393C187.759 176.441 187.752 178.513 187.744 180.609C187.737 182.689 187.73 184.753 187.723 186.801C187.083 186.799 186.427 186.796 185.755 186.794C185.083 186.792 184.419 186.79 183.763 186.787ZM202.158 184.835C202.153 186.195 201.853 187.33 201.258 188.24C200.679 189.15 199.884 189.827 198.875 190.272C197.865 190.732 196.712 190.968 195.416 190.98C194.136 190.991 192.785 190.795 191.362 190.39C191.364 189.766 191.367 189.134 191.369 188.494C191.371 187.87 191.373 187.246 191.375 186.622C192.638 187.122 193.781 187.374 194.805 187.378C195.829 187.397 196.637 187.208 197.231 186.81C197.84 186.396 198.146 185.829 198.149 185.109C198.149 185.029 198.149 184.957 198.149 184.893C198.15 184.813 198.15 184.741 198.15 184.677C197.749 184.98 197.284 185.218 196.756 185.392C196.227 185.566 195.659 185.653 195.051 185.65C194.043 185.647 193.14 185.412 192.341 184.945C191.559 184.462 190.945 183.804 190.5 182.971C190.055 182.121 189.834 181.136 189.838 180.016C189.841 179.152 189.988 178.361 190.279 177.642C190.569 176.923 190.971 176.3 191.485 175.774C191.999 175.248 192.584 174.85 193.241 174.58C193.898 174.294 194.587 174.153 195.307 174.155C195.883 174.157 196.418 174.239 196.914 174.401C197.409 174.563 197.849 174.78 198.232 175.053C198.232 174.941 198.232 174.837 198.233 174.741C198.233 174.645 198.233 174.541 198.234 174.429C198.89 174.432 199.554 174.434 200.226 174.436C200.898 174.439 201.554 174.441 202.194 174.443C202.188 176.155 202.182 177.891 202.176 179.651C202.17 181.395 202.164 183.123 202.158 184.835ZM196.047 182.222C196.719 182.224 197.255 182.018 197.657 181.603C198.074 181.173 198.284 180.622 198.287 179.95C198.289 179.262 198.083 178.701 197.668 178.267C197.27 177.834 196.735 177.616 196.063 177.614C195.359 177.611 194.798 177.825 194.38 178.256C193.963 178.671 193.753 179.23 193.751 179.934C193.748 180.622 193.954 181.175 194.369 181.592C194.783 182.009 195.343 182.219 196.047 182.222ZM204.903 186.861C204.914 183.965 204.924 181.045 204.934 178.101C204.944 175.157 204.954 172.237 204.964 169.341C205.62 169.343 206.284 169.345 206.956 169.348C207.628 169.35 208.284 169.352 208.924 169.354C208.921 170.298 208.918 171.258 208.914 172.234C208.911 173.194 208.908 174.146 208.904 175.09C209.337 174.788 209.818 174.558 210.347 174.399C210.891 174.225 211.476 174.139 212.1 174.142C213.012 174.145 213.811 174.355 214.498 174.774C215.2 175.192 215.742 175.794 216.123 176.58C216.521 177.349 216.717 178.278 216.714 179.366C216.709 180.614 216.705 181.87 216.7 183.134C216.696 184.398 216.692 185.654 216.687 186.902C216.047 186.899 215.391 186.897 214.719 186.895C214.047 186.892 213.383 186.89 212.727 186.888C212.731 185.736 212.735 184.568 212.74 183.384C212.744 182.2 212.748 181.032 212.752 179.88C212.754 179.24 212.604 178.727 212.301 178.342C212.014 177.941 211.551 177.74 210.911 177.737C210.271 177.735 209.775 177.917 209.421 178.284C209.068 178.651 208.89 179.178 208.888 179.866C208.884 181.018 208.88 182.186 208.876 183.37C208.872 184.554 208.867 185.722 208.863 186.874C208.223 186.872 207.567 186.87 206.895 186.868C206.223 186.865 205.559 186.863 204.903 186.861ZM218.69 181.364C218.692 180.756 218.694 180.14 218.696 179.516C218.698 178.876 218.701 178.252 218.703 177.644C219.775 177.648 220.855 177.652 221.943 177.656C223.031 177.659 224.111 177.663 225.183 177.667C225.181 178.275 225.178 178.899 225.176 179.539C225.174 180.163 225.172 180.779 225.17 181.387C224.098 181.383 223.018 181.379 221.93 181.376C220.842 181.372 219.762 181.368 218.69 181.364ZM231.253 190.792C230.613 190.79 229.957 190.788 229.285 190.785C228.613 190.783 227.949 190.781 227.293 190.778C227.303 188.106 227.312 185.402 227.322 182.666C227.331 179.914 227.341 177.202 227.35 174.53C228.006 174.533 228.67 174.535 229.342 174.537C230.014 174.54 230.67 174.542 231.31 174.544C231.309 174.656 231.309 174.768 231.309 174.88C231.308 174.992 231.308 175.112 231.307 175.24C231.709 174.922 232.165 174.675 232.678 174.501C233.191 174.311 233.735 174.217 234.311 174.219C235.111 174.221 235.87 174.384 236.589 174.707C237.308 175.013 237.939 175.455 238.481 176.033C239.039 176.611 239.468 177.301 239.77 178.102C240.087 178.903 240.244 179.791 240.24 180.767C240.237 181.727 240.074 182.607 239.751 183.406C239.444 184.205 239.01 184.899 238.448 185.489C237.902 186.063 237.268 186.509 236.547 186.826C235.826 187.144 235.058 187.301 234.242 187.298C233.666 187.296 233.122 187.199 232.611 187.005C232.115 186.827 231.668 186.57 231.269 186.232C231.267 186.984 231.264 187.744 231.261 188.512C231.259 189.28 231.256 190.04 231.253 190.792ZM233.726 183.793C234.51 183.795 235.127 183.526 235.577 182.983C236.043 182.425 236.277 181.682 236.28 180.754C236.284 179.826 236.054 179.089 235.592 178.543C235.146 177.998 234.531 177.723 233.747 177.721C232.979 177.718 232.362 177.996 231.896 178.554C231.43 179.097 231.196 179.824 231.192 180.736C231.189 181.648 231.419 182.385 231.881 182.946C232.343 183.508 232.958 183.79 233.726 183.793ZM242.19 186.99C242.197 184.942 242.204 182.878 242.211 180.798C242.218 178.702 242.225 176.63 242.233 174.582C242.889 174.584 243.553 174.587 244.225 174.589C244.897 174.591 245.553 174.594 246.193 174.596C246.192 174.708 246.192 174.82 246.191 174.932C246.191 175.044 246.191 175.156 246.19 175.268C246.687 174.918 247.248 174.656 247.873 174.482C248.498 174.308 249.178 174.262 249.913 174.345C249.911 174.985 249.909 175.633 249.907 176.289C249.904 176.945 249.902 177.593 249.9 178.233C248.637 178.052 247.7 178.161 247.091 178.559C246.481 178.941 246.175 179.572 246.172 180.452C246.169 181.524 246.165 182.612 246.161 183.716C246.157 184.82 246.153 185.916 246.149 187.004C245.509 187.002 244.853 186.999 244.181 186.997C243.51 186.995 242.846 186.992 242.19 186.99ZM262.223 186.484C261.117 186.944 260.02 187.228 258.932 187.336C257.844 187.444 256.812 187.377 255.837 187.133C254.877 186.906 254.023 186.511 253.273 185.949C252.523 185.386 251.933 184.672 251.504 183.806C251.091 182.941 250.887 181.94 250.891 180.804C250.894 179.86 251.049 178.997 251.356 178.214C251.678 177.415 252.129 176.721 252.707 176.131C253.285 175.525 253.967 175.063 254.752 174.746C255.537 174.412 256.393 174.247 257.321 174.251C258.153 174.253 258.905 174.392 259.576 174.666C260.247 174.941 260.83 175.327 261.324 175.824C261.818 176.306 262.216 176.884 262.518 177.557C262.82 178.23 263.009 178.966 263.086 179.767C263.163 180.567 263.113 181.415 262.933 182.31C261.621 182.305 260.301 182.301 258.973 182.296C257.645 182.292 256.325 182.287 255.013 182.283C255.315 182.892 255.818 183.325 256.521 183.584C257.24 183.842 258.088 183.925 259.064 183.833C260.056 183.74 261.113 183.488 262.235 183.076C262.233 183.636 262.231 184.204 262.229 184.78C262.227 185.356 262.225 185.924 262.223 186.484ZM257.213 177.802C256.749 177.801 256.317 177.927 255.916 178.182C255.531 178.436 255.233 178.827 255.024 179.355C255.744 179.357 256.464 179.36 257.184 179.362C257.92 179.365 258.648 179.367 259.368 179.37C259.178 178.825 258.891 178.432 258.508 178.191C258.141 177.933 257.709 177.804 257.213 177.802ZM274.651 183.263C274.648 184.255 274.365 185.07 273.803 185.708C273.257 186.33 272.519 186.783 271.59 187.068C270.661 187.353 269.621 187.469 268.469 187.417C267.333 187.381 266.174 187.193 264.991 186.853C264.993 186.245 264.995 185.621 264.997 184.981C265 184.341 265.002 183.717 265.004 183.109C265.675 183.416 266.346 183.658 267.017 183.836C267.689 183.999 268.296 184.097 268.84 184.131C269.384 184.164 269.824 184.126 270.161 184.015C270.497 183.888 270.666 183.681 270.667 183.393C270.668 183.169 270.524 182.992 270.237 182.863C269.965 182.734 269.606 182.621 269.158 182.524C268.71 182.41 268.231 182.28 267.719 182.135C267.224 181.973 266.753 181.755 266.306 181.482C265.859 181.192 265.492 180.815 265.205 180.35C264.935 179.869 264.801 179.253 264.804 178.501C264.807 177.605 265.066 176.845 265.58 176.223C266.11 175.585 266.816 175.107 267.697 174.791C268.578 174.458 269.563 174.293 270.65 174.297C271.738 174.301 272.85 174.488 273.985 174.86C273.982 175.468 273.98 176.092 273.978 176.732C273.976 177.372 273.974 177.996 273.972 178.604C273.077 178.169 272.238 177.878 271.455 177.732C270.671 177.585 270.039 177.567 269.559 177.677C269.078 177.771 268.838 177.987 268.837 178.323C268.836 178.547 268.971 178.723 269.243 178.852C269.53 178.965 269.89 179.07 270.322 179.168C270.769 179.265 271.241 179.395 271.736 179.557C272.248 179.718 272.719 179.944 273.15 180.234C273.597 180.507 273.956 180.892 274.226 181.389C274.512 181.87 274.654 182.495 274.651 183.263ZM285.925 183.302C285.921 184.294 285.638 185.109 285.076 185.747C284.53 186.369 283.793 186.822 282.864 187.107C281.935 187.392 280.894 187.508 279.742 187.456C278.606 187.42 277.447 187.232 276.264 186.892C276.266 186.284 276.269 185.66 276.271 185.02C276.273 184.38 276.275 183.756 276.277 183.148C276.948 183.455 277.619 183.697 278.291 183.875C278.962 184.038 279.57 184.136 280.114 184.17C280.658 184.204 281.098 184.165 281.434 184.054C281.771 183.927 281.939 183.72 281.94 183.432C281.941 183.208 281.798 183.032 281.51 182.903C281.239 182.774 280.879 182.66 280.431 182.563C279.984 182.449 279.504 182.32 278.993 182.174C278.497 182.012 278.026 181.794 277.579 181.521C277.132 181.231 276.765 180.854 276.479 180.389C276.208 179.908 276.075 179.292 276.077 178.54C276.08 177.644 276.339 176.885 276.853 176.262C277.383 175.624 278.089 175.147 278.97 174.83C279.851 174.497 280.836 174.332 281.924 174.336C283.012 174.34 284.123 174.528 285.258 174.9C285.256 175.507 285.254 176.131 285.251 176.771C285.249 177.411 285.247 178.035 285.245 178.643C284.35 178.208 283.511 177.917 282.728 177.771C281.944 177.624 281.313 177.606 280.832 177.716C280.352 177.81 280.111 178.026 280.11 178.362C280.109 178.586 280.244 178.762 280.516 178.891C280.804 179.004 281.163 179.109 281.595 179.207C282.043 179.304 282.514 179.434 283.01 179.596C283.521 179.758 283.992 179.983 284.423 180.273C284.87 180.546 285.229 180.931 285.499 181.428C285.786 181.909 285.927 182.534 285.925 183.302ZM299.457 174.781C299.45 176.829 299.443 178.901 299.435 180.997C299.428 183.077 299.421 185.141 299.414 187.189C298.774 187.186 298.118 187.184 297.446 187.182C296.774 187.18 296.11 187.177 295.454 187.175C295.454 187.063 295.455 186.959 295.455 186.863C295.455 186.767 295.456 186.663 295.456 186.551C295.023 186.853 294.534 187.084 293.99 187.242C293.461 187.416 292.885 187.502 292.261 187.5C291.349 187.497 290.542 187.286 289.839 186.867C289.152 186.449 288.611 185.847 288.213 185.062C287.832 184.276 287.643 183.348 287.647 182.276C287.651 181.028 287.656 179.772 287.66 178.508C287.664 177.244 287.669 175.988 287.673 174.74C288.329 174.742 288.993 174.744 289.665 174.747C290.337 174.749 290.993 174.751 291.633 174.754C291.629 175.906 291.625 177.074 291.621 178.258C291.617 179.442 291.613 180.61 291.609 181.762C291.607 182.402 291.749 182.922 292.035 183.323C292.338 183.708 292.809 183.902 293.449 183.904C294.089 183.906 294.586 183.724 294.939 183.357C295.293 182.99 295.47 182.463 295.473 181.775C295.477 180.623 295.481 179.455 295.485 178.271C295.489 177.087 295.493 175.919 295.497 174.767C296.153 174.769 296.817 174.772 297.489 174.774C298.161 174.776 298.817 174.779 299.457 174.781ZM302.049 187.198C302.056 185.15 302.063 183.086 302.07 181.006C302.077 178.91 302.084 176.838 302.092 174.79C302.748 174.792 303.412 174.795 304.084 174.797C304.756 174.799 305.412 174.801 306.052 174.804C306.051 174.916 306.051 175.028 306.05 175.14C306.05 175.252 306.05 175.364 306.049 175.476C306.546 175.125 307.107 174.863 307.732 174.69C308.357 174.516 309.037 174.47 309.772 174.553C309.77 175.193 309.768 175.841 309.766 176.497C309.763 177.153 309.761 177.801 309.759 178.441C308.496 178.26 307.559 178.369 306.95 178.767C306.34 179.149 306.034 179.78 306.031 180.66C306.028 181.732 306.024 182.82 306.02 183.924C306.016 185.028 306.012 186.124 306.009 187.212C305.369 187.209 304.713 187.207 304.041 187.205C303.369 187.202 302.705 187.2 302.049 187.198ZM322.082 186.691C320.976 187.152 319.879 187.436 318.791 187.544C317.703 187.652 316.671 187.585 315.696 187.341C314.736 187.114 313.882 186.719 313.132 186.156C312.382 185.594 311.792 184.88 311.363 184.014C310.95 183.149 310.746 182.148 310.75 181.012C310.753 180.068 310.908 179.205 311.215 178.422C311.537 177.623 311.988 176.928 312.566 176.338C313.144 175.732 313.826 175.271 314.611 174.953C315.396 174.62 316.252 174.455 317.18 174.458C318.012 174.461 318.764 174.6 319.435 174.874C320.106 175.148 320.689 175.535 321.183 176.032C321.677 176.514 322.075 177.091 322.377 177.764C322.679 178.437 322.868 179.174 322.945 179.974C323.023 180.775 322.972 181.622 322.792 182.518C321.48 182.513 320.16 182.509 318.832 182.504C317.504 182.499 316.184 182.495 314.873 182.49C315.174 183.099 315.677 183.533 316.38 183.792C317.099 184.05 317.947 184.133 318.923 184.04C319.915 183.948 320.972 183.696 322.094 183.283C322.092 183.843 322.09 184.411 322.088 184.987C322.086 185.563 322.084 186.131 322.082 186.691ZM317.072 178.01C316.608 178.008 316.176 178.135 315.775 178.389C315.39 178.644 315.093 179.035 314.883 179.562C315.603 179.565 316.323 179.567 317.043 179.57C317.779 179.572 318.507 179.575 319.227 179.577C319.037 179.033 318.75 178.64 318.367 178.398C318 178.141 317.568 178.012 317.072 178.01ZM324.443 179.956C324.448 178.468 324.62 177.124 324.961 175.925C325.317 174.727 325.8 173.664 326.412 172.738C327.023 171.812 327.73 171.031 328.532 170.394C329.35 169.741 330.232 169.224 331.177 168.843C332.123 168.446 333.099 168.194 334.108 168.085C334.106 168.677 334.104 169.277 334.102 169.885C334.099 170.493 334.097 171.093 334.095 171.685C332.99 171.953 332.013 172.406 331.163 173.043C330.328 173.68 329.669 174.558 329.185 175.676C328.718 176.794 328.481 178.226 328.475 179.97C328.469 181.698 328.696 183.13 329.156 184.268C329.632 185.39 330.285 186.272 331.114 186.915C331.96 187.558 332.935 188.017 334.038 188.293C334.036 188.885 334.034 189.485 334.031 190.093C334.029 190.701 334.027 191.301 334.025 191.893C333.018 191.761 332.043 191.502 331.1 191.115C330.157 190.727 329.279 190.204 328.465 189.546C327.668 188.903 326.966 188.116 326.361 187.186C325.757 186.256 325.28 185.191 324.933 183.989C324.601 182.788 324.437 181.444 324.443 179.956ZM345.128 183.507C345.124 184.499 344.841 185.314 344.279 185.952C343.733 186.575 342.995 187.028 342.066 187.313C341.137 187.598 340.097 187.714 338.945 187.662C337.809 187.626 336.65 187.438 335.467 187.098C335.469 186.49 335.471 185.866 335.474 185.226C335.476 184.586 335.478 183.962 335.48 183.354C336.151 183.66 336.822 183.903 337.493 184.081C338.165 184.243 338.773 184.341 339.316 184.375C339.86 184.409 340.301 184.371 340.637 184.26C340.973 184.133 341.142 183.926 341.143 183.638C341.144 183.414 341 183.237 340.713 183.108C340.441 182.979 340.082 182.866 339.634 182.768C339.186 182.655 338.707 182.525 338.195 182.379C337.7 182.218 337.229 182 336.782 181.726C336.335 181.437 335.968 181.06 335.682 180.595C335.411 180.114 335.277 179.497 335.28 178.745C335.283 177.849 335.542 177.09 336.056 176.468C336.586 175.83 337.292 175.352 338.173 175.035C339.054 174.702 340.039 174.538 341.127 174.541C342.215 174.545 343.326 174.733 344.461 175.105C344.459 175.713 344.456 176.337 344.454 176.977C344.452 177.617 344.45 178.241 344.448 178.849C343.553 178.414 342.714 178.123 341.931 177.976C341.147 177.83 340.515 177.811 340.035 177.922C339.555 178.016 339.314 178.231 339.313 178.567C339.312 178.791 339.447 178.968 339.719 179.097C340.006 179.21 340.366 179.315 340.798 179.412C341.245 179.51 341.717 179.64 342.212 179.801C342.724 179.963 343.195 180.189 343.626 180.478C344.073 180.752 344.432 181.137 344.702 181.634C344.988 182.115 345.13 182.739 345.128 183.507ZM347.145 187.354C347.155 184.458 347.165 181.538 347.175 178.594C347.185 175.65 347.196 172.731 347.206 169.835C347.862 169.837 348.526 169.839 349.198 169.841C349.87 169.844 350.526 169.846 351.166 169.848C351.16 171.416 351.155 173.008 351.149 174.624C351.143 176.24 351.138 177.832 351.132 179.4C351.711 178.666 352.29 177.932 352.868 177.198C353.447 176.448 354.025 175.706 354.604 174.972C355.372 174.975 356.14 174.978 356.908 174.98C357.692 174.983 358.468 174.986 359.236 174.988C358.481 175.93 357.709 176.879 356.922 177.836C356.151 178.794 355.387 179.743 354.632 180.684C355.428 181.791 356.224 182.914 357.02 184.053C357.832 185.176 358.629 186.29 359.409 187.397C358.625 187.394 357.841 187.392 357.057 187.389C356.273 187.386 355.489 187.383 354.705 187.381C354.116 186.531 353.519 185.673 352.914 184.806C352.309 183.924 351.712 183.058 351.123 182.208C351.12 183.056 351.117 183.92 351.114 184.8C351.111 185.664 351.108 186.52 351.105 187.368C350.465 187.366 349.809 187.364 349.137 187.361C348.465 187.359 347.801 187.357 347.145 187.354ZM370.949 186.861C369.843 187.321 368.746 187.605 367.658 187.714C366.569 187.822 365.538 187.754 364.563 187.511C363.603 187.284 362.749 186.889 361.999 186.326C361.249 185.763 360.659 185.049 360.23 184.184C359.817 183.318 359.613 182.318 359.617 181.182C359.62 180.238 359.775 179.374 360.082 178.591C360.404 177.792 360.855 177.098 361.433 176.508C362.011 175.902 362.692 175.44 363.478 175.123C364.263 174.79 365.119 174.625 366.047 174.628C366.879 174.631 367.631 174.769 368.302 175.044C368.973 175.318 369.556 175.704 370.05 176.202C370.544 176.684 370.942 177.261 371.244 177.934C371.546 178.607 371.735 179.344 371.812 180.144C371.889 180.944 371.838 181.792 371.659 182.687C370.347 182.683 369.027 182.678 367.699 182.674C366.371 182.669 365.051 182.665 363.739 182.66C364.041 183.269 364.544 183.703 365.247 183.961C365.966 184.22 366.814 184.303 367.79 184.21C368.782 184.118 369.839 183.865 370.961 183.453C370.959 184.013 370.957 184.581 370.955 185.157C370.953 185.733 370.951 186.301 370.949 186.861ZM365.939 178.18C365.475 178.178 365.043 178.304 364.642 178.559C364.257 178.814 363.959 179.205 363.75 179.732C364.47 179.735 365.19 179.737 365.91 179.74C366.646 179.742 367.374 179.745 368.094 179.747C367.903 179.202 367.617 178.809 367.234 178.568C366.867 178.311 366.435 178.181 365.939 178.18ZM375.063 187.451C375.068 185.979 375.073 184.499 375.078 183.011C375.083 181.523 375.089 180.051 375.094 178.595C374.774 178.594 374.446 178.593 374.11 178.592C373.79 178.591 373.47 178.59 373.15 178.589C373.152 177.997 373.154 177.405 373.156 176.813C373.158 176.221 373.16 175.629 373.162 175.037C373.482 175.038 373.802 175.039 374.122 175.04C374.458 175.041 374.786 175.042 375.106 175.043C375.108 174.483 375.11 173.931 375.112 173.387C375.114 172.827 375.116 172.275 375.117 171.731C375.773 171.734 376.437 171.736 377.109 171.738C377.781 171.741 378.437 171.743 379.077 171.745C379.075 172.289 379.074 172.841 379.072 173.401C379.07 173.945 379.068 174.497 379.066 175.057C379.434 175.058 379.81 175.06 380.194 175.061C380.578 175.062 380.954 175.064 381.322 175.065C381.32 175.657 381.318 176.249 381.316 176.841C381.314 177.433 381.312 178.025 381.31 178.617C380.942 178.616 380.566 178.614 380.182 178.613C379.798 178.612 379.422 178.61 379.054 178.609C379.048 180.065 379.043 181.537 379.038 183.025C379.033 184.513 379.028 185.993 379.023 187.465C378.383 187.463 377.727 187.461 377.055 187.458C376.383 187.456 375.719 187.454 375.063 187.451ZM382.421 181.261C382.425 180.045 382.677 178.982 383.176 178.071C383.675 177.145 384.366 176.404 385.248 175.847C386.13 175.29 387.155 174.957 388.323 174.849C389.492 174.725 390.739 174.866 392.066 175.27C392.064 175.878 392.062 176.494 392.059 177.118C392.057 177.742 392.055 178.358 392.053 178.966C391.127 178.515 390.239 178.304 389.391 178.333C388.543 178.362 387.846 178.624 387.301 179.118C386.755 179.596 386.48 180.315 386.477 181.275C386.474 182.235 386.743 182.964 387.285 183.462C387.828 183.944 388.523 184.202 389.371 184.237C390.219 184.256 391.107 184.051 392.037 183.622C392.035 184.23 392.033 184.846 392.031 185.47C392.028 186.094 392.026 186.71 392.024 187.318C390.695 187.714 389.446 187.845 388.279 187.713C387.111 187.597 386.088 187.258 385.21 186.695C384.332 186.132 383.647 185.393 383.154 184.479C382.661 183.55 382.417 182.477 382.421 181.261ZM394.605 187.519C394.616 184.623 394.626 181.703 394.636 178.759C394.646 175.815 394.656 172.895 394.666 169.999C395.322 170.002 395.986 170.004 396.658 170.006C397.33 170.009 397.986 170.011 398.626 170.013C398.623 170.957 398.62 171.917 398.616 172.893C398.613 173.853 398.61 174.805 398.606 175.749C399.039 175.446 399.52 175.216 400.049 175.058C400.593 174.884 401.178 174.798 401.802 174.8C402.714 174.803 403.513 175.014 404.199 175.432C404.902 175.851 405.444 176.453 405.825 177.238C406.223 178.007 406.419 178.936 406.416 180.024C406.411 181.272 406.407 182.528 406.402 183.792C406.398 185.056 406.394 186.312 406.389 187.56C405.749 187.558 405.093 187.556 404.421 187.553C403.749 187.551 403.085 187.549 402.429 187.546C402.433 186.394 402.437 185.226 402.442 184.042C402.446 182.858 402.45 181.69 402.454 180.538C402.456 179.898 402.306 179.386 402.003 179.001C401.716 178.6 401.253 178.398 400.613 178.396C399.973 178.394 399.477 178.576 399.123 178.943C398.77 179.31 398.592 179.837 398.59 180.525C398.586 181.677 398.582 182.845 398.578 184.029C398.573 185.213 398.569 186.381 398.565 187.533C397.925 187.531 397.269 187.528 396.597 187.526C395.925 187.524 395.261 187.521 394.605 187.519ZM417.433 180.254C417.428 181.742 417.247 183.086 416.891 184.285C416.551 185.483 416.075 186.546 415.464 187.472C414.853 188.397 414.138 189.179 413.32 189.816C412.518 190.469 411.644 190.986 410.699 191.367C409.753 191.748 408.776 192 407.768 192.125C407.77 191.517 407.772 190.909 407.774 190.301C407.776 189.709 407.778 189.117 407.78 188.525C408.901 188.257 409.879 187.804 410.713 187.167C411.547 186.53 412.198 185.652 412.666 184.534C413.15 183.4 413.395 181.968 413.401 180.24C413.407 178.496 413.172 177.064 412.696 175.942C412.236 174.82 411.591 173.938 410.761 173.295C409.932 172.652 408.957 172.193 407.838 171.917C407.84 171.309 407.842 170.709 407.844 170.117C407.847 169.509 407.849 168.909 407.851 168.317C408.858 168.433 409.833 168.692 410.776 169.095C411.719 169.482 412.589 170.006 413.387 170.664C414.2 171.307 414.91 172.094 415.514 173.024C416.119 173.954 416.587 175.019 416.919 176.221C417.267 177.422 417.438 178.766 417.433 180.254Z" fill="#2F4ECD"/>
<path d="M166.984 233.827C166.993 231.139 167.002 228.419 167.012 225.667C167.022 222.915 167.031 220.196 167.04 217.508C167.744 217.51 168.448 217.512 169.152 217.515C169.856 217.517 170.552 217.52 171.24 217.522C171.233 219.586 171.226 221.674 171.219 223.786C171.211 225.882 171.204 227.962 171.197 230.026C172.045 230.029 172.901 230.032 173.765 230.035C174.629 230.038 175.477 230.041 176.309 230.044C176.307 230.668 176.304 231.308 176.302 231.964C176.3 232.604 176.298 233.236 176.296 233.86C174.76 233.854 173.208 233.849 171.64 233.844C170.072 233.838 168.52 233.833 166.984 233.827ZM183.989 234.27C183.061 234.267 182.198 234.104 181.399 233.781C180.6 233.443 179.906 232.976 179.316 232.382C178.726 231.772 178.265 231.067 177.931 230.265C177.614 229.464 177.457 228.592 177.46 227.648C177.464 226.704 177.627 225.832 177.949 225.033C178.288 224.235 178.755 223.54 179.349 222.95C179.943 222.36 180.64 221.907 181.441 221.59C182.243 221.256 183.107 221.091 184.035 221.095C184.979 221.098 185.843 221.269 186.625 221.608C187.424 221.93 188.119 222.389 188.709 222.983C189.299 223.577 189.752 224.274 190.069 225.076C190.403 225.877 190.568 226.749 190.564 227.693C190.561 228.637 190.39 229.509 190.051 230.307C189.728 231.106 189.27 231.809 188.676 232.415C188.082 233.005 187.384 233.466 186.583 233.799C185.798 234.117 184.933 234.274 183.989 234.27ZM184.002 230.694C184.786 230.697 185.411 230.419 185.877 229.861C186.359 229.287 186.601 228.559 186.604 227.679C186.607 226.784 186.37 226.063 185.892 225.517C185.43 224.955 184.807 224.673 184.023 224.671C183.239 224.668 182.606 224.946 182.124 225.504C181.658 226.046 181.423 226.766 181.42 227.661C181.417 228.541 181.647 229.27 182.109 229.848C182.587 230.41 183.218 230.692 184.002 230.694ZM192.501 233.916C192.508 231.868 192.516 229.804 192.523 227.724C192.53 225.628 192.537 223.556 192.544 221.508C193.2 221.51 193.864 221.513 194.536 221.515C195.208 221.517 195.864 221.52 196.504 221.522C196.504 221.634 196.504 221.738 196.503 221.834C196.503 221.93 196.503 222.034 196.502 222.146C196.935 221.843 197.416 221.613 197.945 221.455C198.489 221.281 199.074 221.195 199.698 221.197C200.61 221.2 201.409 221.411 202.095 221.829C202.798 222.248 203.34 222.85 203.721 223.635C204.118 224.404 204.315 225.333 204.311 226.421C204.307 227.669 204.303 228.925 204.298 230.189C204.294 231.453 204.29 232.709 204.285 233.957C203.645 233.955 202.989 233.952 202.317 233.95C201.645 233.948 200.981 233.945 200.325 233.943C200.329 232.791 200.333 231.623 200.337 230.439C200.342 229.255 200.346 228.087 200.35 226.935C200.352 226.295 200.202 225.783 199.899 225.398C199.612 224.997 199.149 224.795 198.509 224.793C197.869 224.791 197.372 224.973 197.019 225.34C196.666 225.706 196.488 226.234 196.486 226.922C196.482 228.074 196.478 229.242 196.473 230.426C196.469 231.61 196.465 232.778 196.461 233.93C195.821 233.928 195.165 233.925 194.493 233.923C193.821 233.921 193.157 233.918 192.501 233.916ZM217.41 233.426C216.304 233.887 215.207 234.171 214.119 234.279C213.03 234.387 211.999 234.32 211.023 234.076C210.064 233.849 209.21 233.454 208.46 232.891C207.709 232.329 207.12 231.615 206.691 230.749C206.278 229.884 206.073 228.883 206.077 227.747C206.081 226.803 206.236 225.94 206.542 225.157C206.865 224.358 207.316 223.663 207.894 223.073C208.472 222.467 209.153 222.006 209.938 221.688C210.724 221.355 211.58 221.19 212.508 221.193C213.34 221.196 214.092 221.335 214.763 221.609C215.434 221.884 216.016 222.27 216.511 222.767C217.005 223.249 217.403 223.826 217.705 224.499C218.006 225.172 218.196 225.909 218.273 226.709C218.35 227.51 218.299 228.358 218.12 229.253C216.808 229.248 215.488 229.244 214.16 229.239C212.832 229.235 211.512 229.23 210.2 229.225C210.502 229.834 211.005 230.268 211.708 230.527C212.427 230.785 213.275 230.868 214.251 230.775C215.243 230.683 216.3 230.431 217.422 230.018C217.42 230.578 217.418 231.146 217.416 231.722C217.414 232.298 217.412 232.866 217.41 233.426ZM212.4 224.745C211.936 224.743 211.503 224.87 211.103 225.125C210.718 225.379 210.42 225.77 210.21 226.297C210.93 226.3 211.65 226.302 212.37 226.305C213.106 226.307 213.834 226.31 214.554 226.313C214.364 225.768 214.078 225.375 213.695 225.134C213.327 224.876 212.896 224.747 212.4 224.745ZM220.465 234.013C220.475 231.117 220.485 228.197 220.495 225.253C220.506 222.309 220.516 219.389 220.526 216.493C221.182 216.495 221.846 216.498 222.518 216.5C223.19 216.502 223.846 216.505 224.486 216.507C224.476 219.403 224.466 222.323 224.455 225.267C224.445 228.211 224.435 231.131 224.425 234.027C223.785 234.025 223.129 234.022 222.457 234.02C221.785 234.018 221.121 234.015 220.465 234.013ZM228.327 237.88C228.65 237.034 228.981 236.179 229.32 235.316C229.675 234.469 230.014 233.63 230.337 232.799C229.591 230.957 228.83 229.098 228.052 227.223C227.291 225.333 226.537 223.466 225.792 221.623C226.496 221.626 227.2 221.628 227.904 221.631C228.608 221.633 229.304 221.636 229.992 221.638C230.404 222.664 230.817 223.705 231.229 224.762C231.657 225.82 232.078 226.869 232.49 227.911C232.878 226.872 233.273 225.825 233.677 224.771C234.08 223.716 234.476 222.678 234.864 221.655C235.552 221.657 236.24 221.66 236.928 221.662C237.616 221.665 238.304 221.667 238.992 221.669C237.91 224.338 236.821 227.046 235.723 229.794C234.642 232.526 233.561 235.227 232.479 237.895C231.791 237.892 231.095 237.89 230.391 237.888C229.703 237.885 229.015 237.883 228.327 237.88ZM257.181 229.317C257.177 230.389 256.902 231.316 256.356 232.098C255.825 232.88 255.087 233.485 254.141 233.914C253.196 234.327 252.099 234.531 250.851 234.527C249.683 234.523 248.644 234.335 247.733 233.964C246.838 233.577 246.128 233.03 245.603 232.324C245.093 231.603 244.84 230.754 244.844 229.778C244.846 228.978 245.025 228.242 245.379 227.572C245.75 226.901 246.304 226.327 247.041 225.849C246.451 225.399 246.013 224.878 245.727 224.285C245.457 223.676 245.323 223.011 245.326 222.291C245.329 221.235 245.612 220.356 246.175 219.654C246.753 218.952 247.523 218.427 248.484 218.078C249.445 217.73 250.51 217.549 251.678 217.537C252.846 217.509 254.03 217.65 255.229 217.958C255.226 218.598 255.224 219.246 255.222 219.902C255.22 220.558 255.217 221.214 255.215 221.87C254.544 221.675 253.864 221.537 253.176 221.455C252.505 221.372 251.889 221.362 251.329 221.424C250.768 221.486 250.312 221.621 249.959 221.827C249.622 222.034 249.453 222.33 249.452 222.714C249.45 223.21 249.785 223.555 250.456 223.749C251.128 223.927 252.056 224.019 253.24 224.023C253.241 223.735 253.242 223.447 253.243 223.159C253.244 222.855 253.245 222.559 253.246 222.271C253.902 222.273 254.566 222.275 255.238 222.278C255.91 222.28 256.566 222.282 257.206 222.285C257.205 222.573 257.204 222.869 257.203 223.173C257.202 223.461 257.201 223.749 257.2 224.037C257.44 224.037 257.688 224.038 257.944 224.039C258.2 224.04 258.448 224.041 258.688 224.042C258.685 224.634 258.683 225.226 258.681 225.818C258.679 226.41 258.677 227.002 258.675 227.594C258.435 227.593 258.187 227.592 257.931 227.591C257.675 227.59 257.427 227.589 257.187 227.589C257.186 227.877 257.185 228.165 257.184 228.453C257.183 228.741 257.182 229.029 257.181 229.317ZM249.046 229.192C249.044 229.656 249.211 230.049 249.545 230.37C249.896 230.675 250.384 230.829 251.008 230.831C251.68 230.833 252.216 230.675 252.618 230.357C253.019 230.022 253.22 229.559 253.222 228.967C253.223 228.743 253.224 228.511 253.225 228.271C253.226 228.031 253.226 227.799 253.227 227.575C251.915 227.57 250.891 227.663 250.154 227.852C249.418 228.042 249.048 228.488 249.046 229.192ZM273.718 234.198C273.719 234.07 273.719 233.95 273.72 233.838C273.72 233.71 273.72 233.59 273.721 233.478C273.32 233.813 272.863 234.067 272.35 234.241C271.854 234.431 271.317 234.526 270.741 234.524C269.925 234.521 269.158 234.358 268.439 234.036C267.72 233.713 267.082 233.263 266.524 232.685C265.982 232.091 265.552 231.394 265.235 230.592C264.934 229.791 264.785 228.911 264.788 227.951C264.791 226.975 264.946 226.087 265.253 225.289C265.576 224.49 266.01 223.803 266.556 223.229C267.118 222.655 267.76 222.217 268.481 221.916C269.202 221.598 269.963 221.441 270.763 221.444C271.339 221.446 271.882 221.543 272.394 221.737C272.905 221.915 273.36 222.165 273.759 222.486C273.762 221.526 273.766 220.558 273.769 219.582C273.772 218.606 273.776 217.638 273.779 216.678C274.435 216.68 275.099 216.683 275.771 216.685C276.443 216.687 277.099 216.69 277.739 216.692C277.729 219.588 277.719 222.508 277.709 225.452C277.699 228.396 277.688 231.316 277.678 234.212C277.038 234.209 276.382 234.207 275.71 234.205C275.038 234.203 274.374 234.2 273.718 234.198ZM271.281 231.021C272.049 231.024 272.666 230.746 273.132 230.188C273.598 229.63 273.833 228.894 273.836 227.982C273.839 227.07 273.61 226.342 273.148 225.796C272.685 225.234 272.07 224.952 271.302 224.95C270.518 224.947 269.893 225.217 269.428 225.759C268.978 226.301 268.751 227.037 268.748 227.965C268.745 228.893 268.966 229.637 269.412 230.199C269.874 230.745 270.497 231.019 271.281 231.021ZM291.12 233.682C290.015 234.143 288.918 234.427 287.829 234.535C286.741 234.643 285.709 234.576 284.734 234.332C283.775 234.105 282.92 233.71 282.17 233.147C281.42 232.585 280.83 231.871 280.401 231.005C279.988 230.14 279.784 229.139 279.788 228.003C279.791 227.059 279.946 226.196 280.253 225.413C280.576 224.614 281.026 223.919 281.604 223.329C282.182 222.723 282.864 222.262 283.649 221.944C284.434 221.611 285.291 221.446 286.219 221.449C287.051 221.452 287.802 221.591 288.473 221.865C289.144 222.139 289.727 222.525 290.221 223.023C290.716 223.505 291.114 224.082 291.415 224.755C291.717 225.428 291.906 226.165 291.984 226.965C292.061 227.766 292.01 228.613 291.831 229.509C290.519 229.504 289.199 229.5 287.871 229.495C286.543 229.49 285.223 229.486 283.911 229.481C284.213 230.09 284.715 230.524 285.418 230.783C286.137 231.041 286.985 231.124 287.961 231.031C288.954 230.939 290.011 230.686 291.132 230.274C291.13 230.834 291.128 231.402 291.126 231.978C291.124 232.554 291.122 233.122 291.12 233.682ZM286.11 225.001C285.646 224.999 285.214 225.126 284.813 225.38C284.428 225.635 284.131 226.026 283.921 226.553C284.641 226.556 285.361 226.558 286.081 226.561C286.817 226.563 287.545 226.566 288.265 226.568C288.075 226.024 287.788 225.631 287.405 225.389C287.038 225.132 286.606 225.003 286.11 225.001ZM298.002 238.122C297.362 238.12 296.706 238.118 296.034 238.115C295.362 238.113 294.698 238.111 294.042 238.109C294.051 235.437 294.061 232.733 294.07 229.997C294.08 227.245 294.089 224.533 294.098 221.861C294.754 221.863 295.418 221.865 296.09 221.868C296.762 221.87 297.418 221.872 298.058 221.874C298.058 221.986 298.058 222.098 298.057 222.21C298.057 222.322 298.056 222.442 298.056 222.57C298.457 222.252 298.914 222.005 299.427 221.831C299.939 221.641 300.484 221.547 301.06 221.549C301.86 221.552 302.619 221.714 303.338 222.037C304.057 222.343 304.687 222.785 305.229 223.363C305.787 223.941 306.217 224.631 306.518 225.432C306.835 226.233 306.992 227.121 306.989 228.097C306.986 229.057 306.823 229.937 306.5 230.736C306.193 231.535 305.759 232.229 305.197 232.819C304.651 233.393 304.017 233.839 303.296 234.157C302.575 234.474 301.806 234.631 300.99 234.629C300.414 234.627 299.871 234.529 299.359 234.335C298.864 234.157 298.417 233.9 298.018 233.562C298.015 234.314 298.013 235.074 298.01 235.842C298.007 236.61 298.005 237.37 298.002 238.122ZM300.474 231.123C301.258 231.126 301.875 230.856 302.325 230.313C302.791 229.755 303.026 229.012 303.029 228.084C303.032 227.156 302.803 226.419 302.341 225.873C301.894 225.328 301.279 225.054 300.495 225.051C299.727 225.048 299.11 225.326 298.645 225.884C298.179 226.427 297.944 227.154 297.941 228.066C297.938 228.978 298.167 229.715 298.629 230.276C299.091 230.838 299.706 231.12 300.474 231.123ZM308.938 234.32C308.945 232.272 308.952 230.208 308.96 228.128C308.967 226.032 308.974 223.96 308.981 221.912C309.637 221.915 310.301 221.917 310.973 221.919C311.645 221.922 312.301 221.924 312.941 221.926C312.941 222.038 312.94 222.15 312.94 222.262C312.94 222.374 312.939 222.486 312.939 222.598C313.436 222.248 313.997 221.986 314.622 221.812C315.246 221.638 315.926 221.592 316.662 221.675C316.66 222.315 316.658 222.963 316.655 223.619C316.653 224.275 316.651 224.923 316.649 225.563C315.385 225.383 314.449 225.491 313.839 225.889C313.23 226.271 312.924 226.902 312.921 227.782C312.917 228.854 312.913 229.942 312.91 231.046C312.906 232.15 312.902 233.246 312.898 234.334C312.258 234.332 311.602 234.329 310.93 234.327C310.258 234.325 309.594 234.322 308.938 234.32ZM328.972 233.814C327.866 234.274 326.769 234.558 325.681 234.666C324.592 234.775 323.56 234.707 322.585 234.464C321.626 234.236 320.771 233.841 320.021 233.279C319.271 232.716 318.682 232.002 318.253 231.137C317.84 230.271 317.635 229.27 317.639 228.134C317.642 227.19 317.797 226.327 318.104 225.544C318.427 224.745 318.877 224.051 319.455 223.461C320.034 222.855 320.715 222.393 321.5 222.076C322.285 221.742 323.142 221.577 324.07 221.581C324.902 221.584 325.654 221.722 326.325 221.996C326.996 222.271 327.578 222.657 328.073 223.155C328.567 223.636 328.965 224.214 329.267 224.887C329.568 225.56 329.758 226.296 329.835 227.097C329.912 227.897 329.861 228.745 329.682 229.64C328.37 229.636 327.05 229.631 325.722 229.626C324.394 229.622 323.074 229.617 321.762 229.613C322.064 230.222 322.566 230.656 323.27 230.914C323.989 231.172 324.836 231.255 325.813 231.163C326.805 231.07 327.862 230.818 328.983 230.406C328.981 230.966 328.979 231.534 328.977 232.11C328.975 232.686 328.974 233.254 328.972 233.814ZM323.962 225.132C323.498 225.131 323.065 225.257 322.664 225.512C322.279 225.766 321.982 226.157 321.772 226.685C322.492 226.687 323.212 226.69 323.932 226.692C324.668 226.695 325.396 226.697 326.116 226.7C325.926 226.155 325.64 225.762 325.256 225.521C324.889 225.264 324.458 225.134 323.962 225.132ZM341.4 230.593C341.397 231.585 341.114 232.4 340.552 233.038C340.005 233.66 339.268 234.114 338.339 234.398C337.41 234.683 336.369 234.799 335.218 234.747C334.082 234.712 332.922 234.523 331.739 234.183C331.742 233.575 331.744 232.951 331.746 232.311C331.748 231.671 331.75 231.047 331.752 230.439C332.423 230.746 333.095 230.988 333.766 231.166C334.437 231.329 335.045 231.427 335.589 231.461C336.133 231.495 336.573 231.456 336.909 231.345C337.246 231.218 337.415 231.011 337.416 230.723C337.416 230.499 337.273 230.323 336.985 230.194C336.714 230.065 336.354 229.951 335.907 229.854C335.459 229.74 334.979 229.611 334.468 229.465C333.972 229.303 333.501 229.085 333.054 228.812C332.607 228.522 332.24 228.145 331.954 227.68C331.684 227.199 331.55 226.583 331.552 225.831C331.556 224.935 331.814 224.176 332.328 223.553C332.859 222.915 333.564 222.438 334.445 222.121C335.327 221.788 336.311 221.623 337.399 221.627C338.487 221.631 339.598 221.819 340.733 222.191C340.731 222.799 340.729 223.423 340.727 224.063C340.724 224.703 340.722 225.327 340.72 225.934C339.826 225.499 338.987 225.208 338.203 225.062C337.42 224.915 336.788 224.897 336.307 225.007C335.827 225.102 335.586 225.317 335.585 225.653C335.584 225.877 335.72 226.053 335.991 226.182C336.279 226.295 336.639 226.4 337.07 226.498C337.518 226.595 337.989 226.725 338.485 226.887C338.996 227.049 339.468 227.274 339.899 227.564C340.346 227.837 340.704 228.222 340.975 228.719C341.261 229.2 341.403 229.825 341.4 230.593ZM352.673 230.632C352.67 231.624 352.387 232.439 351.825 233.077C351.279 233.699 350.541 234.153 349.612 234.437C348.683 234.722 347.643 234.839 346.491 234.787C345.355 234.751 344.196 234.563 343.013 234.223C343.015 233.615 343.017 232.991 343.019 232.351C343.022 231.711 343.024 231.087 343.026 230.479C343.697 230.785 344.368 231.027 345.039 231.206C345.711 231.368 346.318 231.466 346.862 231.5C347.406 231.534 347.846 231.495 348.183 231.384C348.519 231.258 348.688 231.05 348.689 230.762C348.69 230.538 348.546 230.362 348.259 230.233C347.987 230.104 347.628 229.991 347.18 229.893C346.732 229.779 346.253 229.65 345.741 229.504C345.246 229.342 344.775 229.125 344.328 228.851C343.881 228.561 343.514 228.184 343.227 227.719C342.957 227.238 342.823 226.622 342.826 225.87C342.829 224.974 343.088 224.215 343.602 223.592C344.132 222.954 344.838 222.477 345.719 222.16C346.6 221.827 347.584 221.662 348.672 221.666C349.76 221.67 350.872 221.858 352.007 222.23C352.004 222.838 352.002 223.462 352 224.102C351.998 224.742 351.996 225.366 351.994 225.974C351.099 225.539 350.26 225.248 349.477 225.101C348.693 224.954 348.061 224.936 347.581 225.046C347.1 225.141 346.86 225.356 346.858 225.692C346.858 225.916 346.993 226.092 347.265 226.221C347.552 226.334 347.912 226.439 348.344 226.537C348.791 226.635 349.263 226.764 349.758 226.926C350.27 227.088 350.741 227.313 351.172 227.603C351.619 227.876 351.978 228.262 352.248 228.759C352.534 229.24 352.676 229.864 352.673 230.632ZM365.253 233.94C364.147 234.4 363.05 234.684 361.962 234.792C360.873 234.901 359.841 234.833 358.866 234.59C357.907 234.362 357.052 233.967 356.302 233.405C355.552 232.842 354.963 232.128 354.534 231.262C354.121 230.397 353.916 229.396 353.92 228.26C353.924 227.316 354.079 226.453 354.385 225.67C354.708 224.871 355.158 224.177 355.736 223.587C356.315 222.981 356.996 222.519 357.781 222.202C358.566 221.868 359.423 221.703 360.351 221.707C361.183 221.71 361.935 221.848 362.606 222.122C363.277 222.397 363.859 222.783 364.354 223.281C364.848 223.762 365.246 224.34 365.548 225.013C365.849 225.686 366.039 226.422 366.116 227.223C366.193 228.023 366.142 228.871 365.963 229.766C364.651 229.762 363.331 229.757 362.003 229.752C360.675 229.748 359.355 229.743 358.043 229.739C358.345 230.348 358.848 230.781 359.551 231.04C360.27 231.298 361.117 231.381 362.094 231.289C363.086 231.196 364.143 230.944 365.264 230.532C365.262 231.092 365.261 231.66 365.259 232.236C365.257 232.812 365.255 233.38 365.253 233.94ZM360.243 225.258C359.779 225.257 359.346 225.383 358.945 225.638C358.56 225.892 358.263 226.283 358.053 226.811C358.773 226.813 359.493 226.816 360.213 226.818C360.949 226.821 361.677 226.823 362.397 226.826C362.207 226.281 361.921 225.888 361.537 225.647C361.17 225.389 360.739 225.26 360.243 225.258ZM376.468 234.555C376.468 234.427 376.469 234.307 376.469 234.195C376.469 234.067 376.47 233.947 376.47 233.835C376.069 234.169 375.612 234.424 375.1 234.598C374.603 234.788 374.067 234.882 373.491 234.88C372.675 234.877 371.907 234.715 371.188 234.392C370.469 234.07 369.831 233.62 369.273 233.042C368.731 232.448 368.301 231.75 367.984 230.949C367.683 230.148 367.534 229.268 367.537 228.308C367.541 227.332 367.696 226.444 368.003 225.645C368.325 224.846 368.76 224.16 369.306 223.586C369.868 223.012 370.509 222.574 371.23 222.272C371.951 221.955 372.712 221.798 373.512 221.8C374.088 221.802 374.632 221.9 375.143 222.094C375.654 222.272 376.109 222.521 376.508 222.843C376.512 221.883 376.515 220.915 376.518 219.939C376.522 218.963 376.525 217.995 376.529 217.035C377.185 217.037 377.849 217.039 378.521 217.042C379.193 217.044 379.849 217.046 380.489 217.048C380.478 219.944 380.468 222.864 380.458 225.808C380.448 228.752 380.438 231.672 380.428 234.568C379.788 234.566 379.132 234.564 378.46 234.562C377.788 234.559 377.124 234.557 376.468 234.555ZM374.031 231.378C374.799 231.381 375.416 231.103 375.882 230.545C376.348 229.986 376.582 229.251 376.585 228.339C376.588 227.427 376.359 226.698 375.897 226.153C375.435 225.591 374.82 225.309 374.052 225.306C373.268 225.303 372.643 225.573 372.177 226.116C371.727 226.658 371.501 227.393 371.497 228.321C371.494 229.249 371.716 229.994 372.162 230.556C372.624 231.101 373.247 231.375 374.031 231.378Z" fill="#2F4ECD"/>
<path d="M167.173 281.796C167.182 279.108 167.192 276.388 167.201 273.636C167.211 270.884 167.22 268.164 167.23 265.477C168.222 265.48 169.214 265.483 170.206 265.487C171.214 265.49 172.206 265.494 173.181 265.497C174.285 265.501 175.253 265.704 176.083 266.107C176.914 266.494 177.56 267.04 178.022 267.746C178.483 268.436 178.712 269.252 178.709 270.196C178.707 270.868 178.577 271.476 178.319 272.019C178.061 272.562 177.675 273.017 177.162 273.383C177.833 273.785 178.343 274.307 178.693 274.948C179.043 275.574 179.216 276.27 179.213 277.038C179.21 277.998 178.959 278.837 178.461 279.556C177.978 280.274 177.296 280.832 176.415 281.228C175.55 281.625 174.533 281.822 173.365 281.818C172.341 281.814 171.309 281.811 170.269 281.807C169.229 281.804 168.197 281.8 167.173 281.796ZM174.508 270.59C174.509 270.174 174.382 269.837 174.127 269.58C173.872 269.308 173.537 269.17 173.121 269.169C172.833 269.168 172.537 269.167 172.233 269.166C171.945 269.165 171.657 269.164 171.369 269.163C171.367 269.611 171.366 270.075 171.364 270.555C171.362 271.019 171.361 271.483 171.359 271.947C171.647 271.948 171.935 271.949 172.223 271.95C172.527 271.951 172.823 271.952 173.111 271.953C173.527 271.954 173.863 271.836 174.12 271.596C174.377 271.341 174.506 271.006 174.508 270.59ZM175.015 276.64C175.016 276.192 174.866 275.839 174.562 275.582C174.275 275.309 173.876 275.172 173.364 275.17C173.028 275.169 172.692 275.168 172.356 275.166C172.02 275.165 171.684 275.164 171.348 275.163C171.346 275.659 171.344 276.155 171.343 276.651C171.341 277.147 171.339 277.643 171.338 278.139C171.674 278.14 172.01 278.141 172.346 278.142C172.682 278.144 173.018 278.145 173.354 278.146C173.866 278.148 174.266 278.013 174.555 277.742C174.86 277.471 175.013 277.104 175.015 276.64ZM181.35 281.846C181.36 278.95 181.37 276.03 181.38 273.086C181.39 270.142 181.4 267.222 181.41 264.326C182.066 264.328 182.73 264.33 183.402 264.333C184.074 264.335 184.73 264.337 185.37 264.339C185.36 267.235 185.35 270.155 185.34 273.099C185.33 276.043 185.32 278.963 185.31 281.859C184.67 281.857 184.014 281.855 183.342 281.853C182.67 281.85 182.006 281.848 181.35 281.846ZM199.708 269.501C199.701 271.549 199.694 273.621 199.687 275.717C199.68 277.797 199.672 279.861 199.665 281.909C199.025 281.907 198.369 281.905 197.697 281.902C197.025 281.9 196.361 281.898 195.705 281.895C195.706 281.783 195.706 281.679 195.706 281.583C195.707 281.487 195.707 281.383 195.708 281.271C195.274 281.574 194.786 281.804 194.241 281.962C193.712 282.137 193.136 282.223 192.512 282.22C191.6 282.217 190.793 282.006 190.09 281.588C189.404 281.17 188.862 280.568 188.465 279.782C188.083 278.997 187.895 278.068 187.898 276.996C187.903 275.748 187.907 274.492 187.911 273.228C187.916 271.964 187.92 270.708 187.924 269.46C188.58 269.463 189.244 269.465 189.916 269.467C190.588 269.47 191.244 269.472 191.884 269.474C191.88 270.626 191.876 271.794 191.872 272.978C191.868 274.162 191.864 275.33 191.86 276.482C191.858 277.122 192 277.643 192.287 278.044C192.589 278.429 193.061 278.622 193.701 278.624C194.341 278.627 194.837 278.444 195.191 278.078C195.544 277.711 195.722 277.183 195.724 276.495C195.728 275.344 195.732 274.176 195.736 272.992C195.74 271.808 195.744 270.64 195.748 269.488C196.404 269.49 197.068 269.492 197.74 269.494C198.412 269.497 199.068 269.499 199.708 269.501ZM212.982 281.379C211.876 281.84 210.779 282.124 209.691 282.232C208.602 282.34 207.571 282.273 206.595 282.029C205.636 281.802 204.782 281.407 204.032 280.844C203.282 280.282 202.692 279.568 202.263 278.702C201.85 277.837 201.645 276.836 201.649 275.7C201.653 274.756 201.808 273.893 202.114 273.11C202.437 272.311 202.888 271.616 203.466 271.026C204.044 270.42 204.725 269.959 205.51 269.641C206.296 269.308 207.152 269.143 208.08 269.146C208.912 269.149 209.664 269.288 210.335 269.562C211.006 269.837 211.589 270.223 212.083 270.72C212.577 271.202 212.975 271.779 213.277 272.452C213.578 273.125 213.768 273.862 213.845 274.662C213.922 275.463 213.871 276.31 213.692 277.206C212.38 277.201 211.06 277.197 209.732 277.192C208.404 277.188 207.084 277.183 205.772 277.178C206.074 277.787 206.577 278.221 207.28 278.48C207.999 278.738 208.847 278.821 209.823 278.728C210.815 278.636 211.872 278.384 212.994 277.971C212.992 278.531 212.99 279.099 212.988 279.675C212.986 280.251 212.984 280.819 212.982 281.379ZM207.972 272.698C207.508 272.696 207.075 272.823 206.675 273.077C206.29 273.332 205.992 273.723 205.782 274.25C206.502 274.253 207.222 274.255 207.942 274.258C208.678 274.26 209.406 274.263 210.126 274.265C209.936 273.721 209.65 273.328 209.267 273.086C208.899 272.829 208.468 272.7 207.972 272.698ZM215.456 276.42C215.458 275.812 215.46 275.196 215.463 274.572C215.465 273.932 215.467 273.308 215.469 272.7C216.541 272.704 217.621 272.707 218.709 272.711C219.797 272.715 220.877 272.719 221.949 272.723C221.947 273.331 221.945 273.955 221.943 274.595C221.94 275.218 221.938 275.834 221.936 276.442C220.864 276.439 219.784 276.435 218.696 276.431C217.608 276.427 216.528 276.424 215.456 276.42ZM228.02 285.848C227.38 285.845 226.724 285.843 226.052 285.841C225.38 285.839 224.716 285.836 224.06 285.834C224.069 283.162 224.078 280.458 224.088 277.722C224.098 274.97 224.107 272.258 224.116 269.586C224.772 269.588 225.436 269.591 226.108 269.593C226.78 269.595 227.436 269.598 228.076 269.6C228.076 269.712 228.075 269.824 228.075 269.936C228.075 270.048 228.074 270.168 228.074 270.296C228.475 269.977 228.932 269.731 229.444 269.557C229.957 269.366 230.501 269.272 231.077 269.274C231.877 269.277 232.637 269.44 233.356 269.762C234.075 270.069 234.705 270.511 235.247 271.089C235.805 271.667 236.235 272.356 236.536 273.157C236.853 273.958 237.01 274.847 237.007 275.823C237.003 276.783 236.84 277.662 236.518 278.461C236.211 279.26 235.776 279.955 235.214 280.545C234.668 281.119 234.035 281.565 233.314 281.882C232.593 282.2 231.824 282.357 231.008 282.354C230.432 282.352 229.888 282.254 229.377 282.06C228.882 281.883 228.434 281.625 228.036 281.288C228.033 282.04 228.03 282.8 228.028 283.568C228.025 284.336 228.022 285.096 228.02 285.848ZM230.492 278.848C231.276 278.851 231.893 278.581 232.343 278.039C232.809 277.48 233.043 276.737 233.047 275.809C233.05 274.881 232.82 274.144 232.358 273.599C231.912 273.053 231.297 272.779 230.513 272.776C229.745 272.774 229.128 273.051 228.662 273.61C228.196 274.152 227.962 274.879 227.959 275.791C227.956 276.703 228.185 277.44 228.647 278.002C229.109 278.563 229.724 278.846 230.492 278.848ZM250.591 269.678C250.584 271.726 250.577 273.798 250.569 275.894C250.562 277.974 250.555 280.038 250.548 282.086C249.908 282.084 249.252 282.081 248.58 282.079C247.908 282.077 247.244 282.074 246.588 282.072C246.588 281.96 246.589 281.856 246.589 281.76C246.589 281.664 246.59 281.56 246.59 281.448C246.157 281.751 245.668 281.981 245.124 282.139C244.595 282.313 244.019 282.399 243.395 282.397C242.483 282.394 241.675 282.183 240.973 281.765C240.286 281.346 239.744 280.744 239.347 279.959C238.966 279.174 238.777 278.245 238.781 277.173C238.785 275.925 238.789 274.669 238.794 273.405C238.798 272.141 238.803 270.885 238.807 269.637C239.463 269.639 240.127 269.642 240.799 269.644C241.471 269.646 242.127 269.649 242.767 269.651C242.763 270.803 242.759 271.971 242.755 273.155C242.751 274.339 242.747 275.507 242.743 276.659C242.74 277.299 242.883 277.819 243.169 278.22C243.472 278.605 243.943 278.799 244.583 278.801C245.223 278.803 245.72 278.621 246.073 278.254C246.426 277.888 246.604 277.36 246.607 276.672C246.611 275.52 246.615 274.352 246.619 273.168C246.623 271.984 246.627 270.816 246.631 269.664C247.287 269.666 247.951 269.669 248.623 269.671C249.295 269.673 249.951 269.676 250.591 269.678ZM253.182 282.095C253.189 280.047 253.197 277.983 253.204 275.903C253.211 273.807 253.218 271.735 253.225 269.687C253.881 269.689 254.545 269.692 255.217 269.694C255.889 269.696 256.545 269.699 257.185 269.701C257.185 269.813 257.185 269.925 257.184 270.037C257.184 270.149 257.183 270.261 257.183 270.373C257.68 270.023 258.241 269.76 258.866 269.587C259.49 269.413 260.171 269.367 260.906 269.45C260.904 270.09 260.902 270.738 260.9 271.394C260.897 272.05 260.895 272.698 260.893 273.338C259.629 273.157 258.693 273.266 258.084 273.664C257.474 274.046 257.168 274.677 257.165 275.557C257.161 276.629 257.158 277.717 257.154 278.821C257.15 279.925 257.146 281.021 257.142 282.109C256.502 282.107 255.846 282.104 255.174 282.102C254.502 282.1 253.838 282.097 253.182 282.095ZM266.598 285.982C265.958 285.979 265.302 285.977 264.63 285.975C263.958 285.972 263.294 285.97 262.638 285.968C262.647 283.296 262.656 280.592 262.666 277.856C262.675 275.104 262.685 272.392 262.694 269.72C263.35 269.722 264.014 269.725 264.686 269.727C265.358 269.729 266.014 269.731 266.654 269.734C266.654 269.846 266.653 269.958 266.653 270.07C266.653 270.182 266.652 270.302 266.652 270.43C267.053 270.111 267.51 269.865 268.022 269.69C268.535 269.5 269.079 269.406 269.655 269.408C270.455 269.411 271.215 269.574 271.934 269.896C272.653 270.203 273.283 270.645 273.825 271.223C274.383 271.801 274.813 272.49 275.114 273.291C275.431 274.092 275.588 274.981 275.585 275.957C275.581 276.917 275.418 277.796 275.095 278.595C274.789 279.394 274.354 280.088 273.792 280.679C273.246 281.253 272.613 281.698 271.892 282.016C271.17 282.333 270.402 282.491 269.586 282.488C269.01 282.486 268.466 282.388 267.955 282.194C267.459 282.017 267.012 281.759 266.614 281.422C266.611 282.174 266.608 282.934 266.606 283.702C266.603 284.47 266.6 285.23 266.598 285.982ZM269.07 278.982C269.854 278.985 270.471 278.715 270.921 278.173C271.387 277.614 271.621 276.871 271.625 275.943C271.628 275.015 271.398 274.278 270.936 273.733C270.49 273.187 269.875 272.913 269.091 272.91C268.323 272.908 267.706 273.185 267.24 273.744C266.774 274.286 266.54 275.013 266.537 275.925C266.533 276.837 266.763 277.574 267.225 278.136C267.687 278.697 268.302 278.979 269.07 278.982ZM277.654 282.18C277.664 279.284 277.674 276.364 277.684 273.42C277.694 270.476 277.705 267.556 277.715 264.66C278.371 264.662 279.035 264.665 279.707 264.667C280.379 264.669 281.035 264.672 281.675 264.674C281.665 267.57 281.654 270.49 281.644 273.434C281.634 276.378 281.624 279.298 281.614 282.194C280.974 282.191 280.318 282.189 279.646 282.187C278.974 282.185 278.31 282.182 277.654 282.18ZM295.059 281.664C293.954 282.125 292.857 282.409 291.768 282.517C290.68 282.625 289.648 282.558 288.673 282.314C287.714 282.087 286.859 281.692 286.109 281.129C285.359 280.567 284.77 279.853 284.341 278.987C283.928 278.122 283.723 277.121 283.727 275.985C283.73 275.041 283.885 274.178 284.192 273.395C284.515 272.596 284.965 271.901 285.543 271.311C286.121 270.705 286.803 270.244 287.588 269.926C288.373 269.593 289.23 269.428 290.158 269.431C290.99 269.434 291.741 269.573 292.412 269.847C293.083 270.121 293.666 270.507 294.16 271.005C294.655 271.487 295.053 272.064 295.354 272.737C295.656 273.41 295.846 274.147 295.923 274.947C296 275.748 295.949 276.595 295.77 277.491C294.458 277.486 293.138 277.482 291.81 277.477C290.482 277.472 289.162 277.468 287.85 277.463C288.152 278.072 288.654 278.506 289.357 278.765C290.077 279.023 290.924 279.106 291.901 279.013C292.893 278.921 293.95 278.669 295.071 278.256C295.069 278.816 295.067 279.384 295.065 279.96C295.063 280.536 295.061 281.104 295.059 281.664ZM290.05 272.983C289.586 272.981 289.153 273.108 288.752 273.362C288.367 273.617 288.07 274.008 287.86 274.535C288.58 274.538 289.3 274.54 290.02 274.543C290.756 274.545 291.484 274.548 292.204 274.55C292.014 274.006 291.727 273.613 291.344 273.371C290.977 273.114 290.546 272.985 290.05 272.983Z" fill="#2F4ECD"/>
<path d="M166.206 327.955C166.216 325.267 166.225 322.547 166.235 319.795C166.244 317.043 166.254 314.323 166.263 311.635C166.967 311.638 167.671 311.64 168.375 311.643C169.079 311.645 169.775 311.648 170.463 311.65C170.456 313.714 170.449 315.802 170.441 317.914C170.434 320.01 170.427 322.09 170.42 324.154C171.268 324.157 172.124 324.16 172.988 324.163C173.852 324.166 174.7 324.169 175.532 324.172C175.529 324.796 175.527 325.436 175.525 326.092C175.523 326.732 175.52 327.364 175.518 327.988C173.982 327.982 172.43 327.977 170.862 327.971C169.294 327.966 167.742 327.961 166.206 327.955ZM179.728 314.178C179.264 314.176 178.84 314.063 178.457 313.838C178.09 313.612 177.795 313.315 177.572 312.947C177.349 312.578 177.239 312.169 177.24 311.721C177.242 311.273 177.355 310.874 177.58 310.523C177.806 310.155 178.103 309.86 178.472 309.638C178.856 309.415 179.281 309.305 179.745 309.306C180.193 309.308 180.6 309.421 180.968 309.646C181.351 309.872 181.654 310.169 181.876 310.538C182.099 310.89 182.21 311.291 182.208 311.739C182.207 312.187 182.093 312.594 181.868 312.962C181.643 313.329 181.338 313.624 180.953 313.846C180.584 314.069 180.176 314.18 179.728 314.178ZM177.688 327.995C177.695 325.947 177.702 323.883 177.709 321.803C177.717 319.707 177.724 317.635 177.731 315.587C178.387 315.589 179.051 315.592 179.723 315.594C180.395 315.596 181.051 315.599 181.691 315.601C181.684 317.649 181.677 319.721 181.669 321.817C181.662 323.897 181.655 325.961 181.648 328.009C181.008 328.007 180.352 328.004 179.68 328.002C179.008 328 178.344 327.997 177.688 327.995ZM196.082 326.043C196.078 327.403 195.778 328.538 195.183 329.448C194.603 330.358 193.809 331.035 192.8 331.48C191.79 331.94 190.637 332.176 189.341 332.188C188.061 332.199 186.71 332.002 185.287 331.597C185.289 330.973 185.291 330.341 185.294 329.702C185.296 329.078 185.298 328.454 185.3 327.83C186.562 328.33 187.706 328.582 188.73 328.585C189.754 328.605 190.562 328.416 191.156 328.018C191.765 327.604 192.071 327.037 192.073 326.317C192.074 326.237 192.074 326.165 192.074 326.101C192.075 326.021 192.075 325.949 192.075 325.885C191.674 326.188 191.209 326.426 190.68 326.6C190.152 326.774 189.584 326.86 188.976 326.858C187.968 326.855 187.064 326.62 186.266 326.153C185.484 325.67 184.87 325.012 184.425 324.178C183.98 323.329 183.759 322.344 183.763 321.224C183.766 320.36 183.913 319.569 184.203 318.85C184.494 318.131 184.896 317.508 185.41 316.982C185.924 316.456 186.509 316.058 187.166 315.788C187.823 315.502 188.511 315.361 189.231 315.363C189.807 315.365 190.343 315.447 190.839 315.609C191.334 315.77 191.773 315.988 192.156 316.261C192.157 316.149 192.157 316.045 192.157 315.949C192.158 315.853 192.158 315.749 192.159 315.637C192.815 315.64 193.479 315.642 194.151 315.644C194.823 315.646 195.479 315.649 196.119 315.651C196.113 317.363 196.107 319.099 196.1 320.859C196.094 322.603 196.088 324.331 196.082 326.043ZM189.971 323.43C190.643 323.432 191.18 323.226 191.582 322.811C191.999 322.381 192.209 321.829 192.211 321.157C192.214 320.469 192.008 319.909 191.593 319.475C191.195 319.042 190.659 318.824 189.987 318.822C189.283 318.819 188.723 319.033 188.305 319.464C187.888 319.878 187.678 320.438 187.675 321.142C187.673 321.83 187.879 322.382 188.294 322.8C188.708 323.217 189.267 323.427 189.971 323.43ZM198.828 328.068C198.838 325.172 198.849 322.253 198.859 319.309C198.869 316.365 198.879 313.445 198.889 310.549C199.545 310.551 200.209 310.553 200.881 310.555C201.553 310.558 202.209 310.56 202.849 310.562C202.846 311.506 202.843 312.466 202.839 313.442C202.836 314.402 202.832 315.354 202.829 316.298C203.262 315.996 203.743 315.765 204.272 315.607C204.816 315.433 205.401 315.347 206.025 315.349C206.937 315.353 207.736 315.563 208.422 315.982C209.125 316.4 209.667 317.002 210.048 317.787C210.445 318.557 210.642 319.485 210.638 320.573C210.634 321.821 210.63 323.077 210.625 324.341C210.621 325.605 210.617 326.861 210.612 328.109C209.972 328.107 209.316 328.105 208.644 328.103C207.972 328.1 207.308 328.098 206.652 328.096C206.656 326.944 206.66 325.776 206.664 324.592C206.669 323.408 206.673 322.24 206.677 321.088C206.679 320.448 206.529 319.935 206.226 319.55C205.939 319.149 205.476 318.947 204.836 318.945C204.196 318.943 203.699 319.125 203.346 319.492C202.993 319.859 202.815 320.386 202.813 321.074C202.809 322.226 202.805 323.394 202.8 324.578C202.796 325.762 202.792 326.93 202.788 328.082C202.148 328.08 201.492 328.078 200.82 328.075C200.148 328.073 199.484 328.071 198.828 328.068ZM214.371 328.122C214.377 326.65 214.382 325.17 214.387 323.682C214.392 322.194 214.397 320.722 214.402 319.266C214.082 319.265 213.754 319.264 213.418 319.263C213.098 319.262 212.778 319.261 212.458 319.26C212.46 318.668 212.462 318.076 212.464 317.484C212.466 316.892 212.468 316.3 212.47 315.708C212.79 315.709 213.11 315.71 213.43 315.711C213.766 315.712 214.094 315.713 214.414 315.715C214.416 315.155 214.418 314.603 214.42 314.059C214.422 313.499 214.424 312.947 214.426 312.403C215.082 312.405 215.746 312.407 216.418 312.409C217.09 312.412 217.746 312.414 218.386 312.416C218.384 312.96 218.382 313.512 218.38 314.072C218.378 314.616 218.376 315.168 218.374 315.728C218.742 315.73 219.118 315.731 219.502 315.732C219.886 315.734 220.262 315.735 220.63 315.736C220.628 316.328 220.626 316.92 220.624 317.512C220.622 318.104 220.62 318.696 220.618 319.288C220.25 319.287 219.874 319.285 219.49 319.284C219.106 319.283 218.73 319.282 218.362 319.28C218.357 320.736 218.352 322.208 218.347 323.696C218.342 325.184 218.336 326.664 218.331 328.136C217.691 328.134 217.035 328.132 216.363 328.129C215.691 328.127 215.027 328.125 214.371 328.122ZM227.536 328.168C227.543 326.12 227.551 324.056 227.558 321.976C227.565 319.88 227.572 317.808 227.579 315.76C228.235 315.762 228.899 315.765 229.571 315.767C230.243 315.769 230.899 315.772 231.539 315.774C231.539 315.886 231.539 315.99 231.538 316.086C231.538 316.182 231.538 316.286 231.537 316.398C231.954 316.095 232.419 315.865 232.932 315.707C233.444 315.533 233.972 315.446 234.516 315.448C235.108 315.45 235.652 315.556 236.147 315.766C236.643 315.96 237.066 316.249 237.416 316.634C237.93 316.268 238.507 315.982 239.147 315.776C239.804 315.571 240.476 315.469 241.164 315.471C242.14 315.475 242.98 315.678 243.682 316.08C244.401 316.483 244.951 317.053 245.332 317.79C245.73 318.527 245.927 319.416 245.923 320.456C245.919 321.736 245.914 323.032 245.91 324.344C245.905 325.656 245.901 326.952 245.896 328.232C245.256 328.23 244.6 328.227 243.928 328.225C243.256 328.223 242.592 328.22 241.936 328.218C241.94 327.018 241.945 325.802 241.949 324.57C241.953 323.338 241.957 322.122 241.962 320.922C241.963 320.378 241.837 319.938 241.582 319.601C241.343 319.248 240.952 319.071 240.408 319.069C239.88 319.067 239.463 319.233 239.158 319.568C238.869 319.887 238.724 320.335 238.722 320.911C238.717 322.111 238.713 323.327 238.709 324.559C238.705 325.791 238.7 327.007 238.696 328.207C238.056 328.205 237.4 328.202 236.728 328.2C236.056 328.198 235.392 328.195 234.736 328.193C234.74 326.993 234.745 325.777 234.749 324.545C234.753 323.313 234.757 322.097 234.762 320.897C234.763 320.353 234.637 319.913 234.382 319.576C234.143 319.223 233.752 319.046 233.208 319.044C232.68 319.042 232.263 319.208 231.958 319.543C231.669 319.862 231.524 320.31 231.522 320.886C231.517 322.086 231.513 323.302 231.509 324.534C231.505 325.766 231.5 326.982 231.496 328.182C230.856 328.18 230.2 328.177 229.528 328.175C228.856 328.173 228.192 328.17 227.536 328.168ZM259.984 315.873C259.977 317.921 259.969 319.993 259.962 322.089C259.955 324.169 259.948 326.233 259.941 328.281C259.301 328.278 258.645 328.276 257.973 328.274C257.301 328.271 256.637 328.269 255.981 328.267C255.981 328.155 255.981 328.051 255.982 327.955C255.982 327.859 255.982 327.755 255.983 327.643C255.55 327.945 255.061 328.176 254.516 328.334C253.988 328.508 253.411 328.594 252.787 328.592C251.875 328.589 251.068 328.378 250.366 327.959C249.679 327.541 249.137 326.939 248.74 326.154C248.359 325.368 248.17 324.44 248.174 323.368C248.178 322.12 248.182 320.864 248.187 319.6C248.191 318.336 248.195 317.08 248.2 315.832C248.856 315.834 249.52 315.836 250.192 315.839C250.864 315.841 251.52 315.843 252.16 315.846C252.156 316.998 252.152 318.166 252.148 319.35C252.143 320.534 252.139 321.702 252.135 322.853C252.133 323.493 252.275 324.014 252.562 324.415C252.865 324.8 253.336 324.994 253.976 324.996C254.616 324.998 255.113 324.816 255.466 324.449C255.819 324.082 255.997 323.555 255.999 322.867C256.003 321.715 256.007 320.547 256.012 319.363C256.016 318.179 256.02 317.011 256.024 315.859C256.68 315.861 257.344 315.864 258.016 315.866C258.688 315.868 259.344 315.87 259.984 315.873ZM272.068 324.483C272.065 325.475 271.782 326.29 271.22 326.928C270.674 327.55 269.936 328.003 269.007 328.288C268.078 328.573 267.038 328.689 265.886 328.637C264.75 328.601 263.591 328.413 262.408 328.073C262.41 327.465 262.412 326.841 262.414 326.201C262.417 325.561 262.419 324.937 262.421 324.329C263.092 324.636 263.763 324.878 264.434 325.056C265.106 325.219 265.713 325.317 266.257 325.351C266.801 325.384 267.241 325.346 267.578 325.235C267.914 325.108 268.083 324.901 268.084 324.613C268.085 324.389 267.941 324.212 267.654 324.083C267.382 323.954 267.023 323.841 266.575 323.744C266.127 323.63 265.648 323.5 265.136 323.355C264.641 323.193 264.17 322.975 263.723 322.702C263.276 322.412 262.909 322.035 262.622 321.57C262.352 321.089 262.218 320.472 262.221 319.72C262.224 318.824 262.483 318.065 262.997 317.443C263.527 316.805 264.233 316.327 265.114 316.011C265.995 315.678 266.98 315.513 268.067 315.517C269.155 315.521 270.267 315.708 271.402 316.08C271.399 316.688 271.397 317.312 271.395 317.952C271.393 318.592 271.391 319.216 271.389 319.824C270.494 319.389 269.655 319.098 268.872 318.952C268.088 318.805 267.456 318.787 266.976 318.897C266.495 318.991 266.255 319.206 266.254 319.542C266.253 319.766 266.388 319.943 266.66 320.072C266.947 320.185 267.307 320.29 267.739 320.388C268.186 320.485 268.658 320.615 269.153 320.777C269.665 320.938 270.136 321.164 270.567 321.453C271.014 321.727 271.373 322.112 271.643 322.609C271.929 323.09 272.071 323.715 272.068 324.483ZM276.126 314.513C275.662 314.511 275.238 314.398 274.855 314.172C274.488 313.947 274.193 313.65 273.97 313.281C273.747 312.912 273.637 312.504 273.638 312.056C273.64 311.608 273.753 311.208 273.978 310.857C274.204 310.49 274.501 310.195 274.869 309.972C275.254 309.75 275.679 309.639 276.143 309.641C276.591 309.642 276.998 309.756 277.365 309.981C277.749 310.206 278.052 310.503 278.274 310.872C278.497 311.225 278.608 311.625 278.606 312.073C278.605 312.521 278.491 312.929 278.266 313.296C278.041 313.663 277.736 313.958 277.351 314.181C276.982 314.404 276.574 314.514 276.126 314.513ZM274.086 328.33C274.093 326.282 274.1 324.218 274.107 322.138C274.114 320.042 274.122 317.97 274.129 315.922C274.785 315.924 275.449 315.926 276.121 315.929C276.793 315.931 277.449 315.933 278.089 315.936C278.082 317.984 278.074 320.056 278.067 322.152C278.06 324.232 278.053 326.295 278.046 328.343C277.406 328.341 276.75 328.339 276.078 328.337C275.406 328.334 274.742 328.332 274.086 328.33ZM280.159 322.135C280.163 320.919 280.415 319.856 280.914 318.945C281.413 318.019 282.104 317.278 282.986 316.721C283.868 316.164 284.893 315.831 286.061 315.723C287.23 315.599 288.477 315.74 289.804 316.144C289.802 316.752 289.8 317.368 289.797 317.992C289.795 318.616 289.793 319.232 289.791 319.84C288.865 319.389 287.977 319.178 287.129 319.207C286.281 319.236 285.584 319.498 285.038 319.992C284.493 320.47 284.218 321.189 284.215 322.149C284.212 323.109 284.481 323.838 285.023 324.336C285.566 324.818 286.261 325.076 287.109 325.111C287.957 325.13 288.845 324.925 289.775 324.496C289.773 325.104 289.771 325.72 289.768 326.344C289.766 326.968 289.764 327.584 289.762 328.192C288.433 328.588 287.184 328.719 286.017 328.587C284.849 328.471 283.826 328.132 282.948 327.568C282.07 327.005 281.385 326.267 280.892 325.353C280.399 324.424 280.155 323.351 280.159 322.135Z" fill="#2F4ECD"/>
<path d="M166.221 374.94C166.23 372.252 166.24 369.532 166.249 366.78C166.259 364.028 166.268 361.308 166.278 358.62C167.27 358.623 168.262 358.627 169.254 358.63C170.262 358.634 171.254 358.637 172.23 358.641C173.462 358.645 174.533 358.889 175.443 359.372C176.353 359.839 177.063 360.497 177.572 361.347C178.081 362.197 178.334 363.19 178.33 364.326C178.326 365.446 178.067 366.429 177.552 367.275C177.053 368.121 176.362 368.775 175.481 369.236C174.615 369.697 173.63 369.926 172.526 369.922C172.174 369.92 171.822 369.919 171.47 369.918C171.134 369.917 170.79 369.916 170.438 369.914C170.436 370.746 170.433 371.586 170.43 372.434C170.427 373.282 170.424 374.122 170.421 374.954C169.733 374.952 169.037 374.95 168.333 374.947C167.629 374.945 166.925 374.942 166.221 374.94ZM172.217 362.409C171.929 362.408 171.633 362.407 171.329 362.406C171.041 362.405 170.753 362.404 170.465 362.403C170.462 363.042 170.46 363.69 170.458 364.346C170.456 364.986 170.453 365.626 170.451 366.266C170.771 366.268 171.099 366.269 171.435 366.27C171.787 366.271 172.123 366.272 172.443 366.273C172.939 366.275 173.34 366.093 173.645 365.726C173.966 365.359 174.128 364.903 174.13 364.359C174.132 363.799 173.965 363.335 173.631 362.965C173.296 362.596 172.825 362.411 172.217 362.409ZM182.367 361.172C181.903 361.17 181.48 361.057 181.097 360.831C180.729 360.606 180.434 360.309 180.212 359.94C179.989 359.572 179.878 359.163 179.88 358.715C179.881 358.267 179.995 357.868 180.22 357.516C180.445 357.149 180.742 356.854 181.111 356.631C181.496 356.409 181.92 356.298 182.384 356.3C182.832 356.301 183.24 356.415 183.607 356.64C183.99 356.865 184.293 357.162 184.516 357.531C184.739 357.884 184.849 358.284 184.848 358.732C184.846 359.18 184.733 359.588 184.508 359.955C184.282 360.322 183.977 360.617 183.593 360.84C183.224 361.063 182.815 361.173 182.367 361.172ZM180.327 374.989C180.335 372.941 180.342 370.877 180.349 368.797C180.356 366.701 180.363 364.629 180.371 362.581C181.027 362.583 181.691 362.585 182.363 362.588C183.035 362.59 183.691 362.592 184.331 362.595C184.323 364.643 184.316 366.715 184.309 368.811C184.302 370.891 184.295 372.955 184.287 375.003C183.647 375 182.991 374.998 182.319 374.996C181.647 374.993 180.983 374.991 180.327 374.989ZM195.331 375.041C195.332 374.913 195.332 374.793 195.332 374.681C195.333 374.553 195.333 374.433 195.334 374.321C194.932 374.656 194.476 374.91 193.963 375.084C193.466 375.274 192.93 375.369 192.354 375.367C191.538 375.364 190.771 375.209 190.052 374.903C189.333 374.58 188.694 374.13 188.136 373.552C187.594 372.958 187.165 372.261 186.847 371.459C186.546 370.658 186.397 369.77 186.401 368.794C186.404 367.802 186.559 366.906 186.866 366.107C187.189 365.309 187.623 364.63 188.169 364.072C188.731 363.498 189.373 363.06 190.094 362.759C190.815 362.441 191.575 362.284 192.375 362.287C192.951 362.289 193.495 362.386 194.006 362.58C194.518 362.758 194.973 363.008 195.372 363.329C195.372 363.201 195.373 363.081 195.373 362.969C195.373 362.857 195.374 362.745 195.374 362.633C196.03 362.635 196.694 362.638 197.366 362.64C198.038 362.642 198.694 362.645 199.334 362.647C199.327 364.695 199.32 366.767 199.313 368.863C199.305 370.943 199.298 373.007 199.291 375.055C198.651 375.052 197.995 375.05 197.323 375.048C196.651 375.045 195.987 375.043 195.331 375.041ZM192.894 371.864C193.662 371.867 194.279 371.589 194.745 371.031C195.211 370.472 195.446 369.737 195.449 368.825C195.452 367.913 195.222 367.184 194.76 366.639C194.298 366.077 193.683 365.795 192.915 365.792C192.131 365.79 191.506 366.06 191.04 366.602C190.59 367.144 190.364 367.88 190.361 368.808C190.358 369.736 190.579 370.48 191.025 371.042C191.487 371.588 192.11 371.862 192.894 371.864ZM201.934 375.064C201.941 373.016 201.948 370.952 201.955 368.872C201.963 366.776 201.97 364.704 201.977 362.656C202.633 362.658 203.297 362.66 203.969 362.663C204.641 362.665 205.297 362.667 205.937 362.67C205.937 362.782 205.936 362.886 205.936 362.982C205.936 363.078 205.935 363.182 205.935 363.294C206.368 362.991 206.849 362.761 207.377 362.603C207.922 362.429 208.506 362.343 209.13 362.345C210.042 362.348 210.841 362.559 211.528 362.977C212.23 363.395 212.772 363.997 213.154 364.783C213.551 365.552 213.748 366.481 213.744 367.569C213.74 368.817 213.735 370.073 213.731 371.337C213.727 372.601 213.722 373.857 213.718 375.105C213.078 375.103 212.422 375.1 211.75 375.098C211.078 375.096 210.414 375.093 209.758 375.091C209.762 373.939 209.766 372.771 209.77 371.587C209.774 370.403 209.778 369.235 209.782 368.083C209.784 367.443 209.634 366.931 209.332 366.545C209.045 366.144 208.582 365.943 207.942 365.941C207.302 365.938 206.805 366.121 206.452 366.487C206.098 366.854 205.921 367.382 205.918 368.07C205.914 369.222 205.91 370.39 205.906 371.574C205.902 372.758 205.898 373.926 205.894 375.078C205.254 375.075 204.598 375.073 203.926 375.071C203.254 375.068 202.59 375.066 201.934 375.064ZM222.039 375.518C221.111 375.514 220.248 375.351 219.449 375.029C218.65 374.69 217.955 374.223 217.366 373.629C216.776 373.019 216.314 372.314 215.981 371.513C215.664 370.711 215.507 369.839 215.51 368.895C215.513 367.951 215.676 367.079 215.999 366.281C216.338 365.482 216.804 364.787 217.398 364.197C217.992 363.608 218.69 363.154 219.491 362.837C220.292 362.503 221.157 362.338 222.085 362.342C223.029 362.345 223.892 362.516 224.675 362.855C225.474 363.177 226.168 363.636 226.758 364.23C227.348 364.824 227.802 365.522 228.119 366.323C228.452 367.124 228.617 367.996 228.614 368.94C228.611 369.884 228.44 370.756 228.101 371.555C227.778 372.354 227.32 373.056 226.725 373.662C226.131 374.252 225.434 374.713 224.633 375.047C223.848 375.364 222.983 375.521 222.039 375.518ZM222.051 371.942C222.835 371.944 223.46 371.667 223.926 371.108C224.408 370.534 224.651 369.807 224.654 368.927C224.657 368.031 224.42 367.31 223.941 366.764C223.479 366.203 222.856 365.92 222.072 365.918C221.288 365.915 220.655 366.193 220.173 366.751C219.708 367.293 219.473 368.013 219.47 368.909C219.467 369.789 219.696 370.517 220.158 371.095C220.636 371.657 221.267 371.939 222.051 371.942ZM235.59 375.181C235.597 373.133 235.604 371.069 235.611 368.989C235.619 366.893 235.626 364.821 235.633 362.773C236.289 362.775 236.953 362.777 237.625 362.78C238.297 362.782 238.953 362.784 239.593 362.786C239.593 362.898 239.592 363.002 239.592 363.098C239.592 363.194 239.591 363.298 239.591 363.41C240.008 363.108 240.473 362.878 240.985 362.719C241.498 362.545 242.026 362.459 242.57 362.461C243.162 362.463 243.706 362.569 244.201 362.778C244.696 362.972 245.119 363.262 245.47 363.647C245.983 363.281 246.56 362.995 247.201 362.789C247.858 362.583 248.53 362.482 249.218 362.484C250.194 362.487 251.033 362.69 251.736 363.093C252.455 363.495 253.005 364.065 253.386 364.802C253.784 365.54 253.98 366.428 253.977 367.468C253.972 368.748 253.968 370.044 253.963 371.356C253.959 372.668 253.954 373.964 253.95 375.244C253.31 375.242 252.654 375.24 251.982 375.238C251.31 375.235 250.646 375.233 249.99 375.231C249.994 374.031 249.998 372.815 250.003 371.583C250.007 370.351 250.011 369.135 250.015 367.935C250.017 367.391 249.891 366.95 249.636 366.613C249.397 366.261 249.006 366.083 248.462 366.081C247.934 366.079 247.517 366.246 247.212 366.581C246.923 366.9 246.777 367.347 246.775 367.923C246.771 369.123 246.767 370.339 246.763 371.571C246.758 372.803 246.754 374.019 246.75 375.219C246.11 375.217 245.454 375.215 244.782 375.213C244.11 375.21 243.446 375.208 242.79 375.206C242.794 374.006 242.798 372.79 242.803 371.558C242.807 370.326 242.811 369.11 242.815 367.91C242.817 367.366 242.691 366.925 242.436 366.588C242.197 366.236 241.806 366.058 241.262 366.056C240.734 366.054 240.317 366.221 240.012 366.556C239.723 366.875 239.577 367.322 239.575 367.898C239.571 369.098 239.567 370.314 239.563 371.546C239.558 372.778 239.554 373.994 239.55 375.194C238.91 375.192 238.254 375.19 237.582 375.188C236.91 375.185 236.246 375.183 235.59 375.181ZM267.084 374.714C265.979 375.174 264.882 375.458 263.793 375.567C262.705 375.675 261.673 375.607 260.698 375.364C259.739 375.136 258.884 374.742 258.134 374.179C257.384 373.616 256.794 372.902 256.365 372.037C255.952 371.171 255.748 370.171 255.752 369.035C255.755 368.091 255.91 367.227 256.217 366.444C256.54 365.645 256.99 364.951 257.568 364.361C258.146 363.755 258.828 363.293 259.613 362.976C260.398 362.643 261.255 362.478 262.183 362.481C263.015 362.484 263.766 362.622 264.437 362.897C265.108 363.171 265.691 363.557 266.185 364.055C266.68 364.537 267.078 365.114 267.379 365.787C267.681 366.46 267.87 367.197 267.948 367.997C268.025 368.797 267.974 369.645 267.795 370.54C266.483 370.536 265.163 370.531 263.835 370.527C262.507 370.522 261.187 370.517 259.875 370.513C260.177 371.122 260.679 371.556 261.382 371.814C262.101 372.073 262.949 372.156 263.925 372.063C264.918 371.97 265.975 371.718 267.096 371.306C267.094 371.866 267.092 372.434 267.09 373.01C267.088 373.586 267.086 374.154 267.084 374.714ZM262.074 366.033C261.61 366.031 261.178 366.157 260.777 366.412C260.392 366.667 260.095 367.058 259.885 367.585C260.605 367.587 261.325 367.59 262.045 367.592C262.781 367.595 263.509 367.598 264.229 367.6C264.039 367.055 263.752 366.662 263.369 366.421C263.002 366.164 262.57 366.034 262.074 366.033ZM270.139 375.301C270.149 372.405 270.16 369.485 270.17 366.541C270.18 363.597 270.19 360.677 270.2 357.781C270.856 357.783 271.52 357.785 272.192 357.788C272.864 357.79 273.52 357.792 274.16 357.794C274.15 360.69 274.14 363.61 274.13 366.554C274.12 369.498 274.109 372.418 274.099 375.314C273.459 375.312 272.803 375.31 272.131 375.308C271.459 375.305 270.795 375.303 270.139 375.301ZM282.742 375.728C281.814 375.725 280.95 375.562 280.151 375.239C279.353 374.901 278.658 374.434 278.068 373.84C277.478 373.23 277.017 372.524 276.684 371.723C276.366 370.922 276.209 370.05 276.213 369.106C276.216 368.162 276.379 367.29 276.702 366.491C277.041 365.692 277.507 364.998 278.101 364.408C278.695 363.818 279.393 363.365 280.194 363.047C280.995 362.714 281.86 362.549 282.787 362.552C283.731 362.556 284.595 362.727 285.378 363.065C286.177 363.388 286.871 363.847 287.461 364.441C288.051 365.035 288.504 365.732 288.822 366.533C289.155 367.335 289.32 368.207 289.317 369.151C289.313 370.095 289.142 370.967 288.804 371.765C288.481 372.564 288.022 373.267 287.428 373.873C286.834 374.463 286.137 374.924 285.335 375.257C284.55 375.575 283.686 375.732 282.742 375.728ZM282.754 372.152C283.538 372.155 284.163 371.877 284.629 371.319C285.111 370.745 285.354 370.017 285.357 369.137C285.36 368.241 285.122 367.521 284.644 366.975C284.182 366.413 283.559 366.131 282.775 366.128C281.991 366.126 281.358 366.403 280.876 366.962C280.41 367.504 280.176 368.223 280.173 369.119C280.17 369.999 280.399 370.728 280.861 371.306C281.339 371.867 281.97 372.15 282.754 372.152ZM299.534 375.403C299.534 375.275 299.534 375.155 299.535 375.043C299.535 374.915 299.536 374.795 299.536 374.683C299.135 375.017 298.678 375.272 298.165 375.446C297.669 375.636 297.132 375.73 296.556 375.728C295.74 375.725 294.973 375.563 294.254 375.24C293.535 374.918 292.897 374.468 292.339 373.89C291.797 373.296 291.367 372.598 291.05 371.797C290.749 370.996 290.6 370.116 290.603 369.156C290.607 368.18 290.762 367.292 291.068 366.493C291.391 365.694 291.826 365.008 292.372 364.434C292.934 363.86 293.575 363.422 294.296 363.12C295.017 362.803 295.778 362.646 296.578 362.648C297.154 362.65 297.698 362.748 298.209 362.942C298.72 363.12 299.175 363.369 299.574 363.691C299.578 362.731 299.581 361.763 299.584 360.787C299.588 359.811 299.591 358.843 299.594 357.883C300.25 357.885 300.914 357.887 301.586 357.89C302.258 357.892 302.914 357.894 303.554 357.896C303.544 360.792 303.534 363.712 303.524 366.656C303.514 369.6 303.504 372.52 303.494 375.416C302.854 375.414 302.198 375.412 301.526 375.41C300.854 375.407 300.19 375.405 299.534 375.403ZM297.097 372.226C297.865 372.229 298.482 371.951 298.948 371.393C299.413 370.834 299.648 370.099 299.651 369.187C299.654 368.275 299.425 367.546 298.963 367.001C298.501 366.439 297.886 366.157 297.118 366.154C296.334 366.151 295.709 366.421 295.243 366.964C294.793 367.506 294.566 368.241 294.563 369.169C294.56 370.097 294.781 370.842 295.227 371.404C295.69 371.949 296.313 372.223 297.097 372.226ZM307.392 379.27C307.715 378.423 308.046 377.568 308.385 376.705C308.74 375.859 309.079 375.02 309.402 374.189C308.656 372.346 307.895 370.488 307.117 368.613C306.356 366.722 305.602 364.856 304.857 363.013C305.561 363.015 306.265 363.018 306.969 363.02C307.673 363.023 308.369 363.025 309.057 363.028C309.469 364.053 309.881 365.095 310.294 366.152C310.722 367.209 311.142 368.259 311.555 369.3C311.942 368.262 312.338 367.215 312.742 366.16C313.145 365.106 313.541 364.067 313.929 363.045C314.617 363.047 315.305 363.049 315.993 363.052C316.681 363.054 317.369 363.056 318.057 363.059C316.975 365.727 315.886 368.435 314.788 371.184C313.707 373.916 312.625 376.616 311.544 379.284C310.856 379.282 310.16 379.28 309.456 379.277C308.768 379.275 308.08 379.272 307.392 379.27Z" fill="#2F4ECD"/>
</svg>
