<svg width="386" height="629" viewBox="0 0 386 629" fill="none" xmlns="http://www.w3.org/2000/svg">
<path d="M363.63 2C374.676 2 383.63 10.9543 383.63 22V606.39C383.63 617.435 374.676 626.39 363.63 626.39H22C10.9543 626.39 2 617.435 2 606.39V22C2 10.9543 10.9543 2 22 2H363.63Z" fill="#FBF6F2" stroke="#404040" stroke-width="4"/>
<path d="M4 515.384H381.63V606.39C381.63 616.331 373.571 624.39 363.63 624.39H22C12.0589 624.39 4 616.331 4 606.39V515.384Z" fill="#F4E3D5"/>
<path d="M57.0174 258.196C57.3854 259.844 57.7534 261.516 58.1214 263.212C58.4894 264.908 58.8494 266.588 59.2014 268.252C59.5694 266.588 59.9374 264.908 60.3054 263.212C60.6894 261.516 61.0574 259.844 61.4094 258.196C62.0334 258.196 62.6654 258.196 63.3054 258.196C63.9454 258.196 64.5774 258.196 65.2014 258.196C65.5854 259.844 65.9694 261.508 66.3534 263.188C66.7374 264.868 67.1214 266.54 67.5054 268.204C67.8734 266.54 68.2334 264.868 68.5854 263.188C68.9534 261.508 69.3134 259.844 69.6654 258.196C70.3054 258.196 70.9454 258.196 71.5854 258.196C72.2414 258.196 72.8894 258.196 73.5294 258.196C72.9374 260.884 72.3454 263.604 71.7534 266.356C71.1614 269.108 70.5694 271.828 69.9774 274.516C69.1934 274.516 68.3934 274.516 67.5774 274.516C66.7774 274.516 65.9774 274.516 65.1774 274.516C64.8414 273.028 64.4974 271.532 64.1454 270.028C63.7934 268.508 63.4494 267.004 63.1134 265.516C62.7934 267.004 62.4654 268.508 62.1294 270.028C61.7934 271.532 61.4654 273.028 61.1454 274.516C60.3614 274.516 59.5694 274.516 58.7694 274.516C57.9854 274.516 57.2014 274.516 56.4174 274.516C55.8254 271.828 55.2334 269.108 54.6414 266.356C54.0494 263.604 53.4574 260.884 52.8654 258.196C53.5534 258.196 54.2414 258.196 54.9294 258.196C55.6334 258.196 56.3294 258.196 57.0174 258.196ZM77.3124 260.692C76.8484 260.692 76.4244 260.58 76.0404 260.356C75.6724 260.132 75.3764 259.836 75.1524 259.468C74.9284 259.1 74.8164 258.692 74.8164 258.244C74.8164 257.796 74.9284 257.396 75.1524 257.044C75.3764 256.676 75.6724 256.38 76.0404 256.156C76.4244 255.932 76.8484 255.82 77.3124 255.82C77.7604 255.82 78.1684 255.932 78.5364 256.156C78.9204 256.38 79.2244 256.676 79.4484 257.044C79.6724 257.396 79.7844 257.796 79.7844 258.244C79.7844 258.692 79.6724 259.1 79.4484 259.468C79.2244 259.836 78.9204 260.132 78.5364 260.356C78.1684 260.58 77.7604 260.692 77.3124 260.692ZM75.3204 274.516C75.3204 272.468 75.3204 270.404 75.3204 268.324C75.3204 266.228 75.3204 264.156 75.3204 262.108C75.9764 262.108 76.6404 262.108 77.3124 262.108C77.9844 262.108 78.6404 262.108 79.2804 262.108C79.2804 264.156 79.2804 266.228 79.2804 268.324C79.2804 270.404 79.2804 272.468 79.2804 274.516C78.6404 274.516 77.9844 274.516 77.3124 274.516C76.6404 274.516 75.9764 274.516 75.3204 274.516ZM83.3401 274.516C83.3401 273.044 83.3401 271.564 83.3401 270.076C83.3401 268.588 83.3401 267.116 83.3401 265.66C83.0201 265.66 82.6921 265.66 82.3561 265.66C82.0361 265.66 81.7161 265.66 81.3961 265.66C81.3961 265.068 81.3961 264.476 81.3961 263.884C81.3961 263.292 81.3961 262.7 81.3961 262.108C81.7161 262.108 82.0361 262.108 82.3561 262.108C82.6921 262.108 83.0201 262.108 83.3401 262.108C83.3401 261.548 83.3401 260.996 83.3401 260.452C83.3401 259.892 83.3401 259.34 83.3401 258.796C83.9961 258.796 84.6601 258.796 85.3321 258.796C86.0041 258.796 86.6601 258.796 87.3001 258.796C87.3001 259.34 87.3001 259.892 87.3001 260.452C87.3001 260.996 87.3001 261.548 87.3001 262.108C87.6681 262.108 88.0441 262.108 88.4281 262.108C88.8121 262.108 89.1881 262.108 89.5561 262.108C89.5561 262.7 89.5561 263.292 89.5561 263.884C89.5561 264.476 89.5561 265.068 89.5561 265.66C89.1881 265.66 88.8121 265.66 88.4281 265.66C88.0441 265.66 87.6681 265.66 87.3001 265.66C87.3001 267.116 87.3001 268.588 87.3001 270.076C87.3001 271.564 87.3001 273.044 87.3001 274.516C86.6601 274.516 86.0041 274.516 85.3321 274.516C84.6601 274.516 83.9961 274.516 83.3401 274.516ZM91.586 274.516C91.586 271.62 91.586 268.7 91.586 265.756C91.586 262.812 91.586 259.892 91.586 256.996C92.242 256.996 92.906 256.996 93.578 256.996C94.25 256.996 94.906 256.996 95.546 256.996C95.546 257.94 95.546 258.9 95.546 259.876C95.546 260.836 95.546 261.788 95.546 262.732C95.978 262.428 96.458 262.196 96.986 262.036C97.53 261.86 98.114 261.772 98.738 261.772C99.65 261.772 100.45 261.98 101.138 262.396C101.842 262.812 102.386 263.412 102.77 264.196C103.17 264.964 103.37 265.892 103.37 266.98C103.37 268.228 103.37 269.484 103.37 270.748C103.37 272.012 103.37 273.268 103.37 274.516C102.73 274.516 102.074 274.516 101.402 274.516C100.73 274.516 100.066 274.516 99.41 274.516C99.41 273.364 99.41 272.196 99.41 271.012C99.41 269.828 99.41 268.66 99.41 267.508C99.41 266.868 99.258 266.356 98.954 265.972C98.666 265.572 98.202 265.372 97.562 265.372C96.922 265.372 96.426 265.556 96.074 265.924C95.722 266.292 95.546 266.82 95.546 267.508C95.546 268.66 95.546 269.828 95.546 271.012C95.546 272.196 95.546 273.364 95.546 274.516C94.906 274.516 94.25 274.516 93.578 274.516C92.906 274.516 92.242 274.516 91.586 274.516ZM116.513 273.94C115.409 274.404 114.313 274.692 113.225 274.804C112.137 274.916 111.105 274.852 110.129 274.612C109.169 274.388 108.313 273.996 107.561 273.436C106.809 272.876 106.217 272.164 105.785 271.3C105.369 270.436 105.161 269.436 105.161 268.3C105.161 267.356 105.313 266.492 105.617 265.708C105.937 264.908 106.385 264.212 106.961 263.62C107.537 263.012 108.217 262.548 109.001 262.228C109.785 261.892 110.641 261.724 111.569 261.724C112.401 261.724 113.153 261.86 113.825 262.132C114.497 262.404 115.081 262.788 115.577 263.284C116.073 263.764 116.473 264.34 116.777 265.012C117.081 265.684 117.273 266.42 117.353 267.22C117.433 268.02 117.385 268.868 117.209 269.764C115.897 269.764 114.577 269.764 113.249 269.764C111.921 269.764 110.601 269.764 109.289 269.764C109.593 270.372 110.097 270.804 110.801 271.06C111.521 271.316 112.369 271.396 113.345 271.3C114.337 271.204 115.393 270.948 116.513 270.532C116.513 271.092 116.513 271.66 116.513 272.236C116.513 272.812 116.513 273.38 116.513 273.94ZM111.473 265.276C111.009 265.276 110.577 265.404 110.177 265.66C109.793 265.916 109.497 266.308 109.289 266.836C110.009 266.836 110.729 266.836 111.449 266.836C112.185 266.836 112.913 266.836 113.633 266.836C113.441 266.292 113.153 265.9 112.769 265.66C112.401 265.404 111.969 265.276 111.473 265.276ZM119.45 274.516C119.45 272.468 119.45 270.404 119.45 268.324C119.45 266.228 119.45 264.156 119.45 262.108C120.106 262.108 120.77 262.108 121.442 262.108C122.114 262.108 122.77 262.108 123.41 262.108C123.41 262.22 123.41 262.332 123.41 262.444C123.41 262.556 123.41 262.668 123.41 262.78C123.906 262.428 124.466 262.164 125.09 261.988C125.714 261.812 126.394 261.764 127.13 261.844C127.13 262.484 127.13 263.132 127.13 263.788C127.13 264.444 127.13 265.092 127.13 265.732C125.866 265.556 124.93 265.668 124.322 266.068C123.714 266.452 123.41 267.084 123.41 267.964C123.41 269.036 123.41 270.124 123.41 271.228C123.41 272.332 123.41 273.428 123.41 274.516C122.77 274.516 122.114 274.516 121.442 274.516C120.77 274.516 120.106 274.516 119.45 274.516ZM139.482 273.94C138.378 274.404 137.282 274.692 136.194 274.804C135.106 274.916 134.074 274.852 133.098 274.612C132.138 274.388 131.282 273.996 130.53 273.436C129.778 272.876 129.186 272.164 128.754 271.3C128.338 270.436 128.13 269.436 128.13 268.3C128.13 267.356 128.282 266.492 128.586 265.708C128.906 264.908 129.354 264.212 129.93 263.62C130.506 263.012 131.186 262.548 131.97 262.228C132.754 261.892 133.61 261.724 134.538 261.724C135.37 261.724 136.122 261.86 136.794 262.132C137.466 262.404 138.05 262.788 138.546 263.284C139.042 263.764 139.442 264.34 139.746 265.012C140.05 265.684 140.242 266.42 140.322 267.22C140.402 268.02 140.354 268.868 140.178 269.764C138.866 269.764 137.546 269.764 136.218 269.764C134.89 269.764 133.57 269.764 132.258 269.764C132.562 270.372 133.066 270.804 133.77 271.06C134.49 271.316 135.338 271.396 136.314 271.3C137.306 271.204 138.362 270.948 139.482 270.532C139.482 271.092 139.482 271.66 139.482 272.236C139.482 272.812 139.482 273.38 139.482 273.94ZM134.442 265.276C133.978 265.276 133.546 265.404 133.146 265.66C132.762 265.916 132.466 266.308 132.258 266.836C132.978 266.836 133.698 266.836 134.418 266.836C135.154 266.836 135.882 266.836 136.602 266.836C136.41 266.292 136.122 265.9 135.738 265.66C135.37 265.404 134.938 265.276 134.442 265.276ZM150.699 274.516C150.699 274.388 150.699 274.268 150.699 274.156C150.699 274.028 150.699 273.908 150.699 273.796C150.299 274.132 149.843 274.388 149.331 274.564C148.835 274.756 148.299 274.852 147.723 274.852C146.907 274.852 146.139 274.692 145.419 274.372C144.699 274.052 144.059 273.604 143.499 273.028C142.955 272.436 142.523 271.74 142.203 270.94C141.899 270.14 141.747 269.26 141.747 268.3C141.747 267.324 141.899 266.436 142.203 265.636C142.523 264.836 142.955 264.148 143.499 263.572C144.059 262.996 144.699 262.556 145.419 262.252C146.139 261.932 146.899 261.772 147.699 261.772C148.275 261.772 148.819 261.868 149.331 262.06C149.843 262.236 150.299 262.484 150.699 262.804C150.699 261.844 150.699 260.876 150.699 259.9C150.699 258.924 150.699 257.956 150.699 256.996C151.355 256.996 152.019 256.996 152.691 256.996C153.363 256.996 154.019 256.996 154.659 256.996C154.659 259.892 154.659 262.812 154.659 265.756C154.659 268.7 154.659 271.62 154.659 274.516C154.019 274.516 153.363 274.516 152.691 274.516C152.019 274.516 151.355 274.516 150.699 274.516ZM148.251 271.348C149.019 271.348 149.635 271.068 150.099 270.508C150.563 269.948 150.795 269.212 150.795 268.3C150.795 267.388 150.563 266.66 150.099 266.116C149.635 265.556 149.019 265.276 148.251 265.276C147.467 265.276 146.843 265.548 146.379 266.092C145.931 266.636 145.707 267.372 145.707 268.3C145.707 269.228 145.931 269.972 146.379 270.532C146.843 271.076 147.467 271.348 148.251 271.348ZM161.81 265.66C161.81 265.068 161.81 264.476 161.81 263.884C161.81 263.292 161.81 262.7 161.81 262.108C162.13 262.108 162.45 262.108 162.77 262.108C163.106 262.108 163.434 262.108 163.754 262.108C163.754 262.028 163.754 261.956 163.754 261.892C163.754 261.828 163.754 261.764 163.754 261.7C163.754 260.628 163.97 259.732 164.402 259.012C164.85 258.276 165.434 257.716 166.154 257.332C166.89 256.932 167.69 256.708 168.554 256.66C169.434 256.596 170.306 256.708 171.17 256.996C171.17 257.588 171.17 258.196 171.17 258.82C171.17 259.444 171.17 260.06 171.17 260.668C170.21 260.348 169.394 260.284 168.722 260.476C168.05 260.668 167.714 261.084 167.714 261.724C167.714 261.788 167.714 261.852 167.714 261.916C167.714 261.98 167.714 262.044 167.714 262.108C168.21 262.108 168.706 262.108 169.202 262.108C169.698 262.108 170.194 262.108 170.69 262.108C170.69 262.7 170.69 263.292 170.69 263.884C170.69 264.476 170.69 265.068 170.69 265.66C170.194 265.66 169.698 265.66 169.202 265.66C168.706 265.66 168.21 265.66 167.714 265.66C167.714 267.116 167.714 268.588 167.714 270.076C167.714 271.564 167.714 273.044 167.714 274.516C167.074 274.516 166.418 274.516 165.746 274.516C165.074 274.516 164.41 274.516 163.754 274.516C163.754 273.044 163.754 271.564 163.754 270.076C163.754 268.588 163.754 267.116 163.754 265.66C163.434 265.66 163.106 265.66 162.77 265.66C162.45 265.66 162.13 265.66 161.81 265.66ZM172.844 274.516C172.844 271.62 172.844 268.7 172.844 265.756C172.844 262.812 172.844 259.892 172.844 256.996C173.5 256.996 174.164 256.996 174.836 256.996C175.508 256.996 176.164 256.996 176.804 256.996C176.804 259.892 176.804 262.812 176.804 265.756C176.804 268.7 176.804 271.62 176.804 274.516C176.164 274.516 175.508 274.516 174.836 274.516C174.164 274.516 173.5 274.516 172.844 274.516ZM185.448 274.9C184.52 274.9 183.656 274.74 182.856 274.42C182.056 274.084 181.36 273.62 180.768 273.028C180.176 272.42 179.712 271.716 179.376 270.916C179.056 270.116 178.896 269.244 178.896 268.3C178.896 267.356 179.056 266.484 179.376 265.684C179.712 264.884 180.176 264.188 180.768 263.596C181.36 263.004 182.056 262.548 182.856 262.228C183.656 261.892 184.52 261.724 185.448 261.724C186.392 261.724 187.256 261.892 188.04 262.228C188.84 262.548 189.536 263.004 190.128 263.596C190.72 264.188 191.176 264.884 191.496 265.684C191.832 266.484 192 267.356 192 268.3C192 269.244 191.832 270.116 191.496 270.916C191.176 271.716 190.72 272.42 190.128 273.028C189.536 273.62 188.84 274.084 188.04 274.42C187.256 274.74 186.392 274.9 185.448 274.9ZM185.448 271.324C186.232 271.324 186.856 271.044 187.32 270.484C187.8 269.908 188.04 269.18 188.04 268.3C188.04 267.404 187.8 266.684 187.32 266.14C186.856 265.58 186.232 265.3 185.448 265.3C184.664 265.3 184.032 265.58 183.552 266.14C183.088 266.684 182.856 267.404 182.856 268.3C182.856 269.18 183.088 269.908 183.552 270.484C184.032 271.044 184.664 271.324 185.448 271.324ZM196.244 274.516C195.62 272.468 194.988 270.404 194.348 268.324C193.724 266.228 193.1 264.156 192.476 262.108C193.132 262.108 193.796 262.108 194.468 262.108C195.156 262.108 195.828 262.108 196.484 262.108C196.804 263.228 197.124 264.364 197.444 265.516C197.78 266.652 198.1 267.78 198.404 268.9C198.676 267.78 198.948 266.652 199.22 265.516C199.508 264.364 199.78 263.228 200.036 262.108C200.596 262.108 201.156 262.108 201.716 262.108C202.292 262.108 202.86 262.108 203.42 262.108C203.692 263.228 203.964 264.372 204.236 265.54C204.524 266.692 204.796 267.836 205.052 268.972C205.372 267.836 205.692 266.692 206.012 265.54C206.348 264.372 206.668 263.228 206.972 262.108C207.628 262.108 208.284 262.108 208.94 262.108C209.612 262.108 210.268 262.108 210.908 262.108C210.284 264.156 209.652 266.228 209.012 268.324C208.388 270.404 207.764 272.468 207.14 274.516C206.5 274.516 205.852 274.516 205.196 274.516C204.54 274.516 203.892 274.516 203.252 274.516C202.996 273.524 202.732 272.524 202.46 271.516C202.204 270.508 201.948 269.516 201.692 268.54C201.436 269.516 201.172 270.508 200.9 271.516C200.644 272.524 200.388 273.524 200.132 274.516C199.492 274.516 198.844 274.516 198.188 274.516C197.532 274.516 196.884 274.516 196.244 274.516ZM222.755 273.94C221.651 274.404 220.555 274.692 219.467 274.804C218.379 274.916 217.347 274.852 216.371 274.612C215.411 274.388 214.555 273.996 213.803 273.436C213.051 272.876 212.459 272.164 212.027 271.3C211.611 270.436 211.403 269.436 211.403 268.3C211.403 267.356 211.555 266.492 211.859 265.708C212.179 264.908 212.627 264.212 213.203 263.62C213.779 263.012 214.459 262.548 215.243 262.228C216.027 261.892 216.883 261.724 217.811 261.724C218.643 261.724 219.395 261.86 220.067 262.132C220.739 262.404 221.323 262.788 221.819 263.284C222.315 263.764 222.715 264.34 223.019 265.012C223.323 265.684 223.515 266.42 223.595 267.22C223.675 268.02 223.627 268.868 223.451 269.764C222.139 269.764 220.819 269.764 219.491 269.764C218.163 269.764 216.843 269.764 215.531 269.764C215.835 270.372 216.339 270.804 217.043 271.06C217.763 271.316 218.611 271.396 219.587 271.3C220.579 271.204 221.635 270.948 222.755 270.532C222.755 271.092 222.755 271.66 222.755 272.236C222.755 272.812 222.755 273.38 222.755 273.94ZM217.715 265.276C217.251 265.276 216.819 265.404 216.419 265.66C216.035 265.916 215.739 266.308 215.531 266.836C216.251 266.836 216.971 266.836 217.691 266.836C218.427 266.836 219.155 266.836 219.875 266.836C219.683 266.292 219.395 265.9 219.011 265.66C218.643 265.404 218.211 265.276 217.715 265.276ZM225.693 274.516C225.693 272.468 225.693 270.404 225.693 268.324C225.693 266.228 225.693 264.156 225.693 262.108C226.349 262.108 227.013 262.108 227.685 262.108C228.357 262.108 229.013 262.108 229.653 262.108C229.653 262.22 229.653 262.332 229.653 262.444C229.653 262.556 229.653 262.668 229.653 262.78C230.149 262.428 230.709 262.164 231.333 261.988C231.957 261.812 232.637 261.764 233.373 261.844C233.373 262.484 233.373 263.132 233.373 263.788C233.373 264.444 233.373 265.092 233.373 265.732C232.109 265.556 231.173 265.668 230.565 266.068C229.957 266.452 229.653 267.084 229.653 267.964C229.653 269.036 229.653 270.124 229.653 271.228C229.653 272.332 229.653 273.428 229.653 274.516C229.013 274.516 228.357 274.516 227.685 274.516C227.013 274.516 226.349 274.516 225.693 274.516ZM53.8254 320.516C53.8254 318.468 53.8254 316.404 53.8254 314.324C53.8254 312.228 53.8254 310.156 53.8254 308.108C54.4814 308.108 55.1454 308.108 55.8174 308.108C56.4894 308.108 57.1454 308.108 57.7854 308.108C57.7854 308.22 57.7854 308.324 57.7854 308.42C57.7854 308.516 57.7854 308.62 57.7854 308.732C58.2014 308.428 58.6654 308.196 59.1774 308.036C59.6894 307.86 60.2174 307.772 60.7614 307.772C61.3534 307.772 61.8974 307.876 62.3934 308.084C62.8894 308.276 63.3134 308.564 63.6654 308.948C64.1774 308.58 64.7534 308.292 65.3934 308.084C66.0494 307.876 66.7214 307.772 67.4094 307.772C68.3854 307.772 69.2254 307.972 69.9294 308.372C70.6494 308.772 71.2014 309.34 71.5854 310.076C71.9854 310.812 72.1854 311.7 72.1854 312.74C72.1854 314.02 72.1854 315.316 72.1854 316.628C72.1854 317.94 72.1854 319.236 72.1854 320.516C71.5454 320.516 70.8894 320.516 70.2174 320.516C69.5454 320.516 68.8814 320.516 68.2254 320.516C68.2254 319.316 68.2254 318.1 68.2254 316.868C68.2254 315.636 68.2254 314.42 68.2254 313.22C68.2254 312.676 68.0974 312.236 67.8414 311.9C67.6014 311.548 67.2094 311.372 66.6654 311.372C66.1374 311.372 65.7214 311.54 65.4174 311.876C65.1294 312.196 64.9854 312.644 64.9854 313.22C64.9854 314.42 64.9854 315.636 64.9854 316.868C64.9854 318.1 64.9854 319.316 64.9854 320.516C64.3454 320.516 63.6894 320.516 63.0174 320.516C62.3454 320.516 61.6814 320.516 61.0254 320.516C61.0254 319.316 61.0254 318.1 61.0254 316.868C61.0254 315.636 61.0254 314.42 61.0254 313.22C61.0254 312.676 60.8974 312.236 60.6414 311.9C60.4014 311.548 60.0094 311.372 59.4654 311.372C58.9374 311.372 58.5214 311.54 58.2174 311.876C57.9294 312.196 57.7854 312.644 57.7854 313.22C57.7854 314.42 57.7854 315.636 57.7854 316.868C57.7854 318.1 57.7854 319.316 57.7854 320.516C57.1454 320.516 56.4894 320.516 55.8174 320.516C55.1454 320.516 54.4814 320.516 53.8254 320.516ZM76.7499 306.692C76.2859 306.692 75.8619 306.58 75.4779 306.356C75.1099 306.132 74.8139 305.836 74.5899 305.468C74.3659 305.1 74.2539 304.692 74.2539 304.244C74.2539 303.796 74.3659 303.396 74.5899 303.044C74.8139 302.676 75.1099 302.38 75.4779 302.156C75.8619 301.932 76.2859 301.82 76.7499 301.82C77.1979 301.82 77.6059 301.932 77.9739 302.156C78.3579 302.38 78.6619 302.676 78.8859 303.044C79.1099 303.396 79.2219 303.796 79.2219 304.244C79.2219 304.692 79.1099 305.1 78.8859 305.468C78.6619 305.836 78.3579 306.132 77.9739 306.356C77.6059 306.58 77.1979 306.692 76.7499 306.692ZM74.7579 320.516C74.7579 318.468 74.7579 316.404 74.7579 314.324C74.7579 312.228 74.7579 310.156 74.7579 308.108C75.4139 308.108 76.0779 308.108 76.7499 308.108C77.4219 308.108 78.0779 308.108 78.7179 308.108C78.7179 310.156 78.7179 312.228 78.7179 314.324C78.7179 316.404 78.7179 318.468 78.7179 320.516C78.0779 320.516 77.4219 320.516 76.7499 320.516C76.0779 320.516 75.4139 320.516 74.7579 320.516ZM81.4816 320.516C81.4816 318.468 81.4816 316.404 81.4816 314.324C81.4816 312.228 81.4816 310.156 81.4816 308.108C82.1376 308.108 82.8016 308.108 83.4736 308.108C84.1456 308.108 84.8016 308.108 85.4416 308.108C85.4416 308.22 85.4416 308.332 85.4416 308.444C85.4416 308.556 85.4416 308.668 85.4416 308.78C85.9376 308.428 86.4976 308.164 87.1216 307.988C87.7456 307.812 88.4256 307.764 89.1616 307.844C89.1616 308.484 89.1616 309.132 89.1616 309.788C89.1616 310.444 89.1616 311.092 89.1616 311.732C87.8976 311.556 86.9616 311.668 86.3536 312.068C85.7456 312.452 85.4416 313.084 85.4416 313.964C85.4416 315.036 85.4416 316.124 85.4416 317.228C85.4416 318.332 85.4416 319.428 85.4416 320.516C84.8016 320.516 84.1456 320.516 83.4736 320.516C82.8016 320.516 82.1376 320.516 81.4816 320.516ZM90.9504 320.516C90.9504 318.468 90.9504 316.404 90.9504 314.324C90.9504 312.228 90.9504 310.156 90.9504 308.108C91.6064 308.108 92.2704 308.108 92.9424 308.108C93.6144 308.108 94.2704 308.108 94.9104 308.108C94.9104 308.22 94.9104 308.332 94.9104 308.444C94.9104 308.556 94.9104 308.668 94.9104 308.78C95.4064 308.428 95.9664 308.164 96.5904 307.988C97.2144 307.812 97.8944 307.764 98.6304 307.844C98.6304 308.484 98.6304 309.132 98.6304 309.788C98.6304 310.444 98.6304 311.092 98.6304 311.732C97.3664 311.556 96.4304 311.668 95.8224 312.068C95.2144 312.452 94.9104 313.084 94.9104 313.964C94.9104 315.036 94.9104 316.124 94.9104 317.228C94.9104 318.332 94.9104 319.428 94.9104 320.516C94.2704 320.516 93.6144 320.516 92.9424 320.516C92.2704 320.516 91.6064 320.516 90.9504 320.516ZM106.182 320.9C105.254 320.9 104.39 320.74 103.59 320.42C102.79 320.084 102.094 319.62 101.502 319.028C100.91 318.42 100.446 317.716 100.11 316.916C99.7899 316.116 99.6299 315.244 99.6299 314.3C99.6299 313.356 99.7899 312.484 100.11 311.684C100.446 310.884 100.91 310.188 101.502 309.596C102.094 309.004 102.79 308.548 103.59 308.228C104.39 307.892 105.254 307.724 106.182 307.724C107.126 307.724 107.99 307.892 108.774 308.228C109.574 308.548 110.27 309.004 110.862 309.596C111.454 310.188 111.91 310.884 112.23 311.684C112.566 312.484 112.734 313.356 112.734 314.3C112.734 315.244 112.566 316.116 112.23 316.916C111.91 317.716 111.454 318.42 110.862 319.028C110.27 319.62 109.574 320.084 108.774 320.42C107.99 320.74 107.126 320.9 106.182 320.9ZM106.182 317.324C106.966 317.324 107.59 317.044 108.054 316.484C108.534 315.908 108.774 315.18 108.774 314.3C108.774 313.404 108.534 312.684 108.054 312.14C107.59 311.58 106.966 311.3 106.182 311.3C105.398 311.3 104.766 311.58 104.286 312.14C103.822 312.684 103.59 313.404 103.59 314.3C103.59 315.18 103.822 315.908 104.286 316.484C104.766 317.044 105.398 317.324 106.182 317.324ZM114.693 320.516C114.693 318.468 114.693 316.404 114.693 314.324C114.693 312.228 114.693 310.156 114.693 308.108C115.349 308.108 116.013 308.108 116.685 308.108C117.357 308.108 118.013 308.108 118.653 308.108C118.653 308.22 118.653 308.332 118.653 308.444C118.653 308.556 118.653 308.668 118.653 308.78C119.149 308.428 119.709 308.164 120.333 307.988C120.957 307.812 121.637 307.764 122.373 307.844C122.373 308.484 122.373 309.132 122.373 309.788C122.373 310.444 122.373 311.092 122.373 311.732C121.109 311.556 120.173 311.668 119.565 312.068C118.957 312.452 118.653 313.084 118.653 313.964C118.653 315.036 118.653 316.124 118.653 317.228C118.653 318.332 118.653 319.428 118.653 320.516C118.013 320.516 117.357 320.516 116.685 320.516C116.013 320.516 115.349 320.516 114.693 320.516ZM133.641 316.676C133.641 317.668 133.361 318.484 132.801 319.124C132.257 319.748 131.521 320.204 130.593 320.492C129.665 320.78 128.625 320.9 127.473 320.852C126.337 320.82 125.177 320.636 123.993 320.3C123.993 319.692 123.993 319.068 123.993 318.428C123.993 317.788 123.993 317.164 123.993 316.556C124.665 316.86 125.337 317.1 126.009 317.276C126.681 317.436 127.289 317.532 127.833 317.564C128.377 317.596 128.817 317.556 129.153 317.444C129.489 317.316 129.657 317.108 129.657 316.82C129.657 316.596 129.513 316.42 129.225 316.292C128.953 316.164 128.593 316.052 128.145 315.956C127.697 315.844 127.217 315.716 126.705 315.572C126.209 315.412 125.737 315.196 125.289 314.924C124.841 314.636 124.473 314.26 124.185 313.796C123.913 313.316 123.777 312.7 123.777 311.948C123.777 311.052 124.033 310.292 124.545 309.668C125.073 309.028 125.777 308.548 126.657 308.228C127.537 307.892 128.521 307.724 129.609 307.724C130.697 307.724 131.809 307.908 132.945 308.276C132.945 308.884 132.945 309.508 132.945 310.148C132.945 310.788 132.945 311.412 132.945 312.02C132.049 311.588 131.209 311.3 130.425 311.156C129.641 311.012 129.009 310.996 128.529 311.108C128.049 311.204 127.809 311.42 127.809 311.756C127.809 311.98 127.945 312.156 128.217 312.284C128.505 312.396 128.865 312.5 129.297 312.596C129.745 312.692 130.217 312.82 130.713 312.98C131.225 313.14 131.697 313.364 132.129 313.652C132.577 313.924 132.937 314.308 133.209 314.804C133.497 315.284 133.641 315.908 133.641 316.676ZM140.591 320.516C140.591 318.468 140.591 316.404 140.591 314.324C140.591 312.228 140.591 310.156 140.591 308.108C141.247 308.108 141.911 308.108 142.583 308.108C143.255 308.108 143.911 308.108 144.551 308.108C144.551 308.22 144.551 308.324 144.551 308.42C144.551 308.516 144.551 308.62 144.551 308.732C144.967 308.428 145.431 308.196 145.943 308.036C146.455 307.86 146.983 307.772 147.527 307.772C148.119 307.772 148.663 307.876 149.159 308.084C149.655 308.276 150.079 308.564 150.431 308.948C150.943 308.58 151.519 308.292 152.159 308.084C152.815 307.876 153.487 307.772 154.175 307.772C155.151 307.772 155.991 307.972 156.695 308.372C157.415 308.772 157.967 309.34 158.351 310.076C158.751 310.812 158.951 311.7 158.951 312.74C158.951 314.02 158.951 315.316 158.951 316.628C158.951 317.94 158.951 319.236 158.951 320.516C158.311 320.516 157.655 320.516 156.983 320.516C156.311 320.516 155.647 320.516 154.991 320.516C154.991 319.316 154.991 318.1 154.991 316.868C154.991 315.636 154.991 314.42 154.991 313.22C154.991 312.676 154.863 312.236 154.607 311.9C154.367 311.548 153.975 311.372 153.431 311.372C152.903 311.372 152.487 311.54 152.183 311.876C151.895 312.196 151.751 312.644 151.751 313.22C151.751 314.42 151.751 315.636 151.751 316.868C151.751 318.1 151.751 319.316 151.751 320.516C151.111 320.516 150.455 320.516 149.783 320.516C149.111 320.516 148.447 320.516 147.791 320.516C147.791 319.316 147.791 318.1 147.791 316.868C147.791 315.636 147.791 314.42 147.791 313.22C147.791 312.676 147.663 312.236 147.407 311.9C147.167 311.548 146.775 311.372 146.231 311.372C145.703 311.372 145.287 311.54 144.983 311.876C144.695 312.196 144.551 312.644 144.551 313.22C144.551 314.42 144.551 315.636 144.551 316.868C144.551 318.1 144.551 319.316 144.551 320.516C143.911 320.516 143.255 320.516 142.583 320.516C141.911 320.516 141.247 320.516 140.591 320.516ZM162.321 324.356C162.641 323.508 162.969 322.652 163.305 321.788C163.657 320.94 163.993 320.1 164.313 319.268C163.561 317.428 162.793 315.572 162.009 313.7C161.241 311.812 160.481 309.948 159.729 308.108C160.433 308.108 161.137 308.108 161.841 308.108C162.545 308.108 163.241 308.108 163.929 308.108C164.345 309.132 164.761 310.172 165.177 311.228C165.609 312.284 166.033 313.332 166.449 314.372C166.833 313.332 167.225 312.284 167.625 311.228C168.025 310.172 168.417 309.132 168.801 308.108C169.489 308.108 170.177 308.108 170.865 308.108C171.553 308.108 172.241 308.108 172.929 308.108C171.857 310.78 170.777 313.492 169.689 316.244C168.617 318.98 167.545 321.684 166.473 324.356C165.785 324.356 165.089 324.356 164.385 324.356C163.697 324.356 163.009 324.356 162.321 324.356ZM187.449 320.516C187.449 320.388 187.449 320.268 187.449 320.156C187.449 320.028 187.449 319.908 187.449 319.796C187.049 320.132 186.593 320.388 186.081 320.564C185.585 320.756 185.049 320.852 184.473 320.852C183.657 320.852 182.889 320.7 182.169 320.396C181.449 320.076 180.809 319.628 180.249 319.052C179.705 318.46 179.273 317.764 178.953 316.964C178.649 316.164 178.497 315.276 178.497 314.3C178.497 313.308 178.649 312.412 178.953 311.612C179.273 310.812 179.705 310.132 180.249 309.572C180.809 308.996 181.449 308.556 182.169 308.252C182.889 307.932 183.649 307.772 184.449 307.772C185.025 307.772 185.569 307.868 186.081 308.06C186.593 308.236 187.049 308.484 187.449 308.804C187.449 308.676 187.449 308.556 187.449 308.444C187.449 308.332 187.449 308.22 187.449 308.108C188.105 308.108 188.769 308.108 189.441 308.108C190.113 308.108 190.769 308.108 191.409 308.108C191.409 310.156 191.409 312.228 191.409 314.324C191.409 316.404 191.409 318.468 191.409 320.516C190.769 320.516 190.113 320.516 189.441 320.516C188.769 320.516 188.105 320.516 187.449 320.516ZM185.001 317.348C185.769 317.348 186.385 317.068 186.849 316.508C187.313 315.948 187.545 315.212 187.545 314.3C187.545 313.388 187.313 312.66 186.849 312.116C186.385 311.556 185.769 311.276 185.001 311.276C184.217 311.276 183.593 311.548 183.129 312.092C182.681 312.636 182.457 313.372 182.457 314.3C182.457 315.228 182.681 315.972 183.129 316.532C183.593 317.076 184.217 317.348 185.001 317.348ZM194.052 320.516C194.052 318.468 194.052 316.404 194.052 314.324C194.052 312.228 194.052 310.156 194.052 308.108C194.708 308.108 195.372 308.108 196.044 308.108C196.716 308.108 197.372 308.108 198.012 308.108C198.012 308.22 198.012 308.324 198.012 308.42C198.012 308.516 198.012 308.62 198.012 308.732C198.444 308.428 198.924 308.196 199.452 308.036C199.996 307.86 200.58 307.772 201.204 307.772C202.116 307.772 202.916 307.98 203.604 308.396C204.308 308.812 204.852 309.412 205.236 310.196C205.636 310.964 205.836 311.892 205.836 312.98C205.836 314.228 205.836 315.484 205.836 316.748C205.836 318.012 205.836 319.268 205.836 320.516C205.196 320.516 204.54 320.516 203.868 320.516C203.196 320.516 202.532 320.516 201.876 320.516C201.876 319.364 201.876 318.196 201.876 317.012C201.876 315.828 201.876 314.66 201.876 313.508C201.876 312.868 201.724 312.356 201.42 311.972C201.132 311.572 200.668 311.372 200.028 311.372C199.388 311.372 198.892 311.556 198.54 311.924C198.188 312.292 198.012 312.82 198.012 313.508C198.012 314.66 198.012 315.828 198.012 317.012C198.012 318.196 198.012 319.364 198.012 320.516C197.372 320.516 196.716 320.516 196.044 320.516C195.372 320.516 194.708 320.516 194.052 320.516ZM207.27 308.108C208.006 308.108 208.742 308.108 209.478 308.108C210.214 308.108 210.95 308.108 211.686 308.108C211.974 308.588 212.27 309.076 212.574 309.572C212.878 310.052 213.174 310.532 213.462 311.012C213.766 310.532 214.07 310.052 214.374 309.572C214.678 309.076 214.982 308.588 215.286 308.108C216.006 308.108 216.734 308.108 217.47 308.108C218.206 308.108 218.934 308.108 219.654 308.108C219.03 309.084 218.39 310.068 217.734 311.06C217.094 312.052 216.462 313.044 215.838 314.036C216.494 315.108 217.158 316.188 217.83 317.276C218.502 318.364 219.158 319.444 219.798 320.516C219.062 320.516 218.326 320.516 217.59 320.516C216.854 320.516 216.118 320.516 215.382 320.516C215.062 319.972 214.734 319.428 214.398 318.884C214.078 318.324 213.758 317.772 213.438 317.228C213.118 317.772 212.782 318.324 212.43 318.884C212.094 319.428 211.766 319.972 211.446 320.516C210.726 320.516 209.998 320.516 209.262 320.516C208.526 320.516 207.798 320.516 207.078 320.516C207.734 319.476 208.398 318.42 209.07 317.348C209.742 316.26 210.406 315.196 211.062 314.156C210.438 313.164 209.806 312.156 209.166 311.132C208.526 310.108 207.894 309.1 207.27 308.108ZM223.351 306.692C222.887 306.692 222.463 306.58 222.079 306.356C221.711 306.132 221.415 305.836 221.191 305.468C220.967 305.1 220.855 304.692 220.855 304.244C220.855 303.796 220.967 303.396 221.191 303.044C221.415 302.676 221.711 302.38 222.079 302.156C222.463 301.932 222.887 301.82 223.351 301.82C223.799 301.82 224.207 301.932 224.575 302.156C224.959 302.38 225.263 302.676 225.487 303.044C225.711 303.396 225.823 303.796 225.823 304.244C225.823 304.692 225.711 305.1 225.487 305.468C225.263 305.836 224.959 306.132 224.575 306.356C224.207 306.58 223.799 306.692 223.351 306.692ZM221.359 320.516C221.359 318.468 221.359 316.404 221.359 314.324C221.359 312.228 221.359 310.156 221.359 308.108C222.015 308.108 222.679 308.108 223.351 308.108C224.023 308.108 224.679 308.108 225.319 308.108C225.319 310.156 225.319 312.228 225.319 314.324C225.319 316.404 225.319 318.468 225.319 320.516C224.679 320.516 224.023 320.516 223.351 320.516C222.679 320.516 222.015 320.516 221.359 320.516ZM238.763 319.94C237.659 320.404 236.563 320.692 235.475 320.804C234.387 320.916 233.355 320.852 232.379 320.612C231.419 320.388 230.563 319.996 229.811 319.436C229.059 318.876 228.467 318.164 228.035 317.3C227.619 316.436 227.411 315.436 227.411 314.3C227.411 313.356 227.563 312.492 227.867 311.708C228.187 310.908 228.635 310.212 229.211 309.62C229.787 309.012 230.467 308.548 231.251 308.228C232.035 307.892 232.891 307.724 233.819 307.724C234.651 307.724 235.403 307.86 236.075 308.132C236.747 308.404 237.331 308.788 237.827 309.284C238.323 309.764 238.723 310.34 239.027 311.012C239.331 311.684 239.523 312.42 239.603 313.22C239.683 314.02 239.635 314.868 239.459 315.764C238.147 315.764 236.827 315.764 235.499 315.764C234.171 315.764 232.851 315.764 231.539 315.764C231.843 316.372 232.347 316.804 233.051 317.06C233.771 317.316 234.619 317.396 235.595 317.3C236.587 317.204 237.643 316.948 238.763 316.532C238.763 317.092 238.763 317.66 238.763 318.236C238.763 318.812 238.763 319.38 238.763 319.94ZM233.723 311.276C233.259 311.276 232.827 311.404 232.427 311.66C232.043 311.916 231.747 312.308 231.539 312.836C232.259 312.836 232.979 312.836 233.699 312.836C234.435 312.836 235.163 312.836 235.883 312.836C235.691 312.292 235.403 311.9 235.019 311.66C234.651 311.404 234.219 311.276 233.723 311.276ZM242.879 320.516C242.879 319.044 242.879 317.564 242.879 316.076C242.879 314.588 242.879 313.116 242.879 311.66C242.559 311.66 242.231 311.66 241.895 311.66C241.575 311.66 241.255 311.66 240.935 311.66C240.935 311.068 240.935 310.476 240.935 309.884C240.935 309.292 240.935 308.7 240.935 308.108C241.255 308.108 241.575 308.108 241.895 308.108C242.231 308.108 242.559 308.108 242.879 308.108C242.879 307.548 242.879 306.996 242.879 306.452C242.879 305.892 242.879 305.34 242.879 304.796C243.535 304.796 244.199 304.796 244.871 304.796C245.543 304.796 246.199 304.796 246.839 304.796C246.839 305.34 246.839 305.892 246.839 306.452C246.839 306.996 246.839 307.548 246.839 308.108C247.207 308.108 247.583 308.108 247.967 308.108C248.351 308.108 248.727 308.108 249.095 308.108C249.095 308.7 249.095 309.292 249.095 309.884C249.095 310.476 249.095 311.068 249.095 311.66C248.727 311.66 248.351 311.66 247.967 311.66C247.583 311.66 247.207 311.66 246.839 311.66C246.839 313.116 246.839 314.588 246.839 316.076C246.839 317.564 246.839 319.044 246.839 320.516C246.199 320.516 245.543 320.516 244.871 320.516C244.199 320.516 243.535 320.516 242.879 320.516ZM252.157 324.356C252.477 323.508 252.805 322.652 253.141 321.788C253.493 320.94 253.829 320.1 254.149 319.268C253.397 317.428 252.629 315.572 251.845 313.7C251.077 311.812 250.317 309.948 249.565 308.108C250.269 308.108 250.973 308.108 251.677 308.108C252.381 308.108 253.077 308.108 253.765 308.108C254.181 309.132 254.597 310.172 255.013 311.228C255.445 312.284 255.869 313.332 256.285 314.372C256.669 313.332 257.061 312.284 257.461 311.228C257.861 310.172 258.253 309.132 258.637 308.108C259.325 308.108 260.013 308.108 260.701 308.108C261.389 308.108 262.077 308.108 262.765 308.108C261.693 310.78 260.613 313.492 259.525 316.244C258.453 318.98 257.381 321.684 256.309 324.356C255.621 324.356 254.925 324.356 254.221 324.356C253.533 324.356 252.845 324.356 252.157 324.356ZM62.1054 366.516C62.1054 366.388 62.1054 366.268 62.1054 366.156C62.1054 366.028 62.1054 365.908 62.1054 365.796C61.7054 366.132 61.2494 366.388 60.7374 366.564C60.2414 366.756 59.7054 366.852 59.1294 366.852C58.3134 366.852 57.5454 366.7 56.8254 366.396C56.1054 366.076 55.4654 365.628 54.9054 365.052C54.3614 364.46 53.9294 363.764 53.6094 362.964C53.3054 362.164 53.1534 361.276 53.1534 360.3C53.1534 359.308 53.3054 358.412 53.6094 357.612C53.9294 356.812 54.3614 356.132 54.9054 355.572C55.4654 354.996 56.1054 354.556 56.8254 354.252C57.5454 353.932 58.3054 353.772 59.1054 353.772C59.6814 353.772 60.2254 353.868 60.7374 354.06C61.2494 354.236 61.7054 354.484 62.1054 354.804C62.1054 354.676 62.1054 354.556 62.1054 354.444C62.1054 354.332 62.1054 354.22 62.1054 354.108C62.7614 354.108 63.4254 354.108 64.0974 354.108C64.7694 354.108 65.4254 354.108 66.0654 354.108C66.0654 356.156 66.0654 358.228 66.0654 360.324C66.0654 362.404 66.0654 364.468 66.0654 366.516C65.4254 366.516 64.7694 366.516 64.0974 366.516C63.4254 366.516 62.7614 366.516 62.1054 366.516ZM59.6574 363.348C60.4254 363.348 61.0414 363.068 61.5054 362.508C61.9694 361.948 62.2014 361.212 62.2014 360.3C62.2014 359.388 61.9694 358.66 61.5054 358.116C61.0414 357.556 60.4254 357.276 59.6574 357.276C58.8734 357.276 58.2494 357.548 57.7854 358.092C57.3374 358.636 57.1134 359.372 57.1134 360.3C57.1134 361.228 57.3374 361.972 57.7854 362.532C58.2494 363.076 58.8734 363.348 59.6574 363.348ZM68.7082 366.516C68.7082 364.468 68.7082 362.404 68.7082 360.324C68.7082 358.228 68.7082 356.156 68.7082 354.108C69.3642 354.108 70.0282 354.108 70.7002 354.108C71.3722 354.108 72.0282 354.108 72.6682 354.108C72.6682 354.22 72.6682 354.324 72.6682 354.42C72.6682 354.516 72.6682 354.62 72.6682 354.732C73.1002 354.428 73.5802 354.196 74.1082 354.036C74.6522 353.86 75.2362 353.772 75.8602 353.772C76.7722 353.772 77.5722 353.98 78.2602 354.396C78.9642 354.812 79.5082 355.412 79.8922 356.196C80.2922 356.964 80.4922 357.892 80.4922 358.98C80.4922 360.228 80.4922 361.484 80.4922 362.748C80.4922 364.012 80.4922 365.268 80.4922 366.516C79.8522 366.516 79.1962 366.516 78.5242 366.516C77.8522 366.516 77.1882 366.516 76.5322 366.516C76.5322 365.364 76.5322 364.196 76.5322 363.012C76.5322 361.828 76.5322 360.66 76.5322 359.508C76.5322 358.868 76.3802 358.356 76.0762 357.972C75.7882 357.572 75.3242 357.372 74.6842 357.372C74.0442 357.372 73.5482 357.556 73.1962 357.924C72.8442 358.292 72.6682 358.82 72.6682 359.508C72.6682 360.66 72.6682 361.828 72.6682 363.012C72.6682 364.196 72.6682 365.364 72.6682 366.516C72.0282 366.516 71.3722 366.516 70.7002 366.516C70.0282 366.516 69.3642 366.516 68.7082 366.516ZM91.2147 366.516C91.2147 366.388 91.2147 366.268 91.2147 366.156C91.2147 366.028 91.2147 365.908 91.2147 365.796C90.8147 366.132 90.3587 366.388 89.8467 366.564C89.3507 366.756 88.8147 366.852 88.2387 366.852C87.4227 366.852 86.6547 366.692 85.9347 366.372C85.2147 366.052 84.5747 365.604 84.0147 365.028C83.4707 364.436 83.0387 363.74 82.7187 362.94C82.4147 362.14 82.2627 361.26 82.2627 360.3C82.2627 359.324 82.4147 358.436 82.7187 357.636C83.0387 356.836 83.4707 356.148 84.0147 355.572C84.5747 354.996 85.2147 354.556 85.9347 354.252C86.6547 353.932 87.4147 353.772 88.2147 353.772C88.7907 353.772 89.3347 353.868 89.8467 354.06C90.3587 354.236 90.8147 354.484 91.2147 354.804C91.2147 353.844 91.2147 352.876 91.2147 351.9C91.2147 350.924 91.2147 349.956 91.2147 348.996C91.8707 348.996 92.5347 348.996 93.2067 348.996C93.8787 348.996 94.5347 348.996 95.1747 348.996C95.1747 351.892 95.1747 354.812 95.1747 357.756C95.1747 360.7 95.1747 363.62 95.1747 366.516C94.5347 366.516 93.8787 366.516 93.2067 366.516C92.5347 366.516 91.8707 366.516 91.2147 366.516ZM88.7667 363.348C89.5347 363.348 90.1507 363.068 90.6147 362.508C91.0787 361.948 91.3107 361.212 91.3107 360.3C91.3107 359.388 91.0787 358.66 90.6147 358.116C90.1507 357.556 89.5347 357.276 88.7667 357.276C87.9827 357.276 87.3587 357.548 86.8947 358.092C86.4467 358.636 86.2227 359.372 86.2227 360.3C86.2227 361.228 86.4467 361.972 86.8947 362.532C87.3587 363.076 87.9827 363.348 88.7667 363.348ZM102.974 366.516C102.974 364.468 102.974 362.404 102.974 360.324C102.974 358.228 102.974 356.156 102.974 354.108C103.63 354.108 104.294 354.108 104.966 354.108C105.638 354.108 106.294 354.108 106.934 354.108C106.934 354.22 106.934 354.332 106.934 354.444C106.934 354.556 106.934 354.668 106.934 354.78C107.43 354.428 107.99 354.164 108.614 353.988C109.238 353.812 109.918 353.764 110.654 353.844C110.654 354.484 110.654 355.132 110.654 355.788C110.654 356.444 110.654 357.092 110.654 357.732C109.39 357.556 108.454 357.668 107.846 358.068C107.238 358.452 106.934 359.084 106.934 359.964C106.934 361.036 106.934 362.124 106.934 363.228C106.934 364.332 106.934 365.428 106.934 366.516C106.294 366.516 105.638 366.516 104.966 366.516C104.294 366.516 103.63 366.516 102.974 366.516ZM123.005 365.94C121.901 366.404 120.805 366.692 119.717 366.804C118.629 366.916 117.597 366.852 116.621 366.612C115.661 366.388 114.805 365.996 114.053 365.436C113.301 364.876 112.709 364.164 112.277 363.3C111.861 362.436 111.653 361.436 111.653 360.3C111.653 359.356 111.805 358.492 112.109 357.708C112.429 356.908 112.877 356.212 113.453 355.62C114.029 355.012 114.709 354.548 115.493 354.228C116.277 353.892 117.133 353.724 118.061 353.724C118.893 353.724 119.645 353.86 120.317 354.132C120.989 354.404 121.573 354.788 122.069 355.284C122.565 355.764 122.965 356.34 123.269 357.012C123.573 357.684 123.765 358.42 123.845 359.22C123.925 360.02 123.877 360.868 123.701 361.764C122.389 361.764 121.069 361.764 119.741 361.764C118.413 361.764 117.093 361.764 115.781 361.764C116.085 362.372 116.589 362.804 117.293 363.06C118.013 363.316 118.861 363.396 119.837 363.3C120.829 363.204 121.885 362.948 123.005 362.532C123.005 363.092 123.005 363.66 123.005 364.236C123.005 364.812 123.005 365.38 123.005 365.94ZM117.965 357.276C117.501 357.276 117.069 357.404 116.669 357.66C116.285 357.916 115.989 358.308 115.781 358.836C116.501 358.836 117.221 358.836 117.941 358.836C118.677 358.836 119.405 358.836 120.125 358.836C119.933 358.292 119.645 357.9 119.261 357.66C118.893 357.404 118.461 357.276 117.965 357.276ZM129.903 370.356C129.263 370.356 128.607 370.356 127.935 370.356C127.263 370.356 126.599 370.356 125.943 370.356C125.943 367.684 125.943 364.98 125.943 362.244C125.943 359.492 125.943 356.78 125.943 354.108C126.599 354.108 127.263 354.108 127.935 354.108C128.607 354.108 129.263 354.108 129.903 354.108C129.903 354.22 129.903 354.332 129.903 354.444C129.903 354.556 129.903 354.676 129.903 354.804C130.303 354.484 130.759 354.236 131.271 354.06C131.783 353.868 132.327 353.772 132.903 353.772C133.703 353.772 134.463 353.932 135.183 354.252C135.903 354.556 136.535 354.996 137.079 355.572C137.639 356.148 138.071 356.836 138.375 357.636C138.695 358.436 138.855 359.324 138.855 360.3C138.855 361.26 138.695 362.14 138.375 362.94C138.071 363.74 137.639 364.436 137.079 365.028C136.535 365.604 135.903 366.052 135.183 366.372C134.463 366.692 133.695 366.852 132.879 366.852C132.303 366.852 131.759 366.756 131.247 366.564C130.751 366.388 130.303 366.132 129.903 365.796C129.903 366.548 129.903 367.308 129.903 368.076C129.903 368.844 129.903 369.604 129.903 370.356ZM132.351 363.348C133.135 363.348 133.751 363.076 134.199 362.532C134.663 361.972 134.895 361.228 134.895 360.3C134.895 359.372 134.663 358.636 134.199 358.092C133.751 357.548 133.135 357.276 132.351 357.276C131.583 357.276 130.967 357.556 130.503 358.116C130.039 358.66 129.807 359.388 129.807 360.3C129.807 361.212 130.039 361.948 130.503 362.508C130.967 363.068 131.583 363.348 132.351 363.348ZM140.825 366.516C140.825 364.468 140.825 362.404 140.825 360.324C140.825 358.228 140.825 356.156 140.825 354.108C141.481 354.108 142.145 354.108 142.817 354.108C143.489 354.108 144.145 354.108 144.785 354.108C144.785 354.22 144.785 354.332 144.785 354.444C144.785 354.556 144.785 354.668 144.785 354.78C145.281 354.428 145.841 354.164 146.465 353.988C147.089 353.812 147.769 353.764 148.505 353.844C148.505 354.484 148.505 355.132 148.505 355.788C148.505 356.444 148.505 357.092 148.505 357.732C147.241 357.556 146.305 357.668 145.697 358.068C145.089 358.452 144.785 359.084 144.785 359.964C144.785 361.036 144.785 362.124 144.785 363.228C144.785 364.332 144.785 365.428 144.785 366.516C144.145 366.516 143.489 366.516 142.817 366.516C142.145 366.516 141.481 366.516 140.825 366.516ZM160.857 365.94C159.753 366.404 158.657 366.692 157.569 366.804C156.481 366.916 155.449 366.852 154.473 366.612C153.513 366.388 152.657 365.996 151.905 365.436C151.153 364.876 150.561 364.164 150.129 363.3C149.713 362.436 149.505 361.436 149.505 360.3C149.505 359.356 149.657 358.492 149.961 357.708C150.281 356.908 150.729 356.212 151.305 355.62C151.881 355.012 152.561 354.548 153.345 354.228C154.129 353.892 154.985 353.724 155.913 353.724C156.745 353.724 157.497 353.86 158.169 354.132C158.841 354.404 159.425 354.788 159.921 355.284C160.417 355.764 160.817 356.34 161.121 357.012C161.425 357.684 161.617 358.42 161.697 359.22C161.777 360.02 161.729 360.868 161.553 361.764C160.241 361.764 158.921 361.764 157.593 361.764C156.265 361.764 154.945 361.764 153.633 361.764C153.937 362.372 154.441 362.804 155.145 363.06C155.865 363.316 156.713 363.396 157.689 363.3C158.681 363.204 159.737 362.948 160.857 362.532C160.857 363.092 160.857 363.66 160.857 364.236C160.857 364.812 160.857 365.38 160.857 365.94ZM155.817 357.276C155.353 357.276 154.921 357.404 154.521 357.66C154.137 357.916 153.841 358.308 153.633 358.836C154.353 358.836 155.073 358.836 155.793 358.836C156.529 358.836 157.257 358.836 157.977 358.836C157.785 358.292 157.497 357.9 157.113 357.66C156.745 357.404 156.313 357.276 155.817 357.276ZM173.274 362.676C173.274 363.668 172.994 364.484 172.434 365.124C171.89 365.748 171.154 366.204 170.226 366.492C169.298 366.78 168.258 366.9 167.106 366.852C165.97 366.82 164.81 366.636 163.626 366.3C163.626 365.692 163.626 365.068 163.626 364.428C163.626 363.788 163.626 363.164 163.626 362.556C164.298 362.86 164.97 363.1 165.642 363.276C166.314 363.436 166.922 363.532 167.466 363.564C168.01 363.596 168.45 363.556 168.786 363.444C169.122 363.316 169.29 363.108 169.29 362.82C169.29 362.596 169.146 362.42 168.858 362.292C168.586 362.164 168.226 362.052 167.778 361.956C167.33 361.844 166.85 361.716 166.338 361.572C165.842 361.412 165.37 361.196 164.922 360.924C164.474 360.636 164.106 360.26 163.818 359.796C163.546 359.316 163.41 358.7 163.41 357.948C163.41 357.052 163.666 356.292 164.178 355.668C164.706 355.028 165.41 354.548 166.29 354.228C167.17 353.892 168.154 353.724 169.242 353.724C170.33 353.724 171.442 353.908 172.578 354.276C172.578 354.884 172.578 355.508 172.578 356.148C172.578 356.788 172.578 357.412 172.578 358.02C171.682 357.588 170.842 357.3 170.058 357.156C169.274 357.012 168.642 356.996 168.162 357.108C167.682 357.204 167.442 357.42 167.442 357.756C167.442 357.98 167.578 358.156 167.85 358.284C168.138 358.396 168.498 358.5 168.93 358.596C169.378 358.692 169.85 358.82 170.346 358.98C170.858 359.14 171.33 359.364 171.762 359.652C172.21 359.924 172.57 360.308 172.842 360.804C173.13 361.284 173.274 361.908 173.274 362.676ZM184.548 362.676C184.548 363.668 184.268 364.484 183.708 365.124C183.164 365.748 182.428 366.204 181.5 366.492C180.572 366.78 179.532 366.9 178.38 366.852C177.244 366.82 176.084 366.636 174.9 366.3C174.9 365.692 174.9 365.068 174.9 364.428C174.9 363.788 174.9 363.164 174.9 362.556C175.572 362.86 176.244 363.1 176.916 363.276C177.588 363.436 178.196 363.532 178.74 363.564C179.284 363.596 179.724 363.556 180.06 363.444C180.396 363.316 180.564 363.108 180.564 362.82C180.564 362.596 180.42 362.42 180.132 362.292C179.86 362.164 179.5 362.052 179.052 361.956C178.604 361.844 178.124 361.716 177.612 361.572C177.116 361.412 176.644 361.196 176.196 360.924C175.748 360.636 175.38 360.26 175.092 359.796C174.82 359.316 174.684 358.7 174.684 357.948C174.684 357.052 174.94 356.292 175.452 355.668C175.98 355.028 176.684 354.548 177.564 354.228C178.444 353.892 179.428 353.724 180.516 353.724C181.604 353.724 182.716 353.908 183.852 354.276C183.852 354.884 183.852 355.508 183.852 356.148C183.852 356.788 183.852 357.412 183.852 358.02C182.956 357.588 182.116 357.3 181.332 357.156C180.548 357.012 179.916 356.996 179.436 357.108C178.956 357.204 178.716 357.42 178.716 357.756C178.716 357.98 178.852 358.156 179.124 358.284C179.412 358.396 179.772 358.5 180.204 358.596C180.652 358.692 181.124 358.82 181.62 358.98C182.132 359.14 182.604 359.364 183.036 359.652C183.484 359.924 183.844 360.308 184.116 360.804C184.404 361.284 184.548 361.908 184.548 362.676ZM188.57 352.692C188.106 352.692 187.682 352.58 187.298 352.356C186.93 352.132 186.634 351.836 186.41 351.468C186.186 351.1 186.074 350.692 186.074 350.244C186.074 349.796 186.186 349.396 186.41 349.044C186.634 348.676 186.93 348.38 187.298 348.156C187.682 347.932 188.106 347.82 188.57 347.82C189.018 347.82 189.426 347.932 189.794 348.156C190.178 348.38 190.482 348.676 190.706 349.044C190.93 349.396 191.042 349.796 191.042 350.244C191.042 350.692 190.93 351.1 190.706 351.468C190.482 351.836 190.178 352.132 189.794 352.356C189.426 352.58 189.018 352.692 188.57 352.692ZM186.578 366.516C186.578 364.468 186.578 362.404 186.578 360.324C186.578 358.228 186.578 356.156 186.578 354.108C187.234 354.108 187.898 354.108 188.57 354.108C189.242 354.108 189.898 354.108 190.538 354.108C190.538 356.156 190.538 358.228 190.538 360.324C190.538 362.404 190.538 364.468 190.538 366.516C189.898 366.516 189.242 366.516 188.57 366.516C187.898 366.516 187.234 366.516 186.578 366.516ZM199.182 366.9C198.254 366.9 197.39 366.74 196.59 366.42C195.79 366.084 195.094 365.62 194.502 365.028C193.91 364.42 193.446 363.716 193.11 362.916C192.79 362.116 192.63 361.244 192.63 360.3C192.63 359.356 192.79 358.484 193.11 357.684C193.446 356.884 193.91 356.188 194.502 355.596C195.094 355.004 195.79 354.548 196.59 354.228C197.39 353.892 198.254 353.724 199.182 353.724C200.126 353.724 200.99 353.892 201.774 354.228C202.574 354.548 203.27 355.004 203.862 355.596C204.454 356.188 204.91 356.884 205.23 357.684C205.566 358.484 205.734 359.356 205.734 360.3C205.734 361.244 205.566 362.116 205.23 362.916C204.91 363.716 204.454 364.42 203.862 365.028C203.27 365.62 202.574 366.084 201.774 366.42C200.99 366.74 200.126 366.9 199.182 366.9ZM199.182 363.324C199.966 363.324 200.59 363.044 201.054 362.484C201.534 361.908 201.774 361.18 201.774 360.3C201.774 359.404 201.534 358.684 201.054 358.14C200.59 357.58 199.966 357.3 199.182 357.3C198.398 357.3 197.766 357.58 197.286 358.14C196.822 358.684 196.59 359.404 196.59 360.3C196.59 361.18 196.822 361.908 197.286 362.484C197.766 363.044 198.398 363.324 199.182 363.324ZM207.693 366.516C207.693 364.468 207.693 362.404 207.693 360.324C207.693 358.228 207.693 356.156 207.693 354.108C208.349 354.108 209.013 354.108 209.685 354.108C210.357 354.108 211.013 354.108 211.653 354.108C211.653 354.22 211.653 354.324 211.653 354.42C211.653 354.516 211.653 354.62 211.653 354.732C212.085 354.428 212.565 354.196 213.093 354.036C213.637 353.86 214.221 353.772 214.845 353.772C215.757 353.772 216.557 353.98 217.245 354.396C217.949 354.812 218.493 355.412 218.877 356.196C219.277 356.964 219.477 357.892 219.477 358.98C219.477 360.228 219.477 361.484 219.477 362.748C219.477 364.012 219.477 365.268 219.477 366.516C218.837 366.516 218.181 366.516 217.509 366.516C216.837 366.516 216.173 366.516 215.517 366.516C215.517 365.364 215.517 364.196 215.517 363.012C215.517 361.828 215.517 360.66 215.517 359.508C215.517 358.868 215.365 358.356 215.061 357.972C214.773 357.572 214.309 357.372 213.669 357.372C213.029 357.372 212.533 357.556 212.181 357.924C211.829 358.292 211.653 358.82 211.653 359.508C211.653 360.66 211.653 361.828 211.653 363.012C211.653 364.196 211.653 365.364 211.653 366.516C211.013 366.516 210.357 366.516 209.685 366.516C209.013 366.516 208.349 366.516 207.693 366.516ZM227.198 360.972C227.198 360.364 227.198 359.748 227.198 359.124C227.198 358.484 227.198 357.86 227.198 357.252C229.87 357.252 232.566 357.252 235.286 357.252C238.022 357.252 240.726 357.252 243.398 357.252C243.398 357.86 243.398 358.484 243.398 359.124C243.398 359.748 243.398 360.364 243.398 360.972C240.726 360.972 238.022 360.972 235.286 360.972C232.566 360.972 229.87 360.972 227.198 360.972ZM53.9454 412.516C53.9454 409.62 53.9454 406.7 53.9454 403.756C53.9454 400.812 53.9454 397.892 53.9454 394.996C54.6014 394.996 55.2654 394.996 55.9374 394.996C56.6094 394.996 57.2654 394.996 57.9054 394.996C57.9054 397.892 57.9054 400.812 57.9054 403.756C57.9054 406.7 57.9054 409.62 57.9054 412.516C57.2654 412.516 56.6094 412.516 55.9374 412.516C55.2654 412.516 54.6014 412.516 53.9454 412.516ZM62.7811 398.692C62.3171 398.692 61.8931 398.58 61.5091 398.356C61.1411 398.132 60.8451 397.836 60.6211 397.468C60.3971 397.1 60.2851 396.692 60.2851 396.244C60.2851 395.796 60.3971 395.396 60.6211 395.044C60.8451 394.676 61.1411 394.38 61.5091 394.156C61.8931 393.932 62.3171 393.82 62.7811 393.82C63.2291 393.82 63.6371 393.932 64.0051 394.156C64.3891 394.38 64.6931 394.676 64.9171 395.044C65.1411 395.396 65.2531 395.796 65.2531 396.244C65.2531 396.692 65.1411 397.1 64.9171 397.468C64.6931 397.836 64.3891 398.132 64.0051 398.356C63.6371 398.58 63.2291 398.692 62.7811 398.692ZM60.7891 412.516C60.7891 410.468 60.7891 408.404 60.7891 406.324C60.7891 404.228 60.7891 402.156 60.7891 400.108C61.4451 400.108 62.1091 400.108 62.7811 400.108C63.4531 400.108 64.1091 400.108 64.7491 400.108C64.7491 402.156 64.7491 404.228 64.7491 406.324C64.7491 408.404 64.7491 410.468 64.7491 412.516C64.1091 412.516 63.4531 412.516 62.7811 412.516C62.1091 412.516 61.4451 412.516 60.7891 412.516ZM67.6329 412.516C67.6329 409.62 67.6329 406.7 67.6329 403.756C67.6329 400.812 67.6329 397.892 67.6329 394.996C68.2889 394.996 68.9529 394.996 69.6249 394.996C70.2969 394.996 70.9529 394.996 71.5929 394.996C71.5929 396.564 71.5929 398.156 71.5929 399.772C71.5929 401.388 71.5929 402.98 71.5929 404.548C72.1689 403.812 72.7449 403.076 73.3209 402.34C73.8969 401.588 74.4729 400.844 75.0489 400.108C75.8169 400.108 76.5849 400.108 77.3529 400.108C78.1369 400.108 78.9129 400.108 79.6809 400.108C78.9289 401.052 78.1609 402.004 77.3769 402.964C76.6089 403.924 75.8489 404.876 75.0969 405.82C75.8969 406.924 76.6969 408.044 77.4969 409.18C78.3129 410.3 79.1129 411.412 79.8969 412.516C79.1129 412.516 78.3289 412.516 77.5449 412.516C76.7609 412.516 75.9769 412.516 75.1929 412.516C74.6009 411.668 74.0009 410.812 73.3929 409.948C72.7849 409.068 72.1849 408.204 71.5929 407.356C71.5929 408.204 71.5929 409.068 71.5929 409.948C71.5929 410.812 71.5929 411.668 71.5929 412.516C70.9529 412.516 70.2969 412.516 69.6249 412.516C68.9529 412.516 68.2889 412.516 67.6329 412.516ZM91.4351 411.94C90.3311 412.404 89.2351 412.692 88.1471 412.804C87.0591 412.916 86.0271 412.852 85.0511 412.612C84.0911 412.388 83.2351 411.996 82.4831 411.436C81.7311 410.876 81.1391 410.164 80.7071 409.3C80.2911 408.436 80.0831 407.436 80.0831 406.3C80.0831 405.356 80.2351 404.492 80.5391 403.708C80.8591 402.908 81.3071 402.212 81.8831 401.62C82.4591 401.012 83.1391 400.548 83.9231 400.228C84.7071 399.892 85.5631 399.724 86.4911 399.724C87.3231 399.724 88.0751 399.86 88.7471 400.132C89.4191 400.404 90.0031 400.788 90.4991 401.284C90.9951 401.764 91.3951 402.34 91.6991 403.012C92.0031 403.684 92.1951 404.42 92.2751 405.22C92.3551 406.02 92.3071 406.868 92.1311 407.764C90.8191 407.764 89.4991 407.764 88.1711 407.764C86.8431 407.764 85.5231 407.764 84.2111 407.764C84.5151 408.372 85.0191 408.804 85.7231 409.06C86.4431 409.316 87.2911 409.396 88.2671 409.3C89.2591 409.204 90.3151 408.948 91.4351 408.532C91.4351 409.092 91.4351 409.66 91.4351 410.236C91.4351 410.812 91.4351 411.38 91.4351 411.94ZM86.3951 403.276C85.9311 403.276 85.4991 403.404 85.0991 403.66C84.7151 403.916 84.4191 404.308 84.2111 404.836C84.9311 404.836 85.6511 404.836 86.3711 404.836C87.1071 404.836 87.8351 404.836 88.5551 404.836C88.3631 404.292 88.0751 403.9 87.6911 403.66C87.3231 403.404 86.8911 403.276 86.3951 403.276ZM107.691 412.516C107.691 412.388 107.691 412.268 107.691 412.156C107.691 412.028 107.691 411.908 107.691 411.796C107.291 412.132 106.835 412.388 106.323 412.564C105.827 412.756 105.291 412.852 104.715 412.852C103.899 412.852 103.131 412.7 102.411 412.396C101.691 412.076 101.051 411.628 100.491 411.052C99.9473 410.46 99.5153 409.764 99.1953 408.964C98.8913 408.164 98.7393 407.276 98.7393 406.3C98.7393 405.308 98.8913 404.412 99.1953 403.612C99.5153 402.812 99.9473 402.132 100.491 401.572C101.051 400.996 101.691 400.556 102.411 400.252C103.131 399.932 103.891 399.772 104.691 399.772C105.267 399.772 105.811 399.868 106.323 400.06C106.835 400.236 107.291 400.484 107.691 400.804C107.691 400.676 107.691 400.556 107.691 400.444C107.691 400.332 107.691 400.22 107.691 400.108C108.347 400.108 109.011 400.108 109.683 400.108C110.355 400.108 111.011 400.108 111.651 400.108C111.651 402.156 111.651 404.228 111.651 406.324C111.651 408.404 111.651 410.468 111.651 412.516C111.011 412.516 110.355 412.516 109.683 412.516C109.011 412.516 108.347 412.516 107.691 412.516ZM105.243 409.348C106.011 409.348 106.627 409.068 107.091 408.508C107.555 407.948 107.787 407.212 107.787 406.3C107.787 405.388 107.555 404.66 107.091 404.116C106.627 403.556 106.011 403.276 105.243 403.276C104.459 403.276 103.835 403.548 103.371 404.092C102.923 404.636 102.699 405.372 102.699 406.3C102.699 407.228 102.923 407.972 103.371 408.532C103.835 409.076 104.459 409.348 105.243 409.348ZM128.813 408.676C128.813 409.668 128.533 410.484 127.973 411.124C127.429 411.748 126.693 412.204 125.765 412.492C124.837 412.78 123.797 412.9 122.645 412.852C121.509 412.82 120.349 412.636 119.165 412.3C119.165 411.692 119.165 411.068 119.165 410.428C119.165 409.788 119.165 409.164 119.165 408.556C119.837 408.86 120.509 409.1 121.181 409.276C121.853 409.436 122.461 409.532 123.005 409.564C123.549 409.596 123.989 409.556 124.325 409.444C124.661 409.316 124.829 409.108 124.829 408.82C124.829 408.596 124.685 408.42 124.397 408.292C124.125 408.164 123.765 408.052 123.317 407.956C122.869 407.844 122.389 407.716 121.877 407.572C121.381 407.412 120.909 407.196 120.461 406.924C120.013 406.636 119.645 406.26 119.357 405.796C119.085 405.316 118.949 404.7 118.949 403.948C118.949 403.052 119.205 402.292 119.717 401.668C120.245 401.028 120.949 400.548 121.829 400.228C122.709 399.892 123.693 399.724 124.781 399.724C125.869 399.724 126.981 399.908 128.117 400.276C128.117 400.884 128.117 401.508 128.117 402.148C128.117 402.788 128.117 403.412 128.117 404.02C127.221 403.588 126.381 403.3 125.597 403.156C124.813 403.012 124.181 402.996 123.701 403.108C123.221 403.204 122.981 403.42 122.981 403.756C122.981 403.98 123.117 404.156 123.389 404.284C123.677 404.396 124.037 404.5 124.469 404.596C124.917 404.692 125.389 404.82 125.885 404.98C126.397 405.14 126.869 405.364 127.301 405.652C127.749 405.924 128.109 406.308 128.381 406.804C128.669 407.284 128.813 407.908 128.813 408.676ZM132.02 412.516C132.02 411.044 132.02 409.564 132.02 408.076C132.02 406.588 132.02 405.116 132.02 403.66C131.7 403.66 131.372 403.66 131.036 403.66C130.716 403.66 130.396 403.66 130.076 403.66C130.076 403.068 130.076 402.476 130.076 401.884C130.076 401.292 130.076 400.7 130.076 400.108C130.396 400.108 130.716 400.108 131.036 400.108C131.372 400.108 131.7 400.108 132.02 400.108C132.02 399.548 132.02 398.996 132.02 398.452C132.02 397.892 132.02 397.34 132.02 396.796C132.676 396.796 133.34 396.796 134.012 396.796C134.684 396.796 135.34 396.796 135.98 396.796C135.98 397.34 135.98 397.892 135.98 398.452C135.98 398.996 135.98 399.548 135.98 400.108C136.348 400.108 136.724 400.108 137.108 400.108C137.492 400.108 137.868 400.108 138.236 400.108C138.236 400.7 138.236 401.292 138.236 401.884C138.236 402.476 138.236 403.068 138.236 403.66C137.868 403.66 137.492 403.66 137.108 403.66C136.724 403.66 136.348 403.66 135.98 403.66C135.98 405.116 135.98 406.588 135.98 408.076C135.98 409.564 135.98 411.044 135.98 412.516C135.34 412.516 134.684 412.516 134.012 412.516C133.34 412.516 132.676 412.516 132.02 412.516ZM145.908 412.9C144.98 412.9 144.116 412.74 143.316 412.42C142.516 412.084 141.82 411.62 141.228 411.028C140.636 410.42 140.172 409.716 139.836 408.916C139.516 408.116 139.356 407.244 139.356 406.3C139.356 405.356 139.516 404.484 139.836 403.684C140.172 402.884 140.636 402.188 141.228 401.596C141.82 401.004 142.516 400.548 143.316 400.228C144.116 399.892 144.98 399.724 145.908 399.724C146.852 399.724 147.716 399.892 148.5 400.228C149.3 400.548 149.996 401.004 150.588 401.596C151.18 402.188 151.636 402.884 151.956 403.684C152.292 404.484 152.46 405.356 152.46 406.3C152.46 407.244 152.292 408.116 151.956 408.916C151.636 409.716 151.18 410.42 150.588 411.028C149.996 411.62 149.3 412.084 148.5 412.42C147.716 412.74 146.852 412.9 145.908 412.9ZM145.908 409.324C146.692 409.324 147.316 409.044 147.78 408.484C148.26 407.908 148.5 407.18 148.5 406.3C148.5 405.404 148.26 404.684 147.78 404.14C147.316 403.58 146.692 403.3 145.908 403.3C145.124 403.3 144.492 403.58 144.012 404.14C143.548 404.684 143.316 405.404 143.316 406.3C143.316 407.18 143.548 407.908 144.012 408.484C144.492 409.044 145.124 409.324 145.908 409.324ZM154.419 412.516C154.419 410.468 154.419 408.404 154.419 406.324C154.419 404.228 154.419 402.156 154.419 400.108C155.075 400.108 155.739 400.108 156.411 400.108C157.083 400.108 157.739 400.108 158.379 400.108C158.379 400.22 158.379 400.332 158.379 400.444C158.379 400.556 158.379 400.668 158.379 400.78C158.875 400.428 159.435 400.164 160.059 399.988C160.683 399.812 161.363 399.764 162.099 399.844C162.099 400.484 162.099 401.132 162.099 401.788C162.099 402.444 162.099 403.092 162.099 403.732C160.835 403.556 159.899 403.668 159.291 404.068C158.683 404.452 158.379 405.084 158.379 405.964C158.379 407.036 158.379 408.124 158.379 409.228C158.379 410.332 158.379 411.428 158.379 412.516C157.739 412.516 157.083 412.516 156.411 412.516C155.739 412.516 155.075 412.516 154.419 412.516ZM163.888 412.516C163.888 410.468 163.888 408.404 163.888 406.324C163.888 404.228 163.888 402.156 163.888 400.108C164.544 400.108 165.208 400.108 165.88 400.108C166.552 400.108 167.208 400.108 167.848 400.108C167.848 400.22 167.848 400.324 167.848 400.42C167.848 400.516 167.848 400.62 167.848 400.732C168.264 400.428 168.728 400.196 169.24 400.036C169.752 399.86 170.28 399.772 170.824 399.772C171.416 399.772 171.96 399.876 172.456 400.084C172.952 400.276 173.376 400.564 173.728 400.948C174.24 400.58 174.816 400.292 175.456 400.084C176.112 399.876 176.784 399.772 177.472 399.772C178.448 399.772 179.288 399.972 179.992 400.372C180.712 400.772 181.264 401.34 181.648 402.076C182.048 402.812 182.248 403.7 182.248 404.74C182.248 406.02 182.248 407.316 182.248 408.628C182.248 409.94 182.248 411.236 182.248 412.516C181.608 412.516 180.952 412.516 180.28 412.516C179.608 412.516 178.944 412.516 178.288 412.516C178.288 411.316 178.288 410.1 178.288 408.868C178.288 407.636 178.288 406.42 178.288 405.22C178.288 404.676 178.16 404.236 177.904 403.9C177.664 403.548 177.272 403.372 176.728 403.372C176.2 403.372 175.784 403.54 175.48 403.876C175.192 404.196 175.048 404.644 175.048 405.22C175.048 406.42 175.048 407.636 175.048 408.868C175.048 410.1 175.048 411.316 175.048 412.516C174.408 412.516 173.752 412.516 173.08 412.516C172.408 412.516 171.744 412.516 171.088 412.516C171.088 411.316 171.088 410.1 171.088 408.868C171.088 407.636 171.088 406.42 171.088 405.22C171.088 404.676 170.96 404.236 170.704 403.9C170.464 403.548 170.072 403.372 169.528 403.372C169 403.372 168.584 403.54 168.28 403.876C167.992 404.196 167.848 404.644 167.848 405.22C167.848 406.42 167.848 407.636 167.848 408.868C167.848 410.1 167.848 411.316 167.848 412.516C167.208 412.516 166.552 412.516 165.88 412.516C165.208 412.516 164.544 412.516 163.888 412.516ZM198.019 412.516C198.019 412.388 198.019 412.268 198.019 412.156C198.019 412.028 198.019 411.908 198.019 411.796C197.619 412.132 197.163 412.388 196.651 412.564C196.155 412.756 195.619 412.852 195.043 412.852C194.227 412.852 193.459 412.7 192.739 412.396C192.019 412.076 191.379 411.628 190.819 411.052C190.275 410.46 189.843 409.764 189.523 408.964C189.219 408.164 189.067 407.276 189.067 406.3C189.067 405.308 189.219 404.412 189.523 403.612C189.843 402.812 190.275 402.132 190.819 401.572C191.379 400.996 192.019 400.556 192.739 400.252C193.459 399.932 194.219 399.772 195.019 399.772C195.595 399.772 196.139 399.868 196.651 400.06C197.163 400.236 197.619 400.484 198.019 400.804C198.019 400.676 198.019 400.556 198.019 400.444C198.019 400.332 198.019 400.22 198.019 400.108C198.675 400.108 199.339 400.108 200.011 400.108C200.683 400.108 201.339 400.108 201.979 400.108C201.979 402.156 201.979 404.228 201.979 406.324C201.979 408.404 201.979 410.468 201.979 412.516C201.339 412.516 200.683 412.516 200.011 412.516C199.339 412.516 198.675 412.516 198.019 412.516ZM195.571 409.348C196.339 409.348 196.955 409.068 197.419 408.508C197.883 407.948 198.115 407.212 198.115 406.3C198.115 405.388 197.883 404.66 197.419 404.116C196.955 403.556 196.339 403.276 195.571 403.276C194.787 403.276 194.163 403.548 193.699 404.092C193.251 404.636 193.027 405.372 193.027 406.3C193.027 407.228 193.251 407.972 193.699 408.532C194.163 409.076 194.787 409.348 195.571 409.348ZM208.702 412.516C208.062 412.516 207.406 412.516 206.734 412.516C206.062 412.516 205.398 412.516 204.742 412.516C204.742 409.62 204.742 406.7 204.742 403.756C204.742 400.812 204.742 397.892 204.742 394.996C205.398 394.996 206.062 394.996 206.734 394.996C207.406 394.996 208.062 394.996 208.702 394.996C208.702 395.956 208.702 396.924 208.702 397.9C208.702 398.876 208.702 399.844 208.702 400.804C209.102 400.484 209.558 400.236 210.07 400.06C210.582 399.868 211.126 399.772 211.702 399.772C212.502 399.772 213.262 399.932 213.982 400.252C214.702 400.556 215.334 400.996 215.878 401.572C216.438 402.148 216.87 402.836 217.174 403.636C217.494 404.436 217.654 405.324 217.654 406.3C217.654 407.26 217.494 408.14 217.174 408.94C216.87 409.74 216.438 410.436 215.878 411.028C215.334 411.604 214.702 412.052 213.982 412.372C213.262 412.692 212.494 412.852 211.678 412.852C211.102 412.852 210.558 412.756 210.046 412.564C209.55 412.388 209.102 412.132 208.702 411.796C208.702 411.908 208.702 412.028 208.702 412.156C208.702 412.268 208.702 412.388 208.702 412.516ZM211.15 409.348C211.934 409.348 212.55 409.076 212.998 408.532C213.462 407.972 213.694 407.228 213.694 406.3C213.694 405.372 213.462 404.636 212.998 404.092C212.55 403.548 211.934 403.276 211.15 403.276C210.382 403.276 209.766 403.556 209.302 404.116C208.838 404.66 208.606 405.388 208.606 406.3C208.606 407.212 208.838 407.948 209.302 408.508C209.766 409.068 210.382 409.348 211.15 409.348ZM225.502 412.9C224.574 412.9 223.71 412.74 222.91 412.42C222.11 412.084 221.414 411.62 220.822 411.028C220.23 410.42 219.766 409.716 219.43 408.916C219.11 408.116 218.95 407.244 218.95 406.3C218.95 405.356 219.11 404.484 219.43 403.684C219.766 402.884 220.23 402.188 220.822 401.596C221.414 401.004 222.11 400.548 222.91 400.228C223.71 399.892 224.574 399.724 225.502 399.724C226.446 399.724 227.31 399.892 228.094 400.228C228.894 400.548 229.59 401.004 230.182 401.596C230.774 402.188 231.23 402.884 231.55 403.684C231.886 404.484 232.054 405.356 232.054 406.3C232.054 407.244 231.886 408.116 231.55 408.916C231.23 409.716 230.774 410.42 230.182 411.028C229.59 411.62 228.894 412.084 228.094 412.42C227.31 412.74 226.446 412.9 225.502 412.9ZM225.502 409.324C226.286 409.324 226.91 409.044 227.374 408.484C227.854 407.908 228.094 407.18 228.094 406.3C228.094 405.404 227.854 404.684 227.374 404.14C226.91 403.58 226.286 403.3 225.502 403.3C224.718 403.3 224.086 403.58 223.606 404.14C223.142 404.684 222.91 405.404 222.91 406.3C222.91 407.18 223.142 407.908 223.606 408.484C224.086 409.044 224.718 409.324 225.502 409.324ZM245.605 400.108C245.605 402.156 245.605 404.228 245.605 406.324C245.605 408.404 245.605 410.468 245.605 412.516C244.965 412.516 244.309 412.516 243.637 412.516C242.965 412.516 242.301 412.516 241.645 412.516C241.645 412.404 241.645 412.3 241.645 412.204C241.645 412.108 241.645 412.004 241.645 411.892C241.213 412.196 240.725 412.428 240.181 412.588C239.653 412.764 239.077 412.852 238.453 412.852C237.541 412.852 236.733 412.644 236.029 412.228C235.341 411.812 234.797 411.212 234.397 410.428C234.013 409.644 233.821 408.716 233.821 407.644C233.821 406.396 233.821 405.14 233.821 403.876C233.821 402.612 233.821 401.356 233.821 400.108C234.477 400.108 235.141 400.108 235.813 400.108C236.485 400.108 237.141 400.108 237.781 400.108C237.781 401.26 237.781 402.428 237.781 403.612C237.781 404.796 237.781 405.964 237.781 407.116C237.781 407.756 237.925 408.276 238.213 408.676C238.517 409.06 238.989 409.252 239.629 409.252C240.269 409.252 240.765 409.068 241.117 408.7C241.469 408.332 241.645 407.804 241.645 407.116C241.645 405.964 241.645 404.796 241.645 403.612C241.645 402.428 241.645 401.26 241.645 400.108C242.301 400.108 242.965 400.108 243.637 400.108C244.309 400.108 244.965 400.108 245.605 400.108ZM249.535 412.516C249.535 411.044 249.535 409.564 249.535 408.076C249.535 406.588 249.535 405.116 249.535 403.66C249.215 403.66 248.887 403.66 248.551 403.66C248.231 403.66 247.911 403.66 247.591 403.66C247.591 403.068 247.591 402.476 247.591 401.884C247.591 401.292 247.591 400.7 247.591 400.108C247.911 400.108 248.231 400.108 248.551 400.108C248.887 400.108 249.215 400.108 249.535 400.108C249.535 399.548 249.535 398.996 249.535 398.452C249.535 397.892 249.535 397.34 249.535 396.796C250.191 396.796 250.855 396.796 251.527 396.796C252.199 396.796 252.855 396.796 253.495 396.796C253.495 397.34 253.495 397.892 253.495 398.452C253.495 398.996 253.495 399.548 253.495 400.108C253.863 400.108 254.239 400.108 254.623 400.108C255.007 400.108 255.383 400.108 255.751 400.108C255.751 400.7 255.751 401.292 255.751 401.884C255.751 402.476 255.751 403.068 255.751 403.66C255.383 403.66 255.007 403.66 254.623 403.66C254.239 403.66 253.863 403.66 253.495 403.66C253.495 405.116 253.495 406.588 253.495 408.076C253.495 409.564 253.495 411.044 253.495 412.516C252.855 412.516 252.199 412.516 251.527 412.516C250.855 412.516 250.191 412.516 249.535 412.516ZM263.996 412.516C263.996 411.044 263.996 409.564 263.996 408.076C263.996 406.588 263.996 405.116 263.996 403.66C263.676 403.66 263.348 403.66 263.012 403.66C262.692 403.66 262.372 403.66 262.052 403.66C262.052 403.068 262.052 402.476 262.052 401.884C262.052 401.292 262.052 400.7 262.052 400.108C262.372 400.108 262.692 400.108 263.012 400.108C263.348 400.108 263.676 400.108 263.996 400.108C263.996 399.548 263.996 398.996 263.996 398.452C263.996 397.892 263.996 397.34 263.996 396.796C264.652 396.796 265.316 396.796 265.988 396.796C266.66 396.796 267.316 396.796 267.956 396.796C267.956 397.34 267.956 397.892 267.956 398.452C267.956 398.996 267.956 399.548 267.956 400.108C268.324 400.108 268.7 400.108 269.084 400.108C269.468 400.108 269.844 400.108 270.212 400.108C270.212 400.7 270.212 401.292 270.212 401.884C270.212 402.476 270.212 403.068 270.212 403.66C269.844 403.66 269.468 403.66 269.084 403.66C268.7 403.66 268.324 403.66 267.956 403.66C267.956 405.116 267.956 406.588 267.956 408.076C267.956 409.564 267.956 411.044 267.956 412.516C267.316 412.516 266.66 412.516 265.988 412.516C265.316 412.516 264.652 412.516 263.996 412.516ZM277.885 412.9C276.957 412.9 276.093 412.74 275.293 412.42C274.493 412.084 273.797 411.62 273.205 411.028C272.613 410.42 272.149 409.716 271.813 408.916C271.493 408.116 271.333 407.244 271.333 406.3C271.333 405.356 271.493 404.484 271.813 403.684C272.149 402.884 272.613 402.188 273.205 401.596C273.797 401.004 274.493 400.548 275.293 400.228C276.093 399.892 276.957 399.724 277.885 399.724C278.829 399.724 279.693 399.892 280.477 400.228C281.277 400.548 281.973 401.004 282.565 401.596C283.157 402.188 283.613 402.884 283.933 403.684C284.269 404.484 284.437 405.356 284.437 406.3C284.437 407.244 284.269 408.116 283.933 408.916C283.613 409.716 283.157 410.42 282.565 411.028C281.973 411.62 281.277 412.084 280.477 412.42C279.693 412.74 278.829 412.9 277.885 412.9ZM277.885 409.324C278.669 409.324 279.293 409.044 279.757 408.484C280.237 407.908 280.477 407.18 280.477 406.3C280.477 405.404 280.237 404.684 279.757 404.14C279.293 403.58 278.669 403.3 277.885 403.3C277.101 403.3 276.469 403.58 275.989 404.14C275.525 404.684 275.293 405.404 275.293 406.3C275.293 407.18 275.525 407.908 275.989 408.484C276.469 409.044 277.101 409.324 277.885 409.324ZM53.9454 458.516C53.9454 455.62 53.9454 452.7 53.9454 449.756C53.9454 446.812 53.9454 443.892 53.9454 440.996C54.6014 440.996 55.2654 440.996 55.9374 440.996C56.6094 440.996 57.2654 440.996 57.9054 440.996C57.9054 441.94 57.9054 442.9 57.9054 443.876C57.9054 444.836 57.9054 445.788 57.9054 446.732C58.3374 446.428 58.8174 446.196 59.3454 446.036C59.8894 445.86 60.4734 445.772 61.0974 445.772C62.0094 445.772 62.8094 445.98 63.4974 446.396C64.2014 446.812 64.7454 447.412 65.1294 448.196C65.5294 448.964 65.7294 449.892 65.7294 450.98C65.7294 452.228 65.7294 453.484 65.7294 454.748C65.7294 456.012 65.7294 457.268 65.7294 458.516C65.0894 458.516 64.4334 458.516 63.7614 458.516C63.0894 458.516 62.4254 458.516 61.7694 458.516C61.7694 457.364 61.7694 456.196 61.7694 455.012C61.7694 453.828 61.7694 452.66 61.7694 451.508C61.7694 450.868 61.6174 450.356 61.3134 449.972C61.0254 449.572 60.5614 449.372 59.9214 449.372C59.2814 449.372 58.7854 449.556 58.4334 449.924C58.0814 450.292 57.9054 450.82 57.9054 451.508C57.9054 452.66 57.9054 453.828 57.9054 455.012C57.9054 456.196 57.9054 457.364 57.9054 458.516C57.2654 458.516 56.6094 458.516 55.9374 458.516C55.2654 458.516 54.6014 458.516 53.9454 458.516ZM70.3046 444.692C69.8406 444.692 69.4166 444.58 69.0326 444.356C68.6646 444.132 68.3686 443.836 68.1446 443.468C67.9206 443.1 67.8086 442.692 67.8086 442.244C67.8086 441.796 67.9206 441.396 68.1446 441.044C68.3686 440.676 68.6646 440.38 69.0326 440.156C69.4166 439.932 69.8406 439.82 70.3046 439.82C70.7526 439.82 71.1606 439.932 71.5286 440.156C71.9126 440.38 72.2166 440.676 72.4406 441.044C72.6646 441.396 72.7766 441.796 72.7766 442.244C72.7766 442.692 72.6646 443.1 72.4406 443.468C72.2166 443.836 71.9126 444.132 71.5286 444.356C71.1606 444.58 70.7526 444.692 70.3046 444.692ZM68.3126 458.516C68.3126 456.468 68.3126 454.404 68.3126 452.324C68.3126 450.228 68.3126 448.156 68.3126 446.108C68.9686 446.108 69.6326 446.108 70.3046 446.108C70.9766 446.108 71.6326 446.108 72.2726 446.108C72.2726 448.156 72.2726 450.228 72.2726 452.324C72.2726 454.404 72.2726 456.468 72.2726 458.516C71.6326 458.516 70.9766 458.516 70.3046 458.516C69.6326 458.516 68.9686 458.516 68.3126 458.516ZM76.3323 458.516C76.3323 457.044 76.3323 455.564 76.3323 454.076C76.3323 452.588 76.3323 451.116 76.3323 449.66C76.0123 449.66 75.6843 449.66 75.3483 449.66C75.0283 449.66 74.7083 449.66 74.3883 449.66C74.3883 449.068 74.3883 448.476 74.3883 447.884C74.3883 447.292 74.3883 446.7 74.3883 446.108C74.7083 446.108 75.0283 446.108 75.3483 446.108C75.6843 446.108 76.0123 446.108 76.3323 446.108C76.3323 445.548 76.3323 444.996 76.3323 444.452C76.3323 443.892 76.3323 443.34 76.3323 442.796C76.9883 442.796 77.6523 442.796 78.3243 442.796C78.9963 442.796 79.6523 442.796 80.2923 442.796C80.2923 443.34 80.2923 443.892 80.2923 444.452C80.2923 444.996 80.2923 445.548 80.2923 446.108C80.6603 446.108 81.0363 446.108 81.4203 446.108C81.8043 446.108 82.1803 446.108 82.5483 446.108C82.5483 446.7 82.5483 447.292 82.5483 447.884C82.5483 448.476 82.5483 449.068 82.5483 449.66C82.1803 449.66 81.8043 449.66 81.4203 449.66C81.0363 449.66 80.6603 449.66 80.2923 449.66C80.2923 451.116 80.2923 452.588 80.2923 454.076C80.2923 455.564 80.2923 457.044 80.2923 458.516C79.6523 458.516 78.9963 458.516 78.3243 458.516C77.6523 458.516 76.9883 458.516 76.3323 458.516ZM85.4469 458.9C84.9829 458.9 84.5509 458.788 84.1509 458.564C83.7669 458.34 83.4629 458.036 83.2389 457.652C83.0149 457.268 82.9029 456.852 82.9029 456.404C82.9029 455.956 83.0149 455.548 83.2389 455.18C83.4629 454.796 83.7669 454.492 84.1509 454.268C84.5509 454.044 84.9829 453.932 85.4469 453.932C85.9109 453.932 86.3269 454.044 86.6949 454.268C87.0789 454.492 87.3829 454.796 87.6069 455.18C87.8469 455.548 87.9669 455.956 87.9669 456.404C87.9669 456.852 87.8469 457.268 87.6069 457.652C87.3829 458.036 87.0789 458.34 86.6949 458.564C86.3269 458.788 85.9109 458.9 85.4469 458.9Z" fill="#888888"/>
<path d="M56.6996 111.686C56.6996 104.518 56.6996 97.2642 56.6996 89.9255C56.6996 82.5869 56.6996 75.3335 56.6996 68.1655C58.5769 68.1655 60.4542 68.1655 62.3316 68.1655C64.2089 68.1655 66.0649 68.1655 67.8996 68.1655C67.8996 73.6695 67.8996 79.2375 67.8996 84.8695C67.8996 90.4589 67.8996 96.0055 67.8996 101.51C70.1609 101.51 72.4436 101.51 74.7476 101.51C77.0516 101.51 79.3129 101.51 81.5316 101.51C81.5316 103.174 81.5316 104.88 81.5316 106.63C81.5316 108.336 81.5316 110.022 81.5316 111.686C77.4356 111.686 73.2969 111.686 69.1156 111.686C64.9342 111.686 60.7956 111.686 56.6996 111.686ZM102.052 112.71C99.5774 112.71 97.2734 112.283 95.1401 111.43C93.0067 110.534 91.1507 109.296 89.5721 107.718C87.9934 106.096 86.7561 104.219 85.8601 102.086C85.0067 99.9522 84.5801 97.6269 84.5801 95.1095C84.5801 92.5922 85.0067 90.2669 85.8601 88.1335C86.7561 86.0002 87.9934 84.1442 89.5721 82.5655C91.1507 80.9869 93.0067 79.7709 95.1401 78.9175C97.2734 78.0215 99.5774 77.5735 102.052 77.5735C104.569 77.5735 106.873 78.0215 108.964 78.9175C111.097 79.7709 112.953 80.9869 114.532 82.5655C116.111 84.1442 117.327 86.0002 118.18 88.1335C119.076 90.2669 119.524 92.5922 119.524 95.1095C119.524 97.6269 119.076 99.9522 118.18 102.086C117.327 104.219 116.111 106.096 114.532 107.718C112.953 109.296 111.097 110.534 108.964 111.43C106.873 112.283 104.569 112.71 102.052 112.71ZM102.052 103.174C104.143 103.174 105.807 102.427 107.044 100.934C108.324 99.3975 108.964 97.4562 108.964 95.1095C108.964 92.7202 108.324 90.8002 107.044 89.3495C105.807 87.8562 104.143 87.1095 102.052 87.1095C99.9614 87.1095 98.2761 87.8562 96.9961 89.3495C95.7587 90.8002 95.1401 92.7202 95.1401 95.1095C95.1401 97.4562 95.7587 99.3975 96.9961 100.934C98.2761 102.427 99.9614 103.174 102.052 103.174ZM130.842 111.686C129.178 106.224 127.493 100.72 125.786 95.1735C124.122 89.5842 122.458 84.0589 120.794 78.5975C122.543 78.5975 124.314 78.5975 126.106 78.5975C127.941 78.5975 129.733 78.5975 131.482 78.5975C132.335 81.5842 133.189 84.6135 134.042 87.6855C134.938 90.7149 135.791 93.7229 136.602 96.7095C137.327 93.7229 138.053 90.7149 138.778 87.6855C139.546 84.6135 140.271 81.5842 140.954 78.5975C142.447 78.5975 143.941 78.5975 145.434 78.5975C146.97 78.5975 148.485 78.5975 149.978 78.5975C150.703 81.5842 151.429 84.6349 152.154 87.7495C152.922 90.8215 153.647 93.8722 154.33 96.9015C155.183 93.8722 156.037 90.8215 156.89 87.7495C157.786 84.6349 158.639 81.5842 159.45 78.5975C161.199 78.5975 162.949 78.5975 164.698 78.5975C166.49 78.5975 168.239 78.5975 169.946 78.5975C168.282 84.0589 166.597 89.5842 164.89 95.1735C163.226 100.72 161.562 106.224 159.898 111.686C158.191 111.686 156.463 111.686 154.714 111.686C152.965 111.686 151.237 111.686 149.53 111.686C148.847 109.04 148.143 106.374 147.418 103.686C146.735 100.998 146.053 98.3522 145.37 95.7495C144.687 98.3522 143.983 100.998 143.258 103.686C142.575 106.374 141.893 109.04 141.21 111.686C139.503 111.686 137.775 111.686 136.026 111.686C134.277 111.686 132.549 111.686 130.842 111.686ZM63.9316 139.166C65.5102 144.03 67.0676 148.936 68.6036 153.886C70.1822 158.835 71.7609 163.742 73.3396 168.606C74.9182 163.742 76.4969 158.835 78.0756 153.886C79.6542 148.936 81.2329 144.03 82.8116 139.166C84.6462 139.166 86.5022 139.166 88.3796 139.166C90.2569 139.166 92.1129 139.166 93.9476 139.166C91.6436 146.334 89.2969 153.587 86.9076 160.926C84.5609 168.264 82.2356 175.518 79.9316 182.686C77.7129 182.686 75.4729 182.686 73.2116 182.686C70.9929 182.686 68.7742 182.686 66.5556 182.686C64.2516 175.518 61.9049 168.264 59.5156 160.926C57.1689 153.587 54.8436 146.334 52.5396 139.166C54.4169 139.166 56.3156 139.166 58.2356 139.166C60.1556 139.166 62.0542 139.166 63.9316 139.166ZM103.129 145.822C101.892 145.822 100.761 145.523 99.7371 144.926C98.7557 144.328 97.9664 143.539 97.3691 142.558C96.7717 141.576 96.4731 140.488 96.4731 139.294C96.4731 138.099 96.7717 137.032 97.3691 136.094C97.9664 135.112 98.7557 134.323 99.7371 133.726C100.761 133.128 101.892 132.83 103.129 132.83C104.324 132.83 105.412 133.128 106.393 133.726C107.417 134.323 108.228 135.112 108.825 136.094C109.422 137.032 109.721 138.099 109.721 139.294C109.721 140.488 109.422 141.576 108.825 142.558C108.228 143.539 107.417 144.328 106.393 144.926C105.412 145.523 104.324 145.822 103.129 145.822ZM97.8171 182.686C97.8171 177.224 97.8171 171.72 97.8171 166.174C97.8171 160.584 97.8171 155.059 97.8171 149.598C99.5664 149.598 101.337 149.598 103.129 149.598C104.921 149.598 106.67 149.598 108.377 149.598C108.377 155.059 108.377 160.584 108.377 166.174C108.377 171.72 108.377 177.224 108.377 182.686C106.67 182.686 104.921 182.686 103.129 182.686C101.337 182.686 99.5664 182.686 97.8171 182.686ZM119.203 182.686C119.203 178.76 119.203 174.814 119.203 170.846C119.203 166.878 119.203 162.952 119.203 159.07C118.35 159.07 117.475 159.07 116.579 159.07C115.726 159.07 114.872 159.07 114.019 159.07C114.019 157.491 114.019 155.912 114.019 154.334C114.019 152.755 114.019 151.176 114.019 149.598C114.872 149.598 115.726 149.598 116.579 149.598C117.475 149.598 118.35 149.598 119.203 149.598C119.203 148.104 119.203 146.632 119.203 145.182C119.203 143.688 119.203 142.216 119.203 140.766C120.952 140.766 122.723 140.766 124.515 140.766C126.307 140.766 128.056 140.766 129.763 140.766C129.763 142.216 129.763 143.688 129.763 145.182C129.763 146.632 129.763 148.104 129.763 149.598C130.744 149.598 131.747 149.598 132.771 149.598C133.795 149.598 134.798 149.598 135.779 149.598C135.779 151.176 135.779 152.755 135.779 154.334C135.779 155.912 135.779 157.491 135.779 159.07C134.798 159.07 133.795 159.07 132.771 159.07C131.747 159.07 130.744 159.07 129.763 159.07C129.763 162.952 129.763 166.878 129.763 170.846C129.763 174.814 129.763 178.76 129.763 182.686C128.056 182.686 126.307 182.686 124.515 182.686C122.723 182.686 120.952 182.686 119.203 182.686ZM162.64 182.686C162.64 182.344 162.64 182.024 162.64 181.726C162.64 181.384 162.64 181.064 162.64 180.766C161.573 181.662 160.357 182.344 158.992 182.814C157.669 183.326 156.24 183.582 154.704 183.582C152.528 183.582 150.48 183.176 148.56 182.366C146.64 181.512 144.933 180.318 143.44 178.782C141.989 177.203 140.837 175.347 139.984 173.214C139.173 171.08 138.768 168.712 138.768 166.11C138.768 163.464 139.173 161.075 139.984 158.942C140.837 156.808 141.989 154.995 143.44 153.502C144.933 151.966 146.64 150.792 148.56 149.982C150.48 149.128 152.506 148.702 154.64 148.702C156.176 148.702 157.626 148.958 158.992 149.47C160.357 149.939 161.573 150.6 162.64 151.454C162.64 151.112 162.64 150.792 162.64 150.494C162.64 150.195 162.64 149.896 162.64 149.598C164.389 149.598 166.16 149.598 167.952 149.598C169.744 149.598 171.493 149.598 173.2 149.598C173.2 155.059 173.2 160.584 173.2 166.174C173.2 171.72 173.2 177.224 173.2 182.686C171.493 182.686 169.744 182.686 167.952 182.686C166.16 182.686 164.389 182.686 162.64 182.686ZM156.112 174.238C158.16 174.238 159.802 173.491 161.04 171.998C162.277 170.504 162.896 168.542 162.896 166.11C162.896 163.678 162.277 161.736 161.04 160.286C159.802 158.792 158.16 158.046 156.112 158.046C154.021 158.046 152.357 158.771 151.12 160.222C149.925 161.672 149.328 163.635 149.328 166.11C149.328 168.584 149.925 170.568 151.12 172.062C152.357 173.512 154.021 174.238 156.112 174.238ZM180.567 182.686C180.567 174.963 180.567 167.176 180.567 159.326C180.567 151.475 180.567 143.688 180.567 135.966C182.316 135.966 184.087 135.966 185.879 135.966C187.671 135.966 189.42 135.966 191.127 135.966C191.127 143.688 191.127 151.475 191.127 159.326C191.127 167.176 191.127 174.963 191.127 182.686C189.42 182.686 187.671 182.686 185.879 182.686C184.087 182.686 182.316 182.686 180.567 182.686ZM204.129 145.822C202.892 145.822 201.761 145.523 200.737 144.926C199.756 144.328 198.966 143.539 198.369 142.558C197.772 141.576 197.473 140.488 197.473 139.294C197.473 138.099 197.772 137.032 198.369 136.094C198.966 135.112 199.756 134.323 200.737 133.726C201.761 133.128 202.892 132.83 204.129 132.83C205.324 132.83 206.412 133.128 207.393 133.726C208.417 134.323 209.228 135.112 209.825 136.094C210.422 137.032 210.721 138.099 210.721 139.294C210.721 140.488 210.422 141.576 209.825 142.558C209.228 143.539 208.417 144.328 207.393 144.926C206.412 145.523 205.324 145.822 204.129 145.822ZM198.817 182.686C198.817 177.224 198.817 171.72 198.817 166.174C198.817 160.584 198.817 155.059 198.817 149.598C200.566 149.598 202.337 149.598 204.129 149.598C205.921 149.598 207.67 149.598 209.377 149.598C209.377 155.059 209.377 160.584 209.377 166.174C209.377 171.72 209.377 177.224 209.377 182.686C207.67 182.686 205.921 182.686 204.129 182.686C202.337 182.686 200.566 182.686 198.817 182.686ZM220.203 182.686C220.203 178.76 220.203 174.814 220.203 170.846C220.203 166.878 220.203 162.952 220.203 159.07C219.35 159.07 218.475 159.07 217.579 159.07C216.726 159.07 215.872 159.07 215.019 159.07C215.019 157.491 215.019 155.912 215.019 154.334C215.019 152.755 215.019 151.176 215.019 149.598C215.872 149.598 216.726 149.598 217.579 149.598C218.475 149.598 219.35 149.598 220.203 149.598C220.203 148.104 220.203 146.632 220.203 145.182C220.203 143.688 220.203 142.216 220.203 140.766C221.952 140.766 223.723 140.766 225.515 140.766C227.307 140.766 229.056 140.766 230.763 140.766C230.763 142.216 230.763 143.688 230.763 145.182C230.763 146.632 230.763 148.104 230.763 149.598C231.744 149.598 232.747 149.598 233.771 149.598C234.795 149.598 235.798 149.598 236.779 149.598C236.779 151.176 236.779 152.755 236.779 154.334C236.779 155.912 236.779 157.491 236.779 159.07C235.798 159.07 234.795 159.07 233.771 159.07C232.747 159.07 231.744 159.07 230.763 159.07C230.763 162.952 230.763 166.878 230.763 170.846C230.763 174.814 230.763 178.76 230.763 182.686C229.056 182.686 227.307 182.686 225.515 182.686C223.723 182.686 221.952 182.686 220.203 182.686ZM244.944 192.926C245.797 190.664 246.672 188.382 247.568 186.078C248.507 183.816 249.403 181.576 250.256 179.358C248.251 174.451 246.203 169.502 244.112 164.51C242.064 159.475 240.037 154.504 238.032 149.598C239.909 149.598 241.787 149.598 243.664 149.598C245.541 149.598 247.397 149.598 249.232 149.598C250.341 152.328 251.451 155.102 252.56 157.918C253.712 160.734 254.843 163.528 255.952 166.302C256.976 163.528 258.021 160.734 259.088 157.918C260.155 155.102 261.2 152.328 262.224 149.598C264.059 149.598 265.893 149.598 267.728 149.598C269.563 149.598 271.397 149.598 273.232 149.598C270.373 156.723 267.493 163.955 264.592 171.294C261.733 178.59 258.875 185.8 256.016 192.926C254.181 192.926 252.325 192.926 250.448 192.926C248.613 192.926 246.779 192.926 244.944 192.926Z" fill="#686868"/>
</svg>
