<svg width="386" height="629" viewBox="0 0 386 629" fill="none" xmlns="http://www.w3.org/2000/svg">
<path d="M363.63 2C374.676 2 383.63 10.9543 383.63 22V606.39C383.63 617.435 374.676 626.39 363.63 626.39H22C10.9543 626.39 2 617.435 2 606.39V22C2 10.9543 10.9543 2 22 2H363.63Z" fill="#FBF6F2" stroke="#404040" stroke-width="4"/>
<path d="M4 515.384H381.63V606.39C381.63 616.331 373.571 624.39 363.63 624.39H22C12.0589 624.39 4 616.331 4 606.39V515.384Z" fill="#F4E3D5"/>
<path d="M53.0414 272.943C53.0414 270.255 53.0414 267.535 53.0414 264.783C53.0414 262.031 53.0414 259.311 53.0414 256.623C54.6574 256.623 56.2894 256.623 57.9374 256.623C59.5854 256.623 61.2174 256.623 62.8334 256.623C62.8334 257.247 62.8334 257.879 62.8334 258.519C62.8334 259.159 62.8334 259.791 62.8334 260.415C61.9054 260.415 60.9694 260.415 60.0254 260.415C59.0974 260.415 58.1694 260.415 57.2414 260.415C57.2414 260.879 57.2414 261.359 57.2414 261.855C57.2414 262.335 57.2414 262.807 57.2414 263.271C58.0894 263.271 58.9454 263.271 59.8094 263.271C60.6734 263.271 61.5214 263.271 62.3534 263.271C62.3534 263.863 62.3534 264.463 62.3534 265.071C62.3534 265.679 62.3534 266.287 62.3534 266.895C61.5214 266.895 60.6734 266.895 59.8094 266.895C58.9454 266.895 58.0894 266.895 57.2414 266.895C57.2414 267.887 57.2414 268.895 57.2414 269.919C57.2414 270.943 57.2414 271.951 57.2414 272.943C56.5534 272.943 55.8574 272.943 55.1534 272.943C54.4494 272.943 53.7454 272.943 53.0414 272.943ZM76.5809 260.535C76.5809 262.583 76.5809 264.655 76.5809 266.751C76.5809 268.831 76.5809 270.895 76.5809 272.943C75.9409 272.943 75.2849 272.943 74.6129 272.943C73.9409 272.943 73.2769 272.943 72.6209 272.943C72.6209 272.831 72.6209 272.727 72.6209 272.631C72.6209 272.535 72.6209 272.431 72.6209 272.319C72.1889 272.623 71.7009 272.855 71.1569 273.015C70.6289 273.191 70.0529 273.279 69.4289 273.279C68.5169 273.279 67.7089 273.071 67.0049 272.655C66.3169 272.239 65.7729 271.639 65.3729 270.855C64.9889 270.071 64.7969 269.143 64.7969 268.071C64.7969 266.823 64.7969 265.567 64.7969 264.303C64.7969 263.039 64.7969 261.783 64.7969 260.535C65.4529 260.535 66.1169 260.535 66.7889 260.535C67.4609 260.535 68.1169 260.535 68.7569 260.535C68.7569 261.687 68.7569 262.855 68.7569 264.039C68.7569 265.223 68.7569 266.391 68.7569 267.543C68.7569 268.183 68.9009 268.703 69.1889 269.103C69.4929 269.487 69.9649 269.679 70.6049 269.679C71.2449 269.679 71.7409 269.495 72.0929 269.127C72.4449 268.759 72.6209 268.231 72.6209 267.543C72.6209 266.391 72.6209 265.223 72.6209 264.039C72.6209 262.855 72.6209 261.687 72.6209 260.535C73.2769 260.535 73.9409 260.535 74.6129 260.535C75.2849 260.535 75.9409 260.535 76.5809 260.535ZM79.3355 272.943C79.3355 270.047 79.3355 267.127 79.3355 264.183C79.3355 261.239 79.3355 258.319 79.3355 255.423C79.9915 255.423 80.6555 255.423 81.3275 255.423C81.9995 255.423 82.6555 255.423 83.2955 255.423C83.2955 258.319 83.2955 261.239 83.2955 264.183C83.2955 267.127 83.2955 270.047 83.2955 272.943C82.6555 272.943 81.9995 272.943 81.3275 272.943C80.6555 272.943 79.9915 272.943 79.3355 272.943ZM86.1793 272.943C86.1793 270.047 86.1793 267.127 86.1793 264.183C86.1793 261.239 86.1793 258.319 86.1793 255.423C86.8353 255.423 87.4993 255.423 88.1713 255.423C88.8433 255.423 89.4993 255.423 90.1393 255.423C90.1393 258.319 90.1393 261.239 90.1393 264.183C90.1393 267.127 90.1393 270.047 90.1393 272.943C89.4993 272.943 88.8433 272.943 88.1713 272.943C87.4993 272.943 86.8353 272.943 86.1793 272.943ZM102.022 272.943C101.382 272.943 100.726 272.943 100.054 272.943C99.3821 272.943 98.7181 272.943 98.0621 272.943C98.0621 270.047 98.0621 267.127 98.0621 264.183C98.0621 261.239 98.0621 258.319 98.0621 255.423C98.7181 255.423 99.3821 255.423 100.054 255.423C100.726 255.423 101.382 255.423 102.022 255.423C102.022 256.383 102.022 257.351 102.022 258.327C102.022 259.303 102.022 260.271 102.022 261.231C102.422 260.911 102.878 260.663 103.39 260.487C103.902 260.295 104.446 260.199 105.022 260.199C105.822 260.199 106.582 260.359 107.302 260.679C108.022 260.983 108.654 261.423 109.198 261.999C109.758 262.575 110.19 263.263 110.494 264.063C110.814 264.863 110.974 265.751 110.974 266.727C110.974 267.687 110.814 268.567 110.494 269.367C110.19 270.167 109.758 270.863 109.198 271.455C108.654 272.031 108.022 272.479 107.302 272.799C106.582 273.119 105.814 273.279 104.998 273.279C104.422 273.279 103.878 273.183 103.366 272.991C102.87 272.815 102.422 272.559 102.022 272.223C102.022 272.335 102.022 272.455 102.022 272.583C102.022 272.695 102.022 272.815 102.022 272.943ZM104.47 269.775C105.254 269.775 105.87 269.503 106.318 268.959C106.782 268.399 107.014 267.655 107.014 266.727C107.014 265.799 106.782 265.063 106.318 264.519C105.87 263.975 105.254 263.703 104.47 263.703C103.702 263.703 103.086 263.983 102.622 264.543C102.158 265.087 101.926 265.815 101.926 266.727C101.926 267.639 102.158 268.375 102.622 268.935C103.086 269.495 103.702 269.775 104.47 269.775ZM113.062 272.943C113.062 270.047 113.062 267.127 113.062 264.183C113.062 261.239 113.062 258.319 113.062 255.423C113.718 255.423 114.382 255.423 115.054 255.423C115.726 255.423 116.382 255.423 117.022 255.423C117.022 258.319 117.022 261.239 117.022 264.183C117.022 267.127 117.022 270.047 117.022 272.943C116.382 272.943 115.726 272.943 115.054 272.943C114.382 272.943 113.718 272.943 113.062 272.943ZM125.666 273.327C124.738 273.327 123.874 273.167 123.074 272.847C122.274 272.511 121.578 272.047 120.986 271.455C120.394 270.847 119.93 270.143 119.594 269.343C119.274 268.543 119.114 267.671 119.114 266.727C119.114 265.783 119.274 264.911 119.594 264.111C119.93 263.311 120.394 262.615 120.986 262.023C121.578 261.431 122.274 260.975 123.074 260.655C123.874 260.319 124.738 260.151 125.666 260.151C126.61 260.151 127.474 260.319 128.258 260.655C129.058 260.975 129.754 261.431 130.346 262.023C130.938 262.615 131.394 263.311 131.714 264.111C132.05 264.911 132.218 265.783 132.218 266.727C132.218 267.671 132.05 268.543 131.714 269.343C131.394 270.143 130.938 270.847 130.346 271.455C129.754 272.047 129.058 272.511 128.258 272.847C127.474 273.167 126.61 273.327 125.666 273.327ZM125.666 269.751C126.45 269.751 127.074 269.471 127.538 268.911C128.018 268.335 128.258 267.607 128.258 266.727C128.258 265.831 128.018 265.111 127.538 264.567C127.074 264.007 126.45 263.727 125.666 263.727C124.882 263.727 124.25 264.007 123.77 264.567C123.306 265.111 123.074 265.831 123.074 266.727C123.074 267.607 123.306 268.335 123.77 268.911C124.25 269.471 124.882 269.751 125.666 269.751ZM140.056 273.327C139.128 273.327 138.264 273.167 137.464 272.847C136.664 272.511 135.968 272.047 135.376 271.455C134.784 270.847 134.32 270.143 133.984 269.343C133.664 268.543 133.504 267.671 133.504 266.727C133.504 265.783 133.664 264.911 133.984 264.111C134.32 263.311 134.784 262.615 135.376 262.023C135.968 261.431 136.664 260.975 137.464 260.655C138.264 260.319 139.128 260.151 140.056 260.151C141 260.151 141.864 260.319 142.648 260.655C143.448 260.975 144.144 261.431 144.736 262.023C145.328 262.615 145.784 263.311 146.104 264.111C146.44 264.911 146.608 265.783 146.608 266.727C146.608 267.671 146.44 268.543 146.104 269.343C145.784 270.143 145.328 270.847 144.736 271.455C144.144 272.047 143.448 272.511 142.648 272.847C141.864 273.167 141 273.327 140.056 273.327ZM140.056 269.751C140.84 269.751 141.464 269.471 141.928 268.911C142.408 268.335 142.648 267.607 142.648 266.727C142.648 265.831 142.408 265.111 141.928 264.567C141.464 264.007 140.84 263.727 140.056 263.727C139.272 263.727 138.64 264.007 138.16 264.567C137.696 265.111 137.464 265.831 137.464 266.727C137.464 267.607 137.696 268.335 138.16 268.911C138.64 269.471 139.272 269.751 140.056 269.751ZM148.567 272.943C148.567 270.895 148.567 268.831 148.567 266.751C148.567 264.655 148.567 262.583 148.567 260.535C149.223 260.535 149.887 260.535 150.559 260.535C151.231 260.535 151.887 260.535 152.527 260.535C152.527 260.647 152.527 260.751 152.527 260.847C152.527 260.943 152.527 261.047 152.527 261.159C152.943 260.855 153.407 260.623 153.919 260.463C154.431 260.287 154.959 260.199 155.503 260.199C156.095 260.199 156.639 260.303 157.135 260.511C157.631 260.703 158.055 260.991 158.407 261.375C158.919 261.007 159.495 260.719 160.135 260.511C160.791 260.303 161.463 260.199 162.151 260.199C163.127 260.199 163.967 260.399 164.671 260.799C165.391 261.199 165.943 261.767 166.327 262.503C166.727 263.239 166.927 264.127 166.927 265.167C166.927 266.447 166.927 267.743 166.927 269.055C166.927 270.367 166.927 271.663 166.927 272.943C166.287 272.943 165.631 272.943 164.959 272.943C164.287 272.943 163.623 272.943 162.967 272.943C162.967 271.743 162.967 270.527 162.967 269.295C162.967 268.063 162.967 266.847 162.967 265.647C162.967 265.103 162.839 264.663 162.583 264.327C162.343 263.975 161.951 263.799 161.407 263.799C160.879 263.799 160.463 263.967 160.159 264.303C159.871 264.623 159.727 265.071 159.727 265.647C159.727 266.847 159.727 268.063 159.727 269.295C159.727 270.527 159.727 271.743 159.727 272.943C159.087 272.943 158.431 272.943 157.759 272.943C157.087 272.943 156.423 272.943 155.767 272.943C155.767 271.743 155.767 270.527 155.767 269.295C155.767 268.063 155.767 266.847 155.767 265.647C155.767 265.103 155.639 264.663 155.383 264.327C155.143 263.975 154.751 263.799 154.207 263.799C153.679 263.799 153.263 263.967 152.959 264.303C152.671 264.623 152.527 265.071 152.527 265.647C152.527 266.847 152.527 268.063 152.527 269.295C152.527 270.527 152.527 271.743 152.527 272.943C151.887 272.943 151.231 272.943 150.559 272.943C149.887 272.943 149.223 272.943 148.567 272.943ZM174.419 272.943C174.419 270.895 174.419 268.831 174.419 266.751C174.419 264.655 174.419 262.583 174.419 260.535C175.075 260.535 175.739 260.535 176.411 260.535C177.083 260.535 177.739 260.535 178.379 260.535C178.379 260.647 178.379 260.751 178.379 260.847C178.379 260.943 178.379 261.047 178.379 261.159C178.795 260.855 179.259 260.623 179.771 260.463C180.283 260.287 180.811 260.199 181.355 260.199C181.947 260.199 182.491 260.303 182.987 260.511C183.483 260.703 183.907 260.991 184.259 261.375C184.771 261.007 185.347 260.719 185.987 260.511C186.643 260.303 187.315 260.199 188.003 260.199C188.979 260.199 189.819 260.399 190.523 260.799C191.243 261.199 191.795 261.767 192.179 262.503C192.579 263.239 192.779 264.127 192.779 265.167C192.779 266.447 192.779 267.743 192.779 269.055C192.779 270.367 192.779 271.663 192.779 272.943C192.139 272.943 191.483 272.943 190.811 272.943C190.139 272.943 189.475 272.943 188.819 272.943C188.819 271.743 188.819 270.527 188.819 269.295C188.819 268.063 188.819 266.847 188.819 265.647C188.819 265.103 188.691 264.663 188.435 264.327C188.195 263.975 187.803 263.799 187.259 263.799C186.731 263.799 186.315 263.967 186.011 264.303C185.723 264.623 185.579 265.071 185.579 265.647C185.579 266.847 185.579 268.063 185.579 269.295C185.579 270.527 185.579 271.743 185.579 272.943C184.939 272.943 184.283 272.943 183.611 272.943C182.939 272.943 182.275 272.943 181.619 272.943C181.619 271.743 181.619 270.527 181.619 269.295C181.619 268.063 181.619 266.847 181.619 265.647C181.619 265.103 181.491 264.663 181.235 264.327C180.995 263.975 180.603 263.799 180.059 263.799C179.531 263.799 179.115 263.967 178.811 264.303C178.523 264.623 178.379 265.071 178.379 265.647C178.379 266.847 178.379 268.063 178.379 269.295C178.379 270.527 178.379 271.743 178.379 272.943C177.739 272.943 177.083 272.943 176.411 272.943C175.739 272.943 175.075 272.943 174.419 272.943ZM197.343 259.119C196.879 259.119 196.455 259.007 196.071 258.783C195.703 258.559 195.407 258.263 195.183 257.895C194.959 257.527 194.847 257.119 194.847 256.671C194.847 256.223 194.959 255.823 195.183 255.471C195.407 255.103 195.703 254.807 196.071 254.583C196.455 254.359 196.879 254.247 197.343 254.247C197.791 254.247 198.199 254.359 198.567 254.583C198.951 254.807 199.255 255.103 199.479 255.471C199.703 255.823 199.815 256.223 199.815 256.671C199.815 257.119 199.703 257.527 199.479 257.895C199.255 258.263 198.951 258.559 198.567 258.783C198.199 259.007 197.791 259.119 197.343 259.119ZM195.351 272.943C195.351 270.895 195.351 268.831 195.351 266.751C195.351 264.655 195.351 262.583 195.351 260.535C196.007 260.535 196.671 260.535 197.343 260.535C198.015 260.535 198.671 260.535 199.311 260.535C199.311 262.583 199.311 264.655 199.311 266.751C199.311 268.831 199.311 270.895 199.311 272.943C198.671 272.943 198.015 272.943 197.343 272.943C196.671 272.943 196.007 272.943 195.351 272.943ZM202.075 272.943C202.075 270.895 202.075 268.831 202.075 266.751C202.075 264.655 202.075 262.583 202.075 260.535C202.731 260.535 203.395 260.535 204.067 260.535C204.739 260.535 205.395 260.535 206.035 260.535C206.035 260.647 206.035 260.759 206.035 260.871C206.035 260.983 206.035 261.095 206.035 261.207C206.531 260.855 207.091 260.591 207.715 260.415C208.339 260.239 209.019 260.191 209.755 260.271C209.755 260.911 209.755 261.559 209.755 262.215C209.755 262.871 209.755 263.519 209.755 264.159C208.491 263.983 207.555 264.095 206.947 264.495C206.339 264.879 206.035 265.511 206.035 266.391C206.035 267.463 206.035 268.551 206.035 269.655C206.035 270.759 206.035 271.855 206.035 272.943C205.395 272.943 204.739 272.943 204.067 272.943C203.395 272.943 202.731 272.943 202.075 272.943ZM211.544 272.943C211.544 270.895 211.544 268.831 211.544 266.751C211.544 264.655 211.544 262.583 211.544 260.535C212.2 260.535 212.864 260.535 213.536 260.535C214.208 260.535 214.864 260.535 215.504 260.535C215.504 260.647 215.504 260.759 215.504 260.871C215.504 260.983 215.504 261.095 215.504 261.207C216 260.855 216.56 260.591 217.184 260.415C217.808 260.239 218.488 260.191 219.224 260.271C219.224 260.911 219.224 261.559 219.224 262.215C219.224 262.871 219.224 263.519 219.224 264.159C217.96 263.983 217.024 264.095 216.416 264.495C215.808 264.879 215.504 265.511 215.504 266.391C215.504 267.463 215.504 268.551 215.504 269.655C215.504 270.759 215.504 271.855 215.504 272.943C214.864 272.943 214.208 272.943 213.536 272.943C212.864 272.943 212.2 272.943 211.544 272.943ZM226.775 273.327C225.847 273.327 224.983 273.167 224.183 272.847C223.383 272.511 222.687 272.047 222.095 271.455C221.503 270.847 221.039 270.143 220.703 269.343C220.383 268.543 220.223 267.671 220.223 266.727C220.223 265.783 220.383 264.911 220.703 264.111C221.039 263.311 221.503 262.615 222.095 262.023C222.687 261.431 223.383 260.975 224.183 260.655C224.983 260.319 225.847 260.151 226.775 260.151C227.719 260.151 228.583 260.319 229.367 260.655C230.167 260.975 230.863 261.431 231.455 262.023C232.047 262.615 232.503 263.311 232.823 264.111C233.159 264.911 233.327 265.783 233.327 266.727C233.327 267.671 233.159 268.543 232.823 269.343C232.503 270.143 232.047 270.847 231.455 271.455C230.863 272.047 230.167 272.511 229.367 272.847C228.583 273.167 227.719 273.327 226.775 273.327ZM226.775 269.751C227.559 269.751 228.183 269.471 228.647 268.911C229.127 268.335 229.367 267.607 229.367 266.727C229.367 265.831 229.127 265.111 228.647 264.567C228.183 264.007 227.559 263.727 226.775 263.727C225.991 263.727 225.359 264.007 224.879 264.567C224.415 265.111 224.183 265.831 224.183 266.727C224.183 267.607 224.415 268.335 224.879 268.911C225.359 269.471 225.991 269.751 226.775 269.751ZM235.286 272.943C235.286 270.895 235.286 268.831 235.286 266.751C235.286 264.655 235.286 262.583 235.286 260.535C235.942 260.535 236.606 260.535 237.278 260.535C237.95 260.535 238.606 260.535 239.246 260.535C239.246 260.647 239.246 260.759 239.246 260.871C239.246 260.983 239.246 261.095 239.246 261.207C239.742 260.855 240.302 260.591 240.926 260.415C241.55 260.239 242.23 260.191 242.966 260.271C242.966 260.911 242.966 261.559 242.966 262.215C242.966 262.871 242.966 263.519 242.966 264.159C241.702 263.983 240.766 264.095 240.158 264.495C239.55 264.879 239.246 265.511 239.246 266.391C239.246 267.463 239.246 268.551 239.246 269.655C239.246 270.759 239.246 271.855 239.246 272.943C238.606 272.943 237.95 272.943 237.278 272.943C236.606 272.943 235.942 272.943 235.286 272.943ZM254.235 269.103C254.235 270.095 253.955 270.911 253.395 271.551C252.851 272.175 252.115 272.631 251.187 272.919C250.259 273.207 249.219 273.327 248.067 273.279C246.931 273.247 245.771 273.063 244.587 272.727C244.587 272.119 244.587 271.495 244.587 270.855C244.587 270.215 244.587 269.591 244.587 268.983C245.259 269.287 245.931 269.527 246.603 269.703C247.275 269.863 247.883 269.959 248.427 269.991C248.971 270.023 249.411 269.983 249.747 269.871C250.083 269.743 250.251 269.535 250.251 269.247C250.251 269.023 250.107 268.847 249.819 268.719C249.547 268.591 249.187 268.479 248.739 268.383C248.291 268.271 247.811 268.143 247.299 267.999C246.803 267.839 246.331 267.623 245.883 267.351C245.435 267.063 245.067 266.687 244.779 266.223C244.507 265.743 244.371 265.127 244.371 264.375C244.371 263.479 244.627 262.719 245.139 262.095C245.667 261.455 246.371 260.975 247.251 260.655C248.131 260.319 249.115 260.151 250.203 260.151C251.291 260.151 252.403 260.335 253.539 260.703C253.539 261.311 253.539 261.935 253.539 262.575C253.539 263.215 253.539 263.839 253.539 264.447C252.643 264.015 251.803 263.727 251.019 263.583C250.235 263.439 249.603 263.423 249.123 263.535C248.643 263.631 248.403 263.847 248.403 264.183C248.403 264.407 248.539 264.583 248.811 264.711C249.099 264.823 249.459 264.927 249.891 265.023C250.339 265.119 250.811 265.247 251.307 265.407C251.819 265.567 252.291 265.791 252.723 266.079C253.171 266.351 253.531 266.735 253.803 267.231C254.091 267.711 254.235 268.335 254.235 269.103ZM52.8014 318.943C52.8014 316.895 52.8014 314.831 52.8014 312.751C52.8014 310.655 52.8014 308.583 52.8014 306.535C53.4574 306.535 54.1214 306.535 54.7934 306.535C55.4654 306.535 56.1214 306.535 56.7614 306.535C56.7614 306.647 56.7614 306.751 56.7614 306.847C56.7614 306.943 56.7614 307.047 56.7614 307.159C57.1774 306.855 57.6414 306.623 58.1534 306.463C58.6654 306.287 59.1934 306.199 59.7374 306.199C60.3294 306.199 60.8734 306.303 61.3694 306.511C61.8654 306.703 62.2894 306.991 62.6414 307.375C63.1534 307.007 63.7294 306.719 64.3694 306.511C65.0254 306.303 65.6974 306.199 66.3854 306.199C67.3614 306.199 68.2014 306.399 68.9054 306.799C69.6254 307.199 70.1774 307.767 70.5614 308.503C70.9614 309.239 71.1614 310.127 71.1614 311.167C71.1614 312.447 71.1614 313.743 71.1614 315.055C71.1614 316.367 71.1614 317.663 71.1614 318.943C70.5214 318.943 69.8654 318.943 69.1934 318.943C68.5214 318.943 67.8574 318.943 67.2014 318.943C67.2014 317.743 67.2014 316.527 67.2014 315.295C67.2014 314.063 67.2014 312.847 67.2014 311.647C67.2014 311.103 67.0734 310.663 66.8174 310.327C66.5774 309.975 66.1854 309.799 65.6414 309.799C65.1134 309.799 64.6974 309.967 64.3934 310.303C64.1054 310.623 63.9614 311.071 63.9614 311.647C63.9614 312.847 63.9614 314.063 63.9614 315.295C63.9614 316.527 63.9614 317.743 63.9614 318.943C63.3214 318.943 62.6654 318.943 61.9934 318.943C61.3214 318.943 60.6574 318.943 60.0014 318.943C60.0014 317.743 60.0014 316.527 60.0014 315.295C60.0014 314.063 60.0014 312.847 60.0014 311.647C60.0014 311.103 59.8734 310.663 59.6174 310.327C59.3774 309.975 58.9854 309.799 58.4414 309.799C57.9134 309.799 57.4974 309.967 57.1934 310.303C56.9054 310.623 56.7614 311.071 56.7614 311.647C56.7614 312.847 56.7614 314.063 56.7614 315.295C56.7614 316.527 56.7614 317.743 56.7614 318.943C56.1214 318.943 55.4654 318.943 54.7934 318.943C54.1214 318.943 53.4574 318.943 52.8014 318.943ZM74.5316 322.783C74.8516 321.935 75.1796 321.079 75.5156 320.215C75.8676 319.367 76.2036 318.527 76.5236 317.695C75.7716 315.855 75.0036 313.999 74.2196 312.127C73.4516 310.239 72.6916 308.375 71.9396 306.535C72.6436 306.535 73.3476 306.535 74.0516 306.535C74.7556 306.535 75.4516 306.535 76.1396 306.535C76.5556 307.559 76.9716 308.599 77.3876 309.655C77.8196 310.711 78.2436 311.759 78.6596 312.799C79.0436 311.759 79.4356 310.711 79.8356 309.655C80.2356 308.599 80.6276 307.559 81.0116 306.535C81.6996 306.535 82.3876 306.535 83.0756 306.535C83.7636 306.535 84.4516 306.535 85.1396 306.535C84.0676 309.207 82.9876 311.919 81.8996 314.671C80.8276 317.407 79.7556 320.111 78.6836 322.783C77.9956 322.783 77.2996 322.783 76.5956 322.783C75.9076 322.783 75.2196 322.783 74.5316 322.783ZM93.8996 318.943C93.2756 316.895 92.6436 314.831 92.0036 312.751C91.3796 310.655 90.7556 308.583 90.1316 306.535C90.7876 306.535 91.4516 306.535 92.1236 306.535C92.8116 306.535 93.4836 306.535 94.1396 306.535C94.4596 307.655 94.7796 308.791 95.0996 309.943C95.4356 311.079 95.7556 312.207 96.0596 313.327C96.3316 312.207 96.6036 311.079 96.8756 309.943C97.1636 308.791 97.4356 307.655 97.6916 306.535C98.2516 306.535 98.8116 306.535 99.3716 306.535C99.9476 306.535 100.516 306.535 101.076 306.535C101.348 307.655 101.62 308.799 101.892 309.967C102.18 311.119 102.452 312.263 102.708 313.399C103.028 312.263 103.348 311.119 103.668 309.967C104.004 308.799 104.324 307.655 104.628 306.535C105.284 306.535 105.94 306.535 106.596 306.535C107.268 306.535 107.924 306.535 108.564 306.535C107.94 308.583 107.308 310.655 106.668 312.751C106.044 314.831 105.42 316.895 104.796 318.943C104.156 318.943 103.508 318.943 102.852 318.943C102.196 318.943 101.548 318.943 100.908 318.943C100.652 317.951 100.388 316.951 100.116 315.943C99.8596 314.935 99.6036 313.943 99.3476 312.967C99.0916 313.943 98.8276 314.935 98.5556 315.943C98.2996 316.951 98.0436 317.951 97.7876 318.943C97.1476 318.943 96.4996 318.943 95.8436 318.943C95.1876 318.943 94.5396 318.943 93.8996 318.943ZM112.078 305.119C111.614 305.119 111.19 305.007 110.806 304.783C110.438 304.559 110.142 304.263 109.918 303.895C109.694 303.527 109.582 303.119 109.582 302.671C109.582 302.223 109.694 301.823 109.918 301.471C110.142 301.103 110.438 300.807 110.806 300.583C111.19 300.359 111.614 300.247 112.078 300.247C112.526 300.247 112.934 300.359 113.302 300.583C113.686 300.807 113.99 301.103 114.214 301.471C114.438 301.823 114.55 302.223 114.55 302.671C114.55 303.119 114.438 303.527 114.214 303.895C113.99 304.263 113.686 304.559 113.302 304.783C112.934 305.007 112.526 305.119 112.078 305.119ZM110.086 318.943C110.086 316.895 110.086 314.831 110.086 312.751C110.086 310.655 110.086 308.583 110.086 306.535C110.742 306.535 111.406 306.535 112.078 306.535C112.75 306.535 113.406 306.535 114.046 306.535C114.046 308.583 114.046 310.655 114.046 312.751C114.046 314.831 114.046 316.895 114.046 318.943C113.406 318.943 112.75 318.943 112.078 318.943C111.406 318.943 110.742 318.943 110.086 318.943ZM116.929 318.943C116.929 316.047 116.929 313.127 116.929 310.183C116.929 307.239 116.929 304.319 116.929 301.423C117.585 301.423 118.249 301.423 118.921 301.423C119.593 301.423 120.249 301.423 120.889 301.423C120.889 304.319 120.889 307.239 120.889 310.183C120.889 313.127 120.889 316.047 120.889 318.943C120.249 318.943 119.593 318.943 118.921 318.943C118.249 318.943 117.585 318.943 116.929 318.943ZM131.933 318.943C131.933 318.815 131.933 318.695 131.933 318.583C131.933 318.455 131.933 318.335 131.933 318.223C131.533 318.559 131.077 318.815 130.565 318.991C130.069 319.183 129.533 319.279 128.957 319.279C128.141 319.279 127.373 319.119 126.653 318.799C125.933 318.479 125.293 318.031 124.733 317.455C124.189 316.863 123.757 316.167 123.437 315.367C123.133 314.567 122.981 313.687 122.981 312.727C122.981 311.751 123.133 310.863 123.437 310.063C123.757 309.263 124.189 308.575 124.733 307.999C125.293 307.423 125.933 306.983 126.653 306.679C127.373 306.359 128.133 306.199 128.933 306.199C129.509 306.199 130.053 306.295 130.565 306.487C131.077 306.663 131.533 306.911 131.933 307.231C131.933 306.271 131.933 305.303 131.933 304.327C131.933 303.351 131.933 302.383 131.933 301.423C132.589 301.423 133.253 301.423 133.925 301.423C134.597 301.423 135.253 301.423 135.893 301.423C135.893 304.319 135.893 307.239 135.893 310.183C135.893 313.127 135.893 316.047 135.893 318.943C135.253 318.943 134.597 318.943 133.925 318.943C133.253 318.943 132.589 318.943 131.933 318.943ZM129.485 315.775C130.253 315.775 130.869 315.495 131.333 314.935C131.797 314.375 132.029 313.639 132.029 312.727C132.029 311.815 131.797 311.087 131.333 310.543C130.869 309.983 130.253 309.703 129.485 309.703C128.701 309.703 128.077 309.975 127.613 310.519C127.165 311.063 126.941 311.799 126.941 312.727C126.941 313.655 127.165 314.399 127.613 314.959C128.077 315.503 128.701 315.775 129.485 315.775ZM146.284 305.119C145.82 305.119 145.396 305.007 145.012 304.783C144.644 304.559 144.348 304.263 144.124 303.895C143.9 303.527 143.788 303.119 143.788 302.671C143.788 302.223 143.9 301.823 144.124 301.471C144.348 301.103 144.644 300.807 145.012 300.583C145.396 300.359 145.82 300.247 146.284 300.247C146.732 300.247 147.14 300.359 147.508 300.583C147.892 300.807 148.196 301.103 148.42 301.471C148.644 301.823 148.756 302.223 148.756 302.671C148.756 303.119 148.644 303.527 148.42 303.895C148.196 304.263 147.892 304.559 147.508 304.783C147.14 305.007 146.732 305.119 146.284 305.119ZM144.292 318.175C144.292 316.255 144.292 314.319 144.292 312.367C144.292 310.399 144.292 308.455 144.292 306.535C144.948 306.535 145.612 306.535 146.284 306.535C146.956 306.535 147.612 306.535 148.252 306.535C148.252 308.503 148.252 310.495 148.252 312.511C148.252 314.527 148.252 316.519 148.252 318.487C148.252 319.831 147.996 320.855 147.484 321.559C146.988 322.279 146.284 322.735 145.372 322.927C144.476 323.119 143.412 323.119 142.18 322.927C142.18 322.367 142.18 321.791 142.18 321.199C142.18 320.623 142.18 320.055 142.18 319.495C142.948 319.655 143.492 319.639 143.812 319.447C144.132 319.255 144.292 318.831 144.292 318.175ZM156.838 319.327C155.91 319.327 155.046 319.167 154.246 318.847C153.446 318.511 152.75 318.047 152.158 317.455C151.566 316.847 151.102 316.143 150.766 315.343C150.446 314.543 150.286 313.671 150.286 312.727C150.286 311.783 150.446 310.911 150.766 310.111C151.102 309.311 151.566 308.615 152.158 308.023C152.75 307.431 153.446 306.975 154.246 306.655C155.046 306.319 155.91 306.151 156.838 306.151C157.782 306.151 158.646 306.319 159.43 306.655C160.23 306.975 160.926 307.431 161.518 308.023C162.11 308.615 162.566 309.311 162.886 310.111C163.222 310.911 163.39 311.783 163.39 312.727C163.39 313.671 163.222 314.543 162.886 315.343C162.566 316.143 162.11 316.847 161.518 317.455C160.926 318.047 160.23 318.511 159.43 318.847C158.646 319.167 157.782 319.327 156.838 319.327ZM156.838 315.751C157.622 315.751 158.246 315.471 158.71 314.911C159.19 314.335 159.43 313.607 159.43 312.727C159.43 311.831 159.19 311.111 158.71 310.567C158.246 310.007 157.622 309.727 156.838 309.727C156.054 309.727 155.422 310.007 154.942 310.567C154.478 311.111 154.246 311.831 154.246 312.727C154.246 313.607 154.478 314.335 154.942 314.911C155.422 315.471 156.054 315.751 156.838 315.751ZM166.266 322.783C166.586 321.935 166.914 321.079 167.25 320.215C167.602 319.367 167.938 318.527 168.258 317.695C167.506 315.855 166.738 313.999 165.954 312.127C165.186 310.239 164.426 308.375 163.674 306.535C164.378 306.535 165.082 306.535 165.786 306.535C166.49 306.535 167.186 306.535 167.874 306.535C168.29 307.559 168.706 308.599 169.122 309.655C169.554 310.711 169.978 311.759 170.394 312.799C170.778 311.759 171.17 310.711 171.57 309.655C171.97 308.599 172.362 307.559 172.746 306.535C173.434 306.535 174.122 306.535 174.81 306.535C175.498 306.535 176.186 306.535 176.874 306.535C175.802 309.207 174.722 311.919 173.634 314.671C172.562 317.407 171.49 320.111 170.418 322.783C169.73 322.783 169.034 322.783 168.33 322.783C167.642 322.783 166.954 322.783 166.266 322.783ZM175.997 321.367C176.189 320.247 176.381 319.119 176.573 317.983C176.781 316.847 176.981 315.719 177.173 314.599C177.845 314.599 178.517 314.599 179.189 314.599C179.877 314.599 180.557 314.599 181.229 314.599C180.941 315.719 180.645 316.847 180.341 317.983C180.037 319.119 179.741 320.247 179.453 321.367C178.877 321.367 178.301 321.367 177.725 321.367C177.149 321.367 176.573 321.367 175.997 321.367ZM183.89 318.943C183.89 316.047 183.89 313.127 183.89 310.183C183.89 307.239 183.89 304.319 183.89 301.423C184.546 301.423 185.21 301.423 185.882 301.423C186.554 301.423 187.21 301.423 187.85 301.423C187.85 304.319 187.85 307.239 187.85 310.183C187.85 313.127 187.85 316.047 187.85 318.943C187.21 318.943 186.554 318.943 185.882 318.943C185.21 318.943 184.546 318.943 183.89 318.943ZM192.726 305.119C192.262 305.119 191.838 305.007 191.454 304.783C191.086 304.559 190.79 304.263 190.566 303.895C190.342 303.527 190.23 303.119 190.23 302.671C190.23 302.223 190.342 301.823 190.566 301.471C190.79 301.103 191.086 300.807 191.454 300.583C191.838 300.359 192.262 300.247 192.726 300.247C193.174 300.247 193.582 300.359 193.95 300.583C194.334 300.807 194.638 301.103 194.862 301.471C195.086 301.823 195.198 302.223 195.198 302.671C195.198 303.119 195.086 303.527 194.862 303.895C194.638 304.263 194.334 304.559 193.95 304.783C193.582 305.007 193.174 305.119 192.726 305.119ZM190.734 318.943C190.734 316.895 190.734 314.831 190.734 312.751C190.734 310.655 190.734 308.583 190.734 306.535C191.39 306.535 192.054 306.535 192.726 306.535C193.398 306.535 194.054 306.535 194.694 306.535C194.694 308.583 194.694 310.655 194.694 312.751C194.694 314.831 194.694 316.895 194.694 318.943C194.054 318.943 193.398 318.943 192.726 318.943C192.054 318.943 191.39 318.943 190.734 318.943ZM197.578 318.943C197.578 316.047 197.578 313.127 197.578 310.183C197.578 307.239 197.578 304.319 197.578 301.423C198.234 301.423 198.898 301.423 199.57 301.423C200.242 301.423 200.898 301.423 201.538 301.423C201.538 302.991 201.538 304.583 201.538 306.199C201.538 307.815 201.538 309.407 201.538 310.975C202.114 310.239 202.69 309.503 203.266 308.767C203.842 308.015 204.418 307.271 204.994 306.535C205.762 306.535 206.53 306.535 207.298 306.535C208.082 306.535 208.858 306.535 209.626 306.535C208.874 307.479 208.106 308.431 207.322 309.391C206.554 310.351 205.794 311.303 205.042 312.247C205.842 313.351 206.642 314.471 207.442 315.607C208.258 316.727 209.058 317.839 209.842 318.943C209.058 318.943 208.274 318.943 207.49 318.943C206.706 318.943 205.922 318.943 205.138 318.943C204.546 318.095 203.946 317.239 203.338 316.375C202.73 315.495 202.13 314.631 201.538 313.783C201.538 314.631 201.538 315.495 201.538 316.375C201.538 317.239 201.538 318.095 201.538 318.943C200.898 318.943 200.242 318.943 199.57 318.943C198.898 318.943 198.234 318.943 197.578 318.943ZM221.38 318.367C220.276 318.831 219.18 319.119 218.092 319.231C217.004 319.343 215.972 319.279 214.996 319.039C214.036 318.815 213.18 318.423 212.428 317.863C211.676 317.303 211.084 316.591 210.652 315.727C210.236 314.863 210.028 313.863 210.028 312.727C210.028 311.783 210.18 310.919 210.484 310.135C210.804 309.335 211.252 308.639 211.828 308.047C212.404 307.439 213.084 306.975 213.868 306.655C214.652 306.319 215.508 306.151 216.436 306.151C217.268 306.151 218.02 306.287 218.692 306.559C219.364 306.831 219.948 307.215 220.444 307.711C220.94 308.191 221.34 308.767 221.644 309.439C221.948 310.111 222.14 310.847 222.22 311.647C222.3 312.447 222.252 313.295 222.076 314.191C220.764 314.191 219.444 314.191 218.116 314.191C216.788 314.191 215.468 314.191 214.156 314.191C214.46 314.799 214.964 315.231 215.668 315.487C216.388 315.743 217.236 315.823 218.212 315.727C219.204 315.631 220.26 315.375 221.38 314.959C221.38 315.519 221.38 316.087 221.38 316.663C221.38 317.239 221.38 317.807 221.38 318.367ZM216.34 309.703C215.876 309.703 215.444 309.831 215.044 310.087C214.66 310.343 214.364 310.735 214.156 311.263C214.876 311.263 215.596 311.263 216.316 311.263C217.052 311.263 217.78 311.263 218.5 311.263C218.308 310.719 218.02 310.327 217.636 310.087C217.268 309.831 216.836 309.703 216.34 309.703ZM56.8814 364.943C56.2414 364.943 55.5854 364.943 54.9134 364.943C54.2414 364.943 53.5774 364.943 52.9214 364.943C52.9214 362.047 52.9214 359.127 52.9214 356.183C52.9214 353.239 52.9214 350.319 52.9214 347.423C53.5774 347.423 54.2414 347.423 54.9134 347.423C55.5854 347.423 56.2414 347.423 56.8814 347.423C56.8814 348.383 56.8814 349.351 56.8814 350.327C56.8814 351.303 56.8814 352.271 56.8814 353.231C57.2814 352.911 57.7374 352.663 58.2494 352.487C58.7614 352.295 59.3054 352.199 59.8814 352.199C60.6814 352.199 61.4414 352.359 62.1614 352.679C62.8814 352.983 63.5134 353.423 64.0574 353.999C64.6174 354.575 65.0494 355.263 65.3534 356.063C65.6734 356.863 65.8334 357.751 65.8334 358.727C65.8334 359.687 65.6734 360.567 65.3534 361.367C65.0494 362.167 64.6174 362.863 64.0574 363.455C63.5134 364.031 62.8814 364.479 62.1614 364.799C61.4414 365.119 60.6734 365.279 59.8574 365.279C59.2814 365.279 58.7374 365.183 58.2254 364.991C57.7294 364.815 57.2814 364.559 56.8814 364.223C56.8814 364.335 56.8814 364.455 56.8814 364.583C56.8814 364.695 56.8814 364.815 56.8814 364.943ZM59.3294 361.775C60.1134 361.775 60.7294 361.503 61.1774 360.959C61.6414 360.399 61.8734 359.655 61.8734 358.727C61.8734 357.799 61.6414 357.063 61.1774 356.519C60.7294 355.975 60.1134 355.703 59.3294 355.703C58.5614 355.703 57.9454 355.983 57.4814 356.543C57.0174 357.087 56.7854 357.815 56.7854 358.727C56.7854 359.639 57.0174 360.375 57.4814 360.935C57.9454 361.495 58.5614 361.775 59.3294 361.775ZM76.0814 364.943C76.0814 364.815 76.0814 364.695 76.0814 364.583C76.0814 364.455 76.0814 364.335 76.0814 364.223C75.6814 364.559 75.2254 364.815 74.7134 364.991C74.2174 365.183 73.6814 365.279 73.1054 365.279C72.2894 365.279 71.5214 365.127 70.8014 364.823C70.0814 364.503 69.4414 364.055 68.8814 363.479C68.3374 362.887 67.9054 362.191 67.5854 361.391C67.2814 360.591 67.1294 359.703 67.1294 358.727C67.1294 357.735 67.2814 356.839 67.5854 356.039C67.9054 355.239 68.3374 354.559 68.8814 353.999C69.4414 353.423 70.0814 352.983 70.8014 352.679C71.5214 352.359 72.2814 352.199 73.0814 352.199C73.6574 352.199 74.2014 352.295 74.7134 352.487C75.2254 352.663 75.6814 352.911 76.0814 353.231C76.0814 353.103 76.0814 352.983 76.0814 352.871C76.0814 352.759 76.0814 352.647 76.0814 352.535C76.7374 352.535 77.4014 352.535 78.0734 352.535C78.7454 352.535 79.4014 352.535 80.0414 352.535C80.0414 354.583 80.0414 356.655 80.0414 358.751C80.0414 360.831 80.0414 362.895 80.0414 364.943C79.4014 364.943 78.7454 364.943 78.0734 364.943C77.4014 364.943 76.7374 364.943 76.0814 364.943ZM73.6334 361.775C74.4014 361.775 75.0174 361.495 75.4814 360.935C75.9454 360.375 76.1774 359.639 76.1774 358.727C76.1774 357.815 75.9454 357.087 75.4814 356.543C75.0174 355.983 74.4014 355.703 73.6334 355.703C72.8494 355.703 72.2254 355.975 71.7614 356.519C71.3134 357.063 71.0894 357.799 71.0894 358.727C71.0894 359.655 71.3134 360.399 71.7614 360.959C72.2254 361.503 72.8494 361.775 73.6334 361.775ZM83.9803 364.943C83.9803 363.471 83.9803 361.991 83.9803 360.503C83.9803 359.015 83.9803 357.543 83.9803 356.087C83.6603 356.087 83.3323 356.087 82.9963 356.087C82.6763 356.087 82.3563 356.087 82.0363 356.087C82.0363 355.495 82.0363 354.903 82.0363 354.311C82.0363 353.719 82.0363 353.127 82.0363 352.535C82.3563 352.535 82.6763 352.535 82.9963 352.535C83.3323 352.535 83.6603 352.535 83.9803 352.535C83.9803 351.975 83.9803 351.423 83.9803 350.879C83.9803 350.319 83.9803 349.767 83.9803 349.223C84.6363 349.223 85.3003 349.223 85.9723 349.223C86.6443 349.223 87.3003 349.223 87.9403 349.223C87.9403 349.767 87.9403 350.319 87.9403 350.879C87.9403 351.423 87.9403 351.975 87.9403 352.535C88.3083 352.535 88.6843 352.535 89.0683 352.535C89.4523 352.535 89.8283 352.535 90.1963 352.535C90.1963 353.127 90.1963 353.719 90.1963 354.311C90.1963 354.903 90.1963 355.495 90.1963 356.087C89.8283 356.087 89.4523 356.087 89.0683 356.087C88.6843 356.087 88.3083 356.087 87.9403 356.087C87.9403 357.543 87.9403 359.015 87.9403 360.503C87.9403 361.991 87.9403 363.471 87.9403 364.943C87.3003 364.943 86.6443 364.943 85.9723 364.943C85.3003 364.943 84.6363 364.943 83.9803 364.943ZM92.2261 364.943C92.2261 362.047 92.2261 359.127 92.2261 356.183C92.2261 353.239 92.2261 350.319 92.2261 347.423C92.8821 347.423 93.5461 347.423 94.2181 347.423C94.8901 347.423 95.5461 347.423 96.1861 347.423C96.1861 348.367 96.1861 349.327 96.1861 350.303C96.1861 351.263 96.1861 352.215 96.1861 353.159C96.6181 352.855 97.0981 352.623 97.6261 352.463C98.1701 352.287 98.7541 352.199 99.3781 352.199C100.29 352.199 101.09 352.407 101.778 352.823C102.482 353.239 103.026 353.839 103.41 354.623C103.81 355.391 104.01 356.319 104.01 357.407C104.01 358.655 104.01 359.911 104.01 361.175C104.01 362.439 104.01 363.695 104.01 364.943C103.37 364.943 102.714 364.943 102.042 364.943C101.37 364.943 100.706 364.943 100.05 364.943C100.05 363.791 100.05 362.623 100.05 361.439C100.05 360.255 100.05 359.087 100.05 357.935C100.05 357.295 99.8981 356.783 99.5941 356.399C99.3061 355.999 98.8421 355.799 98.2021 355.799C97.5621 355.799 97.0661 355.983 96.7141 356.351C96.3621 356.719 96.1861 357.247 96.1861 357.935C96.1861 359.087 96.1861 360.255 96.1861 361.439C96.1861 362.623 96.1861 363.791 96.1861 364.943C95.5461 364.943 94.8901 364.943 94.2181 364.943C93.5461 364.943 92.8821 364.943 92.2261 364.943ZM108.585 351.119C108.121 351.119 107.697 351.007 107.313 350.783C106.945 350.559 106.649 350.263 106.425 349.895C106.201 349.527 106.089 349.119 106.089 348.671C106.089 348.223 106.201 347.823 106.425 347.471C106.649 347.103 106.945 346.807 107.313 346.583C107.697 346.359 108.121 346.247 108.585 346.247C109.033 346.247 109.441 346.359 109.809 346.583C110.193 346.807 110.497 347.103 110.721 347.471C110.945 347.823 111.057 348.223 111.057 348.671C111.057 349.119 110.945 349.527 110.721 349.895C110.497 350.263 110.193 350.559 109.809 350.783C109.441 351.007 109.033 351.119 108.585 351.119ZM106.593 364.943C106.593 362.895 106.593 360.831 106.593 358.751C106.593 356.655 106.593 354.583 106.593 352.535C107.249 352.535 107.913 352.535 108.585 352.535C109.257 352.535 109.913 352.535 110.553 352.535C110.553 354.583 110.553 356.655 110.553 358.751C110.553 360.831 110.553 362.895 110.553 364.943C109.913 364.943 109.257 364.943 108.585 364.943C107.913 364.943 107.249 364.943 106.593 364.943ZM113.317 364.943C113.317 362.895 113.317 360.831 113.317 358.751C113.317 356.655 113.317 354.583 113.317 352.535C113.973 352.535 114.637 352.535 115.309 352.535C115.981 352.535 116.637 352.535 117.277 352.535C117.277 352.647 117.277 352.751 117.277 352.847C117.277 352.943 117.277 353.047 117.277 353.159C117.709 352.855 118.189 352.623 118.717 352.463C119.261 352.287 119.845 352.199 120.469 352.199C121.381 352.199 122.181 352.407 122.869 352.823C123.573 353.239 124.117 353.839 124.501 354.623C124.901 355.391 125.101 356.319 125.101 357.407C125.101 358.655 125.101 359.911 125.101 361.175C125.101 362.439 125.101 363.695 125.101 364.943C124.461 364.943 123.805 364.943 123.133 364.943C122.461 364.943 121.797 364.943 121.141 364.943C121.141 363.791 121.141 362.623 121.141 361.439C121.141 360.255 121.141 359.087 121.141 357.935C121.141 357.295 120.989 356.783 120.685 356.399C120.397 355.999 119.933 355.799 119.293 355.799C118.653 355.799 118.157 355.983 117.805 356.351C117.453 356.719 117.277 357.247 117.277 357.935C117.277 359.087 117.277 360.255 117.277 361.439C117.277 362.623 117.277 363.791 117.277 364.943C116.637 364.943 115.981 364.943 115.309 364.943C114.637 364.943 113.973 364.943 113.317 364.943ZM139.208 362.927C139.208 364.287 138.912 365.423 138.32 366.335C137.744 367.247 136.952 367.927 135.944 368.375C134.936 368.839 133.784 369.079 132.488 369.095C131.208 369.111 129.856 368.919 128.432 368.519C128.432 367.895 128.432 367.263 128.432 366.623C128.432 365.999 128.432 365.375 128.432 364.751C129.696 365.247 130.84 365.495 131.864 365.495C132.888 365.511 133.696 365.319 134.288 364.919C134.896 364.503 135.2 363.935 135.2 363.215C135.2 363.135 135.2 363.063 135.2 362.999C135.2 362.919 135.2 362.847 135.2 362.783C134.8 363.087 134.336 363.327 133.808 363.503C133.28 363.679 132.712 363.767 132.104 363.767C131.096 363.767 130.192 363.535 129.392 363.071C128.608 362.591 127.992 361.935 127.544 361.103C127.096 360.255 126.872 359.271 126.872 358.151C126.872 357.287 127.016 356.495 127.304 355.775C127.592 355.055 127.992 354.431 128.504 353.903C129.016 353.375 129.6 352.975 130.256 352.703C130.912 352.415 131.6 352.271 132.32 352.271C132.896 352.271 133.432 352.351 133.928 352.511C134.424 352.671 134.864 352.887 135.248 353.159C135.248 353.047 135.248 352.943 135.248 352.847C135.248 352.751 135.248 352.647 135.248 352.535C135.904 352.535 136.568 352.535 137.24 352.535C137.912 352.535 138.568 352.535 139.208 352.535C139.208 354.247 139.208 355.983 139.208 357.743C139.208 359.487 139.208 361.215 139.208 362.927ZM133.088 360.335C133.76 360.335 134.296 360.127 134.696 359.711C135.112 359.279 135.32 358.727 135.32 358.055C135.32 357.367 135.112 356.807 134.696 356.375C134.296 355.943 133.76 355.727 133.088 355.727C132.384 355.727 131.824 355.943 131.408 356.375C130.992 356.791 130.784 357.351 130.784 358.055C130.784 358.743 130.992 359.295 131.408 359.711C131.824 360.127 132.384 360.335 133.088 360.335ZM148.992 351.119C148.528 351.119 148.104 351.007 147.72 350.783C147.352 350.559 147.056 350.263 146.832 349.895C146.608 349.527 146.496 349.119 146.496 348.671C146.496 348.223 146.608 347.823 146.832 347.471C147.056 347.103 147.352 346.807 147.72 346.583C148.104 346.359 148.528 346.247 148.992 346.247C149.44 346.247 149.848 346.359 150.216 346.583C150.6 346.807 150.904 347.103 151.128 347.471C151.352 347.823 151.464 348.223 151.464 348.671C151.464 349.119 151.352 349.527 151.128 349.895C150.904 350.263 150.6 350.559 150.216 350.783C149.848 351.007 149.44 351.119 148.992 351.119ZM147 364.943C147 362.895 147 360.831 147 358.751C147 356.655 147 354.583 147 352.535C147.656 352.535 148.32 352.535 148.992 352.535C149.664 352.535 150.32 352.535 150.96 352.535C150.96 354.583 150.96 356.655 150.96 358.751C150.96 360.831 150.96 362.895 150.96 364.943C150.32 364.943 149.664 364.943 148.992 364.943C148.32 364.943 147.656 364.943 147 364.943ZM153.723 364.943C153.723 362.895 153.723 360.831 153.723 358.751C153.723 356.655 153.723 354.583 153.723 352.535C154.379 352.535 155.043 352.535 155.715 352.535C156.387 352.535 157.043 352.535 157.683 352.535C157.683 352.647 157.683 352.751 157.683 352.847C157.683 352.943 157.683 353.047 157.683 353.159C158.115 352.855 158.595 352.623 159.123 352.463C159.667 352.287 160.251 352.199 160.875 352.199C161.787 352.199 162.587 352.407 163.275 352.823C163.979 353.239 164.523 353.839 164.907 354.623C165.307 355.391 165.507 356.319 165.507 357.407C165.507 358.655 165.507 359.911 165.507 361.175C165.507 362.439 165.507 363.695 165.507 364.943C164.867 364.943 164.211 364.943 163.539 364.943C162.867 364.943 162.203 364.943 161.547 364.943C161.547 363.791 161.547 362.623 161.547 361.439C161.547 360.255 161.547 359.087 161.547 357.935C161.547 357.295 161.395 356.783 161.091 356.399C160.803 355.999 160.339 355.799 159.699 355.799C159.059 355.799 158.563 355.983 158.211 356.351C157.859 356.719 157.683 357.247 157.683 357.935C157.683 359.087 157.683 360.255 157.683 361.439C157.683 362.623 157.683 363.791 157.683 364.943C157.043 364.943 156.387 364.943 155.715 364.943C155.043 364.943 154.379 364.943 153.723 364.943ZM182.469 361.103C182.469 362.095 182.189 362.911 181.629 363.551C181.085 364.175 180.349 364.631 179.421 364.919C178.493 365.207 177.453 365.327 176.301 365.279C175.165 365.247 174.005 365.063 172.821 364.727C172.821 364.119 172.821 363.495 172.821 362.855C172.821 362.215 172.821 361.591 172.821 360.983C173.493 361.287 174.165 361.527 174.837 361.703C175.509 361.863 176.117 361.959 176.661 361.991C177.205 362.023 177.645 361.983 177.981 361.871C178.317 361.743 178.485 361.535 178.485 361.247C178.485 361.023 178.341 360.847 178.053 360.719C177.781 360.591 177.421 360.479 176.973 360.383C176.525 360.271 176.045 360.143 175.533 359.999C175.037 359.839 174.565 359.623 174.117 359.351C173.669 359.063 173.301 358.687 173.013 358.223C172.741 357.743 172.605 357.127 172.605 356.375C172.605 355.479 172.861 354.719 173.373 354.095C173.901 353.455 174.605 352.975 175.485 352.655C176.365 352.319 177.349 352.151 178.437 352.151C179.525 352.151 180.637 352.335 181.773 352.703C181.773 353.311 181.773 353.935 181.773 354.575C181.773 355.215 181.773 355.839 181.773 356.447C180.877 356.015 180.037 355.727 179.253 355.583C178.469 355.439 177.837 355.423 177.357 355.535C176.877 355.631 176.637 355.847 176.637 356.183C176.637 356.407 176.773 356.583 177.045 356.711C177.333 356.823 177.693 356.927 178.125 357.023C178.573 357.119 179.045 357.247 179.541 357.407C180.053 357.567 180.525 357.791 180.957 358.079C181.405 358.351 181.765 358.735 182.037 359.231C182.325 359.711 182.469 360.335 182.469 361.103ZM195.972 352.535C195.972 354.583 195.972 356.655 195.972 358.751C195.972 360.831 195.972 362.895 195.972 364.943C195.332 364.943 194.676 364.943 194.004 364.943C193.332 364.943 192.668 364.943 192.012 364.943C192.012 364.831 192.012 364.727 192.012 364.631C192.012 364.535 192.012 364.431 192.012 364.319C191.58 364.623 191.092 364.855 190.548 365.015C190.02 365.191 189.444 365.279 188.82 365.279C187.908 365.279 187.1 365.071 186.396 364.655C185.708 364.239 185.164 363.639 184.764 362.855C184.38 362.071 184.188 361.143 184.188 360.071C184.188 358.823 184.188 357.567 184.188 356.303C184.188 355.039 184.188 353.783 184.188 352.535C184.844 352.535 185.508 352.535 186.18 352.535C186.852 352.535 187.508 352.535 188.148 352.535C188.148 353.687 188.148 354.855 188.148 356.039C188.148 357.223 188.148 358.391 188.148 359.543C188.148 360.183 188.292 360.703 188.58 361.103C188.884 361.487 189.356 361.679 189.996 361.679C190.636 361.679 191.132 361.495 191.484 361.127C191.836 360.759 192.012 360.231 192.012 359.543C192.012 358.391 192.012 357.223 192.012 356.039C192.012 354.855 192.012 353.687 192.012 352.535C192.668 352.535 193.332 352.535 194.004 352.535C194.676 352.535 195.332 352.535 195.972 352.535ZM198.606 364.943C198.606 362.895 198.606 360.831 198.606 358.751C198.606 356.655 198.606 354.583 198.606 352.535C199.262 352.535 199.926 352.535 200.598 352.535C201.27 352.535 201.926 352.535 202.566 352.535C202.566 352.647 202.566 352.751 202.566 352.847C202.566 352.943 202.566 353.047 202.566 353.159C202.998 352.855 203.478 352.623 204.006 352.463C204.55 352.287 205.134 352.199 205.758 352.199C206.67 352.199 207.47 352.407 208.158 352.823C208.862 353.239 209.406 353.839 209.79 354.623C210.19 355.391 210.39 356.319 210.39 357.407C210.39 358.655 210.39 359.911 210.39 361.175C210.39 362.439 210.39 363.695 210.39 364.943C209.75 364.943 209.094 364.943 208.422 364.943C207.75 364.943 207.086 364.943 206.43 364.943C206.43 363.791 206.43 362.623 206.43 361.439C206.43 360.255 206.43 359.087 206.43 357.935C206.43 357.295 206.278 356.783 205.974 356.399C205.686 355.999 205.222 355.799 204.582 355.799C203.942 355.799 203.446 355.983 203.094 356.351C202.742 356.719 202.566 357.247 202.566 357.935C202.566 359.087 202.566 360.255 202.566 361.439C202.566 362.623 202.566 363.791 202.566 364.943C201.926 364.943 201.27 364.943 200.598 364.943C199.926 364.943 199.262 364.943 198.606 364.943ZM212.836 364.943C212.836 362.047 212.836 359.127 212.836 356.183C212.836 353.239 212.836 350.319 212.836 347.423C213.492 347.423 214.156 347.423 214.828 347.423C215.5 347.423 216.156 347.423 216.796 347.423C216.796 350.319 216.796 353.239 216.796 356.183C216.796 359.127 216.796 362.047 216.796 364.943C216.156 364.943 215.5 364.943 214.828 364.943C214.156 364.943 213.492 364.943 212.836 364.943ZM221.671 351.119C221.207 351.119 220.783 351.007 220.399 350.783C220.031 350.559 219.735 350.263 219.511 349.895C219.287 349.527 219.175 349.119 219.175 348.671C219.175 348.223 219.287 347.823 219.511 347.471C219.735 347.103 220.031 346.807 220.399 346.583C220.783 346.359 221.207 346.247 221.671 346.247C222.119 346.247 222.527 346.359 222.895 346.583C223.279 346.807 223.583 347.103 223.807 347.471C224.031 347.823 224.143 348.223 224.143 348.671C224.143 349.119 224.031 349.527 223.807 349.895C223.583 350.263 223.279 350.559 222.895 350.783C222.527 351.007 222.119 351.119 221.671 351.119ZM219.679 364.943C219.679 362.895 219.679 360.831 219.679 358.751C219.679 356.655 219.679 354.583 219.679 352.535C220.335 352.535 220.999 352.535 221.671 352.535C222.343 352.535 222.999 352.535 223.639 352.535C223.639 354.583 223.639 356.655 223.639 358.751C223.639 360.831 223.639 362.895 223.639 364.943C222.999 364.943 222.343 364.943 221.671 364.943C220.999 364.943 220.335 364.943 219.679 364.943ZM238.067 362.927C238.067 364.287 237.771 365.423 237.179 366.335C236.603 367.247 235.811 367.927 234.803 368.375C233.795 368.839 232.643 369.079 231.347 369.095C230.067 369.111 228.715 368.919 227.291 368.519C227.291 367.895 227.291 367.263 227.291 366.623C227.291 365.999 227.291 365.375 227.291 364.751C228.555 365.247 229.699 365.495 230.723 365.495C231.747 365.511 232.555 365.319 233.147 364.919C233.755 364.503 234.059 363.935 234.059 363.215C234.059 363.135 234.059 363.063 234.059 362.999C234.059 362.919 234.059 362.847 234.059 362.783C233.659 363.087 233.195 363.327 232.667 363.503C232.139 363.679 231.571 363.767 230.963 363.767C229.955 363.767 229.051 363.535 228.251 363.071C227.467 362.591 226.851 361.935 226.403 361.103C225.955 360.255 225.731 359.271 225.731 358.151C225.731 357.287 225.875 356.495 226.163 355.775C226.451 355.055 226.851 354.431 227.363 353.903C227.875 353.375 228.459 352.975 229.115 352.703C229.771 352.415 230.459 352.271 231.179 352.271C231.755 352.271 232.291 352.351 232.787 352.511C233.283 352.671 233.723 352.887 234.107 353.159C234.107 353.047 234.107 352.943 234.107 352.847C234.107 352.751 234.107 352.647 234.107 352.535C234.763 352.535 235.427 352.535 236.099 352.535C236.771 352.535 237.427 352.535 238.067 352.535C238.067 354.247 238.067 355.983 238.067 357.743C238.067 359.487 238.067 361.215 238.067 362.927ZM231.947 360.335C232.619 360.335 233.155 360.127 233.555 359.711C233.971 359.279 234.179 358.727 234.179 358.055C234.179 357.367 233.971 356.807 233.555 356.375C233.155 355.943 232.619 355.727 231.947 355.727C231.243 355.727 230.683 355.943 230.267 356.375C229.851 356.791 229.643 357.351 229.643 358.055C229.643 358.743 229.851 359.295 230.267 359.711C230.683 360.127 231.243 360.335 231.947 360.335ZM240.82 364.943C240.82 362.047 240.82 359.127 240.82 356.183C240.82 353.239 240.82 350.319 240.82 347.423C241.476 347.423 242.14 347.423 242.812 347.423C243.484 347.423 244.14 347.423 244.78 347.423C244.78 348.367 244.78 349.327 244.78 350.303C244.78 351.263 244.78 352.215 244.78 353.159C245.212 352.855 245.692 352.623 246.22 352.463C246.764 352.287 247.348 352.199 247.972 352.199C248.884 352.199 249.684 352.407 250.372 352.823C251.076 353.239 251.62 353.839 252.004 354.623C252.404 355.391 252.604 356.319 252.604 357.407C252.604 358.655 252.604 359.911 252.604 361.175C252.604 362.439 252.604 363.695 252.604 364.943C251.964 364.943 251.308 364.943 250.636 364.943C249.964 364.943 249.3 364.943 248.644 364.943C248.644 363.791 248.644 362.623 248.644 361.439C248.644 360.255 248.644 359.087 248.644 357.935C248.644 357.295 248.492 356.783 248.188 356.399C247.9 355.999 247.436 355.799 246.796 355.799C246.156 355.799 245.66 355.983 245.308 356.351C244.956 356.719 244.78 357.247 244.78 357.935C244.78 359.087 244.78 360.255 244.78 361.439C244.78 362.623 244.78 363.791 244.78 364.943C244.14 364.943 243.484 364.943 242.812 364.943C242.14 364.943 241.476 364.943 240.82 364.943ZM256.363 364.943C256.363 363.471 256.363 361.991 256.363 360.503C256.363 359.015 256.363 357.543 256.363 356.087C256.043 356.087 255.715 356.087 255.379 356.087C255.059 356.087 254.739 356.087 254.419 356.087C254.419 355.495 254.419 354.903 254.419 354.311C254.419 353.719 254.419 353.127 254.419 352.535C254.739 352.535 255.059 352.535 255.379 352.535C255.715 352.535 256.043 352.535 256.363 352.535C256.363 351.975 256.363 351.423 256.363 350.879C256.363 350.319 256.363 349.767 256.363 349.223C257.019 349.223 257.683 349.223 258.355 349.223C259.027 349.223 259.683 349.223 260.323 349.223C260.323 349.767 260.323 350.319 260.323 350.879C260.323 351.423 260.323 351.975 260.323 352.535C260.691 352.535 261.067 352.535 261.451 352.535C261.835 352.535 262.211 352.535 262.579 352.535C262.579 353.127 262.579 353.719 262.579 354.311C262.579 354.903 262.579 355.495 262.579 356.087C262.211 356.087 261.835 356.087 261.451 356.087C261.067 356.087 260.691 356.087 260.323 356.087C260.323 357.543 260.323 359.015 260.323 360.503C260.323 361.991 260.323 363.471 260.323 364.943C259.683 364.943 259.027 364.943 258.355 364.943C257.683 364.943 257.019 364.943 256.363 364.943Z" fill="#888888"/>
<path d="M63.819 112.166C61.9843 112.166 60.1283 112.166 58.251 112.166C56.3737 112.166 54.4963 112.166 52.619 112.166C52.619 104.998 52.619 97.7447 52.619 90.406C52.619 83.0673 52.619 75.814 52.619 68.646C54.4963 68.646 56.3737 68.646 58.251 68.646C60.1283 68.646 61.9843 68.646 63.819 68.646C63.819 71.2487 63.819 73.8727 63.819 76.518C63.819 79.1207 63.819 81.7233 63.819 84.326C66.0803 84.326 68.363 84.326 70.667 84.326C72.971 84.326 75.2323 84.326 77.451 84.326C77.451 81.7233 77.451 79.1207 77.451 76.518C77.451 73.8727 77.451 71.2487 77.451 68.646C79.3283 68.646 81.2057 68.646 83.083 68.646C84.9603 68.646 86.8163 68.646 88.651 68.646C88.651 75.814 88.651 83.0673 88.651 90.406C88.651 97.7447 88.651 104.998 88.651 112.166C86.8163 112.166 84.9603 112.166 83.083 112.166C81.2057 112.166 79.3283 112.166 77.451 112.166C77.451 109.265 77.451 106.342 77.451 103.398C77.451 100.411 77.451 97.4887 77.451 94.63C75.2323 94.63 72.971 94.63 70.667 94.63C68.363 94.63 66.0803 94.63 63.819 94.63C63.819 97.4887 63.819 100.411 63.819 103.398C63.819 106.342 63.819 109.265 63.819 112.166ZM101.986 75.302C100.749 75.302 99.618 75.0033 98.594 74.406C97.6127 73.8087 96.8233 73.0193 96.226 72.038C95.6287 71.0567 95.33 69.9687 95.33 68.774C95.33 67.5793 95.6287 66.5127 96.226 65.574C96.8233 64.5927 97.6127 63.8033 98.594 63.206C99.618 62.6087 100.749 62.31 101.986 62.31C103.181 62.31 104.269 62.6087 105.25 63.206C106.274 63.8033 107.085 64.5927 107.682 65.574C108.279 66.5127 108.578 67.5793 108.578 68.774C108.578 69.9687 108.279 71.0567 107.682 72.038C107.085 73.0193 106.274 73.8087 105.25 74.406C104.269 75.0033 103.181 75.302 101.986 75.302ZM96.674 112.166C96.674 106.705 96.674 101.201 96.674 95.654C96.674 90.0647 96.674 84.5393 96.674 79.078C98.4233 79.078 100.194 79.078 101.986 79.078C103.778 79.078 105.527 79.078 107.234 79.078C107.234 84.5393 107.234 90.0647 107.234 95.654C107.234 101.201 107.234 106.705 107.234 112.166C105.527 112.166 103.778 112.166 101.986 112.166C100.194 112.166 98.4233 112.166 96.674 112.166ZM145.708 106.79C145.708 110.417 144.919 113.446 143.34 115.878C141.804 118.31 139.692 120.123 137.004 121.318C134.316 122.555 131.244 123.195 127.788 123.238C124.375 123.281 120.769 122.769 116.972 121.702C116.972 120.038 116.972 118.353 116.972 116.646C116.972 114.982 116.972 113.318 116.972 111.654C120.343 112.977 123.393 113.638 126.124 113.638C128.855 113.681 131.009 113.169 132.588 112.102C134.209 110.993 135.02 109.478 135.02 107.558C135.02 107.345 135.02 107.153 135.02 106.982C135.02 106.769 135.02 106.577 135.02 106.406C133.953 107.217 132.716 107.857 131.308 108.326C129.9 108.795 128.385 109.03 126.764 109.03C124.076 109.03 121.665 108.411 119.532 107.174C117.441 105.894 115.799 104.145 114.604 101.926C113.409 99.6647 112.812 97.0407 112.812 94.054C112.812 91.75 113.196 89.638 113.964 87.718C114.732 85.798 115.799 84.134 117.164 82.726C118.529 81.318 120.087 80.2513 121.836 79.526C123.585 78.758 125.42 78.374 127.34 78.374C128.876 78.374 130.305 78.5873 131.628 79.014C132.951 79.4407 134.124 80.0167 135.148 80.742C135.148 80.4433 135.148 80.166 135.148 79.91C135.148 79.654 135.148 79.3767 135.148 79.078C136.897 79.078 138.668 79.078 140.46 79.078C142.252 79.078 144.001 79.078 145.708 79.078C145.708 83.6433 145.708 88.2727 145.708 92.966C145.708 97.6167 145.708 102.225 145.708 106.79ZM129.388 99.878C131.18 99.878 132.609 99.3233 133.676 98.214C134.785 97.062 135.34 95.59 135.34 93.798C135.34 91.9633 134.785 90.47 133.676 89.318C132.609 88.166 131.18 87.59 129.388 87.59C127.511 87.59 126.017 88.166 124.908 89.318C123.799 90.4273 123.244 91.9207 123.244 93.798C123.244 95.6327 123.799 97.1047 124.908 98.214C126.017 99.3233 127.511 99.878 129.388 99.878ZM153.049 112.166C153.049 104.443 153.049 96.6567 153.049 88.806C153.049 80.9553 153.049 73.1687 153.049 65.446C154.798 65.446 156.569 65.446 158.361 65.446C160.153 65.446 161.902 65.446 163.609 65.446C163.609 67.9633 163.609 70.5233 163.609 73.126C163.609 75.686 163.609 78.2247 163.609 80.742C164.761 79.9313 166.041 79.3127 167.449 78.886C168.9 78.4167 170.457 78.182 172.121 78.182C174.553 78.182 176.686 78.7367 178.521 79.846C180.398 80.9553 181.849 82.5553 182.873 84.646C183.94 86.694 184.473 89.1687 184.473 92.07C184.473 95.398 184.473 98.7473 184.473 102.118C184.473 105.489 184.473 108.838 184.473 112.166C182.766 112.166 181.017 112.166 179.225 112.166C177.433 112.166 175.662 112.166 173.913 112.166C173.913 109.094 173.913 105.979 173.913 102.822C173.913 99.6647 173.913 96.55 173.913 93.478C173.913 91.7713 173.508 90.406 172.697 89.382C171.929 88.3153 170.692 87.782 168.985 87.782C167.278 87.782 165.956 88.2727 165.017 89.254C164.078 90.2353 163.609 91.6433 163.609 93.478C163.609 96.55 163.609 99.6647 163.609 102.822C163.609 105.979 163.609 109.094 163.609 112.166C161.902 112.166 160.153 112.166 158.361 112.166C156.569 112.166 154.798 112.166 153.049 112.166ZM59.851 139.646C61.4297 144.51 62.987 149.417 64.523 154.366C66.1017 159.315 67.6803 164.222 69.259 169.086C70.8377 164.222 72.4163 159.315 73.995 154.366C75.5737 149.417 77.1523 144.51 78.731 139.646C80.5657 139.646 82.4217 139.646 84.299 139.646C86.1763 139.646 88.0323 139.646 89.867 139.646C87.563 146.814 85.2163 154.067 82.827 161.406C80.4803 168.745 78.155 175.998 75.851 183.166C73.6323 183.166 71.3923 183.166 69.131 183.166C66.9123 183.166 64.6937 183.166 62.475 183.166C60.171 175.998 57.8243 168.745 55.435 161.406C53.0883 154.067 50.763 146.814 48.459 139.646C50.3363 139.646 52.235 139.646 54.155 139.646C56.075 139.646 57.9737 139.646 59.851 139.646ZM99.0485 146.302C97.8112 146.302 96.6805 146.003 95.6565 145.406C94.6752 144.809 93.8858 144.019 93.2885 143.038C92.6912 142.057 92.3925 140.969 92.3925 139.774C92.3925 138.579 92.6912 137.513 93.2885 136.574C93.8858 135.593 94.6752 134.803 95.6565 134.206C96.6805 133.609 97.8112 133.31 99.0485 133.31C100.243 133.31 101.331 133.609 102.312 134.206C103.336 134.803 104.147 135.593 104.744 136.574C105.342 137.513 105.64 138.579 105.64 139.774C105.64 140.969 105.342 142.057 104.744 143.038C104.147 144.019 103.336 144.809 102.312 145.406C101.331 146.003 100.243 146.302 99.0485 146.302ZM93.7365 183.166C93.7365 177.705 93.7365 172.201 93.7365 166.654C93.7365 161.065 93.7365 155.539 93.7365 150.078C95.4858 150.078 97.2565 150.078 99.0485 150.078C100.84 150.078 102.59 150.078 104.296 150.078C104.296 155.539 104.296 161.065 104.296 166.654C104.296 172.201 104.296 177.705 104.296 183.166C102.59 183.166 100.84 183.166 99.0485 183.166C97.2565 183.166 95.4858 183.166 93.7365 183.166ZM115.122 183.166C115.122 179.241 115.122 175.294 115.122 171.326C115.122 167.358 115.122 163.433 115.122 159.55C114.269 159.55 113.394 159.55 112.498 159.55C111.645 159.55 110.792 159.55 109.938 159.55C109.938 157.971 109.938 156.393 109.938 154.814C109.938 153.235 109.938 151.657 109.938 150.078C110.792 150.078 111.645 150.078 112.498 150.078C113.394 150.078 114.269 150.078 115.122 150.078C115.122 148.585 115.122 147.113 115.122 145.662C115.122 144.169 115.122 142.697 115.122 141.246C116.872 141.246 118.642 141.246 120.434 141.246C122.226 141.246 123.976 141.246 125.682 141.246C125.682 142.697 125.682 144.169 125.682 145.662C125.682 147.113 125.682 148.585 125.682 150.078C126.664 150.078 127.666 150.078 128.69 150.078C129.714 150.078 130.717 150.078 131.698 150.078C131.698 151.657 131.698 153.235 131.698 154.814C131.698 156.393 131.698 157.971 131.698 159.55C130.717 159.55 129.714 159.55 128.69 159.55C127.666 159.55 126.664 159.55 125.682 159.55C125.682 163.433 125.682 167.358 125.682 171.326C125.682 175.294 125.682 179.241 125.682 183.166C123.976 183.166 122.226 183.166 120.434 183.166C118.642 183.166 116.872 183.166 115.122 183.166ZM158.559 183.166C158.559 182.825 158.559 182.505 158.559 182.206C158.559 181.865 158.559 181.545 158.559 181.246C157.492 182.142 156.276 182.825 154.911 183.294C153.588 183.806 152.159 184.062 150.623 184.062C148.447 184.062 146.399 183.657 144.479 182.846C142.559 181.993 140.852 180.798 139.359 179.262C137.908 177.683 136.756 175.827 135.903 173.694C135.092 171.561 134.687 169.193 134.687 166.59C134.687 163.945 135.092 161.555 135.903 159.422C136.756 157.289 137.908 155.475 139.359 153.982C140.852 152.446 142.559 151.273 144.479 150.462C146.399 149.609 148.426 149.182 150.559 149.182C152.095 149.182 153.546 149.438 154.911 149.95C156.276 150.419 157.492 151.081 158.559 151.934C158.559 151.593 158.559 151.273 158.559 150.974C158.559 150.675 158.559 150.377 158.559 150.078C160.308 150.078 162.079 150.078 163.871 150.078C165.663 150.078 167.412 150.078 169.119 150.078C169.119 155.539 169.119 161.065 169.119 166.654C169.119 172.201 169.119 177.705 169.119 183.166C167.412 183.166 165.663 183.166 163.871 183.166C162.079 183.166 160.308 183.166 158.559 183.166ZM152.031 174.718C154.079 174.718 155.722 173.971 156.959 172.478C158.196 170.985 158.815 169.022 158.815 166.59C158.815 164.158 158.196 162.217 156.959 160.766C155.722 159.273 154.079 158.526 152.031 158.526C149.94 158.526 148.276 159.251 147.039 160.702C145.844 162.153 145.247 164.115 145.247 166.59C145.247 169.065 145.844 171.049 147.039 172.542C148.276 173.993 149.94 174.718 152.031 174.718ZM176.486 183.166C176.486 175.443 176.486 167.657 176.486 159.806C176.486 151.955 176.486 144.169 176.486 136.446C178.236 136.446 180.006 136.446 181.798 136.446C183.59 136.446 185.34 136.446 187.046 136.446C187.046 144.169 187.046 151.955 187.046 159.806C187.046 167.657 187.046 175.443 187.046 183.166C185.34 183.166 183.59 183.166 181.798 183.166C180.006 183.166 178.236 183.166 176.486 183.166ZM200.048 146.302C198.811 146.302 197.68 146.003 196.656 145.406C195.675 144.809 194.886 144.019 194.288 143.038C193.691 142.057 193.392 140.969 193.392 139.774C193.392 138.579 193.691 137.513 194.288 136.574C194.886 135.593 195.675 134.803 196.656 134.206C197.68 133.609 198.811 133.31 200.048 133.31C201.243 133.31 202.331 133.609 203.312 134.206C204.336 134.803 205.147 135.593 205.744 136.574C206.342 137.513 206.64 138.579 206.64 139.774C206.64 140.969 206.342 142.057 205.744 143.038C205.147 144.019 204.336 144.809 203.312 145.406C202.331 146.003 201.243 146.302 200.048 146.302ZM194.736 183.166C194.736 177.705 194.736 172.201 194.736 166.654C194.736 161.065 194.736 155.539 194.736 150.078C196.486 150.078 198.256 150.078 200.048 150.078C201.84 150.078 203.59 150.078 205.296 150.078C205.296 155.539 205.296 161.065 205.296 166.654C205.296 172.201 205.296 177.705 205.296 183.166C203.59 183.166 201.84 183.166 200.048 183.166C198.256 183.166 196.486 183.166 194.736 183.166ZM216.122 183.166C216.122 179.241 216.122 175.294 216.122 171.326C216.122 167.358 216.122 163.433 216.122 159.55C215.269 159.55 214.394 159.55 213.498 159.55C212.645 159.55 211.792 159.55 210.938 159.55C210.938 157.971 210.938 156.393 210.938 154.814C210.938 153.235 210.938 151.657 210.938 150.078C211.792 150.078 212.645 150.078 213.498 150.078C214.394 150.078 215.269 150.078 216.122 150.078C216.122 148.585 216.122 147.113 216.122 145.662C216.122 144.169 216.122 142.697 216.122 141.246C217.872 141.246 219.642 141.246 221.434 141.246C223.226 141.246 224.976 141.246 226.682 141.246C226.682 142.697 226.682 144.169 226.682 145.662C226.682 147.113 226.682 148.585 226.682 150.078C227.664 150.078 228.666 150.078 229.69 150.078C230.714 150.078 231.717 150.078 232.698 150.078C232.698 151.657 232.698 153.235 232.698 154.814C232.698 156.393 232.698 157.971 232.698 159.55C231.717 159.55 230.714 159.55 229.69 159.55C228.666 159.55 227.664 159.55 226.682 159.55C226.682 163.433 226.682 167.358 226.682 171.326C226.682 175.294 226.682 179.241 226.682 183.166C224.976 183.166 223.226 183.166 221.434 183.166C219.642 183.166 217.872 183.166 216.122 183.166ZM240.863 193.406C241.717 191.145 242.591 188.862 243.487 186.558C244.426 184.297 245.322 182.057 246.175 179.838C244.17 174.931 242.122 169.982 240.031 164.99C237.983 159.955 235.957 154.985 233.951 150.078C235.829 150.078 237.706 150.078 239.583 150.078C241.461 150.078 243.317 150.078 245.151 150.078C246.261 152.809 247.37 155.582 248.479 158.398C249.631 161.214 250.762 164.009 251.871 166.782C252.895 164.009 253.941 161.214 255.007 158.398C256.074 155.582 257.119 152.809 258.143 150.078C259.978 150.078 261.813 150.078 263.647 150.078C265.482 150.078 267.317 150.078 269.151 150.078C266.293 157.203 263.413 164.435 260.511 171.774C257.653 179.07 254.794 186.281 251.935 193.406C250.101 193.406 248.245 193.406 246.367 193.406C244.533 193.406 242.698 193.406 240.863 193.406Z" fill="#686868"/>
</svg>
