<svg width="386" height="629" viewBox="0 0 386 629" fill="none" xmlns="http://www.w3.org/2000/svg">
<path d="M363.63 2C374.676 2 383.63 10.9543 383.63 22V606.39C383.63 617.435 374.676 626.39 363.63 626.39H22C10.9543 626.39 2 617.435 2 606.39V22C2 10.9543 10.9543 2 22 2H363.63Z" fill="#FBF6F2" stroke="#404040" stroke-width="4"/>
<path d="M3.98779 515.384H381.618V606.39C381.618 616.331 373.559 624.39 363.618 624.39H21.9878C12.0467 624.39 3.98779 616.331 3.98779 606.39V515.384Z" fill="#F4E3D5"/>
<path d="M54.8188 274.516C55.6508 271.828 56.4828 269.108 57.3148 266.356C58.1628 263.604 59.0028 260.884 59.8348 258.196C60.7788 258.196 61.7308 258.196 62.6908 258.196C63.6668 258.196 64.6268 258.196 65.5708 258.196C66.4028 260.884 67.2348 263.604 68.0668 266.356C68.9148 269.108 69.7548 271.828 70.5868 274.516C69.8988 274.516 69.1948 274.516 68.4748 274.516C67.7708 274.516 67.0668 274.516 66.3628 274.516C66.2028 274.004 66.0508 273.492 65.9068 272.98C65.7628 272.452 65.6108 271.932 65.4508 271.42C64.5388 271.42 63.6188 271.42 62.6908 271.42C61.7788 271.42 60.8668 271.42 59.9548 271.42C59.7948 271.932 59.6428 272.452 59.4988 272.98C59.3548 273.492 59.2028 274.004 59.0428 274.516C58.3548 274.516 57.6508 274.516 56.9308 274.516C56.2268 274.516 55.5228 274.516 54.8188 274.516ZM61.0108 267.844C61.5708 267.844 62.1308 267.844 62.6908 267.844C63.2668 267.844 63.8348 267.844 64.3948 267.844C64.1228 266.9 63.8428 265.948 63.5548 264.988C63.2668 264.028 62.9868 263.076 62.7148 262.132C62.4428 263.076 62.1548 264.028 61.8508 264.988C61.5628 265.948 61.2828 266.9 61.0108 267.844ZM81.0313 274.516C80.3913 274.516 79.7353 274.516 79.0633 274.516C78.3913 274.516 77.7273 274.516 77.0713 274.516C77.0713 271.62 77.0713 268.7 77.0713 265.756C77.0713 262.812 77.0713 259.892 77.0713 256.996C77.7273 256.996 78.3913 256.996 79.0633 256.996C79.7353 256.996 80.3913 256.996 81.0313 256.996C81.0313 257.956 81.0313 258.924 81.0313 259.9C81.0313 260.876 81.0313 261.844 81.0313 262.804C81.4313 262.484 81.8873 262.236 82.3993 262.06C82.9113 261.868 83.4553 261.772 84.0313 261.772C84.8313 261.772 85.5913 261.932 86.3113 262.252C87.0313 262.556 87.6633 262.996 88.2073 263.572C88.7673 264.148 89.1993 264.836 89.5033 265.636C89.8233 266.436 89.9833 267.324 89.9833 268.3C89.9833 269.26 89.8233 270.14 89.5033 270.94C89.1993 271.74 88.7673 272.436 88.2073 273.028C87.6633 273.604 87.0313 274.052 86.3113 274.372C85.5913 274.692 84.8233 274.852 84.0073 274.852C83.4313 274.852 82.8873 274.756 82.3753 274.564C81.8793 274.388 81.4313 274.132 81.0313 273.796C81.0313 273.908 81.0313 274.028 81.0313 274.156C81.0313 274.268 81.0313 274.388 81.0313 274.516ZM83.4793 271.348C84.2633 271.348 84.8793 271.076 85.3273 270.532C85.7913 269.972 86.0233 269.228 86.0233 268.3C86.0233 267.372 85.7913 266.636 85.3273 266.092C84.8793 265.548 84.2633 265.276 83.4793 265.276C82.7113 265.276 82.0953 265.556 81.6313 266.116C81.1673 266.66 80.9353 267.388 80.9353 268.3C80.9353 269.212 81.1673 269.948 81.6313 270.508C82.0953 271.068 82.7113 271.348 83.4793 271.348ZM103.543 262.108C103.543 264.156 103.543 266.228 103.543 268.324C103.543 270.404 103.543 272.468 103.543 274.516C102.903 274.516 102.247 274.516 101.575 274.516C100.903 274.516 100.239 274.516 99.5833 274.516C99.5833 274.404 99.5833 274.3 99.5833 274.204C99.5833 274.108 99.5833 274.004 99.5833 273.892C99.1513 274.196 98.6633 274.428 98.1193 274.588C97.5913 274.764 97.0153 274.852 96.3913 274.852C95.4793 274.852 94.6713 274.644 93.9673 274.228C93.2793 273.812 92.7353 273.212 92.3353 272.428C91.9513 271.644 91.7593 270.716 91.7593 269.644C91.7593 268.396 91.7593 267.14 91.7593 265.876C91.7593 264.612 91.7593 263.356 91.7593 262.108C92.4153 262.108 93.0793 262.108 93.7513 262.108C94.4233 262.108 95.0793 262.108 95.7193 262.108C95.7193 263.26 95.7193 264.428 95.7193 265.612C95.7193 266.796 95.7193 267.964 95.7193 269.116C95.7193 269.756 95.8633 270.276 96.1513 270.676C96.4553 271.06 96.9273 271.252 97.5673 271.252C98.2073 271.252 98.7033 271.068 99.0553 270.7C99.4073 270.332 99.5833 269.804 99.5833 269.116C99.5833 267.964 99.5833 266.796 99.5833 265.612C99.5833 264.428 99.5833 263.26 99.5833 262.108C100.239 262.108 100.903 262.108 101.575 262.108C102.247 262.108 102.903 262.108 103.543 262.108ZM114.458 274.516C114.458 274.388 114.458 274.268 114.458 274.156C114.458 274.028 114.458 273.908 114.458 273.796C114.058 274.132 113.602 274.388 113.09 274.564C112.594 274.756 112.058 274.852 111.482 274.852C110.666 274.852 109.898 274.692 109.178 274.372C108.458 274.052 107.818 273.604 107.258 273.028C106.714 272.436 106.282 271.74 105.962 270.94C105.658 270.14 105.506 269.26 105.506 268.3C105.506 267.324 105.658 266.436 105.962 265.636C106.282 264.836 106.714 264.148 107.258 263.572C107.818 262.996 108.458 262.556 109.178 262.252C109.898 261.932 110.658 261.772 111.458 261.772C112.034 261.772 112.578 261.868 113.09 262.06C113.602 262.236 114.058 262.484 114.458 262.804C114.458 261.844 114.458 260.876 114.458 259.9C114.458 258.924 114.458 257.956 114.458 256.996C115.114 256.996 115.778 256.996 116.45 256.996C117.122 256.996 117.778 256.996 118.418 256.996C118.418 259.892 118.418 262.812 118.418 265.756C118.418 268.7 118.418 271.62 118.418 274.516C117.778 274.516 117.122 274.516 116.45 274.516C115.778 274.516 115.114 274.516 114.458 274.516ZM112.01 271.348C112.778 271.348 113.394 271.068 113.858 270.508C114.322 269.948 114.554 269.212 114.554 268.3C114.554 267.388 114.322 266.66 113.858 266.116C113.394 265.556 112.778 265.276 112.01 265.276C111.226 265.276 110.602 265.548 110.138 266.092C109.69 266.636 109.466 267.372 109.466 268.3C109.466 269.228 109.69 269.972 110.138 270.532C110.602 271.076 111.226 271.348 112.01 271.348ZM129.458 274.516C129.458 274.388 129.458 274.268 129.458 274.156C129.458 274.028 129.458 273.908 129.458 273.796C129.058 274.132 128.602 274.388 128.09 274.564C127.594 274.756 127.058 274.852 126.482 274.852C125.666 274.852 124.898 274.692 124.178 274.372C123.458 274.052 122.818 273.604 122.258 273.028C121.714 272.436 121.282 271.74 120.962 270.94C120.658 270.14 120.506 269.26 120.506 268.3C120.506 267.324 120.658 266.436 120.962 265.636C121.282 264.836 121.714 264.148 122.258 263.572C122.818 262.996 123.458 262.556 124.178 262.252C124.898 261.932 125.658 261.772 126.458 261.772C127.034 261.772 127.578 261.868 128.09 262.06C128.602 262.236 129.058 262.484 129.458 262.804C129.458 261.844 129.458 260.876 129.458 259.9C129.458 258.924 129.458 257.956 129.458 256.996C130.114 256.996 130.778 256.996 131.45 256.996C132.122 256.996 132.778 256.996 133.418 256.996C133.418 259.892 133.418 262.812 133.418 265.756C133.418 268.7 133.418 271.62 133.418 274.516C132.778 274.516 132.122 274.516 131.45 274.516C130.778 274.516 130.114 274.516 129.458 274.516ZM127.01 271.348C127.778 271.348 128.394 271.068 128.858 270.508C129.322 269.948 129.554 269.212 129.554 268.3C129.554 267.388 129.322 266.66 128.858 266.116C128.394 265.556 127.778 265.276 127.01 265.276C126.226 265.276 125.602 265.548 125.138 266.092C124.69 266.636 124.466 267.372 124.466 268.3C124.466 269.228 124.69 269.972 125.138 270.532C125.602 271.076 126.226 271.348 127.01 271.348ZM138.29 260.692C137.826 260.692 137.402 260.58 137.018 260.356C136.65 260.132 136.354 259.836 136.13 259.468C135.906 259.1 135.794 258.692 135.794 258.244C135.794 257.796 135.906 257.396 136.13 257.044C136.354 256.676 136.65 256.38 137.018 256.156C137.402 255.932 137.826 255.82 138.29 255.82C138.738 255.82 139.146 255.932 139.514 256.156C139.898 256.38 140.202 256.676 140.426 257.044C140.65 257.396 140.762 257.796 140.762 258.244C140.762 258.692 140.65 259.1 140.426 259.468C140.202 259.836 139.898 260.132 139.514 260.356C139.146 260.58 138.738 260.692 138.29 260.692ZM136.298 274.516C136.298 272.468 136.298 270.404 136.298 268.324C136.298 266.228 136.298 264.156 136.298 262.108C136.954 262.108 137.618 262.108 138.29 262.108C138.962 262.108 139.618 262.108 140.258 262.108C140.258 264.156 140.258 266.228 140.258 268.324C140.258 270.404 140.258 272.468 140.258 274.516C139.618 274.516 138.962 274.516 138.29 274.516C137.618 274.516 136.954 274.516 136.298 274.516ZM143.022 274.516C143.022 272.468 143.022 270.404 143.022 268.324C143.022 266.228 143.022 264.156 143.022 262.108C143.678 262.108 144.342 262.108 145.014 262.108C145.686 262.108 146.342 262.108 146.982 262.108C146.982 262.22 146.982 262.324 146.982 262.42C146.982 262.516 146.982 262.62 146.982 262.732C147.414 262.428 147.894 262.196 148.422 262.036C148.966 261.86 149.55 261.772 150.174 261.772C151.086 261.772 151.886 261.98 152.574 262.396C153.278 262.812 153.822 263.412 154.206 264.196C154.606 264.964 154.806 265.892 154.806 266.98C154.806 268.228 154.806 269.484 154.806 270.748C154.806 272.012 154.806 273.268 154.806 274.516C154.166 274.516 153.51 274.516 152.838 274.516C152.166 274.516 151.502 274.516 150.846 274.516C150.846 273.364 150.846 272.196 150.846 271.012C150.846 269.828 150.846 268.66 150.846 267.508C150.846 266.868 150.694 266.356 150.39 265.972C150.102 265.572 149.638 265.372 148.998 265.372C148.358 265.372 147.862 265.556 147.51 265.924C147.158 266.292 146.982 266.82 146.982 267.508C146.982 268.66 146.982 269.828 146.982 271.012C146.982 272.196 146.982 273.364 146.982 274.516C146.342 274.516 145.686 274.516 145.014 274.516C144.342 274.516 143.678 274.516 143.022 274.516ZM168.912 272.5C168.912 273.86 168.616 274.996 168.024 275.908C167.448 276.82 166.656 277.5 165.648 277.948C164.64 278.412 163.488 278.652 162.192 278.668C160.912 278.684 159.56 278.492 158.136 278.092C158.136 277.468 158.136 276.836 158.136 276.196C158.136 275.572 158.136 274.948 158.136 274.324C159.4 274.82 160.544 275.068 161.568 275.068C162.592 275.084 163.4 274.892 163.992 274.492C164.6 274.076 164.904 273.508 164.904 272.788C164.904 272.708 164.904 272.636 164.904 272.572C164.904 272.492 164.904 272.42 164.904 272.356C164.504 272.66 164.04 272.9 163.512 273.076C162.984 273.252 162.416 273.34 161.808 273.34C160.8 273.34 159.896 273.108 159.096 272.644C158.312 272.164 157.696 271.508 157.248 270.676C156.8 269.828 156.576 268.844 156.576 267.724C156.576 266.86 156.72 266.068 157.008 265.348C157.296 264.628 157.696 264.004 158.208 263.476C158.72 262.948 159.304 262.548 159.96 262.276C160.616 261.988 161.304 261.844 162.024 261.844C162.6 261.844 163.136 261.924 163.632 262.084C164.128 262.244 164.568 262.46 164.952 262.732C164.952 262.62 164.952 262.516 164.952 262.42C164.952 262.324 164.952 262.22 164.952 262.108C165.608 262.108 166.272 262.108 166.944 262.108C167.616 262.108 168.272 262.108 168.912 262.108C168.912 263.82 168.912 265.556 168.912 267.316C168.912 269.06 168.912 270.788 168.912 272.5ZM162.792 269.908C163.464 269.908 164 269.7 164.4 269.284C164.816 268.852 165.024 268.3 165.024 267.628C165.024 266.94 164.816 266.38 164.4 265.948C164 265.516 163.464 265.3 162.792 265.3C162.088 265.3 161.528 265.516 161.112 265.948C160.696 266.364 160.488 266.924 160.488 267.628C160.488 268.316 160.696 268.868 161.112 269.284C161.528 269.7 162.088 269.908 162.792 269.908ZM175.936 265.66C175.936 265.068 175.936 264.476 175.936 263.884C175.936 263.292 175.936 262.7 175.936 262.108C176.256 262.108 176.576 262.108 176.896 262.108C177.232 262.108 177.56 262.108 177.88 262.108C177.88 262.028 177.88 261.956 177.88 261.892C177.88 261.828 177.88 261.764 177.88 261.7C177.88 260.628 178.096 259.732 178.528 259.012C178.976 258.276 179.56 257.716 180.28 257.332C181.016 256.932 181.816 256.708 182.68 256.66C183.56 256.596 184.432 256.708 185.296 256.996C185.296 257.588 185.296 258.196 185.296 258.82C185.296 259.444 185.296 260.06 185.296 260.668C184.336 260.348 183.52 260.284 182.848 260.476C182.176 260.668 181.84 261.084 181.84 261.724C181.84 261.788 181.84 261.852 181.84 261.916C181.84 261.98 181.84 262.044 181.84 262.108C182.336 262.108 182.832 262.108 183.328 262.108C183.824 262.108 184.32 262.108 184.816 262.108C184.816 262.7 184.816 263.292 184.816 263.884C184.816 264.476 184.816 265.068 184.816 265.66C184.32 265.66 183.824 265.66 183.328 265.66C182.832 265.66 182.336 265.66 181.84 265.66C181.84 267.116 181.84 268.588 181.84 270.076C181.84 271.564 181.84 273.044 181.84 274.516C181.2 274.516 180.544 274.516 179.872 274.516C179.2 274.516 178.536 274.516 177.88 274.516C177.88 273.044 177.88 271.564 177.88 270.076C177.88 268.588 177.88 267.116 177.88 265.66C177.56 265.66 177.232 265.66 176.896 265.66C176.576 265.66 176.256 265.66 175.936 265.66ZM186.97 274.516C186.97 271.62 186.97 268.7 186.97 265.756C186.97 262.812 186.97 259.892 186.97 256.996C187.626 256.996 188.29 256.996 188.962 256.996C189.634 256.996 190.29 256.996 190.93 256.996C190.93 259.892 190.93 262.812 190.93 265.756C190.93 268.7 190.93 271.62 190.93 274.516C190.29 274.516 189.634 274.516 188.962 274.516C188.29 274.516 187.626 274.516 186.97 274.516ZM199.574 274.9C198.646 274.9 197.782 274.74 196.982 274.42C196.182 274.084 195.486 273.62 194.894 273.028C194.302 272.42 193.838 271.716 193.502 270.916C193.182 270.116 193.022 269.244 193.022 268.3C193.022 267.356 193.182 266.484 193.502 265.684C193.838 264.884 194.302 264.188 194.894 263.596C195.486 263.004 196.182 262.548 196.982 262.228C197.782 261.892 198.646 261.724 199.574 261.724C200.518 261.724 201.382 261.892 202.166 262.228C202.966 262.548 203.662 263.004 204.254 263.596C204.846 264.188 205.302 264.884 205.622 265.684C205.958 266.484 206.126 267.356 206.126 268.3C206.126 269.244 205.958 270.116 205.622 270.916C205.302 271.716 204.846 272.42 204.254 273.028C203.662 273.62 202.966 274.084 202.166 274.42C201.382 274.74 200.518 274.9 199.574 274.9ZM199.574 271.324C200.358 271.324 200.982 271.044 201.446 270.484C201.926 269.908 202.166 269.18 202.166 268.3C202.166 267.404 201.926 266.684 201.446 266.14C200.982 265.58 200.358 265.3 199.574 265.3C198.79 265.3 198.158 265.58 197.678 266.14C197.214 266.684 196.982 267.404 196.982 268.3C196.982 269.18 197.214 269.908 197.678 270.484C198.158 271.044 198.79 271.324 199.574 271.324ZM210.37 274.516C209.746 272.468 209.114 270.404 208.474 268.324C207.85 266.228 207.226 264.156 206.602 262.108C207.258 262.108 207.922 262.108 208.594 262.108C209.282 262.108 209.954 262.108 210.61 262.108C210.93 263.228 211.25 264.364 211.57 265.516C211.906 266.652 212.226 267.78 212.53 268.9C212.802 267.78 213.074 266.652 213.346 265.516C213.634 264.364 213.906 263.228 214.162 262.108C214.722 262.108 215.282 262.108 215.842 262.108C216.418 262.108 216.986 262.108 217.546 262.108C217.818 263.228 218.09 264.372 218.362 265.54C218.65 266.692 218.922 267.836 219.178 268.972C219.498 267.836 219.818 266.692 220.138 265.54C220.474 264.372 220.794 263.228 221.098 262.108C221.754 262.108 222.41 262.108 223.066 262.108C223.738 262.108 224.394 262.108 225.034 262.108C224.41 264.156 223.778 266.228 223.138 268.324C222.514 270.404 221.89 272.468 221.266 274.516C220.626 274.516 219.978 274.516 219.322 274.516C218.666 274.516 218.018 274.516 217.378 274.516C217.122 273.524 216.858 272.524 216.586 271.516C216.33 270.508 216.074 269.516 215.818 268.54C215.562 269.516 215.298 270.508 215.026 271.516C214.77 272.524 214.514 273.524 214.258 274.516C213.618 274.516 212.97 274.516 212.314 274.516C211.658 274.516 211.01 274.516 210.37 274.516ZM236.881 273.94C235.777 274.404 234.681 274.692 233.593 274.804C232.505 274.916 231.473 274.852 230.497 274.612C229.537 274.388 228.681 273.996 227.929 273.436C227.177 272.876 226.585 272.164 226.153 271.3C225.737 270.436 225.529 269.436 225.529 268.3C225.529 267.356 225.681 266.492 225.985 265.708C226.305 264.908 226.753 264.212 227.329 263.62C227.905 263.012 228.585 262.548 229.369 262.228C230.153 261.892 231.009 261.724 231.937 261.724C232.769 261.724 233.521 261.86 234.193 262.132C234.865 262.404 235.449 262.788 235.945 263.284C236.441 263.764 236.841 264.34 237.145 265.012C237.449 265.684 237.641 266.42 237.721 267.22C237.801 268.02 237.753 268.868 237.577 269.764C236.265 269.764 234.945 269.764 233.617 269.764C232.289 269.764 230.969 269.764 229.657 269.764C229.961 270.372 230.465 270.804 231.169 271.06C231.889 271.316 232.737 271.396 233.713 271.3C234.705 271.204 235.761 270.948 236.881 270.532C236.881 271.092 236.881 271.66 236.881 272.236C236.881 272.812 236.881 273.38 236.881 273.94ZM231.841 265.276C231.377 265.276 230.945 265.404 230.545 265.66C230.161 265.916 229.865 266.308 229.657 266.836C230.377 266.836 231.097 266.836 231.817 266.836C232.553 266.836 233.281 266.836 234.001 266.836C233.809 266.292 233.521 265.9 233.137 265.66C232.769 265.404 232.337 265.276 231.841 265.276ZM239.819 274.516C239.819 272.468 239.819 270.404 239.819 268.324C239.819 266.228 239.819 264.156 239.819 262.108C240.475 262.108 241.139 262.108 241.811 262.108C242.483 262.108 243.139 262.108 243.779 262.108C243.779 262.22 243.779 262.332 243.779 262.444C243.779 262.556 243.779 262.668 243.779 262.78C244.275 262.428 244.835 262.164 245.459 261.988C246.083 261.812 246.763 261.764 247.499 261.844C247.499 262.484 247.499 263.132 247.499 263.788C247.499 264.444 247.499 265.092 247.499 265.732C246.235 265.556 245.299 265.668 244.691 266.068C244.083 266.452 243.779 267.084 243.779 267.964C243.779 269.036 243.779 270.124 243.779 271.228C243.779 272.332 243.779 273.428 243.779 274.516C243.139 274.516 242.483 274.516 241.811 274.516C241.139 274.516 240.475 274.516 239.819 274.516ZM56.1388 320.516C56.1388 318.468 56.1388 316.404 56.1388 314.324C56.1388 312.228 56.1388 310.156 56.1388 308.108C56.7948 308.108 57.4588 308.108 58.1308 308.108C58.8028 308.108 59.4588 308.108 60.0988 308.108C60.0988 308.22 60.0988 308.332 60.0988 308.444C60.0988 308.556 60.0988 308.668 60.0988 308.78C60.5948 308.428 61.1548 308.164 61.7788 307.988C62.4028 307.812 63.0828 307.764 63.8188 307.844C63.8188 308.484 63.8188 309.132 63.8188 309.788C63.8188 310.444 63.8188 311.092 63.8188 311.732C62.5548 311.556 61.6188 311.668 61.0108 312.068C60.4028 312.452 60.0988 313.084 60.0988 313.964C60.0988 315.036 60.0988 316.124 60.0988 317.228C60.0988 318.332 60.0988 319.428 60.0988 320.516C59.4588 320.516 58.8028 320.516 58.1308 320.516C57.4588 320.516 56.7948 320.516 56.1388 320.516ZM76.1704 319.94C75.0664 320.404 73.9704 320.692 72.8824 320.804C71.7944 320.916 70.7624 320.852 69.7864 320.612C68.8264 320.388 67.9704 319.996 67.2184 319.436C66.4664 318.876 65.8744 318.164 65.4424 317.3C65.0264 316.436 64.8184 315.436 64.8184 314.3C64.8184 313.356 64.9704 312.492 65.2744 311.708C65.5944 310.908 66.0424 310.212 66.6184 309.62C67.1944 309.012 67.8744 308.548 68.6584 308.228C69.4424 307.892 70.2984 307.724 71.2264 307.724C72.0584 307.724 72.8104 307.86 73.4824 308.132C74.1544 308.404 74.7384 308.788 75.2344 309.284C75.7304 309.764 76.1304 310.34 76.4344 311.012C76.7384 311.684 76.9304 312.42 77.0104 313.22C77.0904 314.02 77.0424 314.868 76.8664 315.764C75.5544 315.764 74.2344 315.764 72.9064 315.764C71.5784 315.764 70.2584 315.764 68.9464 315.764C69.2504 316.372 69.7544 316.804 70.4584 317.06C71.1784 317.316 72.0264 317.396 73.0024 317.3C73.9944 317.204 75.0504 316.948 76.1704 316.532C76.1704 317.092 76.1704 317.66 76.1704 318.236C76.1704 318.812 76.1704 319.38 76.1704 319.94ZM71.1304 311.276C70.6664 311.276 70.2344 311.404 69.8344 311.66C69.4504 311.916 69.1544 312.308 68.9464 312.836C69.6664 312.836 70.3864 312.836 71.1064 312.836C71.8424 312.836 72.5704 312.836 73.2904 312.836C73.0984 312.292 72.8104 311.9 72.4264 311.66C72.0584 311.404 71.6264 311.276 71.1304 311.276ZM78.3424 311.66C78.3424 311.068 78.3424 310.476 78.3424 309.884C78.3424 309.292 78.3424 308.7 78.3424 308.108C78.6624 308.108 78.9824 308.108 79.3024 308.108C79.6384 308.108 79.9664 308.108 80.2864 308.108C80.2864 308.028 80.2864 307.956 80.2864 307.892C80.2864 307.828 80.2864 307.764 80.2864 307.7C80.2864 306.628 80.5024 305.732 80.9344 305.012C81.3824 304.276 81.9664 303.716 82.6864 303.332C83.4224 302.932 84.2224 302.708 85.0864 302.66C85.9664 302.596 86.8384 302.708 87.7024 302.996C87.7024 303.588 87.7024 304.196 87.7024 304.82C87.7024 305.444 87.7024 306.06 87.7024 306.668C86.7424 306.348 85.9264 306.284 85.2544 306.476C84.5824 306.668 84.2464 307.084 84.2464 307.724C84.2464 307.788 84.2464 307.852 84.2464 307.916C84.2464 307.98 84.2464 308.044 84.2464 308.108C84.7424 308.108 85.2384 308.108 85.7344 308.108C86.2304 308.108 86.7264 308.108 87.2224 308.108C87.2224 308.7 87.2224 309.292 87.2224 309.884C87.2224 310.476 87.2224 311.068 87.2224 311.66C86.7264 311.66 86.2304 311.66 85.7344 311.66C85.2384 311.66 84.7424 311.66 84.2464 311.66C84.2464 313.116 84.2464 314.588 84.2464 316.076C84.2464 317.564 84.2464 319.044 84.2464 320.516C83.6064 320.516 82.9504 320.516 82.2784 320.516C81.6064 320.516 80.9424 320.516 80.2864 320.516C80.2864 319.044 80.2864 317.564 80.2864 316.076C80.2864 314.588 80.2864 313.116 80.2864 311.66C79.9664 311.66 79.6384 311.66 79.3024 311.66C78.9824 311.66 78.6624 311.66 78.3424 311.66ZM89.376 320.516C89.376 317.62 89.376 314.7 89.376 311.756C89.376 308.812 89.376 305.892 89.376 302.996C90.032 302.996 90.696 302.996 91.368 302.996C92.04 302.996 92.696 302.996 93.336 302.996C93.336 305.892 93.336 308.812 93.336 311.756C93.336 314.7 93.336 317.62 93.336 320.516C92.696 320.516 92.04 320.516 91.368 320.516C90.696 320.516 90.032 320.516 89.376 320.516ZM106.78 319.94C105.676 320.404 104.58 320.692 103.492 320.804C102.404 320.916 101.372 320.852 100.396 320.612C99.4358 320.388 98.5798 319.996 97.8278 319.436C97.0758 318.876 96.4838 318.164 96.0518 317.3C95.6358 316.436 95.4278 315.436 95.4278 314.3C95.4278 313.356 95.5798 312.492 95.8838 311.708C96.2038 310.908 96.6518 310.212 97.2278 309.62C97.8038 309.012 98.4838 308.548 99.2678 308.228C100.052 307.892 100.908 307.724 101.836 307.724C102.668 307.724 103.42 307.86 104.092 308.132C104.764 308.404 105.348 308.788 105.844 309.284C106.34 309.764 106.74 310.34 107.044 311.012C107.348 311.684 107.54 312.42 107.62 313.22C107.7 314.02 107.652 314.868 107.476 315.764C106.164 315.764 104.844 315.764 103.516 315.764C102.188 315.764 100.868 315.764 99.5558 315.764C99.8598 316.372 100.364 316.804 101.068 317.06C101.788 317.316 102.636 317.396 103.612 317.3C104.604 317.204 105.66 316.948 106.78 316.532C106.78 317.092 106.78 317.66 106.78 318.236C106.78 318.812 106.78 319.38 106.78 319.94ZM101.74 311.276C101.276 311.276 100.844 311.404 100.444 311.66C100.06 311.916 99.7638 312.308 99.5558 312.836C100.276 312.836 100.996 312.836 101.716 312.836C102.452 312.836 103.18 312.836 103.9 312.836C103.708 312.292 103.42 311.9 103.036 311.66C102.668 311.404 102.236 311.276 101.74 311.276ZM109.045 314.3C109.045 313.084 109.293 312.02 109.789 311.108C110.285 310.18 110.973 309.436 111.853 308.876C112.733 308.316 113.757 307.98 114.925 307.868C116.093 307.74 117.341 307.876 118.669 308.276C118.669 308.884 118.669 309.5 118.669 310.124C118.669 310.748 118.669 311.364 118.669 311.972C117.741 311.524 116.853 311.316 116.005 311.348C115.157 311.38 114.461 311.644 113.917 312.14C113.373 312.62 113.101 313.34 113.101 314.3C113.101 315.26 113.373 315.988 113.917 316.484C114.461 316.964 115.157 317.22 116.005 317.252C116.853 317.268 117.741 317.06 118.669 316.628C118.669 317.236 118.669 317.852 118.669 318.476C118.669 319.1 118.669 319.716 118.669 320.324C117.341 320.724 116.093 320.86 114.925 320.732C113.757 320.62 112.733 320.284 111.853 319.724C110.973 319.164 110.285 318.428 109.789 317.516C109.293 316.588 109.045 315.516 109.045 314.3ZM122.427 320.516C122.427 319.044 122.427 317.564 122.427 316.076C122.427 314.588 122.427 313.116 122.427 311.66C122.107 311.66 121.779 311.66 121.443 311.66C121.123 311.66 120.803 311.66 120.483 311.66C120.483 311.068 120.483 310.476 120.483 309.884C120.483 309.292 120.483 308.7 120.483 308.108C120.803 308.108 121.123 308.108 121.443 308.108C121.779 308.108 122.107 308.108 122.427 308.108C122.427 307.548 122.427 306.996 122.427 306.452C122.427 305.892 122.427 305.34 122.427 304.796C123.083 304.796 123.747 304.796 124.419 304.796C125.091 304.796 125.747 304.796 126.387 304.796C126.387 305.34 126.387 305.892 126.387 306.452C126.387 306.996 126.387 307.548 126.387 308.108C126.755 308.108 127.131 308.108 127.515 308.108C127.899 308.108 128.275 308.108 128.643 308.108C128.643 308.7 128.643 309.292 128.643 309.884C128.643 310.476 128.643 311.068 128.643 311.66C128.275 311.66 127.899 311.66 127.515 311.66C127.131 311.66 126.755 311.66 126.387 311.66C126.387 313.116 126.387 314.588 126.387 316.076C126.387 317.564 126.387 319.044 126.387 320.516C125.747 320.516 125.091 320.516 124.419 320.516C123.747 320.516 123.083 320.516 122.427 320.516ZM140.033 316.676C140.033 317.668 139.753 318.484 139.193 319.124C138.649 319.748 137.913 320.204 136.985 320.492C136.057 320.78 135.017 320.9 133.865 320.852C132.729 320.82 131.569 320.636 130.385 320.3C130.385 319.692 130.385 319.068 130.385 318.428C130.385 317.788 130.385 317.164 130.385 316.556C131.057 316.86 131.729 317.1 132.401 317.276C133.073 317.436 133.681 317.532 134.225 317.564C134.769 317.596 135.209 317.556 135.545 317.444C135.881 317.316 136.049 317.108 136.049 316.82C136.049 316.596 135.905 316.42 135.617 316.292C135.345 316.164 134.985 316.052 134.537 315.956C134.089 315.844 133.609 315.716 133.097 315.572C132.601 315.412 132.129 315.196 131.681 314.924C131.233 314.636 130.865 314.26 130.577 313.796C130.305 313.316 130.169 312.7 130.169 311.948C130.169 311.052 130.425 310.292 130.937 309.668C131.465 309.028 132.169 308.548 133.049 308.228C133.929 307.892 134.913 307.724 136.001 307.724C137.089 307.724 138.201 307.908 139.337 308.276C139.337 308.884 139.337 309.508 139.337 310.148C139.337 310.788 139.337 311.412 139.337 312.02C138.441 311.588 137.601 311.3 136.817 311.156C136.033 311.012 135.401 310.996 134.921 311.108C134.441 311.204 134.201 311.42 134.201 311.756C134.201 311.98 134.337 312.156 134.609 312.284C134.897 312.396 135.257 312.5 135.689 312.596C136.137 312.692 136.609 312.82 137.105 312.98C137.617 313.14 138.089 313.364 138.521 313.652C138.969 313.924 139.329 314.308 139.601 314.804C139.889 315.284 140.033 315.908 140.033 316.676ZM146.983 320.516C146.983 318.468 146.983 316.404 146.983 314.324C146.983 312.228 146.983 310.156 146.983 308.108C147.639 308.108 148.303 308.108 148.975 308.108C149.647 308.108 150.303 308.108 150.943 308.108C150.943 308.22 150.943 308.324 150.943 308.42C150.943 308.516 150.943 308.62 150.943 308.732C151.359 308.428 151.823 308.196 152.335 308.036C152.847 307.86 153.375 307.772 153.919 307.772C154.511 307.772 155.055 307.876 155.551 308.084C156.047 308.276 156.471 308.564 156.823 308.948C157.335 308.58 157.911 308.292 158.551 308.084C159.207 307.876 159.879 307.772 160.567 307.772C161.543 307.772 162.383 307.972 163.087 308.372C163.807 308.772 164.359 309.34 164.743 310.076C165.143 310.812 165.343 311.7 165.343 312.74C165.343 314.02 165.343 315.316 165.343 316.628C165.343 317.94 165.343 319.236 165.343 320.516C164.703 320.516 164.047 320.516 163.375 320.516C162.703 320.516 162.039 320.516 161.383 320.516C161.383 319.316 161.383 318.1 161.383 316.868C161.383 315.636 161.383 314.42 161.383 313.22C161.383 312.676 161.255 312.236 160.999 311.9C160.759 311.548 160.367 311.372 159.823 311.372C159.295 311.372 158.879 311.54 158.575 311.876C158.287 312.196 158.143 312.644 158.143 313.22C158.143 314.42 158.143 315.636 158.143 316.868C158.143 318.1 158.143 319.316 158.143 320.516C157.503 320.516 156.847 320.516 156.175 320.516C155.503 320.516 154.839 320.516 154.183 320.516C154.183 319.316 154.183 318.1 154.183 316.868C154.183 315.636 154.183 314.42 154.183 313.22C154.183 312.676 154.055 312.236 153.799 311.9C153.559 311.548 153.167 311.372 152.623 311.372C152.095 311.372 151.679 311.54 151.375 311.876C151.087 312.196 150.943 312.644 150.943 313.22C150.943 314.42 150.943 315.636 150.943 316.868C150.943 318.1 150.943 319.316 150.943 320.516C150.303 320.516 149.647 320.516 148.975 320.516C148.303 320.516 147.639 320.516 146.983 320.516ZM168.713 324.356C169.033 323.508 169.361 322.652 169.697 321.788C170.049 320.94 170.385 320.1 170.705 319.268C169.953 317.428 169.185 315.572 168.401 313.7C167.633 311.812 166.873 309.948 166.121 308.108C166.825 308.108 167.529 308.108 168.233 308.108C168.937 308.108 169.633 308.108 170.321 308.108C170.737 309.132 171.153 310.172 171.569 311.228C172.001 312.284 172.425 313.332 172.841 314.372C173.225 313.332 173.617 312.284 174.017 311.228C174.417 310.172 174.809 309.132 175.193 308.108C175.881 308.108 176.569 308.108 177.257 308.108C177.945 308.108 178.633 308.108 179.321 308.108C178.249 310.78 177.169 313.492 176.081 316.244C175.009 318.98 173.937 321.684 172.865 324.356C172.177 324.356 171.481 324.356 170.777 324.356C170.089 324.356 169.401 324.356 168.713 324.356ZM184.889 314.3C184.889 313.084 185.137 312.02 185.633 311.108C186.129 310.18 186.817 309.436 187.697 308.876C188.577 308.316 189.601 307.98 190.769 307.868C191.937 307.74 193.185 307.876 194.513 308.276C194.513 308.884 194.513 309.5 194.513 310.124C194.513 310.748 194.513 311.364 194.513 311.972C193.585 311.524 192.697 311.316 191.849 311.348C191.001 311.38 190.305 311.644 189.761 312.14C189.217 312.62 188.945 313.34 188.945 314.3C188.945 315.26 189.217 315.988 189.761 316.484C190.305 316.964 191.001 317.22 191.849 317.252C192.697 317.268 193.585 317.06 194.513 316.628C194.513 317.236 194.513 317.852 194.513 318.476C194.513 319.1 194.513 319.716 194.513 320.324C193.185 320.724 191.937 320.86 190.769 320.732C189.601 320.62 188.577 320.284 187.697 319.724C186.817 319.164 186.129 318.428 185.633 317.516C185.137 316.588 184.889 315.516 184.889 314.3ZM205.138 320.516C205.138 320.388 205.138 320.268 205.138 320.156C205.138 320.028 205.138 319.908 205.138 319.796C204.738 320.132 204.282 320.388 203.77 320.564C203.274 320.756 202.738 320.852 202.162 320.852C201.346 320.852 200.578 320.7 199.858 320.396C199.138 320.076 198.498 319.628 197.938 319.052C197.394 318.46 196.962 317.764 196.642 316.964C196.338 316.164 196.186 315.276 196.186 314.3C196.186 313.308 196.338 312.412 196.642 311.612C196.962 310.812 197.394 310.132 197.938 309.572C198.498 308.996 199.138 308.556 199.858 308.252C200.578 307.932 201.338 307.772 202.138 307.772C202.714 307.772 203.258 307.868 203.77 308.06C204.282 308.236 204.738 308.484 205.138 308.804C205.138 308.676 205.138 308.556 205.138 308.444C205.138 308.332 205.138 308.22 205.138 308.108C205.794 308.108 206.458 308.108 207.13 308.108C207.802 308.108 208.458 308.108 209.098 308.108C209.098 310.156 209.098 312.228 209.098 314.324C209.098 316.404 209.098 318.468 209.098 320.516C208.458 320.516 207.802 320.516 207.13 320.516C206.458 320.516 205.794 320.516 205.138 320.516ZM202.69 317.348C203.458 317.348 204.074 317.068 204.538 316.508C205.002 315.948 205.234 315.212 205.234 314.3C205.234 313.388 205.002 312.66 204.538 312.116C204.074 311.556 203.458 311.276 202.69 311.276C201.906 311.276 201.282 311.548 200.818 312.092C200.37 312.636 200.146 313.372 200.146 314.3C200.146 315.228 200.37 315.972 200.818 316.532C201.282 317.076 201.906 317.348 202.69 317.348ZM211.86 320.516C211.86 317.62 211.86 314.7 211.86 311.756C211.86 308.812 211.86 305.892 211.86 302.996C212.516 302.996 213.18 302.996 213.852 302.996C214.524 302.996 215.18 302.996 215.82 302.996C215.82 305.892 215.82 308.812 215.82 311.756C215.82 314.7 215.82 317.62 215.82 320.516C215.18 320.516 214.524 320.516 213.852 320.516C213.18 320.516 212.516 320.516 211.86 320.516ZM218.584 320.516C218.584 318.468 218.584 316.404 218.584 314.324C218.584 312.228 218.584 310.156 218.584 308.108C219.24 308.108 219.904 308.108 220.576 308.108C221.248 308.108 221.904 308.108 222.544 308.108C222.544 308.22 222.544 308.324 222.544 308.42C222.544 308.516 222.544 308.62 222.544 308.732C222.96 308.428 223.424 308.196 223.936 308.036C224.448 307.86 224.976 307.772 225.52 307.772C226.112 307.772 226.656 307.876 227.152 308.084C227.648 308.276 228.072 308.564 228.424 308.948C228.936 308.58 229.512 308.292 230.152 308.084C230.808 307.876 231.48 307.772 232.168 307.772C233.144 307.772 233.984 307.972 234.688 308.372C235.408 308.772 235.96 309.34 236.344 310.076C236.744 310.812 236.944 311.7 236.944 312.74C236.944 314.02 236.944 315.316 236.944 316.628C236.944 317.94 236.944 319.236 236.944 320.516C236.304 320.516 235.648 320.516 234.976 320.516C234.304 320.516 233.64 320.516 232.984 320.516C232.984 319.316 232.984 318.1 232.984 316.868C232.984 315.636 232.984 314.42 232.984 313.22C232.984 312.676 232.856 312.236 232.6 311.9C232.36 311.548 231.968 311.372 231.424 311.372C230.896 311.372 230.48 311.54 230.176 311.876C229.888 312.196 229.744 312.644 229.744 313.22C229.744 314.42 229.744 315.636 229.744 316.868C229.744 318.1 229.744 319.316 229.744 320.516C229.104 320.516 228.448 320.516 227.776 320.516C227.104 320.516 226.44 320.516 225.784 320.516C225.784 319.316 225.784 318.1 225.784 316.868C225.784 315.636 225.784 314.42 225.784 313.22C225.784 312.676 225.656 312.236 225.4 311.9C225.16 311.548 224.768 311.372 224.224 311.372C223.696 311.372 223.28 311.54 222.976 311.876C222.688 312.196 222.544 312.644 222.544 313.22C222.544 314.42 222.544 315.636 222.544 316.868C222.544 318.1 222.544 319.316 222.544 320.516C221.904 320.516 221.248 320.516 220.576 320.516C219.904 320.516 219.24 320.516 218.584 320.516ZM56.1388 366.516C56.1388 364.468 56.1388 362.404 56.1388 360.324C56.1388 358.228 56.1388 356.156 56.1388 354.108C56.7948 354.108 57.4588 354.108 58.1308 354.108C58.8028 354.108 59.4588 354.108 60.0988 354.108C60.0988 354.22 60.0988 354.324 60.0988 354.42C60.0988 354.516 60.0988 354.62 60.0988 354.732C60.5148 354.428 60.9788 354.196 61.4908 354.036C62.0028 353.86 62.5308 353.772 63.0748 353.772C63.6668 353.772 64.2108 353.876 64.7068 354.084C65.2028 354.276 65.6268 354.564 65.9788 354.948C66.4908 354.58 67.0668 354.292 67.7068 354.084C68.3628 353.876 69.0348 353.772 69.7228 353.772C70.6988 353.772 71.5388 353.972 72.2428 354.372C72.9628 354.772 73.5148 355.34 73.8988 356.076C74.2988 356.812 74.4988 357.7 74.4988 358.74C74.4988 360.02 74.4988 361.316 74.4988 362.628C74.4988 363.94 74.4988 365.236 74.4988 366.516C73.8588 366.516 73.2028 366.516 72.5308 366.516C71.8588 366.516 71.1948 366.516 70.5388 366.516C70.5388 365.316 70.5388 364.1 70.5388 362.868C70.5388 361.636 70.5388 360.42 70.5388 359.22C70.5388 358.676 70.4108 358.236 70.1548 357.9C69.9148 357.548 69.5228 357.372 68.9788 357.372C68.4508 357.372 68.0348 357.54 67.7308 357.876C67.4428 358.196 67.2988 358.644 67.2988 359.22C67.2988 360.42 67.2988 361.636 67.2988 362.868C67.2988 364.1 67.2988 365.316 67.2988 366.516C66.6588 366.516 66.0028 366.516 65.3308 366.516C64.6588 366.516 63.9948 366.516 63.3388 366.516C63.3388 365.316 63.3388 364.1 63.3388 362.868C63.3388 361.636 63.3388 360.42 63.3388 359.22C63.3388 358.676 63.2108 358.236 62.9548 357.9C62.7148 357.548 62.3228 357.372 61.7788 357.372C61.2508 357.372 60.8348 357.54 60.5308 357.876C60.2428 358.196 60.0988 358.644 60.0988 359.22C60.0988 360.42 60.0988 361.636 60.0988 362.868C60.0988 364.1 60.0988 365.316 60.0988 366.516C59.4588 366.516 58.8028 366.516 58.1308 366.516C57.4588 366.516 56.7948 366.516 56.1388 366.516ZM82.8313 366.9C81.9033 366.9 81.0393 366.74 80.2393 366.42C79.4393 366.084 78.7433 365.62 78.1513 365.028C77.5593 364.42 77.0953 363.716 76.7593 362.916C76.4393 362.116 76.2793 361.244 76.2793 360.3C76.2793 359.356 76.4393 358.484 76.7593 357.684C77.0953 356.884 77.5593 356.188 78.1513 355.596C78.7433 355.004 79.4393 354.548 80.2393 354.228C81.0393 353.892 81.9033 353.724 82.8313 353.724C83.7753 353.724 84.6393 353.892 85.4233 354.228C86.2233 354.548 86.9193 355.004 87.5113 355.596C88.1033 356.188 88.5593 356.884 88.8793 357.684C89.2153 358.484 89.3833 359.356 89.3833 360.3C89.3833 361.244 89.2153 362.116 88.8793 362.916C88.5593 363.716 88.1033 364.42 87.5113 365.028C86.9193 365.62 86.2233 366.084 85.4233 366.42C84.6393 366.74 83.7753 366.9 82.8313 366.9ZM82.8313 363.324C83.6153 363.324 84.2393 363.044 84.7033 362.484C85.1833 361.908 85.4233 361.18 85.4233 360.3C85.4233 359.404 85.1833 358.684 84.7033 358.14C84.2393 357.58 83.6153 357.3 82.8313 357.3C82.0473 357.3 81.4153 357.58 80.9353 358.14C80.4713 358.684 80.2393 359.404 80.2393 360.3C80.2393 361.18 80.4713 361.908 80.9353 362.484C81.4153 363.044 82.0473 363.324 82.8313 363.324ZM97.222 366.9C96.294 366.9 95.43 366.74 94.63 366.42C93.83 366.084 93.134 365.62 92.542 365.028C91.95 364.42 91.486 363.716 91.15 362.916C90.83 362.116 90.67 361.244 90.67 360.3C90.67 359.356 90.83 358.484 91.15 357.684C91.486 356.884 91.95 356.188 92.542 355.596C93.134 355.004 93.83 354.548 94.63 354.228C95.43 353.892 96.294 353.724 97.222 353.724C98.166 353.724 99.03 353.892 99.814 354.228C100.614 354.548 101.31 355.004 101.902 355.596C102.494 356.188 102.95 356.884 103.27 357.684C103.606 358.484 103.774 359.356 103.774 360.3C103.774 361.244 103.606 362.116 103.27 362.916C102.95 363.716 102.494 364.42 101.902 365.028C101.31 365.62 100.614 366.084 99.814 366.42C99.03 366.74 98.166 366.9 97.222 366.9ZM97.222 363.324C98.006 363.324 98.63 363.044 99.094 362.484C99.574 361.908 99.814 361.18 99.814 360.3C99.814 359.404 99.574 358.684 99.094 358.14C98.63 357.58 98.006 357.3 97.222 357.3C96.438 357.3 95.806 357.58 95.326 358.14C94.862 358.684 94.63 359.404 94.63 360.3C94.63 361.18 94.862 361.908 95.326 362.484C95.806 363.044 96.438 363.324 97.222 363.324ZM114.013 366.516C114.013 366.388 114.013 366.268 114.013 366.156C114.013 366.028 114.013 365.908 114.013 365.796C113.613 366.132 113.157 366.388 112.645 366.564C112.149 366.756 111.613 366.852 111.037 366.852C110.221 366.852 109.453 366.692 108.733 366.372C108.013 366.052 107.373 365.604 106.813 365.028C106.269 364.436 105.837 363.74 105.517 362.94C105.213 362.14 105.061 361.26 105.061 360.3C105.061 359.324 105.213 358.436 105.517 357.636C105.837 356.836 106.269 356.148 106.813 355.572C107.373 354.996 108.013 354.556 108.733 354.252C109.453 353.932 110.213 353.772 111.013 353.772C111.589 353.772 112.133 353.868 112.645 354.06C113.157 354.236 113.613 354.484 114.013 354.804C114.013 353.844 114.013 352.876 114.013 351.9C114.013 350.924 114.013 349.956 114.013 348.996C114.669 348.996 115.333 348.996 116.005 348.996C116.677 348.996 117.333 348.996 117.973 348.996C117.973 351.892 117.973 354.812 117.973 357.756C117.973 360.7 117.973 363.62 117.973 366.516C117.333 366.516 116.677 366.516 116.005 366.516C115.333 366.516 114.669 366.516 114.013 366.516ZM111.565 363.348C112.333 363.348 112.949 363.068 113.413 362.508C113.877 361.948 114.109 361.212 114.109 360.3C114.109 359.388 113.877 358.66 113.413 358.116C112.949 357.556 112.333 357.276 111.565 357.276C110.781 357.276 110.157 357.548 109.693 358.092C109.245 358.636 109.021 359.372 109.021 360.3C109.021 361.228 109.245 361.972 109.693 362.532C110.157 363.076 110.781 363.348 111.565 363.348ZM120.085 368.94C120.277 367.82 120.469 366.692 120.661 365.556C120.869 364.42 121.069 363.292 121.261 362.172C121.933 362.172 122.605 362.172 123.277 362.172C123.965 362.172 124.645 362.172 125.317 362.172C125.029 363.292 124.733 364.42 124.429 365.556C124.125 366.692 123.829 367.82 123.541 368.94C122.965 368.94 122.389 368.94 121.813 368.94C121.237 368.94 120.661 368.94 120.085 368.94ZM141.177 366.516C141.177 366.388 141.177 366.268 141.177 366.156C141.177 366.028 141.177 365.908 141.177 365.796C140.777 366.132 140.321 366.388 139.809 366.564C139.313 366.756 138.777 366.852 138.201 366.852C137.385 366.852 136.617 366.7 135.897 366.396C135.177 366.076 134.537 365.628 133.977 365.052C133.433 364.46 133.001 363.764 132.681 362.964C132.377 362.164 132.225 361.276 132.225 360.3C132.225 359.308 132.377 358.412 132.681 357.612C133.001 356.812 133.433 356.132 133.977 355.572C134.537 354.996 135.177 354.556 135.897 354.252C136.617 353.932 137.377 353.772 138.177 353.772C138.753 353.772 139.297 353.868 139.809 354.06C140.321 354.236 140.777 354.484 141.177 354.804C141.177 354.676 141.177 354.556 141.177 354.444C141.177 354.332 141.177 354.22 141.177 354.108C141.833 354.108 142.497 354.108 143.169 354.108C143.841 354.108 144.497 354.108 145.137 354.108C145.137 356.156 145.137 358.228 145.137 360.324C145.137 362.404 145.137 364.468 145.137 366.516C144.497 366.516 143.841 366.516 143.169 366.516C142.497 366.516 141.833 366.516 141.177 366.516ZM138.729 363.348C139.497 363.348 140.113 363.068 140.577 362.508C141.041 361.948 141.273 361.212 141.273 360.3C141.273 359.388 141.041 358.66 140.577 358.116C140.113 357.556 139.497 357.276 138.729 357.276C137.945 357.276 137.321 357.548 136.857 358.092C136.409 358.636 136.185 359.372 136.185 360.3C136.185 361.228 136.409 361.972 136.857 362.532C137.321 363.076 137.945 363.348 138.729 363.348ZM150.299 366.516C149.675 364.468 149.043 362.404 148.403 360.324C147.779 358.228 147.155 356.156 146.531 354.108C147.187 354.108 147.851 354.108 148.523 354.108C149.211 354.108 149.883 354.108 150.539 354.108C150.859 355.228 151.179 356.364 151.499 357.516C151.835 358.652 152.155 359.78 152.459 360.9C152.731 359.78 153.003 358.652 153.275 357.516C153.563 356.364 153.835 355.228 154.091 354.108C154.651 354.108 155.211 354.108 155.771 354.108C156.347 354.108 156.915 354.108 157.475 354.108C157.747 355.228 158.019 356.372 158.291 357.54C158.579 358.692 158.851 359.836 159.107 360.972C159.427 359.836 159.747 358.692 160.067 357.54C160.403 356.372 160.723 355.228 161.027 354.108C161.683 354.108 162.339 354.108 162.995 354.108C163.667 354.108 164.323 354.108 164.963 354.108C164.339 356.156 163.707 358.228 163.067 360.324C162.443 362.404 161.819 364.468 161.195 366.516C160.555 366.516 159.907 366.516 159.251 366.516C158.595 366.516 157.947 366.516 157.307 366.516C157.051 365.524 156.787 364.524 156.515 363.516C156.259 362.508 156.003 361.516 155.747 360.54C155.491 361.516 155.227 362.508 154.955 363.516C154.699 364.524 154.443 365.524 154.187 366.516C153.547 366.516 152.899 366.516 152.243 366.516C151.587 366.516 150.939 366.516 150.299 366.516ZM174.411 366.516C174.411 366.388 174.411 366.268 174.411 366.156C174.411 366.028 174.411 365.908 174.411 365.796C174.011 366.132 173.555 366.388 173.043 366.564C172.547 366.756 172.011 366.852 171.435 366.852C170.619 366.852 169.851 366.7 169.131 366.396C168.411 366.076 167.771 365.628 167.211 365.052C166.667 364.46 166.235 363.764 165.915 362.964C165.611 362.164 165.459 361.276 165.459 360.3C165.459 359.308 165.611 358.412 165.915 357.612C166.235 356.812 166.667 356.132 167.211 355.572C167.771 354.996 168.411 354.556 169.131 354.252C169.851 353.932 170.611 353.772 171.411 353.772C171.987 353.772 172.531 353.868 173.043 354.06C173.555 354.236 174.011 354.484 174.411 354.804C174.411 354.676 174.411 354.556 174.411 354.444C174.411 354.332 174.411 354.22 174.411 354.108C175.067 354.108 175.731 354.108 176.403 354.108C177.075 354.108 177.731 354.108 178.371 354.108C178.371 356.156 178.371 358.228 178.371 360.324C178.371 362.404 178.371 364.468 178.371 366.516C177.731 366.516 177.075 366.516 176.403 366.516C175.731 366.516 175.067 366.516 174.411 366.516ZM171.963 363.348C172.731 363.348 173.347 363.068 173.811 362.508C174.275 361.948 174.507 361.212 174.507 360.3C174.507 359.388 174.275 358.66 173.811 358.116C173.347 357.556 172.731 357.276 171.963 357.276C171.179 357.276 170.555 357.548 170.091 358.092C169.643 358.636 169.419 359.372 169.419 360.3C169.419 361.228 169.643 361.972 170.091 362.532C170.555 363.076 171.179 363.348 171.963 363.348ZM183.126 352.692C182.662 352.692 182.238 352.58 181.854 352.356C181.486 352.132 181.19 351.836 180.966 351.468C180.742 351.1 180.63 350.692 180.63 350.244C180.63 349.796 180.742 349.396 180.966 349.044C181.19 348.676 181.486 348.38 181.854 348.156C182.238 347.932 182.662 347.82 183.126 347.82C183.574 347.82 183.982 347.932 184.35 348.156C184.734 348.38 185.038 348.676 185.262 349.044C185.486 349.396 185.598 349.796 185.598 350.244C185.598 350.692 185.486 351.1 185.262 351.468C185.038 351.836 184.734 352.132 184.35 352.356C183.982 352.58 183.574 352.692 183.126 352.692ZM181.134 366.516C181.134 364.468 181.134 362.404 181.134 360.324C181.134 358.228 181.134 356.156 181.134 354.108C181.79 354.108 182.454 354.108 183.126 354.108C183.798 354.108 184.454 354.108 185.094 354.108C185.094 356.156 185.094 358.228 185.094 360.324C185.094 362.404 185.094 364.468 185.094 366.516C184.454 366.516 183.798 366.516 183.126 366.516C182.454 366.516 181.79 366.516 181.134 366.516ZM189.154 366.516C189.154 365.044 189.154 363.564 189.154 362.076C189.154 360.588 189.154 359.116 189.154 357.66C188.834 357.66 188.506 357.66 188.17 357.66C187.85 357.66 187.53 357.66 187.21 357.66C187.21 357.068 187.21 356.476 187.21 355.884C187.21 355.292 187.21 354.7 187.21 354.108C187.53 354.108 187.85 354.108 188.17 354.108C188.506 354.108 188.834 354.108 189.154 354.108C189.154 353.548 189.154 352.996 189.154 352.452C189.154 351.892 189.154 351.34 189.154 350.796C189.81 350.796 190.474 350.796 191.146 350.796C191.818 350.796 192.474 350.796 193.114 350.796C193.114 351.34 193.114 351.892 193.114 352.452C193.114 352.996 193.114 353.548 193.114 354.108C193.482 354.108 193.858 354.108 194.242 354.108C194.626 354.108 195.002 354.108 195.37 354.108C195.37 354.7 195.37 355.292 195.37 355.884C195.37 356.476 195.37 357.068 195.37 357.66C195.002 357.66 194.626 357.66 194.242 357.66C193.858 357.66 193.482 357.66 193.114 357.66C193.114 359.116 193.114 360.588 193.114 362.076C193.114 363.564 193.114 365.044 193.114 366.516C192.474 366.516 191.818 366.516 191.146 366.516C190.474 366.516 189.81 366.516 189.154 366.516ZM199.391 352.692C198.927 352.692 198.503 352.58 198.119 352.356C197.751 352.132 197.455 351.836 197.231 351.468C197.007 351.1 196.895 350.692 196.895 350.244C196.895 349.796 197.007 349.396 197.231 349.044C197.455 348.676 197.751 348.38 198.119 348.156C198.503 347.932 198.927 347.82 199.391 347.82C199.839 347.82 200.247 347.932 200.615 348.156C200.999 348.38 201.303 348.676 201.527 349.044C201.751 349.396 201.863 349.796 201.863 350.244C201.863 350.692 201.751 351.1 201.527 351.468C201.303 351.836 200.999 352.132 200.615 352.356C200.247 352.58 199.839 352.692 199.391 352.692ZM197.399 366.516C197.399 364.468 197.399 362.404 197.399 360.324C197.399 358.228 197.399 356.156 197.399 354.108C198.055 354.108 198.719 354.108 199.391 354.108C200.063 354.108 200.719 354.108 201.359 354.108C201.359 356.156 201.359 358.228 201.359 360.324C201.359 362.404 201.359 364.468 201.359 366.516C200.719 366.516 200.063 366.516 199.391 366.516C198.719 366.516 198.055 366.516 197.399 366.516ZM204.123 366.516C204.123 364.468 204.123 362.404 204.123 360.324C204.123 358.228 204.123 356.156 204.123 354.108C204.779 354.108 205.443 354.108 206.115 354.108C206.787 354.108 207.443 354.108 208.083 354.108C208.083 354.22 208.083 354.324 208.083 354.42C208.083 354.516 208.083 354.62 208.083 354.732C208.515 354.428 208.995 354.196 209.523 354.036C210.067 353.86 210.651 353.772 211.275 353.772C212.187 353.772 212.987 353.98 213.675 354.396C214.379 354.812 214.923 355.412 215.307 356.196C215.707 356.964 215.907 357.892 215.907 358.98C215.907 360.228 215.907 361.484 215.907 362.748C215.907 364.012 215.907 365.268 215.907 366.516C215.267 366.516 214.611 366.516 213.939 366.516C213.267 366.516 212.603 366.516 211.947 366.516C211.947 365.364 211.947 364.196 211.947 363.012C211.947 361.828 211.947 360.66 211.947 359.508C211.947 358.868 211.795 358.356 211.491 357.972C211.203 357.572 210.739 357.372 210.099 357.372C209.459 357.372 208.963 357.556 208.611 357.924C208.259 358.292 208.083 358.82 208.083 359.508C208.083 360.66 208.083 361.828 208.083 363.012C208.083 364.196 208.083 365.364 208.083 366.516C207.443 366.516 206.787 366.516 206.115 366.516C205.443 366.516 204.779 366.516 204.123 366.516ZM230.014 364.5C230.014 365.86 229.718 366.996 229.126 367.908C228.55 368.82 227.758 369.5 226.75 369.948C225.742 370.412 224.59 370.652 223.294 370.668C222.014 370.684 220.662 370.492 219.238 370.092C219.238 369.468 219.238 368.836 219.238 368.196C219.238 367.572 219.238 366.948 219.238 366.324C220.502 366.82 221.646 367.068 222.67 367.068C223.694 367.084 224.502 366.892 225.094 366.492C225.702 366.076 226.006 365.508 226.006 364.788C226.006 364.708 226.006 364.636 226.006 364.572C226.006 364.492 226.006 364.42 226.006 364.356C225.606 364.66 225.142 364.9 224.614 365.076C224.086 365.252 223.518 365.34 222.91 365.34C221.902 365.34 220.998 365.108 220.198 364.644C219.414 364.164 218.798 363.508 218.35 362.676C217.902 361.828 217.678 360.844 217.678 359.724C217.678 358.86 217.822 358.068 218.11 357.348C218.398 356.628 218.798 356.004 219.31 355.476C219.822 354.948 220.406 354.548 221.062 354.276C221.718 353.988 222.406 353.844 223.126 353.844C223.702 353.844 224.238 353.924 224.734 354.084C225.23 354.244 225.67 354.46 226.054 354.732C226.054 354.62 226.054 354.516 226.054 354.42C226.054 354.324 226.054 354.22 226.054 354.108C226.71 354.108 227.374 354.108 228.046 354.108C228.718 354.108 229.374 354.108 230.014 354.108C230.014 355.82 230.014 357.556 230.014 359.316C230.014 361.06 230.014 362.788 230.014 364.5ZM223.894 361.908C224.566 361.908 225.102 361.7 225.502 361.284C225.918 360.852 226.126 360.3 226.126 359.628C226.126 358.94 225.918 358.38 225.502 357.948C225.102 357.516 224.566 357.3 223.894 357.3C223.19 357.3 222.63 357.516 222.214 357.948C221.798 358.364 221.59 358.924 221.59 359.628C221.59 360.316 221.798 360.868 222.214 361.284C222.63 361.7 223.19 361.908 223.894 361.908ZM245.966 366.516C245.966 366.388 245.966 366.268 245.966 366.156C245.966 366.028 245.966 365.908 245.966 365.796C245.566 366.132 245.11 366.388 244.598 366.564C244.102 366.756 243.566 366.852 242.99 366.852C242.174 366.852 241.406 366.7 240.686 366.396C239.966 366.076 239.326 365.628 238.766 365.052C238.222 364.46 237.79 363.764 237.47 362.964C237.166 362.164 237.014 361.276 237.014 360.3C237.014 359.308 237.166 358.412 237.47 357.612C237.79 356.812 238.222 356.132 238.766 355.572C239.326 354.996 239.966 354.556 240.686 354.252C241.406 353.932 242.166 353.772 242.966 353.772C243.542 353.772 244.086 353.868 244.598 354.06C245.11 354.236 245.566 354.484 245.966 354.804C245.966 354.676 245.966 354.556 245.966 354.444C245.966 354.332 245.966 354.22 245.966 354.108C246.622 354.108 247.286 354.108 247.958 354.108C248.63 354.108 249.286 354.108 249.926 354.108C249.926 356.156 249.926 358.228 249.926 360.324C249.926 362.404 249.926 364.468 249.926 366.516C249.286 366.516 248.63 366.516 247.958 366.516C247.286 366.516 246.622 366.516 245.966 366.516ZM243.518 363.348C244.286 363.348 244.902 363.068 245.366 362.508C245.83 361.948 246.062 361.212 246.062 360.3C246.062 359.388 245.83 358.66 245.366 358.116C244.902 357.556 244.286 357.276 243.518 357.276C242.734 357.276 242.11 357.548 241.646 358.092C241.198 358.636 240.974 359.372 240.974 360.3C240.974 361.228 241.198 361.972 241.646 362.532C242.11 363.076 242.734 363.348 243.518 363.348ZM252.569 366.516C252.569 364.468 252.569 362.404 252.569 360.324C252.569 358.228 252.569 356.156 252.569 354.108C253.225 354.108 253.889 354.108 254.561 354.108C255.233 354.108 255.889 354.108 256.529 354.108C256.529 354.22 256.529 354.324 256.529 354.42C256.529 354.516 256.529 354.62 256.529 354.732C256.961 354.428 257.441 354.196 257.969 354.036C258.513 353.86 259.097 353.772 259.721 353.772C260.633 353.772 261.433 353.98 262.121 354.396C262.825 354.812 263.369 355.412 263.753 356.196C264.153 356.964 264.353 357.892 264.353 358.98C264.353 360.228 264.353 361.484 264.353 362.748C264.353 364.012 264.353 365.268 264.353 366.516C263.713 366.516 263.057 366.516 262.385 366.516C261.713 366.516 261.049 366.516 260.393 366.516C260.393 365.364 260.393 364.196 260.393 363.012C260.393 361.828 260.393 360.66 260.393 359.508C260.393 358.868 260.241 358.356 259.937 357.972C259.649 357.572 259.185 357.372 258.545 357.372C257.905 357.372 257.409 357.556 257.057 357.924C256.705 358.292 256.529 358.82 256.529 359.508C256.529 360.66 256.529 361.828 256.529 363.012C256.529 364.196 256.529 365.364 256.529 366.516C255.889 366.516 255.233 366.516 254.561 366.516C253.889 366.516 253.225 366.516 252.569 366.516ZM67.7308 400.108C67.7308 402.156 67.7308 404.228 67.7308 406.324C67.7308 408.404 67.7308 410.468 67.7308 412.516C67.0908 412.516 66.4348 412.516 65.7628 412.516C65.0908 412.516 64.4268 412.516 63.7708 412.516C63.7708 412.404 63.7708 412.3 63.7708 412.204C63.7708 412.108 63.7708 412.004 63.7708 411.892C63.3388 412.196 62.8508 412.428 62.3068 412.588C61.7788 412.764 61.2028 412.852 60.5788 412.852C59.6668 412.852 58.8588 412.644 58.1548 412.228C57.4668 411.812 56.9228 411.212 56.5228 410.428C56.1388 409.644 55.9468 408.716 55.9468 407.644C55.9468 406.396 55.9468 405.14 55.9468 403.876C55.9468 402.612 55.9468 401.356 55.9468 400.108C56.6028 400.108 57.2668 400.108 57.9388 400.108C58.6108 400.108 59.2668 400.108 59.9068 400.108C59.9068 401.26 59.9068 402.428 59.9068 403.612C59.9068 404.796 59.9068 405.964 59.9068 407.116C59.9068 407.756 60.0508 408.276 60.3388 408.676C60.6428 409.06 61.1148 409.252 61.7548 409.252C62.3948 409.252 62.8908 409.068 63.2428 408.7C63.5948 408.332 63.7708 407.804 63.7708 407.116C63.7708 405.964 63.7708 404.796 63.7708 403.612C63.7708 402.428 63.7708 401.26 63.7708 400.108C64.4268 400.108 65.0908 400.108 65.7628 400.108C66.4348 400.108 67.0908 400.108 67.7308 400.108ZM70.3654 412.516C70.3654 410.468 70.3654 408.404 70.3654 406.324C70.3654 404.228 70.3654 402.156 70.3654 400.108C71.0214 400.108 71.6854 400.108 72.3574 400.108C73.0294 400.108 73.6854 400.108 74.3254 400.108C74.3254 400.22 74.3254 400.324 74.3254 400.42C74.3254 400.516 74.3254 400.62 74.3254 400.732C74.7574 400.428 75.2374 400.196 75.7654 400.036C76.3094 399.86 76.8934 399.772 77.5174 399.772C78.4294 399.772 79.2294 399.98 79.9174 400.396C80.6214 400.812 81.1654 401.412 81.5494 402.196C81.9494 402.964 82.1494 403.892 82.1494 404.98C82.1494 406.228 82.1494 407.484 82.1494 408.748C82.1494 410.012 82.1494 411.268 82.1494 412.516C81.5094 412.516 80.8534 412.516 80.1814 412.516C79.5094 412.516 78.8454 412.516 78.1894 412.516C78.1894 411.364 78.1894 410.196 78.1894 409.012C78.1894 407.828 78.1894 406.66 78.1894 405.508C78.1894 404.868 78.0374 404.356 77.7334 403.972C77.4454 403.572 76.9814 403.372 76.3414 403.372C75.7014 403.372 75.2054 403.556 74.8534 403.924C74.5014 404.292 74.3254 404.82 74.3254 405.508C74.3254 406.66 74.3254 407.828 74.3254 409.012C74.3254 410.196 74.3254 411.364 74.3254 412.516C73.6854 412.516 73.0294 412.516 72.3574 412.516C71.6854 412.516 71.0214 412.516 70.3654 412.516ZM84.5948 412.516C84.5948 409.62 84.5948 406.7 84.5948 403.756C84.5948 400.812 84.5948 397.892 84.5948 394.996C85.2508 394.996 85.9148 394.996 86.5868 394.996C87.2588 394.996 87.9148 394.996 88.5548 394.996C88.5548 396.564 88.5548 398.156 88.5548 399.772C88.5548 401.388 88.5548 402.98 88.5548 404.548C89.1308 403.812 89.7068 403.076 90.2828 402.34C90.8588 401.588 91.4348 400.844 92.0108 400.108C92.7788 400.108 93.5468 400.108 94.3148 400.108C95.0988 400.108 95.8748 400.108 96.6428 400.108C95.8908 401.052 95.1228 402.004 94.3388 402.964C93.5708 403.924 92.8108 404.876 92.0588 405.82C92.8588 406.924 93.6588 408.044 94.4588 409.18C95.2748 410.3 96.0748 411.412 96.8588 412.516C96.0748 412.516 95.2908 412.516 94.5068 412.516C93.7228 412.516 92.9388 412.516 92.1548 412.516C91.5628 411.668 90.9628 410.812 90.3548 409.948C89.7468 409.068 89.1468 408.204 88.5548 407.356C88.5548 408.204 88.5548 409.068 88.5548 409.948C88.5548 410.812 88.5548 411.668 88.5548 412.516C87.9148 412.516 87.2588 412.516 86.5868 412.516C85.9148 412.516 85.2508 412.516 84.5948 412.516ZM98.1857 412.516C98.1857 410.468 98.1857 408.404 98.1857 406.324C98.1857 404.228 98.1857 402.156 98.1857 400.108C98.8417 400.108 99.5057 400.108 100.178 400.108C100.85 400.108 101.506 400.108 102.146 400.108C102.146 400.22 102.146 400.324 102.146 400.42C102.146 400.516 102.146 400.62 102.146 400.732C102.578 400.428 103.058 400.196 103.586 400.036C104.13 399.86 104.714 399.772 105.338 399.772C106.25 399.772 107.05 399.98 107.738 400.396C108.442 400.812 108.986 401.412 109.37 402.196C109.77 402.964 109.97 403.892 109.97 404.98C109.97 406.228 109.97 407.484 109.97 408.748C109.97 410.012 109.97 411.268 109.97 412.516C109.33 412.516 108.674 412.516 108.002 412.516C107.33 412.516 106.666 412.516 106.01 412.516C106.01 411.364 106.01 410.196 106.01 409.012C106.01 407.828 106.01 406.66 106.01 405.508C106.01 404.868 105.858 404.356 105.554 403.972C105.266 403.572 104.802 403.372 104.162 403.372C103.522 403.372 103.026 403.556 102.674 403.924C102.322 404.292 102.146 404.82 102.146 405.508C102.146 406.66 102.146 407.828 102.146 409.012C102.146 410.196 102.146 411.364 102.146 412.516C101.506 412.516 100.85 412.516 100.178 412.516C99.5057 412.516 98.8417 412.516 98.1857 412.516ZM118.292 412.9C117.364 412.9 116.5 412.74 115.7 412.42C114.9 412.084 114.204 411.62 113.612 411.028C113.02 410.42 112.556 409.716 112.22 408.916C111.9 408.116 111.74 407.244 111.74 406.3C111.74 405.356 111.9 404.484 112.22 403.684C112.556 402.884 113.02 402.188 113.612 401.596C114.204 401.004 114.9 400.548 115.7 400.228C116.5 399.892 117.364 399.724 118.292 399.724C119.236 399.724 120.1 399.892 120.884 400.228C121.684 400.548 122.38 401.004 122.972 401.596C123.564 402.188 124.02 402.884 124.34 403.684C124.676 404.484 124.844 405.356 124.844 406.3C124.844 407.244 124.676 408.116 124.34 408.916C124.02 409.716 123.564 410.42 122.972 411.028C122.38 411.62 121.684 412.084 120.884 412.42C120.1 412.74 119.236 412.9 118.292 412.9ZM118.292 409.324C119.076 409.324 119.7 409.044 120.164 408.484C120.644 407.908 120.884 407.18 120.884 406.3C120.884 405.404 120.644 404.684 120.164 404.14C119.7 403.58 119.076 403.3 118.292 403.3C117.508 403.3 116.876 403.58 116.396 404.14C115.932 404.684 115.7 405.404 115.7 406.3C115.7 407.18 115.932 407.908 116.396 408.484C116.876 409.044 117.508 409.324 118.292 409.324ZM129.089 412.516C128.465 410.468 127.833 408.404 127.193 406.324C126.569 404.228 125.945 402.156 125.321 400.108C125.977 400.108 126.641 400.108 127.313 400.108C128.001 400.108 128.673 400.108 129.329 400.108C129.649 401.228 129.969 402.364 130.289 403.516C130.625 404.652 130.945 405.78 131.249 406.9C131.521 405.78 131.793 404.652 132.065 403.516C132.353 402.364 132.625 401.228 132.881 400.108C133.441 400.108 134.001 400.108 134.561 400.108C135.137 400.108 135.705 400.108 136.265 400.108C136.537 401.228 136.809 402.372 137.081 403.54C137.369 404.692 137.641 405.836 137.897 406.972C138.217 405.836 138.537 404.692 138.857 403.54C139.193 402.372 139.513 401.228 139.817 400.108C140.473 400.108 141.129 400.108 141.785 400.108C142.457 400.108 143.113 400.108 143.753 400.108C143.129 402.156 142.497 404.228 141.857 406.324C141.233 408.404 140.609 410.468 139.985 412.516C139.345 412.516 138.697 412.516 138.041 412.516C137.385 412.516 136.737 412.516 136.097 412.516C135.841 411.524 135.577 410.524 135.305 409.516C135.049 408.508 134.793 407.516 134.537 406.54C134.281 407.516 134.017 408.508 133.745 409.516C133.489 410.524 133.233 411.524 132.977 412.516C132.337 412.516 131.689 412.516 131.033 412.516C130.377 412.516 129.729 412.516 129.089 412.516ZM145.154 412.516C145.154 410.468 145.154 408.404 145.154 406.324C145.154 404.228 145.154 402.156 145.154 400.108C145.81 400.108 146.474 400.108 147.146 400.108C147.818 400.108 148.474 400.108 149.114 400.108C149.114 400.22 149.114 400.324 149.114 400.42C149.114 400.516 149.114 400.62 149.114 400.732C149.546 400.428 150.026 400.196 150.554 400.036C151.098 399.86 151.682 399.772 152.306 399.772C153.218 399.772 154.018 399.98 154.706 400.396C155.41 400.812 155.954 401.412 156.338 402.196C156.738 402.964 156.938 403.892 156.938 404.98C156.938 406.228 156.938 407.484 156.938 408.748C156.938 410.012 156.938 411.268 156.938 412.516C156.298 412.516 155.642 412.516 154.97 412.516C154.298 412.516 153.634 412.516 152.978 412.516C152.978 411.364 152.978 410.196 152.978 409.012C152.978 407.828 152.978 406.66 152.978 405.508C152.978 404.868 152.826 404.356 152.522 403.972C152.234 403.572 151.77 403.372 151.13 403.372C150.49 403.372 149.994 403.556 149.642 403.924C149.29 404.292 149.114 404.82 149.114 405.508C149.114 406.66 149.114 407.828 149.114 409.012C149.114 410.196 149.114 411.364 149.114 412.516C148.474 412.516 147.818 412.516 147.146 412.516C146.474 412.516 145.81 412.516 145.154 412.516ZM163.772 403.66C163.772 403.068 163.772 402.476 163.772 401.884C163.772 401.292 163.772 400.7 163.772 400.108C164.092 400.108 164.412 400.108 164.732 400.108C165.068 400.108 165.396 400.108 165.716 400.108C165.716 400.028 165.716 399.956 165.716 399.892C165.716 399.828 165.716 399.764 165.716 399.7C165.716 398.628 165.932 397.732 166.364 397.012C166.812 396.276 167.396 395.716 168.116 395.332C168.852 394.932 169.652 394.708 170.516 394.66C171.396 394.596 172.268 394.708 173.132 394.996C173.132 395.588 173.132 396.196 173.132 396.82C173.132 397.444 173.132 398.06 173.132 398.668C172.172 398.348 171.356 398.284 170.684 398.476C170.012 398.668 169.676 399.084 169.676 399.724C169.676 399.788 169.676 399.852 169.676 399.916C169.676 399.98 169.676 400.044 169.676 400.108C170.172 400.108 170.668 400.108 171.164 400.108C171.66 400.108 172.156 400.108 172.652 400.108C172.652 400.7 172.652 401.292 172.652 401.884C172.652 402.476 172.652 403.068 172.652 403.66C172.156 403.66 171.66 403.66 171.164 403.66C170.668 403.66 170.172 403.66 169.676 403.66C169.676 405.116 169.676 406.588 169.676 408.076C169.676 409.564 169.676 411.044 169.676 412.516C169.036 412.516 168.38 412.516 167.708 412.516C167.036 412.516 166.372 412.516 165.716 412.516C165.716 411.044 165.716 409.564 165.716 408.076C165.716 406.588 165.716 405.116 165.716 403.66C165.396 403.66 165.068 403.66 164.732 403.66C164.412 403.66 164.092 403.66 163.772 403.66ZM186.278 400.108C186.278 402.156 186.278 404.228 186.278 406.324C186.278 408.404 186.278 410.468 186.278 412.516C185.638 412.516 184.982 412.516 184.31 412.516C183.638 412.516 182.974 412.516 182.318 412.516C182.318 412.404 182.318 412.3 182.318 412.204C182.318 412.108 182.318 412.004 182.318 411.892C181.886 412.196 181.398 412.428 180.854 412.588C180.326 412.764 179.75 412.852 179.126 412.852C178.214 412.852 177.406 412.644 176.702 412.228C176.014 411.812 175.47 411.212 175.07 410.428C174.686 409.644 174.494 408.716 174.494 407.644C174.494 406.396 174.494 405.14 174.494 403.876C174.494 402.612 174.494 401.356 174.494 400.108C175.15 400.108 175.814 400.108 176.486 400.108C177.158 400.108 177.814 400.108 178.454 400.108C178.454 401.26 178.454 402.428 178.454 403.612C178.454 404.796 178.454 405.964 178.454 407.116C178.454 407.756 178.598 408.276 178.886 408.676C179.19 409.06 179.662 409.252 180.302 409.252C180.942 409.252 181.438 409.068 181.79 408.7C182.142 408.332 182.318 407.804 182.318 407.116C182.318 405.964 182.318 404.796 182.318 403.612C182.318 402.428 182.318 401.26 182.318 400.108C182.974 400.108 183.638 400.108 184.31 400.108C184.982 400.108 185.638 400.108 186.278 400.108ZM190.208 412.516C190.208 411.044 190.208 409.564 190.208 408.076C190.208 406.588 190.208 405.116 190.208 403.66C189.888 403.66 189.56 403.66 189.224 403.66C188.904 403.66 188.584 403.66 188.264 403.66C188.264 403.068 188.264 402.476 188.264 401.884C188.264 401.292 188.264 400.7 188.264 400.108C188.584 400.108 188.904 400.108 189.224 400.108C189.56 400.108 189.888 400.108 190.208 400.108C190.208 399.548 190.208 398.996 190.208 398.452C190.208 397.892 190.208 397.34 190.208 396.796C190.864 396.796 191.528 396.796 192.2 396.796C192.872 396.796 193.528 396.796 194.168 396.796C194.168 397.34 194.168 397.892 194.168 398.452C194.168 398.996 194.168 399.548 194.168 400.108C194.536 400.108 194.912 400.108 195.296 400.108C195.68 400.108 196.056 400.108 196.424 400.108C196.424 400.7 196.424 401.292 196.424 401.884C196.424 402.476 196.424 403.068 196.424 403.66C196.056 403.66 195.68 403.66 195.296 403.66C194.912 403.66 194.536 403.66 194.168 403.66C194.168 405.116 194.168 406.588 194.168 408.076C194.168 409.564 194.168 411.044 194.168 412.516C193.528 412.516 192.872 412.516 192.2 412.516C191.528 412.516 190.864 412.516 190.208 412.516ZM209.926 400.108C209.926 402.156 209.926 404.228 209.926 406.324C209.926 408.404 209.926 410.468 209.926 412.516C209.286 412.516 208.63 412.516 207.958 412.516C207.286 412.516 206.622 412.516 205.966 412.516C205.966 412.404 205.966 412.3 205.966 412.204C205.966 412.108 205.966 412.004 205.966 411.892C205.534 412.196 205.046 412.428 204.502 412.588C203.974 412.764 203.398 412.852 202.774 412.852C201.862 412.852 201.054 412.644 200.35 412.228C199.662 411.812 199.118 411.212 198.718 410.428C198.334 409.644 198.142 408.716 198.142 407.644C198.142 406.396 198.142 405.14 198.142 403.876C198.142 402.612 198.142 401.356 198.142 400.108C198.798 400.108 199.462 400.108 200.134 400.108C200.806 400.108 201.462 400.108 202.102 400.108C202.102 401.26 202.102 402.428 202.102 403.612C202.102 404.796 202.102 405.964 202.102 407.116C202.102 407.756 202.246 408.276 202.534 408.676C202.838 409.06 203.31 409.252 203.95 409.252C204.59 409.252 205.086 409.068 205.438 408.7C205.79 408.332 205.966 407.804 205.966 407.116C205.966 405.964 205.966 404.796 205.966 403.612C205.966 402.428 205.966 401.26 205.966 400.108C206.622 400.108 207.286 400.108 207.958 400.108C208.63 400.108 209.286 400.108 209.926 400.108ZM212.561 412.516C212.561 410.468 212.561 408.404 212.561 406.324C212.561 404.228 212.561 402.156 212.561 400.108C213.217 400.108 213.881 400.108 214.553 400.108C215.225 400.108 215.881 400.108 216.521 400.108C216.521 400.22 216.521 400.332 216.521 400.444C216.521 400.556 216.521 400.668 216.521 400.78C217.017 400.428 217.577 400.164 218.201 399.988C218.825 399.812 219.505 399.764 220.241 399.844C220.241 400.484 220.241 401.132 220.241 401.788C220.241 402.444 220.241 403.092 220.241 403.732C218.977 403.556 218.041 403.668 217.433 404.068C216.825 404.452 216.521 405.084 216.521 405.964C216.521 407.036 216.521 408.124 216.521 409.228C216.521 410.332 216.521 411.428 216.521 412.516C215.881 412.516 215.225 412.516 214.553 412.516C213.881 412.516 213.217 412.516 212.561 412.516ZM232.592 411.94C231.488 412.404 230.392 412.692 229.304 412.804C228.216 412.916 227.184 412.852 226.208 412.612C225.248 412.388 224.392 411.996 223.64 411.436C222.888 410.876 222.296 410.164 221.864 409.3C221.448 408.436 221.24 407.436 221.24 406.3C221.24 405.356 221.392 404.492 221.696 403.708C222.016 402.908 222.464 402.212 223.04 401.62C223.616 401.012 224.296 400.548 225.08 400.228C225.864 399.892 226.72 399.724 227.648 399.724C228.48 399.724 229.232 399.86 229.904 400.132C230.576 400.404 231.16 400.788 231.656 401.284C232.152 401.764 232.552 402.34 232.856 403.012C233.16 403.684 233.352 404.42 233.432 405.22C233.512 406.02 233.464 406.868 233.288 407.764C231.976 407.764 230.656 407.764 229.328 407.764C228 407.764 226.68 407.764 225.368 407.764C225.672 408.372 226.176 408.804 226.88 409.06C227.6 409.316 228.448 409.396 229.424 409.3C230.416 409.204 231.472 408.948 232.592 408.532C232.592 409.092 232.592 409.66 232.592 410.236C232.592 410.812 232.592 411.38 232.592 411.94ZM227.552 403.276C227.088 403.276 226.656 403.404 226.256 403.66C225.872 403.916 225.576 404.308 225.368 404.836C226.088 404.836 226.808 404.836 227.528 404.836C228.264 404.836 228.992 404.836 229.712 404.836C229.52 404.292 229.232 403.9 228.848 403.66C228.48 403.404 228.048 403.276 227.552 403.276ZM237.479 412.9C237.015 412.9 236.583 412.788 236.183 412.564C235.799 412.34 235.495 412.036 235.271 411.652C235.047 411.268 234.935 410.852 234.935 410.404C234.935 409.956 235.047 409.548 235.271 409.18C235.495 408.796 235.799 408.492 236.183 408.268C236.583 408.044 237.015 407.932 237.479 407.932C237.943 407.932 238.359 408.044 238.727 408.268C239.111 408.492 239.415 408.796 239.639 409.18C239.879 409.548 239.999 409.956 239.999 410.404C239.999 410.852 239.879 411.268 239.639 411.652C239.415 412.036 239.111 412.34 238.727 412.564C238.359 412.788 237.943 412.9 237.479 412.9Z" fill="#888888"/>
<path d="M57.6219 112.171C57.6219 105.003 57.6219 97.7496 57.6219 90.4109C57.6219 83.0722 57.6219 75.8189 57.6219 68.6509C60.2672 68.6509 62.9339 68.6509 65.6219 68.6509C68.3099 68.6509 70.9766 68.6509 73.6219 68.6509C74.8592 73.0029 76.0752 77.4189 77.2699 81.8989C78.5072 86.3362 79.7232 90.7309 80.9179 95.0829C82.1126 90.7309 83.3072 86.3362 84.5019 81.8989C85.7392 77.4189 86.9552 73.0029 88.1499 68.6509C90.7952 68.6509 93.4406 68.6509 96.0859 68.6509C98.7312 68.6509 101.355 68.6509 103.958 68.6509C104.001 75.8189 104.043 83.0722 104.086 90.4109C104.129 97.7496 104.171 105.003 104.214 112.171C102.422 112.171 100.609 112.171 98.7739 112.171C96.9819 112.171 95.1899 112.171 93.3979 112.171C93.3979 107.307 93.3979 102.4 93.3979 97.4509C93.3979 92.4589 93.3979 87.5309 93.3979 82.6669C92.1179 87.5309 90.8166 92.4589 89.4939 97.4509C88.1712 102.4 86.8699 107.307 85.5899 112.171C84.0112 112.171 82.3899 112.171 80.7259 112.171C79.1046 112.171 77.4832 112.171 75.8619 112.171C74.5819 107.392 73.3019 102.571 72.0219 97.7069C70.7419 92.8002 69.4619 87.9576 68.1819 83.1789C68.1819 87.9576 68.1819 92.8002 68.1819 97.7069C68.1819 102.571 68.1819 107.392 68.1819 112.171C66.4752 112.171 64.7259 112.171 62.9339 112.171C61.1419 112.171 59.3712 112.171 57.6219 112.171ZM140.399 110.635C137.455 111.872 134.533 112.64 131.631 112.939C128.73 113.238 125.978 113.067 123.375 112.427C120.815 111.83 118.533 110.784 116.527 109.291C114.522 107.798 112.943 105.899 111.791 103.595C110.682 101.291 110.127 98.6242 110.127 95.5949C110.127 93.0776 110.533 90.7736 111.343 88.6829C112.197 86.5496 113.391 84.6936 114.927 83.1149C116.463 81.4936 118.277 80.2562 120.367 79.4029C122.458 78.5069 124.741 78.0589 127.215 78.0589C129.434 78.0589 131.439 78.4216 133.231 79.1469C135.023 79.8722 136.581 80.8962 137.903 82.2189C139.226 83.4989 140.293 85.0349 141.103 86.8269C141.914 88.6189 142.426 90.5816 142.639 92.7149C142.853 94.8482 142.725 97.1096 142.255 99.4989C138.757 99.4989 135.237 99.4989 131.695 99.4989C128.154 99.4989 124.634 99.4989 121.135 99.4989C121.946 101.12 123.29 102.272 125.167 102.955C127.087 103.638 129.349 103.851 131.951 103.595C134.597 103.339 137.413 102.656 140.399 101.547C140.399 103.04 140.399 104.555 140.399 106.091C140.399 107.627 140.399 109.142 140.399 110.635ZM126.959 87.5309C125.722 87.5309 124.57 87.8722 123.503 88.5549C122.479 89.2376 121.69 90.2829 121.135 91.6909C123.055 91.6909 124.975 91.6909 126.895 91.6909C128.858 91.6909 130.799 91.6909 132.719 91.6909C132.207 90.2402 131.439 89.1949 130.415 88.5549C129.434 87.8722 128.282 87.5309 126.959 87.5309ZM170.312 112.171C170.312 111.83 170.312 111.51 170.312 111.211C170.312 110.87 170.312 110.55 170.312 110.251C169.245 111.147 168.029 111.83 166.664 112.299C165.341 112.811 163.912 113.067 162.376 113.067C160.2 113.067 158.152 112.64 156.232 111.787C154.312 110.934 152.605 109.739 151.112 108.203C149.661 106.624 148.509 104.768 147.656 102.635C146.845 100.502 146.44 98.1549 146.44 95.5949C146.44 92.9922 146.845 90.6242 147.656 88.4909C148.509 86.3576 149.661 84.5229 151.112 82.9869C152.605 81.4509 154.312 80.2776 156.232 79.4669C158.152 78.6136 160.179 78.1869 162.312 78.1869C163.848 78.1869 165.299 78.4429 166.664 78.9549C168.029 79.4242 169.245 80.0856 170.312 80.9389C170.312 78.3789 170.312 75.7976 170.312 73.1949C170.312 70.5922 170.312 68.0109 170.312 65.4509C172.061 65.4509 173.832 65.4509 175.624 65.4509C177.416 65.4509 179.165 65.4509 180.872 65.4509C180.872 73.1736 180.872 80.9602 180.872 88.8109C180.872 96.6616 180.872 104.448 180.872 112.171C179.165 112.171 177.416 112.171 175.624 112.171C173.832 112.171 172.061 112.171 170.312 112.171ZM163.784 103.723C165.832 103.723 167.475 102.976 168.712 101.483C169.949 99.9896 170.568 98.0269 170.568 95.5949C170.568 93.1629 169.949 91.2216 168.712 89.7709C167.475 88.2776 165.832 87.5309 163.784 87.5309C161.693 87.5309 160.029 88.2562 158.792 89.7069C157.597 91.1576 157 93.1202 157 95.5949C157 98.0696 157.597 100.054 158.792 101.547C160.029 102.998 161.693 103.723 163.784 103.723ZM193.864 75.3069C192.627 75.3069 191.496 75.0082 190.472 74.4109C189.491 73.8136 188.701 73.0242 188.104 72.0429C187.507 71.0616 187.208 69.9736 187.208 68.7789C187.208 67.5842 187.507 66.5176 188.104 65.5789C188.701 64.5976 189.491 63.8082 190.472 63.2109C191.496 62.6136 192.627 62.3149 193.864 62.3149C195.059 62.3149 196.147 62.6136 197.128 63.2109C198.152 63.8082 198.963 64.5976 199.56 65.5789C200.157 66.5176 200.456 67.5842 200.456 68.7789C200.456 69.9736 200.157 71.0616 199.56 72.0429C198.963 73.0242 198.152 73.8136 197.128 74.4109C196.147 75.0082 195.059 75.3069 193.864 75.3069ZM188.552 112.171C188.552 106.71 188.552 101.206 188.552 95.6589C188.552 90.0696 188.552 84.5442 188.552 79.0829C190.301 79.0829 192.072 79.0829 193.864 79.0829C195.656 79.0829 197.405 79.0829 199.112 79.0829C199.112 84.5442 199.112 90.0696 199.112 95.6589C199.112 101.206 199.112 106.71 199.112 112.171C197.405 112.171 195.656 112.171 193.864 112.171C192.072 112.171 190.301 112.171 188.552 112.171ZM237.394 79.0829C237.394 84.5442 237.394 90.0696 237.394 95.6589C237.394 101.206 237.394 106.71 237.394 112.171C235.687 112.171 233.938 112.171 232.146 112.171C230.354 112.171 228.583 112.171 226.834 112.171C226.834 111.872 226.834 111.595 226.834 111.339C226.834 111.083 226.834 110.806 226.834 110.507C225.682 111.318 224.381 111.936 222.93 112.363C221.522 112.832 219.986 113.067 218.322 113.067C215.89 113.067 213.735 112.512 211.858 111.403C210.023 110.294 208.573 108.694 207.506 106.603C206.482 104.512 205.97 102.038 205.97 99.1789C205.97 95.8509 205.97 92.5016 205.97 89.1309C205.97 85.7602 205.97 82.4109 205.97 79.0829C207.719 79.0829 209.49 79.0829 211.282 79.0829C213.074 79.0829 214.823 79.0829 216.53 79.0829C216.53 82.1549 216.53 85.2696 216.53 88.4269C216.53 91.5842 216.53 94.6989 216.53 97.7709C216.53 99.4776 216.914 100.864 217.682 101.931C218.493 102.955 219.751 103.467 221.458 103.467C223.165 103.467 224.487 102.976 225.426 101.995C226.365 101.014 226.834 99.6056 226.834 97.7709C226.834 94.6989 226.834 91.5842 226.834 88.4269C226.834 85.2696 226.834 82.1549 226.834 79.0829C228.583 79.0829 230.354 79.0829 232.146 79.0829C233.938 79.0829 235.687 79.0829 237.394 79.0829ZM244.419 112.171C244.419 106.71 244.419 101.206 244.419 95.6589C244.419 90.0696 244.419 84.5442 244.419 79.0829C246.169 79.0829 247.939 79.0829 249.731 79.0829C251.523 79.0829 253.273 79.0829 254.979 79.0829C254.979 79.3816 254.979 79.6589 254.979 79.9149C254.979 80.1709 254.979 80.4482 254.979 80.7469C256.089 79.9362 257.326 79.3176 258.691 78.8909C260.057 78.4216 261.465 78.1869 262.915 78.1869C264.494 78.1869 265.945 78.4642 267.267 79.0189C268.59 79.5309 269.721 80.2989 270.659 81.3229C272.025 80.3416 273.561 79.5736 275.267 79.0189C277.017 78.4642 278.809 78.1869 280.643 78.1869C283.246 78.1869 285.486 78.7202 287.363 79.7869C289.283 80.8536 290.755 82.3682 291.779 84.3309C292.846 86.2936 293.379 88.6616 293.379 91.4349C293.379 94.8482 293.379 98.3042 293.379 101.803C293.379 105.302 293.379 108.758 293.379 112.171C291.673 112.171 289.923 112.171 288.131 112.171C286.339 112.171 284.569 112.171 282.819 112.171C282.819 108.971 282.819 105.728 282.819 102.443C282.819 99.1576 282.819 95.9149 282.819 92.7149C282.819 91.2642 282.478 90.0909 281.795 89.1949C281.155 88.2562 280.11 87.7869 278.659 87.7869C277.251 87.7869 276.142 88.2349 275.331 89.1309C274.563 89.9842 274.179 91.1789 274.179 92.7149C274.179 95.9149 274.179 99.1576 274.179 102.443C274.179 105.728 274.179 108.971 274.179 112.171C272.473 112.171 270.723 112.171 268.931 112.171C267.139 112.171 265.369 112.171 263.619 112.171C263.619 108.971 263.619 105.728 263.619 102.443C263.619 99.1576 263.619 95.9149 263.619 92.7149C263.619 91.2642 263.278 90.0909 262.595 89.1949C261.955 88.2562 260.91 87.7869 259.459 87.7869C258.051 87.7869 256.942 88.2349 256.131 89.1309C255.363 89.9842 254.979 91.1789 254.979 92.7149C254.979 95.9149 254.979 99.1576 254.979 102.443C254.979 105.728 254.979 108.971 254.979 112.171C253.273 112.171 251.523 112.171 249.731 112.171C247.939 112.171 246.169 112.171 244.419 112.171ZM64.8539 139.651C66.4326 144.515 67.9899 149.422 69.5259 154.371C71.1046 159.32 72.6832 164.227 74.2619 169.091C75.8406 164.227 77.4192 159.32 78.9979 154.371C80.5766 149.422 82.1552 144.515 83.7339 139.651C85.5686 139.651 87.4246 139.651 89.3019 139.651C91.1792 139.651 93.0352 139.651 94.8699 139.651C92.5659 146.819 90.2192 154.072 87.8299 161.411C85.4832 168.75 83.1579 176.003 80.8539 183.171C78.6352 183.171 76.3952 183.171 74.1339 183.171C71.9152 183.171 69.6966 183.171 67.4779 183.171C65.1739 176.003 62.8272 168.75 60.4379 161.411C58.0912 154.072 55.7659 146.819 53.4619 139.651C55.3392 139.651 57.2379 139.651 59.1579 139.651C61.0779 139.651 62.9766 139.651 64.8539 139.651ZM104.051 146.307C102.814 146.307 101.683 146.008 100.659 145.411C99.6781 144.814 98.8887 144.024 98.2914 143.043C97.6941 142.062 97.3954 140.974 97.3954 139.779C97.3954 138.584 97.6941 137.518 98.2914 136.579C98.8887 135.598 99.6781 134.808 100.659 134.211C101.683 133.614 102.814 133.315 104.051 133.315C105.246 133.315 106.334 133.614 107.315 134.211C108.339 134.808 109.15 135.598 109.747 136.579C110.345 137.518 110.643 138.584 110.643 139.779C110.643 140.974 110.345 142.062 109.747 143.043C109.15 144.024 108.339 144.814 107.315 145.411C106.334 146.008 105.246 146.307 104.051 146.307ZM98.7394 183.171C98.7394 177.71 98.7394 172.206 98.7394 166.659C98.7394 161.07 98.7394 155.544 98.7394 150.083C100.489 150.083 102.259 150.083 104.051 150.083C105.843 150.083 107.593 150.083 109.299 150.083C109.299 155.544 109.299 161.07 109.299 166.659C109.299 172.206 109.299 177.71 109.299 183.171C107.593 183.171 105.843 183.171 104.051 183.171C102.259 183.171 100.489 183.171 98.7394 183.171ZM120.125 183.171C120.125 179.246 120.125 175.299 120.125 171.331C120.125 167.363 120.125 163.438 120.125 159.555C119.272 159.555 118.397 159.555 117.501 159.555C116.648 159.555 115.795 159.555 114.941 159.555C114.941 157.976 114.941 156.398 114.941 154.819C114.941 153.24 114.941 151.662 114.941 150.083C115.795 150.083 116.648 150.083 117.501 150.083C118.397 150.083 119.272 150.083 120.125 150.083C120.125 148.59 120.125 147.118 120.125 145.667C120.125 144.174 120.125 142.702 120.125 141.251C121.875 141.251 123.645 141.251 125.437 141.251C127.229 141.251 128.979 141.251 130.685 141.251C130.685 142.702 130.685 144.174 130.685 145.667C130.685 147.118 130.685 148.59 130.685 150.083C131.667 150.083 132.669 150.083 133.693 150.083C134.717 150.083 135.72 150.083 136.701 150.083C136.701 151.662 136.701 153.24 136.701 154.819C136.701 156.398 136.701 157.976 136.701 159.555C135.72 159.555 134.717 159.555 133.693 159.555C132.669 159.555 131.667 159.555 130.685 159.555C130.685 163.438 130.685 167.363 130.685 171.331C130.685 175.299 130.685 179.246 130.685 183.171C128.979 183.171 127.229 183.171 125.437 183.171C123.645 183.171 121.875 183.171 120.125 183.171ZM163.562 183.171C163.562 182.83 163.562 182.51 163.562 182.211C163.562 181.87 163.562 181.55 163.562 181.251C162.495 182.147 161.279 182.83 159.914 183.299C158.591 183.811 157.162 184.067 155.626 184.067C153.45 184.067 151.402 183.662 149.482 182.851C147.562 181.998 145.855 180.803 144.362 179.267C142.911 177.688 141.759 175.832 140.906 173.699C140.095 171.566 139.69 169.198 139.69 166.595C139.69 163.95 140.095 161.56 140.906 159.427C141.759 157.294 142.911 155.48 144.362 153.987C145.855 152.451 147.562 151.278 149.482 150.467C151.402 149.614 153.429 149.187 155.562 149.187C157.098 149.187 158.549 149.443 159.914 149.955C161.279 150.424 162.495 151.086 163.562 151.939C163.562 151.598 163.562 151.278 163.562 150.979C163.562 150.68 163.562 150.382 163.562 150.083C165.311 150.083 167.082 150.083 168.874 150.083C170.666 150.083 172.415 150.083 174.122 150.083C174.122 155.544 174.122 161.07 174.122 166.659C174.122 172.206 174.122 177.71 174.122 183.171C172.415 183.171 170.666 183.171 168.874 183.171C167.082 183.171 165.311 183.171 163.562 183.171ZM157.034 174.723C159.082 174.723 160.725 173.976 161.962 172.483C163.199 170.99 163.818 169.027 163.818 166.595C163.818 164.163 163.199 162.222 161.962 160.771C160.725 159.278 159.082 158.531 157.034 158.531C154.943 158.531 153.279 159.256 152.042 160.707C150.847 162.158 150.25 164.12 150.25 166.595C150.25 169.07 150.847 171.054 152.042 172.547C153.279 173.998 154.943 174.723 157.034 174.723ZM181.489 183.171C181.489 175.448 181.489 167.662 181.489 159.811C181.489 151.96 181.489 144.174 181.489 136.451C183.239 136.451 185.009 136.451 186.801 136.451C188.593 136.451 190.343 136.451 192.049 136.451C192.049 144.174 192.049 151.96 192.049 159.811C192.049 167.662 192.049 175.448 192.049 183.171C190.343 183.171 188.593 183.171 186.801 183.171C185.009 183.171 183.239 183.171 181.489 183.171ZM205.051 146.307C203.814 146.307 202.683 146.008 201.659 145.411C200.678 144.814 199.889 144.024 199.291 143.043C198.694 142.062 198.395 140.974 198.395 139.779C198.395 138.584 198.694 137.518 199.291 136.579C199.889 135.598 200.678 134.808 201.659 134.211C202.683 133.614 203.814 133.315 205.051 133.315C206.246 133.315 207.334 133.614 208.315 134.211C209.339 134.808 210.15 135.598 210.747 136.579C211.345 137.518 211.643 138.584 211.643 139.779C211.643 140.974 211.345 142.062 210.747 143.043C210.15 144.024 209.339 144.814 208.315 145.411C207.334 146.008 206.246 146.307 205.051 146.307ZM199.739 183.171C199.739 177.71 199.739 172.206 199.739 166.659C199.739 161.07 199.739 155.544 199.739 150.083C201.489 150.083 203.259 150.083 205.051 150.083C206.843 150.083 208.593 150.083 210.299 150.083C210.299 155.544 210.299 161.07 210.299 166.659C210.299 172.206 210.299 177.71 210.299 183.171C208.593 183.171 206.843 183.171 205.051 183.171C203.259 183.171 201.489 183.171 199.739 183.171ZM221.125 183.171C221.125 179.246 221.125 175.299 221.125 171.331C221.125 167.363 221.125 163.438 221.125 159.555C220.272 159.555 219.397 159.555 218.501 159.555C217.648 159.555 216.795 159.555 215.941 159.555C215.941 157.976 215.941 156.398 215.941 154.819C215.941 153.24 215.941 151.662 215.941 150.083C216.795 150.083 217.648 150.083 218.501 150.083C219.397 150.083 220.272 150.083 221.125 150.083C221.125 148.59 221.125 147.118 221.125 145.667C221.125 144.174 221.125 142.702 221.125 141.251C222.875 141.251 224.645 141.251 226.437 141.251C228.229 141.251 229.979 141.251 231.685 141.251C231.685 142.702 231.685 144.174 231.685 145.667C231.685 147.118 231.685 148.59 231.685 150.083C232.667 150.083 233.669 150.083 234.693 150.083C235.717 150.083 236.72 150.083 237.701 150.083C237.701 151.662 237.701 153.24 237.701 154.819C237.701 156.398 237.701 157.976 237.701 159.555C236.72 159.555 235.717 159.555 234.693 159.555C233.669 159.555 232.667 159.555 231.685 159.555C231.685 163.438 231.685 167.363 231.685 171.331C231.685 175.299 231.685 179.246 231.685 183.171C229.979 183.171 228.229 183.171 226.437 183.171C224.645 183.171 222.875 183.171 221.125 183.171ZM245.866 193.411C246.72 191.15 247.594 188.867 248.49 186.563C249.429 184.302 250.325 182.062 251.178 179.843C249.173 174.936 247.125 169.987 245.034 164.995C242.986 159.96 240.96 154.99 238.954 150.083C240.832 150.083 242.709 150.083 244.586 150.083C246.464 150.083 248.32 150.083 250.154 150.083C251.264 152.814 252.373 155.587 253.482 158.403C254.634 161.219 255.765 164.014 256.874 166.787C257.898 164.014 258.944 161.219 260.01 158.403C261.077 155.587 262.122 152.814 263.146 150.083C264.981 150.083 266.816 150.083 268.65 150.083C270.485 150.083 272.32 150.083 274.154 150.083C271.296 157.208 268.416 164.44 265.514 171.779C262.656 179.075 259.797 186.286 256.938 193.411C255.104 193.411 253.248 193.411 251.37 193.411C249.536 193.411 247.701 193.411 245.866 193.411Z" fill="#686868"/>
</svg>
