<svg width="279" height="37" viewBox="0 0 279 37" fill="none" xmlns="http://www.w3.org/2000/svg">
<path d="M251.957 15.5213C246.868 7.53649 229.538 -0.511699 236.511 8.24951C241.897 15.0172 247.513 15.7831 251.957 15.5213Z" stroke="#404040" stroke-width="2.42813"/>
<path d="M258.464 19.4251C256.285 28.6242 242.559 41.862 246.263 31.3167C249.124 23.1709 254.179 20.6218 258.464 19.4251Z" stroke="#404040" stroke-width="2.42813"/>
<path d="M0 18.8179H249.794" stroke="#404040" stroke-width="2.42813"/>
<ellipse cx="260.413" cy="7.163" rx="3.79488" ry="7.163" fill="#2F4ECD"/>
<ellipse cx="3.78246" cy="7.18668" rx="3.78246" ry="7.18668" transform="matrix(0.709429 0.704777 -0.709429 0.704777 270.61 3.01611)" fill="#2F4ECD"/>
<ellipse cx="3.77114" cy="7.20812" rx="3.77114" ry="7.20812" transform="matrix(0.215507 0.976502 -0.977092 0.212819 256.663 15.0801)" fill="#2F4ECD"/>
<ellipse cx="3.77555" cy="7.19978" rx="3.77555" ry="7.19978" transform="matrix(-0.474177 0.880429 -0.883011 -0.469352 260.011 11.6597)" fill="#2F4ECD"/>
<ellipse cx="3.79179" cy="7.16891" rx="3.79179" ry="7.16891" transform="matrix(-0.936315 -0.351162 0.355229 -0.934779 257.621 35.4912)" fill="#2F4ECD"/>
<ellipse cx="3.78246" cy="7.18668" rx="3.78246" ry="7.18668" transform="matrix(-0.709429 0.704777 -0.709429 -0.704777 274.639 28.3413)" fill="#2F4ECD"/>
<ellipse cx="271.418" cy="18.4731" rx="3.77" ry="7.21028" transform="rotate(90 271.418 18.4731)" fill="#2F4ECD"/>
<ellipse cx="260.603" cy="17.3006" rx="6.41593" ry="6.37385" fill="#6697DC"/>
</svg>
