<svg width="378" height="333" viewBox="0 0 378 333" fill="none" xmlns="http://www.w3.org/2000/svg">
<path d="M285.458 56.6467C285.458 81.1858 285.458 66.7503 285.458 101.079C260.919 101.079 241.026 81.1858 241.026 56.6467C241.026 32.1075 260.919 12.2146 285.458 12.2146C285.458 39.4444 285.458 32.1075 285.458 56.6467Z" fill="#FE9973"/>
<path d="M288.728 56.6463C288.728 32.1072 288.728 46.5427 288.728 12.2142C313.267 12.2142 333.16 32.1072 333.16 56.6463C333.16 81.1855 313.267 101.078 288.728 101.078C288.728 73.8486 288.728 81.1855 288.728 56.6463Z" fill="#FECC73"/>
<rect x="55.332" y="60.6465" width="283.563" height="27.0034" rx="13.5017" fill="#6697DC"/>
<rect x="139.655" y="113.653" width="196.743" height="27.0034" rx="13.5017" fill="#6697DC"/>
<path d="M283.834 87.6499C276.378 87.6499 270.333 93.6948 270.333 101.152C270.333 108.608 276.378 114.653 283.834 114.653H179.396C186.853 114.653 192.898 108.608 192.898 101.152C192.898 93.6948 186.853 87.6499 179.396 87.6499L283.834 87.6499Z" fill="#6697DC"/>
<rect width="167.192" height="15.9215" rx="7.96073" transform="matrix(-1 0 0 1 192.795 0)" fill="#6697DC"/>
<rect width="116.001" height="15.9215" rx="7.96073" transform="matrix(-1 0 0 1 143.077 31.2534)" fill="#6697DC"/>
<path d="M58.0676 15.9214C62.4641 15.9214 66.0283 19.4855 66.0283 23.8821C66.0283 28.2787 62.4641 31.8429 58.0676 31.8429H119.646C115.249 31.8429 111.685 28.2787 111.685 23.8821C111.685 19.4855 115.249 15.9214 119.646 15.9214L58.0676 15.9214Z" fill="#6697DC"/>
<path d="M126.767 187.68C131.163 187.681 134.727 191.245 134.728 195.641C134.728 200.038 131.163 203.602 126.767 203.602H61.5781C57.1815 203.602 53.6172 207.167 53.6172 211.563C53.6173 214.896 55.6655 217.748 58.5713 218.934H77.0488C81.4454 218.934 85.0098 222.499 85.0098 226.895C85.0096 231.292 81.4453 234.855 77.0488 234.855H0V218.934H3.00684C5.9123 217.748 7.96087 214.895 7.96094 211.563C7.96094 207.304 4.61548 203.826 0.40918 203.613L0 203.602V187.68H126.767Z" fill="#6697DC"/>
<path d="M264.14 285.627C259.743 285.627 256.179 289.191 256.179 293.587C256.179 297.984 259.743 301.548 264.14 301.548H329.328C333.725 301.548 337.289 305.112 337.289 309.509C337.289 312.841 335.241 315.694 332.335 316.88H313.857C309.461 316.88 305.896 320.444 305.896 324.841C305.897 329.237 309.461 332.801 313.857 332.801H377.629V285.627H264.14Z" fill="#6697DC"/>
</svg>
