<svg width="135" height="48" viewBox="0 0 135 48" fill="none" xmlns="http://www.w3.org/2000/svg">
<path d="M7.96094 0C3.56458 0.000156666 0.000152588 3.56457 0 7.96094C0 12.3574 3.56448 15.9217 7.96094 15.9219H73.1494C77.546 15.9219 81.1104 19.4862 81.1104 23.8828C81.1103 27.2153 79.062 30.0676 76.1562 31.2539H57.6787C53.2822 31.2539 49.7178 34.8183 49.7178 39.2148C49.7179 43.6113 53.2822 47.1748 57.6787 47.1748H134.728V31.2539H131.721C128.815 30.0674 126.767 27.215 126.767 23.8828C126.767 19.6236 130.112 16.1457 134.318 15.9326L134.728 15.9219V0H7.96094Z" fill="#6697DC"/>
</svg>
