<svg width="327" height="144" viewBox="0 0 327 144" fill="none" xmlns="http://www.w3.org/2000/svg">
<path d="M278.705 60.2333C278.705 84.7725 278.705 70.337 278.705 104.665C254.166 104.665 234.273 84.7725 234.273 60.2333C234.273 35.6942 254.166 15.8013 278.705 15.8013C278.705 43.0311 278.705 35.6942 278.705 60.2333Z" fill="#FE9973"/>
<path d="M281.975 60.2332C281.975 35.6941 281.975 50.1296 281.975 15.8012C306.514 15.8012 326.407 35.6941 326.407 60.2332C326.407 84.7724 306.514 104.665 281.975 104.665C281.975 77.4355 281.975 84.7724 281.975 60.2332Z" fill="#FECC73"/>
<rect width="231.734" height="22.0677" rx="11.0339" transform="matrix(-1 0 0 1 231.734 77.6765)" fill="#6697DC"/>
<rect width="160.782" height="22.0677" rx="11.0339" transform="matrix(-1 0 0 1 162.823 121.812)" fill="#6697DC"/>
<path d="M44.9974 99.7444C51.0912 99.7444 56.0313 104.684 56.0313 110.778C56.0313 116.872 51.0912 121.812 44.9974 121.812H130.347C124.253 121.812 119.313 116.872 119.313 110.778C119.313 104.684 124.253 99.7444 130.347 99.7444L44.9974 99.7444Z" fill="#6697DC"/>
<rect x="46.751" width="167.192" height="15.9215" rx="7.96073" fill="#6697DC"/>
<rect x="96.4688" y="31.2534" width="116.001" height="15.9215" rx="7.96073" fill="#6697DC"/>
<path d="M181.478 15.9214C177.082 15.9214 173.518 19.4855 173.518 23.8821C173.518 28.2787 177.082 31.8429 181.478 31.8429H119.9C124.297 31.8429 127.861 28.2787 127.861 23.8821C127.861 19.4855 124.297 15.9214 119.9 15.9214L181.478 15.9214Z" fill="#6697DC"/>
</svg>
