<svg width="386" height="629" viewBox="0 0 386 629" fill="none" xmlns="http://www.w3.org/2000/svg">
<path d="M363.63 2C374.676 2 383.63 10.9543 383.63 22V606.39C383.63 617.435 374.676 626.39 363.63 626.39H22C10.9543 626.39 2 617.435 2 606.39V22C2 10.9543 10.9543 2 22 2H363.63Z" fill="#2F4ECD" stroke="#404040" stroke-width="4"/>
<path d="M4 557.727H381.63V606.037C381.63 615.978 373.571 624.037 363.63 624.037H22C12.0589 624.037 4 615.978 4 606.037V557.727Z" fill="#F4E3D5"/>
<rect x="189.815" y="390.467" width="3" height="167.361" fill="#6CBDAA"/>
<rect x="184.815" y="390.467" width="3" height="167.361" fill="#036F62"/>
<path d="M182.275 509.464V501.308C182.275 482.812 182.275 473.564 178.675 466.5C175.509 460.285 170.457 455.233 164.242 452.067C157.178 448.467 147.93 448.467 129.434 448.467H128.028L182.275 509.464Z" fill="#6CBDAA"/>
<path d="M244.296 417.717V425.005C244.296 441.534 244.296 449.799 241.079 456.112C238.249 461.666 233.734 466.181 228.181 469.01C221.867 472.227 213.603 472.227 197.073 472.227H195.817L244.296 417.717Z" fill="#6CBDAA"/>
<path d="M128.028 450.798V458.953C128.028 477.449 128.028 486.698 131.628 493.762C134.794 499.976 139.846 505.029 146.06 508.195C153.125 511.795 162.373 511.795 180.869 511.795H182.275L128.028 450.798Z" fill="#036F62"/>
<path d="M195.817 470.144V462.856C195.817 446.327 195.817 438.062 199.034 431.748C201.863 426.195 206.379 421.68 211.932 418.85C218.245 415.633 226.51 415.633 243.04 415.633H244.296L195.817 470.144Z" fill="#036F62"/>
<path d="M211.996 348.695C199.358 348.516 216.376 348.757 201.383 348.545C186.389 348.333 190.149 348.386 190.149 348.386C190.149 348.386 190.933 292.921 191.258 269.923C206.252 270.135 212.609 305.361 211.996 348.695Z" fill="white"/>
<path d="M163.873 348.043C176.511 348.222 160.022 347.988 175.016 348.2C190.01 348.412 186.25 348.359 186.25 348.359C186.25 348.359 187.034 292.894 187.359 269.896C172.365 269.684 164.485 304.709 163.873 348.043Z" fill="#F4E3D5"/>
<path d="M188.605 396.822C188.649 382.629 188.605 396.69 188.649 382.629C188.693 368.568 188.645 383.953 188.685 371.362C174.623 371.318 173.847 371.315 163.225 371.282C163.18 385.343 174.543 396.778 188.605 396.822Z" fill="#6CBDAA"/>
<path d="M188.697 396.823C188.741 382.63 188.697 396.691 188.741 382.63C188.786 368.569 188.737 383.954 188.777 371.363C202.838 371.407 203.614 371.41 214.237 371.443C214.193 385.504 202.758 396.867 188.697 396.823Z" fill="#6CBDAA"/>
<path d="M188.697 396.821C188.742 382.629 188.698 396.69 188.742 382.629C188.786 368.568 188.738 383.953 188.777 371.362C174.716 371.317 173.94 371.315 163.317 371.281C163.273 385.343 174.636 396.777 188.697 396.821Z" fill="#036F62"/>
<path d="M188.697 396.823C188.741 382.63 188.697 396.691 188.741 382.63C188.786 368.569 188.737 383.954 188.777 371.363C202.838 371.407 203.614 371.41 214.237 371.443C214.193 385.504 202.758 396.867 188.697 396.823Z" fill="#6CBDAA"/>
<path d="M163.341 336.033C163.296 350.225 163.34 336.164 163.296 350.225C163.252 364.286 163.3 348.901 163.261 361.492C177.322 361.537 178.098 361.539 188.721 361.573C188.765 347.511 177.402 336.077 163.341 336.033Z" fill="#036F62"/>
<path d="M214.436 336.194C214.392 350.387 214.436 336.326 214.392 350.387C214.348 364.448 214.396 349.063 214.356 361.654C200.295 361.61 199.519 361.608 188.896 361.574C188.941 347.513 200.375 336.15 214.436 336.194Z" fill="#6CBDAA"/>
<rect width="9.78957" height="25.4601" transform="matrix(-0.00314404 0.999995 0.999995 0.00314404 163.259 361.492)" fill="#036F62"/>
<rect x="214.355" y="361.654" width="9.78957" height="25.4601" transform="rotate(90.1801 214.355 361.654)" fill="#6CBDAA"/>
<path d="M188.275 397.424L188.275 348.695" stroke="#2F4ECD" stroke-width="3"/>
<path d="M163.505 334.351C170.134 334.844 184.739 340.136 188.157 354.073" stroke="#2F4ECD" stroke-width="3"/>
<path d="M213.141 334.474C206.512 334.967 191.907 340.259 188.489 354.195" stroke="#2F4ECD" stroke-width="3"/>
</svg>
