<svg width="386" height="629" viewBox="0 0 386 629" fill="none" xmlns="http://www.w3.org/2000/svg">
<path d="M363.63 2C374.676 2 383.63 10.9543 383.63 22V606.39C383.63 617.435 374.676 626.39 363.63 626.39H22C10.9543 626.39 2 617.435 2 606.39V22C2 10.9543 10.9543 2 22 2H363.63Z" fill="#2F4ECD" stroke="#404040" stroke-width="4"/>
<mask id="mask0_228_28" style="mask-type:alpha" maskUnits="userSpaceOnUse" x="4" y="4" width="378" height="621">
<path d="M4 22C4 12.0589 12.0589 4 22 4H363.63C373.571 4 381.63 12.0589 381.63 22V606.39C381.63 616.331 373.571 624.39 363.63 624.39H22C12.0589 624.39 4 616.331 4 606.39V22Z" fill="#FBF6F2"/>
</mask>
<g mask="url(#mask0_228_28)">
<path d="M4 557.368H381.63V606.39C381.63 616.331 373.571 624.39 363.63 624.39H22C12.0589 624.39 4 616.331 4 606.39V557.368Z" fill="#F4E3D5"/>
</g>
<path d="M162.715 557.961V280.712C162.715 241.004 213.689 239.869 213.689 280.712V308.508" stroke="#036F62" stroke-width="3.28782"/>
<path d="M167.647 557.961V277.896C167.648 249.989 206.263 244.864 208.755 277.896V307.512" stroke="#6CBDAA" stroke-width="3.28782"/>
<path d="M167.69 519.221V507.365C167.69 480.475 167.691 467.03 172.924 456.76C177.527 447.726 184.872 440.381 193.906 435.778C204.176 430.545 217.621 430.544 244.511 430.544H246.554L167.69 519.221Z" fill="#6CBDAA"/>
<path d="M246.554 433.934V445.79C246.554 472.679 246.554 486.124 241.321 496.394C236.718 505.428 229.373 512.774 220.339 517.377C210.068 522.61 196.624 522.61 169.734 522.61H167.69L246.554 433.934Z" fill="#036F62"/>
<path d="M142.983 372.491L159.156 363.673V381.31L142.983 372.491Z" fill="#036F62"/>
<path d="M142.983 440.727L159.156 431.909V449.546L142.983 440.727Z" fill="#036F62"/>
<path d="M142.983 504.859L159.156 496.04V513.677L142.983 504.859Z" fill="#036F62"/>
<path d="M142.983 312.483L159.156 303.664V321.302L142.983 312.483Z" fill="#036F62"/>
<path d="M188.435 407.252L172.262 398.433V416.07L188.435 407.252Z" fill="#6CBDAA"/>
<path d="M252.537 345.807C252.536 335.462 252.537 349.392 252.536 337.119C252.536 324.847 252.536 327.924 252.536 327.924C252.536 327.924 297.935 327.922 316.76 327.921C316.761 340.193 288.007 345.805 252.537 345.807Z" fill="white"/>
<path d="M252.534 308.053C252.535 318.398 252.534 304.902 252.535 317.175C252.535 329.447 252.535 326.37 252.535 326.37C252.535 326.37 297.935 326.367 316.759 326.366C316.759 314.093 288.004 308.051 252.534 308.053Z" fill="#F4E3D5"/>
<path d="M251.976 307.944C241.631 307.945 255.561 307.944 243.288 307.945C231.016 307.945 234.093 307.945 234.093 307.945C234.093 307.945 234.091 262.545 234.09 243.721C246.362 243.72 251.974 272.474 251.976 307.944Z" fill="white"/>
<path d="M214.223 307.946C224.567 307.945 211.071 307.946 223.344 307.946C235.616 307.945 232.539 307.945 232.539 307.945C232.539 307.945 232.536 262.545 232.535 243.721C220.262 243.722 214.22 272.476 214.223 307.946Z" fill="#F4E3D5"/>
<path d="M214.783 345.81C225.127 345.809 211.197 345.81 223.47 345.809C235.743 345.808 232.665 345.808 232.665 345.808C232.665 345.808 232.668 391.208 232.669 410.032C220.396 410.033 214.785 381.279 214.783 345.81Z" fill="white"/>
<path d="M252.536 345.807C242.191 345.808 255.688 345.807 243.415 345.808C231.142 345.809 234.22 345.808 234.22 345.808C234.22 345.808 234.223 391.208 234.224 410.032C246.497 410.032 252.538 381.277 252.536 345.807Z" fill="#F4E3D5"/>
<rect x="250.856" y="309.339" width="34.7295" height="34.7295" transform="rotate(89.9966 250.856 309.339)" fill="#FECC73"/>
<path d="M214.347 308.49C214.348 318.834 214.347 304.904 214.347 317.177C214.348 329.45 214.348 326.372 214.348 326.372C214.348 326.372 168.948 326.375 150.124 326.376C150.123 314.103 178.877 308.492 214.347 308.49Z" fill="white"/>
<path d="M214.349 346.243C214.349 335.898 214.349 349.395 214.349 337.122C214.348 324.849 214.348 327.927 214.348 327.927C214.348 327.927 168.948 327.929 150.124 327.931C150.125 340.203 178.879 346.245 214.349 346.243Z" fill="#F4E3D5"/>
</svg>
