<svg width="386" height="629" viewBox="0 0 386 629" fill="none" xmlns="http://www.w3.org/2000/svg">
<path d="M363.63 2C374.676 2 383.63 10.9543 383.63 22V606.39C383.63 617.435 374.676 626.39 363.63 626.39H22C10.9543 626.39 2 617.435 2 606.39V22C2 10.9543 10.9543 2 22 2H363.63Z" fill="#2F4ECD" stroke="#404040" stroke-width="4"/>
<mask id="mask0_228_27" style="mask-type:alpha" maskUnits="userSpaceOnUse" x="4" y="4" width="378" height="621">
<path d="M4 22C4 12.0589 12.0589 4 22 4H363.63C373.571 4 381.63 12.0589 381.63 22V606.39C381.63 616.331 373.571 624.39 363.63 624.39H22C12.0589 624.39 4 616.331 4 606.39V22Z" fill="#FBF6F2"/>
</mask>
<g mask="url(#mask0_228_27)">
<path d="M4 559.368H381.63V606.39C381.63 616.331 373.571 624.39 363.63 624.39H22C12.0589 624.39 4 616.331 4 606.39V559.368Z" fill="#F4E3D5"/>
</g>
<rect x="178.696" y="358.505" width="3" height="199.929" fill="#6CBDAA"/>
<rect x="173.696" y="358.505" width="3" height="199.929" fill="#036F62"/>
<path d="M171.155 524.418V512.473C171.155 485.38 171.155 471.834 165.883 461.486C161.245 452.384 153.844 444.983 144.742 440.345C134.394 435.073 120.848 435.073 93.755 435.073H91.6958L171.155 524.418Z" fill="#6CBDAA"/>
<path d="M253.877 419.478V429.878C253.877 453.466 253.877 465.26 249.287 474.269C245.249 482.194 238.806 488.637 230.881 492.675C221.872 497.265 210.078 497.265 186.49 497.265H184.697L253.877 419.478Z" fill="#6CBDAA"/>
<path d="M91.6958 438.487V450.432C91.6958 477.525 91.696 491.071 96.9685 501.419C101.606 510.522 109.007 517.922 118.109 522.56C128.457 527.833 142.004 527.833 169.096 527.833H171.155L91.6958 438.487Z" fill="#036F62"/>
<path d="M184.697 494.293V483.892C184.697 460.305 184.697 448.511 189.288 439.502C193.326 431.577 199.769 425.134 207.694 421.096C216.703 416.505 228.497 416.505 252.085 416.505H253.877L184.697 494.293Z" fill="#036F62"/>
<path d="M177.953 359.172C184.98 350.982 175.517 362.011 183.854 352.294C192.192 342.578 190.101 345.014 190.101 345.014C190.101 345.014 226.045 375.856 240.948 388.645C232.61 398.361 206.035 383.268 177.953 359.172Z" fill="white"/>
<path d="M203.6 329.282C196.572 337.472 205.741 326.787 197.404 336.503C189.066 346.22 191.157 343.783 191.157 343.783C191.157 343.783 227.1 374.625 242.004 387.413C250.341 377.697 231.682 353.378 203.6 329.282Z" fill="#F4E3D5"/>
<path d="M203.232 328.816C195.042 321.788 206.071 331.252 196.354 322.914C186.638 314.577 189.075 316.668 189.075 316.668C189.075 316.668 219.917 280.724 232.705 265.821C242.421 274.158 227.329 300.734 203.232 328.816Z" fill="white"/>
<path d="M173.343 303.168C181.533 310.196 170.847 301.027 180.564 309.365C190.28 317.702 187.844 315.611 187.844 315.611C187.844 315.611 218.686 279.668 231.474 264.764C221.758 256.427 197.439 275.086 173.343 303.168Z" fill="#F4E3D5"/>
<path d="M148.062 333.524C156.252 340.552 145.224 331.088 154.94 339.426C164.656 347.763 162.22 345.672 162.22 345.672C162.22 345.672 131.378 381.616 118.589 396.519C108.873 388.182 123.966 361.606 148.062 333.524Z" fill="white"/>
<path d="M177.952 359.172C169.762 352.144 180.447 361.313 170.73 352.975C161.014 344.638 163.451 346.729 163.451 346.729C163.451 346.729 132.608 382.672 119.82 397.576C129.537 405.913 153.855 387.254 177.952 359.172Z" fill="#F4E3D5"/>
<rect x="201.398" y="329.159" width="36.2306" height="36.2306" transform="rotate(130.632 201.398 329.159)" fill="#FECC73"/>
<path d="M173.072 303.683C166.044 311.873 175.507 300.844 167.17 310.561C158.833 320.277 160.923 317.841 160.923 317.841C160.923 317.841 124.98 286.999 110.077 274.21C118.414 264.494 144.99 279.587 173.072 303.683Z" fill="white"/>
<path d="M147.424 333.573C154.451 325.383 145.283 336.068 153.62 326.351C161.958 316.635 159.867 319.071 159.867 319.071C159.867 319.071 123.924 288.229 109.02 275.441C100.683 285.158 119.342 309.476 147.424 333.573Z" fill="#F4E3D5"/>
</svg>
