<svg width="142" height="163" viewBox="0 0 142 163" fill="none" xmlns="http://www.w3.org/2000/svg">
<rect width="21.1844" height="8.11035" transform="matrix(1 0 0 -1 0 8.11035)" fill="#FECC73"/>
<rect width="21.1844" height="8.11035" transform="matrix(1 0 0 -1 36 8.11035)" fill="#FECC73"/>
<rect width="21.1844" height="8.11035" transform="matrix(1 0 0 -1 71 8.11035)" fill="#FECC73"/>
<rect width="21.1844" height="8.11035" transform="matrix(-0.00301799 -0.999995 -0.999995 0.00301799 92.249 42.5488)" fill="#FECC73"/>
<rect width="21.1844" height="8.11035" transform="matrix(-0.00301799 -0.999995 -0.999995 0.00301799 92.1748 77.0127)" fill="#FECC73"/>
<rect width="21.1844" height="8.11035" transform="matrix(-0.00301799 -0.999995 -0.999995 0.00301799 92.3125 110.656)" fill="#FECC73"/>
<rect width="21.1844" height="8.11035" transform="matrix(-0.00301799 -0.999995 -0.999995 0.00301799 93.2441 144.301)" fill="#FECC73"/>
<rect width="21.1844" height="8.11035" transform="matrix(1 0 0 -1 85.0693 162.209)" fill="#FECC73"/>
<rect width="21.1844" height="8.11035" transform="matrix(1 0 0 -1 120.674 162.209)" fill="#FECC73"/>
</svg>
