<svg width="399" height="205" viewBox="0 0 399 205" fill="none" xmlns="http://www.w3.org/2000/svg">
<rect width="381.266" height="193.205" rx="39.1559" transform="matrix(-1 0 0 1 381.267 11.6699)" fill="white"/>
<rect width="59.1352" height="97.2509" transform="matrix(-1 0 0 1 381.267 107.624)" fill="white"/>
<rect width="59.1352" height="97.2509" transform="matrix(-1 0 0 1 59.1357 11.6699)" fill="white"/>
<path d="M0.000976562 76.3506H381.267V37.3761C381.267 16.7339 364.533 7.62939e-05 343.891 7.62939e-05H0.000976562V76.3506Z" fill="#FECC73"/>
<path opacity="0.8" d="M27.0634 55.5405C27.0634 50.1645 27.0634 44.7245 27.0634 39.2205C27.0634 33.7165 27.0634 28.2765 27.0634 22.9005C29.0474 22.9005 31.0474 22.9005 33.0634 22.9005C35.0794 22.9005 37.0794 22.9005 39.0634 22.9005C39.9914 26.1645 40.9034 29.4765 41.7994 32.8365C42.7274 36.1645 43.6394 39.4605 44.5354 42.7245C45.4314 39.4605 46.3274 36.1645 47.2234 32.8365C48.1514 29.4765 49.0634 26.1645 49.9594 22.9005C51.9434 22.9005 53.9274 22.9005 55.9114 22.9005C57.8954 22.9005 59.8634 22.9005 61.8154 22.9005C61.8474 28.2765 61.8794 33.7165 61.9114 39.2205C61.9434 44.7245 61.9754 50.1645 62.0074 55.5405C60.6634 55.5405 59.3034 55.5405 57.9274 55.5405C56.5834 55.5405 55.2394 55.5405 53.8954 55.5405C53.8954 51.8925 53.8954 48.2125 53.8954 44.5005C53.8954 40.7565 53.8954 37.0605 53.8954 33.4125C52.9354 37.0605 51.9594 40.7565 50.9674 44.5005C49.9754 48.2125 48.9994 51.8925 48.0394 55.5405C46.8554 55.5405 45.6394 55.5405 44.3914 55.5405C43.1754 55.5405 41.9594 55.5405 40.7434 55.5405C39.7834 51.9565 38.8234 48.3405 37.8634 44.6925C36.9034 41.0125 35.9434 37.3805 34.9834 33.7965C34.9834 37.3805 34.9834 41.0125 34.9834 44.6925C34.9834 48.3405 34.9834 51.9565 34.9834 55.5405C33.7034 55.5405 32.3914 55.5405 31.0474 55.5405C29.7034 55.5405 28.3754 55.5405 27.0634 55.5405ZM90.9705 30.7245C90.9705 34.8205 90.9705 38.9645 90.9705 43.1565C90.9705 47.3165 90.9705 51.4445 90.9705 55.5405C89.6905 55.5405 88.3785 55.5405 87.0345 55.5405C85.6905 55.5405 84.3625 55.5405 83.0505 55.5405C83.0505 55.3165 83.0505 55.1085 83.0505 54.9165C83.0505 54.7245 83.0505 54.5165 83.0505 54.2925C82.1865 54.9005 81.2105 55.3645 80.1225 55.6845C79.0665 56.0365 77.9145 56.2125 76.6665 56.2125C74.8425 56.2125 73.2265 55.7965 71.8185 54.9645C70.4425 54.1325 69.3545 52.9325 68.5545 51.3645C67.7865 49.7965 67.4025 47.9405 67.4025 45.7965C67.4025 43.3005 67.4025 40.7885 67.4025 38.2605C67.4025 35.7325 67.4025 33.2205 67.4025 30.7245C68.7145 30.7245 70.0425 30.7245 71.3865 30.7245C72.7305 30.7245 74.0425 30.7245 75.3225 30.7245C75.3225 33.0285 75.3225 35.3645 75.3225 37.7325C75.3225 40.1005 75.3225 42.4365 75.3225 44.7405C75.3225 46.0205 75.6105 47.0605 76.1865 47.8605C76.7945 48.6285 77.7385 49.0125 79.0185 49.0125C80.2985 49.0125 81.2905 48.6445 81.9945 47.9085C82.6985 47.1725 83.0505 46.1165 83.0505 44.7405C83.0505 42.4365 83.0505 40.1005 83.0505 37.7325C83.0505 35.3645 83.0505 33.0285 83.0505 30.7245C84.3625 30.7245 85.6905 30.7245 87.0345 30.7245C88.3785 30.7245 89.6905 30.7245 90.9705 30.7245ZM115.2 47.8605C115.2 49.8445 114.64 51.4765 113.52 52.7565C112.432 54.0045 110.96 54.9165 109.104 55.4925C107.248 56.0685 105.168 56.3085 102.864 56.2125C100.592 56.1485 98.2716 55.7805 95.9036 55.1085C95.9036 53.8925 95.9036 52.6445 95.9036 51.3645C95.9036 50.0845 95.9036 48.8365 95.9036 47.6205C97.2476 48.2285 98.5916 48.7085 99.9356 49.0605C101.28 49.3805 102.496 49.5725 103.584 49.6365C104.672 49.7005 105.552 49.6205 106.224 49.3965C106.896 49.1405 107.232 48.7245 107.232 48.1485C107.232 47.7005 106.944 47.3485 106.368 47.0925C105.824 46.8365 105.104 46.6125 104.208 46.4205C103.312 46.1965 102.352 45.9405 101.328 45.6525C100.336 45.3325 99.3916 44.9005 98.4956 44.3565C97.5996 43.7805 96.8636 43.0285 96.2876 42.1005C95.7436 41.1405 95.4716 39.9085 95.4716 38.4045C95.4716 36.6125 95.9836 35.0925 97.0076 33.8445C98.0636 32.5645 99.4716 31.6045 101.232 30.9645C102.992 30.2925 104.96 29.9565 107.136 29.9565C109.312 29.9565 111.536 30.3245 113.808 31.0605C113.808 32.2765 113.808 33.5245 113.808 34.8045C113.808 36.0845 113.808 37.3325 113.808 38.5485C112.016 37.6845 110.336 37.1085 108.768 36.8205C107.2 36.5325 105.936 36.5005 104.976 36.7245C104.016 36.9165 103.536 37.3485 103.536 38.0205C103.536 38.4685 103.808 38.8205 104.352 39.0765C104.928 39.3005 105.648 39.5085 106.512 39.7005C107.408 39.8925 108.352 40.1485 109.344 40.4685C110.368 40.7885 111.312 41.2365 112.176 41.8125C113.072 42.3565 113.792 43.1245 114.336 44.1165C114.912 45.0765 115.2 46.3245 115.2 47.8605ZM123.245 27.8925C122.317 27.8925 121.469 27.6685 120.701 27.2205C119.965 26.7725 119.373 26.1805 118.925 25.4445C118.477 24.7085 118.253 23.8925 118.253 22.9965C118.253 22.1005 118.477 21.3005 118.925 20.5965C119.373 19.8605 119.965 19.2685 120.701 18.8205C121.469 18.3725 122.317 18.1485 123.245 18.1485C124.141 18.1485 124.957 18.3725 125.693 18.8205C126.461 19.2685 127.069 19.8605 127.517 20.5965C127.965 21.3005 128.189 22.1005 128.189 22.9965C128.189 23.8925 127.965 24.7085 127.517 25.4445C127.069 26.1805 126.461 26.7725 125.693 27.2205C124.957 27.6685 124.141 27.8925 123.245 27.8925ZM119.261 55.5405C119.261 51.4445 119.261 47.3165 119.261 43.1565C119.261 38.9645 119.261 34.8205 119.261 30.7245C120.573 30.7245 121.901 30.7245 123.245 30.7245C124.589 30.7245 125.901 30.7245 127.181 30.7245C127.181 34.8205 127.181 38.9645 127.181 43.1565C127.181 47.3165 127.181 51.4445 127.181 55.5405C125.901 55.5405 124.589 55.5405 123.245 55.5405C121.901 55.5405 120.573 55.5405 119.261 55.5405ZM131.364 43.1085C131.364 40.6765 131.86 38.5485 132.852 36.7245C133.844 34.8685 135.22 33.3805 136.98 32.2605C138.74 31.1405 140.788 30.4685 143.124 30.2445C145.46 29.9885 147.956 30.2605 150.612 31.0605C150.612 32.2765 150.612 33.5085 150.612 34.7565C150.612 36.0045 150.612 37.2365 150.612 38.4525C148.756 37.5565 146.98 37.1405 145.284 37.2045C143.588 37.2685 142.196 37.7965 141.108 38.7885C140.02 39.7485 139.476 41.1885 139.476 43.1085C139.476 45.0285 140.02 46.4845 141.108 47.4765C142.196 48.4365 143.588 48.9485 145.284 49.0125C146.98 49.0445 148.756 48.6285 150.612 47.7645C150.612 48.9805 150.612 50.2125 150.612 51.4605C150.612 52.7085 150.612 53.9405 150.612 55.1565C147.956 55.9565 145.46 56.2285 143.124 55.9725C140.788 55.7485 138.74 55.0765 136.98 53.9565C135.22 52.8365 133.844 51.3645 132.852 49.5405C131.86 47.6845 131.364 45.5405 131.364 43.1085ZM192.447 53.8125C189.119 55.1565 186.015 55.9245 183.135 56.1165C180.287 56.3405 177.711 56.0845 175.407 55.3485C173.103 54.5805 171.135 53.4285 169.503 51.8925C167.871 50.3565 166.623 48.5325 165.759 46.4205C164.895 44.3085 164.463 42.0045 164.463 39.5085C164.463 37.0445 164.863 34.7725 165.663 32.6925C166.463 30.5805 167.631 28.7565 169.167 27.2205C170.735 25.6845 172.623 24.4845 174.831 23.6205C177.039 22.7565 179.551 22.3405 182.367 22.3725C185.183 22.3725 188.271 22.8845 191.631 23.9085C191.631 25.2525 191.631 26.6125 191.631 27.9885C191.631 29.3325 191.631 30.6765 191.631 32.0205C188.975 30.9645 186.511 30.3565 184.239 30.1965C181.999 30.0365 180.031 30.2765 178.335 30.9165C176.671 31.5565 175.359 32.5805 174.399 33.9885C173.471 35.3645 173.007 37.0925 173.007 39.1725C173.007 40.9965 173.343 42.6125 174.015 44.0205C174.719 45.4285 175.695 46.5325 176.943 47.3325C178.191 48.1325 179.615 48.5325 181.215 48.5325C181.759 48.5325 182.303 48.5165 182.847 48.4845C183.391 48.4205 183.919 48.3245 184.431 48.1965C184.431 47.3645 184.431 46.5165 184.431 45.6525C184.431 44.7885 184.431 43.9405 184.431 43.1085C183.535 43.1085 182.639 43.1085 181.743 43.1085C180.847 43.1085 179.951 43.1085 179.055 43.1085C179.055 41.9245 179.055 40.7405 179.055 39.5565C179.055 38.3405 179.055 37.1405 179.055 35.9565C181.263 35.9565 183.487 35.9565 185.727 35.9565C187.999 35.9565 190.239 35.9565 192.447 35.9565C192.447 38.9005 192.447 41.8765 192.447 44.8845C192.447 47.8925 192.447 50.8685 192.447 53.8125ZM219.412 54.3885C217.204 55.3165 215.012 55.8925 212.836 56.1165C210.66 56.3405 208.596 56.2125 206.644 55.7325C204.724 55.2845 203.012 54.5005 201.508 53.3805C200.004 52.2605 198.82 50.8365 197.956 49.1085C197.124 47.3805 196.708 45.3805 196.708 43.1085C196.708 41.2205 197.012 39.4925 197.62 37.9245C198.26 36.3245 199.156 34.9325 200.308 33.7485C201.46 32.5325 202.82 31.6045 204.388 30.9645C205.956 30.2925 207.668 29.9565 209.524 29.9565C211.188 29.9565 212.692 30.2285 214.036 30.7725C215.38 31.3165 216.548 32.0845 217.54 33.0765C218.532 34.0365 219.332 35.1885 219.94 36.5325C220.548 37.8765 220.932 39.3485 221.092 40.9485C221.252 42.5485 221.156 44.2445 220.804 46.0365C218.18 46.0365 215.54 46.0365 212.884 46.0365C210.228 46.0365 207.588 46.0365 204.964 46.0365C205.572 47.2525 206.58 48.1165 207.988 48.6285C209.428 49.1405 211.124 49.3005 213.076 49.1085C215.06 48.9165 217.172 48.4045 219.412 47.5725C219.412 48.6925 219.412 49.8285 219.412 50.9805C219.412 52.1325 219.412 53.2685 219.412 54.3885ZM209.332 37.0605C208.404 37.0605 207.54 37.3165 206.74 37.8285C205.972 38.3405 205.38 39.1245 204.964 40.1805C206.404 40.1805 207.844 40.1805 209.284 40.1805C210.756 40.1805 212.212 40.1805 213.652 40.1805C213.268 39.0925 212.692 38.3085 211.924 37.8285C211.188 37.3165 210.324 37.0605 209.332 37.0605ZM225.286 55.5405C225.286 51.4445 225.286 47.3165 225.286 43.1565C225.286 38.9645 225.286 34.8205 225.286 30.7245C226.598 30.7245 227.926 30.7245 229.27 30.7245C230.614 30.7245 231.926 30.7245 233.206 30.7245C233.206 30.9485 233.206 31.1565 233.206 31.3485C233.206 31.5405 233.206 31.7485 233.206 31.9725C234.07 31.3645 235.03 30.9005 236.086 30.5805C237.174 30.2285 238.342 30.0525 239.59 30.0525C241.414 30.0525 243.014 30.4685 244.39 31.3005C245.798 32.1325 246.886 33.3325 247.654 34.9005C248.454 36.4365 248.854 38.2925 248.854 40.4685C248.854 42.9645 248.854 45.4765 248.854 48.0045C248.854 50.5325 248.854 53.0445 248.854 55.5405C247.574 55.5405 246.262 55.5405 244.918 55.5405C243.574 55.5405 242.246 55.5405 240.934 55.5405C240.934 53.2365 240.934 50.9005 240.934 48.5325C240.934 46.1645 240.934 43.8285 240.934 41.5245C240.934 40.2445 240.63 39.2205 240.022 38.4525C239.446 37.6525 238.518 37.2525 237.238 37.2525C235.958 37.2525 234.966 37.6205 234.262 38.3565C233.558 39.0925 233.206 40.1485 233.206 41.5245C233.206 43.8285 233.206 46.1645 233.206 48.5325C233.206 50.9005 233.206 53.2365 233.206 55.5405C231.926 55.5405 230.614 55.5405 229.27 55.5405C227.926 55.5405 226.598 55.5405 225.286 55.5405ZM253.74 55.5405C253.74 51.4445 253.74 47.3165 253.74 43.1565C253.74 38.9645 253.74 34.8205 253.74 30.7245C255.052 30.7245 256.38 30.7245 257.724 30.7245C259.068 30.7245 260.38 30.7245 261.66 30.7245C261.66 30.9485 261.66 31.1725 261.66 31.3965C261.66 31.6205 261.66 31.8445 261.66 32.0685C262.652 31.3645 263.772 30.8365 265.02 30.4845C266.268 30.1325 267.628 30.0365 269.1 30.1965C269.1 31.4765 269.1 32.7725 269.1 34.0845C269.1 35.3965 269.1 36.6925 269.1 37.9725C266.572 37.6205 264.7 37.8445 263.484 38.6445C262.268 39.4125 261.66 40.6765 261.66 42.4365C261.66 44.5805 261.66 46.7565 261.66 48.9645C261.66 51.1725 261.66 53.3645 261.66 55.5405C260.38 55.5405 259.068 55.5405 257.724 55.5405C256.38 55.5405 255.052 55.5405 253.74 55.5405ZM293.803 54.3885C291.595 55.3165 289.403 55.8925 287.227 56.1165C285.051 56.3405 282.987 56.2125 281.035 55.7325C279.115 55.2845 277.403 54.5005 275.899 53.3805C274.395 52.2605 273.211 50.8365 272.347 49.1085C271.515 47.3805 271.099 45.3805 271.099 43.1085C271.099 41.2205 271.403 39.4925 272.011 37.9245C272.651 36.3245 273.547 34.9325 274.699 33.7485C275.851 32.5325 277.211 31.6045 278.779 30.9645C280.347 30.2925 282.059 29.9565 283.915 29.9565C285.579 29.9565 287.083 30.2285 288.427 30.7725C289.771 31.3165 290.939 32.0845 291.931 33.0765C292.923 34.0365 293.723 35.1885 294.331 36.5325C294.939 37.8765 295.323 39.3485 295.483 40.9485C295.643 42.5485 295.547 44.2445 295.195 46.0365C292.571 46.0365 289.931 46.0365 287.275 46.0365C284.619 46.0365 281.979 46.0365 279.355 46.0365C279.963 47.2525 280.971 48.1165 282.379 48.6285C283.819 49.1405 285.515 49.3005 287.467 49.1085C289.451 48.9165 291.563 48.4045 293.803 47.5725C293.803 48.6925 293.803 49.8285 293.803 50.9805C293.803 52.1325 293.803 53.2685 293.803 54.3885ZM283.723 37.0605C282.795 37.0605 281.931 37.3165 281.131 37.8285C280.363 38.3405 279.771 39.1245 279.355 40.1805C280.795 40.1805 282.235 40.1805 283.675 40.1805C285.147 40.1805 286.603 40.1805 288.043 40.1805C287.659 39.0925 287.083 38.3085 286.315 37.8285C285.579 37.3165 284.715 37.0605 283.723 37.0605ZM318.637 47.8605C318.637 49.8445 318.077 51.4765 316.957 52.7565C315.869 54.0045 314.397 54.9165 312.541 55.4925C310.685 56.0685 308.605 56.3085 306.301 56.2125C304.029 56.1485 301.709 55.7805 299.341 55.1085C299.341 53.8925 299.341 52.6445 299.341 51.3645C299.341 50.0845 299.341 48.8365 299.341 47.6205C300.685 48.2285 302.029 48.7085 303.373 49.0605C304.717 49.3805 305.933 49.5725 307.021 49.6365C308.109 49.7005 308.989 49.6205 309.661 49.3965C310.333 49.1405 310.669 48.7245 310.669 48.1485C310.669 47.7005 310.381 47.3485 309.805 47.0925C309.261 46.8365 308.541 46.6125 307.645 46.4205C306.749 46.1965 305.789 45.9405 304.765 45.6525C303.773 45.3325 302.829 44.9005 301.933 44.3565C301.037 43.7805 300.301 43.0285 299.725 42.1005C299.181 41.1405 298.909 39.9085 298.909 38.4045C298.909 36.6125 299.421 35.0925 300.445 33.8445C301.501 32.5645 302.909 31.6045 304.669 30.9645C306.429 30.2925 308.397 29.9565 310.573 29.9565C312.749 29.9565 314.973 30.3245 317.245 31.0605C317.245 32.2765 317.245 33.5245 317.245 34.8045C317.245 36.0845 317.245 37.3325 317.245 38.5485C315.453 37.6845 313.773 37.1085 312.205 36.8205C310.637 36.5325 309.373 36.5005 308.413 36.7245C307.453 36.9165 306.973 37.3485 306.973 38.0205C306.973 38.4685 307.245 38.8205 307.789 39.0765C308.365 39.3005 309.085 39.5085 309.949 39.7005C310.845 39.8925 311.789 40.1485 312.781 40.4685C313.805 40.7885 314.749 41.2365 315.613 41.8125C316.509 42.3565 317.229 43.1245 317.773 44.1165C318.349 45.0765 318.637 46.3245 318.637 47.8605Z" fill="white"/>
<path d="M157.876 187.456C157.876 184.768 157.876 182.048 157.876 179.296C157.876 176.544 157.876 173.824 157.876 171.136C158.868 171.136 159.86 171.136 160.852 171.136C161.86 171.136 162.852 171.136 163.828 171.136C165.06 171.136 166.132 171.376 167.044 171.856C167.956 172.32 168.668 172.976 169.18 173.824C169.692 174.672 169.948 175.664 169.948 176.8C169.948 177.92 169.692 178.904 169.18 179.752C168.684 180.6 167.996 181.256 167.116 181.72C166.252 182.184 165.268 182.416 164.164 182.416C163.812 182.416 163.46 182.416 163.108 182.416C162.772 182.416 162.428 182.416 162.076 182.416C162.076 183.248 162.076 184.088 162.076 184.936C162.076 185.784 162.076 186.624 162.076 187.456C161.388 187.456 160.692 187.456 159.988 187.456C159.284 187.456 158.58 187.456 157.876 187.456ZM163.828 174.904C163.54 174.904 163.244 174.904 162.94 174.904C162.652 174.904 162.364 174.904 162.076 174.904C162.076 175.544 162.076 176.192 162.076 176.848C162.076 177.488 162.076 178.128 162.076 178.768C162.396 178.768 162.724 178.768 163.06 178.768C163.412 178.768 163.748 178.768 164.068 178.768C164.564 178.768 164.964 178.584 165.268 178.216C165.588 177.848 165.748 177.392 165.748 176.848C165.748 176.288 165.58 175.824 165.244 175.456C164.908 175.088 164.436 174.904 163.828 174.904ZM177.391 187.84C176.463 187.84 175.599 187.68 174.799 187.36C173.999 187.024 173.303 186.56 172.711 185.968C172.119 185.36 171.655 184.656 171.319 183.856C170.999 183.056 170.839 182.184 170.839 181.24C170.839 180.296 170.999 179.424 171.319 178.624C171.655 177.824 172.119 177.128 172.711 176.536C173.303 175.944 173.999 175.488 174.799 175.168C175.599 174.832 176.463 174.664 177.391 174.664C178.335 174.664 179.199 174.832 179.983 175.168C180.783 175.488 181.479 175.944 182.071 176.536C182.663 177.128 183.119 177.824 183.439 178.624C183.775 179.424 183.943 180.296 183.943 181.24C183.943 182.184 183.775 183.056 183.439 183.856C183.119 184.656 182.663 185.36 182.071 185.968C181.479 186.56 180.783 187.024 179.983 187.36C179.199 187.68 178.335 187.84 177.391 187.84ZM177.391 184.264C178.175 184.264 178.799 183.984 179.263 183.424C179.743 182.848 179.983 182.12 179.983 181.24C179.983 180.344 179.743 179.624 179.263 179.08C178.799 178.52 178.175 178.24 177.391 178.24C176.607 178.24 175.975 178.52 175.495 179.08C175.031 179.624 174.799 180.344 174.799 181.24C174.799 182.12 175.031 182.848 175.495 183.424C175.975 183.984 176.607 184.264 177.391 184.264ZM189.862 191.296C189.222 191.296 188.566 191.296 187.894 191.296C187.222 191.296 186.558 191.296 185.902 191.296C185.902 188.624 185.902 185.92 185.902 183.184C185.902 180.432 185.902 177.72 185.902 175.048C186.558 175.048 187.222 175.048 187.894 175.048C188.566 175.048 189.222 175.048 189.862 175.048C189.862 175.16 189.862 175.272 189.862 175.384C189.862 175.496 189.862 175.616 189.862 175.744C190.262 175.424 190.718 175.176 191.23 175C191.742 174.808 192.286 174.712 192.862 174.712C193.662 174.712 194.422 174.872 195.142 175.192C195.862 175.496 196.494 175.936 197.038 176.512C197.598 177.088 198.03 177.776 198.334 178.576C198.654 179.376 198.814 180.264 198.814 181.24C198.814 182.2 198.654 183.08 198.334 183.88C198.03 184.68 197.598 185.376 197.038 185.968C196.494 186.544 195.862 186.992 195.142 187.312C194.422 187.632 193.654 187.792 192.838 187.792C192.262 187.792 191.718 187.696 191.206 187.504C190.71 187.328 190.262 187.072 189.862 186.736C189.862 187.488 189.862 188.248 189.862 189.016C189.862 189.784 189.862 190.544 189.862 191.296ZM192.31 184.288C193.094 184.288 193.71 184.016 194.158 183.472C194.622 182.912 194.854 182.168 194.854 181.24C194.854 180.312 194.622 179.576 194.158 179.032C193.71 178.488 193.094 178.216 192.31 178.216C191.542 178.216 190.926 178.496 190.462 179.056C189.998 179.6 189.766 180.328 189.766 181.24C189.766 182.152 189.998 182.888 190.462 183.448C190.926 184.008 191.542 184.288 192.31 184.288ZM206.064 187.456C206.064 184.768 206.064 182.048 206.064 179.296C206.064 176.544 206.064 173.824 206.064 171.136C207.056 171.136 208.048 171.136 209.04 171.136C210.048 171.136 211.04 171.136 212.016 171.136C213.12 171.136 214.088 171.336 214.92 171.736C215.752 172.12 216.4 172.664 216.864 173.368C217.328 174.056 217.56 174.872 217.56 175.816C217.56 176.488 217.432 177.096 217.176 177.64C216.92 178.184 216.536 178.64 216.024 179.008C216.696 179.408 217.208 179.928 217.56 180.568C217.912 181.192 218.088 181.888 218.088 182.656C218.088 183.616 217.84 184.456 217.344 185.176C216.864 185.896 216.184 186.456 215.304 186.856C214.44 187.256 213.424 187.456 212.256 187.456C211.232 187.456 210.2 187.456 209.16 187.456C208.12 187.456 207.088 187.456 206.064 187.456ZM213.36 176.224C213.36 175.808 213.232 175.472 212.976 175.216C212.72 174.944 212.384 174.808 211.968 174.808C211.68 174.808 211.384 174.808 211.08 174.808C210.792 174.808 210.504 174.808 210.216 174.808C210.216 175.256 210.216 175.72 210.216 176.2C210.216 176.664 210.216 177.128 210.216 177.592C210.504 177.592 210.792 177.592 211.08 177.592C211.384 177.592 211.68 177.592 211.968 177.592C212.384 177.592 212.72 177.472 212.976 177.232C213.232 176.976 213.36 176.64 213.36 176.224ZM213.888 182.272C213.888 181.824 213.736 181.472 213.432 181.216C213.144 180.944 212.744 180.808 212.232 180.808C211.896 180.808 211.56 180.808 211.224 180.808C210.888 180.808 210.552 180.808 210.216 180.808C210.216 181.304 210.216 181.8 210.216 182.296C210.216 182.792 210.216 183.288 210.216 183.784C210.552 183.784 210.888 183.784 211.224 183.784C211.56 183.784 211.896 183.784 212.232 183.784C212.744 183.784 213.144 183.648 213.432 183.376C213.736 183.104 213.888 182.736 213.888 182.272ZM228.401 187.456C228.401 187.328 228.401 187.208 228.401 187.096C228.401 186.968 228.401 186.848 228.401 186.736C228.001 187.072 227.545 187.328 227.033 187.504C226.537 187.696 226.001 187.792 225.425 187.792C224.609 187.792 223.841 187.64 223.121 187.336C222.401 187.016 221.761 186.568 221.201 185.992C220.657 185.4 220.225 184.704 219.905 183.904C219.601 183.104 219.449 182.216 219.449 181.24C219.449 180.248 219.601 179.352 219.905 178.552C220.225 177.752 220.657 177.072 221.201 176.512C221.761 175.936 222.401 175.496 223.121 175.192C223.841 174.872 224.601 174.712 225.401 174.712C225.977 174.712 226.521 174.808 227.033 175C227.545 175.176 228.001 175.424 228.401 175.744C228.401 175.616 228.401 175.496 228.401 175.384C228.401 175.272 228.401 175.16 228.401 175.048C229.057 175.048 229.721 175.048 230.393 175.048C231.065 175.048 231.721 175.048 232.361 175.048C232.361 177.096 232.361 179.168 232.361 181.264C232.361 183.344 232.361 185.408 232.361 187.456C231.721 187.456 231.065 187.456 230.393 187.456C229.721 187.456 229.057 187.456 228.401 187.456ZM225.953 184.288C226.721 184.288 227.337 184.008 227.801 183.448C228.265 182.888 228.497 182.152 228.497 181.24C228.497 180.328 228.265 179.6 227.801 179.056C227.337 178.496 226.721 178.216 225.953 178.216C225.169 178.216 224.545 178.488 224.081 179.032C223.633 179.576 223.409 180.312 223.409 181.24C223.409 182.168 223.633 182.912 224.081 183.472C224.545 184.016 225.169 184.288 225.953 184.288ZM235.124 187.456C235.124 184.56 235.124 181.64 235.124 178.696C235.124 175.752 235.124 172.832 235.124 169.936C235.78 169.936 236.444 169.936 237.116 169.936C237.788 169.936 238.444 169.936 239.084 169.936C239.084 172.832 239.084 175.752 239.084 178.696C239.084 181.64 239.084 184.56 239.084 187.456C238.444 187.456 237.788 187.456 237.116 187.456C236.444 187.456 235.78 187.456 235.124 187.456ZM241.967 187.456C241.967 184.56 241.967 181.64 241.967 178.696C241.967 175.752 241.967 172.832 241.967 169.936C242.623 169.936 243.287 169.936 243.959 169.936C244.631 169.936 245.287 169.936 245.927 169.936C245.927 172.832 245.927 175.752 245.927 178.696C245.927 181.64 245.927 184.56 245.927 187.456C245.287 187.456 244.631 187.456 243.959 187.456C243.287 187.456 242.623 187.456 241.967 187.456ZM256.971 187.456C256.971 187.328 256.971 187.208 256.971 187.096C256.971 186.968 256.971 186.848 256.971 186.736C256.571 187.072 256.115 187.328 255.603 187.504C255.107 187.696 254.571 187.792 253.995 187.792C253.179 187.792 252.411 187.64 251.691 187.336C250.971 187.016 250.331 186.568 249.771 185.992C249.227 185.4 248.795 184.704 248.475 183.904C248.171 183.104 248.019 182.216 248.019 181.24C248.019 180.248 248.171 179.352 248.475 178.552C248.795 177.752 249.227 177.072 249.771 176.512C250.331 175.936 250.971 175.496 251.691 175.192C252.411 174.872 253.171 174.712 253.971 174.712C254.547 174.712 255.091 174.808 255.603 175C256.115 175.176 256.571 175.424 256.971 175.744C256.971 175.616 256.971 175.496 256.971 175.384C256.971 175.272 256.971 175.16 256.971 175.048C257.627 175.048 258.291 175.048 258.963 175.048C259.635 175.048 260.291 175.048 260.931 175.048C260.931 177.096 260.931 179.168 260.931 181.264C260.931 183.344 260.931 185.408 260.931 187.456C260.291 187.456 259.635 187.456 258.963 187.456C258.291 187.456 257.627 187.456 256.971 187.456ZM254.523 184.288C255.291 184.288 255.907 184.008 256.371 183.448C256.835 182.888 257.067 182.152 257.067 181.24C257.067 180.328 256.835 179.6 256.371 179.056C255.907 178.496 255.291 178.216 254.523 178.216C253.739 178.216 253.115 178.488 252.651 179.032C252.203 179.576 251.979 180.312 251.979 181.24C251.979 182.168 252.203 182.912 252.651 183.472C253.115 184.016 253.739 184.288 254.523 184.288ZM271.854 187.456C271.854 187.328 271.854 187.208 271.854 187.096C271.854 186.968 271.854 186.848 271.854 186.736C271.454 187.072 270.998 187.328 270.486 187.504C269.99 187.696 269.454 187.792 268.878 187.792C268.062 187.792 267.294 187.632 266.574 187.312C265.854 186.992 265.214 186.544 264.654 185.968C264.11 185.376 263.678 184.68 263.358 183.88C263.054 183.08 262.902 182.2 262.902 181.24C262.902 180.264 263.054 179.376 263.358 178.576C263.678 177.776 264.11 177.088 264.654 176.512C265.214 175.936 265.854 175.496 266.574 175.192C267.294 174.872 268.054 174.712 268.854 174.712C269.43 174.712 269.974 174.808 270.486 175C270.998 175.176 271.454 175.424 271.854 175.744C271.854 174.784 271.854 173.816 271.854 172.84C271.854 171.864 271.854 170.896 271.854 169.936C272.51 169.936 273.174 169.936 273.846 169.936C274.518 169.936 275.174 169.936 275.814 169.936C275.814 172.832 275.814 175.752 275.814 178.696C275.814 181.64 275.814 184.56 275.814 187.456C275.174 187.456 274.518 187.456 273.846 187.456C273.174 187.456 272.51 187.456 271.854 187.456ZM269.406 184.288C270.174 184.288 270.79 184.008 271.254 183.448C271.718 182.888 271.95 182.152 271.95 181.24C271.95 180.328 271.718 179.6 271.254 179.056C270.79 178.496 270.174 178.216 269.406 178.216C268.622 178.216 267.998 178.488 267.534 179.032C267.086 179.576 266.862 180.312 266.862 181.24C266.862 182.168 267.086 182.912 267.534 183.472C267.998 184.016 268.622 184.288 269.406 184.288Z" fill="#FECC73"/>
</svg>
