<svg width="490" height="218" viewBox="0 0 490 218" fill="none" xmlns="http://www.w3.org/2000/svg">
<rect y="0.607422" width="490" height="217.107" rx="44" fill="white"/>
<rect y="108.433" width="76" height="109.282" fill="white"/>
<rect x="414" y="0.607422" width="76" height="109.282" fill="white"/>
<path d="M490 101.079H0V41.9999C0 18.804 18.804 -0.000106812 42 -0.000106812H490V101.079Z" fill="#FECC73"/>
<path opacity="0.8" d="M62.576 45.4085C62.576 47.8405 61.936 49.8245 60.656 51.3605C59.408 52.8645 57.712 53.9525 55.568 54.6245C53.456 55.2965 51.088 55.5845 48.464 55.4885C45.84 55.4245 43.168 55.0245 40.448 54.2885C40.448 52.9125 40.448 51.5365 40.448 50.1605C40.448 48.7845 40.448 47.4085 40.448 46.0325C42.944 46.9285 45.216 47.4885 47.264 47.7125C49.312 47.9365 50.944 47.8565 52.16 47.4725C53.376 47.0565 53.984 46.3685 53.984 45.4085C53.984 44.7365 53.648 44.1925 52.976 43.7765C52.304 43.3285 51.424 42.9285 50.336 42.5765C49.28 42.2245 48.16 41.8245 46.976 41.3765C45.792 40.8965 44.656 40.3045 43.568 39.6005C42.512 38.8645 41.648 37.9205 40.976 36.7685C40.304 35.5845 39.968 34.1125 39.968 32.3525C39.968 30.1765 40.544 28.3365 41.696 26.8325C42.848 25.3285 44.4 24.1925 46.352 23.4245C48.336 22.6565 50.576 22.2725 53.072 22.2725C55.6 22.2725 58.208 22.6565 60.896 23.4245C60.896 24.8005 60.896 26.1765 60.896 27.5525C60.896 28.9285 60.896 30.3045 60.896 31.6805C58.656 30.7205 56.592 30.1445 54.704 29.9525C52.848 29.7285 51.36 29.8245 50.24 30.2405C49.12 30.6245 48.56 31.2645 48.56 32.1605C48.56 32.8005 48.896 33.3285 49.568 33.7445C50.24 34.1605 51.104 34.5445 52.16 34.8965C53.248 35.2165 54.384 35.6165 55.568 36.0965C56.752 36.5445 57.872 37.1525 58.928 37.9205C60.016 38.6565 60.896 39.6325 61.568 40.8485C62.24 42.0325 62.576 43.5525 62.576 45.4085ZM78.2281 56.0165C76.3721 56.0165 74.6441 55.6965 73.0441 55.0565C71.4441 54.3845 70.0521 53.4565 68.8681 52.2725C67.6841 51.0565 66.7561 49.6485 66.0841 48.0485C65.4441 46.4485 65.1241 44.7045 65.1241 42.8165C65.1241 40.9285 65.4441 39.1845 66.0841 37.5845C66.7561 35.9845 67.6841 34.5925 68.8681 33.4085C70.0521 32.2245 71.4441 31.3125 73.0441 30.6725C74.6441 30.0005 76.3721 29.6645 78.2281 29.6645C80.1161 29.6645 81.8441 30.0005 83.4121 30.6725C85.0121 31.3125 86.4041 32.2245 87.5881 33.4085C88.7721 34.5925 89.6841 35.9845 90.3241 37.5845C90.9961 39.1845 91.3321 40.9285 91.3321 42.8165C91.3321 44.7045 90.9961 46.4485 90.3241 48.0485C89.6841 49.6485 88.7721 51.0565 87.5881 52.2725C86.4041 53.4565 85.0121 54.3845 83.4121 55.0565C81.8441 55.6965 80.1161 56.0165 78.2281 56.0165ZM78.2281 48.8645C79.7961 48.8645 81.0441 48.3045 81.9721 47.1845C82.9321 46.0325 83.4121 44.5765 83.4121 42.8165C83.4121 41.0245 82.9321 39.5845 81.9721 38.4965C81.0441 37.3765 79.7961 36.8165 78.2281 36.8165C76.6601 36.8165 75.3961 37.3765 74.4361 38.4965C73.5081 39.5845 73.0441 41.0245 73.0441 42.8165C73.0441 44.5765 73.5081 46.0325 74.4361 47.1845C75.3961 48.3045 76.6601 48.8645 78.2281 48.8645ZM93.9054 42.8165C93.9054 40.3845 94.4014 38.2565 95.3934 36.4325C96.3854 34.5765 97.7614 33.0885 99.5214 31.9685C101.281 30.8485 103.329 30.1765 105.665 29.9525C108.001 29.6965 110.497 29.9685 113.153 30.7685C113.153 31.9845 113.153 33.2165 113.153 34.4645C113.153 35.7125 113.153 36.9445 113.153 38.1605C111.297 37.2645 109.521 36.8485 107.825 36.9125C106.129 36.9765 104.737 37.5045 103.649 38.4965C102.561 39.4565 102.017 40.8965 102.017 42.8165C102.017 44.7365 102.561 46.1925 103.649 47.1845C104.737 48.1445 106.129 48.6565 107.825 48.7205C109.521 48.7525 111.297 48.3365 113.153 47.4725C113.153 48.6885 113.153 49.9205 113.153 51.1685C113.153 52.4165 113.153 53.6485 113.153 54.8645C110.497 55.6645 108.001 55.9365 105.665 55.6805C103.329 55.4565 101.281 54.7845 99.5214 53.6645C97.7614 52.5445 96.3854 51.0725 95.3934 49.2485C94.4014 47.3925 93.9054 45.2485 93.9054 42.8165ZM122.302 27.6005C121.374 27.6005 120.526 27.3765 119.758 26.9285C119.022 26.4805 118.43 25.8885 117.982 25.1525C117.534 24.4165 117.31 23.6005 117.31 22.7045C117.31 21.8085 117.534 21.0085 117.982 20.3045C118.43 19.5685 119.022 18.9765 119.758 18.5285C120.526 18.0805 121.374 17.8565 122.302 17.8565C123.198 17.8565 124.014 18.0805 124.75 18.5285C125.518 18.9765 126.126 19.5685 126.574 20.3045C127.022 21.0085 127.246 21.8085 127.246 22.7045C127.246 23.6005 127.022 24.4165 126.574 25.1525C126.126 25.8885 125.518 26.4805 124.75 26.9285C124.014 27.3765 123.198 27.6005 122.302 27.6005ZM118.318 55.2485C118.318 51.1525 118.318 47.0245 118.318 42.8645C118.318 38.6725 118.318 34.5285 118.318 30.4325C119.63 30.4325 120.958 30.4325 122.302 30.4325C123.646 30.4325 124.958 30.4325 126.238 30.4325C126.238 34.5285 126.238 38.6725 126.238 42.8645C126.238 47.0245 126.238 51.1525 126.238 55.2485C124.958 55.2485 123.646 55.2485 122.302 55.2485C120.958 55.2485 119.63 55.2485 118.318 55.2485ZM148.325 55.2485C148.325 54.9925 148.325 54.7525 148.325 54.5285C148.325 54.2725 148.325 54.0325 148.325 53.8085C147.525 54.4805 146.613 54.9925 145.589 55.3445C144.597 55.7285 143.525 55.9205 142.373 55.9205C140.741 55.9205 139.205 55.6165 137.765 55.0085C136.325 54.3685 135.045 53.4725 133.925 52.3205C132.837 51.1365 131.973 49.7445 131.333 48.1445C130.725 46.5445 130.421 44.7685 130.421 42.8165C130.421 40.8325 130.725 39.0405 131.333 37.4405C131.973 35.8405 132.837 34.4805 133.925 33.3605C135.045 32.2085 136.325 31.3285 137.765 30.7205C139.205 30.0805 140.725 29.7605 142.325 29.7605C143.477 29.7605 144.565 29.9525 145.589 30.3365C146.613 30.6885 147.525 31.1845 148.325 31.8245C148.325 31.5685 148.325 31.3285 148.325 31.1045C148.325 30.8805 148.325 30.6565 148.325 30.4325C149.637 30.4325 150.965 30.4325 152.309 30.4325C153.653 30.4325 154.965 30.4325 156.245 30.4325C156.245 34.5285 156.245 38.6725 156.245 42.8645C156.245 47.0245 156.245 51.1525 156.245 55.2485C154.965 55.2485 153.653 55.2485 152.309 55.2485C150.965 55.2485 149.637 55.2485 148.325 55.2485ZM143.429 48.9125C144.965 48.9125 146.197 48.3525 147.125 47.2325C148.053 46.1125 148.517 44.6405 148.517 42.8165C148.517 40.9925 148.053 39.5365 147.125 38.4485C146.197 37.3285 144.965 36.7685 143.429 36.7685C141.861 36.7685 140.613 37.3125 139.685 38.4005C138.789 39.4885 138.341 40.9605 138.341 42.8165C138.341 44.6725 138.789 46.1605 139.685 47.2805C140.613 48.3685 141.861 48.9125 143.429 48.9125ZM161.771 55.2485C161.771 49.4565 161.771 43.6165 161.771 37.7285C161.771 31.8405 161.771 26.0005 161.771 20.2085C163.083 20.2085 164.411 20.2085 165.755 20.2085C167.099 20.2085 168.411 20.2085 169.691 20.2085C169.691 26.0005 169.691 31.8405 169.691 37.7285C169.691 43.6165 169.691 49.4565 169.691 55.2485C168.411 55.2485 167.099 55.2485 165.755 55.2485C164.411 55.2485 163.083 55.2485 161.771 55.2485ZM207.232 45.4085C207.232 47.8405 206.592 49.8245 205.312 51.3605C204.064 52.8645 202.368 53.9525 200.224 54.6245C198.112 55.2965 195.744 55.5845 193.12 55.4885C190.496 55.4245 187.824 55.0245 185.104 54.2885C185.104 52.9125 185.104 51.5365 185.104 50.1605C185.104 48.7845 185.104 47.4085 185.104 46.0325C187.6 46.9285 189.872 47.4885 191.92 47.7125C193.968 47.9365 195.6 47.8565 196.816 47.4725C198.032 47.0565 198.64 46.3685 198.64 45.4085C198.64 44.7365 198.304 44.1925 197.632 43.7765C196.96 43.3285 196.08 42.9285 194.992 42.5765C193.936 42.2245 192.816 41.8245 191.632 41.3765C190.448 40.8965 189.312 40.3045 188.224 39.6005C187.168 38.8645 186.304 37.9205 185.632 36.7685C184.96 35.5845 184.624 34.1125 184.624 32.3525C184.624 30.1765 185.2 28.3365 186.352 26.8325C187.504 25.3285 189.056 24.1925 191.008 23.4245C192.992 22.6565 195.232 22.2725 197.728 22.2725C200.256 22.2725 202.864 22.6565 205.552 23.4245C205.552 24.8005 205.552 26.1765 205.552 27.5525C205.552 28.9285 205.552 30.3045 205.552 31.6805C203.312 30.7205 201.248 30.1445 199.36 29.9525C197.504 29.7285 196.016 29.8245 194.896 30.2405C193.776 30.6245 193.216 31.2645 193.216 32.1605C193.216 32.8005 193.552 33.3285 194.224 33.7445C194.896 34.1605 195.76 34.5445 196.816 34.8965C197.904 35.2165 199.04 35.6165 200.224 36.0965C201.408 36.5445 202.528 37.1525 203.584 37.9205C204.672 38.6565 205.552 39.6325 206.224 40.8485C206.896 42.0325 207.232 43.5525 207.232 45.4085ZM213.248 55.2485C213.248 52.3045 213.248 49.3445 213.248 46.3685C213.248 43.3925 213.248 40.4485 213.248 37.5365C212.608 37.5365 211.952 37.5365 211.28 37.5365C210.64 37.5365 210 37.5365 209.36 37.5365C209.36 36.3525 209.36 35.1685 209.36 33.9845C209.36 32.8005 209.36 31.6165 209.36 30.4325C210 30.4325 210.64 30.4325 211.28 30.4325C211.952 30.4325 212.608 30.4325 213.248 30.4325C213.248 29.3125 213.248 28.2085 213.248 27.1205C213.248 26.0005 213.248 24.8965 213.248 23.8085C214.56 23.8085 215.888 23.8085 217.232 23.8085C218.576 23.8085 219.888 23.8085 221.168 23.8085C221.168 24.8965 221.168 26.0005 221.168 27.1205C221.168 28.2085 221.168 29.3125 221.168 30.4325C221.904 30.4325 222.656 30.4325 223.424 30.4325C224.192 30.4325 224.944 30.4325 225.68 30.4325C225.68 31.6165 225.68 32.8005 225.68 33.9845C225.68 35.1685 225.68 36.3525 225.68 37.5365C224.944 37.5365 224.192 37.5365 223.424 37.5365C222.656 37.5365 221.904 37.5365 221.168 37.5365C221.168 40.4485 221.168 43.3925 221.168 46.3685C221.168 49.3445 221.168 52.3045 221.168 55.2485C219.888 55.2485 218.576 55.2485 217.232 55.2485C215.888 55.2485 214.56 55.2485 213.248 55.2485ZM245.825 55.2485C245.825 54.9925 245.825 54.7525 245.825 54.5285C245.825 54.2725 245.825 54.0325 245.825 53.8085C245.025 54.4805 244.113 54.9925 243.089 55.3445C242.097 55.7285 241.025 55.9205 239.873 55.9205C238.241 55.9205 236.705 55.6165 235.265 55.0085C233.825 54.3685 232.545 53.4725 231.425 52.3205C230.337 51.1365 229.473 49.7445 228.833 48.1445C228.225 46.5445 227.921 44.7685 227.921 42.8165C227.921 40.8325 228.225 39.0405 228.833 37.4405C229.473 35.8405 230.337 34.4805 231.425 33.3605C232.545 32.2085 233.825 31.3285 235.265 30.7205C236.705 30.0805 238.225 29.7605 239.825 29.7605C240.977 29.7605 242.065 29.9525 243.089 30.3365C244.113 30.6885 245.025 31.1845 245.825 31.8245C245.825 31.5685 245.825 31.3285 245.825 31.1045C245.825 30.8805 245.825 30.6565 245.825 30.4325C247.137 30.4325 248.465 30.4325 249.809 30.4325C251.153 30.4325 252.465 30.4325 253.745 30.4325C253.745 34.5285 253.745 38.6725 253.745 42.8645C253.745 47.0245 253.745 51.1525 253.745 55.2485C252.465 55.2485 251.153 55.2485 249.809 55.2485C248.465 55.2485 247.137 55.2485 245.825 55.2485ZM240.929 48.9125C242.465 48.9125 243.697 48.3525 244.625 47.2325C245.553 46.1125 246.017 44.6405 246.017 42.8165C246.017 40.9925 245.553 39.5365 244.625 38.4485C243.697 37.3285 242.465 36.7685 240.929 36.7685C239.361 36.7685 238.113 37.3125 237.185 38.4005C236.289 39.4885 235.841 40.9605 235.841 42.8165C235.841 44.6725 236.289 46.1605 237.185 47.2805C238.113 48.3685 239.361 48.9125 240.929 48.9125ZM261.623 55.2485C261.623 52.3045 261.623 49.3445 261.623 46.3685C261.623 43.3925 261.623 40.4485 261.623 37.5365C260.983 37.5365 260.327 37.5365 259.655 37.5365C259.015 37.5365 258.375 37.5365 257.735 37.5365C257.735 36.3525 257.735 35.1685 257.735 33.9845C257.735 32.8005 257.735 31.6165 257.735 30.4325C258.375 30.4325 259.015 30.4325 259.655 30.4325C260.327 30.4325 260.983 30.4325 261.623 30.4325C261.623 29.3125 261.623 28.2085 261.623 27.1205C261.623 26.0005 261.623 24.8965 261.623 23.8085C262.935 23.8085 264.263 23.8085 265.607 23.8085C266.951 23.8085 268.263 23.8085 269.543 23.8085C269.543 24.8965 269.543 26.0005 269.543 27.1205C269.543 28.2085 269.543 29.3125 269.543 30.4325C270.279 30.4325 271.031 30.4325 271.799 30.4325C272.567 30.4325 273.319 30.4325 274.055 30.4325C274.055 31.6165 274.055 32.8005 274.055 33.9845C274.055 35.1685 274.055 36.3525 274.055 37.5365C273.319 37.5365 272.567 37.5365 271.799 37.5365C271.031 37.5365 270.279 37.5365 269.543 37.5365C269.543 40.4485 269.543 43.3925 269.543 46.3685C269.543 49.3445 269.543 52.3045 269.543 55.2485C268.263 55.2485 266.951 55.2485 265.607 55.2485C264.263 55.2485 262.935 55.2485 261.623 55.2485ZM301.058 30.4325C301.058 34.5285 301.058 38.6725 301.058 42.8645C301.058 47.0245 301.058 51.1525 301.058 55.2485C299.778 55.2485 298.466 55.2485 297.122 55.2485C295.778 55.2485 294.45 55.2485 293.138 55.2485C293.138 55.0245 293.138 54.8165 293.138 54.6245C293.138 54.4325 293.138 54.2245 293.138 54.0005C292.274 54.6085 291.298 55.0725 290.21 55.3925C289.154 55.7445 288.002 55.9205 286.754 55.9205C284.93 55.9205 283.314 55.5045 281.906 54.6725C280.53 53.8405 279.442 52.6405 278.642 51.0725C277.874 49.5045 277.49 47.6485 277.49 45.5045C277.49 43.0085 277.49 40.4965 277.49 37.9685C277.49 35.4405 277.49 32.9285 277.49 30.4325C278.802 30.4325 280.13 30.4325 281.474 30.4325C282.818 30.4325 284.13 30.4325 285.41 30.4325C285.41 32.7365 285.41 35.0725 285.41 37.4405C285.41 39.8085 285.41 42.1445 285.41 44.4485C285.41 45.7285 285.698 46.7685 286.274 47.5685C286.882 48.3365 287.826 48.7205 289.106 48.7205C290.386 48.7205 291.378 48.3525 292.082 47.6165C292.786 46.8805 293.138 45.8245 293.138 44.4485C293.138 42.1445 293.138 39.8085 293.138 37.4405C293.138 35.0725 293.138 32.7365 293.138 30.4325C294.45 30.4325 295.778 30.4325 297.122 30.4325C298.466 30.4325 299.778 30.4325 301.058 30.4325ZM325.288 47.5685C325.288 49.5525 324.728 51.1845 323.608 52.4645C322.52 53.7125 321.048 54.6245 319.192 55.2005C317.336 55.7765 315.256 56.0165 312.952 55.9205C310.68 55.8565 308.36 55.4885 305.992 54.8165C305.992 53.6005 305.992 52.3525 305.992 51.0725C305.992 49.7925 305.992 48.5445 305.992 47.3285C307.336 47.9365 308.68 48.4165 310.023 48.7685C311.368 49.0885 312.584 49.2805 313.672 49.3445C314.76 49.4085 315.64 49.3285 316.312 49.1045C316.984 48.8485 317.32 48.4325 317.32 47.8565C317.32 47.4085 317.032 47.0565 316.456 46.8005C315.912 46.5445 315.192 46.3205 314.296 46.1285C313.4 45.9045 312.44 45.6485 311.416 45.3605C310.424 45.0405 309.48 44.6085 308.584 44.0645C307.688 43.4885 306.952 42.7365 306.376 41.8085C305.832 40.8485 305.56 39.6165 305.56 38.1125C305.56 36.3205 306.072 34.8005 307.096 33.5525C308.152 32.2725 309.56 31.3125 311.32 30.6725C313.08 30.0005 315.048 29.6645 317.224 29.6645C319.4 29.6645 321.624 30.0325 323.896 30.7685C323.896 31.9845 323.896 33.2325 323.896 34.5125C323.896 35.7925 323.896 37.0405 323.896 38.2565C322.104 37.3925 320.424 36.8165 318.856 36.5285C317.288 36.2405 316.024 36.2085 315.064 36.4325C314.104 36.6245 313.624 37.0565 313.624 37.7285C313.624 38.1765 313.896 38.5285 314.44 38.7845C315.016 39.0085 315.736 39.2165 316.6 39.4085C317.496 39.6005 318.44 39.8565 319.432 40.1765C320.456 40.4965 321.4 40.9445 322.264 41.5205C323.16 42.0645 323.88 42.8325 324.424 43.8245C325 44.7845 325.288 46.0325 325.288 47.5685Z" fill="white"/>
<path d="M40.4116 83.9517C40.4116 81.2637 40.4116 78.5437 40.4116 75.7917C40.4116 73.0397 40.4116 70.3197 40.4116 67.6317C41.1156 67.6317 41.8196 67.6317 42.5236 67.6317C43.2436 67.6317 43.9476 67.6317 44.6356 67.6317C45.4836 69.1517 46.3396 70.6877 47.2036 72.2397C48.0836 73.7917 48.9476 75.3277 49.7956 76.8477C49.7956 75.3277 49.7956 73.7917 49.7956 72.2397C49.7956 70.6877 49.7956 69.1517 49.7956 67.6317C50.4836 67.6317 51.1716 67.6317 51.8596 67.6317C52.5476 67.6317 53.2356 67.6317 53.9236 67.6317C53.9236 70.3197 53.9236 73.0397 53.9236 75.7917C53.9236 78.5437 53.9236 81.2637 53.9236 83.9517C53.2356 83.9517 52.5316 83.9517 51.8116 83.9517C51.1076 83.9517 50.4036 83.9517 49.6996 83.9517C48.8516 82.4317 47.9876 80.8957 47.1076 79.3437C46.2436 77.7917 45.3876 76.2557 44.5396 74.7357C44.5396 76.2557 44.5396 77.7917 44.5396 79.3437C44.5396 80.8957 44.5396 82.4317 44.5396 83.9517C43.8516 83.9517 43.1636 83.9517 42.4756 83.9517C41.7876 83.9517 41.0996 83.9517 40.4116 83.9517ZM68.4042 71.5437C68.4042 73.5917 68.4042 75.6637 68.4042 77.7597C68.4042 79.8397 68.4042 81.9037 68.4042 83.9517C67.7642 83.9517 67.1082 83.9517 66.4362 83.9517C65.7642 83.9517 65.1002 83.9517 64.4442 83.9517C64.4442 83.8397 64.4442 83.7357 64.4442 83.6397C64.4442 83.5437 64.4442 83.4397 64.4442 83.3277C64.0122 83.6317 63.5242 83.8637 62.9802 84.0237C62.4522 84.1997 61.8762 84.2877 61.2522 84.2877C60.3402 84.2877 59.5322 84.0797 58.8282 83.6637C58.1402 83.2477 57.5962 82.6477 57.1962 81.8637C56.8122 81.0797 56.6202 80.1517 56.6202 79.0797C56.6202 77.8317 56.6202 76.5757 56.6202 75.3117C56.6202 74.0477 56.6202 72.7917 56.6202 71.5437C57.2762 71.5437 57.9402 71.5437 58.6122 71.5437C59.2842 71.5437 59.9402 71.5437 60.5802 71.5437C60.5802 72.6957 60.5802 73.8637 60.5802 75.0477C60.5802 76.2317 60.5802 77.3997 60.5802 78.5517C60.5802 79.1917 60.7242 79.7117 61.0122 80.1117C61.3162 80.4957 61.7882 80.6877 62.4282 80.6877C63.0682 80.6877 63.5642 80.5037 63.9162 80.1357C64.2682 79.7677 64.4442 79.2397 64.4442 78.5517C64.4442 77.3997 64.4442 76.2317 64.4442 75.0477C64.4442 73.8637 64.4442 72.6957 64.4442 71.5437C65.1002 71.5437 65.7642 71.5437 66.4362 71.5437C67.1082 71.5437 67.7642 71.5437 68.4042 71.5437ZM71.0388 83.9517C71.0388 81.9037 71.0388 79.8397 71.0388 77.7597C71.0388 75.6637 71.0388 73.5917 71.0388 71.5437C71.6948 71.5437 72.3588 71.5437 73.0308 71.5437C73.7028 71.5437 74.3588 71.5437 74.9988 71.5437C74.9988 71.6557 74.9988 71.7597 74.9988 71.8557C74.9988 71.9517 74.9988 72.0557 74.9988 72.1677C75.4148 71.8637 75.8788 71.6317 76.3908 71.4717C76.9028 71.2957 77.4308 71.2077 77.9748 71.2077C78.5668 71.2077 79.1108 71.3117 79.6068 71.5197C80.1028 71.7117 80.5268 71.9997 80.8788 72.3837C81.3908 72.0157 81.9668 71.7277 82.6068 71.5197C83.2628 71.3117 83.9348 71.2077 84.6228 71.2077C85.5988 71.2077 86.4388 71.4077 87.1428 71.8077C87.8628 72.2077 88.4148 72.7757 88.7988 73.5117C89.1988 74.2477 89.3988 75.1357 89.3988 76.1757C89.3988 77.4557 89.3988 78.7517 89.3988 80.0637C89.3988 81.3757 89.3988 82.6717 89.3988 83.9517C88.7588 83.9517 88.1028 83.9517 87.4308 83.9517C86.7588 83.9517 86.0948 83.9517 85.4388 83.9517C85.4388 82.7517 85.4388 81.5357 85.4388 80.3037C85.4388 79.0717 85.4388 77.8557 85.4388 76.6557C85.4388 76.1117 85.3108 75.6717 85.0548 75.3357C84.8148 74.9837 84.4228 74.8077 83.8788 74.8077C83.3508 74.8077 82.9348 74.9757 82.6308 75.3117C82.3428 75.6317 82.1988 76.0797 82.1988 76.6557C82.1988 77.8557 82.1988 79.0717 82.1988 80.3037C82.1988 81.5357 82.1988 82.7517 82.1988 83.9517C81.5588 83.9517 80.9028 83.9517 80.2308 83.9517C79.5588 83.9517 78.8948 83.9517 78.2388 83.9517C78.2388 82.7517 78.2388 81.5357 78.2388 80.3037C78.2388 79.0717 78.2388 77.8557 78.2388 76.6557C78.2388 76.1117 78.1108 75.6717 77.8548 75.3357C77.6148 74.9837 77.2228 74.8077 76.6788 74.8077C76.1508 74.8077 75.7348 74.9757 75.4308 75.3117C75.1428 75.6317 74.9988 76.0797 74.9988 76.6557C74.9988 77.8557 74.9988 79.0717 74.9988 80.3037C74.9988 81.5357 74.9988 82.7517 74.9988 83.9517C74.3588 83.9517 73.7028 83.9517 73.0308 83.9517C72.3588 83.9517 71.6948 83.9517 71.0388 83.9517ZM95.8141 83.9517C95.1741 83.9517 94.5181 83.9517 93.8461 83.9517C93.1741 83.9517 92.5101 83.9517 91.8541 83.9517C91.8541 81.0557 91.8541 78.1357 91.8541 75.1917C91.8541 72.2477 91.8541 69.3277 91.8541 66.4317C92.5101 66.4317 93.1741 66.4317 93.8461 66.4317C94.5181 66.4317 95.1741 66.4317 95.8141 66.4317C95.8141 67.3917 95.8141 68.3597 95.8141 69.3357C95.8141 70.3117 95.8141 71.2797 95.8141 72.2397C96.2141 71.9197 96.6701 71.6717 97.1821 71.4957C97.6941 71.3037 98.2381 71.2077 98.8141 71.2077C99.6141 71.2077 100.374 71.3677 101.094 71.6877C101.814 71.9917 102.446 72.4317 102.99 73.0077C103.55 73.5837 103.982 74.2717 104.286 75.0717C104.606 75.8717 104.766 76.7597 104.766 77.7357C104.766 78.6957 104.606 79.5757 104.286 80.3757C103.982 81.1757 103.55 81.8717 102.99 82.4637C102.446 83.0397 101.814 83.4877 101.094 83.8077C100.374 84.1277 99.6061 84.2877 98.7901 84.2877C98.2141 84.2877 97.6701 84.1917 97.1581 83.9997C96.6621 83.8237 96.2141 83.5677 95.8141 83.2317C95.8141 83.3437 95.8141 83.4637 95.8141 83.5917C95.8141 83.7037 95.8141 83.8237 95.8141 83.9517ZM98.2621 80.7837C99.0461 80.7837 99.6621 80.5117 100.11 79.9677C100.574 79.4077 100.806 78.6637 100.806 77.7357C100.806 76.8077 100.574 76.0717 100.11 75.5277C99.6621 74.9837 99.0461 74.7117 98.2621 74.7117C97.4941 74.7117 96.8781 74.9917 96.4141 75.5517C95.9501 76.0957 95.7181 76.8237 95.7181 77.7357C95.7181 78.6477 95.9501 79.3837 96.4141 79.9437C96.8781 80.5037 97.4941 80.7837 98.2621 80.7837ZM117.414 83.3757C116.31 83.8397 115.214 84.1277 114.126 84.2397C113.038 84.3517 112.006 84.2877 111.03 84.0477C110.07 83.8237 109.214 83.4317 108.462 82.8717C107.71 82.3117 107.118 81.5997 106.686 80.7357C106.27 79.8717 106.062 78.8717 106.062 77.7357C106.062 76.7917 106.214 75.9277 106.518 75.1437C106.838 74.3437 107.286 73.6477 107.862 73.0557C108.438 72.4477 109.118 71.9837 109.902 71.6637C110.686 71.3277 111.542 71.1597 112.47 71.1597C113.302 71.1597 114.054 71.2957 114.726 71.5677C115.398 71.8397 115.982 72.2237 116.478 72.7197C116.974 73.1997 117.374 73.7757 117.678 74.4477C117.982 75.1197 118.174 75.8557 118.254 76.6557C118.334 77.4557 118.286 78.3037 118.11 79.1997C116.798 79.1997 115.478 79.1997 114.15 79.1997C112.822 79.1997 111.502 79.1997 110.19 79.1997C110.494 79.8077 110.998 80.2397 111.702 80.4957C112.422 80.7517 113.27 80.8317 114.246 80.7357C115.238 80.6397 116.294 80.3837 117.414 79.9677C117.414 80.5277 117.414 81.0957 117.414 81.6717C117.414 82.2477 117.414 82.8157 117.414 83.3757ZM112.374 74.7117C111.91 74.7117 111.478 74.8397 111.078 75.0957C110.694 75.3517 110.398 75.7437 110.19 76.2717C110.91 76.2717 111.63 76.2717 112.35 76.2717C113.086 76.2717 113.814 76.2717 114.534 76.2717C114.342 75.7277 114.054 75.3357 113.67 75.0957C113.302 74.8397 112.87 74.7117 112.374 74.7117ZM120.351 83.9517C120.351 81.9037 120.351 79.8397 120.351 77.7597C120.351 75.6637 120.351 73.5917 120.351 71.5437C121.007 71.5437 121.671 71.5437 122.343 71.5437C123.015 71.5437 123.671 71.5437 124.311 71.5437C124.311 71.6557 124.311 71.7677 124.311 71.8797C124.311 71.9917 124.311 72.1037 124.311 72.2157C124.807 71.8637 125.367 71.5997 125.991 71.4237C126.615 71.2477 127.295 71.1997 128.031 71.2797C128.031 71.9197 128.031 72.5677 128.031 73.2237C128.031 73.8797 128.031 74.5277 128.031 75.1677C126.767 74.9917 125.831 75.1037 125.223 75.5037C124.615 75.8877 124.311 76.5197 124.311 77.3997C124.311 78.4717 124.311 79.5597 124.311 80.6637C124.311 81.7677 124.311 82.8637 124.311 83.9517C123.671 83.9517 123.015 83.9517 122.343 83.9517C121.671 83.9517 121.007 83.9517 120.351 83.9517ZM140.739 84.3357C139.811 84.3357 138.947 84.1757 138.147 83.8557C137.347 83.5197 136.651 83.0557 136.059 82.4637C135.467 81.8557 135.003 81.1517 134.667 80.3517C134.347 79.5517 134.187 78.6797 134.187 77.7357C134.187 76.7917 134.347 75.9197 134.667 75.1197C135.003 74.3197 135.467 73.6237 136.059 73.0317C136.651 72.4397 137.347 71.9837 138.147 71.6637C138.947 71.3277 139.811 71.1597 140.739 71.1597C141.683 71.1597 142.547 71.3277 143.331 71.6637C144.131 71.9837 144.827 72.4397 145.419 73.0317C146.011 73.6237 146.467 74.3197 146.787 75.1197C147.123 75.9197 147.291 76.7917 147.291 77.7357C147.291 78.6797 147.123 79.5517 146.787 80.3517C146.467 81.1517 146.011 81.8557 145.419 82.4637C144.827 83.0557 144.131 83.5197 143.331 83.8557C142.547 84.1757 141.683 84.3357 140.739 84.3357ZM140.739 80.7597C141.523 80.7597 142.147 80.4797 142.611 79.9197C143.091 79.3437 143.331 78.6157 143.331 77.7357C143.331 76.8397 143.091 76.1197 142.611 75.5757C142.147 75.0157 141.523 74.7357 140.739 74.7357C139.955 74.7357 139.323 75.0157 138.843 75.5757C138.379 76.1197 138.147 76.8397 138.147 77.7357C138.147 78.6157 138.379 79.3437 138.843 79.9197C139.323 80.4797 139.955 80.7597 140.739 80.7597ZM148.485 75.0957C148.485 74.5037 148.485 73.9117 148.485 73.3197C148.485 72.7277 148.485 72.1357 148.485 71.5437C148.805 71.5437 149.125 71.5437 149.445 71.5437C149.781 71.5437 150.109 71.5437 150.429 71.5437C150.429 71.4637 150.429 71.3917 150.429 71.3277C150.429 71.2637 150.429 71.1997 150.429 71.1357C150.429 70.0637 150.645 69.1677 151.077 68.4477C151.525 67.7117 152.109 67.1517 152.829 66.7677C153.565 66.3677 154.365 66.1437 155.229 66.0957C156.109 66.0317 156.981 66.1437 157.845 66.4317C157.845 67.0237 157.845 67.6317 157.845 68.2557C157.845 68.8797 157.845 69.4957 157.845 70.1037C156.885 69.7837 156.069 69.7197 155.397 69.9117C154.725 70.1037 154.389 70.5197 154.389 71.1597C154.389 71.2237 154.389 71.2877 154.389 71.3517C154.389 71.4157 154.389 71.4797 154.389 71.5437C154.885 71.5437 155.381 71.5437 155.877 71.5437C156.373 71.5437 156.869 71.5437 157.365 71.5437C157.365 72.1357 157.365 72.7277 157.365 73.3197C157.365 73.9117 157.365 74.5037 157.365 75.0957C156.869 75.0957 156.373 75.0957 155.877 75.0957C155.381 75.0957 154.885 75.0957 154.389 75.0957C154.389 76.5517 154.389 78.0237 154.389 79.5117C154.389 80.9997 154.389 82.4797 154.389 83.9517C153.749 83.9517 153.093 83.9517 152.421 83.9517C151.749 83.9517 151.085 83.9517 150.429 83.9517C150.429 82.4797 150.429 80.9997 150.429 79.5117C150.429 78.0237 150.429 76.5517 150.429 75.0957C150.109 75.0957 149.781 75.0957 149.445 75.0957C149.125 75.0957 148.805 75.0957 148.485 75.0957ZM163.789 75.0957C163.789 74.5037 163.789 73.9117 163.789 73.3197C163.789 72.7277 163.789 72.1357 163.789 71.5437C164.109 71.5437 164.429 71.5437 164.749 71.5437C165.085 71.5437 165.413 71.5437 165.733 71.5437C165.733 71.4637 165.733 71.3917 165.733 71.3277C165.733 71.2637 165.733 71.1997 165.733 71.1357C165.733 70.0637 165.949 69.1677 166.381 68.4477C166.829 67.7117 167.413 67.1517 168.133 66.7677C168.869 66.3677 169.669 66.1437 170.533 66.0957C171.413 66.0317 172.285 66.1437 173.149 66.4317C173.149 67.0237 173.149 67.6317 173.149 68.2557C173.149 68.8797 173.149 69.4957 173.149 70.1037C172.189 69.7837 171.373 69.7197 170.701 69.9117C170.029 70.1037 169.693 70.5197 169.693 71.1597C169.693 71.2237 169.693 71.2877 169.693 71.3517C169.693 71.4157 169.693 71.4797 169.693 71.5437C170.189 71.5437 170.685 71.5437 171.181 71.5437C171.677 71.5437 172.173 71.5437 172.669 71.5437C172.669 72.1357 172.669 72.7277 172.669 73.3197C172.669 73.9117 172.669 74.5037 172.669 75.0957C172.173 75.0957 171.677 75.0957 171.181 75.0957C170.685 75.0957 170.189 75.0957 169.693 75.0957C169.693 76.5517 169.693 78.0237 169.693 79.5117C169.693 80.9997 169.693 82.4797 169.693 83.9517C169.053 83.9517 168.397 83.9517 167.725 83.9517C167.053 83.9517 166.389 83.9517 165.733 83.9517C165.733 82.4797 165.733 80.9997 165.733 79.5117C165.733 78.0237 165.733 76.5517 165.733 75.0957C165.413 75.0957 165.085 75.0957 164.749 75.0957C164.429 75.0957 164.109 75.0957 163.789 75.0957ZM174.823 83.9517C174.823 81.0557 174.823 78.1357 174.823 75.1917C174.823 72.2477 174.823 69.3277 174.823 66.4317C175.479 66.4317 176.143 66.4317 176.815 66.4317C177.487 66.4317 178.143 66.4317 178.783 66.4317C178.783 69.3277 178.783 72.2477 178.783 75.1917C178.783 78.1357 178.783 81.0557 178.783 83.9517C178.143 83.9517 177.487 83.9517 176.815 83.9517C176.143 83.9517 175.479 83.9517 174.823 83.9517ZM187.427 84.3357C186.499 84.3357 185.635 84.1757 184.835 83.8557C184.035 83.5197 183.339 83.0557 182.747 82.4637C182.155 81.8557 181.691 81.1517 181.355 80.3517C181.035 79.5517 180.875 78.6797 180.875 77.7357C180.875 76.7917 181.035 75.9197 181.355 75.1197C181.691 74.3197 182.155 73.6237 182.747 73.0317C183.339 72.4397 184.035 71.9837 184.835 71.6637C185.635 71.3277 186.499 71.1597 187.427 71.1597C188.371 71.1597 189.235 71.3277 190.019 71.6637C190.819 71.9837 191.515 72.4397 192.107 73.0317C192.699 73.6237 193.155 74.3197 193.475 75.1197C193.811 75.9197 193.979 76.7917 193.979 77.7357C193.979 78.6797 193.811 79.5517 193.475 80.3517C193.155 81.1517 192.699 81.8557 192.107 82.4637C191.515 83.0557 190.819 83.5197 190.019 83.8557C189.235 84.1757 188.371 84.3357 187.427 84.3357ZM187.427 80.7597C188.211 80.7597 188.835 80.4797 189.299 79.9197C189.779 79.3437 190.019 78.6157 190.019 77.7357C190.019 76.8397 189.779 76.1197 189.299 75.5757C188.835 75.0157 188.211 74.7357 187.427 74.7357C186.643 74.7357 186.011 75.0157 185.531 75.5757C185.067 76.1197 184.835 76.8397 184.835 77.7357C184.835 78.6157 185.067 79.3437 185.531 79.9197C186.011 80.4797 186.643 80.7597 187.427 80.7597ZM198.223 83.9517C197.599 81.9037 196.967 79.8397 196.327 77.7597C195.703 75.6637 195.079 73.5917 194.455 71.5437C195.111 71.5437 195.775 71.5437 196.447 71.5437C197.135 71.5437 197.807 71.5437 198.463 71.5437C198.783 72.6637 199.103 73.7997 199.423 74.9517C199.759 76.0877 200.079 77.2157 200.383 78.3357C200.655 77.2157 200.927 76.0877 201.199 74.9517C201.487 73.7997 201.759 72.6637 202.015 71.5437C202.575 71.5437 203.135 71.5437 203.695 71.5437C204.271 71.5437 204.839 71.5437 205.399 71.5437C205.671 72.6637 205.943 73.8077 206.215 74.9757C206.503 76.1277 206.775 77.2717 207.031 78.4077C207.351 77.2717 207.671 76.1277 207.991 74.9757C208.327 73.8077 208.647 72.6637 208.951 71.5437C209.607 71.5437 210.263 71.5437 210.919 71.5437C211.591 71.5437 212.247 71.5437 212.887 71.5437C212.263 73.5917 211.631 75.6637 210.991 77.7597C210.367 79.8397 209.743 81.9037 209.119 83.9517C208.479 83.9517 207.831 83.9517 207.175 83.9517C206.519 83.9517 205.871 83.9517 205.231 83.9517C204.975 82.9597 204.711 81.9597 204.439 80.9517C204.183 79.9437 203.927 78.9517 203.671 77.9757C203.415 78.9517 203.151 79.9437 202.879 80.9517C202.623 81.9597 202.367 82.9597 202.111 83.9517C201.471 83.9517 200.823 83.9517 200.167 83.9517C199.511 83.9517 198.863 83.9517 198.223 83.9517ZM224.734 83.3757C223.63 83.8397 222.534 84.1277 221.446 84.2397C220.358 84.3517 219.326 84.2877 218.35 84.0477C217.39 83.8237 216.534 83.4317 215.782 82.8717C215.03 82.3117 214.438 81.5997 214.006 80.7357C213.59 79.8717 213.382 78.8717 213.382 77.7357C213.382 76.7917 213.534 75.9277 213.838 75.1437C214.158 74.3437 214.606 73.6477 215.182 73.0557C215.758 72.4477 216.438 71.9837 217.222 71.6637C218.006 71.3277 218.862 71.1597 219.79 71.1597C220.622 71.1597 221.374 71.2957 222.046 71.5677C222.718 71.8397 223.302 72.2237 223.798 72.7197C224.294 73.1997 224.694 73.7757 224.998 74.4477C225.302 75.1197 225.494 75.8557 225.574 76.6557C225.654 77.4557 225.606 78.3037 225.43 79.1997C224.118 79.1997 222.798 79.1997 221.47 79.1997C220.142 79.1997 218.822 79.1997 217.51 79.1997C217.814 79.8077 218.318 80.2397 219.022 80.4957C219.742 80.7517 220.59 80.8317 221.566 80.7357C222.558 80.6397 223.614 80.3837 224.734 79.9677C224.734 80.5277 224.734 81.0957 224.734 81.6717C224.734 82.2477 224.734 82.8157 224.734 83.3757ZM219.694 74.7117C219.23 74.7117 218.798 74.8397 218.398 75.0957C218.014 75.3517 217.718 75.7437 217.51 76.2717C218.23 76.2717 218.95 76.2717 219.67 76.2717C220.406 76.2717 221.134 76.2717 221.854 76.2717C221.662 75.7277 221.374 75.3357 220.99 75.0957C220.622 74.8397 220.19 74.7117 219.694 74.7117ZM227.672 83.9517C227.672 81.9037 227.672 79.8397 227.672 77.7597C227.672 75.6637 227.672 73.5917 227.672 71.5437C228.328 71.5437 228.992 71.5437 229.664 71.5437C230.336 71.5437 230.992 71.5437 231.632 71.5437C231.632 71.6557 231.632 71.7677 231.632 71.8797C231.632 71.9917 231.632 72.1037 231.632 72.2157C232.128 71.8637 232.688 71.5997 233.312 71.4237C233.936 71.2477 234.616 71.1997 235.352 71.2797C235.352 71.9197 235.352 72.5677 235.352 73.2237C235.352 73.8797 235.352 74.5277 235.352 75.1677C234.088 74.9917 233.152 75.1037 232.544 75.5037C231.936 75.8877 231.632 76.5197 231.632 77.3997C231.632 78.4717 231.632 79.5597 231.632 80.6637C231.632 81.7677 231.632 82.8637 231.632 83.9517C230.992 83.9517 230.336 83.9517 229.664 83.9517C228.992 83.9517 228.328 83.9517 227.672 83.9517ZM246.62 80.1117C246.62 81.1037 246.34 81.9197 245.78 82.5597C245.236 83.1837 244.5 83.6397 243.572 83.9277C242.644 84.2157 241.604 84.3357 240.452 84.2877C239.316 84.2557 238.156 84.0717 236.972 83.7357C236.972 83.1277 236.972 82.5037 236.972 81.8637C236.972 81.2237 236.972 80.5997 236.972 79.9917C237.644 80.2957 238.316 80.5357 238.988 80.7117C239.66 80.8717 240.268 80.9677 240.812 80.9997C241.356 81.0317 241.796 80.9917 242.132 80.8797C242.468 80.7517 242.636 80.5437 242.636 80.2557C242.636 80.0317 242.492 79.8557 242.204 79.7277C241.932 79.5997 241.572 79.4877 241.124 79.3917C240.676 79.2797 240.196 79.1517 239.684 79.0077C239.188 78.8477 238.716 78.6317 238.268 78.3597C237.82 78.0717 237.452 77.6957 237.164 77.2317C236.892 76.7517 236.756 76.1357 236.756 75.3837C236.756 74.4877 237.012 73.7277 237.524 73.1037C238.052 72.4637 238.756 71.9837 239.636 71.6637C240.516 71.3277 241.5 71.1597 242.588 71.1597C243.676 71.1597 244.788 71.3437 245.924 71.7117C245.924 72.3197 245.924 72.9437 245.924 73.5837C245.924 74.2237 245.924 74.8477 245.924 75.4557C245.028 75.0237 244.188 74.7357 243.404 74.5917C242.62 74.4477 241.988 74.4317 241.508 74.5437C241.028 74.6397 240.788 74.8557 240.788 75.1917C240.788 75.4157 240.924 75.5917 241.196 75.7197C241.484 75.8317 241.844 75.9357 242.276 76.0317C242.724 76.1277 243.196 76.2557 243.692 76.4157C244.204 76.5757 244.676 76.7997 245.108 77.0877C245.556 77.3597 245.916 77.7437 246.188 78.2397C246.476 78.7197 246.62 79.3437 246.62 80.1117Z" fill="#FE9973"/>
<rect x="14.7598" y="113.456" width="86.7915" height="90" rx="26" fill="#FE9973"/>
<path d="M63.639 165.828C63.6774 162.858 63.6256 166.857 63.6712 163.334C63.7169 159.81 63.7054 160.693 63.7054 160.693C63.7054 160.693 76.7404 160.862 82.1452 160.932C82.0996 164.456 73.823 165.96 63.639 165.828Z" fill="#FBF6F2"/>
<path d="M63.7799 154.988C63.7415 157.958 63.7917 154.083 63.746 157.607C63.7004 161.13 63.7119 160.247 63.7119 160.247C63.7119 160.247 76.7469 160.415 82.1517 160.485C82.1973 156.962 73.964 155.12 63.7799 154.988Z" fill="#F4E3D5"/>
<path d="M63.6192 154.955C60.6491 154.916 64.6487 154.968 61.125 154.923C57.6013 154.877 58.4849 154.888 58.4849 154.888C58.4849 154.888 58.6536 141.853 58.7236 136.449C62.2473 136.494 63.7511 144.771 63.6192 154.955Z" fill="#FBF6F2"/>
<path d="M52.7808 154.814C55.7509 154.853 51.8759 154.803 55.3996 154.848C58.9233 154.894 58.0397 154.882 58.0397 154.882C58.0397 154.882 58.2084 141.847 58.2783 136.443C54.7546 136.397 52.9126 144.63 52.7808 154.814Z" fill="#F4E3D5"/>
<path d="M52.7997 165.688C55.7699 165.726 51.7702 165.674 55.294 165.72C58.8177 165.766 57.934 165.754 57.934 165.754C57.934 165.754 57.7653 178.789 57.6953 184.194C54.1716 184.148 52.6679 175.872 52.7997 165.688Z" fill="#FBF6F2"/>
<path d="M63.6391 165.828C60.669 165.789 64.544 165.839 61.0203 165.794C57.4966 165.748 58.3802 165.76 58.3802 165.76C58.3802 165.76 58.2115 178.795 58.1416 184.2C61.6653 184.245 63.5073 176.012 63.6391 165.828Z" fill="#F4E3D5"/>
<rect x="63.293" y="155.351" width="9.97231" height="9.97224" transform="rotate(90.7415 63.293 155.351)" fill="#FECC73"/>
<path d="M52.8132 154.971C52.7747 157.941 52.8265 153.942 52.7809 157.465C52.7353 160.989 52.7467 160.105 52.7467 160.105C52.7467 160.105 39.7117 159.937 34.3069 159.867C34.3525 156.343 42.6292 154.839 52.8132 154.971Z" fill="#FBF6F2"/>
<path d="M52.6732 165.811C52.7116 162.84 52.6615 166.715 52.7071 163.192C52.7527 159.668 52.7412 160.552 52.7412 160.552C52.7412 160.552 39.7062 160.383 34.3015 160.313C34.2559 163.837 42.4892 165.679 52.6732 165.811Z" fill="#F4E3D5"/>
<rect x="121.414" y="114.867" width="135.712" height="90" rx="26" fill="#E94812"/>
<path d="M164.293 167.239C164.332 164.269 164.28 168.269 164.326 164.745C164.371 161.221 164.36 162.105 164.36 162.105C164.36 162.105 177.395 162.274 182.8 162.344C182.754 165.867 174.477 167.371 164.293 167.239Z" fill="#FBF6F2"/>
<path d="M164.434 156.4C164.396 159.37 164.446 155.495 164.4 159.019C164.355 162.542 164.366 161.659 164.366 161.659C164.366 161.659 177.401 161.828 182.806 161.897C182.852 158.374 174.618 156.532 164.434 156.4Z" fill="#F4E3D5"/>
<path d="M164.274 156.367C161.303 156.328 165.303 156.38 161.779 156.334C158.256 156.289 159.139 156.3 159.139 156.3C159.139 156.3 159.308 143.265 159.378 137.86C162.902 137.906 164.405 146.182 164.274 156.367Z" fill="#FBF6F2"/>
<path d="M153.435 156.226C156.405 156.264 152.53 156.214 156.054 156.26C159.578 156.306 158.694 156.294 158.694 156.294C158.694 156.294 158.863 143.259 158.933 137.854C155.409 137.809 153.567 146.042 153.435 156.226Z" fill="#F4E3D5"/>
<path d="M153.454 167.099C156.424 167.138 152.425 167.086 155.948 167.132C159.472 167.177 158.588 167.166 158.588 167.166C158.588 167.166 158.42 180.201 158.35 185.606C154.826 185.56 153.322 177.283 153.454 167.099Z" fill="#FBF6F2"/>
<path d="M164.293 167.239C161.323 167.201 165.198 167.251 161.675 167.205C158.151 167.16 159.035 167.171 159.035 167.171C159.035 167.171 158.866 180.206 158.796 185.611C162.32 185.657 164.162 177.423 164.293 167.239Z" fill="#F4E3D5"/>
<rect x="163.947" y="156.762" width="9.97231" height="9.97224" transform="rotate(90.7415 163.947 156.762)" fill="#FECC73"/>
<path d="M153.467 156.383C153.429 159.353 153.481 155.353 153.435 158.877C153.39 162.401 153.401 161.517 153.401 161.517C153.401 161.517 140.366 161.348 134.961 161.278C135.007 157.755 143.283 156.251 153.467 156.383Z" fill="#FBF6F2"/>
<path d="M153.327 167.222C153.366 164.252 153.316 168.127 153.361 164.603C153.407 161.08 153.396 161.963 153.396 161.963C153.396 161.963 140.361 161.795 134.956 161.725C134.91 165.248 143.143 167.09 153.327 167.222Z" fill="#F4E3D5"/>
<path d="M223.27 167.513C223.308 164.543 223.256 168.543 223.302 165.019C223.348 161.495 223.336 162.379 223.336 162.379C223.336 162.379 236.371 162.548 241.776 162.618C241.73 166.141 233.454 167.645 223.27 167.513Z" fill="#FBF6F2"/>
<path d="M223.411 156.673C223.372 159.643 223.423 155.768 223.377 159.292C223.331 162.816 223.343 161.932 223.343 161.932C223.343 161.932 236.378 162.101 241.783 162.171C241.828 158.647 233.595 156.805 223.411 156.673Z" fill="#F4E3D5"/>
<path d="M223.25 156.64C220.28 156.602 224.28 156.654 220.756 156.608C217.232 156.563 218.116 156.574 218.116 156.574C218.116 156.574 218.284 143.539 218.354 138.134C221.878 138.18 223.382 146.456 223.25 156.64Z" fill="#FBF6F2"/>
<path d="M212.412 156.5C215.382 156.538 211.507 156.488 215.03 156.534C218.554 156.579 217.671 156.568 217.671 156.568C217.671 156.568 217.839 143.533 217.909 138.128C214.385 138.083 212.543 146.316 212.412 156.5Z" fill="#F4E3D5"/>
<path d="M212.431 167.373C215.401 167.412 211.401 167.36 214.925 167.406C218.449 167.451 217.565 167.44 217.565 167.44C217.565 167.44 217.396 180.475 217.326 185.88C213.802 185.834 212.299 177.557 212.431 167.373Z" fill="#FBF6F2"/>
<path d="M223.27 167.513C220.3 167.475 224.175 167.525 220.651 167.479C217.127 167.434 218.011 167.445 218.011 167.445C218.011 167.445 217.842 180.48 217.772 185.885C221.296 185.931 223.138 177.697 223.27 167.513Z" fill="#F4E3D5"/>
<rect x="222.924" y="157.036" width="9.97231" height="9.97224" transform="rotate(90.7415 222.924 157.036)" fill="#FECC73"/>
<path d="M212.444 156.657C212.406 159.627 212.457 155.627 212.412 159.151C212.366 162.675 212.378 161.791 212.378 161.791C212.378 161.791 199.343 161.622 193.938 161.552C193.983 158.029 202.26 156.525 212.444 156.657Z" fill="#FBF6F2"/>
<path d="M212.304 167.496C212.342 164.526 212.292 168.401 212.338 164.877C212.384 161.354 212.372 162.237 212.372 162.237C212.372 162.237 199.337 162.068 193.932 161.999C193.887 165.522 202.12 167.364 212.304 167.496Z" fill="#F4E3D5"/>
<rect x="276.376" y="113.933" width="193.091" height="90" rx="26" fill="#FE9973"/>
<path d="M319.255 166.305C319.294 163.335 319.242 167.335 319.287 163.811C319.333 160.287 319.322 161.171 319.322 161.171C319.322 161.171 332.357 161.34 337.761 161.41C337.716 164.933 329.439 166.437 319.255 166.305Z" fill="#FBF6F2"/>
<path d="M319.396 155.465C319.358 158.435 319.408 154.56 319.362 158.084C319.317 161.608 319.328 160.724 319.328 160.724C319.328 160.724 332.363 160.893 337.768 160.963C337.813 157.439 329.58 155.597 319.396 155.465Z" fill="#F4E3D5"/>
<path d="M319.235 155.432C316.265 155.394 320.265 155.446 316.741 155.4C313.217 155.355 314.101 155.366 314.101 155.366C314.101 155.366 314.27 142.331 314.34 136.926C317.864 136.972 319.367 145.248 319.235 155.432Z" fill="#FBF6F2"/>
<path d="M308.397 155.292C311.367 155.33 307.492 155.28 311.016 155.326C314.54 155.371 313.656 155.36 313.656 155.36C313.656 155.36 313.825 142.325 313.895 136.92C310.371 136.875 308.529 145.108 308.397 155.292Z" fill="#F4E3D5"/>
<path d="M308.416 166.165C311.386 166.204 307.386 166.152 310.91 166.197C314.434 166.243 313.55 166.232 313.55 166.232C313.55 166.232 313.382 179.267 313.312 184.672C309.788 184.626 308.284 176.349 308.416 166.165Z" fill="#FBF6F2"/>
<path d="M319.255 166.305C316.285 166.267 320.16 166.317 316.637 166.271C313.113 166.226 313.996 166.237 313.996 166.237C313.996 166.237 313.828 179.272 313.758 184.677C317.281 184.723 319.124 176.489 319.255 166.305Z" fill="#F4E3D5"/>
<rect x="318.909" y="155.828" width="9.97231" height="9.97224" transform="rotate(90.7415 318.909 155.828)" fill="#FECC73"/>
<path d="M308.429 155.449C308.391 158.419 308.443 154.419 308.397 157.943C308.352 161.467 308.363 160.583 308.363 160.583C308.363 160.583 295.328 160.414 289.923 160.344C289.969 156.821 298.245 155.317 308.429 155.449Z" fill="#FBF6F2"/>
<path d="M308.289 166.288C308.328 163.318 308.278 167.193 308.323 163.669C308.369 160.146 308.357 161.029 308.357 161.029C308.357 161.029 295.322 160.86 289.918 160.791C289.872 164.314 298.105 166.156 308.289 166.288Z" fill="#F4E3D5"/>
<path d="M378.232 166.579C378.27 163.609 378.218 167.609 378.264 164.085C378.31 160.561 378.298 161.445 378.298 161.445C378.298 161.445 391.333 161.614 396.738 161.684C396.692 165.207 388.416 166.711 378.232 166.579Z" fill="#FBF6F2"/>
<path d="M378.373 155.74C378.334 158.71 378.384 154.835 378.339 158.359C378.293 161.882 378.305 160.999 378.305 160.999C378.305 160.999 391.34 161.167 396.744 161.237C396.79 157.714 388.557 155.872 378.373 155.74Z" fill="#F4E3D5"/>
<path d="M378.212 155.706C375.242 155.668 379.241 155.72 375.718 155.674C372.194 155.628 373.078 155.64 373.078 155.64C373.078 155.64 373.246 142.605 373.316 137.2C376.84 137.246 378.344 145.522 378.212 155.706Z" fill="#FBF6F2"/>
<path d="M367.374 155.566C370.344 155.604 366.469 155.554 369.992 155.6C373.516 155.645 372.632 155.634 372.632 155.634C372.632 155.634 372.801 142.599 372.871 137.194C369.347 137.148 367.505 145.382 367.374 155.566Z" fill="#F4E3D5"/>
<path d="M367.392 166.439C370.363 166.478 366.363 166.426 369.887 166.471C373.41 166.517 372.527 166.506 372.527 166.506C372.527 166.506 372.358 179.541 372.288 184.946C368.764 184.9 367.261 176.623 367.392 166.439Z" fill="#FBF6F2"/>
<path d="M378.232 166.579C375.262 166.541 379.137 166.591 375.613 166.545C372.089 166.5 372.973 166.511 372.973 166.511C372.973 166.511 372.804 179.546 372.734 184.951C376.258 184.997 378.1 176.763 378.232 166.579Z" fill="#F4E3D5"/>
<rect x="377.886" y="156.102" width="9.97231" height="9.97224" transform="rotate(90.7415 377.886 156.102)" fill="#FECC73"/>
<path d="M367.406 155.723C367.368 158.693 367.419 154.693 367.374 158.217C367.328 161.741 367.34 160.857 367.34 160.857C367.34 160.857 354.304 160.688 348.9 160.618C348.945 157.094 357.222 155.591 367.406 155.723Z" fill="#FBF6F2"/>
<path d="M367.266 166.562C367.304 163.592 367.254 167.467 367.3 163.943C367.345 160.419 367.334 161.303 367.334 161.303C367.334 161.303 354.299 161.134 348.894 161.064C348.849 164.588 357.082 166.43 367.266 166.562Z" fill="#F4E3D5"/>
<path d="M437.209 166.853C437.248 163.883 437.196 167.883 437.242 164.359C437.287 160.835 437.276 161.719 437.276 161.719C437.276 161.719 450.311 161.888 455.716 161.958C455.67 165.481 447.393 166.985 437.209 166.853Z" fill="#FBF6F2"/>
<path d="M437.35 156.013C437.312 158.983 437.362 155.108 437.316 158.632C437.271 162.156 437.282 161.272 437.282 161.272C437.282 161.272 450.317 161.441 455.722 161.511C455.768 157.987 447.534 156.145 437.35 156.013Z" fill="#F4E3D5"/>
<path d="M437.19 155.98C434.219 155.942 438.219 155.994 434.695 155.948C431.172 155.902 432.055 155.914 432.055 155.914C432.055 155.914 432.224 142.879 432.294 137.474C435.818 137.52 437.321 145.796 437.19 155.98Z" fill="#FBF6F2"/>
<path d="M426.351 155.84C429.321 155.878 425.446 155.828 428.97 155.874C432.494 155.919 431.61 155.908 431.61 155.908C431.61 155.908 431.779 142.873 431.849 137.468C428.325 137.422 426.483 145.656 426.351 155.84Z" fill="#F4E3D5"/>
<path d="M426.37 166.713C429.34 166.752 425.341 166.7 428.864 166.745C432.388 166.791 431.504 166.78 431.504 166.78C431.504 166.78 431.336 179.815 431.266 185.219C427.742 185.174 426.238 176.897 426.37 166.713Z" fill="#FBF6F2"/>
<path d="M437.209 166.853C434.239 166.815 438.114 166.865 434.591 166.819C431.067 166.774 431.951 166.785 431.951 166.785C431.951 166.785 431.782 179.82 431.712 185.225C435.236 185.271 437.078 177.037 437.209 166.853Z" fill="#F4E3D5"/>
<rect x="436.863" y="156.376" width="9.97231" height="9.97224" transform="rotate(90.7415 436.863 156.376)" fill="#FECC73"/>
<path d="M426.383 155.996C426.345 158.967 426.397 154.967 426.351 158.491C426.306 162.014 426.317 161.131 426.317 161.131C426.317 161.131 413.282 160.962 407.877 160.892C407.923 157.368 416.199 155.865 426.383 155.996Z" fill="#FBF6F2"/>
<path d="M426.243 166.836C426.282 163.866 426.232 167.741 426.277 164.217C426.323 160.693 426.312 161.577 426.312 161.577C426.312 161.577 413.277 161.408 407.872 161.338C407.826 164.862 416.059 166.704 426.243 166.836Z" fill="#F4E3D5"/>
</svg>
