<svg width="201" height="204" viewBox="0 0 201 204" fill="none" xmlns="http://www.w3.org/2000/svg">
<rect width="200.744" height="186.17" rx="32" fill="#E94812"/>
<path d="M55.1513 113.17C55.1513 109.042 55.1513 104.882 55.1513 100.69C55.1513 96.4659 55.1513 92.2899 55.1513 88.1619C53.9353 88.1619 52.7033 88.1619 51.4553 88.1619C50.2073 88.1619 48.9753 88.1619 47.7593 88.1619C47.7593 86.9139 47.7593 85.6499 47.7593 84.3699C47.7593 83.0579 47.7593 81.7779 47.7593 80.5299C51.5673 80.5299 55.4233 80.5299 59.3273 80.5299C63.2313 80.5299 67.0873 80.5299 70.8953 80.5299C70.8953 81.7779 70.8953 83.0579 70.8953 84.3699C70.8953 85.6499 70.8953 86.9139 70.8953 88.1619C69.7113 88.1619 68.4953 88.1619 67.2473 88.1619C65.9993 88.1619 64.7673 88.1619 63.5513 88.1619C63.5513 92.2899 63.5513 96.4659 63.5513 100.69C63.5513 104.882 63.5513 109.042 63.5513 113.17C62.1753 113.17 60.7833 113.17 59.3753 113.17C57.9673 113.17 56.5593 113.17 55.1513 113.17ZM96.7058 88.3539C96.7058 92.4499 96.7058 96.5939 96.7058 100.786C96.7058 104.946 96.7058 109.074 96.7058 113.17C95.4258 113.17 94.1138 113.17 92.7698 113.17C91.4258 113.17 90.0978 113.17 88.7858 113.17C88.7858 112.946 88.7858 112.738 88.7858 112.546C88.7858 112.354 88.7858 112.146 88.7858 111.922C87.9218 112.53 86.9458 112.994 85.8578 113.314C84.8018 113.666 83.6498 113.842 82.4018 113.842C80.5778 113.842 78.9618 113.426 77.5538 112.594C76.1778 111.762 75.0898 110.562 74.2898 108.994C73.5218 107.426 73.1378 105.57 73.1378 103.426C73.1378 100.93 73.1378 98.4179 73.1378 95.8899C73.1378 93.3619 73.1378 90.8499 73.1378 88.3539C74.4498 88.3539 75.7778 88.3539 77.1218 88.3539C78.4658 88.3539 79.7778 88.3539 81.0578 88.3539C81.0578 90.6579 81.0578 92.9939 81.0578 95.3619C81.0578 97.7299 81.0578 100.066 81.0578 102.37C81.0578 103.65 81.3458 104.69 81.9218 105.49C82.5298 106.258 83.4738 106.642 84.7538 106.642C86.0338 106.642 87.0258 106.274 87.7298 105.538C88.4338 104.802 88.7858 103.746 88.7858 102.37C88.7858 100.066 88.7858 97.7299 88.7858 95.3619C88.7858 92.9939 88.7858 90.6579 88.7858 88.3539C90.0978 88.3539 91.4258 88.3539 92.7698 88.3539C94.1138 88.3539 95.4258 88.3539 96.7058 88.3539ZM102.215 113.17C102.215 107.378 102.215 101.538 102.215 95.6499C102.215 89.7619 102.215 83.9219 102.215 78.1299C103.527 78.1299 104.855 78.1299 106.199 78.1299C107.543 78.1299 108.855 78.1299 110.135 78.1299C110.135 83.9219 110.135 89.7619 110.135 95.6499C110.135 101.538 110.135 107.378 110.135 113.17C108.855 113.17 107.543 113.17 106.199 113.17C104.855 113.17 103.527 113.17 102.215 113.17ZM119.886 85.5219C118.958 85.5219 118.11 85.2979 117.342 84.8499C116.606 84.4019 116.014 83.8099 115.566 83.0739C115.118 82.3379 114.894 81.5219 114.894 80.6259C114.894 79.7299 115.118 78.9299 115.566 78.2259C116.014 77.4899 116.606 76.8979 117.342 76.4499C118.11 76.0019 118.958 75.7779 119.886 75.7779C120.782 75.7779 121.598 76.0019 122.334 76.4499C123.102 76.8979 123.71 77.4899 124.158 78.2259C124.606 78.9299 124.83 79.7299 124.83 80.6259C124.83 81.5219 124.606 82.3379 124.158 83.0739C123.71 83.8099 123.102 84.4019 122.334 84.8499C121.598 85.2979 120.782 85.5219 119.886 85.5219ZM115.902 113.17C115.902 109.074 115.902 104.946 115.902 100.786C115.902 96.5939 115.902 92.4499 115.902 88.3539C117.214 88.3539 118.542 88.3539 119.886 88.3539C121.23 88.3539 122.542 88.3539 123.822 88.3539C123.822 92.4499 123.822 96.5939 123.822 100.786C123.822 104.946 123.822 109.074 123.822 113.17C122.542 113.17 121.23 113.17 119.886 113.17C118.542 113.17 117.214 113.17 115.902 113.17ZM137.27 120.85C135.99 120.85 134.678 120.85 133.334 120.85C131.99 120.85 130.662 120.85 129.35 120.85C129.35 115.506 129.35 110.098 129.35 104.626C129.35 99.1219 129.35 93.6979 129.35 88.3539C130.662 88.3539 131.99 88.3539 133.334 88.3539C134.678 88.3539 135.99 88.3539 137.27 88.3539C137.27 88.5779 137.27 88.8019 137.27 89.0259C137.27 89.2499 137.27 89.4899 137.27 89.7459C138.07 89.1059 138.982 88.6099 140.006 88.2579C141.03 87.8739 142.118 87.6819 143.27 87.6819C144.87 87.6819 146.39 88.0019 147.83 88.6419C149.27 89.2499 150.534 90.1299 151.622 91.2819C152.742 92.4339 153.606 93.8099 154.214 95.4099C154.854 97.0099 155.174 98.7859 155.174 100.738C155.174 102.658 154.854 104.418 154.214 106.018C153.606 107.618 152.742 109.01 151.622 110.194C150.534 111.346 149.27 112.242 147.83 112.882C146.39 113.522 144.854 113.842 143.222 113.842C142.07 113.842 140.982 113.65 139.958 113.266C138.966 112.914 138.07 112.402 137.27 111.73C137.27 113.234 137.27 114.754 137.27 116.29C137.27 117.826 137.27 119.346 137.27 120.85ZM142.166 106.834C143.734 106.834 144.966 106.29 145.862 105.202C146.79 104.082 147.254 102.594 147.254 100.738C147.254 98.8819 146.79 97.4099 145.862 96.3219C144.966 95.2339 143.734 94.6899 142.166 94.6899C140.63 94.6899 139.398 95.2499 138.47 96.3699C137.542 97.4579 137.078 98.9139 137.078 100.738C137.078 102.562 137.542 104.034 138.47 105.154C139.398 106.274 140.63 106.834 142.166 106.834Z" fill="#FE9973"/>
</svg>
