<svg width="292" height="416" viewBox="0 0 292 416" fill="none" xmlns="http://www.w3.org/2000/svg">
<ellipse cx="85.857" cy="312.652" rx="54.9322" ry="99.6897" fill="#E3D03B"/>
<path d="M57.896 301.289C73.4683 246.649 101.347 209.006 134.001 214.628L98.085 412.165C45.098 415.355 40.5476 362.161 57.896 301.289Z" fill="#E4EB33"/>
<path d="M133.866 215.375C164.461 223.294 176.738 266.587 173.192 322.51C170.037 372.278 149.644 410.77 98.085 412.165L133.866 215.375Z" fill="#F7FFB9"/>
<path d="M116.025 301.676C100.452 247.036 72.5734 209.393 39.9191 215.015L75.8356 412.552C128.823 415.742 133.373 362.548 116.025 301.676Z" fill="#FDF082"/>
<path d="M39.9191 215.015C9.32405 222.934 -2.95297 266.227 0.592334 322.15C3.74745 371.918 24.1412 410.411 75.6997 411.805L39.9191 215.015Z" fill="#F8CB27"/>
<path d="M40.6279 212.773L75.4333 411.409" stroke="#FE9973" stroke-width="5.6702"/>
<path d="M65.9121 215.81C110.225 260.257 112.303 282.605 122.395 317.89C128.935 357.447 136.212 397.726 83.4236 413.024" stroke="#FE9973" stroke-width="5.6702"/>
<path d="M134.237 213.215L118.584 301.913" stroke="#FE9973" stroke-width="5.6702"/>
<path d="M85.8564 236.91C91.8861 227.558 107.272 213.257 114.371 213.257" stroke="#FE9973" stroke-width="5.6702"/>
<ellipse cx="203.473" cy="102.232" rx="54.9313" ry="99.6913" fill="#E3D03B"/>
<path d="M175.514 90.8691C191.086 36.228 218.965 -1.41519 251.618 4.20667L215.702 201.746C162.716 204.937 158.166 151.742 175.514 90.8691Z" fill="#E4EB33"/>
<path d="M251.482 4.95372C282.077 12.8723 294.354 56.1662 290.809 112.09C287.653 161.859 267.26 200.352 215.702 201.746L251.482 4.95372Z" fill="#F7FFB9"/>
<path d="M233.64 91.2563C218.068 36.6152 190.189 -1.02798 157.536 4.59388L193.452 202.133C246.438 205.324 250.988 152.129 233.64 91.2563Z" fill="#FDF082"/>
<path d="M157.536 4.59388C126.941 12.5124 114.664 55.8065 118.21 111.73C121.365 161.499 141.758 199.992 193.316 201.387L157.536 4.59388Z" fill="#F8CB27"/>
<path d="M158.244 2.54053L193.049 201.179" stroke="#FE9973" stroke-width="5.6702"/>
<path d="M183.529 5.3877C227.841 49.8355 229.92 72.1843 240.011 107.47C246.551 147.027 253.828 187.307 201.041 202.605" stroke="#FE9973" stroke-width="5.6702"/>
<path d="M251.852 2.79346L236.199 91.4935" stroke="#FE9973" stroke-width="5.6702"/>
<path d="M203.473 26.4887C209.502 17.1366 224.888 2.83512 231.987 2.83496" stroke="#FE9973" stroke-width="5.6702"/>
</svg>
