<svg width="410" height="238" viewBox="0 0 410 238" fill="none" xmlns="http://www.w3.org/2000/svg">
<path d="M251.747 177.258V153.559C251.747 99.8083 251.747 72.9332 262.208 52.4032C271.409 34.3445 286.092 19.6622 304.15 10.4608C324.68 0.000330578 351.555 0 405.306 0H409.391L251.747 177.258Z" fill="#036F62"/>
<path d="M409.392 6.77429V30.4734C409.392 84.2239 409.391 111.099 398.931 131.629C389.729 149.688 375.047 164.37 356.988 173.571C336.458 184.032 309.583 184.032 255.833 184.032H251.748L409.392 6.77429Z" fill="#6CBDAA"/>
<path d="M131.863 209.695V202.56C131.863 186.378 131.863 178.287 135.013 172.107C137.783 166.67 142.203 162.25 147.639 159.48C153.82 156.331 161.911 156.331 178.093 156.331H179.323L131.863 209.695Z" fill="#036F62"/>
<path d="M180.571 160.528V167.663C180.571 183.845 180.571 191.936 177.422 198.116C174.652 203.553 170.232 207.973 164.795 210.743C158.615 213.892 150.524 213.893 134.342 213.893H133.112L180.571 160.528Z" fill="#6CBDAA"/>
<path d="M105.991 233.121V217.187C105.991 181.048 105.991 162.979 98.958 149.176C92.7715 137.034 82.9 127.163 70.7583 120.976C56.9552 113.943 38.8859 113.943 2.74718 113.943H0.000465393L105.991 233.121Z" fill="#6CBDAA"/>
<path d="M0 118.498V134.432C0 170.57 0.000222262 188.64 7.03323 202.443C13.2197 214.585 23.0913 224.456 35.2329 230.643C49.0361 237.676 67.1053 237.676 103.244 237.676H105.991L0 118.498Z" fill="#036F62"/>
</svg>
