<svg width="234" height="249" viewBox="0 0 234 249" fill="none" xmlns="http://www.w3.org/2000/svg">
<rect width="21.1844" height="8.11035" transform="matrix(-1 0 0 1 233.985 240.682)" fill="#FE9973"/>
<rect width="21.1844" height="8.11035" transform="matrix(-1 0 0 1 194.985 240.682)" fill="#FE9973"/>
<rect width="21.1844" height="8.11035" transform="matrix(-1 0 0 1 158.985 240.682)" fill="#FE9973"/>
<rect width="21.1844" height="8.11035" transform="matrix(-1 0 0 1 122.985 240.682)" fill="#FE9973"/>
<rect width="21.1844" height="8.11035" transform="matrix(-1 0 0 1 89.9854 240.682)" fill="#FE9973"/>
<rect width="21.1844" height="8.11035" transform="matrix(0.00301799 0.999995 0.999995 -0.00301799 68.7373 206.243)" fill="#FE9973"/>
<rect width="21.1844" height="8.11035" transform="matrix(0.00301799 0.999995 0.999995 -0.00301799 68.8105 171.779)" fill="#FE9973"/>
<rect width="21.1844" height="8.11035" transform="matrix(0.00301799 0.999995 0.999995 -0.00301799 68.6729 138.135)" fill="#FE9973"/>
<rect width="21.1844" height="8.11035" transform="matrix(0.00301799 0.999995 0.999995 -0.00301799 68.7422 103.35)" fill="#FE9973"/>
<rect width="21.1844" height="8.11035" transform="matrix(0.00301799 0.999995 0.999995 -0.00301799 68.875 68.7051)" fill="#FE9973"/>
<rect width="21.1844" height="8.11035" transform="matrix(0.00301799 0.999995 0.999995 -0.00301799 68.9385 34.2417)" fill="#FE9973"/>
<rect width="21.1844" height="8.11035" transform="matrix(0.00301799 0.999995 0.999995 -0.00301799 68.9385 0.0244141)" fill="#FE9973"/>
<rect width="21.1844" height="8.11035" transform="matrix(-1 0 0 1 55.6543 0)" fill="#FE9973"/>
<rect width="21.1844" height="8.11035" transform="matrix(-1 0 0 1 21.1846 0.334473)" fill="#FE9973"/>
</svg>
