<svg width="142" height="163" viewBox="0 0 142 163" fill="none" xmlns="http://www.w3.org/2000/svg">
<rect x="141.858" y="8.11035" width="21.1844" height="8.11035" transform="rotate(180 141.858 8.11035)" fill="#FE9973"/>
<rect x="105.858" y="8.11035" width="21.1844" height="8.11035" transform="rotate(180 105.858 8.11035)" fill="#FE9973"/>
<rect x="70.8584" y="8.11035" width="21.1844" height="8.11035" transform="rotate(180 70.8584 8.11035)" fill="#FE9973"/>
<rect x="49.6104" y="42.5488" width="21.1844" height="8.11035" transform="rotate(-89.8271 49.6104 42.5488)" fill="#FE9973"/>
<rect x="49.6846" y="77.0127" width="21.1844" height="8.11035" transform="rotate(-89.8271 49.6846 77.0127)" fill="#FE9973"/>
<rect x="49.5469" y="110.656" width="21.1844" height="8.11035" transform="rotate(-89.8271 49.5469 110.656)" fill="#FE9973"/>
<rect x="48.6152" y="144.301" width="21.1844" height="8.11035" transform="rotate(-89.8271 48.6152 144.301)" fill="#FE9973"/>
<rect x="56.79" y="162.209" width="21.1844" height="8.11035" transform="rotate(180 56.79 162.209)" fill="#FE9973"/>
<rect x="21.1846" y="162.209" width="21.1844" height="8.11035" transform="rotate(180 21.1846 162.209)" fill="#FE9973"/>
</svg>
