<svg width="142" height="163" viewBox="0 0 142 163" fill="none" xmlns="http://www.w3.org/2000/svg">
<rect width="21.1844" height="8.11035" transform="matrix(1 0 0 -1 0 8.11035)" fill="#FE9973"/>
<rect width="21.1844" height="8.11035" transform="matrix(1 0 0 -1 36 8.11035)" fill="#FE9973"/>
<rect width="21.1844" height="8.11035" transform="matrix(1 0 0 -1 71 8.11035)" fill="#FE9973"/>
<rect width="21.1844" height="8.11035" transform="matrix(-0.00301799 -0.999995 -0.999995 0.00301799 92.248 42.5488)" fill="#FE9973"/>
<rect width="21.1844" height="8.11035" transform="matrix(-0.00301799 -0.999995 -0.999995 0.00301799 92.1738 77.0127)" fill="#FE9973"/>
<rect width="21.1844" height="8.11035" transform="matrix(-0.00301799 -0.999995 -0.999995 0.00301799 92.312 110.656)" fill="#FE9973"/>
<rect width="21.1844" height="8.11035" transform="matrix(-0.00301799 -0.999995 -0.999995 0.00301799 93.2432 144.301)" fill="#FE9973"/>
<rect width="21.1844" height="8.11035" transform="matrix(1 0 0 -1 85.0688 162.209)" fill="#FE9973"/>
<rect width="21.1844" height="8.11035" transform="matrix(1 0 0 -1 120.674 162.209)" fill="#FE9973"/>
</svg>
