<svg width="399" height="205" viewBox="0 0 399 205" fill="none" xmlns="http://www.w3.org/2000/svg">
<rect width="381.266" height="193.205" rx="39.1559" transform="matrix(-1 0 0 1 381.267 11.6704)" fill="white"/>
<rect width="59.1352" height="97.2509" transform="matrix(-1 0 0 1 381.267 107.625)" fill="white"/>
<rect width="59.1352" height="97.2509" transform="matrix(-1 0 0 1 59.1353 11.6704)" fill="white"/>
<path d="M0.000488281 76.3506H381.267V37.3761C381.267 16.7339 364.533 7.62939e-05 343.891 7.62939e-05H0.000488281V76.3506Z" fill="#F4E3D5"/>
<path opacity="0.8" d="M27.0638 55.5405C27.0638 50.1645 27.0638 44.7245 27.0638 39.2205C27.0638 33.7165 27.0638 28.2765 27.0638 22.9005C29.0478 22.9005 31.0478 22.9005 33.0638 22.9005C35.0798 22.9005 37.0798 22.9005 39.0638 22.9005C39.9918 26.1645 40.9038 29.4765 41.7998 32.8365C42.7278 36.1645 43.6398 39.4605 44.5358 42.7245C45.4318 39.4605 46.3278 36.1645 47.2238 32.8365C48.1518 29.4765 49.0638 26.1645 49.9599 22.9005C51.9438 22.9005 53.9278 22.9005 55.9118 22.9005C57.8958 22.9005 59.8638 22.9005 61.8158 22.9005C61.8478 28.2765 61.8798 33.7165 61.9118 39.2205C61.9438 44.7245 61.9759 50.1645 62.0078 55.5405C60.6638 55.5405 59.3038 55.5405 57.9278 55.5405C56.5838 55.5405 55.2398 55.5405 53.8958 55.5405C53.8958 51.8925 53.8958 48.2125 53.8958 44.5005C53.8958 40.7565 53.8958 37.0605 53.8958 33.4125C52.9358 37.0605 51.9598 40.7565 50.9678 44.5005C49.9758 48.2125 48.9998 51.8925 48.0398 55.5405C46.8558 55.5405 45.6398 55.5405 44.3918 55.5405C43.1758 55.5405 41.9598 55.5405 40.7438 55.5405C39.7838 51.9565 38.8238 48.3405 37.8638 44.6925C36.9038 41.0125 35.9438 37.3805 34.9838 33.7965C34.9838 37.3805 34.9838 41.0125 34.9838 44.6925C34.9838 48.3405 34.9838 51.9565 34.9838 55.5405C33.7038 55.5405 32.3918 55.5405 31.0478 55.5405C29.7038 55.5405 28.3758 55.5405 27.0638 55.5405ZM90.971 30.7245C90.971 34.8205 90.971 38.9645 90.971 43.1565C90.971 47.3165 90.971 51.4445 90.971 55.5405C89.691 55.5405 88.379 55.5405 87.035 55.5405C85.691 55.5405 84.363 55.5405 83.051 55.5405C83.051 55.3165 83.051 55.1085 83.051 54.9165C83.051 54.7245 83.051 54.5165 83.051 54.2925C82.187 54.9005 81.211 55.3645 80.123 55.6845C79.067 56.0365 77.915 56.2125 76.667 56.2125C74.843 56.2125 73.227 55.7965 71.819 54.9645C70.443 54.1325 69.355 52.9325 68.555 51.3645C67.787 49.7965 67.403 47.9405 67.403 45.7965C67.403 43.3005 67.403 40.7885 67.403 38.2605C67.403 35.7325 67.403 33.2205 67.403 30.7245C68.715 30.7245 70.043 30.7245 71.387 30.7245C72.731 30.7245 74.043 30.7245 75.323 30.7245C75.323 33.0285 75.323 35.3645 75.323 37.7325C75.323 40.1005 75.323 42.4365 75.323 44.7405C75.323 46.0205 75.611 47.0605 76.187 47.8605C76.795 48.6285 77.739 49.0125 79.019 49.0125C80.299 49.0125 81.291 48.6445 81.995 47.9085C82.699 47.1725 83.051 46.1165 83.051 44.7405C83.051 42.4365 83.051 40.1005 83.051 37.7325C83.051 35.3645 83.051 33.0285 83.051 30.7245C84.363 30.7245 85.691 30.7245 87.035 30.7245C88.379 30.7245 89.691 30.7245 90.971 30.7245ZM115.2 47.8605C115.2 49.8445 114.64 51.4765 113.52 52.7565C112.432 54.0045 110.96 54.9165 109.104 55.4925C107.248 56.0685 105.168 56.3085 102.864 56.2125C100.592 56.1485 98.2721 55.7805 95.9041 55.1085C95.9041 53.8925 95.9041 52.6445 95.9041 51.3645C95.9041 50.0845 95.9041 48.8365 95.9041 47.6205C97.2481 48.2285 98.5921 48.7085 99.9361 49.0605C101.28 49.3805 102.496 49.5725 103.584 49.6365C104.672 49.7005 105.552 49.6205 106.224 49.3965C106.896 49.1405 107.232 48.7245 107.232 48.1485C107.232 47.7005 106.944 47.3485 106.368 47.0925C105.824 46.8365 105.104 46.6125 104.208 46.4205C103.312 46.1965 102.352 45.9405 101.328 45.6525C100.336 45.3325 99.3921 44.9005 98.4961 44.3565C97.6001 43.7805 96.8641 43.0285 96.2881 42.1005C95.7441 41.1405 95.4721 39.9085 95.4721 38.4045C95.4721 36.6125 95.9841 35.0925 97.0081 33.8445C98.0641 32.5645 99.4721 31.6045 101.232 30.9645C102.992 30.2925 104.96 29.9565 107.136 29.9565C109.312 29.9565 111.536 30.3245 113.808 31.0605C113.808 32.2765 113.808 33.5245 113.808 34.8045C113.808 36.0845 113.808 37.3325 113.808 38.5485C112.016 37.6845 110.336 37.1085 108.768 36.8205C107.2 36.5325 105.936 36.5005 104.976 36.7245C104.016 36.9165 103.536 37.3485 103.536 38.0205C103.536 38.4685 103.808 38.8205 104.352 39.0765C104.928 39.3005 105.648 39.5085 106.512 39.7005C107.408 39.8925 108.352 40.1485 109.344 40.4685C110.368 40.7885 111.312 41.2365 112.176 41.8125C113.072 42.3565 113.792 43.1245 114.336 44.1165C114.912 45.0765 115.2 46.3245 115.2 47.8605ZM123.245 27.8925C122.317 27.8925 121.469 27.6685 120.701 27.2205C119.965 26.7725 119.373 26.1805 118.925 25.4445C118.477 24.7085 118.253 23.8925 118.253 22.9965C118.253 22.1005 118.477 21.3005 118.925 20.5965C119.373 19.8605 119.965 19.2685 120.701 18.8205C121.469 18.3725 122.317 18.1485 123.245 18.1485C124.141 18.1485 124.957 18.3725 125.693 18.8205C126.461 19.2685 127.069 19.8605 127.517 20.5965C127.965 21.3005 128.189 22.1005 128.189 22.9965C128.189 23.8925 127.965 24.7085 127.517 25.4445C127.069 26.1805 126.461 26.7725 125.693 27.2205C124.957 27.6685 124.141 27.8925 123.245 27.8925ZM119.261 55.5405C119.261 51.4445 119.261 47.3165 119.261 43.1565C119.261 38.9645 119.261 34.8205 119.261 30.7245C120.573 30.7245 121.901 30.7245 123.245 30.7245C124.589 30.7245 125.901 30.7245 127.181 30.7245C127.181 34.8205 127.181 38.9645 127.181 43.1565C127.181 47.3165 127.181 51.4445 127.181 55.5405C125.901 55.5405 124.589 55.5405 123.245 55.5405C121.901 55.5405 120.573 55.5405 119.261 55.5405ZM131.365 43.1085C131.365 40.6765 131.861 38.5485 132.853 36.7245C133.845 34.8685 135.221 33.3805 136.981 32.2605C138.741 31.1405 140.789 30.4685 143.125 30.2445C145.461 29.9885 147.957 30.2605 150.613 31.0605C150.613 32.2765 150.613 33.5085 150.613 34.7565C150.613 36.0045 150.613 37.2365 150.613 38.4525C148.757 37.5565 146.981 37.1405 145.285 37.2045C143.589 37.2685 142.197 37.7965 141.109 38.7885C140.021 39.7485 139.477 41.1885 139.477 43.1085C139.477 45.0285 140.021 46.4845 141.109 47.4765C142.197 48.4365 143.589 48.9485 145.285 49.0125C146.981 49.0445 148.757 48.6285 150.613 47.7645C150.613 48.9805 150.613 50.2125 150.613 51.4605C150.613 52.7085 150.613 53.9405 150.613 55.1565C147.957 55.9565 145.461 56.2285 143.125 55.9725C140.789 55.7485 138.741 55.0765 136.981 53.9565C135.221 52.8365 133.845 51.3645 132.853 49.5405C131.861 47.6845 131.365 45.5405 131.365 43.1085ZM192.447 53.8125C189.119 55.1565 186.015 55.9245 183.135 56.1165C180.287 56.3405 177.711 56.0845 175.407 55.3485C173.103 54.5805 171.135 53.4285 169.503 51.8925C167.871 50.3565 166.623 48.5325 165.759 46.4205C164.895 44.3085 164.463 42.0045 164.463 39.5085C164.463 37.0445 164.863 34.7725 165.663 32.6925C166.463 30.5805 167.631 28.7565 169.167 27.2205C170.735 25.6845 172.623 24.4845 174.831 23.6205C177.039 22.7565 179.551 22.3405 182.367 22.3725C185.183 22.3725 188.271 22.8845 191.631 23.9085C191.631 25.2525 191.631 26.6125 191.631 27.9885C191.631 29.3325 191.631 30.6765 191.631 32.0205C188.975 30.9645 186.511 30.3565 184.239 30.1965C181.999 30.0365 180.031 30.2765 178.335 30.9165C176.671 31.5565 175.359 32.5805 174.399 33.9885C173.471 35.3645 173.007 37.0925 173.007 39.1725C173.007 40.9965 173.343 42.6125 174.015 44.0205C174.719 45.4285 175.695 46.5325 176.943 47.3325C178.191 48.1325 179.615 48.5325 181.215 48.5325C181.759 48.5325 182.303 48.5165 182.847 48.4845C183.391 48.4205 183.919 48.3245 184.431 48.1965C184.431 47.3645 184.431 46.5165 184.431 45.6525C184.431 44.7885 184.431 43.9405 184.431 43.1085C183.535 43.1085 182.639 43.1085 181.743 43.1085C180.847 43.1085 179.951 43.1085 179.055 43.1085C179.055 41.9245 179.055 40.7405 179.055 39.5565C179.055 38.3405 179.055 37.1405 179.055 35.9565C181.263 35.9565 183.487 35.9565 185.727 35.9565C187.999 35.9565 190.239 35.9565 192.447 35.9565C192.447 38.9005 192.447 41.8765 192.447 44.8845C192.447 47.8925 192.447 50.8685 192.447 53.8125ZM219.413 54.3885C217.205 55.3165 215.013 55.8925 212.837 56.1165C210.661 56.3405 208.597 56.2125 206.645 55.7325C204.725 55.2845 203.013 54.5005 201.509 53.3805C200.005 52.2605 198.821 50.8365 197.957 49.1085C197.125 47.3805 196.709 45.3805 196.709 43.1085C196.709 41.2205 197.013 39.4925 197.621 37.9245C198.261 36.3245 199.157 34.9325 200.309 33.7485C201.461 32.5325 202.821 31.6045 204.389 30.9645C205.957 30.2925 207.669 29.9565 209.525 29.9565C211.189 29.9565 212.693 30.2285 214.037 30.7725C215.381 31.3165 216.549 32.0845 217.541 33.0765C218.533 34.0365 219.333 35.1885 219.941 36.5325C220.549 37.8765 220.933 39.3485 221.093 40.9485C221.253 42.5485 221.157 44.2445 220.805 46.0365C218.181 46.0365 215.541 46.0365 212.885 46.0365C210.229 46.0365 207.589 46.0365 204.965 46.0365C205.573 47.2525 206.581 48.1165 207.989 48.6285C209.429 49.1405 211.125 49.3005 213.077 49.1085C215.061 48.9165 217.173 48.4045 219.413 47.5725C219.413 48.6925 219.413 49.8285 219.413 50.9805C219.413 52.1325 219.413 53.2685 219.413 54.3885ZM209.333 37.0605C208.405 37.0605 207.541 37.3165 206.741 37.8285C205.973 38.3405 205.381 39.1245 204.965 40.1805C206.405 40.1805 207.845 40.1805 209.285 40.1805C210.757 40.1805 212.213 40.1805 213.653 40.1805C213.269 39.0925 212.693 38.3085 211.925 37.8285C211.189 37.3165 210.325 37.0605 209.333 37.0605ZM225.287 55.5405C225.287 51.4445 225.287 47.3165 225.287 43.1565C225.287 38.9645 225.287 34.8205 225.287 30.7245C226.599 30.7245 227.927 30.7245 229.271 30.7245C230.615 30.7245 231.927 30.7245 233.207 30.7245C233.207 30.9485 233.207 31.1565 233.207 31.3485C233.207 31.5405 233.207 31.7485 233.207 31.9725C234.071 31.3645 235.031 30.9005 236.087 30.5805C237.175 30.2285 238.343 30.0525 239.591 30.0525C241.415 30.0525 243.015 30.4685 244.391 31.3005C245.799 32.1325 246.887 33.3325 247.655 34.9005C248.455 36.4365 248.855 38.2925 248.855 40.4685C248.855 42.9645 248.855 45.4765 248.855 48.0045C248.855 50.5325 248.855 53.0445 248.855 55.5405C247.575 55.5405 246.263 55.5405 244.919 55.5405C243.575 55.5405 242.247 55.5405 240.935 55.5405C240.935 53.2365 240.935 50.9005 240.935 48.5325C240.935 46.1645 240.935 43.8285 240.935 41.5245C240.935 40.2445 240.631 39.2205 240.023 38.4525C239.447 37.6525 238.519 37.2525 237.239 37.2525C235.959 37.2525 234.967 37.6205 234.263 38.3565C233.559 39.0925 233.207 40.1485 233.207 41.5245C233.207 43.8285 233.207 46.1645 233.207 48.5325C233.207 50.9005 233.207 53.2365 233.207 55.5405C231.927 55.5405 230.615 55.5405 229.271 55.5405C227.927 55.5405 226.599 55.5405 225.287 55.5405ZM253.74 55.5405C253.74 51.4445 253.74 47.3165 253.74 43.1565C253.74 38.9645 253.74 34.8205 253.74 30.7245C255.052 30.7245 256.38 30.7245 257.724 30.7245C259.068 30.7245 260.38 30.7245 261.66 30.7245C261.66 30.9485 261.66 31.1725 261.66 31.3965C261.66 31.6205 261.66 31.8445 261.66 32.0685C262.652 31.3645 263.772 30.8365 265.02 30.4845C266.268 30.1325 267.628 30.0365 269.1 30.1965C269.1 31.4765 269.1 32.7725 269.1 34.0845C269.1 35.3965 269.1 36.6925 269.1 37.9725C266.572 37.6205 264.7 37.8445 263.484 38.6445C262.268 39.4125 261.66 40.6765 261.66 42.4365C261.66 44.5805 261.66 46.7565 261.66 48.9645C261.66 51.1725 261.66 53.3645 261.66 55.5405C260.38 55.5405 259.068 55.5405 257.724 55.5405C256.38 55.5405 255.052 55.5405 253.74 55.5405ZM293.803 54.3885C291.595 55.3165 289.403 55.8925 287.227 56.1165C285.051 56.3405 282.987 56.2125 281.035 55.7325C279.115 55.2845 277.403 54.5005 275.899 53.3805C274.395 52.2605 273.211 50.8365 272.347 49.1085C271.515 47.3805 271.099 45.3805 271.099 43.1085C271.099 41.2205 271.403 39.4925 272.011 37.9245C272.651 36.3245 273.547 34.9325 274.699 33.7485C275.851 32.5325 277.211 31.6045 278.779 30.9645C280.347 30.2925 282.059 29.9565 283.915 29.9565C285.579 29.9565 287.083 30.2285 288.427 30.7725C289.771 31.3165 290.939 32.0845 291.931 33.0765C292.923 34.0365 293.723 35.1885 294.331 36.5325C294.939 37.8765 295.323 39.3485 295.483 40.9485C295.643 42.5485 295.547 44.2445 295.195 46.0365C292.571 46.0365 289.931 46.0365 287.275 46.0365C284.619 46.0365 281.979 46.0365 279.355 46.0365C279.963 47.2525 280.971 48.1165 282.379 48.6285C283.819 49.1405 285.515 49.3005 287.467 49.1085C289.451 48.9165 291.563 48.4045 293.803 47.5725C293.803 48.6925 293.803 49.8285 293.803 50.9805C293.803 52.1325 293.803 53.2685 293.803 54.3885ZM283.723 37.0605C282.795 37.0605 281.931 37.3165 281.131 37.8285C280.363 38.3405 279.771 39.1245 279.355 40.1805C280.795 40.1805 282.235 40.1805 283.675 40.1805C285.147 40.1805 286.603 40.1805 288.043 40.1805C287.659 39.0925 287.083 38.3085 286.315 37.8285C285.579 37.3165 284.715 37.0605 283.723 37.0605ZM318.638 47.8605C318.638 49.8445 318.078 51.4765 316.958 52.7565C315.87 54.0045 314.398 54.9165 312.542 55.4925C310.686 56.0685 308.606 56.3085 306.302 56.2125C304.03 56.1485 301.71 55.7805 299.342 55.1085C299.342 53.8925 299.342 52.6445 299.342 51.3645C299.342 50.0845 299.342 48.8365 299.342 47.6205C300.686 48.2285 302.03 48.7085 303.374 49.0605C304.718 49.3805 305.934 49.5725 307.022 49.6365C308.11 49.7005 308.99 49.6205 309.662 49.3965C310.334 49.1405 310.67 48.7245 310.67 48.1485C310.67 47.7005 310.382 47.3485 309.806 47.0925C309.262 46.8365 308.542 46.6125 307.646 46.4205C306.75 46.1965 305.79 45.9405 304.766 45.6525C303.774 45.3325 302.83 44.9005 301.934 44.3565C301.038 43.7805 300.302 43.0285 299.726 42.1005C299.182 41.1405 298.91 39.9085 298.91 38.4045C298.91 36.6125 299.422 35.0925 300.446 33.8445C301.502 32.5645 302.91 31.6045 304.67 30.9645C306.43 30.2925 308.398 29.9565 310.574 29.9565C312.75 29.9565 314.974 30.3245 317.246 31.0605C317.246 32.2765 317.246 33.5245 317.246 34.8045C317.246 36.0845 317.246 37.3325 317.246 38.5485C315.454 37.6845 313.774 37.1085 312.206 36.8205C310.638 36.5325 309.374 36.5005 308.414 36.7245C307.454 36.9165 306.974 37.3485 306.974 38.0205C306.974 38.4685 307.246 38.8205 307.79 39.0765C308.366 39.3005 309.086 39.5085 309.95 39.7005C310.846 39.8925 311.79 40.1485 312.782 40.4685C313.806 40.7885 314.75 41.2365 315.614 41.8125C316.51 42.3565 317.23 43.1245 317.774 44.1165C318.35 45.0765 318.638 46.3245 318.638 47.8605Z" fill="#FE9973"/>
<path d="M135.314 168.136C135.682 169.784 136.05 171.456 136.418 173.152C136.786 174.848 137.146 176.528 137.498 178.192C137.866 176.528 138.234 174.848 138.602 173.152C138.986 171.456 139.354 169.784 139.706 168.136C140.33 168.136 140.962 168.136 141.602 168.136C142.242 168.136 142.874 168.136 143.498 168.136C143.882 169.784 144.266 171.448 144.65 173.128C145.034 174.808 145.418 176.48 145.802 178.144C146.17 176.48 146.53 174.808 146.882 173.128C147.25 171.448 147.61 169.784 147.962 168.136C148.602 168.136 149.242 168.136 149.882 168.136C150.538 168.136 151.186 168.136 151.826 168.136C151.234 170.824 150.642 173.544 150.05 176.296C149.458 179.048 148.866 181.768 148.274 184.456C147.49 184.456 146.69 184.456 145.874 184.456C145.074 184.456 144.274 184.456 143.474 184.456C143.138 182.968 142.794 181.472 142.442 179.968C142.09 178.448 141.746 176.944 141.41 175.456C141.09 176.944 140.762 178.448 140.426 179.968C140.09 181.472 139.762 182.968 139.442 184.456C138.658 184.456 137.866 184.456 137.066 184.456C136.282 184.456 135.498 184.456 134.714 184.456C134.122 181.768 133.53 179.048 132.938 176.296C132.346 173.544 131.754 170.824 131.162 168.136C131.85 168.136 132.538 168.136 133.226 168.136C133.93 168.136 134.626 168.136 135.314 168.136ZM163.451 183.88C162.347 184.344 161.251 184.632 160.163 184.744C159.075 184.856 158.043 184.792 157.067 184.552C156.107 184.328 155.251 183.936 154.499 183.376C153.747 182.816 153.155 182.104 152.723 181.24C152.307 180.376 152.099 179.376 152.099 178.24C152.099 177.296 152.251 176.432 152.555 175.648C152.875 174.848 153.323 174.152 153.899 173.56C154.475 172.952 155.155 172.488 155.939 172.168C156.723 171.832 157.579 171.664 158.507 171.664C159.339 171.664 160.091 171.8 160.763 172.072C161.435 172.344 162.019 172.728 162.515 173.224C163.011 173.704 163.411 174.28 163.715 174.952C164.019 175.624 164.211 176.36 164.291 177.16C164.371 177.96 164.323 178.808 164.147 179.704C162.835 179.704 161.515 179.704 160.187 179.704C158.859 179.704 157.539 179.704 156.227 179.704C156.531 180.312 157.035 180.744 157.739 181C158.459 181.256 159.307 181.336 160.283 181.24C161.275 181.144 162.331 180.888 163.451 180.472C163.451 181.032 163.451 181.6 163.451 182.176C163.451 182.752 163.451 183.32 163.451 183.88ZM158.411 175.216C157.947 175.216 157.515 175.344 157.115 175.6C156.731 175.856 156.435 176.248 156.227 176.776C156.947 176.776 157.667 176.776 158.387 176.776C159.123 176.776 159.851 176.776 160.571 176.776C160.379 176.232 160.091 175.84 159.707 175.6C159.339 175.344 158.907 175.216 158.411 175.216ZM175.868 180.616C175.868 181.608 175.588 182.424 175.028 183.064C174.484 183.688 173.748 184.144 172.82 184.432C171.892 184.72 170.852 184.84 169.7 184.792C168.564 184.76 167.404 184.576 166.22 184.24C166.22 183.632 166.22 183.008 166.22 182.368C166.22 181.728 166.22 181.104 166.22 180.496C166.892 180.8 167.564 181.04 168.236 181.216C168.908 181.376 169.516 181.472 170.06 181.504C170.604 181.536 171.044 181.496 171.38 181.384C171.716 181.256 171.884 181.048 171.884 180.76C171.884 180.536 171.74 180.36 171.452 180.232C171.18 180.104 170.82 179.992 170.372 179.896C169.924 179.784 169.444 179.656 168.932 179.512C168.436 179.352 167.964 179.136 167.516 178.864C167.068 178.576 166.7 178.2 166.412 177.736C166.14 177.256 166.004 176.64 166.004 175.888C166.004 174.992 166.26 174.232 166.772 173.608C167.3 172.968 168.004 172.488 168.884 172.168C169.764 171.832 170.748 171.664 171.836 171.664C172.924 171.664 174.036 171.848 175.172 172.216C175.172 172.824 175.172 173.448 175.172 174.088C175.172 174.728 175.172 175.352 175.172 175.96C174.276 175.528 173.436 175.24 172.652 175.096C171.868 174.952 171.236 174.936 170.756 175.048C170.276 175.144 170.036 175.36 170.036 175.696C170.036 175.92 170.172 176.096 170.444 176.224C170.732 176.336 171.092 176.44 171.524 176.536C171.972 176.632 172.444 176.76 172.94 176.92C173.452 177.08 173.924 177.304 174.356 177.592C174.804 177.864 175.164 178.248 175.436 178.744C175.724 179.224 175.868 179.848 175.868 180.616ZM179.074 184.456C179.074 182.984 179.074 181.504 179.074 180.016C179.074 178.528 179.074 177.056 179.074 175.6C178.754 175.6 178.426 175.6 178.09 175.6C177.77 175.6 177.45 175.6 177.13 175.6C177.13 175.008 177.13 174.416 177.13 173.824C177.13 173.232 177.13 172.64 177.13 172.048C177.45 172.048 177.77 172.048 178.09 172.048C178.426 172.048 178.754 172.048 179.074 172.048C179.074 171.488 179.074 170.936 179.074 170.392C179.074 169.832 179.074 169.28 179.074 168.736C179.73 168.736 180.394 168.736 181.066 168.736C181.738 168.736 182.394 168.736 183.034 168.736C183.034 169.28 183.034 169.832 183.034 170.392C183.034 170.936 183.034 171.488 183.034 172.048C183.402 172.048 183.778 172.048 184.162 172.048C184.546 172.048 184.922 172.048 185.29 172.048C185.29 172.64 185.29 173.232 185.29 173.824C185.29 174.416 185.29 175.008 185.29 175.6C184.922 175.6 184.546 175.6 184.162 175.6C183.778 175.6 183.402 175.6 183.034 175.6C183.034 177.056 183.034 178.528 183.034 180.016C183.034 181.504 183.034 182.984 183.034 184.456C182.394 184.456 181.738 184.456 181.066 184.456C180.394 184.456 179.73 184.456 179.074 184.456ZM197.763 183.88C196.659 184.344 195.563 184.632 194.475 184.744C193.387 184.856 192.355 184.792 191.379 184.552C190.419 184.328 189.563 183.936 188.811 183.376C188.059 182.816 187.467 182.104 187.035 181.24C186.619 180.376 186.411 179.376 186.411 178.24C186.411 177.296 186.563 176.432 186.867 175.648C187.187 174.848 187.635 174.152 188.211 173.56C188.787 172.952 189.467 172.488 190.251 172.168C191.035 171.832 191.891 171.664 192.819 171.664C193.651 171.664 194.403 171.8 195.075 172.072C195.747 172.344 196.331 172.728 196.827 173.224C197.323 173.704 197.723 174.28 198.027 174.952C198.331 175.624 198.523 176.36 198.603 177.16C198.683 177.96 198.635 178.808 198.459 179.704C197.147 179.704 195.827 179.704 194.499 179.704C193.171 179.704 191.851 179.704 190.539 179.704C190.843 180.312 191.347 180.744 192.051 181C192.771 181.256 193.619 181.336 194.595 181.24C195.587 181.144 196.643 180.888 197.763 180.472C197.763 181.032 197.763 181.6 197.763 182.176C197.763 182.752 197.763 183.32 197.763 183.88ZM192.723 175.216C192.259 175.216 191.827 175.344 191.427 175.6C191.043 175.856 190.747 176.248 190.539 176.776C191.259 176.776 191.979 176.776 192.699 176.776C193.435 176.776 194.163 176.776 194.883 176.776C194.691 176.232 194.403 175.84 194.019 175.6C193.651 175.344 193.219 175.216 192.723 175.216ZM200.7 184.456C200.7 182.408 200.7 180.344 200.7 178.264C200.7 176.168 200.7 174.096 200.7 172.048C201.356 172.048 202.02 172.048 202.692 172.048C203.364 172.048 204.02 172.048 204.66 172.048C204.66 172.16 204.66 172.272 204.66 172.384C204.66 172.496 204.66 172.608 204.66 172.72C205.156 172.368 205.716 172.104 206.34 171.928C206.964 171.752 207.644 171.704 208.38 171.784C208.38 172.424 208.38 173.072 208.38 173.728C208.38 174.384 208.38 175.032 208.38 175.672C207.116 175.496 206.18 175.608 205.572 176.008C204.964 176.392 204.66 177.024 204.66 177.904C204.66 178.976 204.66 180.064 204.66 181.168C204.66 182.272 204.66 183.368 204.66 184.456C204.02 184.456 203.364 184.456 202.692 184.456C202.02 184.456 201.356 184.456 200.7 184.456ZM210.169 184.456C210.169 182.408 210.169 180.344 210.169 178.264C210.169 176.168 210.169 174.096 210.169 172.048C210.825 172.048 211.489 172.048 212.161 172.048C212.833 172.048 213.489 172.048 214.129 172.048C214.129 172.16 214.129 172.264 214.129 172.36C214.129 172.456 214.129 172.56 214.129 172.672C214.561 172.368 215.041 172.136 215.569 171.976C216.113 171.8 216.697 171.712 217.321 171.712C218.233 171.712 219.033 171.92 219.721 172.336C220.425 172.752 220.969 173.352 221.353 174.136C221.753 174.904 221.953 175.832 221.953 176.92C221.953 178.168 221.953 179.424 221.953 180.688C221.953 181.952 221.953 183.208 221.953 184.456C221.313 184.456 220.657 184.456 219.985 184.456C219.313 184.456 218.649 184.456 217.993 184.456C217.993 183.304 217.993 182.136 217.993 180.952C217.993 179.768 217.993 178.6 217.993 177.448C217.993 176.808 217.841 176.296 217.537 175.912C217.249 175.512 216.785 175.312 216.145 175.312C215.505 175.312 215.009 175.496 214.657 175.864C214.305 176.232 214.129 176.76 214.129 177.448C214.129 178.6 214.129 179.768 214.129 180.952C214.129 182.136 214.129 183.304 214.129 184.456C213.489 184.456 212.833 184.456 212.161 184.456C211.489 184.456 210.825 184.456 210.169 184.456ZM229.675 184.456C229.675 181.768 229.675 179.048 229.675 176.296C229.675 173.544 229.675 170.824 229.675 168.136C231.291 168.136 232.923 168.136 234.571 168.136C236.219 168.136 237.851 168.136 239.467 168.136C239.467 168.76 239.467 169.392 239.467 170.032C239.467 170.672 239.467 171.304 239.467 171.928C238.539 171.928 237.603 171.928 236.659 171.928C235.731 171.928 234.803 171.928 233.875 171.928C233.875 172.392 233.875 172.872 233.875 173.368C233.875 173.848 233.875 174.32 233.875 174.784C234.723 174.784 235.579 174.784 236.443 174.784C237.307 174.784 238.155 174.784 238.987 174.784C238.987 175.376 238.987 175.976 238.987 176.584C238.987 177.192 238.987 177.8 238.987 178.408C238.155 178.408 237.307 178.408 236.443 178.408C235.579 178.408 234.723 178.408 233.875 178.408C233.875 179.4 233.875 180.408 233.875 181.432C233.875 182.456 233.875 183.464 233.875 184.456C233.187 184.456 232.491 184.456 231.787 184.456C231.083 184.456 230.379 184.456 229.675 184.456ZM243.969 170.632C243.505 170.632 243.081 170.52 242.697 170.296C242.329 170.072 242.033 169.776 241.809 169.408C241.585 169.04 241.473 168.632 241.473 168.184C241.473 167.736 241.585 167.336 241.809 166.984C242.033 166.616 242.329 166.32 242.697 166.096C243.081 165.872 243.505 165.76 243.969 165.76C244.417 165.76 244.825 165.872 245.193 166.096C245.577 166.32 245.881 166.616 246.105 166.984C246.329 167.336 246.441 167.736 246.441 168.184C246.441 168.632 246.329 169.04 246.105 169.408C245.881 169.776 245.577 170.072 245.193 170.296C244.825 170.52 244.417 170.632 243.969 170.632ZM241.977 184.456C241.977 182.408 241.977 180.344 241.977 178.264C241.977 176.168 241.977 174.096 241.977 172.048C242.633 172.048 243.297 172.048 243.969 172.048C244.641 172.048 245.297 172.048 245.937 172.048C245.937 174.096 245.937 176.168 245.937 178.264C245.937 180.344 245.937 182.408 245.937 184.456C245.297 184.456 244.641 184.456 243.969 184.456C243.297 184.456 242.633 184.456 241.977 184.456ZM259.38 183.88C258.276 184.344 257.18 184.632 256.092 184.744C255.004 184.856 253.972 184.792 252.996 184.552C252.036 184.328 251.18 183.936 250.428 183.376C249.676 182.816 249.084 182.104 248.652 181.24C248.236 180.376 248.028 179.376 248.028 178.24C248.028 177.296 248.18 176.432 248.484 175.648C248.804 174.848 249.252 174.152 249.828 173.56C250.404 172.952 251.084 172.488 251.868 172.168C252.652 171.832 253.508 171.664 254.436 171.664C255.268 171.664 256.02 171.8 256.692 172.072C257.364 172.344 257.948 172.728 258.444 173.224C258.94 173.704 259.34 174.28 259.644 174.952C259.948 175.624 260.14 176.36 260.22 177.16C260.3 177.96 260.252 178.808 260.076 179.704C258.764 179.704 257.444 179.704 256.116 179.704C254.788 179.704 253.468 179.704 252.156 179.704C252.46 180.312 252.964 180.744 253.668 181C254.388 181.256 255.236 181.336 256.212 181.24C257.204 181.144 258.26 180.888 259.38 180.472C259.38 181.032 259.38 181.6 259.38 182.176C259.38 182.752 259.38 183.32 259.38 183.88ZM254.34 175.216C253.876 175.216 253.444 175.344 253.044 175.6C252.66 175.856 252.364 176.248 252.156 176.776C252.876 176.776 253.596 176.776 254.316 176.776C255.052 176.776 255.78 176.776 256.5 176.776C256.308 176.232 256.02 175.84 255.636 175.6C255.268 175.344 254.836 175.216 254.34 175.216ZM262.318 184.456C262.318 182.408 262.318 180.344 262.318 178.264C262.318 176.168 262.318 174.096 262.318 172.048C262.974 172.048 263.638 172.048 264.31 172.048C264.982 172.048 265.638 172.048 266.278 172.048C266.278 172.16 266.278 172.272 266.278 172.384C266.278 172.496 266.278 172.608 266.278 172.72C266.774 172.368 267.334 172.104 267.958 171.928C268.582 171.752 269.262 171.704 269.998 171.784C269.998 172.424 269.998 173.072 269.998 173.728C269.998 174.384 269.998 175.032 269.998 175.672C268.734 175.496 267.798 175.608 267.19 176.008C266.582 176.392 266.278 177.024 266.278 177.904C266.278 178.976 266.278 180.064 266.278 181.168C266.278 182.272 266.278 183.368 266.278 184.456C265.638 184.456 264.982 184.456 264.31 184.456C263.638 184.456 262.974 184.456 262.318 184.456ZM272.938 188.296C273.258 187.448 273.586 186.592 273.922 185.728C274.274 184.88 274.61 184.04 274.93 183.208C274.178 181.368 273.41 179.512 272.626 177.64C271.858 175.752 271.098 173.888 270.346 172.048C271.05 172.048 271.754 172.048 272.458 172.048C273.162 172.048 273.858 172.048 274.546 172.048C274.962 173.072 275.378 174.112 275.794 175.168C276.226 176.224 276.65 177.272 277.066 178.312C277.45 177.272 277.842 176.224 278.242 175.168C278.642 174.112 279.034 173.072 279.418 172.048C280.106 172.048 280.794 172.048 281.482 172.048C282.17 172.048 282.858 172.048 283.546 172.048C282.474 174.72 281.394 177.432 280.306 180.184C279.234 182.92 278.162 185.624 277.09 188.296C276.402 188.296 275.706 188.296 275.002 188.296C274.314 188.296 273.626 188.296 272.938 188.296ZM290.026 184.456C290.026 181.768 290.026 179.048 290.026 176.296C290.026 173.544 290.026 170.824 290.026 168.136C291.018 168.136 292.01 168.136 293.002 168.136C294.01 168.136 295.002 168.136 295.978 168.136C297.21 168.136 298.282 168.376 299.194 168.856C300.106 169.32 300.818 169.976 301.33 170.824C301.842 171.672 302.098 172.664 302.098 173.8C302.098 174.92 301.842 175.904 301.33 176.752C300.834 177.6 300.146 178.256 299.266 178.72C298.402 179.184 297.418 179.416 296.314 179.416C295.962 179.416 295.61 179.416 295.258 179.416C294.922 179.416 294.578 179.416 294.226 179.416C294.226 180.248 294.226 181.088 294.226 181.936C294.226 182.784 294.226 183.624 294.226 184.456C293.538 184.456 292.842 184.456 292.138 184.456C291.434 184.456 290.73 184.456 290.026 184.456ZM295.978 171.904C295.69 171.904 295.394 171.904 295.09 171.904C294.802 171.904 294.514 171.904 294.226 171.904C294.226 172.544 294.226 173.192 294.226 173.848C294.226 174.488 294.226 175.128 294.226 175.768C294.546 175.768 294.874 175.768 295.21 175.768C295.562 175.768 295.898 175.768 296.218 175.768C296.714 175.768 297.114 175.584 297.418 175.216C297.738 174.848 297.898 174.392 297.898 173.848C297.898 173.288 297.73 172.824 297.394 172.456C297.058 172.088 296.586 171.904 295.978 171.904ZM309.541 184.84C308.613 184.84 307.749 184.68 306.949 184.36C306.149 184.024 305.453 183.56 304.861 182.968C304.269 182.36 303.805 181.656 303.469 180.856C303.149 180.056 302.989 179.184 302.989 178.24C302.989 177.296 303.149 176.424 303.469 175.624C303.805 174.824 304.269 174.128 304.861 173.536C305.453 172.944 306.149 172.488 306.949 172.168C307.749 171.832 308.613 171.664 309.541 171.664C310.485 171.664 311.349 171.832 312.133 172.168C312.933 172.488 313.629 172.944 314.221 173.536C314.813 174.128 315.269 174.824 315.589 175.624C315.925 176.424 316.093 177.296 316.093 178.24C316.093 179.184 315.925 180.056 315.589 180.856C315.269 181.656 314.813 182.36 314.221 182.968C313.629 183.56 312.933 184.024 312.133 184.36C311.349 184.68 310.485 184.84 309.541 184.84ZM309.541 181.264C310.325 181.264 310.949 180.984 311.413 180.424C311.893 179.848 312.133 179.12 312.133 178.24C312.133 177.344 311.893 176.624 311.413 176.08C310.949 175.52 310.325 175.24 309.541 175.24C308.757 175.24 308.125 175.52 307.645 176.08C307.181 176.624 306.949 177.344 306.949 178.24C306.949 179.12 307.181 179.848 307.645 180.424C308.125 180.984 308.757 181.264 309.541 181.264ZM322.012 188.296C321.372 188.296 320.716 188.296 320.044 188.296C319.372 188.296 318.708 188.296 318.052 188.296C318.052 185.624 318.052 182.92 318.052 180.184C318.052 177.432 318.052 174.72 318.052 172.048C318.708 172.048 319.372 172.048 320.044 172.048C320.716 172.048 321.372 172.048 322.012 172.048C322.012 172.16 322.012 172.272 322.012 172.384C322.012 172.496 322.012 172.616 322.012 172.744C322.412 172.424 322.868 172.176 323.38 172C323.892 171.808 324.436 171.712 325.012 171.712C325.812 171.712 326.572 171.872 327.292 172.192C328.012 172.496 328.644 172.936 329.188 173.512C329.748 174.088 330.18 174.776 330.484 175.576C330.804 176.376 330.964 177.264 330.964 178.24C330.964 179.2 330.804 180.08 330.484 180.88C330.18 181.68 329.748 182.376 329.188 182.968C328.644 183.544 328.012 183.992 327.292 184.312C326.572 184.632 325.804 184.792 324.988 184.792C324.412 184.792 323.868 184.696 323.356 184.504C322.86 184.328 322.412 184.072 322.012 183.736C322.012 184.488 322.012 185.248 322.012 186.016C322.012 186.784 322.012 187.544 322.012 188.296ZM324.46 181.288C325.244 181.288 325.86 181.016 326.308 180.472C326.772 179.912 327.004 179.168 327.004 178.24C327.004 177.312 326.772 176.576 326.308 176.032C325.86 175.488 325.244 175.216 324.46 175.216C323.692 175.216 323.076 175.496 322.612 176.056C322.148 176.6 321.916 177.328 321.916 178.24C321.916 179.152 322.148 179.888 322.612 180.448C323.076 181.008 323.692 181.288 324.46 181.288Z" fill="#F4E3D5"/>
</svg>
