<svg width="604" height="165" viewBox="0 0 604 165" fill="none" xmlns="http://www.w3.org/2000/svg">
<g opacity="0.8">
<path d="M7.39206 35.9038C7.39206 31.7758 7.39206 27.6158 7.39206 23.4238C7.39206 19.1998 7.39206 15.0238 7.39206 10.8958C6.17606 10.8958 4.94406 10.8958 3.69606 10.8958C2.44806 10.8958 1.21606 10.8958 5.8651e-05 10.8958C5.8651e-05 9.64781 5.8651e-05 8.38381 5.8651e-05 7.10381C5.8651e-05 5.79181 5.8651e-05 4.51181 5.8651e-05 3.26381C3.80806 3.26381 7.66406 3.26381 11.5681 3.26381C15.4721 3.26381 19.3281 3.26381 23.1361 3.26381C23.1361 4.51181 23.1361 5.79181 23.1361 7.10381C23.1361 8.38381 23.1361 9.64781 23.1361 10.8958C21.9521 10.8958 20.7361 10.8958 19.4881 10.8958C18.2401 10.8958 17.0081 10.8958 15.7921 10.8958C15.7921 15.0238 15.7921 19.1998 15.7921 23.4238C15.7921 27.6158 15.7921 31.7758 15.7921 35.9038C14.4161 35.9038 13.0241 35.9038 11.6161 35.9038C10.2081 35.9038 8.80006 35.9038 7.39206 35.9038ZM40.9163 35.9038C40.9163 35.6478 40.9163 35.4078 40.9163 35.1838C40.9163 34.9278 40.9163 34.6878 40.9163 34.4638C40.1163 35.1358 39.2043 35.6478 38.1803 35.9998C37.1883 36.3838 36.1163 36.5758 34.9643 36.5758C33.3323 36.5758 31.7963 36.2718 30.3563 35.6638C28.9163 35.0238 27.6363 34.1278 26.5163 32.9758C25.4283 31.7918 24.5643 30.3998 23.9243 28.7998C23.3163 27.1998 23.0123 25.4238 23.0123 23.4718C23.0123 21.4878 23.3163 19.6958 23.9243 18.0958C24.5643 16.4958 25.4283 15.1358 26.5163 14.0158C27.6363 12.8638 28.9163 11.9838 30.3563 11.3758C31.7963 10.7358 33.3163 10.4158 34.9163 10.4158C36.0683 10.4158 37.1563 10.6078 38.1803 10.9918C39.2043 11.3438 40.1163 11.8398 40.9163 12.4798C40.9163 12.2238 40.9163 11.9838 40.9163 11.7598C40.9163 11.5358 40.9163 11.3118 40.9163 11.0878C42.2283 11.0878 43.5563 11.0878 44.9003 11.0878C46.2443 11.0878 47.5563 11.0878 48.8363 11.0878C48.8363 15.1838 48.8363 19.3278 48.8363 23.5198C48.8363 27.6798 48.8363 31.8078 48.8363 35.9038C47.5563 35.9038 46.2443 35.9038 44.9003 35.9038C43.5563 35.9038 42.2283 35.9038 40.9163 35.9038ZM36.0203 29.5678C37.5563 29.5678 38.7883 29.0078 39.7163 27.8878C40.6443 26.7678 41.1083 25.2958 41.1083 23.4718C41.1083 21.6478 40.6443 20.1918 39.7163 19.1038C38.7883 17.9838 37.5563 17.4238 36.0203 17.4238C34.4523 17.4238 33.2043 17.9678 32.2763 19.0558C31.3803 20.1438 30.9323 21.6158 30.9323 23.4718C30.9323 25.3278 31.3803 26.8158 32.2763 27.9358C33.2043 29.0238 34.4523 29.5678 36.0203 29.5678ZM62.0419 43.5838C60.7619 43.5838 59.4499 43.5838 58.1059 43.5838C56.7619 43.5838 55.4339 43.5838 54.1219 43.5838C54.1219 38.2398 54.1219 32.8318 54.1219 27.3598C54.1219 21.8558 54.1219 16.4318 54.1219 11.0878C55.4339 11.0878 56.7619 11.0878 58.1059 11.0878C59.4499 11.0878 60.7619 11.0878 62.0419 11.0878C62.0419 11.3118 62.0419 11.5358 62.0419 11.7598C62.0419 11.9838 62.0419 12.2238 62.0419 12.4798C62.8419 11.8398 63.7539 11.3438 64.7779 10.9918C65.8019 10.6078 66.8899 10.4158 68.0419 10.4158C69.6419 10.4158 71.1619 10.7358 72.6019 11.3758C74.0419 11.9838 75.3059 12.8638 76.3939 14.0158C77.5139 15.1678 78.3779 16.5438 78.9859 18.1438C79.6259 19.7438 79.9459 21.5198 79.9459 23.4718C79.9459 25.3918 79.6259 27.1518 78.9859 28.7518C78.3779 30.3518 77.5139 31.7438 76.3939 32.9278C75.3059 34.0798 74.0419 34.9758 72.6019 35.6158C71.1619 36.2558 69.6259 36.5758 67.9939 36.5758C66.8419 36.5758 65.7539 36.3838 64.7299 35.9998C63.7379 35.6478 62.8419 35.1358 62.0419 34.4638C62.0419 35.9678 62.0419 37.4878 62.0419 39.0238C62.0419 40.5598 62.0419 42.0798 62.0419 43.5838ZM66.9379 29.5678C68.5059 29.5678 69.7379 29.0238 70.6339 27.9358C71.5619 26.8158 72.0259 25.3278 72.0259 23.4718C72.0259 21.6158 71.5619 20.1438 70.6339 19.0558C69.7379 17.9678 68.5059 17.4238 66.9379 17.4238C65.4019 17.4238 64.1699 17.9838 63.2419 19.1038C62.3139 20.1918 61.8499 21.6478 61.8499 23.4718C61.8499 25.2958 62.3139 26.7678 63.2419 27.8878C64.1699 29.0078 65.4019 29.5678 66.9379 29.5678ZM9.12006 103.584C7.84006 103.584 6.52806 103.584 5.18406 103.584C3.84006 103.584 2.51206 103.584 1.20006 103.584C1.20006 98.2398 1.20006 92.8318 1.20006 87.3598C1.20006 81.8558 1.20006 76.4318 1.20006 71.0878C2.51206 71.0878 3.84006 71.0878 5.18406 71.0878C6.52806 71.0878 7.84006 71.0878 9.12006 71.0878C9.12006 71.3118 9.12006 71.5358 9.12006 71.7598C9.12006 71.9838 9.12006 72.2238 9.12006 72.4798C9.92006 71.8398 10.8321 71.3438 11.8561 70.9918C12.8801 70.6078 13.9681 70.4158 15.1201 70.4158C16.7201 70.4158 18.2401 70.7358 19.6801 71.3758C21.1201 71.9838 22.3841 72.8638 23.4721 74.0158C24.5921 75.1678 25.4561 76.5438 26.0641 78.1438C26.7041 79.7438 27.0241 81.5198 27.0241 83.4718C27.0241 85.3918 26.7041 87.1518 26.0641 88.7518C25.4561 90.3518 24.5921 91.7438 23.4721 92.9278C22.3841 94.0798 21.1201 94.9758 19.6801 95.6158C18.2401 96.2558 16.7041 96.5758 15.0721 96.5758C13.9201 96.5758 12.8321 96.3838 11.8081 95.9998C10.8161 95.6478 9.92006 95.1358 9.12006 94.4638C9.12006 95.9678 9.12006 97.4878 9.12006 99.0238C9.12006 100.56 9.12006 102.08 9.12006 103.584ZM14.0161 89.5678C15.5841 89.5678 16.8161 89.0238 17.7121 87.9358C18.6401 86.8158 19.1041 85.3278 19.1041 83.4718C19.1041 81.6158 18.6401 80.1438 17.7121 79.0558C16.8161 77.9678 15.5841 77.4238 14.0161 77.4238C12.4801 77.4238 11.2481 77.9838 10.3201 79.1038C9.39206 80.1918 8.92806 81.6478 8.92806 83.4718C8.92806 85.2958 9.39206 86.7678 10.3201 87.8878C11.2481 89.0078 12.4801 89.5678 14.0161 89.5678ZM52.3257 94.7518C50.1177 95.6798 47.9257 96.2558 45.7497 96.4798C43.5737 96.7038 41.5097 96.5758 39.5577 96.0958C37.6377 95.6478 35.9257 94.8638 34.4217 93.7438C32.9177 92.6238 31.7337 91.1998 30.8697 89.4718C30.0377 87.7438 29.6217 85.7438 29.6217 83.4718C29.6217 81.5838 29.9257 79.8558 30.5337 78.2878C31.1737 76.6878 32.0697 75.2958 33.2217 74.1118C34.3737 72.8958 35.7337 71.9678 37.3017 71.3278C38.8697 70.6558 40.5817 70.3198 42.4377 70.3198C44.1017 70.3198 45.6057 70.5918 46.9497 71.1358C48.2937 71.6798 49.4617 72.4478 50.4537 73.4398C51.4457 74.3998 52.2457 75.5518 52.8537 76.8958C53.4617 78.2398 53.8457 79.7118 54.0057 81.3118C54.1657 82.9118 54.0697 84.6078 53.7177 86.3998C51.0937 86.3998 48.4537 86.3998 45.7977 86.3998C43.1417 86.3998 40.5017 86.3998 37.8777 86.3998C38.4857 87.6158 39.4937 88.4798 40.9017 88.9918C42.3417 89.5038 44.0377 89.6638 45.9897 89.4718C47.9737 89.2798 50.0857 88.7678 52.3257 87.9358C52.3257 89.0558 52.3257 90.1918 52.3257 91.3438C52.3257 92.4958 52.3257 93.6318 52.3257 94.7518ZM42.2457 77.4238C41.3177 77.4238 40.4537 77.6798 39.6537 78.1918C38.8857 78.7038 38.2937 79.4878 37.8777 80.5438C39.3177 80.5438 40.7577 80.5438 42.1977 80.5438C43.6697 80.5438 45.1257 80.5438 46.5657 80.5438C46.1817 79.4558 45.6057 78.6718 44.8377 78.1918C44.1017 77.6798 43.2377 77.4238 42.2457 77.4238ZM58.2001 95.9038C58.2001 91.8078 58.2001 87.6798 58.2001 83.5198C58.2001 79.3278 58.2001 75.1838 58.2001 71.0878C59.5121 71.0878 60.8401 71.0878 62.1841 71.0878C63.5281 71.0878 64.8401 71.0878 66.1201 71.0878C66.1201 71.3118 66.1201 71.5358 66.1201 71.7598C66.1201 71.9838 66.1201 72.2078 66.1201 72.4318C67.1121 71.7278 68.2321 71.1998 69.4801 70.8478C70.7281 70.4958 72.0881 70.3998 73.5601 70.5598C73.5601 71.8398 73.5601 73.1358 73.5601 74.4478C73.5601 75.7598 73.5601 77.0558 73.5601 78.3358C71.0321 77.9838 69.1601 78.2078 67.9441 79.0078C66.7281 79.7758 66.1201 81.0398 66.1201 82.7998C66.1201 84.9438 66.1201 87.1198 66.1201 89.3278C66.1201 91.5358 66.1201 93.7278 66.1201 95.9038C64.8401 95.9038 63.5281 95.9038 62.1841 95.9038C60.8401 95.9038 59.5121 95.9038 58.2001 95.9038ZM96.0976 88.2238C96.0976 90.2078 95.5376 91.8398 94.4176 93.1198C93.3296 94.3678 91.8576 95.2798 90.0016 95.8558C88.1456 96.4318 86.0656 96.6718 83.7616 96.5758C81.4896 96.5118 79.1696 96.1438 76.8016 95.4718C76.8016 94.2558 76.8016 93.0078 76.8016 91.7278C76.8016 90.4478 76.8016 89.1998 76.8016 87.9838C78.1456 88.5918 79.4896 89.0718 80.8336 89.4238C82.1776 89.7438 83.3936 89.9358 84.4816 89.9998C85.5696 90.0638 86.4496 89.9838 87.1216 89.7598C87.7936 89.5038 88.1296 89.0878 88.1296 88.5118C88.1296 88.0638 87.8416 87.7118 87.2656 87.4558C86.7216 87.1998 86.0016 86.9758 85.1056 86.7838C84.2096 86.5598 83.2496 86.3038 82.2256 86.0158C81.2336 85.6958 80.2896 85.2638 79.3936 84.7198C78.4976 84.1438 77.7616 83.3918 77.1856 82.4638C76.6416 81.5038 76.3696 80.2718 76.3696 78.7678C76.3696 76.9758 76.8816 75.4558 77.9056 74.2078C78.9616 72.9278 80.3696 71.9678 82.1296 71.3278C83.8896 70.6558 85.8576 70.3198 88.0336 70.3198C90.2096 70.3198 92.4336 70.6878 94.7056 71.4238C94.7056 72.6398 94.7056 73.8878 94.7056 75.1678C94.7056 76.4478 94.7056 77.6958 94.7056 78.9118C92.9136 78.0478 91.2336 77.4718 89.6656 77.1838C88.0976 76.8958 86.8336 76.8638 85.8736 77.0878C84.9136 77.2798 84.4336 77.7118 84.4336 78.3838C84.4336 78.8318 84.7056 79.1838 85.2496 79.4398C85.8256 79.6638 86.5456 79.8718 87.4096 80.0638C88.3056 80.2558 89.2496 80.5118 90.2416 80.8318C91.2656 81.1518 92.2096 81.5998 93.0736 82.1758C93.9696 82.7198 94.6896 83.4878 95.2336 84.4798C95.8096 85.4398 96.0976 86.6878 96.0976 88.2238ZM111.679 96.6718C109.823 96.6718 108.095 96.3518 106.495 95.7118C104.895 95.0398 103.503 94.1118 102.319 92.9278C101.135 91.7118 100.207 90.3038 99.5348 88.7038C98.8948 87.1038 98.5748 85.3598 98.5748 83.4718C98.5748 81.5838 98.8948 79.8398 99.5348 78.2398C100.207 76.6398 101.135 75.2478 102.319 74.0638C103.503 72.8798 104.895 71.9678 106.495 71.3278C108.095 70.6558 109.823 70.3198 111.679 70.3198C113.567 70.3198 115.295 70.6558 116.863 71.3278C118.463 71.9678 119.855 72.8798 121.039 74.0638C122.223 75.2478 123.135 76.6398 123.775 78.2398C124.447 79.8398 124.783 81.5838 124.783 83.4718C124.783 85.3598 124.447 87.1038 123.775 88.7038C123.135 90.3038 122.223 91.7118 121.039 92.9278C119.855 94.1118 118.463 95.0398 116.863 95.7118C115.295 96.3518 113.567 96.6718 111.679 96.6718ZM111.679 89.5198C113.247 89.5198 114.495 88.9598 115.423 87.8398C116.383 86.6878 116.863 85.2318 116.863 83.4718C116.863 81.6798 116.383 80.2398 115.423 79.1518C114.495 78.0318 113.247 77.4718 111.679 77.4718C110.111 77.4718 108.847 78.0318 107.887 79.1518C106.959 80.2398 106.495 81.6798 106.495 83.4718C106.495 85.2318 106.959 86.6878 107.887 87.8398C108.847 88.9598 110.111 89.5198 111.679 89.5198ZM128.7 95.9038C128.7 91.8078 128.7 87.6798 128.7 83.5198C128.7 79.3278 128.7 75.1838 128.7 71.0878C130.012 71.0878 131.34 71.0878 132.684 71.0878C134.028 71.0878 135.34 71.0878 136.62 71.0878C136.62 71.3118 136.62 71.5198 136.62 71.7118C136.62 71.9038 136.62 72.1118 136.62 72.3358C137.484 71.7278 138.444 71.2638 139.5 70.9438C140.588 70.5918 141.756 70.4158 143.004 70.4158C144.828 70.4158 146.428 70.8318 147.804 71.6638C149.212 72.4958 150.3 73.6958 151.068 75.2638C151.868 76.7998 152.268 78.6558 152.268 80.8318C152.268 83.3278 152.268 85.8398 152.268 88.3678C152.268 90.8958 152.268 93.4078 152.268 95.9038C150.988 95.9038 149.676 95.9038 148.332 95.9038C146.988 95.9038 145.66 95.9038 144.348 95.9038C144.348 93.5998 144.348 91.2638 144.348 88.8958C144.348 86.5278 144.348 84.1918 144.348 81.8878C144.348 80.6078 144.044 79.5838 143.436 78.8158C142.86 78.0158 141.932 77.6158 140.652 77.6158C139.372 77.6158 138.38 77.9838 137.676 78.7198C136.972 79.4558 136.62 80.5118 136.62 81.8878C136.62 84.1918 136.62 86.5278 136.62 88.8958C136.62 91.2638 136.62 93.5998 136.62 95.9038C135.34 95.9038 134.028 95.9038 132.684 95.9038C131.34 95.9038 130.012 95.9038 128.7 95.9038ZM173.713 95.9038C173.713 95.6478 173.713 95.4078 173.713 95.1838C173.713 94.9278 173.713 94.6878 173.713 94.4638C172.913 95.1358 172.001 95.6478 170.977 95.9998C169.985 96.3838 168.913 96.5758 167.761 96.5758C166.129 96.5758 164.593 96.2718 163.153 95.6638C161.713 95.0238 160.433 94.1278 159.313 92.9758C158.225 91.7918 157.361 90.3998 156.721 88.7998C156.113 87.1998 155.809 85.4238 155.809 83.4718C155.809 81.4878 156.113 79.6958 156.721 78.0958C157.361 76.4958 158.225 75.1358 159.313 74.0158C160.433 72.8638 161.713 71.9838 163.153 71.3758C164.593 70.7358 166.113 70.4158 167.713 70.4158C168.865 70.4158 169.953 70.6078 170.977 70.9918C172.001 71.3438 172.913 71.8398 173.713 72.4798C173.713 72.2238 173.713 71.9838 173.713 71.7598C173.713 71.5358 173.713 71.3118 173.713 71.0878C175.025 71.0878 176.353 71.0878 177.697 71.0878C179.041 71.0878 180.353 71.0878 181.633 71.0878C181.633 75.1838 181.633 79.3278 181.633 83.5198C181.633 87.6798 181.633 91.8078 181.633 95.9038C180.353 95.9038 179.041 95.9038 177.697 95.9038C176.353 95.9038 175.025 95.9038 173.713 95.9038ZM168.817 89.5678C170.353 89.5678 171.585 89.0078 172.513 87.8878C173.441 86.7678 173.905 85.2958 173.905 83.4718C173.905 81.6478 173.441 80.1918 172.513 79.1038C171.585 77.9838 170.353 77.4238 168.817 77.4238C167.249 77.4238 166.001 77.9678 165.073 79.0558C164.177 80.1438 163.729 81.6158 163.729 83.4718C163.729 85.3278 164.177 86.8158 165.073 87.9358C166.001 89.0238 167.249 89.5678 168.817 89.5678ZM187.159 95.9038C187.159 90.1118 187.159 84.2718 187.159 78.3838C187.159 72.4958 187.159 66.6558 187.159 60.8638C188.471 60.8638 189.799 60.8638 191.143 60.8638C192.487 60.8638 193.799 60.8638 195.079 60.8638C195.079 66.6558 195.079 72.4958 195.079 78.3838C195.079 84.2718 195.079 90.1118 195.079 95.9038C193.799 95.9038 192.487 95.9038 191.143 95.9038C189.799 95.9038 188.471 95.9038 187.159 95.9038ZM227.244 95.9038C227.244 95.6478 227.244 95.4078 227.244 95.1838C227.244 94.9278 227.244 94.6878 227.244 94.4638C226.444 95.1358 225.532 95.6478 224.508 95.9998C223.516 96.3838 222.444 96.5758 221.292 96.5758C219.66 96.5758 218.124 96.2558 216.684 95.6158C215.244 94.9758 213.964 94.0798 212.844 92.9278C211.756 91.7438 210.892 90.3518 210.252 88.7518C209.644 87.1518 209.34 85.3918 209.34 83.4718C209.34 81.5198 209.644 79.7438 210.252 78.1438C210.892 76.5438 211.756 75.1678 212.844 74.0158C213.964 72.8638 215.244 71.9838 216.684 71.3758C218.124 70.7358 219.644 70.4158 221.244 70.4158C222.396 70.4158 223.484 70.6078 224.508 70.9918C225.532 71.3438 226.444 71.8398 227.244 72.4798C227.244 70.5598 227.244 68.6238 227.244 66.6718C227.244 64.7198 227.244 62.7838 227.244 60.8638C228.556 60.8638 229.884 60.8638 231.228 60.8638C232.572 60.8638 233.884 60.8638 235.164 60.8638C235.164 66.6558 235.164 72.4958 235.164 78.3838C235.164 84.2718 235.164 90.1118 235.164 95.9038C233.884 95.9038 232.572 95.9038 231.228 95.9038C229.884 95.9038 228.556 95.9038 227.244 95.9038ZM222.348 89.5678C223.884 89.5678 225.116 89.0078 226.044 87.8878C226.972 86.7678 227.436 85.2958 227.436 83.4718C227.436 81.6478 226.972 80.1918 226.044 79.1038C225.116 77.9838 223.884 77.4238 222.348 77.4238C220.78 77.4238 219.532 77.9678 218.604 79.0558C217.708 80.1438 217.26 81.6158 217.26 83.4718C217.26 85.3278 217.708 86.8158 218.604 87.9358C219.532 89.0238 220.78 89.5678 222.348 89.5678ZM244.908 68.2558C243.98 68.2558 243.132 68.0318 242.364 67.5838C241.628 67.1358 241.036 66.5438 240.588 65.8078C240.14 65.0718 239.916 64.2558 239.916 63.3598C239.916 62.4638 240.14 61.6638 240.588 60.9598C241.036 60.2238 241.628 59.6318 242.364 59.1838C243.132 58.7358 243.98 58.5118 244.908 58.5118C245.804 58.5118 246.62 58.7358 247.356 59.1838C248.124 59.6318 248.732 60.2238 249.18 60.9598C249.628 61.6638 249.852 62.4638 249.852 63.3598C249.852 64.2558 249.628 65.0718 249.18 65.8078C248.732 66.5438 248.124 67.1358 247.356 67.5838C246.62 68.0318 245.804 68.2558 244.908 68.2558ZM240.924 95.9038C240.924 91.8078 240.924 87.6798 240.924 83.5198C240.924 79.3278 240.924 75.1838 240.924 71.0878C242.236 71.0878 243.564 71.0878 244.908 71.0878C246.252 71.0878 247.564 71.0878 248.844 71.0878C248.844 75.1838 248.844 79.3278 248.844 83.5198C248.844 87.6798 248.844 91.8078 248.844 95.9038C247.564 95.9038 246.252 95.9038 244.908 95.9038C243.564 95.9038 242.236 95.9038 240.924 95.9038ZM254.372 95.9038C254.372 91.8078 254.372 87.6798 254.372 83.5198C254.372 79.3278 254.372 75.1838 254.372 71.0878C255.684 71.0878 257.012 71.0878 258.356 71.0878C259.7 71.0878 261.012 71.0878 262.292 71.0878C262.292 71.3118 262.292 71.5198 262.292 71.7118C262.292 71.9038 262.292 72.1118 262.292 72.3358C263.124 71.7278 264.052 71.2638 265.076 70.9438C266.1 70.5918 267.156 70.4158 268.244 70.4158C269.428 70.4158 270.516 70.6238 271.508 71.0398C272.5 71.4238 273.348 71.9998 274.052 72.7678C275.076 72.0318 276.228 71.4558 277.508 71.0398C278.82 70.6238 280.164 70.4158 281.54 70.4158C283.492 70.4158 285.172 70.8158 286.58 71.6158C288.02 72.4158 289.124 73.5518 289.892 75.0238C290.692 76.4958 291.092 78.2718 291.092 80.3518C291.092 82.9118 291.092 85.5038 291.092 88.1278C291.092 90.7518 291.092 93.3438 291.092 95.9038C289.812 95.9038 288.5 95.9038 287.156 95.9038C285.812 95.9038 284.484 95.9038 283.172 95.9038C283.172 93.5038 283.172 91.0718 283.172 88.6078C283.172 86.1438 283.172 83.7118 283.172 81.3118C283.172 80.2238 282.916 79.3438 282.404 78.6718C281.924 77.9678 281.14 77.6158 280.052 77.6158C278.996 77.6158 278.164 77.9518 277.556 78.6238C276.98 79.2638 276.692 80.1598 276.692 81.3118C276.692 83.7118 276.692 86.1438 276.692 88.6078C276.692 91.0718 276.692 93.5038 276.692 95.9038C275.412 95.9038 274.1 95.9038 272.756 95.9038C271.412 95.9038 270.084 95.9038 268.772 95.9038C268.772 93.5038 268.772 91.0718 268.772 88.6078C268.772 86.1438 268.772 83.7118 268.772 81.3118C268.772 80.2238 268.516 79.3438 268.004 78.6718C267.524 77.9678 266.74 77.6158 265.652 77.6158C264.596 77.6158 263.764 77.9518 263.156 78.6238C262.58 79.2638 262.292 80.1598 262.292 81.3118C262.292 83.7118 262.292 86.1438 262.292 88.6078C262.292 91.0718 262.292 93.5038 262.292 95.9038C261.012 95.9038 259.7 95.9038 258.356 95.9038C257.012 95.9038 255.684 95.9038 254.372 95.9038ZM317.357 94.7518C315.149 95.6798 312.957 96.2558 310.781 96.4798C308.605 96.7038 306.541 96.5758 304.589 96.0958C302.669 95.6478 300.957 94.8638 299.453 93.7438C297.949 92.6238 296.765 91.1998 295.901 89.4718C295.069 87.7438 294.653 85.7438 294.653 83.4718C294.653 81.5838 294.957 79.8558 295.565 78.2878C296.205 76.6878 297.101 75.2958 298.253 74.1118C299.405 72.8958 300.765 71.9678 302.333 71.3278C303.901 70.6558 305.613 70.3198 307.469 70.3198C309.133 70.3198 310.637 70.5918 311.981 71.1358C313.325 71.6798 314.493 72.4478 315.485 73.4398C316.477 74.3998 317.277 75.5518 317.885 76.8958C318.493 78.2398 318.877 79.7118 319.037 81.3118C319.197 82.9118 319.101 84.6078 318.749 86.3998C316.125 86.3998 313.485 86.3998 310.829 86.3998C308.173 86.3998 305.533 86.3998 302.909 86.3998C303.517 87.6158 304.525 88.4798 305.933 88.9918C307.373 89.5038 309.069 89.6638 311.021 89.4718C313.005 89.2798 315.117 88.7678 317.357 87.9358C317.357 89.0558 317.357 90.1918 317.357 91.3438C317.357 92.4958 317.357 93.6318 317.357 94.7518ZM307.277 77.4238C306.349 77.4238 305.485 77.6798 304.685 78.1918C303.917 78.7038 303.325 79.4878 302.909 80.5438C304.349 80.5438 305.789 80.5438 307.229 80.5438C308.701 80.5438 310.157 80.5438 311.597 80.5438C311.213 79.4558 310.637 78.6718 309.869 78.1918C309.133 77.6798 308.269 77.4238 307.277 77.4238ZM323.231 95.9038C323.231 91.8078 323.231 87.6798 323.231 83.5198C323.231 79.3278 323.231 75.1838 323.231 71.0878C324.543 71.0878 325.871 71.0878 327.215 71.0878C328.559 71.0878 329.871 71.0878 331.151 71.0878C331.151 71.3118 331.151 71.5198 331.151 71.7118C331.151 71.9038 331.151 72.1118 331.151 72.3358C332.015 71.7278 332.975 71.2638 334.031 70.9438C335.119 70.5918 336.287 70.4158 337.535 70.4158C339.359 70.4158 340.959 70.8318 342.335 71.6638C343.743 72.4958 344.831 73.6958 345.599 75.2638C346.399 76.7998 346.799 78.6558 346.799 80.8318C346.799 83.3278 346.799 85.8398 346.799 88.3678C346.799 90.8958 346.799 93.4078 346.799 95.9038C345.519 95.9038 344.207 95.9038 342.863 95.9038C341.519 95.9038 340.191 95.9038 338.879 95.9038C338.879 93.5998 338.879 91.2638 338.879 88.8958C338.879 86.5278 338.879 84.1918 338.879 81.8878C338.879 80.6078 338.575 79.5838 337.967 78.8158C337.391 78.0158 336.463 77.6158 335.183 77.6158C333.903 77.6158 332.911 77.9838 332.207 78.7198C331.503 79.4558 331.151 80.5118 331.151 81.8878C331.151 84.1918 331.151 86.5278 331.151 88.8958C331.151 91.2638 331.151 93.5998 331.151 95.9038C329.871 95.9038 328.559 95.9038 327.215 95.9038C325.871 95.9038 324.543 95.9038 323.231 95.9038ZM370.644 88.2238C370.644 90.2078 370.084 91.8398 368.964 93.1198C367.876 94.3678 366.404 95.2798 364.548 95.8558C362.692 96.4318 360.612 96.6718 358.308 96.5758C356.036 96.5118 353.716 96.1438 351.348 95.4718C351.348 94.2558 351.348 93.0078 351.348 91.7278C351.348 90.4478 351.348 89.1998 351.348 87.9838C352.692 88.5918 354.036 89.0718 355.38 89.4238C356.724 89.7438 357.94 89.9358 359.028 89.9998C360.116 90.0638 360.996 89.9838 361.668 89.7598C362.34 89.5038 362.676 89.0878 362.676 88.5118C362.676 88.0638 362.388 87.7118 361.812 87.4558C361.268 87.1998 360.548 86.9758 359.652 86.7838C358.756 86.5598 357.796 86.3038 356.772 86.0158C355.78 85.6958 354.836 85.2638 353.94 84.7198C353.044 84.1438 352.308 83.3918 351.732 82.4638C351.188 81.5038 350.916 80.2718 350.916 78.7678C350.916 76.9758 351.428 75.4558 352.452 74.2078C353.508 72.9278 354.916 71.9678 356.676 71.3278C358.436 70.6558 360.404 70.3198 362.58 70.3198C364.756 70.3198 366.98 70.6878 369.252 71.4238C369.252 72.6398 369.252 73.8878 369.252 75.1678C369.252 76.4478 369.252 77.6958 369.252 78.9118C367.46 78.0478 365.78 77.4718 364.212 77.1838C362.644 76.8958 361.38 76.8638 360.42 77.0878C359.46 77.2798 358.98 77.7118 358.98 78.3838C358.98 78.8318 359.252 79.1838 359.796 79.4398C360.372 79.6638 361.092 79.8718 361.956 80.0638C362.852 80.2558 363.796 80.5118 364.788 80.8318C365.812 81.1518 366.756 81.5998 367.62 82.1758C368.516 82.7198 369.236 83.4878 369.78 84.4798C370.356 85.4398 370.644 86.6878 370.644 88.2238ZM378.69 68.2558C377.762 68.2558 376.914 68.0318 376.146 67.5838C375.41 67.1358 374.818 66.5438 374.37 65.8078C373.922 65.0718 373.698 64.2558 373.698 63.3598C373.698 62.4638 373.922 61.6638 374.37 60.9598C374.818 60.2238 375.41 59.6318 376.146 59.1838C376.914 58.7358 377.762 58.5118 378.69 58.5118C379.586 58.5118 380.402 58.7358 381.138 59.1838C381.906 59.6318 382.514 60.2238 382.962 60.9598C383.41 61.6638 383.634 62.4638 383.634 63.3598C383.634 64.2558 383.41 65.0718 382.962 65.8078C382.514 66.5438 381.906 67.1358 381.138 67.5838C380.402 68.0318 379.586 68.2558 378.69 68.2558ZM374.706 95.9038C374.706 91.8078 374.706 87.6798 374.706 83.5198C374.706 79.3278 374.706 75.1838 374.706 71.0878C376.018 71.0878 377.346 71.0878 378.69 71.0878C380.034 71.0878 381.346 71.0878 382.626 71.0878C382.626 75.1838 382.626 79.3278 382.626 83.5198C382.626 87.6798 382.626 91.8078 382.626 95.9038C381.346 95.9038 380.034 95.9038 378.69 95.9038C377.346 95.9038 376.018 95.9038 374.706 95.9038ZM399.913 96.6718C398.057 96.6718 396.329 96.3518 394.729 95.7118C393.129 95.0398 391.737 94.1118 390.553 92.9278C389.369 91.7118 388.441 90.3038 387.769 88.7038C387.129 87.1038 386.809 85.3598 386.809 83.4718C386.809 81.5838 387.129 79.8398 387.769 78.2398C388.441 76.6398 389.369 75.2478 390.553 74.0638C391.737 72.8798 393.129 71.9678 394.729 71.3278C396.329 70.6558 398.057 70.3198 399.913 70.3198C401.801 70.3198 403.529 70.6558 405.097 71.3278C406.697 71.9678 408.089 72.8798 409.273 74.0638C410.457 75.2478 411.369 76.6398 412.009 78.2398C412.681 79.8398 413.017 81.5838 413.017 83.4718C413.017 85.3598 412.681 87.1038 412.009 88.7038C411.369 90.3038 410.457 91.7118 409.273 92.9278C408.089 94.1118 406.697 95.0398 405.097 95.7118C403.529 96.3518 401.801 96.6718 399.913 96.6718ZM399.913 89.5198C401.481 89.5198 402.729 88.9598 403.657 87.8398C404.617 86.6878 405.097 85.2318 405.097 83.4718C405.097 81.6798 404.617 80.2398 403.657 79.1518C402.729 78.0318 401.481 77.4718 399.913 77.4718C398.345 77.4718 397.081 78.0318 396.121 79.1518C395.193 80.2398 394.729 81.6798 394.729 83.4718C394.729 85.2318 395.193 86.6878 396.121 87.8398C397.081 88.9598 398.345 89.5198 399.913 89.5198ZM416.934 95.9038C416.934 91.8078 416.934 87.6798 416.934 83.5198C416.934 79.3278 416.934 75.1838 416.934 71.0878C418.246 71.0878 419.574 71.0878 420.918 71.0878C422.262 71.0878 423.574 71.0878 424.854 71.0878C424.854 71.3118 424.854 71.5198 424.854 71.7118C424.854 71.9038 424.854 72.1118 424.854 72.3358C425.718 71.7278 426.678 71.2638 427.734 70.9438C428.822 70.5918 429.99 70.4158 431.238 70.4158C433.062 70.4158 434.662 70.8318 436.038 71.6638C437.446 72.4958 438.534 73.6958 439.302 75.2638C440.102 76.7998 440.502 78.6558 440.502 80.8318C440.502 83.3278 440.502 85.8398 440.502 88.3678C440.502 90.8958 440.502 93.4078 440.502 95.9038C439.222 95.9038 437.91 95.9038 436.566 95.9038C435.222 95.9038 433.894 95.9038 432.582 95.9038C432.582 93.5998 432.582 91.2638 432.582 88.8958C432.582 86.5278 432.582 84.1918 432.582 81.8878C432.582 80.6078 432.278 79.5838 431.67 78.8158C431.094 78.0158 430.166 77.6158 428.886 77.6158C427.606 77.6158 426.614 77.9838 425.91 78.7198C425.206 79.4558 424.854 80.5118 424.854 81.8878C424.854 84.1918 424.854 86.5278 424.854 88.8958C424.854 91.2638 424.854 93.5998 424.854 95.9038C423.574 95.9038 422.262 95.9038 420.918 95.9038C419.574 95.9038 418.246 95.9038 416.934 95.9038ZM464.348 88.2238C464.348 90.2078 463.788 91.8398 462.668 93.1198C461.58 94.3678 460.108 95.2798 458.252 95.8558C456.396 96.4318 454.316 96.6718 452.012 96.5758C449.74 96.5118 447.42 96.1438 445.052 95.4718C445.052 94.2558 445.052 93.0078 445.052 91.7278C445.052 90.4478 445.052 89.1998 445.052 87.9838C446.396 88.5918 447.74 89.0718 449.084 89.4238C450.428 89.7438 451.644 89.9358 452.732 89.9998C453.82 90.0638 454.7 89.9838 455.372 89.7598C456.044 89.5038 456.38 89.0878 456.38 88.5118C456.38 88.0638 456.092 87.7118 455.516 87.4558C454.972 87.1998 454.252 86.9758 453.356 86.7838C452.46 86.5598 451.5 86.3038 450.476 86.0158C449.484 85.6958 448.54 85.2638 447.644 84.7198C446.748 84.1438 446.012 83.3918 445.436 82.4638C444.892 81.5038 444.62 80.2718 444.62 78.7678C444.62 76.9758 445.132 75.4558 446.156 74.2078C447.212 72.9278 448.62 71.9678 450.38 71.3278C452.14 70.6558 454.108 70.3198 456.284 70.3198C458.46 70.3198 460.684 70.6878 462.956 71.4238C462.956 72.6398 462.956 73.8878 462.956 75.1678C462.956 76.4478 462.956 77.6958 462.956 78.9118C461.164 78.0478 459.484 77.4718 457.916 77.1838C456.348 76.8958 455.084 76.8638 454.124 77.0878C453.164 77.2798 452.684 77.7118 452.684 78.3838C452.684 78.8318 452.956 79.1838 453.5 79.4398C454.076 79.6638 454.796 79.8718 455.66 80.0638C456.556 80.2558 457.5 80.5118 458.492 80.8318C459.516 81.1518 460.46 81.5998 461.324 82.1758C462.22 82.7198 462.94 83.4878 463.484 84.4798C464.06 85.4398 464.348 86.6878 464.348 88.2238ZM1.20006 155.904C1.20006 151.808 1.20006 147.68 1.20006 143.52C1.20006 139.328 1.20006 135.184 1.20006 131.088C2.51206 131.088 3.84006 131.088 5.18406 131.088C6.52806 131.088 7.84006 131.088 9.12006 131.088C9.12006 131.312 9.12006 131.52 9.12006 131.712C9.12006 131.904 9.12006 132.112 9.12006 132.336C9.95206 131.728 10.8801 131.264 11.9041 130.944C12.9281 130.592 13.9841 130.416 15.0721 130.416C16.2561 130.416 17.3441 130.624 18.3361 131.04C19.3281 131.424 20.1761 132 20.8801 132.768C21.9041 132.032 23.0561 131.456 24.3361 131.04C25.6481 130.624 26.9921 130.416 28.3681 130.416C30.3201 130.416 32.0001 130.816 33.4081 131.616C34.8481 132.416 35.9521 133.552 36.7201 135.024C37.5201 136.496 37.9201 138.272 37.9201 140.352C37.9201 142.912 37.9201 145.504 37.9201 148.128C37.9201 150.752 37.9201 153.344 37.9201 155.904C36.6401 155.904 35.3281 155.904 33.9841 155.904C32.6401 155.904 31.3121 155.904 30.0001 155.904C30.0001 153.504 30.0001 151.072 30.0001 148.608C30.0001 146.144 30.0001 143.712 30.0001 141.312C30.0001 140.224 29.7441 139.344 29.2321 138.672C28.7521 137.968 27.9681 137.616 26.8801 137.616C25.8241 137.616 24.9921 137.952 24.3841 138.624C23.8081 139.264 23.5201 140.16 23.5201 141.312C23.5201 143.712 23.5201 146.144 23.5201 148.608C23.5201 151.072 23.5201 153.504 23.5201 155.904C22.2401 155.904 20.9281 155.904 19.5841 155.904C18.2401 155.904 16.9121 155.904 15.6001 155.904C15.6001 153.504 15.6001 151.072 15.6001 148.608C15.6001 146.144 15.6001 143.712 15.6001 141.312C15.6001 140.224 15.3441 139.344 14.8321 138.672C14.3521 137.968 13.5681 137.616 12.4801 137.616C11.4241 137.616 10.5921 137.952 9.98406 138.624C9.40806 139.264 9.12006 140.16 9.12006 141.312C9.12006 143.712 9.12006 146.144 9.12006 148.608C9.12006 151.072 9.12006 153.504 9.12006 155.904C7.84006 155.904 6.52806 155.904 5.18406 155.904C3.84006 155.904 2.51206 155.904 1.20006 155.904ZM66.0091 131.088C66.0091 135.184 66.0091 139.328 66.0091 143.52C66.0091 147.68 66.0091 151.808 66.0091 155.904C64.7291 155.904 63.4171 155.904 62.0731 155.904C60.7291 155.904 59.4011 155.904 58.0891 155.904C58.0891 155.68 58.0891 155.472 58.0891 155.28C58.0891 155.088 58.0891 154.88 58.0891 154.656C57.2251 155.264 56.2491 155.728 55.1611 156.048C54.1051 156.4 52.9531 156.576 51.7051 156.576C49.8811 156.576 48.2651 156.16 46.8571 155.328C45.4811 154.496 44.3931 153.296 43.5931 151.728C42.8251 150.16 42.4411 148.304 42.4411 146.16C42.4411 143.664 42.4411 141.152 42.4411 138.624C42.4411 136.096 42.4411 133.584 42.4411 131.088C43.7531 131.088 45.0811 131.088 46.4251 131.088C47.7691 131.088 49.0811 131.088 50.3611 131.088C50.3611 133.392 50.3611 135.728 50.3611 138.096C50.3611 140.464 50.3611 142.8 50.3611 145.104C50.3611 146.384 50.6491 147.424 51.2251 148.224C51.8331 148.992 52.7771 149.376 54.0571 149.376C55.3371 149.376 56.3291 149.008 57.0331 148.272C57.7371 147.536 58.0891 146.48 58.0891 145.104C58.0891 142.8 58.0891 140.464 58.0891 138.096C58.0891 135.728 58.0891 133.392 58.0891 131.088C59.4011 131.088 60.7291 131.088 62.0731 131.088C63.4171 131.088 64.7291 131.088 66.0091 131.088ZM90.2382 148.224C90.2382 150.208 89.6782 151.84 88.5582 153.12C87.4702 154.368 85.9982 155.28 84.1422 155.856C82.2862 156.432 80.2062 156.672 77.9022 156.576C75.6302 156.512 73.3102 156.144 70.9422 155.472C70.9422 154.256 70.9422 153.008 70.9422 151.728C70.9422 150.448 70.9422 149.2 70.9422 147.984C72.2862 148.592 73.6302 149.072 74.9742 149.424C76.3182 149.744 77.5342 149.936 78.6222 150C79.7102 150.064 80.5902 149.984 81.2622 149.76C81.9342 149.504 82.2702 149.088 82.2702 148.512C82.2702 148.064 81.9822 147.712 81.4062 147.456C80.8622 147.2 80.1422 146.976 79.2462 146.784C78.3502 146.56 77.3902 146.304 76.3662 146.016C75.3742 145.696 74.4302 145.264 73.5342 144.72C72.6382 144.144 71.9022 143.392 71.3262 142.464C70.7822 141.504 70.5102 140.272 70.5102 138.768C70.5102 136.976 71.0222 135.456 72.0462 134.208C73.1022 132.928 74.5102 131.968 76.2702 131.328C78.0302 130.656 79.9982 130.32 82.1742 130.32C84.3502 130.32 86.5742 130.688 88.8462 131.424C88.8462 132.64 88.8462 133.888 88.8462 135.168C88.8462 136.448 88.8462 137.696 88.8462 138.912C87.0542 138.048 85.3742 137.472 83.8062 137.184C82.2382 136.896 80.9742 136.864 80.0142 137.088C79.0542 137.28 78.5742 137.712 78.5742 138.384C78.5742 138.832 78.8462 139.184 79.3902 139.44C79.9662 139.664 80.6862 139.872 81.5502 140.064C82.4462 140.256 83.3902 140.512 84.3822 140.832C85.4062 141.152 86.3502 141.6 87.2142 142.176C88.1102 142.72 88.8302 143.488 89.3742 144.48C89.9502 145.44 90.2382 146.688 90.2382 148.224ZM98.2834 128.256C97.3554 128.256 96.5074 128.032 95.7394 127.584C95.0034 127.136 94.4114 126.544 93.9634 125.808C93.5154 125.072 93.2914 124.256 93.2914 123.36C93.2914 122.464 93.5154 121.664 93.9634 120.96C94.4114 120.224 95.0034 119.632 95.7394 119.184C96.5074 118.736 97.3554 118.512 98.2834 118.512C99.1794 118.512 99.9954 118.736 100.731 119.184C101.499 119.632 102.107 120.224 102.555 120.96C103.003 121.664 103.227 122.464 103.227 123.36C103.227 124.256 103.003 125.072 102.555 125.808C102.107 126.544 101.499 127.136 100.731 127.584C99.9954 128.032 99.1794 128.256 98.2834 128.256ZM94.2994 155.904C94.2994 151.808 94.2994 147.68 94.2994 143.52C94.2994 139.328 94.2994 135.184 94.2994 131.088C95.6114 131.088 96.9394 131.088 98.2834 131.088C99.6274 131.088 100.939 131.088 102.219 131.088C102.219 135.184 102.219 139.328 102.219 143.52C102.219 147.68 102.219 151.808 102.219 155.904C100.939 155.904 99.6274 155.904 98.2834 155.904C96.9394 155.904 95.6114 155.904 94.2994 155.904ZM106.403 143.472C106.403 141.04 106.899 138.912 107.891 137.088C108.883 135.232 110.259 133.744 112.019 132.624C113.779 131.504 115.827 130.832 118.163 130.608C120.499 130.352 122.995 130.624 125.651 131.424C125.651 132.64 125.651 133.872 125.651 135.12C125.651 136.368 125.651 137.6 125.651 138.816C123.795 137.92 122.019 137.504 120.323 137.568C118.627 137.632 117.235 138.16 116.147 139.152C115.059 140.112 114.515 141.552 114.515 143.472C114.515 145.392 115.059 146.848 116.147 147.84C117.235 148.8 118.627 149.312 120.323 149.376C122.019 149.408 123.795 148.992 125.651 148.128C125.651 149.344 125.651 150.576 125.651 151.824C125.651 153.072 125.651 154.304 125.651 155.52C122.995 156.32 120.499 156.592 118.163 156.336C115.827 156.112 113.779 155.44 112.019 154.32C110.259 153.2 108.883 151.728 107.891 149.904C106.899 148.048 106.403 145.904 106.403 143.472ZM146.901 155.904C146.901 155.648 146.901 155.408 146.901 155.184C146.901 154.928 146.901 154.688 146.901 154.464C146.101 155.136 145.189 155.648 144.165 156C143.173 156.384 142.101 156.576 140.949 156.576C139.317 156.576 137.781 156.272 136.341 155.664C134.901 155.024 133.621 154.128 132.501 152.976C131.413 151.792 130.549 150.4 129.909 148.8C129.301 147.2 128.997 145.424 128.997 143.472C128.997 141.488 129.301 139.696 129.909 138.096C130.549 136.496 131.413 135.136 132.501 134.016C133.621 132.864 134.901 131.984 136.341 131.376C137.781 130.736 139.301 130.416 140.901 130.416C142.053 130.416 143.141 130.608 144.165 130.992C145.189 131.344 146.101 131.84 146.901 132.48C146.901 132.224 146.901 131.984 146.901 131.76C146.901 131.536 146.901 131.312 146.901 131.088C148.213 131.088 149.541 131.088 150.885 131.088C152.229 131.088 153.541 131.088 154.821 131.088C154.821 135.184 154.821 139.328 154.821 143.52C154.821 147.68 154.821 151.808 154.821 155.904C153.541 155.904 152.229 155.904 150.885 155.904C149.541 155.904 148.213 155.904 146.901 155.904ZM142.005 149.568C143.541 149.568 144.773 149.008 145.701 147.888C146.629 146.768 147.093 145.296 147.093 143.472C147.093 141.648 146.629 140.192 145.701 139.104C144.773 137.984 143.541 137.424 142.005 137.424C140.437 137.424 139.189 137.968 138.261 139.056C137.365 140.144 136.917 141.616 136.917 143.472C136.917 145.328 137.365 146.816 138.261 147.936C139.189 149.024 140.437 149.568 142.005 149.568ZM160.346 155.904C160.346 150.112 160.346 144.272 160.346 138.384C160.346 132.496 160.346 126.656 160.346 120.864C161.658 120.864 162.986 120.864 164.33 120.864C165.674 120.864 166.986 120.864 168.266 120.864C168.266 126.656 168.266 132.496 168.266 138.384C168.266 144.272 168.266 150.112 168.266 155.904C166.986 155.904 165.674 155.904 164.33 155.904C162.986 155.904 161.658 155.904 160.346 155.904ZM207.2 151.872C207.2 154.592 206.608 156.864 205.424 158.688C204.272 160.512 202.688 161.872 200.672 162.768C198.656 163.696 196.352 164.176 193.76 164.208C191.2 164.24 188.496 163.856 185.648 163.056C185.648 161.808 185.648 160.544 185.648 159.264C185.648 158.016 185.648 156.768 185.648 155.52C188.176 156.512 190.464 157.008 192.512 157.008C194.56 157.04 196.176 156.656 197.36 155.856C198.576 155.024 199.184 153.888 199.184 152.448C199.184 152.288 199.184 152.144 199.184 152.016C199.184 151.856 199.184 151.712 199.184 151.584C198.384 152.192 197.456 152.672 196.4 153.024C195.344 153.376 194.208 153.552 192.992 153.552C190.976 153.552 189.168 153.088 187.568 152.16C186 151.2 184.768 149.888 183.872 148.224C182.976 146.528 182.528 144.56 182.528 142.32C182.528 140.592 182.816 139.008 183.392 137.568C183.968 136.128 184.768 134.88 185.792 133.824C186.816 132.768 187.984 131.968 189.296 131.424C190.608 130.848 191.984 130.56 193.424 130.56C194.576 130.56 195.648 130.72 196.64 131.04C197.632 131.36 198.512 131.792 199.28 132.336C199.28 132.112 199.28 131.904 199.28 131.712C199.28 131.52 199.28 131.312 199.28 131.088C200.592 131.088 201.92 131.088 203.264 131.088C204.608 131.088 205.92 131.088 207.2 131.088C207.2 134.512 207.2 137.984 207.2 141.504C207.2 144.992 207.2 148.448 207.2 151.872ZM194.96 146.688C196.304 146.688 197.376 146.272 198.176 145.44C199.008 144.576 199.424 143.472 199.424 142.128C199.424 140.752 199.008 139.632 198.176 138.768C197.376 137.904 196.304 137.472 194.96 137.472C193.552 137.472 192.432 137.904 191.6 138.768C190.768 139.6 190.352 140.72 190.352 142.128C190.352 143.504 190.768 144.608 191.6 145.44C192.432 146.272 193.552 146.688 194.96 146.688ZM233.826 154.752C231.618 155.68 229.426 156.256 227.25 156.48C225.074 156.704 223.01 156.576 221.058 156.096C219.138 155.648 217.426 154.864 215.922 153.744C214.418 152.624 213.234 151.2 212.37 149.472C211.538 147.744 211.122 145.744 211.122 143.472C211.122 141.584 211.426 139.856 212.034 138.288C212.674 136.688 213.57 135.296 214.722 134.112C215.874 132.896 217.234 131.968 218.802 131.328C220.37 130.656 222.082 130.32 223.938 130.32C225.602 130.32 227.106 130.592 228.45 131.136C229.794 131.68 230.962 132.448 231.954 133.44C232.946 134.4 233.746 135.552 234.354 136.896C234.962 138.24 235.346 139.712 235.506 141.312C235.666 142.912 235.57 144.608 235.218 146.4C232.594 146.4 229.954 146.4 227.298 146.4C224.642 146.4 222.002 146.4 219.378 146.4C219.986 147.616 220.994 148.48 222.402 148.992C223.842 149.504 225.538 149.664 227.49 149.472C229.474 149.28 231.586 148.768 233.826 147.936C233.826 149.056 233.826 150.192 233.826 151.344C233.826 152.496 233.826 153.632 233.826 154.752ZM223.746 137.424C222.818 137.424 221.954 137.68 221.154 138.192C220.386 138.704 219.794 139.488 219.378 140.544C220.818 140.544 222.258 140.544 223.698 140.544C225.17 140.544 226.626 140.544 228.066 140.544C227.682 139.456 227.106 138.672 226.338 138.192C225.602 137.68 224.738 137.424 223.746 137.424ZM239.7 155.904C239.7 151.808 239.7 147.68 239.7 143.52C239.7 139.328 239.7 135.184 239.7 131.088C241.012 131.088 242.34 131.088 243.684 131.088C245.028 131.088 246.34 131.088 247.62 131.088C247.62 131.312 247.62 131.52 247.62 131.712C247.62 131.904 247.62 132.112 247.62 132.336C248.484 131.728 249.444 131.264 250.5 130.944C251.588 130.592 252.756 130.416 254.004 130.416C255.828 130.416 257.428 130.832 258.804 131.664C260.212 132.496 261.3 133.696 262.068 135.264C262.868 136.8 263.268 138.656 263.268 140.832C263.268 143.328 263.268 145.84 263.268 148.368C263.268 150.896 263.268 153.408 263.268 155.904C261.988 155.904 260.676 155.904 259.332 155.904C257.988 155.904 256.66 155.904 255.348 155.904C255.348 153.6 255.348 151.264 255.348 148.896C255.348 146.528 255.348 144.192 255.348 141.888C255.348 140.608 255.044 139.584 254.436 138.816C253.86 138.016 252.932 137.616 251.652 137.616C250.372 137.616 249.38 137.984 248.676 138.72C247.972 139.456 247.62 140.512 247.62 141.888C247.62 144.192 247.62 146.528 247.62 148.896C247.62 151.264 247.62 153.6 247.62 155.904C246.34 155.904 245.028 155.904 243.684 155.904C242.34 155.904 241.012 155.904 239.7 155.904ZM289.513 154.752C287.305 155.68 285.113 156.256 282.937 156.48C280.761 156.704 278.697 156.576 276.745 156.096C274.825 155.648 273.113 154.864 271.609 153.744C270.105 152.624 268.921 151.2 268.057 149.472C267.225 147.744 266.809 145.744 266.809 143.472C266.809 141.584 267.113 139.856 267.721 138.288C268.361 136.688 269.257 135.296 270.409 134.112C271.561 132.896 272.921 131.968 274.489 131.328C276.057 130.656 277.769 130.32 279.625 130.32C281.289 130.32 282.793 130.592 284.137 131.136C285.481 131.68 286.649 132.448 287.641 133.44C288.633 134.4 289.433 135.552 290.041 136.896C290.649 138.24 291.033 139.712 291.193 141.312C291.353 142.912 291.257 144.608 290.905 146.4C288.281 146.4 285.641 146.4 282.985 146.4C280.329 146.4 277.689 146.4 275.065 146.4C275.673 147.616 276.681 148.48 278.089 148.992C279.529 149.504 281.225 149.664 283.177 149.472C285.161 149.28 287.273 148.768 289.513 147.936C289.513 149.056 289.513 150.192 289.513 151.344C289.513 152.496 289.513 153.632 289.513 154.752ZM279.433 137.424C278.505 137.424 277.641 137.68 276.841 138.192C276.073 138.704 275.481 139.488 275.065 140.544C276.505 140.544 277.945 140.544 279.385 140.544C280.857 140.544 282.313 140.544 283.753 140.544C283.369 139.456 282.793 138.672 282.025 138.192C281.289 137.68 280.425 137.424 279.433 137.424ZM314.348 148.224C314.348 150.208 313.788 151.84 312.668 153.12C311.58 154.368 310.108 155.28 308.252 155.856C306.396 156.432 304.316 156.672 302.012 156.576C299.74 156.512 297.42 156.144 295.052 155.472C295.052 154.256 295.052 153.008 295.052 151.728C295.052 150.448 295.052 149.2 295.052 147.984C296.396 148.592 297.74 149.072 299.084 149.424C300.428 149.744 301.644 149.936 302.732 150C303.82 150.064 304.7 149.984 305.372 149.76C306.044 149.504 306.38 149.088 306.38 148.512C306.38 148.064 306.092 147.712 305.516 147.456C304.972 147.2 304.252 146.976 303.356 146.784C302.46 146.56 301.5 146.304 300.476 146.016C299.484 145.696 298.54 145.264 297.644 144.72C296.748 144.144 296.012 143.392 295.436 142.464C294.892 141.504 294.62 140.272 294.62 138.768C294.62 136.976 295.132 135.456 296.156 134.208C297.212 132.928 298.62 131.968 300.38 131.328C302.14 130.656 304.108 130.32 306.284 130.32C308.46 130.32 310.684 130.688 312.956 131.424C312.956 132.64 312.956 133.888 312.956 135.168C312.956 136.448 312.956 137.696 312.956 138.912C311.164 138.048 309.484 137.472 307.916 137.184C306.348 136.896 305.084 136.864 304.124 137.088C303.164 137.28 302.684 137.712 302.684 138.384C302.684 138.832 302.956 139.184 303.5 139.44C304.076 139.664 304.796 139.872 305.66 140.064C306.556 140.256 307.5 140.512 308.492 140.832C309.516 141.152 310.46 141.6 311.324 142.176C312.22 142.72 312.94 143.488 313.484 144.48C314.06 145.44 314.348 146.688 314.348 148.224Z" fill="#E94812"/>
<path d="M92.6697 18.1918C92.6697 17.0078 92.6697 15.8238 92.6697 14.6398C92.6697 13.4558 92.6697 12.2718 92.6697 11.0878C93.3097 11.0878 93.9497 11.0878 94.5897 11.0878C95.2617 11.0878 95.9177 11.0878 96.5577 11.0878C96.5577 10.9278 96.5577 10.7838 96.5577 10.6558C96.5577 10.5278 96.5577 10.3998 96.5577 10.2718C96.5577 8.12781 96.9897 6.33581 97.8537 4.89581C98.7497 3.42381 99.9177 2.30381 101.358 1.53581C102.83 0.735806 104.43 0.287807 106.158 0.191808C107.918 0.0638075 109.662 0.287807 111.39 0.863808C111.39 2.04781 111.39 3.26381 111.39 4.51181C111.39 5.75981 111.39 6.99181 111.39 8.20781C109.47 7.56781 107.838 7.43981 106.494 7.82381C105.15 8.20781 104.478 9.03981 104.478 10.3198C104.478 10.4478 104.478 10.5758 104.478 10.7038C104.478 10.8318 104.478 10.9598 104.478 11.0878C105.47 11.0878 106.462 11.0878 107.454 11.0878C108.446 11.0878 109.438 11.0878 110.43 11.0878C110.43 12.2718 110.43 13.4558 110.43 14.6398C110.43 15.8238 110.43 17.0078 110.43 18.1918C109.438 18.1918 108.446 18.1918 107.454 18.1918C106.462 18.1918 105.47 18.1918 104.478 18.1918C104.478 21.1038 104.478 24.0478 104.478 27.0238C104.478 29.9998 104.478 32.9598 104.478 35.9038C103.198 35.9038 101.886 35.9038 100.542 35.9038C99.1977 35.9038 97.8697 35.9038 96.5577 35.9038C96.5577 32.9598 96.5577 29.9998 96.5577 27.0238C96.5577 24.0478 96.5577 21.1038 96.5577 18.1918C95.9177 18.1918 95.2617 18.1918 94.5897 18.1918C93.9497 18.1918 93.3097 18.1918 92.6697 18.1918ZM114.737 35.9038C114.737 30.1118 114.737 24.2718 114.737 18.3838C114.737 12.4958 114.737 6.65581 114.737 0.863808C116.049 0.863808 117.377 0.863808 118.721 0.863808C120.065 0.863808 121.377 0.863808 122.657 0.863808C122.657 6.65581 122.657 12.4958 122.657 18.3838C122.657 24.2718 122.657 30.1118 122.657 35.9038C121.377 35.9038 120.065 35.9038 118.721 35.9038C117.377 35.9038 116.049 35.9038 114.737 35.9038ZM139.944 36.6718C138.088 36.6718 136.36 36.3518 134.76 35.7118C133.16 35.0398 131.768 34.1118 130.584 32.9278C129.4 31.7118 128.472 30.3038 127.8 28.7038C127.16 27.1038 126.84 25.3598 126.84 23.4718C126.84 21.5838 127.16 19.8398 127.8 18.2398C128.472 16.6398 129.4 15.2478 130.584 14.0638C131.768 12.8798 133.16 11.9678 134.76 11.3278C136.36 10.6558 138.088 10.3198 139.944 10.3198C141.832 10.3198 143.56 10.6558 145.128 11.3278C146.728 11.9678 148.12 12.8798 149.304 14.0638C150.488 15.2478 151.4 16.6398 152.04 18.2398C152.712 19.8398 153.048 21.5838 153.048 23.4718C153.048 25.3598 152.712 27.1038 152.04 28.7038C151.4 30.3038 150.488 31.7118 149.304 32.9278C148.12 34.1118 146.728 35.0398 145.128 35.7118C143.56 36.3518 141.832 36.6718 139.944 36.6718ZM139.944 29.5198C141.512 29.5198 142.76 28.9598 143.688 27.8398C144.648 26.6878 145.128 25.2318 145.128 23.4718C145.128 21.6798 144.648 20.2398 143.688 19.1518C142.76 18.0318 141.512 17.4718 139.944 17.4718C138.376 17.4718 137.112 18.0318 136.152 19.1518C135.224 20.2398 134.76 21.6798 134.76 23.4718C134.76 25.2318 135.224 26.6878 136.152 27.8398C137.112 28.9598 138.376 29.5198 139.944 29.5198ZM161.537 35.9038C160.289 31.8078 159.025 27.6798 157.745 23.5198C156.497 19.3278 155.249 15.1838 154.001 11.0878C155.313 11.0878 156.641 11.0878 157.985 11.0878C159.361 11.0878 160.705 11.0878 162.017 11.0878C162.657 13.3278 163.297 15.5998 163.937 17.9038C164.609 20.1758 165.249 22.4318 165.857 24.6718C166.401 22.4318 166.945 20.1758 167.489 17.9038C168.065 15.5998 168.609 13.3278 169.121 11.0878C170.241 11.0878 171.361 11.0878 172.481 11.0878C173.633 11.0878 174.769 11.0878 175.889 11.0878C176.433 13.3278 176.977 15.6158 177.521 17.9518C178.097 20.2558 178.641 22.5438 179.153 24.8158C179.793 22.5438 180.433 20.2558 181.073 17.9518C181.745 15.6158 182.385 13.3278 182.993 11.0878C184.305 11.0878 185.617 11.0878 186.929 11.0878C188.273 11.0878 189.585 11.0878 190.865 11.0878C189.617 15.1838 188.353 19.3278 187.073 23.5198C185.825 27.6798 184.577 31.8078 183.329 35.9038C182.049 35.9038 180.753 35.9038 179.441 35.9038C178.129 35.9038 176.833 35.9038 175.553 35.9038C175.041 33.9198 174.513 31.9198 173.969 29.9038C173.457 27.8878 172.945 25.9038 172.433 23.9518C171.921 25.9038 171.393 27.8878 170.849 29.9038C170.337 31.9198 169.825 33.9198 169.313 35.9038C168.033 35.9038 166.737 35.9038 165.425 35.9038C164.113 35.9038 162.817 35.9038 161.537 35.9038ZM214.56 34.7518C212.352 35.6798 210.16 36.2558 207.984 36.4798C205.808 36.7038 203.744 36.5758 201.792 36.0958C199.872 35.6478 198.16 34.8638 196.656 33.7438C195.152 32.6238 193.968 31.1998 193.104 29.4718C192.272 27.7438 191.856 25.7438 191.856 23.4718C191.856 21.5838 192.16 19.8558 192.768 18.2878C193.408 16.6878 194.304 15.2958 195.456 14.1118C196.608 12.8958 197.968 11.9678 199.536 11.3278C201.104 10.6558 202.816 10.3198 204.672 10.3198C206.336 10.3198 207.84 10.5918 209.184 11.1358C210.528 11.6798 211.696 12.4478 212.688 13.4398C213.68 14.3998 214.48 15.5518 215.088 16.8958C215.696 18.2398 216.08 19.7118 216.24 21.3118C216.4 22.9118 216.304 24.6078 215.952 26.3998C213.328 26.3998 210.688 26.3998 208.032 26.3998C205.376 26.3998 202.736 26.3998 200.112 26.3998C200.72 27.6158 201.728 28.4798 203.136 28.9918C204.576 29.5038 206.272 29.6638 208.224 29.4718C210.208 29.2798 212.32 28.7678 214.56 27.9358C214.56 29.0558 214.56 30.1918 214.56 31.3438C214.56 32.4958 214.56 33.6318 214.56 34.7518ZM204.48 17.4238C203.552 17.4238 202.688 17.6798 201.888 18.1918C201.12 18.7038 200.528 19.4878 200.112 20.5438C201.552 20.5438 202.992 20.5438 204.432 20.5438C205.904 20.5438 207.36 20.5438 208.8 20.5438C208.416 19.4558 207.84 18.6718 207.072 18.1918C206.336 17.6798 205.472 17.4238 204.48 17.4238ZM220.434 35.9038C220.434 31.8078 220.434 27.6798 220.434 23.5198C220.434 19.3278 220.434 15.1838 220.434 11.0878C221.746 11.0878 223.074 11.0878 224.418 11.0878C225.762 11.0878 227.074 11.0878 228.354 11.0878C228.354 11.3118 228.354 11.5358 228.354 11.7598C228.354 11.9838 228.354 12.2078 228.354 12.4318C229.346 11.7278 230.466 11.1998 231.714 10.8478C232.962 10.4958 234.322 10.3998 235.794 10.5598C235.794 11.8398 235.794 13.1358 235.794 14.4478C235.794 15.7598 235.794 17.0558 235.794 18.3358C233.266 17.9838 231.394 18.2078 230.178 19.0078C228.962 19.7758 228.354 21.0398 228.354 22.7998C228.354 24.9438 228.354 27.1198 228.354 29.3278C228.354 31.5358 228.354 33.7278 228.354 35.9038C227.074 35.9038 225.762 35.9038 224.418 35.9038C223.074 35.9038 221.746 35.9038 220.434 35.9038ZM257.37 43.5838C256.09 43.5838 254.778 43.5838 253.434 43.5838C252.09 43.5838 250.762 43.5838 249.45 43.5838C249.45 38.2398 249.45 32.8318 249.45 27.3598C249.45 21.8558 249.45 16.4318 249.45 11.0878C250.762 11.0878 252.09 11.0878 253.434 11.0878C254.778 11.0878 256.09 11.0878 257.37 11.0878C257.37 11.3118 257.37 11.5358 257.37 11.7598C257.37 11.9838 257.37 12.2238 257.37 12.4798C258.17 11.8398 259.082 11.3438 260.106 10.9918C261.13 10.6078 262.218 10.4158 263.37 10.4158C264.97 10.4158 266.49 10.7358 267.93 11.3758C269.37 11.9838 270.634 12.8638 271.722 14.0158C272.842 15.1678 273.706 16.5438 274.314 18.1438C274.954 19.7438 275.274 21.5198 275.274 23.4718C275.274 25.3918 274.954 27.1518 274.314 28.7518C273.706 30.3518 272.842 31.7438 271.722 32.9278C270.634 34.0798 269.37 34.9758 267.93 35.6158C266.49 36.2558 264.954 36.5758 263.322 36.5758C262.17 36.5758 261.082 36.3838 260.058 35.9998C259.066 35.6478 258.17 35.1358 257.37 34.4638C257.37 35.9678 257.37 37.4878 257.37 39.0238C257.37 40.5598 257.37 42.0798 257.37 43.5838ZM262.266 29.5678C263.834 29.5678 265.066 29.0238 265.962 27.9358C266.89 26.8158 267.354 25.3278 267.354 23.4718C267.354 21.6158 266.89 20.1438 265.962 19.0558C265.066 17.9678 263.834 17.4238 262.266 17.4238C260.73 17.4238 259.498 17.9838 258.57 19.1038C257.642 20.1918 257.178 21.6478 257.178 23.4718C257.178 25.2958 257.642 26.7678 258.57 27.8878C259.498 29.0078 260.73 29.5678 262.266 29.5678ZM295.776 35.9038C295.776 35.6478 295.776 35.4078 295.776 35.1838C295.776 34.9278 295.776 34.6878 295.776 34.4638C294.976 35.1358 294.064 35.6478 293.04 35.9998C292.048 36.3838 290.976 36.5758 289.824 36.5758C288.192 36.5758 286.656 36.2718 285.216 35.6638C283.776 35.0238 282.496 34.1278 281.376 32.9758C280.288 31.7918 279.424 30.3998 278.784 28.7998C278.176 27.1998 277.872 25.4238 277.872 23.4718C277.872 21.4878 278.176 19.6958 278.784 18.0958C279.424 16.4958 280.288 15.1358 281.376 14.0158C282.496 12.8638 283.776 11.9838 285.216 11.3758C286.656 10.7358 288.176 10.4158 289.776 10.4158C290.928 10.4158 292.016 10.6078 293.04 10.9918C294.064 11.3438 294.976 11.8398 295.776 12.4798C295.776 12.2238 295.776 11.9838 295.776 11.7598C295.776 11.5358 295.776 11.3118 295.776 11.0878C297.088 11.0878 298.416 11.0878 299.76 11.0878C301.104 11.0878 302.416 11.0878 303.696 11.0878C303.696 15.1838 303.696 19.3278 303.696 23.5198C303.696 27.6798 303.696 31.8078 303.696 35.9038C302.416 35.9038 301.104 35.9038 299.76 35.9038C298.416 35.9038 297.088 35.9038 295.776 35.9038ZM290.88 29.5678C292.416 29.5678 293.648 29.0078 294.576 27.8878C295.504 26.7678 295.968 25.2958 295.968 23.4718C295.968 21.6478 295.504 20.1918 294.576 19.1038C293.648 17.9838 292.416 17.4238 290.88 17.4238C289.312 17.4238 288.064 17.9678 287.136 19.0558C286.24 20.1438 285.792 21.6158 285.792 23.4718C285.792 25.3278 286.24 26.8158 287.136 27.9358C288.064 29.0238 289.312 29.5678 290.88 29.5678ZM308.981 35.9038C308.981 31.8078 308.981 27.6798 308.981 23.5198C308.981 19.3278 308.981 15.1838 308.981 11.0878C310.293 11.0878 311.621 11.0878 312.965 11.0878C314.309 11.0878 315.621 11.0878 316.901 11.0878C316.901 11.3118 316.901 11.5358 316.901 11.7598C316.901 11.9838 316.901 12.2078 316.901 12.4318C317.893 11.7278 319.013 11.1998 320.261 10.8478C321.509 10.4958 322.869 10.3998 324.341 10.5598C324.341 11.8398 324.341 13.1358 324.341 14.4478C324.341 15.7598 324.341 17.0558 324.341 18.3358C321.813 17.9838 319.941 18.2078 318.725 19.0078C317.509 19.7758 316.901 21.0398 316.901 22.7998C316.901 24.9438 316.901 27.1198 316.901 29.3278C316.901 31.5358 316.901 33.7278 316.901 35.9038C315.621 35.9038 314.309 35.9038 312.965 35.9038C311.621 35.9038 310.293 35.9038 308.981 35.9038ZM330.511 35.9038C330.511 32.9598 330.511 29.9998 330.511 27.0238C330.511 24.0478 330.511 21.1038 330.511 18.1918C329.871 18.1918 329.215 18.1918 328.543 18.1918C327.903 18.1918 327.263 18.1918 326.623 18.1918C326.623 17.0078 326.623 15.8238 326.623 14.6398C326.623 13.4558 326.623 12.2718 326.623 11.0878C327.263 11.0878 327.903 11.0878 328.543 11.0878C329.215 11.0878 329.871 11.0878 330.511 11.0878C330.511 9.96781 330.511 8.86381 330.511 7.77581C330.511 6.65581 330.511 5.55181 330.511 4.46381C331.823 4.46381 333.151 4.46381 334.495 4.46381C335.839 4.46381 337.151 4.46381 338.431 4.46381C338.431 5.55181 338.431 6.65581 338.431 7.77581C338.431 8.86381 338.431 9.96781 338.431 11.0878C339.167 11.0878 339.919 11.0878 340.687 11.0878C341.455 11.0878 342.207 11.0878 342.943 11.0878C342.943 12.2718 342.943 13.4558 342.943 14.6398C342.943 15.8238 342.943 17.0078 342.943 18.1918C342.207 18.1918 341.455 18.1918 340.687 18.1918C339.919 18.1918 339.167 18.1918 338.431 18.1918C338.431 21.1038 338.431 24.0478 338.431 27.0238C338.431 29.9998 338.431 32.9598 338.431 35.9038C337.151 35.9038 335.839 35.9038 334.495 35.9038C333.151 35.9038 331.823 35.9038 330.511 35.9038ZM365.723 28.2238C365.723 30.2078 365.163 31.8398 364.043 33.1198C362.955 34.3678 361.483 35.2798 359.627 35.8558C357.771 36.4318 355.691 36.6718 353.387 36.5758C351.115 36.5118 348.795 36.1438 346.427 35.4718C346.427 34.2558 346.427 33.0078 346.427 31.7278C346.427 30.4478 346.427 29.1998 346.427 27.9838C347.771 28.5918 349.115 29.0718 350.459 29.4238C351.803 29.7438 353.019 29.9358 354.107 29.9998C355.195 30.0638 356.075 29.9838 356.747 29.7598C357.419 29.5038 357.755 29.0878 357.755 28.5118C357.755 28.0638 357.467 27.7118 356.891 27.4558C356.347 27.1998 355.627 26.9758 354.731 26.7838C353.835 26.5598 352.875 26.3038 351.851 26.0158C350.859 25.6958 349.915 25.2638 349.019 24.7198C348.123 24.1438 347.387 23.3918 346.811 22.4638C346.267 21.5038 345.995 20.2718 345.995 18.7678C345.995 16.9758 346.507 15.4558 347.531 14.2078C348.587 12.9278 349.995 11.9678 351.755 11.3278C353.515 10.6558 355.483 10.3198 357.659 10.3198C359.835 10.3198 362.059 10.6878 364.331 11.4238C364.331 12.6398 364.331 13.8878 364.331 15.1678C364.331 16.4478 364.331 17.6958 364.331 18.9118C362.539 18.0478 360.859 17.4718 359.291 17.1838C357.723 16.8958 356.459 16.8638 355.499 17.0878C354.539 17.2798 354.059 17.7118 354.059 18.3838C354.059 18.8318 354.331 19.1838 354.875 19.4398C355.451 19.6638 356.171 19.8718 357.035 20.0638C357.931 20.2558 358.875 20.5118 359.867 20.8318C360.891 21.1518 361.835 21.5998 362.699 22.1758C363.595 22.7198 364.315 23.4878 364.859 24.4798C365.435 25.4398 365.723 26.6878 365.723 28.2238ZM382.214 35.9038C382.214 32.9598 382.214 29.9998 382.214 27.0238C382.214 24.0478 382.214 21.1038 382.214 18.1918C381.574 18.1918 380.918 18.1918 380.246 18.1918C379.606 18.1918 378.966 18.1918 378.326 18.1918C378.326 17.0078 378.326 15.8238 378.326 14.6398C378.326 13.4558 378.326 12.2718 378.326 11.0878C378.966 11.0878 379.606 11.0878 380.246 11.0878C380.918 11.0878 381.574 11.0878 382.214 11.0878C382.214 9.96781 382.214 8.86381 382.214 7.77581C382.214 6.65581 382.214 5.55181 382.214 4.46381C383.526 4.46381 384.854 4.46381 386.198 4.46381C387.542 4.46381 388.854 4.46381 390.134 4.46381C390.134 5.55181 390.134 6.65581 390.134 7.77581C390.134 8.86381 390.134 9.96781 390.134 11.0878C390.87 11.0878 391.622 11.0878 392.39 11.0878C393.158 11.0878 393.91 11.0878 394.646 11.0878C394.646 12.2718 394.646 13.4558 394.646 14.6398C394.646 15.8238 394.646 17.0078 394.646 18.1918C393.91 18.1918 393.158 18.1918 392.39 18.1918C391.622 18.1918 390.87 18.1918 390.134 18.1918C390.134 21.1038 390.134 24.0478 390.134 27.0238C390.134 29.9998 390.134 32.9598 390.134 35.9038C388.854 35.9038 387.542 35.9038 386.198 35.9038C384.854 35.9038 383.526 35.9038 382.214 35.9038ZM409.991 36.6718C408.135 36.6718 406.407 36.3518 404.807 35.7118C403.207 35.0398 401.815 34.1118 400.631 32.9278C399.447 31.7118 398.519 30.3038 397.847 28.7038C397.207 27.1038 396.887 25.3598 396.887 23.4718C396.887 21.5838 397.207 19.8398 397.847 18.2398C398.519 16.6398 399.447 15.2478 400.631 14.0638C401.815 12.8798 403.207 11.9678 404.807 11.3278C406.407 10.6558 408.135 10.3198 409.991 10.3198C411.879 10.3198 413.607 10.6558 415.175 11.3278C416.775 11.9678 418.167 12.8798 419.351 14.0638C420.535 15.2478 421.447 16.6398 422.087 18.2398C422.759 19.8398 423.095 21.5838 423.095 23.4718C423.095 25.3598 422.759 27.1038 422.087 28.7038C421.447 30.3038 420.535 31.7118 419.351 32.9278C418.167 34.1118 416.775 35.0398 415.175 35.7118C413.607 36.3518 411.879 36.6718 409.991 36.6718ZM409.991 29.5198C411.559 29.5198 412.807 28.9598 413.735 27.8398C414.695 26.6878 415.175 25.2318 415.175 23.4718C415.175 21.6798 414.695 20.2398 413.735 19.1518C412.807 18.0318 411.559 17.4718 409.991 17.4718C408.423 17.4718 407.159 18.0318 406.199 19.1518C405.271 20.2398 404.807 21.6798 404.807 23.4718C404.807 25.2318 405.271 26.6878 406.199 27.8398C407.159 28.9598 408.423 29.5198 409.991 29.5198ZM458.451 34.7518C456.243 35.6798 454.051 36.2558 451.875 36.4798C449.699 36.7038 447.635 36.5758 445.683 36.0958C443.763 35.6478 442.051 34.8638 440.547 33.7438C439.043 32.6238 437.859 31.1998 436.995 29.4718C436.163 27.7438 435.747 25.7438 435.747 23.4718C435.747 21.5838 436.051 19.8558 436.659 18.2878C437.299 16.6878 438.195 15.2958 439.347 14.1118C440.499 12.8958 441.859 11.9678 443.427 11.3278C444.995 10.6558 446.707 10.3198 448.563 10.3198C450.227 10.3198 451.731 10.5918 453.075 11.1358C454.419 11.6798 455.587 12.4478 456.579 13.4398C457.571 14.3998 458.371 15.5518 458.979 16.8958C459.587 18.2398 459.971 19.7118 460.131 21.3118C460.291 22.9118 460.195 24.6078 459.843 26.3998C457.219 26.3998 454.579 26.3998 451.923 26.3998C449.267 26.3998 446.627 26.3998 444.003 26.3998C444.611 27.6158 445.619 28.4798 447.027 28.9918C448.467 29.5038 450.163 29.6638 452.115 29.4718C454.099 29.2798 456.211 28.7678 458.451 27.9358C458.451 29.0558 458.451 30.1918 458.451 31.3438C458.451 32.4958 458.451 33.6318 458.451 34.7518ZM448.371 17.4238C447.443 17.4238 446.579 17.6798 445.779 18.1918C445.011 18.7038 444.419 19.4878 444.003 20.5438C445.443 20.5438 446.883 20.5438 448.323 20.5438C449.795 20.5438 451.251 20.5438 452.691 20.5438C452.307 19.4558 451.731 18.6718 450.963 18.1918C450.227 17.6798 449.363 17.4238 448.371 17.4238ZM461.84 11.0878C463.312 11.0878 464.784 11.0878 466.256 11.0878C467.728 11.0878 469.2 11.0878 470.672 11.0878C471.248 12.0478 471.84 13.0238 472.448 14.0158C473.056 14.9758 473.648 15.9358 474.224 16.8958C474.832 15.9358 475.44 14.9758 476.048 14.0158C476.656 13.0238 477.264 12.0478 477.872 11.0878C479.312 11.0878 480.768 11.0878 482.24 11.0878C483.712 11.0878 485.168 11.0878 486.608 11.0878C485.36 13.0398 484.08 15.0078 482.768 16.9918C481.488 18.9758 480.224 20.9598 478.976 22.9438C480.288 25.0878 481.616 27.2478 482.96 29.4238C484.304 31.5998 485.616 33.7598 486.896 35.9038C485.424 35.9038 483.952 35.9038 482.48 35.9038C481.008 35.9038 479.536 35.9038 478.064 35.9038C477.424 34.8158 476.768 33.7278 476.096 32.6398C475.456 31.5198 474.816 30.4158 474.176 29.3278C473.536 30.4158 472.864 31.5198 472.16 32.6398C471.488 33.7278 470.832 34.8158 470.192 35.9038C468.752 35.9038 467.296 35.9038 465.824 35.9038C464.352 35.9038 462.896 35.9038 461.456 35.9038C462.768 33.8238 464.096 31.7118 465.44 29.5678C466.784 27.3918 468.112 25.2638 469.424 23.1838C468.176 21.1998 466.912 19.1838 465.632 17.1358C464.352 15.0878 463.088 13.0718 461.84 11.0878ZM497.698 43.5838C496.418 43.5838 495.106 43.5838 493.762 43.5838C492.418 43.5838 491.09 43.5838 489.778 43.5838C489.778 38.2398 489.778 32.8318 489.778 27.3598C489.778 21.8558 489.778 16.4318 489.778 11.0878C491.09 11.0878 492.418 11.0878 493.762 11.0878C495.106 11.0878 496.418 11.0878 497.698 11.0878C497.698 11.3118 497.698 11.5358 497.698 11.7598C497.698 11.9838 497.698 12.2238 497.698 12.4798C498.498 11.8398 499.41 11.3438 500.434 10.9918C501.458 10.6078 502.546 10.4158 503.698 10.4158C505.298 10.4158 506.818 10.7358 508.258 11.3758C509.698 11.9838 510.962 12.8638 512.05 14.0158C513.17 15.1678 514.034 16.5438 514.642 18.1438C515.282 19.7438 515.602 21.5198 515.602 23.4718C515.602 25.3918 515.282 27.1518 514.642 28.7518C514.034 30.3518 513.17 31.7438 512.05 32.9278C510.962 34.0798 509.698 34.9758 508.258 35.6158C506.818 36.2558 505.282 36.5758 503.65 36.5758C502.498 36.5758 501.41 36.3838 500.386 35.9998C499.394 35.6478 498.498 35.1358 497.698 34.4638C497.698 35.9678 497.698 37.4878 497.698 39.0238C497.698 40.5598 497.698 42.0798 497.698 43.5838ZM502.594 29.5678C504.162 29.5678 505.394 29.0238 506.29 27.9358C507.218 26.8158 507.682 25.3278 507.682 23.4718C507.682 21.6158 507.218 20.1438 506.29 19.0558C505.394 17.9678 504.162 17.4238 502.594 17.4238C501.058 17.4238 499.826 17.9838 498.898 19.1038C497.97 20.1918 497.506 21.6478 497.506 23.4718C497.506 25.2958 497.97 26.7678 498.898 27.8878C499.826 29.0078 501.058 29.5678 502.594 29.5678ZM519.784 35.9038C519.784 30.1118 519.784 24.2718 519.784 18.3838C519.784 12.4958 519.784 6.65581 519.784 0.863808C521.096 0.863808 522.424 0.863808 523.768 0.863808C525.112 0.863808 526.424 0.863808 527.704 0.863808C527.704 6.65581 527.704 12.4958 527.704 18.3838C527.704 24.2718 527.704 30.1118 527.704 35.9038C526.424 35.9038 525.112 35.9038 523.768 35.9038C522.424 35.9038 521.096 35.9038 519.784 35.9038ZM544.991 36.6718C543.135 36.6718 541.407 36.3518 539.807 35.7118C538.207 35.0398 536.815 34.1118 535.631 32.9278C534.447 31.7118 533.519 30.3038 532.847 28.7038C532.207 27.1038 531.887 25.3598 531.887 23.4718C531.887 21.5838 532.207 19.8398 532.847 18.2398C533.519 16.6398 534.447 15.2478 535.631 14.0638C536.815 12.8798 538.207 11.9678 539.807 11.3278C541.407 10.6558 543.135 10.3198 544.991 10.3198C546.879 10.3198 548.607 10.6558 550.175 11.3278C551.775 11.9678 553.167 12.8798 554.351 14.0638C555.535 15.2478 556.447 16.6398 557.087 18.2398C557.759 19.8398 558.095 21.5838 558.095 23.4718C558.095 25.3598 557.759 27.1038 557.087 28.7038C556.447 30.3038 555.535 31.7118 554.351 32.9278C553.167 34.1118 551.775 35.0398 550.175 35.7118C548.607 36.3518 546.879 36.6718 544.991 36.6718ZM544.991 29.5198C546.559 29.5198 547.807 28.9598 548.735 27.8398C549.695 26.6878 550.175 25.2318 550.175 23.4718C550.175 21.6798 549.695 20.2398 548.735 19.1518C547.807 18.0318 546.559 17.4718 544.991 17.4718C543.423 17.4718 542.159 18.0318 541.199 19.1518C540.271 20.2398 539.807 21.6798 539.807 23.4718C539.807 25.2318 540.271 26.6878 541.199 27.8398C542.159 28.9598 543.423 29.5198 544.991 29.5198ZM562.013 35.9038C562.013 31.8078 562.013 27.6798 562.013 23.5198C562.013 19.3278 562.013 15.1838 562.013 11.0878C563.325 11.0878 564.653 11.0878 565.997 11.0878C567.341 11.0878 568.653 11.0878 569.933 11.0878C569.933 11.3118 569.933 11.5358 569.933 11.7598C569.933 11.9838 569.933 12.2078 569.933 12.4318C570.925 11.7278 572.045 11.1998 573.293 10.8478C574.541 10.4958 575.901 10.3998 577.373 10.5598C577.373 11.8398 577.373 13.1358 577.373 14.4478C577.373 15.7598 577.373 17.0558 577.373 18.3358C574.845 17.9838 572.973 18.2078 571.757 19.0078C570.541 19.7758 569.933 21.0398 569.933 22.7998C569.933 24.9438 569.933 27.1198 569.933 29.3278C569.933 31.5358 569.933 33.7278 569.933 35.9038C568.653 35.9038 567.341 35.9038 565.997 35.9038C564.653 35.9038 563.325 35.9038 562.013 35.9038ZM602.076 34.7518C599.868 35.6798 597.676 36.2558 595.5 36.4798C593.324 36.7038 591.26 36.5758 589.308 36.0958C587.388 35.6478 585.676 34.8638 584.172 33.7438C582.668 32.6238 581.484 31.1998 580.62 29.4718C579.788 27.7438 579.372 25.7438 579.372 23.4718C579.372 21.5838 579.676 19.8558 580.284 18.2878C580.924 16.6878 581.82 15.2958 582.972 14.1118C584.124 12.8958 585.484 11.9678 587.052 11.3278C588.62 10.6558 590.332 10.3198 592.188 10.3198C593.852 10.3198 595.356 10.5918 596.7 11.1358C598.044 11.6798 599.212 12.4478 600.204 13.4398C601.196 14.3998 601.996 15.5518 602.604 16.8958C603.212 18.2398 603.596 19.7118 603.756 21.3118C603.916 22.9118 603.82 24.6078 603.468 26.3998C600.844 26.3998 598.204 26.3998 595.548 26.3998C592.892 26.3998 590.252 26.3998 587.628 26.3998C588.236 27.6158 589.244 28.4798 590.652 28.9918C592.092 29.5038 593.788 29.6638 595.74 29.4718C597.724 29.2798 599.836 28.7678 602.076 27.9358C602.076 29.0558 602.076 30.1918 602.076 31.3438C602.076 32.4958 602.076 33.6318 602.076 34.7518ZM591.996 17.4238C591.068 17.4238 590.204 17.6798 589.404 18.1918C588.636 18.7038 588.044 19.4878 587.628 20.5438C589.068 20.5438 590.508 20.5438 591.948 20.5438C593.42 20.5438 594.876 20.5438 596.316 20.5438C595.932 19.4558 595.356 18.6718 594.588 18.1918C593.852 17.6798 592.988 17.4238 591.996 17.4238ZM502.199 86.2558C502.199 88.3998 501.655 90.2558 500.567 91.8238C499.511 93.3918 498.039 94.6078 496.151 95.4718C494.263 96.3038 492.071 96.7198 489.575 96.7198C487.239 96.7198 485.159 96.3518 483.335 95.6158C481.543 94.8478 480.119 93.7598 479.063 92.3518C478.039 90.9118 477.527 89.2158 477.527 87.2638C477.527 85.6638 477.879 84.1918 478.583 82.8478C479.319 81.5038 480.423 80.3518 481.895 79.3918C480.711 78.4958 479.831 77.4558 479.255 76.2718C478.711 75.0558 478.439 73.7278 478.439 72.2878C478.439 70.1758 478.999 68.4158 480.119 67.0078C481.271 65.5998 482.807 64.5438 484.727 63.8398C486.647 63.1358 488.775 62.7678 491.111 62.7358C493.447 62.6718 495.815 62.9438 498.215 63.5518C498.215 64.8318 498.215 66.1278 498.215 67.4398C498.215 68.7518 498.215 70.0638 498.215 71.3758C496.871 70.9918 495.511 70.7198 494.135 70.5598C492.791 70.3998 491.559 70.3838 490.439 70.5118C489.319 70.6398 488.407 70.9118 487.703 71.3278C487.031 71.7438 486.695 72.3358 486.695 73.1038C486.695 74.0958 487.367 74.7838 488.711 75.1678C490.055 75.5198 491.911 75.6958 494.279 75.6958C494.279 75.1198 494.279 74.5438 494.279 73.9678C494.279 73.3598 494.279 72.7678 494.279 72.1918C495.591 72.1918 496.919 72.1918 498.263 72.1918C499.607 72.1918 500.919 72.1918 502.199 72.1918C502.199 72.7678 502.199 73.3598 502.199 73.9678C502.199 74.5438 502.199 75.1198 502.199 75.6958C502.679 75.6958 503.175 75.6958 503.687 75.6958C504.199 75.6958 504.695 75.6958 505.175 75.6958C505.175 76.8798 505.175 78.0638 505.175 79.2478C505.175 80.4318 505.175 81.6158 505.175 82.7998C504.695 82.7998 504.199 82.7998 503.687 82.7998C503.175 82.7998 502.679 82.7998 502.199 82.7998C502.199 83.3758 502.199 83.9518 502.199 84.5278C502.199 85.1038 502.199 85.6798 502.199 86.2558ZM485.927 86.0638C485.927 86.9918 486.263 87.7758 486.935 88.4158C487.639 89.0238 488.615 89.3278 489.863 89.3278C491.207 89.3278 492.279 89.0078 493.079 88.3678C493.879 87.6958 494.279 86.7678 494.279 85.5838C494.279 85.1358 494.279 84.6718 494.279 84.1918C494.279 83.7118 494.279 83.2478 494.279 82.7998C491.655 82.7998 489.607 82.9918 488.135 83.3758C486.663 83.7598 485.927 84.6558 485.927 86.0638Z" fill="#FDBC86"/>
</g>
</svg>
