<svg width="201" height="187" viewBox="0 0 201 187" fill="none" xmlns="http://www.w3.org/2000/svg">
<rect width="200.744" height="186.17" rx="32" fill="#FE9973"/>
<path d="M50.287 84.2642C50.287 78.8882 50.287 73.4482 50.287 67.9442C50.287 62.4402 50.287 57.0002 50.287 51.6242C52.207 51.6242 54.127 51.6242 56.047 51.6242C57.999 51.6242 59.935 51.6242 61.855 51.6242C64.287 51.6242 66.415 52.0882 68.239 53.0162C70.063 53.9122 71.471 55.1922 72.463 56.8562C73.487 58.4882 73.999 60.4082 73.999 62.6162C73.999 64.5042 73.615 66.1842 72.847 67.6562C72.079 69.1282 71.039 70.3282 69.727 71.2562C71.007 73.4002 72.287 75.5762 73.567 77.7842C74.879 79.9602 76.175 82.1202 77.455 84.2642C75.887 84.2642 74.319 84.2642 72.751 84.2642C71.183 84.2642 69.615 84.2642 68.047 84.2642C67.055 82.4722 66.047 80.6482 65.023 78.7922C64.031 76.9362 63.023 75.1122 61.999 73.3202C61.455 73.3202 60.895 73.3202 60.319 73.3202C59.775 73.3202 59.231 73.3202 58.687 73.3202C58.687 75.1122 58.687 76.9362 58.687 78.7922C58.687 80.6482 58.687 82.4722 58.687 84.2642C57.311 84.2642 55.919 84.2642 54.511 84.2642C53.103 84.2642 51.695 84.2642 50.287 84.2642ZM61.855 59.2082C61.343 59.2082 60.815 59.2082 60.271 59.2082C59.759 59.2082 59.231 59.2082 58.687 59.2082C58.687 60.3922 58.687 61.5762 58.687 62.7602C58.687 63.9442 58.687 65.1282 58.687 66.3122C59.295 66.3122 59.903 66.3122 60.511 66.3122C61.119 66.3122 61.727 66.3122 62.335 66.3122C63.295 66.3122 64.079 65.9762 64.687 65.3042C65.295 64.6002 65.599 63.7522 65.599 62.7602C65.599 61.7362 65.263 60.8882 64.591 60.2162C63.951 59.5442 63.039 59.2082 61.855 59.2082ZM100.511 83.1122C98.3027 84.0402 96.1107 84.6162 93.9347 84.8402C91.7587 85.0642 89.6947 84.9362 87.7427 84.4562C85.8227 84.0082 84.1107 83.2242 82.6067 82.1042C81.1027 80.9842 79.9187 79.5602 79.0547 77.8322C78.2227 76.1042 77.8067 74.1042 77.8067 71.8322C77.8067 69.9442 78.1107 68.2162 78.7187 66.6482C79.3587 65.0482 80.2547 63.6562 81.4067 62.4722C82.5587 61.2562 83.9187 60.3282 85.4867 59.6882C87.0547 59.0162 88.7667 58.6802 90.6227 58.6802C92.2867 58.6802 93.7907 58.9522 95.1347 59.4962C96.4787 60.0402 97.6467 60.8082 98.6387 61.8002C99.6307 62.7602 100.431 63.9122 101.039 65.2562C101.647 66.6002 102.031 68.0722 102.191 69.6722C102.351 71.2722 102.255 72.9682 101.903 74.7602C99.2787 74.7602 96.6387 74.7602 93.9827 74.7602C91.3267 74.7602 88.6867 74.7602 86.0627 74.7602C86.6707 75.9762 87.6787 76.8402 89.0867 77.3522C90.5267 77.8642 92.2227 78.0242 94.1747 77.8322C96.1587 77.6402 98.2707 77.1282 100.511 76.2962C100.511 77.4162 100.511 78.5522 100.511 79.7042C100.511 80.8562 100.511 81.9922 100.511 83.1122ZM90.4307 65.7842C89.5027 65.7842 88.6387 66.0402 87.8387 66.5522C87.0707 67.0642 86.4787 67.8482 86.0627 68.9042C87.5027 68.9042 88.9427 68.9042 90.3827 68.9042C91.8547 68.9042 93.3107 68.9042 94.7507 68.9042C94.3667 67.8162 93.7907 67.0322 93.0227 66.5522C92.2867 66.0402 91.4227 65.7842 90.4307 65.7842ZM122.945 84.2642C122.945 84.0082 122.945 83.7682 122.945 83.5442C122.945 83.2882 122.945 83.0482 122.945 82.8242C122.145 83.4962 121.233 84.0082 120.209 84.3602C119.217 84.7442 118.145 84.9362 116.993 84.9362C115.361 84.9362 113.825 84.6162 112.385 83.9762C110.945 83.3362 109.665 82.4402 108.545 81.2882C107.457 80.1042 106.593 78.7122 105.953 77.1122C105.345 75.5122 105.041 73.7522 105.041 71.8322C105.041 69.8802 105.345 68.1042 105.953 66.5042C106.593 64.9042 107.457 63.5282 108.545 62.3762C109.665 61.2242 110.945 60.3442 112.385 59.7362C113.825 59.0962 115.345 58.7762 116.945 58.7762C118.097 58.7762 119.185 58.9682 120.209 59.3522C121.233 59.7042 122.145 60.2002 122.945 60.8402C122.945 58.9202 122.945 56.9842 122.945 55.0322C122.945 53.0802 122.945 51.1442 122.945 49.2242C124.257 49.2242 125.585 49.2242 126.929 49.2242C128.273 49.2242 129.585 49.2242 130.865 49.2242C130.865 55.0162 130.865 60.8562 130.865 66.7442C130.865 72.6322 130.865 78.4722 130.865 84.2642C129.585 84.2642 128.273 84.2642 126.929 84.2642C125.585 84.2642 124.257 84.2642 122.945 84.2642ZM118.049 77.9282C119.585 77.9282 120.817 77.3682 121.745 76.2482C122.673 75.1282 123.137 73.6562 123.137 71.8322C123.137 70.0082 122.673 68.5522 121.745 67.4642C120.817 66.3442 119.585 65.7842 118.049 65.7842C116.481 65.7842 115.233 66.3282 114.305 67.4162C113.409 68.5042 112.961 69.9762 112.961 71.8322C112.961 73.6882 113.409 75.1762 114.305 76.2962C115.233 77.3842 116.481 77.9282 118.049 77.9282ZM50.287 144.264C50.287 138.888 50.287 133.448 50.287 127.944C50.287 122.44 50.287 117 50.287 111.624C52.207 111.624 54.127 111.624 56.047 111.624C57.999 111.624 59.935 111.624 61.855 111.624C64.287 111.624 66.415 112.088 68.239 113.016C70.063 113.912 71.471 115.192 72.463 116.856C73.487 118.488 73.999 120.408 73.999 122.616C73.999 124.504 73.615 126.184 72.847 127.656C72.079 129.128 71.039 130.328 69.727 131.256C71.007 133.4 72.287 135.576 73.567 137.784C74.879 139.96 76.175 142.12 77.455 144.264C75.887 144.264 74.319 144.264 72.751 144.264C71.183 144.264 69.615 144.264 68.047 144.264C67.055 142.472 66.047 140.648 65.023 138.792C64.031 136.936 63.023 135.112 61.999 133.32C61.455 133.32 60.895 133.32 60.319 133.32C59.775 133.32 59.231 133.32 58.687 133.32C58.687 135.112 58.687 136.936 58.687 138.792C58.687 140.648 58.687 142.472 58.687 144.264C57.311 144.264 55.919 144.264 54.511 144.264C53.103 144.264 51.695 144.264 50.287 144.264ZM61.855 119.208C61.343 119.208 60.815 119.208 60.271 119.208C59.759 119.208 59.231 119.208 58.687 119.208C58.687 120.392 58.687 121.576 58.687 122.76C58.687 123.944 58.687 125.128 58.687 126.312C59.295 126.312 59.903 126.312 60.511 126.312C61.119 126.312 61.727 126.312 62.335 126.312C63.295 126.312 64.079 125.976 64.687 125.304C65.295 124.6 65.599 123.752 65.599 122.76C65.599 121.736 65.263 120.888 64.591 120.216C63.951 119.544 63.039 119.208 61.855 119.208ZM90.9107 145.032C89.0547 145.032 87.3267 144.712 85.7267 144.072C84.1267 143.4 82.7347 142.472 81.5507 141.288C80.3667 140.072 79.4387 138.664 78.7667 137.064C78.1267 135.464 77.8067 133.72 77.8067 131.832C77.8067 129.944 78.1267 128.2 78.7667 126.6C79.4387 125 80.3667 123.608 81.5507 122.424C82.7347 121.24 84.1267 120.328 85.7267 119.688C87.3267 119.016 89.0547 118.68 90.9107 118.68C92.7987 118.68 94.5267 119.016 96.0947 119.688C97.6947 120.328 99.0867 121.24 100.271 122.424C101.455 123.608 102.367 125 103.007 126.6C103.679 128.2 104.015 129.944 104.015 131.832C104.015 133.72 103.679 135.464 103.007 137.064C102.367 138.664 101.455 140.072 100.271 141.288C99.0867 142.472 97.6947 143.4 96.0947 144.072C94.5267 144.712 92.7987 145.032 90.9107 145.032ZM90.9107 137.88C92.4787 137.88 93.7267 137.32 94.6547 136.2C95.6147 135.048 96.0947 133.592 96.0947 131.832C96.0947 130.04 95.6147 128.6 94.6547 127.512C93.7267 126.392 92.4787 125.832 90.9107 125.832C89.3427 125.832 88.0787 126.392 87.1187 127.512C86.1907 128.6 85.7267 130.04 85.7267 131.832C85.7267 133.592 86.1907 135.048 87.1187 136.2C88.0787 137.32 89.3427 137.88 90.9107 137.88ZM126.892 136.584C126.892 138.568 126.332 140.2 125.212 141.48C124.124 142.728 122.652 143.64 120.796 144.216C118.94 144.792 116.86 145.032 114.556 144.936C112.284 144.872 109.964 144.504 107.596 143.832C107.596 142.616 107.596 141.368 107.596 140.088C107.596 138.808 107.596 137.56 107.596 136.344C108.94 136.952 110.284 137.432 111.628 137.784C112.972 138.104 114.188 138.296 115.276 138.36C116.364 138.424 117.244 138.344 117.916 138.12C118.588 137.864 118.924 137.448 118.924 136.872C118.924 136.424 118.636 136.072 118.06 135.816C117.516 135.56 116.796 135.336 115.9 135.144C115.004 134.92 114.044 134.664 113.02 134.376C112.028 134.056 111.084 133.624 110.188 133.08C109.292 132.504 108.556 131.752 107.98 130.824C107.436 129.864 107.164 128.632 107.164 127.128C107.164 125.336 107.676 123.816 108.7 122.568C109.756 121.288 111.164 120.328 112.924 119.688C114.684 119.016 116.652 118.68 118.828 118.68C121.004 118.68 123.228 119.048 125.5 119.784C125.5 121 125.5 122.248 125.5 123.528C125.5 124.808 125.5 126.056 125.5 127.272C123.708 126.408 122.028 125.832 120.46 125.544C118.892 125.256 117.628 125.224 116.668 125.448C115.708 125.64 115.228 126.072 115.228 126.744C115.228 127.192 115.5 127.544 116.044 127.8C116.62 128.024 117.34 128.232 118.204 128.424C119.1 128.616 120.044 128.872 121.036 129.192C122.06 129.512 123.004 129.96 123.868 130.536C124.764 131.08 125.484 131.848 126.028 132.84C126.604 133.8 126.892 135.048 126.892 136.584ZM152.073 143.112C149.865 144.04 147.673 144.616 145.497 144.84C143.321 145.064 141.257 144.936 139.305 144.456C137.385 144.008 135.673 143.224 134.169 142.104C132.665 140.984 131.481 139.56 130.617 137.832C129.785 136.104 129.369 134.104 129.369 131.832C129.369 129.944 129.673 128.216 130.281 126.648C130.921 125.048 131.817 123.656 132.969 122.472C134.121 121.256 135.481 120.328 137.049 119.688C138.617 119.016 140.329 118.68 142.185 118.68C143.849 118.68 145.353 118.952 146.697 119.496C148.041 120.04 149.209 120.808 150.201 121.8C151.193 122.76 151.993 123.912 152.601 125.256C153.209 126.6 153.593 128.072 153.753 129.672C153.913 131.272 153.817 132.968 153.465 134.76C150.841 134.76 148.201 134.76 145.545 134.76C142.889 134.76 140.249 134.76 137.625 134.76C138.233 135.976 139.241 136.84 140.649 137.352C142.089 137.864 143.785 138.024 145.737 137.832C147.721 137.64 149.833 137.128 152.073 136.296C152.073 137.416 152.073 138.552 152.073 139.704C152.073 140.856 152.073 141.992 152.073 143.112ZM141.993 125.784C141.065 125.784 140.201 126.04 139.401 126.552C138.633 127.064 138.041 127.848 137.625 128.904C139.065 128.904 140.505 128.904 141.945 128.904C143.417 128.904 144.873 128.904 146.313 128.904C145.929 127.816 145.353 127.032 144.585 126.552C143.849 126.04 142.985 125.784 141.993 125.784Z" fill="#FBF6F2"/>
</svg>
