<svg width="242" height="57" viewBox="0 0 242 57" fill="none" xmlns="http://www.w3.org/2000/svg">
<rect y="16.6807" width="54.9404" height="22.6738" rx="11.3369" fill="white"/>
<rect x="43.9404" width="197.49" height="56.0352" rx="11" fill="white"/>
<path d="M197.32 0H230.172C236.247 0 241.172 4.92487 241.172 11V45.0352C241.172 51.1103 236.247 56.0352 230.172 56.0352H197.32V0Z" fill="#F4E3D5"/>
<circle cx="11.0734" cy="28.0178" r="5.2951" fill="#F4E3D5"/>
<path d="M72.4125 42.3545C72.4125 37.8745 72.4125 33.3412 72.4125 28.7545C72.4125 24.1678 72.4125 19.6345 72.4125 15.1545C73.5858 15.1545 74.7592 15.1545 75.9325 15.1545C77.1058 15.1545 78.2658 15.1545 79.4125 15.1545C79.4125 18.5945 79.4125 22.0745 79.4125 25.5945C79.4125 29.0878 79.4125 32.5545 79.4125 35.9945C80.8258 35.9945 82.2525 35.9945 83.6925 35.9945C85.1325 35.9945 86.5458 35.9945 87.9325 35.9945C87.9325 37.0345 87.9325 38.1012 87.9325 39.1945C87.9325 40.2612 87.9325 41.3145 87.9325 42.3545C85.3725 42.3545 82.7858 42.3545 80.1725 42.3545C77.5592 42.3545 74.9725 42.3545 72.4125 42.3545ZM104.758 42.3545C104.758 42.1412 104.758 41.9412 104.758 41.7545C104.758 41.5412 104.758 41.3412 104.758 41.1545C104.091 41.7145 103.331 42.1412 102.478 42.4345C101.651 42.7545 100.758 42.9145 99.7978 42.9145C98.4378 42.9145 97.1578 42.6612 95.9578 42.1545C94.7578 41.6212 93.6911 40.8745 92.7578 39.9145C91.8511 38.9278 91.1311 37.7678 90.5978 36.4345C90.0911 35.1012 89.8378 33.6212 89.8378 31.9945C89.8378 30.3412 90.0911 28.8478 90.5978 27.5145C91.1311 26.1812 91.8511 25.0478 92.7578 24.1145C93.6911 23.1545 94.7578 22.4212 95.9578 21.9145C97.1578 21.3812 98.4245 21.1145 99.7578 21.1145C100.718 21.1145 101.624 21.2745 102.478 21.5945C103.331 21.8878 104.091 22.3012 104.758 22.8345C104.758 22.6212 104.758 22.4212 104.758 22.2345C104.758 22.0478 104.758 21.8612 104.758 21.6745C105.851 21.6745 106.958 21.6745 108.078 21.6745C109.198 21.6745 110.291 21.6745 111.358 21.6745C111.358 25.0878 111.358 28.5412 111.358 32.0345C111.358 35.5012 111.358 38.9412 111.358 42.3545C110.291 42.3545 109.198 42.3545 108.078 42.3545C106.958 42.3545 105.851 42.3545 104.758 42.3545ZM100.678 37.0745C101.958 37.0745 102.984 36.6078 103.758 35.6745C104.531 34.7412 104.918 33.5145 104.918 31.9945C104.918 30.4745 104.531 29.2612 103.758 28.3545C102.984 27.4212 101.958 26.9545 100.678 26.9545C99.3711 26.9545 98.3311 27.4078 97.5578 28.3145C96.8111 29.2212 96.4378 30.4478 96.4378 31.9945C96.4378 33.5412 96.8111 34.7812 97.5578 35.7145C98.3311 36.6212 99.3711 37.0745 100.678 37.0745ZM122.563 42.3545C121.496 42.3545 120.403 42.3545 119.283 42.3545C118.163 42.3545 117.056 42.3545 115.963 42.3545C115.963 37.5278 115.963 32.6612 115.963 27.7545C115.963 22.8478 115.963 17.9812 115.963 13.1545C117.056 13.1545 118.163 13.1545 119.283 13.1545C120.403 13.1545 121.496 13.1545 122.563 13.1545C122.563 14.7545 122.563 16.3678 122.563 17.9945C122.563 19.6212 122.563 21.2345 122.563 22.8345C123.229 22.3012 123.989 21.8878 124.843 21.5945C125.696 21.2745 126.603 21.1145 127.563 21.1145C128.896 21.1145 130.163 21.3812 131.363 21.9145C132.563 22.4212 133.616 23.1545 134.523 24.1145C135.456 25.0745 136.176 26.2212 136.683 27.5545C137.216 28.8878 137.483 30.3678 137.483 31.9945C137.483 33.5945 137.216 35.0612 136.683 36.3945C136.176 37.7278 135.456 38.8878 134.523 39.8745C133.616 40.8345 132.563 41.5812 131.363 42.1145C130.163 42.6478 128.883 42.9145 127.523 42.9145C126.563 42.9145 125.656 42.7545 124.803 42.4345C123.976 42.1412 123.229 41.7145 122.563 41.1545C122.563 41.3412 122.563 41.5412 122.563 41.7545C122.563 41.9412 122.563 42.1412 122.563 42.3545ZM126.643 37.0745C127.949 37.0745 128.976 36.6212 129.723 35.7145C130.496 34.7812 130.883 33.5412 130.883 31.9945C130.883 30.4478 130.496 29.2212 129.723 28.3145C128.976 27.4078 127.949 26.9545 126.643 26.9545C125.363 26.9545 124.336 27.4212 123.562 28.3545C122.789 29.2612 122.403 30.4745 122.403 31.9945C122.403 33.5145 122.789 34.7412 123.562 35.6745C124.336 36.6078 125.363 37.0745 126.643 37.0745ZM158.562 41.3945C156.723 42.1678 154.896 42.6478 153.083 42.8345C151.269 43.0212 149.549 42.9145 147.923 42.5145C146.323 42.1412 144.896 41.4878 143.643 40.5545C142.389 39.6212 141.403 38.4345 140.683 36.9945C139.989 35.5545 139.643 33.8878 139.643 31.9945C139.643 30.4212 139.896 28.9812 140.403 27.6745C140.936 26.3412 141.683 25.1812 142.643 24.1945C143.603 23.1812 144.736 22.4078 146.043 21.8745C147.349 21.3145 148.776 21.0345 150.322 21.0345C151.709 21.0345 152.963 21.2612 154.083 21.7145C155.203 22.1678 156.176 22.8078 157.003 23.6345C157.829 24.4345 158.496 25.3945 159.003 26.5145C159.509 27.6345 159.829 28.8612 159.963 30.1945C160.096 31.5278 160.016 32.9412 159.723 34.4345C157.536 34.4345 155.336 34.4345 153.123 34.4345C150.909 34.4345 148.709 34.4345 146.523 34.4345C147.029 35.4478 147.869 36.1678 149.043 36.5945C150.243 37.0212 151.656 37.1545 153.283 36.9945C154.936 36.8345 156.696 36.4078 158.562 35.7145C158.562 36.6478 158.562 37.5945 158.562 38.5545C158.562 39.5145 158.562 40.4612 158.562 41.3945ZM150.163 26.9545C149.389 26.9545 148.669 27.1678 148.003 27.5945C147.363 28.0212 146.869 28.6745 146.523 29.5545C147.723 29.5545 148.923 29.5545 150.123 29.5545C151.349 29.5545 152.563 29.5545 153.763 29.5545C153.443 28.6478 152.963 27.9945 152.323 27.5945C151.709 27.1678 150.989 26.9545 150.163 26.9545ZM163.658 42.3545C163.658 37.5278 163.658 32.6612 163.658 27.7545C163.658 22.8478 163.658 17.9812 163.658 13.1545C164.751 13.1545 165.858 13.1545 166.978 13.1545C168.098 13.1545 169.191 13.1545 170.258 13.1545C170.258 17.9812 170.258 22.8478 170.258 27.7545C170.258 32.6612 170.258 37.5278 170.258 42.3545C169.191 42.3545 168.098 42.3545 166.978 42.3545C165.858 42.3545 164.751 42.3545 163.658 42.3545Z" fill="#F4E3D5"/>
</svg>
