<svg width="127" height="593" viewBox="0 0 127 593" fill="none" xmlns="http://www.w3.org/2000/svg">
<path d="M34.561 592.781V60.3764C34.561 -15.8759 123.843 -18.0548 123.843 60.3764V113.753" stroke="#036F62" stroke-width="4.73457"/>
<path d="M43.2012 592.781V54.9679C43.2012 1.3785 110.838 -8.46438 115.203 54.9671V111.839" stroke="#6CBDAA" stroke-width="4.73457"/>
<path d="M0 216.03L28.3267 200.584L28.3267 231.476L0 216.03Z" fill="#036F62"/>
<path d="M0 335.547L28.3267 320.102L28.3267 350.993L0 335.547Z" fill="#036F62"/>
<path d="M0 447.876L28.3267 432.43L28.3267 463.322L0 447.876Z" fill="#036F62"/>
<path d="M0 110.925L28.3267 95.479L28.3267 126.371L0 110.925Z" fill="#036F62"/>
<path d="M0 539.198L28.3267 523.752L28.3267 554.644L0 539.198Z" fill="#036F62"/>
<path d="M79.6099 276.914L51.2832 261.468V292.36L79.6099 276.914Z" fill="#6CBDAA"/>
<path d="M78.1694 564.377L49.8427 548.931V579.823L78.1694 564.377Z" fill="#6CBDAA"/>
</svg>
