<svg width="168" height="224" viewBox="0 0 168 224" fill="none" xmlns="http://www.w3.org/2000/svg">
<path d="M9.07334 211.303C9.07329 213.733 11.0218 215.692 13.4434 215.48C42.4524 212.938 102.934 186.508 112.696 131.889C112.741 131.64 112.763 131.389 112.763 131.136C112.763 94.8858 112.763 42.4838 112.763 17.6024C112.763 15.517 111.302 13.7247 109.239 13.4176C73.6097 8.11319 22.733 30.8643 9.24184 77.3822C9.12933 77.7702 9.07324 78.1714 9.07324 78.5754C9.07344 122.462 9.07395 179.86 9.07334 211.303Z" fill="#E94812"/>
<path d="M26.6026 220.472C26.6026 222.055 27.8671 223.339 29.4497 223.307C50.2533 222.892 94.2885 217.297 101.304 170.046C101.324 169.909 101.335 169.769 101.335 169.63C101.335 138.027 101.335 92.0748 101.335 70.9941C101.335 69.6773 100.441 68.5287 99.1464 68.2865C73.4134 63.4728 36.3822 83.1098 26.6807 123.44C26.6288 123.655 26.6025 123.881 26.6025 124.103C26.6027 162.177 26.6031 194.832 26.6026 220.472Z" fill="#D13B09"/>
<path d="M63.9673 54.9671C63.9673 53.3842 65.2332 52.1098 66.8101 52.2485C87.4013 54.0588 130.925 74.5099 137.885 116.977C137.91 117.127 137.922 117.278 137.922 117.43C137.922 145.696 137.922 186.705 137.922 205.762C137.922 207.102 136.997 208.255 135.679 208.498C110.232 213.175 73.6792 202.519 64.0619 166.402C63.9992 166.166 63.9673 165.924 63.9673 165.681C63.9674 131.416 63.9678 79.7056 63.9673 54.9671Z" fill="#E94812"/>
<path d="M6.83097e-05 131.459C3.49681e-05 133.042 1.26585 134.317 2.84427 134.198C23.2219 132.658 66.2128 115.441 73.1419 79.7118C73.1758 79.5369 73.1927 79.3601 73.1927 79.1821C73.1927 55.5709 73.1927 21.4603 73.1927 5.23265C73.1927 3.85822 72.2184 2.68303 70.8574 2.49161C45.7075 -1.04581 9.68269 13.7727 0.127468 44.1371C0.042309 44.4077 6.72047e-07 44.6889 2.05411e-06 44.9726C0.000141399 73.5762 0.00049984 110.972 6.83097e-05 131.459Z" fill="#E94812"/>
<path d="M167.731 199.804C167.731 202.235 165.78 204.185 163.37 203.869C134.364 200.065 73.8692 161.122 64.108 106.439C64.0636 106.19 64.0418 105.937 64.0418 105.684C64.0418 69.574 64.0418 29.7884 64.0418 6.10355C64.0418 4.01816 65.503 2.22337 67.5569 1.86229C103.185 -4.40125 154.067 3.57462 167.561 49.9674C167.674 50.3553 167.731 50.756 167.731 51.1599C167.731 95.2255 167.731 167.085 167.731 199.804Z" fill="#D13B09"/>
<path d="M139.697 198.098C116.777 187.846 68.7411 153.62 62.889 101.886C62.889 47.4715 63.6205 10.4064 63.6205 0.154397" stroke="#F4E3D5" stroke-width="3.94548"/>
<path d="M95.0747 205.985C73.861 191.789 65.0829 182.326 62.1569 163.399C62.1569 108.984 62.1569 116.082 62.1569 105.83" stroke="#F4E3D5" stroke-width="3.94548"/>
<path d="M0.71104 135.797C13.8782 135.797 42.407 128.7 62.8892 105.041" stroke="#F4E3D5" stroke-width="3.94548"/>
<path d="M24.8501 130.277L24.8501 221.757" stroke="#F4E3D5" stroke-width="3.94548"/>
</svg>
