<svg width="1118" height="703" viewBox="0 0 1118 703" fill="none" xmlns="http://www.w3.org/2000/svg">
<rect x="2.12245" y="700.174" width="698.052" height="1113.22" rx="41.3877" transform="rotate(-90 2.12245 700.174)" fill="#FBF6F2" stroke="#404040" stroke-width="4.24489"/>
<path d="M111.715 68.8784C111.715 64.5452 111.715 60.1604 111.715 55.724C111.715 51.2876 111.715 46.9029 111.715 42.5696C113.314 42.5696 114.913 42.5696 116.512 42.5696C118.137 42.5696 119.736 42.5696 121.309 42.5696C123.296 42.5696 125.024 42.9565 126.494 43.7303C127.964 44.4783 129.112 45.5358 129.937 46.9029C130.763 48.2699 131.175 49.869 131.175 51.7003C131.175 53.5058 130.763 55.0921 129.937 56.4591C129.138 57.8262 128.029 58.8837 126.61 59.6317C125.217 60.3797 123.631 60.7536 121.851 60.7536C121.284 60.7536 120.716 60.7536 120.149 60.7536C119.607 60.7536 119.053 60.7536 118.485 60.7536C118.485 62.0949 118.485 63.449 118.485 64.816C118.485 66.1831 118.485 67.5372 118.485 68.8784C117.376 68.8784 116.254 68.8784 115.119 68.8784C113.984 68.8784 112.849 68.8784 111.715 68.8784ZM121.309 48.6439C120.845 48.6439 120.368 48.6439 119.878 48.6439C119.414 48.6439 118.949 48.6439 118.485 48.6439C118.485 49.6756 118.485 50.7202 118.485 51.7777C118.485 52.8094 118.485 53.8411 118.485 54.8729C119.001 54.8729 119.53 54.8729 120.071 54.8729C120.639 54.8729 121.181 54.8729 121.696 54.8729C122.496 54.8729 123.141 54.5762 123.631 53.983C124.147 53.3898 124.405 52.6547 124.405 51.7777C124.405 50.875 124.134 50.127 123.592 49.5337C123.051 48.9405 122.29 48.6439 121.309 48.6439ZM137.666 46.5933C136.918 46.5933 136.235 46.4128 135.616 46.0517C135.023 45.6906 134.545 45.2134 134.184 44.6202C133.823 44.0269 133.643 43.3692 133.643 42.647C133.643 41.9248 133.823 41.28 134.184 40.7125C134.545 40.1193 135.023 39.6421 135.616 39.281C136.235 38.9199 136.918 38.7394 137.666 38.7394C138.389 38.7394 139.046 38.9199 139.639 39.281C140.259 39.6421 140.749 40.1193 141.11 40.7125C141.471 41.28 141.651 41.9248 141.651 42.647C141.651 43.3692 141.471 44.0269 141.11 44.6202C140.749 45.2134 140.259 45.6906 139.639 46.0517C139.046 46.4128 138.389 46.5933 137.666 46.5933ZM134.455 68.8784C134.455 65.5769 134.455 62.2496 134.455 58.8966C134.455 55.5177 134.455 52.1775 134.455 48.876C135.513 48.876 136.583 48.876 137.666 48.876C138.75 48.876 139.807 48.876 140.839 48.876C140.839 52.1775 140.839 55.5177 140.839 58.8966C140.839 62.2496 140.839 65.5769 140.839 68.8784C139.807 68.8784 138.75 68.8784 137.666 68.8784C136.583 68.8784 135.513 68.8784 134.455 68.8784ZM147.383 68.8784C147.383 66.5055 147.383 64.1196 147.383 61.7209C147.383 59.3221 147.383 56.9492 147.383 54.602C146.868 54.602 146.339 54.602 145.797 54.602C145.281 54.602 144.765 54.602 144.25 54.602C144.25 53.6477 144.25 52.6934 144.25 51.739C144.25 50.7847 144.25 49.8303 144.25 48.876C144.765 48.876 145.281 48.876 145.797 48.876C146.339 48.876 146.868 48.876 147.383 48.876C147.383 47.9733 147.383 47.0834 147.383 46.2064C147.383 45.3037 147.383 44.4138 147.383 43.5369C148.441 43.5369 149.511 43.5369 150.595 43.5369C151.678 43.5369 152.735 43.5369 153.767 43.5369C153.767 44.4138 153.767 45.3037 153.767 46.2064C153.767 47.0834 153.767 47.9733 153.767 48.876C154.36 48.876 154.967 48.876 155.586 48.876C156.205 48.876 156.811 48.876 157.404 48.876C157.404 49.8303 157.404 50.7847 157.404 51.739C157.404 52.6934 157.404 53.6477 157.404 54.602C156.811 54.602 156.205 54.602 155.586 54.602C154.967 54.602 154.36 54.602 153.767 54.602C153.767 56.9492 153.767 59.3221 153.767 61.7209C153.767 64.1196 153.767 66.5055 153.767 68.8784C152.735 68.8784 151.678 68.8784 150.595 68.8784C149.511 68.8784 148.441 68.8784 147.383 68.8784ZM159.211 58.8579C159.211 56.8976 159.61 55.1824 160.41 53.7122C161.21 52.2162 162.319 51.0168 163.737 50.1141C165.156 49.2113 166.807 48.6697 168.689 48.4891C170.572 48.2828 172.584 48.502 174.725 49.1468C174.725 50.127 174.725 51.12 174.725 52.1259C174.725 53.1318 174.725 54.1249 174.725 55.105C173.229 54.3828 171.798 54.0475 170.43 54.0991C169.063 54.1507 167.941 54.5762 167.065 55.3758C166.188 56.1496 165.749 57.3103 165.749 58.8579C165.749 60.4054 166.188 61.579 167.065 62.3786C167.941 63.1524 169.063 63.5651 170.43 63.6167C171.798 63.6425 173.229 63.3071 174.725 62.6107C174.725 63.5909 174.725 64.5839 174.725 65.5898C174.725 66.5957 174.725 67.5888 174.725 68.5689C172.584 69.2137 170.572 69.433 168.689 69.2266C166.807 69.0461 165.156 68.5044 163.737 67.6017C162.319 66.6989 161.21 65.5124 160.41 64.0422C159.61 62.5463 159.211 60.8181 159.211 58.8579ZM178.887 68.8784C178.887 64.2099 178.887 59.5027 178.887 54.7568C178.887 50.0109 178.887 45.3037 178.887 40.6352C179.945 40.6352 181.015 40.6352 182.099 40.6352C183.182 40.6352 184.239 40.6352 185.271 40.6352C185.271 42.157 185.271 43.7045 185.271 45.2779C185.271 46.8255 185.271 48.3602 185.271 49.8819C185.968 49.3919 186.741 49.0179 187.593 48.7599C188.47 48.4762 189.411 48.3344 190.417 48.3344C191.887 48.3344 193.177 48.6697 194.286 49.3403C195.421 50.0109 196.298 50.9781 196.917 52.242C197.562 53.48 197.884 54.976 197.884 56.73C197.884 58.7418 197.884 60.7665 197.884 62.8042C197.884 64.8418 197.884 66.8666 197.884 68.8784C196.852 68.8784 195.795 68.8784 194.711 68.8784C193.628 68.8784 192.558 68.8784 191.5 68.8784C191.5 67.0213 191.5 65.1384 191.5 63.2298C191.5 61.3211 191.5 59.4382 191.5 57.5811C191.5 56.5494 191.255 55.724 190.765 55.105C190.301 54.4602 189.553 54.1378 188.521 54.1378C187.489 54.1378 186.69 54.4344 186.122 55.0276C185.555 55.6209 185.271 56.472 185.271 57.5811C185.271 59.4382 185.271 61.3211 185.271 63.2298C185.271 65.1384 185.271 67.0213 185.271 68.8784C184.239 68.8784 183.182 68.8784 182.099 68.8784C181.015 68.8784 179.945 68.8784 178.887 68.8784ZM217.136 68.8784C216.026 68.8784 214.904 68.8784 213.77 68.8784C212.635 68.8784 211.5 68.8784 210.365 68.8784C210.365 64.5452 210.365 60.1604 210.365 55.724C210.365 51.2876 210.365 46.9029 210.365 42.5696C211.5 42.5696 212.635 42.5696 213.77 42.5696C214.904 42.5696 216.026 42.5696 217.136 42.5696C217.136 44.143 217.136 45.7293 217.136 47.3284C217.136 48.9018 217.136 50.4752 217.136 52.0485C218.503 52.0485 219.882 52.0485 221.275 52.0485C222.668 52.0485 224.035 52.0485 225.376 52.0485C225.376 50.4752 225.376 48.9018 225.376 47.3284C225.376 45.7293 225.376 44.143 225.376 42.5696C226.511 42.5696 227.646 42.5696 228.781 42.5696C229.916 42.5696 231.038 42.5696 232.147 42.5696C232.147 46.9029 232.147 51.2876 232.147 55.724C232.147 60.1604 232.147 64.5452 232.147 68.8784C231.038 68.8784 229.916 68.8784 228.781 68.8784C227.646 68.8784 226.511 68.8784 225.376 68.8784C225.376 67.1245 225.376 65.3577 225.376 63.578C225.376 61.7725 225.376 60.0057 225.376 58.2775C224.035 58.2775 222.668 58.2775 221.275 58.2775C219.882 58.2775 218.503 58.2775 217.136 58.2775C217.136 60.0057 217.136 61.7725 217.136 63.578C217.136 65.3577 217.136 67.1245 217.136 68.8784ZM254.02 67.9499C252.241 68.6979 250.474 69.1621 248.72 69.3427C246.966 69.5232 245.302 69.4201 243.729 69.0332C242.181 68.6721 240.802 68.0401 239.589 67.1374C238.377 66.2346 237.423 65.0869 236.726 63.694C236.056 62.3012 235.72 60.6892 235.72 58.8579C235.72 57.3361 235.965 55.9433 236.455 54.6794C236.971 53.3898 237.693 52.2678 238.622 51.3134C239.551 50.3333 240.647 49.5853 241.911 49.0695C243.174 48.5278 244.554 48.257 246.05 48.257C247.392 48.257 248.604 48.4762 249.687 48.9147C250.77 49.3532 251.712 49.9722 252.512 50.7718C253.311 51.5456 253.956 52.4741 254.446 53.5574C254.936 54.6407 255.246 55.8272 255.375 57.1168C255.503 58.4065 255.426 59.7735 255.142 61.2179C253.027 61.2179 250.899 61.2179 248.759 61.2179C246.618 61.2179 244.49 61.2179 242.375 61.2179C242.865 62.1981 243.677 62.8945 244.812 63.3071C245.973 63.7198 247.34 63.8488 248.913 63.694C250.513 63.5393 252.215 63.1266 254.02 62.456C254.02 63.3587 254.02 64.2744 254.02 65.2029C254.02 66.1315 254.02 67.0471 254.02 67.9499ZM245.896 53.983C245.148 53.983 244.451 54.1894 243.806 54.602C243.187 55.0147 242.71 55.6467 242.375 56.4978C243.536 56.4978 244.696 56.4978 245.857 56.4978C247.043 56.4978 248.217 56.4978 249.378 56.4978C249.068 55.6209 248.604 54.9889 247.985 54.602C247.392 54.1894 246.695 53.983 245.896 53.983ZM262.16 46.5933C261.412 46.5933 260.728 46.4128 260.109 46.0517C259.516 45.6906 259.039 45.2134 258.678 44.6202C258.317 44.0269 258.136 43.3692 258.136 42.647C258.136 41.9248 258.317 41.28 258.678 40.7125C259.039 40.1193 259.516 39.6421 260.109 39.281C260.728 38.9199 261.412 38.7394 262.16 38.7394C262.882 38.7394 263.54 38.9199 264.133 39.281C264.752 39.6421 265.242 40.1193 265.603 40.7125C265.964 41.28 266.145 41.9248 266.145 42.647C266.145 43.3692 265.964 44.0269 265.603 44.6202C265.242 45.2134 264.752 45.6906 264.133 46.0517C263.54 46.4128 262.882 46.5933 262.16 46.5933ZM258.949 68.8784C258.949 65.5769 258.949 62.2496 258.949 58.8966C258.949 55.5177 258.949 52.1775 258.949 48.876C260.006 48.876 261.077 48.876 262.16 48.876C263.243 48.876 264.301 48.876 265.333 48.876C265.333 52.1775 265.333 55.5177 265.333 58.8966C265.333 62.2496 265.333 65.5769 265.333 68.8784C264.301 68.8784 263.243 68.8784 262.16 68.8784C261.077 68.8784 260.006 68.8784 258.949 68.8784ZM288.591 65.6285C288.591 67.8209 288.114 69.6522 287.159 71.1224C286.231 72.5926 284.954 73.6888 283.329 74.411C281.704 75.159 279.847 75.5459 277.758 75.5717C275.694 75.5975 273.515 75.288 271.219 74.6431C271.219 73.6372 271.219 72.6184 271.219 71.5867C271.219 70.5808 271.219 69.5748 271.219 68.5689C273.257 69.3685 275.101 69.7683 276.752 69.7683C278.403 69.7941 279.705 69.4846 280.66 68.8397C281.64 68.1691 282.13 67.2535 282.13 66.0928C282.13 65.9638 282.13 65.8477 282.13 65.7446C282.13 65.6156 282.13 65.4995 282.13 65.3964C281.485 65.8864 280.737 66.2733 279.886 66.5571C279.035 66.8408 278.119 66.9826 277.139 66.9826C275.514 66.9826 274.057 66.6086 272.767 65.8606C271.503 65.0869 270.51 64.0293 269.788 62.6881C269.066 61.3211 268.705 59.7348 268.705 57.9293C268.705 56.5365 268.937 55.2598 269.401 54.0991C269.865 52.9384 270.51 51.9325 271.335 51.0813C272.161 50.2301 273.102 49.5853 274.16 49.1468C275.217 48.6826 276.326 48.4504 277.487 48.4504C278.416 48.4504 279.28 48.5794 280.079 48.8373C280.879 49.0952 281.588 49.4435 282.207 49.8819C282.207 49.7014 282.207 49.5337 282.207 49.379C282.207 49.2242 282.207 49.0566 282.207 48.876C283.265 48.876 284.335 48.876 285.418 48.876C286.502 48.876 287.559 48.876 288.591 48.876C288.591 51.6359 288.591 54.4344 288.591 57.2716C288.591 60.083 288.591 62.8687 288.591 65.6285ZM278.725 61.4501C279.808 61.4501 280.672 61.1147 281.317 60.4441C281.988 59.7477 282.323 58.8579 282.323 57.7746C282.323 56.6655 281.988 55.7627 281.317 55.0663C280.672 54.3699 279.808 54.0217 278.725 54.0217C277.59 54.0217 276.687 54.3699 276.017 55.0663C275.346 55.7369 275.011 56.6397 275.011 57.7746C275.011 58.8837 275.346 59.7735 276.017 60.4441C276.687 61.1147 277.59 61.4501 278.725 61.4501ZM293.029 68.8784C293.029 64.2099 293.029 59.5027 293.029 54.7568C293.029 50.0109 293.029 45.3037 293.029 40.6352C294.086 40.6352 295.157 40.6352 296.24 40.6352C297.323 40.6352 298.381 40.6352 299.412 40.6352C299.412 42.157 299.412 43.7045 299.412 45.2779C299.412 46.8255 299.412 48.3602 299.412 49.8819C300.109 49.3919 300.883 49.0179 301.734 48.7599C302.611 48.4762 303.552 48.3344 304.558 48.3344C306.028 48.3344 307.318 48.6697 308.427 49.3403C309.562 50.0109 310.439 50.9781 311.058 52.242C311.703 53.48 312.025 54.976 312.025 56.73C312.025 58.7418 312.025 60.7665 312.025 62.8042C312.025 64.8418 312.025 66.8666 312.025 68.8784C310.993 68.8784 309.936 68.8784 308.853 68.8784C307.769 68.8784 306.699 68.8784 305.641 68.8784C305.641 67.0213 305.641 65.1384 305.641 63.2298C305.641 61.3211 305.641 59.4382 305.641 57.5811C305.641 56.5494 305.396 55.724 304.906 55.105C304.442 54.4602 303.694 54.1378 302.662 54.1378C301.631 54.1378 300.831 54.4344 300.264 55.0276C299.696 55.6209 299.412 56.472 299.412 57.5811C299.412 59.4382 299.412 61.3211 299.412 63.2298C299.412 65.1384 299.412 67.0213 299.412 68.8784C298.381 68.8784 297.323 68.8784 296.24 68.8784C295.157 68.8784 294.086 68.8784 293.029 68.8784ZM318.085 68.8784C318.085 66.5055 318.085 64.1196 318.085 61.7209C318.085 59.3221 318.085 56.9492 318.085 54.602C317.569 54.602 317.041 54.602 316.499 54.602C315.983 54.602 315.467 54.602 314.951 54.602C314.951 53.6477 314.951 52.6934 314.951 51.739C314.951 50.7847 314.951 49.8303 314.951 48.876C315.467 48.876 315.983 48.876 316.499 48.876C317.041 48.876 317.569 48.876 318.085 48.876C318.085 47.9733 318.085 47.0834 318.085 46.2064C318.085 45.3037 318.085 44.4138 318.085 43.5369C319.143 43.5369 320.213 43.5369 321.296 43.5369C322.38 43.5369 323.437 43.5369 324.469 43.5369C324.469 44.4138 324.469 45.3037 324.469 46.2064C324.469 47.0834 324.469 47.9733 324.469 48.876C325.062 48.876 325.668 48.876 326.287 48.876C326.906 48.876 327.512 48.876 328.106 48.876C328.106 49.8303 328.106 50.7847 328.106 51.739C328.106 52.6934 328.106 53.6477 328.106 54.602C327.512 54.602 326.906 54.602 326.287 54.602C325.668 54.602 325.062 54.602 324.469 54.602C324.469 56.9492 324.469 59.3221 324.469 61.7209C324.469 64.1196 324.469 66.5055 324.469 68.8784C323.437 68.8784 322.38 68.8784 321.296 68.8784C320.213 68.8784 319.143 68.8784 318.085 68.8784ZM338.341 57.0782C338.341 54.6794 338.611 52.5128 339.153 50.5783C339.72 48.6439 340.494 46.9286 341.474 45.4327C342.455 43.9367 343.589 42.6728 344.879 41.6411C346.195 40.5836 347.613 39.7453 349.135 39.1263C350.657 38.4815 352.23 38.0688 353.855 37.8882C353.855 38.8426 353.855 39.8098 353.855 40.7899C353.855 41.7701 353.855 42.7373 353.855 43.6916C352.075 44.1301 350.502 44.8652 349.135 45.8969C347.794 46.9286 346.736 48.3473 345.962 50.1528C345.214 51.9583 344.84 54.2667 344.84 57.0782C344.84 59.8638 345.214 62.1723 345.962 64.0036C346.736 65.8091 347.794 67.2277 349.135 68.2594C350.502 69.2911 352.075 70.0262 353.855 70.4647C353.855 71.419 353.855 72.3863 353.855 73.3664C353.855 74.3465 353.855 75.3138 353.855 76.2681C352.23 76.0617 350.657 75.6491 349.135 75.03C347.613 74.411 346.195 73.5727 344.879 72.5152C343.589 71.4835 342.455 70.2196 341.474 68.7237C340.494 67.2277 339.72 65.5124 339.153 63.578C338.611 61.6435 338.341 59.4769 338.341 57.0782ZM354.701 55.724C354.701 53.738 355.011 51.9325 355.63 50.3075C356.275 48.6568 357.177 47.2253 358.338 46.013C359.499 44.8007 360.892 43.8593 362.517 43.1887C364.142 42.5181 365.934 42.157 367.894 42.1054C369.88 42.0538 371.995 42.3633 374.239 43.0339C374.239 44.1172 374.239 45.2134 374.239 46.3225C374.239 47.4058 374.239 48.4891 374.239 49.5724C372.718 48.8502 371.209 48.4375 369.713 48.3344C368.217 48.2312 366.863 48.4375 365.65 48.9534C364.438 49.4692 363.471 50.2946 362.749 51.4295C362.027 52.5386 361.665 53.9701 361.665 55.724C361.665 57.4779 362.027 58.9224 362.749 60.0572C363.471 61.1663 364.438 61.9788 365.65 62.4947C366.863 63.0105 368.217 63.2169 369.713 63.1137C371.209 63.0105 372.718 62.5978 374.239 61.8756C374.239 62.9589 374.239 64.0551 374.239 65.1642C374.239 66.2475 374.239 67.3308 374.239 68.4141C371.995 69.0848 369.88 69.3943 367.894 69.3427C365.934 69.2911 364.142 68.93 362.517 68.2594C360.892 67.5888 359.499 66.6473 358.338 65.4351C357.177 64.2228 356.275 62.8042 355.63 61.1792C355.011 59.5285 354.701 57.7101 354.701 55.724ZM378.299 68.8784C378.299 65.5769 378.299 62.2496 378.299 58.8966C378.299 55.5177 378.299 52.1775 378.299 48.876C379.357 48.876 380.427 48.876 381.511 48.876C382.594 48.876 383.651 48.876 384.683 48.876C384.683 49.0566 384.683 49.2371 384.683 49.4177C384.683 49.5982 384.683 49.7788 384.683 49.9593C385.483 49.3919 386.386 48.9663 387.391 48.6826C388.397 48.3988 389.494 48.3215 390.68 48.4504C390.68 49.4821 390.68 50.5268 390.68 51.5843C390.68 52.6418 390.68 53.6864 390.68 54.7181C388.642 54.4344 387.133 54.6149 386.153 55.2598C385.173 55.8788 384.683 56.8976 384.683 58.3162C384.683 60.0443 384.683 61.7983 384.683 63.578C384.683 65.3577 384.683 67.1245 384.683 68.8784C383.651 68.8784 382.594 68.8784 381.511 68.8784C380.427 68.8784 379.357 68.8784 378.299 68.8784ZM410.591 67.9499C408.812 68.6979 407.045 69.1621 405.291 69.3427C403.537 69.5232 401.873 69.4201 400.3 69.0332C398.753 68.6721 397.373 68.0401 396.16 67.1374C394.948 66.2346 393.994 65.0869 393.297 63.694C392.627 62.3012 392.291 60.6892 392.291 58.8579C392.291 57.3361 392.536 55.9433 393.026 54.6794C393.542 53.3898 394.265 52.2678 395.193 51.3134C396.122 50.3333 397.218 49.5853 398.482 49.0695C399.746 48.5278 401.125 48.257 402.621 48.257C403.963 48.257 405.175 48.4762 406.258 48.9147C407.342 49.3532 408.283 49.9722 409.083 50.7718C409.882 51.5456 410.527 52.4741 411.017 53.5574C411.507 54.6407 411.817 55.8272 411.946 57.1168C412.075 58.4065 411.997 59.7735 411.713 61.2179C409.598 61.2179 407.471 61.2179 405.33 61.2179C403.189 61.2179 401.061 61.2179 398.946 61.2179C399.436 62.1981 400.248 62.8945 401.383 63.3071C402.544 63.7198 403.911 63.8488 405.484 63.694C407.084 63.5393 408.786 63.1266 410.591 62.456C410.591 63.3587 410.591 64.2744 410.591 65.2029C410.591 66.1315 410.591 67.0471 410.591 67.9499ZM402.467 53.983C401.719 53.983 401.022 54.1894 400.377 54.602C399.758 55.0147 399.281 55.6467 398.946 56.4978C400.107 56.4978 401.267 56.4978 402.428 56.4978C403.614 56.4978 404.788 56.4978 405.949 56.4978C405.639 55.6209 405.175 54.9889 404.556 54.602C403.963 54.1894 403.266 53.983 402.467 53.983ZM428.674 68.8784C428.674 68.6721 428.674 68.4786 428.674 68.2981C428.674 68.0917 428.674 67.8983 428.674 67.7177C428.029 68.2594 427.294 68.6721 426.469 68.9558C425.669 69.2653 424.805 69.4201 423.877 69.4201C422.561 69.4201 421.323 69.175 420.163 68.685C419.002 68.1691 417.97 67.4469 417.067 66.5184C416.19 65.564 415.494 64.442 414.978 63.1524C414.488 61.8627 414.243 60.4312 414.243 58.8579C414.243 57.2587 414.488 55.8143 414.978 54.5247C415.494 53.235 416.19 52.1388 417.067 51.2361C417.97 50.3075 419.002 49.5982 420.163 49.1081C421.323 48.5923 422.548 48.3344 423.838 48.3344C424.767 48.3344 425.644 48.4891 426.469 48.7986C427.294 49.0824 428.029 49.4821 428.674 49.998C428.674 49.7917 428.674 49.5982 428.674 49.4177C428.674 49.2371 428.674 49.0566 428.674 48.876C429.732 48.876 430.802 48.876 431.885 48.876C432.969 48.876 434.026 48.876 435.058 48.876C435.058 52.1775 435.058 55.5177 435.058 58.8966C435.058 62.2496 435.058 65.5769 435.058 68.8784C434.026 68.8784 432.969 68.8784 431.885 68.8784C430.802 68.8784 429.732 68.8784 428.674 68.8784ZM424.728 63.7714C425.966 63.7714 426.959 63.32 427.707 62.4173C428.455 61.5145 428.829 60.3281 428.829 58.8579C428.829 57.3877 428.455 56.2141 427.707 55.3371C426.959 54.4344 425.966 53.983 424.728 53.983C423.464 53.983 422.458 54.4215 421.71 55.2984C420.988 56.1754 420.627 57.3619 420.627 58.8579C420.627 60.3539 420.988 61.5532 421.71 62.456C422.458 63.3329 423.464 63.7714 424.728 63.7714ZM441.408 68.8784C441.408 66.5055 441.408 64.1196 441.408 61.7209C441.408 59.3221 441.408 56.9492 441.408 54.602C440.892 54.602 440.363 54.602 439.821 54.602C439.305 54.602 438.79 54.602 438.274 54.602C438.274 53.6477 438.274 52.6934 438.274 51.739C438.274 50.7847 438.274 49.8303 438.274 48.876C438.79 48.876 439.305 48.876 439.821 48.876C440.363 48.876 440.892 48.876 441.408 48.876C441.408 47.9733 441.408 47.0834 441.408 46.2064C441.408 45.3037 441.408 44.4138 441.408 43.5369C442.465 43.5369 443.535 43.5369 444.619 43.5369C445.702 43.5369 446.76 43.5369 447.791 43.5369C447.791 44.4138 447.791 45.3037 447.791 46.2064C447.791 47.0834 447.791 47.9733 447.791 48.876C448.385 48.876 448.991 48.876 449.61 48.876C450.229 48.876 450.835 48.876 451.428 48.876C451.428 49.8303 451.428 50.7847 451.428 51.739C451.428 52.6934 451.428 53.6477 451.428 54.602C450.835 54.602 450.229 54.602 449.61 54.602C448.991 54.602 448.385 54.602 447.791 54.602C447.791 56.9492 447.791 59.3221 447.791 61.7209C447.791 64.1196 447.791 66.5055 447.791 68.8784C446.76 68.8784 445.702 68.8784 444.619 68.8784C443.535 68.8784 442.465 68.8784 441.408 68.8784ZM457.912 46.5933C457.164 46.5933 456.48 46.4128 455.861 46.0517C455.268 45.6906 454.791 45.2134 454.43 44.6202C454.068 44.0269 453.888 43.3692 453.888 42.647C453.888 41.9248 454.068 41.28 454.43 40.7125C454.791 40.1193 455.268 39.6421 455.861 39.281C456.48 38.9199 457.164 38.7394 457.912 38.7394C458.634 38.7394 459.291 38.9199 459.885 39.281C460.504 39.6421 460.994 40.1193 461.355 40.7125C461.716 41.28 461.897 41.9248 461.897 42.647C461.897 43.3692 461.716 44.0269 461.355 44.6202C460.994 45.2134 460.504 45.6906 459.885 46.0517C459.291 46.4128 458.634 46.5933 457.912 46.5933ZM454.7 68.8784C454.7 65.5769 454.7 62.2496 454.7 58.8966C454.7 55.5177 454.7 52.1775 454.7 48.876C455.758 48.876 456.828 48.876 457.912 48.876C458.995 48.876 460.052 48.876 461.084 48.876C461.084 52.1775 461.084 55.5177 461.084 58.8966C461.084 62.2496 461.084 65.5769 461.084 68.8784C460.052 68.8784 458.995 68.8784 457.912 68.8784C456.828 68.8784 455.758 68.8784 454.7 68.8784ZM470.143 68.8784C469.009 65.5769 467.848 62.2496 466.661 58.8966C465.501 55.5177 464.353 52.1775 463.218 48.876C464.327 48.876 465.436 48.876 466.545 48.876C467.68 48.876 468.802 48.876 469.911 48.876C470.582 50.9136 471.253 52.9642 471.923 55.0276C472.62 57.0653 473.29 59.1029 473.935 61.1405C474.606 59.1029 475.276 57.0653 475.947 55.0276C476.618 52.9642 477.275 50.9136 477.92 48.876C479.003 48.876 480.1 48.876 481.209 48.876C482.318 48.876 483.414 48.876 484.497 48.876C483.362 52.1775 482.202 55.5177 481.015 58.8966C479.855 62.2496 478.707 65.5769 477.572 68.8784C476.36 68.8784 475.122 68.8784 473.858 68.8784C472.594 68.8784 471.356 68.8784 470.143 68.8784ZM503.272 67.9499C501.492 68.6979 499.726 69.1621 497.972 69.3427C496.218 69.5232 494.554 69.4201 492.981 69.0332C491.433 68.6721 490.053 68.0401 488.841 67.1374C487.629 66.2346 486.674 65.0869 485.978 63.694C485.307 62.3012 484.972 60.6892 484.972 58.8579C484.972 57.3361 485.217 55.9433 485.707 54.6794C486.223 53.3898 486.945 52.2678 487.874 51.3134C488.802 50.3333 489.899 49.5853 491.162 49.0695C492.426 48.5278 493.806 48.257 495.302 48.257C496.643 48.257 497.856 48.4762 498.939 48.9147C500.022 49.3532 500.964 49.9722 501.763 50.7718C502.563 51.5456 503.208 52.4741 503.698 53.5574C504.188 54.6407 504.497 55.8272 504.626 57.1168C504.755 58.4065 504.678 59.7735 504.394 61.2179C502.279 61.2179 500.151 61.2179 498.01 61.2179C495.87 61.2179 493.742 61.2179 491.627 61.2179C492.117 62.1981 492.929 62.8945 494.064 63.3071C495.225 63.7198 496.592 63.8488 498.165 63.694C499.764 63.5393 501.467 63.1266 503.272 62.456C503.272 63.3587 503.272 64.2744 503.272 65.2029C503.272 66.1315 503.272 67.0471 503.272 67.9499ZM495.147 53.983C494.399 53.983 493.703 54.1894 493.058 54.602C492.439 55.0147 491.962 55.6467 491.627 56.4978C492.787 56.4978 493.948 56.4978 495.109 56.4978C496.295 56.4978 497.469 56.4978 498.629 56.4978C498.32 55.6209 497.856 54.9889 497.237 54.602C496.643 54.1894 495.947 53.983 495.147 53.983ZM516.711 68.8784C516.711 64.5452 516.711 60.1604 516.711 55.724C516.711 51.2876 516.711 46.9029 516.711 42.5696C517.846 42.5696 518.98 42.5696 520.115 42.5696C521.25 42.5696 522.372 42.5696 523.481 42.5696C523.481 46.9029 523.481 51.2876 523.481 55.724C523.481 60.1604 523.481 64.5452 523.481 68.8784C522.372 68.8784 521.25 68.8784 520.115 68.8784C518.98 68.8784 517.846 68.8784 516.711 68.8784ZM528.334 68.8784C528.334 65.5769 528.334 62.2496 528.334 58.8966C528.334 55.5177 528.334 52.1775 528.334 48.876C529.392 48.876 530.462 48.876 531.545 48.876C532.629 48.876 533.686 48.876 534.718 48.876C534.718 49.0566 534.718 49.2242 534.718 49.379C534.718 49.5337 534.718 49.7014 534.718 49.8819C535.414 49.3919 536.188 49.0179 537.039 48.7599C537.916 48.4762 538.858 48.3344 539.864 48.3344C541.334 48.3344 542.623 48.6697 543.732 49.3403C544.867 50.0109 545.744 50.9781 546.363 52.242C547.008 53.48 547.331 54.976 547.331 56.73C547.331 58.7418 547.331 60.7665 547.331 62.8042C547.331 64.8418 547.331 66.8666 547.331 68.8784C546.299 68.8784 545.241 68.8784 544.158 68.8784C543.075 68.8784 542.004 68.8784 540.947 68.8784C540.947 67.0213 540.947 65.1384 540.947 63.2298C540.947 61.3211 540.947 59.4382 540.947 57.5811C540.947 56.5494 540.702 55.724 540.212 55.105C539.747 54.4602 538.999 54.1378 537.968 54.1378C536.936 54.1378 536.136 54.4344 535.569 55.0276C535.002 55.6209 534.718 56.472 534.718 57.5811C534.718 59.4382 534.718 61.3211 534.718 63.2298C534.718 65.1384 534.718 67.0213 534.718 68.8784C533.686 68.8784 532.629 68.8784 531.545 68.8784C530.462 68.8784 529.392 68.8784 528.334 68.8784ZM557.652 75.0687C556.62 75.0687 555.563 75.0687 554.479 75.0687C553.396 75.0687 552.326 75.0687 551.268 75.0687C551.268 70.7613 551.268 66.4023 551.268 61.9917C551.268 57.5553 551.268 53.1834 551.268 48.876C552.326 48.876 553.396 48.876 554.479 48.876C555.563 48.876 556.62 48.876 557.652 48.876C557.652 49.0566 557.652 49.2371 557.652 49.4177C557.652 49.5982 557.652 49.7917 557.652 49.998C558.297 49.4821 559.032 49.0824 559.857 48.7986C560.683 48.4891 561.56 48.3344 562.488 48.3344C563.778 48.3344 565.003 48.5923 566.164 49.1081C567.324 49.5982 568.343 50.3075 569.22 51.2361C570.123 52.1646 570.819 53.2737 571.309 54.5633C571.825 55.853 572.083 57.2845 572.083 58.8579C572.083 60.4054 571.825 61.8241 571.309 63.1137C570.819 64.4033 570.123 65.5253 569.22 66.4797C568.343 67.4082 567.324 68.1304 566.164 68.6463C565.003 69.1621 563.765 69.4201 562.449 69.4201C561.521 69.4201 560.644 69.2653 559.818 68.9558C559.019 68.6721 558.297 68.2594 557.652 67.7177C557.652 68.93 557.652 70.1552 557.652 71.3932C557.652 72.6313 557.652 73.8565 557.652 75.0687ZM561.598 63.7714C562.862 63.7714 563.855 63.3329 564.577 62.456C565.325 61.5532 565.699 60.3539 565.699 58.8579C565.699 57.3619 565.325 56.1754 564.577 55.2984C563.855 54.4215 562.862 53.983 561.598 53.983C560.36 53.983 559.367 54.4344 558.619 55.3371C557.871 56.2141 557.497 57.3877 557.497 58.8579C557.497 60.3281 557.871 61.5145 558.619 62.4173C559.367 63.32 560.36 63.7714 561.598 63.7714ZM593.947 48.876C593.947 52.1775 593.947 55.5177 593.947 58.8966C593.947 62.2496 593.947 65.5769 593.947 68.8784C592.915 68.8784 591.858 68.8784 590.775 68.8784C589.691 68.8784 588.621 68.8784 587.563 68.8784C587.563 68.6979 587.563 68.5302 587.563 68.3755C587.563 68.2207 587.563 68.053 587.563 67.8725C586.867 68.3626 586.08 68.7366 585.203 68.9945C584.352 69.2782 583.424 69.4201 582.418 69.4201C580.947 69.4201 579.645 69.0848 578.51 68.4141C577.401 67.7435 576.524 66.7763 575.879 65.5124C575.26 64.2486 574.951 62.7526 574.951 61.0245C574.951 59.0126 574.951 56.9879 574.951 54.9502C574.951 52.9126 574.951 50.8879 574.951 48.876C576.008 48.876 577.078 48.876 578.162 48.876C579.245 48.876 580.303 48.876 581.334 48.876C581.334 50.7331 581.334 52.616 581.334 54.5247C581.334 56.4333 581.334 58.3162 581.334 60.1733C581.334 61.205 581.566 62.0433 582.031 62.6881C582.521 63.3071 583.282 63.6167 584.313 63.6167C585.345 63.6167 586.145 63.32 586.712 62.7268C587.28 62.1336 587.563 61.2824 587.563 60.1733C587.563 58.3162 587.563 56.4333 587.563 54.5247C587.563 52.616 587.563 50.7331 587.563 48.876C588.621 48.876 589.691 48.876 590.775 48.876C591.858 48.876 592.915 48.876 593.947 48.876ZM600.283 68.8784C600.283 66.5055 600.283 64.1196 600.283 61.7209C600.283 59.3221 600.283 56.9492 600.283 54.602C599.768 54.602 599.239 54.602 598.697 54.602C598.181 54.602 597.665 54.602 597.15 54.602C597.15 53.6477 597.15 52.6934 597.15 51.739C597.15 50.7847 597.15 49.8303 597.15 48.876C597.665 48.876 598.181 48.876 598.697 48.876C599.239 48.876 599.768 48.876 600.283 48.876C600.283 47.9733 600.283 47.0834 600.283 46.2064C600.283 45.3037 600.283 44.4138 600.283 43.5369C601.341 43.5369 602.411 43.5369 603.495 43.5369C604.578 43.5369 605.635 43.5369 606.667 43.5369C606.667 44.4138 606.667 45.3037 606.667 46.2064C606.667 47.0834 606.667 47.9733 606.667 48.876C607.26 48.876 607.866 48.876 608.486 48.876C609.105 48.876 609.711 48.876 610.304 48.876C610.304 49.8303 610.304 50.7847 610.304 51.739C610.304 52.6934 610.304 53.6477 610.304 54.602C609.711 54.602 609.105 54.602 608.486 54.602C607.866 54.602 607.26 54.602 606.667 54.602C606.667 56.9492 606.667 59.3221 606.667 61.7209C606.667 64.1196 606.667 66.5055 606.667 68.8784C605.635 68.8784 604.578 68.8784 603.495 68.8784C602.411 68.8784 601.341 68.8784 600.283 68.8784ZM627.552 57.0395C627.552 59.4382 627.268 61.6048 626.701 63.5393C626.159 65.4738 625.398 67.189 624.418 68.685C623.438 70.181 622.29 71.4448 620.975 72.4765C619.685 73.534 618.28 74.3723 616.758 74.9913C615.236 75.6104 613.663 76.0231 612.038 76.2294C612.038 75.2493 612.038 74.2691 612.038 73.289C612.038 72.3347 612.038 71.3803 612.038 70.426C613.843 69.9875 615.417 69.2524 616.758 68.2207C618.099 67.189 619.144 65.7704 619.892 63.9649C620.665 62.1336 621.052 59.8251 621.052 57.0395C621.052 54.228 620.665 51.9196 619.892 50.1141C619.144 48.3086 618.099 46.89 616.758 45.8582C615.417 44.8265 613.843 44.0914 612.038 43.6529C612.038 42.6728 612.038 41.7056 612.038 40.7512C612.038 39.7711 612.038 38.8039 612.038 37.8495C613.663 38.0301 615.236 38.4428 616.758 39.0876C618.28 39.7066 619.685 40.5449 620.975 41.6024C622.29 42.6341 623.438 43.898 624.418 45.394C625.398 46.89 626.159 48.6052 626.701 50.5397C627.268 52.4741 627.552 54.6407 627.552 57.0395Z" fill="#686868"/>
</svg>
