<svg width="70" height="70" viewBox="0 0 70 70" fill="none" xmlns="http://www.w3.org/2000/svg">
<path d="M42.8163 42.8851C42.8723 38.5604 42.7969 44.3841 42.8633 39.2534C42.9297 34.1227 42.9131 35.4093 42.9131 35.4093C42.9131 35.4093 61.8927 35.655 69.7623 35.7569C69.6959 40.8876 57.6447 43.0771 42.8163 42.8851Z" fill="white"/>
<path d="M43.0208 27.1022C42.9648 31.4269 43.0378 25.7847 42.9714 30.9153C42.905 36.046 42.9217 34.7594 42.9217 34.7594C42.9217 34.7594 61.9013 35.0051 69.7709 35.1069C69.8373 29.9762 57.8492 27.2941 43.0208 27.1022Z" fill="#F4E3D5"/>
<path d="M42.7875 27.0533C38.4628 26.9973 44.2864 27.0727 39.1557 27.0063C34.0251 26.9399 35.3116 26.9566 35.3116 26.9566C35.3116 26.9566 35.5573 7.97693 35.6592 0.107327C40.7899 0.173735 42.9794 12.2249 42.7875 27.0533Z" fill="white"/>
<path d="M27.005 26.8493C31.3297 26.9053 25.6875 26.8323 30.8182 26.8987C35.9489 26.9651 34.6623 26.9485 34.6623 26.9485C34.6623 26.9485 34.9079 7.96882 35.0097 0.0992158C29.879 0.0328084 27.1969 12.0209 27.005 26.8493Z" fill="#F4E3D5"/>
<path d="M27.0328 42.6811C31.3575 42.737 25.5339 42.6617 30.6646 42.7281C35.7953 42.7945 34.5087 42.7778 34.5087 42.7778C34.5087 42.7778 34.263 61.7574 34.1611 69.627C29.0304 69.5606 26.8409 57.5095 27.0328 42.6811Z" fill="white"/>
<path d="M42.8158 42.8845C38.4911 42.8286 44.1333 42.9016 39.0026 42.8352C33.8719 42.7688 35.1585 42.7854 35.1585 42.7854C35.1585 42.7854 34.9129 61.7651 34.8111 69.6347C39.9418 69.7011 42.6239 57.713 42.8158 42.8845Z" fill="#F4E3D5"/>
<rect x="42.3115" y="27.6299" width="14.5201" height="14.5201" transform="rotate(90.7415 42.3115 27.6299)" fill="#FECC73"/>
<path d="M27.0533 27.0768C26.9973 31.4015 27.0727 25.5778 27.0063 30.7085C26.9399 35.8392 26.9566 34.5526 26.9566 34.5526C26.9566 34.5526 7.97693 34.307 0.107327 34.205C0.173735 29.0744 12.2249 26.8848 27.0533 27.0768Z" fill="white"/>
<path d="M26.8493 42.8597C26.9053 38.535 26.8323 44.1773 26.8987 39.0466C26.9651 33.9159 26.9485 35.2025 26.9485 35.2025C26.9485 35.2025 7.96882 34.9568 0.0992158 34.855C0.0328084 39.9857 12.0209 42.6678 26.8493 42.8597Z" fill="#F4E3D5"/>
</svg>
