<svg width="71" height="71" viewBox="0 0 71 71" fill="none" xmlns="http://www.w3.org/2000/svg">
<path d="M43.3661 43.2304C43.3662 38.9054 43.366 44.7295 43.3662 39.5984C43.3664 34.4673 43.3664 35.754 43.3664 35.754C43.3664 35.754 62.3475 35.7548 70.2178 35.7552C70.2175 40.8863 58.1957 43.2311 43.3661 43.2304Z" fill="white"/>
<path d="M43.3667 27.4462C43.3665 31.7713 43.3668 26.1286 43.3666 31.2597C43.3663 36.3908 43.3664 35.1041 43.3664 35.1041C43.3664 35.1041 62.3475 35.1049 70.2178 35.1052C70.218 29.9741 58.1963 27.4469 43.3667 27.4462Z" fill="#F4E3D5"/>
<path d="M43.1325 27.4004C38.8074 27.4002 44.6315 27.4004 39.5004 27.4002C34.3693 27.4 35.656 27.4 35.656 27.4C35.656 27.4 35.6569 8.41888 35.6573 0.548642C40.7884 0.548869 43.1331 12.5707 43.1325 27.4004Z" fill="white"/>
<path d="M27.3493 27.3997C31.6743 27.3999 26.0316 27.3996 31.1627 27.3998C36.2938 27.4001 35.0071 27.4 35.0071 27.4C35.0071 27.4 35.008 8.41886 35.0083 0.548629C29.8772 0.548403 27.3499 12.5701 27.3493 27.3997Z" fill="#F4E3D5"/>
<path d="M27.5809 43.2296C31.9059 43.2298 26.0819 43.2296 31.2129 43.2298C36.344 43.23 35.0573 43.23 35.0573 43.23C35.0573 43.23 35.0565 62.2111 35.0561 70.0813C29.925 70.0811 27.5803 58.0592 27.5809 43.2296Z" fill="white"/>
<path d="M43.3651 43.2298C39.0401 43.2296 44.6827 43.2299 39.5516 43.2297C34.4205 43.2294 35.7072 43.2295 35.7072 43.2295C35.7072 43.2295 35.7064 62.2106 35.7061 70.0809C40.8372 70.0811 43.3644 58.0594 43.3651 43.2298Z" fill="#F4E3D5"/>
<rect x="42.6646" y="27.9827" width="14.52" height="14.52" transform="rotate(90.0025 42.6646 27.9827)" fill="#FECC73"/>
<path d="M27.4005 27.6271C27.4004 31.9521 27.4006 26.128 27.4004 31.2591C27.4002 36.3902 27.4002 35.1035 27.4002 35.1035C27.4002 35.1035 8.41907 35.1027 0.548834 35.1023C0.549061 29.9712 12.5709 27.6264 27.4005 27.6271Z" fill="white"/>
<path d="M27.3999 43.4108C27.4001 39.0858 27.3998 44.7284 27.4 39.5973C27.4003 34.4662 27.4002 35.7529 27.4002 35.7529C27.4002 35.7529 8.41906 35.7521 0.548822 35.7518C0.548595 40.8829 12.5703 43.4102 27.3999 43.4108Z" fill="#F4E3D5"/>
</svg>
