<svg width="70" height="70" viewBox="0 0 70 70" fill="none" xmlns="http://www.w3.org/2000/svg">
<path d="M42.8164 42.8852C42.8724 38.5605 42.797 44.3841 42.8634 39.2534C42.9298 34.1227 42.9132 35.4093 42.9132 35.4093C42.9132 35.4093 61.8927 35.655 69.7623 35.7569C69.6959 40.8876 57.6448 43.0771 42.8164 42.8852Z" fill="white"/>
<path d="M43.0209 27.1022C42.9649 31.4269 43.0379 25.7846 42.9715 30.9153C42.9051 36.046 42.9218 34.7594 42.9218 34.7594C42.9218 34.7594 61.9013 35.0051 69.7709 35.1069C69.8373 29.9762 57.8492 27.2941 43.0209 27.1022Z" fill="#F4E3D5"/>
<path d="M42.7875 27.0539C38.4628 26.9979 44.2864 27.0733 39.1557 27.0069C34.0251 26.9405 35.3117 26.9571 35.3117 26.9571C35.3117 26.9571 35.5573 7.97744 35.6592 0.107815C40.7899 0.174223 42.9794 12.2254 42.7875 27.0539Z" fill="white"/>
<path d="M27.005 26.8494C31.3297 26.9054 25.6875 26.8324 30.8182 26.8988C35.9489 26.9652 34.6623 26.9485 34.6623 26.9485C34.6623 26.9485 34.9079 7.96884 35.0097 0.0992158C29.8791 0.0328082 27.197 12.0209 27.005 26.8494Z" fill="#F4E3D5"/>
<path d="M27.0329 42.681C31.3575 42.737 25.5339 42.6616 30.6646 42.728C35.7953 42.7944 34.5087 42.7777 34.5087 42.7777C34.5087 42.7777 34.263 61.7574 34.1611 69.627C29.0304 69.5606 26.8409 57.5094 27.0329 42.681Z" fill="white"/>
<path d="M42.8158 42.885C38.4911 42.829 44.1333 42.902 39.0026 42.8356C33.8719 42.7692 35.1585 42.7859 35.1585 42.7859C35.1585 42.7859 34.9129 61.7655 34.8111 69.6352C39.9417 69.7016 42.6238 57.7134 42.8158 42.885Z" fill="#F4E3D5"/>
<rect x="42.3115" y="27.6299" width="14.5201" height="14.52" transform="rotate(90.7415 42.3115 27.6299)" fill="#FECC73"/>
<path d="M27.0537 27.0772C26.9977 31.4019 27.0731 25.5783 27.0067 30.709C26.9403 35.8397 26.9569 34.5531 26.9569 34.5531C26.9569 34.5531 7.97739 34.3074 0.107815 34.2055C0.174223 29.0748 12.2253 26.8853 27.0537 27.0772Z" fill="white"/>
<path d="M26.8492 42.8602C26.9052 38.5355 26.8322 44.1778 26.8986 39.0471C26.965 33.9164 26.9483 35.203 26.9483 35.203C26.9483 35.203 7.96879 34.9573 0.0992158 34.8555C0.0328087 39.9862 12.0209 42.6683 26.8492 42.8602Z" fill="#F4E3D5"/>
</svg>
