<svg width="71" height="71" viewBox="0 0 71 71" fill="none" xmlns="http://www.w3.org/2000/svg">
<path d="M43.366 43.2305C43.3661 38.9054 43.3659 44.7295 43.3661 39.5984C43.3663 34.4673 43.3663 35.754 43.3663 35.754C43.3663 35.754 62.3475 35.7548 70.2178 35.7552C70.2175 40.8863 58.1956 43.2311 43.366 43.2305Z" fill="white"/>
<path d="M43.3666 27.4462C43.3664 31.7713 43.3667 26.1286 43.3665 31.2597C43.3662 36.3908 43.3663 35.1041 43.3663 35.1041C43.3663 35.1041 62.3475 35.1049 70.2178 35.1052C70.218 29.9741 58.1963 27.4469 43.3666 27.4462Z" fill="#F4E3D5"/>
<path d="M43.133 27.4005C38.8079 27.4003 44.632 27.4005 39.5009 27.4003C34.3698 27.4001 35.6565 27.4001 35.6565 27.4001C35.6565 27.4001 35.6574 8.4189 35.6578 0.548642C40.7889 0.548869 43.1336 12.5708 43.133 27.4005Z" fill="white"/>
<path d="M27.3492 27.3998C31.6743 27.4 26.0316 27.3997 31.1627 27.3999C36.2938 27.4002 35.0071 27.4001 35.0071 27.4001C35.0071 27.4001 35.008 8.41889 35.0083 0.548629C29.8771 0.548403 27.3499 12.5701 27.3492 27.3998Z" fill="#F4E3D5"/>
<path d="M27.5814 43.2295C31.9064 43.2297 26.0823 43.2295 31.2134 43.2297C36.3445 43.2299 35.0578 43.2299 35.0578 43.2299C35.0578 43.2299 35.057 62.2111 35.0566 70.0813C29.9255 70.0811 27.5807 58.0592 27.5814 43.2295Z" fill="white"/>
<path d="M43.3656 43.2297C39.0406 43.2295 44.6833 43.2298 39.5521 43.2296C34.421 43.2293 35.7077 43.2294 35.7077 43.2294C35.7077 43.2294 35.7069 62.2106 35.7066 70.0809C40.8377 70.0811 43.365 58.0594 43.3656 43.2297Z" fill="#F4E3D5"/>
<rect x="42.6646" y="27.9827" width="14.5201" height="14.5201" transform="rotate(90.0025 42.6646 27.9827)" fill="#FECC73"/>
<path d="M27.4006 27.6266C27.4005 31.9516 27.4007 26.1275 27.4005 31.2586C27.4003 36.3898 27.4003 35.103 27.4003 35.103C27.4003 35.103 8.4191 35.1022 0.548834 35.1018C0.549061 29.9707 12.571 27.6259 27.4006 27.6266Z" fill="white"/>
<path d="M27.4 43.4113C27.4002 39.0863 27.3999 44.729 27.4001 39.5978C27.4004 34.4667 27.4003 35.7534 27.4003 35.7534C27.4003 35.7534 8.41908 35.7526 0.548822 35.7523C0.548595 40.8834 12.5703 43.4107 27.4 43.4113Z" fill="#F4E3D5"/>
</svg>
