<svg width="70" height="70" viewBox="0 0 70 70" fill="none" xmlns="http://www.w3.org/2000/svg">
<path d="M42.8164 42.8851C42.8724 38.5604 42.797 44.384 42.8634 39.2534C42.9298 34.1227 42.9132 35.4093 42.9132 35.4093C42.9132 35.4093 61.8927 35.655 69.7623 35.7569C69.6959 40.8875 57.6448 43.077 42.8164 42.8851Z" fill="white"/>
<path d="M43.0209 27.1022C42.9649 31.4269 43.0379 25.7847 42.9715 30.9154C42.9051 36.046 42.9218 34.7594 42.9218 34.7594C42.9218 34.7594 61.9013 35.0051 69.7709 35.1069C69.8373 29.9762 57.8492 27.2941 43.0209 27.1022Z" fill="#F4E3D5"/>
<path d="M42.7875 27.0537C38.4628 26.9977 44.2864 27.0731 39.1557 27.0067C34.0251 26.9403 35.3117 26.9569 35.3117 26.9569C35.3117 26.9569 35.5573 7.97739 35.6592 0.107815C40.7899 0.174223 42.9794 12.2253 42.7875 27.0537Z" fill="white"/>
<path d="M27.005 26.8492C31.3297 26.9052 25.6875 26.8322 30.8182 26.8986C35.9489 26.965 34.6623 26.9484 34.6623 26.9484C34.6623 26.9484 34.9079 7.96879 35.0097 0.0992158C29.8791 0.0328087 27.197 12.0209 27.005 26.8492Z" fill="#F4E3D5"/>
<path d="M27.0329 42.6807C31.3575 42.7366 25.5339 42.6613 30.6646 42.7277C35.7953 42.7941 34.5087 42.7774 34.5087 42.7774C34.5087 42.7774 34.263 61.757 34.1611 69.6266C29.0304 69.5602 26.8409 57.509 27.0329 42.6807Z" fill="white"/>
<path d="M42.8158 42.8846C38.4911 42.8287 44.1333 42.9017 39.0026 42.8353C33.8719 42.7689 35.1585 42.7855 35.1585 42.7855C35.1585 42.7855 34.9129 61.7651 34.8111 69.6347C39.9417 69.7011 42.6238 57.713 42.8158 42.8846Z" fill="#F4E3D5"/>
<rect x="42.3115" y="27.6299" width="14.52" height="14.52" transform="rotate(90.7415 42.3115 27.6299)" fill="#FECC73"/>
<path d="M27.0537 27.0773C26.9977 31.402 27.0731 25.5784 27.0067 30.709C26.9403 35.8397 26.9569 34.5531 26.9569 34.5531C26.9569 34.5531 7.97739 34.3074 0.107815 34.2055C0.174223 29.0749 12.2253 26.8854 27.0537 27.0773Z" fill="white"/>
<path d="M26.8492 42.8597C26.9052 38.535 26.8322 44.1772 26.8986 39.0466C26.965 33.9159 26.9484 35.2025 26.9484 35.2025C26.9484 35.2025 7.96879 34.9568 0.0992158 34.855C0.0328087 39.9857 12.0209 42.6678 26.8492 42.8597Z" fill="#F4E3D5"/>
</svg>
