<svg width="474" height="218" viewBox="0 0 474 218" fill="none" xmlns="http://www.w3.org/2000/svg">
<rect y="0.607422" width="473.538" height="217.107" rx="44" fill="white"/>
<rect y="108.433" width="73.4467" height="109.282" fill="white"/>
<path d="M473.538 101.079H0V41.9999C0 18.804 18.804 -0.000106812 42 -0.000106812H473.538V101.079Z" fill="#F4E3D5"/>
<path opacity="0.8" d="M33.0261 38.9285C33.0261 36.4645 33.4101 34.2245 34.1781 32.2085C34.9781 30.1605 36.0981 28.3845 37.5381 26.8805C38.9781 25.3765 40.7061 24.2085 42.7221 23.3765C44.7381 22.5445 46.9621 22.0965 49.3941 22.0325C51.8581 21.9685 54.4821 22.3525 57.2661 23.1845C57.2661 24.5285 57.2661 25.8885 57.2661 27.2645C57.2661 28.6085 57.2661 29.9525 57.2661 31.2965C55.3781 30.4005 53.5061 29.8885 51.6501 29.7605C49.7941 29.6325 48.1141 29.8885 46.6101 30.5285C45.1061 31.1685 43.9061 32.1925 43.0101 33.6005C42.1141 34.9765 41.6661 36.7525 41.6661 38.9285C41.6661 41.1045 42.1141 42.8965 43.0101 44.3045C43.9061 45.6805 45.1061 46.6885 46.6101 47.3285C48.1141 47.9685 49.7941 48.2245 51.6501 48.0965C53.5061 47.9685 55.3781 47.4565 57.2661 46.5605C57.2661 47.9045 57.2661 49.2645 57.2661 50.6405C57.2661 51.9845 57.2661 53.3285 57.2661 54.6725C54.4821 55.5045 51.8581 55.8885 49.3941 55.8245C46.9621 55.7605 44.7381 55.3125 42.7221 54.4805C40.7061 53.6485 38.9781 52.4805 37.5381 50.9765C36.0981 49.4725 34.9781 47.7125 34.1781 45.6965C33.4101 43.6485 33.0261 41.3925 33.0261 38.9285ZM62.3031 55.2485C62.3031 51.1525 62.3031 47.0245 62.3031 42.8645C62.3031 38.6725 62.3031 34.5285 62.3031 30.4325C63.6151 30.4325 64.9431 30.4325 66.2871 30.4325C67.6311 30.4325 68.9431 30.4325 70.2231 30.4325C70.2231 30.6565 70.2231 30.8805 70.2231 31.1045C70.2231 31.3285 70.2231 31.5525 70.2231 31.7765C71.2151 31.0725 72.3351 30.5445 73.5831 30.1925C74.8311 29.8405 76.1911 29.7445 77.6631 29.9045C77.6631 31.1845 77.6631 32.4805 77.6631 33.7925C77.6631 35.1045 77.6631 36.4005 77.6631 37.6805C75.1351 37.3285 73.2631 37.5525 72.0471 38.3525C70.8311 39.1205 70.2231 40.3845 70.2231 42.1445C70.2231 44.2885 70.2231 46.4645 70.2231 48.6725C70.2231 50.8805 70.2231 53.0725 70.2231 55.2485C68.9431 55.2485 67.6311 55.2485 66.2871 55.2485C64.9431 55.2485 63.6151 55.2485 62.3031 55.2485ZM102.366 54.0965C100.158 55.0245 97.9662 55.6005 95.7902 55.8245C93.6142 56.0485 91.5502 55.9205 89.5982 55.4405C87.6782 54.9925 85.9662 54.2085 84.4622 53.0885C82.9582 51.9685 81.7742 50.5445 80.9102 48.8165C80.0782 47.0885 79.6622 45.0885 79.6622 42.8165C79.6622 40.9285 79.9662 39.2005 80.5742 37.6325C81.2142 36.0325 82.1102 34.6405 83.2622 33.4565C84.4142 32.2405 85.7742 31.3125 87.3422 30.6725C88.9102 30.0005 90.6222 29.6645 92.4782 29.6645C94.1422 29.6645 95.6462 29.9365 96.9902 30.4805C98.3342 31.0245 99.5022 31.7925 100.494 32.7845C101.486 33.7445 102.286 34.8965 102.894 36.2405C103.502 37.5845 103.886 39.0565 104.046 40.6565C104.206 42.2565 104.11 43.9525 103.758 45.7445C101.134 45.7445 98.4942 45.7445 95.8382 45.7445C93.1822 45.7445 90.5422 45.7445 87.9182 45.7445C88.5262 46.9605 89.5342 47.8245 90.9422 48.3365C92.3822 48.8485 94.0782 49.0085 96.0302 48.8165C98.0142 48.6245 100.126 48.1125 102.366 47.2805C102.366 48.4005 102.366 49.5365 102.366 50.6885C102.366 51.8405 102.366 52.9765 102.366 54.0965ZM92.2862 36.7685C91.3582 36.7685 90.4942 37.0245 89.6942 37.5365C88.9262 38.0485 88.3342 38.8325 87.9182 39.8885C89.3582 39.8885 90.7982 39.8885 92.2382 39.8885C93.7102 39.8885 95.1662 39.8885 96.6062 39.8885C96.2222 38.8005 95.6462 38.0165 94.8782 37.5365C94.1422 37.0245 93.2782 36.7685 92.2862 36.7685ZM124.801 55.2485C124.801 54.9925 124.801 54.7525 124.801 54.5285C124.801 54.2725 124.801 54.0325 124.801 53.8085C124.001 54.4805 123.089 54.9925 122.065 55.3445C121.073 55.7285 120.001 55.9205 118.849 55.9205C117.217 55.9205 115.681 55.6165 114.241 55.0085C112.801 54.3685 111.521 53.4725 110.401 52.3205C109.313 51.1365 108.449 49.7445 107.809 48.1445C107.201 46.5445 106.897 44.7685 106.897 42.8165C106.897 40.8325 107.201 39.0405 107.809 37.4405C108.449 35.8405 109.313 34.4805 110.401 33.3605C111.521 32.2085 112.801 31.3285 114.241 30.7205C115.681 30.0805 117.201 29.7605 118.801 29.7605C119.953 29.7605 121.041 29.9525 122.065 30.3365C123.089 30.6885 124.001 31.1845 124.801 31.8245C124.801 31.5685 124.801 31.3285 124.801 31.1045C124.801 30.8805 124.801 30.6565 124.801 30.4325C126.113 30.4325 127.441 30.4325 128.785 30.4325C130.129 30.4325 131.441 30.4325 132.721 30.4325C132.721 34.5285 132.721 38.6725 132.721 42.8645C132.721 47.0245 132.721 51.1525 132.721 55.2485C131.441 55.2485 130.129 55.2485 128.785 55.2485C127.441 55.2485 126.113 55.2485 124.801 55.2485ZM119.905 48.9125C121.441 48.9125 122.673 48.3525 123.601 47.2325C124.529 46.1125 124.993 44.6405 124.993 42.8165C124.993 40.9925 124.529 39.5365 123.601 38.4485C122.673 37.3285 121.441 36.7685 119.905 36.7685C118.337 36.7685 117.089 37.3125 116.161 38.4005C115.265 39.4885 114.817 40.9605 114.817 42.8165C114.817 44.6725 115.265 46.1605 116.161 47.2805C117.089 48.3685 118.337 48.9125 119.905 48.9125ZM140.598 55.2485C140.598 52.3045 140.598 49.3445 140.598 46.3685C140.598 43.3925 140.598 40.4485 140.598 37.5365C139.958 37.5365 139.302 37.5365 138.63 37.5365C137.99 37.5365 137.35 37.5365 136.71 37.5365C136.71 36.3525 136.71 35.1685 136.71 33.9845C136.71 32.8005 136.71 31.6165 136.71 30.4325C137.35 30.4325 137.99 30.4325 138.63 30.4325C139.302 30.4325 139.958 30.4325 140.598 30.4325C140.598 29.3125 140.598 28.2085 140.598 27.1205C140.598 26.0005 140.598 24.8965 140.598 23.8085C141.91 23.8085 143.238 23.8085 144.582 23.8085C145.926 23.8085 147.238 23.8085 148.518 23.8085C148.518 24.8965 148.518 26.0005 148.518 27.1205C148.518 28.2085 148.518 29.3125 148.518 30.4325C149.254 30.4325 150.006 30.4325 150.774 30.4325C151.542 30.4325 152.294 30.4325 153.03 30.4325C153.03 31.6165 153.03 32.8005 153.03 33.9845C153.03 35.1685 153.03 36.3525 153.03 37.5365C152.294 37.5365 151.542 37.5365 150.774 37.5365C150.006 37.5365 149.254 37.5365 148.518 37.5365C148.518 40.4485 148.518 43.3925 148.518 46.3685C148.518 49.3445 148.518 52.3045 148.518 55.2485C147.238 55.2485 145.926 55.2485 144.582 55.2485C143.238 55.2485 141.91 55.2485 140.598 55.2485ZM161.074 27.6005C160.146 27.6005 159.298 27.3765 158.53 26.9285C157.794 26.4805 157.202 25.8885 156.754 25.1525C156.306 24.4165 156.082 23.6005 156.082 22.7045C156.082 21.8085 156.306 21.0085 156.754 20.3045C157.202 19.5685 157.794 18.9765 158.53 18.5285C159.298 18.0805 160.146 17.8565 161.074 17.8565C161.97 17.8565 162.786 18.0805 163.522 18.5285C164.29 18.9765 164.898 19.5685 165.346 20.3045C165.794 21.0085 166.018 21.8085 166.018 22.7045C166.018 23.6005 165.794 24.4165 165.346 25.1525C164.898 25.8885 164.29 26.4805 163.522 26.9285C162.786 27.3765 161.97 27.6005 161.074 27.6005ZM157.09 55.2485C157.09 51.1525 157.09 47.0245 157.09 42.8645C157.09 38.6725 157.09 34.5285 157.09 30.4325C158.402 30.4325 159.73 30.4325 161.074 30.4325C162.418 30.4325 163.73 30.4325 165.01 30.4325C165.01 34.5285 165.01 38.6725 165.01 42.8645C165.01 47.0245 165.01 51.1525 165.01 55.2485C163.73 55.2485 162.418 55.2485 161.074 55.2485C159.73 55.2485 158.402 55.2485 157.09 55.2485ZM176.249 55.2485C174.841 51.1525 173.401 47.0245 171.929 42.8645C170.489 38.6725 169.065 34.5285 167.657 30.4325C169.033 30.4325 170.409 30.4325 171.785 30.4325C173.193 30.4325 174.585 30.4325 175.961 30.4325C176.793 32.9605 177.625 35.5045 178.457 38.0645C179.321 40.5925 180.153 43.1205 180.953 45.6485C181.785 43.1205 182.617 40.5925 183.449 38.0645C184.281 35.5045 185.097 32.9605 185.897 30.4325C187.241 30.4325 188.601 30.4325 189.977 30.4325C191.353 30.4325 192.713 30.4325 194.057 30.4325C192.649 34.5285 191.209 38.6725 189.737 42.8645C188.297 47.0245 186.873 51.1525 185.465 55.2485C183.961 55.2485 182.425 55.2485 180.857 55.2485C179.289 55.2485 177.753 55.2485 176.249 55.2485ZM217.351 54.0965C215.143 55.0245 212.951 55.6005 210.775 55.8245C208.599 56.0485 206.535 55.9205 204.583 55.4405C202.663 54.9925 200.951 54.2085 199.447 53.0885C197.943 51.9685 196.759 50.5445 195.895 48.8165C195.063 47.0885 194.647 45.0885 194.647 42.8165C194.647 40.9285 194.951 39.2005 195.559 37.6325C196.199 36.0325 197.095 34.6405 198.247 33.4565C199.399 32.2405 200.759 31.3125 202.327 30.6725C203.895 30.0005 205.607 29.6645 207.463 29.6645C209.127 29.6645 210.631 29.9365 211.975 30.4805C213.319 31.0245 214.487 31.7925 215.479 32.7845C216.471 33.7445 217.271 34.8965 217.879 36.2405C218.487 37.5845 218.871 39.0565 219.031 40.6565C219.191 42.2565 219.095 43.9525 218.743 45.7445C216.119 45.7445 213.479 45.7445 210.823 45.7445C208.167 45.7445 205.527 45.7445 202.903 45.7445C203.511 46.9605 204.519 47.8245 205.927 48.3365C207.367 48.8485 209.063 49.0085 211.015 48.8165C212.999 48.6245 215.111 48.1125 217.351 47.2805C217.351 48.4005 217.351 49.5365 217.351 50.6885C217.351 51.8405 217.351 52.9765 217.351 54.0965ZM207.271 36.7685C206.343 36.7685 205.479 37.0245 204.679 37.5365C203.911 38.0485 203.319 38.8325 202.903 39.8885C204.343 39.8885 205.783 39.8885 207.223 39.8885C208.695 39.8885 210.151 39.8885 211.591 39.8885C211.207 38.8005 210.631 38.0165 209.863 37.5365C209.127 37.0245 208.263 36.7685 207.271 36.7685ZM234.023 55.2485C234.023 49.8725 234.023 44.4325 234.023 38.9285C234.023 33.4245 234.023 27.9845 234.023 22.6085C235.431 22.6085 236.839 22.6085 238.247 22.6085C239.655 22.6085 241.047 22.6085 242.423 22.6085C242.423 27.9845 242.423 33.4245 242.423 38.9285C242.423 44.4325 242.423 49.8725 242.423 55.2485C241.047 55.2485 239.655 55.2485 238.247 55.2485C236.839 55.2485 235.431 55.2485 234.023 55.2485ZM248.444 55.2485C248.444 51.1525 248.444 47.0245 248.444 42.8645C248.444 38.6725 248.444 34.5285 248.444 30.4325C249.756 30.4325 251.084 30.4325 252.428 30.4325C253.772 30.4325 255.084 30.4325 256.364 30.4325C256.364 30.6565 256.364 30.8645 256.364 31.0565C256.364 31.2485 256.364 31.4565 256.364 31.6805C257.228 31.0725 258.188 30.6085 259.244 30.2885C260.332 29.9365 261.5 29.7605 262.748 29.7605C264.572 29.7605 266.172 30.1765 267.548 31.0085C268.956 31.8405 270.044 33.0405 270.812 34.6085C271.612 36.1445 272.012 38.0005 272.012 40.1765C272.012 42.6725 272.012 45.1845 272.012 47.7125C272.012 50.2405 272.012 52.7525 272.012 55.2485C270.732 55.2485 269.42 55.2485 268.076 55.2485C266.732 55.2485 265.404 55.2485 264.092 55.2485C264.092 52.9445 264.092 50.6085 264.092 48.2405C264.092 45.8725 264.092 43.5365 264.092 41.2325C264.092 39.9525 263.788 38.9285 263.18 38.1605C262.604 37.3605 261.676 36.9605 260.396 36.9605C259.116 36.9605 258.124 37.3285 257.42 38.0645C256.716 38.8005 256.364 39.8565 256.364 41.2325C256.364 43.5365 256.364 45.8725 256.364 48.2405C256.364 50.6085 256.364 52.9445 256.364 55.2485C255.084 55.2485 253.772 55.2485 252.428 55.2485C251.084 55.2485 249.756 55.2485 248.444 55.2485ZM284.817 62.9285C283.537 62.9285 282.225 62.9285 280.881 62.9285C279.537 62.9285 278.209 62.9285 276.897 62.9285C276.897 57.5845 276.897 52.1765 276.897 46.7045C276.897 41.2005 276.897 35.7765 276.897 30.4325C278.209 30.4325 279.537 30.4325 280.881 30.4325C282.225 30.4325 283.537 30.4325 284.817 30.4325C284.817 30.6565 284.817 30.8805 284.817 31.1045C284.817 31.3285 284.817 31.5685 284.817 31.8245C285.617 31.1845 286.529 30.6885 287.553 30.3365C288.577 29.9525 289.665 29.7605 290.817 29.7605C292.417 29.7605 293.937 30.0805 295.377 30.7205C296.817 31.3285 298.081 32.2085 299.169 33.3605C300.289 34.5125 301.153 35.8885 301.761 37.4885C302.401 39.0885 302.721 40.8645 302.721 42.8165C302.721 44.7365 302.401 46.4965 301.761 48.0965C301.153 49.6965 300.289 51.0885 299.169 52.2725C298.081 53.4245 296.817 54.3205 295.377 54.9605C293.937 55.6005 292.401 55.9205 290.769 55.9205C289.617 55.9205 288.529 55.7285 287.505 55.3445C286.513 54.9925 285.617 54.4805 284.817 53.8085C284.817 55.3125 284.817 56.8325 284.817 58.3685C284.817 59.9045 284.817 61.4245 284.817 62.9285ZM289.713 48.9125C291.281 48.9125 292.513 48.3685 293.409 47.2805C294.337 46.1605 294.801 44.6725 294.801 42.8165C294.801 40.9605 294.337 39.4885 293.409 38.4005C292.513 37.3125 291.281 36.7685 289.713 36.7685C288.177 36.7685 286.945 37.3285 286.017 38.4485C285.089 39.5365 284.625 40.9925 284.625 42.8165C284.625 44.6405 285.089 46.1125 286.017 47.2325C286.945 48.3525 288.177 48.9125 289.713 48.9125ZM329.846 30.4325C329.846 34.5285 329.846 38.6725 329.846 42.8645C329.846 47.0245 329.846 51.1525 329.846 55.2485C328.566 55.2485 327.254 55.2485 325.91 55.2485C324.566 55.2485 323.238 55.2485 321.926 55.2485C321.926 55.0245 321.926 54.8165 321.926 54.6245C321.926 54.4325 321.926 54.2245 321.926 54.0005C321.062 54.6085 320.086 55.0725 318.998 55.3925C317.942 55.7445 316.79 55.9205 315.542 55.9205C313.718 55.9205 312.102 55.5045 310.694 54.6725C309.318 53.8405 308.23 52.6405 307.43 51.0725C306.662 49.5045 306.278 47.6485 306.278 45.5045C306.278 43.0085 306.278 40.4965 306.278 37.9685C306.278 35.4405 306.278 32.9285 306.278 30.4325C307.59 30.4325 308.918 30.4325 310.262 30.4325C311.606 30.4325 312.918 30.4325 314.198 30.4325C314.198 32.7365 314.198 35.0725 314.198 37.4405C314.198 39.8085 314.198 42.1445 314.198 44.4485C314.198 45.7285 314.486 46.7685 315.062 47.5685C315.67 48.3365 316.614 48.7205 317.894 48.7205C319.174 48.7205 320.166 48.3525 320.87 47.6165C321.574 46.8805 321.926 45.8245 321.926 44.4485C321.926 42.1445 321.926 39.8085 321.926 37.4405C321.926 35.0725 321.926 32.7365 321.926 30.4325C323.238 30.4325 324.566 30.4325 325.91 30.4325C327.254 30.4325 328.566 30.4325 329.846 30.4325ZM337.708 55.2485C337.708 52.3045 337.708 49.3445 337.708 46.3685C337.708 43.3925 337.708 40.4485 337.708 37.5365C337.068 37.5365 336.412 37.5365 335.74 37.5365C335.1 37.5365 334.46 37.5365 333.82 37.5365C333.82 36.3525 333.82 35.1685 333.82 33.9845C333.82 32.8005 333.82 31.6165 333.82 30.4325C334.46 30.4325 335.1 30.4325 335.74 30.4325C336.412 30.4325 337.068 30.4325 337.708 30.4325C337.708 29.3125 337.708 28.2085 337.708 27.1205C337.708 26.0005 337.708 24.8965 337.708 23.8085C339.02 23.8085 340.348 23.8085 341.692 23.8085C343.036 23.8085 344.348 23.8085 345.628 23.8085C345.628 24.8965 345.628 26.0005 345.628 27.1205C345.628 28.2085 345.628 29.3125 345.628 30.4325C346.364 30.4325 347.116 30.4325 347.884 30.4325C348.652 30.4325 349.404 30.4325 350.14 30.4325C350.14 31.6165 350.14 32.8005 350.14 33.9845C350.14 35.1685 350.14 36.3525 350.14 37.5365C349.404 37.5365 348.652 37.5365 347.884 37.5365C347.116 37.5365 346.364 37.5365 345.628 37.5365C345.628 40.4485 345.628 43.3925 345.628 46.3685C345.628 49.3445 345.628 52.3045 345.628 55.2485C344.348 55.2485 343.036 55.2485 341.692 55.2485C340.348 55.2485 339.02 55.2485 337.708 55.2485Z" fill="#E94812"/>
<path d="M33.9496 83.9517C33.9496 81.2637 33.9496 78.5437 33.9496 75.7917C33.9496 73.0397 33.9496 70.3197 33.9496 67.6317C35.5656 67.6317 37.1976 67.6317 38.8456 67.6317C40.4936 67.6317 42.1256 67.6317 43.7416 67.6317C43.7416 68.2557 43.7416 68.8877 43.7416 69.5277C43.7416 70.1677 43.7416 70.7997 43.7416 71.4237C42.8136 71.4237 41.8776 71.4237 40.9336 71.4237C40.0056 71.4237 39.0776 71.4237 38.1496 71.4237C38.1496 71.8877 38.1496 72.3677 38.1496 72.8637C38.1496 73.3437 38.1496 73.8157 38.1496 74.2797C38.9976 74.2797 39.8536 74.2797 40.7176 74.2797C41.5816 74.2797 42.4296 74.2797 43.2616 74.2797C43.2616 74.8717 43.2616 75.4717 43.2616 76.0797C43.2616 76.6877 43.2616 77.2957 43.2616 77.9037C42.4296 77.9037 41.5816 77.9037 40.7176 77.9037C39.8536 77.9037 38.9976 77.9037 38.1496 77.9037C38.1496 78.8957 38.1496 79.9037 38.1496 80.9277C38.1496 81.9517 38.1496 82.9597 38.1496 83.9517C37.4616 83.9517 36.7656 83.9517 36.0616 83.9517C35.3576 83.9517 34.6536 83.9517 33.9496 83.9517ZM46.2515 83.9517C46.2515 81.0557 46.2515 78.1357 46.2515 75.1917C46.2515 72.2477 46.2515 69.3277 46.2515 66.4317C46.9075 66.4317 47.5715 66.4317 48.2435 66.4317C48.9155 66.4317 49.5715 66.4317 50.2115 66.4317C50.2115 69.3277 50.2115 72.2477 50.2115 75.1917C50.2115 78.1357 50.2115 81.0557 50.2115 83.9517C49.5715 83.9517 48.9155 83.9517 48.2435 83.9517C47.5715 83.9517 46.9075 83.9517 46.2515 83.9517ZM58.8553 84.3357C57.9273 84.3357 57.0633 84.1757 56.2633 83.8557C55.4633 83.5197 54.7673 83.0557 54.1753 82.4637C53.5833 81.8557 53.1193 81.1517 52.7833 80.3517C52.4633 79.5517 52.3033 78.6797 52.3033 77.7357C52.3033 76.7917 52.4633 75.9197 52.7833 75.1197C53.1193 74.3197 53.5833 73.6237 54.1753 73.0317C54.7673 72.4397 55.4633 71.9837 56.2633 71.6637C57.0633 71.3277 57.9273 71.1597 58.8553 71.1597C59.7993 71.1597 60.6633 71.3277 61.4473 71.6637C62.2473 71.9837 62.9433 72.4397 63.5353 73.0317C64.1273 73.6237 64.5833 74.3197 64.9033 75.1197C65.2393 75.9197 65.4073 76.7917 65.4073 77.7357C65.4073 78.6797 65.2393 79.5517 64.9033 80.3517C64.5833 81.1517 64.1273 81.8557 63.5353 82.4637C62.9433 83.0557 62.2473 83.5197 61.4473 83.8557C60.6633 84.1757 59.7993 84.3357 58.8553 84.3357ZM58.8553 80.7597C59.6393 80.7597 60.2633 80.4797 60.7273 79.9197C61.2073 79.3437 61.4473 78.6157 61.4473 77.7357C61.4473 76.8397 61.2073 76.1197 60.7273 75.5757C60.2633 75.0157 59.6393 74.7357 58.8553 74.7357C58.0713 74.7357 57.4393 75.0157 56.9593 75.5757C56.4953 76.1197 56.2633 76.8397 56.2633 77.7357C56.2633 78.6157 56.4953 79.3437 56.9593 79.9197C57.4393 80.4797 58.0713 80.7597 58.8553 80.7597ZM69.6515 83.9517C69.0275 81.9037 68.3955 79.8397 67.7555 77.7597C67.1315 75.6637 66.5075 73.5917 65.8835 71.5437C66.5395 71.5437 67.2035 71.5437 67.8755 71.5437C68.5635 71.5437 69.2355 71.5437 69.8915 71.5437C70.2115 72.6637 70.5315 73.7997 70.8515 74.9517C71.1875 76.0877 71.5075 77.2157 71.8115 78.3357C72.0835 77.2157 72.3555 76.0877 72.6275 74.9517C72.9155 73.7997 73.1875 72.6637 73.4435 71.5437C74.0035 71.5437 74.5635 71.5437 75.1235 71.5437C75.6995 71.5437 76.2675 71.5437 76.8275 71.5437C77.0995 72.6637 77.3715 73.8077 77.6435 74.9757C77.9315 76.1277 78.2035 77.2717 78.4595 78.4077C78.7795 77.2717 79.0995 76.1277 79.4195 74.9757C79.7555 73.8077 80.0755 72.6637 80.3795 71.5437C81.0355 71.5437 81.6915 71.5437 82.3475 71.5437C83.0195 71.5437 83.6755 71.5437 84.3155 71.5437C83.6915 73.5917 83.0595 75.6637 82.4195 77.7597C81.7955 79.8397 81.1715 81.9037 80.5475 83.9517C79.9075 83.9517 79.2595 83.9517 78.6035 83.9517C77.9475 83.9517 77.2995 83.9517 76.6595 83.9517C76.4035 82.9597 76.1395 81.9597 75.8675 80.9517C75.6115 79.9437 75.3555 78.9517 75.0995 77.9757C74.8435 78.9517 74.5795 79.9437 74.3075 80.9517C74.0515 81.9597 73.7955 82.9597 73.5395 83.9517C72.8995 83.9517 72.2515 83.9517 71.5955 83.9517C70.9395 83.9517 70.2915 83.9517 69.6515 83.9517ZM96.1631 83.3757C95.0591 83.8397 93.9631 84.1277 92.8751 84.2397C91.7871 84.3517 90.7551 84.2877 89.7791 84.0477C88.8191 83.8237 87.9631 83.4317 87.2111 82.8717C86.4591 82.3117 85.8671 81.5997 85.4351 80.7357C85.0191 79.8717 84.8111 78.8717 84.8111 77.7357C84.8111 76.7917 84.9631 75.9277 85.2671 75.1437C85.5871 74.3437 86.0351 73.6477 86.6111 73.0557C87.1871 72.4477 87.8671 71.9837 88.6511 71.6637C89.4351 71.3277 90.2911 71.1597 91.2191 71.1597C92.0511 71.1597 92.8031 71.2957 93.4751 71.5677C94.1471 71.8397 94.7311 72.2237 95.2271 72.7197C95.7231 73.1997 96.1231 73.7757 96.4271 74.4477C96.7311 75.1197 96.9231 75.8557 97.0031 76.6557C97.0831 77.4557 97.0351 78.3037 96.8591 79.1997C95.5471 79.1997 94.2271 79.1997 92.8991 79.1997C91.5711 79.1997 90.2511 79.1997 88.9391 79.1997C89.2431 79.8077 89.7471 80.2397 90.4511 80.4957C91.1711 80.7517 92.0191 80.8317 92.9951 80.7357C93.9871 80.6397 95.0431 80.3837 96.1631 79.9677C96.1631 80.5277 96.1631 81.0957 96.1631 81.6717C96.1631 82.2477 96.1631 82.8157 96.1631 83.3757ZM91.1231 74.7117C90.6591 74.7117 90.2271 74.8397 89.8271 75.0957C89.4431 75.3517 89.1471 75.7437 88.9391 76.2717C89.6591 76.2717 90.3791 76.2717 91.0991 76.2717C91.8351 76.2717 92.5631 76.2717 93.2831 76.2717C93.0911 75.7277 92.8031 75.3357 92.4191 75.0957C92.0511 74.8397 91.6191 74.7117 91.1231 74.7117ZM99.1003 83.9517C99.1003 81.9037 99.1003 79.8397 99.1003 77.7597C99.1003 75.6637 99.1003 73.5917 99.1003 71.5437C99.7563 71.5437 100.42 71.5437 101.092 71.5437C101.764 71.5437 102.42 71.5437 103.06 71.5437C103.06 71.6557 103.06 71.7677 103.06 71.8797C103.06 71.9917 103.06 72.1037 103.06 72.2157C103.556 71.8637 104.116 71.5997 104.74 71.4237C105.364 71.2477 106.044 71.1997 106.78 71.2797C106.78 71.9197 106.78 72.5677 106.78 73.2237C106.78 73.8797 106.78 74.5277 106.78 75.1677C105.516 74.9917 104.58 75.1037 103.972 75.5037C103.364 75.8877 103.06 76.5197 103.06 77.3997C103.06 78.4717 103.06 79.5597 103.06 80.6637C103.06 81.7677 103.06 82.8637 103.06 83.9517C102.42 83.9517 101.764 83.9517 101.092 83.9517C100.42 83.9517 99.7563 83.9517 99.1003 83.9517ZM127.024 83.0877C125.36 83.7597 123.808 84.1437 122.368 84.2397C120.944 84.3517 119.656 84.2237 118.504 83.8557C117.352 83.4717 116.368 82.8957 115.552 82.1277C114.736 81.3597 114.112 80.4477 113.68 79.3917C113.248 78.3357 113.032 77.1837 113.032 75.9357C113.032 74.7037 113.232 73.5677 113.632 72.5277C114.032 71.4717 114.616 70.5597 115.384 69.7917C116.168 69.0237 117.112 68.4237 118.216 67.9917C119.32 67.5597 120.576 67.3517 121.984 67.3677C123.392 67.3677 124.936 67.6237 126.616 68.1357C126.616 68.8077 126.616 69.4877 126.616 70.1757C126.616 70.8477 126.616 71.5197 126.616 72.1917C125.288 71.6637 124.056 71.3597 122.92 71.2797C121.8 71.1997 120.816 71.3197 119.968 71.6397C119.136 71.9597 118.48 72.4717 118 73.1757C117.536 73.8637 117.304 74.7277 117.304 75.7677C117.304 76.6797 117.472 77.4877 117.808 78.1917C118.16 78.8957 118.648 79.4477 119.272 79.8477C119.896 80.2477 120.608 80.4477 121.408 80.4477C121.68 80.4477 121.952 80.4397 122.224 80.4237C122.496 80.3917 122.76 80.3437 123.016 80.2797C123.016 79.8637 123.016 79.4397 123.016 79.0077C123.016 78.5757 123.016 78.1517 123.016 77.7357C122.568 77.7357 122.12 77.7357 121.672 77.7357C121.224 77.7357 120.776 77.7357 120.328 77.7357C120.328 77.1437 120.328 76.5517 120.328 75.9597C120.328 75.3517 120.328 74.7517 120.328 74.1597C121.432 74.1597 122.544 74.1597 123.664 74.1597C124.8 74.1597 125.92 74.1597 127.024 74.1597C127.024 75.6317 127.024 77.1197 127.024 78.6237C127.024 80.1277 127.024 81.6157 127.024 83.0877ZM129.827 83.9517C129.827 81.9037 129.827 79.8397 129.827 77.7597C129.827 75.6637 129.827 73.5917 129.827 71.5437C130.483 71.5437 131.147 71.5437 131.819 71.5437C132.491 71.5437 133.147 71.5437 133.787 71.5437C133.787 71.6557 133.787 71.7677 133.787 71.8797C133.787 71.9917 133.787 72.1037 133.787 72.2157C134.283 71.8637 134.843 71.5997 135.467 71.4237C136.091 71.2477 136.771 71.1997 137.507 71.2797C137.507 71.9197 137.507 72.5677 137.507 73.2237C137.507 73.8797 137.507 74.5277 137.507 75.1677C136.243 74.9917 135.307 75.1037 134.699 75.5037C134.091 75.8877 133.787 76.5197 133.787 77.3997C133.787 78.4717 133.787 79.5597 133.787 80.6637C133.787 81.7677 133.787 82.8637 133.787 83.9517C133.147 83.9517 132.491 83.9517 131.819 83.9517C131.147 83.9517 130.483 83.9517 129.827 83.9517ZM145.058 84.3357C144.13 84.3357 143.266 84.1757 142.466 83.8557C141.666 83.5197 140.97 83.0557 140.378 82.4637C139.786 81.8557 139.322 81.1517 138.986 80.3517C138.666 79.5517 138.506 78.6797 138.506 77.7357C138.506 76.7917 138.666 75.9197 138.986 75.1197C139.322 74.3197 139.786 73.6237 140.378 73.0317C140.97 72.4397 141.666 71.9837 142.466 71.6637C143.266 71.3277 144.13 71.1597 145.058 71.1597C146.002 71.1597 146.866 71.3277 147.65 71.6637C148.45 71.9837 149.146 72.4397 149.738 73.0317C150.33 73.6237 150.786 74.3197 151.106 75.1197C151.442 75.9197 151.61 76.7917 151.61 77.7357C151.61 78.6797 151.442 79.5517 151.106 80.3517C150.786 81.1517 150.33 81.8557 149.738 82.4637C149.146 83.0557 148.45 83.5197 147.65 83.8557C146.866 84.1757 146.002 84.3357 145.058 84.3357ZM145.058 80.7597C145.842 80.7597 146.466 80.4797 146.93 79.9197C147.41 79.3437 147.65 78.6157 147.65 77.7357C147.65 76.8397 147.41 76.1197 146.93 75.5757C146.466 75.0157 145.842 74.7357 145.058 74.7357C144.274 74.7357 143.642 75.0157 143.162 75.5757C142.698 76.1197 142.466 76.8397 142.466 77.7357C142.466 78.6157 142.698 79.3437 143.162 79.9197C143.642 80.4797 144.274 80.7597 145.058 80.7597ZM155.855 83.9517C155.231 81.9037 154.599 79.8397 153.959 77.7597C153.335 75.6637 152.711 73.5917 152.087 71.5437C152.743 71.5437 153.407 71.5437 154.079 71.5437C154.767 71.5437 155.439 71.5437 156.095 71.5437C156.415 72.6637 156.735 73.7997 157.055 74.9517C157.391 76.0877 157.711 77.2157 158.015 78.3357C158.287 77.2157 158.559 76.0877 158.831 74.9517C159.119 73.7997 159.391 72.6637 159.647 71.5437C160.207 71.5437 160.767 71.5437 161.327 71.5437C161.903 71.5437 162.471 71.5437 163.031 71.5437C163.303 72.6637 163.575 73.8077 163.847 74.9757C164.135 76.1277 164.407 77.2717 164.663 78.4077C164.983 77.2717 165.303 76.1277 165.623 74.9757C165.959 73.8077 166.279 72.6637 166.583 71.5437C167.239 71.5437 167.895 71.5437 168.551 71.5437C169.223 71.5437 169.879 71.5437 170.519 71.5437C169.895 73.5917 169.263 75.6637 168.623 77.7597C167.999 79.8397 167.375 81.9037 166.751 83.9517C166.111 83.9517 165.463 83.9517 164.807 83.9517C164.151 83.9517 163.503 83.9517 162.863 83.9517C162.607 82.9597 162.343 81.9597 162.071 80.9517C161.815 79.9437 161.559 78.9517 161.303 77.9757C161.047 78.9517 160.783 79.9437 160.511 80.9517C160.255 81.9597 159.999 82.9597 159.743 83.9517C159.103 83.9517 158.455 83.9517 157.799 83.9517C157.143 83.9517 156.495 83.9517 155.855 83.9517ZM173.217 83.9517C173.217 82.4797 173.217 80.9997 173.217 79.5117C173.217 78.0237 173.217 76.5517 173.217 75.0957C172.897 75.0957 172.569 75.0957 172.233 75.0957C171.913 75.0957 171.593 75.0957 171.273 75.0957C171.273 74.5037 171.273 73.9117 171.273 73.3197C171.273 72.7277 171.273 72.1357 171.273 71.5437C171.593 71.5437 171.913 71.5437 172.233 71.5437C172.569 71.5437 172.897 71.5437 173.217 71.5437C173.217 70.9837 173.217 70.4317 173.217 69.8877C173.217 69.3277 173.217 68.7757 173.217 68.2317C173.873 68.2317 174.537 68.2317 175.209 68.2317C175.881 68.2317 176.537 68.2317 177.177 68.2317C177.177 68.7757 177.177 69.3277 177.177 69.8877C177.177 70.4317 177.177 70.9837 177.177 71.5437C177.545 71.5437 177.921 71.5437 178.305 71.5437C178.689 71.5437 179.065 71.5437 179.433 71.5437C179.433 72.1357 179.433 72.7277 179.433 73.3197C179.433 73.9117 179.433 74.5037 179.433 75.0957C179.065 75.0957 178.689 75.0957 178.305 75.0957C177.921 75.0957 177.545 75.0957 177.177 75.0957C177.177 76.5517 177.177 78.0237 177.177 79.5117C177.177 80.9997 177.177 82.4797 177.177 83.9517C176.537 83.9517 175.881 83.9517 175.209 83.9517C174.537 83.9517 173.873 83.9517 173.217 83.9517ZM181.462 83.9517C181.462 81.0557 181.462 78.1357 181.462 75.1917C181.462 72.2477 181.462 69.3277 181.462 66.4317C182.118 66.4317 182.782 66.4317 183.454 66.4317C184.126 66.4317 184.782 66.4317 185.422 66.4317C185.422 67.3757 185.422 68.3357 185.422 69.3117C185.422 70.2717 185.422 71.2237 185.422 72.1677C185.854 71.8637 186.334 71.6317 186.862 71.4717C187.406 71.2957 187.99 71.2077 188.614 71.2077C189.526 71.2077 190.326 71.4157 191.014 71.8317C191.718 72.2477 192.262 72.8477 192.646 73.6317C193.046 74.3997 193.246 75.3277 193.246 76.4157C193.246 77.6637 193.246 78.9197 193.246 80.1837C193.246 81.4477 193.246 82.7037 193.246 83.9517C192.606 83.9517 191.95 83.9517 191.278 83.9517C190.606 83.9517 189.942 83.9517 189.286 83.9517C189.286 82.7997 189.286 81.6317 189.286 80.4477C189.286 79.2637 189.286 78.0957 189.286 76.9437C189.286 76.3037 189.134 75.7917 188.83 75.4077C188.542 75.0077 188.078 74.8077 187.438 74.8077C186.798 74.8077 186.302 74.9917 185.95 75.3597C185.598 75.7277 185.422 76.2557 185.422 76.9437C185.422 78.0957 185.422 79.2637 185.422 80.4477C185.422 81.6317 185.422 82.7997 185.422 83.9517C184.782 83.9517 184.126 83.9517 183.454 83.9517C182.782 83.9517 182.118 83.9517 181.462 83.9517ZM205.189 83.9517C204.501 83.9517 203.805 83.9517 203.101 83.9517C202.397 83.9517 201.693 83.9517 200.989 83.9517C200.989 81.2637 200.989 78.5437 200.989 75.7917C200.989 73.0397 200.989 70.3197 200.989 67.6317C201.693 67.6317 202.397 67.6317 203.101 67.6317C203.805 67.6317 204.501 67.6317 205.189 67.6317C205.189 68.6077 205.189 69.5917 205.189 70.5837C205.189 71.5597 205.189 72.5357 205.189 73.5117C206.037 73.5117 206.893 73.5117 207.757 73.5117C208.621 73.5117 209.469 73.5117 210.301 73.5117C210.301 72.5357 210.301 71.5597 210.301 70.5837C210.301 69.5917 210.301 68.6077 210.301 67.6317C211.005 67.6317 211.709 67.6317 212.413 67.6317C213.117 67.6317 213.813 67.6317 214.501 67.6317C214.501 70.3197 214.501 73.0397 214.501 75.7917C214.501 78.5437 214.501 81.2637 214.501 83.9517C213.813 83.9517 213.117 83.9517 212.413 83.9517C211.709 83.9517 211.005 83.9517 210.301 83.9517C210.301 82.8637 210.301 81.7677 210.301 80.6637C210.301 79.5437 210.301 78.4477 210.301 77.3757C209.469 77.3757 208.621 77.3757 207.757 77.3757C206.893 77.3757 206.037 77.3757 205.189 77.3757C205.189 78.4477 205.189 79.5437 205.189 80.6637C205.189 81.7677 205.189 82.8637 205.189 83.9517ZM228.069 83.3757C226.965 83.8397 225.869 84.1277 224.781 84.2397C223.693 84.3517 222.661 84.2877 221.685 84.0477C220.725 83.8237 219.869 83.4317 219.117 82.8717C218.365 82.3117 217.773 81.5997 217.341 80.7357C216.925 79.8717 216.717 78.8717 216.717 77.7357C216.717 76.7917 216.869 75.9277 217.173 75.1437C217.493 74.3437 217.941 73.6477 218.517 73.0557C219.093 72.4477 219.773 71.9837 220.557 71.6637C221.341 71.3277 222.197 71.1597 223.125 71.1597C223.957 71.1597 224.709 71.2957 225.381 71.5677C226.053 71.8397 226.637 72.2237 227.133 72.7197C227.629 73.1997 228.029 73.7757 228.333 74.4477C228.637 75.1197 228.829 75.8557 228.909 76.6557C228.989 77.4557 228.941 78.3037 228.765 79.1997C227.453 79.1997 226.133 79.1997 224.805 79.1997C223.477 79.1997 222.157 79.1997 220.845 79.1997C221.149 79.8077 221.653 80.2397 222.357 80.4957C223.077 80.7517 223.925 80.8317 224.901 80.7357C225.893 80.6397 226.949 80.3837 228.069 79.9677C228.069 80.5277 228.069 81.0957 228.069 81.6717C228.069 82.2477 228.069 82.8157 228.069 83.3757ZM223.029 74.7117C222.565 74.7117 222.133 74.8397 221.733 75.0957C221.349 75.3517 221.053 75.7437 220.845 76.2717C221.565 76.2717 222.285 76.2717 223.005 76.2717C223.741 76.2717 224.469 76.2717 225.189 76.2717C224.997 75.7277 224.709 75.3357 224.325 75.0957C223.957 74.8397 223.525 74.7117 223.029 74.7117ZM233.119 70.1277C232.655 70.1277 232.231 70.0157 231.847 69.7917C231.479 69.5677 231.183 69.2717 230.959 68.9037C230.735 68.5357 230.623 68.1277 230.623 67.6797C230.623 67.2317 230.735 66.8317 230.959 66.4797C231.183 66.1117 231.479 65.8157 231.847 65.5917C232.231 65.3677 232.655 65.2557 233.119 65.2557C233.567 65.2557 233.975 65.3677 234.343 65.5917C234.727 65.8157 235.031 66.1117 235.255 66.4797C235.479 66.8317 235.591 67.2317 235.591 67.6797C235.591 68.1277 235.479 68.5357 235.255 68.9037C235.031 69.2717 234.727 69.5677 234.343 69.7917C233.975 70.0157 233.567 70.1277 233.119 70.1277ZM231.127 83.9517C231.127 81.9037 231.127 79.8397 231.127 77.7597C231.127 75.6637 231.127 73.5917 231.127 71.5437C231.783 71.5437 232.447 71.5437 233.119 71.5437C233.791 71.5437 234.447 71.5437 235.087 71.5437C235.087 73.5917 235.087 75.6637 235.087 77.7597C235.087 79.8397 235.087 81.9037 235.087 83.9517C234.447 83.9517 233.791 83.9517 233.119 83.9517C232.447 83.9517 231.783 83.9517 231.127 83.9517ZM249.514 81.9357C249.514 83.2957 249.218 84.4317 248.626 85.3437C248.05 86.2557 247.258 86.9357 246.25 87.3837C245.242 87.8477 244.09 88.0877 242.794 88.1037C241.514 88.1197 240.162 87.9277 238.738 87.5277C238.738 86.9037 238.738 86.2717 238.738 85.6317C238.738 85.0077 238.738 84.3837 238.738 83.7597C240.002 84.2557 241.146 84.5037 242.17 84.5037C243.194 84.5197 244.002 84.3277 244.594 83.9277C245.202 83.5117 245.506 82.9437 245.506 82.2237C245.506 82.1437 245.506 82.0717 245.506 82.0077C245.506 81.9277 245.506 81.8557 245.506 81.7917C245.106 82.0957 244.642 82.3357 244.114 82.5117C243.586 82.6877 243.018 82.7757 242.41 82.7757C241.402 82.7757 240.498 82.5437 239.698 82.0797C238.914 81.5997 238.298 80.9437 237.85 80.1117C237.402 79.2637 237.178 78.2797 237.178 77.1597C237.178 76.2957 237.322 75.5037 237.61 74.7837C237.898 74.0637 238.298 73.4397 238.81 72.9117C239.322 72.3837 239.906 71.9837 240.562 71.7117C241.218 71.4237 241.906 71.2797 242.626 71.2797C243.202 71.2797 243.738 71.3597 244.234 71.5197C244.73 71.6797 245.17 71.8957 245.554 72.1677C245.554 72.0557 245.554 71.9517 245.554 71.8557C245.554 71.7597 245.554 71.6557 245.554 71.5437C246.21 71.5437 246.874 71.5437 247.546 71.5437C248.218 71.5437 248.874 71.5437 249.514 71.5437C249.514 73.2557 249.514 74.9917 249.514 76.7517C249.514 78.4957 249.514 80.2237 249.514 81.9357ZM243.394 79.3437C244.066 79.3437 244.602 79.1357 245.002 78.7197C245.418 78.2877 245.626 77.7357 245.626 77.0637C245.626 76.3757 245.418 75.8157 245.002 75.3837C244.602 74.9517 244.066 74.7357 243.394 74.7357C242.69 74.7357 242.13 74.9517 241.714 75.3837C241.298 75.7997 241.09 76.3597 241.09 77.0637C241.09 77.7517 241.298 78.3037 241.714 78.7197C242.13 79.1357 242.69 79.3437 243.394 79.3437ZM252.267 83.9517C252.267 81.0557 252.267 78.1357 252.267 75.1917C252.267 72.2477 252.267 69.3277 252.267 66.4317C252.923 66.4317 253.587 66.4317 254.259 66.4317C254.931 66.4317 255.587 66.4317 256.227 66.4317C256.227 67.3757 256.227 68.3357 256.227 69.3117C256.227 70.2717 256.227 71.2237 256.227 72.1677C256.659 71.8637 257.139 71.6317 257.667 71.4717C258.211 71.2957 258.795 71.2077 259.419 71.2077C260.331 71.2077 261.131 71.4157 261.819 71.8317C262.523 72.2477 263.067 72.8477 263.451 73.6317C263.851 74.3997 264.051 75.3277 264.051 76.4157C264.051 77.6637 264.051 78.9197 264.051 80.1837C264.051 81.4477 264.051 82.7037 264.051 83.9517C263.411 83.9517 262.755 83.9517 262.083 83.9517C261.411 83.9517 260.747 83.9517 260.091 83.9517C260.091 82.7997 260.091 81.6317 260.091 80.4477C260.091 79.2637 260.091 78.0957 260.091 76.9437C260.091 76.3037 259.939 75.7917 259.635 75.4077C259.347 75.0077 258.883 74.8077 258.243 74.8077C257.603 74.8077 257.107 74.9917 256.755 75.3597C256.403 75.7277 256.227 76.2557 256.227 76.9437C256.227 78.0957 256.227 79.2637 256.227 80.4477C256.227 81.6317 256.227 82.7997 256.227 83.9517C255.587 83.9517 254.931 83.9517 254.259 83.9517C253.587 83.9517 252.923 83.9517 252.267 83.9517ZM267.81 83.9517C267.81 82.4797 267.81 80.9997 267.81 79.5117C267.81 78.0237 267.81 76.5517 267.81 75.0957C267.49 75.0957 267.162 75.0957 266.826 75.0957C266.506 75.0957 266.186 75.0957 265.866 75.0957C265.866 74.5037 265.866 73.9117 265.866 73.3197C265.866 72.7277 265.866 72.1357 265.866 71.5437C266.186 71.5437 266.506 71.5437 266.826 71.5437C267.162 71.5437 267.49 71.5437 267.81 71.5437C267.81 70.9837 267.81 70.4317 267.81 69.8877C267.81 69.3277 267.81 68.7757 267.81 68.2317C268.466 68.2317 269.13 68.2317 269.802 68.2317C270.474 68.2317 271.13 68.2317 271.77 68.2317C271.77 68.7757 271.77 69.3277 271.77 69.8877C271.77 70.4317 271.77 70.9837 271.77 71.5437C272.138 71.5437 272.514 71.5437 272.898 71.5437C273.282 71.5437 273.658 71.5437 274.026 71.5437C274.026 72.1357 274.026 72.7277 274.026 73.3197C274.026 73.9117 274.026 74.5037 274.026 75.0957C273.658 75.0957 273.282 75.0957 272.898 75.0957C272.514 75.0957 272.138 75.0957 271.77 75.0957C271.77 76.5517 271.77 78.0237 271.77 79.5117C271.77 80.9997 271.77 82.4797 271.77 83.9517C271.13 83.9517 270.474 83.9517 269.802 83.9517C269.13 83.9517 268.466 83.9517 267.81 83.9517Z" fill="white"/>
</svg>
