<svg width="110" height="110" viewBox="0 0 110 110" fill="none" xmlns="http://www.w3.org/2000/svg">
<path d="M66.917 8.06299L91.061 19.5944L101.872 41.9365L74.1242 35.8104L66.917 8.06299Z" fill="#F4E3D5"/>
<path d="M40.7646 102.847L16.6206 91.3158L5.8099 68.9737L33.5574 75.0997L40.7646 102.847Z" fill="#F4E3D5"/>
<circle cx="54.7466" cy="54.7466" r="50.9966" stroke="#E94812" stroke-width="7.5"/>
<rect x="40.7329" y="37.5166" width="30.7131" height="31.4574" fill="#FE9973"/>
<path d="M44.1623 103.684C38.987 90.3735 31.7417 52.1638 44.1623 5.80946" stroke="#E94812" stroke-width="7.5"/>
<path d="M5.80957 44.3747C19.1201 39.1994 57.3299 31.9541 103.684 44.3747" stroke="#E94812" stroke-width="7.5"/>
<path d="M65.3324 103.684C70.5076 90.373 77.753 52.1633 65.3324 5.80897" stroke="#E94812" stroke-width="7.5"/>
<path d="M5.80957 65.5448C19.1201 70.72 57.3299 77.9654 103.684 65.5448" stroke="#E94812" stroke-width="7.5"/>
</svg>
