<svg width="284" height="132" viewBox="0 0 284 132" fill="none" xmlns="http://www.w3.org/2000/svg">
<rect width="21.1844" height="8.11035" transform="matrix(1 0 0 -1 35.3179 8.11035)" fill="#F4E3D5"/>
<rect width="21.1844" height="8.11035" transform="matrix(1 0 0 -1 0 8.11035)" fill="#F4E3D5"/>
<rect width="21.1844" height="8.11035" transform="matrix(1 0 0 -1 71.3179 8.11035)" fill="#F4E3D5"/>
<rect width="21.1844" height="8.11035" transform="matrix(1 0 0 -1 106.318 8.11035)" fill="#F4E3D5"/>
<rect width="21.1844" height="8.11035" transform="matrix(-0.00301799 -0.999995 -0.999995 0.00301799 127.566 42.5488)" fill="#F4E3D5"/>
<rect width="21.1844" height="8.11035" transform="matrix(-0.00301799 -0.999995 -0.999995 0.00301799 127.492 77.0127)" fill="#F4E3D5"/>
<rect width="21.1844" height="8.11035" transform="matrix(-0.00301799 -0.999995 -0.999995 0.00301799 127.63 110.656)" fill="#F4E3D5"/>
<rect width="21.1844" height="8.11035" transform="matrix(1 0 0 -1 119.456 131.226)" fill="#F4E3D5"/>
<rect width="21.1844" height="8.11035" transform="matrix(1 0 0 -1 155.061 131.226)" fill="#F4E3D5"/>
<rect width="21.1844" height="8.11035" transform="matrix(1 0 0 -1 190.665 131.226)" fill="#F4E3D5"/>
<rect width="21.1844" height="8.11035" transform="matrix(1 0 0 -1 226.27 131.226)" fill="#F4E3D5"/>
<rect width="21.1844" height="8.11035" transform="matrix(1 0 0 -1 262.036 131.226)" fill="#F4E3D5"/>
</svg>
