<svg width="178" height="163" viewBox="0 0 178 163" fill="none" xmlns="http://www.w3.org/2000/svg">
<rect x="177.464" y="8.11035" width="21.1844" height="8.11035" transform="rotate(180 177.464 8.11035)" fill="#F4E3D5"/>
<rect x="141.464" y="8.11035" width="21.1844" height="8.11035" transform="rotate(180 141.464 8.11035)" fill="#F4E3D5"/>
<rect x="106.464" y="8.11035" width="21.1844" height="8.11035" transform="rotate(180 106.464 8.11035)" fill="#F4E3D5"/>
<rect x="85.2158" y="42.5488" width="21.1844" height="8.11035" transform="rotate(-89.8271 85.2158 42.5488)" fill="#F4E3D5"/>
<rect x="85.29" y="77.0127" width="21.1844" height="8.11035" transform="rotate(-89.8271 85.29 77.0127)" fill="#F4E3D5"/>
<rect x="85.1523" y="110.656" width="21.1844" height="8.11035" transform="rotate(-89.8271 85.1523 110.656)" fill="#F4E3D5"/>
<rect x="84.2207" y="144.301" width="21.1844" height="8.11035" transform="rotate(-89.8271 84.2207 144.301)" fill="#F4E3D5"/>
<rect x="92.3955" y="162.209" width="21.1844" height="8.11035" transform="rotate(180 92.3955 162.209)" fill="#F4E3D5"/>
<rect x="56.79" y="162.209" width="21.1844" height="8.11035" transform="rotate(180 56.79 162.209)" fill="#F4E3D5"/>
<rect x="21.1846" y="162.209" width="21.1844" height="8.11035" transform="rotate(180 21.1846 162.209)" fill="#F4E3D5"/>
</svg>
