<svg width="449" height="205" viewBox="0 0 449 205" fill="none" xmlns="http://www.w3.org/2000/svg">
<rect width="429.045" height="193.205" rx="39.1559" transform="matrix(-1 0 0 1 429.046 11.6704)" fill="white"/>
<rect width="66.5458" height="97.2509" transform="matrix(-1 0 0 1 429.046 107.625)" fill="white"/>
<rect width="66.5458" height="97.2509" transform="matrix(-1 0 0 1 66.5459 11.6704)" fill="white"/>
<path d="M0.000488281 76.3506H429.046V37.3761C429.046 16.7339 412.312 7.62939e-05 391.67 7.62939e-05H0.000488281V76.3506Z" fill="#F4E3D5"/>
<path opacity="0.8" d="M30.0643 55.5405C30.0643 50.1645 30.0643 44.7245 30.0643 39.2205C30.0643 33.7165 30.0643 28.2765 30.0643 22.9005C32.0483 22.9005 34.0483 22.9005 36.0643 22.9005C38.0803 22.9005 40.0803 22.9005 42.0643 22.9005C42.9923 26.1645 43.9043 29.4765 44.8003 32.8365C45.7283 36.1645 46.6403 39.4605 47.5363 42.7245C48.4323 39.4605 49.3283 36.1645 50.2243 32.8365C51.1523 29.4765 52.0643 26.1645 52.9603 22.9005C54.9443 22.9005 56.9283 22.9005 58.9123 22.9005C60.8963 22.9005 62.8643 22.9005 64.8163 22.9005C64.8483 28.2765 64.8803 33.7165 64.9123 39.2205C64.9443 44.7245 64.9763 50.1645 65.0083 55.5405C63.6643 55.5405 62.3043 55.5405 60.9283 55.5405C59.5843 55.5405 58.2403 55.5405 56.8963 55.5405C56.8963 51.8925 56.8963 48.2125 56.8963 44.5005C56.8963 40.7565 56.8963 37.0605 56.8963 33.4125C55.9363 37.0605 54.9603 40.7565 53.9683 44.5005C52.9763 48.2125 52.0003 51.8925 51.0403 55.5405C49.8563 55.5405 48.6403 55.5405 47.3923 55.5405C46.1763 55.5405 44.9603 55.5405 43.7443 55.5405C42.7843 51.9565 41.8243 48.3405 40.8643 44.6925C39.9043 41.0125 38.9443 37.3805 37.9843 33.7965C37.9843 37.3805 37.9843 41.0125 37.9843 44.6925C37.9843 48.3405 37.9843 51.9565 37.9843 55.5405C36.7043 55.5405 35.3923 55.5405 34.0483 55.5405C32.7043 55.5405 31.3763 55.5405 30.0643 55.5405ZM93.9715 30.7245C93.9715 34.8205 93.9715 38.9645 93.9715 43.1565C93.9715 47.3165 93.9715 51.4445 93.9715 55.5405C92.6915 55.5405 91.3795 55.5405 90.0355 55.5405C88.6915 55.5405 87.3635 55.5405 86.0515 55.5405C86.0515 55.3165 86.0515 55.1085 86.0515 54.9165C86.0515 54.7245 86.0515 54.5165 86.0515 54.2925C85.1875 54.9005 84.2115 55.3645 83.1235 55.6845C82.0675 56.0365 80.9155 56.2125 79.6675 56.2125C77.8435 56.2125 76.2275 55.7965 74.8195 54.9645C73.4435 54.1325 72.3555 52.9325 71.5555 51.3645C70.7875 49.7965 70.4035 47.9405 70.4035 45.7965C70.4035 43.3005 70.4035 40.7885 70.4035 38.2605C70.4035 35.7325 70.4035 33.2205 70.4035 30.7245C71.7155 30.7245 73.0435 30.7245 74.3875 30.7245C75.7315 30.7245 77.0435 30.7245 78.3235 30.7245C78.3235 33.0285 78.3235 35.3645 78.3235 37.7325C78.3235 40.1005 78.3235 42.4365 78.3235 44.7405C78.3235 46.0205 78.6115 47.0605 79.1875 47.8605C79.7955 48.6285 80.7395 49.0125 82.0195 49.0125C83.2995 49.0125 84.2915 48.6445 84.9955 47.9085C85.6995 47.1725 86.0515 46.1165 86.0515 44.7405C86.0515 42.4365 86.0515 40.1005 86.0515 37.7325C86.0515 35.3645 86.0515 33.0285 86.0515 30.7245C87.3635 30.7245 88.6915 30.7245 90.0355 30.7245C91.3795 30.7245 92.6915 30.7245 93.9715 30.7245ZM118.201 47.8605C118.201 49.8445 117.641 51.4765 116.521 52.7565C115.433 54.0045 113.961 54.9165 112.105 55.4925C110.249 56.0685 108.169 56.3085 105.865 56.2125C103.593 56.1485 101.273 55.7805 98.9046 55.1085C98.9046 53.8925 98.9046 52.6445 98.9046 51.3645C98.9046 50.0845 98.9046 48.8365 98.9046 47.6205C100.249 48.2285 101.593 48.7085 102.937 49.0605C104.281 49.3805 105.497 49.5725 106.585 49.6365C107.673 49.7005 108.553 49.6205 109.225 49.3965C109.897 49.1405 110.233 48.7245 110.233 48.1485C110.233 47.7005 109.945 47.3485 109.369 47.0925C108.825 46.8365 108.105 46.6125 107.209 46.4205C106.313 46.1965 105.353 45.9405 104.329 45.6525C103.337 45.3325 102.393 44.9005 101.497 44.3565C100.601 43.7805 99.8646 43.0285 99.2886 42.1005C98.7446 41.1405 98.4726 39.9085 98.4726 38.4045C98.4726 36.6125 98.9846 35.0925 100.009 33.8445C101.065 32.5645 102.473 31.6045 104.233 30.9645C105.993 30.2925 107.961 29.9565 110.137 29.9565C112.313 29.9565 114.537 30.3245 116.809 31.0605C116.809 32.2765 116.809 33.5245 116.809 34.8045C116.809 36.0845 116.809 37.3325 116.809 38.5485C115.017 37.6845 113.337 37.1085 111.769 36.8205C110.201 36.5325 108.937 36.5005 107.977 36.7245C107.017 36.9165 106.537 37.3485 106.537 38.0205C106.537 38.4685 106.809 38.8205 107.353 39.0765C107.929 39.3005 108.649 39.5085 109.513 39.7005C110.409 39.8925 111.353 40.1485 112.345 40.4685C113.369 40.7885 114.313 41.2365 115.177 41.8125C116.073 42.3565 116.793 43.1245 117.337 44.1165C117.913 45.0765 118.201 46.3245 118.201 47.8605ZM126.246 27.8925C125.318 27.8925 124.47 27.6685 123.702 27.2205C122.966 26.7725 122.374 26.1805 121.926 25.4445C121.478 24.7085 121.254 23.8925 121.254 22.9965C121.254 22.1005 121.478 21.3005 121.926 20.5965C122.374 19.8605 122.966 19.2685 123.702 18.8205C124.47 18.3725 125.318 18.1485 126.246 18.1485C127.142 18.1485 127.958 18.3725 128.694 18.8205C129.462 19.2685 130.07 19.8605 130.518 20.5965C130.966 21.3005 131.19 22.1005 131.19 22.9965C131.19 23.8925 130.966 24.7085 130.518 25.4445C130.07 26.1805 129.462 26.7725 128.694 27.2205C127.958 27.6685 127.142 27.8925 126.246 27.8925ZM122.262 55.5405C122.262 51.4445 122.262 47.3165 122.262 43.1565C122.262 38.9645 122.262 34.8205 122.262 30.7245C123.574 30.7245 124.902 30.7245 126.246 30.7245C127.59 30.7245 128.902 30.7245 130.182 30.7245C130.182 34.8205 130.182 38.9645 130.182 43.1565C130.182 47.3165 130.182 51.4445 130.182 55.5405C128.902 55.5405 127.59 55.5405 126.246 55.5405C124.902 55.5405 123.574 55.5405 122.262 55.5405ZM134.365 43.1085C134.365 40.6765 134.861 38.5485 135.853 36.7245C136.845 34.8685 138.221 33.3805 139.981 32.2605C141.741 31.1405 143.789 30.4685 146.125 30.2445C148.461 29.9885 150.957 30.2605 153.613 31.0605C153.613 32.2765 153.613 33.5085 153.613 34.7565C153.613 36.0045 153.613 37.2365 153.613 38.4525C151.757 37.5565 149.981 37.1405 148.285 37.2045C146.589 37.2685 145.197 37.7965 144.109 38.7885C143.021 39.7485 142.477 41.1885 142.477 43.1085C142.477 45.0285 143.021 46.4845 144.109 47.4765C145.197 48.4365 146.589 48.9485 148.285 49.0125C149.981 49.0445 151.757 48.6285 153.613 47.7645C153.613 48.9805 153.613 50.2125 153.613 51.4605C153.613 52.7085 153.613 53.9405 153.613 55.1565C150.957 55.9565 148.461 56.2285 146.125 55.9725C143.789 55.7485 141.741 55.0765 139.981 53.9565C138.221 52.8365 136.845 51.3645 135.853 49.5405C134.861 47.6845 134.365 45.5405 134.365 43.1085ZM195.448 53.8125C192.12 55.1565 189.016 55.9245 186.136 56.1165C183.288 56.3405 180.712 56.0845 178.408 55.3485C176.104 54.5805 174.136 53.4285 172.504 51.8925C170.872 50.3565 169.624 48.5325 168.76 46.4205C167.896 44.3085 167.464 42.0045 167.464 39.5085C167.464 37.0445 167.864 34.7725 168.664 32.6925C169.464 30.5805 170.632 28.7565 172.168 27.2205C173.736 25.6845 175.624 24.4845 177.832 23.6205C180.04 22.7565 182.552 22.3405 185.368 22.3725C188.184 22.3725 191.272 22.8845 194.632 23.9085C194.632 25.2525 194.632 26.6125 194.632 27.9885C194.632 29.3325 194.632 30.6765 194.632 32.0205C191.976 30.9645 189.512 30.3565 187.24 30.1965C185 30.0365 183.032 30.2765 181.336 30.9165C179.672 31.5565 178.36 32.5805 177.4 33.9885C176.472 35.3645 176.008 37.0925 176.008 39.1725C176.008 40.9965 176.344 42.6125 177.016 44.0205C177.72 45.4285 178.696 46.5325 179.944 47.3325C181.192 48.1325 182.616 48.5325 184.216 48.5325C184.76 48.5325 185.304 48.5165 185.848 48.4845C186.392 48.4205 186.92 48.3245 187.432 48.1965C187.432 47.3645 187.432 46.5165 187.432 45.6525C187.432 44.7885 187.432 43.9405 187.432 43.1085C186.536 43.1085 185.64 43.1085 184.744 43.1085C183.848 43.1085 182.952 43.1085 182.056 43.1085C182.056 41.9245 182.056 40.7405 182.056 39.5565C182.056 38.3405 182.056 37.1405 182.056 35.9565C184.264 35.9565 186.488 35.9565 188.728 35.9565C191 35.9565 193.24 35.9565 195.448 35.9565C195.448 38.9005 195.448 41.8765 195.448 44.8845C195.448 47.8925 195.448 50.8685 195.448 53.8125ZM222.413 54.3885C220.205 55.3165 218.013 55.8925 215.837 56.1165C213.661 56.3405 211.597 56.2125 209.645 55.7325C207.725 55.2845 206.013 54.5005 204.509 53.3805C203.005 52.2605 201.821 50.8365 200.957 49.1085C200.125 47.3805 199.709 45.3805 199.709 43.1085C199.709 41.2205 200.013 39.4925 200.621 37.9245C201.261 36.3245 202.157 34.9325 203.309 33.7485C204.461 32.5325 205.821 31.6045 207.389 30.9645C208.957 30.2925 210.669 29.9565 212.525 29.9565C214.189 29.9565 215.693 30.2285 217.037 30.7725C218.381 31.3165 219.549 32.0845 220.541 33.0765C221.533 34.0365 222.333 35.1885 222.941 36.5325C223.549 37.8765 223.933 39.3485 224.093 40.9485C224.253 42.5485 224.157 44.2445 223.805 46.0365C221.181 46.0365 218.541 46.0365 215.885 46.0365C213.229 46.0365 210.589 46.0365 207.965 46.0365C208.573 47.2525 209.581 48.1165 210.989 48.6285C212.429 49.1405 214.125 49.3005 216.077 49.1085C218.061 48.9165 220.173 48.4045 222.413 47.5725C222.413 48.6925 222.413 49.8285 222.413 50.9805C222.413 52.1325 222.413 53.2685 222.413 54.3885ZM212.333 37.0605C211.405 37.0605 210.541 37.3165 209.741 37.8285C208.973 38.3405 208.381 39.1245 207.965 40.1805C209.405 40.1805 210.845 40.1805 212.285 40.1805C213.757 40.1805 215.213 40.1805 216.653 40.1805C216.269 39.0925 215.693 38.3085 214.925 37.8285C214.189 37.3165 213.325 37.0605 212.333 37.0605ZM228.287 55.5405C228.287 51.4445 228.287 47.3165 228.287 43.1565C228.287 38.9645 228.287 34.8205 228.287 30.7245C229.599 30.7245 230.927 30.7245 232.271 30.7245C233.615 30.7245 234.927 30.7245 236.207 30.7245C236.207 30.9485 236.207 31.1565 236.207 31.3485C236.207 31.5405 236.207 31.7485 236.207 31.9725C237.071 31.3645 238.031 30.9005 239.087 30.5805C240.175 30.2285 241.343 30.0525 242.591 30.0525C244.415 30.0525 246.015 30.4685 247.391 31.3005C248.799 32.1325 249.887 33.3325 250.655 34.9005C251.455 36.4365 251.855 38.2925 251.855 40.4685C251.855 42.9645 251.855 45.4765 251.855 48.0045C251.855 50.5325 251.855 53.0445 251.855 55.5405C250.575 55.5405 249.263 55.5405 247.919 55.5405C246.575 55.5405 245.247 55.5405 243.935 55.5405C243.935 53.2365 243.935 50.9005 243.935 48.5325C243.935 46.1645 243.935 43.8285 243.935 41.5245C243.935 40.2445 243.631 39.2205 243.023 38.4525C242.447 37.6525 241.519 37.2525 240.239 37.2525C238.959 37.2525 237.967 37.6205 237.263 38.3565C236.559 39.0925 236.207 40.1485 236.207 41.5245C236.207 43.8285 236.207 46.1645 236.207 48.5325C236.207 50.9005 236.207 53.2365 236.207 55.5405C234.927 55.5405 233.615 55.5405 232.271 55.5405C230.927 55.5405 229.599 55.5405 228.287 55.5405ZM256.741 55.5405C256.741 51.4445 256.741 47.3165 256.741 43.1565C256.741 38.9645 256.741 34.8205 256.741 30.7245C258.053 30.7245 259.381 30.7245 260.725 30.7245C262.069 30.7245 263.381 30.7245 264.661 30.7245C264.661 30.9485 264.661 31.1725 264.661 31.3965C264.661 31.6205 264.661 31.8445 264.661 32.0685C265.653 31.3645 266.773 30.8365 268.021 30.4845C269.269 30.1325 270.629 30.0365 272.101 30.1965C272.101 31.4765 272.101 32.7725 272.101 34.0845C272.101 35.3965 272.101 36.6925 272.101 37.9725C269.573 37.6205 267.701 37.8445 266.485 38.6445C265.269 39.4125 264.661 40.6765 264.661 42.4365C264.661 44.5805 264.661 46.7565 264.661 48.9645C264.661 51.1725 264.661 53.3645 264.661 55.5405C263.381 55.5405 262.069 55.5405 260.725 55.5405C259.381 55.5405 258.053 55.5405 256.741 55.5405ZM296.804 54.3885C294.596 55.3165 292.404 55.8925 290.228 56.1165C288.052 56.3405 285.988 56.2125 284.036 55.7325C282.116 55.2845 280.404 54.5005 278.9 53.3805C277.396 52.2605 276.212 50.8365 275.348 49.1085C274.516 47.3805 274.1 45.3805 274.1 43.1085C274.1 41.2205 274.404 39.4925 275.012 37.9245C275.652 36.3245 276.548 34.9325 277.7 33.7485C278.852 32.5325 280.212 31.6045 281.78 30.9645C283.348 30.2925 285.06 29.9565 286.916 29.9565C288.58 29.9565 290.084 30.2285 291.428 30.7725C292.772 31.3165 293.94 32.0845 294.932 33.0765C295.924 34.0365 296.724 35.1885 297.332 36.5325C297.94 37.8765 298.324 39.3485 298.484 40.9485C298.644 42.5485 298.548 44.2445 298.196 46.0365C295.572 46.0365 292.932 46.0365 290.276 46.0365C287.62 46.0365 284.98 46.0365 282.356 46.0365C282.964 47.2525 283.972 48.1165 285.38 48.6285C286.82 49.1405 288.516 49.3005 290.468 49.1085C292.452 48.9165 294.564 48.4045 296.804 47.5725C296.804 48.6925 296.804 49.8285 296.804 50.9805C296.804 52.1325 296.804 53.2685 296.804 54.3885ZM286.724 37.0605C285.796 37.0605 284.932 37.3165 284.132 37.8285C283.364 38.3405 282.772 39.1245 282.356 40.1805C283.796 40.1805 285.236 40.1805 286.676 40.1805C288.148 40.1805 289.604 40.1805 291.044 40.1805C290.66 39.0925 290.084 38.3085 289.316 37.8285C288.58 37.3165 287.716 37.0605 286.724 37.0605ZM321.638 47.8605C321.638 49.8445 321.078 51.4765 319.958 52.7565C318.87 54.0045 317.398 54.9165 315.542 55.4925C313.686 56.0685 311.606 56.3085 309.302 56.2125C307.03 56.1485 304.71 55.7805 302.342 55.1085C302.342 53.8925 302.342 52.6445 302.342 51.3645C302.342 50.0845 302.342 48.8365 302.342 47.6205C303.686 48.2285 305.03 48.7085 306.374 49.0605C307.718 49.3805 308.934 49.5725 310.022 49.6365C311.11 49.7005 311.99 49.6205 312.662 49.3965C313.334 49.1405 313.67 48.7245 313.67 48.1485C313.67 47.7005 313.382 47.3485 312.806 47.0925C312.262 46.8365 311.542 46.6125 310.646 46.4205C309.75 46.1965 308.79 45.9405 307.766 45.6525C306.774 45.3325 305.83 44.9005 304.934 44.3565C304.038 43.7805 303.302 43.0285 302.726 42.1005C302.182 41.1405 301.91 39.9085 301.91 38.4045C301.91 36.6125 302.422 35.0925 303.446 33.8445C304.502 32.5645 305.91 31.6045 307.67 30.9645C309.43 30.2925 311.398 29.9565 313.574 29.9565C315.75 29.9565 317.974 30.3245 320.246 31.0605C320.246 32.2765 320.246 33.5245 320.246 34.8045C320.246 36.0845 320.246 37.3325 320.246 38.5485C318.454 37.6845 316.774 37.1085 315.206 36.8205C313.638 36.5325 312.374 36.5005 311.414 36.7245C310.454 36.9165 309.974 37.3485 309.974 38.0205C309.974 38.4685 310.246 38.8205 310.79 39.0765C311.366 39.3005 312.086 39.5085 312.95 39.7005C313.846 39.8925 314.79 40.1485 315.782 40.4685C316.806 40.7885 317.75 41.2365 318.614 41.8125C319.51 42.3565 320.23 43.1245 320.774 44.1165C321.35 45.0765 321.638 46.3245 321.638 47.8605Z" fill="#E94812"/>
<path d="M141.582 193.014C142.414 190.326 143.246 187.606 144.078 184.854C144.926 182.102 145.766 179.382 146.598 176.694C147.542 176.694 148.494 176.694 149.454 176.694C150.43 176.694 151.39 176.694 152.334 176.694C153.166 179.382 153.998 182.102 154.83 184.854C155.678 187.606 156.518 190.326 157.35 193.014C156.662 193.014 155.958 193.014 155.238 193.014C154.534 193.014 153.83 193.014 153.126 193.014C152.966 192.502 152.814 191.99 152.67 191.478C152.526 190.95 152.374 190.43 152.214 189.918C151.302 189.918 150.382 189.918 149.454 189.918C148.542 189.918 147.63 189.918 146.718 189.918C146.558 190.43 146.406 190.95 146.262 191.478C146.118 191.99 145.966 192.502 145.806 193.014C145.118 193.014 144.414 193.014 143.694 193.014C142.99 193.014 142.286 193.014 141.582 193.014ZM147.774 186.342C148.334 186.342 148.894 186.342 149.454 186.342C150.03 186.342 150.598 186.342 151.158 186.342C150.886 185.398 150.606 184.446 150.318 183.486C150.03 182.526 149.75 181.574 149.478 180.63C149.206 181.574 148.918 182.526 148.614 183.486C148.326 184.446 148.046 185.398 147.774 186.342ZM166.955 193.014C166.955 192.886 166.955 192.766 166.955 192.654C166.955 192.526 166.955 192.406 166.955 192.294C166.555 192.63 166.099 192.886 165.587 193.062C165.091 193.254 164.555 193.35 163.979 193.35C163.163 193.35 162.395 193.19 161.675 192.87C160.955 192.55 160.315 192.102 159.755 191.526C159.211 190.934 158.779 190.238 158.459 189.438C158.155 188.638 158.003 187.758 158.003 186.798C158.003 185.822 158.155 184.934 158.459 184.134C158.779 183.334 159.211 182.646 159.755 182.07C160.315 181.494 160.955 181.054 161.675 180.75C162.395 180.43 163.155 180.27 163.955 180.27C164.531 180.27 165.075 180.366 165.587 180.558C166.099 180.734 166.555 180.982 166.955 181.302C166.955 180.342 166.955 179.374 166.955 178.398C166.955 177.422 166.955 176.454 166.955 175.494C167.611 175.494 168.275 175.494 168.947 175.494C169.619 175.494 170.275 175.494 170.915 175.494C170.915 178.39 170.915 181.31 170.915 184.254C170.915 187.198 170.915 190.118 170.915 193.014C170.275 193.014 169.619 193.014 168.947 193.014C168.275 193.014 167.611 193.014 166.955 193.014ZM164.507 189.846C165.275 189.846 165.891 189.566 166.355 189.006C166.819 188.446 167.051 187.71 167.051 186.798C167.051 185.886 166.819 185.158 166.355 184.614C165.891 184.054 165.275 183.774 164.507 183.774C163.723 183.774 163.099 184.046 162.635 184.59C162.187 185.134 161.963 185.87 161.963 186.798C161.963 187.726 162.187 188.47 162.635 189.03C163.099 189.574 163.723 189.846 164.507 189.846ZM181.955 193.014C181.955 192.886 181.955 192.766 181.955 192.654C181.955 192.526 181.955 192.406 181.955 192.294C181.555 192.63 181.099 192.886 180.587 193.062C180.091 193.254 179.555 193.35 178.979 193.35C178.163 193.35 177.395 193.19 176.675 192.87C175.955 192.55 175.315 192.102 174.755 191.526C174.211 190.934 173.779 190.238 173.459 189.438C173.155 188.638 173.003 187.758 173.003 186.798C173.003 185.822 173.155 184.934 173.459 184.134C173.779 183.334 174.211 182.646 174.755 182.07C175.315 181.494 175.955 181.054 176.675 180.75C177.395 180.43 178.155 180.27 178.955 180.27C179.531 180.27 180.075 180.366 180.587 180.558C181.099 180.734 181.555 180.982 181.955 181.302C181.955 180.342 181.955 179.374 181.955 178.398C181.955 177.422 181.955 176.454 181.955 175.494C182.611 175.494 183.275 175.494 183.947 175.494C184.619 175.494 185.275 175.494 185.915 175.494C185.915 178.39 185.915 181.31 185.915 184.254C185.915 187.198 185.915 190.118 185.915 193.014C185.275 193.014 184.619 193.014 183.947 193.014C183.275 193.014 182.611 193.014 181.955 193.014ZM179.507 189.846C180.275 189.846 180.891 189.566 181.355 189.006C181.819 188.446 182.051 187.71 182.051 186.798C182.051 185.886 181.819 185.158 181.355 184.614C180.891 184.054 180.275 183.774 179.507 183.774C178.723 183.774 178.099 184.046 177.635 184.59C177.187 185.134 176.963 185.87 176.963 186.798C176.963 187.726 177.187 188.47 177.635 189.03C178.099 189.574 178.723 189.846 179.507 189.846ZM190.787 179.19C190.323 179.19 189.899 179.078 189.515 178.854C189.147 178.63 188.851 178.334 188.627 177.966C188.403 177.598 188.291 177.19 188.291 176.742C188.291 176.294 188.403 175.894 188.627 175.542C188.851 175.174 189.147 174.878 189.515 174.654C189.899 174.43 190.323 174.318 190.787 174.318C191.235 174.318 191.643 174.43 192.011 174.654C192.395 174.878 192.699 175.174 192.923 175.542C193.147 175.894 193.259 176.294 193.259 176.742C193.259 177.19 193.147 177.598 192.923 177.966C192.699 178.334 192.395 178.63 192.011 178.854C191.643 179.078 191.235 179.19 190.787 179.19ZM188.795 193.014C188.795 190.966 188.795 188.902 188.795 186.822C188.795 184.726 188.795 182.654 188.795 180.606C189.451 180.606 190.115 180.606 190.787 180.606C191.459 180.606 192.115 180.606 192.755 180.606C192.755 182.654 192.755 184.726 192.755 186.822C192.755 188.902 192.755 190.966 192.755 193.014C192.115 193.014 191.459 193.014 190.787 193.014C190.115 193.014 189.451 193.014 188.795 193.014ZM194.847 186.798C194.847 185.582 195.095 184.518 195.591 183.606C196.087 182.678 196.775 181.934 197.655 181.374C198.535 180.814 199.559 180.478 200.727 180.366C201.895 180.238 203.143 180.374 204.471 180.774C204.471 181.382 204.471 181.998 204.471 182.622C204.471 183.246 204.471 183.862 204.471 184.47C203.543 184.022 202.655 183.814 201.807 183.846C200.959 183.878 200.263 184.142 199.719 184.638C199.175 185.118 198.903 185.838 198.903 186.798C198.903 187.758 199.175 188.486 199.719 188.982C200.263 189.462 200.959 189.718 201.807 189.75C202.655 189.766 203.543 189.558 204.471 189.126C204.471 189.734 204.471 190.35 204.471 190.974C204.471 191.598 204.471 192.214 204.471 192.822C203.143 193.222 201.895 193.358 200.727 193.23C199.559 193.118 198.535 192.782 197.655 192.222C196.775 191.662 196.087 190.926 195.591 190.014C195.095 189.086 194.847 188.014 194.847 186.798ZM208.229 193.014C208.229 191.542 208.229 190.062 208.229 188.574C208.229 187.086 208.229 185.614 208.229 184.158C207.909 184.158 207.581 184.158 207.245 184.158C206.925 184.158 206.605 184.158 206.285 184.158C206.285 183.566 206.285 182.974 206.285 182.382C206.285 181.79 206.285 181.198 206.285 180.606C206.605 180.606 206.925 180.606 207.245 180.606C207.581 180.606 207.909 180.606 208.229 180.606C208.229 180.046 208.229 179.494 208.229 178.95C208.229 178.39 208.229 177.838 208.229 177.294C208.885 177.294 209.549 177.294 210.221 177.294C210.893 177.294 211.549 177.294 212.189 177.294C212.189 177.838 212.189 178.39 212.189 178.95C212.189 179.494 212.189 180.046 212.189 180.606C212.557 180.606 212.933 180.606 213.317 180.606C213.701 180.606 214.077 180.606 214.445 180.606C214.445 181.198 214.445 181.79 214.445 182.382C214.445 182.974 214.445 183.566 214.445 184.158C214.077 184.158 213.701 184.158 213.317 184.158C212.933 184.158 212.557 184.158 212.189 184.158C212.189 185.614 212.189 187.086 212.189 188.574C212.189 190.062 212.189 191.542 212.189 193.014C211.549 193.014 210.893 193.014 210.221 193.014C209.549 193.014 208.885 193.014 208.229 193.014ZM218.467 179.19C218.003 179.19 217.579 179.078 217.195 178.854C216.827 178.63 216.531 178.334 216.307 177.966C216.083 177.598 215.971 177.19 215.971 176.742C215.971 176.294 216.083 175.894 216.307 175.542C216.531 175.174 216.827 174.878 217.195 174.654C217.579 174.43 218.003 174.318 218.467 174.318C218.915 174.318 219.323 174.43 219.691 174.654C220.075 174.878 220.379 175.174 220.603 175.542C220.827 175.894 220.939 176.294 220.939 176.742C220.939 177.19 220.827 177.598 220.603 177.966C220.379 178.334 220.075 178.63 219.691 178.854C219.323 179.078 218.915 179.19 218.467 179.19ZM216.475 193.014C216.475 190.966 216.475 188.902 216.475 186.822C216.475 184.726 216.475 182.654 216.475 180.606C217.131 180.606 217.795 180.606 218.467 180.606C219.139 180.606 219.795 180.606 220.435 180.606C220.435 182.654 220.435 184.726 220.435 186.822C220.435 188.902 220.435 190.966 220.435 193.014C219.795 193.014 219.139 193.014 218.467 193.014C217.795 193.014 217.131 193.014 216.475 193.014ZM226.055 193.014C225.351 190.966 224.631 188.902 223.895 186.822C223.175 184.726 222.463 182.654 221.759 180.606C222.447 180.606 223.135 180.606 223.823 180.606C224.527 180.606 225.223 180.606 225.911 180.606C226.327 181.87 226.743 183.142 227.159 184.422C227.591 185.686 228.007 186.95 228.407 188.214C228.823 186.95 229.239 185.686 229.655 184.422C230.071 183.142 230.479 181.87 230.879 180.606C231.551 180.606 232.231 180.606 232.919 180.606C233.607 180.606 234.287 180.606 234.959 180.606C234.255 182.654 233.535 184.726 232.799 186.822C232.079 188.902 231.367 190.966 230.663 193.014C229.911 193.014 229.143 193.014 228.359 193.014C227.575 193.014 226.807 193.014 226.055 193.014ZM246.605 192.438C245.501 192.902 244.405 193.19 243.317 193.302C242.229 193.414 241.197 193.35 240.221 193.11C239.261 192.886 238.405 192.494 237.653 191.934C236.901 191.374 236.309 190.662 235.877 189.798C235.461 188.934 235.253 187.934 235.253 186.798C235.253 185.854 235.405 184.99 235.709 184.206C236.029 183.406 236.477 182.71 237.053 182.118C237.629 181.51 238.309 181.046 239.093 180.726C239.877 180.39 240.733 180.222 241.661 180.222C242.493 180.222 243.245 180.358 243.917 180.63C244.589 180.902 245.173 181.286 245.669 181.782C246.165 182.262 246.565 182.838 246.869 183.51C247.173 184.182 247.365 184.918 247.445 185.718C247.525 186.518 247.477 187.366 247.301 188.262C245.989 188.262 244.669 188.262 243.341 188.262C242.013 188.262 240.693 188.262 239.381 188.262C239.685 188.87 240.189 189.302 240.893 189.558C241.613 189.814 242.461 189.894 243.437 189.798C244.429 189.702 245.485 189.446 246.605 189.03C246.605 189.59 246.605 190.158 246.605 190.734C246.605 191.31 246.605 191.878 246.605 192.438ZM241.565 183.774C241.101 183.774 240.669 183.902 240.269 184.158C239.885 184.414 239.589 184.806 239.381 185.334C240.101 185.334 240.821 185.334 241.541 185.334C242.277 185.334 243.005 185.334 243.725 185.334C243.533 184.79 243.245 184.398 242.861 184.158C242.493 183.902 242.061 183.774 241.565 183.774ZM262.862 193.014C262.862 192.886 262.862 192.766 262.862 192.654C262.862 192.526 262.862 192.406 262.862 192.294C262.462 192.63 262.006 192.886 261.494 193.062C260.998 193.254 260.462 193.35 259.886 193.35C259.07 193.35 258.302 193.19 257.582 192.87C256.862 192.55 256.222 192.102 255.662 191.526C255.118 190.934 254.686 190.238 254.366 189.438C254.062 188.638 253.91 187.758 253.91 186.798C253.91 185.822 254.062 184.934 254.366 184.134C254.686 183.334 255.118 182.646 255.662 182.07C256.222 181.494 256.862 181.054 257.582 180.75C258.302 180.43 259.062 180.27 259.862 180.27C260.438 180.27 260.982 180.366 261.494 180.558C262.006 180.734 262.462 180.982 262.862 181.302C262.862 180.342 262.862 179.374 262.862 178.398C262.862 177.422 262.862 176.454 262.862 175.494C263.518 175.494 264.182 175.494 264.854 175.494C265.526 175.494 266.182 175.494 266.822 175.494C266.822 178.39 266.822 181.31 266.822 184.254C266.822 187.198 266.822 190.118 266.822 193.014C266.182 193.014 265.526 193.014 264.854 193.014C264.182 193.014 263.518 193.014 262.862 193.014ZM260.414 189.846C261.182 189.846 261.798 189.566 262.262 189.006C262.726 188.446 262.958 187.71 262.958 186.798C262.958 185.886 262.726 185.158 262.262 184.614C261.798 184.054 261.182 183.774 260.414 183.774C259.63 183.774 259.006 184.046 258.542 184.59C258.094 185.134 257.87 185.87 257.87 186.798C257.87 187.726 258.094 188.47 258.542 189.03C259.006 189.574 259.63 189.846 260.414 189.846ZM277.862 193.014C277.862 192.886 277.862 192.766 277.862 192.654C277.862 192.526 277.862 192.406 277.862 192.294C277.462 192.63 277.006 192.886 276.494 193.062C275.998 193.254 275.462 193.35 274.886 193.35C274.07 193.35 273.302 193.198 272.582 192.894C271.862 192.574 271.222 192.126 270.662 191.55C270.118 190.958 269.686 190.262 269.366 189.462C269.062 188.662 268.91 187.774 268.91 186.798C268.91 185.806 269.062 184.91 269.366 184.11C269.686 183.31 270.118 182.63 270.662 182.07C271.222 181.494 271.862 181.054 272.582 180.75C273.302 180.43 274.062 180.27 274.862 180.27C275.438 180.27 275.982 180.366 276.494 180.558C277.006 180.734 277.462 180.982 277.862 181.302C277.862 181.174 277.862 181.054 277.862 180.942C277.862 180.83 277.862 180.718 277.862 180.606C278.518 180.606 279.182 180.606 279.854 180.606C280.526 180.606 281.182 180.606 281.822 180.606C281.822 182.654 281.822 184.726 281.822 186.822C281.822 188.902 281.822 190.966 281.822 193.014C281.182 193.014 280.526 193.014 279.854 193.014C279.182 193.014 278.518 193.014 277.862 193.014ZM275.414 189.846C276.182 189.846 276.798 189.566 277.262 189.006C277.726 188.446 277.958 187.71 277.958 186.798C277.958 185.886 277.726 185.158 277.262 184.614C276.798 184.054 276.182 183.774 275.414 183.774C274.63 183.774 274.006 184.046 273.542 184.59C273.094 185.134 272.87 185.87 272.87 186.798C272.87 187.726 273.094 188.47 273.542 189.03C274.006 189.574 274.63 189.846 275.414 189.846ZM284.465 193.014C284.465 190.966 284.465 188.902 284.465 186.822C284.465 184.726 284.465 182.654 284.465 180.606C285.121 180.606 285.785 180.606 286.457 180.606C287.129 180.606 287.785 180.606 288.425 180.606C288.425 180.718 288.425 180.822 288.425 180.918C288.425 181.014 288.425 181.118 288.425 181.23C288.857 180.926 289.337 180.694 289.865 180.534C290.409 180.358 290.993 180.27 291.617 180.27C292.529 180.27 293.329 180.478 294.017 180.894C294.721 181.31 295.265 181.91 295.649 182.694C296.049 183.462 296.249 184.39 296.249 185.478C296.249 186.726 296.249 187.982 296.249 189.246C296.249 190.51 296.249 191.766 296.249 193.014C295.609 193.014 294.953 193.014 294.281 193.014C293.609 193.014 292.945 193.014 292.289 193.014C292.289 191.862 292.289 190.694 292.289 189.51C292.289 188.326 292.289 187.158 292.289 186.006C292.289 185.366 292.137 184.854 291.833 184.47C291.545 184.07 291.081 183.87 290.441 183.87C289.801 183.87 289.305 184.054 288.953 184.422C288.601 184.79 288.425 185.318 288.425 186.006C288.425 187.158 288.425 188.326 288.425 189.51C288.425 190.694 288.425 191.862 288.425 193.014C287.785 193.014 287.129 193.014 286.457 193.014C285.785 193.014 285.121 193.014 284.465 193.014ZM298.019 186.798C298.019 185.582 298.267 184.518 298.763 183.606C299.259 182.678 299.947 181.934 300.827 181.374C301.707 180.814 302.731 180.478 303.899 180.366C305.067 180.238 306.315 180.374 307.643 180.774C307.643 181.382 307.643 181.998 307.643 182.622C307.643 183.246 307.643 183.862 307.643 184.47C306.715 184.022 305.827 183.814 304.979 183.846C304.131 183.878 303.435 184.142 302.891 184.638C302.347 185.118 302.075 185.838 302.075 186.798C302.075 187.758 302.347 188.486 302.891 188.982C303.435 189.462 304.131 189.718 304.979 189.75C305.827 189.766 306.715 189.558 307.643 189.126C307.643 189.734 307.643 190.35 307.643 190.974C307.643 191.598 307.643 192.214 307.643 192.822C306.315 193.222 305.067 193.358 303.899 193.23C302.731 193.118 301.707 192.782 300.827 192.222C299.947 191.662 299.259 190.926 298.763 190.014C298.267 189.086 298.019 188.014 298.019 186.798ZM320.668 192.438C319.564 192.902 318.468 193.19 317.38 193.302C316.292 193.414 315.26 193.35 314.284 193.11C313.324 192.886 312.468 192.494 311.716 191.934C310.964 191.374 310.372 190.662 309.94 189.798C309.524 188.934 309.316 187.934 309.316 186.798C309.316 185.854 309.468 184.99 309.772 184.206C310.092 183.406 310.54 182.71 311.116 182.118C311.692 181.51 312.372 181.046 313.156 180.726C313.94 180.39 314.796 180.222 315.724 180.222C316.556 180.222 317.308 180.358 317.98 180.63C318.652 180.902 319.236 181.286 319.732 181.782C320.228 182.262 320.628 182.838 320.932 183.51C321.236 184.182 321.428 184.918 321.508 185.718C321.588 186.518 321.54 187.366 321.364 188.262C320.052 188.262 318.732 188.262 317.404 188.262C316.076 188.262 314.756 188.262 313.444 188.262C313.748 188.87 314.252 189.302 314.956 189.558C315.676 189.814 316.524 189.894 317.5 189.798C318.492 189.702 319.548 189.446 320.668 189.03C320.668 189.59 320.668 190.158 320.668 190.734C320.668 191.31 320.668 191.878 320.668 192.438ZM315.628 183.774C315.164 183.774 314.732 183.902 314.332 184.158C313.948 184.414 313.652 184.806 313.444 185.334C314.164 185.334 314.884 185.334 315.604 185.334C316.34 185.334 317.068 185.334 317.788 185.334C317.596 184.79 317.308 184.398 316.924 184.158C316.556 183.902 316.124 183.774 315.628 183.774ZM328.644 193.014C328.644 190.966 328.644 188.902 328.644 186.822C328.644 184.726 328.644 182.654 328.644 180.606C329.3 180.606 329.964 180.606 330.636 180.606C331.308 180.606 331.964 180.606 332.604 180.606C332.604 180.718 332.604 180.822 332.604 180.918C332.604 181.014 332.604 181.118 332.604 181.23C333.02 180.926 333.484 180.694 333.996 180.534C334.508 180.358 335.036 180.27 335.58 180.27C336.172 180.27 336.716 180.374 337.212 180.582C337.708 180.774 338.132 181.062 338.484 181.446C338.996 181.078 339.572 180.79 340.212 180.582C340.868 180.374 341.54 180.27 342.228 180.27C343.204 180.27 344.044 180.47 344.748 180.87C345.468 181.27 346.02 181.838 346.404 182.574C346.804 183.31 347.004 184.198 347.004 185.238C347.004 186.518 347.004 187.814 347.004 189.126C347.004 190.438 347.004 191.734 347.004 193.014C346.364 193.014 345.708 193.014 345.036 193.014C344.364 193.014 343.7 193.014 343.044 193.014C343.044 191.814 343.044 190.598 343.044 189.366C343.044 188.134 343.044 186.918 343.044 185.718C343.044 185.174 342.916 184.734 342.66 184.398C342.42 184.046 342.028 183.87 341.484 183.87C340.956 183.87 340.54 184.038 340.236 184.374C339.948 184.694 339.804 185.142 339.804 185.718C339.804 186.918 339.804 188.134 339.804 189.366C339.804 190.598 339.804 191.814 339.804 193.014C339.164 193.014 338.508 193.014 337.836 193.014C337.164 193.014 336.5 193.014 335.844 193.014C335.844 191.814 335.844 190.598 335.844 189.366C335.844 188.134 335.844 186.918 335.844 185.718C335.844 185.174 335.716 184.734 335.46 184.398C335.22 184.046 334.828 183.87 334.284 183.87C333.756 183.87 333.34 184.038 333.036 184.374C332.748 184.694 332.604 185.142 332.604 185.718C332.604 186.918 332.604 188.134 332.604 189.366C332.604 190.598 332.604 191.814 332.604 193.014C331.964 193.014 331.308 193.014 330.636 193.014C329.964 193.014 329.3 193.014 328.644 193.014ZM361.049 180.606C361.049 182.654 361.049 184.726 361.049 186.822C361.049 188.902 361.049 190.966 361.049 193.014C360.409 193.014 359.753 193.014 359.081 193.014C358.409 193.014 357.745 193.014 357.089 193.014C357.089 192.902 357.089 192.798 357.089 192.702C357.089 192.606 357.089 192.502 357.089 192.39C356.657 192.694 356.169 192.926 355.625 193.086C355.097 193.262 354.521 193.35 353.897 193.35C352.985 193.35 352.177 193.142 351.473 192.726C350.785 192.31 350.241 191.71 349.841 190.926C349.457 190.142 349.265 189.214 349.265 188.142C349.265 186.894 349.265 185.638 349.265 184.374C349.265 183.11 349.265 181.854 349.265 180.606C349.921 180.606 350.585 180.606 351.257 180.606C351.929 180.606 352.585 180.606 353.225 180.606C353.225 181.758 353.225 182.926 353.225 184.11C353.225 185.294 353.225 186.462 353.225 187.614C353.225 188.254 353.369 188.774 353.657 189.174C353.961 189.558 354.433 189.75 355.073 189.75C355.713 189.75 356.209 189.566 356.561 189.198C356.913 188.83 357.089 188.302 357.089 187.614C357.089 186.462 357.089 185.294 357.089 184.11C357.089 182.926 357.089 181.758 357.089 180.606C357.745 180.606 358.409 180.606 359.081 180.606C359.753 180.606 360.409 180.606 361.049 180.606ZM373.163 189.174C373.163 190.166 372.883 190.982 372.323 191.622C371.779 192.246 371.043 192.702 370.115 192.99C369.187 193.278 368.147 193.398 366.995 193.35C365.859 193.318 364.699 193.134 363.515 192.798C363.515 192.19 363.515 191.566 363.515 190.926C363.515 190.286 363.515 189.662 363.515 189.054C364.187 189.358 364.859 189.598 365.531 189.774C366.203 189.934 366.811 190.03 367.355 190.062C367.899 190.094 368.339 190.054 368.675 189.942C369.011 189.814 369.179 189.606 369.179 189.318C369.179 189.094 369.035 188.918 368.747 188.79C368.475 188.662 368.115 188.55 367.667 188.454C367.219 188.342 366.739 188.214 366.227 188.07C365.731 187.91 365.259 187.694 364.811 187.422C364.363 187.134 363.995 186.758 363.707 186.294C363.435 185.814 363.299 185.198 363.299 184.446C363.299 183.55 363.555 182.79 364.067 182.166C364.595 181.526 365.299 181.046 366.179 180.726C367.059 180.39 368.043 180.222 369.131 180.222C370.219 180.222 371.331 180.406 372.467 180.774C372.467 181.382 372.467 182.006 372.467 182.646C372.467 183.286 372.467 183.91 372.467 184.518C371.571 184.086 370.731 183.798 369.947 183.654C369.163 183.51 368.531 183.494 368.051 183.606C367.571 183.702 367.331 183.918 367.331 184.254C367.331 184.478 367.467 184.654 367.739 184.782C368.027 184.894 368.387 184.998 368.819 185.094C369.267 185.19 369.739 185.318 370.235 185.478C370.747 185.638 371.219 185.862 371.651 186.15C372.099 186.422 372.459 186.806 372.731 187.302C373.019 187.782 373.163 188.406 373.163 189.174ZM377.186 179.19C376.722 179.19 376.298 179.078 375.914 178.854C375.546 178.63 375.25 178.334 375.026 177.966C374.802 177.598 374.69 177.19 374.69 176.742C374.69 176.294 374.802 175.894 375.026 175.542C375.25 175.174 375.546 174.878 375.914 174.654C376.298 174.43 376.722 174.318 377.186 174.318C377.634 174.318 378.042 174.43 378.41 174.654C378.794 174.878 379.098 175.174 379.322 175.542C379.546 175.894 379.658 176.294 379.658 176.742C379.658 177.19 379.546 177.598 379.322 177.966C379.098 178.334 378.794 178.63 378.41 178.854C378.042 179.078 377.634 179.19 377.186 179.19ZM375.194 193.014C375.194 190.966 375.194 188.902 375.194 186.822C375.194 184.726 375.194 182.654 375.194 180.606C375.85 180.606 376.514 180.606 377.186 180.606C377.858 180.606 378.514 180.606 379.154 180.606C379.154 182.654 379.154 184.726 379.154 186.822C379.154 188.902 379.154 190.966 379.154 193.014C378.514 193.014 377.858 193.014 377.186 193.014C376.514 193.014 375.85 193.014 375.194 193.014ZM381.246 186.798C381.246 185.582 381.494 184.518 381.99 183.606C382.486 182.678 383.174 181.934 384.054 181.374C384.934 180.814 385.958 180.478 387.126 180.366C388.294 180.238 389.542 180.374 390.87 180.774C390.87 181.382 390.87 181.998 390.87 182.622C390.87 183.246 390.87 183.862 390.87 184.47C389.942 184.022 389.054 183.814 388.206 183.846C387.358 183.878 386.662 184.142 386.118 184.638C385.574 185.118 385.302 185.838 385.302 186.798C385.302 187.758 385.574 188.486 386.118 188.982C386.662 189.462 387.358 189.718 388.206 189.75C389.054 189.766 389.942 189.558 390.87 189.126C390.87 189.734 390.87 190.35 390.87 190.974C390.87 191.598 390.87 192.214 390.87 192.822C389.542 193.222 388.294 193.358 387.126 193.23C385.958 193.118 384.934 192.782 384.054 192.222C383.174 191.662 382.486 190.926 381.99 190.014C381.494 189.086 381.246 188.014 381.246 186.798Z" fill="#FE9973"/>
</svg>
