<svg width="282" height="208" viewBox="0 0 282 208" fill="none" xmlns="http://www.w3.org/2000/svg">
<rect x="8.24854" y="186.335" width="21.1844" height="8.11035" transform="rotate(90.1729 8.24854 186.335)" fill="#F4E3D5"/>
<rect x="8.17432" y="151.872" width="21.1844" height="8.11035" transform="rotate(90.1729 8.17432 151.872)" fill="#F4E3D5"/>
<rect x="8.3125" y="118.228" width="21.1844" height="8.11035" transform="rotate(90.1729 8.3125 118.228)" fill="#F4E3D5"/>
<rect x="8.24316" y="83.4424" width="21.1844" height="8.11035" transform="rotate(90.1729 8.24316 83.4424)" fill="#F4E3D5"/>
<rect x="8.24316" y="48.979" width="21.1844" height="8.11035" transform="rotate(90.1729 8.24316 48.979)" fill="#F4E3D5"/>
<rect x="9.19629" y="13.3345" width="21.1844" height="8.11035" transform="rotate(90.1729 9.19629 13.3345)" fill="#F4E3D5"/>
<rect x="224.968" width="21.1844" height="8.11035" fill="#F4E3D5"/>
<rect x="153.759" width="21.1844" height="8.11035" fill="#F4E3D5"/>
<rect x="82.5513" width="21.1844" height="8.11035" fill="#F4E3D5"/>
<rect x="11.3433" width="21.1844" height="8.11035" fill="#F4E3D5"/>
<rect x="260.572" width="21.1844" height="8.11035" fill="#F4E3D5"/>
<rect x="189.364" width="21.1844" height="8.11035" fill="#F4E3D5"/>
<rect x="118.156" width="21.1844" height="8.11035" fill="#F4E3D5"/>
<rect x="46.9478" width="21.1844" height="8.11035" fill="#F4E3D5"/>
</svg>
