<svg width="204" height="199" viewBox="0 0 204 199" fill="none" xmlns="http://www.w3.org/2000/svg">
<rect width="200.744" height="186.17" rx="32" fill="#E94812"/>
<path d="M21.2968 108.705C21.2968 103.329 21.2968 97.8891 21.2968 92.3851C21.2968 86.8811 21.2968 81.4411 21.2968 76.0651C23.2168 76.0651 25.1528 76.0651 27.1048 76.0651C29.0568 76.0651 30.9928 76.0651 32.9128 76.0651C35.2808 76.0651 37.4568 76.4811 39.4408 77.3131C41.4248 78.1131 43.1528 79.2491 44.6248 80.7211C46.0968 82.1931 47.2328 83.9211 48.0328 85.9051C48.8648 87.8571 49.2808 90.0011 49.2808 92.3371C49.2808 94.6731 48.8648 96.8331 48.0328 98.8171C47.2328 100.801 46.0968 102.545 44.6248 104.049C43.1528 105.521 41.4248 106.673 39.4408 107.505C37.4568 108.305 35.2808 108.705 32.9128 108.705C30.9928 108.705 29.0568 108.705 27.1048 108.705C25.1528 108.705 23.2168 108.705 21.2968 108.705ZM32.9128 83.6491C32.4008 83.6491 31.8728 83.6491 31.3288 83.6491C30.7848 83.6491 30.2408 83.6491 29.6968 83.6491C29.6968 86.5291 29.6968 89.4411 29.6968 92.3851C29.6968 95.3291 29.6968 98.2411 29.6968 101.121C30.2408 101.121 30.7848 101.121 31.3288 101.121C31.8728 101.121 32.4008 101.121 32.9128 101.121C34.5128 101.121 35.9048 100.737 37.0888 99.9691C38.2728 99.2011 39.1848 98.1611 39.8248 96.8491C40.4648 95.5051 40.7848 94.0011 40.7848 92.3371C40.7848 90.6731 40.4648 89.1851 39.8248 87.8731C39.1848 86.5611 38.2728 85.5371 37.0888 84.8011C35.9048 84.0331 34.5128 83.6491 32.9128 83.6491ZM65.1549 109.473C63.2989 109.473 61.5709 109.153 59.9709 108.513C58.3709 107.841 56.9789 106.913 55.7949 105.729C54.6109 104.513 53.6829 103.105 53.0109 101.505C52.3709 99.9051 52.0509 98.1611 52.0509 96.2731C52.0509 94.3851 52.3709 92.6411 53.0109 91.0411C53.6829 89.4411 54.6109 88.0491 55.7949 86.8651C56.9789 85.6811 58.3709 84.7691 59.9709 84.1291C61.5709 83.4571 63.2989 83.1211 65.1549 83.1211C67.0429 83.1211 68.7709 83.4571 70.3389 84.1291C71.9389 84.7691 73.3309 85.6811 74.5149 86.8651C75.6989 88.0491 76.6109 89.4411 77.2509 91.0411C77.9229 92.6411 78.2589 94.3851 78.2589 96.2731C78.2589 98.1611 77.9229 99.9051 77.2509 101.505C76.6109 103.105 75.6989 104.513 74.5149 105.729C73.3309 106.913 71.9389 107.841 70.3389 108.513C68.7709 109.153 67.0429 109.473 65.1549 109.473ZM65.1549 102.321C66.7229 102.321 67.9709 101.761 68.8989 100.641C69.8589 99.4891 70.3389 98.0331 70.3389 96.2731C70.3389 94.4811 69.8589 93.0411 68.8989 91.9531C67.9709 90.8331 66.7229 90.2731 65.1549 90.2731C63.5869 90.2731 62.3229 90.8331 61.3629 91.9531C60.4349 93.0411 59.9709 94.4811 59.9709 96.2731C59.9709 98.0331 60.4349 99.4891 61.3629 100.641C62.3229 101.761 63.5869 102.321 65.1549 102.321ZM98.7361 108.705C98.7361 108.449 98.7361 108.209 98.7361 107.985C98.7361 107.729 98.7361 107.489 98.7361 107.265C97.9361 107.937 97.0241 108.449 96.0001 108.801C95.0081 109.185 93.9361 109.377 92.7841 109.377C91.1521 109.377 89.6161 109.057 88.1761 108.417C86.7361 107.777 85.4561 106.881 84.3361 105.729C83.2481 104.545 82.3841 103.153 81.7441 101.553C81.1361 99.9531 80.8321 98.1931 80.8321 96.2731C80.8321 94.3211 81.1361 92.5451 81.7441 90.9451C82.3841 89.3451 83.2481 87.9691 84.3361 86.8171C85.4561 85.6651 86.7361 84.7851 88.1761 84.1771C89.6161 83.5371 91.1361 83.2171 92.7361 83.2171C93.8881 83.2171 94.9761 83.4091 96.0001 83.7931C97.0241 84.1451 97.9361 84.6411 98.7361 85.2811C98.7361 83.3611 98.7361 81.4251 98.7361 79.4731C98.7361 77.5211 98.7361 75.5851 98.7361 73.6651C100.048 73.6651 101.376 73.6651 102.72 73.6651C104.064 73.6651 105.376 73.6651 106.656 73.6651C106.656 79.4571 106.656 85.2971 106.656 91.1851C106.656 97.0731 106.656 102.913 106.656 108.705C105.376 108.705 104.064 108.705 102.72 108.705C101.376 108.705 100.048 108.705 98.7361 108.705ZM93.8401 102.369C95.3761 102.369 96.6081 101.809 97.5361 100.689C98.4641 99.5691 98.9281 98.0971 98.9281 96.2731C98.9281 94.4491 98.4641 92.9931 97.5361 91.9051C96.6081 90.7851 95.3761 90.2251 93.8401 90.2251C92.2721 90.2251 91.0241 90.7691 90.0961 91.8571C89.2001 92.9451 88.7521 94.4171 88.7521 96.2731C88.7521 98.1291 89.2001 99.6171 90.0961 100.737C91.0241 101.825 92.2721 102.369 93.8401 102.369ZM128.736 108.705C128.736 108.449 128.736 108.209 128.736 107.985C128.736 107.729 128.736 107.489 128.736 107.265C127.936 107.937 127.024 108.449 126 108.801C125.008 109.185 123.936 109.377 122.784 109.377C121.152 109.377 119.616 109.057 118.176 108.417C116.736 107.777 115.456 106.881 114.336 105.729C113.248 104.545 112.384 103.153 111.744 101.553C111.136 99.9531 110.832 98.1931 110.832 96.2731C110.832 94.3211 111.136 92.5451 111.744 90.9451C112.384 89.3451 113.248 87.9691 114.336 86.8171C115.456 85.6651 116.736 84.7851 118.176 84.1771C119.616 83.5371 121.136 83.2171 122.736 83.2171C123.888 83.2171 124.976 83.4091 126 83.7931C127.024 84.1451 127.936 84.6411 128.736 85.2811C128.736 83.3611 128.736 81.4251 128.736 79.4731C128.736 77.5211 128.736 75.5851 128.736 73.6651C130.048 73.6651 131.376 73.6651 132.72 73.6651C134.064 73.6651 135.376 73.6651 136.656 73.6651C136.656 79.4571 136.656 85.2971 136.656 91.1851C136.656 97.0731 136.656 102.913 136.656 108.705C135.376 108.705 134.064 108.705 132.72 108.705C131.376 108.705 130.048 108.705 128.736 108.705ZM123.84 102.369C125.376 102.369 126.608 101.809 127.536 100.689C128.464 99.5691 128.928 98.0971 128.928 96.2731C128.928 94.4491 128.464 92.9931 127.536 91.9051C126.608 90.7851 125.376 90.2251 123.84 90.2251C122.272 90.2251 121.024 90.7691 120.096 91.8571C119.2 92.9451 118.752 94.4171 118.752 96.2731C118.752 98.1291 119.2 99.6171 120.096 100.737C121.024 101.825 122.272 102.369 123.84 102.369ZM163.536 107.553C161.328 108.481 159.136 109.057 156.96 109.281C154.784 109.505 152.72 109.377 150.768 108.897C148.848 108.449 147.136 107.665 145.632 106.545C144.128 105.425 142.944 104.001 142.08 102.273C141.248 100.545 140.832 98.5451 140.832 96.2731C140.832 94.3851 141.136 92.6571 141.744 91.0891C142.384 89.4891 143.28 88.0971 144.432 86.9131C145.584 85.6971 146.944 84.7691 148.512 84.1291C150.08 83.4571 151.792 83.1211 153.648 83.1211C155.312 83.1211 156.816 83.3931 158.16 83.9371C159.504 84.4811 160.672 85.2491 161.664 86.2411C162.656 87.2011 163.456 88.3531 164.064 89.6971C164.672 91.0411 165.056 92.5131 165.216 94.1131C165.376 95.7131 165.28 97.4091 164.928 99.2011C162.304 99.2011 159.664 99.2011 157.008 99.2011C154.352 99.2011 151.712 99.2011 149.088 99.2011C149.696 100.417 150.704 101.281 152.112 101.793C153.552 102.305 155.248 102.465 157.2 102.273C159.184 102.081 161.296 101.569 163.536 100.737C163.536 101.857 163.536 102.993 163.536 104.145C163.536 105.297 163.536 106.433 163.536 107.553ZM153.456 90.2251C152.528 90.2251 151.664 90.4811 150.864 90.9931C150.096 91.5051 149.504 92.2891 149.088 93.3451C150.528 93.3451 151.968 93.3451 153.408 93.3451C154.88 93.3451 156.336 93.3451 157.776 93.3451C157.392 92.2571 156.816 91.4731 156.048 90.9931C155.312 90.4811 154.448 90.2251 153.456 90.2251ZM169.411 108.705C169.411 104.609 169.411 100.481 169.411 96.3211C169.411 92.1291 169.411 87.9851 169.411 83.8891C170.723 83.8891 172.051 83.8891 173.395 83.8891C174.739 83.8891 176.051 83.8891 177.331 83.8891C177.331 84.1131 177.331 84.3371 177.331 84.5611C177.331 84.7851 177.331 85.0091 177.331 85.2331C178.323 84.5291 179.443 84.0011 180.691 83.6491C181.939 83.2971 183.299 83.2011 184.771 83.3611C184.771 84.6411 184.771 85.9371 184.771 87.2491C184.771 88.5611 184.771 89.8571 184.771 91.1371C182.243 90.7851 180.371 91.0091 179.155 91.8091C177.939 92.5771 177.331 93.8411 177.331 95.6011C177.331 97.7451 177.331 99.9211 177.331 102.129C177.331 104.337 177.331 106.529 177.331 108.705C176.051 108.705 174.739 108.705 173.395 108.705C172.051 108.705 170.723 108.705 169.411 108.705Z" fill="#FE9973"/>
</svg>
