<svg width="464" height="512" viewBox="0 0 464 512" fill="none" xmlns="http://www.w3.org/2000/svg">
<path d="M101.113 214.907L100.603 229.54C99.4477 262.73 98.8702 279.324 104.888 292.226C110.181 303.574 118.932 312.956 129.885 319.026C142.336 325.926 158.931 326.504 192.12 327.659L194.643 327.747L101.113 214.907Z" fill="#6CBDAA"/>
<path d="M193.891 319.988L194.401 305.355C195.556 272.165 196.134 255.571 190.116 242.669C184.823 231.321 176.072 221.939 165.119 215.869C152.668 208.969 136.073 208.391 102.884 207.236L100.361 207.148L193.891 319.988Z" fill="#036F62"/>
<path d="M221.491 92.0409L221.48 105.715C221.454 136.727 221.441 152.233 227.466 164.083C232.766 174.506 241.23 182.985 251.645 188.302C263.485 194.348 278.991 194.361 310.003 194.387L312.36 194.389L221.491 92.0409Z" fill="#6CBDAA"/>
<path d="M314.416 189.483L314.428 175.809C314.454 144.797 314.467 129.291 308.442 117.441C303.141 107.017 294.677 98.5392 284.263 93.2216C272.423 87.1763 256.917 87.1631 225.904 87.1371L223.547 87.1351L314.416 189.483Z" fill="#036F62"/>
<path d="M268.202 28.7482L268.384 35.8415C268.797 51.9292 269.003 59.9731 266.03 66.1981C263.414 71.6738 259.133 76.181 253.798 79.0736C247.734 82.3621 239.69 82.5686 223.602 82.9813L222.38 83.0126L268.202 28.7482Z" fill="#6CBDAA"/>
<path d="M221.211 78.7123L221.029 71.619C220.616 55.5313 220.41 47.4874 223.383 41.2624C225.999 35.7867 230.28 31.2795 235.615 28.3868C241.679 25.0983 249.723 24.8919 265.811 24.4792L267.034 24.4478L221.211 78.7123Z" fill="#036F62"/>
<path d="M218.87 457.019L218.941 447.003C219.103 424.286 219.184 412.928 223.667 404.283C227.61 396.679 233.859 390.518 241.519 386.683C250.227 382.324 261.585 382.405 284.302 382.567L286.028 382.579L218.87 457.019Z" fill="#6CBDAA"/>
<path d="M287.442 388.166L287.371 398.182C287.209 420.898 287.128 432.257 282.645 440.902C278.702 448.506 272.453 454.667 264.793 458.501C256.085 462.86 244.727 462.78 222.01 462.618L220.284 462.606L287.442 388.166Z" fill="#036F62"/>
</svg>
