<svg width="242" height="57" viewBox="0 0 242 57" fill="none" xmlns="http://www.w3.org/2000/svg">
<rect width="54.9404" height="22.6738" rx="11.3369" transform="matrix(-1 0 0 1 241.431 16.6807)" fill="white"/>
<rect width="197.49" height="56.0352" rx="11" transform="matrix(-1 0 0 1 197.49 0)" fill="white"/>
<path d="M44.1104 0H11.2585C5.18337 0 0.258492 4.92487 0.258492 11V45.0352C0.258492 51.1103 5.18336 56.0352 11.2585 56.0352H44.1104V0Z" fill="#F4E3D5"/>
<circle cx="5.2951" cy="5.2951" r="5.2951" transform="matrix(-1 0 0 1 235.652 22.7227)" fill="#FE9973"/>
<path d="M70.4687 42.3545C70.4687 37.8745 70.4687 33.3412 70.4687 28.7545C70.4687 24.1678 70.4687 19.6345 70.4687 15.1545C71.642 15.1545 72.8153 15.1545 73.9887 15.1545C75.162 15.1545 76.322 15.1545 77.4687 15.1545C77.4687 18.5945 77.4687 22.0745 77.4687 25.5945C77.4687 29.0878 77.4687 32.5545 77.4687 35.9945C78.882 35.9945 80.3087 35.9945 81.7487 35.9945C83.1887 35.9945 84.602 35.9945 85.9887 35.9945C85.9887 37.0345 85.9887 38.1012 85.9887 39.1945C85.9887 40.2612 85.9887 41.3145 85.9887 42.3545C83.4287 42.3545 80.842 42.3545 78.2287 42.3545C75.6153 42.3545 73.0287 42.3545 70.4687 42.3545ZM102.814 42.3545C102.814 42.1412 102.814 41.9412 102.814 41.7545C102.814 41.5412 102.814 41.3412 102.814 41.1545C102.147 41.7145 101.387 42.1412 100.534 42.4345C99.7073 42.7545 98.814 42.9145 97.854 42.9145C96.494 42.9145 95.214 42.6612 94.014 42.1545C92.814 41.6212 91.7473 40.8745 90.814 39.9145C89.9073 38.9278 89.1873 37.7678 88.654 36.4345C88.1473 35.1012 87.894 33.6212 87.894 31.9945C87.894 30.3412 88.1473 28.8478 88.654 27.5145C89.1873 26.1812 89.9073 25.0478 90.814 24.1145C91.7473 23.1545 92.814 22.4212 94.014 21.9145C95.214 21.3812 96.4806 21.1145 97.814 21.1145C98.774 21.1145 99.6806 21.2745 100.534 21.5945C101.387 21.8878 102.147 22.3012 102.814 22.8345C102.814 22.6212 102.814 22.4212 102.814 22.2345C102.814 22.0478 102.814 21.8612 102.814 21.6745C103.907 21.6745 105.014 21.6745 106.134 21.6745C107.254 21.6745 108.347 21.6745 109.414 21.6745C109.414 25.0878 109.414 28.5412 109.414 32.0345C109.414 35.5012 109.414 38.9412 109.414 42.3545C108.347 42.3545 107.254 42.3545 106.134 42.3545C105.014 42.3545 103.907 42.3545 102.814 42.3545ZM98.734 37.0745C100.014 37.0745 101.041 36.6078 101.814 35.6745C102.587 34.7412 102.974 33.5145 102.974 31.9945C102.974 30.4745 102.587 29.2612 101.814 28.3545C101.041 27.4212 100.014 26.9545 98.734 26.9545C97.4273 26.9545 96.3873 27.4078 95.614 28.3145C94.8673 29.2212 94.494 30.4478 94.494 31.9945C94.494 33.5412 94.8673 34.7812 95.614 35.7145C96.3873 36.6212 97.4273 37.0745 98.734 37.0745ZM120.619 42.3545C119.552 42.3545 118.459 42.3545 117.339 42.3545C116.219 42.3545 115.112 42.3545 114.019 42.3545C114.019 37.5278 114.019 32.6612 114.019 27.7545C114.019 22.8478 114.019 17.9812 114.019 13.1545C115.112 13.1545 116.219 13.1545 117.339 13.1545C118.459 13.1545 119.552 13.1545 120.619 13.1545C120.619 14.7545 120.619 16.3678 120.619 17.9945C120.619 19.6212 120.619 21.2345 120.619 22.8345C121.285 22.3012 122.045 21.8878 122.899 21.5945C123.752 21.2745 124.659 21.1145 125.619 21.1145C126.952 21.1145 128.219 21.3812 129.419 21.9145C130.619 22.4212 131.672 23.1545 132.579 24.1145C133.512 25.0745 134.232 26.2212 134.739 27.5545C135.272 28.8878 135.539 30.3678 135.539 31.9945C135.539 33.5945 135.272 35.0612 134.739 36.3945C134.232 37.7278 133.512 38.8878 132.579 39.8745C131.672 40.8345 130.619 41.5812 129.419 42.1145C128.219 42.6478 126.939 42.9145 125.579 42.9145C124.619 42.9145 123.712 42.7545 122.859 42.4345C122.032 42.1412 121.285 41.7145 120.619 41.1545C120.619 41.3412 120.619 41.5412 120.619 41.7545C120.619 41.9412 120.619 42.1412 120.619 42.3545ZM124.699 37.0745C126.005 37.0745 127.032 36.6212 127.779 35.7145C128.552 34.7812 128.939 33.5412 128.939 31.9945C128.939 30.4478 128.552 29.2212 127.779 28.3145C127.032 27.4078 126.005 26.9545 124.699 26.9545C123.419 26.9545 122.392 27.4212 121.619 28.3545C120.845 29.2612 120.459 30.4745 120.459 31.9945C120.459 33.5145 120.845 34.7412 121.619 35.6745C122.392 36.6078 123.419 37.0745 124.699 37.0745ZM156.619 41.3945C154.779 42.1678 152.952 42.6478 151.139 42.8345C149.325 43.0212 147.605 42.9145 145.979 42.5145C144.379 42.1412 142.952 41.4878 141.699 40.5545C140.445 39.6212 139.459 38.4345 138.739 36.9945C138.045 35.5545 137.699 33.8878 137.699 31.9945C137.699 30.4212 137.952 28.9812 138.459 27.6745C138.992 26.3412 139.739 25.1812 140.699 24.1945C141.659 23.1812 142.792 22.4078 144.099 21.8745C145.405 21.3145 146.832 21.0345 148.379 21.0345C149.765 21.0345 151.019 21.2612 152.139 21.7145C153.259 22.1678 154.232 22.8078 155.059 23.6345C155.885 24.4345 156.552 25.3945 157.059 26.5145C157.565 27.6345 157.885 28.8612 158.019 30.1945C158.152 31.5278 158.072 32.9412 157.779 34.4345C155.592 34.4345 153.392 34.4345 151.179 34.4345C148.965 34.4345 146.765 34.4345 144.579 34.4345C145.085 35.4478 145.925 36.1678 147.099 36.5945C148.299 37.0212 149.712 37.1545 151.339 36.9945C152.992 36.8345 154.752 36.4078 156.619 35.7145C156.619 36.6478 156.619 37.5945 156.619 38.5545C156.619 39.5145 156.619 40.4612 156.619 41.3945ZM148.219 26.9545C147.445 26.9545 146.725 27.1678 146.059 27.5945C145.419 28.0212 144.925 28.6745 144.579 29.5545C145.779 29.5545 146.979 29.5545 148.179 29.5545C149.405 29.5545 150.619 29.5545 151.819 29.5545C151.499 28.6478 151.019 27.9945 150.379 27.5945C149.765 27.1678 149.045 26.9545 148.219 26.9545ZM161.714 42.3545C161.714 37.5278 161.714 32.6612 161.714 27.7545C161.714 22.8478 161.714 17.9812 161.714 13.1545C162.807 13.1545 163.914 13.1545 165.034 13.1545C166.154 13.1545 167.247 13.1545 168.314 13.1545C168.314 17.9812 168.314 22.8478 168.314 27.7545C168.314 32.6612 168.314 37.5278 168.314 42.3545C167.247 42.3545 166.154 42.3545 165.034 42.3545C163.914 42.3545 162.807 42.3545 161.714 42.3545Z" fill="#FE9973"/>
</svg>
