<svg width="303" height="650" viewBox="0 0 303 650" fill="none" xmlns="http://www.w3.org/2000/svg">
<path d="M157.293 146.827L154.11 596.576C153.654 660.99 72.6627 662.258 73.1316 596.003L73.4507 550.913" stroke="#036F62" stroke-width="4"/>
<path d="M12.7223 532.307L12.7275 646.237" stroke="#036F62" stroke-width="4"/>
<path d="M300.095 5.31622L299.052 151.636" stroke="#036F62" stroke-width="4"/>
<path d="M298.877 148.418L298.714 171.453C298.259 235.867 217.267 237.135 217.736 170.88L218.055 125.79" stroke="#036F62" stroke-width="4"/>
<path d="M2.42622 557.179L2.58924 534.144C3.0451 469.73 84.0365 468.462 83.5676 534.717L83.2485 579.807" stroke="#6CBDAA" stroke-width="4"/>
<path d="M147.049 146.753L143.846 599.263C143.527 644.353 86.4165 652.231 83.1125 598.834L83.4511 550.982" stroke="#6CBDAA" stroke-width="4"/>
<path d="M2.84779 528.487L2 647.497" stroke="#6CBDAA" stroke-width="4"/>
<path d="M289.704 2.00507L288.603 156.562" stroke="#6CBDAA" stroke-width="4"/>
<path d="M147.031 149.194L147.194 126.16C147.65 61.7453 228.641 60.4777 228.172 126.733L227.853 171.823" stroke="#6CBDAA" stroke-width="4"/>
<path d="M288.754 148.646L288.573 174.145C288.254 219.235 231.144 227.113 227.839 173.716L228.178 125.865" stroke="#6CBDAA" stroke-width="4"/>
<path d="M12.672 556.955L12.8525 531.455C13.1717 486.366 70.2822 478.488 73.5863 531.884L73.2476 579.736" stroke="#036F62" stroke-width="4"/>
<path d="M157.155 148.967L157.336 123.468C157.655 78.3783 214.766 70.5003 218.07 123.897L217.731 171.749" stroke="#036F62" stroke-width="4"/>
</svg>
