<svg width="482" height="565" viewBox="0 0 482 565" fill="none" xmlns="http://www.w3.org/2000/svg">
<ellipse cx="11.2222" cy="11.2222" rx="11.2222" ry="11.2222" transform="matrix(-0.999993 -0.0036582 -0.00365937 0.999993 322.259 372.069)" fill="#6CBDAA"/>
<ellipse cx="11.2222" cy="11.2222" rx="11.2222" ry="11.2222" transform="matrix(-0.999993 -0.00365814 0.00365943 -0.999993 322.09 417.114)" fill="#6CBDAA"/>
<path d="M251.83 394.253C264.339 394.299 251.946 394.253 264.339 394.299C276.732 394.344 263.172 394.294 274.27 394.335C274.315 381.942 274.318 381.258 274.352 371.895C261.959 371.849 251.875 381.859 251.83 394.253Z" fill="#6CBDAA"/>
<path d="M251.827 394.334C264.337 394.379 251.943 394.334 264.337 394.379C276.73 394.425 263.17 394.375 274.268 394.416C274.222 406.809 274.22 407.493 274.186 416.856C261.792 416.811 251.782 406.727 251.827 394.334Z" fill="#6CBDAA"/>
<rect width="38.3573" height="22.4405" transform="matrix(-0.999993 -0.0036582 -0.00365937 0.999993 312.015 372.037)" fill="#6CBDAA"/>
<rect width="38.3573" height="22.4405" transform="matrix(-0.999993 -0.0036582 0.00365937 -0.999993 311.85 417.072)" fill="#6CBDAA"/>
<path d="M251.83 394.334C264.339 394.38 251.946 394.335 264.34 394.38C276.733 394.426 263.173 394.376 274.27 394.417C274.316 382.023 274.318 381.339 274.353 371.976C261.959 371.931 251.875 381.941 251.83 394.334Z" fill="#036F62"/>
<path d="M251.827 394.334C264.337 394.379 251.943 394.334 264.337 394.379C276.73 394.425 263.17 394.375 274.268 394.416C274.222 406.809 274.22 407.493 274.186 416.856C261.792 416.811 251.782 406.727 251.827 394.334Z" fill="#036F62"/>
<path d="M305.42 372.012C292.911 371.966 305.304 372.012 292.911 371.966C280.518 371.921 294.078 371.971 282.98 371.93C282.935 384.323 282.932 385.007 282.898 394.37C295.291 394.416 305.375 384.405 305.42 372.012Z" fill="#036F62"/>
<path d="M305.255 417.048C292.746 417.002 305.139 417.048 292.746 417.002C280.352 416.957 293.913 417.006 282.815 416.966C282.86 404.572 282.863 403.888 282.897 394.526C295.29 394.571 305.301 404.655 305.255 417.048Z" fill="#036F62"/>
<rect width="8.62853" height="22.4405" transform="matrix(-0.999993 -0.00365825 -0.00365932 0.999993 282.98 371.928)" fill="#036F62"/>
<rect width="8.62853" height="22.4405" transform="matrix(-0.999993 -0.00365814 0.00365943 -0.999993 282.814 416.966)" fill="#036F62"/>
<path d="M274.776 394.66L318.819 395.126" stroke="#FE9973" stroke-width="3"/>
<ellipse cx="11.2222" cy="11.2222" rx="11.2222" ry="11.2222" transform="matrix(0.999993 0.00365814 0.00365943 -0.999993 159.534 192.849)" fill="#6CBDAA"/>
<ellipse cx="11.2222" cy="11.2222" rx="11.2222" ry="11.2222" transform="matrix(0.999993 0.00365814 -0.00365943 0.999993 159.699 147.804)" fill="#6CBDAA"/>
<path d="M229.961 170.665C217.452 170.619 229.845 170.664 217.452 170.619C205.059 170.574 218.619 170.623 207.521 170.583C207.476 182.976 207.473 183.66 207.439 193.023C219.832 193.068 229.916 183.058 229.961 170.665Z" fill="#6CBDAA"/>
<path d="M229.962 170.582C217.453 170.536 229.846 170.582 217.453 170.536C205.059 170.491 218.62 170.541 207.522 170.5C207.567 158.107 207.57 157.423 207.604 148.06C219.997 148.105 230.008 158.189 229.962 170.582Z" fill="#6CBDAA"/>
<rect width="38.3573" height="22.4405" transform="matrix(0.999993 0.00365814 0.00365943 -0.999993 169.774 192.883)" fill="#6CBDAA"/>
<rect width="38.3573" height="22.4405" transform="matrix(0.999993 0.00365825 -0.00365932 0.999993 169.944 147.844)" fill="#6CBDAA"/>
<path d="M229.961 170.582C217.452 170.537 229.845 170.582 217.452 170.537C205.058 170.491 218.618 170.541 207.521 170.5C207.475 182.894 207.473 183.578 207.438 192.941C219.832 192.986 229.916 182.976 229.961 170.582Z" fill="#036F62"/>
<path d="M229.962 170.582C217.453 170.536 229.846 170.582 217.453 170.536C205.059 170.491 218.62 170.541 207.522 170.5C207.567 158.107 207.57 157.423 207.604 148.06C219.997 148.105 230.008 158.189 229.962 170.582Z" fill="#036F62"/>
<path d="M176.373 192.904C188.882 192.95 176.489 192.905 188.882 192.95C201.276 192.995 187.716 192.946 198.813 192.986C198.859 180.593 198.861 179.909 198.896 170.546C186.502 170.501 176.418 180.511 176.373 192.904Z" fill="#036F62"/>
<path d="M176.538 147.868C189.048 147.914 176.654 147.869 189.048 147.914C201.441 147.959 187.881 147.91 198.979 147.95C198.933 160.344 198.931 161.028 198.896 170.391C186.503 170.345 176.493 160.262 176.538 147.868Z" fill="#036F62"/>
<rect width="8.62853" height="22.4405" transform="matrix(0.999993 0.00365825 0.00365932 -0.999993 198.812 192.989)" fill="#036F62"/>
<rect width="8.62853" height="22.4405" transform="matrix(0.999993 0.0036582 -0.00365937 0.999993 198.976 147.952)" fill="#036F62"/>
<path d="M207.016 170.255L162.973 169.788" stroke="#FE9973" stroke-width="3"/>
<path d="M363.334 429.729C372.705 420.015 360.086 433.096 371.203 421.571C382.321 410.047 379.533 412.937 379.533 412.937C379.533 412.937 401.761 434.38 410.978 443.271C399.861 454.796 380.701 446.482 363.334 429.729Z" fill="#FBF6F2"/>
<path d="M397.891 393.094C388.52 402.808 400.746 390.135 389.628 401.659C378.511 413.183 381.299 410.293 381.299 410.293C381.299 410.293 403.527 431.737 412.744 440.628C423.862 429.103 415.258 409.847 397.891 393.094Z" fill="#CDD993"/>
<path d="M397.959 391.347C388.245 381.976 401.326 394.595 389.802 383.478C378.277 372.361 381.167 375.148 381.167 375.148C381.167 375.148 402.612 352.919 411.504 343.701C423.028 354.819 414.713 373.979 397.959 391.347Z" fill="#FBF6F2"/>
<path d="M361.39 355.839C371.104 365.21 358.431 352.984 369.955 364.101C381.48 375.219 378.59 372.431 378.59 372.431C378.59 372.431 400.034 350.201 408.926 340.983C397.402 329.866 378.145 338.471 361.39 355.839Z" fill="#CDD993"/>
<path d="M324.182 395.157C333.896 404.528 320.815 391.909 332.339 403.026C343.863 414.144 340.974 411.356 340.974 411.356C340.974 411.356 319.53 433.584 310.639 442.801C299.115 431.684 307.428 412.524 324.182 395.157Z" fill="#FBF6F2"/>
<path d="M360.753 430.664C351.039 421.293 363.713 433.519 352.188 422.401C340.664 411.284 343.554 414.072 343.554 414.072C343.554 414.072 322.111 436.301 313.219 445.517C324.744 456.635 344 448.031 360.753 430.664Z" fill="#CDD993"/>
<path d="M358.06 392.421L343.166 407.859L328.159 393.383L343.053 377.944L358.06 392.421Z" fill="#CDD993"/>
<path d="M376.783 410.538L361.685 426.189L345.862 410.924L360.96 395.274L376.783 410.538Z" fill="#FBF6F2"/>
<path d="M375.287 374.562L360.535 389.854L345.199 375.06L359.951 359.768L375.287 374.562Z" fill="#FBF6F2"/>
<path d="M393.354 392.143L378.602 407.435L363.426 392.796L378.178 377.503L393.354 392.143Z" fill="#CDD993"/>
<path d="M358.777 356.802C349.406 366.516 362.025 353.435 350.908 364.96C339.791 376.484 342.578 373.594 342.578 373.594C342.578 373.594 320.35 352.151 311.133 343.26C322.251 331.735 341.411 340.049 358.777 356.802Z" fill="#FBF6F2"/>
<path d="M324.219 393.436C333.59 383.722 321.364 396.395 332.481 384.871C343.599 373.347 340.811 376.237 340.811 376.237C340.811 376.237 318.582 354.793 309.366 345.902C298.248 357.427 306.852 376.683 324.219 393.436Z" fill="#CDD993"/>
<path d="M118.455 135.192C109.084 144.906 121.702 131.826 110.585 143.35C99.4679 154.874 102.256 151.984 102.256 151.984C102.256 151.984 80.0272 130.541 70.8106 121.65C81.9279 110.125 101.088 118.439 118.455 135.192Z" fill="#FBF6F2"/>
<path d="M83.8977 171.827C93.2686 162.113 81.0429 174.786 92.1602 163.262C103.277 151.738 100.49 154.628 100.49 154.628C100.49 154.628 78.2611 133.184 69.0443 124.293C57.9271 135.818 66.531 155.074 83.8977 171.827Z" fill="#CDD993"/>
<path d="M83.8261 173.57C93.54 182.94 80.4593 170.322 91.9836 181.439C103.508 192.556 100.618 189.768 100.618 189.768C100.618 189.768 79.1733 211.998 70.2815 221.215C58.7572 210.098 67.0718 190.937 83.8261 173.57Z" fill="#FBF6F2"/>
<path d="M120.397 209.076C110.683 199.705 123.357 211.931 111.832 200.814C100.308 189.696 103.198 192.484 103.198 192.484C103.198 192.484 81.7532 214.714 72.8616 223.931C84.3859 235.049 103.643 226.444 120.397 209.076Z" fill="#CDD993"/>
<path d="M157.611 169.761C147.897 160.39 160.978 173.009 149.454 161.892C137.93 150.775 140.819 153.563 140.819 153.563C140.819 153.563 162.263 131.334 171.154 122.117C182.678 133.235 174.365 152.395 157.611 169.761Z" fill="#FBF6F2"/>
<path d="M121.04 134.253C130.754 143.624 118.081 131.398 129.605 142.515C141.129 153.633 138.24 150.845 138.24 150.845C138.24 150.845 159.683 128.616 168.574 119.399C157.05 108.282 137.793 116.886 121.04 134.253Z" fill="#CDD993"/>
<path d="M123.727 172.496L138.62 157.057L153.627 171.534L138.733 186.973L123.727 172.496Z" fill="#CDD993"/>
<path d="M105.005 154.381L120.103 138.73L135.926 153.994L120.829 169.645L105.005 154.381Z" fill="#FBF6F2"/>
<path d="M106.502 190.354L121.255 175.062L136.591 189.857L121.839 205.149L106.502 190.354Z" fill="#FBF6F2"/>
<path d="M88.4355 172.774L103.188 157.482L118.363 172.121L103.611 187.414L88.4355 172.774Z" fill="#CDD993"/>
<path d="M123.012 208.119C132.383 198.405 119.764 211.486 130.881 199.961C141.998 188.437 139.211 191.327 139.211 191.327C139.211 191.327 161.439 212.77 170.656 221.662C159.538 233.186 140.378 224.872 123.012 208.119Z" fill="#FBF6F2"/>
<path d="M157.57 171.482C148.199 181.196 160.425 168.523 149.308 180.047C138.19 191.572 140.978 188.682 140.978 188.682C140.978 188.682 163.207 210.125 172.423 219.016C183.541 207.492 174.937 188.236 157.57 171.482Z" fill="#CDD993"/>
</svg>
