<svg width="1156" height="642" viewBox="0 0 1156 642" fill="none" xmlns="http://www.w3.org/2000/svg">
<rect x="2" y="639.844" width="637.844" height="1151.32" rx="39" transform="rotate(-90 2 639.844)" fill="#FBF6F2" stroke="#404040" stroke-width="4"/>
<path d="M651.719 117.247C653.937 110.079 656.156 102.826 658.375 95.4873C660.636 88.1486 662.876 80.8953 665.095 73.7273C667.612 73.7273 670.151 73.7273 672.711 73.7273C675.313 73.7273 677.873 73.7273 680.391 73.7273C682.609 80.8953 684.828 88.1486 687.047 95.4873C689.308 102.826 691.548 110.079 693.767 117.247C691.932 117.247 690.055 117.247 688.135 117.247C686.257 117.247 684.38 117.247 682.503 117.247C682.076 115.882 681.671 114.517 681.287 113.151C680.903 111.743 680.497 110.357 680.071 108.991C677.639 108.991 675.185 108.991 672.711 108.991C670.279 108.991 667.847 108.991 665.415 108.991C664.988 110.357 664.583 111.743 664.199 113.151C663.815 114.517 663.409 115.882 662.983 117.247C661.148 117.247 659.271 117.247 657.351 117.247C655.473 117.247 653.596 117.247 651.719 117.247ZM668.231 99.4553C669.724 99.4553 671.217 99.4553 672.711 99.4553C674.247 99.4553 675.761 99.4553 677.255 99.4553C676.529 96.938 675.783 94.3993 675.015 91.8393C674.247 89.2793 673.5 86.7406 672.775 84.2233C672.049 86.7406 671.281 89.2793 670.471 91.8393C669.703 94.3993 668.956 96.938 668.231 99.4553ZM719.381 117.247C719.381 116.906 719.381 116.586 719.381 116.287C719.381 115.946 719.381 115.626 719.381 115.327C718.315 116.223 717.099 116.906 715.733 117.375C714.411 117.887 712.981 118.143 711.445 118.143C709.269 118.143 707.221 117.717 705.301 116.863C703.381 116.01 701.675 114.815 700.181 113.279C698.731 111.701 697.579 109.845 696.725 107.711C695.915 105.578 695.509 103.231 695.509 100.671C695.509 98.0686 695.915 95.7006 696.725 93.5673C697.579 91.434 698.731 89.5993 700.181 88.0633C701.675 86.5273 703.381 85.354 705.301 84.5433C707.221 83.69 709.248 83.2633 711.381 83.2633C712.917 83.2633 714.368 83.5193 715.733 84.0313C717.099 84.5006 718.315 85.162 719.381 86.0153C719.381 83.4553 719.381 80.874 719.381 78.2713C719.381 75.6686 719.381 73.0873 719.381 70.5273C721.131 70.5273 722.901 70.5273 724.693 70.5273C726.485 70.5273 728.235 70.5273 729.941 70.5273C729.941 78.25 729.941 86.0366 729.941 93.8873C729.941 101.738 729.941 109.525 729.941 117.247C728.235 117.247 726.485 117.247 724.693 117.247C722.901 117.247 721.131 117.247 719.381 117.247ZM712.853 108.799C714.901 108.799 716.544 108.053 717.781 106.559C719.019 105.066 719.637 103.103 719.637 100.671C719.637 98.2393 719.019 96.298 717.781 94.8473C716.544 93.354 714.901 92.6073 712.853 92.6073C710.763 92.6073 709.099 93.3326 707.861 94.7833C706.667 96.234 706.069 98.1966 706.069 100.671C706.069 103.146 706.667 105.13 707.861 106.623C709.099 108.074 710.763 108.799 712.853 108.799ZM759.381 117.247C759.381 116.906 759.381 116.586 759.381 116.287C759.381 115.946 759.381 115.626 759.381 115.327C758.315 116.223 757.099 116.906 755.733 117.375C754.411 117.887 752.981 118.143 751.445 118.143C749.269 118.143 747.221 117.717 745.301 116.863C743.381 116.01 741.675 114.815 740.181 113.279C738.731 111.701 737.579 109.845 736.725 107.711C735.915 105.578 735.509 103.231 735.509 100.671C735.509 98.0686 735.915 95.7006 736.725 93.5673C737.579 91.434 738.731 89.5993 740.181 88.0633C741.675 86.5273 743.381 85.354 745.301 84.5433C747.221 83.69 749.248 83.2633 751.381 83.2633C752.917 83.2633 754.368 83.5193 755.733 84.0313C757.099 84.5006 758.315 85.162 759.381 86.0153C759.381 83.4553 759.381 80.874 759.381 78.2713C759.381 75.6686 759.381 73.0873 759.381 70.5273C761.131 70.5273 762.901 70.5273 764.693 70.5273C766.485 70.5273 768.235 70.5273 769.941 70.5273C769.941 78.25 769.941 86.0366 769.941 93.8873C769.941 101.738 769.941 109.525 769.941 117.247C768.235 117.247 766.485 117.247 764.693 117.247C762.901 117.247 761.131 117.247 759.381 117.247ZM752.853 108.799C754.901 108.799 756.544 108.053 757.781 106.559C759.019 105.066 759.637 103.103 759.637 100.671C759.637 98.2393 759.019 96.298 757.781 94.8473C756.544 93.354 754.901 92.6073 752.853 92.6073C750.763 92.6073 749.099 93.3326 747.861 94.7833C746.667 96.234 746.069 98.1966 746.069 100.671C746.069 103.146 746.667 105.13 747.861 106.623C749.099 108.074 750.763 108.799 752.853 108.799ZM782.933 80.3833C781.696 80.3833 780.565 80.0846 779.541 79.4873C778.56 78.89 777.771 78.1006 777.173 77.1193C776.576 76.138 776.277 75.05 776.277 73.8553C776.277 72.6606 776.576 71.594 777.173 70.6553C777.771 69.674 778.56 68.8846 779.541 68.2873C780.565 67.69 781.696 67.3913 782.933 67.3913C784.128 67.3913 785.216 67.69 786.197 68.2873C787.221 68.8846 788.032 69.674 788.629 70.6553C789.227 71.594 789.525 72.6606 789.525 73.8553C789.525 75.05 789.227 76.138 788.629 77.1193C788.032 78.1006 787.221 78.89 786.197 79.4873C785.216 80.0846 784.128 80.3833 782.933 80.3833ZM777.621 117.247C777.621 111.786 777.621 106.282 777.621 100.735C777.621 95.146 777.621 89.6206 777.621 84.1593C779.371 84.1593 781.141 84.1593 782.933 84.1593C784.725 84.1593 786.475 84.1593 788.181 84.1593C788.181 89.6206 788.181 95.146 788.181 100.735C788.181 106.282 788.181 111.786 788.181 117.247C786.475 117.247 784.725 117.247 782.933 117.247C781.141 117.247 779.371 117.247 777.621 117.247ZM793.759 100.671C793.759 97.4286 794.421 94.5913 795.743 92.1593C797.066 89.6846 798.901 87.7006 801.247 86.2073C803.594 84.714 806.325 83.818 809.439 83.5193C812.554 83.178 815.882 83.5406 819.423 84.6073C819.423 86.2286 819.423 87.8713 819.423 89.5353C819.423 91.1993 819.423 92.842 819.423 94.4633C816.949 93.2686 814.581 92.714 812.319 92.7993C810.058 92.8846 808.202 93.5886 806.751 94.9113C805.301 96.1913 804.575 98.1113 804.575 100.671C804.575 103.231 805.301 105.173 806.751 106.495C808.202 107.775 810.058 108.458 812.319 108.543C814.581 108.586 816.949 108.031 819.423 106.879C819.423 108.501 819.423 110.143 819.423 111.807C819.423 113.471 819.423 115.114 819.423 116.735C815.882 117.802 812.554 118.165 809.439 117.823C806.325 117.525 803.594 116.629 801.247 115.135C798.901 113.642 797.066 111.679 795.743 109.247C794.421 106.773 793.759 103.914 793.759 100.671ZM829.445 117.247C829.445 113.322 829.445 109.375 829.445 105.407C829.445 101.439 829.445 97.514 829.445 93.6313C828.591 93.6313 827.717 93.6313 826.821 93.6313C825.967 93.6313 825.114 93.6313 824.261 93.6313C824.261 92.0526 824.261 90.474 824.261 88.8953C824.261 87.3166 824.261 85.738 824.261 84.1593C825.114 84.1593 825.967 84.1593 826.821 84.1593C827.717 84.1593 828.591 84.1593 829.445 84.1593C829.445 82.666 829.445 81.194 829.445 79.7433C829.445 78.25 829.445 76.778 829.445 75.3273C831.194 75.3273 832.965 75.3273 834.757 75.3273C836.549 75.3273 838.298 75.3273 840.005 75.3273C840.005 76.778 840.005 78.25 840.005 79.7433C840.005 81.194 840.005 82.666 840.005 84.1593C840.986 84.1593 841.989 84.1593 843.013 84.1593C844.037 84.1593 845.039 84.1593 846.021 84.1593C846.021 85.738 846.021 87.3166 846.021 88.8953C846.021 90.474 846.021 92.0526 846.021 93.6313C845.039 93.6313 844.037 93.6313 843.013 93.6313C841.989 93.6313 840.986 93.6313 840.005 93.6313C840.005 97.514 840.005 101.439 840.005 105.407C840.005 109.375 840.005 113.322 840.005 117.247C838.298 117.247 836.549 117.247 834.757 117.247C832.965 117.247 831.194 117.247 829.445 117.247ZM856.746 80.3833C855.508 80.3833 854.378 80.0846 853.354 79.4873C852.372 78.89 851.583 78.1006 850.986 77.1193C850.388 76.138 850.09 75.05 850.09 73.8553C850.09 72.6606 850.388 71.594 850.986 70.6553C851.583 69.674 852.372 68.8846 853.354 68.2873C854.378 67.69 855.508 67.3913 856.746 67.3913C857.94 67.3913 859.028 67.69 860.01 68.2873C861.034 68.8846 861.844 69.674 862.442 70.6553C863.039 71.594 863.338 72.6606 863.338 73.8553C863.338 75.05 863.039 76.138 862.442 77.1193C861.844 78.1006 861.034 78.89 860.01 79.4873C859.028 80.0846 857.94 80.3833 856.746 80.3833ZM851.434 117.247C851.434 111.786 851.434 106.282 851.434 100.735C851.434 95.146 851.434 89.6206 851.434 84.1593C853.183 84.1593 854.954 84.1593 856.746 84.1593C858.538 84.1593 860.287 84.1593 861.994 84.1593C861.994 89.6206 861.994 95.146 861.994 100.735C861.994 106.282 861.994 111.786 861.994 117.247C860.287 117.247 858.538 117.247 856.746 117.247C854.954 117.247 853.183 117.247 851.434 117.247ZM876.98 117.247C875.102 111.786 873.182 106.282 871.22 100.735C869.3 95.146 867.401 89.6206 865.524 84.1593C867.358 84.1593 869.193 84.1593 871.028 84.1593C872.905 84.1593 874.761 84.1593 876.596 84.1593C877.705 87.53 878.814 90.922 879.924 94.3353C881.076 97.706 882.185 101.077 883.252 104.447C884.361 101.077 885.47 97.706 886.58 94.3353C887.689 90.922 888.777 87.53 889.844 84.1593C891.636 84.1593 893.449 84.1593 895.284 84.1593C897.118 84.1593 898.932 84.1593 900.724 84.1593C898.846 89.6206 896.926 95.146 894.964 100.735C893.044 106.282 891.145 111.786 889.268 117.247C887.262 117.247 885.214 117.247 883.124 117.247C881.033 117.247 878.985 117.247 876.98 117.247ZM931.781 115.711C928.837 116.949 925.915 117.717 923.013 118.015C920.112 118.314 917.36 118.143 914.757 117.503C912.197 116.906 909.915 115.861 907.909 114.367C905.904 112.874 904.325 110.975 903.173 108.671C902.064 106.367 901.509 103.701 901.509 100.671C901.509 98.154 901.915 95.85 902.725 93.7593C903.579 91.626 904.773 89.77 906.309 88.1913C907.845 86.57 909.659 85.3326 911.749 84.4793C913.84 83.5833 916.123 83.1353 918.597 83.1353C920.816 83.1353 922.821 83.498 924.613 84.2233C926.405 84.9486 927.963 85.9726 929.285 87.2953C930.608 88.5753 931.675 90.1113 932.485 91.9033C933.296 93.6953 933.808 95.658 934.021 97.7913C934.235 99.9246 934.107 102.186 933.637 104.575C930.139 104.575 926.619 104.575 923.077 104.575C919.536 104.575 916.016 104.575 912.517 104.575C913.328 106.197 914.672 107.349 916.549 108.031C918.469 108.714 920.731 108.927 923.333 108.671C925.979 108.415 928.795 107.733 931.781 106.623C931.781 108.117 931.781 109.631 931.781 111.167C931.781 112.703 931.781 114.218 931.781 115.711ZM918.341 92.6073C917.104 92.6073 915.952 92.9486 914.885 93.6313C913.861 94.314 913.072 95.3593 912.517 96.7673C914.437 96.7673 916.357 96.7673 918.277 96.7673C920.24 96.7673 922.181 96.7673 924.101 96.7673C923.589 95.3166 922.821 94.2713 921.797 93.6313C920.816 92.9486 919.664 92.6073 918.341 92.6073ZM677.319 187.247C677.319 186.906 677.319 186.586 677.319 186.287C677.319 185.946 677.319 185.626 677.319 185.327C676.252 186.223 675.036 186.906 673.671 187.375C672.348 187.887 670.919 188.143 669.383 188.143C667.207 188.143 665.159 187.717 663.239 186.863C661.319 186.01 659.612 184.815 658.119 183.279C656.668 181.701 655.516 179.845 654.663 177.711C653.852 175.578 653.447 173.231 653.447 170.671C653.447 168.069 653.852 165.701 654.663 163.567C655.516 161.434 656.668 159.599 658.119 158.063C659.612 156.527 661.319 155.354 663.239 154.543C665.159 153.69 667.185 153.263 669.319 153.263C670.855 153.263 672.305 153.519 673.671 154.031C675.036 154.501 676.252 155.162 677.319 156.015C677.319 153.455 677.319 150.874 677.319 148.271C677.319 145.669 677.319 143.087 677.319 140.527C679.068 140.527 680.839 140.527 682.631 140.527C684.423 140.527 686.172 140.527 687.879 140.527C687.879 148.25 687.879 156.037 687.879 163.887C687.879 171.738 687.879 179.525 687.879 187.247C686.172 187.247 684.423 187.247 682.631 187.247C680.839 187.247 679.068 187.247 677.319 187.247ZM670.791 178.799C672.839 178.799 674.481 178.053 675.719 176.559C676.956 175.066 677.575 173.103 677.575 170.671C677.575 168.239 676.956 166.298 675.719 164.847C674.481 163.354 672.839 162.607 670.791 162.607C668.7 162.607 667.036 163.333 665.799 164.783C664.604 166.234 664.007 168.197 664.007 170.671C664.007 173.146 664.604 175.13 665.799 176.623C667.036 178.074 668.7 178.799 670.791 178.799ZM717.319 187.247C717.319 186.906 717.319 186.586 717.319 186.287C717.319 185.946 717.319 185.626 717.319 185.327C716.252 186.223 715.036 186.906 713.671 187.375C712.348 187.887 710.919 188.143 709.383 188.143C707.207 188.143 705.159 187.738 703.239 186.927C701.319 186.074 699.612 184.879 698.119 183.343C696.668 181.765 695.516 179.909 694.663 177.775C693.852 175.642 693.447 173.274 693.447 170.671C693.447 168.026 693.852 165.637 694.663 163.503C695.516 161.37 696.668 159.557 698.119 158.063C699.612 156.527 701.319 155.354 703.239 154.543C705.159 153.69 707.185 153.263 709.319 153.263C710.855 153.263 712.305 153.519 713.671 154.031C715.036 154.501 716.252 155.162 717.319 156.015C717.319 155.674 717.319 155.354 717.319 155.055C717.319 154.757 717.319 154.458 717.319 154.159C719.068 154.159 720.839 154.159 722.631 154.159C724.423 154.159 726.172 154.159 727.879 154.159C727.879 159.621 727.879 165.146 727.879 170.735C727.879 176.282 727.879 181.786 727.879 187.247C726.172 187.247 724.423 187.247 722.631 187.247C720.839 187.247 719.068 187.247 717.319 187.247ZM710.791 178.799C712.839 178.799 714.481 178.053 715.719 176.559C716.956 175.066 717.575 173.103 717.575 170.671C717.575 168.239 716.956 166.298 715.719 164.847C714.481 163.354 712.839 162.607 710.791 162.607C708.7 162.607 707.036 163.333 705.799 164.783C704.604 166.234 704.007 168.197 704.007 170.671C704.007 173.146 704.604 175.13 705.799 176.623C707.036 178.074 708.7 178.799 710.791 178.799ZM734.926 187.247C734.926 181.786 734.926 176.282 734.926 170.735C734.926 165.146 734.926 159.621 734.926 154.159C736.676 154.159 738.446 154.159 740.238 154.159C742.03 154.159 743.78 154.159 745.486 154.159C745.486 154.458 745.486 154.735 745.486 154.991C745.486 155.247 745.486 155.525 745.486 155.823C746.638 155.013 747.918 154.394 749.326 153.967C750.777 153.498 752.334 153.263 753.998 153.263C756.43 153.263 758.564 153.818 760.398 154.927C762.276 156.037 763.726 157.637 764.75 159.727C765.817 161.775 766.35 164.25 766.35 167.151C766.35 170.479 766.35 173.829 766.35 177.199C766.35 180.57 766.35 183.919 766.35 187.247C764.644 187.247 762.894 187.247 761.102 187.247C759.31 187.247 757.54 187.247 755.79 187.247C755.79 184.175 755.79 181.061 755.79 177.903C755.79 174.746 755.79 171.631 755.79 168.559C755.79 166.853 755.385 165.487 754.574 164.463C753.806 163.397 752.569 162.863 750.862 162.863C749.156 162.863 747.833 163.354 746.894 164.335C745.956 165.317 745.486 166.725 745.486 168.559C745.486 171.631 745.486 174.746 745.486 177.903C745.486 181.061 745.486 184.175 745.486 187.247C743.78 187.247 742.03 187.247 740.238 187.247C738.446 187.247 736.676 187.247 734.926 187.247ZM771.072 170.671C771.072 167.429 771.733 164.591 773.056 162.159C774.378 159.685 776.213 157.701 778.56 156.207C780.906 154.714 783.637 153.818 786.752 153.519C789.866 153.178 793.194 153.541 796.736 154.607C796.736 156.229 796.736 157.871 796.736 159.535C796.736 161.199 796.736 162.842 796.736 164.463C794.261 163.269 791.893 162.714 789.632 162.799C787.37 162.885 785.514 163.589 784.064 164.911C782.613 166.191 781.888 168.111 781.888 170.671C781.888 173.231 782.613 175.173 784.064 176.495C785.514 177.775 787.37 178.458 789.632 178.543C791.893 178.586 794.261 178.031 796.736 176.879C796.736 178.501 796.736 180.143 796.736 181.807C796.736 183.471 796.736 185.114 796.736 186.735C793.194 187.802 789.866 188.165 786.752 187.823C783.637 187.525 780.906 186.629 778.56 185.135C776.213 183.642 774.378 181.679 773.056 179.247C771.733 176.773 771.072 173.914 771.072 170.671ZM831.469 185.711C828.525 186.949 825.602 187.717 822.701 188.015C819.799 188.314 817.047 188.143 814.445 187.503C811.885 186.906 809.602 185.861 807.597 184.367C805.591 182.874 804.013 180.975 802.861 178.671C801.751 176.367 801.197 173.701 801.197 170.671C801.197 168.154 801.602 165.85 802.413 163.759C803.266 161.626 804.461 159.77 805.997 158.191C807.533 156.57 809.346 155.333 811.437 154.479C813.527 153.583 815.81 153.135 818.285 153.135C820.503 153.135 822.509 153.498 824.301 154.223C826.093 154.949 827.65 155.973 828.973 157.295C830.295 158.575 831.362 160.111 832.173 161.903C832.983 163.695 833.495 165.658 833.709 167.791C833.922 169.925 833.794 172.186 833.325 174.575C829.826 174.575 826.306 174.575 822.765 174.575C819.223 174.575 815.703 174.575 812.205 174.575C813.015 176.197 814.359 177.349 816.237 178.031C818.157 178.714 820.418 178.927 823.021 178.671C825.666 178.415 828.482 177.733 831.469 176.623C831.469 178.117 831.469 179.631 831.469 181.167C831.469 182.703 831.469 184.218 831.469 185.711ZM818.029 162.607C816.791 162.607 815.639 162.949 814.573 163.631C813.549 164.314 812.759 165.359 812.205 166.767C814.125 166.767 816.045 166.767 817.965 166.767C819.927 166.767 821.869 166.767 823.789 166.767C823.277 165.317 822.509 164.271 821.485 163.631C820.503 162.949 819.351 162.607 818.029 162.607ZM852.739 187.247C852.739 181.786 852.739 176.282 852.739 170.735C852.739 165.146 852.739 159.621 852.739 154.159C854.488 154.159 856.259 154.159 858.051 154.159C859.843 154.159 861.592 154.159 863.299 154.159C863.299 154.458 863.299 154.735 863.299 154.991C863.299 155.247 863.299 155.525 863.299 155.823C864.408 155.013 865.645 154.394 867.011 153.967C868.376 153.498 869.784 153.263 871.235 153.263C872.813 153.263 874.264 153.541 875.587 154.095C876.909 154.607 878.04 155.375 878.979 156.399C880.344 155.418 881.88 154.65 883.587 154.095C885.336 153.541 887.128 153.263 888.963 153.263C891.565 153.263 893.805 153.797 895.683 154.863C897.603 155.93 899.075 157.445 900.099 159.407C901.165 161.37 901.699 163.738 901.699 166.511C901.699 169.925 901.699 173.381 901.699 176.879C901.699 180.378 901.699 183.834 901.699 187.247C899.992 187.247 898.243 187.247 896.451 187.247C894.659 187.247 892.888 187.247 891.139 187.247C891.139 184.047 891.139 180.805 891.139 177.519C891.139 174.234 891.139 170.991 891.139 167.791C891.139 166.341 890.797 165.167 890.115 164.271C889.475 163.333 888.429 162.863 886.979 162.863C885.571 162.863 884.461 163.311 883.651 164.207C882.883 165.061 882.499 166.255 882.499 167.791C882.499 170.991 882.499 174.234 882.499 177.519C882.499 180.805 882.499 184.047 882.499 187.247C880.792 187.247 879.043 187.247 877.251 187.247C875.459 187.247 873.688 187.247 871.939 187.247C871.939 184.047 871.939 180.805 871.939 177.519C871.939 174.234 871.939 170.991 871.939 167.791C871.939 166.341 871.597 165.167 870.915 164.271C870.275 163.333 869.229 162.863 867.779 162.863C866.371 162.863 865.261 163.311 864.451 164.207C863.683 165.061 863.299 166.255 863.299 167.791C863.299 170.991 863.299 174.234 863.299 177.519C863.299 180.805 863.299 184.047 863.299 187.247C861.592 187.247 859.843 187.247 858.051 187.247C856.259 187.247 854.488 187.247 852.739 187.247ZM939.151 154.159C939.151 159.621 939.151 165.146 939.151 170.735C939.151 176.282 939.151 181.786 939.151 187.247C937.444 187.247 935.695 187.247 933.903 187.247C932.111 187.247 930.34 187.247 928.591 187.247C928.591 186.949 928.591 186.671 928.591 186.415C928.591 186.159 928.591 185.882 928.591 185.583C927.439 186.394 926.137 187.013 924.687 187.439C923.279 187.909 921.743 188.143 920.079 188.143C917.647 188.143 915.492 187.589 913.615 186.479C911.78 185.37 910.329 183.77 909.263 181.679C908.239 179.589 907.727 177.114 907.727 174.255C907.727 170.927 907.727 167.578 907.727 164.207C907.727 160.837 907.727 157.487 907.727 154.159C909.476 154.159 911.247 154.159 913.039 154.159C914.831 154.159 916.58 154.159 918.287 154.159C918.287 157.231 918.287 160.346 918.287 163.503C918.287 166.661 918.287 169.775 918.287 172.847C918.287 174.554 918.671 175.941 919.439 177.007C920.249 178.031 921.508 178.543 923.215 178.543C924.921 178.543 926.244 178.053 927.183 177.071C928.121 176.09 928.591 174.682 928.591 172.847C928.591 169.775 928.591 166.661 928.591 163.503C928.591 160.346 928.591 157.231 928.591 154.159C930.34 154.159 932.111 154.159 933.903 154.159C935.695 154.159 937.444 154.159 939.151 154.159ZM971.456 177.007C971.456 179.653 970.71 181.829 969.216 183.535C967.766 185.199 965.803 186.415 963.328 187.183C960.854 187.951 958.08 188.271 955.008 188.143C951.979 188.058 948.886 187.567 945.728 186.671C945.728 185.05 945.728 183.386 945.728 181.679C945.728 179.973 945.728 178.309 945.728 176.687C947.52 177.498 949.312 178.138 951.104 178.607C952.896 179.034 954.518 179.29 955.968 179.375C957.419 179.461 958.592 179.354 959.488 179.055C960.384 178.714 960.832 178.159 960.832 177.391C960.832 176.794 960.448 176.325 959.68 175.983C958.955 175.642 957.995 175.343 956.8 175.087C955.606 174.789 954.326 174.447 952.96 174.063C951.638 173.637 950.379 173.061 949.184 172.335C947.99 171.567 947.008 170.565 946.24 169.327C945.515 168.047 945.152 166.405 945.152 164.399C945.152 162.01 945.835 159.983 947.2 158.319C948.608 156.613 950.486 155.333 952.832 154.479C955.179 153.583 957.803 153.135 960.704 153.135C963.606 153.135 966.571 153.626 969.6 154.607C969.6 156.229 969.6 157.893 969.6 159.599C969.6 161.306 969.6 162.97 969.6 164.591C967.211 163.439 964.971 162.671 962.88 162.287C960.79 161.903 959.104 161.861 957.824 162.159C956.544 162.415 955.904 162.991 955.904 163.887C955.904 164.485 956.267 164.954 956.992 165.295C957.76 165.594 958.72 165.871 959.872 166.127C961.067 166.383 962.326 166.725 963.648 167.151C965.014 167.578 966.272 168.175 967.424 168.943C968.619 169.669 969.579 170.693 970.304 172.015C971.072 173.295 971.456 174.959 971.456 177.007ZM982.183 150.383C980.946 150.383 979.815 150.085 978.791 149.487C977.81 148.89 977.021 148.101 976.423 147.119C975.826 146.138 975.527 145.05 975.527 143.855C975.527 142.661 975.826 141.594 976.423 140.655C977.021 139.674 977.81 138.885 978.791 138.287C979.815 137.69 980.946 137.391 982.183 137.391C983.378 137.391 984.466 137.69 985.447 138.287C986.471 138.885 987.282 139.674 987.879 140.655C988.477 141.594 988.775 142.661 988.775 143.855C988.775 145.05 988.477 146.138 987.879 147.119C987.282 148.101 986.471 148.89 985.447 149.487C984.466 150.085 983.378 150.383 982.183 150.383ZM976.871 187.247C976.871 181.786 976.871 176.282 976.871 170.735C976.871 165.146 976.871 159.621 976.871 154.159C978.621 154.159 980.391 154.159 982.183 154.159C983.975 154.159 985.725 154.159 987.431 154.159C987.431 159.621 987.431 165.146 987.431 170.735C987.431 176.282 987.431 181.786 987.431 187.247C985.725 187.247 983.975 187.247 982.183 187.247C980.391 187.247 978.621 187.247 976.871 187.247ZM993.009 170.671C993.009 167.429 993.671 164.591 994.993 162.159C996.316 159.685 998.151 157.701 1000.5 156.207C1002.84 154.714 1005.57 153.818 1008.69 153.519C1011.8 153.178 1015.13 153.541 1018.67 154.607C1018.67 156.229 1018.67 157.871 1018.67 159.535C1018.67 161.199 1018.67 162.842 1018.67 164.463C1016.2 163.269 1013.83 162.714 1011.57 162.799C1009.31 162.885 1007.45 163.589 1006 164.911C1004.55 166.191 1003.83 168.111 1003.83 170.671C1003.83 173.231 1004.55 175.173 1006 176.495C1007.45 177.775 1009.31 178.458 1011.57 178.543C1013.83 178.586 1016.2 178.031 1018.67 176.879C1018.67 178.501 1018.67 180.143 1018.67 181.807C1018.67 183.471 1018.67 185.114 1018.67 186.735C1015.13 187.802 1011.8 188.165 1008.69 187.823C1005.57 187.525 1002.84 186.629 1000.5 185.135C998.151 183.642 996.316 181.679 994.993 179.247C993.671 176.773 993.009 173.914 993.009 170.671Z" fill="#404040"/>
<path d="M653.799 286.127C653.799 282.543 653.799 278.916 653.799 275.247C653.799 271.577 653.799 267.951 653.799 264.367C655.953 264.367 658.129 264.367 660.327 264.367C662.524 264.367 664.7 264.367 666.855 264.367C666.855 265.177 666.855 266.009 666.855 266.863C666.855 267.716 666.855 268.548 666.855 269.359C665.617 269.359 664.369 269.359 663.111 269.359C661.873 269.359 660.636 269.359 659.399 269.359C659.399 269.892 659.399 270.425 659.399 270.959C659.399 271.471 659.399 271.993 659.399 272.527C660.529 272.527 661.671 272.527 662.823 272.527C663.975 272.527 665.105 272.527 666.215 272.527C666.215 273.316 666.215 274.116 666.215 274.927C666.215 275.737 666.215 276.548 666.215 277.359C665.105 277.359 663.975 277.359 662.823 277.359C661.671 277.359 660.529 277.359 659.399 277.359C659.399 277.977 659.399 278.607 659.399 279.247C659.399 279.887 659.399 280.516 659.399 281.135C660.636 281.135 661.873 281.135 663.111 281.135C664.369 281.135 665.617 281.135 666.855 281.135C666.855 281.945 666.855 282.777 666.855 283.631C666.855 284.484 666.855 285.316 666.855 286.127C664.7 286.127 662.524 286.127 660.327 286.127C658.129 286.127 655.953 286.127 653.799 286.127ZM681.425 286.127C681.425 285.956 681.425 285.796 681.425 285.647C681.425 285.476 681.425 285.316 681.425 285.167C680.892 285.615 680.284 285.956 679.601 286.191C678.94 286.447 678.225 286.575 677.457 286.575C676.369 286.575 675.345 286.372 674.385 285.967C673.425 285.54 672.572 284.943 671.825 284.175C671.1 283.385 670.524 282.457 670.097 281.391C669.692 280.324 669.489 279.14 669.489 277.839C669.489 276.516 669.692 275.321 670.097 274.255C670.524 273.188 671.1 272.281 671.825 271.535C672.572 270.767 673.425 270.18 674.385 269.775C675.345 269.348 676.358 269.135 677.425 269.135C678.193 269.135 678.918 269.263 679.601 269.519C680.284 269.753 680.892 270.084 681.425 270.511C681.425 270.34 681.425 270.18 681.425 270.031C681.425 269.881 681.425 269.732 681.425 269.583C682.3 269.583 683.185 269.583 684.081 269.583C684.977 269.583 685.852 269.583 686.705 269.583C686.705 272.313 686.705 275.076 686.705 277.871C686.705 280.644 686.705 283.396 686.705 286.127C685.852 286.127 684.977 286.127 684.081 286.127C683.185 286.127 682.3 286.127 681.425 286.127ZM678.161 281.903C679.185 281.903 680.006 281.529 680.625 280.783C681.244 280.036 681.553 279.055 681.553 277.839C681.553 276.623 681.244 275.652 680.625 274.927C680.006 274.18 679.185 273.807 678.161 273.807C677.116 273.807 676.284 274.169 675.665 274.895C675.068 275.62 674.769 276.601 674.769 277.839C674.769 279.076 675.068 280.068 675.665 280.815C676.284 281.54 677.116 281.903 678.161 281.903ZM690.229 286.127C690.229 283.396 690.229 280.644 690.229 277.871C690.229 275.076 690.229 272.313 690.229 269.583C691.103 269.583 691.989 269.583 692.885 269.583C693.781 269.583 694.655 269.583 695.509 269.583C695.509 269.732 695.509 269.881 695.509 270.031C695.509 270.18 695.509 270.329 695.509 270.479C696.17 270.009 696.917 269.657 697.749 269.423C698.581 269.188 699.487 269.124 700.469 269.231C700.469 270.084 700.469 270.948 700.469 271.823C700.469 272.697 700.469 273.561 700.469 274.415C698.783 274.18 697.535 274.329 696.725 274.863C695.914 275.375 695.509 276.217 695.509 277.391C695.509 278.82 695.509 280.271 695.509 281.743C695.509 283.215 695.509 284.676 695.509 286.127C694.655 286.127 693.781 286.127 692.885 286.127C691.989 286.127 691.103 286.127 690.229 286.127ZM706.214 286.127C705.382 283.396 704.539 280.644 703.686 277.871C702.854 275.076 702.022 272.313 701.19 269.583C702.064 269.583 702.95 269.583 703.846 269.583C704.763 269.583 705.659 269.583 706.534 269.583C706.96 271.076 707.387 272.591 707.814 274.127C708.262 275.641 708.688 277.145 709.094 278.639C709.456 277.145 709.819 275.641 710.182 274.127C710.566 272.591 710.928 271.076 711.27 269.583C712.016 269.583 712.763 269.583 713.51 269.583C714.278 269.583 715.035 269.583 715.782 269.583C716.144 271.076 716.507 272.601 716.87 274.159C717.254 275.695 717.616 277.22 717.958 278.735C718.384 277.22 718.811 275.695 719.238 274.159C719.686 272.601 720.112 271.076 720.518 269.583C721.392 269.583 722.267 269.583 723.142 269.583C724.038 269.583 724.912 269.583 725.766 269.583C724.934 272.313 724.091 275.076 723.238 277.871C722.406 280.644 721.574 283.396 720.742 286.127C719.888 286.127 719.024 286.127 718.15 286.127C717.275 286.127 716.411 286.127 715.558 286.127C715.216 284.804 714.864 283.471 714.502 282.127C714.16 280.783 713.819 279.46 713.478 278.159C713.136 279.46 712.784 280.783 712.422 282.127C712.08 283.471 711.739 284.804 711.398 286.127C710.544 286.127 709.68 286.127 708.806 286.127C707.931 286.127 707.067 286.127 706.214 286.127ZM735.163 286.639C733.925 286.639 732.773 286.425 731.707 285.999C730.64 285.551 729.712 284.932 728.923 284.143C728.133 283.332 727.515 282.393 727.067 281.327C726.64 280.26 726.427 279.097 726.427 277.839C726.427 276.58 726.64 275.417 727.067 274.351C727.515 273.284 728.133 272.356 728.923 271.567C729.712 270.777 730.64 270.169 731.707 269.743C732.773 269.295 733.925 269.071 735.163 269.071C736.421 269.071 737.573 269.295 738.619 269.743C739.685 270.169 740.613 270.777 741.403 271.567C742.192 272.356 742.8 273.284 743.227 274.351C743.675 275.417 743.899 276.58 743.899 277.839C743.899 279.097 743.675 280.26 743.227 281.327C742.8 282.393 742.192 283.332 741.403 284.143C740.613 284.932 739.685 285.551 738.619 285.999C737.573 286.425 736.421 286.639 735.163 286.639ZM735.163 281.871C736.208 281.871 737.04 281.497 737.659 280.751C738.299 279.983 738.619 279.012 738.619 277.839C738.619 276.644 738.299 275.684 737.659 274.959C737.04 274.212 736.208 273.839 735.163 273.839C734.117 273.839 733.275 274.212 732.635 274.959C732.016 275.684 731.707 276.644 731.707 277.839C731.707 279.012 732.016 279.983 732.635 280.751C733.275 281.497 734.117 281.871 735.163 281.871ZM746.51 286.127C746.51 283.396 746.51 280.644 746.51 277.871C746.51 275.076 746.51 272.313 746.51 269.583C747.385 269.583 748.27 269.583 749.166 269.583C750.062 269.583 750.937 269.583 751.79 269.583C751.79 269.732 751.79 269.881 751.79 270.031C751.79 270.18 751.79 270.329 751.79 270.479C752.451 270.009 753.198 269.657 754.03 269.423C754.862 269.188 755.769 269.124 756.75 269.231C756.75 270.084 756.75 270.948 756.75 271.823C756.75 272.697 756.75 273.561 756.75 274.415C755.065 274.18 753.817 274.329 753.006 274.863C752.195 275.375 751.79 276.217 751.79 277.391C751.79 278.82 751.79 280.271 751.79 281.743C751.79 283.215 751.79 284.676 751.79 286.127C750.937 286.127 750.062 286.127 749.166 286.127C748.27 286.127 747.385 286.127 746.51 286.127ZM759.135 286.127C759.135 283.396 759.135 280.644 759.135 277.871C759.135 275.076 759.135 272.313 759.135 269.583C760.01 269.583 760.895 269.583 761.791 269.583C762.687 269.583 763.562 269.583 764.415 269.583C764.415 269.732 764.415 269.871 764.415 269.999C764.415 270.127 764.415 270.265 764.415 270.415C764.97 270.009 765.588 269.7 766.271 269.487C766.954 269.252 767.658 269.135 768.383 269.135C769.172 269.135 769.898 269.273 770.559 269.551C771.22 269.807 771.786 270.191 772.255 270.703C772.938 270.212 773.706 269.828 774.559 269.551C775.434 269.273 776.33 269.135 777.247 269.135C778.548 269.135 779.668 269.401 780.607 269.935C781.567 270.468 782.303 271.225 782.815 272.207C783.348 273.188 783.615 274.372 783.615 275.759C783.615 277.465 783.615 279.193 783.615 280.943C783.615 282.692 783.615 284.42 783.615 286.127C782.762 286.127 781.887 286.127 780.991 286.127C780.095 286.127 779.21 286.127 778.335 286.127C778.335 284.527 778.335 282.905 778.335 281.263C778.335 279.62 778.335 277.999 778.335 276.399C778.335 275.673 778.164 275.087 777.823 274.639C777.503 274.169 776.98 273.935 776.255 273.935C775.551 273.935 774.996 274.159 774.591 274.607C774.207 275.033 774.015 275.631 774.015 276.399C774.015 277.999 774.015 279.62 774.015 281.263C774.015 282.905 774.015 284.527 774.015 286.127C773.162 286.127 772.287 286.127 771.391 286.127C770.495 286.127 769.61 286.127 768.735 286.127C768.735 284.527 768.735 282.905 768.735 281.263C768.735 279.62 768.735 277.999 768.735 276.399C768.735 275.673 768.564 275.087 768.223 274.639C767.903 274.169 767.38 273.935 766.655 273.935C765.951 273.935 765.396 274.159 764.991 274.607C764.607 275.033 764.415 275.631 764.415 276.399C764.415 277.999 764.415 279.62 764.415 281.263C764.415 282.905 764.415 284.527 764.415 286.127C763.562 286.127 762.687 286.127 761.791 286.127C760.895 286.127 760.01 286.127 759.135 286.127Z" fill="#888888"/>
<path d="M657.415 326.905C658.204 329.337 658.983 331.791 659.751 334.265C660.54 336.74 661.329 339.193 662.119 341.625C662.908 339.193 663.697 336.74 664.487 334.265C665.276 331.791 666.065 329.337 666.855 326.905C667.772 326.905 668.7 326.905 669.639 326.905C670.577 326.905 671.505 326.905 672.423 326.905C671.271 330.489 670.097 334.116 668.903 337.785C667.729 341.455 666.567 345.081 665.415 348.665C664.305 348.665 663.185 348.665 662.055 348.665C660.945 348.665 659.836 348.665 658.727 348.665C657.575 345.081 656.401 341.455 655.207 337.785C654.033 334.116 652.871 330.489 651.719 326.905C652.657 326.905 653.607 326.905 654.567 326.905C655.527 326.905 656.476 326.905 657.415 326.905ZM677.014 330.233C676.395 330.233 675.83 330.084 675.318 329.785C674.827 329.487 674.432 329.092 674.134 328.601C673.835 328.111 673.686 327.567 673.686 326.969C673.686 326.372 673.835 325.839 674.134 325.369C674.432 324.879 674.827 324.484 675.318 324.185C675.83 323.887 676.395 323.737 677.014 323.737C677.611 323.737 678.155 323.887 678.646 324.185C679.158 324.484 679.563 324.879 679.862 325.369C680.16 325.839 680.31 326.372 680.31 326.969C680.31 327.567 680.16 328.111 679.862 328.601C679.563 329.092 679.158 329.487 678.646 329.785C678.155 330.084 677.611 330.233 677.014 330.233ZM674.358 348.665C674.358 345.935 674.358 343.183 674.358 340.409C674.358 337.615 674.358 334.852 674.358 332.121C675.232 332.121 676.118 332.121 677.014 332.121C677.91 332.121 678.784 332.121 679.638 332.121C679.638 334.852 679.638 337.615 679.638 340.409C679.638 343.183 679.638 345.935 679.638 348.665C678.784 348.665 677.91 348.665 677.014 348.665C676.118 348.665 675.232 348.665 674.358 348.665ZM683.323 348.665C683.323 345.935 683.323 343.183 683.323 340.409C683.323 337.615 683.323 334.852 683.323 332.121C684.197 332.121 685.083 332.121 685.979 332.121C686.875 332.121 687.749 332.121 688.603 332.121C688.603 332.271 688.603 332.42 688.603 332.569C688.603 332.719 688.603 332.868 688.603 333.017C689.264 332.548 690.011 332.196 690.843 331.961C691.675 331.727 692.581 331.663 693.563 331.769C693.563 332.623 693.563 333.487 693.563 334.361C693.563 335.236 693.563 336.1 693.563 336.953C691.877 336.719 690.629 336.868 689.819 337.401C689.008 337.913 688.603 338.756 688.603 339.929C688.603 341.359 688.603 342.809 688.603 344.281C688.603 345.753 688.603 347.215 688.603 348.665C687.749 348.665 686.875 348.665 685.979 348.665C685.083 348.665 684.197 348.665 683.323 348.665ZM706.831 348.665C706.831 348.495 706.831 348.335 706.831 348.185C706.831 348.015 706.831 347.855 706.831 347.705C706.298 348.153 705.69 348.495 705.007 348.729C704.346 348.985 703.631 349.113 702.863 349.113C701.775 349.113 700.751 348.911 699.791 348.505C698.831 348.079 697.978 347.481 697.231 346.713C696.506 345.924 695.93 344.996 695.503 343.929C695.098 342.863 694.895 341.679 694.895 340.377C694.895 339.055 695.098 337.86 695.503 336.793C695.93 335.727 696.506 334.82 697.231 334.073C697.978 333.305 698.831 332.719 699.791 332.313C700.751 331.887 701.765 331.673 702.831 331.673C703.599 331.673 704.325 331.801 705.007 332.057C705.69 332.292 706.298 332.623 706.831 333.049C706.831 332.879 706.831 332.719 706.831 332.569C706.831 332.42 706.831 332.271 706.831 332.121C707.706 332.121 708.591 332.121 709.487 332.121C710.383 332.121 711.258 332.121 712.111 332.121C712.111 334.852 712.111 337.615 712.111 340.409C712.111 343.183 712.111 345.935 712.111 348.665C711.258 348.665 710.383 348.665 709.487 348.665C708.591 348.665 707.706 348.665 706.831 348.665ZM703.567 344.441C704.591 344.441 705.413 344.068 706.031 343.321C706.65 342.575 706.959 341.593 706.959 340.377C706.959 339.161 706.65 338.191 706.031 337.465C705.413 336.719 704.591 336.345 703.567 336.345C702.522 336.345 701.69 336.708 701.071 337.433C700.474 338.159 700.175 339.14 700.175 340.377C700.175 341.615 700.474 342.607 701.071 343.353C701.69 344.079 702.522 344.441 703.567 344.441ZM715.795 348.665C715.795 344.804 715.795 340.911 715.795 336.985C715.795 333.06 715.795 329.167 715.795 325.305C716.67 325.305 717.555 325.305 718.451 325.305C719.347 325.305 720.222 325.305 721.075 325.305C721.075 329.167 721.075 333.06 721.075 336.985C721.075 340.911 721.075 344.804 721.075 348.665C720.222 348.665 719.347 348.665 718.451 348.665C717.555 348.665 716.67 348.665 715.795 348.665Z" fill="#888888"/>
<path d="M659.399 409.01C658.481 409.01 657.553 409.01 656.615 409.01C655.676 409.01 654.737 409.01 653.799 409.01C653.799 405.426 653.799 401.799 653.799 398.13C653.799 394.46 653.799 390.834 653.799 387.25C654.737 387.25 655.676 387.25 656.615 387.25C657.553 387.25 658.481 387.25 659.399 387.25C659.399 388.551 659.399 389.863 659.399 391.186C659.399 392.487 659.399 393.788 659.399 395.09C660.529 395.09 661.671 395.09 662.823 395.09C663.975 395.09 665.105 395.09 666.215 395.09C666.215 393.788 666.215 392.487 666.215 391.186C666.215 389.863 666.215 388.551 666.215 387.25C667.153 387.25 668.092 387.25 669.031 387.25C669.969 387.25 670.897 387.25 671.815 387.25C671.815 390.834 671.815 394.46 671.815 398.13C671.815 401.799 671.815 405.426 671.815 409.01C670.897 409.01 669.969 409.01 669.031 409.01C668.092 409.01 667.153 409.01 666.215 409.01C666.215 407.559 666.215 406.098 666.215 404.626C666.215 403.132 666.215 401.671 666.215 400.242C665.105 400.242 663.975 400.242 662.823 400.242C661.671 400.242 660.529 400.242 659.399 400.242C659.399 401.671 659.399 403.132 659.399 404.626C659.399 406.098 659.399 407.559 659.399 409.01ZM677.202 414.13C677.629 412.999 678.066 411.858 678.514 410.706C678.984 409.575 679.432 408.455 679.858 407.346C678.856 404.892 677.832 402.418 676.786 399.922C675.762 397.404 674.749 394.919 673.746 392.466C674.685 392.466 675.624 392.466 676.562 392.466C677.501 392.466 678.429 392.466 679.346 392.466C679.901 393.831 680.456 395.218 681.01 396.626C681.586 398.034 682.152 399.431 682.706 400.818C683.218 399.431 683.741 398.034 684.274 396.626C684.808 395.218 685.33 393.831 685.842 392.466C686.76 392.466 687.677 392.466 688.594 392.466C689.512 392.466 690.429 392.466 691.346 392.466C689.917 396.028 688.477 399.644 687.026 403.314C685.597 406.962 684.168 410.567 682.738 414.13C681.821 414.13 680.893 414.13 679.954 414.13C679.037 414.13 678.12 414.13 677.202 414.13ZM698.228 414.13C697.374 414.13 696.5 414.13 695.604 414.13C694.708 414.13 693.822 414.13 692.948 414.13C692.948 410.567 692.948 406.962 692.948 403.314C692.948 399.644 692.948 396.028 692.948 392.466C693.822 392.466 694.708 392.466 695.604 392.466C696.5 392.466 697.374 392.466 698.228 392.466C698.228 392.615 698.228 392.764 698.228 392.914C698.228 393.063 698.228 393.223 698.228 393.394C698.761 392.967 699.369 392.636 700.052 392.402C700.734 392.146 701.46 392.018 702.228 392.018C703.294 392.018 704.308 392.231 705.268 392.658C706.228 393.063 707.07 393.65 707.796 394.418C708.542 395.186 709.118 396.103 709.524 397.17C709.95 398.236 710.164 399.42 710.164 400.722C710.164 402.002 709.95 403.175 709.524 404.242C709.118 405.308 708.542 406.236 707.796 407.026C707.07 407.794 706.228 408.391 705.268 408.818C704.308 409.244 703.284 409.458 702.196 409.458C701.428 409.458 700.702 409.33 700.02 409.074C699.358 408.839 698.761 408.498 698.228 408.05C698.228 409.052 698.228 410.066 698.228 411.09C698.228 412.114 698.228 413.127 698.228 414.13ZM701.492 404.786C702.537 404.786 703.358 404.423 703.956 403.698C704.574 402.951 704.884 401.959 704.884 400.722C704.884 399.484 704.574 398.503 703.956 397.778C703.358 397.052 702.537 396.69 701.492 396.69C700.468 396.69 699.646 397.063 699.028 397.81C698.409 398.535 698.1 399.506 698.1 400.722C698.1 401.938 698.409 402.919 699.028 403.666C699.646 404.412 700.468 404.786 701.492 404.786ZM712.791 409.01C712.791 406.279 712.791 403.527 712.791 400.754C712.791 397.959 712.791 395.196 712.791 392.466C713.666 392.466 714.551 392.466 715.447 392.466C716.343 392.466 717.218 392.466 718.071 392.466C718.071 392.615 718.071 392.754 718.071 392.882C718.071 393.01 718.071 393.148 718.071 393.298C718.647 392.892 719.287 392.583 719.991 392.37C720.717 392.135 721.495 392.018 722.327 392.018C723.543 392.018 724.61 392.295 725.527 392.85C726.466 393.404 727.191 394.204 727.703 395.25C728.237 396.274 728.503 397.511 728.503 398.962C728.503 400.626 728.503 402.3 728.503 403.986C728.503 405.671 728.503 407.346 728.503 409.01C727.65 409.01 726.775 409.01 725.879 409.01C724.983 409.01 724.098 409.01 723.223 409.01C723.223 407.474 723.223 405.916 723.223 404.338C723.223 402.759 723.223 401.202 723.223 399.666C723.223 398.812 723.021 398.13 722.615 397.618C722.231 397.084 721.613 396.818 720.759 396.818C719.906 396.818 719.245 397.063 718.775 397.554C718.306 398.044 718.071 398.748 718.071 399.666C718.071 401.202 718.071 402.759 718.071 404.338C718.071 405.916 718.071 407.474 718.071 409.01C717.218 409.01 716.343 409.01 715.447 409.01C714.551 409.01 713.666 409.01 712.791 409.01ZM739.6 409.522C738.363 409.522 737.211 409.308 736.144 408.882C735.077 408.434 734.149 407.815 733.36 407.026C732.571 406.215 731.952 405.276 731.504 404.21C731.077 403.143 730.864 401.98 730.864 400.722C730.864 399.463 731.077 398.3 731.504 397.234C731.952 396.167 732.571 395.239 733.36 394.45C734.149 393.66 735.077 393.052 736.144 392.626C737.211 392.178 738.363 391.954 739.6 391.954C740.859 391.954 742.011 392.178 743.056 392.626C744.123 393.052 745.051 393.66 745.84 394.45C746.629 395.239 747.237 396.167 747.664 397.234C748.112 398.3 748.336 399.463 748.336 400.722C748.336 401.98 748.112 403.143 747.664 404.21C747.237 405.276 746.629 406.215 745.84 407.026C745.051 407.815 744.123 408.434 743.056 408.882C742.011 409.308 740.859 409.522 739.6 409.522ZM739.6 404.754C740.645 404.754 741.477 404.38 742.096 403.634C742.736 402.866 743.056 401.895 743.056 400.722C743.056 399.527 742.736 398.567 742.096 397.842C741.477 397.095 740.645 396.722 739.6 396.722C738.555 396.722 737.712 397.095 737.072 397.842C736.453 398.567 736.144 399.527 736.144 400.722C736.144 401.895 736.453 402.866 737.072 403.634C737.712 404.38 738.555 404.754 739.6 404.754ZM752.519 409.01C752.519 407.047 752.519 405.074 752.519 403.09C752.519 401.106 752.519 399.143 752.519 397.202C752.093 397.202 751.655 397.202 751.207 397.202C750.781 397.202 750.354 397.202 749.927 397.202C749.927 396.412 749.927 395.623 749.927 394.834C749.927 394.044 749.927 393.255 749.927 392.466C750.354 392.466 750.781 392.466 751.207 392.466C751.655 392.466 752.093 392.466 752.519 392.466C752.519 391.719 752.519 390.983 752.519 390.258C752.519 389.511 752.519 388.775 752.519 388.05C753.394 388.05 754.279 388.05 755.175 388.05C756.071 388.05 756.946 388.05 757.799 388.05C757.799 388.775 757.799 389.511 757.799 390.258C757.799 390.983 757.799 391.719 757.799 392.466C758.29 392.466 758.791 392.466 759.303 392.466C759.815 392.466 760.317 392.466 760.807 392.466C760.807 393.255 760.807 394.044 760.807 394.834C760.807 395.623 760.807 396.412 760.807 397.202C760.317 397.202 759.815 397.202 759.303 397.202C758.791 397.202 758.29 397.202 757.799 397.202C757.799 399.143 757.799 401.106 757.799 403.09C757.799 405.074 757.799 407.047 757.799 409.01C756.946 409.01 756.071 409.01 755.175 409.01C754.279 409.01 753.394 409.01 752.519 409.01ZM766.17 390.578C765.551 390.578 764.986 390.428 764.474 390.13C763.983 389.831 763.588 389.436 763.29 388.946C762.991 388.455 762.842 387.911 762.842 387.314C762.842 386.716 762.991 386.183 763.29 385.714C763.588 385.223 763.983 384.828 764.474 384.53C764.986 384.231 765.551 384.082 766.17 384.082C766.767 384.082 767.311 384.231 767.802 384.53C768.314 384.828 768.719 385.223 769.018 385.714C769.316 386.183 769.466 386.716 769.466 387.314C769.466 387.911 769.316 388.455 769.018 388.946C768.719 389.436 768.314 389.831 767.802 390.13C767.311 390.428 766.767 390.578 766.17 390.578ZM763.514 409.01C763.514 406.279 763.514 403.527 763.514 400.754C763.514 397.959 763.514 395.196 763.514 392.466C764.388 392.466 765.274 392.466 766.17 392.466C767.066 392.466 767.94 392.466 768.794 392.466C768.794 395.196 768.794 397.959 768.794 400.754C768.794 403.527 768.794 406.279 768.794 409.01C767.94 409.01 767.066 409.01 766.17 409.01C765.274 409.01 764.388 409.01 763.514 409.01ZM771.583 400.722C771.583 399.1 771.913 397.682 772.575 396.466C773.236 395.228 774.153 394.236 775.327 393.49C776.5 392.743 777.865 392.295 779.423 392.146C780.98 391.975 782.644 392.156 784.415 392.69C784.415 393.5 784.415 394.322 784.415 395.154C784.415 395.986 784.415 396.807 784.415 397.618C783.177 397.02 781.993 396.743 780.863 396.786C779.732 396.828 778.804 397.18 778.079 397.842C777.353 398.482 776.991 399.442 776.991 400.722C776.991 402.002 777.353 402.972 778.079 403.634C778.804 404.274 779.732 404.615 780.863 404.658C781.993 404.679 783.177 404.402 784.415 403.826C784.415 404.636 784.415 405.458 784.415 406.29C784.415 407.122 784.415 407.943 784.415 408.754C782.644 409.287 780.98 409.468 779.423 409.298C777.865 409.148 776.5 408.7 775.327 407.954C774.153 407.207 773.236 406.226 772.575 405.01C771.913 403.772 771.583 402.343 771.583 400.722ZM799.856 409.01C799.003 409.01 798.128 409.01 797.232 409.01C796.336 409.01 795.451 409.01 794.576 409.01C794.576 405.148 794.576 401.255 794.576 397.33C794.576 393.404 794.576 389.511 794.576 385.65C795.451 385.65 796.336 385.65 797.232 385.65C798.128 385.65 799.003 385.65 799.856 385.65C799.856 386.93 799.856 388.22 799.856 389.522C799.856 390.823 799.856 392.114 799.856 393.394C800.39 392.967 800.998 392.636 801.68 392.402C802.363 392.146 803.088 392.018 803.856 392.018C804.923 392.018 805.936 392.231 806.896 392.658C807.856 393.063 808.699 393.65 809.424 394.418C810.171 395.186 810.747 396.103 811.152 397.17C811.579 398.236 811.792 399.42 811.792 400.722C811.792 402.002 811.579 403.175 811.152 404.242C810.747 405.308 810.171 406.236 809.424 407.026C808.699 407.794 807.856 408.391 806.896 408.818C805.936 409.244 804.912 409.458 803.824 409.458C803.056 409.458 802.331 409.33 801.648 409.074C800.987 408.839 800.39 408.498 799.856 408.05C799.856 408.199 799.856 408.359 799.856 408.53C799.856 408.679 799.856 408.839 799.856 409.01ZM803.12 404.786C804.166 404.786 804.987 404.423 805.584 403.698C806.203 402.951 806.512 401.959 806.512 400.722C806.512 399.484 806.203 398.503 805.584 397.778C804.987 397.052 804.166 396.69 803.12 396.69C802.096 396.69 801.275 397.063 800.656 397.81C800.038 398.535 799.728 399.506 799.728 400.722C799.728 401.938 800.038 402.919 800.656 403.666C801.275 404.412 802.096 404.786 803.12 404.786ZM828.656 408.242C827.184 408.86 825.723 409.244 824.272 409.394C822.822 409.543 821.446 409.458 820.144 409.138C818.864 408.839 817.723 408.316 816.72 407.57C815.718 406.823 814.928 405.874 814.352 404.722C813.798 403.57 813.52 402.236 813.52 400.722C813.52 399.463 813.723 398.311 814.128 397.266C814.555 396.199 815.152 395.271 815.92 394.482C816.688 393.671 817.595 393.052 818.64 392.626C819.686 392.178 820.827 391.954 822.064 391.954C823.174 391.954 824.176 392.135 825.072 392.498C825.968 392.86 826.747 393.372 827.408 394.034C828.07 394.674 828.603 395.442 829.008 396.338C829.414 397.234 829.67 398.215 829.776 399.282C829.883 400.348 829.819 401.479 829.584 402.674C827.835 402.674 826.075 402.674 824.304 402.674C822.534 402.674 820.774 402.674 819.024 402.674C819.43 403.484 820.102 404.06 821.04 404.402C822 404.743 823.131 404.85 824.432 404.722C825.755 404.594 827.163 404.252 828.656 403.698C828.656 404.444 828.656 405.202 828.656 405.97C828.656 406.738 828.656 407.495 828.656 408.242ZM821.936 396.69C821.318 396.69 820.742 396.86 820.208 397.202C819.696 397.543 819.302 398.066 819.024 398.77C819.984 398.77 820.944 398.77 821.904 398.77C822.886 398.77 823.856 398.77 824.816 398.77C824.56 398.044 824.176 397.522 823.664 397.202C823.174 396.86 822.598 396.69 821.936 396.69ZM843.613 409.01C843.613 408.839 843.613 408.679 843.613 408.53C843.613 408.359 843.613 408.199 843.613 408.05C843.079 408.498 842.471 408.839 841.789 409.074C841.127 409.33 840.413 409.458 839.645 409.458C838.557 409.458 837.533 409.255 836.573 408.85C835.613 408.423 834.759 407.826 834.013 407.058C833.287 406.268 832.711 405.34 832.285 404.274C831.879 403.207 831.677 402.023 831.677 400.722C831.677 399.399 831.879 398.204 832.285 397.138C832.711 396.071 833.287 395.164 834.013 394.418C834.759 393.65 835.613 393.063 836.573 392.658C837.533 392.231 838.546 392.018 839.613 392.018C840.381 392.018 841.106 392.146 841.789 392.402C842.471 392.636 843.079 392.967 843.613 393.394C843.613 393.223 843.613 393.063 843.613 392.914C843.613 392.764 843.613 392.615 843.613 392.466C844.487 392.466 845.373 392.466 846.269 392.466C847.165 392.466 848.039 392.466 848.892 392.466C848.892 395.196 848.892 397.959 848.892 400.754C848.892 403.527 848.892 406.279 848.892 409.01C848.039 409.01 847.165 409.01 846.269 409.01C845.373 409.01 844.487 409.01 843.613 409.01ZM840.349 404.786C841.373 404.786 842.194 404.412 842.813 403.666C843.431 402.919 843.741 401.938 843.741 400.722C843.741 399.506 843.431 398.535 842.813 397.81C842.194 397.063 841.373 396.69 840.349 396.69C839.303 396.69 838.471 397.052 837.853 397.778C837.255 398.503 836.957 399.484 836.957 400.722C836.957 401.959 837.255 402.951 837.853 403.698C838.471 404.423 839.303 404.786 840.349 404.786ZM854.144 409.01C854.144 407.047 854.144 405.074 854.144 403.09C854.144 401.106 854.144 399.143 854.144 397.202C853.718 397.202 853.28 397.202 852.832 397.202C852.406 397.202 851.979 397.202 851.552 397.202C851.552 396.412 851.552 395.623 851.552 394.834C851.552 394.044 851.552 393.255 851.552 392.466C851.979 392.466 852.406 392.466 852.832 392.466C853.28 392.466 853.718 392.466 854.144 392.466C854.144 391.719 854.144 390.983 854.144 390.258C854.144 389.511 854.144 388.775 854.144 388.05C855.019 388.05 855.904 388.05 856.8 388.05C857.696 388.05 858.571 388.05 859.424 388.05C859.424 388.775 859.424 389.511 859.424 390.258C859.424 390.983 859.424 391.719 859.424 392.466C859.915 392.466 860.416 392.466 860.928 392.466C861.44 392.466 861.942 392.466 862.432 392.466C862.432 393.255 862.432 394.044 862.432 394.834C862.432 395.623 862.432 396.412 862.432 397.202C861.942 397.202 861.44 397.202 860.928 397.202C860.416 397.202 859.915 397.202 859.424 397.202C859.424 399.143 859.424 401.106 859.424 403.09C859.424 405.074 859.424 407.047 859.424 409.01C858.571 409.01 857.696 409.01 856.8 409.01C855.904 409.01 855.019 409.01 854.144 409.01Z" fill="#888888"/>
<path d="M1061.51 301.636C1053.3 288.376 1025.24 274.94 1036.5 289.498C1045.2 300.743 1054.3 302.044 1061.51 301.636Z" stroke="#404040" stroke-width="3.58901"/>
<path d="M1072.04 308.141C1068.46 323.372 1046.12 345.227 1052.19 327.775C1056.87 314.294 1065.09 310.099 1072.04 308.141Z" stroke="#404040" stroke-width="3.58901"/>
<path d="M652.89 305.649L1057.98 307.086" stroke="#404040" stroke-width="3.58901"/>
<ellipse cx="6.15424" cy="11.869" rx="6.15424" ry="11.869" transform="matrix(0.999994 0.00354699 -0.00339759 0.999994 1069.16 275.943)" fill="#CEFCAF"/>
<ellipse cx="6.20072" cy="11.7814" rx="6.20072" ry="11.7814" transform="matrix(0.699381 0.714853 -0.704222 0.709875 1091.83 281.021)" fill="#CEFCAF"/>
<ellipse cx="6.24264" cy="11.7012" rx="6.24264" ry="11.7012" transform="matrix(0.207804 0.978202 -0.976852 0.213768 1069.14 300.931)" fill="#CEFCAF"/>
<ellipse cx="6.22636" cy="11.7324" rx="6.22636" ry="11.7324" transform="matrix(-0.4693 0.882969 -0.877138 -0.480368 1074.59 295.283)" fill="#CEFCAF"/>
<ellipse cx="6.16586" cy="11.8472" rx="6.16586" ry="11.8472" transform="matrix(-0.932565 -0.361141 0.351778 -0.936031 1070.58 334.757)" fill="#CEFCAF"/>
<ellipse cx="6.20072" cy="11.7814" rx="6.20072" ry="11.7814" transform="matrix(-0.704222 0.709875 -0.699381 -0.714853 1098.22 323.007)" fill="#CEFCAF"/>
<ellipse cx="6.24685" cy="11.693" rx="6.24685" ry="11.693" transform="matrix(-0.00339759 0.999994 -0.999994 -0.00354699 1104.77 300.433)" fill="#CEFCAF"/>
<ellipse cx="10.4048" cy="10.5614" rx="10.4048" ry="10.5614" transform="matrix(0.999994 0.00354699 -0.00339759 0.999994 1065.15 294.035)" fill="#FFB1B1"/>
<path d="M1061.24 361.44C1053.04 348.18 1024.98 334.745 1036.23 349.302C1044.93 360.547 1054.04 361.849 1061.24 361.44Z" stroke="#404040" stroke-width="3.58901"/>
<path d="M1071.77 367.946C1068.19 383.176 1045.85 405.032 1051.92 387.58C1056.61 374.098 1064.82 369.904 1071.77 367.946Z" stroke="#404040" stroke-width="3.58901"/>
<path d="M652.623 365.453L1057.72 366.89" stroke="#404040" stroke-width="3.58901"/>
<ellipse cx="6.15424" cy="11.869" rx="6.15424" ry="11.869" transform="matrix(0.999994 0.00354699 -0.00339759 0.999994 1068.89 335.748)" fill="#CEFCAF"/>
<ellipse cx="6.20072" cy="11.7814" rx="6.20072" ry="11.7814" transform="matrix(0.699381 0.714853 -0.704222 0.709875 1091.56 340.825)" fill="#CEFCAF"/>
<ellipse cx="6.24264" cy="11.7012" rx="6.24264" ry="11.7012" transform="matrix(0.207804 0.978202 -0.976852 0.213768 1068.88 360.735)" fill="#CEFCAF"/>
<ellipse cx="6.22636" cy="11.7324" rx="6.22636" ry="11.7324" transform="matrix(-0.4693 0.882969 -0.877138 -0.480368 1074.33 355.087)" fill="#CEFCAF"/>
<ellipse cx="6.16586" cy="11.8472" rx="6.16586" ry="11.8472" transform="matrix(-0.932565 -0.361141 0.351778 -0.936031 1070.32 394.561)" fill="#CEFCAF"/>
<ellipse cx="6.20072" cy="11.7814" rx="6.20072" ry="11.7814" transform="matrix(-0.704222 0.709875 -0.699381 -0.714853 1097.95 382.812)" fill="#CEFCAF"/>
<ellipse cx="6.24685" cy="11.693" rx="6.24685" ry="11.693" transform="matrix(-0.00339759 0.999994 -0.999994 -0.00354699 1104.5 360.237)" fill="#CEFCAF"/>
<ellipse cx="10.4048" cy="10.5614" rx="10.4048" ry="10.5614" transform="matrix(0.999994 0.00354699 -0.00339759 0.999994 1064.89 353.839)" fill="#FFB1B1"/>
<path d="M1060.97 421.152C1052.77 407.892 1024.71 394.457 1035.97 409.014C1044.66 420.259 1053.77 421.56 1060.97 421.152Z" stroke="#404040" stroke-width="3.58901"/>
<path d="M1071.5 427.658C1067.92 442.888 1045.58 464.744 1051.65 447.292C1056.34 433.811 1064.55 429.616 1071.5 427.658Z" stroke="#404040" stroke-width="3.58901"/>
<path d="M652.353 425.165L1057.45 426.602" stroke="#404040" stroke-width="3.58901"/>
<ellipse cx="6.15424" cy="11.869" rx="6.15424" ry="11.869" transform="matrix(0.999994 0.00354699 -0.00339759 0.999994 1068.62 395.46)" fill="#CEFCAF"/>
<ellipse cx="6.20072" cy="11.7814" rx="6.20072" ry="11.7814" transform="matrix(0.699381 0.714853 -0.704222 0.709875 1091.29 400.538)" fill="#CEFCAF"/>
<ellipse cx="6.24264" cy="11.7012" rx="6.24264" ry="11.7012" transform="matrix(0.207804 0.978202 -0.976852 0.213768 1068.61 420.448)" fill="#CEFCAF"/>
<ellipse cx="6.22636" cy="11.7324" rx="6.22636" ry="11.7324" transform="matrix(-0.4693 0.882969 -0.877138 -0.480368 1074.06 414.799)" fill="#CEFCAF"/>
<ellipse cx="6.16586" cy="11.8472" rx="6.16586" ry="11.8472" transform="matrix(-0.932565 -0.361141 0.351778 -0.936031 1070.05 454.274)" fill="#CEFCAF"/>
<ellipse cx="6.20072" cy="11.7814" rx="6.20072" ry="11.7814" transform="matrix(-0.704222 0.709875 -0.699381 -0.714853 1097.68 442.525)" fill="#CEFCAF"/>
<ellipse cx="6.24685" cy="11.693" rx="6.24685" ry="11.693" transform="matrix(-0.00339759 0.999994 -0.999994 -0.00354699 1104.23 419.949)" fill="#CEFCAF"/>
<ellipse cx="10.4048" cy="10.5614" rx="10.4048" ry="10.5614" transform="matrix(0.999994 0.00354699 -0.00339759 0.999994 1064.61 413.552)" fill="#FFB1B1"/>
</svg>
