<svg width="1156" height="642" viewBox="0 0 1156 642" fill="none" xmlns="http://www.w3.org/2000/svg">
<rect x="2" y="639.844" width="637.844" height="1151.32" rx="39" transform="rotate(-90 2 639.844)" fill="#FBF6F2" stroke="#404040" stroke-width="4"/>
<path d="M655.879 117.247C655.879 110.079 655.879 102.826 655.879 95.4872C655.879 88.1485 655.879 80.8952 655.879 73.7272C657.756 73.7272 659.633 73.7272 661.511 73.7272C663.388 73.7272 665.244 73.7272 667.079 73.7272C667.079 79.2312 667.079 84.7992 667.079 90.4312C667.079 96.0205 667.079 101.567 667.079 107.071C669.34 107.071 671.623 107.071 673.927 107.071C676.231 107.071 678.492 107.071 680.711 107.071C680.711 108.735 680.711 110.442 680.711 112.191C680.711 113.898 680.711 115.583 680.711 117.247C676.615 117.247 672.476 117.247 668.295 117.247C664.113 117.247 659.975 117.247 655.879 117.247ZM691.808 80.3832C690.571 80.3832 689.44 80.0845 688.416 79.4872C687.435 78.8899 686.646 78.1005 686.048 77.1192C685.451 76.1379 685.152 75.0499 685.152 73.8552C685.152 72.6605 685.451 71.5939 686.048 70.6552C686.646 69.6739 687.435 68.8845 688.416 68.2872C689.44 67.6899 690.571 67.3912 691.808 67.3912C693.003 67.3912 694.091 67.6899 695.072 68.2872C696.096 68.8845 696.907 69.6739 697.504 70.6552C698.102 71.5939 698.4 72.6605 698.4 73.8552C698.4 75.0499 698.102 76.1379 697.504 77.1192C696.907 78.1005 696.096 78.8899 695.072 79.4872C694.091 80.0845 693.003 80.3832 691.808 80.3832ZM686.496 117.247C686.496 111.786 686.496 106.282 686.496 100.735C686.496 95.1459 686.496 89.6205 686.496 84.1592C688.246 84.1592 690.016 84.1592 691.808 84.1592C693.6 84.1592 695.35 84.1592 697.056 84.1592C697.056 89.6205 697.056 95.1459 697.056 100.735C697.056 106.282 697.056 111.786 697.056 117.247C695.35 117.247 693.6 117.247 691.808 117.247C690.016 117.247 688.246 117.247 686.496 117.247ZM735.53 111.871C735.53 115.498 734.741 118.527 733.162 120.959C731.626 123.391 729.514 125.205 726.826 126.399C724.138 127.637 721.066 128.277 717.61 128.319C714.197 128.362 710.592 127.85 706.794 126.783C706.794 125.119 706.794 123.434 706.794 121.727C706.794 120.063 706.794 118.399 706.794 116.735C710.165 118.058 713.216 118.719 715.946 118.719C718.677 118.762 720.832 118.25 722.41 117.183C724.032 116.074 724.842 114.559 724.842 112.639C724.842 112.426 724.842 112.234 724.842 112.063C724.842 111.85 724.842 111.658 724.842 111.487C723.776 112.298 722.538 112.938 721.13 113.407C719.722 113.877 718.208 114.111 716.586 114.111C713.898 114.111 711.488 113.493 709.354 112.255C707.264 110.975 705.621 109.226 704.426 107.007C703.232 104.746 702.634 102.122 702.634 99.1352C702.634 96.8312 703.018 94.7192 703.786 92.7992C704.554 90.8792 705.621 89.2152 706.986 87.8072C708.352 86.3992 709.909 85.3325 711.658 84.6072C713.408 83.8392 715.242 83.4552 717.162 83.4552C718.698 83.4552 720.128 83.6685 721.45 84.0952C722.773 84.5219 723.946 85.0979 724.97 85.8232C724.97 85.5245 724.97 85.2472 724.97 84.9912C724.97 84.7352 724.97 84.4579 724.97 84.1592C726.72 84.1592 728.49 84.1592 730.282 84.1592C732.074 84.1592 733.824 84.1592 735.53 84.1592C735.53 88.7245 735.53 93.3539 735.53 98.0472C735.53 102.698 735.53 107.306 735.53 111.871ZM719.21 104.959C721.002 104.959 722.432 104.405 723.498 103.295C724.608 102.143 725.162 100.671 725.162 98.8792C725.162 97.0445 724.608 95.5512 723.498 94.3992C722.432 93.2472 721.002 92.6712 719.21 92.6712C717.333 92.6712 715.84 93.2472 714.73 94.3992C713.621 95.5085 713.066 97.0019 713.066 98.8792C713.066 100.714 713.621 102.186 714.73 103.295C715.84 104.405 717.333 104.959 719.21 104.959ZM742.871 117.247C742.871 109.525 742.871 101.738 742.871 93.8872C742.871 86.0365 742.871 78.2499 742.871 70.5272C744.621 70.5272 746.391 70.5272 748.183 70.5272C749.975 70.5272 751.725 70.5272 753.431 70.5272C753.431 73.0445 753.431 75.6045 753.431 78.2072C753.431 80.7672 753.431 83.3059 753.431 85.8232C754.583 85.0125 755.863 84.3939 757.271 83.9672C758.722 83.4979 760.279 83.2632 761.943 83.2632C764.375 83.2632 766.509 83.8179 768.343 84.9272C770.221 86.0365 771.671 87.6365 772.695 89.7272C773.762 91.7752 774.295 94.2499 774.295 97.1512C774.295 100.479 774.295 103.829 774.295 107.199C774.295 110.57 774.295 113.919 774.295 117.247C772.589 117.247 770.839 117.247 769.047 117.247C767.255 117.247 765.485 117.247 763.735 117.247C763.735 114.175 763.735 111.061 763.735 107.903C763.735 104.746 763.735 101.631 763.735 98.5592C763.735 96.8525 763.33 95.4872 762.519 94.4632C761.751 93.3965 760.514 92.8632 758.807 92.8632C757.101 92.8632 755.778 93.3539 754.839 94.3352C753.901 95.3165 753.431 96.7245 753.431 98.5592C753.431 101.631 753.431 104.746 753.431 107.903C753.431 111.061 753.431 114.175 753.431 117.247C751.725 117.247 749.975 117.247 748.183 117.247C746.391 117.247 744.621 117.247 742.871 117.247ZM784.32 117.247C784.32 113.322 784.32 109.375 784.32 105.407C784.32 101.439 784.32 97.5139 784.32 93.6312C783.466 93.6312 782.592 93.6312 781.696 93.6312C780.842 93.6312 779.989 93.6312 779.136 93.6312C779.136 92.0525 779.136 90.4739 779.136 88.8952C779.136 87.3165 779.136 85.7379 779.136 84.1592C779.989 84.1592 780.842 84.1592 781.696 84.1592C782.592 84.1592 783.466 84.1592 784.32 84.1592C784.32 82.6659 784.32 81.1939 784.32 79.7432C784.32 78.2499 784.32 76.7779 784.32 75.3272C786.069 75.3272 787.84 75.3272 789.632 75.3272C791.424 75.3272 793.173 75.3272 794.88 75.3272C794.88 76.7779 794.88 78.2499 794.88 79.7432C794.88 81.1939 794.88 82.6659 794.88 84.1592C795.861 84.1592 796.864 84.1592 797.888 84.1592C798.912 84.1592 799.914 84.1592 800.896 84.1592C800.896 85.7379 800.896 87.3165 800.896 88.8952C800.896 90.4739 800.896 92.0525 800.896 93.6312C799.914 93.6312 798.912 93.6312 797.888 93.6312C796.864 93.6312 795.861 93.6312 794.88 93.6312C794.88 97.5139 794.88 101.439 794.88 105.407C794.88 109.375 794.88 113.322 794.88 117.247C793.173 117.247 791.424 117.247 789.632 117.247C787.84 117.247 786.069 117.247 784.32 117.247ZM655.879 187.247C655.879 180.079 655.879 172.826 655.879 165.487C655.879 158.149 655.879 150.895 655.879 143.727C658.524 143.727 661.191 143.727 663.879 143.727C666.567 143.727 669.233 143.727 671.879 143.727C673.116 148.079 674.332 152.495 675.527 156.975C676.764 161.413 677.98 165.807 679.175 170.159C680.369 165.807 681.564 161.413 682.759 156.975C683.996 152.495 685.212 148.079 686.407 143.727C689.052 143.727 691.697 143.727 694.343 143.727C696.988 143.727 699.612 143.727 702.215 143.727C702.257 150.895 702.3 158.149 702.343 165.487C702.385 172.826 702.428 180.079 702.471 187.247C700.679 187.247 698.865 187.247 697.031 187.247C695.239 187.247 693.447 187.247 691.655 187.247C691.655 182.383 691.655 177.477 691.655 172.527C691.655 167.535 691.655 162.607 691.655 157.743C690.375 162.607 689.073 167.535 687.751 172.527C686.428 177.477 685.127 182.383 683.847 187.247C682.268 187.247 680.647 187.247 678.983 187.247C677.361 187.247 675.74 187.247 674.119 187.247C672.839 182.469 671.559 177.647 670.279 172.783C668.999 167.877 667.719 163.034 666.439 158.255C666.439 163.034 666.439 167.877 666.439 172.783C666.439 177.647 666.439 182.469 666.439 187.247C664.732 187.247 662.983 187.247 661.191 187.247C659.399 187.247 657.628 187.247 655.879 187.247ZM741.088 154.159C741.088 159.621 741.088 165.146 741.088 170.735C741.088 176.282 741.088 181.786 741.088 187.247C739.382 187.247 737.632 187.247 735.84 187.247C734.048 187.247 732.278 187.247 730.528 187.247C730.528 186.949 730.528 186.671 730.528 186.415C730.528 186.159 730.528 185.882 730.528 185.583C729.376 186.394 728.075 187.013 726.624 187.439C725.216 187.909 723.68 188.143 722.016 188.143C719.584 188.143 717.43 187.589 715.552 186.479C713.718 185.37 712.267 183.77 711.2 181.679C710.176 179.589 709.664 177.114 709.664 174.255C709.664 170.927 709.664 167.578 709.664 164.207C709.664 160.837 709.664 157.487 709.664 154.159C711.414 154.159 713.184 154.159 714.976 154.159C716.768 154.159 718.518 154.159 720.224 154.159C720.224 157.231 720.224 160.346 720.224 163.503C720.224 166.661 720.224 169.775 720.224 172.847C720.224 174.554 720.608 175.941 721.376 177.007C722.187 178.031 723.446 178.543 725.152 178.543C726.859 178.543 728.182 178.053 729.12 177.071C730.059 176.09 730.528 174.682 730.528 172.847C730.528 169.775 730.528 166.661 730.528 163.503C730.528 160.346 730.528 157.231 730.528 154.159C732.278 154.159 734.048 154.159 735.84 154.159C737.632 154.159 739.382 154.159 741.088 154.159ZM773.394 177.007C773.394 179.653 772.647 181.829 771.154 183.535C769.703 185.199 767.74 186.415 765.266 187.183C762.791 187.951 760.018 188.271 756.946 188.143C753.916 188.058 750.823 187.567 747.666 186.671C747.666 185.05 747.666 183.386 747.666 181.679C747.666 179.973 747.666 178.309 747.666 176.687C749.458 177.498 751.25 178.138 753.042 178.607C754.834 179.034 756.455 179.29 757.906 179.375C759.356 179.461 760.53 179.354 761.426 179.055C762.322 178.714 762.77 178.159 762.77 177.391C762.77 176.794 762.386 176.325 761.618 175.983C760.892 175.642 759.932 175.343 758.738 175.087C757.543 174.789 756.263 174.447 754.898 174.063C753.575 173.637 752.316 173.061 751.122 172.335C749.927 171.567 748.946 170.565 748.178 169.327C747.452 168.047 747.09 166.405 747.09 164.399C747.09 162.01 747.772 159.983 749.138 158.319C750.546 156.613 752.423 155.333 754.77 154.479C757.116 153.583 759.74 153.135 762.642 153.135C765.543 153.135 768.508 153.626 771.538 154.607C771.538 156.229 771.538 157.893 771.538 159.599C771.538 161.306 771.538 162.97 771.538 164.591C769.148 163.439 766.908 162.671 764.818 162.287C762.727 161.903 761.042 161.861 759.762 162.159C758.482 162.415 757.842 162.991 757.842 163.887C757.842 164.485 758.204 164.954 758.93 165.295C759.698 165.594 760.658 165.871 761.81 166.127C763.004 166.383 764.263 166.725 765.586 167.151C766.951 167.578 768.21 168.175 769.362 168.943C770.556 169.669 771.516 170.693 772.242 172.015C773.01 173.295 773.394 174.959 773.394 177.007ZM784.121 150.383C782.883 150.383 781.753 150.085 780.729 149.487C779.747 148.89 778.958 148.101 778.361 147.119C777.763 146.138 777.465 145.05 777.465 143.855C777.465 142.661 777.763 141.594 778.361 140.655C778.958 139.674 779.747 138.885 780.729 138.287C781.753 137.69 782.883 137.391 784.121 137.391C785.315 137.391 786.403 137.69 787.385 138.287C788.409 138.885 789.219 139.674 789.817 140.655C790.414 141.594 790.713 142.661 790.713 143.855C790.713 145.05 790.414 146.138 789.817 147.119C789.219 148.101 788.409 148.89 787.385 149.487C786.403 150.085 785.315 150.383 784.121 150.383ZM778.809 187.247C778.809 181.786 778.809 176.282 778.809 170.735C778.809 165.146 778.809 159.621 778.809 154.159C780.558 154.159 782.329 154.159 784.121 154.159C785.913 154.159 787.662 154.159 789.369 154.159C789.369 159.621 789.369 165.146 789.369 170.735C789.369 176.282 789.369 181.786 789.369 187.247C787.662 187.247 785.913 187.247 784.121 187.247C782.329 187.247 780.558 187.247 778.809 187.247ZM794.947 170.671C794.947 167.429 795.608 164.591 796.931 162.159C798.253 159.685 800.088 157.701 802.435 156.207C804.781 154.714 807.512 153.818 810.627 153.519C813.741 153.178 817.069 153.541 820.611 154.607C820.611 156.229 820.611 157.871 820.611 159.535C820.611 161.199 820.611 162.842 820.611 164.463C818.136 163.269 815.768 162.714 813.507 162.799C811.245 162.885 809.389 163.589 807.939 164.911C806.488 166.191 805.763 168.111 805.763 170.671C805.763 173.231 806.488 175.173 807.939 176.495C809.389 177.775 811.245 178.458 813.507 178.543C815.768 178.586 818.136 178.031 820.611 176.879C820.611 178.501 820.611 180.143 820.611 181.807C820.611 183.471 820.611 185.114 820.611 186.735C817.069 187.802 813.741 188.165 810.627 187.823C807.512 187.525 804.781 186.629 802.435 185.135C800.088 183.642 798.253 181.679 796.931 179.247C795.608 176.773 794.947 173.914 794.947 170.671Z" fill="#404040"/>
<path d="M653.799 286.126C653.799 282.542 653.799 278.916 653.799 275.246C653.799 271.577 653.799 267.95 653.799 264.366C654.737 264.366 655.676 264.366 656.615 264.366C657.553 264.366 658.481 264.366 659.399 264.366C659.399 267.118 659.399 269.902 659.399 272.718C659.399 275.513 659.399 278.286 659.399 281.038C660.529 281.038 661.671 281.038 662.823 281.038C663.975 281.038 665.105 281.038 666.215 281.038C666.215 281.87 666.215 282.724 666.215 283.598C666.215 284.452 666.215 285.294 666.215 286.126C664.167 286.126 662.097 286.126 660.007 286.126C657.916 286.126 655.847 286.126 653.799 286.126ZM676.475 286.638C675.238 286.638 674.086 286.425 673.019 285.998C671.952 285.55 671.024 284.932 670.235 284.142C669.446 283.332 668.827 282.393 668.379 281.326C667.952 280.26 667.739 279.097 667.739 277.838C667.739 276.58 667.952 275.417 668.379 274.35C668.827 273.284 669.446 272.356 670.235 271.566C671.024 270.777 671.952 270.169 673.019 269.742C674.086 269.294 675.238 269.07 676.475 269.07C677.734 269.07 678.886 269.294 679.931 269.742C680.998 270.169 681.926 270.777 682.715 271.566C683.504 272.356 684.112 273.284 684.539 274.35C684.987 275.417 685.211 276.58 685.211 277.838C685.211 279.097 684.987 280.26 684.539 281.326C684.112 282.393 683.504 283.332 682.715 284.142C681.926 284.932 680.998 285.55 679.931 285.998C678.886 286.425 677.734 286.638 676.475 286.638ZM676.475 281.87C677.52 281.87 678.352 281.497 678.971 280.75C679.611 279.982 679.931 279.012 679.931 277.838C679.931 276.644 679.611 275.684 678.971 274.958C678.352 274.212 677.52 273.838 676.475 273.838C675.43 273.838 674.587 274.212 673.947 274.958C673.328 275.684 673.019 276.644 673.019 277.838C673.019 279.012 673.328 279.982 673.947 280.75C674.587 281.497 675.43 281.87 676.475 281.87ZM687.823 286.126C687.823 283.396 687.823 280.644 687.823 277.87C687.823 275.076 687.823 272.313 687.823 269.582C688.697 269.582 689.583 269.582 690.479 269.582C691.375 269.582 692.249 269.582 693.103 269.582C693.103 269.732 693.103 269.87 693.103 269.998C693.103 270.126 693.103 270.265 693.103 270.414C693.679 270.009 694.319 269.7 695.023 269.486C695.748 269.252 696.527 269.134 697.359 269.134C698.575 269.134 699.641 269.412 700.559 269.966C701.497 270.521 702.223 271.321 702.735 272.366C703.268 273.39 703.535 274.628 703.535 276.078C703.535 277.742 703.535 279.417 703.535 281.102C703.535 282.788 703.535 284.462 703.535 286.126C702.681 286.126 701.807 286.126 700.911 286.126C700.015 286.126 699.129 286.126 698.255 286.126C698.255 284.59 698.255 283.033 698.255 281.454C698.255 279.876 698.255 278.318 698.255 276.782C698.255 275.929 698.052 275.246 697.647 274.734C697.263 274.201 696.644 273.934 695.791 273.934C694.937 273.934 694.276 274.18 693.807 274.67C693.337 275.161 693.103 275.865 693.103 276.782C693.103 278.318 693.103 279.876 693.103 281.454C693.103 283.033 693.103 284.59 693.103 286.126C692.249 286.126 691.375 286.126 690.479 286.126C689.583 286.126 688.697 286.126 687.823 286.126ZM721.031 285.358C719.559 285.977 718.098 286.361 716.647 286.51C715.197 286.66 713.821 286.574 712.519 286.254C711.239 285.956 710.098 285.433 709.095 284.686C708.093 283.94 707.303 282.99 706.727 281.838C706.173 280.686 705.895 279.353 705.895 277.838C705.895 276.58 706.098 275.428 706.503 274.382C706.93 273.316 707.527 272.388 708.295 271.598C709.063 270.788 709.97 270.169 711.015 269.742C712.061 269.294 713.202 269.07 714.439 269.07C715.549 269.07 716.551 269.252 717.447 269.614C718.343 269.977 719.122 270.489 719.783 271.15C720.445 271.79 720.978 272.558 721.383 273.454C721.789 274.35 722.045 275.332 722.151 276.398C722.258 277.465 722.194 278.596 721.959 279.79C720.21 279.79 718.45 279.79 716.679 279.79C714.909 279.79 713.149 279.79 711.399 279.79C711.805 280.601 712.477 281.177 713.415 281.518C714.375 281.86 715.506 281.966 716.807 281.838C718.13 281.71 719.538 281.369 721.031 280.814C721.031 281.561 721.031 282.318 721.031 283.086C721.031 283.854 721.031 284.612 721.031 285.358ZM714.311 273.806C713.693 273.806 713.117 273.977 712.583 274.318C712.071 274.66 711.677 275.182 711.399 275.886C712.359 275.886 713.319 275.886 714.279 275.886C715.261 275.886 716.231 275.886 717.191 275.886C716.935 275.161 716.551 274.638 716.039 274.318C715.549 273.977 714.973 273.806 714.311 273.806ZM725.108 286.126C725.108 282.265 725.108 278.372 725.108 274.446C725.108 270.521 725.108 266.628 725.108 262.766C725.982 262.766 726.868 262.766 727.764 262.766C728.66 262.766 729.534 262.766 730.388 262.766C730.388 266.628 730.388 270.521 730.388 274.446C730.388 278.372 730.388 282.265 730.388 286.126C729.534 286.126 728.66 286.126 727.764 286.126C726.868 286.126 725.982 286.126 725.108 286.126ZM735.609 291.246C736.035 290.116 736.473 288.974 736.921 287.822C737.39 286.692 737.838 285.572 738.265 284.462C737.262 282.009 736.238 279.534 735.193 277.038C734.169 274.521 733.155 272.036 732.152 269.582C733.091 269.582 734.03 269.582 734.969 269.582C735.907 269.582 736.835 269.582 737.753 269.582C738.307 270.948 738.862 272.334 739.417 273.742C739.993 275.15 740.558 276.548 741.113 277.934C741.625 276.548 742.147 275.15 742.681 273.742C743.214 272.334 743.737 270.948 744.249 269.582C745.166 269.582 746.083 269.582 747.001 269.582C747.918 269.582 748.835 269.582 749.753 269.582C748.323 273.145 746.883 276.761 745.433 280.43C744.003 284.078 742.574 287.684 741.145 291.246C740.227 291.246 739.299 291.246 738.361 291.246C737.443 291.246 736.526 291.246 735.609 291.246ZM774.041 279.694C774.041 281.124 773.678 282.361 772.953 283.406C772.249 284.452 771.267 285.262 770.009 285.838C768.75 286.393 767.289 286.67 765.625 286.67C764.067 286.67 762.681 286.425 761.465 285.934C760.27 285.422 759.321 284.697 758.617 283.758C757.934 282.798 757.593 281.668 757.593 280.366C757.593 279.3 757.827 278.318 758.297 277.422C758.787 276.526 759.523 275.758 760.505 275.118C759.715 274.521 759.129 273.828 758.745 273.038C758.382 272.228 758.201 271.342 758.201 270.382C758.201 268.974 758.574 267.801 759.321 266.862C760.089 265.924 761.113 265.22 762.393 264.75C763.673 264.281 765.091 264.036 766.649 264.014C768.206 263.972 769.785 264.153 771.385 264.558C771.385 265.412 771.385 266.276 771.385 267.15C771.385 268.025 771.385 268.9 771.385 269.774C770.489 269.518 769.582 269.337 768.665 269.23C767.769 269.124 766.947 269.113 766.201 269.198C765.454 269.284 764.846 269.465 764.377 269.742C763.929 270.02 763.705 270.414 763.705 270.926C763.705 271.588 764.153 272.046 765.049 272.302C765.945 272.537 767.182 272.654 768.761 272.654C768.761 272.27 768.761 271.886 768.761 271.502C768.761 271.097 768.761 270.702 768.761 270.318C769.635 270.318 770.521 270.318 771.417 270.318C772.313 270.318 773.187 270.318 774.041 270.318C774.041 270.702 774.041 271.097 774.041 271.502C774.041 271.886 774.041 272.27 774.041 272.654C774.361 272.654 774.691 272.654 775.033 272.654C775.374 272.654 775.705 272.654 776.025 272.654C776.025 273.444 776.025 274.233 776.025 275.022C776.025 275.812 776.025 276.601 776.025 277.39C775.705 277.39 775.374 277.39 775.033 277.39C774.691 277.39 774.361 277.39 774.041 277.39C774.041 277.774 774.041 278.158 774.041 278.542C774.041 278.926 774.041 279.31 774.041 279.694ZM763.193 279.566C763.193 280.185 763.417 280.708 763.865 281.134C764.334 281.54 764.985 281.742 765.817 281.742C766.713 281.742 767.427 281.529 767.961 281.102C768.494 280.654 768.761 280.036 768.761 279.246C768.761 278.948 768.761 278.638 768.761 278.318C768.761 277.998 768.761 277.689 768.761 277.39C767.011 277.39 765.646 277.518 764.665 277.774C763.683 278.03 763.193 278.628 763.193 279.566ZM784.177 277.838C784.177 276.217 784.507 274.798 785.169 273.582C785.83 272.345 786.747 271.353 787.921 270.606C789.094 269.86 790.459 269.412 792.017 269.262C793.574 269.092 795.238 269.273 797.009 269.806C797.009 270.617 797.009 271.438 797.009 272.27C797.009 273.102 797.009 273.924 797.009 274.734C795.771 274.137 794.587 273.86 793.457 273.902C792.326 273.945 791.398 274.297 790.673 274.958C789.947 275.598 789.585 276.558 789.585 277.838C789.585 279.118 789.947 280.089 790.673 280.75C791.398 281.39 792.326 281.732 793.457 281.774C794.587 281.796 795.771 281.518 797.009 280.942C797.009 281.753 797.009 282.574 797.009 283.406C797.009 284.238 797.009 285.06 797.009 285.87C795.238 286.404 793.574 286.585 792.017 286.414C790.459 286.265 789.094 285.817 787.921 285.07C786.747 284.324 785.83 283.342 785.169 282.126C784.507 280.889 784.177 279.46 784.177 277.838ZM807.975 286.638C806.738 286.638 805.586 286.425 804.519 285.998C803.452 285.55 802.524 284.932 801.735 284.142C800.946 283.332 800.327 282.393 799.879 281.326C799.452 280.26 799.239 279.097 799.239 277.838C799.239 276.58 799.452 275.417 799.879 274.35C800.327 273.284 800.946 272.356 801.735 271.566C802.524 270.777 803.452 270.169 804.519 269.742C805.586 269.294 806.738 269.07 807.975 269.07C809.234 269.07 810.386 269.294 811.431 269.742C812.498 270.169 813.426 270.777 814.215 271.566C815.004 272.356 815.612 273.284 816.039 274.35C816.487 275.417 816.711 276.58 816.711 277.838C816.711 279.097 816.487 280.26 816.039 281.326C815.612 282.393 815.004 283.332 814.215 284.142C813.426 284.932 812.498 285.55 811.431 285.998C810.386 286.425 809.234 286.638 807.975 286.638ZM807.975 281.87C809.02 281.87 809.852 281.497 810.471 280.75C811.111 279.982 811.431 279.012 811.431 277.838C811.431 276.644 811.111 275.684 810.471 274.958C809.852 274.212 809.02 273.838 807.975 273.838C806.93 273.838 806.087 274.212 805.447 274.958C804.828 275.684 804.519 276.644 804.519 277.838C804.519 279.012 804.828 279.982 805.447 280.75C806.087 281.497 806.93 281.87 807.975 281.87ZM819.483 286.126C819.483 282.265 819.483 278.372 819.483 274.446C819.483 270.521 819.483 266.628 819.483 262.766C820.357 262.766 821.243 262.766 822.139 262.766C823.035 262.766 823.909 262.766 824.763 262.766C824.763 266.628 824.763 270.521 824.763 274.446C824.763 278.372 824.763 282.265 824.763 286.126C823.909 286.126 823.035 286.126 822.139 286.126C821.243 286.126 820.357 286.126 819.483 286.126ZM839.488 286.126C839.488 285.956 839.488 285.796 839.488 285.646C839.488 285.476 839.488 285.316 839.488 285.166C838.954 285.614 838.346 285.956 837.664 286.19C837.002 286.446 836.288 286.574 835.52 286.574C834.432 286.574 833.408 286.361 832.448 285.934C831.488 285.508 830.634 284.91 829.888 284.142C829.162 283.353 828.586 282.425 828.16 281.358C827.754 280.292 827.552 279.118 827.552 277.838C827.552 276.537 827.754 275.353 828.16 274.286C828.586 273.22 829.162 272.302 829.888 271.534C830.634 270.766 831.488 270.18 832.448 269.774C833.408 269.348 834.421 269.134 835.488 269.134C836.256 269.134 836.981 269.262 837.664 269.518C838.346 269.753 838.954 270.084 839.488 270.51C839.488 269.23 839.488 267.94 839.488 266.638C839.488 265.337 839.488 264.046 839.488 262.766C840.362 262.766 841.248 262.766 842.144 262.766C843.04 262.766 843.914 262.766 844.767 262.766C844.767 266.628 844.767 270.521 844.767 274.446C844.767 278.372 844.767 282.265 844.767 286.126C843.914 286.126 843.04 286.126 842.144 286.126C841.248 286.126 840.362 286.126 839.488 286.126ZM836.224 281.902C837.248 281.902 838.069 281.529 838.688 280.782C839.306 280.036 839.616 279.054 839.616 277.838C839.616 276.622 839.306 275.652 838.688 274.926C838.069 274.18 837.248 273.806 836.224 273.806C835.178 273.806 834.346 274.169 833.728 274.894C833.13 275.62 832.832 276.601 832.832 277.838C832.832 279.076 833.13 280.068 833.728 280.814C834.346 281.54 835.178 281.902 836.224 281.902Z" fill="#888888"/>
<path d="M659.399 348.665C658.481 348.665 657.553 348.665 656.615 348.665C655.676 348.665 654.737 348.665 653.799 348.665C653.799 345.081 653.799 341.454 653.799 337.785C653.799 334.116 653.799 330.489 653.799 326.905C654.737 326.905 655.676 326.905 656.615 326.905C657.553 326.905 658.481 326.905 659.399 326.905C659.399 328.206 659.399 329.518 659.399 330.841C659.399 332.142 659.399 333.444 659.399 334.745C660.529 334.745 661.671 334.745 662.823 334.745C663.975 334.745 665.105 334.745 666.215 334.745C666.215 333.444 666.215 332.142 666.215 330.841C666.215 329.518 666.215 328.206 666.215 326.905C667.153 326.905 668.092 326.905 669.031 326.905C669.969 326.905 670.897 326.905 671.815 326.905C671.815 330.489 671.815 334.116 671.815 337.785C671.815 341.454 671.815 345.081 671.815 348.665C670.897 348.665 669.969 348.665 669.031 348.665C668.092 348.665 667.153 348.665 666.215 348.665C666.215 347.214 666.215 345.753 666.215 344.281C666.215 342.788 666.215 341.326 666.215 339.897C665.105 339.897 663.975 339.897 662.823 339.897C661.671 339.897 660.529 339.897 659.399 339.897C659.399 341.326 659.399 342.788 659.399 344.281C659.399 345.753 659.399 347.214 659.399 348.665ZM677.202 353.785C677.629 352.654 678.066 351.513 678.514 350.361C678.984 349.23 679.432 348.11 679.858 347.001C678.856 344.548 677.832 342.073 676.786 339.577C675.762 337.06 674.749 334.574 673.746 332.121C674.685 332.121 675.624 332.121 676.562 332.121C677.501 332.121 678.429 332.121 679.346 332.121C679.901 333.486 680.456 334.873 681.01 336.281C681.586 337.689 682.152 339.086 682.706 340.473C683.218 339.086 683.741 337.689 684.274 336.281C684.808 334.873 685.33 333.486 685.842 332.121C686.76 332.121 687.677 332.121 688.594 332.121C689.512 332.121 690.429 332.121 691.346 332.121C689.917 335.684 688.477 339.3 687.026 342.969C685.597 346.617 684.168 350.222 682.738 353.785C681.821 353.785 680.893 353.785 679.954 353.785C679.037 353.785 678.12 353.785 677.202 353.785ZM698.228 353.785C697.374 353.785 696.5 353.785 695.604 353.785C694.708 353.785 693.822 353.785 692.948 353.785C692.948 350.222 692.948 346.617 692.948 342.969C692.948 339.3 692.948 335.684 692.948 332.121C693.822 332.121 694.708 332.121 695.604 332.121C696.5 332.121 697.374 332.121 698.228 332.121C698.228 332.27 698.228 332.42 698.228 332.569C698.228 332.718 698.228 332.878 698.228 333.049C698.761 332.622 699.369 332.292 700.052 332.057C700.734 331.801 701.46 331.673 702.228 331.673C703.294 331.673 704.308 331.886 705.268 332.313C706.228 332.718 707.07 333.305 707.796 334.073C708.542 334.841 709.118 335.758 709.524 336.825C709.95 337.892 710.164 339.076 710.164 340.377C710.164 341.657 709.95 342.83 709.524 343.897C709.118 344.964 708.542 345.892 707.796 346.681C707.07 347.449 706.228 348.046 705.268 348.473C704.308 348.9 703.284 349.113 702.196 349.113C701.428 349.113 700.702 348.985 700.02 348.729C699.358 348.494 698.761 348.153 698.228 347.705C698.228 348.708 698.228 349.721 698.228 350.745C698.228 351.769 698.228 352.782 698.228 353.785ZM701.492 344.441C702.537 344.441 703.358 344.078 703.956 343.353C704.574 342.606 704.884 341.614 704.884 340.377C704.884 339.14 704.574 338.158 703.956 337.433C703.358 336.708 702.537 336.345 701.492 336.345C700.468 336.345 699.646 336.718 699.028 337.465C698.409 338.19 698.1 339.161 698.1 340.377C698.1 341.593 698.409 342.574 699.028 343.321C699.646 344.068 700.468 344.441 701.492 344.441ZM727.031 347.897C725.559 348.516 724.098 348.9 722.647 349.049C721.197 349.198 719.821 349.113 718.519 348.793C717.239 348.494 716.098 347.972 715.095 347.225C714.093 346.478 713.303 345.529 712.727 344.377C712.173 343.225 711.895 341.892 711.895 340.377C711.895 339.118 712.098 337.966 712.503 336.921C712.93 335.854 713.527 334.926 714.295 334.137C715.063 333.326 715.97 332.708 717.015 332.281C718.061 331.833 719.202 331.609 720.439 331.609C721.549 331.609 722.551 331.79 723.447 332.153C724.343 332.516 725.122 333.028 725.783 333.689C726.445 334.329 726.978 335.097 727.383 335.993C727.789 336.889 728.045 337.87 728.151 338.937C728.258 340.004 728.194 341.134 727.959 342.329C726.21 342.329 724.45 342.329 722.679 342.329C720.909 342.329 719.149 342.329 717.399 342.329C717.805 343.14 718.477 343.716 719.415 344.057C720.375 344.398 721.506 344.505 722.807 344.377C724.13 344.249 725.538 343.908 727.031 343.353C727.031 344.1 727.031 344.857 727.031 345.625C727.031 346.393 727.031 347.15 727.031 347.897ZM720.311 336.345C719.693 336.345 719.117 336.516 718.583 336.857C718.071 337.198 717.677 337.721 717.399 338.425C718.359 338.425 719.319 338.425 720.279 338.425C721.261 338.425 722.231 338.425 723.191 338.425C722.935 337.7 722.551 337.177 722.039 336.857C721.549 336.516 720.973 336.345 720.311 336.345ZM730.948 348.665C730.948 345.934 730.948 343.182 730.948 340.409C730.948 337.614 730.948 334.852 730.948 332.121C731.822 332.121 732.708 332.121 733.604 332.121C734.5 332.121 735.374 332.121 736.228 332.121C736.228 332.27 736.228 332.42 736.228 332.569C736.228 332.718 736.228 332.868 736.228 333.017C736.889 332.548 737.636 332.196 738.468 331.961C739.3 331.726 740.206 331.662 741.188 331.769C741.188 332.622 741.188 333.486 741.188 334.361C741.188 335.236 741.188 336.1 741.188 336.953C739.502 336.718 738.254 336.868 737.444 337.401C736.633 337.913 736.228 338.756 736.228 339.929C736.228 341.358 736.228 342.809 736.228 344.281C736.228 345.753 736.228 347.214 736.228 348.665C735.374 348.665 734.5 348.665 733.604 348.665C732.708 348.665 731.822 348.665 730.948 348.665ZM742.933 341.273C742.933 340.462 742.933 339.641 742.933 338.809C742.933 337.956 742.933 337.124 742.933 336.313C744.362 336.313 745.802 336.313 747.253 336.313C748.703 336.313 750.143 336.313 751.573 336.313C751.573 337.124 751.573 337.956 751.573 338.809C751.573 339.641 751.573 340.462 751.573 341.273C750.143 341.273 748.703 341.273 747.253 341.273C745.802 341.273 744.362 341.273 742.933 341.273ZM753.584 336.857C753.584 336.068 753.584 335.278 753.584 334.489C753.584 333.7 753.584 332.91 753.584 332.121C754.01 332.121 754.437 332.121 754.864 332.121C755.312 332.121 755.749 332.121 756.176 332.121C756.176 332.014 756.176 331.918 756.176 331.833C756.176 331.748 756.176 331.662 756.176 331.577C756.176 330.148 756.464 328.953 757.04 327.993C757.637 327.012 758.416 326.265 759.376 325.753C760.357 325.22 761.424 324.921 762.576 324.857C763.749 324.772 764.912 324.921 766.064 325.305C766.064 326.094 766.064 326.905 766.064 327.737C766.064 328.569 766.064 329.39 766.064 330.201C764.784 329.774 763.696 329.689 762.8 329.945C761.904 330.201 761.456 330.756 761.456 331.609C761.456 331.694 761.456 331.78 761.456 331.865C761.456 331.95 761.456 332.036 761.456 332.121C762.117 332.121 762.778 332.121 763.44 332.121C764.101 332.121 764.762 332.121 765.424 332.121C765.424 332.91 765.424 333.7 765.424 334.489C765.424 335.278 765.424 336.068 765.424 336.857C764.762 336.857 764.101 336.857 763.44 336.857C762.778 336.857 762.117 336.857 761.456 336.857C761.456 338.798 761.456 340.761 761.456 342.745C761.456 344.729 761.456 346.702 761.456 348.665C760.602 348.665 759.728 348.665 758.832 348.665C757.936 348.665 757.05 348.665 756.176 348.665C756.176 346.702 756.176 344.729 756.176 342.745C756.176 340.761 756.176 338.798 756.176 336.857C755.749 336.857 755.312 336.857 754.864 336.857C754.437 336.857 754.01 336.857 753.584 336.857ZM775.663 349.177C774.425 349.177 773.273 348.964 772.207 348.537C771.14 348.089 770.212 347.47 769.423 346.681C768.633 345.87 768.015 344.932 767.567 343.865C767.14 342.798 766.927 341.636 766.927 340.377C766.927 339.118 767.14 337.956 767.567 336.889C768.015 335.822 768.633 334.894 769.423 334.105C770.212 333.316 771.14 332.708 772.207 332.281C773.273 331.833 774.425 331.609 775.663 331.609C776.921 331.609 778.073 331.833 779.119 332.281C780.185 332.708 781.113 333.316 781.903 334.105C782.692 334.894 783.3 335.822 783.727 336.889C784.175 337.956 784.399 339.118 784.399 340.377C784.399 341.636 784.175 342.798 783.727 343.865C783.3 344.932 782.692 345.87 781.903 346.681C781.113 347.47 780.185 348.089 779.119 348.537C778.073 348.964 776.921 349.177 775.663 349.177ZM775.663 344.409C776.708 344.409 777.54 344.036 778.159 343.289C778.799 342.521 779.119 341.55 779.119 340.377C779.119 339.182 778.799 338.222 778.159 337.497C777.54 336.75 776.708 336.377 775.663 336.377C774.617 336.377 773.775 336.75 773.135 337.497C772.516 338.222 772.207 339.182 772.207 340.377C772.207 341.55 772.516 342.521 773.135 343.289C773.775 344.036 774.617 344.409 775.663 344.409ZM786.114 340.377C786.114 338.756 786.445 337.337 787.106 336.121C787.767 334.884 788.685 333.892 789.858 333.145C791.031 332.398 792.397 331.95 793.954 331.801C795.511 331.63 797.175 331.812 798.946 332.345C798.946 333.156 798.946 333.977 798.946 334.809C798.946 335.641 798.946 336.462 798.946 337.273C797.709 336.676 796.525 336.398 795.394 336.441C794.263 336.484 793.335 336.836 792.61 337.497C791.885 338.137 791.522 339.097 791.522 340.377C791.522 341.657 791.885 342.628 792.61 343.289C793.335 343.929 794.263 344.27 795.394 344.313C796.525 344.334 797.709 344.057 798.946 343.481C798.946 344.292 798.946 345.113 798.946 345.945C798.946 346.777 798.946 347.598 798.946 348.409C797.175 348.942 795.511 349.124 793.954 348.953C792.397 348.804 791.031 348.356 789.858 347.609C788.685 346.862 787.767 345.881 787.106 344.665C786.445 343.428 786.114 341.998 786.114 340.377ZM817.685 332.121C817.685 334.852 817.685 337.614 817.685 340.409C817.685 343.182 817.685 345.934 817.685 348.665C816.831 348.665 815.957 348.665 815.061 348.665C814.165 348.665 813.279 348.665 812.405 348.665C812.405 348.516 812.405 348.377 812.405 348.249C812.405 348.121 812.405 347.982 812.405 347.833C811.829 348.238 811.178 348.548 810.453 348.761C809.749 348.996 808.981 349.113 808.149 349.113C806.933 349.113 805.855 348.836 804.917 348.281C803.999 347.726 803.274 346.926 802.741 345.881C802.229 344.836 801.973 343.598 801.973 342.169C801.973 340.505 801.973 338.83 801.973 337.145C801.973 335.46 801.973 333.785 801.973 332.121C802.847 332.121 803.733 332.121 804.629 332.121C805.525 332.121 806.399 332.121 807.253 332.121C807.253 333.657 807.253 335.214 807.253 336.793C807.253 338.372 807.253 339.929 807.253 341.465C807.253 342.318 807.445 343.012 807.829 343.545C808.234 344.057 808.863 344.313 809.717 344.313C810.57 344.313 811.231 344.068 811.701 343.577C812.17 343.086 812.405 342.382 812.405 341.465C812.405 339.929 812.405 338.372 812.405 336.793C812.405 335.214 812.405 333.657 812.405 332.121C813.279 332.121 814.165 332.121 815.061 332.121C815.957 332.121 816.831 332.121 817.685 332.121ZM833.838 343.545C833.838 344.868 833.464 345.956 832.718 346.809C831.992 347.641 831.011 348.249 829.774 348.633C828.536 349.017 827.15 349.177 825.614 349.113C824.099 349.07 822.552 348.825 820.974 348.377C820.974 347.566 820.974 346.734 820.974 345.881C820.974 345.028 820.974 344.196 820.974 343.385C821.87 343.79 822.766 344.11 823.661 344.345C824.558 344.558 825.368 344.686 826.094 344.729C826.819 344.772 827.406 344.718 827.854 344.569C828.302 344.398 828.526 344.121 828.526 343.737C828.526 343.438 828.334 343.204 827.95 343.033C827.587 342.862 827.107 342.713 826.51 342.585C825.912 342.436 825.272 342.265 824.59 342.073C823.928 341.86 823.299 341.572 822.702 341.209C822.104 340.825 821.614 340.324 821.23 339.705C820.867 339.065 820.686 338.244 820.686 337.241C820.686 336.046 821.027 335.033 821.71 334.201C822.414 333.348 823.352 332.708 824.526 332.281C825.699 331.833 827.011 331.609 828.462 331.609C829.912 331.609 831.395 331.854 832.91 332.345C832.91 333.156 832.91 333.988 832.91 334.841C832.91 335.694 832.91 336.526 832.91 337.337C831.715 336.761 830.595 336.377 829.55 336.185C828.504 335.993 827.662 335.972 827.022 336.121C826.382 336.249 826.062 336.537 826.062 336.985C826.062 337.284 826.243 337.518 826.606 337.689C826.99 337.838 827.47 337.977 828.046 338.105C828.643 338.233 829.272 338.404 829.934 338.617C830.616 338.83 831.246 339.129 831.822 339.513C832.419 339.876 832.899 340.388 833.262 341.049C833.646 341.689 833.838 342.521 833.838 343.545ZM850.625 347.897C849.153 348.516 847.692 348.9 846.241 349.049C844.79 349.198 843.414 349.113 842.113 348.793C840.833 348.494 839.692 347.972 838.689 347.225C837.686 346.478 836.897 345.529 836.321 344.377C835.766 343.225 835.489 341.892 835.489 340.377C835.489 339.118 835.692 337.966 836.097 336.921C836.524 335.854 837.121 334.926 837.889 334.137C838.657 333.326 839.564 332.708 840.609 332.281C841.654 331.833 842.796 331.609 844.033 331.609C845.142 331.609 846.145 331.79 847.041 332.153C847.937 332.516 848.716 333.028 849.377 333.689C850.038 334.329 850.572 335.097 850.977 335.993C851.382 336.889 851.638 337.87 851.745 338.937C851.852 340.004 851.788 341.134 851.553 342.329C849.804 342.329 848.044 342.329 846.273 342.329C844.502 342.329 842.742 342.329 840.993 342.329C841.398 343.14 842.07 343.716 843.009 344.057C843.969 344.398 845.1 344.505 846.401 344.377C847.724 344.249 849.132 343.908 850.625 343.353C850.625 344.1 850.625 344.857 850.625 345.625C850.625 346.393 850.625 347.15 850.625 347.897ZM843.905 336.345C843.286 336.345 842.71 336.516 842.177 336.857C841.665 337.198 841.27 337.721 840.993 338.425C841.953 338.425 842.913 338.425 843.873 338.425C844.854 338.425 845.825 338.425 846.785 338.425C846.529 337.7 846.145 337.177 845.633 336.857C845.142 336.516 844.566 336.345 843.905 336.345ZM865.581 348.665C865.581 348.494 865.581 348.334 865.581 348.185C865.581 348.014 865.581 347.854 865.581 347.705C865.048 348.153 864.44 348.494 863.757 348.729C863.096 348.985 862.381 349.113 861.613 349.113C860.525 349.113 859.501 348.9 858.541 348.473C857.581 348.046 856.728 347.449 855.981 346.681C855.256 345.892 854.68 344.964 854.253 343.897C853.848 342.83 853.645 341.657 853.645 340.377C853.645 339.076 853.848 337.892 854.253 336.825C854.68 335.758 855.256 334.841 855.981 334.073C856.728 333.305 857.581 332.718 858.541 332.313C859.501 331.886 860.515 331.673 861.581 331.673C862.349 331.673 863.075 331.801 863.757 332.057C864.44 332.292 865.048 332.622 865.581 333.049C865.581 331.769 865.581 330.478 865.581 329.177C865.581 327.876 865.581 326.585 865.581 325.305C866.456 325.305 867.341 325.305 868.237 325.305C869.133 325.305 870.008 325.305 870.861 325.305C870.861 329.166 870.861 333.06 870.861 336.985C870.861 340.91 870.861 344.804 870.861 348.665C870.008 348.665 869.133 348.665 868.237 348.665C867.341 348.665 866.456 348.665 865.581 348.665ZM862.317 344.441C863.341 344.441 864.163 344.068 864.781 343.321C865.4 342.574 865.709 341.593 865.709 340.377C865.709 339.161 865.4 338.19 864.781 337.465C864.163 336.718 863.341 336.345 862.317 336.345C861.272 336.345 860.44 336.708 859.821 337.433C859.224 338.158 858.925 339.14 858.925 340.377C858.925 341.614 859.224 342.606 859.821 343.353C860.44 344.078 861.272 344.441 862.317 344.441Z" fill="#888888"/>
<path d="M653.799 409.01C653.799 405.426 653.799 401.799 653.799 398.13C653.799 394.46 653.799 390.834 653.799 387.25C655.079 387.25 656.359 387.25 657.639 387.25C658.94 387.25 660.231 387.25 661.511 387.25C663.132 387.25 664.551 387.559 665.767 388.178C666.983 388.775 667.921 389.628 668.583 390.738C669.265 391.826 669.607 393.106 669.607 394.578C669.607 395.836 669.351 396.956 668.839 397.938C668.327 398.919 667.633 399.719 666.759 400.338C667.612 401.767 668.465 403.218 669.319 404.69C670.193 406.14 671.057 407.58 671.911 409.01C670.865 409.01 669.82 409.01 668.775 409.01C667.729 409.01 666.684 409.01 665.639 409.01C664.977 407.815 664.305 406.599 663.623 405.362C662.961 404.124 662.289 402.908 661.607 401.714C661.244 401.714 660.871 401.714 660.487 401.714C660.124 401.714 659.761 401.714 659.399 401.714C659.399 402.908 659.399 404.124 659.399 405.362C659.399 406.599 659.399 407.815 659.399 409.01C658.481 409.01 657.553 409.01 656.615 409.01C655.676 409.01 654.737 409.01 653.799 409.01ZM661.511 392.306C661.169 392.306 660.817 392.306 660.455 392.306C660.113 392.306 659.761 392.306 659.399 392.306C659.399 393.095 659.399 393.884 659.399 394.674C659.399 395.463 659.399 396.252 659.399 397.042C659.804 397.042 660.209 397.042 660.615 397.042C661.02 397.042 661.425 397.042 661.831 397.042C662.471 397.042 662.993 396.818 663.399 396.37C663.804 395.9 664.007 395.335 664.007 394.674C664.007 393.991 663.783 393.426 663.335 392.978C662.908 392.53 662.3 392.306 661.511 392.306ZM687.281 408.242C685.809 408.86 684.348 409.244 682.897 409.394C681.447 409.543 680.071 409.458 678.769 409.138C677.489 408.839 676.348 408.316 675.345 407.57C674.343 406.823 673.553 405.874 672.977 404.722C672.423 403.57 672.145 402.236 672.145 400.722C672.145 399.463 672.348 398.311 672.753 397.266C673.18 396.199 673.777 395.271 674.545 394.482C675.313 393.671 676.22 393.052 677.265 392.626C678.311 392.178 679.452 391.954 680.689 391.954C681.799 391.954 682.801 392.135 683.697 392.498C684.593 392.86 685.372 393.372 686.033 394.034C686.695 394.674 687.228 395.442 687.633 396.338C688.039 397.234 688.295 398.215 688.401 399.282C688.508 400.348 688.444 401.479 688.209 402.674C686.46 402.674 684.7 402.674 682.929 402.674C681.159 402.674 679.399 402.674 677.649 402.674C678.055 403.484 678.727 404.06 679.665 404.402C680.625 404.743 681.756 404.85 683.057 404.722C684.38 404.594 685.788 404.252 687.281 403.698C687.281 404.444 687.281 405.202 687.281 405.97C687.281 406.738 687.281 407.495 687.281 408.242ZM680.561 396.69C679.943 396.69 679.367 396.86 678.833 397.202C678.321 397.543 677.927 398.066 677.649 398.77C678.609 398.77 679.569 398.77 680.529 398.77C681.511 398.77 682.481 398.77 683.441 398.77C683.185 398.044 682.801 397.522 682.289 397.202C681.799 396.86 681.223 396.69 680.561 396.69ZM702.238 409.01C702.238 408.839 702.238 408.679 702.238 408.53C702.238 408.359 702.238 408.199 702.238 408.05C701.704 408.498 701.096 408.839 700.414 409.074C699.752 409.33 699.038 409.458 698.27 409.458C697.182 409.458 696.158 409.244 695.198 408.818C694.238 408.391 693.384 407.794 692.638 407.026C691.912 406.236 691.336 405.308 690.91 404.242C690.504 403.175 690.302 402.002 690.302 400.722C690.302 399.42 690.504 398.236 690.91 397.17C691.336 396.103 691.912 395.186 692.638 394.418C693.384 393.65 694.238 393.063 695.198 392.658C696.158 392.231 697.171 392.018 698.238 392.018C699.006 392.018 699.731 392.146 700.414 392.402C701.096 392.636 701.704 392.967 702.238 393.394C702.238 392.114 702.238 390.823 702.238 389.522C702.238 388.22 702.238 386.93 702.238 385.65C703.112 385.65 703.998 385.65 704.894 385.65C705.79 385.65 706.664 385.65 707.517 385.65C707.517 389.511 707.517 393.404 707.517 397.33C707.517 401.255 707.517 405.148 707.517 409.01C706.664 409.01 705.79 409.01 704.894 409.01C703.998 409.01 703.112 409.01 702.238 409.01ZM698.974 404.786C699.998 404.786 700.819 404.412 701.438 403.666C702.056 402.919 702.366 401.938 702.366 400.722C702.366 399.506 702.056 398.535 701.438 397.81C700.819 397.063 699.998 396.69 698.974 396.69C697.928 396.69 697.096 397.052 696.478 397.778C695.88 398.503 695.582 399.484 695.582 400.722C695.582 401.959 695.88 402.951 696.478 403.698C697.096 404.423 697.928 404.786 698.974 404.786ZM725.438 408.242C723.966 408.86 722.504 409.244 721.054 409.394C719.603 409.543 718.227 409.458 716.926 409.138C715.646 408.839 714.504 408.316 713.502 407.57C712.499 406.823 711.71 405.874 711.134 404.722C710.579 403.57 710.302 402.236 710.302 400.722C710.302 399.463 710.504 398.311 710.91 397.266C711.336 396.199 711.934 395.271 712.702 394.482C713.47 393.671 714.376 393.052 715.422 392.626C716.467 392.178 717.608 391.954 718.845 391.954C719.955 391.954 720.958 392.135 721.854 392.498C722.75 392.86 723.528 393.372 724.19 394.034C724.851 394.674 725.384 395.442 725.79 396.338C726.195 397.234 726.451 398.215 726.558 399.282C726.664 400.348 726.6 401.479 726.366 402.674C724.616 402.674 722.856 402.674 721.086 402.674C719.315 402.674 717.555 402.674 715.806 402.674C716.211 403.484 716.883 404.06 717.822 404.402C718.782 404.743 719.912 404.85 721.214 404.722C722.536 404.594 723.944 404.252 725.438 403.698C725.438 404.444 725.438 405.202 725.438 405.97C725.438 406.738 725.438 407.495 725.438 408.242ZM718.718 396.69C718.099 396.69 717.523 396.86 716.99 397.202C716.478 397.543 716.083 398.066 715.806 398.77C716.766 398.77 717.726 398.77 718.686 398.77C719.667 398.77 720.638 398.77 721.598 398.77C721.342 398.044 720.958 397.522 720.446 397.202C719.955 396.86 719.379 396.69 718.718 396.69ZM729.354 409.01C729.354 406.279 729.354 403.527 729.354 400.754C729.354 397.959 729.354 395.196 729.354 392.466C730.228 392.466 731.114 392.466 732.01 392.466C732.906 392.466 733.78 392.466 734.634 392.466C734.634 392.615 734.634 392.754 734.634 392.882C734.634 393.01 734.634 393.148 734.634 393.298C735.188 392.892 735.807 392.583 736.49 392.37C737.172 392.135 737.876 392.018 738.602 392.018C739.391 392.018 740.116 392.156 740.778 392.434C741.439 392.69 742.004 393.074 742.474 393.586C743.156 393.095 743.924 392.711 744.778 392.434C745.652 392.156 746.548 392.018 747.466 392.018C748.767 392.018 749.887 392.284 750.826 392.818C751.786 393.351 752.522 394.108 753.034 395.09C753.567 396.071 753.834 397.255 753.834 398.642C753.834 400.348 753.834 402.076 753.834 403.826C753.834 405.575 753.834 407.303 753.834 409.01C752.98 409.01 752.106 409.01 751.21 409.01C750.314 409.01 749.428 409.01 748.554 409.01C748.554 407.41 748.554 405.788 748.554 404.146C748.554 402.503 748.554 400.882 748.554 399.282C748.554 398.556 748.383 397.97 748.042 397.522C747.722 397.052 747.199 396.818 746.474 396.818C745.77 396.818 745.215 397.042 744.81 397.49C744.426 397.916 744.234 398.514 744.234 399.282C744.234 400.882 744.234 402.503 744.234 404.146C744.234 405.788 744.234 407.41 744.234 409.01C743.38 409.01 742.506 409.01 741.61 409.01C740.714 409.01 739.828 409.01 738.954 409.01C738.954 407.41 738.954 405.788 738.954 404.146C738.954 402.503 738.954 400.882 738.954 399.282C738.954 398.556 738.783 397.97 738.442 397.522C738.122 397.052 737.599 396.818 736.874 396.818C736.17 396.818 735.615 397.042 735.21 397.49C734.826 397.916 734.634 398.514 734.634 399.282C734.634 400.882 734.634 402.503 734.634 404.146C734.634 405.788 734.634 407.41 734.634 409.01C733.78 409.01 732.906 409.01 732.01 409.01C731.114 409.01 730.228 409.01 729.354 409.01ZM762.384 414.13C761.53 414.13 760.656 414.13 759.76 414.13C758.864 414.13 757.978 414.13 757.104 414.13C757.104 410.567 757.104 406.962 757.104 403.314C757.104 399.644 757.104 396.028 757.104 392.466C757.978 392.466 758.864 392.466 759.76 392.466C760.656 392.466 761.53 392.466 762.384 392.466C762.384 392.615 762.384 392.764 762.384 392.914C762.384 393.063 762.384 393.223 762.384 393.394C762.917 392.967 763.525 392.636 764.208 392.402C764.89 392.146 765.616 392.018 766.384 392.018C767.45 392.018 768.464 392.231 769.424 392.658C770.384 393.063 771.226 393.65 771.952 394.418C772.698 395.186 773.274 396.103 773.68 397.17C774.106 398.236 774.32 399.42 774.32 400.722C774.32 402.002 774.106 403.175 773.68 404.242C773.274 405.308 772.698 406.236 771.952 407.026C771.226 407.794 770.384 408.391 769.424 408.818C768.464 409.244 767.44 409.458 766.352 409.458C765.584 409.458 764.858 409.33 764.176 409.074C763.514 408.839 762.917 408.498 762.384 408.05C762.384 409.052 762.384 410.066 762.384 411.09C762.384 412.114 762.384 413.127 762.384 414.13ZM765.648 404.786C766.693 404.786 767.514 404.423 768.112 403.698C768.73 402.951 769.04 401.959 769.04 400.722C769.04 399.484 768.73 398.503 768.112 397.778C767.514 397.052 766.693 396.69 765.648 396.69C764.624 396.69 763.802 397.063 763.184 397.81C762.565 398.535 762.256 399.506 762.256 400.722C762.256 401.938 762.565 402.919 763.184 403.666C763.802 404.412 764.624 404.786 765.648 404.786ZM778.519 409.01C778.519 407.047 778.519 405.074 778.519 403.09C778.519 401.106 778.519 399.143 778.519 397.202C778.093 397.202 777.655 397.202 777.207 397.202C776.781 397.202 776.354 397.202 775.927 397.202C775.927 396.412 775.927 395.623 775.927 394.834C775.927 394.044 775.927 393.255 775.927 392.466C776.354 392.466 776.781 392.466 777.207 392.466C777.655 392.466 778.093 392.466 778.519 392.466C778.519 391.719 778.519 390.983 778.519 390.258C778.519 389.511 778.519 388.775 778.519 388.05C779.394 388.05 780.279 388.05 781.175 388.05C782.071 388.05 782.946 388.05 783.799 388.05C783.799 388.775 783.799 389.511 783.799 390.258C783.799 390.983 783.799 391.719 783.799 392.466C784.29 392.466 784.791 392.466 785.303 392.466C785.815 392.466 786.317 392.466 786.807 392.466C786.807 393.255 786.807 394.044 786.807 394.834C786.807 395.623 786.807 396.412 786.807 397.202C786.317 397.202 785.815 397.202 785.303 397.202C784.791 397.202 784.29 397.202 783.799 397.202C783.799 399.143 783.799 401.106 783.799 403.09C783.799 405.074 783.799 407.047 783.799 409.01C782.946 409.01 782.071 409.01 781.175 409.01C780.279 409.01 779.394 409.01 778.519 409.01ZM792.17 390.578C791.551 390.578 790.986 390.428 790.474 390.13C789.983 389.831 789.588 389.436 789.29 388.946C788.991 388.455 788.842 387.911 788.842 387.314C788.842 386.716 788.991 386.183 789.29 385.714C789.588 385.223 789.983 384.828 790.474 384.53C790.986 384.231 791.551 384.082 792.17 384.082C792.767 384.082 793.311 384.231 793.802 384.53C794.314 384.828 794.719 385.223 795.018 385.714C795.316 386.183 795.466 386.716 795.466 387.314C795.466 387.911 795.316 388.455 795.018 388.946C794.719 389.436 794.314 389.831 793.802 390.13C793.311 390.428 792.767 390.578 792.17 390.578ZM789.514 409.01C789.514 406.279 789.514 403.527 789.514 400.754C789.514 397.959 789.514 395.196 789.514 392.466C790.388 392.466 791.274 392.466 792.17 392.466C793.066 392.466 793.94 392.466 794.794 392.466C794.794 395.196 794.794 397.959 794.794 400.754C794.794 403.527 794.794 406.279 794.794 409.01C793.94 409.01 793.066 409.01 792.17 409.01C791.274 409.01 790.388 409.01 789.514 409.01ZM806.319 409.522C805.081 409.522 803.929 409.308 802.863 408.882C801.796 408.434 800.868 407.815 800.079 407.026C799.289 406.215 798.671 405.276 798.223 404.21C797.796 403.143 797.583 401.98 797.583 400.722C797.583 399.463 797.796 398.3 798.223 397.234C798.671 396.167 799.289 395.239 800.079 394.45C800.868 393.66 801.796 393.052 802.863 392.626C803.929 392.178 805.081 391.954 806.319 391.954C807.577 391.954 808.729 392.178 809.775 392.626C810.841 393.052 811.769 393.66 812.559 394.45C813.348 395.239 813.956 396.167 814.383 397.234C814.831 398.3 815.055 399.463 815.055 400.722C815.055 401.98 814.831 403.143 814.383 404.21C813.956 405.276 813.348 406.215 812.559 407.026C811.769 407.815 810.841 408.434 809.775 408.882C808.729 409.308 807.577 409.522 806.319 409.522ZM806.319 404.754C807.364 404.754 808.196 404.38 808.815 403.634C809.455 402.866 809.775 401.895 809.775 400.722C809.775 399.527 809.455 398.567 808.815 397.842C808.196 397.095 807.364 396.722 806.319 396.722C805.273 396.722 804.431 397.095 803.791 397.842C803.172 398.567 802.863 399.527 802.863 400.722C802.863 401.895 803.172 402.866 803.791 403.634C804.431 404.38 805.273 404.754 806.319 404.754ZM817.666 409.01C817.666 406.279 817.666 403.527 817.666 400.754C817.666 397.959 817.666 395.196 817.666 392.466C818.541 392.466 819.426 392.466 820.322 392.466C821.218 392.466 822.093 392.466 822.946 392.466C822.946 392.615 822.946 392.754 822.946 392.882C822.946 393.01 822.946 393.148 822.946 393.298C823.522 392.892 824.162 392.583 824.866 392.37C825.592 392.135 826.37 392.018 827.202 392.018C828.418 392.018 829.485 392.295 830.402 392.85C831.341 393.404 832.066 394.204 832.578 395.25C833.112 396.274 833.378 397.511 833.378 398.962C833.378 400.626 833.378 402.3 833.378 403.986C833.378 405.671 833.378 407.346 833.378 409.01C832.525 409.01 831.65 409.01 830.754 409.01C829.858 409.01 828.973 409.01 828.098 409.01C828.098 407.474 828.098 405.916 828.098 404.338C828.098 402.759 828.098 401.202 828.098 399.666C828.098 398.812 827.896 398.13 827.49 397.618C827.106 397.084 826.488 396.818 825.634 396.818C824.781 396.818 824.12 397.063 823.65 397.554C823.181 398.044 822.946 398.748 822.946 399.666C822.946 401.202 822.946 402.759 822.946 404.338C822.946 405.916 822.946 407.474 822.946 409.01C822.093 409.01 821.218 409.01 820.322 409.01C819.426 409.01 818.541 409.01 817.666 409.01ZM859.322 402.578C859.322 404.007 858.959 405.244 858.234 406.29C857.53 407.335 856.548 408.146 855.29 408.722C854.031 409.276 852.57 409.554 850.906 409.554C849.348 409.554 847.962 409.308 846.746 408.818C845.551 408.306 844.602 407.58 843.898 406.642C843.215 405.682 842.874 404.551 842.874 403.25C842.874 402.183 843.108 401.202 843.578 400.306C844.068 399.41 844.804 398.642 845.786 398.002C844.996 397.404 844.41 396.711 844.026 395.922C843.663 395.111 843.482 394.226 843.482 393.266C843.482 391.858 843.855 390.684 844.602 389.746C845.37 388.807 846.394 388.103 847.674 387.634C848.954 387.164 850.372 386.919 851.93 386.898C853.487 386.855 855.066 387.036 856.666 387.442C856.666 388.295 856.666 389.159 856.666 390.034C856.666 390.908 856.666 391.783 856.666 392.658C855.77 392.402 854.863 392.22 853.946 392.114C853.05 392.007 852.228 391.996 851.482 392.082C850.735 392.167 850.127 392.348 849.658 392.626C849.21 392.903 848.986 393.298 848.986 393.81C848.986 394.471 849.434 394.93 850.33 395.186C851.226 395.42 852.463 395.538 854.042 395.538C854.042 395.154 854.042 394.77 854.042 394.386C854.042 393.98 854.042 393.586 854.042 393.202C854.916 393.202 855.802 393.202 856.698 393.202C857.594 393.202 858.468 393.202 859.322 393.202C859.322 393.586 859.322 393.98 859.322 394.386C859.322 394.77 859.322 395.154 859.322 395.538C859.642 395.538 859.972 395.538 860.314 395.538C860.655 395.538 860.986 395.538 861.306 395.538C861.306 396.327 861.306 397.116 861.306 397.906C861.306 398.695 861.306 399.484 861.306 400.274C860.986 400.274 860.655 400.274 860.314 400.274C859.972 400.274 859.642 400.274 859.322 400.274C859.322 400.658 859.322 401.042 859.322 401.426C859.322 401.81 859.322 402.194 859.322 402.578ZM848.474 402.45C848.474 403.068 848.698 403.591 849.146 404.018C849.615 404.423 850.266 404.626 851.098 404.626C851.994 404.626 852.708 404.412 853.242 403.986C853.775 403.538 854.042 402.919 854.042 402.13C854.042 401.831 854.042 401.522 854.042 401.202C854.042 400.882 854.042 400.572 854.042 400.274C852.292 400.274 850.927 400.402 849.946 400.658C848.964 400.914 848.474 401.511 848.474 402.45ZM870.514 409.01C870.514 405.148 870.514 401.255 870.514 397.33C870.514 393.404 870.514 389.511 870.514 385.65C871.388 385.65 872.274 385.65 873.17 385.65C874.066 385.65 874.94 385.65 875.794 385.65C875.794 386.908 875.794 388.188 875.794 389.49C875.794 390.77 875.794 392.039 875.794 393.298C876.37 392.892 877.01 392.583 877.714 392.37C878.439 392.135 879.218 392.018 880.05 392.018C881.266 392.018 882.332 392.295 883.25 392.85C884.188 393.404 884.914 394.204 885.426 395.25C885.959 396.274 886.226 397.511 886.226 398.962C886.226 400.626 886.226 402.3 886.226 403.986C886.226 405.671 886.226 407.346 886.226 409.01C885.372 409.01 884.498 409.01 883.602 409.01C882.706 409.01 881.82 409.01 880.946 409.01C880.946 407.474 880.946 405.916 880.946 404.338C880.946 402.759 880.946 401.202 880.946 399.666C880.946 398.812 880.743 398.13 880.338 397.618C879.954 397.084 879.335 396.818 878.482 396.818C877.628 396.818 876.967 397.063 876.498 397.554C876.028 398.044 875.794 398.748 875.794 399.666C875.794 401.202 875.794 402.759 875.794 404.338C875.794 405.916 875.794 407.474 875.794 409.01C874.94 409.01 874.066 409.01 873.17 409.01C872.274 409.01 871.388 409.01 870.514 409.01ZM897.35 409.522C896.113 409.522 894.961 409.308 893.894 408.882C892.827 408.434 891.899 407.815 891.11 407.026C890.321 406.215 889.702 405.276 889.254 404.21C888.827 403.143 888.614 401.98 888.614 400.722C888.614 399.463 888.827 398.3 889.254 397.234C889.702 396.167 890.321 395.239 891.11 394.45C891.899 393.66 892.827 393.052 893.894 392.626C894.961 392.178 896.113 391.954 897.35 391.954C898.609 391.954 899.761 392.178 900.806 392.626C901.873 393.052 902.801 393.66 903.59 394.45C904.379 395.239 904.987 396.167 905.414 397.234C905.862 398.3 906.086 399.463 906.086 400.722C906.086 401.98 905.862 403.143 905.414 404.21C904.987 405.276 904.379 406.215 903.59 407.026C902.801 407.815 901.873 408.434 900.806 408.882C899.761 409.308 898.609 409.522 897.35 409.522ZM897.35 404.754C898.395 404.754 899.227 404.38 899.846 403.634C900.486 402.866 900.806 401.895 900.806 400.722C900.806 399.527 900.486 398.567 899.846 397.842C899.227 397.095 898.395 396.722 897.35 396.722C896.305 396.722 895.462 397.095 894.822 397.842C894.203 398.567 893.894 399.527 893.894 400.722C893.894 401.895 894.203 402.866 894.822 403.634C895.462 404.38 896.305 404.754 897.35 404.754ZM913.978 414.13C913.124 414.13 912.25 414.13 911.354 414.13C910.458 414.13 909.572 414.13 908.698 414.13C908.698 410.567 908.698 406.962 908.698 403.314C908.698 399.644 908.698 396.028 908.698 392.466C909.572 392.466 910.458 392.466 911.354 392.466C912.25 392.466 913.124 392.466 913.978 392.466C913.978 392.615 913.978 392.764 913.978 392.914C913.978 393.063 913.978 393.223 913.978 393.394C914.511 392.967 915.119 392.636 915.802 392.402C916.484 392.146 917.21 392.018 917.978 392.018C919.044 392.018 920.058 392.231 921.018 392.658C921.978 393.063 922.82 393.65 923.546 394.418C924.292 395.186 924.868 396.103 925.274 397.17C925.7 398.236 925.914 399.42 925.914 400.722C925.914 402.002 925.7 403.175 925.274 404.242C924.868 405.308 924.292 406.236 923.546 407.026C922.82 407.794 921.978 408.391 921.018 408.818C920.058 409.244 919.034 409.458 917.946 409.458C917.178 409.458 916.452 409.33 915.77 409.074C915.108 408.839 914.511 408.498 913.978 408.05C913.978 409.052 913.978 410.066 913.978 411.09C913.978 412.114 913.978 413.127 913.978 414.13ZM917.242 404.786C918.287 404.786 919.108 404.423 919.706 403.698C920.324 402.951 920.634 401.959 920.634 400.722C920.634 399.484 920.324 398.503 919.706 397.778C919.108 397.052 918.287 396.69 917.242 396.69C916.218 396.69 915.396 397.063 914.778 397.81C914.159 398.535 913.85 399.506 913.85 400.722C913.85 401.938 914.159 402.919 914.778 403.666C915.396 404.412 916.218 404.786 917.242 404.786ZM942.781 408.242C941.309 408.86 939.848 409.244 938.397 409.394C936.947 409.543 935.571 409.458 934.269 409.138C932.989 408.839 931.848 408.316 930.845 407.57C929.843 406.823 929.053 405.874 928.477 404.722C927.923 403.57 927.645 402.236 927.645 400.722C927.645 399.463 927.848 398.311 928.253 397.266C928.68 396.199 929.277 395.271 930.045 394.482C930.813 393.671 931.72 393.052 932.765 392.626C933.811 392.178 934.952 391.954 936.189 391.954C937.299 391.954 938.301 392.135 939.197 392.498C940.093 392.86 940.872 393.372 941.533 394.034C942.195 394.674 942.728 395.442 943.133 396.338C943.539 397.234 943.795 398.215 943.901 399.282C944.008 400.348 943.944 401.479 943.709 402.674C941.96 402.674 940.2 402.674 938.429 402.674C936.659 402.674 934.899 402.674 933.149 402.674C933.555 403.484 934.227 404.06 935.165 404.402C936.125 404.743 937.256 404.85 938.557 404.722C939.88 404.594 941.288 404.252 942.781 403.698C942.781 404.444 942.781 405.202 942.781 405.97C942.781 406.738 942.781 407.495 942.781 408.242ZM936.061 396.69C935.443 396.69 934.867 396.86 934.333 397.202C933.821 397.543 933.427 398.066 933.149 398.77C934.109 398.77 935.069 398.77 936.029 398.77C937.011 398.77 937.981 398.77 938.941 398.77C938.685 398.044 938.301 397.522 937.789 397.202C937.299 396.86 936.723 396.69 936.061 396.69Z" fill="#888888"/>
<path d="M1061.51 301.636C1053.3 288.376 1025.24 274.94 1036.5 289.498C1045.2 300.743 1054.3 302.044 1061.51 301.636Z" stroke="#404040" stroke-width="3.58901"/>
<path d="M1072.04 308.141C1068.46 323.371 1046.12 345.227 1052.19 327.775C1056.87 314.294 1065.09 310.099 1072.04 308.141Z" stroke="#404040" stroke-width="3.58901"/>
<path d="M652.89 305.649L1057.98 307.086" stroke="#404040" stroke-width="3.58901"/>
<ellipse cx="6.15424" cy="11.869" rx="6.15424" ry="11.869" transform="matrix(0.999994 0.00354699 -0.00339759 0.999994 1069.16 275.943)" fill="#AE88FD"/>
<ellipse cx="6.20072" cy="11.7814" rx="6.20072" ry="11.7814" transform="matrix(0.699381 0.714853 -0.704222 0.709875 1091.83 281.021)" fill="#AE88FD"/>
<ellipse cx="6.24264" cy="11.7012" rx="6.24264" ry="11.7012" transform="matrix(0.207804 0.978202 -0.976852 0.213768 1069.14 300.931)" fill="#AE88FD"/>
<ellipse cx="6.22636" cy="11.7324" rx="6.22636" ry="11.7324" transform="matrix(-0.4693 0.882969 -0.877138 -0.480368 1074.59 295.283)" fill="#AE88FD"/>
<ellipse cx="6.16586" cy="11.8472" rx="6.16586" ry="11.8472" transform="matrix(-0.932565 -0.361141 0.351778 -0.936031 1070.58 334.757)" fill="#AE88FD"/>
<ellipse cx="6.20072" cy="11.7814" rx="6.20072" ry="11.7814" transform="matrix(-0.704222 0.709875 -0.699381 -0.714853 1098.22 323.007)" fill="#AE88FD"/>
<ellipse cx="6.24685" cy="11.693" rx="6.24685" ry="11.693" transform="matrix(-0.00339759 0.999994 -0.999994 -0.00354699 1104.77 300.433)" fill="#AE88FD"/>
<ellipse cx="10.4048" cy="10.5614" rx="10.4048" ry="10.5614" transform="matrix(0.999994 0.00354699 -0.00339759 0.999994 1065.15 294.035)" fill="#FFE1E1"/>
<path d="M1061.24 361.44C1053.03 348.18 1024.97 334.745 1036.23 349.302C1044.93 360.547 1054.03 361.848 1061.24 361.44Z" stroke="#404040" stroke-width="3.58901"/>
<path d="M1071.77 367.945C1068.19 383.176 1045.85 405.031 1051.92 387.579C1056.61 374.098 1064.82 369.904 1071.77 367.945Z" stroke="#404040" stroke-width="3.58901"/>
<path d="M652.622 365.453L1057.72 366.89" stroke="#404040" stroke-width="3.58901"/>
<ellipse cx="6.15424" cy="11.869" rx="6.15424" ry="11.869" transform="matrix(0.999994 0.00354699 -0.00339759 0.999994 1068.89 335.748)" fill="#AE88FD"/>
<ellipse cx="6.20072" cy="11.7814" rx="6.20072" ry="11.7814" transform="matrix(0.699381 0.714853 -0.704222 0.709875 1091.56 340.825)" fill="#AE88FD"/>
<ellipse cx="6.24264" cy="11.7012" rx="6.24264" ry="11.7012" transform="matrix(0.207804 0.978202 -0.976852 0.213768 1068.88 360.735)" fill="#AE88FD"/>
<ellipse cx="6.22636" cy="11.7324" rx="6.22636" ry="11.7324" transform="matrix(-0.4693 0.882969 -0.877138 -0.480368 1074.33 355.087)" fill="#AE88FD"/>
<ellipse cx="6.16586" cy="11.8472" rx="6.16586" ry="11.8472" transform="matrix(-0.932565 -0.361141 0.351778 -0.936031 1070.32 394.561)" fill="#AE88FD"/>
<ellipse cx="6.20072" cy="11.7814" rx="6.20072" ry="11.7814" transform="matrix(-0.704222 0.709875 -0.699381 -0.714853 1097.95 382.812)" fill="#AE88FD"/>
<ellipse cx="6.24685" cy="11.693" rx="6.24685" ry="11.693" transform="matrix(-0.00339759 0.999994 -0.999994 -0.00354699 1104.5 360.237)" fill="#AE88FD"/>
<ellipse cx="10.4048" cy="10.5614" rx="10.4048" ry="10.5614" transform="matrix(0.999994 0.00354699 -0.00339759 0.999994 1064.88 353.839)" fill="#FFE1E1"/>
<path d="M1060.97 421.152C1052.77 407.892 1024.71 394.457 1035.97 409.014C1044.66 420.259 1053.77 421.56 1060.97 421.152Z" stroke="#404040" stroke-width="3.58901"/>
<path d="M1071.5 427.658C1067.92 442.888 1045.58 464.744 1051.65 447.292C1056.34 433.811 1064.55 429.616 1071.5 427.658Z" stroke="#404040" stroke-width="3.58901"/>
<path d="M652.354 425.165L1057.45 426.602" stroke="#404040" stroke-width="3.58901"/>
<ellipse cx="6.15424" cy="11.869" rx="6.15424" ry="11.869" transform="matrix(0.999994 0.00354699 -0.00339759 0.999994 1068.62 395.46)" fill="#AE88FD"/>
<ellipse cx="6.20072" cy="11.7814" rx="6.20072" ry="11.7814" transform="matrix(0.699381 0.714853 -0.704222 0.709875 1091.29 400.538)" fill="#AE88FD"/>
<ellipse cx="6.24264" cy="11.7012" rx="6.24264" ry="11.7012" transform="matrix(0.207804 0.978202 -0.976852 0.213768 1068.61 420.448)" fill="#AE88FD"/>
<ellipse cx="6.22636" cy="11.7324" rx="6.22636" ry="11.7324" transform="matrix(-0.4693 0.882969 -0.877138 -0.480368 1074.05 414.799)" fill="#AE88FD"/>
<ellipse cx="6.16586" cy="11.8472" rx="6.16586" ry="11.8472" transform="matrix(-0.932565 -0.361141 0.351778 -0.936031 1070.04 454.274)" fill="#AE88FD"/>
<ellipse cx="6.20072" cy="11.7814" rx="6.20072" ry="11.7814" transform="matrix(-0.704222 0.709875 -0.699381 -0.714853 1097.68 442.524)" fill="#AE88FD"/>
<ellipse cx="6.24685" cy="11.693" rx="6.24685" ry="11.693" transform="matrix(-0.00339759 0.999994 -0.999994 -0.00354699 1104.23 419.949)" fill="#AE88FD"/>
<ellipse cx="10.4048" cy="10.5614" rx="10.4048" ry="10.5614" transform="matrix(0.999994 0.00354699 -0.00339759 0.999994 1064.61 413.551)" fill="#FFE1E1"/>
</svg>
