<svg width="1156" height="642" viewBox="0 0 1156 642" fill="none" xmlns="http://www.w3.org/2000/svg">
<rect x="2" y="639.844" width="637.844" height="1151.32" rx="39" transform="rotate(-90 2 639.844)" fill="#FBF6F2" stroke="#404040" stroke-width="4"/>
<path d="M655.879 117.247C655.879 110.079 655.879 102.826 655.879 95.4873C655.879 88.1486 655.879 80.8953 655.879 73.7273C657.756 73.7273 659.633 73.7273 661.511 73.7273C663.431 73.7273 665.308 73.7273 667.143 73.7273C669.404 77.7806 671.687 81.8766 673.991 86.0153C676.337 90.154 678.641 94.25 680.903 98.3033C680.903 94.25 680.903 90.154 680.903 86.0153C680.903 81.8766 680.903 77.7806 680.903 73.7273C682.737 73.7273 684.572 73.7273 686.407 73.7273C688.241 73.7273 690.076 73.7273 691.911 73.7273C691.911 80.8953 691.911 88.1486 691.911 95.4873C691.911 102.826 691.911 110.079 691.911 117.247C690.076 117.247 688.199 117.247 686.279 117.247C684.401 117.247 682.524 117.247 680.647 117.247C678.385 113.194 676.081 109.098 673.735 104.959C671.431 100.821 669.148 96.7246 666.887 92.6713C666.887 96.7246 666.887 100.821 666.887 104.959C666.887 109.098 666.887 113.194 666.887 117.247C665.052 117.247 663.217 117.247 661.383 117.247C659.548 117.247 657.713 117.247 655.879 117.247ZM730.526 84.1593C730.526 89.6206 730.526 95.146 730.526 100.735C730.526 106.282 730.526 111.786 730.526 117.247C728.819 117.247 727.07 117.247 725.278 117.247C723.486 117.247 721.715 117.247 719.966 117.247C719.966 116.949 719.966 116.671 719.966 116.415C719.966 116.159 719.966 115.882 719.966 115.583C718.814 116.394 717.512 117.013 716.062 117.439C714.654 117.909 713.118 118.143 711.454 118.143C709.022 118.143 706.867 117.589 704.99 116.479C703.155 115.37 701.704 113.77 700.638 111.679C699.614 109.589 699.102 107.114 699.102 104.255C699.102 100.927 699.102 97.578 699.102 94.2073C699.102 90.8366 699.102 87.4873 699.102 84.1593C700.851 84.1593 702.622 84.1593 704.414 84.1593C706.206 84.1593 707.955 84.1593 709.662 84.1593C709.662 87.2313 709.662 90.346 709.662 93.5033C709.662 96.6606 709.662 99.7753 709.662 102.847C709.662 104.554 710.046 105.941 710.814 107.007C711.624 108.031 712.883 108.543 714.59 108.543C716.296 108.543 717.619 108.053 718.558 107.071C719.496 106.09 719.966 104.682 719.966 102.847C719.966 99.7753 719.966 96.6606 719.966 93.5033C719.966 90.346 719.966 87.2313 719.966 84.1593C721.715 84.1593 723.486 84.1593 725.278 84.1593C727.07 84.1593 728.819 84.1593 730.526 84.1593ZM737.551 117.247C737.551 111.786 737.551 106.282 737.551 100.735C737.551 95.146 737.551 89.6206 737.551 84.1593C739.301 84.1593 741.071 84.1593 742.863 84.1593C744.655 84.1593 746.405 84.1593 748.111 84.1593C748.111 84.458 748.111 84.7566 748.111 85.0553C748.111 85.354 748.111 85.6526 748.111 85.9513C749.434 85.0126 750.927 84.3086 752.591 83.8393C754.255 83.37 756.069 83.242 758.031 83.4553C758.031 85.162 758.031 86.89 758.031 88.6393C758.031 90.3886 758.031 92.1166 758.031 93.8233C754.661 93.354 752.165 93.6526 750.543 94.7193C748.922 95.7433 748.111 97.4286 748.111 99.7753C748.111 102.634 748.111 105.535 748.111 108.479C748.111 111.423 748.111 114.346 748.111 117.247C746.405 117.247 744.655 117.247 742.863 117.247C741.071 117.247 739.301 117.247 737.551 117.247ZM788.081 107.007C788.081 109.653 787.335 111.829 785.841 113.535C784.391 115.199 782.428 116.415 779.953 117.183C777.479 117.951 774.705 118.271 771.633 118.143C768.604 118.058 765.511 117.567 762.353 116.671C762.353 115.05 762.353 113.386 762.353 111.679C762.353 109.973 762.353 108.309 762.353 106.687C764.145 107.498 765.937 108.138 767.729 108.607C769.521 109.034 771.143 109.29 772.593 109.375C774.044 109.461 775.217 109.354 776.113 109.055C777.009 108.714 777.457 108.159 777.457 107.391C777.457 106.794 777.073 106.325 776.305 105.983C775.58 105.642 774.62 105.343 773.425 105.087C772.231 104.789 770.951 104.447 769.585 104.063C768.263 103.637 767.004 103.061 765.809 102.335C764.615 101.567 763.633 100.565 762.865 99.3273C762.14 98.0473 761.777 96.4046 761.777 94.3993C761.777 92.01 762.46 89.9833 763.825 88.3193C765.233 86.6126 767.111 85.3326 769.457 84.4793C771.804 83.5833 774.428 83.1353 777.329 83.1353C780.231 83.1353 783.196 83.626 786.225 84.6073C786.225 86.2286 786.225 87.8926 786.225 89.5993C786.225 91.306 786.225 92.97 786.225 94.5913C783.836 93.4393 781.596 92.6713 779.505 92.2873C777.415 91.9033 775.729 91.8606 774.449 92.1593C773.169 92.4153 772.529 92.9913 772.529 93.8873C772.529 94.4846 772.892 94.954 773.617 95.2953C774.385 95.594 775.345 95.8713 776.497 96.1273C777.692 96.3833 778.951 96.7246 780.273 97.1513C781.639 97.578 782.897 98.1753 784.049 98.9433C785.244 99.6686 786.204 100.693 786.929 102.015C787.697 103.295 788.081 104.959 788.081 107.007ZM821.656 115.711C818.712 116.949 815.79 117.717 812.888 118.015C809.987 118.314 807.235 118.143 804.632 117.503C802.072 116.906 799.79 115.861 797.784 114.367C795.779 112.874 794.2 110.975 793.048 108.671C791.939 106.367 791.384 103.701 791.384 100.671C791.384 98.154 791.79 95.85 792.6 93.7593C793.454 91.626 794.648 89.77 796.184 88.1913C797.72 86.57 799.534 85.3326 801.624 84.4793C803.715 83.5833 805.998 83.1353 808.472 83.1353C810.691 83.1353 812.696 83.498 814.488 84.2233C816.28 84.9486 817.838 85.9726 819.16 87.2953C820.483 88.5753 821.55 90.1113 822.36 91.9033C823.171 93.6953 823.683 95.658 823.896 97.7913C824.11 99.9246 823.982 102.186 823.512 104.575C820.014 104.575 816.494 104.575 812.952 104.575C809.411 104.575 805.891 104.575 802.392 104.575C803.203 106.197 804.547 107.349 806.424 108.031C808.344 108.714 810.606 108.927 813.208 108.671C815.854 108.415 818.67 107.733 821.656 106.623C821.656 108.117 821.656 109.631 821.656 111.167C821.656 112.703 821.656 114.218 821.656 115.711ZM808.216 92.6073C806.979 92.6073 805.827 92.9486 804.76 93.6313C803.736 94.314 802.947 95.3593 802.392 96.7673C804.312 96.7673 806.232 96.7673 808.152 96.7673C810.115 96.7673 812.056 96.7673 813.976 96.7673C813.464 95.3166 812.696 94.2713 811.672 93.6313C810.691 92.9486 809.539 92.6073 808.216 92.6073ZM829.489 117.247C829.489 111.786 829.489 106.282 829.489 100.735C829.489 95.146 829.489 89.6206 829.489 84.1593C831.238 84.1593 833.009 84.1593 834.801 84.1593C836.593 84.1593 838.342 84.1593 840.049 84.1593C840.049 84.458 840.049 84.7566 840.049 85.0553C840.049 85.354 840.049 85.6526 840.049 85.9513C841.371 85.0126 842.865 84.3086 844.529 83.8393C846.193 83.37 848.006 83.242 849.969 83.4553C849.969 85.162 849.969 86.89 849.969 88.6393C849.969 90.3886 849.969 92.1166 849.969 93.8233C846.598 93.354 844.102 93.6526 842.481 94.7193C840.859 95.7433 840.049 97.4286 840.049 99.7753C840.049 102.634 840.049 105.535 840.049 108.479C840.049 111.423 840.049 114.346 840.049 117.247C838.342 117.247 836.593 117.247 834.801 117.247C833.009 117.247 831.238 117.247 829.489 117.247ZM857.811 127.487C858.664 125.226 859.539 122.943 860.435 120.639C861.373 118.378 862.269 116.138 863.123 113.919C861.117 109.013 859.069 104.063 856.979 99.0713C854.931 94.0366 852.904 89.066 850.899 84.1593C852.776 84.1593 854.653 84.1593 856.531 84.1593C858.408 84.1593 860.264 84.1593 862.099 84.1593C863.208 86.89 864.317 89.6633 865.427 92.4793C866.579 95.2953 867.709 98.09 868.819 100.863C869.843 98.09 870.888 95.2953 871.955 92.4793C873.021 89.6633 874.067 86.89 875.091 84.1593C876.925 84.1593 878.76 84.1593 880.595 84.1593C882.429 84.1593 884.264 84.1593 886.099 84.1593C883.24 91.2846 880.36 98.5166 877.459 105.855C874.6 113.151 871.741 120.362 868.883 127.487C867.048 127.487 865.192 127.487 863.315 127.487C861.48 127.487 859.645 127.487 857.811 127.487ZM655.879 187.247C655.879 180.079 655.879 172.826 655.879 165.487C655.879 158.149 655.879 150.895 655.879 143.727C658.439 143.727 660.999 143.727 663.559 143.727C666.161 143.727 668.743 143.727 671.303 143.727C674.545 143.727 677.383 144.346 679.815 145.583C682.247 146.778 684.124 148.485 685.447 150.703C686.812 152.879 687.495 155.439 687.495 158.383C687.495 160.901 686.983 163.141 685.959 165.103C684.935 167.066 683.548 168.666 681.799 169.903C683.505 172.762 685.212 175.663 686.919 178.607C688.668 181.509 690.396 184.389 692.103 187.247C690.012 187.247 687.921 187.247 685.831 187.247C683.74 187.247 681.649 187.247 679.559 187.247C678.236 184.858 676.892 182.426 675.527 179.951C674.204 177.477 672.86 175.045 671.495 172.655C670.769 172.655 670.023 172.655 669.255 172.655C668.529 172.655 667.804 172.655 667.079 172.655C667.079 175.045 667.079 177.477 667.079 179.951C667.079 182.426 667.079 184.858 667.079 187.247C665.244 187.247 663.388 187.247 661.511 187.247C659.633 187.247 657.756 187.247 655.879 187.247ZM671.303 153.839C670.62 153.839 669.916 153.839 669.191 153.839C668.508 153.839 667.804 153.839 667.079 153.839C667.079 155.418 667.079 156.997 667.079 158.575C667.079 160.154 667.079 161.733 667.079 163.311C667.889 163.311 668.7 163.311 669.511 163.311C670.321 163.311 671.132 163.311 671.943 163.311C673.223 163.311 674.268 162.863 675.079 161.967C675.889 161.029 676.295 159.898 676.295 158.575C676.295 157.21 675.847 156.079 674.951 155.183C674.097 154.287 672.881 153.839 671.303 153.839ZM695.621 187.247C695.621 179.525 695.621 171.738 695.621 163.887C695.621 156.037 695.621 148.25 695.621 140.527C697.371 140.527 699.141 140.527 700.933 140.527C702.725 140.527 704.475 140.527 706.181 140.527C706.181 143.045 706.181 145.605 706.181 148.207C706.181 150.767 706.181 153.306 706.181 155.823C707.333 155.013 708.613 154.394 710.021 153.967C711.472 153.498 713.029 153.263 714.693 153.263C717.125 153.263 719.259 153.818 721.093 154.927C722.971 156.037 724.421 157.637 725.445 159.727C726.512 161.775 727.045 164.25 727.045 167.151C727.045 170.479 727.045 173.829 727.045 177.199C727.045 180.57 727.045 183.919 727.045 187.247C725.339 187.247 723.589 187.247 721.797 187.247C720.005 187.247 718.235 187.247 716.485 187.247C716.485 184.175 716.485 181.061 716.485 177.903C716.485 174.746 716.485 171.631 716.485 168.559C716.485 166.853 716.08 165.487 715.269 164.463C714.501 163.397 713.264 162.863 711.557 162.863C709.851 162.863 708.528 163.354 707.589 164.335C706.651 165.317 706.181 166.725 706.181 168.559C706.181 171.631 706.181 174.746 706.181 177.903C706.181 181.061 706.181 184.175 706.181 187.247C704.475 187.247 702.725 187.247 700.933 187.247C699.141 187.247 697.371 187.247 695.621 187.247ZM736.061 197.487C736.914 195.226 737.789 192.943 738.685 190.639C739.623 188.378 740.519 186.138 741.373 183.919C739.367 179.013 737.319 174.063 735.229 169.071C733.181 164.037 731.154 159.066 729.149 154.159C731.026 154.159 732.903 154.159 734.781 154.159C736.658 154.159 738.514 154.159 740.349 154.159C741.458 156.89 742.567 159.663 743.677 162.479C744.829 165.295 745.959 168.09 747.069 170.863C748.093 168.09 749.138 165.295 750.205 162.479C751.271 159.663 752.317 156.89 753.341 154.159C755.175 154.159 757.01 154.159 758.845 154.159C760.679 154.159 762.514 154.159 764.349 154.159C761.49 161.285 758.61 168.517 755.709 175.855C752.85 183.151 749.991 190.362 747.133 197.487C745.298 197.487 743.442 197.487 741.565 197.487C739.73 197.487 737.895 197.487 736.061 197.487ZM767.551 187.247C767.551 181.786 767.551 176.282 767.551 170.735C767.551 165.146 767.551 159.621 767.551 154.159C769.301 154.159 771.071 154.159 772.863 154.159C774.655 154.159 776.405 154.159 778.111 154.159C778.111 154.458 778.111 154.735 778.111 154.991C778.111 155.247 778.111 155.525 778.111 155.823C779.221 155.013 780.458 154.394 781.823 153.967C783.189 153.498 784.597 153.263 786.047 153.263C787.626 153.263 789.077 153.541 790.399 154.095C791.722 154.607 792.853 155.375 793.791 156.399C795.157 155.418 796.693 154.65 798.399 154.095C800.149 153.541 801.941 153.263 803.775 153.263C806.378 153.263 808.618 153.797 810.495 154.863C812.415 155.93 813.887 157.445 814.911 159.407C815.978 161.37 816.511 163.738 816.511 166.511C816.511 169.925 816.511 173.381 816.511 176.879C816.511 180.378 816.511 183.834 816.511 187.247C814.805 187.247 813.055 187.247 811.263 187.247C809.471 187.247 807.701 187.247 805.951 187.247C805.951 184.047 805.951 180.805 805.951 177.519C805.951 174.234 805.951 170.991 805.951 167.791C805.951 166.341 805.61 165.167 804.927 164.271C804.287 163.333 803.242 162.863 801.791 162.863C800.383 162.863 799.274 163.311 798.463 164.207C797.695 165.061 797.311 166.255 797.311 167.791C797.311 170.991 797.311 174.234 797.311 177.519C797.311 180.805 797.311 184.047 797.311 187.247C795.605 187.247 793.855 187.247 792.063 187.247C790.271 187.247 788.501 187.247 786.751 187.247C786.751 184.047 786.751 180.805 786.751 177.519C786.751 174.234 786.751 170.991 786.751 167.791C786.751 166.341 786.41 165.167 785.727 164.271C785.087 163.333 784.042 162.863 782.591 162.863C781.183 162.863 780.074 163.311 779.263 164.207C778.495 165.061 778.111 166.255 778.111 167.791C778.111 170.991 778.111 174.234 778.111 177.519C778.111 180.805 778.111 184.047 778.111 187.247C776.405 187.247 774.655 187.247 772.863 187.247C771.071 187.247 769.301 187.247 767.551 187.247ZM851.531 185.711C848.587 186.949 845.665 187.717 842.763 188.015C839.862 188.314 837.11 188.143 834.507 187.503C831.947 186.906 829.665 185.861 827.659 184.367C825.654 182.874 824.075 180.975 822.923 178.671C821.814 176.367 821.259 173.701 821.259 170.671C821.259 168.154 821.665 165.85 822.475 163.759C823.329 161.626 824.523 159.77 826.059 158.191C827.595 156.57 829.409 155.333 831.499 154.479C833.59 153.583 835.873 153.135 838.347 153.135C840.566 153.135 842.571 153.498 844.363 154.223C846.155 154.949 847.713 155.973 849.035 157.295C850.358 158.575 851.425 160.111 852.235 161.903C853.046 163.695 853.558 165.658 853.771 167.791C853.985 169.925 853.857 172.186 853.387 174.575C849.889 174.575 846.369 174.575 842.827 174.575C839.286 174.575 835.766 174.575 832.267 174.575C833.078 176.197 834.422 177.349 836.299 178.031C838.219 178.714 840.481 178.927 843.083 178.671C845.729 178.415 848.545 177.733 851.531 176.623C851.531 178.117 851.531 179.631 851.531 181.167C851.531 182.703 851.531 184.218 851.531 185.711ZM838.091 162.607C836.854 162.607 835.702 162.949 834.635 163.631C833.611 164.314 832.822 165.359 832.267 166.767C834.187 166.767 836.107 166.767 838.027 166.767C839.99 166.767 841.931 166.767 843.851 166.767C843.339 165.317 842.571 164.271 841.547 163.631C840.566 162.949 839.414 162.607 838.091 162.607ZM884.644 177.007C884.644 179.653 883.897 181.829 882.404 183.535C880.953 185.199 878.99 186.415 876.516 187.183C874.041 187.951 871.268 188.271 868.196 188.143C865.166 188.058 862.073 187.567 858.916 186.671C858.916 185.05 858.916 183.386 858.916 181.679C858.916 179.973 858.916 178.309 858.916 176.687C860.708 177.498 862.5 178.138 864.292 178.607C866.084 179.034 867.705 179.29 869.156 179.375C870.606 179.461 871.78 179.354 872.676 179.055C873.572 178.714 874.02 178.159 874.02 177.391C874.02 176.794 873.636 176.325 872.868 175.983C872.142 175.642 871.182 175.343 869.988 175.087C868.793 174.789 867.513 174.447 866.148 174.063C864.825 173.637 863.566 173.061 862.372 172.335C861.177 171.567 860.196 170.565 859.428 169.327C858.702 168.047 858.34 166.405 858.34 164.399C858.34 162.01 859.022 159.983 860.388 158.319C861.796 156.613 863.673 155.333 866.02 154.479C868.366 153.583 870.99 153.135 873.892 153.135C876.793 153.135 879.758 153.626 882.788 154.607C882.788 156.229 882.788 157.893 882.788 159.599C882.788 161.306 882.788 162.97 882.788 164.591C880.398 163.439 878.158 162.671 876.068 162.287C873.977 161.903 872.292 161.861 871.012 162.159C869.732 162.415 869.092 162.991 869.092 163.887C869.092 164.485 869.454 164.954 870.18 165.295C870.948 165.594 871.908 165.871 873.06 166.127C874.254 166.383 875.513 166.725 876.836 167.151C878.201 167.578 879.46 168.175 880.612 168.943C881.806 169.669 882.766 170.693 883.492 172.015C884.26 173.295 884.644 174.959 884.644 177.007Z" fill="#404040"/>
<path d="M653.959 286.127C653.959 282.543 653.959 278.916 653.959 275.247C653.959 271.577 653.959 267.951 653.959 264.367C654.897 264.367 655.836 264.367 656.775 264.367C657.713 264.367 658.641 264.367 659.559 264.367C659.559 267.951 659.559 271.577 659.559 275.247C659.559 278.916 659.559 282.543 659.559 286.127C658.641 286.127 657.713 286.127 656.775 286.127C655.836 286.127 654.897 286.127 653.959 286.127ZM679.125 283.439C679.125 285.252 678.73 286.767 677.941 287.983C677.173 289.199 676.117 290.105 674.773 290.703C673.429 291.321 671.893 291.641 670.165 291.663C668.458 291.684 666.655 291.428 664.757 290.895C664.757 290.063 664.757 289.22 664.757 288.367C664.757 287.535 664.757 286.703 664.757 285.871C666.442 286.532 667.967 286.863 669.333 286.863C670.698 286.884 671.775 286.628 672.565 286.095C673.375 285.54 673.781 284.783 673.781 283.823C673.781 283.716 673.781 283.62 673.781 283.535C673.781 283.428 673.781 283.332 673.781 283.247C673.247 283.652 672.629 283.972 671.925 284.207C671.221 284.441 670.463 284.559 669.653 284.559C668.309 284.559 667.103 284.249 666.036 283.631C664.991 282.991 664.17 282.116 663.573 281.007C662.975 279.876 662.677 278.564 662.677 277.071C662.677 275.919 662.869 274.863 663.253 273.903C663.637 272.943 664.17 272.111 664.853 271.407C665.535 270.703 666.314 270.169 667.189 269.807C668.063 269.423 668.981 269.231 669.941 269.231C670.709 269.231 671.423 269.337 672.085 269.551C672.746 269.764 673.333 270.052 673.845 270.415C673.845 270.265 673.845 270.127 673.845 269.999C673.845 269.871 673.845 269.732 673.845 269.583C674.719 269.583 675.605 269.583 676.501 269.583C677.397 269.583 678.271 269.583 679.125 269.583C679.125 271.865 679.125 274.18 679.125 276.527C679.125 278.852 679.125 281.156 679.125 283.439ZM670.965 279.983C671.861 279.983 672.575 279.705 673.109 279.151C673.663 278.575 673.941 277.839 673.941 276.943C673.941 276.025 673.663 275.279 673.109 274.703C672.575 274.127 671.861 273.839 670.965 273.839C670.026 273.839 669.279 274.127 668.725 274.703C668.17 275.257 667.893 276.004 667.893 276.943C667.893 277.86 668.17 278.596 668.725 279.151C669.279 279.705 670.026 279.983 670.965 279.983ZM682.635 286.127C682.635 283.396 682.635 280.644 682.635 277.871C682.635 275.076 682.635 272.313 682.635 269.583C683.51 269.583 684.395 269.583 685.291 269.583C686.187 269.583 687.062 269.583 687.915 269.583C687.915 269.732 687.915 269.871 687.915 269.999C687.915 270.127 687.915 270.265 687.915 270.415C688.491 270.009 689.131 269.7 689.835 269.487C690.56 269.252 691.339 269.135 692.171 269.135C693.387 269.135 694.454 269.412 695.371 269.967C696.31 270.521 697.035 271.321 697.547 272.367C698.08 273.391 698.347 274.628 698.347 276.079C698.347 277.743 698.347 279.417 698.347 281.103C698.347 282.788 698.347 284.463 698.347 286.127C697.494 286.127 696.619 286.127 695.723 286.127C694.827 286.127 693.942 286.127 693.067 286.127C693.067 284.591 693.067 283.033 693.067 281.455C693.067 279.876 693.067 278.319 693.067 276.783C693.067 275.929 692.864 275.247 692.459 274.735C692.075 274.201 691.456 273.935 690.603 273.935C689.75 273.935 689.088 274.18 688.619 274.671C688.15 275.161 687.915 275.865 687.915 276.783C687.915 278.319 687.915 279.876 687.915 281.455C687.915 283.033 687.915 284.591 687.915 286.127C687.062 286.127 686.187 286.127 685.291 286.127C684.395 286.127 683.51 286.127 682.635 286.127ZM709.444 286.639C708.206 286.639 707.054 286.425 705.988 285.999C704.921 285.551 703.993 284.932 703.204 284.143C702.414 283.332 701.796 282.393 701.348 281.327C700.921 280.26 700.708 279.097 700.708 277.839C700.708 276.58 700.921 275.417 701.348 274.351C701.796 273.284 702.414 272.356 703.204 271.567C703.993 270.777 704.921 270.169 705.988 269.743C707.054 269.295 708.206 269.071 709.444 269.071C710.702 269.071 711.854 269.295 712.9 269.743C713.966 270.169 714.894 270.777 715.684 271.567C716.473 272.356 717.081 273.284 717.508 274.351C717.956 275.417 718.18 276.58 718.18 277.839C718.18 279.097 717.956 280.26 717.508 281.327C717.081 282.393 716.473 283.332 715.684 284.143C714.894 284.932 713.966 285.551 712.9 285.999C711.854 286.425 710.702 286.639 709.444 286.639ZM709.444 281.871C710.489 281.871 711.321 281.497 711.94 280.751C712.58 279.983 712.9 279.012 712.9 277.839C712.9 276.644 712.58 275.684 711.94 274.959C711.321 274.212 710.489 273.839 709.444 273.839C708.398 273.839 707.556 274.212 706.916 274.959C706.297 275.684 705.988 276.644 705.988 277.839C705.988 279.012 706.297 279.983 706.916 280.751C707.556 281.497 708.398 281.871 709.444 281.871ZM720.791 286.127C720.791 283.396 720.791 280.644 720.791 277.871C720.791 275.076 720.791 272.313 720.791 269.583C721.666 269.583 722.551 269.583 723.447 269.583C724.343 269.583 725.218 269.583 726.071 269.583C726.071 269.732 726.071 269.881 726.071 270.031C726.071 270.18 726.071 270.329 726.071 270.479C726.733 270.009 727.479 269.657 728.311 269.423C729.143 269.188 730.05 269.124 731.031 269.231C731.031 270.084 731.031 270.948 731.031 271.823C731.031 272.697 731.031 273.561 731.031 274.415C729.346 274.18 728.098 274.329 727.287 274.863C726.477 275.375 726.071 276.217 726.071 277.391C726.071 278.82 726.071 280.271 726.071 281.743C726.071 283.215 726.071 284.676 726.071 286.127C725.218 286.127 724.343 286.127 723.447 286.127C722.551 286.127 721.666 286.127 720.791 286.127ZM744.3 286.127C744.3 285.956 744.3 285.796 744.3 285.647C744.3 285.476 744.3 285.316 744.3 285.167C743.767 285.615 743.159 285.956 742.476 286.191C741.815 286.447 741.1 286.575 740.332 286.575C739.244 286.575 738.22 286.372 737.26 285.967C736.3 285.54 735.447 284.943 734.7 284.175C733.975 283.385 733.399 282.457 732.972 281.391C732.567 280.324 732.364 279.14 732.364 277.839C732.364 276.516 732.567 275.321 732.972 274.255C733.399 273.188 733.975 272.281 734.7 271.535C735.447 270.767 736.3 270.18 737.26 269.775C738.22 269.348 739.233 269.135 740.3 269.135C741.068 269.135 741.793 269.263 742.476 269.519C743.159 269.753 743.767 270.084 744.3 270.511C744.3 270.34 744.3 270.18 744.3 270.031C744.3 269.881 744.3 269.732 744.3 269.583C745.175 269.583 746.06 269.583 746.956 269.583C747.852 269.583 748.727 269.583 749.58 269.583C749.58 272.313 749.58 275.076 749.58 277.871C749.58 280.644 749.58 283.396 749.58 286.127C748.727 286.127 747.852 286.127 746.956 286.127C746.06 286.127 745.175 286.127 744.3 286.127ZM741.036 281.903C742.06 281.903 742.881 281.529 743.5 280.783C744.119 280.036 744.428 279.055 744.428 277.839C744.428 276.623 744.119 275.652 743.5 274.927C742.881 274.18 742.06 273.807 741.036 273.807C739.991 273.807 739.159 274.169 738.54 274.895C737.943 275.62 737.644 276.601 737.644 277.839C737.644 279.076 737.943 280.068 738.54 280.815C739.159 281.54 739.991 281.903 741.036 281.903ZM753.104 286.127C753.104 283.396 753.104 280.644 753.104 277.871C753.104 275.076 753.104 272.313 753.104 269.583C753.978 269.583 754.864 269.583 755.76 269.583C756.656 269.583 757.53 269.583 758.384 269.583C758.384 269.732 758.384 269.871 758.384 269.999C758.384 270.127 758.384 270.265 758.384 270.415C758.96 270.009 759.6 269.7 760.304 269.487C761.029 269.252 761.808 269.135 762.64 269.135C763.856 269.135 764.922 269.412 765.84 269.967C766.778 270.521 767.504 271.321 768.016 272.367C768.549 273.391 768.816 274.628 768.816 276.079C768.816 277.743 768.816 279.417 768.816 281.103C768.816 282.788 768.816 284.463 768.816 286.127C767.962 286.127 767.088 286.127 766.192 286.127C765.296 286.127 764.41 286.127 763.536 286.127C763.536 284.591 763.536 283.033 763.536 281.455C763.536 279.876 763.536 278.319 763.536 276.783C763.536 275.929 763.333 275.247 762.928 274.735C762.544 274.201 761.925 273.935 761.072 273.935C760.218 273.935 759.557 274.18 759.088 274.671C758.618 275.161 758.384 275.865 758.384 276.783C758.384 278.319 758.384 279.876 758.384 281.455C758.384 283.033 758.384 284.591 758.384 286.127C757.53 286.127 756.656 286.127 755.76 286.127C754.864 286.127 753.978 286.127 753.104 286.127ZM773.801 286.127C773.801 284.164 773.801 282.191 773.801 280.207C773.801 278.223 773.801 276.26 773.801 274.319C773.374 274.319 772.937 274.319 772.489 274.319C772.062 274.319 771.635 274.319 771.209 274.319C771.209 273.529 771.209 272.74 771.209 271.951C771.209 271.161 771.209 270.372 771.209 269.583C771.635 269.583 772.062 269.583 772.489 269.583C772.937 269.583 773.374 269.583 773.801 269.583C773.801 268.836 773.801 268.1 773.801 267.375C773.801 266.628 773.801 265.892 773.801 265.167C774.675 265.167 775.561 265.167 776.457 265.167C777.353 265.167 778.227 265.167 779.081 265.167C779.081 265.892 779.081 266.628 779.081 267.375C779.081 268.1 779.081 268.836 779.081 269.583C779.571 269.583 780.073 269.583 780.585 269.583C781.097 269.583 781.598 269.583 782.089 269.583C782.089 270.372 782.089 271.161 782.089 271.951C782.089 272.74 782.089 273.529 782.089 274.319C781.598 274.319 781.097 274.319 780.585 274.319C780.073 274.319 779.571 274.319 779.081 274.319C779.081 276.26 779.081 278.223 779.081 280.207C779.081 282.191 779.081 284.164 779.081 286.127C778.227 286.127 777.353 286.127 776.457 286.127C775.561 286.127 774.675 286.127 773.801 286.127ZM807.322 279.695C807.322 281.124 806.959 282.361 806.234 283.407C805.53 284.452 804.548 285.263 803.29 285.839C802.031 286.393 800.57 286.671 798.906 286.671C797.348 286.671 795.962 286.425 794.746 285.935C793.551 285.423 792.602 284.697 791.898 283.759C791.215 282.799 790.874 281.668 790.874 280.367C790.874 279.3 791.108 278.319 791.578 277.423C792.068 276.527 792.804 275.759 793.786 275.119C792.996 274.521 792.41 273.828 792.026 273.039C791.663 272.228 791.482 271.343 791.482 270.383C791.482 268.975 791.855 267.801 792.602 266.863C793.37 265.924 794.394 265.22 795.674 264.751C796.954 264.281 798.372 264.036 799.93 264.015C801.487 263.972 803.066 264.153 804.666 264.559C804.666 265.412 804.666 266.276 804.666 267.151C804.666 268.025 804.666 268.9 804.666 269.775C803.77 269.519 802.863 269.337 801.946 269.231C801.05 269.124 800.228 269.113 799.482 269.199C798.735 269.284 798.127 269.465 797.658 269.743C797.21 270.02 796.986 270.415 796.986 270.927C796.986 271.588 797.434 272.047 798.33 272.303C799.226 272.537 800.463 272.655 802.042 272.655C802.042 272.271 802.042 271.887 802.042 271.503C802.042 271.097 802.042 270.703 802.042 270.319C802.916 270.319 803.802 270.319 804.698 270.319C805.594 270.319 806.468 270.319 807.322 270.319C807.322 270.703 807.322 271.097 807.322 271.503C807.322 271.887 807.322 272.271 807.322 272.655C807.642 272.655 807.972 272.655 808.314 272.655C808.655 272.655 808.986 272.655 809.306 272.655C809.306 273.444 809.306 274.233 809.306 275.023C809.306 275.812 809.306 276.601 809.306 277.391C808.986 277.391 808.655 277.391 808.314 277.391C807.972 277.391 807.642 277.391 807.322 277.391C807.322 277.775 807.322 278.159 807.322 278.543C807.322 278.927 807.322 279.311 807.322 279.695ZM796.474 279.567C796.474 280.185 796.698 280.708 797.146 281.135C797.615 281.54 798.266 281.743 799.098 281.743C799.994 281.743 800.708 281.529 801.242 281.103C801.775 280.655 802.042 280.036 802.042 279.247C802.042 278.948 802.042 278.639 802.042 278.319C802.042 277.999 802.042 277.689 802.042 277.391C800.292 277.391 798.927 277.519 797.946 277.775C796.964 278.031 796.474 278.628 796.474 279.567ZM818.674 286.127C818.674 282.543 818.674 278.916 818.674 275.247C818.674 271.577 818.674 267.951 818.674 264.367C820.828 264.367 823.004 264.367 825.202 264.367C827.399 264.367 829.575 264.367 831.73 264.367C831.73 265.199 831.73 266.041 831.73 266.895C831.73 267.748 831.73 268.591 831.73 269.423C830.492 269.423 829.244 269.423 827.986 269.423C826.748 269.423 825.511 269.423 824.274 269.423C824.274 270.041 824.274 270.681 824.274 271.343C824.274 271.983 824.274 272.612 824.274 273.231C825.404 273.231 826.546 273.231 827.698 273.231C828.85 273.231 829.98 273.231 831.09 273.231C831.09 274.02 831.09 274.82 831.09 275.631C831.09 276.441 831.09 277.252 831.09 278.063C829.98 278.063 828.85 278.063 827.698 278.063C826.546 278.063 825.404 278.063 824.274 278.063C824.274 279.385 824.274 280.729 824.274 282.095C824.274 283.46 824.274 284.804 824.274 286.127C823.356 286.127 822.428 286.127 821.49 286.127C820.551 286.127 819.612 286.127 818.674 286.127ZM848.844 285.359C847.372 285.977 845.91 286.361 844.46 286.511C843.009 286.66 841.633 286.575 840.332 286.255C839.052 285.956 837.91 285.433 836.908 284.687C835.905 283.94 835.116 282.991 834.54 281.839C833.985 280.687 833.708 279.353 833.708 277.839C833.708 276.58 833.91 275.428 834.316 274.383C834.742 273.316 835.34 272.388 836.108 271.599C836.876 270.788 837.782 270.169 838.828 269.743C839.873 269.295 841.014 269.071 842.252 269.071C843.361 269.071 844.364 269.252 845.26 269.615C846.156 269.977 846.934 270.489 847.596 271.151C848.257 271.791 848.79 272.559 849.196 273.455C849.601 274.351 849.857 275.332 849.964 276.399C850.07 277.465 850.006 278.596 849.772 279.791C848.022 279.791 846.262 279.791 844.492 279.791C842.721 279.791 840.961 279.791 839.212 279.791C839.617 280.601 840.289 281.177 841.228 281.519C842.188 281.86 843.318 281.967 844.62 281.839C845.942 281.711 847.35 281.369 848.844 280.815C848.844 281.561 848.844 282.319 848.844 283.087C848.844 283.855 848.844 284.612 848.844 285.359ZM842.124 273.807C841.505 273.807 840.929 273.977 840.396 274.319C839.884 274.66 839.489 275.183 839.212 275.887C840.172 275.887 841.132 275.887 842.092 275.887C843.073 275.887 844.044 275.887 845.004 275.887C844.748 275.161 844.364 274.639 843.852 274.319C843.361 273.977 842.785 273.807 842.124 273.807ZM863.8 286.127C863.8 285.956 863.8 285.796 863.8 285.647C863.8 285.476 863.8 285.316 863.8 285.167C863.267 285.615 862.659 285.956 861.976 286.191C861.315 286.447 860.6 286.575 859.832 286.575C858.744 286.575 857.72 286.372 856.76 285.967C855.8 285.54 854.947 284.943 854.2 284.175C853.475 283.385 852.899 282.457 852.472 281.391C852.067 280.324 851.864 279.14 851.864 277.839C851.864 276.516 852.067 275.321 852.472 274.255C852.899 273.188 853.475 272.281 854.2 271.535C854.947 270.767 855.8 270.18 856.76 269.775C857.72 269.348 858.733 269.135 859.8 269.135C860.568 269.135 861.293 269.263 861.976 269.519C862.659 269.753 863.267 270.084 863.8 270.511C863.8 270.34 863.8 270.18 863.8 270.031C863.8 269.881 863.8 269.732 863.8 269.583C864.675 269.583 865.56 269.583 866.456 269.583C867.352 269.583 868.227 269.583 869.08 269.583C869.08 272.313 869.08 275.076 869.08 277.871C869.08 280.644 869.08 283.396 869.08 286.127C868.227 286.127 867.352 286.127 866.456 286.127C865.56 286.127 864.675 286.127 863.8 286.127ZM860.536 281.903C861.56 281.903 862.381 281.529 863 280.783C863.619 280.036 863.928 279.055 863.928 277.839C863.928 276.623 863.619 275.652 863 274.927C862.381 274.18 861.56 273.807 860.536 273.807C859.491 273.807 858.659 274.169 858.04 274.895C857.443 275.62 857.144 276.601 857.144 277.839C857.144 279.076 857.443 280.068 858.04 280.815C858.659 281.54 859.491 281.903 860.536 281.903ZM872.604 286.127C872.604 283.396 872.604 280.644 872.604 277.871C872.604 275.076 872.604 272.313 872.604 269.583C873.478 269.583 874.364 269.583 875.26 269.583C876.156 269.583 877.03 269.583 877.884 269.583C877.884 269.732 877.884 269.881 877.884 270.031C877.884 270.18 877.884 270.329 877.884 270.479C878.545 270.009 879.292 269.657 880.124 269.423C880.956 269.188 881.862 269.124 882.844 269.231C882.844 270.084 882.844 270.948 882.844 271.823C882.844 272.697 882.844 273.561 882.844 274.415C881.158 274.18 879.91 274.329 879.1 274.863C878.289 275.375 877.884 276.217 877.884 277.391C877.884 278.82 877.884 280.271 877.884 281.743C877.884 283.215 877.884 284.676 877.884 286.127C877.03 286.127 876.156 286.127 875.26 286.127C874.364 286.127 873.478 286.127 872.604 286.127ZM885.389 286.127C885.389 282.265 885.389 278.372 885.389 274.447C885.389 270.521 885.389 266.628 885.389 262.767C886.263 262.767 887.149 262.767 888.045 262.767C888.941 262.767 889.815 262.767 890.669 262.767C890.669 266.628 890.669 270.521 890.669 274.447C890.669 278.372 890.669 282.265 890.669 286.127C889.815 286.127 888.941 286.127 888.045 286.127C887.149 286.127 886.263 286.127 885.389 286.127ZM908.594 285.359C907.122 285.977 905.66 286.361 904.21 286.511C902.759 286.66 901.383 286.575 900.082 286.255C898.802 285.956 897.66 285.433 896.658 284.687C895.655 283.94 894.866 282.991 894.29 281.839C893.735 280.687 893.458 279.353 893.458 277.839C893.458 276.58 893.66 275.428 894.066 274.383C894.492 273.316 895.09 272.388 895.858 271.599C896.626 270.788 897.532 270.169 898.578 269.743C899.623 269.295 900.764 269.071 902.002 269.071C903.111 269.071 904.114 269.252 905.01 269.615C905.906 269.977 906.684 270.489 907.346 271.151C908.007 271.791 908.54 272.559 908.946 273.455C909.351 274.351 909.607 275.332 909.714 276.399C909.82 277.465 909.756 278.596 909.522 279.791C907.772 279.791 906.012 279.791 904.242 279.791C902.471 279.791 900.711 279.791 898.962 279.791C899.367 280.601 900.039 281.177 900.978 281.519C901.938 281.86 903.068 281.967 904.37 281.839C905.692 281.711 907.1 281.369 908.594 280.815C908.594 281.561 908.594 282.319 908.594 283.087C908.594 283.855 908.594 284.612 908.594 285.359ZM901.874 273.807C901.255 273.807 900.679 273.977 900.146 274.319C899.634 274.66 899.239 275.183 898.962 275.887C899.922 275.887 900.882 275.887 901.842 275.887C902.823 275.887 903.794 275.887 904.754 275.887C904.498 275.161 904.114 274.639 903.602 274.319C903.111 273.977 902.535 273.807 901.874 273.807ZM925.15 281.007C925.15 282.329 924.777 283.417 924.03 284.271C923.305 285.103 922.323 285.711 921.086 286.095C919.849 286.479 918.462 286.639 916.926 286.575C915.411 286.532 913.865 286.287 912.286 285.839C912.286 285.028 912.286 284.196 912.286 283.343C912.286 282.489 912.286 281.657 912.286 280.847C913.182 281.252 914.078 281.572 914.974 281.807C915.87 282.02 916.681 282.148 917.406 282.191C918.131 282.233 918.718 282.18 919.166 282.031C919.614 281.86 919.838 281.583 919.838 281.199C919.838 280.9 919.646 280.665 919.262 280.495C918.899 280.324 918.419 280.175 917.822 280.047C917.225 279.897 916.585 279.727 915.902 279.535C915.241 279.321 914.611 279.033 914.014 278.671C913.417 278.287 912.926 277.785 912.542 277.167C912.179 276.527 911.998 275.705 911.998 274.703C911.998 273.508 912.339 272.495 913.022 271.663C913.726 270.809 914.665 270.169 915.838 269.743C917.011 269.295 918.323 269.071 919.774 269.071C921.225 269.071 922.707 269.316 924.222 269.807C924.222 270.617 924.222 271.449 924.222 272.303C924.222 273.156 924.222 273.988 924.222 274.799C923.027 274.223 921.907 273.839 920.862 273.647C919.817 273.455 918.974 273.433 918.334 273.583C917.694 273.711 917.374 273.999 917.374 274.447C917.374 274.745 917.555 274.98 917.918 275.151C918.302 275.3 918.782 275.439 919.358 275.567C919.955 275.695 920.585 275.865 921.246 276.079C921.929 276.292 922.558 276.591 923.134 276.975C923.731 277.337 924.211 277.849 924.574 278.511C924.958 279.151 925.15 279.983 925.15 281.007ZM940.181 281.007C940.181 282.329 939.808 283.417 939.061 284.271C938.336 285.103 937.355 285.711 936.117 286.095C934.88 286.479 933.493 286.639 931.957 286.575C930.443 286.532 928.896 286.287 927.317 285.839C927.317 285.028 927.317 284.196 927.317 283.343C927.317 282.489 927.317 281.657 927.317 280.847C928.213 281.252 929.109 281.572 930.005 281.807C930.901 282.02 931.712 282.148 932.437 282.191C933.163 282.233 933.749 282.18 934.197 282.031C934.645 281.86 934.869 281.583 934.869 281.199C934.869 280.9 934.677 280.665 934.293 280.495C933.931 280.324 933.451 280.175 932.853 280.047C932.256 279.897 931.616 279.727 930.933 279.535C930.272 279.321 929.643 279.033 929.045 278.671C928.448 278.287 927.957 277.785 927.573 277.167C927.211 276.527 927.029 275.705 927.029 274.703C927.029 273.508 927.371 272.495 928.053 271.663C928.757 270.809 929.696 270.169 930.869 269.743C932.043 269.295 933.355 269.071 934.805 269.071C936.256 269.071 937.739 269.316 939.253 269.807C939.253 270.617 939.253 271.449 939.253 272.303C939.253 273.156 939.253 273.988 939.253 274.799C938.059 274.223 936.939 273.839 935.893 273.647C934.848 273.455 934.005 273.433 933.365 273.583C932.725 273.711 932.405 273.999 932.405 274.447C932.405 274.745 932.587 274.98 932.949 275.151C933.333 275.3 933.813 275.439 934.389 275.567C934.987 275.695 935.616 275.865 936.277 276.079C936.96 276.292 937.589 276.591 938.165 276.975C938.763 277.337 939.243 277.849 939.605 278.511C939.989 279.151 940.181 279.983 940.181 281.007Z" fill="#888888"/>
<path d="M653.799 348.665C653.799 345.081 653.799 341.455 653.799 337.785C653.799 334.116 653.799 330.489 653.799 326.905C655.953 326.905 658.129 326.905 660.327 326.905C662.524 326.905 664.7 326.905 666.855 326.905C666.855 327.716 666.855 328.548 666.855 329.401C666.855 330.255 666.855 331.087 666.855 331.897C665.617 331.897 664.369 331.897 663.111 331.897C661.873 331.897 660.636 331.897 659.399 331.897C659.399 332.431 659.399 332.964 659.399 333.497C659.399 334.009 659.399 334.532 659.399 335.065C660.529 335.065 661.671 335.065 662.823 335.065C663.975 335.065 665.105 335.065 666.215 335.065C666.215 335.855 666.215 336.655 666.215 337.465C666.215 338.276 666.215 339.087 666.215 339.897C665.105 339.897 663.975 339.897 662.823 339.897C661.671 339.897 660.529 339.897 659.399 339.897C659.399 340.516 659.399 341.145 659.399 341.785C659.399 342.425 659.399 343.055 659.399 343.673C660.636 343.673 661.873 343.673 663.111 343.673C664.369 343.673 665.617 343.673 666.855 343.673C666.855 344.484 666.855 345.316 666.855 346.169C666.855 347.023 666.855 347.855 666.855 348.665C664.7 348.665 662.524 348.665 660.327 348.665C658.129 348.665 655.953 348.665 653.799 348.665ZM672.113 348.665C672.113 346.703 672.113 344.729 672.113 342.745C672.113 340.761 672.113 338.799 672.113 336.857C671.686 336.857 671.249 336.857 670.801 336.857C670.374 336.857 669.948 336.857 669.521 336.857C669.521 336.068 669.521 335.279 669.521 334.489C669.521 333.7 669.521 332.911 669.521 332.121C669.948 332.121 670.374 332.121 670.801 332.121C671.249 332.121 671.686 332.121 672.113 332.121C672.113 331.375 672.113 330.639 672.113 329.913C672.113 329.167 672.113 328.431 672.113 327.705C672.988 327.705 673.873 327.705 674.769 327.705C675.665 327.705 676.54 327.705 677.393 327.705C677.393 328.431 677.393 329.167 677.393 329.913C677.393 330.639 677.393 331.375 677.393 332.121C677.884 332.121 678.385 332.121 678.897 332.121C679.409 332.121 679.91 332.121 680.401 332.121C680.401 332.911 680.401 333.7 680.401 334.489C680.401 335.279 680.401 336.068 680.401 336.857C679.91 336.857 679.409 336.857 678.897 336.857C678.385 336.857 677.884 336.857 677.393 336.857C677.393 338.799 677.393 340.761 677.393 342.745C677.393 344.729 677.393 346.703 677.393 348.665C676.54 348.665 675.665 348.665 674.769 348.665C673.873 348.665 672.988 348.665 672.113 348.665ZM683.108 348.665C683.108 344.804 683.108 340.911 683.108 336.985C683.108 333.06 683.108 329.167 683.108 325.305C683.982 325.305 684.868 325.305 685.764 325.305C686.66 325.305 687.534 325.305 688.388 325.305C688.388 326.564 688.388 327.844 688.388 329.145C688.388 330.425 688.388 331.695 688.388 332.953C688.964 332.548 689.604 332.239 690.308 332.025C691.033 331.791 691.812 331.673 692.644 331.673C693.86 331.673 694.926 331.951 695.844 332.505C696.782 333.06 697.508 333.86 698.02 334.905C698.553 335.929 698.819 337.167 698.819 338.617C698.819 340.281 698.819 341.956 698.819 343.641C698.819 345.327 698.819 347.001 698.819 348.665C697.966 348.665 697.092 348.665 696.196 348.665C695.3 348.665 694.414 348.665 693.54 348.665C693.54 347.129 693.54 345.572 693.54 343.993C693.54 342.415 693.54 340.857 693.54 339.321C693.54 338.468 693.337 337.785 692.932 337.273C692.548 336.74 691.929 336.473 691.076 336.473C690.222 336.473 689.561 336.719 689.092 337.209C688.622 337.7 688.388 338.404 688.388 339.321C688.388 340.857 688.388 342.415 688.388 343.993C688.388 345.572 688.388 347.129 688.388 348.665C687.534 348.665 686.66 348.665 685.764 348.665C684.868 348.665 683.982 348.665 683.108 348.665ZM716.344 347.897C714.872 348.516 713.41 348.9 711.96 349.049C710.509 349.199 709.133 349.113 707.832 348.793C706.552 348.495 705.41 347.972 704.408 347.225C703.405 346.479 702.616 345.529 702.04 344.377C701.485 343.225 701.208 341.892 701.208 340.377C701.208 339.119 701.41 337.967 701.816 336.921C702.242 335.855 702.84 334.927 703.608 334.137C704.376 333.327 705.282 332.708 706.328 332.281C707.373 331.833 708.514 331.609 709.752 331.609C710.861 331.609 711.864 331.791 712.76 332.153C713.656 332.516 714.434 333.028 715.096 333.689C715.757 334.329 716.29 335.097 716.696 335.993C717.101 336.889 717.357 337.871 717.464 338.937C717.57 340.004 717.506 341.135 717.272 342.329C715.522 342.329 713.762 342.329 711.992 342.329C710.221 342.329 708.461 342.329 706.712 342.329C707.117 343.14 707.789 343.716 708.728 344.057C709.688 344.399 710.818 344.505 712.12 344.377C713.442 344.249 714.85 343.908 716.344 343.353C716.344 344.1 716.344 344.857 716.344 345.625C716.344 346.393 716.344 347.151 716.344 347.897ZM709.624 336.345C709.005 336.345 708.429 336.516 707.896 336.857C707.384 337.199 706.989 337.721 706.712 338.425C707.672 338.425 708.632 338.425 709.592 338.425C710.573 338.425 711.544 338.425 712.504 338.425C712.248 337.7 711.864 337.177 711.352 336.857C710.861 336.516 710.285 336.345 709.624 336.345ZM720.26 348.665C720.26 345.935 720.26 343.183 720.26 340.409C720.26 337.615 720.26 334.852 720.26 332.121C721.135 332.121 722.02 332.121 722.916 332.121C723.812 332.121 724.687 332.121 725.54 332.121C725.54 332.271 725.54 332.42 725.54 332.569C725.54 332.719 725.54 332.868 725.54 333.017C726.201 332.548 726.948 332.196 727.78 331.961C728.612 331.727 729.519 331.663 730.5 331.769C730.5 332.623 730.5 333.487 730.5 334.361C730.5 335.236 730.5 336.1 730.5 336.953C728.815 336.719 727.567 336.868 726.756 337.401C725.945 337.913 725.54 338.756 725.54 339.929C725.54 341.359 725.54 342.809 725.54 344.281C725.54 345.753 725.54 347.215 725.54 348.665C724.687 348.665 723.812 348.665 722.916 348.665C722.02 348.665 721.135 348.665 720.26 348.665ZM746.969 347.897C745.497 348.516 744.035 348.9 742.585 349.049C741.134 349.199 739.758 349.113 738.457 348.793C737.177 348.495 736.035 347.972 735.033 347.225C734.03 346.479 733.241 345.529 732.665 344.377C732.11 343.225 731.833 341.892 731.833 340.377C731.833 339.119 732.035 337.967 732.441 336.921C732.867 335.855 733.465 334.927 734.233 334.137C735.001 333.327 735.907 332.708 736.953 332.281C737.998 331.833 739.139 331.609 740.377 331.609C741.486 331.609 742.489 331.791 743.385 332.153C744.281 332.516 745.059 333.028 745.721 333.689C746.382 334.329 746.915 335.097 747.321 335.993C747.726 336.889 747.982 337.871 748.089 338.937C748.195 340.004 748.131 341.135 747.897 342.329C746.147 342.329 744.387 342.329 742.617 342.329C740.846 342.329 739.086 342.329 737.337 342.329C737.742 343.14 738.414 343.716 739.353 344.057C740.313 344.399 741.443 344.505 742.745 344.377C744.067 344.249 745.475 343.908 746.969 343.353C746.969 344.1 746.969 344.857 746.969 345.625C746.969 346.393 746.969 347.151 746.969 347.897ZM740.249 336.345C739.63 336.345 739.054 336.516 738.521 336.857C738.009 337.199 737.614 337.721 737.337 338.425C738.297 338.425 739.257 338.425 740.217 338.425C741.198 338.425 742.169 338.425 743.129 338.425C742.873 337.7 742.489 337.177 741.977 336.857C741.486 336.516 740.91 336.345 740.249 336.345ZM761.925 348.665C761.925 348.495 761.925 348.335 761.925 348.185C761.925 348.015 761.925 347.855 761.925 347.705C761.392 348.153 760.784 348.495 760.101 348.729C759.44 348.985 758.725 349.113 757.957 349.113C756.869 349.113 755.845 348.911 754.885 348.505C753.925 348.079 753.072 347.481 752.325 346.713C751.6 345.924 751.024 344.996 750.597 343.929C750.192 342.863 749.989 341.679 749.989 340.377C749.989 339.055 750.192 337.86 750.597 336.793C751.024 335.727 751.6 334.82 752.325 334.073C753.072 333.305 753.925 332.719 754.885 332.313C755.845 331.887 756.858 331.673 757.925 331.673C758.693 331.673 759.418 331.801 760.101 332.057C760.784 332.292 761.392 332.623 761.925 333.049C761.925 332.879 761.925 332.719 761.925 332.569C761.925 332.42 761.925 332.271 761.925 332.121C762.8 332.121 763.685 332.121 764.581 332.121C765.477 332.121 766.352 332.121 767.205 332.121C767.205 334.852 767.205 337.615 767.205 340.409C767.205 343.183 767.205 345.935 767.205 348.665C766.352 348.665 765.477 348.665 764.581 348.665C763.685 348.665 762.8 348.665 761.925 348.665ZM758.661 344.441C759.685 344.441 760.506 344.068 761.125 343.321C761.744 342.575 762.053 341.593 762.053 340.377C762.053 339.161 761.744 338.191 761.125 337.465C760.506 336.719 759.685 336.345 758.661 336.345C757.616 336.345 756.784 336.708 756.165 337.433C755.568 338.159 755.269 339.14 755.269 340.377C755.269 341.615 755.568 342.607 756.165 343.353C756.784 344.079 757.616 344.441 758.661 344.441ZM770.889 348.665C770.889 344.804 770.889 340.911 770.889 336.985C770.889 333.06 770.889 329.167 770.889 325.305C771.763 325.305 772.649 325.305 773.545 325.305C774.441 325.305 775.315 325.305 776.169 325.305C776.169 329.167 776.169 333.06 776.169 336.985C776.169 340.911 776.169 344.804 776.169 348.665C775.315 348.665 774.441 348.665 773.545 348.665C772.649 348.665 771.763 348.665 770.889 348.665Z" fill="#888888"/>
<path d="M659.399 409.01C658.481 409.01 657.553 409.01 656.615 409.01C655.676 409.01 654.737 409.01 653.799 409.01C653.799 405.426 653.799 401.799 653.799 398.13C653.799 394.46 653.799 390.834 653.799 387.25C654.737 387.25 655.676 387.25 656.615 387.25C657.553 387.25 658.481 387.25 659.399 387.25C659.399 388.551 659.399 389.863 659.399 391.186C659.399 392.487 659.399 393.788 659.399 395.09C660.529 395.09 661.671 395.09 662.823 395.09C663.975 395.09 665.105 395.09 666.215 395.09C666.215 393.788 666.215 392.487 666.215 391.186C666.215 389.863 666.215 388.551 666.215 387.25C667.153 387.25 668.092 387.25 669.031 387.25C669.969 387.25 670.897 387.25 671.815 387.25C671.815 390.834 671.815 394.46 671.815 398.13C671.815 401.799 671.815 405.426 671.815 409.01C670.897 409.01 669.969 409.01 669.031 409.01C668.092 409.01 667.153 409.01 666.215 409.01C666.215 407.559 666.215 406.098 666.215 404.626C666.215 403.132 666.215 401.671 666.215 400.242C665.105 400.242 663.975 400.242 662.823 400.242C661.671 400.242 660.529 400.242 659.399 400.242C659.399 401.671 659.399 403.132 659.399 404.626C659.399 406.098 659.399 407.559 659.399 409.01ZM686.706 409.01C686.706 408.839 686.706 408.679 686.706 408.53C686.706 408.359 686.706 408.199 686.706 408.05C686.173 408.498 685.565 408.839 684.882 409.074C684.221 409.33 683.506 409.458 682.738 409.458C681.65 409.458 680.626 409.255 679.666 408.85C678.706 408.423 677.853 407.826 677.106 407.058C676.381 406.268 675.805 405.34 675.378 404.274C674.973 403.207 674.77 402.023 674.77 400.722C674.77 399.399 674.973 398.204 675.378 397.138C675.805 396.071 676.381 395.164 677.106 394.418C677.853 393.65 678.706 393.063 679.666 392.658C680.626 392.231 681.64 392.018 682.706 392.018C683.474 392.018 684.2 392.146 684.882 392.402C685.565 392.636 686.173 392.967 686.706 393.394C686.706 393.223 686.706 393.063 686.706 392.914C686.706 392.764 686.706 392.615 686.706 392.466C687.581 392.466 688.466 392.466 689.362 392.466C690.258 392.466 691.133 392.466 691.986 392.466C691.986 395.196 691.986 397.959 691.986 400.754C691.986 403.527 691.986 406.279 691.986 409.01C691.133 409.01 690.258 409.01 689.362 409.01C688.466 409.01 687.581 409.01 686.706 409.01ZM683.442 404.786C684.466 404.786 685.288 404.412 685.906 403.666C686.525 402.919 686.834 401.938 686.834 400.722C686.834 399.506 686.525 398.535 685.906 397.81C685.288 397.063 684.466 396.69 683.442 396.69C682.397 396.69 681.565 397.052 680.946 397.778C680.349 398.503 680.05 399.484 680.05 400.722C680.05 401.959 680.349 402.951 680.946 403.698C681.565 404.423 682.397 404.786 683.442 404.786ZM700.79 414.13C699.937 414.13 699.062 414.13 698.166 414.13C697.27 414.13 696.385 414.13 695.51 414.13C695.51 410.567 695.51 406.962 695.51 403.314C695.51 399.644 695.51 396.028 695.51 392.466C696.385 392.466 697.27 392.466 698.166 392.466C699.062 392.466 699.937 392.466 700.79 392.466C700.79 392.615 700.79 392.764 700.79 392.914C700.79 393.063 700.79 393.223 700.79 393.394C701.323 392.967 701.931 392.636 702.614 392.402C703.297 392.146 704.022 392.018 704.79 392.018C705.857 392.018 706.87 392.231 707.83 392.658C708.79 393.063 709.633 393.65 710.358 394.418C711.105 395.186 711.681 396.103 712.086 397.17C712.513 398.236 712.726 399.42 712.726 400.722C712.726 402.002 712.513 403.175 712.086 404.242C711.681 405.308 711.105 406.236 710.358 407.026C709.633 407.794 708.79 408.391 707.83 408.818C706.87 409.244 705.846 409.458 704.758 409.458C703.99 409.458 703.265 409.33 702.582 409.074C701.921 408.839 701.323 408.498 700.79 408.05C700.79 409.052 700.79 410.066 700.79 411.09C700.79 412.114 700.79 413.127 700.79 414.13ZM704.054 404.786C705.099 404.786 705.921 404.423 706.518 403.698C707.137 402.951 707.446 401.959 707.446 400.722C707.446 399.484 707.137 398.503 706.518 397.778C705.921 397.052 705.099 396.69 704.054 396.69C703.03 396.69 702.209 397.063 701.59 397.81C700.971 398.535 700.662 399.506 700.662 400.722C700.662 401.938 700.971 402.919 701.59 403.666C702.209 404.412 703.03 404.786 704.054 404.786ZM720.634 414.13C719.78 414.13 718.906 414.13 718.01 414.13C717.114 414.13 716.228 414.13 715.354 414.13C715.354 410.567 715.354 406.962 715.354 403.314C715.354 399.644 715.354 396.028 715.354 392.466C716.228 392.466 717.114 392.466 718.01 392.466C718.906 392.466 719.78 392.466 720.634 392.466C720.634 392.615 720.634 392.764 720.634 392.914C720.634 393.063 720.634 393.223 720.634 393.394C721.167 392.967 721.775 392.636 722.458 392.402C723.14 392.146 723.866 392.018 724.634 392.018C725.7 392.018 726.714 392.231 727.674 392.658C728.634 393.063 729.476 393.65 730.202 394.418C730.948 395.186 731.524 396.103 731.93 397.17C732.356 398.236 732.57 399.42 732.57 400.722C732.57 402.002 732.356 403.175 731.93 404.242C731.524 405.308 730.948 406.236 730.202 407.026C729.476 407.794 728.634 408.391 727.674 408.818C726.714 409.244 725.69 409.458 724.602 409.458C723.834 409.458 723.108 409.33 722.426 409.074C721.764 408.839 721.167 408.498 720.634 408.05C720.634 409.052 720.634 410.066 720.634 411.09C720.634 412.114 720.634 413.127 720.634 414.13ZM723.898 404.786C724.943 404.786 725.764 404.423 726.362 403.698C726.98 402.951 727.29 401.959 727.29 400.722C727.29 399.484 726.98 398.503 726.362 397.778C725.764 397.052 724.943 396.69 723.898 396.69C722.874 396.69 722.052 397.063 721.434 397.81C720.815 398.535 720.506 399.506 720.506 400.722C720.506 401.938 720.815 402.919 721.434 403.666C722.052 404.412 722.874 404.786 723.898 404.786ZM736.421 414.13C736.848 412.999 737.285 411.858 737.733 410.706C738.202 409.575 738.65 408.455 739.077 407.346C738.074 404.892 737.05 402.418 736.005 399.922C734.981 397.404 733.968 394.919 732.965 392.466C733.904 392.466 734.842 392.466 735.781 392.466C736.72 392.466 737.648 392.466 738.565 392.466C739.12 393.831 739.674 395.218 740.229 396.626C740.805 398.034 741.37 399.431 741.925 400.818C742.437 399.431 742.96 398.034 743.493 396.626C744.026 395.218 744.549 393.831 745.061 392.466C745.978 392.466 746.896 392.466 747.813 392.466C748.73 392.466 749.648 392.466 750.565 392.466C749.136 396.028 747.696 399.644 746.245 403.314C744.816 406.962 743.386 410.567 741.957 414.13C741.04 414.13 740.112 414.13 739.173 414.13C738.256 414.13 737.338 414.13 736.421 414.13Z" fill="#888888"/>
<path d="M1061.51 301.636C1053.3 288.376 1025.24 274.94 1036.5 289.498C1045.2 300.743 1054.3 302.044 1061.51 301.636Z" stroke="#404040" stroke-width="3.58901"/>
<path d="M1072.04 308.141C1068.46 323.372 1046.12 345.227 1052.19 327.775C1056.87 314.294 1065.09 310.099 1072.04 308.141Z" stroke="#404040" stroke-width="3.58901"/>
<path d="M652.89 305.649L1057.98 307.086" stroke="#404040" stroke-width="3.58901"/>
<ellipse cx="6.15424" cy="11.869" rx="6.15424" ry="11.869" transform="matrix(0.999994 0.00354699 -0.00339759 0.999994 1069.16 275.943)" fill="#EFF389"/>
<ellipse cx="6.20072" cy="11.7814" rx="6.20072" ry="11.7814" transform="matrix(0.699381 0.714853 -0.704222 0.709875 1091.83 281.021)" fill="#EFF389"/>
<ellipse cx="6.24264" cy="11.7012" rx="6.24264" ry="11.7012" transform="matrix(0.207804 0.978202 -0.976852 0.213768 1069.14 300.931)" fill="#EFF389"/>
<ellipse cx="6.22636" cy="11.7324" rx="6.22636" ry="11.7324" transform="matrix(-0.4693 0.882969 -0.877138 -0.480368 1074.59 295.282)" fill="#EFF389"/>
<ellipse cx="6.16586" cy="11.8472" rx="6.16586" ry="11.8472" transform="matrix(-0.932565 -0.361141 0.351778 -0.936031 1070.58 334.757)" fill="#EFF389"/>
<ellipse cx="6.20072" cy="11.7814" rx="6.20072" ry="11.7814" transform="matrix(-0.704222 0.709875 -0.699381 -0.714853 1098.22 323.007)" fill="#EFF389"/>
<ellipse cx="6.24685" cy="11.693" rx="6.24685" ry="11.693" transform="matrix(-0.00339759 0.999994 -0.999994 -0.00354699 1104.77 300.433)" fill="#EFF389"/>
<ellipse cx="10.4048" cy="10.5614" rx="10.4048" ry="10.5614" transform="matrix(0.999994 0.00354699 -0.00339759 0.999994 1065.15 294.034)" fill="#FECC73"/>
<path d="M1061.09 361.462C1052.88 348.202 1024.82 334.767 1036.08 349.324C1044.78 360.569 1053.88 361.87 1061.09 361.462Z" stroke="#404040" stroke-width="3.58901"/>
<path d="M1071.62 367.967C1068.04 383.197 1045.7 405.053 1051.77 387.601C1056.45 374.12 1064.66 369.925 1071.62 367.967Z" stroke="#404040" stroke-width="3.58901"/>
<path d="M652.47 365.474L1057.56 366.911" stroke="#404040" stroke-width="3.58901"/>
<ellipse cx="6.15424" cy="11.869" rx="6.15424" ry="11.869" transform="matrix(0.999994 0.00354699 -0.00339759 0.999994 1068.74 335.769)" fill="#EFF389"/>
<ellipse cx="6.20072" cy="11.7814" rx="6.20072" ry="11.7814" transform="matrix(0.699381 0.714853 -0.704222 0.709875 1091.41 340.847)" fill="#EFF389"/>
<ellipse cx="6.24264" cy="11.7012" rx="6.24264" ry="11.7012" transform="matrix(0.207804 0.978202 -0.976852 0.213768 1068.72 360.757)" fill="#EFF389"/>
<ellipse cx="6.22636" cy="11.7324" rx="6.22636" ry="11.7324" transform="matrix(-0.4693 0.882969 -0.877138 -0.480368 1074.17 355.109)" fill="#EFF389"/>
<ellipse cx="6.16586" cy="11.8472" rx="6.16586" ry="11.8472" transform="matrix(-0.932565 -0.361141 0.351778 -0.936031 1070.16 394.583)" fill="#EFF389"/>
<ellipse cx="6.20072" cy="11.7814" rx="6.20072" ry="11.7814" transform="matrix(-0.704222 0.709875 -0.699381 -0.714853 1097.8 382.833)" fill="#EFF389"/>
<ellipse cx="6.24685" cy="11.693" rx="6.24685" ry="11.693" transform="matrix(-0.00339759 0.999994 -0.999994 -0.00354699 1104.35 360.259)" fill="#EFF389"/>
<ellipse cx="10.4048" cy="10.5614" rx="10.4048" ry="10.5614" transform="matrix(0.999994 0.00354699 -0.00339759 0.999994 1064.73 353.861)" fill="#FECC73"/>
<path d="M1060.97 421.287C1052.76 408.027 1024.7 394.592 1035.96 409.149C1044.66 420.394 1053.76 421.695 1060.97 421.287Z" stroke="#404040" stroke-width="3.58901"/>
<path d="M1071.5 427.793C1067.92 443.023 1045.58 464.879 1051.65 447.427C1056.33 433.946 1064.55 429.751 1071.5 427.793Z" stroke="#404040" stroke-width="3.58901"/>
<path d="M652.351 425.3L1057.44 426.737" stroke="#404040" stroke-width="3.58901"/>
<ellipse cx="6.15424" cy="11.869" rx="6.15424" ry="11.869" transform="matrix(0.999994 0.00354699 -0.00339759 0.999994 1068.62 395.595)" fill="#EFF389"/>
<ellipse cx="6.20072" cy="11.7814" rx="6.20072" ry="11.7814" transform="matrix(0.699381 0.714853 -0.704222 0.709875 1091.29 400.673)" fill="#EFF389"/>
<ellipse cx="6.24264" cy="11.7012" rx="6.24264" ry="11.7012" transform="matrix(0.207804 0.978202 -0.976852 0.213768 1068.61 420.583)" fill="#EFF389"/>
<ellipse cx="6.22636" cy="11.7324" rx="6.22636" ry="11.7324" transform="matrix(-0.4693 0.882969 -0.877138 -0.480368 1074.05 414.934)" fill="#EFF389"/>
<ellipse cx="6.16586" cy="11.8472" rx="6.16586" ry="11.8472" transform="matrix(-0.932565 -0.361141 0.351778 -0.936031 1070.04 454.409)" fill="#EFF389"/>
<ellipse cx="6.20072" cy="11.7814" rx="6.20072" ry="11.7814" transform="matrix(-0.704222 0.709875 -0.699381 -0.714853 1097.68 442.66)" fill="#EFF389"/>
<ellipse cx="6.24685" cy="11.693" rx="6.24685" ry="11.693" transform="matrix(-0.00339759 0.999994 -0.999994 -0.00354699 1104.23 420.084)" fill="#EFF389"/>
<ellipse cx="10.4048" cy="10.5614" rx="10.4048" ry="10.5614" transform="matrix(0.999994 0.00354699 -0.00339759 0.999994 1064.61 413.687)" fill="#FECC73"/>
<rect x="77.8989" y="62.5388" width="246.863" height="268.807" fill="#2F4ECD"/>
<rect x="77.8989" y="62.5388" width="20.8462" height="32.9151" fill="#6697DC"/>
</svg>
