<svg width="1156" height="642" viewBox="0 0 1156 642" fill="none" xmlns="http://www.w3.org/2000/svg">
<rect x="2" y="639.844" width="637.844" height="1151.32" rx="39" transform="rotate(-90 2 639.844)" fill="#FBF6F2" stroke="#404040" stroke-width="4"/>
<path d="M655.879 117.247C655.879 110.079 655.879 102.826 655.879 95.4872C655.879 88.1485 655.879 80.8952 655.879 73.7272C658.524 73.7272 661.169 73.7272 663.815 73.7272C666.503 73.7272 669.148 73.7272 671.751 73.7272C675.036 73.7272 677.895 74.3672 680.327 75.6472C682.759 76.8845 684.657 78.6339 686.023 80.8952C687.388 83.1565 688.071 85.8019 688.071 88.8312C688.071 91.8179 687.388 94.4419 686.023 96.7032C684.7 98.9645 682.865 100.714 680.519 101.951C678.215 103.189 675.591 103.807 672.647 103.807C671.708 103.807 670.769 103.807 669.831 103.807C668.935 103.807 668.017 103.807 667.079 103.807C667.079 106.026 667.079 108.266 667.079 110.527C667.079 112.789 667.079 115.029 667.079 117.247C665.244 117.247 663.388 117.247 661.511 117.247C659.633 117.247 657.756 117.247 655.879 117.247ZM671.751 83.7752C670.983 83.7752 670.193 83.7752 669.383 83.7752C668.615 83.7752 667.847 83.7752 667.079 83.7752C667.079 85.4819 667.079 87.2099 667.079 88.9592C667.079 90.6659 667.079 92.3725 667.079 94.0792C667.932 94.0792 668.807 94.0792 669.703 94.0792C670.641 94.0792 671.537 94.0792 672.391 94.0792C673.713 94.0792 674.78 93.5885 675.591 92.6072C676.444 91.6259 676.871 90.4099 676.871 88.9592C676.871 87.4659 676.423 86.2285 675.527 85.2472C674.631 84.2659 673.372 83.7752 671.751 83.7752ZM707.919 118.271C705.444 118.271 703.14 117.845 701.007 116.991C698.873 116.095 697.017 114.858 695.439 113.279C693.86 111.658 692.623 109.781 691.727 107.647C690.873 105.514 690.447 103.189 690.447 100.671C690.447 98.1539 690.873 95.8285 691.727 93.6952C692.623 91.5619 693.86 89.7059 695.439 88.1272C697.017 86.5485 698.873 85.3325 701.007 84.4792C703.14 83.5832 705.444 83.1352 707.919 83.1352C710.436 83.1352 712.74 83.5832 714.831 84.4792C716.964 85.3325 718.82 86.5485 720.399 88.1272C721.977 89.7059 723.193 91.5619 724.047 93.6952C724.943 95.8285 725.391 98.1539 725.391 100.671C725.391 103.189 724.943 105.514 724.047 107.647C723.193 109.781 721.977 111.658 720.399 113.279C718.82 114.858 716.964 116.095 714.831 116.991C712.74 117.845 710.436 118.271 707.919 118.271ZM707.919 108.735C710.009 108.735 711.673 107.989 712.911 106.495C714.191 104.959 714.831 103.018 714.831 100.671C714.831 98.2819 714.191 96.3619 712.911 94.9112C711.673 93.4179 710.009 92.6712 707.919 92.6712C705.828 92.6712 704.143 93.4179 702.863 94.9112C701.625 96.3619 701.007 98.2819 701.007 100.671C701.007 103.018 701.625 104.959 702.863 106.495C704.143 107.989 705.828 108.735 707.919 108.735ZM741.174 127.487C739.467 127.487 737.718 127.487 735.926 127.487C734.134 127.487 732.363 127.487 730.614 127.487C730.614 120.362 730.614 113.151 730.614 105.855C730.614 98.5165 730.614 91.2845 730.614 84.1592C732.363 84.1592 734.134 84.1592 735.926 84.1592C737.718 84.1592 739.467 84.1592 741.174 84.1592C741.174 84.4579 741.174 84.7565 741.174 85.0552C741.174 85.3539 741.174 85.6739 741.174 86.0152C742.24 85.1619 743.456 84.5005 744.822 84.0312C746.187 83.5192 747.638 83.2632 749.174 83.2632C751.307 83.2632 753.334 83.6899 755.254 84.5432C757.174 85.3539 758.859 86.5272 760.31 88.0632C761.803 89.5992 762.955 91.4339 763.766 93.5672C764.619 95.7005 765.046 98.0685 765.046 100.671C765.046 103.231 764.619 105.578 763.766 107.711C762.955 109.845 761.803 111.701 760.31 113.279C758.859 114.815 757.174 116.01 755.254 116.863C753.334 117.717 751.286 118.143 749.11 118.143C747.574 118.143 746.123 117.887 744.758 117.375C743.435 116.906 742.24 116.223 741.174 115.327C741.174 117.333 741.174 119.359 741.174 121.407C741.174 123.455 741.174 125.482 741.174 127.487ZM747.702 108.799C749.792 108.799 751.435 108.074 752.63 106.623C753.867 105.13 754.486 103.146 754.486 100.671C754.486 98.1965 753.867 96.2339 752.63 94.7832C751.435 93.3325 749.792 92.6072 747.702 92.6072C745.654 92.6072 744.011 93.3539 742.774 94.8472C741.536 96.2979 740.918 98.2392 740.918 100.671C740.918 103.103 741.536 105.066 742.774 106.559C744.011 108.053 745.654 108.799 747.702 108.799ZM655.879 187.247C655.879 180.079 655.879 172.826 655.879 165.487C655.879 158.149 655.879 150.895 655.879 143.727C658.524 143.727 661.169 143.727 663.815 143.727C666.503 143.727 669.148 143.727 671.751 143.727C674.695 143.727 677.276 144.261 679.495 145.327C681.713 146.351 683.441 147.802 684.679 149.679C685.916 151.514 686.535 153.69 686.535 156.207C686.535 157.999 686.193 159.621 685.511 161.071C684.828 162.522 683.804 163.738 682.439 164.719C684.231 165.786 685.596 167.173 686.535 168.879C687.473 170.543 687.943 172.399 687.943 174.447C687.943 177.007 687.281 179.247 685.959 181.167C684.679 183.087 682.865 184.581 680.519 185.647C678.215 186.714 675.505 187.247 672.391 187.247C669.66 187.247 666.908 187.247 664.135 187.247C661.361 187.247 658.609 187.247 655.879 187.247ZM675.335 157.295C675.335 156.186 674.993 155.29 674.311 154.607C673.628 153.882 672.732 153.519 671.623 153.519C670.855 153.519 670.065 153.519 669.255 153.519C668.487 153.519 667.719 153.519 666.951 153.519C666.951 154.714 666.951 155.951 666.951 157.231C666.951 158.469 666.951 159.706 666.951 160.943C667.719 160.943 668.487 160.943 669.255 160.943C670.065 160.943 670.855 160.943 671.623 160.943C672.732 160.943 673.628 160.623 674.311 159.983C674.993 159.301 675.335 158.405 675.335 157.295ZM676.743 173.423C676.743 172.229 676.337 171.29 675.527 170.607C674.759 169.882 673.692 169.519 672.327 169.519C671.431 169.519 670.535 169.519 669.639 169.519C668.743 169.519 667.847 169.519 666.951 169.519C666.951 170.842 666.951 172.165 666.951 173.487C666.951 174.81 666.951 176.133 666.951 177.455C667.847 177.455 668.743 177.455 669.639 177.455C670.535 177.455 671.431 177.455 672.327 177.455C673.692 177.455 674.759 177.093 675.527 176.367C676.337 175.642 676.743 174.661 676.743 173.423ZM715.444 187.247C715.444 186.906 715.444 186.586 715.444 186.287C715.444 185.946 715.444 185.626 715.444 185.327C714.377 186.223 713.161 186.906 711.796 187.375C710.473 187.887 709.044 188.143 707.508 188.143C705.332 188.143 703.284 187.738 701.364 186.927C699.444 186.074 697.737 184.879 696.244 183.343C694.793 181.765 693.641 179.909 692.788 177.775C691.977 175.642 691.572 173.274 691.572 170.671C691.572 168.026 691.977 165.637 692.788 163.503C693.641 161.37 694.793 159.557 696.244 158.063C697.737 156.527 699.444 155.354 701.364 154.543C703.284 153.69 705.31 153.263 707.444 153.263C708.98 153.263 710.43 153.519 711.796 154.031C713.161 154.501 714.377 155.162 715.444 156.015C715.444 155.674 715.444 155.354 715.444 155.055C715.444 154.757 715.444 154.458 715.444 154.159C717.193 154.159 718.964 154.159 720.756 154.159C722.548 154.159 724.297 154.159 726.004 154.159C726.004 159.621 726.004 165.146 726.004 170.735C726.004 176.282 726.004 181.786 726.004 187.247C724.297 187.247 722.548 187.247 720.756 187.247C718.964 187.247 717.193 187.247 715.444 187.247ZM708.916 178.799C710.964 178.799 712.606 178.053 713.844 176.559C715.081 175.066 715.7 173.103 715.7 170.671C715.7 168.239 715.081 166.298 713.844 164.847C712.606 163.354 710.964 162.607 708.916 162.607C706.825 162.607 705.161 163.333 703.924 164.783C702.729 166.234 702.132 168.197 702.132 170.671C702.132 173.146 702.729 175.13 703.924 176.623C705.161 178.074 706.825 178.799 708.916 178.799ZM733.371 187.247C733.371 179.525 733.371 171.738 733.371 163.887C733.371 156.037 733.371 148.25 733.371 140.527C735.121 140.527 736.891 140.527 738.683 140.527C740.475 140.527 742.225 140.527 743.931 140.527C743.931 148.25 743.931 156.037 743.931 163.887C743.931 171.738 743.931 179.525 743.931 187.247C742.225 187.247 740.475 187.247 738.683 187.247C736.891 187.247 735.121 187.247 733.371 187.247ZM751.621 187.247C751.621 179.525 751.621 171.738 751.621 163.887C751.621 156.037 751.621 148.25 751.621 140.527C753.371 140.527 755.141 140.527 756.933 140.527C758.725 140.527 760.475 140.527 762.181 140.527C762.181 148.25 762.181 156.037 762.181 163.887C762.181 171.738 762.181 179.525 762.181 187.247C760.475 187.247 758.725 187.247 756.933 187.247C755.141 187.247 753.371 187.247 751.621 187.247ZM791.631 187.247C791.631 186.906 791.631 186.586 791.631 186.287C791.631 185.946 791.631 185.626 791.631 185.327C790.565 186.223 789.349 186.906 787.983 187.375C786.661 187.887 785.231 188.143 783.695 188.143C781.519 188.143 779.471 187.738 777.551 186.927C775.631 186.074 773.925 184.879 772.431 183.343C770.981 181.765 769.829 179.909 768.975 177.775C768.165 175.642 767.759 173.274 767.759 170.671C767.759 168.026 768.165 165.637 768.975 163.503C769.829 161.37 770.981 159.557 772.431 158.063C773.925 156.527 775.631 155.354 777.551 154.543C779.471 153.69 781.498 153.263 783.631 153.263C785.167 153.263 786.618 153.519 787.983 154.031C789.349 154.501 790.565 155.162 791.631 156.015C791.631 155.674 791.631 155.354 791.631 155.055C791.631 154.757 791.631 154.458 791.631 154.159C793.381 154.159 795.151 154.159 796.943 154.159C798.735 154.159 800.485 154.159 802.191 154.159C802.191 159.621 802.191 165.146 802.191 170.735C802.191 176.282 802.191 181.786 802.191 187.247C800.485 187.247 798.735 187.247 796.943 187.247C795.151 187.247 793.381 187.247 791.631 187.247ZM785.103 178.799C787.151 178.799 788.794 178.053 790.031 176.559C791.269 175.066 791.887 173.103 791.887 170.671C791.887 168.239 791.269 166.298 790.031 164.847C788.794 163.354 787.151 162.607 785.103 162.607C783.013 162.607 781.349 163.333 780.111 164.783C778.917 166.234 778.319 168.197 778.319 170.671C778.319 173.146 778.917 175.13 780.111 176.623C781.349 178.074 783.013 178.799 785.103 178.799ZM831.319 187.247C831.319 186.906 831.319 186.586 831.319 186.287C831.319 185.946 831.319 185.626 831.319 185.327C830.252 186.223 829.036 186.906 827.671 187.375C826.348 187.887 824.919 188.143 823.383 188.143C821.207 188.143 819.159 187.717 817.239 186.863C815.319 186.01 813.612 184.815 812.119 183.279C810.668 181.701 809.516 179.845 808.663 177.711C807.852 175.578 807.447 173.231 807.447 170.671C807.447 168.069 807.852 165.701 808.663 163.567C809.516 161.434 810.668 159.599 812.119 158.063C813.612 156.527 815.319 155.354 817.239 154.543C819.159 153.69 821.185 153.263 823.319 153.263C824.855 153.263 826.305 153.519 827.671 154.031C829.036 154.501 830.252 155.162 831.319 156.015C831.319 153.455 831.319 150.874 831.319 148.271C831.319 145.669 831.319 143.087 831.319 140.527C833.068 140.527 834.839 140.527 836.631 140.527C838.423 140.527 840.172 140.527 841.879 140.527C841.879 148.25 841.879 156.037 841.879 163.887C841.879 171.738 841.879 179.525 841.879 187.247C840.172 187.247 838.423 187.247 836.631 187.247C834.839 187.247 833.068 187.247 831.319 187.247ZM824.791 178.799C826.839 178.799 828.481 178.053 829.719 176.559C830.956 175.066 831.575 173.103 831.575 170.671C831.575 168.239 830.956 166.298 829.719 164.847C828.481 163.354 826.839 162.607 824.791 162.607C822.7 162.607 821.036 163.333 819.799 164.783C818.604 166.234 818.007 168.197 818.007 170.671C818.007 173.146 818.604 175.13 819.799 176.623C821.036 178.074 822.7 178.799 824.791 178.799Z" fill="#404040"/>
<path d="M668.103 279.566C668.103 281.188 667.676 282.51 666.823 283.534C665.991 284.537 664.86 285.262 663.431 285.71C662.023 286.158 660.444 286.35 658.695 286.286C656.945 286.244 655.164 285.977 653.351 285.486C653.351 284.569 653.351 283.652 653.351 282.734C653.351 281.817 653.351 280.9 653.351 279.982C655.015 280.58 656.529 280.953 657.895 281.102C659.26 281.252 660.348 281.198 661.159 280.942C661.969 280.665 662.375 280.206 662.375 279.566C662.375 279.118 662.151 278.756 661.703 278.478C661.255 278.18 660.668 277.913 659.943 277.678C659.239 277.444 658.492 277.177 657.703 276.878C656.913 276.558 656.156 276.164 655.431 275.694C654.727 275.204 654.151 274.574 653.703 273.806C653.255 273.017 653.031 272.036 653.031 270.862C653.031 269.412 653.415 268.185 654.183 267.182C654.951 266.18 655.985 265.422 657.287 264.91C658.609 264.398 660.103 264.142 661.767 264.142C663.452 264.142 665.191 264.398 666.983 264.91C666.983 265.828 666.983 266.745 666.983 267.662C666.983 268.58 666.983 269.497 666.983 270.414C665.489 269.774 664.113 269.39 662.855 269.262C661.617 269.113 660.625 269.177 659.879 269.454C659.132 269.71 658.759 270.137 658.759 270.734C658.759 271.161 658.983 271.513 659.431 271.79C659.879 272.068 660.455 272.324 661.159 272.558C661.884 272.772 662.641 273.038 663.431 273.358C664.22 273.657 664.967 274.062 665.671 274.574C666.396 275.065 666.983 275.716 667.431 276.526C667.879 277.316 668.103 278.329 668.103 279.566ZM684.938 285.358C683.466 285.977 682.004 286.361 680.554 286.51C679.103 286.66 677.727 286.574 676.426 286.254C675.146 285.956 674.004 285.433 673.002 284.686C671.999 283.94 671.21 282.99 670.634 281.838C670.079 280.686 669.802 279.353 669.802 277.838C669.802 276.58 670.004 275.428 670.41 274.382C670.836 273.316 671.434 272.388 672.202 271.598C672.97 270.788 673.876 270.169 674.922 269.742C675.967 269.294 677.108 269.07 678.345 269.07C679.455 269.07 680.458 269.252 681.354 269.614C682.25 269.977 683.028 270.489 683.69 271.15C684.351 271.79 684.884 272.558 685.29 273.454C685.695 274.35 685.951 275.332 686.058 276.398C686.164 277.465 686.1 278.596 685.866 279.79C684.116 279.79 682.356 279.79 680.586 279.79C678.815 279.79 677.055 279.79 675.306 279.79C675.711 280.601 676.383 281.177 677.322 281.518C678.282 281.86 679.412 281.966 680.714 281.838C682.036 281.71 683.444 281.369 684.938 280.814C684.938 281.561 684.938 282.318 684.938 283.086C684.938 283.854 684.938 284.612 684.938 285.358ZM678.218 273.806C677.599 273.806 677.023 273.977 676.49 274.318C675.978 274.66 675.583 275.182 675.306 275.886C676.266 275.886 677.226 275.886 678.186 275.886C679.167 275.886 680.138 275.886 681.098 275.886C680.842 275.161 680.458 274.638 679.946 274.318C679.455 273.977 678.879 273.806 678.218 273.806ZM688.854 286.126C688.854 283.396 688.854 280.644 688.854 277.87C688.854 275.076 688.854 272.313 688.854 269.582C689.728 269.582 690.614 269.582 691.51 269.582C692.406 269.582 693.28 269.582 694.134 269.582C694.134 269.732 694.134 269.87 694.134 269.998C694.134 270.126 694.134 270.265 694.134 270.414C694.71 270.009 695.35 269.7 696.054 269.486C696.779 269.252 697.558 269.134 698.39 269.134C699.606 269.134 700.672 269.412 701.59 269.966C702.528 270.521 703.254 271.321 703.766 272.366C704.299 273.39 704.566 274.628 704.566 276.078C704.566 277.742 704.566 279.417 704.566 281.102C704.566 282.788 704.566 284.462 704.566 286.126C703.712 286.126 702.838 286.126 701.942 286.126C701.046 286.126 700.16 286.126 699.286 286.126C699.286 284.59 699.286 283.033 699.286 281.454C699.286 279.876 699.286 278.318 699.286 276.782C699.286 275.929 699.083 275.246 698.678 274.734C698.294 274.201 697.675 273.934 696.822 273.934C695.968 273.934 695.307 274.18 694.838 274.67C694.368 275.161 694.134 275.865 694.134 276.782C694.134 278.318 694.134 279.876 694.134 281.454C694.134 283.033 694.134 284.59 694.134 286.126C693.28 286.126 692.406 286.126 691.51 286.126C690.614 286.126 689.728 286.126 688.854 286.126ZM709.551 286.126C709.551 284.164 709.551 282.19 709.551 280.206C709.551 278.222 709.551 276.26 709.551 274.318C709.124 274.318 708.687 274.318 708.239 274.318C707.812 274.318 707.385 274.318 706.959 274.318C706.959 273.529 706.959 272.74 706.959 271.95C706.959 271.161 706.959 270.372 706.959 269.582C707.385 269.582 707.812 269.582 708.239 269.582C708.687 269.582 709.124 269.582 709.551 269.582C709.551 268.836 709.551 268.1 709.551 267.374C709.551 266.628 709.551 265.892 709.551 265.166C710.425 265.166 711.311 265.166 712.207 265.166C713.103 265.166 713.977 265.166 714.831 265.166C714.831 265.892 714.831 266.628 714.831 267.374C714.831 268.1 714.831 268.836 714.831 269.582C715.321 269.582 715.823 269.582 716.335 269.582C716.847 269.582 717.348 269.582 717.839 269.582C717.839 270.372 717.839 271.161 717.839 271.95C717.839 272.74 717.839 273.529 717.839 274.318C717.348 274.318 716.847 274.318 716.335 274.318C715.823 274.318 715.321 274.318 714.831 274.318C714.831 276.26 714.831 278.222 714.831 280.206C714.831 282.19 714.831 284.164 714.831 286.126C713.977 286.126 713.103 286.126 712.207 286.126C711.311 286.126 710.425 286.126 709.551 286.126ZM723.201 267.694C722.582 267.694 722.017 267.545 721.505 267.246C721.014 266.948 720.62 266.553 720.321 266.062C720.022 265.572 719.873 265.028 719.873 264.43C719.873 263.833 720.022 263.3 720.321 262.83C720.62 262.34 721.014 261.945 721.505 261.646C722.017 261.348 722.582 261.198 723.201 261.198C723.798 261.198 724.342 261.348 724.833 261.646C725.345 261.945 725.75 262.34 726.049 262.83C726.348 263.3 726.497 263.833 726.497 264.43C726.497 265.028 726.348 265.572 726.049 266.062C725.75 266.553 725.345 266.948 724.833 267.246C724.342 267.545 723.798 267.694 723.201 267.694ZM720.545 286.126C720.545 283.396 720.545 280.644 720.545 277.87C720.545 275.076 720.545 272.313 720.545 269.582C721.42 269.582 722.305 269.582 723.201 269.582C724.097 269.582 724.972 269.582 725.825 269.582C725.825 272.313 725.825 275.076 725.825 277.87C725.825 280.644 725.825 283.396 725.825 286.126C724.972 286.126 724.097 286.126 723.201 286.126C722.305 286.126 721.42 286.126 720.545 286.126ZM729.51 286.126C729.51 283.396 729.51 280.644 729.51 277.87C729.51 275.076 729.51 272.313 729.51 269.582C730.385 269.582 731.27 269.582 732.166 269.582C733.062 269.582 733.937 269.582 734.79 269.582C734.79 269.732 734.79 269.87 734.79 269.998C734.79 270.126 734.79 270.265 734.79 270.414C735.345 270.009 735.963 269.7 736.646 269.486C737.329 269.252 738.033 269.134 738.758 269.134C739.547 269.134 740.273 269.273 740.934 269.55C741.595 269.806 742.161 270.19 742.63 270.702C743.313 270.212 744.081 269.828 744.934 269.55C745.809 269.273 746.705 269.134 747.622 269.134C748.923 269.134 750.043 269.401 750.982 269.934C751.942 270.468 752.678 271.225 753.19 272.206C753.723 273.188 753.99 274.372 753.99 275.758C753.99 277.465 753.99 279.193 753.99 280.942C753.99 282.692 753.99 284.42 753.99 286.126C753.137 286.126 752.262 286.126 751.366 286.126C750.47 286.126 749.585 286.126 748.71 286.126C748.71 284.526 748.71 282.905 748.71 281.262C748.71 279.62 748.71 277.998 748.71 276.398C748.71 275.673 748.539 275.086 748.198 274.638C747.878 274.169 747.355 273.934 746.63 273.934C745.926 273.934 745.371 274.158 744.966 274.606C744.582 275.033 744.39 275.63 744.39 276.398C744.39 277.998 744.39 279.62 744.39 281.262C744.39 282.905 744.39 284.526 744.39 286.126C743.537 286.126 742.662 286.126 741.766 286.126C740.87 286.126 739.985 286.126 739.11 286.126C739.11 284.526 739.11 282.905 739.11 281.262C739.11 279.62 739.11 277.998 739.11 276.398C739.11 275.673 738.939 275.086 738.598 274.638C738.278 274.169 737.755 273.934 737.03 273.934C736.326 273.934 735.771 274.158 735.366 274.606C734.982 275.033 734.79 275.63 734.79 276.398C734.79 277.998 734.79 279.62 734.79 281.262C734.79 282.905 734.79 284.526 734.79 286.126C733.937 286.126 733.062 286.126 732.166 286.126C731.27 286.126 730.385 286.126 729.51 286.126ZM771.5 285.358C770.028 285.977 768.567 286.361 767.116 286.51C765.665 286.66 764.289 286.574 762.988 286.254C761.708 285.956 760.567 285.433 759.564 284.686C758.561 283.94 757.772 282.99 757.196 281.838C756.641 280.686 756.364 279.353 756.364 277.838C756.364 276.58 756.567 275.428 756.972 274.382C757.399 273.316 757.996 272.388 758.764 271.598C759.532 270.788 760.439 270.169 761.484 269.742C762.529 269.294 763.671 269.07 764.908 269.07C766.017 269.07 767.02 269.252 767.916 269.614C768.812 269.977 769.591 270.489 770.252 271.15C770.913 271.79 771.447 272.558 771.852 273.454C772.257 274.35 772.513 275.332 772.62 276.398C772.727 277.465 772.663 278.596 772.428 279.79C770.679 279.79 768.919 279.79 767.148 279.79C765.377 279.79 763.617 279.79 761.868 279.79C762.273 280.601 762.945 281.177 763.884 281.518C764.844 281.86 765.975 281.966 767.276 281.838C768.599 281.71 770.007 281.369 771.5 280.814C771.5 281.561 771.5 282.318 771.5 283.086C771.5 283.854 771.5 284.612 771.5 285.358ZM764.78 273.806C764.161 273.806 763.585 273.977 763.052 274.318C762.54 274.66 762.145 275.182 761.868 275.886C762.828 275.886 763.788 275.886 764.748 275.886C765.729 275.886 766.7 275.886 767.66 275.886C767.404 275.161 767.02 274.638 766.508 274.318C766.017 273.977 765.441 273.806 764.78 273.806ZM775.416 286.126C775.416 283.396 775.416 280.644 775.416 277.87C775.416 275.076 775.416 272.313 775.416 269.582C776.291 269.582 777.176 269.582 778.072 269.582C778.968 269.582 779.843 269.582 780.696 269.582C780.696 269.732 780.696 269.87 780.696 269.998C780.696 270.126 780.696 270.265 780.696 270.414C781.272 270.009 781.912 269.7 782.616 269.486C783.342 269.252 784.12 269.134 784.952 269.134C786.168 269.134 787.235 269.412 788.152 269.966C789.091 270.521 789.816 271.321 790.328 272.366C790.862 273.39 791.128 274.628 791.128 276.078C791.128 277.742 791.128 279.417 791.128 281.102C791.128 282.788 791.128 284.462 791.128 286.126C790.275 286.126 789.4 286.126 788.504 286.126C787.608 286.126 786.723 286.126 785.848 286.126C785.848 284.59 785.848 283.033 785.848 281.454C785.848 279.876 785.848 278.318 785.848 276.782C785.848 275.929 785.646 275.246 785.24 274.734C784.856 274.201 784.238 273.934 783.384 273.934C782.531 273.934 781.87 274.18 781.4 274.67C780.931 275.161 780.696 275.865 780.696 276.782C780.696 278.318 780.696 279.876 780.696 281.454C780.696 283.033 780.696 284.59 780.696 286.126C779.843 286.126 778.968 286.126 778.072 286.126C777.176 286.126 776.291 286.126 775.416 286.126ZM796.113 286.126C796.113 284.164 796.113 282.19 796.113 280.206C796.113 278.222 796.113 276.26 796.113 274.318C795.686 274.318 795.249 274.318 794.801 274.318C794.374 274.318 793.948 274.318 793.521 274.318C793.521 273.529 793.521 272.74 793.521 271.95C793.521 271.161 793.521 270.372 793.521 269.582C793.948 269.582 794.374 269.582 794.801 269.582C795.249 269.582 795.686 269.582 796.113 269.582C796.113 268.836 796.113 268.1 796.113 267.374C796.113 266.628 796.113 265.892 796.113 265.166C796.988 265.166 797.873 265.166 798.769 265.166C799.665 265.166 800.54 265.166 801.393 265.166C801.393 265.892 801.393 266.628 801.393 267.374C801.393 268.1 801.393 268.836 801.393 269.582C801.884 269.582 802.385 269.582 802.897 269.582C803.409 269.582 803.91 269.582 804.401 269.582C804.401 270.372 804.401 271.161 804.401 271.95C804.401 272.74 804.401 273.529 804.401 274.318C803.91 274.318 803.409 274.318 802.897 274.318C802.385 274.318 801.884 274.318 801.393 274.318C801.393 276.26 801.393 278.222 801.393 280.206C801.393 282.19 801.393 284.164 801.393 286.126C800.54 286.126 799.665 286.126 798.769 286.126C797.873 286.126 796.988 286.126 796.113 286.126ZM817.831 286.126C817.831 285.956 817.831 285.796 817.831 285.646C817.831 285.476 817.831 285.316 817.831 285.166C817.298 285.614 816.69 285.956 816.007 286.19C815.346 286.446 814.631 286.574 813.863 286.574C812.775 286.574 811.751 286.372 810.791 285.966C809.831 285.54 808.978 284.942 808.231 284.174C807.506 283.385 806.93 282.457 806.503 281.39C806.098 280.324 805.895 279.14 805.895 277.838C805.895 276.516 806.098 275.321 806.503 274.254C806.93 273.188 807.506 272.281 808.231 271.534C808.978 270.766 809.831 270.18 810.791 269.774C811.751 269.348 812.765 269.134 813.831 269.134C814.599 269.134 815.325 269.262 816.007 269.518C816.69 269.753 817.298 270.084 817.831 270.51C817.831 270.34 817.831 270.18 817.831 270.03C817.831 269.881 817.831 269.732 817.831 269.582C818.706 269.582 819.591 269.582 820.487 269.582C821.383 269.582 822.258 269.582 823.111 269.582C823.111 272.313 823.111 275.076 823.111 277.87C823.111 280.644 823.111 283.396 823.111 286.126C822.258 286.126 821.383 286.126 820.487 286.126C819.591 286.126 818.706 286.126 817.831 286.126ZM814.567 281.902C815.591 281.902 816.413 281.529 817.031 280.782C817.65 280.036 817.959 279.054 817.959 277.838C817.959 276.622 817.65 275.652 817.031 274.926C816.413 274.18 815.591 273.806 814.567 273.806C813.522 273.806 812.69 274.169 812.071 274.894C811.474 275.62 811.175 276.601 811.175 277.838C811.175 279.076 811.474 280.068 812.071 280.814C812.69 281.54 813.522 281.902 814.567 281.902ZM826.795 286.126C826.795 282.265 826.795 278.372 826.795 274.446C826.795 270.521 826.795 266.628 826.795 262.766C827.67 262.766 828.555 262.766 829.451 262.766C830.347 262.766 831.222 262.766 832.075 262.766C832.075 266.628 832.075 270.521 832.075 274.446C832.075 278.372 832.075 282.265 832.075 286.126C831.222 286.126 830.347 286.126 829.451 286.126C828.555 286.126 827.67 286.126 826.795 286.126Z" fill="#888888"/>
<path d="M653.799 348.665C653.799 345.081 653.799 341.454 653.799 337.785C653.799 334.116 653.799 330.489 653.799 326.905C655.079 326.905 656.359 326.905 657.639 326.905C658.94 326.905 660.231 326.905 661.511 326.905C663.132 326.905 664.551 327.214 665.767 327.833C666.983 328.43 667.921 329.284 668.583 330.393C669.265 331.481 669.607 332.761 669.607 334.233C669.607 335.492 669.351 336.612 668.839 337.593C668.327 338.574 667.633 339.374 666.759 339.993C667.612 341.422 668.465 342.873 669.319 344.345C670.193 345.796 671.057 347.236 671.911 348.665C670.865 348.665 669.82 348.665 668.775 348.665C667.729 348.665 666.684 348.665 665.639 348.665C664.977 347.47 664.305 346.254 663.623 345.017C662.961 343.78 662.289 342.564 661.607 341.369C661.244 341.369 660.871 341.369 660.487 341.369C660.124 341.369 659.761 341.369 659.399 341.369C659.399 342.564 659.399 343.78 659.399 345.017C659.399 346.254 659.399 347.47 659.399 348.665C658.481 348.665 657.553 348.665 656.615 348.665C655.676 348.665 654.737 348.665 653.799 348.665ZM661.511 331.961C661.169 331.961 660.817 331.961 660.455 331.961C660.113 331.961 659.761 331.961 659.399 331.961C659.399 332.75 659.399 333.54 659.399 334.329C659.399 335.118 659.399 335.908 659.399 336.697C659.804 336.697 660.209 336.697 660.615 336.697C661.02 336.697 661.425 336.697 661.831 336.697C662.471 336.697 662.993 336.473 663.399 336.025C663.804 335.556 664.007 334.99 664.007 334.329C664.007 333.646 663.783 333.081 663.335 332.633C662.908 332.185 662.3 331.961 661.511 331.961ZM687.281 347.897C685.809 348.516 684.348 348.9 682.897 349.049C681.447 349.198 680.071 349.113 678.769 348.793C677.489 348.494 676.348 347.972 675.345 347.225C674.343 346.478 673.553 345.529 672.977 344.377C672.423 343.225 672.145 341.892 672.145 340.377C672.145 339.118 672.348 337.966 672.753 336.921C673.18 335.854 673.777 334.926 674.545 334.137C675.313 333.326 676.22 332.708 677.265 332.281C678.311 331.833 679.452 331.609 680.689 331.609C681.799 331.609 682.801 331.79 683.697 332.153C684.593 332.516 685.372 333.028 686.033 333.689C686.695 334.329 687.228 335.097 687.633 335.993C688.039 336.889 688.295 337.87 688.401 338.937C688.508 340.004 688.444 341.134 688.209 342.329C686.46 342.329 684.7 342.329 682.929 342.329C681.159 342.329 679.399 342.329 677.649 342.329C678.055 343.14 678.727 343.716 679.665 344.057C680.625 344.398 681.756 344.505 683.057 344.377C684.38 344.249 685.788 343.908 687.281 343.353C687.281 344.1 687.281 344.857 687.281 345.625C687.281 346.393 687.281 347.15 687.281 347.897ZM680.561 336.345C679.943 336.345 679.367 336.516 678.833 336.857C678.321 337.198 677.927 337.721 677.649 338.425C678.609 338.425 679.569 338.425 680.529 338.425C681.511 338.425 682.481 338.425 683.441 338.425C683.185 337.7 682.801 337.177 682.289 336.857C681.799 336.516 681.223 336.345 680.561 336.345ZM703.838 343.545C703.838 344.868 703.464 345.956 702.718 346.809C701.992 347.641 701.011 348.249 699.774 348.633C698.536 349.017 697.15 349.177 695.614 349.113C694.099 349.07 692.552 348.825 690.974 348.377C690.974 347.566 690.974 346.734 690.974 345.881C690.974 345.028 690.974 344.196 690.974 343.385C691.87 343.79 692.766 344.11 693.661 344.345C694.558 344.558 695.368 344.686 696.094 344.729C696.819 344.772 697.406 344.718 697.854 344.569C698.302 344.398 698.526 344.121 698.526 343.737C698.526 343.438 698.334 343.204 697.95 343.033C697.587 342.862 697.107 342.713 696.51 342.585C695.912 342.436 695.272 342.265 694.59 342.073C693.928 341.86 693.299 341.572 692.702 341.209C692.104 340.825 691.614 340.324 691.23 339.705C690.867 339.065 690.686 338.244 690.686 337.241C690.686 336.046 691.027 335.033 691.71 334.201C692.414 333.348 693.352 332.708 694.526 332.281C695.699 331.833 697.011 331.609 698.462 331.609C699.912 331.609 701.395 331.854 702.91 332.345C702.91 333.156 702.91 333.988 702.91 334.841C702.91 335.694 702.91 336.526 702.91 337.337C701.715 336.761 700.595 336.377 699.55 336.185C698.504 335.993 697.662 335.972 697.022 336.121C696.382 336.249 696.062 336.537 696.062 336.985C696.062 337.284 696.243 337.518 696.606 337.689C696.99 337.838 697.47 337.977 698.046 338.105C698.643 338.233 699.272 338.404 699.934 338.617C700.616 338.83 701.246 339.129 701.822 339.513C702.419 339.876 702.899 340.388 703.262 341.049C703.646 341.689 703.838 342.521 703.838 343.545ZM720.625 347.897C719.153 348.516 717.692 348.9 716.241 349.049C714.79 349.198 713.414 349.113 712.113 348.793C710.833 348.494 709.692 347.972 708.689 347.225C707.686 346.478 706.897 345.529 706.321 344.377C705.766 343.225 705.489 341.892 705.489 340.377C705.489 339.118 705.692 337.966 706.097 336.921C706.524 335.854 707.121 334.926 707.889 334.137C708.657 333.326 709.564 332.708 710.609 332.281C711.654 331.833 712.796 331.609 714.033 331.609C715.142 331.609 716.145 331.79 717.041 332.153C717.937 332.516 718.716 333.028 719.377 333.689C720.038 334.329 720.572 335.097 720.977 335.993C721.382 336.889 721.638 337.87 721.745 338.937C721.852 340.004 721.788 341.134 721.553 342.329C719.804 342.329 718.044 342.329 716.273 342.329C714.502 342.329 712.742 342.329 710.993 342.329C711.398 343.14 712.07 343.716 713.009 344.057C713.969 344.398 715.1 344.505 716.401 344.377C717.724 344.249 719.132 343.908 720.625 343.353C720.625 344.1 720.625 344.857 720.625 345.625C720.625 346.393 720.625 347.15 720.625 347.897ZM713.905 336.345C713.286 336.345 712.71 336.516 712.177 336.857C711.665 337.198 711.27 337.721 710.993 338.425C711.953 338.425 712.913 338.425 713.873 338.425C714.854 338.425 715.825 338.425 716.785 338.425C716.529 337.7 716.145 337.177 715.633 336.857C715.142 336.516 714.566 336.345 713.905 336.345ZM724.541 348.665C724.541 345.934 724.541 343.182 724.541 340.409C724.541 337.614 724.541 334.852 724.541 332.121C725.416 332.121 726.301 332.121 727.197 332.121C728.093 332.121 728.968 332.121 729.821 332.121C729.821 332.27 729.821 332.42 729.821 332.569C729.821 332.718 729.821 332.868 729.821 333.017C730.483 332.548 731.229 332.196 732.061 331.961C732.893 331.726 733.8 331.662 734.781 331.769C734.781 332.622 734.781 333.486 734.781 334.361C734.781 335.236 734.781 336.1 734.781 336.953C733.096 336.718 731.848 336.868 731.037 337.401C730.227 337.913 729.821 338.756 729.821 339.929C729.821 341.358 729.821 342.809 729.821 344.281C729.821 345.753 729.821 347.214 729.821 348.665C728.968 348.665 728.093 348.665 727.197 348.665C726.301 348.665 725.416 348.665 724.541 348.665ZM740.974 348.665C740.036 345.934 739.076 343.182 738.094 340.409C737.134 337.614 736.185 334.852 735.246 332.121C736.164 332.121 737.081 332.121 737.998 332.121C738.937 332.121 739.865 332.121 740.782 332.121C741.337 333.806 741.892 335.502 742.446 337.209C743.022 338.894 743.577 340.58 744.11 342.265C744.665 340.58 745.22 338.894 745.774 337.209C746.329 335.502 746.873 333.806 747.406 332.121C748.302 332.121 749.209 332.121 750.126 332.121C751.044 332.121 751.95 332.121 752.846 332.121C751.908 334.852 750.948 337.614 749.966 340.409C749.006 343.182 748.057 345.934 747.118 348.665C746.116 348.665 745.092 348.665 744.046 348.665C743.001 348.665 741.977 348.665 740.974 348.665ZM768.375 347.897C766.903 348.516 765.442 348.9 763.991 349.049C762.54 349.198 761.164 349.113 759.863 348.793C758.583 348.494 757.442 347.972 756.439 347.225C755.436 346.478 754.647 345.529 754.071 344.377C753.516 343.225 753.239 341.892 753.239 340.377C753.239 339.118 753.442 337.966 753.847 336.921C754.274 335.854 754.871 334.926 755.639 334.137C756.407 333.326 757.314 332.708 758.359 332.281C759.404 331.833 760.546 331.609 761.783 331.609C762.892 331.609 763.895 331.79 764.791 332.153C765.687 332.516 766.466 333.028 767.127 333.689C767.788 334.329 768.322 335.097 768.727 335.993C769.132 336.889 769.388 337.87 769.495 338.937C769.602 340.004 769.538 341.134 769.303 342.329C767.554 342.329 765.794 342.329 764.023 342.329C762.252 342.329 760.492 342.329 758.743 342.329C759.148 343.14 759.82 343.716 760.759 344.057C761.719 344.398 762.85 344.505 764.151 344.377C765.474 344.249 766.882 343.908 768.375 343.353C768.375 344.1 768.375 344.857 768.375 345.625C768.375 346.393 768.375 347.15 768.375 347.897ZM761.655 336.345C761.036 336.345 760.46 336.516 759.927 336.857C759.415 337.198 759.02 337.721 758.743 338.425C759.703 338.425 760.663 338.425 761.623 338.425C762.604 338.425 763.575 338.425 764.535 338.425C764.279 337.7 763.895 337.177 763.383 336.857C762.892 336.516 762.316 336.345 761.655 336.345ZM783.331 348.665C783.331 348.494 783.331 348.334 783.331 348.185C783.331 348.014 783.331 347.854 783.331 347.705C782.798 348.153 782.19 348.494 781.507 348.729C780.846 348.985 780.131 349.113 779.363 349.113C778.275 349.113 777.251 348.9 776.291 348.473C775.331 348.046 774.478 347.449 773.731 346.681C773.006 345.892 772.43 344.964 772.003 343.897C771.598 342.83 771.395 341.657 771.395 340.377C771.395 339.076 771.598 337.892 772.003 336.825C772.43 335.758 773.006 334.841 773.731 334.073C774.478 333.305 775.331 332.718 776.291 332.313C777.251 331.886 778.265 331.673 779.331 331.673C780.099 331.673 780.825 331.801 781.507 332.057C782.19 332.292 782.798 332.622 783.331 333.049C783.331 331.769 783.331 330.478 783.331 329.177C783.331 327.876 783.331 326.585 783.331 325.305C784.206 325.305 785.091 325.305 785.987 325.305C786.883 325.305 787.758 325.305 788.611 325.305C788.611 329.166 788.611 333.06 788.611 336.985C788.611 340.91 788.611 344.804 788.611 348.665C787.758 348.665 786.883 348.665 785.987 348.665C785.091 348.665 784.206 348.665 783.331 348.665ZM780.067 344.441C781.091 344.441 781.913 344.068 782.531 343.321C783.15 342.574 783.459 341.593 783.459 340.377C783.459 339.161 783.15 338.19 782.531 337.465C781.913 336.718 781.091 336.345 780.067 336.345C779.022 336.345 778.19 336.708 777.571 337.433C776.974 338.158 776.675 339.14 776.675 340.377C776.675 341.614 776.974 342.606 777.571 343.353C778.19 344.078 779.022 344.441 780.067 344.441Z" fill="#888888"/>
<path d="M653.799 409.01C653.799 405.426 653.799 401.799 653.799 398.13C653.799 394.46 653.799 390.834 653.799 387.25C655.079 387.25 656.369 387.25 657.671 387.25C658.972 387.25 660.263 387.25 661.543 387.25C663.121 387.25 664.572 387.527 665.895 388.082C667.217 388.615 668.369 389.372 669.351 390.354C670.332 391.335 671.089 392.487 671.623 393.81C672.177 395.111 672.455 396.54 672.455 398.098C672.455 399.655 672.177 401.095 671.623 402.418C671.089 403.74 670.332 404.903 669.351 405.906C668.369 406.887 667.217 407.655 665.895 408.21C664.572 408.743 663.121 409.01 661.543 409.01C660.263 409.01 658.972 409.01 657.671 409.01C656.369 409.01 655.079 409.01 653.799 409.01ZM661.543 392.306C661.201 392.306 660.849 392.306 660.487 392.306C660.124 392.306 659.761 392.306 659.399 392.306C659.399 394.226 659.399 396.167 659.399 398.13C659.399 400.092 659.399 402.034 659.399 403.954C659.761 403.954 660.124 403.954 660.487 403.954C660.849 403.954 661.201 403.954 661.543 403.954C662.609 403.954 663.537 403.698 664.327 403.186C665.116 402.674 665.724 401.98 666.151 401.106C666.577 400.21 666.791 399.207 666.791 398.098C666.791 396.988 666.577 395.996 666.151 395.122C665.724 394.247 665.116 393.564 664.327 393.074C663.537 392.562 662.609 392.306 661.543 392.306ZM678.014 390.578C677.395 390.578 676.83 390.428 676.318 390.13C675.827 389.831 675.432 389.436 675.134 388.946C674.835 388.455 674.686 387.911 674.686 387.314C674.686 386.716 674.835 386.183 675.134 385.714C675.432 385.223 675.827 384.828 676.318 384.53C676.83 384.231 677.395 384.082 678.014 384.082C678.611 384.082 679.155 384.231 679.646 384.53C680.158 384.828 680.563 385.223 680.862 385.714C681.16 386.183 681.31 386.716 681.31 387.314C681.31 387.911 681.16 388.455 680.862 388.946C680.563 389.436 680.158 389.831 679.646 390.13C679.155 390.428 678.611 390.578 678.014 390.578ZM675.358 409.01C675.358 406.279 675.358 403.527 675.358 400.754C675.358 397.959 675.358 395.196 675.358 392.466C676.232 392.466 677.118 392.466 678.014 392.466C678.91 392.466 679.784 392.466 680.638 392.466C680.638 395.196 680.638 397.959 680.638 400.754C680.638 403.527 680.638 406.279 680.638 409.01C679.784 409.01 678.91 409.01 678.014 409.01C677.118 409.01 676.232 409.01 675.358 409.01ZM699.875 406.322C699.875 408.135 699.48 409.65 698.691 410.866C697.923 412.082 696.867 412.988 695.523 413.586C694.179 414.204 692.643 414.524 690.915 414.546C689.208 414.567 687.405 414.311 685.507 413.778C685.507 412.946 685.507 412.103 685.507 411.25C685.507 410.418 685.507 409.586 685.507 408.754C687.192 409.415 688.717 409.746 690.083 409.746C691.448 409.767 692.525 409.511 693.315 408.978C694.125 408.423 694.531 407.666 694.531 406.706C694.531 406.599 694.531 406.503 694.531 406.418C694.531 406.311 694.531 406.215 694.531 406.13C693.997 406.535 693.379 406.855 692.675 407.09C691.971 407.324 691.213 407.442 690.403 407.442C689.059 407.442 687.853 407.132 686.786 406.514C685.741 405.874 684.92 404.999 684.323 403.89C683.725 402.759 683.427 401.447 683.427 399.954C683.427 398.802 683.619 397.746 684.003 396.786C684.387 395.826 684.92 394.994 685.603 394.29C686.285 393.586 687.064 393.052 687.939 392.69C688.813 392.306 689.731 392.114 690.691 392.114C691.459 392.114 692.173 392.22 692.835 392.434C693.496 392.647 694.083 392.935 694.595 393.298C694.595 393.148 694.595 393.01 694.595 392.882C694.595 392.754 694.595 392.615 694.595 392.466C695.469 392.466 696.355 392.466 697.251 392.466C698.147 392.466 699.021 392.466 699.875 392.466C699.875 394.748 699.875 397.063 699.875 399.41C699.875 401.735 699.875 404.039 699.875 406.322ZM691.715 402.866C692.611 402.866 693.325 402.588 693.859 402.034C694.413 401.458 694.691 400.722 694.691 399.826C694.691 398.908 694.413 398.162 693.859 397.586C693.325 397.01 692.611 396.722 691.715 396.722C690.776 396.722 690.029 397.01 689.475 397.586C688.92 398.14 688.643 398.887 688.643 399.826C688.643 400.743 688.92 401.479 689.475 402.034C690.029 402.588 690.776 402.866 691.715 402.866ZM703.385 409.01C703.385 406.279 703.385 403.527 703.385 400.754C703.385 397.959 703.385 395.196 703.385 392.466C704.26 392.466 705.145 392.466 706.041 392.466C706.937 392.466 707.812 392.466 708.665 392.466C708.665 392.615 708.665 392.754 708.665 392.882C708.665 393.01 708.665 393.148 708.665 393.298C709.241 392.892 709.881 392.583 710.585 392.37C711.31 392.135 712.089 392.018 712.921 392.018C714.137 392.018 715.204 392.295 716.121 392.85C717.06 393.404 717.785 394.204 718.297 395.25C718.83 396.274 719.097 397.511 719.097 398.962C719.097 400.626 719.097 402.3 719.097 403.986C719.097 405.671 719.097 407.346 719.097 409.01C718.244 409.01 717.369 409.01 716.473 409.01C715.577 409.01 714.692 409.01 713.817 409.01C713.817 407.474 713.817 405.916 713.817 404.338C713.817 402.759 713.817 401.202 713.817 399.666C713.817 398.812 713.614 398.13 713.209 397.618C712.825 397.084 712.206 396.818 711.353 396.818C710.5 396.818 709.838 397.063 709.369 397.554C708.9 398.044 708.665 398.748 708.665 399.666C708.665 401.202 708.665 402.759 708.665 404.338C708.665 405.916 708.665 407.474 708.665 409.01C707.812 409.01 706.937 409.01 706.041 409.01C705.145 409.01 704.26 409.01 703.385 409.01ZM725.17 390.578C724.551 390.578 723.986 390.428 723.474 390.13C722.983 389.831 722.588 389.436 722.29 388.946C721.991 388.455 721.842 387.911 721.842 387.314C721.842 386.716 721.991 386.183 722.29 385.714C722.588 385.223 722.983 384.828 723.474 384.53C723.986 384.231 724.551 384.082 725.17 384.082C725.767 384.082 726.311 384.231 726.802 384.53C727.314 384.828 727.719 385.223 728.018 385.714C728.316 386.183 728.466 386.716 728.466 387.314C728.466 387.911 728.316 388.455 728.018 388.946C727.719 389.436 727.314 389.831 726.802 390.13C726.311 390.428 725.767 390.578 725.17 390.578ZM722.514 409.01C722.514 406.279 722.514 403.527 722.514 400.754C722.514 397.959 722.514 395.196 722.514 392.466C723.388 392.466 724.274 392.466 725.17 392.466C726.066 392.466 726.94 392.466 727.794 392.466C727.794 395.196 727.794 397.959 727.794 400.754C727.794 403.527 727.794 406.279 727.794 409.01C726.94 409.01 726.066 409.01 725.17 409.01C724.274 409.01 723.388 409.01 722.514 409.01ZM730.615 397.202C730.615 396.412 730.615 395.623 730.615 394.834C730.615 394.044 730.615 393.255 730.615 392.466C731.041 392.466 731.468 392.466 731.895 392.466C732.343 392.466 732.78 392.466 733.207 392.466C733.207 392.359 733.207 392.263 733.207 392.178C733.207 392.092 733.207 392.007 733.207 391.922C733.207 390.492 733.495 389.298 734.071 388.338C734.668 387.356 735.447 386.61 736.407 386.098C737.388 385.564 738.455 385.266 739.607 385.202C740.78 385.116 741.943 385.266 743.095 385.65C743.095 386.439 743.095 387.25 743.095 388.082C743.095 388.914 743.095 389.735 743.095 390.546C741.815 390.119 740.727 390.034 739.831 390.29C738.935 390.546 738.487 391.1 738.487 391.954C738.487 392.039 738.487 392.124 738.487 392.21C738.487 392.295 738.487 392.38 738.487 392.466C739.148 392.466 739.809 392.466 740.471 392.466C741.132 392.466 741.793 392.466 742.455 392.466C742.455 393.255 742.455 394.044 742.455 394.834C742.455 395.623 742.455 396.412 742.455 397.202C741.793 397.202 741.132 397.202 740.471 397.202C739.809 397.202 739.148 397.202 738.487 397.202C738.487 399.143 738.487 401.106 738.487 403.09C738.487 405.074 738.487 407.047 738.487 409.01C737.633 409.01 736.759 409.01 735.863 409.01C734.967 409.01 734.081 409.01 733.207 409.01C733.207 407.047 733.207 405.074 733.207 403.09C733.207 401.106 733.207 399.143 733.207 397.202C732.78 397.202 732.343 397.202 731.895 397.202C731.468 397.202 731.041 397.202 730.615 397.202ZM747.982 390.578C747.364 390.578 746.798 390.428 746.286 390.13C745.796 389.831 745.401 389.436 745.102 388.946C744.804 388.455 744.654 387.911 744.654 387.314C744.654 386.716 744.804 386.183 745.102 385.714C745.401 385.223 745.796 384.828 746.286 384.53C746.798 384.231 747.364 384.082 747.982 384.082C748.58 384.082 749.124 384.231 749.614 384.53C750.126 384.828 750.532 385.223 750.83 385.714C751.129 386.183 751.278 386.716 751.278 387.314C751.278 387.911 751.129 388.455 750.83 388.946C750.532 389.436 750.126 389.831 749.614 390.13C749.124 390.428 748.58 390.578 747.982 390.578ZM745.326 409.01C745.326 406.279 745.326 403.527 745.326 400.754C745.326 397.959 745.326 395.196 745.326 392.466C746.201 392.466 747.086 392.466 747.982 392.466C748.878 392.466 749.753 392.466 750.606 392.466C750.606 395.196 750.606 397.959 750.606 400.754C750.606 403.527 750.606 406.279 750.606 409.01C749.753 409.01 748.878 409.01 747.982 409.01C747.086 409.01 746.201 409.01 745.326 409.01ZM768.531 408.242C767.059 408.86 765.598 409.244 764.147 409.394C762.697 409.543 761.321 409.458 760.019 409.138C758.739 408.839 757.598 408.316 756.595 407.57C755.593 406.823 754.803 405.874 754.227 404.722C753.673 403.57 753.395 402.236 753.395 400.722C753.395 399.463 753.598 398.311 754.003 397.266C754.43 396.199 755.027 395.271 755.795 394.482C756.563 393.671 757.47 393.052 758.515 392.626C759.561 392.178 760.702 391.954 761.939 391.954C763.049 391.954 764.051 392.135 764.947 392.498C765.843 392.86 766.622 393.372 767.283 394.034C767.945 394.674 768.478 395.442 768.883 396.338C769.289 397.234 769.545 398.215 769.651 399.282C769.758 400.348 769.694 401.479 769.459 402.674C767.71 402.674 765.95 402.674 764.179 402.674C762.409 402.674 760.649 402.674 758.899 402.674C759.305 403.484 759.977 404.06 760.915 404.402C761.875 404.743 763.006 404.85 764.307 404.722C765.63 404.594 767.038 404.252 768.531 403.698C768.531 404.444 768.531 405.202 768.531 405.97C768.531 406.738 768.531 407.495 768.531 408.242ZM761.811 396.69C761.193 396.69 760.617 396.86 760.083 397.202C759.571 397.543 759.177 398.066 758.899 398.77C759.859 398.77 760.819 398.77 761.779 398.77C762.761 398.77 763.731 398.77 764.691 398.77C764.435 398.044 764.051 397.522 763.539 397.202C763.049 396.86 762.473 396.69 761.811 396.69ZM783.488 409.01C783.488 408.839 783.488 408.679 783.488 408.53C783.488 408.359 783.488 408.199 783.488 408.05C782.954 408.498 782.346 408.839 781.664 409.074C781.002 409.33 780.288 409.458 779.52 409.458C778.432 409.458 777.408 409.244 776.448 408.818C775.488 408.391 774.634 407.794 773.888 407.026C773.162 406.236 772.586 405.308 772.16 404.242C771.754 403.175 771.552 402.002 771.552 400.722C771.552 399.42 771.754 398.236 772.16 397.17C772.586 396.103 773.162 395.186 773.888 394.418C774.634 393.65 775.488 393.063 776.448 392.658C777.408 392.231 778.421 392.018 779.488 392.018C780.256 392.018 780.981 392.146 781.664 392.402C782.346 392.636 782.954 392.967 783.488 393.394C783.488 392.114 783.488 390.823 783.488 389.522C783.488 388.22 783.488 386.93 783.488 385.65C784.362 385.65 785.248 385.65 786.144 385.65C787.04 385.65 787.914 385.65 788.767 385.65C788.767 389.511 788.767 393.404 788.767 397.33C788.767 401.255 788.767 405.148 788.767 409.01C787.914 409.01 787.04 409.01 786.144 409.01C785.248 409.01 784.362 409.01 783.488 409.01ZM780.224 404.786C781.248 404.786 782.069 404.412 782.688 403.666C783.306 402.919 783.616 401.938 783.616 400.722C783.616 399.506 783.306 398.535 782.688 397.81C782.069 397.063 781.248 396.69 780.224 396.69C779.178 396.69 778.346 397.052 777.728 397.778C777.13 398.503 776.832 399.484 776.832 400.722C776.832 401.959 777.13 402.951 777.728 403.698C778.346 404.423 779.178 404.786 780.224 404.786Z" fill="#888888"/>
<path d="M1061.51 301.636C1053.3 288.376 1025.24 274.94 1036.5 289.498C1045.2 300.742 1054.3 302.044 1061.51 301.636Z" stroke="#404040" stroke-width="3.58901"/>
<path d="M1072.04 308.141C1068.46 323.371 1046.12 345.227 1052.19 327.775C1056.87 314.294 1065.09 310.099 1072.04 308.141Z" stroke="#404040" stroke-width="3.58901"/>
<path d="M652.891 305.649L1057.98 307.086" stroke="#404040" stroke-width="3.58901"/>
<ellipse cx="6.15424" cy="11.869" rx="6.15424" ry="11.869" transform="matrix(0.999994 0.00354699 -0.00339759 0.999994 1069.16 275.943)" fill="#FEFFA7"/>
<ellipse cx="6.20072" cy="11.7814" rx="6.20072" ry="11.7814" transform="matrix(0.699381 0.714853 -0.704222 0.709875 1091.83 281.021)" fill="#FEFFA7"/>
<ellipse cx="6.24264" cy="11.7012" rx="6.24264" ry="11.7012" transform="matrix(0.207804 0.978202 -0.976852 0.213768 1069.14 300.931)" fill="#FEFFA7"/>
<ellipse cx="6.22636" cy="11.7324" rx="6.22636" ry="11.7324" transform="matrix(-0.4693 0.882969 -0.877138 -0.480368 1074.59 295.283)" fill="#FEFFA7"/>
<ellipse cx="6.16586" cy="11.8472" rx="6.16586" ry="11.8472" transform="matrix(-0.932565 -0.361141 0.351778 -0.936031 1070.58 334.757)" fill="#FEFFA7"/>
<ellipse cx="6.20072" cy="11.7814" rx="6.20072" ry="11.7814" transform="matrix(-0.704222 0.709875 -0.699381 -0.714853 1098.22 323.007)" fill="#FEFFA7"/>
<ellipse cx="6.24685" cy="11.693" rx="6.24685" ry="11.693" transform="matrix(-0.00339759 0.999994 -0.999994 -0.00354699 1104.77 300.433)" fill="#FEFFA7"/>
<ellipse cx="10.4048" cy="10.5614" rx="10.4048" ry="10.5614" transform="matrix(0.999994 0.00354699 -0.00339759 0.999994 1065.15 294.035)" fill="#FFB1B1"/>
<path d="M1061.24 361.44C1053.04 348.18 1024.98 334.745 1036.23 349.302C1044.93 360.547 1054.03 361.848 1061.24 361.44Z" stroke="#404040" stroke-width="3.58901"/>
<path d="M1071.77 367.945C1068.19 383.176 1045.85 405.031 1051.92 387.579C1056.61 374.098 1064.82 369.904 1071.77 367.945Z" stroke="#404040" stroke-width="3.58901"/>
<path d="M652.623 365.453L1057.72 366.89" stroke="#404040" stroke-width="3.58901"/>
<ellipse cx="6.15424" cy="11.869" rx="6.15424" ry="11.869" transform="matrix(0.999994 0.00354699 -0.00339759 0.999994 1068.89 335.748)" fill="#FEFFA7"/>
<ellipse cx="6.20072" cy="11.7814" rx="6.20072" ry="11.7814" transform="matrix(0.699381 0.714853 -0.704222 0.709875 1091.56 340.825)" fill="#FEFFA7"/>
<ellipse cx="6.24264" cy="11.7012" rx="6.24264" ry="11.7012" transform="matrix(0.207804 0.978202 -0.976852 0.213768 1068.88 360.735)" fill="#FEFFA7"/>
<ellipse cx="6.22636" cy="11.7324" rx="6.22636" ry="11.7324" transform="matrix(-0.4693 0.882969 -0.877138 -0.480368 1074.33 355.087)" fill="#FEFFA7"/>
<ellipse cx="6.16586" cy="11.8472" rx="6.16586" ry="11.8472" transform="matrix(-0.932565 -0.361141 0.351778 -0.936031 1070.32 394.561)" fill="#FEFFA7"/>
<ellipse cx="6.20072" cy="11.7814" rx="6.20072" ry="11.7814" transform="matrix(-0.704222 0.709875 -0.699381 -0.714853 1097.95 382.812)" fill="#FEFFA7"/>
<ellipse cx="6.24685" cy="11.693" rx="6.24685" ry="11.693" transform="matrix(-0.00339759 0.999994 -0.999994 -0.00354699 1104.5 360.237)" fill="#FEFFA7"/>
<ellipse cx="10.4048" cy="10.5614" rx="10.4048" ry="10.5614" transform="matrix(0.999994 0.00354699 -0.00339759 0.999994 1064.88 353.839)" fill="#FFB1B1"/>
<path d="M1060.97 421.152C1052.77 407.892 1024.71 394.457 1035.97 409.014C1044.66 420.259 1053.77 421.56 1060.97 421.152Z" stroke="#404040" stroke-width="3.58901"/>
<path d="M1071.5 427.658C1067.92 442.888 1045.58 464.744 1051.65 447.292C1056.34 433.811 1064.55 429.616 1071.5 427.658Z" stroke="#404040" stroke-width="3.58901"/>
<path d="M652.353 425.165L1057.45 426.602" stroke="#404040" stroke-width="3.58901"/>
<ellipse cx="6.15424" cy="11.869" rx="6.15424" ry="11.869" transform="matrix(0.999994 0.00354699 -0.00339759 0.999994 1068.62 395.46)" fill="#FEFFA7"/>
<ellipse cx="6.20072" cy="11.7814" rx="6.20072" ry="11.7814" transform="matrix(0.699381 0.714853 -0.704222 0.709875 1091.29 400.538)" fill="#FEFFA7"/>
<ellipse cx="6.24264" cy="11.7012" rx="6.24264" ry="11.7012" transform="matrix(0.207804 0.978202 -0.976852 0.213768 1068.61 420.448)" fill="#FEFFA7"/>
<ellipse cx="6.22636" cy="11.7324" rx="6.22636" ry="11.7324" transform="matrix(-0.4693 0.882969 -0.877138 -0.480368 1074.05 414.799)" fill="#FEFFA7"/>
<ellipse cx="6.16586" cy="11.8472" rx="6.16586" ry="11.8472" transform="matrix(-0.932565 -0.361141 0.351778 -0.936031 1070.05 454.274)" fill="#FEFFA7"/>
<ellipse cx="6.20072" cy="11.7814" rx="6.20072" ry="11.7814" transform="matrix(-0.704222 0.709875 -0.699381 -0.714853 1097.68 442.524)" fill="#FEFFA7"/>
<ellipse cx="6.24685" cy="11.693" rx="6.24685" ry="11.693" transform="matrix(-0.00339759 0.999994 -0.999994 -0.00354699 1104.23 419.949)" fill="#FEFFA7"/>
<ellipse cx="10.4048" cy="10.5614" rx="10.4048" ry="10.5614" transform="matrix(0.999994 0.00354699 -0.00339759 0.999994 1064.61 413.551)" fill="#FFB1B1"/>
</svg>
