<svg width="1156" height="642" viewBox="0 0 1156 642" fill="none" xmlns="http://www.w3.org/2000/svg">
<rect x="2" y="639.844" width="637.844" height="1151.32" rx="39" transform="rotate(-90 2 639.844)" fill="#FBF6F2" stroke="#404040" stroke-width="4"/>
<path d="M655.879 117.247C655.879 110.079 655.879 102.826 655.879 95.4872C655.879 88.1485 655.879 80.8952 655.879 73.7272C658.439 73.7272 660.999 73.7272 663.559 73.7272C666.161 73.7272 668.743 73.7272 671.303 73.7272C674.545 73.7272 677.383 74.3459 679.815 75.5832C682.247 76.7779 684.124 78.4845 685.447 80.7032C686.812 82.8792 687.495 85.4392 687.495 88.3832C687.495 90.9005 686.983 93.1405 685.959 95.1032C684.935 97.0659 683.548 98.6659 681.799 99.9032C683.505 102.762 685.212 105.663 686.919 108.607C688.668 111.509 690.396 114.389 692.103 117.247C690.012 117.247 687.921 117.247 685.831 117.247C683.74 117.247 681.649 117.247 679.559 117.247C678.236 114.858 676.892 112.426 675.527 109.951C674.204 107.477 672.86 105.045 671.495 102.655C670.769 102.655 670.023 102.655 669.255 102.655C668.529 102.655 667.804 102.655 667.079 102.655C667.079 105.045 667.079 107.477 667.079 109.951C667.079 112.426 667.079 114.858 667.079 117.247C665.244 117.247 663.388 117.247 661.511 117.247C659.633 117.247 657.756 117.247 655.879 117.247ZM671.303 83.8392C670.62 83.8392 669.916 83.8392 669.191 83.8392C668.508 83.8392 667.804 83.8392 667.079 83.8392C667.079 85.4179 667.079 86.9965 667.079 88.5752C667.079 90.1539 667.079 91.7325 667.079 93.3112C667.889 93.3112 668.7 93.3112 669.511 93.3112C670.321 93.3112 671.132 93.3112 671.943 93.3112C673.223 93.3112 674.268 92.8632 675.079 91.9672C675.889 91.0285 676.295 89.8979 676.295 88.5752C676.295 87.2099 675.847 86.0792 674.951 85.1832C674.097 84.2872 672.881 83.8392 671.303 83.8392ZM727.237 104.383C727.237 107.242 726.512 109.717 725.061 111.807C723.653 113.898 721.691 115.519 719.173 116.671C716.656 117.781 713.733 118.335 710.405 118.335C707.291 118.335 704.517 117.845 702.085 116.863C699.696 115.839 697.797 114.389 696.389 112.511C695.024 110.591 694.341 108.33 694.341 105.727C694.341 103.594 694.811 101.631 695.749 99.8392C696.731 98.0472 698.203 96.5112 700.165 95.2312C698.587 94.0365 697.413 92.6499 696.645 91.0712C695.92 89.4499 695.557 87.6792 695.557 85.7592C695.557 82.9432 696.304 80.5965 697.797 78.7192C699.333 76.8419 701.381 75.4339 703.941 74.4952C706.501 73.5565 709.339 73.0659 712.453 73.0232C715.568 72.9379 718.725 73.3005 721.925 74.1112C721.925 75.8179 721.925 77.5459 721.925 79.2952C721.925 81.0445 721.925 82.7939 721.925 84.5432C720.133 84.0312 718.32 83.6685 716.485 83.4552C714.693 83.2419 713.051 83.2205 711.557 83.3912C710.064 83.5619 708.848 83.9245 707.909 84.4792C707.013 85.0339 706.565 85.8232 706.565 86.8472C706.565 88.1699 707.461 89.0872 709.253 89.5992C711.045 90.0685 713.52 90.3032 716.677 90.3032C716.677 89.5352 716.677 88.7672 716.677 87.9992C716.677 87.1885 716.677 86.3992 716.677 85.6312C718.427 85.6312 720.197 85.6312 721.989 85.6312C723.781 85.6312 725.531 85.6312 727.237 85.6312C727.237 86.3992 727.237 87.1885 727.237 87.9992C727.237 88.7672 727.237 89.5352 727.237 90.3032C727.877 90.3032 728.539 90.3032 729.221 90.3032C729.904 90.3032 730.565 90.3032 731.205 90.3032C731.205 91.8819 731.205 93.4605 731.205 95.0392C731.205 96.6179 731.205 98.1965 731.205 99.7752C730.565 99.7752 729.904 99.7752 729.221 99.7752C728.539 99.7752 727.877 99.7752 727.237 99.7752C727.237 100.543 727.237 101.311 727.237 102.079C727.237 102.847 727.237 103.615 727.237 104.383ZM705.541 104.127C705.541 105.365 705.989 106.41 706.885 107.263C707.824 108.074 709.125 108.479 710.789 108.479C712.581 108.479 714.011 108.053 715.077 107.199C716.144 106.303 716.677 105.066 716.677 103.487C716.677 102.89 716.677 102.271 716.677 101.631C716.677 100.991 716.677 100.373 716.677 99.7752C713.179 99.7752 710.448 100.031 708.485 100.543C706.523 101.055 705.541 102.25 705.541 104.127ZM736.504 117.247C736.504 110.079 736.504 102.826 736.504 95.4872C736.504 88.1485 736.504 80.8952 736.504 73.7272C739.149 73.7272 741.794 73.7272 744.44 73.7272C747.128 73.7272 749.773 73.7272 752.376 73.7272C755.32 73.7272 757.901 74.2605 760.12 75.3272C762.338 76.3512 764.066 77.8019 765.304 79.6792C766.541 81.5139 767.16 83.6899 767.16 86.2072C767.16 87.9992 766.818 89.6205 766.136 91.0712C765.453 92.5219 764.429 93.7379 763.064 94.7192C764.856 95.7859 766.221 97.1725 767.16 98.8792C768.098 100.543 768.568 102.399 768.568 104.447C768.568 107.007 767.906 109.247 766.584 111.167C765.304 113.087 763.49 114.581 761.144 115.647C758.84 116.714 756.13 117.247 753.016 117.247C750.285 117.247 747.533 117.247 744.76 117.247C741.986 117.247 739.234 117.247 736.504 117.247ZM755.96 87.2952C755.96 86.1859 755.618 85.2899 754.936 84.6072C754.253 83.8819 753.357 83.5192 752.248 83.5192C751.48 83.5192 750.69 83.5192 749.88 83.5192C749.112 83.5192 748.344 83.5192 747.576 83.5192C747.576 84.7139 747.576 85.9512 747.576 87.2312C747.576 88.4685 747.576 89.7059 747.576 90.9432C748.344 90.9432 749.112 90.9432 749.88 90.9432C750.69 90.9432 751.48 90.9432 752.248 90.9432C753.357 90.9432 754.253 90.6232 754.936 89.9832C755.618 89.3005 755.96 88.4045 755.96 87.2952ZM757.368 103.423C757.368 102.229 756.962 101.29 756.152 100.607C755.384 99.8819 754.317 99.5192 752.952 99.5192C752.056 99.5192 751.16 99.5192 750.264 99.5192C749.368 99.5192 748.472 99.5192 747.576 99.5192C747.576 100.842 747.576 102.165 747.576 103.487C747.576 104.81 747.576 106.133 747.576 107.455C748.472 107.455 749.368 107.455 750.264 107.455C751.16 107.455 752.056 107.455 752.952 107.455C754.317 107.455 755.384 107.093 756.152 106.367C756.962 105.642 757.368 104.661 757.368 103.423Z" fill="#404040"/>
<path d="M671.367 284.974C669.148 285.87 667.079 286.382 665.159 286.51C663.26 286.66 661.543 286.489 660.007 285.998C658.471 285.486 657.159 284.718 656.071 283.694C654.983 282.67 654.151 281.454 653.575 280.046C652.999 278.638 652.711 277.102 652.711 275.438C652.711 273.796 652.977 272.281 653.511 270.894C654.044 269.486 654.823 268.27 655.847 267.246C656.892 266.222 658.151 265.422 659.623 264.846C661.095 264.27 662.769 263.993 664.647 264.014C666.524 264.014 668.583 264.356 670.823 265.038C670.823 265.934 670.823 266.841 670.823 267.758C670.823 268.654 670.823 269.55 670.823 270.446C669.052 269.742 667.409 269.337 665.895 269.23C664.401 269.124 663.089 269.284 661.959 269.71C660.849 270.137 659.975 270.82 659.335 271.758C658.716 272.676 658.407 273.828 658.407 275.214C658.407 276.43 658.631 277.508 659.079 278.446C659.548 279.385 660.199 280.121 661.031 280.654C661.863 281.188 662.812 281.454 663.879 281.454C664.241 281.454 664.604 281.444 664.967 281.422C665.329 281.38 665.681 281.316 666.023 281.23C666.023 280.676 666.023 280.11 666.023 279.534C666.023 278.958 666.023 278.393 666.023 277.838C665.425 277.838 664.828 277.838 664.231 277.838C663.633 277.838 663.036 277.838 662.439 277.838C662.439 277.049 662.439 276.26 662.439 275.47C662.439 274.66 662.439 273.86 662.439 273.07C663.911 273.07 665.393 273.07 666.887 273.07C668.401 273.07 669.895 273.07 671.367 273.07C671.367 275.033 671.367 277.017 671.367 279.022C671.367 281.028 671.367 283.012 671.367 284.974ZM675.104 286.126C675.104 283.396 675.104 280.644 675.104 277.87C675.104 275.076 675.104 272.313 675.104 269.582C675.978 269.582 676.864 269.582 677.76 269.582C678.656 269.582 679.53 269.582 680.384 269.582C680.384 269.732 680.384 269.881 680.384 270.03C680.384 270.18 680.384 270.329 680.384 270.478C681.045 270.009 681.792 269.657 682.624 269.422C683.456 269.188 684.362 269.124 685.344 269.23C685.344 270.084 685.344 270.948 685.344 271.822C685.344 272.697 685.344 273.561 685.344 274.414C683.658 274.18 682.41 274.329 681.6 274.862C680.789 275.374 680.384 276.217 680.384 277.39C680.384 278.82 680.384 280.27 680.384 281.742C680.384 283.214 680.384 284.676 680.384 286.126C679.53 286.126 678.656 286.126 677.76 286.126C676.864 286.126 675.978 286.126 675.104 286.126ZM695.413 286.638C694.175 286.638 693.023 286.425 691.957 285.998C690.89 285.55 689.962 284.932 689.173 284.142C688.383 283.332 687.765 282.393 687.317 281.326C686.89 280.26 686.677 279.097 686.677 277.838C686.677 276.58 686.89 275.417 687.317 274.35C687.765 273.284 688.383 272.356 689.173 271.566C689.962 270.777 690.89 270.169 691.957 269.742C693.023 269.294 694.175 269.07 695.413 269.07C696.671 269.07 697.823 269.294 698.869 269.742C699.935 270.169 700.863 270.777 701.653 271.566C702.442 272.356 703.05 273.284 703.477 274.35C703.925 275.417 704.149 276.58 704.149 277.838C704.149 279.097 703.925 280.26 703.477 281.326C703.05 282.393 702.442 283.332 701.653 284.142C700.863 284.932 699.935 285.55 698.869 285.998C697.823 286.425 696.671 286.638 695.413 286.638ZM695.413 281.87C696.458 281.87 697.29 281.497 697.909 280.75C698.549 279.982 698.869 279.012 698.869 277.838C698.869 276.644 698.549 275.684 697.909 274.958C697.29 274.212 696.458 273.838 695.413 273.838C694.367 273.838 693.525 274.212 692.885 274.958C692.266 275.684 691.957 276.644 691.957 277.838C691.957 279.012 692.266 279.982 692.885 280.75C693.525 281.497 694.367 281.87 695.413 281.87ZM714.6 286.638C713.363 286.638 712.211 286.425 711.144 285.998C710.077 285.55 709.149 284.932 708.36 284.142C707.571 283.332 706.952 282.393 706.504 281.326C706.077 280.26 705.864 279.097 705.864 277.838C705.864 276.58 706.077 275.417 706.504 274.35C706.952 273.284 707.571 272.356 708.36 271.566C709.149 270.777 710.077 270.169 711.144 269.742C712.211 269.294 713.363 269.07 714.6 269.07C715.859 269.07 717.011 269.294 718.056 269.742C719.123 270.169 720.051 270.777 720.84 271.566C721.629 272.356 722.237 273.284 722.664 274.35C723.112 275.417 723.336 276.58 723.336 277.838C723.336 279.097 723.112 280.26 722.664 281.326C722.237 282.393 721.629 283.332 720.84 284.142C720.051 284.932 719.123 285.55 718.056 285.998C717.011 286.425 715.859 286.638 714.6 286.638ZM714.6 281.87C715.645 281.87 716.477 281.497 717.096 280.75C717.736 279.982 718.056 279.012 718.056 277.838C718.056 276.644 717.736 275.684 717.096 274.958C716.477 274.212 715.645 273.838 714.6 273.838C713.555 273.838 712.712 274.212 712.072 274.958C711.453 275.684 711.144 276.644 711.144 277.838C711.144 279.012 711.453 279.982 712.072 280.75C712.712 281.497 713.555 281.87 714.6 281.87ZM729.443 286.126C728.504 283.396 727.544 280.644 726.563 277.87C725.603 275.076 724.654 272.313 723.715 269.582C724.632 269.582 725.55 269.582 726.467 269.582C727.406 269.582 728.334 269.582 729.251 269.582C729.806 271.268 730.36 272.964 730.915 274.67C731.491 276.356 732.046 278.041 732.579 279.726C733.134 278.041 733.688 276.356 734.243 274.67C734.798 272.964 735.342 271.268 735.875 269.582C736.771 269.582 737.678 269.582 738.595 269.582C739.512 269.582 740.419 269.582 741.315 269.582C740.376 272.313 739.416 275.076 738.435 277.87C737.475 280.644 736.526 283.396 735.587 286.126C734.584 286.126 733.56 286.126 732.515 286.126C731.47 286.126 730.446 286.126 729.443 286.126ZM756.844 285.358C755.372 285.977 753.91 286.361 752.46 286.51C751.009 286.66 749.633 286.574 748.332 286.254C747.052 285.956 745.91 285.433 744.908 284.686C743.905 283.94 743.116 282.99 742.54 281.838C741.985 280.686 741.708 279.353 741.708 277.838C741.708 276.58 741.91 275.428 742.316 274.382C742.742 273.316 743.34 272.388 744.108 271.598C744.876 270.788 745.782 270.169 746.828 269.742C747.873 269.294 749.014 269.07 750.252 269.07C751.361 269.07 752.364 269.252 753.26 269.614C754.156 269.977 754.934 270.489 755.596 271.15C756.257 271.79 756.79 272.558 757.196 273.454C757.601 274.35 757.857 275.332 757.964 276.398C758.07 277.465 758.006 278.596 757.772 279.79C756.022 279.79 754.262 279.79 752.492 279.79C750.721 279.79 748.961 279.79 747.212 279.79C747.617 280.601 748.289 281.177 749.228 281.518C750.188 281.86 751.318 281.966 752.62 281.838C753.942 281.71 755.35 281.369 756.844 280.814C756.844 281.561 756.844 282.318 756.844 283.086C756.844 283.854 756.844 284.612 756.844 285.358ZM750.124 273.806C749.505 273.806 748.929 273.977 748.396 274.318C747.884 274.66 747.489 275.182 747.212 275.886C748.172 275.886 749.132 275.886 750.092 275.886C751.073 275.886 752.044 275.886 753.004 275.886C752.748 275.161 752.364 274.638 751.852 274.318C751.361 273.977 750.785 273.806 750.124 273.806Z" fill="#888888"/>
<path d="M657.415 326.905C658.204 329.337 658.983 331.79 659.751 334.265C660.54 336.74 661.329 339.193 662.119 341.625C662.908 339.193 663.697 336.74 664.487 334.265C665.276 331.79 666.065 329.337 666.855 326.905C667.772 326.905 668.7 326.905 669.639 326.905C670.577 326.905 671.505 326.905 672.423 326.905C671.271 330.489 670.097 334.116 668.903 337.785C667.729 341.454 666.567 345.081 665.415 348.665C664.305 348.665 663.185 348.665 662.055 348.665C660.945 348.665 659.836 348.665 658.727 348.665C657.575 345.081 656.401 341.454 655.207 337.785C654.033 334.116 652.871 330.489 651.719 326.905C652.657 326.905 653.607 326.905 654.567 326.905C655.527 326.905 656.476 326.905 657.415 326.905ZM677.014 330.233C676.395 330.233 675.83 330.084 675.318 329.785C674.827 329.486 674.432 329.092 674.134 328.601C673.835 328.11 673.686 327.566 673.686 326.969C673.686 326.372 673.835 325.838 674.134 325.369C674.432 324.878 674.827 324.484 675.318 324.185C675.83 323.886 676.395 323.737 677.014 323.737C677.611 323.737 678.155 323.886 678.646 324.185C679.158 324.484 679.563 324.878 679.862 325.369C680.16 325.838 680.31 326.372 680.31 326.969C680.31 327.566 680.16 328.11 679.862 328.601C679.563 329.092 679.158 329.486 678.646 329.785C678.155 330.084 677.611 330.233 677.014 330.233ZM674.358 348.665C674.358 345.934 674.358 343.182 674.358 340.409C674.358 337.614 674.358 334.852 674.358 332.121C675.232 332.121 676.118 332.121 677.014 332.121C677.91 332.121 678.784 332.121 679.638 332.121C679.638 334.852 679.638 337.614 679.638 340.409C679.638 343.182 679.638 345.934 679.638 348.665C678.784 348.665 677.91 348.665 677.014 348.665C676.118 348.665 675.232 348.665 674.358 348.665ZM683.323 348.665C683.323 345.934 683.323 343.182 683.323 340.409C683.323 337.614 683.323 334.852 683.323 332.121C684.197 332.121 685.083 332.121 685.979 332.121C686.875 332.121 687.749 332.121 688.603 332.121C688.603 332.27 688.603 332.42 688.603 332.569C688.603 332.718 688.603 332.868 688.603 333.017C689.264 332.548 690.011 332.196 690.843 331.961C691.675 331.726 692.581 331.662 693.563 331.769C693.563 332.622 693.563 333.486 693.563 334.361C693.563 335.236 693.563 336.1 693.563 336.953C691.877 336.718 690.629 336.868 689.819 337.401C689.008 337.913 688.603 338.756 688.603 339.929C688.603 341.358 688.603 342.809 688.603 344.281C688.603 345.753 688.603 347.214 688.603 348.665C687.749 348.665 686.875 348.665 685.979 348.665C685.083 348.665 684.197 348.665 683.323 348.665ZM697.676 348.665C697.676 346.702 697.676 344.729 697.676 342.745C697.676 340.761 697.676 338.798 697.676 336.857C697.249 336.857 696.812 336.857 696.364 336.857C695.937 336.857 695.51 336.857 695.084 336.857C695.084 336.068 695.084 335.278 695.084 334.489C695.084 333.7 695.084 332.91 695.084 332.121C695.51 332.121 695.937 332.121 696.364 332.121C696.812 332.121 697.249 332.121 697.676 332.121C697.676 331.374 697.676 330.638 697.676 329.913C697.676 329.166 697.676 328.43 697.676 327.705C698.55 327.705 699.436 327.705 700.332 327.705C701.228 327.705 702.102 327.705 702.956 327.705C702.956 328.43 702.956 329.166 702.956 329.913C702.956 330.638 702.956 331.374 702.956 332.121C703.446 332.121 703.948 332.121 704.46 332.121C704.972 332.121 705.473 332.121 705.964 332.121C705.964 332.91 705.964 333.7 705.964 334.489C705.964 335.278 705.964 336.068 705.964 336.857C705.473 336.857 704.972 336.857 704.46 336.857C703.948 336.857 703.446 336.857 702.956 336.857C702.956 338.798 702.956 340.761 702.956 342.745C702.956 344.729 702.956 346.702 702.956 348.665C702.102 348.665 701.228 348.665 700.332 348.665C699.436 348.665 698.55 348.665 697.676 348.665ZM723.966 332.121C723.966 334.852 723.966 337.614 723.966 340.409C723.966 343.182 723.966 345.934 723.966 348.665C723.113 348.665 722.238 348.665 721.342 348.665C720.446 348.665 719.561 348.665 718.686 348.665C718.686 348.516 718.686 348.377 718.686 348.249C718.686 348.121 718.686 347.982 718.686 347.833C718.11 348.238 717.459 348.548 716.734 348.761C716.03 348.996 715.262 349.113 714.43 349.113C713.214 349.113 712.137 348.836 711.198 348.281C710.281 347.726 709.555 346.926 709.022 345.881C708.51 344.836 708.254 343.598 708.254 342.169C708.254 340.505 708.254 338.83 708.254 337.145C708.254 335.46 708.254 333.785 708.254 332.121C709.129 332.121 710.014 332.121 710.91 332.121C711.806 332.121 712.681 332.121 713.534 332.121C713.534 333.657 713.534 335.214 713.534 336.793C713.534 338.372 713.534 339.929 713.534 341.465C713.534 342.318 713.726 343.012 714.11 343.545C714.515 344.057 715.145 344.313 715.998 344.313C716.851 344.313 717.513 344.068 717.982 343.577C718.451 343.086 718.686 342.382 718.686 341.465C718.686 339.929 718.686 338.372 718.686 336.793C718.686 335.214 718.686 333.657 718.686 332.121C719.561 332.121 720.446 332.121 721.342 332.121C722.238 332.121 723.113 332.121 723.966 332.121ZM735.319 349.177C734.081 349.177 732.929 348.964 731.863 348.537C730.796 348.089 729.868 347.47 729.079 346.681C728.289 345.87 727.671 344.932 727.223 343.865C726.796 342.798 726.583 341.636 726.583 340.377C726.583 339.118 726.796 337.956 727.223 336.889C727.671 335.822 728.289 334.894 729.079 334.105C729.868 333.316 730.796 332.708 731.863 332.281C732.929 331.833 734.081 331.609 735.319 331.609C736.577 331.609 737.729 331.833 738.775 332.281C739.841 332.708 740.769 333.316 741.559 334.105C742.348 334.894 742.956 335.822 743.383 336.889C743.831 337.956 744.055 339.118 744.055 340.377C744.055 341.636 743.831 342.798 743.383 343.865C742.956 344.932 742.348 345.87 741.559 346.681C740.769 347.47 739.841 348.089 738.775 348.537C737.729 348.964 736.577 349.177 735.319 349.177ZM735.319 344.409C736.364 344.409 737.196 344.036 737.815 343.289C738.455 342.521 738.775 341.55 738.775 340.377C738.775 339.182 738.455 338.222 737.815 337.497C737.196 336.75 736.364 336.377 735.319 336.377C734.273 336.377 733.431 336.75 732.791 337.497C732.172 338.222 731.863 339.182 731.863 340.377C731.863 341.55 732.172 342.521 732.791 343.289C733.431 344.036 734.273 344.409 735.319 344.409ZM759.306 343.545C759.306 344.868 758.933 345.956 758.186 346.809C757.461 347.641 756.48 348.249 755.242 348.633C754.005 349.017 752.618 349.177 751.082 349.113C749.568 349.07 748.021 348.825 746.442 348.377C746.442 347.566 746.442 346.734 746.442 345.881C746.442 345.028 746.442 344.196 746.442 343.385C747.338 343.79 748.234 344.11 749.13 344.345C750.026 344.558 750.837 344.686 751.562 344.729C752.288 344.772 752.874 344.718 753.322 344.569C753.77 344.398 753.994 344.121 753.994 343.737C753.994 343.438 753.802 343.204 753.418 343.033C753.056 342.862 752.576 342.713 751.978 342.585C751.381 342.436 750.741 342.265 750.058 342.073C749.397 341.86 748.768 341.572 748.17 341.209C747.573 340.825 747.082 340.324 746.698 339.705C746.336 339.065 746.154 338.244 746.154 337.241C746.154 336.046 746.496 335.033 747.178 334.201C747.882 333.348 748.821 332.708 749.994 332.281C751.168 331.833 752.48 331.609 753.93 331.609C755.381 331.609 756.864 331.854 758.378 332.345C758.378 333.156 758.378 333.988 758.378 334.841C758.378 335.694 758.378 336.526 758.378 337.337C757.184 336.761 756.064 336.377 755.018 336.185C753.973 335.993 753.13 335.972 752.49 336.121C751.85 336.249 751.53 336.537 751.53 336.985C751.53 337.284 751.712 337.518 752.074 337.689C752.458 337.838 752.938 337.977 753.514 338.105C754.112 338.233 754.741 338.404 755.402 338.617C756.085 338.83 756.714 339.129 757.29 339.513C757.888 339.876 758.368 340.388 758.73 341.049C759.114 341.689 759.306 342.521 759.306 343.545ZM764.67 330.233C764.051 330.233 763.486 330.084 762.974 329.785C762.483 329.486 762.088 329.092 761.79 328.601C761.491 328.11 761.342 327.566 761.342 326.969C761.342 326.372 761.491 325.838 761.79 325.369C762.088 324.878 762.483 324.484 762.974 324.185C763.486 323.886 764.051 323.737 764.67 323.737C765.267 323.737 765.811 323.886 766.302 324.185C766.814 324.484 767.219 324.878 767.518 325.369C767.816 325.838 767.966 326.372 767.966 326.969C767.966 327.566 767.816 328.11 767.518 328.601C767.219 329.092 766.814 329.486 766.302 329.785C765.811 330.084 765.267 330.233 764.67 330.233ZM762.014 348.665C762.014 345.934 762.014 343.182 762.014 340.409C762.014 337.614 762.014 334.852 762.014 332.121C762.888 332.121 763.774 332.121 764.67 332.121C765.566 332.121 766.44 332.121 767.294 332.121C767.294 334.852 767.294 337.614 767.294 340.409C767.294 343.182 767.294 345.934 767.294 348.665C766.44 348.665 765.566 348.665 764.67 348.665C763.774 348.665 762.888 348.665 762.014 348.665ZM772.707 348.665C772.707 346.702 772.707 344.729 772.707 342.745C772.707 340.761 772.707 338.798 772.707 336.857C772.28 336.857 771.843 336.857 771.395 336.857C770.968 336.857 770.541 336.857 770.115 336.857C770.115 336.068 770.115 335.278 770.115 334.489C770.115 333.7 770.115 332.91 770.115 332.121C770.541 332.121 770.968 332.121 771.395 332.121C771.843 332.121 772.28 332.121 772.707 332.121C772.707 331.374 772.707 330.638 772.707 329.913C772.707 329.166 772.707 328.43 772.707 327.705C773.581 327.705 774.467 327.705 775.363 327.705C776.259 327.705 777.133 327.705 777.987 327.705C777.987 328.43 777.987 329.166 777.987 329.913C777.987 330.638 777.987 331.374 777.987 332.121C778.477 332.121 778.979 332.121 779.491 332.121C780.003 332.121 780.504 332.121 780.995 332.121C780.995 332.91 780.995 333.7 780.995 334.489C780.995 335.278 780.995 336.068 780.995 336.857C780.504 336.857 780.003 336.857 779.491 336.857C778.979 336.857 778.477 336.857 777.987 336.857C777.987 338.798 777.987 340.761 777.987 342.745C777.987 344.729 777.987 346.702 777.987 348.665C777.133 348.665 776.259 348.665 775.363 348.665C774.467 348.665 773.581 348.665 772.707 348.665ZM785.077 353.785C785.504 352.654 785.941 351.513 786.389 350.361C786.859 349.23 787.307 348.11 787.733 347.001C786.731 344.548 785.707 342.073 784.661 339.577C783.637 337.06 782.624 334.574 781.621 332.121C782.56 332.121 783.499 332.121 784.437 332.121C785.376 332.121 786.304 332.121 787.221 332.121C787.776 333.486 788.331 334.873 788.885 336.281C789.461 337.689 790.027 339.086 790.581 340.473C791.093 339.086 791.616 337.689 792.149 336.281C792.683 334.873 793.205 333.486 793.717 332.121C794.635 332.121 795.552 332.121 796.469 332.121C797.387 332.121 798.304 332.121 799.221 332.121C797.792 335.684 796.352 339.3 794.901 342.969C793.472 346.617 792.043 350.222 790.613 353.785C789.696 353.785 788.768 353.785 787.829 353.785C786.912 353.785 785.995 353.785 785.077 353.785Z" fill="#888888"/>
<path d="M653.799 409.01C653.799 405.426 653.799 401.799 653.799 398.13C653.799 394.46 653.799 390.834 653.799 387.25C655.953 387.25 658.129 387.25 660.327 387.25C662.524 387.25 664.7 387.25 666.855 387.25C666.855 388.082 666.855 388.924 666.855 389.778C666.855 390.631 666.855 391.474 666.855 392.306C665.617 392.306 664.369 392.306 663.111 392.306C661.873 392.306 660.636 392.306 659.399 392.306C659.399 392.924 659.399 393.564 659.399 394.226C659.399 394.866 659.399 395.495 659.399 396.114C660.529 396.114 661.671 396.114 662.823 396.114C663.975 396.114 665.105 396.114 666.215 396.114C666.215 396.903 666.215 397.703 666.215 398.514C666.215 399.324 666.215 400.135 666.215 400.946C665.105 400.946 663.975 400.946 662.823 400.946C661.671 400.946 660.529 400.946 659.399 400.946C659.399 402.268 659.399 403.612 659.399 404.978C659.399 406.343 659.399 407.687 659.399 409.01C658.481 409.01 657.553 409.01 656.615 409.01C655.676 409.01 654.737 409.01 653.799 409.01ZM669.729 409.01C669.729 406.279 669.729 403.527 669.729 400.754C669.729 397.959 669.729 395.196 669.729 392.466C670.603 392.466 671.489 392.466 672.385 392.466C673.281 392.466 674.155 392.466 675.009 392.466C675.009 392.615 675.009 392.764 675.009 392.914C675.009 393.063 675.009 393.212 675.009 393.362C675.67 392.892 676.417 392.54 677.249 392.306C678.081 392.071 678.987 392.007 679.969 392.114C679.969 392.967 679.969 393.831 679.969 394.706C679.969 395.58 679.969 396.444 679.969 397.298C678.283 397.063 677.035 397.212 676.225 397.746C675.414 398.258 675.009 399.1 675.009 400.274C675.009 401.703 675.009 403.154 675.009 404.626C675.009 406.098 675.009 407.559 675.009 409.01C674.155 409.01 673.281 409.01 672.385 409.01C671.489 409.01 670.603 409.01 669.729 409.01ZM696.438 408.242C694.966 408.86 693.504 409.244 692.054 409.394C690.603 409.543 689.227 409.458 687.926 409.138C686.646 408.839 685.504 408.316 684.502 407.57C683.499 406.823 682.71 405.874 682.134 404.722C681.579 403.57 681.302 402.236 681.302 400.722C681.302 399.463 681.504 398.311 681.91 397.266C682.336 396.199 682.934 395.271 683.702 394.482C684.47 393.671 685.376 393.052 686.422 392.626C687.467 392.178 688.608 391.954 689.845 391.954C690.955 391.954 691.958 392.135 692.854 392.498C693.75 392.86 694.528 393.372 695.19 394.034C695.851 394.674 696.384 395.442 696.79 396.338C697.195 397.234 697.451 398.215 697.558 399.282C697.664 400.348 697.6 401.479 697.366 402.674C695.616 402.674 693.856 402.674 692.086 402.674C690.315 402.674 688.555 402.674 686.806 402.674C687.211 403.484 687.883 404.06 688.822 404.402C689.782 404.743 690.912 404.85 692.214 404.722C693.536 404.594 694.944 404.252 696.438 403.698C696.438 404.444 696.438 405.202 696.438 405.97C696.438 406.738 696.438 407.495 696.438 408.242ZM689.718 396.69C689.099 396.69 688.523 396.86 687.99 397.202C687.478 397.543 687.083 398.066 686.806 398.77C687.766 398.77 688.726 398.77 689.686 398.77C690.667 398.77 691.638 398.77 692.598 398.77C692.342 398.044 691.958 397.522 691.446 397.202C690.955 396.86 690.379 396.69 689.718 396.69ZM700.354 409.01C700.354 406.279 700.354 403.527 700.354 400.754C700.354 397.959 700.354 395.196 700.354 392.466C701.228 392.466 702.114 392.466 703.01 392.466C703.906 392.466 704.78 392.466 705.634 392.466C705.634 392.615 705.634 392.754 705.634 392.882C705.634 393.01 705.634 393.148 705.634 393.298C706.21 392.892 706.85 392.583 707.554 392.37C708.279 392.135 709.058 392.018 709.89 392.018C711.106 392.018 712.172 392.295 713.09 392.85C714.028 393.404 714.754 394.204 715.266 395.25C715.799 396.274 716.066 397.511 716.066 398.962C716.066 400.626 716.066 402.3 716.066 403.986C716.066 405.671 716.066 407.346 716.066 409.01C715.212 409.01 714.338 409.01 713.442 409.01C712.546 409.01 711.66 409.01 710.786 409.01C710.786 407.474 710.786 405.916 710.786 404.338C710.786 402.759 710.786 401.202 710.786 399.666C710.786 398.812 710.583 398.13 710.178 397.618C709.794 397.084 709.175 396.818 708.322 396.818C707.468 396.818 706.807 397.063 706.338 397.554C705.868 398.044 705.634 398.748 705.634 399.666C705.634 401.202 705.634 402.759 705.634 404.338C705.634 405.916 705.634 407.474 705.634 409.01C704.78 409.01 703.906 409.01 703.01 409.01C702.114 409.01 701.228 409.01 700.354 409.01ZM718.843 409.01C718.843 408.263 718.843 407.506 718.843 406.738C718.843 405.97 718.843 405.212 718.843 404.466C719.952 403.228 721.061 401.991 722.171 400.754C723.28 399.516 724.389 398.279 725.499 397.042C724.389 397.042 723.28 397.042 722.171 397.042C721.061 397.042 719.952 397.042 718.843 397.042C718.843 396.295 718.843 395.538 718.843 394.77C718.843 393.98 718.843 393.212 718.843 392.466C720.997 392.466 723.184 392.466 725.403 392.466C727.621 392.466 729.808 392.466 731.963 392.466C731.963 393.212 731.963 393.98 731.963 394.77C731.963 395.538 731.963 396.295 731.963 397.042C730.853 398.279 729.744 399.516 728.635 400.754C727.525 401.991 726.416 403.228 725.307 404.466C726.416 404.466 727.525 404.466 728.635 404.466C729.744 404.466 730.853 404.466 731.963 404.466C731.963 405.212 731.963 405.97 731.963 406.738C731.963 407.506 731.963 408.263 731.963 409.01C729.808 409.01 727.621 409.01 725.403 409.01C723.184 409.01 720.997 409.01 718.843 409.01ZM736.546 414.13C736.973 412.999 737.41 411.858 737.858 410.706C738.327 409.575 738.775 408.455 739.202 407.346C738.199 404.892 737.175 402.418 736.13 399.922C735.106 397.404 734.093 394.919 733.09 392.466C734.029 392.466 734.967 392.466 735.906 392.466C736.845 392.466 737.773 392.466 738.69 392.466C739.245 393.831 739.799 395.218 740.354 396.626C740.93 398.034 741.495 399.431 742.05 400.818C742.562 399.431 743.085 398.034 743.618 396.626C744.151 395.218 744.674 393.831 745.186 392.466C746.103 392.466 747.021 392.466 747.938 392.466C748.855 392.466 749.773 392.466 750.69 392.466C749.261 396.028 747.821 399.644 746.37 403.314C744.941 406.962 743.511 410.567 742.082 414.13C741.165 414.13 740.237 414.13 739.298 414.13C738.381 414.13 737.463 414.13 736.546 414.13Z" fill="#888888"/>
<path d="M1061.51 301.636C1053.3 288.376 1025.24 274.94 1036.5 289.498C1045.2 300.743 1054.3 302.044 1061.51 301.636Z" stroke="#404040" stroke-width="3.58901"/>
<path d="M1072.04 308.141C1068.46 323.371 1046.12 345.227 1052.19 327.775C1056.87 314.294 1065.09 310.099 1072.04 308.141Z" stroke="#404040" stroke-width="3.58901"/>
<path d="M652.89 305.649L1057.98 307.086" stroke="#404040" stroke-width="3.58901"/>
<ellipse cx="6.15424" cy="11.869" rx="6.15424" ry="11.869" transform="matrix(0.999994 0.00354699 -0.00339759 0.999994 1069.16 275.943)" fill="#FF8F52"/>
<ellipse cx="6.20072" cy="11.7814" rx="6.20072" ry="11.7814" transform="matrix(0.699381 0.714853 -0.704222 0.709875 1091.83 281.021)" fill="#FF8F52"/>
<ellipse cx="6.24264" cy="11.7012" rx="6.24264" ry="11.7012" transform="matrix(0.207804 0.978202 -0.976852 0.213768 1069.14 300.931)" fill="#FF8F52"/>
<ellipse cx="6.22636" cy="11.7324" rx="6.22636" ry="11.7324" transform="matrix(-0.4693 0.882969 -0.877138 -0.480368 1074.59 295.283)" fill="#FF8F52"/>
<ellipse cx="6.16586" cy="11.8472" rx="6.16586" ry="11.8472" transform="matrix(-0.932565 -0.361141 0.351778 -0.936031 1070.58 334.757)" fill="#FF8F52"/>
<ellipse cx="6.20072" cy="11.7814" rx="6.20072" ry="11.7814" transform="matrix(-0.704222 0.709875 -0.699381 -0.714853 1098.22 323.007)" fill="#FF8F52"/>
<ellipse cx="6.24685" cy="11.693" rx="6.24685" ry="11.693" transform="matrix(-0.00339759 0.999994 -0.999994 -0.00354699 1104.77 300.433)" fill="#FF8F52"/>
<ellipse cx="10.4048" cy="10.5614" rx="10.4048" ry="10.5614" transform="matrix(0.999994 0.00354699 -0.00339759 0.999994 1065.15 294.035)" fill="#6697DC"/>
<path d="M1061.24 361.44C1053.03 348.18 1024.97 334.745 1036.23 349.302C1044.93 360.547 1054.03 361.848 1061.24 361.44Z" stroke="#404040" stroke-width="3.58901"/>
<path d="M1071.77 367.945C1068.19 383.176 1045.85 405.031 1051.92 387.579C1056.61 374.098 1064.82 369.904 1071.77 367.945Z" stroke="#404040" stroke-width="3.58901"/>
<path d="M652.622 365.453L1057.72 366.89" stroke="#404040" stroke-width="3.58901"/>
<ellipse cx="6.15424" cy="11.869" rx="6.15424" ry="11.869" transform="matrix(0.999994 0.00354699 -0.00339759 0.999994 1068.89 335.748)" fill="#FF8F52"/>
<ellipse cx="6.20072" cy="11.7814" rx="6.20072" ry="11.7814" transform="matrix(0.699381 0.714853 -0.704222 0.709875 1091.56 340.825)" fill="#FF8F52"/>
<ellipse cx="6.24264" cy="11.7012" rx="6.24264" ry="11.7012" transform="matrix(0.207804 0.978202 -0.976852 0.213768 1068.88 360.735)" fill="#FF8F52"/>
<ellipse cx="6.22636" cy="11.7324" rx="6.22636" ry="11.7324" transform="matrix(-0.4693 0.882969 -0.877138 -0.480368 1074.33 355.087)" fill="#FF8F52"/>
<ellipse cx="6.16586" cy="11.8472" rx="6.16586" ry="11.8472" transform="matrix(-0.932565 -0.361141 0.351778 -0.936031 1070.32 394.561)" fill="#FF8F52"/>
<ellipse cx="6.20072" cy="11.7814" rx="6.20072" ry="11.7814" transform="matrix(-0.704222 0.709875 -0.699381 -0.714853 1097.95 382.812)" fill="#FF8F52"/>
<ellipse cx="6.24685" cy="11.693" rx="6.24685" ry="11.693" transform="matrix(-0.00339759 0.999994 -0.999994 -0.00354699 1104.5 360.237)" fill="#FF8F52"/>
<ellipse cx="10.4048" cy="10.5614" rx="10.4048" ry="10.5614" transform="matrix(0.999994 0.00354699 -0.00339759 0.999994 1064.88 353.839)" fill="#6697DC"/>
<path d="M1060.97 421.152C1052.77 407.892 1024.71 394.457 1035.97 409.014C1044.66 420.259 1053.77 421.56 1060.97 421.152Z" stroke="#404040" stroke-width="3.58901"/>
<path d="M1071.5 427.658C1067.92 442.888 1045.58 464.744 1051.65 447.292C1056.34 433.811 1064.55 429.616 1071.5 427.658Z" stroke="#404040" stroke-width="3.58901"/>
<path d="M652.354 425.165L1057.45 426.602" stroke="#404040" stroke-width="3.58901"/>
<ellipse cx="6.15424" cy="11.869" rx="6.15424" ry="11.869" transform="matrix(0.999994 0.00354699 -0.00339759 0.999994 1068.62 395.46)" fill="#FF8F52"/>
<ellipse cx="6.20072" cy="11.7814" rx="6.20072" ry="11.7814" transform="matrix(0.699381 0.714853 -0.704222 0.709875 1091.29 400.538)" fill="#FF8F52"/>
<ellipse cx="6.24264" cy="11.7012" rx="6.24264" ry="11.7012" transform="matrix(0.207804 0.978202 -0.976852 0.213768 1068.61 420.448)" fill="#FF8F52"/>
<ellipse cx="6.22636" cy="11.7324" rx="6.22636" ry="11.7324" transform="matrix(-0.4693 0.882969 -0.877138 -0.480368 1074.05 414.799)" fill="#FF8F52"/>
<ellipse cx="6.16586" cy="11.8472" rx="6.16586" ry="11.8472" transform="matrix(-0.932565 -0.361141 0.351778 -0.936031 1070.04 454.274)" fill="#FF8F52"/>
<ellipse cx="6.20072" cy="11.7814" rx="6.20072" ry="11.7814" transform="matrix(-0.704222 0.709875 -0.699381 -0.714853 1097.68 442.524)" fill="#FF8F52"/>
<ellipse cx="6.24685" cy="11.693" rx="6.24685" ry="11.693" transform="matrix(-0.00339759 0.999994 -0.999994 -0.00354699 1104.23 419.949)" fill="#FF8F52"/>
<ellipse cx="10.4048" cy="10.5614" rx="10.4048" ry="10.5614" transform="matrix(0.999994 0.00354699 -0.00339759 0.999994 1064.61 413.551)" fill="#6697DC"/>
</svg>
