<svg width="1156" height="642" viewBox="0 0 1156 642" fill="none" xmlns="http://www.w3.org/2000/svg">
<rect x="2.19435" y="639.652" width="637.458" height="1150.93" rx="42.7897" transform="rotate(-90 2.19435 639.652)" fill="#FBF6F2" stroke="#404040" stroke-width="4.38869"/>
<path d="M1061.51 301.636C1053.31 288.376 1025.25 274.941 1036.5 289.498C1045.2 300.743 1054.31 302.045 1061.51 301.636Z" stroke="#404040" stroke-width="3.93776"/>
<path d="M1072.04 308.142C1068.46 323.372 1046.12 345.228 1052.19 327.776C1056.88 314.295 1065.09 310.1 1072.04 308.142Z" stroke="#404040" stroke-width="3.93776"/>
<path d="M652.892 305.65L1057.99 307.087" stroke="#404040" stroke-width="3.93776"/>
<ellipse cx="6.15425" cy="11.8691" rx="6.15425" ry="11.8691" transform="matrix(0.999994 0.00354699 -0.00339759 0.999994 1069.16 275.944)" fill="#FFB1B1"/>
<ellipse cx="6.20074" cy="11.7814" rx="6.20074" ry="11.7814" transform="matrix(0.699381 0.714853 -0.704222 0.709875 1091.83 281.022)" fill="#FFB1B1"/>
<ellipse cx="6.24266" cy="11.7012" rx="6.24266" ry="11.7012" transform="matrix(0.207804 0.978202 -0.976852 0.213768 1069.15 300.931)" fill="#FFB1B1"/>
<ellipse cx="6.22638" cy="11.7325" rx="6.22638" ry="11.7325" transform="matrix(-0.4693 0.882969 -0.877138 -0.480368 1074.59 295.283)" fill="#FFB1B1"/>
<ellipse cx="6.16588" cy="11.8473" rx="6.16588" ry="11.8473" transform="matrix(-0.932565 -0.361141 0.351778 -0.936031 1070.58 334.758)" fill="#FFB1B1"/>
<ellipse cx="6.20074" cy="11.7814" rx="6.20074" ry="11.7814" transform="matrix(-0.704222 0.709875 -0.699381 -0.714853 1098.22 323.008)" fill="#FFB1B1"/>
<ellipse cx="6.24687" cy="11.6931" rx="6.24687" ry="11.6931" transform="matrix(-0.00339759 0.999994 -0.999994 -0.00354699 1104.77 300.433)" fill="#FFB1B1"/>
<ellipse cx="10.4049" cy="10.5615" rx="10.4049" ry="10.5615" transform="matrix(0.999994 0.00354699 -0.00339759 0.999994 1065.15 294.035)" fill="#A46443"/>
<path d="M1061.25 361.441C1053.04 348.181 1024.98 334.746 1036.24 349.303C1044.93 360.548 1054.04 361.849 1061.25 361.441Z" stroke="#404040" stroke-width="3.93776"/>
<path d="M1071.78 367.946C1068.19 383.176 1045.86 405.032 1051.92 387.58C1056.61 374.099 1064.82 369.904 1071.78 367.946Z" stroke="#404040" stroke-width="3.93776"/>
<path d="M652.625 365.454L1057.72 366.891" stroke="#404040" stroke-width="3.93776"/>
<ellipse cx="6.15425" cy="11.8691" rx="6.15425" ry="11.8691" transform="matrix(0.999994 0.00354699 -0.00339759 0.999994 1068.89 335.748)" fill="#FFB1B1"/>
<ellipse cx="6.20074" cy="11.7814" rx="6.20074" ry="11.7814" transform="matrix(0.699381 0.714853 -0.704222 0.709875 1091.56 340.826)" fill="#FFB1B1"/>
<ellipse cx="6.24266" cy="11.7012" rx="6.24266" ry="11.7012" transform="matrix(0.207804 0.978202 -0.976852 0.213768 1068.88 360.735)" fill="#FFB1B1"/>
<ellipse cx="6.22638" cy="11.7325" rx="6.22638" ry="11.7325" transform="matrix(-0.4693 0.882969 -0.877138 -0.480368 1074.33 355.087)" fill="#FFB1B1"/>
<ellipse cx="6.16588" cy="11.8473" rx="6.16588" ry="11.8473" transform="matrix(-0.932565 -0.361141 0.351778 -0.936031 1070.32 394.562)" fill="#FFB1B1"/>
<ellipse cx="6.20074" cy="11.7814" rx="6.20074" ry="11.7814" transform="matrix(-0.704222 0.709875 -0.699381 -0.714853 1097.96 382.812)" fill="#FFB1B1"/>
<ellipse cx="6.24687" cy="11.6931" rx="6.24687" ry="11.6931" transform="matrix(-0.00339759 0.999994 -0.999994 -0.00354699 1104.5 360.237)" fill="#FFB1B1"/>
<ellipse cx="10.4049" cy="10.5615" rx="10.4049" ry="10.5615" transform="matrix(0.999994 0.00354699 -0.00339759 0.999994 1064.89 353.839)" fill="#A46443"/>
<path d="M1060.98 421.154C1052.77 407.894 1024.71 394.458 1035.97 409.016C1044.66 420.261 1053.77 421.562 1060.98 421.154Z" stroke="#404040" stroke-width="3.93776"/>
<path d="M1071.51 427.66C1067.92 442.89 1045.59 464.746 1051.65 447.294C1056.34 433.813 1064.55 429.618 1071.51 427.66Z" stroke="#404040" stroke-width="3.93776"/>
<path d="M652.355 425.167L1057.45 426.604" stroke="#404040" stroke-width="3.93776"/>
<ellipse cx="6.15425" cy="11.8691" rx="6.15425" ry="11.8691" transform="matrix(0.999994 0.00354699 -0.00339759 0.999994 1068.62 395.462)" fill="#FFB1B1"/>
<ellipse cx="6.20074" cy="11.7814" rx="6.20074" ry="11.7814" transform="matrix(0.699381 0.714853 -0.704222 0.709875 1091.3 400.54)" fill="#FFB1B1"/>
<ellipse cx="6.24266" cy="11.7012" rx="6.24266" ry="11.7012" transform="matrix(0.207804 0.978202 -0.976852 0.213768 1068.61 420.449)" fill="#FFB1B1"/>
<ellipse cx="6.22638" cy="11.7325" rx="6.22638" ry="11.7325" transform="matrix(-0.4693 0.882969 -0.877138 -0.480368 1074.06 414.801)" fill="#FFB1B1"/>
<ellipse cx="6.16588" cy="11.8473" rx="6.16588" ry="11.8473" transform="matrix(-0.932565 -0.361141 0.351778 -0.936031 1070.05 454.275)" fill="#FFB1B1"/>
<ellipse cx="6.20074" cy="11.7814" rx="6.20074" ry="11.7814" transform="matrix(-0.704222 0.709875 -0.699381 -0.714853 1097.69 442.526)" fill="#FFB1B1"/>
<ellipse cx="6.24687" cy="11.6931" rx="6.24687" ry="11.6931" transform="matrix(-0.00339759 0.999994 -0.999994 -0.00354699 1104.23 419.951)" fill="#FFB1B1"/>
<ellipse cx="10.4049" cy="10.5615" rx="10.4049" ry="10.5615" transform="matrix(0.999994 0.00354699 -0.00339759 0.999994 1064.62 413.554)" fill="#A46443"/>
<path d="M1060.71 480.866C1052.5 467.606 1024.44 454.171 1035.7 468.728C1044.4 479.973 1053.5 481.274 1060.71 480.866Z" stroke="#404040" stroke-width="3.93776"/>
<path d="M1071.24 487.372C1067.65 502.602 1045.32 524.458 1051.38 507.006C1056.07 493.525 1064.28 489.33 1071.24 487.372Z" stroke="#404040" stroke-width="3.93776"/>
<path d="M652.085 484.879L1057.18 486.316" stroke="#404040" stroke-width="3.93776"/>
<ellipse cx="6.15425" cy="11.8691" rx="6.15425" ry="11.8691" transform="matrix(0.999994 0.00354699 -0.00339759 0.999994 1068.35 455.174)" fill="#FFB1B1"/>
<ellipse cx="6.20074" cy="11.7814" rx="6.20074" ry="11.7814" transform="matrix(0.699381 0.714853 -0.704222 0.709875 1091.03 460.251)" fill="#FFB1B1"/>
<ellipse cx="6.24266" cy="11.7012" rx="6.24266" ry="11.7012" transform="matrix(0.207804 0.978202 -0.976852 0.213768 1068.34 480.161)" fill="#FFB1B1"/>
<ellipse cx="6.22638" cy="11.7325" rx="6.22638" ry="11.7325" transform="matrix(-0.4693 0.882969 -0.877138 -0.480368 1073.79 474.512)" fill="#FFB1B1"/>
<ellipse cx="6.16588" cy="11.8473" rx="6.16588" ry="11.8473" transform="matrix(-0.932565 -0.361141 0.351778 -0.936031 1069.78 513.987)" fill="#FFB1B1"/>
<ellipse cx="6.20074" cy="11.7814" rx="6.20074" ry="11.7814" transform="matrix(-0.704222 0.709875 -0.699381 -0.714853 1097.42 502.238)" fill="#FFB1B1"/>
<ellipse cx="6.24687" cy="11.6931" rx="6.24687" ry="11.6931" transform="matrix(-0.00339759 0.999994 -0.999994 -0.00354699 1103.96 479.662)" fill="#FFB1B1"/>
<ellipse cx="10.4049" cy="10.5615" rx="10.4049" ry="10.5615" transform="matrix(0.999994 0.00354699 -0.00339759 0.999994 1064.35 473.265)" fill="#A46443"/>
<path d="M656.285 123.247C656.285 115.383 656.285 107.425 656.285 99.3728C656.285 91.321 656.285 83.3629 656.285 75.4983C659.094 75.4983 661.903 75.4983 664.711 75.4983C667.567 75.4983 670.399 75.4983 673.208 75.4983C676.766 75.4983 679.879 76.1771 682.547 77.5347C685.215 78.8454 687.275 80.718 688.726 83.1522C690.224 85.5397 690.973 88.3484 690.973 91.5785C690.973 94.3405 690.412 96.7981 689.288 98.9515C688.165 101.105 686.643 102.86 684.724 104.218C686.596 107.354 688.469 110.538 690.341 113.768C692.261 116.951 694.157 120.111 696.029 123.247C693.735 123.247 691.442 123.247 689.148 123.247C686.854 123.247 684.56 123.247 682.266 123.247C680.815 120.626 679.34 117.957 677.842 115.242C676.391 112.527 674.917 109.859 673.419 107.237C672.623 107.237 671.804 107.237 670.961 107.237C670.165 107.237 669.369 107.237 668.574 107.237C668.574 109.859 668.574 112.527 668.574 115.242C668.574 117.957 668.574 120.626 668.574 123.247C666.561 123.247 664.524 123.247 662.464 123.247C660.405 123.247 658.345 123.247 656.285 123.247ZM673.208 86.593C672.459 86.593 671.687 86.593 670.891 86.593C670.142 86.593 669.369 86.593 668.574 86.593C668.574 88.325 668.574 90.0571 668.574 91.7892C668.574 93.5212 668.574 95.2533 668.574 96.9854C669.463 96.9854 670.352 96.9854 671.242 96.9854C672.131 96.9854 673.021 96.9854 673.91 96.9854C675.315 96.9854 676.461 96.4938 677.351 95.5108C678.24 94.4809 678.685 93.2404 678.685 91.7892C678.685 90.2912 678.194 89.0506 677.21 88.0676C676.274 87.0845 674.94 86.593 673.208 86.593ZM715.714 124.371C712.998 124.371 710.471 123.903 708.13 122.966C705.789 121.983 703.753 120.626 702.021 118.894C700.289 117.115 698.931 115.055 697.948 112.714C697.012 110.374 696.544 107.823 696.544 105.061C696.544 102.299 697.012 99.7473 697.948 97.4067C698.931 95.0661 700.289 93.0297 702.021 91.2976C703.753 89.5656 705.789 88.2314 708.13 87.2951C710.471 86.3121 712.998 85.8205 715.714 85.8205C718.476 85.8205 721.003 86.3121 723.297 87.2951C725.638 88.2314 727.674 89.5656 729.406 91.2976C731.138 93.0297 732.473 95.0661 733.409 97.4067C734.392 99.7473 734.883 102.299 734.883 105.061C734.883 107.823 734.392 110.374 733.409 112.714C732.473 115.055 731.138 117.115 729.406 118.894C727.674 120.626 725.638 121.983 723.297 122.966C721.003 123.903 718.476 124.371 715.714 124.371ZM715.714 113.908C718.007 113.908 719.833 113.089 721.191 111.451C722.595 109.765 723.297 107.635 723.297 105.061C723.297 102.439 722.595 100.332 721.191 98.7409C719.833 97.1024 718.007 96.2832 715.714 96.2832C713.42 96.2832 711.571 97.1024 710.166 98.7409C708.809 100.332 708.13 102.439 708.13 105.061C708.13 107.635 708.809 109.765 710.166 111.451C711.571 113.089 713.42 113.908 715.714 113.908ZM740.614 123.247C740.614 117.255 740.614 111.216 740.614 105.131C740.614 98.9983 740.614 92.9361 740.614 86.944C742.533 86.944 744.476 86.944 746.442 86.944C748.408 86.944 750.328 86.944 752.2 86.944C752.2 87.2717 752.2 87.576 752.2 87.8569C752.2 88.1378 752.2 88.4421 752.2 88.7697C753.417 87.8803 754.775 87.2015 756.273 86.7334C757.771 86.2185 759.316 85.961 760.907 85.961C762.639 85.961 764.231 86.2653 765.682 86.8738C767.133 87.4356 768.374 88.2782 769.404 89.4017C770.902 88.325 772.587 87.4824 774.46 86.8738C776.379 86.2653 778.345 85.961 780.358 85.961C783.213 85.961 785.671 86.5461 787.731 87.7165C789.837 88.8868 791.453 90.5486 792.576 92.702C793.746 94.8554 794.332 97.4535 794.332 100.496C794.332 104.241 794.332 108.033 794.332 111.872C794.332 115.71 794.332 119.502 794.332 123.247C792.459 123.247 790.54 123.247 788.574 123.247C786.607 123.247 784.665 123.247 782.745 123.247C782.745 119.736 782.745 116.179 782.745 112.574C782.745 108.969 782.745 105.412 782.745 101.901C782.745 100.309 782.371 99.0217 781.622 98.0387C780.92 97.0088 779.773 96.4938 778.181 96.4938C776.636 96.4938 775.419 96.9854 774.53 97.9684C773.687 98.9047 773.266 100.215 773.266 101.901C773.266 105.412 773.266 108.969 773.266 112.574C773.266 116.179 773.266 119.736 773.266 123.247C771.393 123.247 769.474 123.247 767.508 123.247C765.542 123.247 763.599 123.247 761.68 123.247C761.68 119.736 761.68 116.179 761.68 112.574C761.68 108.969 761.68 105.412 761.68 101.901C761.68 100.309 761.305 99.0217 760.556 98.0387C759.854 97.0088 758.707 96.4938 757.115 96.4938C755.571 96.4938 754.353 96.9854 753.464 97.9684C752.621 98.9047 752.2 100.215 752.2 101.901C752.2 105.412 752.2 108.969 752.2 112.574C752.2 116.179 752.2 119.736 752.2 123.247C750.328 123.247 748.408 123.247 746.442 123.247C744.476 123.247 742.533 123.247 740.614 123.247ZM825.733 123.247C825.733 122.873 825.733 122.522 825.733 122.194C825.733 121.82 825.733 121.468 825.733 121.141C824.562 122.124 823.228 122.873 821.73 123.388C820.279 123.95 818.711 124.23 817.025 124.23C814.638 124.23 812.391 123.786 810.284 122.896C808.178 121.96 806.305 120.649 804.667 118.964C803.075 117.232 801.811 115.196 800.875 112.855C799.986 110.514 799.541 107.916 799.541 105.061C799.541 102.158 799.986 99.5367 800.875 97.196C801.811 94.8554 803.075 92.8659 804.667 91.2274C806.305 89.5422 808.178 88.2548 810.284 87.3654C812.391 86.4291 814.615 85.961 816.955 85.961C818.64 85.961 820.232 86.2419 821.73 86.8036C823.228 87.3186 824.562 88.0441 825.733 88.9804C825.733 88.6059 825.733 88.2548 825.733 87.9271C825.733 87.5994 825.733 87.2717 825.733 86.944C827.652 86.944 829.595 86.944 831.561 86.944C833.527 86.944 835.446 86.944 837.319 86.944C837.319 92.9361 837.319 98.9983 837.319 105.131C837.319 111.216 837.319 117.255 837.319 123.247C835.446 123.247 833.527 123.247 831.561 123.247C829.595 123.247 827.652 123.247 825.733 123.247ZM818.57 113.978C820.817 113.978 822.62 113.159 823.977 111.521C825.335 109.882 826.013 107.729 826.013 105.061C826.013 102.392 825.335 100.262 823.977 98.6706C822.62 97.0322 820.817 96.213 818.57 96.213C816.276 96.213 814.451 97.0088 813.093 98.6004C811.782 100.192 811.127 102.345 811.127 105.061C811.127 107.776 811.782 109.953 813.093 111.591C814.451 113.183 816.276 113.978 818.57 113.978ZM845.051 123.247C845.051 117.255 845.051 111.216 845.051 105.131C845.051 98.9983 845.051 92.9361 845.051 86.944C846.97 86.944 848.913 86.944 850.879 86.944C852.845 86.944 854.765 86.944 856.637 86.944C856.637 87.2717 856.637 87.576 856.637 87.8569C856.637 88.1378 856.637 88.4421 856.637 88.7697C857.901 87.8803 859.306 87.2015 860.85 86.7334C862.442 86.2185 864.151 85.961 865.976 85.961C868.645 85.961 870.985 86.5695 872.998 87.7867C875.058 89.0038 876.65 90.7593 877.773 93.0531C878.943 95.3001 879.529 98.0153 879.529 101.199C879.529 104.85 879.529 108.525 879.529 112.223C879.529 115.921 879.529 119.596 879.529 123.247C877.656 123.247 875.737 123.247 873.771 123.247C871.805 123.247 869.862 123.247 867.942 123.247C867.942 119.877 867.942 116.459 867.942 112.995C867.942 109.531 867.942 106.114 867.942 102.743C867.942 100.871 867.498 99.3728 866.608 98.2493C865.766 97.079 864.408 96.4938 862.536 96.4938C860.663 96.4938 859.212 97.0322 858.182 98.1089C857.152 99.1856 856.637 100.73 856.637 102.743C856.637 106.114 856.637 109.531 856.637 112.995C856.637 116.459 856.637 119.877 856.637 123.247C854.765 123.247 852.845 123.247 850.879 123.247C848.913 123.247 846.97 123.247 845.051 123.247ZM890.467 123.247C890.467 118.941 890.467 114.61 890.467 110.257C890.467 105.903 890.467 101.596 890.467 97.3365C889.531 97.3365 888.571 97.3365 887.588 97.3365C886.652 97.3365 885.715 97.3365 884.779 97.3365C884.779 95.6044 884.779 93.8723 884.779 92.1403C884.779 90.4082 884.779 88.6761 884.779 86.944C885.715 86.944 886.652 86.944 887.588 86.944C888.571 86.944 889.531 86.944 890.467 86.944C890.467 85.3056 890.467 83.6906 890.467 82.0989C890.467 80.4605 890.467 78.8454 890.467 77.2538C892.386 77.2538 894.329 77.2538 896.295 77.2538C898.261 77.2538 900.181 77.2538 902.053 77.2538C902.053 78.8454 902.053 80.4605 902.053 82.0989C902.053 83.6906 902.053 85.3056 902.053 86.944C903.13 86.944 904.23 86.944 905.353 86.944C906.477 86.944 907.577 86.944 908.654 86.944C908.654 88.6761 908.654 90.4082 908.654 92.1403C908.654 93.8723 908.654 95.6044 908.654 97.3365C907.577 97.3365 906.477 97.3365 905.353 97.3365C904.23 97.3365 903.13 97.3365 902.053 97.3365C902.053 101.596 902.053 105.903 902.053 110.257C902.053 114.61 902.053 118.941 902.053 123.247C900.181 123.247 898.261 123.247 896.295 123.247C894.329 123.247 892.386 123.247 890.467 123.247ZM920.421 82.8011C919.063 82.8011 917.823 82.4734 916.699 81.8181C915.623 81.1627 914.757 80.2966 914.101 79.22C913.446 78.1433 913.118 76.9495 913.118 75.6388C913.118 74.328 913.446 73.1577 914.101 72.1278C914.757 71.0511 915.623 70.1851 916.699 69.5297C917.823 68.8743 919.063 68.5466 920.421 68.5466C921.732 68.5466 922.925 68.8743 924.002 69.5297C925.126 70.1851 926.015 71.0511 926.67 72.1278C927.326 73.1577 927.653 74.328 927.653 75.6388C927.653 76.9495 927.326 78.1433 926.67 79.22C926.015 80.2966 925.126 81.1627 924.002 81.8181C922.925 82.4734 921.732 82.8011 920.421 82.8011ZM914.593 123.247C914.593 117.255 914.593 111.216 914.593 105.131C914.593 98.9983 914.593 92.9361 914.593 86.944C916.512 86.944 918.455 86.944 920.421 86.944C922.387 86.944 924.306 86.944 926.179 86.944C926.179 92.9361 926.179 98.9983 926.179 105.131C926.179 111.216 926.179 117.255 926.179 123.247C924.306 123.247 922.387 123.247 920.421 123.247C918.455 123.247 916.512 123.247 914.593 123.247ZM932.299 105.061C932.299 101.503 933.024 98.3898 934.476 95.7214C935.927 93.0063 937.94 90.8295 940.514 89.1911C943.089 87.5526 946.085 86.5695 949.503 86.2419C952.92 85.8674 956.571 86.2653 960.457 87.4356C960.457 89.2145 960.457 91.0168 960.457 92.8425C960.457 94.6681 960.457 96.4704 960.457 98.2493C957.742 96.9386 955.143 96.33 952.662 96.4236C950.181 96.5173 948.145 97.2897 946.553 98.7409C944.962 100.145 944.166 102.252 944.166 105.061C944.166 107.869 944.962 109.999 946.553 111.451C948.145 112.855 950.181 113.604 952.662 113.698C955.143 113.744 957.742 113.136 960.457 111.872C960.457 113.651 960.457 115.453 960.457 117.279C960.457 119.104 960.457 120.907 960.457 122.686C956.571 123.856 952.92 124.254 949.503 123.879C946.085 123.552 943.089 122.569 940.514 120.93C937.94 119.292 935.927 117.138 934.476 114.47C933.024 111.755 932.299 108.618 932.299 105.061ZM656.285 200.247C656.285 192.383 656.285 184.425 656.285 176.373C656.285 168.321 656.285 160.363 656.285 152.498C659.188 152.498 662.09 152.498 664.992 152.498C667.942 152.498 670.844 152.498 673.7 152.498C677.304 152.498 680.441 153.201 683.109 154.605C685.777 155.962 687.86 157.882 689.358 160.363C690.856 162.844 691.605 165.746 691.605 169.07C691.605 172.347 690.856 175.226 689.358 177.707C687.907 180.188 685.894 182.107 683.32 183.465C680.792 184.823 677.913 185.501 674.683 185.501C673.653 185.501 672.623 185.501 671.593 185.501C670.61 185.501 669.603 185.501 668.574 185.501C668.574 187.936 668.574 190.393 668.574 192.874C668.574 195.355 668.574 197.813 668.574 200.247C666.561 200.247 664.524 200.247 662.464 200.247C660.405 200.247 658.345 200.247 656.285 200.247ZM673.7 163.523C672.857 163.523 671.991 163.523 671.101 163.523C670.259 163.523 669.416 163.523 668.574 163.523C668.574 165.395 668.574 167.291 668.574 169.21C668.574 171.083 668.574 172.955 668.574 174.828C669.51 174.828 670.469 174.828 671.453 174.828C672.482 174.828 673.465 174.828 674.402 174.828C675.853 174.828 677.023 174.29 677.913 173.213C678.849 172.136 679.317 170.802 679.317 169.21C679.317 167.572 678.826 166.214 677.842 165.138C676.859 164.061 675.478 163.523 673.7 163.523ZM713.382 201.371C710.667 201.371 708.139 200.903 705.798 199.966C703.458 198.983 701.421 197.626 699.689 195.894C697.957 194.115 696.6 192.055 695.617 189.714C694.68 187.374 694.212 184.823 694.212 182.061C694.212 179.299 694.68 176.747 695.617 174.407C696.6 172.066 697.957 170.03 699.689 168.298C701.421 166.566 703.458 165.231 705.798 164.295C708.139 163.312 710.667 162.821 713.382 162.821C716.144 162.821 718.672 163.312 720.966 164.295C723.306 165.231 725.343 166.566 727.075 168.298C728.807 170.03 730.141 172.066 731.077 174.407C732.06 176.747 732.552 179.299 732.552 182.061C732.552 184.823 732.06 187.374 731.077 189.714C730.141 192.055 728.807 194.115 727.075 195.894C725.343 197.626 723.306 198.983 720.966 199.966C718.672 200.903 716.144 201.371 713.382 201.371ZM713.382 190.908C715.676 190.908 717.502 190.089 718.859 188.451C720.264 186.765 720.966 184.635 720.966 182.061C720.966 179.439 720.264 177.332 718.859 175.741C717.502 174.102 715.676 173.283 713.382 173.283C711.088 173.283 709.239 174.102 707.835 175.741C706.477 177.332 705.798 179.439 705.798 182.061C705.798 184.635 706.477 186.765 707.835 188.451C709.239 190.089 711.088 190.908 713.382 190.908ZM749.869 211.482C747.996 211.482 746.077 211.482 744.111 211.482C742.144 211.482 740.202 211.482 738.282 211.482C738.282 203.665 738.282 195.753 738.282 187.748C738.282 179.697 738.282 171.762 738.282 163.944C740.202 163.944 742.144 163.944 744.111 163.944C746.077 163.944 747.996 163.944 749.869 163.944C749.869 164.272 749.869 164.599 749.869 164.927C749.869 165.255 749.869 165.606 749.869 165.98C751.039 165.044 752.373 164.319 753.871 163.804C755.369 163.242 756.961 162.961 758.646 162.961C760.987 162.961 763.21 163.429 765.317 164.365C767.423 165.255 769.272 166.542 770.864 168.227C772.503 169.913 773.766 171.926 774.656 174.266C775.592 176.607 776.06 179.205 776.06 182.061C776.06 184.869 775.592 187.444 774.656 189.785C773.766 192.125 772.503 194.162 770.864 195.894C769.272 197.579 767.423 198.89 765.317 199.826C763.21 200.762 760.963 201.23 758.576 201.23C756.89 201.23 755.299 200.95 753.801 200.388C752.35 199.873 751.039 199.124 749.869 198.141C749.869 200.341 749.869 202.565 749.869 204.812C749.869 207.059 749.869 209.282 749.869 211.482ZM757.031 190.978C759.325 190.978 761.127 190.183 762.438 188.591C763.795 186.953 764.474 184.776 764.474 182.061C764.474 179.345 763.795 177.192 762.438 175.6C761.127 174.009 759.325 173.213 757.031 173.213C754.784 173.213 752.982 174.032 751.624 175.671C750.266 177.262 749.588 179.392 749.588 182.061C749.588 184.729 750.266 186.882 751.624 188.521C752.982 190.159 754.784 190.978 757.031 190.978Z" fill="#404040"/>
<path d="M654.003 289.127C654.003 285.195 654.003 281.216 654.003 277.19C654.003 273.164 654.003 269.185 654.003 265.253C655.407 265.253 656.812 265.253 658.216 265.253C659.644 265.253 661.06 265.253 662.464 265.253C664.243 265.253 665.8 265.592 667.134 266.271C668.468 266.926 669.498 267.863 670.224 269.08C670.973 270.273 671.347 271.678 671.347 273.293C671.347 274.674 671.066 275.903 670.505 276.979C669.943 278.056 669.182 278.934 668.222 279.613C669.159 281.181 670.095 282.772 671.031 284.387C671.991 285.979 672.939 287.559 673.875 289.127C672.728 289.127 671.581 289.127 670.434 289.127C669.287 289.127 668.141 289.127 666.994 289.127C666.268 287.816 665.531 286.482 664.782 285.125C664.056 283.767 663.319 282.433 662.57 281.122C662.172 281.122 661.762 281.122 661.341 281.122C660.943 281.122 660.545 281.122 660.147 281.122C660.147 282.433 660.147 283.767 660.147 285.125C660.147 286.482 660.147 287.816 660.147 289.127C659.141 289.127 658.123 289.127 657.093 289.127C656.063 289.127 655.033 289.127 654.003 289.127ZM662.464 270.8C662.09 270.8 661.704 270.8 661.306 270.8C660.931 270.8 660.545 270.8 660.147 270.8C660.147 271.666 660.147 272.532 660.147 273.398C660.147 274.264 660.147 275.13 660.147 275.996C660.592 275.996 661.037 275.996 661.481 275.996C661.926 275.996 662.371 275.996 662.816 275.996C663.518 275.996 664.091 275.75 664.536 275.259C664.981 274.744 665.203 274.124 665.203 273.398C665.203 272.649 664.957 272.029 664.466 271.537C663.998 271.046 663.331 270.8 662.464 270.8ZM690.739 288.285C689.124 288.963 687.521 289.385 685.929 289.549C684.338 289.712 682.828 289.619 681.4 289.268C679.996 288.94 678.743 288.366 677.643 287.547C676.543 286.728 675.677 285.686 675.045 284.423C674.437 283.159 674.132 281.696 674.132 280.034C674.132 278.653 674.355 277.389 674.799 276.242C675.268 275.072 675.923 274.054 676.766 273.187C677.608 272.298 678.603 271.619 679.75 271.151C680.897 270.66 682.149 270.414 683.507 270.414C684.724 270.414 685.824 270.613 686.807 271.011C687.79 271.409 688.644 271.97 689.37 272.696C690.095 273.398 690.681 274.241 691.125 275.224C691.57 276.207 691.851 277.284 691.968 278.454C692.085 279.624 692.015 280.865 691.757 282.176C689.838 282.176 687.907 282.176 685.964 282.176C684.022 282.176 682.091 282.176 680.171 282.176C680.616 283.065 681.353 283.697 682.383 284.071C683.436 284.446 684.677 284.563 686.105 284.423C687.556 284.282 689.101 283.908 690.739 283.299C690.739 284.118 690.739 284.949 690.739 285.792C690.739 286.634 690.739 287.465 690.739 288.285ZM683.366 275.61C682.687 275.61 682.055 275.797 681.47 276.172C680.908 276.546 680.475 277.12 680.171 277.892C681.224 277.892 682.278 277.892 683.331 277.892C684.408 277.892 685.473 277.892 686.526 277.892C686.245 277.096 685.824 276.523 685.262 276.172C684.724 275.797 684.092 275.61 683.366 275.61ZM708.904 283.51C708.904 284.961 708.495 286.155 707.675 287.091C706.88 288.004 705.803 288.671 704.445 289.092C703.088 289.513 701.566 289.689 699.881 289.619C698.219 289.572 696.522 289.303 694.79 288.811C694.79 287.922 694.79 287.009 694.79 286.073C694.79 285.136 694.79 284.224 694.79 283.334C695.773 283.779 696.756 284.13 697.739 284.387C698.722 284.621 699.612 284.762 700.408 284.809C701.204 284.856 701.847 284.797 702.339 284.633C702.83 284.446 703.076 284.142 703.076 283.72C703.076 283.393 702.865 283.135 702.444 282.948C702.046 282.761 701.52 282.597 700.864 282.456C700.209 282.293 699.507 282.105 698.758 281.895C698.032 281.661 697.341 281.345 696.686 280.947C696.031 280.525 695.492 279.975 695.071 279.297C694.673 278.594 694.474 277.693 694.474 276.593C694.474 275.282 694.849 274.171 695.598 273.258C696.37 272.321 697.4 271.619 698.687 271.151C699.975 270.66 701.414 270.414 703.006 270.414C704.597 270.414 706.224 270.683 707.886 271.221C707.886 272.111 707.886 273.024 707.886 273.96C707.886 274.896 707.886 275.809 707.886 276.698C706.575 276.066 705.346 275.645 704.2 275.434C703.053 275.224 702.128 275.2 701.426 275.364C700.724 275.505 700.373 275.821 700.373 276.312C700.373 276.64 700.572 276.897 700.969 277.085C701.391 277.248 701.917 277.401 702.549 277.541C703.205 277.681 703.895 277.869 704.621 278.103C705.37 278.337 706.06 278.665 706.692 279.086C707.348 279.484 707.874 280.046 708.272 280.771C708.694 281.473 708.904 282.386 708.904 283.51ZM713.595 289.127C713.595 286.974 713.595 284.809 713.595 282.632C713.595 280.455 713.595 278.302 713.595 276.172C713.127 276.172 712.647 276.172 712.156 276.172C711.688 276.172 711.219 276.172 710.751 276.172C710.751 275.306 710.751 274.44 710.751 273.574C710.751 272.708 710.751 271.842 710.751 270.976C711.219 270.976 711.688 270.976 712.156 270.976C712.647 270.976 713.127 270.976 713.595 270.976C713.595 270.156 713.595 269.349 713.595 268.553C713.595 267.734 713.595 266.926 713.595 266.13C714.555 266.13 715.526 266.13 716.509 266.13C717.492 266.13 718.452 266.13 719.388 266.13C719.388 266.926 719.388 267.734 719.388 268.553C719.388 269.349 719.388 270.156 719.388 270.976C719.927 270.976 720.477 270.976 721.038 270.976C721.6 270.976 722.15 270.976 722.689 270.976C722.689 271.842 722.689 272.708 722.689 273.574C722.689 274.44 722.689 275.306 722.689 276.172C722.15 276.172 721.6 276.172 721.038 276.172C720.477 276.172 719.927 276.172 719.388 276.172C719.388 278.302 719.388 280.455 719.388 282.632C719.388 284.809 719.388 286.974 719.388 289.127C718.452 289.127 717.492 289.127 716.509 289.127C715.526 289.127 714.555 289.127 713.595 289.127ZM725.483 289.127C725.483 286.131 725.483 283.112 725.483 280.069C725.483 277.003 725.483 273.972 725.483 270.976C726.442 270.976 727.414 270.976 728.397 270.976C729.38 270.976 730.339 270.976 731.276 270.976C731.276 271.139 731.276 271.303 731.276 271.467C731.276 271.631 731.276 271.795 731.276 271.959C732.001 271.444 732.82 271.057 733.733 270.8C734.646 270.543 735.641 270.472 736.718 270.589C736.718 271.526 736.718 272.474 736.718 273.433C736.718 274.393 736.718 275.341 736.718 276.277C734.868 276.02 733.499 276.183 732.61 276.769C731.72 277.33 731.276 278.255 731.276 279.542C731.276 281.111 731.276 282.702 731.276 284.317C731.276 285.932 731.276 287.536 731.276 289.127C730.339 289.127 729.38 289.127 728.397 289.127C727.414 289.127 726.442 289.127 725.483 289.127ZM751.276 289.127C751.276 288.94 751.276 288.764 751.276 288.601C751.276 288.413 751.276 288.238 751.276 288.074C750.691 288.565 750.023 288.94 749.274 289.197C748.549 289.478 747.765 289.619 746.922 289.619C745.728 289.619 744.605 289.396 743.552 288.952C742.498 288.484 741.562 287.828 740.743 286.986C739.947 286.119 739.315 285.101 738.847 283.931C738.402 282.761 738.18 281.462 738.18 280.034C738.18 278.583 738.402 277.272 738.847 276.102C739.315 274.931 739.947 273.936 740.743 273.117C741.562 272.275 742.498 271.631 743.552 271.186C744.605 270.718 745.717 270.484 746.887 270.484C747.73 270.484 748.525 270.624 749.274 270.905C750.023 271.163 750.691 271.526 751.276 271.994C751.276 271.806 751.276 271.631 751.276 271.467C751.276 271.303 751.276 271.139 751.276 270.976C752.235 270.976 753.207 270.976 754.19 270.976C755.173 270.976 756.133 270.976 757.069 270.976C757.069 273.972 757.069 277.003 757.069 280.069C757.069 283.112 757.069 286.131 757.069 289.127C756.133 289.127 755.173 289.127 754.19 289.127C753.207 289.127 752.235 289.127 751.276 289.127ZM747.695 284.493C748.818 284.493 749.719 284.083 750.398 283.264C751.077 282.445 751.416 281.368 751.416 280.034C751.416 278.7 751.077 277.635 750.398 276.839C749.719 276.02 748.818 275.61 747.695 275.61C746.548 275.61 745.635 276.008 744.956 276.804C744.301 277.6 743.973 278.676 743.973 280.034C743.973 281.391 744.301 282.48 744.956 283.299C745.635 284.095 746.548 284.493 747.695 284.493ZM764.025 268.904C763.346 268.904 762.726 268.74 762.164 268.413C761.625 268.085 761.192 267.652 760.865 267.114C760.537 266.575 760.373 265.978 760.373 265.323C760.373 264.668 760.537 264.082 760.865 263.567C761.192 263.029 761.625 262.596 762.164 262.268C762.726 261.941 763.346 261.777 764.025 261.777C764.68 261.777 765.277 261.941 765.815 262.268C766.377 262.596 766.822 263.029 767.149 263.567C767.477 264.082 767.641 264.668 767.641 265.323C767.641 265.978 767.477 266.575 767.149 267.114C766.822 267.652 766.377 268.085 765.815 268.413C765.277 268.74 764.68 268.904 764.025 268.904ZM761.11 289.127C761.11 286.131 761.11 283.112 761.11 280.069C761.11 277.003 761.11 273.972 761.11 270.976C762.07 270.976 763.042 270.976 764.025 270.976C765.008 270.976 765.967 270.976 766.904 270.976C766.904 273.972 766.904 277.003 766.904 280.069C766.904 283.112 766.904 286.131 766.904 289.127C765.967 289.127 765.008 289.127 764.025 289.127C763.042 289.127 762.07 289.127 761.11 289.127ZM770.947 289.127C770.947 286.131 770.947 283.112 770.947 280.069C770.947 277.003 770.947 273.972 770.947 270.976C771.906 270.976 772.878 270.976 773.861 270.976C774.844 270.976 775.803 270.976 776.74 270.976C776.74 271.139 776.74 271.292 776.74 271.432C776.74 271.572 776.74 271.725 776.74 271.888C777.372 271.444 778.074 271.104 778.846 270.87C779.642 270.613 780.496 270.484 781.409 270.484C782.743 270.484 783.914 270.788 784.92 271.397C785.95 272.005 786.746 272.883 787.308 274.03C787.893 275.154 788.185 276.511 788.185 278.103C788.185 279.928 788.185 281.766 788.185 283.615C788.185 285.464 788.185 287.302 788.185 289.127C787.249 289.127 786.29 289.127 785.306 289.127C784.323 289.127 783.352 289.127 782.392 289.127C782.392 287.442 782.392 285.733 782.392 284.001C782.392 282.269 782.392 280.56 782.392 278.875C782.392 277.939 782.17 277.19 781.725 276.628C781.304 276.043 780.625 275.75 779.689 275.75C778.753 275.75 778.027 276.02 777.512 276.558C776.997 277.096 776.74 277.869 776.74 278.875C776.74 280.56 776.74 282.269 776.74 284.001C776.74 285.733 776.74 287.442 776.74 289.127C775.803 289.127 774.844 289.127 773.861 289.127C772.878 289.127 771.906 289.127 770.947 289.127ZM807.382 288.285C805.767 288.963 804.164 289.385 802.572 289.549C800.981 289.712 799.471 289.619 798.043 289.268C796.639 288.94 795.387 288.366 794.287 287.547C793.186 286.728 792.32 285.686 791.688 284.423C791.08 283.159 790.776 281.696 790.776 280.034C790.776 278.653 790.998 277.389 791.443 276.242C791.911 275.072 792.566 274.054 793.409 273.187C794.251 272.298 795.246 271.619 796.393 271.151C797.54 270.66 798.792 270.414 800.15 270.414C801.367 270.414 802.467 270.613 803.45 271.011C804.433 271.409 805.288 271.97 806.013 272.696C806.739 273.398 807.324 274.241 807.769 275.224C808.213 276.207 808.494 277.284 808.611 278.454C808.728 279.624 808.658 280.865 808.401 282.176C806.481 282.176 804.55 282.176 802.607 282.176C800.665 282.176 798.734 282.176 796.814 282.176C797.259 283.065 797.996 283.697 799.026 284.071C800.08 284.446 801.32 284.563 802.748 284.423C804.199 284.282 805.744 283.908 807.382 283.299C807.382 284.118 807.382 284.949 807.382 285.792C807.382 286.634 807.382 287.465 807.382 288.285ZM800.009 275.61C799.331 275.61 798.699 275.797 798.113 276.172C797.552 276.546 797.119 277.12 796.814 277.892C797.868 277.892 798.921 277.892 799.974 277.892C801.051 277.892 802.116 277.892 803.169 277.892C802.888 277.096 802.467 276.523 801.905 276.172C801.367 275.797 800.735 275.61 800.009 275.61ZM823.792 289.127C823.792 288.94 823.792 288.764 823.792 288.601C823.792 288.413 823.792 288.238 823.792 288.074C823.207 288.565 822.54 288.94 821.791 289.197C821.065 289.478 820.281 289.619 819.438 289.619C818.245 289.619 817.121 289.385 816.068 288.917C815.015 288.448 814.078 287.793 813.259 286.95C812.463 286.084 811.831 285.066 811.363 283.896C810.918 282.726 810.696 281.438 810.696 280.034C810.696 278.606 810.918 277.307 811.363 276.137C811.831 274.966 812.463 273.96 813.259 273.117C814.078 272.275 815.015 271.631 816.068 271.186C817.121 270.718 818.233 270.484 819.403 270.484C820.246 270.484 821.042 270.624 821.791 270.905C822.54 271.163 823.207 271.526 823.792 271.994C823.792 270.589 823.792 269.173 823.792 267.745C823.792 266.318 823.792 264.902 823.792 263.497C824.752 263.497 825.723 263.497 826.706 263.497C827.689 263.497 828.649 263.497 829.585 263.497C829.585 267.734 829.585 272.005 829.585 276.312C829.585 280.619 829.585 284.891 829.585 289.127C828.649 289.127 827.689 289.127 826.706 289.127C825.723 289.127 824.752 289.127 823.792 289.127ZM820.211 284.493C821.334 284.493 822.235 284.083 822.914 283.264C823.593 282.445 823.932 281.368 823.932 280.034C823.932 278.7 823.593 277.635 822.914 276.839C822.235 276.02 821.334 275.61 820.211 275.61C819.064 275.61 818.151 276.008 817.472 276.804C816.817 277.6 816.489 278.676 816.489 280.034C816.489 281.391 816.817 282.48 817.472 283.299C818.151 284.095 819.064 284.493 820.211 284.493ZM840.994 289.127C840.994 286.131 840.994 283.112 840.994 280.069C840.994 277.003 840.994 273.972 840.994 270.976C841.954 270.976 842.925 270.976 843.908 270.976C844.891 270.976 845.851 270.976 846.787 270.976C846.787 271.139 846.787 271.292 846.787 271.432C846.787 271.572 846.787 271.725 846.787 271.888C847.419 271.444 848.122 271.104 848.894 270.87C849.69 270.613 850.544 270.484 851.457 270.484C852.791 270.484 853.961 270.788 854.968 271.397C855.998 272.005 856.794 272.883 857.355 274.03C857.94 275.154 858.233 276.511 858.233 278.103C858.233 279.928 858.233 281.766 858.233 283.615C858.233 285.464 858.233 287.302 858.233 289.127C857.297 289.127 856.337 289.127 855.354 289.127C854.371 289.127 853.4 289.127 852.44 289.127C852.44 287.442 852.44 285.733 852.44 284.001C852.44 282.269 852.44 280.56 852.44 278.875C852.44 277.939 852.218 277.19 851.773 276.628C851.352 276.043 850.673 275.75 849.737 275.75C848.8 275.75 848.075 276.02 847.56 276.558C847.045 277.096 846.787 277.869 846.787 278.875C846.787 280.56 846.787 282.269 846.787 284.001C846.787 285.733 846.787 287.442 846.787 289.127C845.851 289.127 844.891 289.127 843.908 289.127C842.925 289.127 841.954 289.127 840.994 289.127ZM873.919 289.127C873.919 288.94 873.919 288.764 873.919 288.601C873.919 288.413 873.919 288.238 873.919 288.074C873.334 288.565 872.667 288.94 871.918 289.197C871.192 289.478 870.408 289.619 869.565 289.619C868.372 289.619 867.248 289.396 866.195 288.952C865.142 288.484 864.205 287.828 863.386 286.986C862.59 286.119 861.958 285.101 861.49 283.931C861.046 282.761 860.823 281.462 860.823 280.034C860.823 278.583 861.046 277.272 861.49 276.102C861.958 274.931 862.59 273.936 863.386 273.117C864.205 272.275 865.142 271.631 866.195 271.186C867.248 270.718 868.36 270.484 869.53 270.484C870.373 270.484 871.169 270.624 871.918 270.905C872.667 271.163 873.334 271.526 873.919 271.994C873.919 271.806 873.919 271.631 873.919 271.467C873.919 271.303 873.919 271.139 873.919 270.976C874.879 270.976 875.85 270.976 876.833 270.976C877.816 270.976 878.776 270.976 879.712 270.976C879.712 273.972 879.712 277.003 879.712 280.069C879.712 283.112 879.712 286.131 879.712 289.127C878.776 289.127 877.816 289.127 876.833 289.127C875.85 289.127 874.879 289.127 873.919 289.127ZM870.338 284.493C871.461 284.493 872.363 284.083 873.041 283.264C873.72 282.445 874.06 281.368 874.06 280.034C874.06 278.7 873.72 277.635 873.041 276.839C872.363 276.02 871.461 275.61 870.338 275.61C869.191 275.61 868.278 276.008 867.599 276.804C866.944 277.6 866.616 278.676 866.616 280.034C866.616 281.391 866.944 282.48 867.599 283.299C868.278 284.095 869.191 284.493 870.338 284.493ZM883.578 289.127C883.578 286.131 883.578 283.112 883.578 280.069C883.578 277.003 883.578 273.972 883.578 270.976C884.538 270.976 885.509 270.976 886.492 270.976C887.475 270.976 888.435 270.976 889.371 270.976C889.371 271.139 889.371 271.303 889.371 271.467C889.371 271.631 889.371 271.795 889.371 271.959C890.097 271.444 890.916 271.057 891.829 270.8C892.742 270.543 893.737 270.472 894.813 270.589C894.813 271.526 894.813 272.474 894.813 273.433C894.813 274.393 894.813 275.341 894.813 276.277C892.964 276.02 891.595 276.183 890.706 276.769C889.816 277.33 889.371 278.255 889.371 279.542C889.371 281.111 889.371 282.702 889.371 284.317C889.371 285.932 889.371 287.536 889.371 289.127C888.435 289.127 887.475 289.127 886.492 289.127C885.509 289.127 884.538 289.127 883.578 289.127ZM897.43 289.127C897.43 286.131 897.43 283.112 897.43 280.069C897.43 277.003 897.43 273.972 897.43 270.976C898.39 270.976 899.361 270.976 900.344 270.976C901.327 270.976 902.287 270.976 903.223 270.976C903.223 271.139 903.223 271.303 903.223 271.467C903.223 271.631 903.223 271.795 903.223 271.959C903.949 271.444 904.768 271.057 905.681 270.8C906.594 270.543 907.588 270.472 908.665 270.589C908.665 271.526 908.665 272.474 908.665 273.433C908.665 274.393 908.665 275.341 908.665 276.277C906.816 276.02 905.447 276.183 904.557 276.769C903.668 277.33 903.223 278.255 903.223 279.542C903.223 281.111 903.223 282.702 903.223 284.317C903.223 285.932 903.223 287.536 903.223 289.127C902.287 289.127 901.327 289.127 900.344 289.127C899.361 289.127 898.39 289.127 897.43 289.127ZM923.223 289.127C923.223 288.94 923.223 288.764 923.223 288.601C923.223 288.413 923.223 288.238 923.223 288.074C922.638 288.565 921.971 288.94 921.222 289.197C920.496 289.478 919.712 289.619 918.87 289.619C917.676 289.619 916.552 289.396 915.499 288.952C914.446 288.484 913.51 287.828 912.69 286.986C911.895 286.119 911.263 285.101 910.795 283.931C910.35 282.761 910.127 281.462 910.127 280.034C910.127 278.583 910.35 277.272 910.795 276.102C911.263 274.931 911.895 273.936 912.69 273.117C913.51 272.275 914.446 271.631 915.499 271.186C916.552 270.718 917.664 270.484 918.835 270.484C919.677 270.484 920.473 270.624 921.222 270.905C921.971 271.163 922.638 271.526 923.223 271.994C923.223 271.806 923.223 271.631 923.223 271.467C923.223 271.303 923.223 271.139 923.223 270.976C924.183 270.976 925.154 270.976 926.137 270.976C927.12 270.976 928.08 270.976 929.016 270.976C929.016 273.972 929.016 277.003 929.016 280.069C929.016 283.112 929.016 286.131 929.016 289.127C928.08 289.127 927.12 289.127 926.137 289.127C925.154 289.127 924.183 289.127 923.223 289.127ZM919.642 284.493C920.766 284.493 921.667 284.083 922.346 283.264C923.024 282.445 923.364 281.368 923.364 280.034C923.364 278.7 923.024 277.635 922.346 276.839C921.667 276.02 920.766 275.61 919.642 275.61C918.495 275.61 917.582 276.008 916.904 276.804C916.248 277.6 915.921 278.676 915.921 280.034C915.921 281.391 916.248 282.48 916.904 283.299C917.582 284.095 918.495 284.493 919.642 284.493ZM934.778 289.127C934.778 286.974 934.778 284.809 934.778 282.632C934.778 280.455 934.778 278.302 934.778 276.172C934.31 276.172 933.83 276.172 933.339 276.172C932.871 276.172 932.403 276.172 931.935 276.172C931.935 275.306 931.935 274.44 931.935 273.574C931.935 272.708 931.935 271.842 931.935 270.976C932.403 270.976 932.871 270.976 933.339 270.976C933.83 270.976 934.31 270.976 934.778 270.976C934.778 270.156 934.778 269.349 934.778 268.553C934.778 267.734 934.778 266.926 934.778 266.13C935.738 266.13 936.709 266.13 937.693 266.13C938.676 266.13 939.635 266.13 940.572 266.13C940.572 266.926 940.572 267.734 940.572 268.553C940.572 269.349 940.572 270.156 940.572 270.976C941.11 270.976 941.66 270.976 942.222 270.976C942.783 270.976 943.333 270.976 943.872 270.976C943.872 271.842 943.872 272.708 943.872 273.574C943.872 274.44 943.872 275.306 943.872 276.172C943.333 276.172 942.783 276.172 942.222 276.172C941.66 276.172 941.11 276.172 940.572 276.172C940.572 278.302 940.572 280.455 940.572 282.632C940.572 284.809 940.572 286.974 940.572 289.127C939.635 289.127 938.676 289.127 937.693 289.127C936.709 289.127 935.738 289.127 934.778 289.127ZM949.755 268.904C949.077 268.904 948.456 268.74 947.895 268.413C947.356 268.085 946.923 267.652 946.596 267.114C946.268 266.575 946.104 265.978 946.104 265.323C946.104 264.668 946.268 264.082 946.596 263.567C946.923 263.029 947.356 262.596 947.895 262.268C948.456 261.941 949.077 261.777 949.755 261.777C950.411 261.777 951.008 261.941 951.546 262.268C952.108 262.596 952.552 263.029 952.88 263.567C953.208 264.082 953.372 264.668 953.372 265.323C953.372 265.978 953.208 266.575 952.88 267.114C952.552 267.652 952.108 268.085 951.546 268.413C951.008 268.74 950.411 268.904 949.755 268.904ZM946.841 289.127C946.841 286.131 946.841 283.112 946.841 280.069C946.841 277.003 946.841 273.972 946.841 270.976C947.801 270.976 948.772 270.976 949.755 270.976C950.738 270.976 951.698 270.976 952.634 270.976C952.634 273.972 952.634 277.003 952.634 280.069C952.634 283.112 952.634 286.131 952.634 289.127C951.698 289.127 950.738 289.127 949.755 289.127C948.772 289.127 947.801 289.127 946.841 289.127ZM960.855 289.127C959.826 286.131 958.772 283.112 957.696 280.069C956.642 277.003 955.601 273.972 954.571 270.976C955.577 270.976 956.584 270.976 957.59 270.976C958.62 270.976 959.638 270.976 960.645 270.976C961.253 272.825 961.862 274.685 962.471 276.558C963.103 278.407 963.711 280.256 964.296 282.105C964.905 280.256 965.513 278.407 966.122 276.558C966.73 274.685 967.327 272.825 967.913 270.976C968.896 270.976 969.89 270.976 970.897 270.976C971.903 270.976 972.898 270.976 973.881 270.976C972.851 273.972 971.798 277.003 970.721 280.069C969.668 283.112 968.626 286.131 967.597 289.127C966.496 289.127 965.373 289.127 964.226 289.127C963.079 289.127 961.956 289.127 960.855 289.127ZM990.919 288.285C989.304 288.963 987.701 289.385 986.109 289.549C984.517 289.712 983.008 289.619 981.58 289.268C980.175 288.94 978.923 288.366 977.823 287.547C976.723 286.728 975.857 285.686 975.225 284.423C974.616 283.159 974.312 281.696 974.312 280.034C974.312 278.653 974.534 277.389 974.979 276.242C975.447 275.072 976.103 274.054 976.945 273.187C977.788 272.298 978.783 271.619 979.93 271.151C981.077 270.66 982.329 270.414 983.686 270.414C984.903 270.414 986.004 270.613 986.987 271.011C987.97 271.409 988.824 271.97 989.55 272.696C990.275 273.398 990.86 274.241 991.305 275.224C991.75 276.207 992.031 277.284 992.148 278.454C992.265 279.624 992.195 280.865 991.937 282.176C990.018 282.176 988.087 282.176 986.144 282.176C984.201 282.176 982.27 282.176 980.351 282.176C980.796 283.065 981.533 283.697 982.563 284.071C983.616 284.446 984.857 284.563 986.284 284.423C987.736 284.282 989.28 283.908 990.919 283.299C990.919 284.118 990.919 284.949 990.919 285.792C990.919 286.634 990.919 287.465 990.919 288.285ZM983.546 275.61C982.867 275.61 982.235 275.797 981.65 276.172C981.088 276.546 980.655 277.12 980.351 277.892C981.404 277.892 982.457 277.892 983.511 277.892C984.587 277.892 985.652 277.892 986.706 277.892C986.425 277.096 986.004 276.523 985.442 276.172C984.903 275.797 984.271 275.61 983.546 275.61Z" fill="#888888"/>
<path d="M660.147 351.666C659.141 351.666 658.123 351.666 657.093 351.666C656.063 351.666 655.033 351.666 654.003 351.666C654.003 347.734 654.003 343.755 654.003 339.729C654.003 335.703 654.003 331.724 654.003 327.792C655.033 327.792 656.063 327.792 657.093 327.792C658.123 327.792 659.141 327.792 660.147 327.792C660.147 329.219 660.147 330.659 660.147 332.11C660.147 333.538 660.147 334.966 660.147 336.393C661.388 336.393 662.64 336.393 663.904 336.393C665.168 336.393 666.408 336.393 667.626 336.393C667.626 334.966 667.626 333.538 667.626 332.11C667.626 330.659 667.626 329.219 667.626 327.792C668.655 327.792 669.685 327.792 670.715 327.792C671.745 327.792 672.763 327.792 673.77 327.792C673.77 331.724 673.77 335.703 673.77 339.729C673.77 343.755 673.77 347.734 673.77 351.666C672.763 351.666 671.745 351.666 670.715 351.666C669.685 351.666 668.655 351.666 667.626 351.666C667.626 350.074 667.626 348.471 667.626 346.856C667.626 345.218 667.626 343.614 667.626 342.046C666.408 342.046 665.168 342.046 663.904 342.046C662.64 342.046 661.388 342.046 660.147 342.046C660.147 343.614 660.147 345.218 660.147 346.856C660.147 348.471 660.147 350.074 660.147 351.666ZM693.619 350.823C692.004 351.502 690.401 351.923 688.809 352.087C687.218 352.251 685.708 352.158 684.28 351.806C682.876 351.479 681.623 350.905 680.523 350.086C679.423 349.267 678.557 348.225 677.925 346.961C677.317 345.697 677.012 344.234 677.012 342.573C677.012 341.192 677.235 339.928 677.68 338.781C678.148 337.61 678.803 336.592 679.646 335.726C680.488 334.837 681.483 334.158 682.63 333.69C683.777 333.198 685.029 332.953 686.387 332.953C687.604 332.953 688.704 333.152 689.687 333.549C690.67 333.947 691.524 334.509 692.25 335.235C692.976 335.937 693.561 336.78 694.005 337.763C694.45 338.746 694.731 339.822 694.848 340.993C694.965 342.163 694.895 343.404 694.637 344.714C692.718 344.714 690.787 344.714 688.844 344.714C686.902 344.714 684.971 344.714 683.051 344.714C683.496 345.604 684.233 346.236 685.263 346.61C686.316 346.985 687.557 347.102 688.985 346.961C690.436 346.821 691.981 346.446 693.619 345.838C693.619 346.657 693.619 347.488 693.619 348.331C693.619 349.173 693.619 350.004 693.619 350.823ZM686.246 338.149C685.567 338.149 684.935 338.336 684.35 338.711C683.789 339.085 683.356 339.659 683.051 340.431C684.105 340.431 685.158 340.431 686.211 340.431C687.288 340.431 688.353 340.431 689.406 340.431C689.125 339.635 688.704 339.062 688.142 338.711C687.604 338.336 686.972 338.149 686.246 338.149ZM710.029 351.666C710.029 351.479 710.029 351.303 710.029 351.139C710.029 350.952 710.029 350.777 710.029 350.613C709.444 351.104 708.777 351.479 708.028 351.736C707.302 352.017 706.518 352.158 705.675 352.158C704.482 352.158 703.358 351.935 702.305 351.49C701.251 351.022 700.315 350.367 699.496 349.524C698.7 348.658 698.068 347.64 697.6 346.47C697.155 345.299 696.933 344 696.933 342.573C696.933 341.121 697.155 339.811 697.6 338.64C698.068 337.47 698.7 336.475 699.496 335.656C700.315 334.813 701.251 334.17 702.305 333.725C703.358 333.257 704.47 333.023 705.64 333.023C706.483 333.023 707.279 333.163 708.028 333.444C708.777 333.702 709.444 334.064 710.029 334.533C710.029 334.345 710.029 334.17 710.029 334.006C710.029 333.842 710.029 333.678 710.029 333.514C710.989 333.514 711.96 333.514 712.943 333.514C713.926 333.514 714.886 333.514 715.822 333.514C715.822 336.51 715.822 339.542 715.822 342.608C715.822 345.651 715.822 348.67 715.822 351.666C714.886 351.666 713.926 351.666 712.943 351.666C711.96 351.666 710.989 351.666 710.029 351.666ZM706.448 347.032C707.571 347.032 708.472 346.622 709.151 345.803C709.83 344.983 710.169 343.907 710.169 342.573C710.169 341.238 709.83 340.173 709.151 339.378C708.472 338.558 707.571 338.149 706.448 338.149C705.301 338.149 704.388 338.547 703.709 339.343C703.054 340.138 702.726 341.215 702.726 342.573C702.726 343.93 703.054 345.019 703.709 345.838C704.388 346.634 705.301 347.032 706.448 347.032ZM719.864 351.666C719.864 347.429 719.864 343.158 719.864 338.851C719.864 334.544 719.864 330.273 719.864 326.036C720.823 326.036 721.795 326.036 722.778 326.036C723.761 326.036 724.72 326.036 725.657 326.036C725.657 330.273 725.657 334.544 725.657 338.851C725.657 343.158 725.657 347.429 725.657 351.666C724.72 351.666 723.761 351.666 722.778 351.666C721.795 351.666 720.823 351.666 719.864 351.666ZM732.789 331.443C732.111 331.443 731.49 331.279 730.929 330.951C730.39 330.624 729.957 330.191 729.63 329.652C729.302 329.114 729.138 328.517 729.138 327.862C729.138 327.206 729.302 326.621 729.63 326.106C729.957 325.568 730.39 325.135 730.929 324.807C731.49 324.48 732.111 324.316 732.789 324.316C733.445 324.316 734.042 324.48 734.58 324.807C735.142 325.135 735.586 325.568 735.914 326.106C736.242 326.621 736.406 327.206 736.406 327.862C736.406 328.517 736.242 329.114 735.914 329.652C735.586 330.191 735.142 330.624 734.58 330.951C734.042 331.279 733.445 331.443 732.789 331.443ZM729.875 351.666C729.875 348.67 729.875 345.651 729.875 342.608C729.875 339.542 729.875 336.51 729.875 333.514C730.835 333.514 731.806 333.514 732.789 333.514C733.772 333.514 734.732 333.514 735.668 333.514C735.668 336.51 735.668 339.542 735.668 342.608C735.668 345.651 735.668 348.67 735.668 351.666C734.732 351.666 733.772 351.666 732.789 351.666C731.806 351.666 730.835 351.666 729.875 351.666ZM739.711 351.666C739.711 348.67 739.711 345.651 739.711 342.608C739.711 339.542 739.711 336.51 739.711 333.514C740.671 333.514 741.643 333.514 742.626 333.514C743.609 333.514 744.568 333.514 745.505 333.514C745.505 333.678 745.505 333.83 745.505 333.971C745.505 334.111 745.505 334.263 745.505 334.427C746.137 333.983 746.839 333.643 747.611 333.409C748.407 333.152 749.261 333.023 750.174 333.023C751.508 333.023 752.679 333.327 753.685 333.936C754.715 334.544 755.511 335.422 756.073 336.569C756.658 337.692 756.95 339.05 756.95 340.642C756.95 342.467 756.95 344.305 756.95 346.154C756.95 348.003 756.95 349.84 756.95 351.666C756.014 351.666 755.054 351.666 754.071 351.666C753.088 351.666 752.117 351.666 751.157 351.666C751.157 349.981 751.157 348.272 751.157 346.54C751.157 344.808 751.157 343.099 751.157 341.414C751.157 340.478 750.935 339.729 750.49 339.167C750.069 338.582 749.39 338.289 748.454 338.289C747.518 338.289 746.792 338.558 746.277 339.097C745.762 339.635 745.505 340.408 745.505 341.414C745.505 343.099 745.505 344.808 745.505 346.54C745.505 348.272 745.505 349.981 745.505 351.666C744.568 351.666 743.609 351.666 742.626 351.666C741.643 351.666 740.671 351.666 739.711 351.666ZM777.587 348.717C777.587 350.706 777.154 352.368 776.288 353.702C775.445 355.037 774.286 356.031 772.812 356.687C771.337 357.365 769.652 357.717 767.756 357.74C765.884 357.763 763.906 357.482 761.823 356.897C761.823 355.984 761.823 355.06 761.823 354.124C761.823 353.211 761.823 352.298 761.823 351.385C763.672 352.111 765.345 352.474 766.843 352.474C768.341 352.497 769.523 352.216 770.389 351.631C771.279 351.022 771.723 350.191 771.723 349.138C771.723 349.021 771.723 348.916 771.723 348.822C771.723 348.705 771.723 348.6 771.723 348.506C771.138 348.951 770.459 349.302 769.687 349.559C768.915 349.817 768.084 349.946 767.194 349.946C765.72 349.946 764.397 349.606 763.227 348.927C762.08 348.225 761.179 347.266 760.523 346.048C759.868 344.808 759.54 343.368 759.54 341.73C759.54 340.466 759.751 339.307 760.172 338.254C760.594 337.201 761.179 336.288 761.928 335.516C762.677 334.743 763.531 334.158 764.491 333.76C765.451 333.339 766.457 333.128 767.51 333.128C768.353 333.128 769.137 333.245 769.863 333.479C770.588 333.713 771.232 334.029 771.794 334.427C771.794 334.263 771.794 334.111 771.794 333.971C771.794 333.83 771.794 333.678 771.794 333.514C772.753 333.514 773.725 333.514 774.708 333.514C775.691 333.514 776.65 333.514 777.587 333.514C777.587 336.019 777.587 338.558 777.587 341.133C777.587 343.684 777.587 346.212 777.587 348.717ZM768.634 344.925C769.617 344.925 770.401 344.621 770.986 344.012C771.595 343.38 771.899 342.573 771.899 341.59C771.899 340.583 771.595 339.764 770.986 339.132C770.401 338.5 769.617 338.184 768.634 338.184C767.604 338.184 766.785 338.5 766.176 339.132C765.568 339.74 765.263 340.56 765.263 341.59C765.263 342.596 765.568 343.404 766.176 344.012C766.785 344.621 767.604 344.925 768.634 344.925Z" fill="#888888"/>
<path d="M658.181 412.011C658.181 408.991 658.181 405.948 658.181 402.882C658.181 399.793 658.181 396.738 658.181 393.719C657.292 393.719 656.391 393.719 655.478 393.719C654.565 393.719 653.664 393.719 652.774 393.719C652.774 392.806 652.774 391.881 652.774 390.945C652.774 389.985 652.774 389.049 652.774 388.136C655.56 388.136 658.38 388.136 661.236 388.136C664.091 388.136 666.912 388.136 669.697 388.136C669.697 389.049 669.697 389.985 669.697 390.945C669.697 391.881 669.697 392.806 669.697 393.719C668.831 393.719 667.942 393.719 667.029 393.719C666.116 393.719 665.215 393.719 664.325 393.719C664.325 396.738 664.325 399.793 664.325 402.882C664.325 405.948 664.325 408.991 664.325 412.011C663.319 412.011 662.301 412.011 661.271 412.011C660.241 412.011 659.211 412.011 658.181 412.011ZM686.213 411.168C684.598 411.847 682.995 412.268 681.403 412.432C679.812 412.596 678.302 412.502 676.874 412.151C675.47 411.823 674.218 411.25 673.117 410.431C672.017 409.612 671.151 408.57 670.519 407.306C669.911 406.042 669.607 404.579 669.607 402.917C669.607 401.536 669.829 400.272 670.274 399.126C670.742 397.955 671.397 396.937 672.24 396.071C673.082 395.182 674.077 394.503 675.224 394.035C676.371 393.543 677.623 393.297 678.981 393.297C680.198 393.297 681.298 393.496 682.281 393.894C683.264 394.292 684.118 394.854 684.844 395.579C685.57 396.282 686.155 397.124 686.6 398.107C687.044 399.09 687.325 400.167 687.442 401.337C687.559 402.508 687.489 403.748 687.232 405.059C685.312 405.059 683.381 405.059 681.438 405.059C679.496 405.059 677.565 405.059 675.645 405.059C676.09 405.948 676.827 406.58 677.857 406.955C678.911 407.329 680.151 407.447 681.579 407.306C683.03 407.166 684.575 406.791 686.213 406.183C686.213 407.002 686.213 407.833 686.213 408.675C686.213 409.518 686.213 410.349 686.213 411.168ZM678.84 398.494C678.162 398.494 677.53 398.681 676.944 399.055C676.383 399.43 675.95 400.003 675.645 400.776C676.699 400.776 677.752 400.776 678.805 400.776C679.882 400.776 680.947 400.776 682 400.776C681.719 399.98 681.298 399.406 680.736 399.055C680.198 398.681 679.566 398.494 678.84 398.494ZM690.51 412.011C690.51 409.015 690.51 405.995 690.51 402.952C690.51 399.886 690.51 396.855 690.51 393.859C691.47 393.859 692.441 393.859 693.424 393.859C694.407 393.859 695.367 393.859 696.303 393.859C696.303 394.023 696.303 394.175 696.303 394.316C696.303 394.456 696.303 394.608 696.303 394.772C696.935 394.327 697.637 393.988 698.41 393.754C699.206 393.496 700.06 393.368 700.973 393.368C702.307 393.368 703.477 393.672 704.484 394.28C705.514 394.889 706.309 395.767 706.871 396.914C707.456 398.037 707.749 399.395 707.749 400.986C707.749 402.812 707.749 404.649 707.749 406.499C707.749 408.348 707.749 410.185 707.749 412.011C706.813 412.011 705.853 412.011 704.87 412.011C703.887 412.011 702.916 412.011 701.956 412.011C701.956 410.325 701.956 408.617 701.956 406.885C701.956 405.153 701.956 403.444 701.956 401.759C701.956 400.823 701.733 400.073 701.289 399.512C700.867 398.927 700.189 398.634 699.252 398.634C698.316 398.634 697.591 398.903 697.076 399.442C696.561 399.98 696.303 400.752 696.303 401.759C696.303 403.444 696.303 405.153 696.303 406.885C696.303 408.617 696.303 410.325 696.303 412.011C695.367 412.011 694.407 412.011 693.424 412.011C692.441 412.011 691.47 412.011 690.51 412.011ZM723.435 412.011C723.435 411.823 723.435 411.648 723.435 411.484C723.435 411.297 723.435 411.121 723.435 410.957C722.85 411.449 722.183 411.823 721.434 412.081C720.708 412.362 719.924 412.502 719.081 412.502C717.888 412.502 716.764 412.268 715.711 411.8C714.658 411.332 713.721 410.677 712.902 409.834C712.106 408.968 711.474 407.95 711.006 406.779C710.561 405.609 710.339 404.322 710.339 402.917C710.339 401.49 710.561 400.191 711.006 399.02C711.474 397.85 712.106 396.843 712.902 396.001C713.721 395.158 714.658 394.514 715.711 394.07C716.764 393.602 717.876 393.368 719.046 393.368C719.889 393.368 720.685 393.508 721.434 393.789C722.183 394.046 722.85 394.409 723.435 394.877C723.435 393.473 723.435 392.057 723.435 390.629C723.435 389.201 723.435 387.785 723.435 386.381C724.395 386.381 725.366 386.381 726.349 386.381C727.332 386.381 728.292 386.381 729.228 386.381C729.228 390.617 729.228 394.889 729.228 399.196C729.228 403.503 729.228 407.774 729.228 412.011C728.292 412.011 727.332 412.011 726.349 412.011C725.366 412.011 724.395 412.011 723.435 412.011ZM719.854 407.376C720.977 407.376 721.878 406.967 722.557 406.147C723.236 405.328 723.575 404.252 723.575 402.917C723.575 401.583 723.236 400.518 722.557 399.722C721.878 398.903 720.977 398.494 719.854 398.494C718.707 398.494 717.794 398.891 717.115 399.687C716.46 400.483 716.132 401.56 716.132 402.917C716.132 404.275 716.46 405.363 717.115 406.183C717.794 406.978 718.707 407.376 719.854 407.376ZM748.889 411.168C747.274 411.847 745.671 412.268 744.079 412.432C742.488 412.596 740.978 412.502 739.55 412.151C738.146 411.823 736.894 411.25 735.793 410.431C734.693 409.612 733.827 408.57 733.195 407.306C732.587 406.042 732.283 404.579 732.283 402.917C732.283 401.536 732.505 400.272 732.95 399.126C733.418 397.955 734.073 396.937 734.916 396.071C735.758 395.182 736.753 394.503 737.9 394.035C739.047 393.543 740.299 393.297 741.657 393.297C742.874 393.297 743.974 393.496 744.957 393.894C745.94 394.292 746.794 394.854 747.52 395.579C748.246 396.282 748.831 397.124 749.276 398.107C749.72 399.09 750.001 400.167 750.118 401.337C750.235 402.508 750.165 403.748 749.908 405.059C747.988 405.059 746.057 405.059 744.114 405.059C742.172 405.059 740.241 405.059 738.321 405.059C738.766 405.948 739.503 406.58 740.533 406.955C741.587 407.329 742.827 407.447 744.255 407.306C745.706 407.166 747.251 406.791 748.889 406.183C748.889 407.002 748.889 407.833 748.889 408.675C748.889 409.518 748.889 410.349 748.889 411.168ZM741.516 398.494C740.838 398.494 740.206 398.681 739.62 399.055C739.059 399.43 738.626 400.003 738.321 400.776C739.375 400.776 740.428 400.776 741.481 400.776C742.558 400.776 743.623 400.776 744.676 400.776C744.395 399.98 743.974 399.406 743.412 399.055C742.874 398.681 742.242 398.494 741.516 398.494ZM753.186 412.011C753.186 409.015 753.186 405.995 753.186 402.952C753.186 399.886 753.186 396.855 753.186 393.859C754.146 393.859 755.117 393.859 756.1 393.859C757.083 393.859 758.043 393.859 758.979 393.859C758.979 394.023 758.979 394.187 758.979 394.351C758.979 394.514 758.979 394.678 758.979 394.842C759.705 394.327 760.524 393.941 761.437 393.684C762.35 393.426 763.345 393.356 764.421 393.473C764.421 394.409 764.421 395.357 764.421 396.317C764.421 397.276 764.421 398.224 764.421 399.161C762.572 398.903 761.203 399.067 760.313 399.652C759.424 400.214 758.979 401.138 758.979 402.426C758.979 403.994 758.979 405.586 758.979 407.201C758.979 408.816 758.979 410.419 758.979 412.011C758.043 412.011 757.083 412.011 756.1 412.011C755.117 412.011 754.146 412.011 753.186 412.011ZM791.929 404.954C791.929 406.522 791.531 407.88 790.736 409.026C789.963 410.173 788.886 411.063 787.505 411.695C786.124 412.303 784.521 412.608 782.695 412.608C780.987 412.608 779.465 412.338 778.131 411.8C776.82 411.238 775.779 410.443 775.006 409.413C774.257 408.359 773.883 407.119 773.883 405.691C773.883 404.521 774.14 403.444 774.655 402.461C775.194 401.478 776.001 400.635 777.078 399.933C776.212 399.278 775.568 398.517 775.147 397.651C774.749 396.761 774.55 395.79 774.55 394.737C774.55 393.192 774.96 391.905 775.779 390.875C776.621 389.845 777.745 389.073 779.149 388.558C780.554 388.043 782.11 387.773 783.819 387.75C785.528 387.703 787.26 387.902 789.015 388.347C789.015 389.283 789.015 390.231 789.015 391.191C789.015 392.15 789.015 393.11 789.015 394.07C788.032 393.789 787.037 393.59 786.031 393.473C785.048 393.356 784.147 393.344 783.327 393.438C782.508 393.531 781.841 393.73 781.326 394.035C780.835 394.339 780.589 394.772 780.589 395.334C780.589 396.059 781.08 396.563 782.063 396.843C783.047 397.101 784.404 397.23 786.136 397.23C786.136 396.808 786.136 396.387 786.136 395.966C786.136 395.521 786.136 395.088 786.136 394.667C787.096 394.667 788.067 394.667 789.05 394.667C790.033 394.667 790.993 394.667 791.929 394.667C791.929 395.088 791.929 395.521 791.929 395.966C791.929 396.387 791.929 396.808 791.929 397.23C792.28 397.23 792.643 397.23 793.018 397.23C793.392 397.23 793.755 397.23 794.106 397.23C794.106 398.096 794.106 398.962 794.106 399.828C794.106 400.694 794.106 401.56 794.106 402.426C793.755 402.426 793.392 402.426 793.018 402.426C792.643 402.426 792.28 402.426 791.929 402.426C791.929 402.847 791.929 403.268 791.929 403.69C791.929 404.111 791.929 404.532 791.929 404.954ZM780.027 404.813C780.027 405.492 780.273 406.066 780.764 406.534C781.279 406.978 781.993 407.201 782.906 407.201C783.889 407.201 784.673 406.967 785.258 406.499C785.844 406.007 786.136 405.328 786.136 404.462C786.136 404.135 786.136 403.795 786.136 403.444C786.136 403.093 786.136 402.754 786.136 402.426C784.217 402.426 782.719 402.566 781.642 402.847C780.565 403.128 780.027 403.783 780.027 404.813ZM807.72 412.011C806.807 409.015 805.882 405.995 804.946 402.952C804.033 399.886 803.12 396.855 802.208 393.859C803.167 393.859 804.139 393.859 805.122 393.859C806.128 393.859 807.111 393.859 808.071 393.859C808.539 395.498 809.007 397.159 809.475 398.845C809.967 400.507 810.435 402.157 810.88 403.795C811.278 402.157 811.675 400.507 812.073 398.845C812.495 397.159 812.893 395.498 813.267 393.859C814.086 393.859 814.906 393.859 815.725 393.859C816.567 393.859 817.398 393.859 818.218 393.859C818.615 395.498 819.013 397.171 819.411 398.88C819.833 400.565 820.23 402.239 820.605 403.9C821.073 402.239 821.541 400.565 822.009 398.88C822.501 397.171 822.969 395.498 823.414 393.859C824.373 393.859 825.333 393.859 826.293 393.859C827.276 393.859 828.235 393.859 829.172 393.859C828.259 396.855 827.334 399.886 826.398 402.952C825.485 405.995 824.572 409.015 823.659 412.011C822.723 412.011 821.775 412.011 820.816 412.011C819.856 412.011 818.908 412.011 817.972 412.011C817.597 410.56 817.211 409.097 816.813 407.622C816.439 406.147 816.064 404.696 815.69 403.268C815.315 404.696 814.929 406.147 814.531 407.622C814.157 409.097 813.782 410.56 813.408 412.011C812.471 412.011 811.523 412.011 810.564 412.011C809.604 412.011 808.656 412.011 807.72 412.011ZM834.312 391.788C833.633 391.788 833.013 391.624 832.451 391.296C831.913 390.968 831.48 390.535 831.152 389.997C830.825 389.459 830.661 388.862 830.661 388.206C830.661 387.551 830.825 386.966 831.152 386.451C831.48 385.913 831.913 385.48 832.451 385.152C833.013 384.824 833.633 384.66 834.312 384.66C834.968 384.66 835.564 384.824 836.103 385.152C836.665 385.48 837.109 385.913 837.437 386.451C837.765 386.966 837.929 387.551 837.929 388.206C837.929 388.862 837.765 389.459 837.437 389.997C837.109 390.535 836.665 390.968 836.103 391.296C835.564 391.624 834.968 391.788 834.312 391.788ZM831.398 412.011C831.398 409.015 831.398 405.995 831.398 402.952C831.398 399.886 831.398 396.855 831.398 393.859C832.358 393.859 833.329 393.859 834.312 393.859C835.295 393.859 836.255 393.859 837.191 393.859C837.191 396.855 837.191 399.886 837.191 402.952C837.191 405.995 837.191 409.015 837.191 412.011C836.255 412.011 835.295 412.011 834.312 412.011C833.329 412.011 832.358 412.011 831.398 412.011ZM855.103 406.393C855.103 407.844 854.693 409.038 853.874 409.974C853.078 410.887 852.001 411.554 850.644 411.976C849.286 412.397 847.765 412.572 846.079 412.502C844.418 412.455 842.721 412.186 840.989 411.695C840.989 410.805 840.989 409.892 840.989 408.956C840.989 408.02 840.989 407.107 840.989 406.218C841.972 406.662 842.955 407.013 843.938 407.271C844.921 407.505 845.81 407.645 846.606 407.692C847.402 407.739 848.046 407.681 848.537 407.517C849.029 407.329 849.274 407.025 849.274 406.604C849.274 406.276 849.064 406.019 848.642 405.831C848.244 405.644 847.718 405.48 847.062 405.34C846.407 405.176 845.705 404.989 844.956 404.778C844.23 404.544 843.54 404.228 842.884 403.83C842.229 403.409 841.691 402.859 841.269 402.18C840.871 401.478 840.673 400.577 840.673 399.477C840.673 398.166 841.047 397.054 841.796 396.141C842.568 395.205 843.598 394.503 844.886 394.035C846.173 393.543 847.613 393.297 849.204 393.297C850.796 393.297 852.423 393.567 854.084 394.105C854.084 394.994 854.084 395.907 854.084 396.843C854.084 397.78 854.084 398.693 854.084 399.582C852.774 398.95 851.545 398.529 850.398 398.318C849.251 398.107 848.326 398.084 847.624 398.248C846.922 398.388 846.571 398.704 846.571 399.196C846.571 399.523 846.77 399.781 847.168 399.968C847.589 400.132 848.116 400.284 848.748 400.425C849.403 400.565 850.094 400.752 850.819 400.986C851.568 401.22 852.259 401.548 852.891 401.969C853.546 402.367 854.073 402.929 854.471 403.655C854.892 404.357 855.103 405.27 855.103 406.393ZM859.794 412.011C859.794 409.857 859.794 407.692 859.794 405.515C859.794 403.339 859.794 401.185 859.794 399.055C859.325 399.055 858.846 399.055 858.354 399.055C857.886 399.055 857.418 399.055 856.95 399.055C856.95 398.189 856.95 397.323 856.95 396.457C856.95 395.591 856.95 394.725 856.95 393.859C857.418 393.859 857.886 393.859 858.354 393.859C858.846 393.859 859.325 393.859 859.794 393.859C859.794 393.04 859.794 392.232 859.794 391.437C859.794 390.617 859.794 389.81 859.794 389.014C860.753 389.014 861.725 389.014 862.708 389.014C863.691 389.014 864.65 389.014 865.587 389.014C865.587 389.81 865.587 390.617 865.587 391.437C865.587 392.232 865.587 393.04 865.587 393.859C866.125 393.859 866.675 393.859 867.237 393.859C867.798 393.859 868.349 393.859 868.887 393.859C868.887 394.725 868.887 395.591 868.887 396.457C868.887 397.323 868.887 398.189 868.887 399.055C868.349 399.055 867.798 399.055 867.237 399.055C866.675 399.055 866.125 399.055 865.587 399.055C865.587 401.185 865.587 403.339 865.587 405.515C865.587 407.692 865.587 409.857 865.587 412.011C864.65 412.011 863.691 412.011 862.708 412.011C861.725 412.011 860.753 412.011 859.794 412.011ZM870.733 399.055C870.733 398.189 870.733 397.323 870.733 396.457C870.733 395.591 870.733 394.725 870.733 393.859C871.201 393.859 871.669 393.859 872.137 393.859C872.629 393.859 873.109 393.859 873.577 393.859C873.577 393.742 873.577 393.637 873.577 393.543C873.577 393.449 873.577 393.356 873.577 393.262C873.577 391.694 873.893 390.383 874.525 389.33C875.18 388.253 876.034 387.434 877.088 386.872C878.164 386.287 879.335 385.959 880.599 385.889C881.886 385.796 883.162 385.959 884.426 386.381C884.426 387.247 884.426 388.136 884.426 389.049C884.426 389.962 884.426 390.863 884.426 391.753C883.021 391.284 881.827 391.191 880.844 391.472C879.861 391.753 879.37 392.361 879.37 393.297C879.37 393.391 879.37 393.485 879.37 393.578C879.37 393.672 879.37 393.765 879.37 393.859C880.095 393.859 880.821 393.859 881.547 393.859C882.272 393.859 882.998 393.859 883.723 393.859C883.723 394.725 883.723 395.591 883.723 396.457C883.723 397.323 883.723 398.189 883.723 399.055C882.998 399.055 882.272 399.055 881.547 399.055C880.821 399.055 880.095 399.055 879.37 399.055C879.37 401.185 879.37 403.339 879.37 405.515C879.37 407.692 879.37 409.857 879.37 412.011C878.434 412.011 877.474 412.011 876.491 412.011C875.508 412.011 874.536 412.011 873.577 412.011C873.577 409.857 873.577 407.692 873.577 405.515C873.577 403.339 873.577 401.185 873.577 399.055C873.109 399.055 872.629 399.055 872.137 399.055C871.669 399.055 871.201 399.055 870.733 399.055ZM903.656 393.859C903.656 396.855 903.656 399.886 903.656 402.952C903.656 405.995 903.656 409.015 903.656 412.011C902.72 412.011 901.76 412.011 900.777 412.011C899.794 412.011 898.823 412.011 897.863 412.011C897.863 411.847 897.863 411.695 897.863 411.554C897.863 411.414 897.863 411.262 897.863 411.098C897.231 411.543 896.517 411.882 895.722 412.116C894.949 412.374 894.107 412.502 893.194 412.502C891.86 412.502 890.677 412.198 889.648 411.589C888.641 410.981 887.845 410.103 887.26 408.956C886.698 407.809 886.418 406.452 886.418 404.884C886.418 403.058 886.418 401.22 886.418 399.371C886.418 397.522 886.418 395.685 886.418 393.859C887.377 393.859 888.349 393.859 889.332 393.859C890.315 393.859 891.274 393.859 892.211 393.859C892.211 395.544 892.211 397.253 892.211 398.985C892.211 400.717 892.211 402.426 892.211 404.111C892.211 405.047 892.421 405.808 892.843 406.393C893.287 406.955 893.978 407.236 894.914 407.236C895.85 407.236 896.576 406.967 897.091 406.428C897.606 405.89 897.863 405.118 897.863 404.111C897.863 402.426 897.863 400.717 897.863 398.985C897.863 397.253 897.863 395.544 897.863 393.859C898.823 393.859 899.794 393.859 900.777 393.859C901.76 393.859 902.72 393.859 903.656 393.859ZM907.686 412.011C907.686 407.774 907.686 403.503 907.686 399.196C907.686 394.889 907.686 390.617 907.686 386.381C908.646 386.381 909.617 386.381 910.6 386.381C911.583 386.381 912.543 386.381 913.479 386.381C913.479 390.617 913.479 394.889 913.479 399.196C913.479 403.503 913.479 407.774 913.479 412.011C912.543 412.011 911.583 412.011 910.6 412.011C909.617 412.011 908.646 412.011 907.686 412.011Z" fill="#888888"/>
<path d="M652.809 458.224C652.809 456.421 653.09 454.783 653.652 453.308C654.237 451.81 655.056 450.511 656.11 449.411C657.163 448.311 658.427 447.457 659.901 446.848C661.376 446.24 663.003 445.912 664.782 445.865C666.584 445.818 668.503 446.099 670.54 446.708C670.54 447.691 670.54 448.686 670.54 449.692C670.54 450.675 670.54 451.658 670.54 452.641C669.159 451.986 667.789 451.611 666.432 451.518C665.074 451.424 663.845 451.611 662.745 452.079C661.645 452.548 660.768 453.297 660.112 454.326C659.457 455.333 659.129 456.632 659.129 458.224C659.129 459.815 659.457 461.126 660.112 462.156C660.768 463.162 661.645 463.9 662.745 464.368C663.845 464.836 665.074 465.023 666.432 464.93C667.789 464.836 669.159 464.461 670.54 463.806C670.54 464.789 670.54 465.784 670.54 466.79C670.54 467.773 670.54 468.757 670.54 469.74C668.503 470.348 666.584 470.629 664.782 470.582C663.003 470.535 661.376 470.208 659.901 469.599C658.427 468.991 657.163 468.136 656.11 467.036C655.056 465.936 654.237 464.649 653.652 463.174C653.09 461.676 652.809 460.026 652.809 458.224ZM685.994 470.161C685.994 469.974 685.994 469.798 685.994 469.634C685.994 469.447 685.994 469.271 685.994 469.108C685.409 469.599 684.742 469.974 683.993 470.231C683.267 470.512 682.483 470.652 681.64 470.652C680.447 470.652 679.323 470.43 678.27 469.985C677.217 469.517 676.28 468.862 675.461 468.019C674.665 467.153 674.033 466.135 673.565 464.965C673.12 463.794 672.898 462.495 672.898 461.068C672.898 459.616 673.12 458.306 673.565 457.135C674.033 455.965 674.665 454.97 675.461 454.151C676.28 453.308 677.217 452.665 678.27 452.22C679.323 451.752 680.435 451.518 681.605 451.518C682.448 451.518 683.244 451.658 683.993 451.939C684.742 452.197 685.409 452.559 685.994 453.027C685.994 452.84 685.994 452.665 685.994 452.501C685.994 452.337 685.994 452.173 685.994 452.009C686.954 452.009 687.925 452.009 688.908 452.009C689.891 452.009 690.851 452.009 691.787 452.009C691.787 455.005 691.787 458.036 691.787 461.103C691.787 464.145 691.787 467.165 691.787 470.161C690.851 470.161 689.891 470.161 688.908 470.161C687.925 470.161 686.954 470.161 685.994 470.161ZM682.413 465.526C683.536 465.526 684.437 465.117 685.116 464.298C685.795 463.478 686.134 462.402 686.134 461.068C686.134 459.733 685.795 458.668 685.116 457.873C684.437 457.053 683.536 456.644 682.413 456.644C681.266 456.644 680.353 457.042 679.674 457.837C679.019 458.633 678.691 459.71 678.691 461.068C678.691 462.425 679.019 463.513 679.674 464.333C680.353 465.129 681.266 465.526 682.413 465.526ZM695.829 470.161C695.829 465.924 695.829 461.653 695.829 457.346C695.829 453.039 695.829 448.767 695.829 444.531C696.788 444.531 697.76 444.531 698.743 444.531C699.726 444.531 700.685 444.531 701.622 444.531C701.622 448.767 701.622 453.039 701.622 457.346C701.622 461.653 701.622 465.924 701.622 470.161C700.685 470.161 699.726 470.161 698.743 470.161C697.76 470.161 696.788 470.161 695.829 470.161ZM705.665 470.161C705.665 467.165 705.665 464.145 705.665 461.103C705.665 458.036 705.665 455.005 705.665 452.009C706.624 452.009 707.596 452.009 708.579 452.009C709.562 452.009 710.522 452.009 711.458 452.009C711.458 452.173 711.458 452.325 711.458 452.466C711.458 452.606 711.458 452.758 711.458 452.922C712.066 452.477 712.745 452.138 713.494 451.904C714.243 451.646 715.016 451.518 715.811 451.518C716.678 451.518 717.473 451.67 718.199 451.974C718.925 452.255 719.545 452.676 720.06 453.238C720.809 452.7 721.651 452.278 722.588 451.974C723.547 451.67 724.53 451.518 725.537 451.518C726.965 451.518 728.193 451.81 729.223 452.395C730.277 452.981 731.084 453.812 731.646 454.888C732.231 455.965 732.524 457.264 732.524 458.785C732.524 460.658 732.524 462.554 732.524 464.473C732.524 466.392 732.524 468.288 732.524 470.161C731.587 470.161 730.628 470.161 729.645 470.161C728.662 470.161 727.69 470.161 726.731 470.161C726.731 468.405 726.731 466.627 726.731 464.824C726.731 463.022 726.731 461.243 726.731 459.488C726.731 458.692 726.543 458.048 726.169 457.557C725.818 457.042 725.244 456.784 724.448 456.784C723.676 456.784 723.067 457.03 722.623 457.521C722.201 457.99 721.991 458.645 721.991 459.488C721.991 461.243 721.991 463.022 721.991 464.824C721.991 466.627 721.991 468.405 721.991 470.161C721.055 470.161 720.095 470.161 719.112 470.161C718.129 470.161 717.157 470.161 716.198 470.161C716.198 468.405 716.198 466.627 716.198 464.824C716.198 463.022 716.198 461.243 716.198 459.488C716.198 458.692 716.01 458.048 715.636 457.557C715.285 457.042 714.711 456.784 713.916 456.784C713.143 456.784 712.535 457.03 712.09 457.521C711.669 457.99 711.458 458.645 711.458 459.488C711.458 461.243 711.458 463.022 711.458 464.824C711.458 466.627 711.458 468.405 711.458 470.161C710.522 470.161 709.562 470.161 708.579 470.161C707.596 470.161 706.624 470.161 705.665 470.161Z" fill="#888888"/>
</svg>
