<svg width="1156" height="642" viewBox="0 0 1156 642" fill="none" xmlns="http://www.w3.org/2000/svg">
<rect x="2" y="639.844" width="637.844" height="1151.32" rx="39" transform="rotate(-90 2 639.844)" fill="#FBF6F2" stroke="#404040" stroke-width="4"/>
<path d="M663.751 73.7273C664.733 78.122 665.714 82.5806 666.695 87.1033C667.677 91.626 668.637 96.106 669.575 100.543C670.557 96.106 671.538 91.626 672.519 87.1033C673.543 82.5806 674.525 78.122 675.463 73.7273C677.127 73.7273 678.813 73.7273 680.519 73.7273C682.226 73.7273 683.911 73.7273 685.575 73.7273C686.599 78.122 687.623 82.5593 688.647 87.0393C689.671 91.5193 690.695 95.978 691.719 100.415C692.701 95.978 693.661 91.5193 694.599 87.0393C695.581 82.5593 696.541 78.122 697.479 73.7273C699.186 73.7273 700.893 73.7273 702.599 73.7273C704.349 73.7273 706.077 73.7273 707.783 73.7273C706.205 80.8953 704.626 88.1486 703.047 95.4873C701.469 102.826 699.89 110.079 698.311 117.247C696.221 117.247 694.087 117.247 691.911 117.247C689.778 117.247 687.645 117.247 685.511 117.247C684.615 113.279 683.698 109.29 682.759 105.279C681.821 101.226 680.903 97.2153 680.007 93.2473C679.154 97.2153 678.279 101.226 677.383 105.279C676.487 109.29 675.613 113.279 674.759 117.247C672.669 117.247 670.557 117.247 668.423 117.247C666.333 117.247 664.242 117.247 662.151 117.247C660.573 110.079 658.994 102.826 657.415 95.4873C655.837 88.1486 654.258 80.8953 652.679 73.7273C654.514 73.7273 656.349 73.7273 658.183 73.7273C660.061 73.7273 661.917 73.7273 663.751 73.7273ZM738.782 115.711C735.838 116.949 732.915 117.717 730.014 118.015C727.112 118.314 724.36 118.143 721.758 117.503C719.198 116.906 716.915 115.861 714.91 114.367C712.904 112.874 711.326 110.975 710.174 108.671C709.064 106.367 708.51 103.701 708.51 100.671C708.51 98.154 708.915 95.85 709.726 93.7593C710.579 91.626 711.774 89.77 713.31 88.1913C714.846 86.57 716.659 85.3326 718.75 84.4793C720.84 83.5833 723.123 83.1353 725.598 83.1353C727.816 83.1353 729.822 83.498 731.614 84.2233C733.406 84.9486 734.963 85.9726 736.286 87.2953C737.608 88.5753 738.675 90.1113 739.486 91.9033C740.296 93.6953 740.808 95.658 741.022 97.7913C741.235 99.9246 741.107 102.186 740.638 104.575C737.139 104.575 733.619 104.575 730.078 104.575C726.536 104.575 723.016 104.575 719.518 104.575C720.328 106.197 721.672 107.349 723.55 108.031C725.47 108.714 727.731 108.927 730.334 108.671C732.979 108.415 735.795 107.733 738.782 106.623C738.782 108.117 738.782 109.631 738.782 111.167C738.782 112.703 738.782 114.218 738.782 115.711ZM725.342 92.6073C724.104 92.6073 722.952 92.9486 721.886 93.6313C720.862 94.314 720.072 95.3593 719.518 96.7673C721.438 96.7673 723.358 96.7673 725.278 96.7673C727.24 96.7673 729.182 96.7673 731.102 96.7673C730.59 95.3166 729.822 94.2713 728.798 93.6313C727.816 92.9486 726.664 92.6073 725.342 92.6073ZM771.894 107.007C771.894 109.653 771.148 111.829 769.654 113.535C768.204 115.199 766.241 116.415 763.766 117.183C761.292 117.951 758.518 118.271 755.446 118.143C752.417 118.058 749.324 117.567 746.166 116.671C746.166 115.05 746.166 113.386 746.166 111.679C746.166 109.973 746.166 108.309 746.166 106.687C747.958 107.498 749.75 108.138 751.542 108.607C753.334 109.034 754.956 109.29 756.406 109.375C757.857 109.461 759.03 109.354 759.926 109.055C760.822 108.714 761.27 108.159 761.27 107.391C761.27 106.794 760.886 106.325 760.118 105.983C759.393 105.642 758.433 105.343 757.238 105.087C756.044 104.789 754.764 104.447 753.398 104.063C752.076 103.637 750.817 103.061 749.622 102.335C748.428 101.567 747.446 100.565 746.678 99.3273C745.953 98.0473 745.59 96.4046 745.59 94.3993C745.59 92.01 746.273 89.9833 747.638 88.3193C749.046 86.6126 750.924 85.3326 753.27 84.4793C755.617 83.5833 758.241 83.1353 761.142 83.1353C764.044 83.1353 767.009 83.626 770.038 84.6073C770.038 86.2286 770.038 87.8926 770.038 89.5993C770.038 91.306 770.038 92.97 770.038 94.5913C767.649 93.4393 765.409 92.6713 763.318 92.2873C761.228 91.9033 759.542 91.8606 758.262 92.1593C756.982 92.4153 756.342 92.9913 756.342 93.8873C756.342 94.4846 756.705 94.954 757.43 95.2953C758.198 95.594 759.158 95.8713 760.31 96.1273C761.505 96.3833 762.764 96.7246 764.086 97.1513C765.452 97.578 766.71 98.1753 767.862 98.9433C769.057 99.6686 770.017 100.693 770.742 102.015C771.51 103.295 771.894 104.959 771.894 107.007ZM780.445 117.247C780.445 113.322 780.445 109.375 780.445 105.407C780.445 101.439 780.445 97.514 780.445 93.6313C779.592 93.6313 778.717 93.6313 777.821 93.6313C776.968 93.6313 776.115 93.6313 775.261 93.6313C775.261 92.0526 775.261 90.474 775.261 88.8953C775.261 87.3166 775.261 85.738 775.261 84.1593C776.115 84.1593 776.968 84.1593 777.821 84.1593C778.717 84.1593 779.592 84.1593 780.445 84.1593C780.445 82.666 780.445 81.194 780.445 79.7433C780.445 78.25 780.445 76.778 780.445 75.3273C782.195 75.3273 783.965 75.3273 785.757 75.3273C787.549 75.3273 789.299 75.3273 791.005 75.3273C791.005 76.778 791.005 78.25 791.005 79.7433C791.005 81.194 791.005 82.666 791.005 84.1593C791.987 84.1593 792.989 84.1593 794.013 84.1593C795.037 84.1593 796.04 84.1593 797.021 84.1593C797.021 85.738 797.021 87.3166 797.021 88.8953C797.021 90.474 797.021 92.0526 797.021 93.6313C796.04 93.6313 795.037 93.6313 794.013 93.6313C792.989 93.6313 791.987 93.6313 791.005 93.6313C791.005 97.514 791.005 101.439 791.005 105.407C791.005 109.375 791.005 113.322 791.005 117.247C789.299 117.247 787.549 117.247 785.757 117.247C783.965 117.247 782.195 117.247 780.445 117.247ZM830.282 115.711C827.338 116.949 824.415 117.717 821.514 118.015C818.612 118.314 815.86 118.143 813.258 117.503C810.698 116.906 808.415 115.861 806.41 114.367C804.404 112.874 802.826 110.975 801.674 108.671C800.564 106.367 800.01 103.701 800.01 100.671C800.01 98.154 800.415 95.85 801.226 93.7593C802.079 91.626 803.274 89.77 804.81 88.1913C806.346 86.57 808.159 85.3326 810.25 84.4793C812.34 83.5833 814.623 83.1353 817.098 83.1353C819.316 83.1353 821.322 83.498 823.114 84.2233C824.906 84.9486 826.463 85.9726 827.786 87.2953C829.108 88.5753 830.175 90.1113 830.986 91.9033C831.796 93.6953 832.308 95.658 832.522 97.7913C832.735 99.9246 832.607 102.186 832.138 104.575C828.639 104.575 825.119 104.575 821.578 104.575C818.036 104.575 814.516 104.575 811.018 104.575C811.828 106.197 813.172 107.349 815.05 108.031C816.97 108.714 819.231 108.927 821.834 108.671C824.479 108.415 827.295 107.733 830.282 106.623C830.282 108.117 830.282 109.631 830.282 111.167C830.282 112.703 830.282 114.218 830.282 115.711ZM816.842 92.6073C815.604 92.6073 814.452 92.9486 813.386 93.6313C812.362 94.314 811.572 95.3593 811.018 96.7673C812.938 96.7673 814.858 96.7673 816.778 96.7673C818.74 96.7673 820.682 96.7673 822.602 96.7673C822.09 95.3166 821.322 94.2713 820.298 93.6313C819.316 92.9486 818.164 92.6073 816.842 92.6073ZM838.114 117.247C838.114 111.786 838.114 106.282 838.114 100.735C838.114 95.146 838.114 89.6206 838.114 84.1593C839.864 84.1593 841.634 84.1593 843.426 84.1593C845.218 84.1593 846.968 84.1593 848.674 84.1593C848.674 84.458 848.674 84.7566 848.674 85.0553C848.674 85.354 848.674 85.6526 848.674 85.9513C849.997 85.0126 851.49 84.3086 853.154 83.8393C854.818 83.37 856.632 83.242 858.594 83.4553C858.594 85.162 858.594 86.89 858.594 88.6393C858.594 90.3886 858.594 92.1166 858.594 93.8233C855.224 93.354 852.728 93.6526 851.106 94.7193C849.485 95.7433 848.674 97.4286 848.674 99.7753C848.674 102.634 848.674 105.535 848.674 108.479C848.674 111.423 848.674 114.346 848.674 117.247C846.968 117.247 845.218 117.247 843.426 117.247C841.634 117.247 839.864 117.247 838.114 117.247ZM863.364 117.247C863.364 111.786 863.364 106.282 863.364 100.735C863.364 95.146 863.364 89.6206 863.364 84.1593C865.114 84.1593 866.884 84.1593 868.676 84.1593C870.468 84.1593 872.218 84.1593 873.924 84.1593C873.924 84.458 873.924 84.7353 873.924 84.9913C873.924 85.2473 873.924 85.5246 873.924 85.8233C875.076 85.0126 876.356 84.394 877.764 83.9673C879.215 83.498 880.772 83.2633 882.436 83.2633C884.868 83.2633 887.002 83.818 888.836 84.9273C890.714 86.0366 892.164 87.6366 893.188 89.7273C894.255 91.7753 894.788 94.25 894.788 97.1513C894.788 100.479 894.788 103.829 894.788 107.199C894.788 110.57 894.788 113.919 894.788 117.247C893.082 117.247 891.332 117.247 889.54 117.247C887.748 117.247 885.978 117.247 884.228 117.247C884.228 114.175 884.228 111.061 884.228 107.903C884.228 104.746 884.228 101.631 884.228 98.5593C884.228 96.8526 883.823 95.4873 883.012 94.4633C882.244 93.3966 881.007 92.8633 879.3 92.8633C877.594 92.8633 876.271 93.354 875.332 94.3353C874.394 95.3166 873.924 96.7246 873.924 98.5593C873.924 101.631 873.924 104.746 873.924 107.903C873.924 111.061 873.924 114.175 873.924 117.247C872.218 117.247 870.468 117.247 868.676 117.247C866.884 117.247 865.114 117.247 863.364 117.247ZM655.879 187.247C655.879 180.079 655.879 172.826 655.879 165.487C655.879 158.149 655.879 150.895 655.879 143.727C660.189 143.727 664.541 143.727 668.935 143.727C673.33 143.727 677.682 143.727 681.991 143.727C681.991 145.391 681.991 147.077 681.991 148.783C681.991 150.49 681.991 152.175 681.991 153.839C679.517 153.839 677.021 153.839 674.503 153.839C672.029 153.839 669.554 153.839 667.079 153.839C667.079 155.077 667.079 156.357 667.079 157.679C667.079 158.959 667.079 160.218 667.079 161.455C669.341 161.455 671.623 161.455 673.927 161.455C676.231 161.455 678.493 161.455 680.711 161.455C680.711 163.034 680.711 164.634 680.711 166.255C680.711 167.877 680.711 169.498 680.711 171.119C678.493 171.119 676.231 171.119 673.927 171.119C671.623 171.119 669.341 171.119 667.079 171.119C667.079 173.765 667.079 176.453 667.079 179.183C667.079 181.914 667.079 184.602 667.079 187.247C665.245 187.247 663.389 187.247 661.511 187.247C659.634 187.247 657.757 187.247 655.879 187.247ZM693.996 150.383C692.759 150.383 691.628 150.085 690.604 149.487C689.623 148.89 688.834 148.101 688.236 147.119C687.639 146.138 687.34 145.05 687.34 143.855C687.34 142.661 687.639 141.594 688.236 140.655C688.834 139.674 689.623 138.885 690.604 138.287C691.628 137.69 692.759 137.391 693.996 137.391C695.191 137.391 696.279 137.69 697.26 138.287C698.284 138.885 699.095 139.674 699.692 140.655C700.29 141.594 700.588 142.661 700.588 143.855C700.588 145.05 700.29 146.138 699.692 147.119C699.095 148.101 698.284 148.89 697.26 149.487C696.279 150.085 695.191 150.383 693.996 150.383ZM688.684 187.247C688.684 181.786 688.684 176.282 688.684 170.735C688.684 165.146 688.684 159.621 688.684 154.159C690.434 154.159 692.204 154.159 693.996 154.159C695.788 154.159 697.538 154.159 699.244 154.159C699.244 159.621 699.244 165.146 699.244 170.735C699.244 176.282 699.244 181.786 699.244 187.247C697.538 187.247 695.788 187.247 693.996 187.247C692.204 187.247 690.434 187.247 688.684 187.247ZM735.094 185.711C732.15 186.949 729.228 187.717 726.326 188.015C723.425 188.314 720.673 188.143 718.07 187.503C715.51 186.906 713.228 185.861 711.222 184.367C709.217 182.874 707.638 180.975 706.486 178.671C705.377 176.367 704.822 173.701 704.822 170.671C704.822 168.154 705.228 165.85 706.038 163.759C706.892 161.626 708.086 159.77 709.622 158.191C711.158 156.57 712.972 155.333 715.062 154.479C717.153 153.583 719.436 153.135 721.91 153.135C724.129 153.135 726.134 153.498 727.926 154.223C729.718 154.949 731.276 155.973 732.598 157.295C733.921 158.575 734.988 160.111 735.798 161.903C736.609 163.695 737.121 165.658 737.334 167.791C737.548 169.925 737.42 172.186 736.95 174.575C733.452 174.575 729.932 174.575 726.39 174.575C722.849 174.575 719.329 174.575 715.83 174.575C716.641 176.197 717.985 177.349 719.862 178.031C721.782 178.714 724.044 178.927 726.646 178.671C729.292 178.415 732.108 177.733 735.094 176.623C735.094 178.117 735.094 179.631 735.094 181.167C735.094 182.703 735.094 184.218 735.094 185.711ZM721.654 162.607C720.417 162.607 719.265 162.949 718.198 163.631C717.174 164.314 716.385 165.359 715.83 166.767C717.75 166.767 719.67 166.767 721.59 166.767C723.553 166.767 725.494 166.767 727.414 166.767C726.902 165.317 726.134 164.271 725.11 163.631C724.129 162.949 722.977 162.607 721.654 162.607ZM742.927 187.247C742.927 181.786 742.927 176.282 742.927 170.735C742.927 165.146 742.927 159.621 742.927 154.159C744.676 154.159 746.447 154.159 748.239 154.159C750.031 154.159 751.78 154.159 753.487 154.159C753.487 154.458 753.487 154.757 753.487 155.055C753.487 155.354 753.487 155.653 753.487 155.951C754.809 155.013 756.303 154.309 757.967 153.839C759.631 153.37 761.444 153.242 763.407 153.455C763.407 155.162 763.407 156.89 763.407 158.639C763.407 160.389 763.407 162.117 763.407 163.823C760.036 163.354 757.54 163.653 755.919 164.719C754.297 165.743 753.487 167.429 753.487 169.775C753.487 172.634 753.487 175.535 753.487 178.479C753.487 181.423 753.487 184.346 753.487 187.247C751.78 187.247 750.031 187.247 748.239 187.247C746.447 187.247 744.676 187.247 742.927 187.247ZM771.249 197.487C772.102 195.226 772.977 192.943 773.873 190.639C774.811 188.378 775.707 186.138 776.561 183.919C774.555 179.013 772.507 174.063 770.417 169.071C768.369 164.037 766.342 159.066 764.337 154.159C766.214 154.159 768.091 154.159 769.969 154.159C771.846 154.159 773.702 154.159 775.537 154.159C776.646 156.89 777.755 159.663 778.865 162.479C780.017 165.295 781.147 168.09 782.257 170.863C783.281 168.09 784.326 165.295 785.393 162.479C786.459 159.663 787.505 156.89 788.529 154.159C790.363 154.159 792.198 154.159 794.033 154.159C795.867 154.159 797.702 154.159 799.537 154.159C796.678 161.285 793.798 168.517 790.897 175.855C788.038 183.151 785.179 190.362 782.321 197.487C780.486 197.487 778.63 197.487 776.753 197.487C774.918 197.487 773.083 197.487 771.249 197.487ZM816.817 187.247C816.817 180.079 816.817 172.826 816.817 165.487C816.817 158.149 816.817 150.895 816.817 143.727C819.462 143.727 822.107 143.727 824.753 143.727C827.441 143.727 830.086 143.727 832.689 143.727C835.974 143.727 838.833 144.367 841.265 145.647C843.697 146.885 845.595 148.634 846.961 150.895C848.326 153.157 849.009 155.802 849.009 158.831C849.009 161.818 848.326 164.442 846.961 166.703C845.638 168.965 843.803 170.714 841.457 171.951C839.153 173.189 836.529 173.807 833.585 173.807C832.646 173.807 831.707 173.807 830.769 173.807C829.873 173.807 828.955 173.807 828.017 173.807C828.017 176.026 828.017 178.266 828.017 180.527C828.017 182.789 828.017 185.029 828.017 187.247C826.182 187.247 824.326 187.247 822.449 187.247C820.571 187.247 818.694 187.247 816.817 187.247ZM832.689 153.775C831.921 153.775 831.131 153.775 830.321 153.775C829.553 153.775 828.785 153.775 828.017 153.775C828.017 155.482 828.017 157.21 828.017 158.959C828.017 160.666 828.017 162.373 828.017 164.079C828.87 164.079 829.745 164.079 830.641 164.079C831.579 164.079 832.475 164.079 833.329 164.079C834.651 164.079 835.718 163.589 836.529 162.607C837.382 161.626 837.809 160.41 837.809 158.959C837.809 157.466 837.361 156.229 836.465 155.247C835.569 154.266 834.31 153.775 832.689 153.775ZM868.857 188.271C866.382 188.271 864.078 187.845 861.945 186.991C859.811 186.095 857.955 184.858 856.377 183.279C854.798 181.658 853.561 179.781 852.665 177.647C851.811 175.514 851.385 173.189 851.385 170.671C851.385 168.154 851.811 165.829 852.665 163.695C853.561 161.562 854.798 159.706 856.377 158.127C857.955 156.549 859.811 155.333 861.945 154.479C864.078 153.583 866.382 153.135 868.857 153.135C871.374 153.135 873.678 153.583 875.769 154.479C877.902 155.333 879.758 156.549 881.337 158.127C882.915 159.706 884.131 161.562 884.985 163.695C885.881 165.829 886.329 168.154 886.329 170.671C886.329 173.189 885.881 175.514 884.985 177.647C884.131 179.781 882.915 181.658 881.337 183.279C879.758 184.858 877.902 186.095 875.769 186.991C873.678 187.845 871.374 188.271 868.857 188.271ZM868.857 178.735C870.947 178.735 872.611 177.989 873.849 176.495C875.129 174.959 875.769 173.018 875.769 170.671C875.769 168.282 875.129 166.362 873.849 164.911C872.611 163.418 870.947 162.671 868.857 162.671C866.766 162.671 865.081 163.418 863.801 164.911C862.563 166.362 861.945 168.282 861.945 170.671C861.945 173.018 862.563 174.959 863.801 176.495C865.081 177.989 866.766 178.735 868.857 178.735ZM902.112 197.487C900.405 197.487 898.656 197.487 896.864 197.487C895.072 197.487 893.301 197.487 891.552 197.487C891.552 190.362 891.552 183.151 891.552 175.855C891.552 168.517 891.552 161.285 891.552 154.159C893.301 154.159 895.072 154.159 896.864 154.159C898.656 154.159 900.405 154.159 902.112 154.159C902.112 154.458 902.112 154.757 902.112 155.055C902.112 155.354 902.112 155.674 902.112 156.015C903.178 155.162 904.394 154.501 905.76 154.031C907.125 153.519 908.576 153.263 910.112 153.263C912.245 153.263 914.272 153.69 916.192 154.543C918.112 155.354 919.797 156.527 921.248 158.063C922.741 159.599 923.893 161.434 924.704 163.567C925.557 165.701 925.984 168.069 925.984 170.671C925.984 173.231 925.557 175.578 924.704 177.711C923.893 179.845 922.741 181.701 921.248 183.279C919.797 184.815 918.112 186.01 916.192 186.863C914.272 187.717 912.224 188.143 910.048 188.143C908.512 188.143 907.061 187.887 905.696 187.375C904.373 186.906 903.178 186.223 902.112 185.327C902.112 187.333 902.112 189.359 902.112 191.407C902.112 193.455 902.112 195.482 902.112 197.487ZM908.64 178.799C910.73 178.799 912.373 178.074 913.568 176.623C914.805 175.13 915.424 173.146 915.424 170.671C915.424 168.197 914.805 166.234 913.568 164.783C912.373 163.333 910.73 162.607 908.64 162.607C906.592 162.607 904.949 163.354 903.712 164.847C902.474 166.298 901.856 168.239 901.856 170.671C901.856 173.103 902.474 175.066 903.712 176.559C904.949 178.053 906.592 178.799 908.64 178.799Z" fill="#404040"/>
<path d="M652.711 275.247C652.711 273.604 652.967 272.111 653.479 270.767C654.013 269.401 654.759 268.217 655.719 267.215C656.679 266.212 657.831 265.433 659.175 264.879C660.519 264.324 662.002 264.025 663.623 263.983C665.266 263.94 667.015 264.196 668.871 264.751C668.871 265.647 668.871 266.553 668.871 267.471C668.871 268.367 668.871 269.263 668.871 270.159C667.613 269.561 666.365 269.22 665.127 269.135C663.89 269.049 662.77 269.22 661.767 269.647C660.765 270.073 659.965 270.756 659.367 271.695C658.77 272.612 658.471 273.796 658.471 275.247C658.471 276.697 658.77 277.892 659.367 278.831C659.965 279.748 660.765 280.42 661.767 280.847C662.77 281.273 663.89 281.444 665.127 281.359C666.365 281.273 667.613 280.932 668.871 280.335C668.871 281.231 668.871 282.137 668.871 283.055C668.871 283.951 668.871 284.847 668.871 285.743C667.015 286.297 665.266 286.553 663.623 286.511C662.002 286.468 660.519 286.169 659.175 285.615C657.831 285.06 656.679 284.281 655.719 283.279C654.759 282.276 654.013 281.103 653.479 279.759C652.967 278.393 652.711 276.889 652.711 275.247ZM682.957 286.127C682.957 285.956 682.957 285.796 682.957 285.647C682.957 285.476 682.957 285.316 682.957 285.167C682.423 285.615 681.815 285.956 681.133 286.191C680.471 286.447 679.757 286.575 678.989 286.575C677.901 286.575 676.877 286.372 675.917 285.967C674.957 285.54 674.103 284.943 673.357 284.175C672.631 283.385 672.055 282.457 671.629 281.391C671.223 280.324 671.021 279.14 671.021 277.839C671.021 276.516 671.223 275.321 671.629 274.255C672.055 273.188 672.631 272.281 673.357 271.535C674.103 270.767 674.957 270.18 675.917 269.775C676.877 269.348 677.89 269.135 678.957 269.135C679.725 269.135 680.45 269.263 681.133 269.519C681.815 269.753 682.423 270.084 682.957 270.511C682.957 270.34 682.957 270.18 682.957 270.031C682.957 269.881 682.957 269.732 682.957 269.583C683.831 269.583 684.717 269.583 685.613 269.583C686.509 269.583 687.383 269.583 688.237 269.583C688.237 272.313 688.237 275.076 688.237 277.871C688.237 280.644 688.237 283.396 688.237 286.127C687.383 286.127 686.509 286.127 685.613 286.127C684.717 286.127 683.831 286.127 682.957 286.127ZM679.693 281.903C680.717 281.903 681.538 281.529 682.157 280.783C682.775 280.036 683.085 279.055 683.085 277.839C683.085 276.623 682.775 275.652 682.157 274.927C681.538 274.18 680.717 273.807 679.693 273.807C678.647 273.807 677.815 274.169 677.197 274.895C676.599 275.62 676.301 276.601 676.301 277.839C676.301 279.076 676.599 280.068 677.197 280.815C677.815 281.54 678.647 281.903 679.693 281.903ZM693.488 286.127C693.488 284.164 693.488 282.191 693.488 280.207C693.488 278.223 693.488 276.26 693.488 274.319C693.062 274.319 692.624 274.319 692.176 274.319C691.75 274.319 691.323 274.319 690.896 274.319C690.896 273.529 690.896 272.74 690.896 271.951C690.896 271.161 690.896 270.372 690.896 269.583C691.323 269.583 691.75 269.583 692.176 269.583C692.624 269.583 693.062 269.583 693.488 269.583C693.488 268.836 693.488 268.1 693.488 267.375C693.488 266.628 693.488 265.892 693.488 265.167C694.363 265.167 695.248 265.167 696.144 265.167C697.04 265.167 697.915 265.167 698.768 265.167C698.768 265.892 698.768 266.628 698.768 267.375C698.768 268.1 698.768 268.836 698.768 269.583C699.259 269.583 699.76 269.583 700.272 269.583C700.784 269.583 701.286 269.583 701.776 269.583C701.776 270.372 701.776 271.161 701.776 271.951C701.776 272.74 701.776 273.529 701.776 274.319C701.286 274.319 700.784 274.319 700.272 274.319C699.76 274.319 699.259 274.319 698.768 274.319C698.768 276.26 698.768 278.223 698.768 280.207C698.768 282.191 698.768 284.164 698.768 286.127C697.915 286.127 697.04 286.127 696.144 286.127C695.248 286.127 694.363 286.127 693.488 286.127ZM704.483 286.127C704.483 282.265 704.483 278.372 704.483 274.447C704.483 270.521 704.483 266.628 704.483 262.767C705.358 262.767 706.243 262.767 707.139 262.767C708.035 262.767 708.91 262.767 709.763 262.767C709.763 264.025 709.763 265.305 709.763 266.607C709.763 267.887 709.763 269.156 709.763 270.415C710.339 270.009 710.979 269.7 711.683 269.487C712.408 269.252 713.187 269.135 714.019 269.135C715.235 269.135 716.302 269.412 717.219 269.967C718.158 270.521 718.883 271.321 719.395 272.367C719.928 273.391 720.195 274.628 720.195 276.079C720.195 277.743 720.195 279.417 720.195 281.103C720.195 282.788 720.195 284.463 720.195 286.127C719.342 286.127 718.467 286.127 717.571 286.127C716.675 286.127 715.79 286.127 714.915 286.127C714.915 284.591 714.915 283.033 714.915 281.455C714.915 279.876 714.915 278.319 714.915 276.783C714.915 275.929 714.712 275.247 714.307 274.735C713.923 274.201 713.304 273.935 712.451 273.935C711.598 273.935 710.936 274.18 710.467 274.671C709.998 275.161 709.763 275.865 709.763 276.783C709.763 278.319 709.763 279.876 709.763 281.455C709.763 283.033 709.763 284.591 709.763 286.127C708.91 286.127 708.035 286.127 707.139 286.127C706.243 286.127 705.358 286.127 704.483 286.127ZM734.519 286.127C734.519 285.956 734.519 285.796 734.519 285.647C734.519 285.476 734.519 285.316 734.519 285.167C733.986 285.615 733.378 285.956 732.695 286.191C732.034 286.447 731.319 286.575 730.551 286.575C729.463 286.575 728.439 286.372 727.479 285.967C726.519 285.54 725.666 284.943 724.919 284.175C724.194 283.385 723.618 282.457 723.191 281.391C722.786 280.324 722.583 279.14 722.583 277.839C722.583 276.516 722.786 275.321 723.191 274.255C723.618 273.188 724.194 272.281 724.919 271.535C725.666 270.767 726.519 270.18 727.479 269.775C728.439 269.348 729.453 269.135 730.519 269.135C731.287 269.135 732.013 269.263 732.695 269.519C733.378 269.753 733.986 270.084 734.519 270.511C734.519 270.34 734.519 270.18 734.519 270.031C734.519 269.881 734.519 269.732 734.519 269.583C735.394 269.583 736.279 269.583 737.175 269.583C738.071 269.583 738.946 269.583 739.799 269.583C739.799 272.313 739.799 275.076 739.799 277.871C739.799 280.644 739.799 283.396 739.799 286.127C738.946 286.127 738.071 286.127 737.175 286.127C736.279 286.127 735.394 286.127 734.519 286.127ZM731.255 281.903C732.279 281.903 733.101 281.529 733.719 280.783C734.338 280.036 734.647 279.055 734.647 277.839C734.647 276.623 734.338 275.652 733.719 274.927C733.101 274.18 732.279 273.807 731.255 273.807C730.21 273.807 729.378 274.169 728.759 274.895C728.162 275.62 727.863 276.601 727.863 277.839C727.863 279.076 728.162 280.068 728.759 280.815C729.378 281.54 730.21 281.903 731.255 281.903ZM743.323 286.127C743.323 283.396 743.323 280.644 743.323 277.871C743.323 275.076 743.323 272.313 743.323 269.583C744.198 269.583 745.083 269.583 745.979 269.583C746.875 269.583 747.75 269.583 748.603 269.583C748.603 269.732 748.603 269.881 748.603 270.031C748.603 270.18 748.603 270.329 748.603 270.479C749.264 270.009 750.011 269.657 750.843 269.423C751.675 269.188 752.582 269.124 753.563 269.231C753.563 270.084 753.563 270.948 753.563 271.823C753.563 272.697 753.563 273.561 753.563 274.415C751.878 274.18 750.63 274.329 749.819 274.863C749.008 275.375 748.603 276.217 748.603 277.391C748.603 278.82 748.603 280.271 748.603 281.743C748.603 283.215 748.603 284.676 748.603 286.127C747.75 286.127 746.875 286.127 745.979 286.127C745.083 286.127 744.198 286.127 743.323 286.127ZM768.588 281.007C768.588 282.329 768.215 283.417 767.468 284.271C766.743 285.103 765.761 285.711 764.524 286.095C763.287 286.479 761.9 286.639 760.364 286.575C758.849 286.532 757.303 286.287 755.724 285.839C755.724 285.028 755.724 284.196 755.724 283.343C755.724 282.489 755.724 281.657 755.724 280.847C756.62 281.252 757.516 281.572 758.412 281.807C759.308 282.02 760.119 282.148 760.844 282.191C761.569 282.233 762.156 282.18 762.604 282.031C763.052 281.86 763.276 281.583 763.276 281.199C763.276 280.9 763.084 280.665 762.7 280.495C762.337 280.324 761.857 280.175 761.26 280.047C760.663 279.897 760.023 279.727 759.34 279.535C758.679 279.321 758.049 279.033 757.452 278.671C756.855 278.287 756.364 277.785 755.98 277.167C755.617 276.527 755.436 275.705 755.436 274.703C755.436 273.508 755.777 272.495 756.46 271.663C757.164 270.809 758.103 270.169 759.276 269.743C760.449 269.295 761.761 269.071 763.212 269.071C764.663 269.071 766.145 269.316 767.66 269.807C767.66 270.617 767.66 271.449 767.66 272.303C767.66 273.156 767.66 273.988 767.66 274.799C766.465 274.223 765.345 273.839 764.3 273.647C763.255 273.455 762.412 273.433 761.772 273.583C761.132 273.711 760.812 273.999 760.812 274.447C760.812 274.745 760.993 274.98 761.356 275.151C761.74 275.3 762.22 275.439 762.796 275.567C763.393 275.695 764.023 275.865 764.684 276.079C765.367 276.292 765.996 276.591 766.572 276.975C767.169 277.337 767.649 277.849 768.012 278.511C768.396 279.151 768.588 279.983 768.588 281.007ZM773.951 267.695C773.333 267.695 772.767 267.545 772.255 267.247C771.765 266.948 771.37 266.553 771.071 266.063C770.773 265.572 770.623 265.028 770.623 264.431C770.623 263.833 770.773 263.3 771.071 262.831C771.37 262.34 771.765 261.945 772.255 261.647C772.767 261.348 773.333 261.199 773.951 261.199C774.549 261.199 775.093 261.348 775.583 261.647C776.095 261.945 776.501 262.34 776.799 262.831C777.098 263.3 777.247 263.833 777.247 264.431C777.247 265.028 777.098 265.572 776.799 266.063C776.501 266.553 776.095 266.948 775.583 267.247C775.093 267.545 774.549 267.695 773.951 267.695ZM771.295 286.127C771.295 283.396 771.295 280.644 771.295 277.871C771.295 275.076 771.295 272.313 771.295 269.583C772.17 269.583 773.055 269.583 773.951 269.583C774.847 269.583 775.722 269.583 776.575 269.583C776.575 272.313 776.575 275.076 776.575 277.871C776.575 280.644 776.575 283.396 776.575 286.127C775.722 286.127 774.847 286.127 773.951 286.127C773.055 286.127 772.17 286.127 771.295 286.127ZM792.9 281.007C792.9 282.329 792.527 283.417 791.78 284.271C791.055 285.103 790.074 285.711 788.836 286.095C787.599 286.479 786.212 286.639 784.676 286.575C783.162 286.532 781.615 286.287 780.036 285.839C780.036 285.028 780.036 284.196 780.036 283.343C780.036 282.489 780.036 281.657 780.036 280.847C780.932 281.252 781.828 281.572 782.724 281.807C783.62 282.02 784.431 282.148 785.156 282.191C785.882 282.233 786.468 282.18 786.916 282.031C787.364 281.86 787.588 281.583 787.588 281.199C787.588 280.9 787.396 280.665 787.012 280.495C786.65 280.324 786.17 280.175 785.572 280.047C784.975 279.897 784.335 279.727 783.652 279.535C782.991 279.321 782.362 279.033 781.764 278.671C781.167 278.287 780.676 277.785 780.292 277.167C779.93 276.527 779.748 275.705 779.748 274.703C779.748 273.508 780.09 272.495 780.772 271.663C781.476 270.809 782.415 270.169 783.588 269.743C784.762 269.295 786.074 269.071 787.524 269.071C788.975 269.071 790.458 269.316 791.972 269.807C791.972 270.617 791.972 271.449 791.972 272.303C791.972 273.156 791.972 273.988 791.972 274.799C790.778 274.223 789.658 273.839 788.612 273.647C787.567 273.455 786.724 273.433 786.084 273.583C785.444 273.711 785.124 273.999 785.124 274.447C785.124 274.745 785.306 274.98 785.668 275.151C786.052 275.3 786.532 275.439 787.108 275.567C787.706 275.695 788.335 275.865 788.996 276.079C789.679 276.292 790.308 276.591 790.884 276.975C791.482 277.337 791.962 277.849 792.324 278.511C792.708 279.151 792.9 279.983 792.9 281.007ZM818.135 279.695C818.135 281.124 817.772 282.361 817.047 283.407C816.343 284.452 815.361 285.263 814.103 285.839C812.844 286.393 811.383 286.671 809.719 286.671C808.161 286.671 806.775 286.425 805.559 285.935C804.364 285.423 803.415 284.697 802.711 283.759C802.028 282.799 801.687 281.668 801.687 280.367C801.687 279.3 801.921 278.319 802.391 277.423C802.881 276.527 803.617 275.759 804.599 275.119C803.809 274.521 803.223 273.828 802.839 273.039C802.476 272.228 802.295 271.343 802.295 270.383C802.295 268.975 802.668 267.801 803.415 266.863C804.183 265.924 805.207 265.22 806.487 264.751C807.767 264.281 809.185 264.036 810.743 264.015C812.3 263.972 813.879 264.153 815.479 264.559C815.479 265.412 815.479 266.276 815.479 267.151C815.479 268.025 815.479 268.9 815.479 269.775C814.583 269.519 813.676 269.337 812.759 269.231C811.863 269.124 811.041 269.113 810.295 269.199C809.548 269.284 808.94 269.465 808.471 269.743C808.023 270.02 807.799 270.415 807.799 270.927C807.799 271.588 808.247 272.047 809.143 272.303C810.039 272.537 811.276 272.655 812.855 272.655C812.855 272.271 812.855 271.887 812.855 271.503C812.855 271.097 812.855 270.703 812.855 270.319C813.729 270.319 814.615 270.319 815.511 270.319C816.407 270.319 817.281 270.319 818.135 270.319C818.135 270.703 818.135 271.097 818.135 271.503C818.135 271.887 818.135 272.271 818.135 272.655C818.455 272.655 818.785 272.655 819.127 272.655C819.468 272.655 819.799 272.655 820.119 272.655C820.119 273.444 820.119 274.233 820.119 275.023C820.119 275.812 820.119 276.601 820.119 277.391C819.799 277.391 819.468 277.391 819.127 277.391C818.785 277.391 818.455 277.391 818.135 277.391C818.135 277.775 818.135 278.159 818.135 278.543C818.135 278.927 818.135 279.311 818.135 279.695ZM807.287 279.567C807.287 280.185 807.511 280.708 807.959 281.135C808.428 281.54 809.079 281.743 809.911 281.743C810.807 281.743 811.521 281.529 812.055 281.103C812.588 280.655 812.855 280.036 812.855 279.247C812.855 278.948 812.855 278.639 812.855 278.319C812.855 277.999 812.855 277.689 812.855 277.391C811.105 277.391 809.74 277.519 808.759 277.775C807.777 278.031 807.287 278.628 807.287 279.567ZM829.487 286.127C829.487 282.543 829.487 278.916 829.487 275.247C829.487 271.577 829.487 267.951 829.487 264.367C831.641 264.367 833.817 264.367 836.015 264.367C838.212 264.367 840.388 264.367 842.543 264.367C842.543 265.177 842.543 266.009 842.543 266.863C842.543 267.716 842.543 268.548 842.543 269.359C841.305 269.359 840.057 269.359 838.799 269.359C837.561 269.359 836.324 269.359 835.087 269.359C835.087 269.892 835.087 270.425 835.087 270.959C835.087 271.471 835.087 271.993 835.087 272.527C836.217 272.527 837.359 272.527 838.511 272.527C839.663 272.527 840.793 272.527 841.903 272.527C841.903 273.316 841.903 274.116 841.903 274.927C841.903 275.737 841.903 276.548 841.903 277.359C840.793 277.359 839.663 277.359 838.511 277.359C837.359 277.359 836.217 277.359 835.087 277.359C835.087 277.977 835.087 278.607 835.087 279.247C835.087 279.887 835.087 280.516 835.087 281.135C836.324 281.135 837.561 281.135 838.799 281.135C840.057 281.135 841.305 281.135 842.543 281.135C842.543 281.945 842.543 282.777 842.543 283.631C842.543 284.484 842.543 285.316 842.543 286.127C840.388 286.127 838.212 286.127 836.015 286.127C833.817 286.127 831.641 286.127 829.487 286.127ZM861.529 269.583C861.529 272.313 861.529 275.076 861.529 277.871C861.529 280.644 861.529 283.396 861.529 286.127C860.676 286.127 859.801 286.127 858.905 286.127C858.009 286.127 857.124 286.127 856.249 286.127C856.249 285.977 856.249 285.839 856.249 285.711C856.249 285.583 856.249 285.444 856.249 285.295C855.673 285.7 855.022 286.009 854.297 286.223C853.593 286.457 852.825 286.575 851.993 286.575C850.777 286.575 849.7 286.297 848.761 285.743C847.844 285.188 847.118 284.388 846.585 283.343C846.073 282.297 845.817 281.06 845.817 279.631C845.817 277.967 845.817 276.292 845.817 274.607C845.817 272.921 845.817 271.247 845.817 269.583C846.692 269.583 847.577 269.583 848.473 269.583C849.369 269.583 850.244 269.583 851.097 269.583C851.097 271.119 851.097 272.676 851.097 274.255C851.097 275.833 851.097 277.391 851.097 278.927C851.097 279.78 851.289 280.473 851.673 281.007C852.078 281.519 852.708 281.775 853.561 281.775C854.414 281.775 855.076 281.529 855.545 281.039C856.014 280.548 856.249 279.844 856.249 278.927C856.249 277.391 856.249 275.833 856.249 274.255C856.249 272.676 856.249 271.119 856.249 269.583C857.124 269.583 858.009 269.583 858.905 269.583C859.801 269.583 860.676 269.583 861.529 269.583ZM870.322 291.247C869.468 291.247 868.594 291.247 867.698 291.247C866.802 291.247 865.916 291.247 865.042 291.247C865.042 287.684 865.042 284.079 865.042 280.431C865.042 276.761 865.042 273.145 865.042 269.583C865.916 269.583 866.802 269.583 867.698 269.583C868.594 269.583 869.468 269.583 870.322 269.583C870.322 269.732 870.322 269.881 870.322 270.031C870.322 270.18 870.322 270.34 870.322 270.511C870.855 270.084 871.463 269.753 872.146 269.519C872.828 269.263 873.554 269.135 874.322 269.135C875.388 269.135 876.402 269.348 877.362 269.775C878.322 270.18 879.164 270.767 879.89 271.535C880.636 272.303 881.212 273.22 881.618 274.287C882.044 275.353 882.258 276.537 882.258 277.839C882.258 279.119 882.044 280.292 881.618 281.359C881.212 282.425 880.636 283.353 879.89 284.143C879.164 284.911 878.322 285.508 877.362 285.935C876.402 286.361 875.378 286.575 874.29 286.575C873.522 286.575 872.796 286.447 872.114 286.191C871.452 285.956 870.855 285.615 870.322 285.167C870.322 286.169 870.322 287.183 870.322 288.207C870.322 289.231 870.322 290.244 870.322 291.247ZM873.586 281.903C874.631 281.903 875.452 281.54 876.05 280.815C876.668 280.068 876.978 279.076 876.978 277.839C876.978 276.601 876.668 275.62 876.05 274.895C875.452 274.169 874.631 273.807 873.586 273.807C872.562 273.807 871.74 274.18 871.122 274.927C870.503 275.652 870.194 276.623 870.194 277.839C870.194 279.055 870.503 280.036 871.122 280.783C871.74 281.529 872.562 281.903 873.586 281.903ZM885.045 286.127C885.045 282.265 885.045 278.372 885.045 274.447C885.045 270.521 885.045 266.628 885.045 262.767C885.92 262.767 886.805 262.767 887.701 262.767C888.597 262.767 889.472 262.767 890.325 262.767C890.325 264.025 890.325 265.305 890.325 266.607C890.325 267.887 890.325 269.156 890.325 270.415C890.901 270.009 891.541 269.7 892.245 269.487C892.971 269.252 893.749 269.135 894.581 269.135C895.797 269.135 896.864 269.412 897.781 269.967C898.72 270.521 899.445 271.321 899.957 272.367C900.491 273.391 900.757 274.628 900.757 276.079C900.757 277.743 900.757 279.417 900.757 281.103C900.757 282.788 900.757 284.463 900.757 286.127C899.904 286.127 899.029 286.127 898.133 286.127C897.237 286.127 896.352 286.127 895.477 286.127C895.477 284.591 895.477 283.033 895.477 281.455C895.477 279.876 895.477 278.319 895.477 276.783C895.477 275.929 895.275 275.247 894.869 274.735C894.485 274.201 893.867 273.935 893.013 273.935C892.16 273.935 891.499 274.18 891.029 274.671C890.56 275.161 890.325 275.865 890.325 276.783C890.325 278.319 890.325 279.876 890.325 281.455C890.325 283.033 890.325 284.591 890.325 286.127C889.472 286.127 888.597 286.127 887.701 286.127C886.805 286.127 885.92 286.127 885.045 286.127ZM911.882 286.639C910.644 286.639 909.492 286.425 908.426 285.999C907.359 285.551 906.431 284.932 905.642 284.143C904.852 283.332 904.234 282.393 903.786 281.327C903.359 280.26 903.146 279.097 903.146 277.839C903.146 276.58 903.359 275.417 903.786 274.351C904.234 273.284 904.852 272.356 905.642 271.567C906.431 270.777 907.359 270.169 908.426 269.743C909.492 269.295 910.644 269.071 911.882 269.071C913.14 269.071 914.292 269.295 915.338 269.743C916.404 270.169 917.332 270.777 918.122 271.567C918.911 272.356 919.519 273.284 919.946 274.351C920.394 275.417 920.618 276.58 920.618 277.839C920.618 279.097 920.394 280.26 919.946 281.327C919.519 282.393 918.911 283.332 918.122 284.143C917.332 284.932 916.404 285.551 915.338 285.999C914.292 286.425 913.14 286.639 911.882 286.639ZM911.882 281.871C912.927 281.871 913.759 281.497 914.378 280.751C915.018 279.983 915.338 279.012 915.338 277.839C915.338 276.644 915.018 275.684 914.378 274.959C913.759 274.212 912.927 273.839 911.882 273.839C910.836 273.839 909.994 274.212 909.354 274.959C908.735 275.684 908.426 276.644 908.426 277.839C908.426 279.012 908.735 279.983 909.354 280.751C909.994 281.497 910.836 281.871 911.882 281.871ZM923.229 286.127C923.229 283.396 923.229 280.644 923.229 277.871C923.229 275.076 923.229 272.313 923.229 269.583C924.104 269.583 924.989 269.583 925.885 269.583C926.781 269.583 927.656 269.583 928.509 269.583C928.509 269.732 928.509 269.881 928.509 270.031C928.509 270.18 928.509 270.329 928.509 270.479C929.171 270.009 929.917 269.657 930.749 269.423C931.581 269.188 932.488 269.124 933.469 269.231C933.469 270.084 933.469 270.948 933.469 271.823C933.469 272.697 933.469 273.561 933.469 274.415C931.784 274.18 930.536 274.329 929.725 274.863C928.915 275.375 928.509 276.217 928.509 277.391C928.509 278.82 928.509 280.271 928.509 281.743C928.509 283.215 928.509 284.676 928.509 286.127C927.656 286.127 926.781 286.127 925.885 286.127C924.989 286.127 924.104 286.127 923.229 286.127ZM938.67 267.695C938.052 267.695 937.486 267.545 936.974 267.247C936.484 266.948 936.089 266.553 935.79 266.063C935.492 265.572 935.342 265.028 935.342 264.431C935.342 263.833 935.492 263.3 935.79 262.831C936.089 262.34 936.484 261.945 936.974 261.647C937.486 261.348 938.052 261.199 938.67 261.199C939.268 261.199 939.812 261.348 940.302 261.647C940.814 261.945 941.22 262.34 941.518 262.831C941.817 263.3 941.966 263.833 941.966 264.431C941.966 265.028 941.817 265.572 941.518 266.063C941.22 266.553 940.814 266.948 940.302 267.247C939.812 267.545 939.268 267.695 938.67 267.695ZM936.014 286.127C936.014 283.396 936.014 280.644 936.014 277.871C936.014 275.076 936.014 272.313 936.014 269.583C936.889 269.583 937.774 269.583 938.67 269.583C939.566 269.583 940.441 269.583 941.294 269.583C941.294 272.313 941.294 275.076 941.294 277.871C941.294 280.644 941.294 283.396 941.294 286.127C940.441 286.127 939.566 286.127 938.67 286.127C937.774 286.127 936.889 286.127 936.014 286.127ZM956.019 286.127C956.019 285.956 956.019 285.796 956.019 285.647C956.019 285.476 956.019 285.316 956.019 285.167C955.486 285.615 954.878 285.956 954.195 286.191C953.534 286.447 952.819 286.575 952.051 286.575C950.963 286.575 949.939 286.372 948.979 285.967C948.019 285.54 947.166 284.943 946.419 284.175C945.694 283.385 945.118 282.457 944.691 281.391C944.286 280.324 944.083 279.14 944.083 277.839C944.083 276.516 944.286 275.321 944.691 274.255C945.118 273.188 945.694 272.281 946.419 271.535C947.166 270.767 948.019 270.18 948.979 269.775C949.939 269.348 950.953 269.135 952.019 269.135C952.787 269.135 953.513 269.263 954.195 269.519C954.878 269.753 955.486 270.084 956.019 270.511C956.019 270.34 956.019 270.18 956.019 270.031C956.019 269.881 956.019 269.732 956.019 269.583C956.894 269.583 957.779 269.583 958.675 269.583C959.571 269.583 960.446 269.583 961.299 269.583C961.299 272.313 961.299 275.076 961.299 277.871C961.299 280.644 961.299 283.396 961.299 286.127C960.446 286.127 959.571 286.127 958.675 286.127C957.779 286.127 956.894 286.127 956.019 286.127ZM952.755 281.903C953.779 281.903 954.601 281.529 955.219 280.783C955.838 280.036 956.147 279.055 956.147 277.839C956.147 276.623 955.838 275.652 955.219 274.927C954.601 274.18 953.779 273.807 952.755 273.807C951.71 273.807 950.878 274.169 950.259 274.895C949.662 275.62 949.363 276.601 949.363 277.839C949.363 279.076 949.662 280.068 950.259 280.815C950.878 281.54 951.71 281.903 952.755 281.903Z" fill="#888888"/>
<path d="M653.799 348.665C653.799 345.081 653.799 341.455 653.799 337.785C653.799 334.116 653.799 330.489 653.799 326.905C655.079 326.905 656.359 326.905 657.639 326.905C658.941 326.905 660.231 326.905 661.511 326.905C663.133 326.905 664.551 327.215 665.767 327.833C666.983 328.431 667.922 329.284 668.583 330.393C669.266 331.481 669.607 332.761 669.607 334.233C669.607 335.492 669.351 336.612 668.839 337.593C668.327 338.575 667.634 339.375 666.759 339.993C667.613 341.423 668.466 342.873 669.319 344.345C670.194 345.796 671.058 347.236 671.911 348.665C670.866 348.665 669.821 348.665 668.775 348.665C667.73 348.665 666.685 348.665 665.639 348.665C664.978 347.471 664.306 346.255 663.623 345.017C662.962 343.78 662.29 342.564 661.607 341.369C661.245 341.369 660.871 341.369 660.487 341.369C660.125 341.369 659.762 341.369 659.399 341.369C659.399 342.564 659.399 343.78 659.399 345.017C659.399 346.255 659.399 347.471 659.399 348.665C658.482 348.665 657.554 348.665 656.615 348.665C655.677 348.665 654.738 348.665 653.799 348.665ZM661.511 331.961C661.17 331.961 660.818 331.961 660.455 331.961C660.114 331.961 659.762 331.961 659.399 331.961C659.399 332.751 659.399 333.54 659.399 334.329C659.399 335.119 659.399 335.908 659.399 336.697C659.805 336.697 660.21 336.697 660.615 336.697C661.021 336.697 661.426 336.697 661.831 336.697C662.471 336.697 662.994 336.473 663.399 336.025C663.805 335.556 664.007 334.991 664.007 334.329C664.007 333.647 663.783 333.081 663.335 332.633C662.909 332.185 662.301 331.961 661.511 331.961ZM687.282 347.897C685.81 348.516 684.348 348.9 682.898 349.049C681.447 349.199 680.071 349.113 678.77 348.793C677.49 348.495 676.348 347.972 675.346 347.225C674.343 346.479 673.554 345.529 672.978 344.377C672.423 343.225 672.146 341.892 672.146 340.377C672.146 339.119 672.348 337.967 672.754 336.921C673.18 335.855 673.778 334.927 674.546 334.137C675.314 333.327 676.22 332.708 677.266 332.281C678.311 331.833 679.452 331.609 680.69 331.609C681.799 331.609 682.802 331.791 683.698 332.153C684.594 332.516 685.372 333.028 686.034 333.689C686.695 334.329 687.228 335.097 687.634 335.993C688.039 336.889 688.295 337.871 688.402 338.937C688.508 340.004 688.444 341.135 688.21 342.329C686.46 342.329 684.7 342.329 682.93 342.329C681.159 342.329 679.399 342.329 677.65 342.329C678.055 343.14 678.727 343.716 679.666 344.057C680.626 344.399 681.756 344.505 683.058 344.377C684.38 344.249 685.788 343.908 687.282 343.353C687.282 344.1 687.282 344.857 687.282 345.625C687.282 346.393 687.282 347.151 687.282 347.897ZM680.562 336.345C679.943 336.345 679.367 336.516 678.834 336.857C678.322 337.199 677.927 337.721 677.65 338.425C678.61 338.425 679.57 338.425 680.53 338.425C681.511 338.425 682.482 338.425 683.442 338.425C683.186 337.7 682.802 337.177 682.29 336.857C681.799 336.516 681.223 336.345 680.562 336.345ZM696.638 348.665C695.785 348.665 694.91 348.665 694.014 348.665C693.118 348.665 692.233 348.665 691.358 348.665C691.358 344.804 691.358 340.911 691.358 336.985C691.358 333.06 691.358 329.167 691.358 325.305C692.233 325.305 693.118 325.305 694.014 325.305C694.91 325.305 695.785 325.305 696.638 325.305C696.638 326.585 696.638 327.876 696.638 329.177C696.638 330.479 696.638 331.769 696.638 333.049C697.171 332.623 697.779 332.292 698.462 332.057C699.145 331.801 699.87 331.673 700.638 331.673C701.705 331.673 702.718 331.887 703.678 332.313C704.638 332.719 705.481 333.305 706.206 334.073C706.953 334.841 707.529 335.759 707.934 336.825C708.361 337.892 708.574 339.076 708.574 340.377C708.574 341.657 708.361 342.831 707.934 343.897C707.529 344.964 706.953 345.892 706.206 346.681C705.481 347.449 704.638 348.047 703.678 348.473C702.718 348.9 701.694 349.113 700.606 349.113C699.838 349.113 699.113 348.985 698.43 348.729C697.769 348.495 697.171 348.153 696.638 347.705C696.638 347.855 696.638 348.015 696.638 348.185C696.638 348.335 696.638 348.495 696.638 348.665ZM699.902 344.441C700.947 344.441 701.769 344.079 702.366 343.353C702.985 342.607 703.294 341.615 703.294 340.377C703.294 339.14 702.985 338.159 702.366 337.433C701.769 336.708 700.947 336.345 699.902 336.345C698.878 336.345 698.057 336.719 697.438 337.465C696.819 338.191 696.51 339.161 696.51 340.377C696.51 341.593 696.819 342.575 697.438 343.321C698.057 344.068 698.878 344.441 699.902 344.441ZM725.438 347.897C723.966 348.516 722.505 348.9 721.054 349.049C719.603 349.199 718.227 349.113 716.926 348.793C715.646 348.495 714.505 347.972 713.502 347.225C712.499 346.479 711.71 345.529 711.134 344.377C710.579 343.225 710.302 341.892 710.302 340.377C710.302 339.119 710.505 337.967 710.91 336.921C711.337 335.855 711.934 334.927 712.702 334.137C713.47 333.327 714.377 332.708 715.422 332.281C716.467 331.833 717.609 331.609 718.846 331.609C719.955 331.609 720.958 331.791 721.854 332.153C722.75 332.516 723.529 333.028 724.19 333.689C724.851 334.329 725.385 335.097 725.79 335.993C726.195 336.889 726.451 337.871 726.558 338.937C726.665 340.004 726.601 341.135 726.366 342.329C724.617 342.329 722.857 342.329 721.086 342.329C719.315 342.329 717.555 342.329 715.806 342.329C716.211 343.14 716.883 343.716 717.822 344.057C718.782 344.399 719.913 344.505 721.214 344.377C722.537 344.249 723.945 343.908 725.438 343.353C725.438 344.1 725.438 344.857 725.438 345.625C725.438 346.393 725.438 347.151 725.438 347.897ZM718.718 336.345C718.099 336.345 717.523 336.516 716.99 336.857C716.478 337.199 716.083 337.721 715.806 338.425C716.766 338.425 717.726 338.425 718.686 338.425C719.667 338.425 720.638 338.425 721.598 338.425C721.342 337.7 720.958 337.177 720.446 336.857C719.955 336.516 719.379 336.345 718.718 336.345ZM729.514 348.665C729.514 344.804 729.514 340.911 729.514 336.985C729.514 333.06 729.514 329.167 729.514 325.305C730.389 325.305 731.274 325.305 732.17 325.305C733.066 325.305 733.941 325.305 734.794 325.305C734.794 329.167 734.794 333.06 734.794 336.985C734.794 340.911 734.794 344.804 734.794 348.665C733.941 348.665 733.066 348.665 732.17 348.665C731.274 348.665 730.389 348.665 729.514 348.665ZM738.639 348.665C738.639 344.804 738.639 340.911 738.639 336.985C738.639 333.06 738.639 329.167 738.639 325.305C739.514 325.305 740.399 325.305 741.295 325.305C742.191 325.305 743.066 325.305 743.919 325.305C743.919 329.167 743.919 333.06 743.919 336.985C743.919 340.911 743.919 344.804 743.919 348.665C743.066 348.665 742.191 348.665 741.295 348.665C740.399 348.665 739.514 348.665 738.639 348.665ZM750.42 330.233C749.802 330.233 749.236 330.084 748.724 329.785C748.234 329.487 747.839 329.092 747.54 328.601C747.242 328.111 747.092 327.567 747.092 326.969C747.092 326.372 747.242 325.839 747.54 325.369C747.839 324.879 748.234 324.484 748.724 324.185C749.236 323.887 749.802 323.737 750.42 323.737C751.018 323.737 751.562 323.887 752.052 324.185C752.564 324.484 752.97 324.879 753.268 325.369C753.567 325.839 753.716 326.372 753.716 326.969C753.716 327.567 753.567 328.111 753.268 328.601C752.97 329.092 752.564 329.487 752.052 329.785C751.562 330.084 751.018 330.233 750.42 330.233ZM747.764 348.665C747.764 345.935 747.764 343.183 747.764 340.409C747.764 337.615 747.764 334.852 747.764 332.121C748.639 332.121 749.524 332.121 750.42 332.121C751.316 332.121 752.191 332.121 753.044 332.121C753.044 334.852 753.044 337.615 753.044 340.409C753.044 343.183 753.044 345.935 753.044 348.665C752.191 348.665 751.316 348.665 750.42 348.665C749.524 348.665 748.639 348.665 747.764 348.665ZM764.569 349.177C763.332 349.177 762.18 348.964 761.113 348.537C760.047 348.089 759.119 347.471 758.329 346.681C757.54 345.871 756.921 344.932 756.473 343.865C756.047 342.799 755.833 341.636 755.833 340.377C755.833 339.119 756.047 337.956 756.473 336.889C756.921 335.823 757.54 334.895 758.329 334.105C759.119 333.316 760.047 332.708 761.113 332.281C762.18 331.833 763.332 331.609 764.569 331.609C765.828 331.609 766.98 331.833 768.025 332.281C769.092 332.708 770.02 333.316 770.809 334.105C771.599 334.895 772.207 335.823 772.633 336.889C773.081 337.956 773.305 339.119 773.305 340.377C773.305 341.636 773.081 342.799 772.633 343.865C772.207 344.932 771.599 345.871 770.809 346.681C770.02 347.471 769.092 348.089 768.025 348.537C766.98 348.964 765.828 349.177 764.569 349.177ZM764.569 344.409C765.615 344.409 766.447 344.036 767.065 343.289C767.705 342.521 768.025 341.551 768.025 340.377C768.025 339.183 767.705 338.223 767.065 337.497C766.447 336.751 765.615 336.377 764.569 336.377C763.524 336.377 762.681 336.751 762.041 337.497C761.423 338.223 761.113 339.183 761.113 340.377C761.113 341.551 761.423 342.521 762.041 343.289C762.681 344.036 763.524 344.409 764.569 344.409ZM775.917 348.665C775.917 345.935 775.917 343.183 775.917 340.409C775.917 337.615 775.917 334.852 775.917 332.121C776.791 332.121 777.677 332.121 778.573 332.121C779.469 332.121 780.343 332.121 781.197 332.121C781.197 332.271 781.197 332.409 781.197 332.537C781.197 332.665 781.197 332.804 781.197 332.953C781.773 332.548 782.413 332.239 783.117 332.025C783.842 331.791 784.621 331.673 785.453 331.673C786.669 331.673 787.735 331.951 788.653 332.505C789.591 333.06 790.317 333.86 790.829 334.905C791.362 335.929 791.629 337.167 791.629 338.617C791.629 340.281 791.629 341.956 791.629 343.641C791.629 345.327 791.629 347.001 791.629 348.665C790.775 348.665 789.901 348.665 789.005 348.665C788.109 348.665 787.223 348.665 786.349 348.665C786.349 347.129 786.349 345.572 786.349 343.993C786.349 342.415 786.349 340.857 786.349 339.321C786.349 338.468 786.146 337.785 785.741 337.273C785.357 336.74 784.738 336.473 783.885 336.473C783.031 336.473 782.37 336.719 781.901 337.209C781.431 337.7 781.197 338.404 781.197 339.321C781.197 340.857 781.197 342.415 781.197 343.993C781.197 345.572 781.197 347.129 781.197 348.665C780.343 348.665 779.469 348.665 778.573 348.665C777.677 348.665 776.791 348.665 775.917 348.665ZM817.572 342.233C817.572 343.663 817.21 344.9 816.484 345.945C815.78 346.991 814.799 347.801 813.54 348.377C812.282 348.932 810.82 349.209 809.156 349.209C807.599 349.209 806.212 348.964 804.996 348.473C803.802 347.961 802.852 347.236 802.148 346.297C801.466 345.337 801.124 344.207 801.124 342.905C801.124 341.839 801.359 340.857 801.828 339.961C802.319 339.065 803.055 338.297 804.036 337.657C803.247 337.06 802.66 336.367 802.276 335.577C801.914 334.767 801.732 333.881 801.732 332.921C801.732 331.513 802.106 330.34 802.852 329.401C803.62 328.463 804.644 327.759 805.924 327.289C807.204 326.82 808.623 326.575 810.18 326.553C811.738 326.511 813.316 326.692 814.916 327.097C814.916 327.951 814.916 328.815 814.916 329.689C814.916 330.564 814.916 331.439 814.916 332.313C814.02 332.057 813.114 331.876 812.196 331.769C811.3 331.663 810.479 331.652 809.732 331.737C808.986 331.823 808.378 332.004 807.908 332.281C807.46 332.559 807.236 332.953 807.236 333.465C807.236 334.127 807.684 334.585 808.58 334.841C809.476 335.076 810.714 335.193 812.292 335.193C812.292 334.809 812.292 334.425 812.292 334.041C812.292 333.636 812.292 333.241 812.292 332.857C813.167 332.857 814.052 332.857 814.948 332.857C815.844 332.857 816.719 332.857 817.572 332.857C817.572 333.241 817.572 333.636 817.572 334.041C817.572 334.425 817.572 334.809 817.572 335.193C817.892 335.193 818.223 335.193 818.564 335.193C818.906 335.193 819.236 335.193 819.556 335.193C819.556 335.983 819.556 336.772 819.556 337.561C819.556 338.351 819.556 339.14 819.556 339.929C819.236 339.929 818.906 339.929 818.564 339.929C818.223 339.929 817.892 339.929 817.572 339.929C817.572 340.313 817.572 340.697 817.572 341.081C817.572 341.465 817.572 341.849 817.572 342.233ZM806.724 342.105C806.724 342.724 806.948 343.247 807.396 343.673C807.866 344.079 808.516 344.281 809.348 344.281C810.244 344.281 810.959 344.068 811.492 343.641C812.026 343.193 812.292 342.575 812.292 341.785C812.292 341.487 812.292 341.177 812.292 340.857C812.292 340.537 812.292 340.228 812.292 339.929C810.543 339.929 809.178 340.057 808.196 340.313C807.215 340.569 806.724 341.167 806.724 342.105ZM828.924 348.665C828.924 345.081 828.924 341.455 828.924 337.785C828.924 334.116 828.924 330.489 828.924 326.905C831.079 326.905 833.255 326.905 835.452 326.905C837.65 326.905 839.826 326.905 841.98 326.905C841.98 327.716 841.98 328.548 841.98 329.401C841.98 330.255 841.98 331.087 841.98 331.897C840.743 331.897 839.495 331.897 838.236 331.897C836.999 331.897 835.762 331.897 834.524 331.897C834.524 332.431 834.524 332.964 834.524 333.497C834.524 334.009 834.524 334.532 834.524 335.065C835.655 335.065 836.796 335.065 837.948 335.065C839.1 335.065 840.231 335.065 841.34 335.065C841.34 335.855 841.34 336.655 841.34 337.465C841.34 338.276 841.34 339.087 841.34 339.897C840.231 339.897 839.1 339.897 837.948 339.897C836.796 339.897 835.655 339.897 834.524 339.897C834.524 340.516 834.524 341.145 834.524 341.785C834.524 342.425 834.524 343.055 834.524 343.673C835.762 343.673 836.999 343.673 838.236 343.673C839.495 343.673 840.743 343.673 841.98 343.673C841.98 344.484 841.98 345.316 841.98 346.169C841.98 347.023 841.98 347.855 841.98 348.665C839.826 348.665 837.65 348.665 835.452 348.665C833.255 348.665 831.079 348.665 828.924 348.665ZM856.55 348.665C856.55 348.495 856.55 348.335 856.55 348.185C856.55 348.015 856.55 347.855 856.55 347.705C856.017 348.153 855.409 348.495 854.726 348.729C854.065 348.985 853.35 349.113 852.582 349.113C851.494 349.113 850.47 348.9 849.51 348.473C848.55 348.047 847.697 347.449 846.95 346.681C846.225 345.892 845.649 344.964 845.222 343.897C844.817 342.831 844.614 341.657 844.614 340.377C844.614 339.076 844.817 337.892 845.222 336.825C845.649 335.759 846.225 334.841 846.95 334.073C847.697 333.305 848.55 332.719 849.51 332.313C850.47 331.887 851.484 331.673 852.55 331.673C853.318 331.673 854.044 331.801 854.726 332.057C855.409 332.292 856.017 332.623 856.55 333.049C856.55 331.769 856.55 330.479 856.55 329.177C856.55 327.876 856.55 326.585 856.55 325.305C857.425 325.305 858.31 325.305 859.206 325.305C860.102 325.305 860.977 325.305 861.83 325.305C861.83 329.167 861.83 333.06 861.83 336.985C861.83 340.911 861.83 344.804 861.83 348.665C860.977 348.665 860.102 348.665 859.206 348.665C858.31 348.665 857.425 348.665 856.55 348.665ZM853.286 344.441C854.31 344.441 855.132 344.068 855.75 343.321C856.369 342.575 856.678 341.593 856.678 340.377C856.678 339.161 856.369 338.191 855.75 337.465C855.132 336.719 854.31 336.345 853.286 336.345C852.241 336.345 851.409 336.708 850.79 337.433C850.193 338.159 849.894 339.14 849.894 340.377C849.894 341.615 850.193 342.607 850.79 343.353C851.409 344.079 852.241 344.441 853.286 344.441ZM881.062 345.977C881.062 347.791 880.668 349.305 879.878 350.521C879.11 351.737 878.054 352.644 876.71 353.241C875.366 353.86 873.83 354.18 872.102 354.201C870.396 354.223 868.593 353.967 866.694 353.433C866.694 352.601 866.694 351.759 866.694 350.905C866.694 350.073 866.694 349.241 866.694 348.409C868.38 349.071 869.905 349.401 871.27 349.401C872.636 349.423 873.713 349.167 874.502 348.633C875.313 348.079 875.718 347.321 875.718 346.361C875.718 346.255 875.718 346.159 875.718 346.073C875.718 345.967 875.718 345.871 875.718 345.785C875.185 346.191 874.566 346.511 873.862 346.745C873.158 346.98 872.401 347.097 871.59 347.097C870.246 347.097 869.041 346.788 867.974 346.169C866.929 345.529 866.108 344.655 865.51 343.545C864.913 342.415 864.614 341.103 864.614 339.609C864.614 338.457 864.806 337.401 865.19 336.441C865.574 335.481 866.108 334.649 866.79 333.945C867.473 333.241 868.252 332.708 869.126 332.345C870.001 331.961 870.918 331.769 871.878 331.769C872.646 331.769 873.361 331.876 874.022 332.089C874.684 332.303 875.27 332.591 875.782 332.953C875.782 332.804 875.782 332.665 875.782 332.537C875.782 332.409 875.782 332.271 875.782 332.121C876.657 332.121 877.542 332.121 878.438 332.121C879.334 332.121 880.209 332.121 881.062 332.121C881.062 334.404 881.062 336.719 881.062 339.065C881.062 341.391 881.062 343.695 881.062 345.977ZM872.902 342.521C873.798 342.521 874.513 342.244 875.046 341.689C875.601 341.113 875.878 340.377 875.878 339.481C875.878 338.564 875.601 337.817 875.046 337.241C874.513 336.665 873.798 336.377 872.902 336.377C871.964 336.377 871.217 336.665 870.662 337.241C870.108 337.796 869.83 338.543 869.83 339.481C869.83 340.399 870.108 341.135 870.662 341.689C871.217 342.244 871.964 342.521 872.902 342.521ZM898.813 347.897C897.341 348.516 895.88 348.9 894.429 349.049C892.978 349.199 891.602 349.113 890.301 348.793C889.021 348.495 887.88 347.972 886.877 347.225C885.874 346.479 885.085 345.529 884.509 344.377C883.954 343.225 883.677 341.892 883.677 340.377C883.677 339.119 883.88 337.967 884.285 336.921C884.712 335.855 885.309 334.927 886.077 334.137C886.845 333.327 887.752 332.708 888.797 332.281C889.842 331.833 890.984 331.609 892.221 331.609C893.33 331.609 894.333 331.791 895.229 332.153C896.125 332.516 896.904 333.028 897.565 333.689C898.226 334.329 898.76 335.097 899.165 335.993C899.57 336.889 899.826 337.871 899.933 338.937C900.04 340.004 899.976 341.135 899.741 342.329C897.992 342.329 896.232 342.329 894.461 342.329C892.69 342.329 890.93 342.329 889.181 342.329C889.586 343.14 890.258 343.716 891.197 344.057C892.157 344.399 893.288 344.505 894.589 344.377C895.912 344.249 897.32 343.908 898.813 343.353C898.813 344.1 898.813 344.857 898.813 345.625C898.813 346.393 898.813 347.151 898.813 347.897ZM892.093 336.345C891.474 336.345 890.898 336.516 890.365 336.857C889.853 337.199 889.458 337.721 889.181 338.425C890.141 338.425 891.101 338.425 892.061 338.425C893.042 338.425 894.013 338.425 894.973 338.425C894.717 337.7 894.333 337.177 893.821 336.857C893.33 336.516 892.754 336.345 892.093 336.345Z" fill="#888888"/>
<path d="M653.799 409.01C653.799 405.426 653.799 401.799 653.799 398.13C653.799 394.46 653.799 390.834 653.799 387.25C655.122 387.25 656.445 387.25 657.767 387.25C659.111 387.25 660.434 387.25 661.735 387.25C663.378 387.25 664.807 387.57 666.023 388.21C667.239 388.828 668.189 389.703 668.871 390.834C669.554 391.964 669.895 393.287 669.895 394.802C669.895 396.295 669.554 397.607 668.871 398.738C668.21 399.868 667.293 400.743 666.119 401.362C664.967 401.98 663.655 402.29 662.183 402.29C661.714 402.29 661.245 402.29 660.775 402.29C660.327 402.29 659.869 402.29 659.399 402.29C659.399 403.399 659.399 404.519 659.399 405.65C659.399 406.78 659.399 407.9 659.399 409.01C658.482 409.01 657.554 409.01 656.615 409.01C655.677 409.01 654.738 409.01 653.799 409.01ZM661.735 392.274C661.351 392.274 660.957 392.274 660.551 392.274C660.167 392.274 659.783 392.274 659.399 392.274C659.399 393.127 659.399 393.991 659.399 394.866C659.399 395.719 659.399 396.572 659.399 397.426C659.826 397.426 660.263 397.426 660.711 397.426C661.181 397.426 661.629 397.426 662.055 397.426C662.717 397.426 663.25 397.18 663.655 396.69C664.082 396.199 664.295 395.591 664.295 394.866C664.295 394.119 664.071 393.5 663.623 393.01C663.175 392.519 662.546 392.274 661.735 392.274ZM683.019 409.01C683.019 408.839 683.019 408.679 683.019 408.53C683.019 408.359 683.019 408.199 683.019 408.05C682.486 408.498 681.878 408.839 681.195 409.074C680.534 409.33 679.819 409.458 679.051 409.458C677.963 409.458 676.939 409.255 675.979 408.85C675.019 408.423 674.166 407.826 673.419 407.058C672.694 406.268 672.118 405.34 671.691 404.274C671.286 403.207 671.083 402.023 671.083 400.722C671.083 399.399 671.286 398.204 671.691 397.138C672.118 396.071 672.694 395.164 673.419 394.418C674.166 393.65 675.019 393.063 675.979 392.658C676.939 392.231 677.953 392.018 679.019 392.018C679.787 392.018 680.513 392.146 681.195 392.402C681.878 392.636 682.486 392.967 683.019 393.394C683.019 393.223 683.019 393.063 683.019 392.914C683.019 392.764 683.019 392.615 683.019 392.466C683.894 392.466 684.779 392.466 685.675 392.466C686.571 392.466 687.446 392.466 688.299 392.466C688.299 395.196 688.299 397.959 688.299 400.754C688.299 403.527 688.299 406.279 688.299 409.01C687.446 409.01 686.571 409.01 685.675 409.01C684.779 409.01 683.894 409.01 683.019 409.01ZM679.755 404.786C680.779 404.786 681.601 404.412 682.219 403.666C682.838 402.919 683.147 401.938 683.147 400.722C683.147 399.506 682.838 398.535 682.219 397.81C681.601 397.063 680.779 396.69 679.755 396.69C678.71 396.69 677.878 397.052 677.259 397.778C676.662 398.503 676.363 399.484 676.363 400.722C676.363 401.959 676.662 402.951 677.259 403.698C677.878 404.423 678.71 404.786 679.755 404.786ZM704.463 403.89C704.463 405.212 704.09 406.3 703.343 407.154C702.618 407.986 701.636 408.594 700.399 408.978C699.162 409.362 697.775 409.522 696.239 409.458C694.724 409.415 693.178 409.17 691.599 408.722C691.599 407.911 691.599 407.079 691.599 406.226C691.599 405.372 691.599 404.54 691.599 403.73C692.495 404.135 693.391 404.455 694.287 404.69C695.183 404.903 695.994 405.031 696.719 405.074C697.444 405.116 698.031 405.063 698.479 404.914C698.927 404.743 699.151 404.466 699.151 404.082C699.151 403.783 698.959 403.548 698.575 403.378C698.212 403.207 697.732 403.058 697.135 402.93C696.538 402.78 695.898 402.61 695.215 402.418C694.554 402.204 693.924 401.916 693.327 401.554C692.73 401.17 692.239 400.668 691.855 400.05C691.492 399.41 691.311 398.588 691.311 397.586C691.311 396.391 691.652 395.378 692.335 394.546C693.039 393.692 693.978 393.052 695.151 392.626C696.324 392.178 697.636 391.954 699.087 391.954C700.538 391.954 702.02 392.199 703.535 392.69C703.535 393.5 703.535 394.332 703.535 395.186C703.535 396.039 703.535 396.871 703.535 397.682C702.34 397.106 701.22 396.722 700.175 396.53C699.13 396.338 698.287 396.316 697.647 396.466C697.007 396.594 696.687 396.882 696.687 397.33C696.687 397.628 696.868 397.863 697.231 398.034C697.615 398.183 698.095 398.322 698.671 398.45C699.268 398.578 699.898 398.748 700.559 398.962C701.242 399.175 701.871 399.474 702.447 399.858C703.044 400.22 703.524 400.732 703.887 401.394C704.271 402.034 704.463 402.866 704.463 403.89ZM719.494 403.89C719.494 405.212 719.121 406.3 718.374 407.154C717.649 407.986 716.668 408.594 715.43 408.978C714.193 409.362 712.806 409.522 711.27 409.458C709.756 409.415 708.209 409.17 706.63 408.722C706.63 407.911 706.63 407.079 706.63 406.226C706.63 405.372 706.63 404.54 706.63 403.73C707.526 404.135 708.422 404.455 709.318 404.69C710.214 404.903 711.025 405.031 711.75 405.074C712.476 405.116 713.062 405.063 713.51 404.914C713.958 404.743 714.182 404.466 714.182 404.082C714.182 403.783 713.99 403.548 713.606 403.378C713.244 403.207 712.764 403.058 712.166 402.93C711.569 402.78 710.929 402.61 710.246 402.418C709.585 402.204 708.956 401.916 708.358 401.554C707.761 401.17 707.27 400.668 706.886 400.05C706.524 399.41 706.342 398.588 706.342 397.586C706.342 396.391 706.684 395.378 707.366 394.546C708.07 393.692 709.009 393.052 710.182 392.626C711.356 392.178 712.668 391.954 714.118 391.954C715.569 391.954 717.052 392.199 718.566 392.69C718.566 393.5 718.566 394.332 718.566 395.186C718.566 396.039 718.566 396.871 718.566 397.682C717.372 397.106 716.252 396.722 715.206 396.53C714.161 396.338 713.318 396.316 712.678 396.466C712.038 396.594 711.718 396.882 711.718 397.33C711.718 397.628 711.9 397.863 712.262 398.034C712.646 398.183 713.126 398.322 713.702 398.45C714.3 398.578 714.929 398.748 715.59 398.962C716.273 399.175 716.902 399.474 717.478 399.858C718.076 400.22 718.556 400.732 718.918 401.394C719.302 402.034 719.494 402.866 719.494 403.89ZM724.858 390.578C724.239 390.578 723.674 390.428 723.162 390.13C722.671 389.831 722.276 389.436 721.978 388.946C721.679 388.455 721.53 387.911 721.53 387.314C721.53 386.716 721.679 386.183 721.978 385.714C722.276 385.223 722.671 384.828 723.162 384.53C723.674 384.231 724.239 384.082 724.858 384.082C725.455 384.082 725.999 384.231 726.49 384.53C727.002 384.828 727.407 385.223 727.706 385.714C728.004 386.183 728.154 386.716 728.154 387.314C728.154 387.911 728.004 388.455 727.706 388.946C727.407 389.436 727.002 389.831 726.49 390.13C725.999 390.428 725.455 390.578 724.858 390.578ZM722.202 409.01C722.202 406.279 722.202 403.527 722.202 400.754C722.202 397.959 722.202 395.196 722.202 392.466C723.076 392.466 723.962 392.466 724.858 392.466C725.754 392.466 726.628 392.466 727.482 392.466C727.482 395.196 727.482 397.959 727.482 400.754C727.482 403.527 727.482 406.279 727.482 409.01C726.628 409.01 725.754 409.01 724.858 409.01C723.962 409.01 723.076 409.01 722.202 409.01ZM739.007 409.522C737.769 409.522 736.617 409.308 735.551 408.882C734.484 408.434 733.556 407.815 732.767 407.026C731.977 406.215 731.359 405.276 730.911 404.21C730.484 403.143 730.271 401.98 730.271 400.722C730.271 399.463 730.484 398.3 730.911 397.234C731.359 396.167 731.977 395.239 732.767 394.45C733.556 393.66 734.484 393.052 735.551 392.626C736.617 392.178 737.769 391.954 739.007 391.954C740.265 391.954 741.417 392.178 742.463 392.626C743.529 393.052 744.457 393.66 745.247 394.45C746.036 395.239 746.644 396.167 747.071 397.234C747.519 398.3 747.743 399.463 747.743 400.722C747.743 401.98 747.519 403.143 747.071 404.21C746.644 405.276 746.036 406.215 745.247 407.026C744.457 407.815 743.529 408.434 742.463 408.882C741.417 409.308 740.265 409.522 739.007 409.522ZM739.007 404.754C740.052 404.754 740.884 404.38 741.503 403.634C742.143 402.866 742.463 401.895 742.463 400.722C742.463 399.527 742.143 398.567 741.503 397.842C740.884 397.095 740.052 396.722 739.007 396.722C737.961 396.722 737.119 397.095 736.479 397.842C735.86 398.567 735.551 399.527 735.551 400.722C735.551 401.895 735.86 402.866 736.479 403.634C737.119 404.38 737.961 404.754 739.007 404.754ZM750.354 409.01C750.354 406.279 750.354 403.527 750.354 400.754C750.354 397.959 750.354 395.196 750.354 392.466C751.229 392.466 752.114 392.466 753.01 392.466C753.906 392.466 754.781 392.466 755.634 392.466C755.634 392.615 755.634 392.754 755.634 392.882C755.634 393.01 755.634 393.148 755.634 393.298C756.21 392.892 756.85 392.583 757.554 392.37C758.28 392.135 759.058 392.018 759.89 392.018C761.106 392.018 762.173 392.295 763.09 392.85C764.029 393.404 764.754 394.204 765.266 395.25C765.8 396.274 766.066 397.511 766.066 398.962C766.066 400.626 766.066 402.3 766.066 403.986C766.066 405.671 766.066 407.346 766.066 409.01C765.213 409.01 764.338 409.01 763.442 409.01C762.546 409.01 761.661 409.01 760.786 409.01C760.786 407.474 760.786 405.916 760.786 404.338C760.786 402.759 760.786 401.202 760.786 399.666C760.786 398.812 760.584 398.13 760.178 397.618C759.794 397.084 759.176 396.818 758.322 396.818C757.469 396.818 756.808 397.063 756.338 397.554C755.869 398.044 755.634 398.748 755.634 399.666C755.634 401.202 755.634 402.759 755.634 404.338C755.634 405.916 755.634 407.474 755.634 409.01C754.781 409.01 753.906 409.01 753.01 409.01C752.114 409.01 751.229 409.01 750.354 409.01ZM792.01 402.578C792.01 404.007 791.647 405.244 790.922 406.29C790.218 407.335 789.236 408.146 787.978 408.722C786.719 409.276 785.258 409.554 783.594 409.554C782.036 409.554 780.65 409.308 779.434 408.818C778.239 408.306 777.29 407.58 776.586 406.642C775.903 405.682 775.562 404.551 775.562 403.25C775.562 402.183 775.796 401.202 776.266 400.306C776.756 399.41 777.492 398.642 778.474 398.002C777.684 397.404 777.098 396.711 776.714 395.922C776.351 395.111 776.17 394.226 776.17 393.266C776.17 391.858 776.543 390.684 777.29 389.746C778.058 388.807 779.082 388.103 780.362 387.634C781.642 387.164 783.06 386.919 784.618 386.898C786.175 386.855 787.754 387.036 789.354 387.442C789.354 388.295 789.354 389.159 789.354 390.034C789.354 390.908 789.354 391.783 789.354 392.658C788.458 392.402 787.551 392.22 786.634 392.114C785.738 392.007 784.916 391.996 784.17 392.082C783.423 392.167 782.815 392.348 782.346 392.626C781.898 392.903 781.674 393.298 781.674 393.81C781.674 394.471 782.122 394.93 783.018 395.186C783.914 395.42 785.151 395.538 786.73 395.538C786.73 395.154 786.73 394.77 786.73 394.386C786.73 393.98 786.73 393.586 786.73 393.202C787.604 393.202 788.49 393.202 789.386 393.202C790.282 393.202 791.156 393.202 792.01 393.202C792.01 393.586 792.01 393.98 792.01 394.386C792.01 394.77 792.01 395.154 792.01 395.538C792.33 395.538 792.66 395.538 793.002 395.538C793.343 395.538 793.674 395.538 793.994 395.538C793.994 396.327 793.994 397.116 793.994 397.906C793.994 398.695 793.994 399.484 793.994 400.274C793.674 400.274 793.343 400.274 793.002 400.274C792.66 400.274 792.33 400.274 792.01 400.274C792.01 400.658 792.01 401.042 792.01 401.426C792.01 401.81 792.01 402.194 792.01 402.578ZM781.162 402.45C781.162 403.068 781.386 403.591 781.834 404.018C782.303 404.423 782.954 404.626 783.786 404.626C784.682 404.626 785.396 404.412 785.93 403.986C786.463 403.538 786.73 402.919 786.73 402.13C786.73 401.831 786.73 401.522 786.73 401.202C786.73 400.882 786.73 400.572 786.73 400.274C784.98 400.274 783.615 400.402 782.634 400.658C781.652 400.914 781.162 401.511 781.162 402.45ZM808.066 409.01C808.066 407.708 808.066 406.396 808.066 405.074C808.066 403.751 808.066 402.439 808.066 401.138C806.935 398.855 805.783 396.54 804.61 394.194C803.436 391.847 802.284 389.532 801.154 387.25C802.135 387.25 803.127 387.25 804.13 387.25C805.132 387.25 806.124 387.25 807.106 387.25C807.724 388.551 808.354 389.863 808.994 391.186C809.655 392.487 810.295 393.788 810.914 395.09C811.532 393.788 812.162 392.487 812.802 391.186C813.442 389.863 814.071 388.551 814.69 387.25C815.671 387.25 816.652 387.25 817.634 387.25C818.615 387.25 819.596 387.25 820.578 387.25C819.447 389.532 818.295 391.847 817.122 394.194C815.948 396.54 814.796 398.855 813.666 401.138C813.666 402.439 813.666 403.751 813.666 405.074C813.666 406.396 813.666 407.708 813.666 409.01C812.748 409.01 811.82 409.01 810.882 409.01C809.943 409.01 809.004 409.01 808.066 409.01ZM827.788 409.522C826.551 409.522 825.399 409.308 824.332 408.882C823.265 408.434 822.337 407.815 821.548 407.026C820.759 406.215 820.14 405.276 819.692 404.21C819.265 403.143 819.052 401.98 819.052 400.722C819.052 399.463 819.265 398.3 819.692 397.234C820.14 396.167 820.759 395.239 821.548 394.45C822.337 393.66 823.265 393.052 824.332 392.626C825.399 392.178 826.551 391.954 827.788 391.954C829.047 391.954 830.199 392.178 831.244 392.626C832.311 393.052 833.239 393.66 834.028 394.45C834.817 395.239 835.425 396.167 835.852 397.234C836.3 398.3 836.524 399.463 836.524 400.722C836.524 401.98 836.3 403.143 835.852 404.21C835.425 405.276 834.817 406.215 834.028 407.026C833.239 407.815 832.311 408.434 831.244 408.882C830.199 409.308 829.047 409.522 827.788 409.522ZM827.788 404.754C828.833 404.754 829.665 404.38 830.284 403.634C830.924 402.866 831.244 401.895 831.244 400.722C831.244 399.527 830.924 398.567 830.284 397.842C829.665 397.095 828.833 396.722 827.788 396.722C826.743 396.722 825.9 397.095 825.26 397.842C824.641 398.567 824.332 399.527 824.332 400.722C824.332 401.895 824.641 402.866 825.26 403.634C825.9 404.38 826.743 404.754 827.788 404.754ZM854.591 392.466C854.591 395.196 854.591 397.959 854.591 400.754C854.591 403.527 854.591 406.279 854.591 409.01C853.738 409.01 852.863 409.01 851.967 409.01C851.071 409.01 850.186 409.01 849.311 409.01C849.311 408.86 849.311 408.722 849.311 408.594C849.311 408.466 849.311 408.327 849.311 408.178C848.735 408.583 848.085 408.892 847.359 409.106C846.655 409.34 845.887 409.458 845.055 409.458C843.839 409.458 842.762 409.18 841.823 408.626C840.906 408.071 840.181 407.271 839.647 406.226C839.135 405.18 838.879 403.943 838.879 402.514C838.879 400.85 838.879 399.175 838.879 397.49C838.879 395.804 838.879 394.13 838.879 392.466C839.754 392.466 840.639 392.466 841.535 392.466C842.431 392.466 843.306 392.466 844.159 392.466C844.159 394.002 844.159 395.559 844.159 397.138C844.159 398.716 844.159 400.274 844.159 401.81C844.159 402.663 844.351 403.356 844.735 403.89C845.141 404.402 845.77 404.658 846.623 404.658C847.477 404.658 848.138 404.412 848.607 403.922C849.077 403.431 849.311 402.727 849.311 401.81C849.311 400.274 849.311 398.716 849.311 397.138C849.311 395.559 849.311 394.002 849.311 392.466C850.186 392.466 851.071 392.466 851.967 392.466C852.863 392.466 853.738 392.466 854.591 392.466ZM859.832 409.01C859.832 407.047 859.832 405.074 859.832 403.09C859.832 401.106 859.832 399.143 859.832 397.202C859.406 397.202 858.968 397.202 858.52 397.202C858.094 397.202 857.667 397.202 857.24 397.202C857.24 396.412 857.24 395.623 857.24 394.834C857.24 394.044 857.24 393.255 857.24 392.466C857.667 392.466 858.094 392.466 858.52 392.466C858.968 392.466 859.406 392.466 859.832 392.466C859.832 391.719 859.832 390.983 859.832 390.258C859.832 389.511 859.832 388.775 859.832 388.05C860.707 388.05 861.592 388.05 862.488 388.05C863.384 388.05 864.259 388.05 865.112 388.05C865.112 388.775 865.112 389.511 865.112 390.258C865.112 390.983 865.112 391.719 865.112 392.466C865.603 392.466 866.104 392.466 866.616 392.466C867.128 392.466 867.63 392.466 868.12 392.466C868.12 393.255 868.12 394.044 868.12 394.834C868.12 395.623 868.12 396.412 868.12 397.202C867.63 397.202 867.128 397.202 866.616 397.202C866.104 397.202 865.603 397.202 865.112 397.202C865.112 399.143 865.112 401.106 865.112 403.09C865.112 405.074 865.112 407.047 865.112 409.01C864.259 409.01 863.384 409.01 862.488 409.01C861.592 409.01 860.707 409.01 859.832 409.01ZM870.827 409.01C870.827 405.148 870.827 401.255 870.827 397.33C870.827 393.404 870.827 389.511 870.827 385.65C871.701 385.65 872.587 385.65 873.483 385.65C874.379 385.65 875.253 385.65 876.107 385.65C876.107 386.908 876.107 388.188 876.107 389.49C876.107 390.77 876.107 392.039 876.107 393.298C876.683 392.892 877.323 392.583 878.027 392.37C878.752 392.135 879.531 392.018 880.363 392.018C881.579 392.018 882.645 392.295 883.563 392.85C884.501 393.404 885.227 394.204 885.739 395.25C886.272 396.274 886.539 397.511 886.539 398.962C886.539 400.626 886.539 402.3 886.539 403.986C886.539 405.671 886.539 407.346 886.539 409.01C885.685 409.01 884.811 409.01 883.915 409.01C883.019 409.01 882.133 409.01 881.259 409.01C881.259 407.474 881.259 405.916 881.259 404.338C881.259 402.759 881.259 401.202 881.259 399.666C881.259 398.812 881.056 398.13 880.651 397.618C880.267 397.084 879.648 396.818 878.795 396.818C877.941 396.818 877.28 397.063 876.811 397.554C876.341 398.044 876.107 398.748 876.107 399.666C876.107 401.202 876.107 402.759 876.107 404.338C876.107 405.916 876.107 407.474 876.107 409.01C875.253 409.01 874.379 409.01 873.483 409.01C872.587 409.01 871.701 409.01 870.827 409.01Z" fill="#888888"/>
<path d="M1061.51 301.636C1053.3 288.376 1025.24 274.94 1036.5 289.498C1045.2 300.743 1054.3 302.044 1061.51 301.636Z" stroke="#404040" stroke-width="3.58901"/>
<path d="M1072.04 308.141C1068.46 323.372 1046.12 345.227 1052.19 327.775C1056.87 314.294 1065.08 310.099 1072.04 308.141Z" stroke="#404040" stroke-width="3.58901"/>
<path d="M652.89 305.649L1057.98 307.086" stroke="#404040" stroke-width="3.58901"/>
<ellipse cx="6.15424" cy="11.869" rx="6.15424" ry="11.869" transform="matrix(0.999994 0.00354699 -0.00339759 0.999994 1069.16 275.943)" fill="#E94812"/>
<ellipse cx="6.20072" cy="11.7814" rx="6.20072" ry="11.7814" transform="matrix(0.699381 0.714853 -0.704222 0.709875 1091.83 281.021)" fill="#E94812"/>
<ellipse cx="6.24264" cy="11.7012" rx="6.24264" ry="11.7012" transform="matrix(0.207804 0.978202 -0.976852 0.213768 1069.14 300.931)" fill="#E94812"/>
<ellipse cx="6.22636" cy="11.7324" rx="6.22636" ry="11.7324" transform="matrix(-0.4693 0.882969 -0.877138 -0.480368 1074.59 295.283)" fill="#E94812"/>
<ellipse cx="6.16586" cy="11.8472" rx="6.16586" ry="11.8472" transform="matrix(-0.932565 -0.361141 0.351778 -0.936031 1070.58 334.757)" fill="#E94812"/>
<ellipse cx="6.20072" cy="11.7814" rx="6.20072" ry="11.7814" transform="matrix(-0.704222 0.709875 -0.699381 -0.714853 1098.22 323.007)" fill="#E94812"/>
<ellipse cx="6.24685" cy="11.693" rx="6.24685" ry="11.693" transform="matrix(-0.00339759 0.999994 -0.999994 -0.00354699 1104.77 300.433)" fill="#E94812"/>
<ellipse cx="10.4048" cy="10.5614" rx="10.4048" ry="10.5614" transform="matrix(0.999994 0.00354699 -0.00339759 0.999994 1065.15 294.035)" fill="#FECC73"/>
<path d="M1061.24 361.44C1053.04 348.18 1024.98 334.745 1036.24 349.302C1044.93 360.547 1054.04 361.848 1061.24 361.44Z" stroke="#404040" stroke-width="3.58901"/>
<path d="M1071.77 367.946C1068.19 383.176 1045.86 405.032 1051.92 387.58C1056.61 374.098 1064.82 369.904 1071.77 367.946Z" stroke="#404040" stroke-width="3.58901"/>
<path d="M652.624 365.453L1057.72 366.89" stroke="#404040" stroke-width="3.58901"/>
<ellipse cx="6.15424" cy="11.869" rx="6.15424" ry="11.869" transform="matrix(0.999994 0.00354699 -0.00339759 0.999994 1068.89 335.748)" fill="#E94812"/>
<ellipse cx="6.20072" cy="11.7814" rx="6.20072" ry="11.7814" transform="matrix(0.699381 0.714853 -0.704222 0.709875 1091.56 340.825)" fill="#E94812"/>
<ellipse cx="6.24264" cy="11.7012" rx="6.24264" ry="11.7012" transform="matrix(0.207804 0.978202 -0.976852 0.213768 1068.88 360.735)" fill="#E94812"/>
<ellipse cx="6.22636" cy="11.7324" rx="6.22636" ry="11.7324" transform="matrix(-0.4693 0.882969 -0.877138 -0.480368 1074.33 355.087)" fill="#E94812"/>
<ellipse cx="6.16586" cy="11.8472" rx="6.16586" ry="11.8472" transform="matrix(-0.932565 -0.361141 0.351778 -0.936031 1070.32 394.561)" fill="#E94812"/>
<ellipse cx="6.20072" cy="11.7814" rx="6.20072" ry="11.7814" transform="matrix(-0.704222 0.709875 -0.699381 -0.714853 1097.95 382.812)" fill="#E94812"/>
<ellipse cx="6.24685" cy="11.693" rx="6.24685" ry="11.693" transform="matrix(-0.00339759 0.999994 -0.999994 -0.00354699 1104.5 360.237)" fill="#E94812"/>
<ellipse cx="10.4048" cy="10.5614" rx="10.4048" ry="10.5614" transform="matrix(0.999994 0.00354699 -0.00339759 0.999994 1064.89 353.839)" fill="#FECC73"/>
<path d="M1060.97 421.152C1052.77 407.892 1024.71 394.457 1035.97 409.014C1044.66 420.259 1053.77 421.56 1060.97 421.152Z" stroke="#404040" stroke-width="3.58901"/>
<path d="M1071.5 427.658C1067.92 442.888 1045.58 464.744 1051.65 447.292C1056.34 433.811 1064.55 429.616 1071.5 427.658Z" stroke="#404040" stroke-width="3.58901"/>
<path d="M652.353 425.165L1057.45 426.602" stroke="#404040" stroke-width="3.58901"/>
<ellipse cx="6.15424" cy="11.869" rx="6.15424" ry="11.869" transform="matrix(0.999994 0.00354699 -0.00339759 0.999994 1068.62 395.46)" fill="#E94812"/>
<ellipse cx="6.20072" cy="11.7814" rx="6.20072" ry="11.7814" transform="matrix(0.699381 0.714853 -0.704222 0.709875 1091.29 400.538)" fill="#E94812"/>
<ellipse cx="6.24264" cy="11.7012" rx="6.24264" ry="11.7012" transform="matrix(0.207804 0.978202 -0.976852 0.213768 1068.61 420.448)" fill="#E94812"/>
<ellipse cx="6.22636" cy="11.7324" rx="6.22636" ry="11.7324" transform="matrix(-0.4693 0.882969 -0.877138 -0.480368 1074.06 414.799)" fill="#E94812"/>
<ellipse cx="6.16586" cy="11.8472" rx="6.16586" ry="11.8472" transform="matrix(-0.932565 -0.361141 0.351778 -0.936031 1070.05 454.274)" fill="#E94812"/>
<ellipse cx="6.20072" cy="11.7814" rx="6.20072" ry="11.7814" transform="matrix(-0.704222 0.709875 -0.699381 -0.714853 1097.68 442.524)" fill="#E94812"/>
<ellipse cx="6.24685" cy="11.693" rx="6.24685" ry="11.693" transform="matrix(-0.00339759 0.999994 -0.999994 -0.00354699 1104.23 419.949)" fill="#E94812"/>
<ellipse cx="10.4048" cy="10.5614" rx="10.4048" ry="10.5614" transform="matrix(0.999994 0.00354699 -0.00339759 0.999994 1064.61 413.552)" fill="#FECC73"/>
</svg>
