<svg width="1156" height="642" viewBox="0 0 1156 642" fill="none" xmlns="http://www.w3.org/2000/svg">
<rect x="2" y="639.844" width="637.844" height="1151.32" rx="39" transform="rotate(-90 2 639.844)" fill="#FBF6F2" stroke="#404040" stroke-width="4"/>
<path d="M109.68 113.225C110.661 117.62 111.643 122.079 112.624 126.601C113.605 131.124 114.565 135.604 115.504 140.041C116.485 135.604 117.467 131.124 118.448 126.601C119.472 122.079 120.453 117.62 121.392 113.225C123.056 113.225 124.741 113.225 126.448 113.225C128.155 113.225 129.84 113.225 131.504 113.225C132.528 117.62 133.552 122.057 134.576 126.537C135.6 131.017 136.624 135.476 137.648 139.913C138.629 135.476 139.589 131.017 140.528 126.537C141.509 122.057 142.469 117.62 143.408 113.225C145.115 113.225 146.821 113.225 148.528 113.225C150.277 113.225 152.005 113.225 153.712 113.225C152.133 120.393 150.555 127.647 148.976 134.985C147.397 142.324 145.819 149.577 144.24 156.745C142.149 156.745 140.016 156.745 137.84 156.745C135.707 156.745 133.573 156.745 131.44 156.745C130.544 152.777 129.627 148.788 128.688 144.777C127.749 140.724 126.832 136.713 125.936 132.745C125.083 136.713 124.208 140.724 123.312 144.777C122.416 148.788 121.541 152.777 120.688 156.745C118.597 156.745 116.485 156.745 114.352 156.745C112.261 156.745 110.171 156.745 108.08 156.745C106.501 149.577 104.923 142.324 103.344 134.985C101.765 127.647 100.187 120.393 98.6079 113.225C100.443 113.225 102.277 113.225 104.112 113.225C105.989 113.225 107.845 113.225 109.68 113.225ZM158.488 156.745C158.488 149.023 158.488 141.236 158.488 133.385C158.488 125.535 158.488 117.748 158.488 110.025C160.237 110.025 162.008 110.025 163.8 110.025C165.592 110.025 167.341 110.025 169.048 110.025C169.048 112.543 169.048 115.103 169.048 117.705C169.048 120.265 169.048 122.804 169.048 125.321C170.2 124.511 171.48 123.892 172.888 123.465C174.339 122.996 175.896 122.761 177.56 122.761C179.992 122.761 182.125 123.316 183.96 124.425C185.837 125.535 187.288 127.135 188.312 129.225C189.379 131.273 189.912 133.748 189.912 136.649C189.912 139.977 189.912 143.327 189.912 146.697C189.912 150.068 189.912 153.417 189.912 156.745C188.205 156.745 186.456 156.745 184.664 156.745C182.872 156.745 181.101 156.745 179.352 156.745C179.352 153.673 179.352 150.559 179.352 147.401C179.352 144.244 179.352 141.129 179.352 138.057C179.352 136.351 178.947 134.985 178.136 133.961C177.368 132.895 176.131 132.361 174.424 132.361C172.717 132.361 171.395 132.852 170.456 133.833C169.517 134.815 169.048 136.223 169.048 138.057C169.048 141.129 169.048 144.244 169.048 147.401C169.048 150.559 169.048 153.673 169.048 156.745C167.341 156.745 165.592 156.745 163.8 156.745C162.008 156.745 160.237 156.745 158.488 156.745ZM202.112 119.881C200.875 119.881 199.744 119.583 198.72 118.985C197.739 118.388 196.95 117.599 196.352 116.617C195.755 115.636 195.456 114.548 195.456 113.353C195.456 112.159 195.755 111.092 196.352 110.153C196.95 109.172 197.739 108.383 198.72 107.785C199.744 107.188 200.875 106.889 202.112 106.889C203.307 106.889 204.395 107.188 205.376 107.785C206.4 108.383 207.211 109.172 207.808 110.153C208.406 111.092 208.704 112.159 208.704 113.353C208.704 114.548 208.406 115.636 207.808 116.617C207.211 117.599 206.4 118.388 205.376 118.985C204.395 119.583 203.307 119.881 202.112 119.881ZM196.8 156.745C196.8 151.284 196.8 145.78 196.8 140.233C196.8 134.644 196.8 129.119 196.8 123.657C198.55 123.657 200.32 123.657 202.112 123.657C203.904 123.657 205.654 123.657 207.36 123.657C207.36 129.119 207.36 134.644 207.36 140.233C207.36 145.78 207.36 151.284 207.36 156.745C205.654 156.745 203.904 156.745 202.112 156.745C200.32 156.745 198.55 156.745 196.8 156.745ZM218.186 156.745C218.186 152.82 218.186 148.873 218.186 144.905C218.186 140.937 218.186 137.012 218.186 133.129C217.333 133.129 216.458 133.129 215.562 133.129C214.709 133.129 213.856 133.129 213.002 133.129C213.002 131.551 213.002 129.972 213.002 128.393C213.002 126.815 213.002 125.236 213.002 123.657C213.856 123.657 214.709 123.657 215.562 123.657C216.458 123.657 217.333 123.657 218.186 123.657C218.186 122.164 218.186 120.692 218.186 119.241C218.186 117.748 218.186 116.276 218.186 114.825C219.936 114.825 221.706 114.825 223.498 114.825C225.29 114.825 227.04 114.825 228.746 114.825C228.746 116.276 228.746 117.748 228.746 119.241C228.746 120.692 228.746 122.164 228.746 123.657C229.728 123.657 230.73 123.657 231.754 123.657C232.778 123.657 233.781 123.657 234.762 123.657C234.762 125.236 234.762 126.815 234.762 128.393C234.762 129.972 234.762 131.551 234.762 133.129C233.781 133.129 232.778 133.129 231.754 133.129C230.73 133.129 229.728 133.129 228.746 133.129C228.746 137.012 228.746 140.937 228.746 144.905C228.746 148.873 228.746 152.82 228.746 156.745C227.04 156.745 225.29 156.745 223.498 156.745C221.706 156.745 219.936 156.745 218.186 156.745ZM268.023 155.209C265.079 156.447 262.156 157.215 259.255 157.513C256.354 157.812 253.602 157.641 250.999 157.001C248.439 156.404 246.156 155.359 244.151 153.865C242.146 152.372 240.567 150.473 239.415 148.169C238.306 145.865 237.751 143.199 237.751 140.169C237.751 137.652 238.156 135.348 238.967 133.257C239.82 131.124 241.015 129.268 242.551 127.689C244.087 126.068 245.9 124.831 247.991 123.977C250.082 123.081 252.364 122.633 254.839 122.633C257.058 122.633 259.063 122.996 260.855 123.721C262.647 124.447 264.204 125.471 265.527 126.793C266.85 128.073 267.916 129.609 268.727 131.401C269.538 133.193 270.05 135.156 270.263 137.289C270.476 139.423 270.348 141.684 269.879 144.073C266.38 144.073 262.86 144.073 259.319 144.073C255.778 144.073 252.258 144.073 248.759 144.073C249.57 145.695 250.914 146.847 252.791 147.529C254.711 148.212 256.972 148.425 259.575 148.169C262.22 147.913 265.036 147.231 268.023 146.121C268.023 147.615 268.023 149.129 268.023 150.665C268.023 152.201 268.023 153.716 268.023 155.209ZM254.583 132.105C253.346 132.105 252.194 132.447 251.127 133.129C250.103 133.812 249.314 134.857 248.759 136.265C250.679 136.265 252.599 136.265 254.519 136.265C256.482 136.265 258.423 136.265 260.343 136.265C259.831 134.815 259.063 133.769 258.039 133.129C257.058 132.447 255.906 132.105 254.583 132.105ZM289.933 156.745C289.933 149.577 289.933 142.324 289.933 134.985C289.933 127.647 289.933 120.393 289.933 113.225C292.493 113.225 295.074 113.225 297.677 113.225C300.28 113.225 302.861 113.225 305.421 113.225C308.578 113.225 311.48 113.78 314.125 114.889C316.77 115.956 319.074 117.471 321.037 119.433C323 121.396 324.514 123.7 325.581 126.345C326.69 128.948 327.245 131.807 327.245 134.921C327.245 138.036 326.69 140.916 325.581 143.561C324.514 146.207 323 148.532 321.037 150.537C319.074 152.5 316.77 154.036 314.125 155.145C311.48 156.212 308.578 156.745 305.421 156.745C302.861 156.745 300.28 156.745 297.677 156.745C295.074 156.745 292.493 156.745 289.933 156.745ZM305.421 123.337C304.738 123.337 304.034 123.337 303.309 123.337C302.584 123.337 301.858 123.337 301.133 123.337C301.133 127.177 301.133 131.06 301.133 134.985C301.133 138.911 301.133 142.793 301.133 146.633C301.858 146.633 302.584 146.633 303.309 146.633C304.034 146.633 304.738 146.633 305.421 146.633C307.554 146.633 309.41 146.121 310.989 145.097C312.568 144.073 313.784 142.687 314.637 140.937C315.49 139.145 315.917 137.14 315.917 134.921C315.917 132.703 315.49 130.719 314.637 128.969C313.784 127.22 312.568 125.855 310.989 124.873C309.41 123.849 307.554 123.337 305.421 123.337ZM354.81 156.745C354.81 156.404 354.81 156.084 354.81 155.785C354.81 155.444 354.81 155.124 354.81 154.825C353.744 155.721 352.528 156.404 351.162 156.873C349.84 157.385 348.41 157.641 346.874 157.641C344.698 157.641 342.65 157.236 340.73 156.425C338.81 155.572 337.104 154.377 335.61 152.841C334.16 151.263 333.008 149.407 332.154 147.273C331.344 145.14 330.938 142.772 330.938 140.169C330.938 137.524 331.344 135.135 332.154 133.001C333.008 130.868 334.16 129.055 335.61 127.561C337.104 126.025 338.81 124.852 340.73 124.041C342.65 123.188 344.677 122.761 346.81 122.761C348.346 122.761 349.797 123.017 351.162 123.529C352.528 123.999 353.744 124.66 354.81 125.513C354.81 125.172 354.81 124.852 354.81 124.553C354.81 124.255 354.81 123.956 354.81 123.657C356.56 123.657 358.33 123.657 360.122 123.657C361.914 123.657 363.664 123.657 365.37 123.657C365.37 129.119 365.37 134.644 365.37 140.233C365.37 145.78 365.37 151.284 365.37 156.745C363.664 156.745 361.914 156.745 360.122 156.745C358.33 156.745 356.56 156.745 354.81 156.745ZM348.282 148.297C350.33 148.297 351.973 147.551 353.21 146.057C354.448 144.564 355.066 142.601 355.066 140.169C355.066 137.737 354.448 135.796 353.21 134.345C351.973 132.852 350.33 132.105 348.282 132.105C346.192 132.105 344.528 132.831 343.29 134.281C342.096 135.732 341.498 137.695 341.498 140.169C341.498 142.644 342.096 144.628 343.29 146.121C344.528 147.572 346.192 148.297 348.282 148.297ZM378.05 119.881C376.813 119.881 375.682 119.583 374.658 118.985C373.677 118.388 372.887 117.599 372.29 116.617C371.693 115.636 371.394 114.548 371.394 113.353C371.394 112.159 371.693 111.092 372.29 110.153C372.887 109.172 373.677 108.383 374.658 107.785C375.682 107.188 376.813 106.889 378.05 106.889C379.245 106.889 380.333 107.188 381.314 107.785C382.338 108.383 383.149 109.172 383.746 110.153C384.343 111.092 384.642 112.159 384.642 113.353C384.642 114.548 384.343 115.636 383.746 116.617C383.149 117.599 382.338 118.388 381.314 118.985C380.333 119.583 379.245 119.881 378.05 119.881ZM372.738 156.745C372.738 151.284 372.738 145.78 372.738 140.233C372.738 134.644 372.738 129.119 372.738 123.657C374.487 123.657 376.258 123.657 378.05 123.657C379.842 123.657 381.591 123.657 383.298 123.657C383.298 129.119 383.298 134.644 383.298 140.233C383.298 145.78 383.298 151.284 383.298 156.745C381.591 156.745 379.842 156.745 378.05 156.745C376.258 156.745 374.487 156.745 372.738 156.745ZM415.948 146.505C415.948 149.151 415.201 151.327 413.708 153.033C412.257 154.697 410.295 155.913 407.82 156.681C405.345 157.449 402.572 157.769 399.5 157.641C396.471 157.556 393.377 157.065 390.22 156.169C390.22 154.548 390.22 152.884 390.22 151.177C390.22 149.471 390.22 147.807 390.22 146.185C392.012 146.996 393.804 147.636 395.596 148.105C397.388 148.532 399.009 148.788 400.46 148.873C401.911 148.959 403.084 148.852 403.98 148.553C404.876 148.212 405.324 147.657 405.324 146.889C405.324 146.292 404.94 145.823 404.172 145.481C403.447 145.14 402.487 144.841 401.292 144.585C400.097 144.287 398.817 143.945 397.452 143.561C396.129 143.135 394.871 142.559 393.676 141.833C392.481 141.065 391.5 140.063 390.732 138.825C390.007 137.545 389.644 135.903 389.644 133.897C389.644 131.508 390.327 129.481 391.692 127.817C393.1 126.111 394.977 124.831 397.324 123.977C399.671 123.081 402.295 122.633 405.196 122.633C408.097 122.633 411.063 123.124 414.092 124.105C414.092 125.727 414.092 127.391 414.092 129.097C414.092 130.804 414.092 132.468 414.092 134.089C411.703 132.937 409.463 132.169 407.372 131.785C405.281 131.401 403.596 131.359 402.316 131.657C401.036 131.913 400.396 132.489 400.396 133.385C400.396 133.983 400.759 134.452 401.484 134.793C402.252 135.092 403.212 135.369 404.364 135.625C405.559 135.881 406.817 136.223 408.14 136.649C409.505 137.076 410.764 137.673 411.916 138.441C413.111 139.167 414.071 140.191 414.796 141.513C415.564 142.793 415.948 144.457 415.948 146.505ZM424.115 166.985C424.968 164.724 425.843 162.441 426.739 160.137C427.678 157.876 428.574 155.636 429.427 153.417C427.422 148.511 425.374 143.561 423.283 138.569C421.235 133.535 419.208 128.564 417.203 123.657C419.08 123.657 420.958 123.657 422.835 123.657C424.712 123.657 426.568 123.657 428.403 123.657C429.512 126.388 430.622 129.161 431.731 131.977C432.883 134.793 434.014 137.588 435.123 140.361C436.147 137.588 437.192 134.793 438.259 131.977C439.326 129.161 440.371 126.388 441.395 123.657C443.23 123.657 445.064 123.657 446.899 123.657C448.734 123.657 450.568 123.657 452.403 123.657C449.544 130.783 446.664 138.015 443.763 145.353C440.904 152.649 438.046 159.86 435.187 166.985C433.352 166.985 431.496 166.985 429.619 166.985C427.784 166.985 425.95 166.985 424.115 166.985Z" fill="#404040"/>
<path d="M99.8879 259.657C99.8879 256.073 99.8879 252.446 99.8879 248.777C99.8879 245.107 99.8879 241.481 99.8879 237.897C100.827 237.897 101.765 237.897 102.704 237.897C103.643 237.897 104.571 237.897 105.488 237.897C105.488 241.481 105.488 245.107 105.488 248.777C105.488 252.446 105.488 256.073 105.488 259.657C104.571 259.657 103.643 259.657 102.704 259.657C101.765 259.657 100.827 259.657 99.8879 259.657ZM109.502 259.657C109.502 256.926 109.502 254.174 109.502 251.401C109.502 248.606 109.502 245.843 109.502 243.113C110.376 243.113 111.262 243.113 112.158 243.113C113.054 243.113 113.928 243.113 114.782 243.113C114.782 243.262 114.782 243.401 114.782 243.529C114.782 243.657 114.782 243.795 114.782 243.945C115.358 243.539 115.998 243.23 116.702 243.017C117.427 242.782 118.206 242.665 119.038 242.665C120.254 242.665 121.32 242.942 122.238 243.497C123.176 244.051 123.902 244.851 124.414 245.897C124.947 246.921 125.214 248.158 125.214 249.609C125.214 251.273 125.214 252.947 125.214 254.633C125.214 256.318 125.214 257.993 125.214 259.657C124.36 259.657 123.486 259.657 122.59 259.657C121.694 259.657 120.808 259.657 119.934 259.657C119.934 258.121 119.934 256.563 119.934 254.985C119.934 253.406 119.934 251.849 119.934 250.313C119.934 249.459 119.731 248.777 119.326 248.265C118.942 247.731 118.323 247.465 117.47 247.465C116.616 247.465 115.955 247.71 115.486 248.201C115.016 248.691 114.782 249.395 114.782 250.313C114.782 251.849 114.782 253.406 114.782 254.985C114.782 256.563 114.782 258.121 114.782 259.657C113.928 259.657 113.054 259.657 112.158 259.657C111.262 259.657 110.376 259.657 109.502 259.657ZM146.229 259.657C146.229 259.486 146.229 259.326 146.229 259.177C146.229 259.006 146.229 258.846 146.229 258.697C145.696 259.145 145.088 259.486 144.405 259.721C143.744 259.977 143.029 260.105 142.261 260.105C141.173 260.105 140.149 259.891 139.189 259.465C138.229 259.038 137.376 258.441 136.629 257.673C135.904 256.883 135.328 255.955 134.901 254.889C134.496 253.822 134.293 252.649 134.293 251.369C134.293 250.067 134.496 248.883 134.901 247.817C135.328 246.75 135.904 245.833 136.629 245.065C137.376 244.297 138.229 243.71 139.189 243.305C140.149 242.878 141.163 242.665 142.229 242.665C142.997 242.665 143.723 242.793 144.405 243.049C145.088 243.283 145.696 243.614 146.229 244.041C146.229 242.761 146.229 241.47 146.229 240.169C146.229 238.867 146.229 237.577 146.229 236.297C147.104 236.297 147.989 236.297 148.885 236.297C149.781 236.297 150.656 236.297 151.509 236.297C151.509 240.158 151.509 244.051 151.509 247.977C151.509 251.902 151.509 255.795 151.509 259.657C150.656 259.657 149.781 259.657 148.885 259.657C147.989 259.657 147.104 259.657 146.229 259.657ZM142.965 255.433C143.989 255.433 144.811 255.059 145.429 254.313C146.048 253.566 146.357 252.585 146.357 251.369C146.357 250.153 146.048 249.182 145.429 248.457C144.811 247.71 143.989 247.337 142.965 247.337C141.92 247.337 141.088 247.699 140.469 248.425C139.872 249.15 139.573 250.131 139.573 251.369C139.573 252.606 139.872 253.598 140.469 254.345C141.088 255.07 141.92 255.433 142.965 255.433ZM169.429 258.889C167.957 259.507 166.496 259.891 165.045 260.041C163.595 260.19 162.219 260.105 160.917 259.785C159.637 259.486 158.496 258.963 157.493 258.217C156.491 257.47 155.701 256.521 155.125 255.369C154.571 254.217 154.293 252.883 154.293 251.369C154.293 250.11 154.496 248.958 154.901 247.913C155.328 246.846 155.925 245.918 156.693 245.129C157.461 244.318 158.368 243.699 159.413 243.273C160.459 242.825 161.6 242.601 162.837 242.601C163.947 242.601 164.949 242.782 165.845 243.145C166.741 243.507 167.52 244.019 168.181 244.681C168.843 245.321 169.376 246.089 169.781 246.985C170.187 247.881 170.443 248.862 170.549 249.929C170.656 250.995 170.592 252.126 170.357 253.321C168.608 253.321 166.848 253.321 165.077 253.321C163.307 253.321 161.547 253.321 159.797 253.321C160.203 254.131 160.875 254.707 161.813 255.049C162.773 255.39 163.904 255.497 165.205 255.369C166.528 255.241 167.936 254.899 169.429 254.345C169.429 255.091 169.429 255.849 169.429 256.617C169.429 257.385 169.429 258.142 169.429 258.889ZM162.709 247.337C162.091 247.337 161.515 247.507 160.981 247.849C160.469 248.19 160.075 248.713 159.797 249.417C160.757 249.417 161.717 249.417 162.677 249.417C163.659 249.417 164.629 249.417 165.589 249.417C165.333 248.691 164.949 248.169 164.437 247.849C163.947 247.507 163.371 247.337 162.709 247.337ZM172.325 247.849C172.325 247.059 172.325 246.27 172.325 245.481C172.325 244.691 172.325 243.902 172.325 243.113C172.752 243.113 173.179 243.113 173.605 243.113C174.053 243.113 174.491 243.113 174.917 243.113C174.917 243.006 174.917 242.91 174.917 242.825C174.917 242.739 174.917 242.654 174.917 242.569C174.917 241.139 175.205 239.945 175.781 238.985C176.379 238.003 177.157 237.257 178.117 236.745C179.099 236.211 180.165 235.913 181.317 235.849C182.491 235.763 183.653 235.913 184.805 236.297C184.805 237.086 184.805 237.897 184.805 238.729C184.805 239.561 184.805 240.382 184.805 241.193C183.525 240.766 182.437 240.681 181.541 240.937C180.645 241.193 180.197 241.747 180.197 242.601C180.197 242.686 180.197 242.771 180.197 242.857C180.197 242.942 180.197 243.027 180.197 243.113C180.859 243.113 181.52 243.113 182.181 243.113C182.843 243.113 183.504 243.113 184.165 243.113C184.165 243.902 184.165 244.691 184.165 245.481C184.165 246.27 184.165 247.059 184.165 247.849C183.504 247.849 182.843 247.849 182.181 247.849C181.52 247.849 180.859 247.849 180.197 247.849C180.197 249.79 180.197 251.753 180.197 253.737C180.197 255.721 180.197 257.694 180.197 259.657C179.344 259.657 178.469 259.657 177.573 259.657C176.677 259.657 175.792 259.657 174.917 259.657C174.917 257.694 174.917 255.721 174.917 253.737C174.917 251.753 174.917 249.79 174.917 247.849C174.491 247.849 174.053 247.849 173.605 247.849C173.179 247.849 172.752 247.849 172.325 247.849ZM200.804 258.889C199.332 259.507 197.871 259.891 196.42 260.041C194.97 260.19 193.594 260.105 192.292 259.785C191.012 259.486 189.871 258.963 188.868 258.217C187.866 257.47 187.076 256.521 186.5 255.369C185.946 254.217 185.668 252.883 185.668 251.369C185.668 250.11 185.871 248.958 186.276 247.913C186.703 246.846 187.3 245.918 188.068 245.129C188.836 244.318 189.743 243.699 190.788 243.273C191.834 242.825 192.975 242.601 194.212 242.601C195.322 242.601 196.324 242.782 197.22 243.145C198.116 243.507 198.895 244.019 199.556 244.681C200.218 245.321 200.751 246.089 201.156 246.985C201.562 247.881 201.818 248.862 201.924 249.929C202.031 250.995 201.967 252.126 201.732 253.321C199.983 253.321 198.223 253.321 196.452 253.321C194.682 253.321 192.922 253.321 191.172 253.321C191.578 254.131 192.25 254.707 193.188 255.049C194.148 255.39 195.279 255.497 196.58 255.369C197.903 255.241 199.311 254.899 200.804 254.345C200.804 255.091 200.804 255.849 200.804 256.617C200.804 257.385 200.804 258.142 200.804 258.889ZM194.084 247.337C193.466 247.337 192.89 247.507 192.356 247.849C191.844 248.19 191.45 248.713 191.172 249.417C192.132 249.417 193.092 249.417 194.052 249.417C195.034 249.417 196.004 249.417 196.964 249.417C196.708 248.691 196.324 248.169 195.812 247.849C195.322 247.507 194.746 247.337 194.084 247.337ZM204.72 259.657C204.72 256.926 204.72 254.174 204.72 251.401C204.72 248.606 204.72 245.843 204.72 243.113C205.595 243.113 206.48 243.113 207.376 243.113C208.272 243.113 209.147 243.113 210 243.113C210 243.262 210 243.401 210 243.529C210 243.657 210 243.795 210 243.945C210.576 243.539 211.216 243.23 211.92 243.017C212.646 242.782 213.424 242.665 214.256 242.665C215.472 242.665 216.539 242.942 217.456 243.497C218.395 244.051 219.12 244.851 219.632 245.897C220.166 246.921 220.432 248.158 220.432 249.609C220.432 251.273 220.432 252.947 220.432 254.633C220.432 256.318 220.432 257.993 220.432 259.657C219.579 259.657 218.704 259.657 217.808 259.657C216.912 259.657 216.027 259.657 215.152 259.657C215.152 258.121 215.152 256.563 215.152 254.985C215.152 253.406 215.152 251.849 215.152 250.313C215.152 249.459 214.95 248.777 214.544 248.265C214.16 247.731 213.542 247.465 212.688 247.465C211.835 247.465 211.174 247.71 210.704 248.201C210.235 248.691 210 249.395 210 250.313C210 251.849 210 253.406 210 254.985C210 256.563 210 258.121 210 259.657C209.147 259.657 208.272 259.657 207.376 259.657C206.48 259.657 205.595 259.657 204.72 259.657ZM236.329 254.537C236.329 255.859 235.956 256.947 235.209 257.801C234.484 258.633 233.503 259.241 232.265 259.625C231.028 260.009 229.641 260.169 228.105 260.105C226.591 260.062 225.044 259.817 223.465 259.369C223.465 258.558 223.465 257.726 223.465 256.873C223.465 256.019 223.465 255.187 223.465 254.377C224.361 254.782 225.257 255.102 226.153 255.337C227.049 255.55 227.86 255.678 228.585 255.721C229.311 255.763 229.897 255.71 230.345 255.561C230.793 255.39 231.017 255.113 231.017 254.729C231.017 254.43 230.825 254.195 230.441 254.025C230.079 253.854 229.599 253.705 229.001 253.577C228.404 253.427 227.764 253.257 227.081 253.065C226.42 252.851 225.791 252.563 225.193 252.201C224.596 251.817 224.105 251.315 223.721 250.697C223.359 250.057 223.177 249.235 223.177 248.233C223.177 247.038 223.519 246.025 224.201 245.193C224.905 244.339 225.844 243.699 227.017 243.273C228.191 242.825 229.503 242.601 230.953 242.601C232.404 242.601 233.887 242.846 235.401 243.337C235.401 244.147 235.401 244.979 235.401 245.833C235.401 246.686 235.401 247.518 235.401 248.329C234.207 247.753 233.087 247.369 232.041 247.177C230.996 246.985 230.153 246.963 229.513 247.113C228.873 247.241 228.553 247.529 228.553 247.977C228.553 248.275 228.735 248.51 229.097 248.681C229.481 248.83 229.961 248.969 230.537 249.097C231.135 249.225 231.764 249.395 232.425 249.609C233.108 249.822 233.737 250.121 234.313 250.505C234.911 250.867 235.391 251.379 235.753 252.041C236.137 252.681 236.329 253.513 236.329 254.537ZM253.117 258.889C251.645 259.507 250.183 259.891 248.733 260.041C247.282 260.19 245.906 260.105 244.605 259.785C243.325 259.486 242.183 258.963 241.181 258.217C240.178 257.47 239.389 256.521 238.813 255.369C238.258 254.217 237.981 252.883 237.981 251.369C237.981 250.11 238.183 248.958 238.589 247.913C239.015 246.846 239.613 245.918 240.381 245.129C241.149 244.318 242.055 243.699 243.101 243.273C244.146 242.825 245.287 242.601 246.525 242.601C247.634 242.601 248.637 242.782 249.533 243.145C250.429 243.507 251.207 244.019 251.869 244.681C252.53 245.321 253.063 246.089 253.469 246.985C253.874 247.881 254.13 248.862 254.237 249.929C254.343 250.995 254.279 252.126 254.045 253.321C252.295 253.321 250.535 253.321 248.765 253.321C246.994 253.321 245.234 253.321 243.485 253.321C243.89 254.131 244.562 254.707 245.501 255.049C246.461 255.39 247.591 255.497 248.893 255.369C250.215 255.241 251.623 254.899 253.117 254.345C253.117 255.091 253.117 255.849 253.117 256.617C253.117 257.385 253.117 258.142 253.117 258.889ZM246.397 247.337C245.778 247.337 245.202 247.507 244.669 247.849C244.157 248.19 243.762 248.713 243.485 249.417C244.445 249.417 245.405 249.417 246.365 249.417C247.346 249.417 248.317 249.417 249.277 249.417C249.021 248.691 248.637 248.169 248.125 247.849C247.634 247.507 247.058 247.337 246.397 247.337ZM257.193 259.657C257.193 255.795 257.193 251.902 257.193 247.977C257.193 244.051 257.193 240.158 257.193 236.297C258.068 236.297 258.953 236.297 259.849 236.297C260.745 236.297 261.62 236.297 262.473 236.297C262.473 240.158 262.473 244.051 262.473 247.977C262.473 251.902 262.473 255.795 262.473 259.657C261.62 259.657 260.745 259.657 259.849 259.657C258.953 259.657 258.068 259.657 257.193 259.657ZM280.398 258.889C278.926 259.507 277.465 259.891 276.014 260.041C274.563 260.19 273.187 260.105 271.886 259.785C270.606 259.486 269.465 258.963 268.462 258.217C267.459 257.47 266.67 256.521 266.094 255.369C265.539 254.217 265.262 252.883 265.262 251.369C265.262 250.11 265.465 248.958 265.87 247.913C266.297 246.846 266.894 245.918 267.662 245.129C268.43 244.318 269.337 243.699 270.382 243.273C271.427 242.825 272.569 242.601 273.806 242.601C274.915 242.601 275.918 242.782 276.814 243.145C277.71 243.507 278.489 244.019 279.15 244.681C279.811 245.321 280.345 246.089 280.75 246.985C281.155 247.881 281.411 248.862 281.518 249.929C281.625 250.995 281.561 252.126 281.326 253.321C279.577 253.321 277.817 253.321 276.046 253.321C274.275 253.321 272.515 253.321 270.766 253.321C271.171 254.131 271.843 254.707 272.782 255.049C273.742 255.39 274.873 255.497 276.174 255.369C277.497 255.241 278.905 254.899 280.398 254.345C280.398 255.091 280.398 255.849 280.398 256.617C280.398 257.385 280.398 258.142 280.398 258.889ZM273.678 247.337C273.059 247.337 272.483 247.507 271.95 247.849C271.438 248.19 271.043 248.713 270.766 249.417C271.726 249.417 272.686 249.417 273.646 249.417C274.627 249.417 275.598 249.417 276.558 249.417C276.302 248.691 275.918 248.169 275.406 247.849C274.915 247.507 274.339 247.337 273.678 247.337ZM296.954 254.537C296.954 255.859 296.581 256.947 295.834 257.801C295.109 258.633 294.128 259.241 292.89 259.625C291.653 260.009 290.266 260.169 288.73 260.105C287.216 260.062 285.669 259.817 284.09 259.369C284.09 258.558 284.09 257.726 284.09 256.873C284.09 256.019 284.09 255.187 284.09 254.377C284.986 254.782 285.882 255.102 286.778 255.337C287.674 255.55 288.485 255.678 289.21 255.721C289.936 255.763 290.522 255.71 290.97 255.561C291.418 255.39 291.642 255.113 291.642 254.729C291.642 254.43 291.45 254.195 291.066 254.025C290.704 253.854 290.224 253.705 289.626 253.577C289.029 253.427 288.389 253.257 287.706 253.065C287.045 252.851 286.416 252.563 285.818 252.201C285.221 251.817 284.73 251.315 284.346 250.697C283.984 250.057 283.802 249.235 283.802 248.233C283.802 247.038 284.144 246.025 284.826 245.193C285.53 244.339 286.469 243.699 287.642 243.273C288.816 242.825 290.128 242.601 291.578 242.601C293.029 242.601 294.512 242.846 296.026 243.337C296.026 244.147 296.026 244.979 296.026 245.833C296.026 246.686 296.026 247.518 296.026 248.329C294.832 247.753 293.712 247.369 292.666 247.177C291.621 246.985 290.778 246.963 290.138 247.113C289.498 247.241 289.178 247.529 289.178 247.977C289.178 248.275 289.36 248.51 289.722 248.681C290.106 248.83 290.586 248.969 291.162 249.097C291.76 249.225 292.389 249.395 293.05 249.609C293.733 249.822 294.362 250.121 294.938 250.505C295.536 250.867 296.016 251.379 296.378 252.041C296.762 252.681 296.954 253.513 296.954 254.537ZM311.985 254.537C311.985 255.859 311.612 256.947 310.865 257.801C310.14 258.633 309.159 259.241 307.921 259.625C306.684 260.009 305.297 260.169 303.761 260.105C302.247 260.062 300.7 259.817 299.121 259.369C299.121 258.558 299.121 257.726 299.121 256.873C299.121 256.019 299.121 255.187 299.121 254.377C300.017 254.782 300.913 255.102 301.809 255.337C302.705 255.55 303.516 255.678 304.241 255.721C304.967 255.763 305.553 255.71 306.001 255.561C306.449 255.39 306.673 255.113 306.673 254.729C306.673 254.43 306.481 254.195 306.097 254.025C305.735 253.854 305.255 253.705 304.657 253.577C304.06 253.427 303.42 253.257 302.737 253.065C302.076 252.851 301.447 252.563 300.849 252.201C300.252 251.817 299.761 251.315 299.377 250.697C299.015 250.057 298.833 249.235 298.833 248.233C298.833 247.038 299.175 246.025 299.857 245.193C300.561 244.339 301.5 243.699 302.673 243.273C303.847 242.825 305.159 242.601 306.609 242.601C308.06 242.601 309.543 242.846 311.057 243.337C311.057 244.147 311.057 244.979 311.057 245.833C311.057 246.686 311.057 247.518 311.057 248.329C309.863 247.753 308.743 247.369 307.697 247.177C306.652 246.985 305.809 246.963 305.169 247.113C304.529 247.241 304.209 247.529 304.209 247.977C304.209 248.275 304.391 248.51 304.753 248.681C305.137 248.83 305.617 248.969 306.193 249.097C306.791 249.225 307.42 249.395 308.081 249.609C308.764 249.822 309.393 250.121 309.969 250.505C310.567 250.867 311.047 251.379 311.409 252.041C311.793 252.681 311.985 253.513 311.985 254.537ZM102.224 296.225C101.605 296.225 101.04 296.075 100.528 295.777C100.037 295.478 99.6426 295.083 99.3439 294.593C99.0453 294.102 98.8959 293.558 98.8959 292.961C98.8959 292.363 99.0453 291.83 99.3439 291.361C99.6426 290.87 100.037 290.475 100.528 290.177C101.04 289.878 101.605 289.729 102.224 289.729C102.821 289.729 103.365 289.878 103.856 290.177C104.368 290.475 104.773 290.87 105.072 291.361C105.371 291.83 105.52 292.363 105.52 292.961C105.52 293.558 105.371 294.102 105.072 294.593C104.773 295.083 104.368 295.478 103.856 295.777C103.365 296.075 102.821 296.225 102.224 296.225ZM99.5679 314.657C99.5679 311.926 99.5679 309.174 99.5679 306.401C99.5679 303.606 99.5679 300.843 99.5679 298.113C100.443 298.113 101.328 298.113 102.224 298.113C103.12 298.113 103.995 298.113 104.848 298.113C104.848 300.843 104.848 303.606 104.848 306.401C104.848 309.174 104.848 311.926 104.848 314.657C103.995 314.657 103.12 314.657 102.224 314.657C101.328 314.657 100.443 314.657 99.5679 314.657ZM108.533 314.657C108.533 311.926 108.533 309.174 108.533 306.401C108.533 303.606 108.533 300.843 108.533 298.113C109.408 298.113 110.293 298.113 111.189 298.113C112.085 298.113 112.96 298.113 113.813 298.113C113.813 298.262 113.813 298.401 113.813 298.529C113.813 298.657 113.813 298.795 113.813 298.945C114.389 298.539 115.029 298.23 115.733 298.017C116.458 297.782 117.237 297.665 118.069 297.665C119.285 297.665 120.352 297.942 121.269 298.497C122.208 299.051 122.933 299.851 123.445 300.897C123.978 301.921 124.245 303.158 124.245 304.609C124.245 306.273 124.245 307.947 124.245 309.633C124.245 311.318 124.245 312.993 124.245 314.657C123.392 314.657 122.517 314.657 121.621 314.657C120.725 314.657 119.84 314.657 118.965 314.657C118.965 313.121 118.965 311.563 118.965 309.985C118.965 308.406 118.965 306.849 118.965 305.313C118.965 304.459 118.762 303.777 118.357 303.265C117.973 302.731 117.354 302.465 116.501 302.465C115.648 302.465 114.986 302.71 114.517 303.201C114.048 303.691 113.813 304.395 113.813 305.313C113.813 306.849 113.813 308.406 113.813 309.985C113.813 311.563 113.813 313.121 113.813 314.657C112.96 314.657 112.085 314.657 111.189 314.657C110.293 314.657 109.408 314.657 108.533 314.657ZM127.502 314.657C127.502 311.926 127.502 309.174 127.502 306.401C127.502 303.606 127.502 300.843 127.502 298.113C128.376 298.113 129.262 298.113 130.158 298.113C131.054 298.113 131.928 298.113 132.782 298.113C132.782 298.262 132.782 298.401 132.782 298.529C132.782 298.657 132.782 298.795 132.782 298.945C133.358 298.539 133.998 298.23 134.702 298.017C135.427 297.782 136.206 297.665 137.038 297.665C138.254 297.665 139.32 297.942 140.238 298.497C141.176 299.051 141.902 299.851 142.414 300.897C142.947 301.921 143.214 303.158 143.214 304.609C143.214 306.273 143.214 307.947 143.214 309.633C143.214 311.318 143.214 312.993 143.214 314.657C142.36 314.657 141.486 314.657 140.59 314.657C139.694 314.657 138.808 314.657 137.934 314.657C137.934 313.121 137.934 311.563 137.934 309.985C137.934 308.406 137.934 306.849 137.934 305.313C137.934 304.459 137.731 303.777 137.326 303.265C136.942 302.731 136.323 302.465 135.47 302.465C134.616 302.465 133.955 302.71 133.486 303.201C133.016 303.691 132.782 304.395 132.782 305.313C132.782 306.849 132.782 308.406 132.782 309.985C132.782 311.563 132.782 313.121 132.782 314.657C131.928 314.657 131.054 314.657 130.158 314.657C129.262 314.657 128.376 314.657 127.502 314.657ZM154.31 315.169C153.073 315.169 151.921 314.955 150.854 314.529C149.788 314.081 148.86 313.462 148.07 312.673C147.281 311.862 146.662 310.923 146.214 309.857C145.788 308.79 145.574 307.627 145.574 306.369C145.574 305.11 145.788 303.947 146.214 302.881C146.662 301.814 147.281 300.886 148.07 300.097C148.86 299.307 149.788 298.699 150.854 298.273C151.921 297.825 153.073 297.601 154.31 297.601C155.569 297.601 156.721 297.825 157.766 298.273C158.833 298.699 159.761 299.307 160.55 300.097C161.34 300.886 161.948 301.814 162.374 302.881C162.822 303.947 163.046 305.11 163.046 306.369C163.046 307.627 162.822 308.79 162.374 309.857C161.948 310.923 161.34 311.862 160.55 312.673C159.761 313.462 158.833 314.081 157.766 314.529C156.721 314.955 155.569 315.169 154.31 315.169ZM154.31 310.401C155.356 310.401 156.188 310.027 156.806 309.281C157.446 308.513 157.766 307.542 157.766 306.369C157.766 305.174 157.446 304.214 156.806 303.489C156.188 302.742 155.356 302.369 154.31 302.369C153.265 302.369 152.422 302.742 151.782 303.489C151.164 304.214 150.854 305.174 150.854 306.369C150.854 307.542 151.164 308.513 151.782 309.281C152.422 310.027 153.265 310.401 154.31 310.401ZM164.762 306.369C164.762 304.747 165.093 303.329 165.754 302.113C166.415 300.875 167.333 299.883 168.506 299.137C169.679 298.39 171.045 297.942 172.602 297.793C174.159 297.622 175.823 297.803 177.594 298.337C177.594 299.147 177.594 299.969 177.594 300.801C177.594 301.633 177.594 302.454 177.594 303.265C176.357 302.667 175.173 302.39 174.042 302.433C172.911 302.475 171.983 302.827 171.258 303.489C170.533 304.129 170.17 305.089 170.17 306.369C170.17 307.649 170.533 308.619 171.258 309.281C171.983 309.921 172.911 310.262 174.042 310.305C175.173 310.326 176.357 310.049 177.594 309.473C177.594 310.283 177.594 311.105 177.594 311.937C177.594 312.769 177.594 313.59 177.594 314.401C175.823 314.934 174.159 315.115 172.602 314.945C171.045 314.795 169.679 314.347 168.506 313.601C167.333 312.854 166.415 311.873 165.754 310.657C165.093 309.419 164.762 307.99 164.762 306.369ZM194.96 313.889C193.488 314.507 192.027 314.891 190.576 315.041C189.126 315.19 187.75 315.105 186.448 314.785C185.168 314.486 184.027 313.963 183.024 313.217C182.022 312.47 181.232 311.521 180.656 310.369C180.102 309.217 179.824 307.883 179.824 306.369C179.824 305.11 180.027 303.958 180.432 302.913C180.859 301.846 181.456 300.918 182.224 300.129C182.992 299.318 183.899 298.699 184.944 298.273C185.99 297.825 187.131 297.601 188.368 297.601C189.478 297.601 190.48 297.782 191.376 298.145C192.272 298.507 193.051 299.019 193.712 299.681C194.374 300.321 194.907 301.089 195.312 301.985C195.718 302.881 195.974 303.862 196.08 304.929C196.187 305.995 196.123 307.126 195.888 308.321C194.139 308.321 192.379 308.321 190.608 308.321C188.838 308.321 187.078 308.321 185.328 308.321C185.734 309.131 186.406 309.707 187.344 310.049C188.304 310.39 189.435 310.497 190.736 310.369C192.059 310.241 193.467 309.899 194.96 309.345C194.96 310.091 194.96 310.849 194.96 311.617C194.96 312.385 194.96 313.142 194.96 313.889ZM188.24 302.337C187.622 302.337 187.046 302.507 186.512 302.849C186 303.19 185.606 303.713 185.328 304.417C186.288 304.417 187.248 304.417 188.208 304.417C189.19 304.417 190.16 304.417 191.12 304.417C190.864 303.691 190.48 303.169 189.968 302.849C189.478 302.507 188.902 302.337 188.24 302.337ZM198.877 314.657C198.877 311.926 198.877 309.174 198.877 306.401C198.877 303.606 198.877 300.843 198.877 298.113C199.751 298.113 200.637 298.113 201.533 298.113C202.429 298.113 203.303 298.113 204.157 298.113C204.157 298.262 204.157 298.401 204.157 298.529C204.157 298.657 204.157 298.795 204.157 298.945C204.733 298.539 205.373 298.23 206.077 298.017C206.802 297.782 207.581 297.665 208.413 297.665C209.629 297.665 210.695 297.942 211.613 298.497C212.551 299.051 213.277 299.851 213.789 300.897C214.322 301.921 214.589 303.158 214.589 304.609C214.589 306.273 214.589 307.947 214.589 309.633C214.589 311.318 214.589 312.993 214.589 314.657C213.735 314.657 212.861 314.657 211.965 314.657C211.069 314.657 210.183 314.657 209.309 314.657C209.309 313.121 209.309 311.563 209.309 309.985C209.309 308.406 209.309 306.849 209.309 305.313C209.309 304.459 209.106 303.777 208.701 303.265C208.317 302.731 207.698 302.465 206.845 302.465C205.991 302.465 205.33 302.71 204.861 303.201C204.391 303.691 204.157 304.395 204.157 305.313C204.157 306.849 204.157 308.406 204.157 309.985C204.157 311.563 204.157 313.121 204.157 314.657C203.303 314.657 202.429 314.657 201.533 314.657C200.637 314.657 199.751 314.657 198.877 314.657ZM216.949 306.369C216.949 304.747 217.28 303.329 217.941 302.113C218.603 300.875 219.52 299.883 220.693 299.137C221.867 298.39 223.232 297.942 224.789 297.793C226.347 297.622 228.011 297.803 229.781 298.337C229.781 299.147 229.781 299.969 229.781 300.801C229.781 301.633 229.781 302.454 229.781 303.265C228.544 302.667 227.36 302.39 226.229 302.433C225.099 302.475 224.171 302.827 223.445 303.489C222.72 304.129 222.357 305.089 222.357 306.369C222.357 307.649 222.72 308.619 223.445 309.281C224.171 309.921 225.099 310.262 226.229 310.305C227.36 310.326 228.544 310.049 229.781 309.473C229.781 310.283 229.781 311.105 229.781 311.937C229.781 312.769 229.781 313.59 229.781 314.401C228.011 314.934 226.347 315.115 224.789 314.945C223.232 314.795 221.867 314.347 220.693 313.601C219.52 312.854 218.603 311.873 217.941 310.657C217.28 309.419 216.949 307.99 216.949 306.369ZM247.148 313.889C245.676 314.507 244.215 314.891 242.764 315.041C241.313 315.19 239.937 315.105 238.636 314.785C237.356 314.486 236.215 313.963 235.212 313.217C234.209 312.47 233.42 311.521 232.844 310.369C232.289 309.217 232.012 307.883 232.012 306.369C232.012 305.11 232.215 303.958 232.62 302.913C233.047 301.846 233.644 300.918 234.412 300.129C235.18 299.318 236.087 298.699 237.132 298.273C238.177 297.825 239.319 297.601 240.556 297.601C241.665 297.601 242.668 297.782 243.564 298.145C244.46 298.507 245.239 299.019 245.9 299.681C246.561 300.321 247.095 301.089 247.5 301.985C247.905 302.881 248.161 303.862 248.268 304.929C248.375 305.995 248.311 307.126 248.076 308.321C246.327 308.321 244.567 308.321 242.796 308.321C241.025 308.321 239.265 308.321 237.516 308.321C237.921 309.131 238.593 309.707 239.532 310.049C240.492 310.39 241.623 310.497 242.924 310.369C244.247 310.241 245.655 309.899 247.148 309.345C247.148 310.091 247.148 310.849 247.148 311.617C247.148 312.385 247.148 313.142 247.148 313.889ZM240.428 302.337C239.809 302.337 239.233 302.507 238.7 302.849C238.188 303.19 237.793 303.713 237.516 304.417C238.476 304.417 239.436 304.417 240.396 304.417C241.377 304.417 242.348 304.417 243.308 304.417C243.052 303.691 242.668 303.169 242.156 302.849C241.665 302.507 241.089 302.337 240.428 302.337ZM249.888 317.889C250.144 316.395 250.4 314.891 250.656 313.377C250.933 311.862 251.2 310.358 251.456 308.865C252.352 308.865 253.248 308.865 254.144 308.865C255.061 308.865 255.968 308.865 256.864 308.865C256.48 310.358 256.085 311.862 255.68 313.377C255.274 314.891 254.88 316.395 254.496 317.889C253.728 317.889 252.96 317.889 252.192 317.889C251.424 317.889 250.656 317.889 249.888 317.889ZM268.698 314.657C268.698 312.694 268.698 310.721 268.698 308.737C268.698 306.753 268.698 304.79 268.698 302.849C268.272 302.849 267.834 302.849 267.386 302.849C266.96 302.849 266.533 302.849 266.106 302.849C266.106 302.059 266.106 301.27 266.106 300.481C266.106 299.691 266.106 298.902 266.106 298.113C266.533 298.113 266.96 298.113 267.386 298.113C267.834 298.113 268.272 298.113 268.698 298.113C268.698 297.366 268.698 296.63 268.698 295.905C268.698 295.158 268.698 294.422 268.698 293.697C269.573 293.697 270.458 293.697 271.354 293.697C272.25 293.697 273.125 293.697 273.978 293.697C273.978 294.422 273.978 295.158 273.978 295.905C273.978 296.63 273.978 297.366 273.978 298.113C274.469 298.113 274.97 298.113 275.482 298.113C275.994 298.113 276.496 298.113 276.986 298.113C276.986 298.902 276.986 299.691 276.986 300.481C276.986 301.27 276.986 302.059 276.986 302.849C276.496 302.849 275.994 302.849 275.482 302.849C274.97 302.849 274.469 302.849 273.978 302.849C273.978 304.79 273.978 306.753 273.978 308.737C273.978 310.721 273.978 312.694 273.978 314.657C273.125 314.657 272.25 314.657 271.354 314.657C270.458 314.657 269.573 314.657 268.698 314.657ZM279.693 314.657C279.693 310.795 279.693 306.902 279.693 302.977C279.693 299.051 279.693 295.158 279.693 291.297C280.568 291.297 281.453 291.297 282.349 291.297C283.245 291.297 284.12 291.297 284.973 291.297C284.973 292.555 284.973 293.835 284.973 295.137C284.973 296.417 284.973 297.686 284.973 298.945C285.549 298.539 286.189 298.23 286.893 298.017C287.618 297.782 288.397 297.665 289.229 297.665C290.445 297.665 291.512 297.942 292.429 298.497C293.368 299.051 294.093 299.851 294.605 300.897C295.138 301.921 295.405 303.158 295.405 304.609C295.405 306.273 295.405 307.947 295.405 309.633C295.405 311.318 295.405 312.993 295.405 314.657C294.552 314.657 293.677 314.657 292.781 314.657C291.885 314.657 291 314.657 290.125 314.657C290.125 313.121 290.125 311.563 290.125 309.985C290.125 308.406 290.125 306.849 290.125 305.313C290.125 304.459 289.922 303.777 289.517 303.265C289.133 302.731 288.514 302.465 287.661 302.465C286.808 302.465 286.146 302.71 285.677 303.201C285.208 303.691 284.973 304.395 284.973 305.313C284.973 306.849 284.973 308.406 284.973 309.985C284.973 311.563 284.973 313.121 284.973 314.657C284.12 314.657 283.245 314.657 282.349 314.657C281.453 314.657 280.568 314.657 279.693 314.657ZM312.929 313.889C311.457 314.507 309.996 314.891 308.545 315.041C307.095 315.19 305.719 315.105 304.417 314.785C303.137 314.486 301.996 313.963 300.993 313.217C299.991 312.47 299.201 311.521 298.625 310.369C298.071 309.217 297.793 307.883 297.793 306.369C297.793 305.11 297.996 303.958 298.401 302.913C298.828 301.846 299.425 300.918 300.193 300.129C300.961 299.318 301.868 298.699 302.913 298.273C303.959 297.825 305.1 297.601 306.337 297.601C307.447 297.601 308.449 297.782 309.345 298.145C310.241 298.507 311.02 299.019 311.681 299.681C312.343 300.321 312.876 301.089 313.281 301.985C313.687 302.881 313.943 303.862 314.049 304.929C314.156 305.995 314.092 307.126 313.857 308.321C312.108 308.321 310.348 308.321 308.577 308.321C306.807 308.321 305.047 308.321 303.297 308.321C303.703 309.131 304.375 309.707 305.313 310.049C306.273 310.39 307.404 310.497 308.705 310.369C310.028 310.241 311.436 309.899 312.929 309.345C312.929 310.091 312.929 310.849 312.929 311.617C312.929 312.385 312.929 313.142 312.929 313.889ZM306.209 302.337C305.591 302.337 305.015 302.507 304.481 302.849C303.969 303.19 303.575 303.713 303.297 304.417C304.257 304.417 305.217 304.417 306.177 304.417C307.159 304.417 308.129 304.417 309.089 304.417C308.833 303.691 308.449 303.169 307.937 302.849C307.447 302.507 306.871 302.337 306.209 302.337ZM328.844 319.777C327.991 319.777 327.116 319.777 326.22 319.777C325.324 319.777 324.439 319.777 323.564 319.777C323.564 316.214 323.564 312.609 323.564 308.961C323.564 305.291 323.564 301.675 323.564 298.113C324.439 298.113 325.324 298.113 326.22 298.113C327.116 298.113 327.991 298.113 328.844 298.113C328.844 298.262 328.844 298.411 328.844 298.561C328.844 298.71 328.844 298.87 328.844 299.041C329.378 298.614 329.986 298.283 330.668 298.049C331.351 297.793 332.076 297.665 332.844 297.665C333.911 297.665 334.924 297.878 335.884 298.305C336.844 298.71 337.687 299.297 338.412 300.065C339.159 300.833 339.735 301.75 340.14 302.817C340.567 303.883 340.78 305.067 340.78 306.369C340.78 307.649 340.567 308.822 340.14 309.889C339.735 310.955 339.159 311.883 338.412 312.673C337.687 313.441 336.844 314.038 335.884 314.465C334.924 314.891 333.9 315.105 332.812 315.105C332.044 315.105 331.319 314.977 330.636 314.721C329.975 314.486 329.378 314.145 328.844 313.697C328.844 314.699 328.844 315.713 328.844 316.737C328.844 317.761 328.844 318.774 328.844 319.777ZM332.108 310.433C333.154 310.433 333.975 310.07 334.572 309.345C335.191 308.598 335.5 307.606 335.5 306.369C335.5 305.131 335.191 304.15 334.572 303.425C333.975 302.699 333.154 302.337 332.108 302.337C331.084 302.337 330.263 302.71 329.644 303.457C329.026 304.182 328.716 305.153 328.716 306.369C328.716 307.585 329.026 308.566 329.644 309.313C330.263 310.059 331.084 310.433 332.108 310.433ZM358.864 298.113C358.864 300.843 358.864 303.606 358.864 306.401C358.864 309.174 358.864 311.926 358.864 314.657C358.011 314.657 357.136 314.657 356.24 314.657C355.344 314.657 354.459 314.657 353.584 314.657C353.584 314.507 353.584 314.369 353.584 314.241C353.584 314.113 353.584 313.974 353.584 313.825C353.008 314.23 352.357 314.539 351.632 314.753C350.928 314.987 350.16 315.105 349.328 315.105C348.112 315.105 347.035 314.827 346.096 314.273C345.179 313.718 344.453 312.918 343.92 311.873C343.408 310.827 343.152 309.59 343.152 308.161C343.152 306.497 343.152 304.822 343.152 303.137C343.152 301.451 343.152 299.777 343.152 298.113C344.027 298.113 344.912 298.113 345.808 298.113C346.704 298.113 347.579 298.113 348.432 298.113C348.432 299.649 348.432 301.206 348.432 302.785C348.432 304.363 348.432 305.921 348.432 307.457C348.432 308.31 348.624 309.003 349.008 309.537C349.413 310.049 350.043 310.305 350.896 310.305C351.749 310.305 352.411 310.059 352.88 309.569C353.349 309.078 353.584 308.374 353.584 307.457C353.584 305.921 353.584 304.363 353.584 302.785C353.584 301.206 353.584 299.649 353.584 298.113C354.459 298.113 355.344 298.113 356.24 298.113C357.136 298.113 358.011 298.113 358.864 298.113ZM362.377 314.657C362.377 311.926 362.377 309.174 362.377 306.401C362.377 303.606 362.377 300.843 362.377 298.113C363.251 298.113 364.137 298.113 365.033 298.113C365.929 298.113 366.803 298.113 367.657 298.113C367.657 298.262 367.657 298.411 367.657 298.561C367.657 298.71 367.657 298.859 367.657 299.009C368.318 298.539 369.065 298.187 369.897 297.953C370.729 297.718 371.635 297.654 372.617 297.761C372.617 298.614 372.617 299.478 372.617 300.353C372.617 301.227 372.617 302.091 372.617 302.945C370.931 302.71 369.683 302.859 368.873 303.393C368.062 303.905 367.657 304.747 367.657 305.921C367.657 307.35 367.657 308.801 367.657 310.273C367.657 311.745 367.657 313.206 367.657 314.657C366.803 314.657 365.929 314.657 365.033 314.657C364.137 314.657 363.251 314.657 362.377 314.657ZM389.085 313.889C387.613 314.507 386.152 314.891 384.701 315.041C383.251 315.19 381.875 315.105 380.573 314.785C379.293 314.486 378.152 313.963 377.149 313.217C376.147 312.47 375.357 311.521 374.781 310.369C374.227 309.217 373.949 307.883 373.949 306.369C373.949 305.11 374.152 303.958 374.557 302.913C374.984 301.846 375.581 300.918 376.349 300.129C377.117 299.318 378.024 298.699 379.069 298.273C380.115 297.825 381.256 297.601 382.493 297.601C383.603 297.601 384.605 297.782 385.501 298.145C386.397 298.507 387.176 299.019 387.837 299.681C388.499 300.321 389.032 301.089 389.437 301.985C389.843 302.881 390.099 303.862 390.205 304.929C390.312 305.995 390.248 307.126 390.013 308.321C388.264 308.321 386.504 308.321 384.733 308.321C382.963 308.321 381.203 308.321 379.453 308.321C379.859 309.131 380.531 309.707 381.469 310.049C382.429 310.39 383.56 310.497 384.861 310.369C386.184 310.241 387.592 309.899 389.085 309.345C389.085 310.091 389.085 310.849 389.085 311.617C389.085 312.385 389.085 313.142 389.085 313.889ZM382.365 302.337C381.747 302.337 381.171 302.507 380.637 302.849C380.125 303.19 379.731 303.713 379.453 304.417C380.413 304.417 381.373 304.417 382.333 304.417C383.315 304.417 384.285 304.417 385.245 304.417C384.989 303.691 384.605 303.169 384.093 302.849C383.603 302.507 383.027 302.337 382.365 302.337ZM405.642 309.537C405.642 310.859 405.268 311.947 404.522 312.801C403.796 313.633 402.815 314.241 401.578 314.625C400.34 315.009 398.954 315.169 397.418 315.105C395.903 315.062 394.356 314.817 392.778 314.369C392.778 313.558 392.778 312.726 392.778 311.873C392.778 311.019 392.778 310.187 392.778 309.377C393.674 309.782 394.57 310.102 395.466 310.337C396.362 310.55 397.172 310.678 397.898 310.721C398.623 310.763 399.21 310.71 399.658 310.561C400.106 310.39 400.33 310.113 400.33 309.729C400.33 309.43 400.138 309.195 399.754 309.025C399.391 308.854 398.911 308.705 398.314 308.577C397.716 308.427 397.076 308.257 396.394 308.065C395.732 307.851 395.103 307.563 394.506 307.201C393.908 306.817 393.418 306.315 393.034 305.697C392.671 305.057 392.49 304.235 392.49 303.233C392.49 302.038 392.831 301.025 393.514 300.193C394.218 299.339 395.156 298.699 396.33 298.273C397.503 297.825 398.815 297.601 400.266 297.601C401.716 297.601 403.199 297.846 404.714 298.337C404.714 299.147 404.714 299.979 404.714 300.833C404.714 301.686 404.714 302.518 404.714 303.329C403.519 302.753 402.399 302.369 401.354 302.177C400.308 301.985 399.466 301.963 398.826 302.113C398.186 302.241 397.866 302.529 397.866 302.977C397.866 303.275 398.047 303.51 398.41 303.681C398.794 303.83 399.274 303.969 399.85 304.097C400.447 304.225 401.076 304.395 401.738 304.609C402.42 304.822 403.05 305.121 403.626 305.505C404.223 305.867 404.703 306.379 405.066 307.041C405.45 307.681 405.642 308.513 405.642 309.537ZM409.917 314.657C409.917 312.694 409.917 310.721 409.917 308.737C409.917 306.753 409.917 304.79 409.917 302.849C409.491 302.849 409.053 302.849 408.605 302.849C408.179 302.849 407.752 302.849 407.325 302.849C407.325 302.059 407.325 301.27 407.325 300.481C407.325 299.691 407.325 298.902 407.325 298.113C407.752 298.113 408.179 298.113 408.605 298.113C409.053 298.113 409.491 298.113 409.917 298.113C409.917 297.366 409.917 296.63 409.917 295.905C409.917 295.158 409.917 294.422 409.917 293.697C410.792 293.697 411.677 293.697 412.573 293.697C413.469 293.697 414.344 293.697 415.197 293.697C415.197 294.422 415.197 295.158 415.197 295.905C415.197 296.63 415.197 297.366 415.197 298.113C415.688 298.113 416.189 298.113 416.701 298.113C417.213 298.113 417.715 298.113 418.205 298.113C418.205 298.902 418.205 299.691 418.205 300.481C418.205 301.27 418.205 302.059 418.205 302.849C417.715 302.849 417.213 302.849 416.701 302.849C416.189 302.849 415.688 302.849 415.197 302.849C415.197 304.79 415.197 306.753 415.197 308.737C415.197 310.721 415.197 312.694 415.197 314.657C414.344 314.657 413.469 314.657 412.573 314.657C411.677 314.657 410.792 314.657 409.917 314.657ZM107.248 370.169C106.011 370.169 104.859 369.955 103.792 369.529C102.725 369.081 101.797 368.462 101.008 367.673C100.219 366.862 99.5999 365.923 99.1519 364.857C98.7253 363.79 98.5119 362.627 98.5119 361.369C98.5119 360.11 98.7253 358.947 99.1519 357.881C99.5999 356.814 100.219 355.886 101.008 355.097C101.797 354.307 102.725 353.699 103.792 353.273C104.859 352.825 106.011 352.601 107.248 352.601C108.507 352.601 109.659 352.825 110.704 353.273C111.771 353.699 112.699 354.307 113.488 355.097C114.277 355.886 114.885 356.814 115.312 357.881C115.76 358.947 115.984 360.11 115.984 361.369C115.984 362.627 115.76 363.79 115.312 364.857C114.885 365.923 114.277 366.862 113.488 367.673C112.699 368.462 111.771 369.081 110.704 369.529C109.659 369.955 108.507 370.169 107.248 370.169ZM107.248 365.401C108.293 365.401 109.125 365.027 109.744 364.281C110.384 363.513 110.704 362.542 110.704 361.369C110.704 360.174 110.384 359.214 109.744 358.489C109.125 357.742 108.293 357.369 107.248 357.369C106.203 357.369 105.36 357.742 104.72 358.489C104.101 359.214 103.792 360.174 103.792 361.369C103.792 362.542 104.101 363.513 104.72 364.281C105.36 365.027 106.203 365.401 107.248 365.401ZM118.595 369.657C118.595 366.926 118.595 364.174 118.595 361.401C118.595 358.606 118.595 355.843 118.595 353.113C119.47 353.113 120.355 353.113 121.251 353.113C122.147 353.113 123.022 353.113 123.875 353.113C123.875 353.262 123.875 353.411 123.875 353.561C123.875 353.71 123.875 353.859 123.875 354.009C124.537 353.539 125.283 353.187 126.115 352.953C126.947 352.718 127.854 352.654 128.835 352.761C128.835 353.614 128.835 354.478 128.835 355.353C128.835 356.227 128.835 357.091 128.835 357.945C127.15 357.71 125.902 357.859 125.091 358.393C124.281 358.905 123.875 359.747 123.875 360.921C123.875 362.35 123.875 363.801 123.875 365.273C123.875 366.745 123.875 368.206 123.875 369.657C123.022 369.657 122.147 369.657 121.251 369.657C120.355 369.657 119.47 369.657 118.595 369.657ZM134.036 351.225C133.418 351.225 132.852 351.075 132.34 350.777C131.85 350.478 131.455 350.083 131.156 349.593C130.858 349.102 130.708 348.558 130.708 347.961C130.708 347.363 130.858 346.83 131.156 346.361C131.455 345.87 131.85 345.475 132.34 345.177C132.852 344.878 133.418 344.729 134.036 344.729C134.634 344.729 135.178 344.878 135.668 345.177C136.18 345.475 136.586 345.87 136.884 346.361C137.183 346.83 137.332 347.363 137.332 347.961C137.332 348.558 137.183 349.102 136.884 349.593C136.586 350.083 136.18 350.478 135.668 350.777C135.178 351.075 134.634 351.225 134.036 351.225ZM131.38 369.657C131.38 366.926 131.38 364.174 131.38 361.401C131.38 358.606 131.38 355.843 131.38 353.113C132.255 353.113 133.14 353.113 134.036 353.113C134.932 353.113 135.807 353.113 136.66 353.113C136.66 355.843 136.66 358.606 136.66 361.401C136.66 364.174 136.66 366.926 136.66 369.657C135.807 369.657 134.932 369.657 134.036 369.657C133.14 369.657 132.255 369.657 131.38 369.657ZM155.897 366.969C155.897 368.782 155.503 370.297 154.713 371.513C153.945 372.729 152.889 373.635 151.545 374.233C150.201 374.851 148.665 375.171 146.937 375.193C145.231 375.214 143.428 374.958 141.529 374.425C141.529 373.593 141.529 372.75 141.529 371.897C141.529 371.065 141.529 370.233 141.529 369.401C143.215 370.062 144.74 370.393 146.105 370.393C147.471 370.414 148.548 370.158 149.337 369.625C150.148 369.07 150.553 368.313 150.553 367.353C150.553 367.246 150.553 367.15 150.553 367.065C150.553 366.958 150.553 366.862 150.553 366.777C150.02 367.182 149.401 367.502 148.697 367.737C147.993 367.971 147.236 368.089 146.425 368.089C145.081 368.089 143.876 367.779 142.809 367.161C141.764 366.521 140.943 365.646 140.345 364.537C139.748 363.406 139.449 362.094 139.449 360.601C139.449 359.449 139.641 358.393 140.025 357.433C140.409 356.473 140.943 355.641 141.625 354.937C142.308 354.233 143.087 353.699 143.961 353.337C144.836 352.953 145.753 352.761 146.713 352.761C147.481 352.761 148.196 352.867 148.857 353.081C149.519 353.294 150.105 353.582 150.617 353.945C150.617 353.795 150.617 353.657 150.617 353.529C150.617 353.401 150.617 353.262 150.617 353.113C151.492 353.113 152.377 353.113 153.273 353.113C154.169 353.113 155.044 353.113 155.897 353.113C155.897 355.395 155.897 357.71 155.897 360.057C155.897 362.382 155.897 364.686 155.897 366.969ZM147.737 363.513C148.633 363.513 149.348 363.235 149.881 362.681C150.436 362.105 150.713 361.369 150.713 360.473C150.713 359.555 150.436 358.809 149.881 358.233C149.348 357.657 148.633 357.369 147.737 357.369C146.799 357.369 146.052 357.657 145.497 358.233C144.943 358.787 144.665 359.534 144.665 360.473C144.665 361.39 144.943 362.126 145.497 362.681C146.052 363.235 146.799 363.513 147.737 363.513ZM162.224 351.225C161.605 351.225 161.04 351.075 160.528 350.777C160.037 350.478 159.643 350.083 159.344 349.593C159.045 349.102 158.896 348.558 158.896 347.961C158.896 347.363 159.045 346.83 159.344 346.361C159.643 345.87 160.037 345.475 160.528 345.177C161.04 344.878 161.605 344.729 162.224 344.729C162.821 344.729 163.365 344.878 163.856 345.177C164.368 345.475 164.773 345.87 165.072 346.361C165.371 346.83 165.52 347.363 165.52 347.961C165.52 348.558 165.371 349.102 165.072 349.593C164.773 350.083 164.368 350.478 163.856 350.777C163.365 351.075 162.821 351.225 162.224 351.225ZM159.568 369.657C159.568 366.926 159.568 364.174 159.568 361.401C159.568 358.606 159.568 355.843 159.568 353.113C160.443 353.113 161.328 353.113 162.224 353.113C163.12 353.113 163.995 353.113 164.848 353.113C164.848 355.843 164.848 358.606 164.848 361.401C164.848 364.174 164.848 366.926 164.848 369.657C163.995 369.657 163.12 369.657 162.224 369.657C161.328 369.657 160.443 369.657 159.568 369.657ZM168.533 369.657C168.533 366.926 168.533 364.174 168.533 361.401C168.533 358.606 168.533 355.843 168.533 353.113C169.408 353.113 170.293 353.113 171.189 353.113C172.085 353.113 172.96 353.113 173.813 353.113C173.813 353.262 173.813 353.401 173.813 353.529C173.813 353.657 173.813 353.795 173.813 353.945C174.389 353.539 175.029 353.23 175.733 353.017C176.458 352.782 177.237 352.665 178.069 352.665C179.285 352.665 180.352 352.942 181.269 353.497C182.208 354.051 182.933 354.851 183.445 355.897C183.978 356.921 184.245 358.158 184.245 359.609C184.245 361.273 184.245 362.947 184.245 364.633C184.245 366.318 184.245 367.993 184.245 369.657C183.392 369.657 182.517 369.657 181.621 369.657C180.725 369.657 179.84 369.657 178.965 369.657C178.965 368.121 178.965 366.563 178.965 364.985C178.965 363.406 178.965 361.849 178.965 360.313C178.965 359.459 178.762 358.777 178.357 358.265C177.973 357.731 177.354 357.465 176.501 357.465C175.648 357.465 174.986 357.71 174.517 358.201C174.048 358.691 173.813 359.395 173.813 360.313C173.813 361.849 173.813 363.406 173.813 364.985C173.813 366.563 173.813 368.121 173.813 369.657C172.96 369.657 172.085 369.657 171.189 369.657C170.293 369.657 169.408 369.657 168.533 369.657ZM198.542 369.657C198.542 369.486 198.542 369.326 198.542 369.177C198.542 369.006 198.542 368.846 198.542 368.697C198.008 369.145 197.4 369.486 196.718 369.721C196.056 369.977 195.342 370.105 194.574 370.105C193.486 370.105 192.462 369.902 191.502 369.497C190.542 369.07 189.688 368.473 188.942 367.705C188.216 366.915 187.64 365.987 187.214 364.921C186.808 363.854 186.606 362.67 186.606 361.369C186.606 360.046 186.808 358.851 187.214 357.785C187.64 356.718 188.216 355.811 188.942 355.065C189.688 354.297 190.542 353.71 191.502 353.305C192.462 352.878 193.475 352.665 194.542 352.665C195.31 352.665 196.035 352.793 196.718 353.049C197.4 353.283 198.008 353.614 198.542 354.041C198.542 353.87 198.542 353.71 198.542 353.561C198.542 353.411 198.542 353.262 198.542 353.113C199.416 353.113 200.302 353.113 201.198 353.113C202.094 353.113 202.968 353.113 203.822 353.113C203.822 355.843 203.822 358.606 203.822 361.401C203.822 364.174 203.822 366.926 203.822 369.657C202.968 369.657 202.094 369.657 201.198 369.657C200.302 369.657 199.416 369.657 198.542 369.657ZM195.278 365.433C196.302 365.433 197.123 365.059 197.742 364.313C198.36 363.566 198.67 362.585 198.67 361.369C198.67 360.153 198.36 359.182 197.742 358.457C197.123 357.71 196.302 357.337 195.278 357.337C194.232 357.337 193.4 357.699 192.782 358.425C192.184 359.15 191.886 360.131 191.886 361.369C191.886 362.606 192.184 363.598 192.782 364.345C193.4 365.07 194.232 365.433 195.278 365.433ZM207.505 369.657C207.505 365.795 207.505 361.902 207.505 357.977C207.505 354.051 207.505 350.158 207.505 346.297C208.38 346.297 209.265 346.297 210.161 346.297C211.057 346.297 211.932 346.297 212.785 346.297C212.785 350.158 212.785 354.051 212.785 357.977C212.785 361.902 212.785 365.795 212.785 369.657C211.932 369.657 211.057 369.657 210.161 369.657C209.265 369.657 208.38 369.657 207.505 369.657ZM223.349 369.657C223.349 365.795 223.349 361.902 223.349 357.977C223.349 354.051 223.349 350.158 223.349 346.297C224.224 346.297 225.109 346.297 226.005 346.297C226.901 346.297 227.776 346.297 228.629 346.297C228.629 347.555 228.629 348.835 228.629 350.137C228.629 351.417 228.629 352.686 228.629 353.945C229.205 353.539 229.845 353.23 230.549 353.017C231.275 352.782 232.053 352.665 232.885 352.665C234.101 352.665 235.168 352.942 236.085 353.497C237.024 354.051 237.749 354.851 238.261 355.897C238.795 356.921 239.061 358.158 239.061 359.609C239.061 361.273 239.061 362.947 239.061 364.633C239.061 366.318 239.061 367.993 239.061 369.657C238.208 369.657 237.333 369.657 236.437 369.657C235.541 369.657 234.656 369.657 233.781 369.657C233.781 368.121 233.781 366.563 233.781 364.985C233.781 363.406 233.781 361.849 233.781 360.313C233.781 359.459 233.579 358.777 233.173 358.265C232.789 357.731 232.171 357.465 231.317 357.465C230.464 357.465 229.803 357.71 229.333 358.201C228.864 358.691 228.629 359.395 228.629 360.313C228.629 361.849 228.629 363.406 228.629 364.985C228.629 366.563 228.629 368.121 228.629 369.657C227.776 369.657 226.901 369.657 226.005 369.657C225.109 369.657 224.224 369.657 223.349 369.657ZM256.585 368.889C255.113 369.507 253.652 369.891 252.201 370.041C250.751 370.19 249.375 370.105 248.073 369.785C246.793 369.486 245.652 368.963 244.649 368.217C243.647 367.47 242.857 366.521 242.281 365.369C241.727 364.217 241.449 362.883 241.449 361.369C241.449 360.11 241.652 358.958 242.057 357.913C242.484 356.846 243.081 355.918 243.849 355.129C244.617 354.318 245.524 353.699 246.569 353.273C247.615 352.825 248.756 352.601 249.993 352.601C251.103 352.601 252.105 352.782 253.001 353.145C253.897 353.507 254.676 354.019 255.337 354.681C255.999 355.321 256.532 356.089 256.937 356.985C257.343 357.881 257.599 358.862 257.705 359.929C257.812 360.995 257.748 362.126 257.513 363.321C255.764 363.321 254.004 363.321 252.233 363.321C250.463 363.321 248.703 363.321 246.953 363.321C247.359 364.131 248.031 364.707 248.969 365.049C249.929 365.39 251.06 365.497 252.361 365.369C253.684 365.241 255.092 364.899 256.585 364.345C256.585 365.091 256.585 365.849 256.585 366.617C256.585 367.385 256.585 368.142 256.585 368.889ZM249.865 357.337C249.247 357.337 248.671 357.507 248.137 357.849C247.625 358.19 247.231 358.713 246.953 359.417C247.913 359.417 248.873 359.417 249.833 359.417C250.815 359.417 251.785 359.417 252.745 359.417C252.489 358.691 252.105 358.169 251.593 357.849C251.103 357.507 250.527 357.337 249.865 357.337ZM271.542 369.657C271.542 369.486 271.542 369.326 271.542 369.177C271.542 369.006 271.542 368.846 271.542 368.697C271.008 369.145 270.4 369.486 269.718 369.721C269.056 369.977 268.342 370.105 267.574 370.105C266.486 370.105 265.462 369.902 264.502 369.497C263.542 369.07 262.688 368.473 261.942 367.705C261.216 366.915 260.64 365.987 260.214 364.921C259.808 363.854 259.606 362.67 259.606 361.369C259.606 360.046 259.808 358.851 260.214 357.785C260.64 356.718 261.216 355.811 261.942 355.065C262.688 354.297 263.542 353.71 264.502 353.305C265.462 352.878 266.475 352.665 267.542 352.665C268.31 352.665 269.035 352.793 269.718 353.049C270.4 353.283 271.008 353.614 271.542 354.041C271.542 353.87 271.542 353.71 271.542 353.561C271.542 353.411 271.542 353.262 271.542 353.113C272.416 353.113 273.302 353.113 274.198 353.113C275.094 353.113 275.968 353.113 276.822 353.113C276.822 355.843 276.822 358.606 276.822 361.401C276.822 364.174 276.822 366.926 276.822 369.657C275.968 369.657 275.094 369.657 274.198 369.657C273.302 369.657 272.416 369.657 271.542 369.657ZM268.278 365.433C269.302 365.433 270.123 365.059 270.742 364.313C271.36 363.566 271.67 362.585 271.67 361.369C271.67 360.153 271.36 359.182 270.742 358.457C270.123 357.71 269.302 357.337 268.278 357.337C267.232 357.337 266.4 357.699 265.782 358.425C265.184 359.15 264.886 360.131 264.886 361.369C264.886 362.606 265.184 363.598 265.782 364.345C266.4 365.07 267.232 365.433 268.278 365.433ZM280.345 369.657C280.345 366.926 280.345 364.174 280.345 361.401C280.345 358.606 280.345 355.843 280.345 353.113C281.22 353.113 282.105 353.113 283.001 353.113C283.897 353.113 284.772 353.113 285.625 353.113C285.625 353.262 285.625 353.411 285.625 353.561C285.625 353.71 285.625 353.859 285.625 354.009C286.287 353.539 287.033 353.187 287.865 352.953C288.697 352.718 289.604 352.654 290.585 352.761C290.585 353.614 290.585 354.478 290.585 355.353C290.585 356.227 290.585 357.091 290.585 357.945C288.9 357.71 287.652 357.859 286.841 358.393C286.031 358.905 285.625 359.747 285.625 360.921C285.625 362.35 285.625 363.801 285.625 365.273C285.625 366.745 285.625 368.206 285.625 369.657C284.772 369.657 283.897 369.657 283.001 369.657C282.105 369.657 281.22 369.657 280.345 369.657ZM294.698 369.657C294.698 367.694 294.698 365.721 294.698 363.737C294.698 361.753 294.698 359.79 294.698 357.849C294.272 357.849 293.834 357.849 293.386 357.849C292.96 357.849 292.533 357.849 292.106 357.849C292.106 357.059 292.106 356.27 292.106 355.481C292.106 354.691 292.106 353.902 292.106 353.113C292.533 353.113 292.96 353.113 293.386 353.113C293.834 353.113 294.272 353.113 294.698 353.113C294.698 352.366 294.698 351.63 294.698 350.905C294.698 350.158 294.698 349.422 294.698 348.697C295.573 348.697 296.458 348.697 297.354 348.697C298.25 348.697 299.125 348.697 299.978 348.697C299.978 349.422 299.978 350.158 299.978 350.905C299.978 351.63 299.978 352.366 299.978 353.113C300.469 353.113 300.97 353.113 301.482 353.113C301.994 353.113 302.496 353.113 302.986 353.113C302.986 353.902 302.986 354.691 302.986 355.481C302.986 356.27 302.986 357.059 302.986 357.849C302.496 357.849 301.994 357.849 301.482 357.849C300.97 357.849 300.469 357.849 299.978 357.849C299.978 359.79 299.978 361.753 299.978 363.737C299.978 365.721 299.978 367.694 299.978 369.657C299.125 369.657 298.25 369.657 297.354 369.657C296.458 369.657 295.573 369.657 294.698 369.657ZM317.692 369.657C316.838 369.657 315.964 369.657 315.068 369.657C314.172 369.657 313.286 369.657 312.412 369.657C312.412 365.795 312.412 361.902 312.412 357.977C312.412 354.051 312.412 350.158 312.412 346.297C313.286 346.297 314.172 346.297 315.068 346.297C315.964 346.297 316.838 346.297 317.692 346.297C317.692 347.577 317.692 348.867 317.692 350.169C317.692 351.47 317.692 352.761 317.692 354.041C318.225 353.614 318.833 353.283 319.516 353.049C320.198 352.793 320.924 352.665 321.692 352.665C322.758 352.665 323.772 352.878 324.732 353.305C325.692 353.71 326.534 354.297 327.26 355.065C328.006 355.833 328.582 356.75 328.988 357.817C329.414 358.883 329.628 360.067 329.628 361.369C329.628 362.649 329.414 363.822 328.988 364.889C328.582 365.955 328.006 366.883 327.26 367.673C326.534 368.441 325.692 369.038 324.732 369.465C323.772 369.891 322.748 370.105 321.66 370.105C320.892 370.105 320.166 369.977 319.484 369.721C318.822 369.486 318.225 369.145 317.692 368.697C317.692 368.846 317.692 369.006 317.692 369.177C317.692 369.326 317.692 369.486 317.692 369.657ZM320.956 365.433C322.001 365.433 322.822 365.07 323.42 364.345C324.038 363.598 324.348 362.606 324.348 361.369C324.348 360.131 324.038 359.15 323.42 358.425C322.822 357.699 322.001 357.337 320.956 357.337C319.932 357.337 319.11 357.71 318.492 358.457C317.873 359.182 317.564 360.153 317.564 361.369C317.564 362.585 317.873 363.566 318.492 364.313C319.11 365.059 319.932 365.433 320.956 365.433ZM332.412 369.657C332.412 365.795 332.412 361.902 332.412 357.977C332.412 354.051 332.412 350.158 332.412 346.297C333.286 346.297 334.172 346.297 335.068 346.297C335.964 346.297 336.838 346.297 337.692 346.297C337.692 350.158 337.692 354.051 337.692 357.977C337.692 361.902 337.692 365.795 337.692 369.657C336.838 369.657 335.964 369.657 335.068 369.657C334.172 369.657 333.286 369.657 332.412 369.657ZM349.217 370.169C347.979 370.169 346.827 369.955 345.761 369.529C344.694 369.081 343.766 368.462 342.977 367.673C342.187 366.862 341.569 365.923 341.121 364.857C340.694 363.79 340.481 362.627 340.481 361.369C340.481 360.11 340.694 358.947 341.121 357.881C341.569 356.814 342.187 355.886 342.977 355.097C343.766 354.307 344.694 353.699 345.761 353.273C346.827 352.825 347.979 352.601 349.217 352.601C350.475 352.601 351.627 352.825 352.673 353.273C353.739 353.699 354.667 354.307 355.457 355.097C356.246 355.886 356.854 356.814 357.281 357.881C357.729 358.947 357.953 360.11 357.953 361.369C357.953 362.627 357.729 363.79 357.281 364.857C356.854 365.923 356.246 366.862 355.457 367.673C354.667 368.462 353.739 369.081 352.673 369.529C351.627 369.955 350.475 370.169 349.217 370.169ZM349.217 365.401C350.262 365.401 351.094 365.027 351.713 364.281C352.353 363.513 352.673 362.542 352.673 361.369C352.673 360.174 352.353 359.214 351.713 358.489C351.094 357.742 350.262 357.369 349.217 357.369C348.171 357.369 347.329 357.742 346.689 358.489C346.07 359.214 345.761 360.174 345.761 361.369C345.761 362.542 346.07 363.513 346.689 364.281C347.329 365.027 348.171 365.401 349.217 365.401ZM368.404 370.169C367.167 370.169 366.015 369.955 364.948 369.529C363.882 369.081 362.954 368.462 362.164 367.673C361.375 366.862 360.756 365.923 360.308 364.857C359.882 363.79 359.668 362.627 359.668 361.369C359.668 360.11 359.882 358.947 360.308 357.881C360.756 356.814 361.375 355.886 362.164 355.097C362.954 354.307 363.882 353.699 364.948 353.273C366.015 352.825 367.167 352.601 368.404 352.601C369.663 352.601 370.815 352.825 371.86 353.273C372.927 353.699 373.855 354.307 374.644 355.097C375.434 355.886 376.042 356.814 376.468 357.881C376.916 358.947 377.14 360.11 377.14 361.369C377.14 362.627 376.916 363.79 376.468 364.857C376.042 365.923 375.434 366.862 374.644 367.673C373.855 368.462 372.927 369.081 371.86 369.529C370.815 369.955 369.663 370.169 368.404 370.169ZM368.404 365.401C369.45 365.401 370.282 365.027 370.9 364.281C371.54 363.513 371.86 362.542 371.86 361.369C371.86 360.174 371.54 359.214 370.9 358.489C370.282 357.742 369.45 357.369 368.404 357.369C367.359 357.369 366.516 357.742 365.876 358.489C365.258 359.214 364.948 360.174 364.948 361.369C364.948 362.542 365.258 363.513 365.876 364.281C366.516 365.027 367.359 365.401 368.404 365.401ZM379.752 369.657C379.752 366.926 379.752 364.174 379.752 361.401C379.752 358.606 379.752 355.843 379.752 353.113C380.626 353.113 381.512 353.113 382.408 353.113C383.304 353.113 384.178 353.113 385.032 353.113C385.032 353.262 385.032 353.401 385.032 353.529C385.032 353.657 385.032 353.795 385.032 353.945C385.586 353.539 386.205 353.23 386.888 353.017C387.57 352.782 388.274 352.665 389 352.665C389.789 352.665 390.514 352.803 391.176 353.081C391.837 353.337 392.402 353.721 392.872 354.233C393.554 353.742 394.322 353.358 395.176 353.081C396.05 352.803 396.946 352.665 397.864 352.665C399.165 352.665 400.285 352.931 401.224 353.465C402.184 353.998 402.92 354.755 403.432 355.737C403.965 356.718 404.232 357.902 404.232 359.289C404.232 360.995 404.232 362.723 404.232 364.473C404.232 366.222 404.232 367.95 404.232 369.657C403.378 369.657 402.504 369.657 401.608 369.657C400.712 369.657 399.826 369.657 398.952 369.657C398.952 368.057 398.952 366.435 398.952 364.793C398.952 363.15 398.952 361.529 398.952 359.929C398.952 359.203 398.781 358.617 398.44 358.169C398.12 357.699 397.597 357.465 396.872 357.465C396.168 357.465 395.613 357.689 395.208 358.137C394.824 358.563 394.632 359.161 394.632 359.929C394.632 361.529 394.632 363.15 394.632 364.793C394.632 366.435 394.632 368.057 394.632 369.657C393.778 369.657 392.904 369.657 392.008 369.657C391.112 369.657 390.226 369.657 389.352 369.657C389.352 368.057 389.352 366.435 389.352 364.793C389.352 363.15 389.352 361.529 389.352 359.929C389.352 359.203 389.181 358.617 388.84 358.169C388.52 357.699 387.997 357.465 387.272 357.465C386.568 357.465 386.013 357.689 385.608 358.137C385.224 358.563 385.032 359.161 385.032 359.929C385.032 361.529 385.032 363.15 385.032 364.793C385.032 366.435 385.032 368.057 385.032 369.657C384.178 369.657 383.304 369.657 382.408 369.657C381.512 369.657 380.626 369.657 379.752 369.657ZM420.142 364.537C420.142 365.859 419.768 366.947 419.022 367.801C418.296 368.633 417.315 369.241 416.078 369.625C414.84 370.009 413.454 370.169 411.918 370.105C410.403 370.062 408.856 369.817 407.278 369.369C407.278 368.558 407.278 367.726 407.278 366.873C407.278 366.019 407.278 365.187 407.278 364.377C408.174 364.782 409.07 365.102 409.966 365.337C410.862 365.55 411.672 365.678 412.398 365.721C413.123 365.763 413.71 365.71 414.158 365.561C414.606 365.39 414.83 365.113 414.83 364.729C414.83 364.43 414.638 364.195 414.254 364.025C413.891 363.854 413.411 363.705 412.814 363.577C412.216 363.427 411.576 363.257 410.894 363.065C410.232 362.851 409.603 362.563 409.006 362.201C408.408 361.817 407.918 361.315 407.534 360.697C407.171 360.057 406.99 359.235 406.99 358.233C406.99 357.038 407.331 356.025 408.014 355.193C408.718 354.339 409.656 353.699 410.83 353.273C412.003 352.825 413.315 352.601 414.766 352.601C416.216 352.601 417.699 352.846 419.214 353.337C419.214 354.147 419.214 354.979 419.214 355.833C419.214 356.686 419.214 357.518 419.214 358.329C418.019 357.753 416.899 357.369 415.854 357.177C414.808 356.985 413.966 356.963 413.326 357.113C412.686 357.241 412.366 357.529 412.366 357.977C412.366 358.275 412.547 358.51 412.91 358.681C413.294 358.83 413.774 358.969 414.35 359.097C414.947 359.225 415.576 359.395 416.238 359.609C416.92 359.822 417.55 360.121 418.126 360.505C418.723 360.867 419.203 361.379 419.566 362.041C419.95 362.681 420.142 363.513 420.142 364.537Z" fill="#888888"/>
<path d="M507.439 266.526C499.232 253.266 471.172 239.831 482.431 254.388C491.128 265.633 500.231 266.934 507.439 266.526Z" stroke="#404040" stroke-width="3.58901"/>
<path d="M517.97 273.032C514.385 288.262 492.05 310.118 498.117 292.666C502.802 279.185 511.015 274.99 517.97 273.032Z" stroke="#404040" stroke-width="3.58901"/>
<path d="M98.8193 270.539L503.913 271.976" stroke="#404040" stroke-width="3.58901"/>
<ellipse cx="6.15424" cy="11.869" rx="6.15424" ry="11.869" transform="matrix(0.999994 0.00354699 -0.00339759 0.999994 515.084 240.834)" fill="#F8EABC"/>
<ellipse cx="6.20072" cy="11.7814" rx="6.20072" ry="11.7814" transform="matrix(0.699381 0.714853 -0.704222 0.709875 537.758 245.912)" fill="#F8EABC"/>
<ellipse cx="6.24264" cy="11.7012" rx="6.24264" ry="11.7012" transform="matrix(0.207804 0.978202 -0.976852 0.213768 515.073 265.821)" fill="#F8EABC"/>
<ellipse cx="6.22636" cy="11.7324" rx="6.22636" ry="11.7324" transform="matrix(-0.4693 0.882969 -0.877138 -0.480368 520.521 260.173)" fill="#F8EABC"/>
<ellipse cx="6.16586" cy="11.8472" rx="6.16586" ry="11.8472" transform="matrix(-0.932565 -0.361141 0.351778 -0.936031 516.511 299.647)" fill="#F8EABC"/>
<ellipse cx="6.20072" cy="11.7814" rx="6.20072" ry="11.7814" transform="matrix(-0.704222 0.709875 -0.699381 -0.714853 544.149 287.898)" fill="#F8EABC"/>
<ellipse cx="6.24685" cy="11.693" rx="6.24685" ry="11.693" transform="matrix(-0.00339759 0.999994 -0.999994 -0.00354699 550.696 265.323)" fill="#F8EABC"/>
<ellipse cx="10.4048" cy="10.5614" rx="10.4048" ry="10.5614" transform="matrix(0.999994 0.00354699 -0.00339759 0.999994 511.08 258.925)" fill="#FF9D35"/>
<path d="M507.172 326.331C498.965 313.071 470.906 299.635 482.164 314.193C490.861 325.438 499.965 326.739 507.172 326.331Z" stroke="#404040" stroke-width="3.58901"/>
<path d="M517.703 332.836C514.118 348.066 491.783 369.922 497.849 352.47C502.535 338.989 510.747 334.794 517.703 332.836Z" stroke="#404040" stroke-width="3.58901"/>
<path d="M98.5522 330.343L503.646 331.78" stroke="#404040" stroke-width="3.58901"/>
<ellipse cx="6.15424" cy="11.869" rx="6.15424" ry="11.869" transform="matrix(0.999994 0.00354699 -0.00339759 0.999994 514.818 300.638)" fill="#F8EABC"/>
<ellipse cx="6.20072" cy="11.7814" rx="6.20072" ry="11.7814" transform="matrix(0.699381 0.714853 -0.704222 0.709875 537.491 305.716)" fill="#F8EABC"/>
<ellipse cx="6.24264" cy="11.7012" rx="6.24264" ry="11.7012" transform="matrix(0.207804 0.978202 -0.976852 0.213768 514.806 325.626)" fill="#F8EABC"/>
<ellipse cx="6.22636" cy="11.7324" rx="6.22636" ry="11.7324" transform="matrix(-0.4693 0.882969 -0.877138 -0.480368 520.255 319.977)" fill="#F8EABC"/>
<ellipse cx="6.16586" cy="11.8472" rx="6.16586" ry="11.8472" transform="matrix(-0.932565 -0.361141 0.351778 -0.936031 516.245 359.451)" fill="#F8EABC"/>
<ellipse cx="6.20072" cy="11.7814" rx="6.20072" ry="11.7814" transform="matrix(-0.704222 0.709875 -0.699381 -0.714853 543.883 347.702)" fill="#F8EABC"/>
<ellipse cx="6.24685" cy="11.693" rx="6.24685" ry="11.693" transform="matrix(-0.00339759 0.999994 -0.999994 -0.00354699 550.43 325.127)" fill="#F8EABC"/>
<ellipse cx="10.4048" cy="10.5614" rx="10.4048" ry="10.5614" transform="matrix(0.999994 0.00354699 -0.00339759 0.999994 510.814 318.729)" fill="#FF9D35"/>
<path d="M506.902 386.042C498.695 372.783 470.636 359.347 481.894 373.905C490.591 385.149 499.695 386.451 506.902 386.042Z" stroke="#404040" stroke-width="3.58901"/>
<path d="M517.433 392.549C513.848 407.779 491.513 429.635 497.579 412.183C502.265 398.701 510.477 394.507 517.433 392.549Z" stroke="#404040" stroke-width="3.58901"/>
<path d="M98.2822 390.056L503.376 391.493" stroke="#404040" stroke-width="3.58901"/>
<ellipse cx="6.15424" cy="11.869" rx="6.15424" ry="11.869" transform="matrix(0.999994 0.00354699 -0.00339759 0.999994 514.548 360.351)" fill="#F8EABC"/>
<ellipse cx="6.20072" cy="11.7814" rx="6.20072" ry="11.7814" transform="matrix(0.699381 0.714853 -0.704222 0.709875 537.221 365.428)" fill="#F8EABC"/>
<ellipse cx="6.24264" cy="11.7012" rx="6.24264" ry="11.7012" transform="matrix(0.207804 0.978202 -0.976852 0.213768 514.537 385.338)" fill="#F8EABC"/>
<ellipse cx="6.22636" cy="11.7324" rx="6.22636" ry="11.7324" transform="matrix(-0.4693 0.882969 -0.877138 -0.480368 519.985 379.69)" fill="#F8EABC"/>
<ellipse cx="6.16586" cy="11.8472" rx="6.16586" ry="11.8472" transform="matrix(-0.932565 -0.361141 0.351778 -0.936031 515.975 419.164)" fill="#F8EABC"/>
<ellipse cx="6.20072" cy="11.7814" rx="6.20072" ry="11.7814" transform="matrix(-0.704222 0.709875 -0.699381 -0.714853 543.613 407.415)" fill="#F8EABC"/>
<ellipse cx="6.24685" cy="11.693" rx="6.24685" ry="11.693" transform="matrix(-0.00339759 0.999994 -0.999994 -0.00354699 550.16 384.84)" fill="#F8EABC"/>
<ellipse cx="10.4048" cy="10.5614" rx="10.4048" ry="10.5614" transform="matrix(0.999994 0.00354699 -0.00339759 0.999994 510.543 378.442)" fill="#FF9D35"/>
<rect x="642.039" y="63.8301" width="384.718" height="509.795" rx="51" fill="#2F4ECD" stroke="#404040" stroke-width="4"/>
<mask id="mask0_275_8" style="mask-type:alpha" maskUnits="userSpaceOnUse" x="644" y="65" width="381" height="507">
<rect x="644.039" y="65.8301" width="380.718" height="505.795" rx="49" fill="#FBF6F2"/>
</mask>
<g mask="url(#mask0_275_8)">
<path d="M644.039 482.755H1024.76V522.626C1024.76 549.688 1002.82 571.626 975.757 571.626H693.039C665.977 571.626 644.039 549.688 644.039 522.626V482.755Z" fill="#F4E3D5"/>
</g>
<path d="M819.316 245.404H823.705V484.587H819.316V245.404Z" fill="#036F62"/>
<path d="M825.898 245.403H830.287V484.586H825.898V245.403Z" fill="#6CBDAA"/>
<path d="M833.719 379.752V365.78C833.719 334.092 833.719 318.247 839.886 306.144C845.311 295.497 853.967 286.841 864.614 281.417C876.717 275.25 892.561 275.25 924.25 275.25H926.659L833.719 379.752Z" fill="#036F62"/>
<path d="M926.659 279.243V293.215C926.659 324.904 926.659 340.748 920.492 352.851C915.067 363.498 906.411 372.154 895.765 377.579C883.661 383.746 867.817 383.746 836.128 383.746H833.72L926.659 279.243Z" fill="#6CBDAA"/>
<path d="M816.105 435.319V422.986C816.105 395.015 816.105 381.03 810.661 370.346C805.873 360.949 798.233 353.308 788.835 348.52C778.152 343.077 764.166 343.076 736.195 343.076H734.069L816.105 435.319Z" fill="#6CBDAA"/>
<path d="M734.07 346.602V358.935C734.07 386.906 734.07 400.891 739.513 411.575C744.302 420.972 751.942 428.613 761.34 433.401C772.023 438.845 786.009 438.845 813.98 438.845H816.106L734.07 346.602Z" fill="#036F62"/>
<path d="M824.921 243.152C832.676 230.537 822.234 247.525 831.433 232.558C840.633 217.592 838.326 221.345 838.326 221.345C838.326 221.345 893.69 255.377 916.646 269.488C907.446 284.454 868.176 269.741 824.921 243.152Z" fill="white"/>
<path d="M853.221 197.113C845.466 209.728 855.583 193.27 846.383 208.236C837.184 223.202 839.491 219.449 839.491 219.449C839.491 219.449 894.855 253.481 917.811 267.592C927.01 252.626 896.476 223.701 853.221 197.113Z" fill="#F4E3D5"/>
<path d="M852.623 196.561C840.008 188.807 856.995 199.249 842.029 190.049C827.063 180.85 830.816 183.157 830.816 183.157C830.816 183.157 864.847 127.793 878.958 104.837C893.925 114.036 879.211 153.306 852.623 196.561Z" fill="white"/>
<path d="M806.584 168.261C819.199 176.016 802.74 165.899 817.707 175.098C832.673 184.298 828.92 181.991 828.92 181.991C828.92 181.991 862.952 126.627 877.063 103.671C862.096 94.4716 833.172 125.006 806.584 168.261Z" fill="#F4E3D5"/>
<path d="M778.881 214.853C791.496 222.607 774.509 212.165 789.475 221.365C804.441 230.564 800.688 228.257 800.688 228.257C800.688 228.257 766.656 283.621 752.546 306.577C737.579 297.377 752.293 258.107 778.881 214.853Z" fill="white"/>
<path d="M824.921 243.153C812.305 235.398 828.764 245.515 813.798 236.315C798.831 227.116 802.584 229.423 802.584 229.423C802.584 229.423 768.552 284.787 754.442 307.743C769.408 316.942 798.332 286.408 824.921 243.153Z" fill="#F4E3D5"/>
<rect x="850.211" y="197.422" width="49.7133" height="49.7133" transform="rotate(121.579 850.211 197.422)" fill="#FECC73"/>
<path d="M806.328 169.017C798.574 181.632 809.016 164.645 799.816 179.611C790.616 194.577 792.923 190.824 792.923 190.824C792.923 190.824 737.559 156.793 714.604 142.682C723.803 127.715 763.073 142.429 806.328 169.017Z" fill="white"/>
<path d="M778.028 215.056C785.782 202.441 775.665 218.9 784.865 203.933C794.065 188.967 791.758 192.72 791.758 192.72C791.758 192.72 736.394 158.688 713.438 144.577C704.238 159.544 734.773 188.468 778.028 215.056Z" fill="#F4E3D5"/>
</svg>
