<svg width="91" height="86" viewBox="0 0 91 86" fill="none" xmlns="http://www.w3.org/2000/svg">
<path d="M10.5065 48.3924C10.1017 47.4558 10.3378 46.3654 11.0939 45.6803L12.2412 44.6408C13.3838 43.6055 15.1939 43.9112 15.9332 45.2643L32.7975 76.13C33.3257 77.0967 33.1226 78.2994 32.3063 79.039L28.6291 82.3708C27.4188 83.4674 25.4891 83.0495 24.841 81.5503L10.5065 48.3924Z" fill="#6CBDAA"/>
<path d="M35.1316 24.6716C35.4236 23.1803 36.7306 22.1045 38.2502 22.1045H58.3192C59.7909 22.1045 61.07 23.1149 61.4108 24.5466L74.5414 79.7178C75.0166 81.7146 73.5024 83.6315 71.4498 83.6315H27.4451C25.4449 83.6315 23.942 81.8057 24.3265 79.8428L35.1316 24.6716Z" fill="#6CBDAA"/>
<path d="M72.5659 64.249L72.7261 65.0547L75.6802 79.9727C76.1916 82.5556 74.2156 84.9617 71.5825 84.9619H27.4585C24.8139 84.9619 22.8347 82.536 23.3657 79.9453L26.4185 65.0479L26.5825 64.249H72.5659Z" fill="#036F62" stroke="#FBF6F2" stroke-width="2"/>
<path d="M61.3967 17.3761C61.9218 19.0509 60.4523 20.5058 58.6972 20.5058C55.7591 20.5058 53.8216 20.5058 47.958 20.5058C41.9514 20.5058 40.3933 20.5058 37.2175 20.5058C35.4624 20.5058 33.9941 19.0509 34.5192 17.3761C36.118 12.2773 41.529 8.52539 47.958 8.52539C54.387 8.52539 59.7979 12.2773 61.3967 17.3761Z" fill="#036F62"/>
<path d="M70.9878 44.6553H83.0865" stroke="#036F62" stroke-width="6" stroke-linecap="round"/>
<path d="M87.8998 54.5933L78.3919 76.3257" stroke="#036F62" stroke-width="6" stroke-linecap="round"/>
<path d="M83.0865 44.6553L87.8998 54.5931" stroke="#036F62" stroke-width="6" stroke-linecap="round"/>
<circle cx="47.3286" cy="3.24023" r="3.24023" fill="#036F62"/>
<circle cx="9.63135" cy="39.3701" r="3.24023" fill="#036F62"/>
</svg>
