<svg width="223" height="223" viewBox="0 0 223 223" fill="none" xmlns="http://www.w3.org/2000/svg">
<path d="M136.57 136.789C136.749 122.994 136.509 141.57 136.72 125.204C136.932 108.839 136.879 112.943 136.879 112.943C136.879 112.943 197.418 113.727 222.519 114.052C222.307 130.417 183.868 137.401 136.57 136.789Z" fill="#FFCECE"/>
<path d="M137.223 86.4448C137.044 100.239 137.277 82.2423 137.065 98.6074C136.853 114.973 136.907 110.869 136.907 110.869C136.907 110.869 197.445 111.652 222.547 111.977C222.758 95.6119 184.52 87.0569 137.223 86.4448Z" fill="#FFB1B1"/>
<path d="M136.478 86.2923C122.683 86.1138 141.259 86.3542 124.894 86.1424C108.529 85.9306 112.632 85.9837 112.632 85.9837C112.632 85.9837 113.416 25.4452 113.741 0.343818C130.106 0.555635 137.09 38.9947 136.478 86.2923Z" fill="#FFCECE"/>
<path d="M86.1381 85.6396C99.9324 85.8181 81.9356 85.5852 98.3008 85.797C114.666 86.0088 110.562 85.9557 110.562 85.9557C110.562 85.9557 111.346 25.4172 111.67 0.315849C95.3053 0.104033 86.7502 38.342 86.1381 85.6396Z" fill="#FFB1B1"/>
<path d="M86.226 136.138C100.02 136.316 81.4449 136.076 97.81 136.288C114.175 136.5 110.071 136.447 110.071 136.447C110.071 136.447 109.288 196.985 108.963 222.086C92.5976 221.875 85.6138 183.435 86.226 136.138Z" fill="#FFCECE"/>
<path d="M136.568 136.788C122.774 136.61 140.77 136.843 124.405 136.631C108.04 136.419 112.144 136.472 112.144 136.472C112.144 136.472 111.36 197.011 111.036 222.112C127.401 222.324 135.956 184.086 136.568 136.788Z" fill="#FFB1B1"/>
<rect x="134.961" y="88.1299" width="46.314" height="46.3142" transform="rotate(90.7415 134.961 88.1299)" fill="#FE9973"/>
<path d="M86.2925 86.3673C86.114 100.162 86.3544 81.5862 86.1426 97.9513C85.9308 114.316 85.9839 110.213 85.9839 110.213C85.9839 110.213 25.4453 109.429 0.34388 109.104C0.555697 92.7389 38.9949 85.7551 86.2925 86.3673Z" fill="#FFCECE"/>
<path d="M85.6401 136.709C85.8186 122.914 85.5857 140.911 85.7975 124.546C86.0093 108.181 85.9562 112.285 85.9562 112.285C85.9562 112.285 25.4175 111.501 0.316155 111.176C0.104337 127.541 38.3424 136.096 85.6401 136.709Z" fill="#FFB1B1"/>
</svg>
