<svg width="48" height="48" viewBox="0 0 48 48" fill="none" xmlns="http://www.w3.org/2000/svg">
<path d="M47.3296 25.0501C47.1747 25.5241 46.7971 25.9793 46.1536 26.4129C45.2838 26.999 43.9934 27.4963 42.3451 27.8901C39.1634 28.6504 34.7859 28.9943 29.9123 28.9569L29.9658 24.8254L47.3296 25.0501Z" stroke="#686868"/>
<path d="M47.3484 23.6034C47.2059 23.1212 46.8396 22.6489 46.2055 22.1891C45.3504 21.5692 44.0721 21.0234 42.4351 20.5718C39.2755 19.7002 34.9103 19.2128 30.0397 19.1222L29.9846 23.3787L47.3484 23.6034Z" stroke="#686868"/>
<path d="M24.9828 0.656625C25.4569 0.811469 25.912 1.18904 26.3457 1.83256C26.9317 2.70239 27.429 3.99281 27.8229 5.64106C28.5831 8.82279 28.927 13.2003 28.8896 18.0739L24.7581 18.0204L24.9828 0.656625Z" stroke="#686868"/>
<path d="M23.5371 0.637712C23.0548 0.780247 22.5825 1.14655 22.1228 1.78064C21.5029 2.63575 20.9571 3.914 20.5055 5.55104C19.6339 8.71066 19.1465 13.0759 19.0559 17.9464L23.3123 18.0015L23.5371 0.637712Z" stroke="#686868"/>
<path d="M22.969 47.2369C22.495 47.0821 22.0398 46.7045 21.6062 46.061C21.0201 45.1912 20.5228 43.9007 20.129 42.2525C19.3688 39.0708 19.0248 34.6932 19.0623 29.8197L23.1938 29.8732L22.969 47.2369Z" stroke="#686868"/>
<path d="M24.4152 47.2554C24.8975 47.1128 25.3698 46.7465 25.8296 46.1124C26.4495 45.2573 26.9952 43.9791 27.4469 42.342C28.3185 39.1824 28.8058 34.8172 28.8965 29.9467L24.64 29.8916L24.4152 47.2554Z" stroke="#686868"/>
<rect x="28.5529" y="19.4696" width="8.97231" height="8.97224" transform="rotate(90.7415 28.5529 19.4696)" stroke="#686868"/>
<path d="M0.656556 22.9997C0.811399 22.5257 1.18897 22.0705 1.8325 21.6369C2.70232 21.0508 3.99274 20.5535 5.64099 20.1597C8.82273 19.3994 13.2002 19.0555 18.0738 19.0929L18.0203 23.2244L0.656556 22.9997Z" stroke="#686868"/>
<path d="M0.637628 24.4459C0.780161 24.9281 1.14647 25.4005 1.78055 25.8602C2.63566 26.4801 3.91392 27.0259 5.55095 27.4775C8.71057 28.3491 13.0758 28.8365 17.9463 28.9271L18.0014 24.6706L0.637628 24.4459Z" stroke="#686868"/>
</svg>
