<svg width="48" height="48" viewBox="0 0 48 48" fill="none" xmlns="http://www.w3.org/2000/svg">
<path d="M29.4059 29.4533C29.4444 26.4831 29.3926 30.4827 29.4382 26.959C29.4838 23.4353 29.4724 24.3189 29.4724 24.3189C29.4724 24.3189 42.5074 24.4876 47.9122 24.5576C47.8666 28.0813 39.5899 29.5851 29.4059 29.4533Z" fill="#6697DC"/>
<path d="M29.5463 18.6133C29.5079 21.5834 29.558 17.7084 29.5124 21.2321C29.4668 24.7558 29.4782 23.8722 29.4782 23.8722C29.4782 23.8722 42.5133 24.0409 47.918 24.1109C47.9636 20.5871 39.7303 18.7451 29.5463 18.6133Z" fill="#2F4ECD"/>
<path d="M29.386 18.5804C26.4158 18.5419 30.4154 18.5937 26.8917 18.5481C23.368 18.5025 24.2516 18.5139 24.2516 18.5139C24.2516 18.5139 24.4203 5.47883 24.4903 0.0740303C28.014 0.119638 29.5178 8.39631 29.386 18.5804Z" fill="#6697DC"/>
<path d="M18.547 18.4399C21.5172 18.4783 17.6422 18.4282 21.1659 18.4738C24.6896 18.5194 23.8059 18.508 23.8059 18.508C23.8059 18.508 23.9747 5.47286 24.0446 0.0680596C20.5209 0.0224513 18.6788 8.25582 18.547 18.4399Z" fill="#2F4ECD"/>
<path d="M18.5659 29.3132C21.5361 29.3516 17.5365 29.2998 21.0602 29.3454C24.5839 29.3911 23.7003 29.3796 23.7003 29.3796C23.7003 29.3796 23.5316 42.4147 23.4616 47.8195C19.9379 47.7739 18.4341 39.4972 18.5659 29.3132Z" fill="#6697DC"/>
<path d="M29.4054 29.4532C26.4352 29.4147 30.3102 29.4649 26.7865 29.4193C23.2628 29.3737 24.1465 29.3851 24.1465 29.3851C24.1465 29.3851 23.9777 42.4202 23.9078 47.825C27.4315 47.8706 29.2736 39.6372 29.4054 29.4532Z" fill="#2F4ECD"/>
<rect x="29.0593" y="18.9761" width="9.97231" height="9.97224" transform="rotate(90.7415 29.0593 18.9761)" fill="#FECC73"/>
<path d="M18.5802 18.5965C18.5417 21.5667 18.5935 17.5671 18.5479 21.0908C18.5023 24.6145 18.5137 23.7309 18.5137 23.7309C18.5137 23.7309 5.47867 23.5622 0.0739082 23.4922C0.119516 19.9685 8.39614 18.4647 18.5802 18.5965Z" fill="#6697DC"/>
<path d="M18.4397 29.4361C18.4781 26.4659 18.4279 30.3409 18.4736 26.8172C18.5192 23.2935 18.5077 24.1771 18.5077 24.1771C18.5077 24.1771 5.4727 24.0084 0.0679375 23.9385C0.0223296 27.4622 8.25565 29.3042 18.4397 29.4361Z" fill="#2F4ECD"/>
</svg>
